# Blender 5.0.1
# www.blender.org
mtllib BigBarn.mtl
o BigBarn
v -4.704000 0.000000 5.085500
v -4.704000 0.168000 5.085500
v -4.704000 0.000000 -5.162500
v -4.704000 0.168000 -5.162500
v 2.744000 0.000000 5.085500
v 2.744000 0.168000 5.085500
v 2.744000 0.000000 -5.162500
v 2.744000 0.168000 -5.162500
v -4.620000 0.168000 5.001500
v -4.620000 3.528000 5.001500
v -4.620000 0.168000 -5.078500
v -4.620000 3.528000 -5.078500
v 2.660000 0.168000 5.001500
v 2.660000 3.528000 5.001500
v 2.660000 0.168000 -5.078500
v 2.660000 3.528000 -5.078500
v -4.718000 0.168000 5.099501
v -4.718000 3.528000 5.099501
v -4.718000 0.168000 4.903500
v -4.718000 3.528000 4.903500
v -4.522000 0.168000 5.099501
v -4.522000 3.528000 5.099501
v -4.522000 0.168000 4.903500
v -4.522000 3.528000 4.903500
v -4.718000 0.168000 -4.980500
v -4.718000 3.528000 -4.980500
v -4.718000 0.168000 -5.176500
v -4.718000 3.528000 -5.176500
v -4.522000 0.168000 -4.980500
v -4.522000 3.528000 -4.980500
v -4.522000 0.168000 -5.176500
v -4.522000 3.528000 -5.176500
v 2.562000 0.168000 5.099501
v 2.562000 3.528000 5.099501
v 2.562000 0.168000 4.903500
v 2.562000 3.528000 4.903500
v 2.758000 0.168000 5.099501
v 2.758000 3.528000 5.099501
v 2.758000 0.168000 4.903500
v 2.758000 3.528000 4.903500
v 2.562000 0.168000 -4.980500
v 2.562000 3.528000 -4.980500
v 2.562000 0.168000 -5.176500
v 2.562000 3.528000 -5.176500
v 2.758000 0.168000 -4.980500
v 2.758000 3.528000 -4.980500
v 2.758000 0.168000 -5.176500
v 2.758000 3.528000 -5.176500
v -4.634000 3.388000 5.015500
v -4.634000 3.528000 5.015500
v -4.634000 3.388000 -5.092500
v -4.634000 3.528000 -5.092500
v 2.674000 3.388000 5.015500
v 2.674000 3.528000 5.015500
v 2.674000 3.388000 -5.092500
v 2.674000 3.528000 -5.092500
v -4.844000 3.416000 5.225500
v -3.348800 5.275200 5.225500
v -0.980000 6.288800 5.225500
v 1.388800 5.275200 5.225500
v 2.884000 3.416000 5.225500
v -4.844000 3.416000 -5.302500
v -3.348800 5.275200 -5.302500
v -0.980000 6.288800 -5.302500
v 1.388800 5.275200 -5.302500
v 2.884000 3.416000 -5.302500
v -4.620000 3.528000 5.242300
v -3.236800 5.163200 5.242300
v -0.980000 6.064800 5.242300
v 1.276800 5.163200 5.242300
v 2.660000 3.528000 5.242300
v -4.620000 3.528000 -5.319300
v -3.236800 5.163200 -5.319300
v -0.980000 6.064800 -5.319300
v 1.276800 5.163200 -5.319300
v 2.660000 3.528000 -5.319300
v -4.609714 3.464288 5.281500
v -4.684536 3.527579 5.281500
v -4.609714 3.464288 5.225500
v -4.684536 3.527579 5.225500
v -3.172264 5.163621 5.281500
v -3.247086 5.226912 5.281500
v -3.172264 5.163621 5.225500
v -3.247086 5.226912 5.225500
v -3.257624 5.102115 5.281500
v -3.293981 5.193121 5.281500
v -3.257624 5.102115 5.225500
v -3.293981 5.193121 5.225500
v -0.922819 6.034878 5.281500
v -0.959176 6.125885 5.281500
v -0.922819 6.034878 5.225500
v -0.959176 6.125885 5.225500
v -1.037181 6.034878 5.281500
v -1.000824 6.125885 5.281500
v -1.037181 6.034878 5.225500
v -1.000824 6.125885 5.225500
v 1.297624 5.102115 5.281500
v 1.333982 5.193121 5.281500
v 1.297624 5.102115 5.225500
v 1.333982 5.193121 5.225500
v 1.212265 5.163621 5.281500
v 1.287086 5.226912 5.281500
v 1.212265 5.163621 5.225500
v 1.287086 5.226912 5.225500
v 2.649714 3.464288 5.281500
v 2.724535 3.527579 5.281500
v 2.649714 3.464288 5.225500
v 2.724535 3.527579 5.225500
v -4.609714 3.464288 -5.302500
v -4.684536 3.527579 -5.302500
v -4.609714 3.464288 -5.358500
v -4.684536 3.527579 -5.358500
v -3.172264 5.163621 -5.302500
v -3.247086 5.226912 -5.302500
v -3.172264 5.163621 -5.358500
v -3.247086 5.226912 -5.358500
v -3.257624 5.102115 -5.302500
v -3.293981 5.193121 -5.302500
v -3.257624 5.102115 -5.358500
v -3.293981 5.193121 -5.358500
v -0.922819 6.034878 -5.302500
v -0.959176 6.125885 -5.302500
v -0.922819 6.034878 -5.358500
v -0.959176 6.125885 -5.358500
v -1.037181 6.034878 -5.302500
v -1.000824 6.125885 -5.302500
v -1.037181 6.034878 -5.358500
v -1.000824 6.125885 -5.358500
v 1.297624 5.102115 -5.302500
v 1.333982 5.193121 -5.302500
v 1.297624 5.102115 -5.358500
v 1.333982 5.193121 -5.358500
v 1.212265 5.163621 -5.302500
v 1.287086 5.226912 -5.302500
v 1.212265 5.163621 -5.358500
v 1.287086 5.226912 -5.358500
v 2.649714 3.464288 -5.302500
v 2.724535 3.527579 -5.302500
v 2.649714 3.464288 -5.358500
v 2.724535 3.527579 -5.358500
v -1.400000 4.287360 5.309500
v -1.400000 5.127360 5.309500
v -1.400000 4.287360 5.225501
v -1.400000 5.127360 5.225501
v -0.560000 4.287360 5.309500
v -0.560000 5.127360 5.309500
v -0.560000 4.287360 5.225501
v -0.560000 5.127360 5.225501
v -1.316000 4.371360 5.337500
v -1.316000 5.043360 5.337500
v -1.316000 4.371360 5.225500
v -1.316000 5.043360 5.225500
v -0.644000 4.371360 5.337500
v -0.644000 5.043360 5.337500
v -0.644000 4.371360 5.225500
v -0.644000 5.043360 5.225500
v -1.022000 4.371360 5.358500
v -1.022000 5.043360 5.358500
v -1.022000 4.371360 5.232500
v -1.022000 5.043360 5.232500
v -0.938000 4.371360 5.358500
v -0.938000 5.043360 5.358500
v -0.938000 4.371360 5.232500
v -0.938000 5.043360 5.232500
v -2.475200 0.168000 5.085500
v -2.475200 2.699200 5.085500
v -2.475200 0.168000 5.001500
v -2.475200 2.699200 5.001500
v 0.515200 0.168000 5.085500
v 0.515200 2.699200 5.085500
v 0.515200 0.168000 5.001500
v 0.515200 2.699200 5.001500
v -2.363200 0.168000 5.127500
v -2.363200 2.587200 5.127500
v -2.363200 0.168000 5.043500
v -2.363200 2.587200 5.043500
v 0.403200 0.168000 5.127500
v 0.403200 2.587200 5.127500
v 0.403200 0.168000 5.043500
v 0.403200 2.587200 5.043500
v -2.384891 2.526418 5.169500
v -2.299815 2.575061 5.169500
v -2.384891 2.526418 5.085501
v -2.299815 2.575061 5.085501
v -1.043385 0.180139 5.169500
v -0.958309 0.228782 5.169500
v -1.043385 0.180139 5.085501
v -0.958309 0.228782 5.085501
v -2.299815 0.180139 5.169500
v -2.384891 0.228782 5.169500
v -2.299815 0.180139 5.085501
v -2.384891 0.228782 5.085501
v -0.958309 2.526418 5.169500
v -1.043385 2.575061 5.169500
v -0.958309 2.526418 5.085501
v -1.043385 2.575061 5.085501
v -2.364600 0.168000 5.169500
v -2.364600 2.587200 5.169500
v -2.364600 0.168000 5.085501
v -2.364600 2.587200 5.085501
v -2.266600 0.168000 5.169500
v -2.266600 2.587200 5.169500
v -2.266600 0.168000 5.085501
v -2.266600 2.587200 5.085501
v -1.001691 2.526418 5.169500
v -0.916615 2.575061 5.169500
v -1.001691 2.526418 5.085501
v -0.916615 2.575061 5.085501
v 0.339815 0.180139 5.169500
v 0.424891 0.228782 5.169500
v 0.339815 0.180139 5.085501
v 0.424891 0.228782 5.085501
v -0.916615 0.180139 5.169500
v -1.001691 0.228782 5.169500
v -0.916615 0.180139 5.085501
v -1.001691 0.228782 5.085501
v 0.424891 2.526418 5.169500
v 0.339815 2.575061 5.169500
v 0.424891 2.526418 5.085501
v 0.339815 2.575061 5.085501
v 0.306600 0.168000 5.169500
v 0.306600 2.587200 5.169500
v 0.306600 0.168000 5.085501
v 0.306600 2.587200 5.085501
v 0.404600 0.168000 5.169500
v 0.404600 2.587200 5.169500
v 0.404600 0.168000 5.085501
v 0.404600 2.587200 5.085501
v -1.022000 0.168000 5.169500
v -1.022000 2.587200 5.169500
v -1.022000 0.168000 5.085501
v -1.022000 2.587200 5.085501
v -0.938000 0.168000 5.169500
v -0.938000 2.587200 5.169500
v -0.938000 0.168000 5.085501
v -0.938000 2.587200 5.085501
v -2.363200 2.490600 5.169500
v -2.363200 2.588600 5.169500
v -2.363200 2.490600 5.085501
v -2.363200 2.588600 5.085501
v 0.403200 2.490600 5.169500
v 0.403200 2.588600 5.169500
v 0.403200 2.490600 5.085501
v 0.403200 2.588600 5.085501
v -2.363200 0.166600 5.169500
v -2.363200 0.264600 5.169500
v -2.363200 0.166600 5.085501
v -2.363200 0.264600 5.085501
v 0.403200 0.166600 5.169500
v 0.403200 0.264600 5.169500
v 0.403200 0.166600 5.085501
v 0.403200 0.264600 5.085501
v 2.660000 1.873200 3.363500
v 2.660000 2.629200 3.363500
v 2.660000 1.873200 2.607500
v 2.660000 2.629200 2.607500
v 2.730000 1.873200 3.363500
v 2.730000 2.629200 3.363500
v 2.730000 1.873200 2.607500
v 2.730000 2.629200 2.607500
v 2.695000 1.943200 3.293500
v 2.695000 2.559200 3.293500
v 2.695000 1.943200 2.677500
v 2.695000 2.559200 2.677500
v 2.765000 1.943200 3.293500
v 2.765000 2.559200 3.293500
v 2.765000 1.943200 2.677500
v 2.765000 2.559200 2.677500
v 2.681000 2.226000 3.293500
v 2.681000 2.276400 3.293500
v 2.681000 2.226000 2.677500
v 2.681000 2.276400 2.677500
v 2.793000 2.226000 3.293500
v 2.793000 2.276400 3.293500
v 2.793000 2.226000 2.677500
v 2.793000 2.276400 2.677500
v 2.681000 1.943200 3.010700
v 2.681000 2.559200 3.010700
v 2.681000 1.943200 2.960300
v 2.681000 2.559200 2.960300
v 2.793000 1.943200 3.010700
v 2.793000 2.559200 3.010700
v 2.793000 1.943200 2.960300
v 2.793000 2.559200 2.960300
v -4.690000 1.873200 3.363500
v -4.690000 2.629200 3.363500
v -4.690000 1.873200 2.607500
v -4.690000 2.629200 2.607500
v -4.620000 1.873200 3.363500
v -4.620000 2.629200 3.363500
v -4.620000 1.873200 2.607500
v -4.620000 2.629200 2.607500
v -4.725000 1.943200 3.293500
v -4.725000 2.559200 3.293500
v -4.725000 1.943200 2.677500
v -4.725000 2.559200 2.677500
v -4.655000 1.943200 3.293500
v -4.655000 2.559200 3.293500
v -4.655000 1.943200 2.677500
v -4.655000 2.559200 2.677500
v -4.753000 2.226000 3.293500
v -4.753000 2.276400 3.293500
v -4.753000 2.226000 2.677500
v -4.753000 2.276400 2.677500
v -4.641000 2.226000 3.293500
v -4.641000 2.276400 3.293500
v -4.641000 2.226000 2.677500
v -4.641000 2.276400 2.677500
v -4.753000 1.943200 3.010700
v -4.753000 2.559200 3.010700
v -4.753000 1.943200 2.960300
v -4.753000 2.559200 2.960300
v -4.641000 1.943200 3.010700
v -4.641000 2.559200 3.010700
v -4.641000 1.943200 2.960300
v -4.641000 2.559200 2.960300
v 2.660000 1.873200 0.339500
v 2.660000 2.629200 0.339500
v 2.660000 1.873200 -0.416500
v 2.660000 2.629200 -0.416500
v 2.730000 1.873200 0.339500
v 2.730000 2.629200 0.339500
v 2.730000 1.873200 -0.416500
v 2.730000 2.629200 -0.416500
v 2.695000 1.943200 0.269500
v 2.695000 2.559200 0.269500
v 2.695000 1.943200 -0.346500
v 2.695000 2.559200 -0.346500
v 2.765000 1.943200 0.269500
v 2.765000 2.559200 0.269500
v 2.765000 1.943200 -0.346500
v 2.765000 2.559200 -0.346500
v 2.681000 2.226000 0.269500
v 2.681000 2.276400 0.269500
v 2.681000 2.226000 -0.346500
v 2.681000 2.276400 -0.346500
v 2.793000 2.226000 0.269500
v 2.793000 2.276400 0.269500
v 2.793000 2.226000 -0.346500
v 2.793000 2.276400 -0.346500
v 2.681000 1.943200 -0.013300
v 2.681000 2.559200 -0.013300
v 2.681000 1.943200 -0.063700
v 2.681000 2.559200 -0.063700
v 2.793000 1.943200 -0.013300
v 2.793000 2.559200 -0.013300
v 2.793000 1.943200 -0.063700
v 2.793000 2.559200 -0.063700
v -4.690000 1.873200 0.339500
v -4.690000 2.629200 0.339500
v -4.690000 1.873200 -0.416500
v -4.690000 2.629200 -0.416500
v -4.620000 1.873200 0.339500
v -4.620000 2.629200 0.339500
v -4.620000 1.873200 -0.416500
v -4.620000 2.629200 -0.416500
v -4.725000 1.943200 0.269500
v -4.725000 2.559200 0.269500
v -4.725000 1.943200 -0.346500
v -4.725000 2.559200 -0.346500
v -4.655000 1.943200 0.269500
v -4.655000 2.559200 0.269500
v -4.655000 1.943200 -0.346500
v -4.655000 2.559200 -0.346500
v -4.753000 2.226000 0.269500
v -4.753000 2.276400 0.269500
v -4.753000 2.226000 -0.346500
v -4.753000 2.276400 -0.346500
v -4.641000 2.226000 0.269500
v -4.641000 2.276400 0.269500
v -4.641000 2.226000 -0.346500
v -4.641000 2.276400 -0.346500
v -4.753000 1.943200 -0.013300
v -4.753000 2.559200 -0.013300
v -4.753000 1.943200 -0.063700
v -4.753000 2.559200 -0.063700
v -4.641000 1.943200 -0.013300
v -4.641000 2.559200 -0.013300
v -4.641000 1.943200 -0.063700
v -4.641000 2.559200 -0.063700
v 2.660000 1.873200 -2.684500
v 2.660000 2.629200 -2.684500
v 2.660000 1.873200 -3.440500
v 2.660000 2.629200 -3.440500
v 2.730000 1.873200 -2.684500
v 2.730000 2.629200 -2.684500
v 2.730000 1.873200 -3.440500
v 2.730000 2.629200 -3.440500
v 2.695000 1.943200 -2.754500
v 2.695000 2.559200 -2.754500
v 2.695000 1.943200 -3.370500
v 2.695000 2.559200 -3.370500
v 2.765000 1.943200 -2.754500
v 2.765000 2.559200 -2.754500
v 2.765000 1.943200 -3.370500
v 2.765000 2.559200 -3.370500
v 2.681000 2.226000 -2.754500
v 2.681000 2.276400 -2.754500
v 2.681000 2.226000 -3.370500
v 2.681000 2.276400 -3.370500
v 2.793000 2.226000 -2.754500
v 2.793000 2.276400 -2.754500
v 2.793000 2.226000 -3.370500
v 2.793000 2.276400 -3.370500
v 2.681000 1.943200 -3.037300
v 2.681000 2.559200 -3.037300
v 2.681000 1.943200 -3.087700
v 2.681000 2.559200 -3.087700
v 2.793000 1.943200 -3.037300
v 2.793000 2.559200 -3.037300
v 2.793000 1.943200 -3.087700
v 2.793000 2.559200 -3.087700
v -4.690000 1.873200 -2.684500
v -4.690000 2.629200 -2.684500
v -4.690000 1.873200 -3.440500
v -4.690000 2.629200 -3.440500
v -4.620000 1.873200 -2.684500
v -4.620000 2.629200 -2.684500
v -4.620000 1.873200 -3.440500
v -4.620000 2.629200 -3.440500
v -4.725000 1.943200 -2.754500
v -4.725000 2.559200 -2.754500
v -4.725000 1.943200 -3.370500
v -4.725000 2.559200 -3.370500
v -4.655000 1.943200 -2.754500
v -4.655000 2.559200 -2.754500
v -4.655000 1.943200 -3.370500
v -4.655000 2.559200 -3.370500
v -4.753000 2.226000 -2.754500
v -4.753000 2.276400 -2.754500
v -4.753000 2.226000 -3.370500
v -4.753000 2.276400 -3.370500
v -4.641000 2.226000 -2.754500
v -4.641000 2.276400 -2.754500
v -4.641000 2.226000 -3.370500
v -4.641000 2.276400 -3.370500
v -4.753000 1.943200 -3.037300
v -4.753000 2.559200 -3.037300
v -4.753000 1.943200 -3.087700
v -4.753000 2.559200 -3.087700
v -4.641000 1.943200 -3.037300
v -4.641000 2.559200 -3.037300
v -4.641000 1.943200 -3.087700
v -4.641000 2.559200 -3.087700
v -3.978800 1.873200 5.071500
v -3.978800 2.629200 5.071500
v -3.978800 1.873200 5.001500
v -3.978800 2.629200 5.001500
v -3.222800 1.873200 5.071500
v -3.222800 2.629200 5.071500
v -3.222800 1.873200 5.001500
v -3.222800 2.629200 5.001500
v -3.908800 1.943200 5.106500
v -3.908800 2.559200 5.106500
v -3.908800 1.943200 5.036500
v -3.908800 2.559200 5.036500
v -3.292799 1.943200 5.106500
v -3.292799 2.559200 5.106500
v -3.292799 1.943200 5.036500
v -3.292799 2.559200 5.036500
v -3.908800 2.226000 5.134501
v -3.908800 2.276400 5.134501
v -3.908800 2.226000 5.022500
v -3.908800 2.276400 5.022500
v -3.292799 2.226000 5.134501
v -3.292799 2.276400 5.134501
v -3.292799 2.226000 5.022500
v -3.292799 2.276400 5.022500
v -3.626000 1.943200 5.134501
v -3.626000 2.559200 5.134501
v -3.626000 1.943200 5.022500
v -3.626000 2.559200 5.022500
v -3.575600 1.943200 5.134501
v -3.575600 2.559200 5.134501
v -3.575600 1.943200 5.022500
v -3.575600 2.559200 5.022500
v 1.262800 1.873200 5.071500
v 1.262800 2.629200 5.071500
v 1.262800 1.873200 5.001500
v 1.262800 2.629200 5.001500
v 2.018800 1.873200 5.071500
v 2.018800 2.629200 5.071500
v 2.018800 1.873200 5.001500
v 2.018800 2.629200 5.001500
v 1.332800 1.943200 5.106500
v 1.332800 2.559200 5.106500
v 1.332800 1.943200 5.036500
v 1.332800 2.559200 5.036500
v 1.948800 1.943200 5.106500
v 1.948800 2.559200 5.106500
v 1.948800 1.943200 5.036500
v 1.948800 2.559200 5.036500
v 1.332800 2.226000 5.134501
v 1.332800 2.276400 5.134501
v 1.332800 2.226000 5.022500
v 1.332800 2.276400 5.022500
v 1.948800 2.226000 5.134501
v 1.948800 2.276400 5.134501
v 1.948800 2.226000 5.022500
v 1.948800 2.276400 5.022500
v 1.615600 1.943200 5.134501
v 1.615600 2.559200 5.134501
v 1.615600 1.943200 5.022500
v 1.615600 2.559200 5.022500
v 1.666000 1.943200 5.134501
v 1.666000 2.559200 5.134501
v 1.666000 1.943200 5.022500
v 1.666000 2.559200 5.022500
v -1.428000 6.064800 0.409500
v -1.428000 6.904800 0.409500
v -1.428000 6.064800 -0.486500
v -1.428000 6.904800 -0.486500
v -0.532000 6.064800 0.409500
v -0.532000 6.904800 0.409500
v -0.532000 6.064800 -0.486500
v -0.532000 6.904800 -0.486500
v -1.470000 6.344800 0.269500
v -1.470000 6.792799 0.269500
v -1.470000 6.344800 -0.346500
v -1.470000 6.792799 -0.346500
v -1.414000 6.344800 0.269500
v -1.414000 6.792799 0.269500
v -1.414000 6.344800 -0.346500
v -1.414000 6.792799 -0.346500
v -0.546000 6.344800 0.269500
v -0.546000 6.792799 0.269500
v -0.546000 6.344800 -0.346500
v -0.546000 6.792799 -0.346500
v -0.490000 6.344800 0.269500
v -0.490000 6.792799 0.269500
v -0.490000 6.344800 -0.346500
v -0.490000 6.792799 -0.346500
v -0.980000 7.941670 -0.087500
v -0.950901 7.408800 -0.055300
v -0.980000 6.904800 -0.878500
v -0.980000 7.856800 -0.072100
v -0.140000 6.904800 -0.038500
v -0.980000 7.408800 -0.072100
v -0.980000 6.904800 0.801500
v -0.980000 7.954800 -0.038500
v -1.820000 6.904800 -0.038500
v -0.980000 7.464800 -0.038500
v -0.950901 7.856800 -0.055300
v -0.950901 7.408800 -0.021700
v -0.950901 7.856800 -0.021700
v -0.980000 7.408800 -0.004900
v -0.980000 7.856800 -0.004900
v -1.009098 7.408800 -0.021700
v -1.009098 7.856800 -0.021700
v -1.009098 7.408800 -0.055300
v -1.009098 7.856800 -0.055300
v 2.604000 1.848000 -3.734500
v -0.980000 7.856800 -0.136500
v 2.604000 2.800000 3.657500
v -0.980000 7.771930 -0.087500
v -0.980000 7.758800 -0.038500
v -0.945352 7.941670 -0.073148
v 4.844000 1.988000 3.657500
v -0.919987 7.905800 -0.098512
v -0.910703 7.856800 -0.107796
v -0.919987 7.807800 -0.098512
v -0.945352 7.771930 -0.073148
v 4.844000 1.848000 3.657500
v -0.931000 7.941670 -0.038500
v 2.604000 1.848000 3.657500
v -0.895129 7.905800 -0.038500
v -0.882000 7.856800 -0.038500
v -0.895129 7.807800 -0.038500
v -0.931000 7.771930 -0.038500
v 4.634000 1.848000 -3.580500
v -0.945352 7.941670 -0.003852
v 4.634000 1.736000 -3.580500
v -0.919987 7.905800 0.021513
v -0.910703 7.856800 0.030797
v -0.919987 7.807800 0.021513
v -0.945352 7.771930 -0.003852
v 4.634000 1.848000 3.503500
v -0.980000 7.941670 0.010500
v 4.634000 1.736000 3.503500
v -0.980000 7.905800 0.046371
v -0.980000 7.856800 0.059500
v -0.980000 7.807800 0.046371
v -0.980000 7.771930 0.010500
v 2.646000 1.848000 -3.580500
v -1.014648 7.941670 -0.003852
v 2.646000 1.736000 -3.580500
v -1.040012 7.905800 0.021513
v -1.049296 7.856800 0.030797
v -1.040012 7.807800 0.021513
v -1.014648 7.771930 -0.003852
v 2.646000 1.848000 3.503500
v -1.029000 7.941670 -0.038500
v 2.646000 1.736000 3.503500
v -1.064870 7.905800 -0.038500
v -1.078000 7.856800 -0.038500
v -1.064870 7.807800 -0.038500
v -1.029000 7.771930 -0.038500
v 4.620000 1.848000 -3.566500
v -1.014648 7.941670 -0.073148
v 4.620000 0.168000 -3.566500
v -1.040012 7.905800 -0.098512
v -1.049296 7.856800 -0.107796
v -1.040012 7.807800 -0.098512
v -1.014648 7.771930 -0.073148
v 4.620000 1.848000 3.489500
v 4.620000 0.168000 3.489500
v 2.660000 1.848000 -3.566500
v -0.980000 7.905800 -0.123370
v 2.660000 0.168000 -3.566500
v -0.980000 7.807800 -0.123370
v 2.660000 1.848000 3.489500
v 2.660000 0.168000 3.489500
v 4.844000 1.848000 -3.734500
v 4.844000 1.988000 -3.734500
v 2.604000 2.800000 -3.734500
v 3.080000 0.168000 3.573500
v 3.080000 1.568000 3.573500
v 3.080000 0.168000 3.489500
v 3.080000 1.568000 3.489500
v 4.424000 0.168000 3.573500
v 4.424000 1.568000 3.573500
v 4.424000 0.168000 3.489500
v 4.424000 1.568000 3.489500
v 3.192000 0.168000 3.615500
v 3.192000 1.456000 3.615500
v 3.192000 0.168000 3.531500
v 3.192000 1.456000 3.531500
v 4.312000 0.168000 3.615500
v 4.312000 1.456000 3.615500
v 4.312000 0.168000 3.531500
v 4.312000 1.456000 3.531500
v 3.163810 1.397946 3.657500
v 3.253683 1.437021 3.657500
v 3.163810 1.397946 3.573500
v 3.253683 1.437021 3.573500
v 3.690317 0.186979 3.657500
v 3.780190 0.226055 3.657500
v 3.690317 0.186979 3.573500
v 3.780190 0.226055 3.573500
v 3.253683 0.186979 3.657500
v 3.163810 0.226055 3.657500
v 3.253683 0.186979 3.573500
v 3.163810 0.226055 3.573500
v 3.780190 1.397946 3.657500
v 3.690317 1.437021 3.657500
v 3.780190 1.397946 3.573500
v 3.690317 1.437021 3.573500
v 3.190600 0.168000 3.657500
v 3.190600 1.456000 3.657500
v 3.190600 0.168000 3.573500
v 3.190600 1.456000 3.573500
v 3.288600 0.168000 3.657500
v 3.288600 1.456000 3.657500
v 3.288600 0.168000 3.573500
v 3.288600 1.456000 3.573500
v 3.723810 1.397946 3.657500
v 3.813683 1.437021 3.657500
v 3.723810 1.397946 3.573500
v 3.813683 1.437021 3.573500
v 4.250317 0.186979 3.657500
v 4.340189 0.226055 3.657500
v 4.250317 0.186979 3.573500
v 4.340189 0.226055 3.573500
v 3.813683 0.186979 3.657500
v 3.723810 0.226055 3.657500
v 3.813683 0.186979 3.573500
v 3.723810 0.226055 3.573500
v 4.340189 1.397946 3.657500
v 4.250317 1.437021 3.657500
v 4.340189 1.397946 3.573500
v 4.250317 1.437021 3.573500
v 4.215400 0.168000 3.657500
v 4.215400 1.456000 3.657500
v 4.215400 0.168000 3.573500
v 4.215400 1.456000 3.573500
v 4.313400 0.168000 3.657500
v 4.313400 1.456000 3.657500
v 4.313400 0.168000 3.573500
v 4.313400 1.456000 3.573500
v 3.710000 0.168000 3.657500
v 3.710000 1.456000 3.657500
v 3.710000 0.168000 3.573500
v 3.710000 1.456000 3.573500
v 3.794000 0.168000 3.657500
v 3.794000 1.456000 3.657500
v 3.794000 0.168000 3.573500
v 3.794000 1.456000 3.573500
v 3.192000 1.359400 3.657500
v 3.192000 1.457400 3.657500
v 3.192000 1.359400 3.573500
v 3.192000 1.457400 3.573500
v 4.312000 1.359400 3.657500
v 4.312000 1.457400 3.657500
v 4.312000 1.359400 3.573500
v 4.312000 1.457400 3.573500
v 3.192000 0.166600 3.657500
v 3.192000 0.264600 3.657500
v 3.192000 0.166600 3.573500
v 3.192000 0.264600 3.573500
v 4.312000 0.166600 3.657500
v 4.312000 0.264600 3.657500
v 4.312000 0.166600 3.573500
v 4.312000 0.264600 3.573500
vn -1.0000 -0.0000 -0.0000
vn -0.0000 -0.0000 -1.0000
vn 1.0000 -0.0000 -0.0000
vn -0.0000 -0.0000 1.0000
vn -0.0000 -1.0000 -0.0000
vn -0.0000 1.0000 -0.0000
vn -0.7793 0.6267 -0.0000
vn -0.3934 0.9194 -0.0000
vn 0.3934 0.9194 -0.0000
vn 0.7793 0.6267 -0.0000
vn -0.7635 0.6458 -0.0000
vn -0.3710 0.9286 -0.0000
vn 0.3710 0.9286 -0.0000
vn 0.7635 0.6458 -0.0000
vn -0.6458 -0.7635 -0.0000
vn 0.6458 0.7635 -0.0000
vn 0.7635 -0.6458 -0.0000
vn -0.9286 -0.3710 -0.0000
vn 0.9286 0.3710 -0.0000
vn 0.3710 -0.9286 -0.0000
vn -0.9286 0.3710 -0.0000
vn 0.9286 -0.3710 -0.0000
vn -0.3710 -0.9286 -0.0000
vn -0.6458 0.7635 -0.0000
vn 0.6458 -0.7635 -0.0000
vn -0.7635 -0.6458 -0.0000
vn -0.4964 0.8681 -0.0000
vn 0.4964 -0.8681 -0.0000
vn -0.8681 -0.4964 -0.0000
vn 0.8681 0.4964 -0.0000
vn -0.4964 -0.8681 -0.0000
vn 0.4964 0.8681 -0.0000
vn 0.8681 -0.4964 -0.0000
vn -0.8681 0.4964 -0.0000
vn 0.5000 -0.0000 -0.8660
vn 0.4851 0.7276 -0.4851
vn 0.6786 -0.6786 -0.2811
vn 0.1066 -0.9604 -0.2574
vn 0.4851 0.7276 0.4851
vn 0.2573 -0.9604 -0.1066
vn -0.4851 0.7276 0.4851
vn 0.2811 -0.6786 -0.6786
vn 0.8968 0.2403 -0.3715
vn -0.4851 0.7276 -0.4851
vn 0.1066 0.9604 -0.2573
vn 0.5000 -0.0000 0.8660
vn 0.8968 -0.2403 -0.3715
vn 0.3715 -0.2403 -0.8968
vn -0.5000 -0.0000 0.8660
vn 0.2811 0.6786 -0.6786
vn 0.2574 0.9604 -0.1066
vn 0.3715 0.2403 -0.8968
vn -0.5000 -0.0000 -0.8660
vn 0.6786 0.6786 -0.2811
vn 0.2573 -0.9604 0.1066
vn 0.6786 -0.6786 0.2811
vn 0.2574 0.9604 0.1066
vn 0.8968 -0.2403 0.3715
vn 0.8968 0.2403 0.3715
vn 0.6786 0.6786 0.2811
vn 0.2811 -0.6786 0.6786
vn 0.1066 0.9604 0.2573
vn 0.3715 -0.2403 0.8968
vn 0.3715 0.2403 0.8968
vn 0.2811 0.6786 0.6786
vn 0.1066 -0.9604 0.2574
vn -0.1066 0.9604 0.2573
vn -0.3715 -0.2403 0.8968
vn -0.3715 0.2403 0.8968
vn -0.2811 0.6786 0.6786
vn -0.1066 -0.9604 0.2574
vn -0.2811 -0.6786 0.6786
vn -0.8968 -0.2403 0.3715
vn -0.8968 0.2403 0.3715
vn -0.6786 0.6786 0.2811
vn -0.2573 -0.9604 0.1066
vn -0.6786 -0.6786 0.2811
vn -0.2574 0.9604 0.1066
vn -0.8968 -0.2403 -0.3715
vn -0.8968 0.2403 -0.3715
vn -0.6786 0.6786 -0.2811
vn -0.2573 -0.9604 -0.1066
vn -0.6786 -0.6786 -0.2811
vn -0.2574 0.9604 -0.1066
vn -0.3715 -0.2403 -0.8968
vn -0.3715 0.2403 -0.8968
vn -0.2811 0.6786 -0.6786
vn -0.1066 -0.9604 -0.2574
vn -0.2811 -0.6786 -0.6786
vn -0.1066 0.9604 -0.2573
vn 0.3408 0.9401 -0.0000
vn -0.3987 0.9171 -0.0000
vn 0.3987 -0.9171 -0.0000
vn -0.9171 -0.3987 -0.0000
vn 0.9171 0.3987 -0.0000
vn -0.3987 -0.9171 -0.0000
vn 0.3987 0.9171 -0.0000
vn 0.9171 -0.3987 -0.0000
vn -0.9171 0.3987 -0.0000
s 0
usemtl EF_Path
f 1//1 2//1 4//1 3//1
f 3//2 4//2 8//2 7//2
f 7//3 8//3 6//3 5//3
f 5//4 6//4 2//4 1//4
f 3//5 7//5 5//5 1//5
f 8//6 4//6 2//6 6//6
usemtl EF_Roof
f 9//1 10//1 12//1 11//1
f 11//2 12//2 16//2 15//2
f 15//3 16//3 14//3 13//3
f 13//4 14//4 10//4 9//4
f 11//5 15//5 13//5 9//5
f 16//6 12//6 10//6 14//6
f 71//4 70//4 69//4 68//4 67//4
f 72//2 73//2 74//2 75//2 76//2
f 67//11 68//11 73//11 72//11
f 68//12 69//12 74//12 73//12
f 69//13 70//13 75//13 74//13
f 70//14 71//14 76//14 75//14
f 71//5 67//5 72//5 76//5
f 173//1 174//1 176//1 175//1
f 175//2 176//2 180//2 179//2
f 179//3 180//3 178//3 177//3
f 177//4 178//4 174//4 173//4
f 175//5 179//5 177//5 173//5
f 180//6 176//6 174//6 178//6
f 612//1 611//1 607//1 609//1
f 609//2 607//2 598//2 600//2
f 600//3 598//3 605//3 606//3
f 606//4 605//4 611//4 612//4
f 609//5 600//5 606//5 612//5
f 598//6 607//6 611//6 605//6
f 624//1 625//1 627//1 626//1
f 626//2 627//2 631//2 630//2
f 630//3 631//3 629//3 628//3
f 628//4 629//4 625//4 624//4
f 626//5 630//5 628//5 624//5
f 631//6 627//6 625//6 629//6
usemtl EF_White
f 17//1 18//1 20//1 19//1
f 19//2 20//2 24//2 23//2
f 23//3 24//3 22//3 21//3
f 21//4 22//4 18//4 17//4
f 19//5 23//5 21//5 17//5
f 24//6 20//6 18//6 22//6
f 25//1 26//1 28//1 27//1
f 27//2 28//2 32//2 31//2
f 31//3 32//3 30//3 29//3
f 29//4 30//4 26//4 25//4
f 27//5 31//5 29//5 25//5
f 32//6 28//6 26//6 30//6
f 33//1 34//1 36//1 35//1
f 35//2 36//2 40//2 39//2
f 39//3 40//3 38//3 37//3
f 37//4 38//4 34//4 33//4
f 35//5 39//5 37//5 33//5
f 40//6 36//6 34//6 38//6
f 41//1 42//1 44//1 43//1
f 43//2 44//2 48//2 47//2
f 47//3 48//3 46//3 45//3
f 45//4 46//4 42//4 41//4
f 43//5 47//5 45//5 41//5
f 48//6 44//6 42//6 46//6
f 49//1 50//1 52//1 51//1
f 51//2 52//2 56//2 55//2
f 55//3 56//3 54//3 53//3
f 53//4 54//4 50//4 49//4
f 51//5 55//5 53//5 49//5
f 56//6 52//6 50//6 54//6
f 77//15 78//15 80//15 79//15
f 79//2 80//2 84//2 83//2
f 83//16 84//16 82//16 81//16
f 81//4 82//4 78//4 77//4
f 79//17 83//17 81//17 77//17
f 84//11 80//11 78//11 82//11
f 85//18 86//18 88//18 87//18
f 87//2 88//2 92//2 91//2
f 91//19 92//19 90//19 89//19
f 89//4 90//4 86//4 85//4
f 87//20 91//20 89//20 85//20
f 92//12 88//12 86//12 90//12
f 93//21 94//21 96//21 95//21
f 95//2 96//2 100//2 99//2
f 99//22 100//22 98//22 97//22
f 97//4 98//4 94//4 93//4
f 95//23 99//23 97//23 93//23
f 100//13 96//13 94//13 98//13
f 101//24 102//24 104//24 103//24
f 103//2 104//2 108//2 107//2
f 107//25 108//25 106//25 105//25
f 105//4 106//4 102//4 101//4
f 103//26 107//26 105//26 101//26
f 108//14 104//14 102//14 106//14
f 109//15 110//15 112//15 111//15
f 111//2 112//2 116//2 115//2
f 115//16 116//16 114//16 113//16
f 113//4 114//4 110//4 109//4
f 111//17 115//17 113//17 109//17
f 116//11 112//11 110//11 114//11
f 117//18 118//18 120//18 119//18
f 119//2 120//2 124//2 123//2
f 123//19 124//19 122//19 121//19
f 121//4 122//4 118//4 117//4
f 119//20 123//20 121//20 117//20
f 124//12 120//12 118//12 122//12
f 125//21 126//21 128//21 127//21
f 127//2 128//2 132//2 131//2
f 131//22 132//22 130//22 129//22
f 129//4 130//4 126//4 125//4
f 127//23 131//23 129//23 125//23
f 132//13 128//13 126//13 130//13
f 133//24 134//24 136//24 135//24
f 135//2 136//2 140//2 139//2
f 139//25 140//25 138//25 137//25
f 137//4 138//4 134//4 133//4
f 135//26 139//26 137//26 133//26
f 140//14 136//14 134//14 138//14
f 141//1 142//1 144//1 143//1
f 143//2 144//2 148//2 147//2
f 147//3 148//3 146//3 145//3
f 145//4 146//4 142//4 141//4
f 143//5 147//5 145//5 141//5
f 148//6 144//6 142//6 146//6
f 157//1 158//1 160//1 159//1
f 159//2 160//2 164//2 163//2
f 163//3 164//3 162//3 161//3
f 161//4 162//4 158//4 157//4
f 159//5 163//5 161//5 157//5
f 164//6 160//6 158//6 162//6
f 165//1 166//1 168//1 167//1
f 167//2 168//2 172//2 171//2
f 171//3 172//3 170//3 169//3
f 169//4 170//4 166//4 165//4
f 167//5 171//5 169//5 165//5
f 172//6 168//6 166//6 170//6
f 181//27 182//27 184//27 183//27
f 183//2 184//2 188//2 187//2
f 187//28 188//28 186//28 185//28
f 185//4 186//4 182//4 181//4
f 183//29 187//29 185//29 181//29
f 188//30 184//30 182//30 186//30
f 189//31 190//31 192//31 191//31
f 191//2 192//2 196//2 195//2
f 195//32 196//32 194//32 193//32
f 193//4 194//4 190//4 189//4
f 191//33 195//33 193//33 189//33
f 196//34 192//34 190//34 194//34
f 197//1 198//1 200//1 199//1
f 199//2 200//2 204//2 203//2
f 203//3 204//3 202//3 201//3
f 201//4 202//4 198//4 197//4
f 199//5 203//5 201//5 197//5
f 204//6 200//6 198//6 202//6
f 205//27 206//27 208//27 207//27
f 207//2 208//2 212//2 211//2
f 211//28 212//28 210//28 209//28
f 209//4 210//4 206//4 205//4
f 207//29 211//29 209//29 205//29
f 212//30 208//30 206//30 210//30
f 213//31 214//31 216//31 215//31
f 215//2 216//2 220//2 219//2
f 219//32 220//32 218//32 217//32
f 217//4 218//4 214//4 213//4
f 215//33 219//33 217//33 213//33
f 220//34 216//34 214//34 218//34
f 221//1 222//1 224//1 223//1
f 223//2 224//2 228//2 227//2
f 227//3 228//3 226//3 225//3
f 225//4 226//4 222//4 221//4
f 223//5 227//5 225//5 221//5
f 228//6 224//6 222//6 226//6
f 229//1 230//1 232//1 231//1
f 231//2 232//2 236//2 235//2
f 235//3 236//3 234//3 233//3
f 233//4 234//4 230//4 229//4
f 231//5 235//5 233//5 229//5
f 236//6 232//6 230//6 234//6
f 237//1 238//1 240//1 239//1
f 239//2 240//2 244//2 243//2
f 243//3 244//3 242//3 241//3
f 241//4 242//4 238//4 237//4
f 239//5 243//5 241//5 237//5
f 244//6 240//6 238//6 242//6
f 245//1 246//1 248//1 247//1
f 247//2 248//2 252//2 251//2
f 251//3 252//3 250//3 249//3
f 249//4 250//4 246//4 245//4
f 247//5 251//5 249//5 245//5
f 252//6 248//6 246//6 250//6
f 253//1 254//1 256//1 255//1
f 255//2 256//2 260//2 259//2
f 259//3 260//3 258//3 257//3
f 257//4 258//4 254//4 253//4
f 255//5 259//5 257//5 253//5
f 260//6 256//6 254//6 258//6
f 269//1 270//1 272//1 271//1
f 271//2 272//2 276//2 275//2
f 275//3 276//3 274//3 273//3
f 273//4 274//4 270//4 269//4
f 271//5 275//5 273//5 269//5
f 276//6 272//6 270//6 274//6
f 277//1 278//1 280//1 279//1
f 279//2 280//2 284//2 283//2
f 283//3 284//3 282//3 281//3
f 281//4 282//4 278//4 277//4
f 279//5 283//5 281//5 277//5
f 284//6 280//6 278//6 282//6
f 285//1 286//1 288//1 287//1
f 287//2 288//2 292//2 291//2
f 291//3 292//3 290//3 289//3
f 289//4 290//4 286//4 285//4
f 287//5 291//5 289//5 285//5
f 292//6 288//6 286//6 290//6
f 301//1 302//1 304//1 303//1
f 303//2 304//2 308//2 307//2
f 307//3 308//3 306//3 305//3
f 305//4 306//4 302//4 301//4
f 303//5 307//5 305//5 301//5
f 308//6 304//6 302//6 306//6
f 309//1 310//1 312//1 311//1
f 311//2 312//2 316//2 315//2
f 315//3 316//3 314//3 313//3
f 313//4 314//4 310//4 309//4
f 311//5 315//5 313//5 309//5
f 316//6 312//6 310//6 314//6
f 317//1 318//1 320//1 319//1
f 319//2 320//2 324//2 323//2
f 323//3 324//3 322//3 321//3
f 321//4 322//4 318//4 317//4
f 319//5 323//5 321//5 317//5
f 324//6 320//6 318//6 322//6
f 333//1 334//1 336//1 335//1
f 335//2 336//2 340//2 339//2
f 339//3 340//3 338//3 337//3
f 337//4 338//4 334//4 333//4
f 335//5 339//5 337//5 333//5
f 340//6 336//6 334//6 338//6
f 341//1 342//1 344//1 343//1
f 343//2 344//2 348//2 347//2
f 347//3 348//3 346//3 345//3
f 345//4 346//4 342//4 341//4
f 343//5 347//5 345//5 341//5
f 348//6 344//6 342//6 346//6
f 349//1 350//1 352//1 351//1
f 351//2 352//2 356//2 355//2
f 355//3 356//3 354//3 353//3
f 353//4 354//4 350//4 349//4
f 351//5 355//5 353//5 349//5
f 356//6 352//6 350//6 354//6
f 365//1 366//1 368//1 367//1
f 367//2 368//2 372//2 371//2
f 371//3 372//3 370//3 369//3
f 369//4 370//4 366//4 365//4
f 367//5 371//5 369//5 365//5
f 372//6 368//6 366//6 370//6
f 373//1 374//1 376//1 375//1
f 375//2 376//2 380//2 379//2
f 379//3 380//3 378//3 377//3
f 377//4 378//4 374//4 373//4
f 375//5 379//5 377//5 373//5
f 380//6 376//6 374//6 378//6
f 381//1 382//1 384//1 383//1
f 383//2 384//2 388//2 387//2
f 387//3 388//3 386//3 385//3
f 385//4 386//4 382//4 381//4
f 383//5 387//5 385//5 381//5
f 388//6 384//6 382//6 386//6
f 397//1 398//1 400//1 399//1
f 399//2 400//2 404//2 403//2
f 403//3 404//3 402//3 401//3
f 401//4 402//4 398//4 397//4
f 399//5 403//5 401//5 397//5
f 404//6 400//6 398//6 402//6
f 405//1 406//1 408//1 407//1
f 407//2 408//2 412//2 411//2
f 411//3 412//3 410//3 409//3
f 409//4 410//4 406//4 405//4
f 407//5 411//5 409//5 405//5
f 412//6 408//6 406//6 410//6
f 413//1 414//1 416//1 415//1
f 415//2 416//2 420//2 419//2
f 419//3 420//3 418//3 417//3
f 417//4 418//4 414//4 413//4
f 415//5 419//5 417//5 413//5
f 420//6 416//6 414//6 418//6
f 429//1 430//1 432//1 431//1
f 431//2 432//2 436//2 435//2
f 435//3 436//3 434//3 433//3
f 433//4 434//4 430//4 429//4
f 431//5 435//5 433//5 429//5
f 436//6 432//6 430//6 434//6
f 437//1 438//1 440//1 439//1
f 439//2 440//2 444//2 443//2
f 443//3 444//3 442//3 441//3
f 441//4 442//4 438//4 437//4
f 439//5 443//5 441//5 437//5
f 444//6 440//6 438//6 442//6
f 445//1 446//1 448//1 447//1
f 447//2 448//2 452//2 451//2
f 451//3 452//3 450//3 449//3
f 449//4 450//4 446//4 445//4
f 447//5 451//5 449//5 445//5
f 452//6 448//6 446//6 450//6
f 461//1 462//1 464//1 463//1
f 463//2 464//2 468//2 467//2
f 467//3 468//3 466//3 465//3
f 465//4 466//4 462//4 461//4
f 463//5 467//5 465//5 461//5
f 468//6 464//6 462//6 466//6
f 469//1 470//1 472//1 471//1
f 471//2 472//2 476//2 475//2
f 475//3 476//3 474//3 473//3
f 473//4 474//4 470//4 469//4
f 471//5 475//5 473//5 469//5
f 476//6 472//6 470//6 474//6
f 477//1 478//1 480//1 479//1
f 479//2 480//2 484//2 483//2
f 483//3 484//3 482//3 481//3
f 481//4 482//4 478//4 477//4
f 479//5 483//5 481//5 477//5
f 484//6 480//6 478//6 482//6
f 493//1 494//1 496//1 495//1
f 495//2 496//2 500//2 499//2
f 499//3 500//3 498//3 497//3
f 497//4 498//4 494//4 493//4
f 495//5 499//5 497//5 493//5
f 500//6 496//6 494//6 498//6
f 501//1 502//1 504//1 503//1
f 503//2 504//2 508//2 507//2
f 507//3 508//3 506//3 505//3
f 505//4 506//4 502//4 501//4
f 503//5 507//5 505//5 501//5
f 508//6 504//6 502//6 506//6
f 509//1 510//1 512//1 511//1
f 511//2 512//2 516//2 515//2
f 515//3 516//3 514//3 513//3
f 513//4 514//4 510//4 509//4
f 511//5 515//5 513//5 509//5
f 516//6 512//6 510//6 514//6
f 593//1 591//1 584//1 586//1
f 586//2 584//2 570//2 572//2
f 572//3 570//3 577//3 579//3
f 579//4 577//4 591//4 593//4
f 586//5 572//5 579//5 593//5
f 570//6 584//6 591//6 577//6
f 616//1 617//1 619//1 618//1
f 618//2 619//2 623//2 622//2
f 622//3 623//3 621//3 620//3
f 620//4 621//4 617//4 616//4
f 618//5 622//5 620//5 616//5
f 623//6 619//6 617//6 621//6
f 632//92 633//92 635//92 634//92
f 634//2 635//2 639//2 638//2
f 638//93 639//93 637//93 636//93
f 636//4 637//4 633//4 632//4
f 634//94 638//94 636//94 632//94
f 639//95 635//95 633//95 637//95
f 640//96 641//96 643//96 642//96
f 642//2 643//2 647//2 646//2
f 646//97 647//97 645//97 644//97
f 644//4 645//4 641//4 640//4
f 642//98 646//98 644//98 640//98
f 647//99 643//99 641//99 645//99
f 648//1 649//1 651//1 650//1
f 650//2 651//2 655//2 654//2
f 654//3 655//3 653//3 652//3
f 652//4 653//4 649//4 648//4
f 650//5 654//5 652//5 648//5
f 655//6 651//6 649//6 653//6
f 656//92 657//92 659//92 658//92
f 658//2 659//2 663//2 662//2
f 662//93 663//93 661//93 660//93
f 660//4 661//4 657//4 656//4
f 658//94 662//94 660//94 656//94
f 663//95 659//95 657//95 661//95
f 664//96 665//96 667//96 666//96
f 666//2 667//2 671//2 670//2
f 670//97 671//97 669//97 668//97
f 668//4 669//4 665//4 664//4
f 666//98 670//98 668//98 664//98
f 671//99 667//99 665//99 669//99
f 672//1 673//1 675//1 674//1
f 674//2 675//2 679//2 678//2
f 678//3 679//3 677//3 676//3
f 676//4 677//4 673//4 672//4
f 674//5 678//5 676//5 672//5
f 679//6 675//6 673//6 677//6
f 680//1 681//1 683//1 682//1
f 682//2 683//2 687//2 686//2
f 686//3 687//3 685//3 684//3
f 684//4 685//4 681//4 680//4
f 682//5 686//5 684//5 680//5
f 687//6 683//6 681//6 685//6
f 688//1 689//1 691//1 690//1
f 690//2 691//2 695//2 694//2
f 694//3 695//3 693//3 692//3
f 692//4 693//4 689//4 688//4
f 690//5 694//5 692//5 688//5
f 695//6 691//6 689//6 693//6
f 696//1 697//1 699//1 698//1
f 698//2 699//2 703//2 702//2
f 702//3 703//3 701//3 700//3
f 700//4 701//4 697//4 696//4
f 698//5 702//5 700//5 696//5
f 703//6 699//6 697//6 701//6
usemtl EF_RoofDark
f 61//4 60//4 59//4 58//4 57//4
f 62//2 63//2 64//2 65//2 66//2
f 57//7 58//7 63//7 62//7
f 58//8 59//8 64//8 63//8
f 59//9 60//9 65//9 64//9
f 60//10 61//10 66//10 65//10
f 61//5 57//5 62//5 66//5
f 535//36 542//36 537//36
f 537//39 542//39 539//39
f 535//5 537//5 539//5 541//5
f 539//41 542//41 541//41
f 541//44 542//44 535//44
f 554//4 565//4 563//4 558//4
f 552//2 615//2 614//2 613//2
f 565//5 552//5 613//5 563//5
f 563//3 613//3 614//3 558//3
f 558//91 614//91 615//91 554//91
f 554//1 615//1 552//1 565//1
usemtl EF_WoodDark
f 149//1 150//1 152//1 151//1
f 151//2 152//2 156//2 155//2
f 155//3 156//3 154//3 153//3
f 153//4 154//4 150//4 149//4
f 151//5 155//5 153//5 149//5
f 156//6 152//6 150//6 154//6
f 517//1 518//1 520//1 519//1
f 519//2 520//2 524//2 523//2
f 523//3 524//3 522//3 521//3
f 521//4 522//4 518//4 517//4
f 519//5 523//5 521//5 517//5
f 524//6 520//6 518//6 522//6
f 525//1 526//1 528//1 527//1
f 527//2 528//2 532//2 531//2
f 531//3 532//3 530//3 529//3
f 529//4 530//4 526//4 525//4
f 527//5 531//5 529//5 525//5
f 532//6 528//6 526//6 530//6
usemtl EF_Glass
f 261//1 262//1 264//1 263//1
f 263//2 264//2 268//2 267//2
f 267//3 268//3 266//3 265//3
f 265//4 266//4 262//4 261//4
f 263//5 267//5 265//5 261//5
f 268//6 264//6 262//6 266//6
f 293//1 294//1 296//1 295//1
f 295//2 296//2 300//2 299//2
f 299//3 300//3 298//3 297//3
f 297//4 298//4 294//4 293//4
f 295//5 299//5 297//5 293//5
f 300//6 296//6 294//6 298//6
f 325//1 326//1 328//1 327//1
f 327//2 328//2 332//2 331//2
f 331//3 332//3 330//3 329//3
f 329//4 330//4 326//4 325//4
f 327//5 331//5 329//5 325//5
f 332//6 328//6 326//6 330//6
f 357//1 358//1 360//1 359//1
f 359//2 360//2 364//2 363//2
f 363//3 364//3 362//3 361//3
f 361//4 362//4 358//4 357//4
f 359//5 363//5 361//5 357//5
f 364//6 360//6 358//6 362//6
f 389//1 390//1 392//1 391//1
f 391//2 392//2 396//2 395//2
f 395//3 396//3 394//3 393//3
f 393//4 394//4 390//4 389//4
f 391//5 395//5 393//5 389//5
f 396//6 392//6 390//6 394//6
f 421//1 422//1 424//1 423//1
f 423//2 424//2 428//2 427//2
f 427//3 428//3 426//3 425//3
f 425//4 426//4 422//4 421//4
f 423//5 427//5 425//5 421//5
f 428//6 424//6 422//6 426//6
f 453//1 454//1 456//1 455//1
f 455//2 456//2 460//2 459//2
f 459//3 460//3 458//3 457//3
f 457//4 458//4 454//4 453//4
f 455//5 459//5 457//5 453//5
f 460//6 456//6 454//6 458//6
f 485//1 486//1 488//1 487//1
f 487//2 488//2 492//2 491//2
f 491//3 492//3 490//3 489//3
f 489//4 490//4 486//4 485//4
f 487//5 491//5 489//5 485//5
f 492//6 488//6 486//6 490//6
usemtl EF_GreyDark
f 538//35 536//35 543//35 534//35
f 534//3 543//3 545//3 544//3
f 544//46 545//46 547//46 546//46
f 546//49 547//49 549//49 548//49
f 545//6 543//6 536//6 551//6 549//6 547//6
f 548//1 549//1 551//1 550//1
f 550//53 551//53 536//53 538//53
f 534//5 544//5 546//5 548//5 550//5 538//5
usemtl EF_Accent
f 562//37 561//37 568//37 569//37
f 556//38 555//38 562//38
f 556//40 562//40 569//40
f 555//42 610//42 561//42 562//42
f 560//43 559//43 566//43 567//43
f 533//45 540//45 557//45
f 561//47 560//47 567//47 568//47
f 610//48 553//48 560//48 561//48
f 608//50 533//50 557//50 559//50
f 557//51 540//51 564//51
f 553//52 608//52 559//52 560//52
f 559//54 557//54 564//54 566//54
f 556//55 569//55 576//55
f 569//56 568//56 575//56 576//56
f 564//57 540//57 571//57
f 568//58 567//58 574//58 575//58
f 567//59 566//59 573//59 574//59
f 566//60 564//60 571//60 573//60
f 576//61 575//61 582//61 583//61
f 571//62 540//62 578//62
f 575//63 574//63 581//63 582//63
f 574//64 573//64 580//64 581//64
f 573//65 571//65 578//65 580//65
f 556//66 576//66 583//66
f 578//67 540//67 585//67
f 582//68 581//68 588//68 589//68
f 581//69 580//69 587//69 588//69
f 580//70 578//70 585//70 587//70
f 556//71 583//71 590//71
f 583//72 582//72 589//72 590//72
f 589//73 588//73 595//73 596//73
f 588//74 587//74 594//74 595//74
f 587//75 585//75 592//75 594//75
f 556//76 590//76 597//76
f 590//77 589//77 596//77 597//77
f 585//78 540//78 592//78
f 596//79 595//79 602//79 603//79
f 595//80 594//80 601//80 602//80
f 594//81 592//81 599//81 601//81
f 556//82 597//82 604//82
f 597//83 596//83 603//83 604//83
f 592//84 540//84 599//84
f 603//85 602//85 553//85 610//85
f 602//86 601//86 608//86 553//86
f 601//87 599//87 533//87 608//87
f 556//88 604//88 555//88
f 604//89 603//89 610//89 555//89
f 599//90 540//90 533//90
