# Blender 5.0.1
# www.blender.org
mtllib BoxTruck.mtl
o BoxTruck
v -0.868000 0.616000 2.919000
v -0.868000 0.336000 2.919000
v -1.218000 0.420000 1.939000
v -0.910000 0.420000 1.939000
v -1.218000 0.210000 1.995269
v -0.910000 0.210000 1.995269
v -1.218000 0.056269 2.149000
v -0.910000 0.056269 2.149000
v -1.218000 0.000000 2.359000
v -0.910000 0.000000 2.359000
v -1.218000 0.056269 2.569000
v -0.910000 0.056269 2.569000
v -1.218000 0.210000 2.722730
v -0.910000 0.210000 2.722730
v -1.218000 0.420000 2.779000
v -0.910000 0.420000 2.779000
v -1.218000 0.630000 2.722730
v -0.910000 0.630000 2.722730
v -1.218000 0.783731 2.569000
v -0.910000 0.783731 2.569000
v -1.218000 0.840000 2.359000
v -0.910000 0.840000 2.359000
v -1.218000 0.783731 2.149000
v -0.910000 0.783731 2.149000
v -1.218000 0.630000 1.995269
v -0.910000 0.630000 1.995269
v -1.240400 0.420000 2.128000
v -0.898800 0.420000 2.128000
v -1.240400 0.256658 2.195658
v -0.898800 0.256658 2.195658
v -1.240400 0.189000 2.359000
v -0.898800 0.189000 2.359000
v -1.240400 0.256658 2.522341
v -0.898800 0.256658 2.522341
v -1.240400 0.420000 2.590000
v -0.898800 0.420000 2.590000
v -1.240400 0.583342 2.522341
v -0.898800 0.583342 2.522341
v -1.240400 0.651000 2.359000
v -0.898800 0.651000 2.359000
v -1.240400 0.583342 2.195658
v -0.898800 0.583342 2.195658
v -1.264200 0.420000 2.275000
v -0.886200 0.420000 2.275000
v -1.264200 0.347254 2.317000
v -0.886200 0.347254 2.317000
v -1.264200 0.347254 2.401000
v -0.886200 0.347254 2.401000
v -1.264200 0.420000 2.443000
v -0.886200 0.420000 2.443000
v -1.264200 0.492746 2.401000
v -0.886200 0.492746 2.401000
v -1.264200 0.492746 2.317000
v -0.886200 0.492746 2.317000
v 0.910000 0.420000 1.939000
v 1.218000 0.420000 1.939000
v 0.910000 0.210000 1.995269
v 1.218000 0.210000 1.995269
v 0.910000 0.056269 2.149000
v 1.218000 0.056269 2.149000
v 0.910000 0.000000 2.359000
v 1.218000 0.000000 2.359000
v 0.910000 0.056269 2.569000
v 1.218000 0.056269 2.569000
v 0.910000 0.210000 2.722730
v 1.218000 0.210000 2.722730
v 0.910000 0.420000 2.779000
v 1.218000 0.420000 2.779000
v 0.910000 0.630000 2.722730
v 1.218000 0.630000 2.722730
v 0.910000 0.783731 2.569000
v 1.218000 0.783731 2.569000
v 0.910000 0.840000 2.359000
v 1.218000 0.840000 2.359000
v 0.910000 0.783731 2.149000
v 1.218000 0.783731 2.149000
v 0.910000 0.630000 1.995269
v 1.218000 0.630000 1.995269
v 0.898800 0.420000 2.128000
v 1.240400 0.420000 2.128000
v 0.898800 0.256658 2.195658
v 1.240400 0.256658 2.195658
v 0.898800 0.189000 2.359000
v 1.240400 0.189000 2.359000
v 0.898800 0.256658 2.522341
v 1.240400 0.256658 2.522341
v 0.898800 0.420000 2.590000
v 1.240400 0.420000 2.590000
v 0.898800 0.583342 2.522341
v 1.240400 0.583342 2.522341
v 0.898800 0.651000 2.359000
v 1.240400 0.651000 2.359000
v 0.898800 0.583342 2.195658
v 1.240400 0.583342 2.195658
v 0.886200 0.420000 2.275000
v 1.264200 0.420000 2.275000
v 0.886200 0.347254 2.317000
v 1.264200 0.347254 2.317000
v 0.886200 0.347254 2.401000
v 1.264200 0.347254 2.401000
v 0.886200 0.420000 2.443000
v 1.264200 0.420000 2.443000
v 0.886200 0.492746 2.401000
v 1.264200 0.492746 2.401000
v 0.886200 0.492746 2.317000
v 1.264200 0.492746 2.317000
v -1.218000 0.420000 -1.841000
v -0.910000 0.420000 -1.841000
v -1.218000 0.210000 -1.784731
v -0.910000 0.210000 -1.784731
v -1.218000 0.056269 -1.631000
v -0.910000 0.056269 -1.631000
v -1.218000 0.000000 -1.421000
v -0.910000 0.000000 -1.421000
v -1.218000 0.056269 -1.211000
v -0.910000 0.056269 -1.211000
v -1.218000 0.210000 -1.057269
v -0.910000 0.210000 -1.057269
v -1.218000 0.420000 -1.001000
v -0.910000 0.420000 -1.001000
v -1.218000 0.630000 -1.057269
v -0.910000 0.630000 -1.057269
v -1.218000 0.783731 -1.211000
v -0.910000 0.783731 -1.211000
v -1.218000 0.840000 -1.421000
v -0.910000 0.840000 -1.421000
v -1.218000 0.783731 -1.631000
v -0.910000 0.783731 -1.631000
v -1.218000 0.630000 -1.784731
v -0.910000 0.630000 -1.784731
v -1.240400 0.420000 -1.652000
v -0.898800 0.420000 -1.652000
v -1.240400 0.256658 -1.584342
v -0.898800 0.256658 -1.584342
v -1.240400 0.189000 -1.421000
v -0.898800 0.189000 -1.421000
v -1.240400 0.256658 -1.257658
v -0.898800 0.256658 -1.257658
v -1.240400 0.420000 -1.190000
v -0.898800 0.420000 -1.190000
v -1.240400 0.583342 -1.257658
v -0.898800 0.583342 -1.257658
v -1.240400 0.651000 -1.421000
v -0.898800 0.651000 -1.421000
v -1.240400 0.583342 -1.584342
v -0.898800 0.583342 -1.584342
v -1.264200 0.420000 -1.505000
v -0.886200 0.420000 -1.505000
v -1.264200 0.347254 -1.463000
v -0.886200 0.347254 -1.463000
v -1.264200 0.347254 -1.379000
v -0.886200 0.347254 -1.379000
v -1.264200 0.420000 -1.337000
v -0.886200 0.420000 -1.337000
v -1.264200 0.492746 -1.379000
v -0.886200 0.492746 -1.379000
v -1.264200 0.492746 -1.463000
v -0.886200 0.492746 -1.463000
v -0.602000 0.420000 -1.841000
v -0.602000 0.210000 -1.784731
v -0.602000 0.056269 -1.631000
v -0.602000 0.000000 -1.421000
v -0.602000 0.056269 -1.211000
v -0.602000 0.210000 -1.057269
v -0.602000 0.420000 -1.001000
v -0.602000 0.630000 -1.057269
v -0.602000 0.783731 -1.211000
v -0.602000 0.840000 -1.421000
v -0.602000 0.783731 -1.631000
v -0.602000 0.630000 -1.784731
v 0.910000 0.420000 -1.841000
v 1.218000 0.420000 -1.841000
v 0.910000 0.210000 -1.784731
v 1.218000 0.210000 -1.784731
v 0.910000 0.056269 -1.631000
v 1.218000 0.056269 -1.631000
v 0.910000 0.000000 -1.421000
v 1.218000 0.000000 -1.421000
v 0.910000 0.056269 -1.211000
v 1.218000 0.056269 -1.211000
v 0.910000 0.210000 -1.057269
v 1.218000 0.210000 -1.057269
v 0.910000 0.420000 -1.001000
v 1.218000 0.420000 -1.001000
v 0.910000 0.630000 -1.057269
v 1.218000 0.630000 -1.057269
v 0.910000 0.783731 -1.211000
v 1.218000 0.783731 -1.211000
v 0.910000 0.840000 -1.421000
v 1.218000 0.840000 -1.421000
v 0.910000 0.783731 -1.631000
v 1.218000 0.783731 -1.631000
v 0.910000 0.630000 -1.784731
v 1.218000 0.630000 -1.784731
v 0.898800 0.420000 -1.652000
v 1.240400 0.420000 -1.652000
v 0.898800 0.256658 -1.584342
v 1.240400 0.256658 -1.584342
v 0.898800 0.189000 -1.421000
v 1.240400 0.189000 -1.421000
v 0.898800 0.256658 -1.257658
v 1.240400 0.256658 -1.257658
v 0.898800 0.420000 -1.190000
v 1.240400 0.420000 -1.190000
v 0.898800 0.583342 -1.257658
v 1.240400 0.583342 -1.257658
v 0.898800 0.651000 -1.421000
v 1.240400 0.651000 -1.421000
v 0.898800 0.583342 -1.584342
v 1.240400 0.583342 -1.584342
v 0.886200 0.420000 -1.505000
v 1.264200 0.420000 -1.505000
v 0.886200 0.347254 -1.463000
v 1.264200 0.347254 -1.463000
v 0.886200 0.347254 -1.379000
v 1.264200 0.347254 -1.379000
v 0.886200 0.420000 -1.337000
v 1.264200 0.420000 -1.337000
v 0.886200 0.492746 -1.379000
v 1.264200 0.492746 -1.379000
v 0.886200 0.492746 -1.463000
v 1.264200 0.492746 -1.463000
v 0.602000 0.420000 -1.841000
v 0.602000 0.210000 -1.784731
v 0.602000 0.056269 -1.631000
v 0.602000 0.000000 -1.421000
v 0.602000 0.056269 -1.211000
v 0.602000 0.210000 -1.057269
v 0.602000 0.420000 -1.001000
v 0.602000 0.630000 -1.057269
v 0.602000 0.783731 -1.211000
v 0.602000 0.840000 -1.421000
v 0.602000 0.783731 -1.631000
v 0.602000 0.630000 -1.784731
v -1.218000 0.420000 -2.793000
v -0.910000 0.420000 -2.793000
v -1.218000 0.210000 -2.736731
v -0.910000 0.210000 -2.736731
v -1.218000 0.056269 -2.583000
v -0.910000 0.056269 -2.583000
v -1.218000 0.000000 -2.373000
v -0.910000 0.000000 -2.373000
v -1.218000 0.056269 -2.163000
v -0.910000 0.056269 -2.163000
v -1.218000 0.210000 -2.009269
v -0.910000 0.210000 -2.009269
v -1.218000 0.420000 -1.953000
v -0.910000 0.420000 -1.953000
v -1.218000 0.630000 -2.009269
v -0.910000 0.630000 -2.009269
v -1.218000 0.783731 -2.163000
v -0.910000 0.783731 -2.163000
v -1.218000 0.840000 -2.373000
v -0.910000 0.840000 -2.373000
v -1.218000 0.783731 -2.583000
v -0.910000 0.783731 -2.583000
v -1.218000 0.630000 -2.736731
v -0.910000 0.630000 -2.736731
v -1.240400 0.420000 -2.604000
v -0.898800 0.420000 -2.604000
v -1.240400 0.256658 -2.536342
v -0.898800 0.256658 -2.536342
v -1.240400 0.189000 -2.373000
v -0.898800 0.189000 -2.373000
v -1.240400 0.256658 -2.209658
v -0.898800 0.256658 -2.209658
v -1.240400 0.420000 -2.142000
v -0.898800 0.420000 -2.142000
v -1.240400 0.583342 -2.209658
v -0.898800 0.583342 -2.209658
v -1.240400 0.651000 -2.373000
v -0.898800 0.651000 -2.373000
v -1.240400 0.583342 -2.536342
v -0.898800 0.583342 -2.536342
v -1.264200 0.420000 -2.457000
v -0.886200 0.420000 -2.457000
v -1.264200 0.347254 -2.415000
v -0.886200 0.347254 -2.415000
v -1.264200 0.347254 -2.331000
v -0.886200 0.347254 -2.331000
v -1.264200 0.420000 -2.289000
v -0.886200 0.420000 -2.289000
v -1.264200 0.492746 -2.331000
v -0.886200 0.492746 -2.331000
v -1.264200 0.492746 -2.415000
v -0.886200 0.492746 -2.415000
v -0.602000 0.420000 -2.793000
v -0.602000 0.210000 -2.736731
v -0.602000 0.056269 -2.583000
v -0.602000 0.000000 -2.373000
v -0.602000 0.056269 -2.163000
v -0.602000 0.210000 -2.009269
v -0.602000 0.420000 -1.953000
v -0.602000 0.630000 -2.009269
v -0.602000 0.783731 -2.163000
v -0.602000 0.840000 -2.373000
v -0.602000 0.783731 -2.583000
v -0.602000 0.630000 -2.736731
v 0.910000 0.420000 -2.793000
v 1.218000 0.420000 -2.793000
v 0.910000 0.210000 -2.736731
v 1.218000 0.210000 -2.736731
v 0.910000 0.056269 -2.583000
v 1.218000 0.056269 -2.583000
v 0.910000 0.000000 -2.373000
v 1.218000 0.000000 -2.373000
v 0.910000 0.056269 -2.163000
v 1.218000 0.056269 -2.163000
v 0.910000 0.210000 -2.009269
v 1.218000 0.210000 -2.009269
v 0.910000 0.420000 -1.953000
v 1.218000 0.420000 -1.953000
v 0.910000 0.630000 -2.009269
v 1.218000 0.630000 -2.009269
v 0.910000 0.783731 -2.163000
v 1.218000 0.783731 -2.163000
v 0.910000 0.840000 -2.373000
v 1.218000 0.840000 -2.373000
v 0.910000 0.783731 -2.583000
v 1.218000 0.783731 -2.583000
v 0.910000 0.630000 -2.736731
v 1.218000 0.630000 -2.736731
v 0.898800 0.420000 -2.604000
v 1.240400 0.420000 -2.604000
v 0.898800 0.256658 -2.536342
v 1.240400 0.256658 -2.536342
v 0.898800 0.189000 -2.373000
v 1.240400 0.189000 -2.373000
v 0.898800 0.256658 -2.209658
v 1.240400 0.256658 -2.209658
v 0.898800 0.420000 -2.142000
v 1.240400 0.420000 -2.142000
v 0.898800 0.583342 -2.209658
v 1.240400 0.583342 -2.209658
v 0.898800 0.651000 -2.373000
v 1.240400 0.651000 -2.373000
v 0.898800 0.583342 -2.536342
v 1.240400 0.583342 -2.536342
v 0.886200 0.420000 -2.457000
v 1.264200 0.420000 -2.457000
v 0.886200 0.347254 -2.415000
v 1.264200 0.347254 -2.415000
v 0.886200 0.347254 -2.331000
v 1.264200 0.347254 -2.331000
v 0.886200 0.420000 -2.289000
v 1.264200 0.420000 -2.289000
v 0.886200 0.492746 -2.331000
v 1.264200 0.492746 -2.331000
v 0.886200 0.492746 -2.415000
v 1.264200 0.492746 -2.415000
v 0.602000 0.420000 -2.793000
v 0.602000 0.210000 -2.736731
v 0.602000 0.056269 -2.583000
v 0.602000 0.000000 -2.373000
v 0.602000 0.056269 -2.163000
v 0.602000 0.210000 -2.009269
v 0.602000 0.420000 -1.953000
v 0.602000 0.630000 -2.009269
v 0.602000 0.783731 -2.163000
v 0.602000 0.840000 -2.373000
v 0.602000 0.783731 -2.583000
v 0.602000 0.630000 -2.736731
v -0.868000 0.336000 -2.961000
v -0.868000 0.616000 -2.961000
v 0.868000 0.336000 2.919000
v 0.868000 0.616000 2.919000
v 0.868000 0.336000 -2.961000
v 0.868000 0.616000 -2.961000
v -1.120000 0.504000 3.171000
v -1.120000 1.344000 3.171000
v -1.120000 0.504000 1.603000
v -1.120000 1.344000 1.603000
v 1.120000 0.504000 3.171000
v 1.120000 1.344000 3.171000
v 1.120000 0.504000 1.603000
v 1.120000 1.344000 1.603000
v -1.120000 1.344000 2.835000
v -1.120000 2.296000 2.835000
v -1.120000 2.296000 1.603000
v 1.120000 1.344000 2.835000
v 1.120000 2.296000 2.835000
v 1.120000 2.296000 1.603000
v -1.008000 1.438392 2.939783
v -1.008000 2.155332 2.813366
v -1.008000 1.428668 2.884633
v -1.008000 2.145608 2.758218
v 1.008000 1.438392 2.939783
v 1.008000 2.155332 2.813366
v 1.008000 1.428668 2.884633
v 1.008000 2.145608 2.758218
v -1.153600 1.484000 2.695000
v -1.153600 2.044000 2.695000
v -1.153600 1.484000 1.967000
v -1.153600 2.044000 1.967000
v -1.097600 1.484000 2.695000
v -1.097600 2.044000 2.695000
v -1.097600 1.484000 1.967000
v -1.097600 2.044000 1.967000
v -1.302000 1.540000 2.877000
v -1.302000 1.932000 2.877000
v -1.302000 1.540000 2.793000
v -1.302000 1.932000 2.793000
v -1.218000 1.540000 2.877000
v -1.218000 1.932000 2.877000
v -1.218000 1.540000 2.793000
v -1.218000 1.932000 2.793000
v 1.097600 1.484000 2.695000
v 1.097600 2.044000 2.695000
v 1.097600 1.484000 1.967000
v 1.097600 2.044000 1.967000
v 1.153600 1.484000 2.695000
v 1.153600 2.044000 2.695000
v 1.153600 1.484000 1.967000
v 1.153600 2.044000 1.967000
v 1.218000 1.540000 2.877000
v 1.218000 1.932000 2.877000
v 1.218000 1.540000 2.793000
v 1.218000 1.932000 2.793000
v 1.302000 1.540000 2.877000
v 1.302000 1.932000 2.877000
v 1.302000 1.540000 2.793000
v 1.302000 1.932000 2.793000
v -0.700000 0.784000 3.213000
v -0.700000 1.120000 3.213000
v -0.700000 0.784000 3.157000
v -0.700000 1.120000 3.157000
v 0.700000 0.784000 3.213000
v 0.700000 1.120000 3.213000
v 0.700000 0.784000 3.157000
v 0.700000 1.120000 3.157000
v -1.051400 1.134000 3.213000
v -1.051400 1.330000 3.213000
v -1.051400 1.134000 3.157000
v -1.051400 1.330000 3.157000
v -0.796600 1.134000 3.213000
v -0.796600 1.330000 3.213000
v -0.796600 1.134000 3.157000
v -0.796600 1.330000 3.157000
v 0.796600 1.134000 3.213000
v 0.796600 1.330000 3.213000
v 0.796600 1.134000 3.157000
v 0.796600 1.330000 3.157000
v 1.051400 1.134000 3.213000
v 1.051400 1.330000 3.213000
v 1.051400 1.134000 3.157000
v 1.051400 1.330000 3.157000
v -1.176000 0.392000 3.311000
v -1.176000 0.616000 3.311000
v -1.176000 0.392000 3.143000
v -1.176000 0.616000 3.143000
v 1.176000 0.392000 3.311000
v 1.176000 0.616000 3.311000
v 1.176000 0.392000 3.143000
v 1.176000 0.616000 3.143000
v -1.176000 2.296000 2.499000
v -1.176000 2.436000 2.499000
v -1.176000 2.296000 2.163000
v -1.176000 2.436000 2.163000
v 1.176000 2.296000 2.499000
v 1.176000 2.436000 2.499000
v 1.176000 2.296000 2.163000
v 1.176000 2.436000 2.163000
v -1.260000 0.616000 1.183000
v -1.260000 3.024000 1.183000
v -1.260000 0.616000 -3.241000
v -1.260000 3.024000 -3.241000
v 1.260000 0.616000 1.183000
v 1.260000 3.024000 1.183000
v 1.260000 0.616000 -3.241000
v 1.260000 3.024000 -3.241000
v -1.274000 0.616000 1.197000
v -1.274000 0.728000 1.197000
v -1.274000 0.616000 -3.255000
v -1.274000 0.728000 -3.255000
v 1.274000 0.616000 1.197000
v 1.274000 0.728000 1.197000
v 1.274000 0.616000 -3.255000
v 1.274000 0.728000 -3.255000
v -1.274000 2.912000 1.197000
v -1.274000 3.024000 1.197000
v -1.274000 2.912000 -3.255000
v -1.274000 3.024000 -3.255000
v 1.274000 2.912000 1.197000
v 1.274000 3.024000 1.197000
v 1.274000 2.912000 -3.255000
v 1.274000 3.024000 -3.255000
v -1.279600 0.896000 1.071000
v -1.279600 1.176000 1.071000
v -1.279600 0.896000 -3.129000
v -1.279600 1.176000 -3.129000
v -1.251600 0.896000 1.071000
v -1.251600 1.176000 1.071000
v -1.251600 0.896000 -3.129000
v -1.251600 1.176000 -3.129000
v -1.282400 2.377778 -1.167440
v -1.282400 2.412200 -1.029000
v -1.288000 1.960000 -1.534750
v -1.254400 1.960000 -1.534750
v -1.288000 1.701839 -1.484665
v -1.254400 1.701839 -1.484665
v -1.288000 1.494810 -1.344330
v -1.254400 1.494810 -1.344330
v -1.288000 1.379918 -1.141540
v -1.254400 1.379918 -1.141540
v -1.288000 1.379918 -0.916460
v -1.254400 1.379918 -0.916460
v -1.288000 1.494810 -0.713670
v -1.254400 1.494810 -0.713670
v -1.288000 1.701839 -0.573335
v -1.254400 1.701839 -0.573335
v -1.288000 1.960000 -0.523250
v -1.254400 1.960000 -0.523250
v -1.288000 2.218161 -0.573335
v -1.254400 2.218161 -0.573335
v -1.288000 2.425190 -0.713670
v -1.254400 2.425190 -0.713670
v -1.288000 2.540082 -0.916460
v -1.254400 2.540082 -0.916460
v -1.288000 2.540082 -1.141540
v -1.254400 2.540082 -1.141540
v -1.288000 2.425190 -1.344330
v -1.254400 2.425190 -1.344330
v -1.288000 2.218161 -1.484665
v -1.254400 2.218161 -1.484665
v 1.254400 2.540082 -0.916460
v -1.282400 2.133049 -1.363223
v 1.288000 2.425190 -0.713670
v -1.282400 1.786950 -1.363223
v 1.254400 2.425190 -0.713670
v -1.282400 1.542222 -1.167440
v -1.282400 1.507800 -1.029000
v -1.272017 2.377778 -1.148892
v 1.288000 2.218161 -0.573335
v -1.263215 2.279754 -1.250532
v -1.257333 2.133049 -1.318445
v -1.255268 1.960000 -1.342293
v -1.257333 1.786950 -1.318445
v -1.263215 1.640246 -1.250532
v -1.272017 1.542222 -1.148892
v 1.254400 2.218161 -0.573335
v -1.264416 2.377778 -1.098220
v 1.288000 1.960000 -0.523250
v -1.249170 2.279754 -1.156901
v -1.238983 2.133049 -1.196111
v -1.235406 1.960000 -1.209880
v -1.238983 1.786950 -1.196111
v -1.249170 1.640246 -1.156901
v -1.264416 1.542222 -1.098220
v 1.254400 1.960000 -0.523250
v -1.261634 2.377778 -1.029000
v 1.288000 1.701839 -0.573335
v -1.244030 2.279754 -1.029000
v -1.232267 2.133049 -1.029000
v -1.228136 1.960000 -1.029000
v -1.232267 1.786950 -1.029000
v -1.244030 1.640246 -1.029000
v -1.261634 1.542222 -1.029000
v 1.254400 1.701839 -0.573335
v -1.264416 2.377778 -0.959780
v 1.288000 1.494810 -0.713670
v -1.249170 2.279754 -0.901099
v -1.238983 2.133049 -0.861889
v -1.235406 1.960000 -0.848120
v -1.238983 1.786950 -0.861889
v -1.249170 1.640246 -0.901099
v -1.264416 1.542222 -0.959780
v 1.254400 1.494810 -0.713670
v -1.272017 2.377778 -0.909108
v 1.288000 1.379918 -0.916460
v -1.263215 2.279754 -0.807468
v -1.257333 2.133049 -0.739555
v -1.255268 1.960000 -0.715707
v -1.257333 1.786950 -0.739555
v -1.263215 1.640246 -0.807468
v -1.272017 1.542222 -0.909108
v 1.254400 1.379918 -0.916460
v -1.282400 2.377778 -0.890561
v 1.288000 1.379918 -1.141540
v -1.282400 2.279754 -0.773197
v -1.282400 2.133049 -0.694777
v -1.282400 1.960000 -0.667240
v -1.282400 1.786950 -0.694777
v -1.282400 1.640246 -0.773197
v -1.282400 1.542222 -0.890561
v 1.254400 1.379918 -1.141540
v -1.292783 2.377778 -0.909108
v 1.288000 1.494810 -1.344330
v -1.301585 2.279754 -0.807468
v -1.307467 2.133049 -0.739555
v -1.309532 1.960000 -0.715707
v -1.307467 1.786950 -0.739555
v -1.301585 1.640246 -0.807468
v -1.292783 1.542222 -0.909108
v 1.254400 1.494810 -1.344330
v -1.300384 2.377778 -0.959780
v 1.288000 1.701839 -1.484665
v -1.315630 2.279754 -0.901099
v -1.325817 2.133049 -0.861889
v -1.329394 1.960000 -0.848120
v -1.325817 1.786950 -0.861889
v -1.315630 1.640246 -0.901099
v -1.300384 1.542222 -0.959780
v 1.254400 1.701839 -1.484665
v -1.303166 2.377778 -1.029000
v 1.288000 1.960000 -1.534750
v -1.320770 2.279754 -1.029000
v -1.332533 2.133049 -1.029000
v -1.336664 1.960000 -1.029000
v -1.332533 1.786950 -1.029000
v -1.320770 1.640246 -1.029000
v -1.303166 1.542222 -1.029000
v 1.254400 1.960000 -1.534750
v -1.300384 2.377778 -1.098220
v 1.282400 2.412200 -1.029000
v -1.315630 2.279754 -1.156901
v -1.325817 2.133049 -1.196111
v -1.329394 1.960000 -1.209880
v -1.325817 1.786950 -1.196111
v -1.315630 1.640246 -1.156901
v -1.300384 1.542222 -1.098220
v 1.282400 2.377778 -1.167440
v -1.292783 2.377778 -1.148892
v 1.279600 1.176000 -3.129000
v -1.301585 2.279754 -1.250532
v -1.307467 2.133049 -1.318445
v -1.309532 1.960000 -1.342293
v -1.307467 1.786950 -1.318445
v -1.301585 1.640246 -1.250532
v -1.292783 1.542222 -1.148892
v 1.279600 0.896000 -3.129000
v 1.279600 1.176000 1.071000
v 1.279600 0.896000 1.071000
v -1.282400 2.279754 -1.284803
v 1.251600 1.176000 -3.129000
v -1.282400 1.960000 -1.390760
v 1.251600 0.896000 -3.129000
v -1.282400 1.640246 -1.284803
v 1.251600 1.176000 1.071000
v 1.251600 0.896000 1.071000
v 1.288000 2.540082 -0.916460
v 1.254400 2.540082 -1.141540
v 1.288000 2.540082 -1.141540
v 1.254400 2.425190 -1.344330
v 1.288000 2.425190 -1.344330
v 1.254400 2.218161 -1.484665
v 1.288000 2.218161 -1.484665
v 1.148000 1.442000 -3.311000
v 1.282400 2.133049 -1.363223
v 1.148000 1.470000 -3.227000
v 1.282400 1.786950 -1.363223
v 1.148000 1.442000 -3.227000
v 1.282400 1.542222 -1.167440
v 1.282400 1.507800 -1.029000
v -1.148000 1.470000 -3.311000
v 1.292783 2.377778 -1.148892
v 1.301585 2.279754 -1.250532
v 1.307467 2.133049 -1.318445
v 1.309532 1.960000 -1.342293
v 1.307467 1.786950 -1.318445
v 1.301585 1.640246 -1.250532
v 1.292783 1.542222 -1.148892
v -1.148000 1.442000 -3.311000
v -1.148000 1.470000 -3.227000
v 1.300384 2.377778 -1.098220
v 1.315630 2.279754 -1.156901
v 1.325817 2.133049 -1.196111
v 1.329394 1.960000 -1.209880
v 1.325817 1.786950 -1.196111
v 1.315630 1.640246 -1.156901
v 1.300384 1.542222 -1.098220
v -1.148000 1.442000 -3.227000
v 1.148000 1.190000 -3.311000
v 1.303166 2.377778 -1.029000
v 1.320770 2.279754 -1.029000
v 1.332533 2.133049 -1.029000
v 1.336664 1.960000 -1.029000
v 1.332533 1.786950 -1.029000
v 1.320770 1.640246 -1.029000
v 1.303166 1.542222 -1.029000
v 1.148000 1.162000 -3.311000
v 1.148000 1.190000 -3.227000
v 1.300384 2.377778 -0.959780
v 1.315630 2.279754 -0.901099
v 1.325817 2.133049 -0.861889
v 1.329394 1.960000 -0.848120
v 1.325817 1.786950 -0.861889
v 1.315630 1.640246 -0.901099
v 1.300384 1.542222 -0.959780
v 1.148000 1.162000 -3.227000
v -1.148000 1.190000 -3.311000
v 1.292783 2.377778 -0.909108
v 1.301585 2.279754 -0.807468
v 1.307467 2.133049 -0.739555
v 1.309532 1.960000 -0.715707
v 1.307467 1.786950 -0.739555
v 1.301585 1.640246 -0.807468
v 1.292783 1.542222 -0.909108
v -1.148000 1.162000 -3.311000
v -1.148000 1.190000 -3.227000
v 1.282400 2.377778 -0.890561
v 1.282400 2.279754 -0.773197
v 1.282400 2.133049 -0.694777
v 1.282400 1.960000 -0.667240
v 1.282400 1.786950 -0.694777
v 1.282400 1.640246 -0.773197
v 1.282400 1.542222 -0.890561
v -1.148000 1.162000 -3.227000
v 1.148000 0.910000 -3.311000
v 1.272017 2.377778 -0.909108
v 1.263215 2.279754 -0.807468
v 1.257333 2.133049 -0.739555
v 1.255268 1.960000 -0.715707
v 1.257333 1.786950 -0.739555
v 1.263215 1.640246 -0.807468
v 1.272017 1.542222 -0.909108
v 1.148000 0.882000 -3.311000
v 1.148000 0.910000 -3.227000
v 1.264416 2.377778 -0.959780
v 1.249170 2.279754 -0.901099
v 1.238983 2.133049 -0.861889
v 1.235406 1.960000 -0.848120
v 1.238983 1.786950 -0.861889
v 1.249170 1.640246 -0.901099
v 1.264416 1.542222 -0.959780
v 1.148000 0.882000 -3.227000
v -1.148000 0.910000 -3.311000
v 1.261634 2.377778 -1.029000
v 1.244030 2.279754 -1.029000
v 1.232267 2.133049 -1.029000
v 1.228136 1.960000 -1.029000
v 1.232267 1.786950 -1.029000
v 1.244030 1.640246 -1.029000
v 1.261634 1.542222 -1.029000
v -1.148000 0.882000 -3.311000
v -1.148000 0.910000 -3.227000
v 1.264416 2.377778 -1.098220
v 1.249170 2.279754 -1.156901
v 1.238983 2.133049 -1.196111
v 1.235406 1.960000 -1.209880
v 1.238983 1.786950 -1.196111
v 1.249170 1.640246 -1.156901
v 1.264416 1.542222 -1.098220
v -1.148000 0.882000 -3.227000
v 1.176000 2.856000 -3.283000
v 1.272017 2.377778 -1.148892
v 1.263215 2.279754 -1.250532
v 1.257333 2.133049 -1.318445
v 1.255268 1.960000 -1.342293
v 1.257333 1.786950 -1.318445
v 1.263215 1.640246 -1.250532
v 1.272017 1.542222 -1.148892
v 1.176000 0.728000 -3.283000
v 1.176000 2.856000 -3.227000
v 1.176000 0.728000 -3.227000
v 1.282400 2.279754 -1.284803
v -1.176000 2.856000 -3.283000
v 1.282400 1.960000 -1.390760
v -1.176000 0.728000 -3.283000
v 1.282400 1.640246 -1.284803
v -1.176000 2.856000 -3.227000
v -1.176000 0.728000 -3.227000
v 1.148000 1.470000 -3.311000
v -1.148000 1.722000 -3.227000
v -1.148000 1.750000 -3.227000
v -1.148000 1.722000 -3.311000
v -1.148000 1.750000 -3.311000
v 1.148000 1.722000 -3.227000
v 1.148000 1.750000 -3.227000
v 1.148000 1.722000 -3.311000
v 1.148000 1.750000 -3.311000
v -1.148000 2.002000 -3.227000
v -1.148000 2.030000 -3.227000
v -1.148000 2.002000 -3.311000
v -1.148000 2.030000 -3.311000
v 1.148000 2.002000 -3.227000
v 1.148000 2.030000 -3.227000
v 1.148000 2.002000 -3.311000
v 1.148000 2.030000 -3.311000
v -1.148000 2.282000 -3.227000
v -1.148000 2.310000 -3.227000
v -1.148000 2.282000 -3.311000
v -1.148000 2.310000 -3.311000
v 1.148000 2.282000 -3.227000
v 1.148000 2.310000 -3.227000
v 1.148000 2.282000 -3.311000
v 1.148000 2.310000 -3.311000
v -1.148000 2.562000 -3.227000
v -1.148000 2.590000 -3.227000
v -1.148000 2.562000 -3.311000
v -1.148000 2.590000 -3.311000
v 1.148000 2.562000 -3.227000
v 1.148000 2.590000 -3.227000
v 1.148000 2.562000 -3.311000
v 1.148000 2.590000 -3.311000
v -1.204000 0.672000 -3.241000
v -1.204000 0.896000 -3.241000
v -1.204000 0.672000 -3.297000
v -1.204000 0.896000 -3.297000
v -1.036000 0.672000 -3.241000
v -1.036000 0.896000 -3.241000
v -1.036000 0.672000 -3.297000
v -1.036000 0.896000 -3.297000
v 1.036000 0.672000 -3.241000
v 1.036000 0.896000 -3.241000
v 1.036000 0.672000 -3.297000
v 1.036000 0.896000 -3.297000
v 1.204000 0.672000 -3.241000
v 1.204000 0.896000 -3.241000
v 1.204000 0.672000 -3.297000
v 1.204000 0.896000 -3.297000
vn 1.0000 -0.0000 -0.0000
vn -0.0000 -0.2588 -0.9659
vn -0.0000 -0.7071 -0.7071
vn -0.0000 1.0000 -0.0000
vn -0.0000 -0.9239 0.3827
vn -0.0000 -0.9659 -0.2588
vn -0.0000 -0.3827 0.9239
vn -0.0000 -0.9659 0.2588
vn -0.0000 0.9239 0.3827
vn -0.0000 0.5000 0.8660
vn -0.0000 -0.7071 0.7071
vn -0.0000 0.9239 -0.3827
vn -0.0000 -0.9239 -0.3827
vn -0.0000 -0.2588 0.9659
vn -0.0000 -0.5000 0.8660
vn -0.0000 -1.0000 -0.0000
vn -0.0000 0.2588 0.9659
vn -0.0000 0.3827 0.9239
vn -0.0000 0.7071 0.7071
vn -0.0000 -0.5000 -0.8660
vn -0.0000 -0.3827 -0.9239
vn -0.0000 0.9659 0.2588
vn -0.0000 0.9659 -0.2588
vn -0.0000 0.7071 -0.7071
vn -0.0000 0.2588 -0.9659
vn -1.0000 -0.0000 -0.0000
vn -0.0000 0.3827 -0.9239
vn -0.0000 0.5000 -0.8660
vn -0.0000 -0.0000 -1.0000
vn -0.0000 -0.1736 -0.9848
vn -0.0000 0.1736 0.9848
vn -0.0000 -0.0000 1.0000
vn -0.0000 -0.9848 0.1736
vn -0.0000 0.9848 -0.1736
vn 0.9835 -0.1766 0.0395
vn 0.7666 -0.6318 -0.1150
vn -0.0000 -0.1905 -0.9817
vn 0.9960 0.0799 0.0400
vn 0.7666 0.6317 -0.1150
vn -0.0000 -0.5611 -0.8278
vn 0.9960 0.0799 -0.0400
vn 0.9611 -0.2358 -0.1442
vn -0.0000 -0.8701 -0.4929
vn 0.9835 0.1766 -0.0395
vn 0.9832 -0.1077 -0.1475
vn 0.9989 0.0238 -0.0401
vn 0.9884 0.0322 -0.1483
vn -0.0000 -0.8701 0.4929
vn 0.9835 -0.1766 -0.0395
vn 0.3958 -0.8912 -0.2216
vn -0.0000 -0.5611 0.8278
vn 0.8557 0.5163 -0.0344
vn 0.3958 0.8912 -0.2216
vn -0.0000 -0.1905 0.9817
vn 0.9989 -0.0238 -0.0401
vn 0.8700 -0.0775 -0.4870
vn -0.0000 0.1905 0.9817
vn 0.9960 -0.0799 -0.0400
vn 0.7532 0.5048 -0.4217
vn -0.0000 0.5611 0.8278
vn 0.8557 -0.5163 -0.0344
vn 0.8443 -0.2526 -0.4726
vn -0.0000 0.8701 0.4929
vn 0.9611 0.2358 -0.1442
vn 0.8443 0.2526 -0.4726
vn 0.9884 -0.0322 -0.1483
vn 0.7532 -0.5048 -0.4217
vn -0.0000 0.8701 -0.4929
vn 0.8700 0.0775 -0.4870
vn -0.0000 0.5611 -0.8278
vn 0.8557 0.5163 0.0344
vn 0.9832 0.1077 -0.1475
vn -0.0000 0.1905 -0.9817
vn 0.9989 -0.0238 0.0401
vn 0.9835 0.1766 0.0395
vn 0.8557 -0.5163 0.0344
vn 0.9960 -0.0799 0.0400
vn 0.9989 0.0238 0.0401
vn 0.9611 -0.2358 0.1442
vn 0.9832 0.1077 0.1475
vn 0.9884 -0.0322 0.1483
vn 0.9611 0.2358 0.1442
vn 0.7666 -0.6318 0.1150
vn 0.9832 -0.1077 0.1475
vn 0.9884 0.0322 0.1483
vn 0.7666 0.6318 0.1150
vn 0.7532 0.5048 0.4217
vn 0.3958 -0.8912 0.2216
vn 0.8443 -0.2526 0.4726
vn 0.8700 0.0775 0.4870
vn 0.3958 0.8912 0.2216
vn 0.7532 -0.5048 0.4217
vn 0.8443 0.2526 0.4726
vn 0.8700 -0.0775 0.4870
vn -0.8443 -0.2526 0.4726
vn -0.8700 0.0775 0.4870
vn -0.3958 0.8912 0.2216
vn -0.7532 -0.5048 0.4217
vn -0.8443 0.2526 0.4726
vn -0.8700 -0.0775 0.4870
vn -0.7532 0.5048 0.4217
vn -0.3958 -0.8912 0.2216
vn -0.7666 0.6318 0.1150
vn -0.9611 -0.2358 0.1442
vn -0.9832 0.1077 0.1475
vn -0.9884 -0.0322 0.1483
vn -0.9611 0.2358 0.1442
vn -0.7666 -0.6317 0.1150
vn -0.9832 -0.1077 0.1475
vn -0.9884 0.0322 0.1483
vn -0.9960 0.0799 0.0400
vn -0.9989 -0.0238 0.0401
vn -0.9835 0.1766 0.0395
vn -0.8557 -0.5163 0.0344
vn -0.9960 -0.0799 0.0400
vn -0.9989 0.0238 0.0401
vn -0.8557 0.5163 0.0344
vn -0.9835 -0.1766 0.0395
vn -0.9835 0.1766 -0.0395
vn -0.8557 -0.5163 -0.0344
vn -0.9960 -0.0799 -0.0400
vn -0.9989 0.0238 -0.0401
vn -0.8557 0.5163 -0.0344
vn -0.9835 -0.1766 -0.0395
vn -0.9960 0.0799 -0.0400
vn -0.9989 -0.0238 -0.0401
vn -0.9884 0.0322 -0.1483
vn -0.7666 0.6317 -0.1150
vn -0.9611 -0.2358 -0.1442
vn -0.9832 0.1077 -0.1475
vn -0.9884 -0.0322 -0.1483
vn -0.9611 0.2358 -0.1442
vn -0.7666 -0.6317 -0.1150
vn -0.9832 -0.1077 -0.1475
vn -0.3958 0.8912 -0.2216
vn -0.7532 -0.5048 -0.4217
vn -0.8443 0.2526 -0.4726
vn -0.8700 -0.0775 -0.4870
vn -0.7532 0.5048 -0.4217
vn -0.3958 -0.8912 -0.2216
vn -0.8443 -0.2526 -0.4726
vn -0.8700 0.0775 -0.4870
vn 0.7666 -0.6317 -0.1150
vn 0.7666 -0.6317 0.1150
vn -0.7666 -0.6318 0.1150
vn -0.7666 -0.6318 -0.1150
s 0
usemtl EF_Tyre
f 3//2 4//2 6//2 5//2
f 55//2 56//2 58//2 57//2
f 5//3 6//3 8//3 7//3
f 7//6 8//6 10//6 9//6
f 9//8 10//8 12//8 11//8
f 11//11 12//11 14//11 13//11
f 13//14 14//14 16//14 15//14
f 15//17 16//17 18//17 17//17
f 17//19 18//19 20//19 19//19
f 19//22 20//22 22//22 21//22
f 21//23 22//23 24//23 23//23
f 6//1 4//1 26//1 24//1 22//1 20//1 18//1 16//1 14//1 12//1 10//1 8//1
f 23//24 24//24 26//24 25//24
f 25//25 26//25 4//25 3//25
f 3//26 5//26 7//26 9//26 11//26 13//26 15//26 17//26 19//26 21//26 23//26 25//26
f 59//6 60//6 62//6 61//6
f 57//3 58//3 60//3 59//3
f 61//8 62//8 64//8 63//8
f 63//11 64//11 66//11 65//11
f 65//14 66//14 68//14 67//14
f 67//17 68//17 70//17 69//17
f 69//19 70//19 72//19 71//19
f 71//22 72//22 74//22 73//22
f 73//23 74//23 76//23 75//23
f 61//26 63//26 65//26 67//26 69//26 71//26 73//26 75//26 77//26 55//26 57//26 59//26
f 75//24 76//24 78//24 77//24
f 225//6 175//6 177//6 226//6
f 107//2 108//2 110//2 109//2
f 77//25 78//25 56//25 55//25
f 64//1 62//1 60//1 58//1 56//1 78//1 76//1 74//1 72//1 70//1 68//1 66//1
f 111//6 112//6 114//6 113//6
f 109//3 110//3 112//3 111//3
f 113//8 114//8 116//8 115//8
f 115//11 116//11 118//11 117//11
f 117//14 118//14 120//14 119//14
f 119//17 120//17 122//17 121//17
f 108//2 159//2 160//2 110//2
f 121//19 122//19 124//19 123//19
f 123//22 124//22 126//22 125//22
f 125//23 126//23 128//23 127//23
f 116//1 114//1 112//1 110//1 108//1 130//1 128//1 126//1 124//1 122//1 120//1 118//1
f 175//6 176//6 178//6 177//6
f 127//24 128//24 130//24 129//24
f 129//25 130//25 108//25 107//25
f 109//26 111//26 113//26 115//26 117//26 119//26 121//26 123//26 125//26 127//26 129//26 107//26
f 112//6 161//6 162//6 114//6
f 110//3 160//3 161//3 112//3
f 114//8 162//8 163//8 116//8
f 181//14 182//14 184//14 183//14
f 247//17 248//17 250//17 249//17
f 116//11 163//11 164//11 118//11
f 173//3 174//3 176//3 175//3
f 118//14 164//14 165//14 120//14
f 239//6 240//6 242//6 241//6
f 120//17 165//17 166//17 122//17
f 179//11 180//11 182//11 181//11
f 122//19 166//19 167//19 124//19
f 171//2 172//2 174//2 173//2
f 124//22 167//22 168//22 126//22
f 224//3 173//3 175//3 225//3
f 126//23 168//23 169//23 128//23
f 163//1 162//1 161//1 160//1 159//1 170//1 169//1 168//1 167//1 166//1 165//1 164//1
f 128//24 169//24 170//24 130//24
f 183//17 184//17 186//17 185//17
f 177//8 178//8 180//8 179//8
f 130//25 170//25 159//25 108//25
f 185//19 186//19 188//19 187//19
f 187//22 188//22 190//22 189//22
f 303//6 304//6 306//6 305//6
f 223//2 171//2 173//2 224//2
f 189//23 190//23 192//23 191//23
f 178//1 176//1 174//1 172//1 194//1 192//1 190//1 188//1 186//1 184//1 182//1 180//1
f 191//24 192//24 194//24 193//24
f 193//25 194//25 172//25 171//25
f 183//26 185//26 187//26 189//26 191//26 193//26 171//26 173//26 175//26 177//26 179//26 181//26
f 241//8 242//8 244//8 243//8
f 226//8 177//8 179//8 227//8
f 245//14 246//14 248//14 247//14
f 227//11 179//11 181//11 228//11
f 237//3 238//3 240//3 239//3
f 228//14 181//14 183//14 229//14
f 229//17 183//17 185//17 230//17
f 243//11 244//11 246//11 245//11
f 230//19 185//19 187//19 231//19
f 235//2 236//2 238//2 237//2
f 231//22 187//22 189//22 232//22
f 240//6 289//6 290//6 242//6
f 232//23 189//23 191//23 233//23
f 226//26 227//26 228//26 229//26 230//26 231//26 232//26 233//26 234//26 223//26 224//26 225//26
f 233//24 191//24 193//24 234//24
f 234//25 193//25 171//25 223//25
f 249//19 250//19 252//19 251//19
f 353//6 303//6 305//6 354//6
f 251//22 252//22 254//22 253//22
f 253//23 254//23 256//23 255//23
f 236//2 287//2 288//2 238//2
f 249//26 251//26 253//26 255//26 257//26 235//26 237//26 239//26 241//26 243//26 245//26 247//26
f 255//24 256//24 258//24 257//24
f 238//3 288//3 289//3 240//3
f 257//25 258//25 236//25 235//25
f 242//1 240//1 238//1 236//1 258//1 256//1 254//1 252//1 250//1 248//1 246//1 244//1
f 242//8 290//8 291//8 244//8
f 309//14 310//14 312//14 311//14
f 244//11 291//11 292//11 246//11
f 301//3 302//3 304//3 303//3
f 246//14 292//14 293//14 248//14
f 248//17 293//17 294//17 250//17
f 307//11 308//11 310//11 309//11
f 250//19 294//19 295//19 252//19
f 299//2 300//2 302//2 301//2
f 252//22 295//22 296//22 254//22
f 352//3 301//3 303//3 353//3
f 254//23 296//23 297//23 256//23
f 289//1 288//1 287//1 298//1 297//1 296//1 295//1 294//1 293//1 292//1 291//1 290//1
f 256//24 297//24 298//24 258//24
f 311//17 312//17 314//17 313//17
f 305//8 306//8 308//8 307//8
f 258//25 298//25 287//25 236//25
f 313//19 314//19 316//19 315//19
f 315//22 316//22 318//22 317//22
f 351//2 299//2 301//2 352//2
f 317//23 318//23 320//23 319//23
f 314//1 312//1 310//1 308//1 306//1 304//1 302//1 300//1 322//1 320//1 318//1 316//1
f 319//24 320//24 322//24 321//24
f 321//25 322//25 300//25 299//25
f 311//26 313//26 315//26 317//26 319//26 321//26 299//26 301//26 303//26 305//26 307//26 309//26
f 354//8 305//8 307//8 355//8
f 355//11 307//11 309//11 356//11
f 356//14 309//14 311//14 357//14
f 357//17 311//17 313//17 358//17
f 358//19 313//19 315//19 359//19
f 359//22 315//22 317//22 360//22
f 360//23 317//23 319//23 361//23
f 354//26 355//26 356//26 357//26 358//26 359//26 360//26 361//26 362//26 351//26 352//26 353//26
f 361//24 319//24 321//24 362//24
f 362//25 321//25 299//25 351//25
usemtl EF_Metal
f 86//1 84//1 82//1 80//1 94//1 92//1 90//1 88//1
f 31//5 32//5 34//5 33//5
f 36//1 34//1 32//1 30//1 28//1 42//1 40//1 38//1
f 85//7 86//7 88//7 87//7
f 37//9 38//9 40//9 39//9
f 91//12 92//12 94//12 93//12
f 29//13 30//13 32//13 31//13
f 35//18 36//18 38//18 37//18
f 27//21 28//21 30//21 29//21
f 83//5 84//5 86//5 85//5
f 39//12 40//12 42//12 41//12
f 33//7 34//7 36//7 35//7
f 41//27 42//27 28//27 27//27
f 41//26 27//26 29//26 31//26 33//26 35//26 37//26 39//26
f 89//9 90//9 92//9 91//9
f 81//13 82//13 84//13 83//13
f 199//5 200//5 202//5 201//5
f 87//18 88//18 90//18 89//18
f 79//21 80//21 82//21 81//21
f 135//5 136//5 138//5 137//5
f 143//26 145//26 131//26 133//26 135//26 137//26 139//26 141//26
f 93//27 94//27 80//27 79//27
f 91//26 93//26 79//26 81//26 83//26 85//26 87//26 89//26
f 141//9 142//9 144//9 143//9
f 133//13 134//13 136//13 135//13
f 202//1 200//1 198//1 196//1 210//1 208//1 206//1 204//1
f 139//18 140//18 142//18 141//18
f 131//21 132//21 134//21 133//21
f 203//18 204//18 206//18 205//18
f 143//12 144//12 146//12 145//12
f 137//7 138//7 140//7 139//7
f 145//27 146//27 132//27 131//27
f 132//1 146//1 144//1 142//1 140//1 138//1 136//1 134//1
f 197//13 198//13 200//13 199//13
f 269//26 271//26 273//26 259//26 261//26 263//26 265//26 267//26
f 205//9 206//9 208//9 207//9
f 328//1 326//1 324//1 338//1 336//1 334//1 332//1 330//1
f 195//21 196//21 198//21 197//21
f 207//12 208//12 210//12 209//12
f 201//7 202//7 204//7 203//7
f 209//27 210//27 196//27 195//27
f 205//26 207//26 209//26 195//26 197//26 199//26 201//26 203//26
f 331//18 332//18 334//18 333//18
f 263//5 264//5 266//5 265//5
f 271//12 272//12 274//12 273//12
f 261//13 262//13 264//13 263//13
f 265//7 266//7 268//7 267//7
f 269//9 270//9 272//9 271//9
f 267//18 268//18 270//18 269//18
f 259//21 260//21 262//21 261//21
f 273//27 274//27 260//27 259//27
f 274//1 272//1 270//1 268//1 266//1 264//1 262//1 260//1
f 327//5 328//5 330//5 329//5
f 325//13 326//13 328//13 327//13
f 333//9 334//9 336//9 335//9
f 323//21 324//21 326//21 325//21
f 335//12 336//12 338//12 337//12
f 329//7 330//7 332//7 331//7
f 337//27 338//27 324//27 323//27
f 333//26 335//26 337//26 323//26 325//26 327//26 329//26 331//26
f 447//26 448//26 450//26 449//26
f 449//29 450//29 454//29 453//29
f 453//1 454//1 452//1 451//1
f 451//32 452//32 448//32 447//32
f 449//16 453//16 451//16 447//16
f 454//4 450//4 448//4 452//4
f 761//26 760//26 756//26 758//26
f 758//29 756//29 744//29 752//29
f 752//1 744//1 753//1 754//1
f 754//32 753//32 760//32 761//32
f 758//16 752//16 754//16 761//16
f 744//4 756//4 760//4 753//4
usemtl EF_GreyDark
f 50//1 48//1 46//1 44//1 54//1 52//1
f 100//1 98//1 96//1 106//1 104//1 102//1
f 155//4 156//4 158//4 157//4
f 49//10 50//10 52//10 51//10
f 47//15 48//15 50//15 49//15
f 45//16 46//16 48//16 47//16
f 51//4 52//4 54//4 53//4
f 43//20 44//20 46//20 45//20
f 215//15 216//15 218//15 217//15
f 153//10 154//10 156//10 155//10
f 53//28 54//28 44//28 43//28
f 51//26 53//26 43//26 45//26 47//26 49//26
f 101//10 102//10 104//10 103//10
f 97//16 98//16 100//16 99//16
f 99//15 100//15 102//15 101//15
f 103//4 104//4 106//4 105//4
f 95//20 96//20 98//20 97//20
f 149//16 150//16 152//16 151//16
f 105//28 106//28 96//28 95//28
f 103//26 105//26 95//26 97//26 99//26 101//26
f 219//4 220//4 222//4 221//4
f 151//15 152//15 154//15 153//15
f 156//1 154//1 152//1 150//1 148//1 158//1
f 213//16 214//16 216//16 215//16
f 147//20 148//20 150//20 149//20
f 157//28 158//28 148//28 147//28
f 147//26 149//26 151//26 153//26 155//26 157//26
f 343//15 344//15 346//15 345//15
f 217//10 218//10 220//10 219//10
f 211//20 212//20 214//20 213//20
f 211//26 213//26 215//26 217//26 219//26 221//26
f 221//28 222//28 212//28 211//28
f 216//1 214//1 212//1 222//1 220//1 218//1
f 279//15 280//15 282//15 281//15
f 277//16 278//16 280//16 279//16
f 341//16 342//16 344//16 343//16
f 281//10 282//10 284//10 283//10
f 275//26 277//26 279//26 281//26 283//26 285//26
f 275//20 276//20 278//20 277//20
f 283//4 284//4 286//4 285//4
f 347//4 348//4 350//4 349//4
f 285//28 286//28 276//28 275//28
f 278//1 276//1 286//1 284//1 282//1 280//1
f 345//10 346//10 348//10 347//10
f 339//20 340//20 342//20 341//20
f 339//26 341//26 343//26 345//26 347//26 349//26
f 349//28 350//28 340//28 339//28
f 344//1 342//1 340//1 350//1 348//1 346//1
f 368//4 364//4 1//4 366//4
f 363//16 367//16 365//16 2//16
f 365//32 366//32 1//32 2//32
f 367//1 368//1 366//1 365//1
f 363//29 364//29 368//29 367//29
f 2//26 1//26 364//26 363//26
f 399//26 400//26 402//26 401//26
f 401//29 402//29 406//29 405//29
f 405//1 406//1 404//1 403//1
f 403//32 404//32 400//32 399//32
f 401//16 405//16 403//16 399//16
f 406//4 402//4 400//4 404//4
f 415//26 416//26 418//26 417//26
f 417//29 418//29 422//29 421//29
f 421//1 422//1 420//1 419//1
f 419//32 420//32 416//32 415//32
f 417//16 421//16 419//16 415//16
f 422//4 418//4 416//4 420//4
f 423//26 424//26 426//26 425//26
f 425//29 426//29 430//29 429//29
f 429//1 430//1 428//1 427//1
f 427//32 428//32 424//32 423//32
f 425//16 429//16 427//16 423//16
f 430//4 426//4 424//4 428//4
usemtl EF_Green
f 371//29 372//29 376//29 375//29
f 375//1 376//1 374//1 373//1
f 371//16 375//16 373//16 369//16
f 376//4 372//4 370//4 374//4
f 369//26 370//26 372//26 371//26
f 382//4 379//4 378//4 381//4
f 372//16 376//16 380//16 377//16
f 380//32 381//32 378//32 377//32
f 376//1 382//1 381//1 380//1
f 372//29 379//29 382//29 376//29
f 377//26 378//26 379//26 372//26
f 373//32 374//32 370//32 369//32
f 479//26 480//26 482//26 481//26
f 481//29 482//29 486//29 485//29
f 485//1 486//1 484//1 483//1
f 483//32 484//32 480//32 479//32
f 481//16 485//16 483//16 479//16
f 486//4 482//4 480//4 484//4
usemtl EF_Glass
f 389//1 390//1 388//1 387//1
f 385//30 386//30 390//30 389//30
f 387//31 388//31 384//31 383//31
f 383//26 384//26 386//26 385//26
f 385//33 389//33 387//33 383//33
f 390//34 386//34 384//34 388//34
f 391//26 392//26 394//26 393//26
f 393//29 394//29 398//29 397//29
f 397//1 398//1 396//1 395//1
f 395//32 396//32 392//32 391//32
f 393//16 397//16 395//16 391//16
f 398//4 394//4 392//4 396//4
f 407//26 408//26 410//26 409//26
f 409//29 410//29 414//29 413//29
f 413//1 414//1 412//1 411//1
f 411//32 412//32 408//32 407//32
f 409//16 413//16 411//16 407//16
f 414//4 410//4 408//4 412//4
usemtl EF_Light
f 431//26 432//26 434//26 433//26
f 433//29 434//29 438//29 437//29
f 437//1 438//1 436//1 435//1
f 435//32 436//32 432//32 431//32
f 433//16 437//16 435//16 431//16
f 438//4 434//4 432//4 436//4
f 439//26 440//26 442//26 441//26
f 441//29 442//29 446//29 445//29
f 445//1 446//1 444//1 443//1
f 443//32 444//32 440//32 439//32
f 441//16 445//16 443//16 439//16
f 446//4 442//4 440//4 444//4
usemtl EF_Accent
f 455//26 456//26 458//26 457//26
f 457//29 458//29 462//29 461//29
f 461//1 462//1 460//1 459//1
f 459//32 460//32 456//32 455//32
f 457//16 461//16 459//16 455//16
f 462//4 458//4 456//4 460//4
f 487//26 488//26 490//26 489//26
f 489//29 490//29 494//29 493//29
f 493//1 494//1 492//1 491//1
f 491//32 492//32 488//32 487//32
f 489//16 493//16 491//16 487//16
f 494//4 490//4 488//4 492//4
f 497//37 498//37 500//37 499//37
f 499//40 500//40 502//40 501//40
f 501//43 502//43 504//43 503//43
f 503//16 504//16 506//16 505//16
f 505//48 506//48 508//48 507//48
f 507//51 508//51 510//51 509//51
f 509//54 510//54 512//54 511//54
f 511//57 512//57 514//57 513//57
f 513//60 514//60 516//60 515//60
f 515//63 516//63 518//63 517//63
f 517//4 518//4 520//4 519//4
f 519//68 520//68 522//68 521//68
f 500//1 498//1 524//1 522//1 520//1 518//1 516//1 514//1 512//1 510//1 508//1 506//1 504//1 502//1
f 521//70 522//70 524//70 523//70
f 523//73 524//73 498//73 497//73
f 497//26 499//26 501//26 503//26 505//26 507//26 509//26 511//26 513//26 515//26 517//26 519//26 521//26 523//26
f 639//26 638//26 634//26 636//26
f 636//29 634//29 623//29 630//29
f 630//1 623//1 631//1 632//1
f 632//32 631//32 638//32 639//32
f 636//16 630//16 632//16 639//16
f 623//4 634//4 638//4 631//4
f 612//37 605//37 596//37 603//37
f 603//40 596//40 587//40 594//40
f 594//43 587//43 578//43 585//43
f 585//16 578//16 569//16 576//16
f 576//48 569//48 560//48 567//48
f 567//51 560//51 551//51 558//51
f 558//54 551//54 542//54 549//54
f 549//57 542//57 533//57 540//57
f 540//60 533//60 527//60 529//60
f 529//63 527//63 640//63 525//63
f 525//4 640//4 642//4 641//4
f 641//68 642//68 644//68 643//68
f 596//1 605//1 646//1 644//1 642//1 640//1 527//1 533//1 542//1 551//1 560//1 569//1 578//1 587//1
f 643//70 644//70 646//70 645//70
f 645//73 646//73 605//73 612//73
f 612//26 603//26 594//26 585//26 576//26 567//26 558//26 549//26 540//26 529//26 525//26 641//26 643//26 645//26
usemtl EF_White
f 463//26 464//26 466//26 465//26
f 465//29 466//29 470//29 469//29
f 469//1 470//1 468//1 467//1
f 467//32 468//32 464//32 463//32
f 465//16 469//16 467//16 463//16
f 470//4 466//4 464//4 468//4
f 557//35 556//35 565//35 566//35
f 531//36 539//36 548//36
f 553//38 552//38 561//38 562//38
f 532//39 496//39 541//39
f 544//41 543//41 552//41 553//41
f 539//42 538//42 547//42 548//42
f 543//44 541//44 550//44 552//44
f 538//45 537//45 546//45 547//45
f 545//46 544//46 553//46 554//46
f 536//47 535//47 544//47 545//47
f 548//49 547//49 556//49 557//49
f 531//50 530//50 539//50
f 541//52 496//52 550//52
f 495//53 496//53 532//53
f 546//55 545//55 554//55 555//55
f 528//56 635//56 536//56 537//56
f 547//58 546//58 555//58 556//58
f 633//59 495//59 532//59 534//59
f 531//61 548//61 557//61
f 637//62 528//62 537//62 538//62
f 534//64 532//64 541//64 543//64
f 526//65 633//65 534//65 535//65
f 537//66 536//66 545//66 546//66
f 530//67 637//67 538//67 539//67
f 635//69 526//69 535//69 536//69
f 550//71 496//71 559//71
f 535//72 534//72 543//72 544//72
f 555//74 554//74 563//74 564//74
f 552//75 550//75 559//75 561//75
f 531//76 557//76 566//76
f 556//77 555//77 564//77 565//77
f 554//78 553//78 562//78 563//78
f 566//79 565//79 574//79 575//79
f 562//80 561//80 570//80 571//80
f 564//81 563//81 572//81 573//81
f 561//82 559//82 568//82 570//82
f 531//83 566//83 575//83
f 565//84 564//84 573//84 574//84
f 563//85 562//85 571//85 572//85
f 559//86 496//86 568//86
f 570//87 568//87 577//87 579//87
f 531//88 575//88 584//88
f 574//89 573//89 582//89 583//89
f 572//90 571//90 580//90 581//90
f 568//91 496//91 577//91
f 575//92 574//92 583//92 584//92
f 571//93 570//93 579//93 580//93
f 573//94 572//94 581//94 582//94
f 583//95 582//95 591//95 592//95
f 581//96 580//96 589//96 590//96
f 577//97 496//97 586//97
f 584//98 583//98 592//98 593//98
f 580//99 579//99 588//99 589//99
f 582//100 581//100 590//100 591//100
f 579//101 577//101 586//101 588//101
f 531//102 584//102 593//102
f 586//103 496//103 595//103
f 593//104 592//104 601//104 602//104
f 589//105 588//105 597//105 598//105
f 591//106 590//106 599//106 600//106
f 588//107 586//107 595//107 597//107
f 531//108 593//108 602//108
f 592//109 591//109 600//109 601//109
f 590//110 589//110 598//110 599//110
f 598//111 597//111 606//111 607//111
f 600//112 599//112 608//112 609//112
f 597//113 595//113 604//113 606//113
f 531//114 602//114 611//114
f 601//115 600//115 609//115 610//115
f 599//116 598//116 607//116 608//116
f 595//117 496//117 604//117
f 602//118 601//118 610//118 611//118
f 606//119 604//119 613//119 615//119
f 531//120 611//120 620//120
f 610//121 609//121 618//121 619//121
f 608//122 607//122 616//122 617//122
f 604//123 496//123 613//123
f 611//124 610//124 619//124 620//124
f 607//125 606//125 615//125 616//125
f 609//126 608//126 617//126 618//126
f 617//127 616//127 625//127 626//127
f 613//128 496//128 622//128
f 620//129 619//129 628//129 629//129
f 616//130 615//130 624//130 625//130
f 618//131 617//131 626//131 627//131
f 615//132 613//132 622//132 624//132
f 531//133 620//133 629//133
f 619//134 618//134 627//134 628//134
f 622//135 496//135 495//135
f 629//136 628//136 637//136 530//136
f 625//137 624//137 633//137 526//137
f 627//138 626//138 635//138 528//138
f 624//139 622//139 495//139 633//139
f 531//140 629//140 530//140
f 628//141 627//141 528//141 637//141
f 626//142 625//142 526//142 635//142
f 675//38 674//38 683//38 684//38
f 660//45 659//45 668//45 669//45
f 679//35 678//35 687//35 688//35
f 661//42 660//42 669//42 670//42
f 653//61 670//61 679//61
f 659//66 658//66 667//66 668//66
f 664//52 614//52 673//52
f 653//143 661//143 670//143
f 670//49 669//49 678//49 679//49
f 655//39 614//39 664//39
f 669//58 668//58 677//58 678//58
f 755//59 621//59 655//59 656//59
f 666//41 665//41 674//41 675//41
f 648//65 755//65 656//65 657//65
f 667//46 666//46 675//46 676//46
f 759//62 650//62 659//62 660//62
f 665//44 664//44 673//44 674//44
f 653//50 652//50 661//50
f 668//55 667//55 676//55 677//55
f 650//56 757//56 658//56 659//56
f 658//47 657//47 666//47 667//47
f 757//69 648//69 657//69 658//69
f 657//72 656//72 665//72 666//72
f 621//53 614//53 655//53
f 652//67 759//67 660//67 661//67
f 674//75 673//75 682//75 683//75
f 656//64 655//64 664//64 665//64
f 677//74 676//74 685//74 686//74
f 673//71 614//71 682//71
f 653//76 679//76 688//76
f 678//77 677//77 686//77 687//77
f 676//78 675//78 684//78 685//78
f 686//81 685//81 694//81 695//81
f 682//86 614//86 691//86
f 653//144 688//144 697//144
f 687//84 686//84 695//84 696//84
f 685//85 684//85 693//85 694//85
f 683//82 682//82 691//82 692//82
f 684//80 683//80 692//80 693//80
f 688//79 687//79 696//79 697//79
f 691//91 614//91 700//91
f 653//88 697//88 706//88
f 696//89 695//89 704//89 705//89
f 694//90 693//90 702//90 703//90
f 692//87 691//87 700//87 701//87
f 693//93 692//93 701//93 702//93
f 697//92 696//92 705//92 706//92
f 695//94 694//94 703//94 704//94
f 703//96 702//96 711//96 712//96
f 701//101 700//101 709//101 710//101
f 702//99 701//99 710//99 711//99
f 706//98 705//98 714//98 715//98
f 704//100 703//100 712//100 713//100
f 700//97 614//97 709//97
f 653//102 706//102 715//102
f 705//95 704//95 713//95 714//95
f 711//105 710//105 719//105 720//105
f 715//104 714//104 723//104 724//104
f 713//106 712//106 721//106 722//106
f 709//103 614//103 718//103
f 653//145 715//145 724//145
f 714//109 713//109 722//109 723//109
f 712//110 711//110 720//110 721//110
f 710//107 709//107 718//107 719//107
f 718//117 614//117 727//117
f 653//114 724//114 733//114
f 723//115 722//115 731//115 732//115
f 721//116 720//116 729//116 730//116
f 719//113 718//113 727//113 728//113
f 720//111 719//111 728//111 729//111
f 724//118 723//118 732//118 733//118
f 722//112 721//112 730//112 731//112
f 653//120 733//120 742//120
f 732//121 731//121 740//121 741//121
f 730//122 729//122 738//122 739//122
f 728//119 727//119 736//119 737//119
f 729//125 728//125 737//125 738//125
f 733//124 732//124 741//124 742//124
f 731//126 730//126 739//126 740//126
f 727//123 614//123 736//123
f 737//132 736//132 745//132 746//132
f 738//130 737//130 746//130 747//130
f 742//129 741//129 750//129 751//129
f 740//131 739//131 748//131 749//131
f 736//128 614//128 745//128
f 653//146 742//146 751//146
f 741//134 740//134 749//134 750//134
f 739//127 738//127 747//127 748//127
f 751//136 750//136 759//136 652//136
f 749//138 748//138 757//138 650//138
f 745//135 614//135 621//135
f 653//140 751//140 652//140
f 750//141 749//141 650//141 759//141
f 748//142 747//142 648//142 757//142
f 746//139 745//139 621//139 755//139
f 747//137 746//137 755//137 648//137
usemtl EF_Grey
f 471//26 472//26 474//26 473//26
f 473//29 474//29 478//29 477//29
f 477//1 478//1 476//1 475//1
f 475//32 476//32 472//32 471//32
f 473//16 477//16 475//16 471//16
f 478//4 474//4 472//4 476//4
f 743//26 735//26 726//26 734//26
f 734//29 726//29 708//29 716//29
f 716//1 708//1 717//1 725//1
f 725//32 717//32 735//32 743//32
f 734//16 716//16 725//16 743//16
f 708//4 726//4 735//4 717//4
f 707//26 699//26 690//26 698//26
f 698//29 690//29 672//29 680//29
f 680//1 672//1 681//1 689//1
f 689//32 681//32 699//32 707//32
f 698//16 680//16 689//16 707//16
f 672//4 690//4 699//4 681//4
f 671//26 663//26 654//26 662//26
f 662//29 654//29 762//29 647//29
f 647//1 762//1 649//1 651//1
f 651//32 649//32 663//32 671//32
f 662//16 647//16 651//16 671//16
f 762//4 654//4 663//4 649//4
f 763//26 764//26 766//26 765//26
f 765//29 766//29 770//29 769//29
f 769//1 770//1 768//1 767//1
f 767//32 768//32 764//32 763//32
f 765//16 769//16 767//16 763//16
f 770//4 766//4 764//4 768//4
f 771//26 772//26 774//26 773//26
f 773//29 774//29 778//29 777//29
f 777//1 778//1 776//1 775//1
f 775//32 776//32 772//32 771//32
f 773//16 777//16 775//16 771//16
f 778//4 774//4 772//4 776//4
f 779//26 780//26 782//26 781//26
f 781//29 782//29 786//29 785//29
f 785//1 786//1 784//1 783//1
f 783//32 784//32 780//32 779//32
f 781//16 785//16 783//16 779//16
f 786//4 782//4 780//4 784//4
f 787//26 788//26 790//26 789//26
f 789//29 790//29 794//29 793//29
f 793//1 794//1 792//1 791//1
f 791//32 792//32 788//32 787//32
f 789//16 793//16 791//16 787//16
f 794//4 790//4 788//4 792//4
usemtl EF_Comb
f 795//26 796//26 798//26 797//26
f 797//29 798//29 802//29 801//29
f 801//1 802//1 800//1 799//1
f 799//32 800//32 796//32 795//32
f 797//16 801//16 799//16 795//16
f 802//4 798//4 796//4 800//4
f 803//26 804//26 806//26 805//26
f 805//29 806//29 810//29 809//29
f 809//1 810//1 808//1 807//1
f 807//32 808//32 804//32 803//32
f 805//16 809//16 807//16 803//16
f 810//4 806//4 804//4 808//4
