# Blender 5.0.1
# www.blender.org
mtllib Bush.mtl
o Bush
v 0.000498 0.000000 -0.017614
v -0.333939 0.268008 -0.260232
v 0.137032 0.333554 -0.367127
v 0.427759 0.259284 -0.037017
v 0.097186 0.327161 0.391281
v -0.316726 0.333891 0.281013
v -0.081080 0.717815 -0.422506
v 0.312764 0.696343 -0.210682
v 0.312592 0.725869 0.249226
v -0.085033 0.673365 0.381864
v -0.439009 0.693615 0.015111
v -0.025509 0.915891 0.035060
v -0.327225 0.062907 0.059227
v -0.615485 0.229801 -0.115648
v -0.249112 0.232150 -0.183231
v -0.061870 0.249969 0.081763
v -0.300489 0.223613 0.343746
v -0.619302 0.231423 0.272814
v -0.441462 0.586957 -0.209620
v -0.097405 0.562078 -0.110390
v -0.120054 0.579132 0.292408
v -0.443155 0.578980 0.351188
v -0.690081 0.536112 0.078752
v -0.392859 0.757904 0.053715
v 0.397580 0.042328 0.037227
v 0.086725 0.265000 -0.126990
v 0.492718 0.273599 -0.239825
v 0.690081 0.267452 0.022326
v 0.490886 0.265731 0.320657
v 0.113144 0.276309 0.272405
v 0.292148 0.536086 -0.269745
v 0.587818 0.538802 -0.153893
v 0.654853 0.530313 0.209729
v 0.281553 0.549311 0.331427
v 0.030952 0.594374 0.080835
v 0.337983 0.778114 0.033998
v -0.083938 0.395861 0.260679
v -0.270136 0.554774 0.114577
v -0.025507 0.541385 -0.002460
v 0.168856 0.557728 0.250208
v -0.010207 0.522207 0.480326
v -0.289167 0.558996 0.400666
v -0.170596 0.802738 0.010959
v 0.098641 0.793485 0.109187
v 0.144042 0.810210 0.375613
v -0.145316 0.805542 0.475402
v -0.330221 0.789353 0.228220
v -0.093990 0.928122 0.232172
v -0.192000 0.635709 -0.390726
v -0.192000 0.617666 -0.347168
v -0.192000 0.574109 -0.329126
v -0.192000 0.530551 -0.347168
v -0.192000 0.512509 -0.390726
v 0.256000 0.400509 -0.334726
v -0.229722 0.617666 -0.368947
v -0.245347 0.574109 -0.359926
v -0.229722 0.530551 -0.368947
v 0.218278 0.418551 -0.356505
v 0.202653 0.462109 -0.365526
v -0.229722 0.617666 -0.412505
v -0.245347 0.574109 -0.421526
v -0.229722 0.530551 -0.412505
v 0.218278 0.505666 -0.356505
v 0.256000 0.523709 -0.334726
v -0.192000 0.617666 -0.434284
v -0.192000 0.574109 -0.452326
v -0.192000 0.530551 -0.434284
v 0.032000 0.680509 -0.418726
v 0.218278 0.505666 -0.312947
v -0.154278 0.617666 -0.412505
v -0.138653 0.574109 -0.421526
v -0.154278 0.530551 -0.412505
v 0.202653 0.462109 -0.303926
v 0.218278 0.418551 -0.312947
v -0.154278 0.617666 -0.368947
v -0.138653 0.574109 -0.359926
v -0.154278 0.530551 -0.368947
v -0.005722 0.698551 -0.440505
v -0.021347 0.742109 -0.449526
v 0.256000 0.418551 -0.291168
v -0.005722 0.785667 -0.440505
v 0.256000 0.505666 -0.291168
v 0.032000 0.803709 -0.418726
v -0.472000 0.344509 -0.194726
v 0.256000 0.418551 -0.378284
v 0.256000 0.462109 -0.396326
v 0.256000 0.505666 -0.378284
v -0.005722 0.785667 -0.396947
v -0.021347 0.742109 -0.387926
v 0.293722 0.418551 -0.356505
v 0.309347 0.462109 -0.365526
v 0.293722 0.505666 -0.356505
v -0.005722 0.698551 -0.396947
v -0.509722 0.362551 -0.216505
v 0.293722 0.418551 -0.312947
v 0.309347 0.462109 -0.303926
v 0.293722 0.505666 -0.312947
v -0.525347 0.406109 -0.225526
v 0.032000 0.698551 -0.375168
v -0.509722 0.449667 -0.216505
v 0.256000 0.462109 -0.273126
v 0.032000 0.785667 -0.375168
v -0.472000 0.467709 -0.194726
v 0.032000 0.698551 -0.462284
v 0.032000 0.742109 -0.480326
v 0.032000 0.785667 -0.462284
v -0.509722 0.449667 -0.172947
v -0.525347 0.406109 -0.163926
v 0.069722 0.698551 -0.440505
v 0.085347 0.742109 -0.449526
v 0.069722 0.785667 -0.440505
v -0.509722 0.362551 -0.172947
v 0.069722 0.698551 -0.396947
v 0.085347 0.742109 -0.387926
v 0.069722 0.785667 -0.396947
v -0.472000 0.362551 -0.151168
v 0.032000 0.742109 -0.357126
v -0.472000 0.449667 -0.151168
v -0.472000 0.362551 -0.238284
v -0.472000 0.406109 -0.256326
v -0.472000 0.449667 -0.238284
v -0.434278 0.362551 -0.216505
v -0.418653 0.406109 -0.225526
v -0.434278 0.449667 -0.216505
v -0.434278 0.362551 -0.172947
v -0.418653 0.406109 -0.163926
v -0.434278 0.449667 -0.172947
v -0.472000 0.406109 -0.133126
vn -0.0603 -0.7102 -0.7014
vn -0.6692 -0.7348 0.1107
vn 0.4204 -0.7328 -0.5351
vn 0.4708 -0.7398 0.4806
vn -0.1827 -0.7462 0.6402
vn -0.9584 -0.2782 0.0643
vn -0.1828 -0.2411 -0.9531
vn 0.7406 -0.0706 -0.6682
vn 0.7621 -0.1914 0.6185
vn -0.2575 -0.1094 0.9600
vn -0.7628 0.2079 -0.6124
vn 0.4748 0.1444 -0.8682
vn 0.9685 0.2486 -0.0156
vn 0.2901 0.1783 0.9402
vn -0.6860 0.2671 0.6768
vn -0.4382 0.8431 -0.3118
vn 0.2680 0.8718 -0.4100
vn 0.5153 0.8552 -0.0547
vn 0.0869 0.8093 0.5809
vn -0.4367 0.7707 0.4640
vn -0.1040 -0.7995 -0.5916
vn -0.5005 -0.8658 -0.0013
vn 0.5602 -0.7530 -0.3452
vn 0.5093 -0.7690 0.3865
vn -0.1316 -0.8578 0.4969
vn -0.9728 -0.2315 -0.0086
vn -0.1778 -0.1685 -0.9695
vn 0.7992 -0.2465 -0.5482
vn 0.7242 -0.2763 0.6318
vn -0.2184 -0.1080 0.9699
vn -0.7587 0.2072 -0.6176
vn 0.2816 0.0816 -0.9560
vn 0.9885 0.1430 0.0495
vn 0.1787 0.0512 0.9826
vn -0.7387 0.2316 0.6330
vn -0.5759 0.7302 -0.3677
vn 0.2191 0.7994 -0.5594
vn 0.5508 0.8346 -0.0044
vn 0.0951 0.8459 0.5248
vn -0.5364 0.7602 0.3666
vn -0.1695 -0.7272 -0.6652
vn -0.6028 -0.7955 0.0624
vn 0.5391 -0.7284 -0.4229
vn 0.5761 -0.7234 0.3805
vn -0.1027 -0.7645 0.6364
vn -0.9752 -0.2096 0.0704
vn -0.2499 -0.2961 -0.9219
vn 0.7946 -0.0904 -0.6004
vn 0.8008 -0.2728 0.5331
vn -0.1292 -0.1327 0.9827
vn -0.7550 0.2537 -0.6047
vn 0.3582 0.1691 -0.9182
vn 0.9535 0.2490 -0.1700
vn 0.3129 0.1957 0.9294
vn -0.6605 0.2547 0.7063
vn -0.5011 0.7121 -0.4918
vn 0.2388 0.7416 -0.6269
vn 0.6472 0.7555 -0.1017
vn 0.2402 0.7469 0.6201
vn -0.3798 0.7666 0.5177
vn -0.2891 -0.8091 -0.5117
vn -0.6348 -0.7721 -0.0308
vn 0.4989 -0.8006 -0.3320
vn 0.5252 -0.8018 0.2849
vn -0.2608 -0.7964 0.5457
vn -0.9737 -0.2196 -0.0615
vn -0.4320 -0.1946 -0.8806
vn 0.7904 -0.1235 -0.6000
vn 0.7870 -0.2107 0.5799
vn -0.2872 -0.1205 0.9503
vn -0.8057 0.0781 -0.5872
vn 0.3402 0.2356 -0.9103
vn 0.9672 0.1826 -0.1763
vn 0.3189 0.1683 0.9327
vn -0.7769 0.2827 0.5626
vn -0.4792 0.8244 -0.3013
vn 0.2243 0.8125 -0.5382
vn 0.5058 0.8513 -0.1396
vn 0.1480 0.8703 0.4698
vn -0.4855 0.8176 0.3096
vn -0.2157 -0.9021 0.3737
vn -0.4706 0.3377 0.8152
vn -0.4706 -0.3377 0.8152
vn -0.2157 0.9021 0.3737
vn -0.4315 -0.9021 -0.0000
vn -0.9413 0.3377 -0.0000
vn -0.9413 -0.3377 -0.0000
vn -0.4315 0.9021 -0.0000
vn -0.2157 -0.9021 -0.3737
vn -0.4706 0.3377 -0.8152
vn -0.4706 -0.3377 -0.8152
vn -0.2157 0.9021 -0.3737
vn 0.2157 -0.9021 -0.3737
vn 0.4706 0.3377 -0.8152
vn 0.4706 -0.3377 -0.8152
vn 0.2157 0.9021 -0.3737
vn 0.4315 0.9021 -0.0000
vn 0.4315 -0.9021 -0.0000
vn 0.9413 0.3377 -0.0000
vn 0.9413 -0.3377 -0.0000
vn 0.4706 -0.3377 0.8152
vn 0.2157 0.9021 0.3737
vn 0.2157 -0.9021 0.3737
vn 0.4706 0.3377 0.8152
s 0
usemtl EF_Leaf
f 1//1 2//1 3//1
f 2//2 1//2 6//2
f 1//3 3//3 4//3
f 1//4 4//4 5//4
f 1//5 5//5 6//5
f 2//6 6//6 11//6
f 3//7 2//7 7//7
f 4//8 3//8 8//8
f 5//9 4//9 9//9
f 6//10 5//10 10//10
f 2//11 11//11 7//11
f 3//12 7//12 8//12
f 4//13 8//13 9//13
f 5//14 9//14 10//14
f 6//15 10//15 11//15
f 7//16 11//16 12//16
f 8//17 7//17 12//17
f 9//18 8//18 12//18
f 10//19 9//19 12//19
f 11//20 10//20 12//20
f 25//41 26//41 27//41
f 26//42 25//42 30//42
f 25//43 27//43 28//43
f 25//44 28//44 29//44
f 25//45 29//45 30//45
f 26//46 30//46 35//46
f 27//47 26//47 31//47
f 28//48 27//48 32//48
f 29//49 28//49 33//49
f 30//50 29//50 34//50
f 26//51 35//51 31//51
f 27//52 31//52 32//52
f 28//53 32//53 33//53
f 29//54 33//54 34//54
f 30//55 34//55 35//55
f 31//56 35//56 36//56
f 32//57 31//57 36//57
f 33//58 32//58 36//58
f 34//59 33//59 36//59
f 35//60 34//60 36//60
usemtl EF_LeafDark
f 13//21 14//21 15//21
f 14//22 13//22 18//22
f 13//23 15//23 16//23
f 13//24 16//24 17//24
f 13//25 17//25 18//25
f 14//26 18//26 23//26
f 15//27 14//27 19//27
f 16//28 15//28 20//28
f 17//29 16//29 21//29
f 18//30 17//30 22//30
f 14//31 23//31 19//31
f 15//32 19//32 20//32
f 16//33 20//33 21//33
f 17//34 21//34 22//34
f 18//35 22//35 23//35
f 19//36 23//36 24//36
f 20//37 19//37 24//37
f 21//38 20//38 24//38
f 22//39 21//39 24//39
f 23//40 22//40 24//40
f 37//61 38//61 39//61
f 38//62 37//62 42//62
f 37//63 39//63 40//63
f 37//64 40//64 41//64
f 37//65 41//65 42//65
f 38//66 42//66 47//66
f 39//67 38//67 43//67
f 40//68 39//68 44//68
f 41//69 40//69 45//69
f 42//70 41//70 46//70
f 38//71 47//71 43//71
f 39//72 43//72 44//72
f 40//73 44//73 45//73
f 41//74 45//74 46//74
f 42//75 46//75 47//75
f 43//76 47//76 48//76
f 44//77 43//77 48//77
f 45//78 44//78 48//78
f 46//79 45//79 48//79
f 47//80 46//80 48//80
usemtl EF_Accent
f 53//81 52//81 57//81
f 51//82 50//82 55//82 56//82
f 52//83 51//83 56//83 57//83
f 50//84 49//84 55//84
f 53//85 57//85 62//85
f 56//86 55//86 60//86 61//86
f 57//87 56//87 61//87 62//87
f 55//88 49//88 60//88
f 53//89 62//89 67//89
f 61//90 60//90 65//90 66//90
f 62//91 61//91 66//91 67//91
f 60//92 49//92 65//92
f 53//93 67//93 72//93
f 66//94 65//94 70//94 71//94
f 67//95 66//95 71//95 72//95
f 65//96 49//96 70//96
f 70//97 49//97 75//97
f 53//98 72//98 77//98
f 71//99 70//99 75//99 76//99
f 72//100 71//100 76//100 77//100
f 77//101 76//101 51//101 52//101
f 75//102 49//102 50//102
f 53//103 77//103 52//103
f 76//104 75//104 50//104 51//104
f 118//84 103//84 107//84
f 116//83 128//83 108//83 112//83
f 84//81 116//81 112//81
f 128//82 118//82 107//82 108//82
f 112//87 108//87 98//87 94//87
f 107//88 103//88 100//88
f 84//85 112//85 94//85
f 108//86 107//86 100//86 98//86
f 94//91 98//91 120//91 119//91
f 100//92 103//92 121//92
f 98//90 100//90 121//90 120//90
f 84//89 94//89 119//89
f 84//93 119//93 122//93
f 121//96 103//96 124//96
f 119//95 120//95 123//95 122//95
f 120//94 121//94 124//94 123//94
f 122//100 123//100 126//100 125//100
f 124//97 103//97 127//97
f 84//98 122//98 125//98
f 123//99 124//99 127//99 126//99
f 125//101 126//101 128//101 116//101
f 127//102 103//102 118//102
f 84//103 125//103 116//103
f 126//104 127//104 118//104 128//104
usemtl EF_White
f 101//82 82//82 69//82 73//82
f 54//81 80//81 74//81
f 82//84 64//84 69//84
f 80//83 101//83 73//83 74//83
f 54//85 74//85 58//85
f 73//86 69//86 63//86 59//86
f 74//87 73//87 59//87 58//87
f 69//88 64//88 63//88
f 54//89 58//89 85//89
f 58//91 59//91 86//91 85//91
f 63//92 64//92 87//92
f 59//90 63//90 87//90 86//90
f 85//95 86//95 91//95 90//95
f 87//96 64//96 92//96
f 54//93 85//93 90//93
f 86//94 87//94 92//94 91//94
f 90//100 91//100 96//100 95//100
f 92//97 64//97 97//97
f 54//98 90//98 95//98
f 91//99 92//99 97//99 96//99
f 95//101 96//101 101//101 80//101
f 97//102 64//102 82//102
f 54//103 95//103 80//103
f 96//104 97//104 82//104 101//104
f 99//83 117//83 89//83 93//83
f 68//81 99//81 93//81
f 117//82 102//82 88//82 89//82
f 102//84 83//84 88//84
f 93//87 89//87 79//87 78//87
f 88//88 83//88 81//88
f 68//85 93//85 78//85
f 89//86 88//86 81//86 79//86
f 78//91 79//91 105//91 104//91
f 81//92 83//92 106//92
f 79//90 81//90 106//90 105//90
f 68//89 78//89 104//89
f 106//96 83//96 111//96
f 104//95 105//95 110//95 109//95
f 105//94 106//94 111//94 110//94
f 68//93 104//93 109//93
f 109//100 110//100 114//100 113//100
f 111//97 83//97 115//97
f 68//98 109//98 113//98
f 110//99 111//99 115//99 114//99
f 113//101 114//101 117//101 99//101
f 115//102 83//102 102//102
f 68//103 113//103 99//103
f 114//104 115//104 102//104 117//104
