# Blender 5.0.1
# www.blender.org
mtllib Chicken.mtl
o Chicken
v 0.072800 0.016800 -0.040500
v 0.072800 0.000000 -0.040500
v 0.044800 0.000000 0.032300
v 0.044800 0.084000 0.032300
v 0.030251 0.000000 0.023900
v 0.030251 0.084000 0.023900
v 0.030251 0.000000 0.007100
v 0.030251 0.084000 0.007100
v 0.044800 0.000000 -0.001300
v 0.044800 0.084000 -0.001300
v 0.059349 0.000000 0.007100
v 0.059349 0.084000 0.007100
v 0.059349 0.000000 0.023900
v 0.059349 0.084000 0.023900
v 0.072800 0.000000 0.026700
v 0.072800 0.016800 0.026700
v 0.016800 0.000000 -0.040500
v 0.016800 0.016800 -0.040500
v 0.016800 0.000000 0.026700
v 0.016800 0.016800 0.026700
v -0.016800 0.016800 -0.040500
v -0.016800 0.000000 -0.040500
v -0.044800 0.000000 0.032300
v -0.044800 0.084000 0.032300
v -0.059349 0.000000 0.023900
v -0.059349 0.084000 0.023900
v -0.059349 0.000000 0.007100
v -0.059349 0.084000 0.007100
v -0.044800 0.000000 -0.001300
v -0.044800 0.084000 -0.001300
v -0.030251 0.000000 0.007100
v -0.030251 0.084000 0.007100
v -0.030251 0.000000 0.023900
v -0.030251 0.084000 0.023900
v -0.016800 0.000000 0.026700
v -0.016800 0.016800 0.026700
v -0.072800 0.000000 -0.040500
v -0.072800 0.016800 -0.040500
v -0.072800 0.000000 0.026700
v -0.072800 0.016800 0.026700
v -0.000000 0.305200 0.023900
v -0.046180 0.257600 -0.136199
v -0.000000 0.269936 0.130814
v -0.026662 0.294495 -0.112320
v -0.000000 0.184800 0.175100
v 0.000000 0.308000 -0.079700
v 0.095425 0.201600 -0.028625
v -0.043140 0.294495 -0.092160
v -0.000000 0.064400 0.023900
v -0.074721 0.257600 -0.101281
v -0.021966 0.296035 0.074010
v -0.040588 0.269936 0.116491
v -0.053031 0.230875 0.144875
v -0.057400 0.184800 0.154843
v -0.053031 0.138725 0.144875
v -0.040588 0.099664 0.116491
v -0.021966 0.073565 0.074010
v -0.086280 0.207200 -0.104619
v -0.074721 0.156800 -0.101281
v -0.038046 0.296035 0.052831
v -0.070300 0.269936 0.077357
v -0.091852 0.230875 0.093745
v -0.099420 0.184800 0.099500
v -0.091852 0.138725 0.093745
v -0.070300 0.099664 0.077357
v -0.038046 0.073565 0.052831
v -0.043140 0.119905 -0.092160
v 0.000000 0.106400 -0.079700
v -0.043932 0.296035 0.023900
v -0.081176 0.269936 0.023900
v -0.106061 0.230875 0.023900
v -0.114800 0.184800 0.023900
v -0.106061 0.138725 0.023900
v -0.081176 0.099664 0.023900
v -0.043932 0.073565 0.023900
v 0.098396 0.170240 -0.019712
v -0.043140 0.119905 -0.067241
v -0.038046 0.296035 -0.005031
v -0.070300 0.269936 -0.029557
v -0.091852 0.230875 -0.045945
v -0.099420 0.184800 -0.051700
v -0.091852 0.138725 -0.045945
v -0.070300 0.099664 -0.029557
v -0.038046 0.073565 -0.005031
v -0.074721 0.156800 -0.058120
v -0.086280 0.207200 -0.054781
v -0.021966 0.296035 -0.026210
v -0.040588 0.269936 -0.068691
v -0.053031 0.230875 -0.097076
v -0.057400 0.184800 -0.107043
v -0.053031 0.138725 -0.097076
v -0.040588 0.099664 -0.068691
v -0.021966 0.073565 -0.026210
v -0.074721 0.257600 -0.058120
v -0.043140 0.294495 -0.067241
v 0.000000 0.296035 -0.033962
v 0.000000 0.269936 -0.083015
v 0.000000 0.230875 -0.115791
v 0.000000 0.184800 -0.127300
v 0.000000 0.138725 -0.115791
v 0.000000 0.099664 -0.083015
v 0.000000 0.073565 -0.033962
v 0.106513 0.147283 0.004638
v 0.117600 0.138880 0.037900
v 0.021966 0.296035 -0.026210
v 0.040588 0.269936 -0.068691
v 0.053031 0.230875 -0.097076
v 0.057400 0.184800 -0.107043
v 0.053031 0.138725 -0.097076
v 0.040588 0.099664 -0.068691
v 0.021966 0.073565 -0.026210
v -0.026662 0.294495 -0.047081
v -0.046180 0.257600 -0.023201
v 0.038046 0.296035 -0.005031
v 0.070300 0.269936 -0.029557
v 0.091852 0.230875 -0.045945
v 0.099420 0.184800 -0.051700
v 0.091852 0.138725 -0.045945
v 0.070300 0.099664 -0.029557
v 0.038046 0.073565 -0.005031
v -0.053324 0.207200 -0.014461
v -0.046180 0.156800 -0.023201
v 0.043932 0.296035 0.023900
v 0.081176 0.269936 0.023900
v 0.106061 0.230875 0.023900
v 0.114800 0.184800 0.023900
v 0.106061 0.138725 0.023900
v 0.081176 0.099664 0.023900
v 0.043932 0.073565 0.023900
v -0.026662 0.119905 -0.047081
v -0.117600 0.138880 0.037900
v 0.038046 0.296035 0.052831
v 0.070300 0.269936 0.077357
v 0.091852 0.230875 0.093745
v 0.099420 0.184800 0.099500
v 0.091852 0.138725 0.093745
v 0.070300 0.099664 0.077357
v 0.038046 0.073565 0.052831
v 0.101920 0.147283 0.037900
v 0.090441 0.170240 0.037900
v 0.021966 0.296035 0.074010
v 0.040588 0.269936 0.116491
v 0.053031 0.230875 0.144875
v 0.057400 0.184800 0.154843
v 0.053031 0.138725 0.144875
v 0.040588 0.099664 0.116491
v 0.021966 0.073565 0.074010
v 0.086240 0.201600 0.037900
v 0.090441 0.232960 0.037900
v -0.000000 0.296035 0.081762
v 0.101920 0.255917 0.037900
v -0.000000 0.230875 0.163590
v 0.117600 0.264320 0.037900
v -0.000000 0.138725 0.163590
v -0.000000 0.099664 0.130814
v -0.000000 0.073565 0.081762
v -0.133280 0.147283 0.037900
v -0.053324 0.207200 -0.144939
v -0.046180 0.156800 -0.136199
v -0.026662 0.119905 -0.112320
v 0.106513 0.255917 0.071162
v 0.000000 0.257600 -0.149536
v 0.000000 0.294495 -0.120020
v 0.098396 0.232960 0.095512
v -0.000000 0.207200 -0.160340
v 0.000000 0.156800 -0.149536
v 0.000000 0.119905 -0.120020
v 0.095425 0.201600 0.104424
v 0.046180 0.257600 -0.136199
v 0.026662 0.294495 -0.112320
v 0.098396 0.170240 0.095512
v 0.053324 0.207200 -0.144939
v 0.046180 0.156800 -0.136199
v 0.026662 0.119905 -0.112320
v 0.106513 0.147283 0.071162
v 0.074721 0.257600 -0.101281
v 0.043140 0.294495 -0.092160
v -0.144759 0.170240 0.037900
v 0.086280 0.207200 -0.104619
v 0.074721 0.156800 -0.101281
v 0.043140 0.119905 -0.092160
v -0.148960 0.201600 0.037900
v 0.074721 0.257600 -0.058120
v 0.043140 0.294495 -0.067241
v 0.117600 0.147283 0.084940
v 0.086280 0.207200 -0.054781
v 0.074721 0.156800 -0.058120
v 0.043140 0.119905 -0.067241
v 0.117600 0.170240 0.119376
v 0.046180 0.257600 -0.023201
v 0.026662 0.294495 -0.047081
v 0.117600 0.201600 0.131980
v 0.053324 0.207200 -0.014461
v 0.046180 0.156800 -0.023201
v 0.026662 0.119905 -0.047081
v 0.117600 0.232960 0.119376
v 0.000000 0.257600 -0.009864
v 0.000000 0.294495 -0.039380
v 0.117600 0.255917 0.084940
v 0.000000 0.207200 0.000940
v 0.000000 0.156800 -0.009864
v 0.000000 0.119905 -0.039380
v -0.144759 0.232960 0.037900
v 0.098396 0.232960 -0.019712
v 0.106513 0.255917 0.004638
v -0.133280 0.255917 0.037900
v 0.117600 0.201600 -0.056180
v 0.117600 0.170240 -0.043576
v 0.117600 0.147283 -0.009140
v -0.117600 0.264320 0.037900
v 0.117600 0.232960 -0.043576
v 0.117600 0.255917 -0.009140
v -0.000000 0.275208 0.102810
v 0.139775 0.201600 -0.028625
v 0.136804 0.170240 -0.019712
v 0.128687 0.147283 0.004638
v -0.128687 0.255917 0.071162
v 0.136804 0.232960 -0.019712
v 0.128687 0.255917 0.004638
v -0.136804 0.232960 0.095512
v 0.148960 0.201600 0.037900
v 0.144759 0.170240 0.037900
v 0.133280 0.147283 0.037900
v -0.139775 0.201600 0.104424
v 0.144759 0.232960 0.037900
v 0.133280 0.255917 0.037900
v -0.136804 0.170240 0.095512
v 0.139775 0.201600 0.104424
v 0.136804 0.170240 0.095512
v 0.128687 0.147283 0.071162
v -0.128687 0.147283 0.071162
v 0.136804 0.232960 0.095512
v 0.128687 0.255917 0.071162
v -0.009700 0.301908 0.224798
v -0.041223 0.255024 0.115423
v -0.117600 0.147283 0.084940
v -0.117600 0.170240 0.119375
v -0.117600 0.201600 0.131980
v -0.117600 0.232960 0.119375
v -0.117600 0.255917 0.084940
v -0.009700 0.292410 0.230733
v -0.041223 0.214657 0.140647
v -0.128687 0.147283 0.004638
v -0.136804 0.170240 -0.019712
v -0.139775 0.201600 -0.028625
v -0.136804 0.232960 -0.019712
v -0.128687 0.255917 0.004638
v -0.000000 0.287661 0.233700
v -0.000000 0.194474 0.153259
v -0.117600 0.147283 -0.009140
v -0.117600 0.170240 -0.043576
v -0.117600 0.201600 -0.056180
v -0.117600 0.232960 -0.043576
v -0.117600 0.255917 -0.009140
v 0.050519 0.274480 0.230733
v 0.058224 0.190934 0.140647
v -0.106513 0.147283 0.004638
v -0.098396 0.170240 -0.019712
v -0.095425 0.201600 -0.028625
v -0.098396 0.232960 -0.019712
v -0.106513 0.255917 0.004638
v 0.053264 0.283572 0.224798
v 0.069891 0.229578 0.115423
v -0.101920 0.147283 0.037900
v -0.090441 0.170240 0.037900
v -0.086240 0.201600 0.037900
v -0.090441 0.232960 0.037900
v -0.101920 0.255917 0.037900
v 0.045351 0.290922 0.221830
v 0.036261 0.260815 0.102810
v -0.106513 0.147283 0.071162
v -0.098396 0.170240 0.095512
v -0.095425 0.201600 0.104424
v -0.098396 0.232960 0.095512
v -0.106513 0.255917 0.071162
v 0.034693 0.289179 0.224798
v -0.009036 0.253407 0.115423
v 0.031948 0.280086 0.230733
v -0.020703 0.214763 0.140647
v 0.039861 0.272737 0.233700
v 0.012927 0.183526 0.153259
v 0.000000 0.380800 -0.118900
v 0.000000 0.371047 -0.082500
v -0.000000 0.306657 0.221830
v 0.041223 0.255024 0.115423
v 0.009699 0.301908 0.224798
v 0.041223 0.214657 0.140647
v 0.009699 0.292410 0.230733
v -0.012927 0.183526 0.153259
v -0.039861 0.272737 0.233700
v -0.058224 0.190934 0.140647
v -0.050519 0.274480 0.230733
v -0.069891 0.229578 0.115423
v -0.053264 0.283572 0.224798
v -0.036261 0.260815 0.102810
v -0.045351 0.290922 0.221830
v 0.009036 0.253407 0.115423
v -0.034693 0.289179 0.224798
v 0.020703 0.214763 0.140647
v -0.031948 0.280086 0.230733
v 0.000000 0.245183 -0.191588
v 0.000000 0.308000 -0.046100
v 0.000000 0.281217 -0.191588
v 0.000000 0.244953 -0.082500
v 0.000000 0.235200 -0.118900
v 0.000000 0.263200 -0.196180
v -0.021395 0.371047 -0.089452
v -0.037058 0.344400 -0.067894
v -0.042791 0.308000 -0.060004
v -0.037058 0.271600 -0.067894
v -0.021395 0.244953 -0.089452
v -0.013579 0.263200 -0.188340
v -0.009602 0.281217 -0.186044
v -0.034618 0.371047 -0.107652
v -0.059961 0.344400 -0.099418
v -0.069237 0.308000 -0.096404
v -0.059961 0.271600 -0.099418
v -0.034618 0.244953 -0.107652
v -0.009602 0.245183 -0.186044
v 0.000000 0.237720 -0.180500
v -0.034618 0.371047 -0.130148
v -0.059961 0.344400 -0.138383
v -0.069237 0.308000 -0.141397
v -0.059961 0.271600 -0.138383
v -0.034618 0.244953 -0.130148
v 0.000000 0.288680 -0.180500
v 0.000000 0.353360 -0.152500
v -0.021395 0.371047 -0.148348
v -0.037058 0.344400 -0.169906
v -0.042791 0.308000 -0.177797
v -0.037058 0.271600 -0.169906
v -0.021395 0.244953 -0.148348
v -0.008230 0.360577 -0.160420
v -0.009602 0.245183 -0.174956
v 0.000000 0.371047 -0.155300
v 0.000000 0.344400 -0.181947
v 0.000000 0.308000 -0.191700
v 0.000000 0.271600 -0.181947
v 0.000000 0.244953 -0.155300
v 0.000000 0.299600 -0.233700
v 0.020611 0.311500 -0.172100
v 0.021395 0.371047 -0.148348
v 0.037058 0.344400 -0.169906
v 0.042791 0.308000 -0.177797
v 0.037058 0.271600 -0.169906
v 0.021395 0.244953 -0.148348
v 0.000000 0.281217 -0.169413
v 0.020611 0.287700 -0.172100
v 0.034618 0.371047 -0.130148
v 0.059961 0.344400 -0.138383
v 0.069237 0.308000 -0.141397
v 0.059961 0.271600 -0.138383
v 0.034618 0.244953 -0.130148
v 0.000000 0.263200 -0.164820
v 0.000000 0.275800 -0.172100
v 0.034618 0.371047 -0.107652
v 0.059961 0.344400 -0.099418
v 0.069237 0.308000 -0.096404
v 0.059961 0.271600 -0.099418
v 0.034618 0.244953 -0.107652
v 0.000000 0.245183 -0.169413
v -0.020611 0.287700 -0.172100
v 0.021395 0.371047 -0.089452
v 0.037058 0.344400 -0.067894
v 0.042791 0.308000 -0.060004
v 0.037058 0.271600 -0.067894
v 0.021395 0.244953 -0.089452
v -0.011639 0.378000 -0.163700
v -0.020611 0.311500 -0.172100
v -0.009602 0.281217 -0.174956
v 0.000000 0.344400 -0.055854
v 0.000000 0.323400 -0.172100
v 0.000000 0.271600 -0.055854
v -0.013579 0.263200 -0.172660
v -0.008230 0.395423 -0.160420
v 0.000000 0.402640 -0.152500
v 0.000000 0.361200 -0.118900
v 0.009602 0.245183 -0.186044
v 0.009602 0.281217 -0.186044
v 0.013579 0.263200 -0.188340
v -0.008230 0.395423 -0.144581
v -0.011639 0.378000 -0.141300
v 0.009602 0.245183 -0.174956
v 0.009602 0.281217 -0.174956
v 0.013579 0.263200 -0.172660
v -0.008230 0.360577 -0.144581
v -0.010288 0.370221 -0.128800
v -0.014549 0.392000 -0.132900
v 0.000000 0.360577 -0.136661
v -0.010288 0.413779 -0.128800
v 0.000000 0.395423 -0.136661
v 0.000000 0.422800 -0.118900
v 0.000000 0.353360 -0.082500
v 0.000000 0.360577 -0.168339
v 0.000000 0.378000 -0.174900
v 0.000000 0.395423 -0.168339
v -0.010288 0.413779 -0.109001
v -0.014549 0.392000 -0.104900
v 0.008230 0.360577 -0.160420
v 0.011639 0.378000 -0.163700
v 0.008230 0.395423 -0.160420
v -0.010288 0.370221 -0.109001
v -0.008230 0.360577 -0.090420
v 0.008230 0.360577 -0.144581
v 0.011639 0.378000 -0.141300
v 0.008230 0.395423 -0.144581
v -0.011639 0.378000 -0.093700
v 0.000000 0.370221 -0.099101
v -0.008230 0.395423 -0.090420
v 0.000000 0.378000 -0.130100
v 0.000000 0.413779 -0.099101
v 0.000000 0.402640 -0.082500
v 0.056000 0.310800 -0.158100
v 0.000000 0.370221 -0.138699
v 0.000000 0.392000 -0.146900
v 0.000000 0.413779 -0.138699
v -0.008230 0.395423 -0.074581
v -0.011639 0.378000 -0.071300
v 0.010288 0.370221 -0.128800
v 0.014549 0.392000 -0.132900
v 0.010288 0.413779 -0.128800
v -0.008230 0.360577 -0.074581
v 0.047427 0.314900 -0.163050
v 0.010288 0.370221 -0.109001
v 0.014549 0.392000 -0.104900
v 0.010288 0.413779 -0.109001
v 0.043876 0.324800 -0.165100
v 0.000000 0.360577 -0.066661
v 0.047427 0.334699 -0.163050
v 0.000000 0.392000 -0.090900
v 0.000000 0.395423 -0.066661
v 0.056000 0.338800 -0.158100
v -0.056000 0.310800 -0.158100
v 0.000000 0.360577 -0.098339
v 0.000000 0.378000 -0.104900
v 0.000000 0.395423 -0.098339
v 0.047427 0.334699 -0.153150
v 0.043876 0.324800 -0.151100
v 0.008230 0.360577 -0.090420
v 0.011639 0.378000 -0.093700
v 0.008230 0.395423 -0.090420
v 0.047427 0.314900 -0.153150
v -0.064573 0.314900 -0.163050
v 0.008230 0.360577 -0.074581
v 0.011639 0.378000 -0.071300
v 0.008230 0.395423 -0.074581
v -0.068124 0.324800 -0.165100
v 0.056000 0.314900 -0.148201
v -0.064573 0.334699 -0.163050
v 0.000000 0.378000 -0.060100
v 0.056000 0.334699 -0.148201
v -0.056000 0.338800 -0.158100
v 0.056000 0.314900 -0.168000
v 0.056000 0.324800 -0.172100
v 0.056000 0.334699 -0.168000
v -0.064573 0.334699 -0.153150
v -0.068124 0.324800 -0.151100
v 0.064573 0.314900 -0.163050
v 0.068124 0.324800 -0.165100
v 0.064573 0.334699 -0.163050
v -0.064573 0.314900 -0.153150
v 0.064573 0.314900 -0.153150
v 0.068124 0.324800 -0.151100
v 0.064573 0.334699 -0.153150
v -0.056000 0.314900 -0.148201
v 0.056000 0.324800 -0.144100
v -0.056000 0.334699 -0.148201
v -0.056000 0.314900 -0.168000
v -0.056000 0.324800 -0.172100
v -0.056000 0.334699 -0.168000
v -0.047427 0.314900 -0.163050
v -0.043876 0.324800 -0.165100
v -0.047427 0.334699 -0.163050
v -0.047427 0.314900 -0.153150
v -0.043876 0.324800 -0.151100
v -0.047427 0.334699 -0.153150
v -0.056000 0.324800 -0.144100
vn -0.1635 -0.8709 0.4634
vn -0.0000 -1.0000 -0.0000
vn -0.5000 -0.0000 0.8660
vn -0.0000 -0.0000 -1.0000
vn -1.0000 -0.0000 -0.0000
vn -0.5000 -0.0000 -0.8660
vn -0.1635 0.8709 0.4634
vn -0.0000 -0.0000 1.0000
vn 0.5000 -0.0000 -0.8660
vn -0.0000 1.0000 -0.0000
vn 1.0000 -0.0000 -0.0000
vn 0.5000 -0.0000 0.8660
vn -0.2610 -0.6205 0.7395
vn -0.0551 -0.9862 0.1562
vn -0.3239 0.2293 0.9179
vn -0.3239 -0.2293 0.9179
vn -0.2610 0.6205 0.7395
vn -0.0551 0.9862 0.1562
vn -0.4313 0.8407 0.3275
vn -0.4313 -0.8407 0.3275
vn -0.7800 -0.2021 0.5922
vn -0.6546 0.5697 0.4970
vn -0.1500 0.9821 0.1139
vn -0.1500 -0.9821 0.1139
vn -0.6546 -0.5697 0.4970
vn -0.7800 0.2021 0.5922
vn -0.5700 -0.8134 0.1160
vn -0.9634 -0.1827 0.1960
vn -0.8312 0.5296 0.1691
vn -0.2040 0.9781 0.0415
vn -0.2040 -0.9781 0.0415
vn -0.8312 -0.5296 0.1691
vn -0.9634 0.1827 0.1960
vn -0.5700 0.8134 0.1160
vn -0.2040 0.9781 -0.0415
vn -0.2040 -0.9781 -0.0415
vn -0.8312 -0.5296 -0.1691
vn -0.9634 0.1827 -0.1960
vn -0.5700 0.8134 -0.1160
vn -0.5700 -0.8134 -0.1160
vn -0.9634 -0.1827 -0.1960
vn -0.8312 0.5296 -0.1691
vn -0.6546 -0.5697 -0.4970
vn -0.7800 0.2021 -0.5922
vn -0.4313 0.8407 -0.3275
vn -0.4313 -0.8407 -0.3275
vn -0.7800 -0.2021 -0.5922
vn -0.6546 0.5697 -0.4970
vn -0.1500 0.9821 -0.1139
vn -0.1500 -0.9821 -0.1139
vn -0.1635 -0.8709 -0.4634
vn -0.3239 -0.2293 -0.9179
vn -0.2610 0.6205 -0.7395
vn -0.0551 0.9862 -0.1562
vn -0.0551 -0.9862 -0.1562
vn -0.2610 -0.6205 -0.7395
vn -0.3239 0.2293 -0.9179
vn -0.1635 0.8709 -0.4634
vn 0.3239 -0.2293 -0.9179
vn 0.2610 0.6205 -0.7395
vn 0.0551 0.9862 -0.1562
vn 0.0551 -0.9862 -0.1562
vn 0.2610 -0.6205 -0.7395
vn 0.3239 0.2293 -0.9179
vn 0.1635 0.8709 -0.4634
vn 0.1635 -0.8709 -0.4634
vn 0.1500 -0.9821 -0.1139
vn 0.6546 -0.5697 -0.4970
vn 0.7800 0.2021 -0.5922
vn 0.4313 0.8407 -0.3275
vn 0.4313 -0.8407 -0.3275
vn 0.7800 -0.2021 -0.5922
vn 0.6546 0.5697 -0.4970
vn 0.1500 0.9821 -0.1139
vn 0.9634 0.1827 -0.1960
vn 0.5700 0.8134 -0.1160
vn 0.5700 -0.8134 -0.1160
vn 0.9634 -0.1827 -0.1960
vn 0.8312 0.5296 -0.1691
vn 0.2040 0.9781 -0.0415
vn 0.2040 -0.9781 -0.0415
vn 0.8312 -0.5296 -0.1691
vn 0.5700 -0.8134 0.1160
vn 0.9634 -0.1827 0.1960
vn 0.8312 0.5296 0.1691
vn 0.2040 0.9781 0.0415
vn 0.2040 -0.9781 0.0415
vn 0.8312 -0.5296 0.1691
vn 0.9634 0.1827 0.1960
vn 0.5700 0.8134 0.1160
vn 0.6546 0.5697 0.4970
vn 0.1500 0.9821 0.1139
vn 0.1500 -0.9821 0.1139
vn 0.6546 -0.5697 0.4970
vn 0.7800 0.2021 0.5922
vn 0.4313 0.8407 0.3275
vn 0.4313 -0.8407 0.3275
vn 0.7800 -0.2021 0.5922
vn 0.0551 -0.9862 0.1562
vn 0.2610 -0.6205 0.7395
vn 0.3239 0.2293 0.9179
vn 0.1635 0.8709 0.4634
vn 0.1635 -0.8709 0.4634
vn 0.3239 -0.2293 0.9179
vn 0.2610 0.6205 0.7395
vn 0.0551 0.9862 0.1562
vn -0.2718 0.2017 0.9410
vn -0.2718 -0.2017 0.9410
vn -0.0913 -0.9443 0.3163
vn -0.2200 -0.6094 0.7617
vn -0.0913 0.9443 0.3163
vn -0.2200 0.6094 0.7617
vn -0.7563 -0.2144 0.6181
vn -0.5990 0.6337 0.4896
vn -0.5990 -0.6337 0.4896
vn -0.7563 0.2144 0.6181
vn -0.2407 0.9504 0.1967
vn -0.2407 -0.9504 0.1967
vn -0.2987 0.9543 -0.0000
vn -0.7597 -0.6503 -0.0000
vn -0.9747 0.2235 -0.0000
vn -0.7597 0.6503 -0.0000
vn -0.2987 -0.9543 -0.0000
vn -0.9747 -0.2235 -0.0000
vn -0.5990 -0.6337 -0.4896
vn -0.7563 0.2144 -0.6181
vn -0.2407 -0.9504 -0.1967
vn -0.2407 0.9504 -0.1967
vn -0.5990 0.6337 -0.4896
vn -0.7563 -0.2144 -0.6181
vn -0.0913 0.9443 -0.3163
vn -0.2718 0.2017 -0.9410
vn -0.2200 -0.6094 -0.7617
vn -0.2718 -0.2017 -0.9410
vn -0.2200 0.6094 -0.7617
vn -0.0913 -0.9443 -0.3163
vn 0.2200 -0.6094 -0.7617
vn 0.2718 0.2017 -0.9410
vn 0.0913 0.9443 -0.3163
vn 0.0913 -0.9443 -0.3163
vn 0.2718 -0.2017 -0.9410
vn 0.2200 0.6094 -0.7617
vn 0.2407 0.9504 -0.1967
vn 0.2407 -0.9504 -0.1967
vn 0.7563 -0.2144 -0.6181
vn 0.5990 0.6337 -0.4896
vn 0.5990 -0.6337 -0.4896
vn 0.7563 0.2144 -0.6181
vn 0.2987 -0.9543 -0.0000
vn 0.9747 -0.2235 -0.0000
vn 0.7597 0.6503 -0.0000
vn 0.7597 -0.6503 -0.0000
vn 0.9747 0.2235 -0.0000
vn 0.2987 0.9543 -0.0000
vn 0.2407 -0.9504 0.1967
vn 0.7563 -0.2144 0.6181
vn 0.5990 0.6337 0.4896
vn 0.5990 -0.6337 0.4896
vn 0.7563 0.2144 0.6181
vn 0.2407 0.9504 0.1967
vn 0.0913 -0.9443 0.3163
vn 0.2718 -0.2017 0.9410
vn 0.2200 0.6094 0.7617
vn 0.2200 -0.6094 0.7617
vn 0.2718 0.2017 0.9410
vn 0.0913 0.9443 0.3163
vn -0.2135 0.9617 0.1718
vn -0.5675 -0.6851 0.4567
vn -0.5675 0.6851 0.4567
vn -0.2135 -0.9617 0.1718
vn -0.7555 -0.2443 0.6079
vn -0.7555 0.2443 0.6079
vn -0.4713 -0.8795 0.0651
vn -0.8877 0.4438 0.1226
vn -0.9820 -0.1316 0.1356
vn -0.9820 0.1316 0.1356
vn -0.8877 -0.4438 0.1226
vn -0.4713 0.8795 0.0651
vn -0.4713 0.8795 -0.0651
vn -0.8877 -0.4438 -0.1226
vn -0.4713 -0.8795 -0.0651
vn -0.8877 0.4438 -0.1226
vn -0.9820 0.1316 -0.1356
vn -0.9820 -0.1316 -0.1356
vn -0.7555 -0.2443 -0.6079
vn -0.5675 0.6851 -0.4567
vn -0.5675 -0.6851 -0.4567
vn -0.7555 0.2443 -0.6079
vn -0.2135 0.9617 -0.1718
vn -0.2135 -0.9617 -0.1718
vn 0.5675 -0.6851 -0.4567
vn 0.7555 0.2443 -0.6079
vn 0.7555 -0.2443 -0.6079
vn 0.2135 -0.9617 -0.1718
vn 0.5675 0.6851 -0.4567
vn 0.2135 0.9617 -0.1718
vn 0.8877 0.4438 -0.1226
vn 0.9820 -0.1316 -0.1356
vn 0.4713 -0.8795 -0.0651
vn 0.4713 0.8795 -0.0651
vn 0.9820 0.1316 -0.1356
vn 0.8877 -0.4438 -0.1226
vn 0.9820 -0.1316 0.1356
vn 0.4713 -0.8795 0.0651
vn 0.4713 0.8795 0.0651
vn 0.9820 0.1316 0.1356
vn 0.8877 -0.4438 0.1226
vn 0.8877 0.4438 0.1226
vn 0.2135 -0.9617 0.1718
vn 0.2135 0.9617 0.1718
vn 0.7554 0.2443 0.6079
vn 0.5675 -0.6851 0.4567
vn 0.5675 0.6851 0.4567
vn 0.7555 -0.2443 0.6079
vn -0.7554 0.2443 0.6079
vn -0.2194 -0.9625 0.1594
vn -0.2194 0.9625 0.1594
vn -0.6277 -0.4082 0.6628
vn -0.0838 -0.9625 0.2579
vn -0.2239 0.6892 0.6892
vn -0.8850 0.4105 0.2196
vn -0.2970 -0.6874 0.6628
vn -0.4829 -0.5722 0.6628
vn -0.2176 0.9500 -0.2237
vn -0.0838 0.9625 0.2579
vn -0.2239 -0.6892 0.6892
vn 0.7070 0.6709 -0.2237
vn 0.1532 0.5073 0.8480
vn -0.7840 0.2469 0.5696
vn 0.9643 -0.1478 0.2196
vn -0.4830 0.8466 -0.2237
vn -0.9659 0.1372 0.2196
vn 0.2970 -0.6874 0.6628
vn -0.1532 -0.5073 -0.8480
vn 0.4829 0.8466 -0.2237
vn -0.0000 0.5299 0.8480
vn -0.5862 -0.6892 0.4259
vn 0.9659 0.1372 0.2196
vn -0.7070 0.6709 -0.2237
vn -0.9643 -0.1478 0.2196
vn 0.4830 -0.5722 0.6628
vn -0.0000 -0.5299 -0.8480
vn 0.2176 0.9500 -0.2237
vn -0.1532 0.5073 0.8480
vn -0.2994 -0.2469 0.9216
vn 0.8850 0.4105 0.2196
vn -0.5862 0.6892 0.4259
vn -0.2994 0.2469 0.9216
vn 0.6277 -0.4082 0.6628
vn 0.1532 -0.5073 -0.8480
vn -0.7840 -0.2469 0.5696
vn -0.9690 -0.2469 -0.0000
vn -0.2712 -0.9625 -0.0000
vn -0.9690 0.2469 -0.0000
vn -0.7246 -0.6892 -0.0000
vn -0.2712 0.9625 -0.0000
vn -0.7246 0.6892 -0.0000
vn -0.7840 -0.2469 -0.5696
vn -0.2194 -0.9625 -0.1594
vn -0.7840 0.2469 -0.5696
vn -0.5862 -0.6892 -0.4259
vn -0.2194 0.9625 -0.1594
vn -0.5862 0.6892 -0.4259
vn -0.2994 -0.2469 -0.9216
vn -0.0838 -0.9625 -0.2579
vn -0.2994 0.2469 -0.9216
vn -0.2239 -0.6892 -0.6892
vn -0.0838 0.9625 -0.2579
vn -0.2239 0.6892 -0.6892
vn 0.0838 -0.9625 -0.2579
vn 0.2994 0.2469 -0.9216
vn 0.2239 -0.6892 -0.6892
vn 0.0838 0.9625 -0.2579
vn 0.2239 0.6892 -0.6892
vn 0.2994 -0.2469 -0.9216
vn 0.7840 0.2469 -0.5696
vn 0.5862 -0.6892 -0.4259
vn 0.2194 0.9625 -0.1594
vn 0.5862 0.6892 -0.4259
vn 0.7840 -0.2469 -0.5696
vn 0.2194 -0.9625 -0.1594
vn 0.7246 -0.6892 -0.0000
vn 0.2712 0.9625 -0.0000
vn 0.7246 0.6892 -0.0000
vn 0.9690 -0.2469 -0.0000
vn 0.2712 -0.9625 -0.0000
vn 0.9690 0.2469 -0.0000
vn 0.5862 -0.6892 0.4259
vn 0.2194 0.9625 0.1594
vn 0.5862 0.6892 0.4259
vn 0.7840 -0.2469 0.5696
vn 0.2194 -0.9625 0.1594
vn 0.7840 0.2469 0.5696
vn 0.2239 -0.6892 0.6892
vn 0.0838 0.9625 0.2579
vn 0.2239 0.6892 0.6892
vn 0.2994 -0.2469 0.9216
vn 0.0838 -0.9625 0.2579
vn 0.2994 0.2469 0.9216
vn -0.6137 -0.7896 -0.0000
vn -0.3068 -0.7896 -0.5315
vn -0.4742 0.8213 -0.3173
vn -0.6137 0.7896 -0.0000
vn -0.3068 0.7896 -0.5315
vn -0.9483 -0.0000 -0.3173
vn -0.4882 0.2156 0.8457
vn -0.9765 0.2156 -0.0000
vn -0.4742 -0.8213 -0.3173
vn -0.3068 -0.7896 0.5315
vn -0.9765 -0.2156 -0.0000
vn 0.4742 -0.8213 -0.3173
vn -0.3068 0.7896 0.5315
vn 0.9483 -0.0000 -0.3173
vn -0.4882 -0.2156 0.8457
vn -0.4882 -0.2156 -0.8457
vn 0.4742 0.8213 -0.3173
vn -0.4882 0.2156 -0.8457
vn 0.4882 0.2156 -0.8457
vn 0.4882 -0.2156 -0.8457
vn 0.3068 0.7896 -0.5315
vn 0.3068 -0.7896 -0.5315
vn 0.9765 0.2156 -0.0000
vn 0.6137 0.7896 -0.0000
vn 0.9765 -0.2156 -0.0000
vn 0.6137 -0.7896 -0.0000
vn 0.3068 -0.7896 0.5315
vn 0.4882 0.2156 0.8457
vn 0.4882 -0.2156 0.8457
vn 0.3068 0.7896 0.5315
vn -0.6692 0.2619 0.6954
vn -0.3706 -0.8452 0.3851
vn -0.3706 0.8452 0.3851
vn -0.6692 -0.2619 0.6954
vn -0.9814 -0.1920 -0.0000
vn -0.6593 0.7519 -0.0000
vn -0.6593 -0.7519 -0.0000
vn -0.9814 0.1920 -0.0000
vn -0.6692 0.2619 -0.6954
vn -0.3706 -0.8452 -0.3851
vn -0.6692 -0.2619 -0.6954
vn -0.3706 0.8452 -0.3851
vn 0.3706 -0.8452 -0.3851
vn 0.6692 0.2619 -0.6954
vn 0.6692 -0.2619 -0.6954
vn 0.3706 0.8452 -0.3851
vn 0.6593 -0.7519 -0.0000
vn 0.9814 0.1920 -0.0000
vn 0.9814 -0.1920 -0.0000
vn 0.6593 0.7519 -0.0000
vn 0.3706 0.8452 0.3851
vn 0.3706 -0.8452 0.3851
vn 0.6692 0.2619 0.6954
vn 0.6692 -0.2619 0.6954
vn -0.4706 -0.3377 0.8152
vn -0.2157 -0.9021 0.3737
vn -0.4706 0.3377 0.8152
vn -0.2157 0.9021 0.3737
vn -0.9413 -0.3377 -0.0000
vn -0.4315 0.9021 -0.0000
vn -0.4315 -0.9021 -0.0000
vn -0.9413 0.3377 -0.0000
vn -0.4706 -0.3377 -0.8152
vn -0.2157 0.9021 -0.3737
vn -0.4706 0.3377 -0.8152
vn -0.2157 -0.9021 -0.3737
vn 0.2157 0.9021 -0.3737
vn 0.4706 -0.3377 -0.8152
vn 0.4706 0.3377 -0.8152
vn 0.2157 -0.9021 -0.3737
vn 0.9413 -0.3377 -0.0000
vn 0.4315 0.9021 -0.0000
vn 0.4315 -0.9021 -0.0000
vn 0.9413 0.3377 -0.0000
vn 0.4706 -0.3377 0.8152
vn 0.2157 0.9021 0.3737
vn 0.2157 -0.9021 0.3737
vn 0.4706 0.3377 0.8152
s 0
usemtl EF_Beak
f 15//2 19//2 17//2 2//2
f 3//3 4//3 6//3 5//3
f 37//4 38//4 21//4 22//4
f 17//4 18//4 1//4 2//4
f 5//5 6//5 8//5 7//5
f 35//2 39//2 37//2 22//2
f 19//5 20//5 18//5 17//5
f 7//6 8//6 10//6 9//6
f 15//8 16//8 20//8 19//8
f 9//9 10//9 12//9 11//9
f 6//10 4//10 14//10 12//10 10//10 8//10
f 2//11 1//11 16//11 15//11
f 11//11 12//11 14//11 13//11
f 23//3 24//3 26//3 25//3
f 20//10 16//10 1//10 18//10
f 13//12 14//12 4//12 3//12
f 3//2 5//2 7//2 9//2 11//2 13//2
f 25//5 26//5 28//5 27//5
f 39//5 40//5 38//5 37//5
f 27//6 28//6 30//6 29//6
f 35//8 36//8 40//8 39//8
f 29//9 30//9 32//9 31//9
f 28//10 26//10 24//10 34//10 32//10 30//10
f 22//11 21//11 36//11 35//11
f 31//11 32//11 34//11 33//11
f 40//10 36//10 21//10 38//10
f 33//12 34//12 24//12 23//12
f 25//2 27//2 29//2 31//2 33//2 23//2
f 372//302 340//302 369//302
f 369//305 340//305 362//305
f 362//308 340//308 355//308
f 355//311 340//311 348//311
f 372//8 369//8 362//8 355//8 348//8 341//8
f 348//313 340//313 341//313
f 341//316 340//316 372//316
usemtl EF_White
f 156//1 155//1 56//1 57//1
f 43//7 150//7 51//7 52//7
f 155//13 154//13 55//13 56//13
f 49//14 156//14 57//14
f 45//15 152//15 53//15 54//15
f 154//16 45//16 54//16 55//16
f 152//17 43//17 52//17 53//17
f 150//18 41//18 51//18
f 52//19 51//19 60//19 61//19
f 57//20 56//20 65//20 66//20
f 55//21 54//21 63//21 64//21
f 53//22 52//22 61//22 62//22
f 51//23 41//23 60//23
f 49//24 57//24 66//24
f 56//25 55//25 64//25 65//25
f 54//26 53//26 62//26 63//26
f 66//27 65//27 74//27 75//27
f 64//28 63//28 72//28 73//28
f 62//29 61//29 70//29 71//29
f 60//30 41//30 69//30
f 49//31 66//31 75//31
f 65//32 64//32 73//32 74//32
f 63//33 62//33 71//33 72//33
f 61//34 60//34 69//34 70//34
f 69//35 41//35 78//35
f 49//36 75//36 84//36
f 74//37 73//37 82//37 83//37
f 72//38 71//38 80//38 81//38
f 70//39 69//39 78//39 79//39
f 75//40 74//40 83//40 84//40
f 73//41 72//41 81//41 82//41
f 71//42 70//42 79//42 80//42
f 83//43 82//43 91//43 92//43
f 81//44 80//44 89//44 90//44
f 79//45 78//45 87//45 88//45
f 84//46 83//46 92//46 93//46
f 82//47 81//47 90//47 91//47
f 80//48 79//48 88//48 89//48
f 78//49 41//49 87//49
f 49//50 84//50 93//50
f 93//51 92//51 101//51 102//51
f 91//52 90//52 99//52 100//52
f 89//53 88//53 97//53 98//53
f 87//54 41//54 96//54
f 49//55 93//55 102//55
f 92//56 91//56 100//56 101//56
f 90//57 89//57 98//57 99//57
f 88//58 87//58 96//58 97//58
f 100//59 99//59 108//59 109//59
f 98//60 97//60 106//60 107//60
f 96//61 41//61 105//61
f 49//62 102//62 111//62
f 101//63 100//63 109//63 110//63
f 99//64 98//64 107//64 108//64
f 97//65 96//65 105//65 106//65
f 102//66 101//66 110//66 111//66
f 49//67 111//67 120//67
f 110//68 109//68 118//68 119//68
f 108//69 107//69 116//69 117//69
f 106//70 105//70 114//70 115//70
f 111//71 110//71 119//71 120//71
f 109//72 108//72 117//72 118//72
f 107//73 106//73 115//73 116//73
f 105//74 41//74 114//74
f 117//75 116//75 125//75 126//75
f 115//76 114//76 123//76 124//76
f 120//77 119//77 128//77 129//77
f 118//78 117//78 126//78 127//78
f 116//79 115//79 124//79 125//79
f 114//80 41//80 123//80
f 49//81 120//81 129//81
f 119//82 118//82 127//82 128//82
f 129//83 128//83 137//83 138//83
f 127//84 126//84 135//84 136//84
f 125//85 124//85 133//85 134//85
f 123//86 41//86 132//86
f 49//87 129//87 138//87
f 128//88 127//88 136//88 137//88
f 126//89 125//89 134//89 135//89
f 124//90 123//90 132//90 133//90
f 134//91 133//91 142//91 143//91
f 132//92 41//92 141//92
f 49//93 138//93 147//93
f 137//94 136//94 145//94 146//94
f 135//95 134//95 143//95 144//95
f 133//96 132//96 141//96 142//96
f 138//97 137//97 146//97 147//97
f 136//98 135//98 144//98 145//98
f 49//99 147//99 156//99
f 146//100 145//100 154//100 155//100
f 144//101 143//101 152//101 45//101
f 142//102 141//102 150//102 43//102
f 147//103 146//103 155//103 156//103
f 145//104 144//104 45//104 154//104
f 143//105 142//105 43//105 152//105
f 141//106 41//106 150//106
f 200//107 197//107 113//107 121//107
f 201//108 200//108 121//108 122//108
f 68//109 202//109 130//109
f 202//110 201//110 122//110 130//110
f 198//111 46//111 112//111
f 197//112 198//112 112//112 113//112
f 122//113 121//113 86//113 85//113
f 113//114 112//114 95//114 94//114
f 130//115 122//115 85//115 77//115
f 121//116 113//116 94//116 86//116
f 112//117 46//117 95//117
f 68//118 130//118 77//118
f 95//119 46//119 48//119
f 77//120 85//120 59//120 67//120
f 86//121 94//121 50//121 58//121
f 94//122 95//122 48//122 50//122
f 68//123 77//123 67//123
f 85//124 86//124 58//124 59//124
f 67//125 59//125 159//125 160//125
f 58//126 50//126 42//126 158//126
f 68//127 67//127 160//127
f 48//128 46//128 44//128
f 50//129 48//129 44//129 42//129
f 59//130 58//130 158//130 159//130
f 44//131 46//131 163//131
f 158//132 42//132 162//132 165//132
f 160//133 159//133 166//133 167//133
f 159//134 158//134 165//134 166//134
f 42//135 44//135 163//135 162//135
f 68//136 160//136 167//136
f 167//137 166//137 173//137 174//137
f 165//138 162//138 169//138 172//138
f 163//139 46//139 170//139
f 68//140 167//140 174//140
f 166//141 165//141 172//141 173//141
f 162//142 163//142 170//142 169//142
f 170//143 46//143 177//143
f 68//144 174//144 181//144
f 173//145 172//145 179//145 180//145
f 169//146 170//146 177//146 176//146
f 174//147 173//147 180//147 181//147
f 172//148 169//148 176//148 179//148
f 68//149 181//149 188//149
f 180//150 179//150 186//150 187//150
f 176//151 177//151 184//151 183//151
f 181//152 180//152 187//152 188//152
f 179//153 176//153 183//153 186//153
f 177//154 46//154 184//154
f 68//155 188//155 195//155
f 187//156 186//156 193//156 194//156
f 183//157 184//157 191//157 190//157
f 188//158 187//158 194//158 195//158
f 186//159 183//159 190//159 193//159
f 184//160 46//160 191//160
f 68//161 195//161 202//161
f 194//162 193//162 200//162 201//162
f 190//163 191//163 198//163 197//163
f 195//164 194//164 201//164 202//164
f 193//165 190//165 197//165 200//165
f 191//166 46//166 198//166
f 199//167 153//167 161//167
f 185//168 189//168 171//168 175//168
f 196//169 199//169 161//169 164//169
f 104//170 185//170 175//170
f 189//171 192//171 168//171 171//171
f 192//172 196//172 164//172 168//172
f 104//173 175//173 139//173
f 164//174 161//174 151//174 149//174
f 171//175 168//175 148//175 140//175
f 168//176 164//176 149//176 148//176
f 175//177 171//177 140//177 139//177
f 161//178 153//178 151//178
f 151//179 153//179 205//179
f 139//180 140//180 76//180 103//180
f 104//181 139//181 103//181
f 149//182 151//182 205//182 204//182
f 148//183 149//183 204//183 47//183
f 140//184 148//184 47//184 76//184
f 76//185 47//185 207//185 208//185
f 204//186 205//186 212//186 211//186
f 103//187 76//187 208//187 209//187
f 47//188 204//188 211//188 207//188
f 205//189 153//189 212//189
f 104//190 103//190 209//190
f 209//191 208//191 215//191 216//191
f 207//192 211//192 218//192 214//192
f 208//193 207//193 214//193 215//193
f 104//194 209//194 216//194
f 211//195 212//195 219//195 218//195
f 212//196 153//196 219//196
f 218//197 219//197 226//197 225//197
f 215//198 214//198 221//198 222//198
f 104//199 216//199 223//199
f 219//200 153//200 226//200
f 214//201 218//201 225//201 221//201
f 216//202 215//202 222//202 223//202
f 222//203 221//203 228//203 229//203
f 104//204 223//204 230//204
f 226//205 153//205 233//205
f 221//206 225//206 232//206 228//206
f 223//207 222//207 229//207 230//207
f 225//208 226//208 233//208 232//208
f 104//209 230//209 185//209
f 233//210 153//210 199//210
f 228//211 232//211 196//211 192//211
f 230//212 229//212 189//212 185//212
f 232//213 233//213 199//213 196//213
f 229//214 228//214 192//214 189//214
f 131//170 236//170 231//170
f 240//167 210//167 217//167
f 238//215 239//215 220//215 224//215
f 236//168 237//168 227//168 231//168
f 239//169 240//169 217//169 220//169
f 237//171 238//171 224//171 227//171
f 231//177 227//177 178//177 157//177
f 224//176 220//176 203//176 182//176
f 217//178 210//178 206//178
f 131//173 231//173 157//173
f 227//175 224//175 182//175 178//175
f 220//174 217//174 206//174 203//174
f 206//179 210//179 247//179
f 203//182 206//182 247//182 246//182
f 157//180 178//180 244//180 243//180
f 131//181 157//181 243//181
f 182//183 203//183 246//183 245//183
f 178//184 182//184 245//184 244//184
f 243//187 244//187 251//187 250//187
f 131//190 243//190 250//190
f 244//185 245//185 252//185 251//185
f 246//186 247//186 254//186 253//186
f 245//188 246//188 253//188 252//188
f 247//189 210//189 254//189
f 250//191 251//191 258//191 257//191
f 252//192 253//192 260//192 259//192
f 254//196 210//196 261//196
f 131//194 250//194 257//194
f 251//193 252//193 259//193 258//193
f 253//195 254//195 261//195 260//195
f 259//201 260//201 267//201 266//201
f 261//200 210//200 268//200
f 131//199 257//199 264//199
f 258//198 259//198 266//198 265//198
f 260//197 261//197 268//197 267//197
f 257//202 258//202 265//202 264//202
f 268//205 210//205 275//205
f 131//204 264//204 271//204
f 265//203 266//203 273//203 272//203
f 267//208 268//208 275//208 274//208
f 264//207 265//207 272//207 271//207
f 266//206 267//206 274//206 273//206
f 131//209 271//209 236//209
f 272//214 273//214 238//214 237//214
f 274//213 275//213 240//213 239//213
f 271//212 272//212 237//212 236//212
f 273//211 274//211 239//211 238//211
f 275//210 210//210 240//210
f 305//216 311//216 318//216
f 307//217 282//217 314//217
f 305//219 304//219 311//219
f 371//220 283//220 307//220 308//220
f 283//225 282//225 307//225
f 304//226 373//226 310//226 311//226
f 309//229 308//229 315//229 316//229
f 311//237 310//237 317//237 318//237
f 373//245 302//245 309//245 310//245
f 308//247 307//247 314//247 315//247
f 302//248 371//248 308//248 309//248
f 310//251 309//251 316//251 317//251
f 317//252 316//252 323//252 324//252
f 305//253 318//253 325//253
f 316//254 315//254 322//254 323//254
f 318//255 317//255 324//255 325//255
f 314//256 282//256 321//256
f 315//257 314//257 321//257 322//257
f 324//258 323//258 330//258 331//258
f 305//259 325//259 332//259
f 323//260 322//260 329//260 330//260
f 325//261 324//261 331//261 332//261
f 321//262 282//262 328//262
f 322//263 321//263 328//263 329//263
f 331//264 330//264 337//264 338//264
f 305//265 332//265 339//265
f 330//266 329//266 336//266 337//266
f 332//267 331//267 338//267 339//267
f 328//268 282//268 335//268
f 329//269 328//269 335//269 336//269
f 305//270 339//270 346//270
f 337//271 336//271 343//271 344//271
f 339//272 338//272 345//272 346//272
f 335//273 282//273 342//273
f 336//274 335//274 342//274 343//274
f 338//275 337//275 344//275 345//275
f 344//276 343//276 350//276 351//276
f 346//277 345//277 352//277 353//277
f 342//278 282//278 349//278
f 343//279 342//279 349//279 350//279
f 345//280 344//280 351//280 352//280
f 305//281 346//281 353//281
f 353//282 352//282 359//282 360//282
f 349//283 282//283 356//283
f 350//284 349//284 356//284 357//284
f 352//285 351//285 358//285 359//285
f 305//286 353//286 360//286
f 351//287 350//287 357//287 358//287
f 360//288 359//288 366//288 367//288
f 356//289 282//289 363//289
f 357//290 356//290 363//290 364//290
f 359//291 358//291 365//291 366//291
f 305//292 360//292 367//292
f 358//293 357//293 364//293 365//293
f 367//294 366//294 373//294 304//294
f 363//295 282//295 283//295
f 364//296 363//296 283//296 371//296
f 366//297 365//297 302//297 373//297
f 305//298 367//298 304//298
f 365//299 364//299 371//299 302//299
usemtl EF_Cream
f 281//218 280//218 278//218 279//218
f 279//221 278//221 276//221 277//221
f 289//222 290//222 292//222 291//222
f 249//223 248//223 241//223 242//223
f 277//224 276//224 269//224 270//224
f 270//227 269//227 262//227 263//227
f 278//228 280//228 255//228 262//228 269//228 276//228
f 263//230 262//230 255//230 256//230
f 235//231 234//231 284//231 213//231
f 242//232 241//232 234//232 235//232
f 256//233 255//233 280//233 281//233
f 281//234 279//234 277//234 270//234 263//234 256//234
f 213//235 284//235 286//235 285//235
f 234//236 241//236 248//236 288//236 286//236 284//236
f 285//238 286//238 288//238 287//238
f 293//239 294//239 296//239 295//239
f 291//240 292//240 294//240 293//240
f 287//241 288//241 248//241 249//241
f 213//242 285//242 287//242 249//242 242//242 235//242
f 295//243 296//243 298//243 297//243
f 292//244 290//244 300//244 298//244 296//244 294//244
f 297//246 298//246 300//246 299//246
f 299//249 300//249 290//249 289//249
f 293//250 295//250 297//250 299//250 289//250 291//250
usemtl EF_Comb
f 320//300 334//300 319//300
f 320//301 319//301 301//301
f 370//303 326//303 313//303
f 313//304 326//304 303//304
f 354//306 347//306 370//306 374//306
f 374//307 370//307 313//307 312//307
f 320//309 361//309 334//309
f 334//310 374//310 312//310 319//310
f 347//312 326//312 370//312
f 361//314 354//314 374//314 334//314
f 319//315 312//315 306//315 301//315
f 312//317 313//317 303//317 306//317
f 306//318 303//318 379//318 380//318
f 301//319 306//319 380//319 378//319
f 303//320 326//320 379//320
f 320//321 301//321 378//321
f 380//322 379//322 384//322 385//322
f 379//323 326//323 384//323
f 378//324 380//324 385//324 383//324
f 320//325 378//325 383//325
f 320//326 383//326 361//326
f 385//327 384//327 347//327 354//327
f 383//328 385//328 354//328 361//328
f 384//329 326//329 347//329
f 410//330 391//330 381//330 382//330
f 327//331 389//331 386//331
f 391//332 376//332 381//332
f 389//333 410//333 382//333 386//333
f 386//334 382//334 368//334 333//334
f 381//335 376//335 375//335
f 327//336 386//336 333//336
f 382//337 381//337 375//337 368//337
f 368//338 375//338 396//338 395//338
f 327//339 333//339 394//339
f 333//340 368//340 395//340 394//340
f 375//341 376//341 396//341
f 327//342 394//342 399//342
f 395//343 396//343 401//343 400//343
f 394//344 395//344 400//344 399//344
f 396//345 376//345 401//345
f 327//346 399//346 404//346
f 400//347 401//347 406//347 405//347
f 399//348 400//348 405//348 404//348
f 401//349 376//349 406//349
f 406//350 376//350 391//350
f 327//351 404//351 389//351
f 405//352 406//352 391//352 410//352
f 404//353 405//353 410//353 389//353
f 411//332 392//332 397//332
f 408//333 430//333 398//333 402//333
f 430//330 411//330 397//330 398//330
f 377//331 408//331 402//331
f 402//334 398//334 388//334 387//334
f 397//335 392//335 390//335
f 377//336 402//336 387//336
f 398//337 397//337 390//337 388//337
f 388//338 390//338 416//338 415//338
f 377//339 387//339 414//339
f 390//341 392//341 416//341
f 387//340 388//340 415//340 414//340
f 414//344 415//344 420//344 419//344
f 416//345 392//345 421//345
f 377//342 414//342 419//342
f 415//343 416//343 421//343 420//343
f 421//349 392//349 426//349
f 377//346 419//346 424//346
f 420//347 421//347 426//347 425//347
f 419//348 420//348 425//348 424//348
f 424//353 425//353 430//353 408//353
f 426//350 392//350 411//350
f 377//351 424//351 408//351
f 425//352 426//352 411//352 430//352
f 393//331 428//331 422//331
f 450//330 431//330 417//330 418//330
f 431//332 412//332 417//332
f 428//333 450//333 418//333 422//333
f 422//334 418//334 407//334 403//334
f 417//335 412//335 409//335
f 393//336 422//336 403//336
f 418//337 417//337 409//337 407//337
f 403//340 407//340 435//340 434//340
f 409//341 412//341 436//341
f 393//339 403//339 434//339
f 407//338 409//338 436//338 435//338
f 434//344 435//344 440//344 439//344
f 436//345 412//345 441//345
f 435//343 436//343 441//343 440//343
f 393//342 434//342 439//342
f 439//348 440//348 445//348 444//348
f 441//349 412//349 446//349
f 393//346 439//346 444//346
f 440//347 441//347 446//347 445//347
f 444//353 445//353 450//353 428//353
f 446//350 412//350 431//350
f 393//351 444//351 428//351
f 445//352 446//352 431//352 450//352
usemtl EF_Black
f 448//354 466//354 438//354 442//354
f 413//355 448//355 442//355
f 466//356 451//356 437//356 438//356
f 451//357 432//357 437//357
f 442//358 438//358 427//358 423//358
f 437//359 432//359 429//359
f 413//360 442//360 423//360
f 438//361 437//361 429//361 427//361
f 423//362 427//362 454//362 453//362
f 429//363 432//363 455//363
f 427//364 429//364 455//364 454//364
f 413//365 423//365 453//365
f 455//366 432//366 460//366
f 453//367 454//367 459//367 458//367
f 454//368 455//368 460//368 459//368
f 413//369 453//369 458//369
f 458//370 459//370 463//370 462//370
f 460//371 432//371 464//371
f 413//372 458//372 462//372
f 459//373 460//373 464//373 463//373
f 462//374 463//374 466//374 448//374
f 464//375 432//375 451//375
f 413//376 462//376 448//376
f 463//377 464//377 451//377 466//377
f 467//357 452//357 456//357
f 465//354 477//354 457//354 461//354
f 433//355 465//355 461//355
f 477//356 467//356 456//356 457//356
f 461//358 457//358 447//358 443//358
f 456//359 452//359 449//359
f 433//360 461//360 443//360
f 457//361 456//361 449//361 447//361
f 443//362 447//362 469//362 468//362
f 449//363 452//363 470//363
f 447//364 449//364 470//364 469//364
f 433//365 443//365 468//365
f 433//369 468//369 471//369
f 470//366 452//366 473//366
f 468//367 469//367 472//367 471//367
f 469//368 470//368 473//368 472//368
f 471//370 472//370 475//370 474//370
f 473//371 452//371 476//371
f 433//372 471//372 474//372
f 472//373 473//373 476//373 475//373
f 474//374 475//374 477//374 465//374
f 476//375 452//375 467//375
f 433//376 474//376 465//376
f 475//377 476//377 467//377 477//377
