# Blender 5.0.1
# www.blender.org
mtllib ChickenBrown.mtl
o ChickenBrown
v -0.072800 0.016800 0.040500
v -0.072800 0.000000 0.040500
v -0.044800 0.000000 -0.032300
v -0.044800 0.084000 -0.032300
v -0.030251 0.000000 -0.023900
v -0.030251 0.084000 -0.023900
v -0.030251 0.000000 -0.007100
v -0.030251 0.084000 -0.007100
v -0.044800 0.000000 0.001300
v -0.044800 0.084000 0.001300
v -0.059349 0.000000 -0.007100
v -0.059349 0.084000 -0.007100
v -0.059349 0.000000 -0.023900
v -0.059349 0.084000 -0.023900
v -0.072800 0.000000 -0.026700
v -0.072800 0.016800 -0.026700
v -0.016800 0.000000 0.040500
v -0.016800 0.016800 0.040500
v -0.016800 0.000000 -0.026700
v -0.016800 0.016800 -0.026700
v 0.016800 0.016800 0.040500
v 0.016800 0.000000 0.040500
v 0.044800 0.000000 -0.032300
v 0.044800 0.084000 -0.032300
v 0.059349 0.000000 -0.023900
v 0.059349 0.084000 -0.023900
v 0.059349 0.000000 -0.007100
v 0.059349 0.084000 -0.007100
v 0.044800 0.000000 0.001300
v 0.044800 0.084000 0.001300
v 0.030251 0.000000 -0.007100
v 0.030251 0.084000 -0.007100
v 0.030251 0.000000 -0.023900
v 0.030251 0.084000 -0.023900
v 0.016800 0.000000 -0.026700
v 0.016800 0.016800 -0.026700
v 0.072800 0.000000 0.040500
v 0.072800 0.016800 0.040500
v 0.072800 0.000000 -0.026700
v 0.072800 0.016800 -0.026700
v 0.000000 0.305200 -0.023900
v 0.046180 0.257600 0.136199
v 0.000000 0.269936 -0.130814
v 0.026662 0.294495 0.112320
v 0.000000 0.184800 -0.175100
v 0.000000 0.308000 0.079700
v -0.095425 0.201600 0.028625
v 0.043140 0.294495 0.092160
v 0.000000 0.064400 -0.023900
v 0.074721 0.257600 0.101281
v 0.021966 0.296035 -0.074010
v 0.040588 0.269936 -0.116491
v 0.053031 0.230875 -0.144875
v 0.057400 0.184800 -0.154843
v 0.053031 0.138725 -0.144875
v 0.040588 0.099664 -0.116491
v 0.021966 0.073565 -0.074010
v 0.086280 0.207200 0.104619
v 0.074721 0.156800 0.101281
v 0.038046 0.296035 -0.052831
v 0.070300 0.269936 -0.077357
v 0.091852 0.230875 -0.093745
v 0.099420 0.184800 -0.099500
v 0.091852 0.138725 -0.093745
v 0.070300 0.099664 -0.077357
v 0.038046 0.073565 -0.052831
v 0.043140 0.119905 0.092160
v 0.000000 0.106400 0.079700
v 0.043932 0.296035 -0.023900
v 0.081176 0.269936 -0.023900
v 0.106061 0.230875 -0.023900
v 0.114800 0.184800 -0.023900
v 0.106061 0.138725 -0.023900
v 0.081176 0.099664 -0.023900
v 0.043932 0.073565 -0.023900
v -0.098396 0.170240 0.019712
v 0.043140 0.119905 0.067241
v 0.038046 0.296035 0.005031
v 0.070300 0.269936 0.029557
v 0.091852 0.230875 0.045945
v 0.099420 0.184800 0.051700
v 0.091852 0.138725 0.045945
v 0.070300 0.099664 0.029557
v 0.038046 0.073565 0.005031
v 0.074721 0.156800 0.058120
v 0.086280 0.207200 0.054781
v 0.021966 0.296035 0.026210
v 0.040588 0.269936 0.068691
v 0.053031 0.230875 0.097076
v 0.057400 0.184800 0.107043
v 0.053031 0.138725 0.097076
v 0.040588 0.099664 0.068691
v 0.021966 0.073565 0.026210
v 0.074721 0.257600 0.058120
v 0.043140 0.294495 0.067241
v 0.000000 0.296035 0.033962
v -0.000000 0.269936 0.083015
v 0.000000 0.230875 0.115791
v 0.000000 0.184800 0.127300
v 0.000000 0.138725 0.115791
v -0.000000 0.099664 0.083015
v 0.000000 0.073565 0.033962
v -0.106513 0.147283 -0.004638
v -0.117600 0.138880 -0.037900
v -0.021966 0.296035 0.026210
v -0.040588 0.269936 0.068691
v -0.053031 0.230875 0.097076
v -0.057400 0.184800 0.107043
v -0.053031 0.138725 0.097076
v -0.040588 0.099664 0.068691
v -0.021966 0.073565 0.026210
v 0.026662 0.294495 0.047081
v 0.046180 0.257600 0.023201
v -0.038046 0.296035 0.005031
v -0.070300 0.269936 0.029557
v -0.091852 0.230875 0.045945
v -0.099420 0.184800 0.051700
v -0.091852 0.138725 0.045945
v -0.070300 0.099664 0.029557
v -0.038046 0.073565 0.005031
v 0.053324 0.207200 0.014461
v 0.046180 0.156800 0.023201
v -0.043932 0.296035 -0.023900
v -0.081176 0.269936 -0.023900
v -0.106061 0.230875 -0.023900
v -0.114800 0.184800 -0.023900
v -0.106061 0.138725 -0.023900
v -0.081176 0.099664 -0.023900
v -0.043932 0.073565 -0.023900
v 0.026662 0.119905 0.047081
v 0.117600 0.138880 -0.037900
v -0.038046 0.296035 -0.052831
v -0.070300 0.269936 -0.077357
v -0.091852 0.230875 -0.093745
v -0.099420 0.184800 -0.099500
v -0.091852 0.138725 -0.093745
v -0.070300 0.099664 -0.077357
v -0.038046 0.073565 -0.052831
v -0.101920 0.147283 -0.037900
v -0.090441 0.170240 -0.037900
v -0.021966 0.296035 -0.074010
v -0.040588 0.269936 -0.116491
v -0.053031 0.230875 -0.144875
v -0.057400 0.184800 -0.154843
v -0.053031 0.138725 -0.144875
v -0.040588 0.099664 -0.116491
v -0.021966 0.073565 -0.074010
v -0.086240 0.201600 -0.037900
v -0.090441 0.232960 -0.037900
v -0.000000 0.296035 -0.081762
v -0.101920 0.255917 -0.037900
v -0.000000 0.230875 -0.163590
v -0.117600 0.264320 -0.037900
v -0.000000 0.138725 -0.163590
v 0.000000 0.099664 -0.130814
v -0.000000 0.073565 -0.081762
v 0.133280 0.147283 -0.037900
v 0.053324 0.207200 0.144939
v 0.046180 0.156800 0.136199
v 0.026662 0.119905 0.112320
v -0.106513 0.255917 -0.071162
v 0.000000 0.257600 0.149536
v 0.000000 0.294495 0.120020
v -0.098396 0.232960 -0.095512
v 0.000000 0.207200 0.160340
v 0.000000 0.156800 0.149536
v 0.000000 0.119905 0.120020
v -0.095425 0.201600 -0.104424
v -0.046180 0.257600 0.136199
v -0.026662 0.294495 0.112320
v -0.098396 0.170240 -0.095512
v -0.053324 0.207200 0.144939
v -0.046180 0.156800 0.136199
v -0.026662 0.119905 0.112320
v -0.106513 0.147283 -0.071162
v -0.074721 0.257600 0.101281
v -0.043140 0.294495 0.092160
v 0.144759 0.170240 -0.037900
v -0.086280 0.207200 0.104619
v -0.074721 0.156800 0.101281
v -0.043140 0.119905 0.092160
v 0.148960 0.201600 -0.037900
v -0.074721 0.257600 0.058120
v -0.043140 0.294495 0.067241
v -0.117600 0.147283 -0.084940
v -0.086280 0.207200 0.054781
v -0.074721 0.156800 0.058120
v -0.043140 0.119905 0.067241
v -0.117600 0.170240 -0.119375
v -0.046180 0.257600 0.023201
v -0.026662 0.294495 0.047081
v -0.117600 0.201600 -0.131980
v -0.053324 0.207200 0.014461
v -0.046180 0.156800 0.023201
v -0.026662 0.119905 0.047081
v -0.117600 0.232960 -0.119375
v -0.000000 0.257600 0.009864
v -0.000000 0.294495 0.039380
v -0.117600 0.255917 -0.084940
v -0.000000 0.207200 -0.000940
v -0.000000 0.156800 0.009864
v -0.000000 0.119905 0.039380
v 0.144759 0.232960 -0.037900
v -0.098396 0.232960 0.019712
v -0.106513 0.255917 -0.004638
v 0.133280 0.255917 -0.037900
v -0.117600 0.201600 0.056180
v -0.117600 0.170240 0.043576
v -0.117600 0.147283 0.009140
v 0.117600 0.264320 -0.037900
v -0.117600 0.232960 0.043576
v -0.117600 0.255917 0.009140
v 0.000000 0.275208 -0.102810
v -0.139775 0.201600 0.028625
v -0.136804 0.170240 0.019712
v -0.128687 0.147283 -0.004638
v 0.128687 0.255917 -0.071162
v -0.136804 0.232960 0.019712
v -0.128687 0.255917 -0.004638
v 0.136804 0.232960 -0.095512
v -0.148960 0.201600 -0.037900
v -0.144759 0.170240 -0.037900
v -0.133280 0.147283 -0.037900
v 0.139775 0.201600 -0.104424
v -0.144759 0.232960 -0.037900
v -0.133280 0.255917 -0.037900
v 0.136804 0.170240 -0.095512
v -0.139775 0.201600 -0.104424
v -0.136804 0.170240 -0.095512
v -0.128687 0.147283 -0.071162
v 0.128687 0.147283 -0.071162
v -0.136804 0.232960 -0.095512
v -0.128687 0.255917 -0.071162
v 0.009699 0.301908 -0.224798
v 0.041223 0.255024 -0.115423
v 0.117600 0.147283 -0.084940
v 0.117600 0.170240 -0.119375
v 0.117600 0.201600 -0.131980
v 0.117600 0.232960 -0.119375
v 0.117600 0.255917 -0.084940
v 0.009699 0.292410 -0.230733
v 0.041223 0.214657 -0.140647
v 0.128687 0.147283 -0.004638
v 0.136804 0.170240 0.019712
v 0.139775 0.201600 0.028625
v 0.136804 0.232960 0.019712
v 0.128687 0.255917 -0.004638
v 0.000000 0.287661 -0.233700
v 0.000000 0.194474 -0.153259
v 0.117600 0.147283 0.009140
v 0.117600 0.170240 0.043576
v 0.117600 0.201600 0.056180
v 0.117600 0.232960 0.043576
v 0.117600 0.255917 0.009140
v -0.050519 0.274480 -0.230733
v -0.058224 0.190934 -0.140647
v 0.106513 0.147283 -0.004638
v 0.098396 0.170240 0.019712
v 0.095425 0.201600 0.028625
v 0.098396 0.232960 0.019712
v 0.106513 0.255917 -0.004638
v -0.053264 0.283572 -0.224798
v -0.069891 0.229578 -0.115423
v 0.101920 0.147283 -0.037900
v 0.090441 0.170240 -0.037900
v 0.086240 0.201600 -0.037900
v 0.090441 0.232960 -0.037900
v 0.101920 0.255917 -0.037900
v -0.045351 0.290922 -0.221830
v -0.036261 0.260815 -0.102810
v 0.106513 0.147283 -0.071162
v 0.098396 0.170240 -0.095512
v 0.095425 0.201600 -0.104424
v 0.098396 0.232960 -0.095512
v 0.106513 0.255917 -0.071162
v -0.034693 0.289179 -0.224798
v 0.009036 0.253407 -0.115423
v -0.031948 0.280086 -0.230733
v 0.020703 0.214763 -0.140647
v -0.039861 0.272737 -0.233700
v -0.012927 0.183526 -0.153259
v 0.000000 0.380800 0.118900
v 0.000000 0.371047 0.082500
v 0.000000 0.306657 -0.221830
v -0.041223 0.255024 -0.115423
v -0.009699 0.301908 -0.224798
v -0.041223 0.214657 -0.140647
v -0.009699 0.292410 -0.230733
v 0.012927 0.183526 -0.153259
v 0.039861 0.272737 -0.233700
v 0.058224 0.190934 -0.140647
v 0.050519 0.274480 -0.230733
v 0.069891 0.229578 -0.115423
v 0.053264 0.283572 -0.224798
v 0.036261 0.260815 -0.102810
v 0.045351 0.290922 -0.221830
v -0.009036 0.253407 -0.115423
v 0.034693 0.289179 -0.224798
v -0.020703 0.214763 -0.140647
v 0.031948 0.280086 -0.230733
v -0.000000 0.245183 0.191588
v 0.000000 0.308000 0.046100
v -0.000000 0.281217 0.191588
v 0.000000 0.244953 0.082500
v 0.000000 0.235200 0.118900
v -0.000000 0.263200 0.196180
v 0.021395 0.371047 0.089452
v 0.037058 0.344400 0.067894
v 0.042791 0.308000 0.060004
v 0.037058 0.271600 0.067894
v 0.021395 0.244953 0.089452
v 0.013579 0.263200 0.188340
v 0.009602 0.281217 0.186044
v 0.034618 0.371047 0.107652
v 0.059961 0.344400 0.099418
v 0.069237 0.308000 0.096404
v 0.059961 0.271600 0.099418
v 0.034618 0.244953 0.107652
v 0.009602 0.245183 0.186044
v 0.000000 0.237720 0.180500
v 0.034618 0.371047 0.130148
v 0.059961 0.344400 0.138383
v 0.069237 0.308000 0.141397
v 0.059961 0.271600 0.138383
v 0.034618 0.244953 0.130148
v 0.000000 0.288680 0.180500
v 0.000000 0.353360 0.152500
v 0.021395 0.371047 0.148348
v 0.037058 0.344400 0.169906
v 0.042791 0.308000 0.177797
v 0.037058 0.271600 0.169906
v 0.021395 0.244953 0.148348
v 0.008230 0.360577 0.160420
v 0.009602 0.245183 0.174956
v 0.000000 0.371047 0.155300
v 0.000000 0.344400 0.181947
v 0.000000 0.308000 0.191700
v 0.000000 0.271600 0.181947
v 0.000000 0.244953 0.155300
v 0.000000 0.299600 0.233700
v -0.020611 0.311500 0.172100
v -0.021395 0.371047 0.148348
v -0.037058 0.344400 0.169906
v -0.042791 0.308000 0.177797
v -0.037058 0.271600 0.169906
v -0.021395 0.244953 0.148348
v 0.000000 0.281217 0.169413
v -0.020611 0.287700 0.172100
v -0.034618 0.371047 0.130148
v -0.059961 0.344400 0.138383
v -0.069237 0.308000 0.141397
v -0.059961 0.271600 0.138383
v -0.034618 0.244953 0.130148
v 0.000000 0.263200 0.164820
v 0.000000 0.275800 0.172100
v -0.034618 0.371047 0.107652
v -0.059961 0.344400 0.099418
v -0.069237 0.308000 0.096404
v -0.059961 0.271600 0.099418
v -0.034618 0.244953 0.107652
v 0.000000 0.245183 0.169413
v 0.020611 0.287700 0.172100
v -0.021395 0.371047 0.089452
v -0.037058 0.344400 0.067894
v -0.042791 0.308000 0.060004
v -0.037058 0.271600 0.067894
v -0.021395 0.244953 0.089452
v 0.011639 0.378000 0.163700
v 0.020611 0.311500 0.172100
v 0.009602 0.281217 0.174956
v -0.000000 0.344400 0.055854
v 0.000000 0.323400 0.172100
v -0.000000 0.271600 0.055854
v 0.013579 0.263200 0.172660
v 0.008230 0.395423 0.160420
v 0.000000 0.402640 0.152500
v 0.000000 0.361200 0.118900
v -0.009602 0.245183 0.186044
v -0.009602 0.281217 0.186044
v -0.013579 0.263200 0.188340
v 0.008230 0.395423 0.144581
v 0.011639 0.378000 0.141300
v -0.009602 0.245183 0.174956
v -0.009602 0.281217 0.174956
v -0.013579 0.263200 0.172660
v 0.008230 0.360577 0.144581
v 0.010288 0.370221 0.128800
v 0.014549 0.392000 0.132900
v 0.000000 0.360577 0.136661
v 0.010288 0.413779 0.128800
v 0.000000 0.395423 0.136661
v 0.000000 0.422800 0.118900
v 0.000000 0.353360 0.082500
v -0.000000 0.360577 0.168339
v -0.000000 0.378000 0.174900
v -0.000000 0.395423 0.168339
v 0.010288 0.413779 0.109001
v 0.014549 0.392000 0.104900
v -0.008230 0.360577 0.160420
v -0.011639 0.378000 0.163700
v -0.008230 0.395423 0.160420
v 0.010288 0.370221 0.109001
v 0.008230 0.360577 0.090420
v -0.008230 0.360577 0.144581
v -0.011639 0.378000 0.141300
v -0.008230 0.395423 0.144581
v 0.011639 0.378000 0.093700
v 0.000000 0.370221 0.099101
v 0.008230 0.395423 0.090420
v 0.000000 0.378000 0.130100
v 0.000000 0.413779 0.099101
v 0.000000 0.402640 0.082500
v -0.056000 0.310800 0.158100
v -0.000000 0.370221 0.138699
v -0.000000 0.392000 0.146900
v -0.000000 0.413779 0.138699
v 0.008230 0.395423 0.074581
v 0.011639 0.378000 0.071300
v -0.010288 0.370221 0.128800
v -0.014549 0.392000 0.132900
v -0.010288 0.413779 0.128800
v 0.008230 0.360577 0.074581
v -0.047427 0.314900 0.163050
v -0.010288 0.370221 0.109001
v -0.014549 0.392000 0.104900
v -0.010288 0.413779 0.109001
v -0.043876 0.324800 0.165100
v 0.000000 0.360577 0.066661
v -0.047427 0.334699 0.163050
v 0.000000 0.392000 0.090900
v 0.000000 0.395423 0.066661
v -0.056000 0.338800 0.158100
v 0.056000 0.310800 0.158100
v -0.000000 0.360577 0.098339
v -0.000000 0.378000 0.104900
v -0.000000 0.395423 0.098339
v -0.047427 0.334699 0.153150
v -0.043876 0.324800 0.151100
v -0.008230 0.360577 0.090420
v -0.011639 0.378000 0.093700
v -0.008230 0.395423 0.090420
v -0.047427 0.314900 0.153150
v 0.064573 0.314900 0.163050
v -0.008230 0.360577 0.074581
v -0.011639 0.378000 0.071300
v -0.008230 0.395423 0.074581
v 0.068124 0.324800 0.165100
v -0.056000 0.314900 0.148201
v 0.064573 0.334699 0.163050
v 0.000000 0.378000 0.060100
v -0.056000 0.334699 0.148201
v 0.056000 0.338800 0.158100
v -0.056000 0.314900 0.168000
v -0.056000 0.324800 0.172100
v -0.056000 0.334699 0.168000
v 0.064573 0.334699 0.153150
v 0.068124 0.324800 0.151100
v -0.064573 0.314900 0.163050
v -0.068124 0.324800 0.165100
v -0.064573 0.334699 0.163050
v 0.064573 0.314900 0.153150
v -0.064573 0.314900 0.153150
v -0.068124 0.324800 0.151100
v -0.064573 0.334699 0.153150
v 0.056000 0.314900 0.148201
v -0.056000 0.324800 0.144100
v 0.056000 0.334699 0.148201
v 0.056000 0.314900 0.168000
v 0.056000 0.324800 0.172100
v 0.056000 0.334699 0.168000
v 0.047427 0.314900 0.163050
v 0.043876 0.324800 0.165100
v 0.047427 0.334699 0.163050
v 0.047427 0.314900 0.153150
v 0.043876 0.324800 0.151100
v 0.047427 0.334699 0.153150
v 0.056000 0.324800 0.144100
vn 0.1635 -0.8709 -0.4634
vn -0.0000 -1.0000 -0.0000
vn 0.5000 -0.0000 -0.8660
vn -0.0000 -0.0000 1.0000
vn 1.0000 -0.0000 -0.0000
vn 0.5000 -0.0000 0.8660
vn 0.1635 0.8709 -0.4634
vn -0.0000 -0.0000 -1.0000
vn -0.5000 -0.0000 0.8660
vn -0.0000 1.0000 -0.0000
vn -1.0000 -0.0000 -0.0000
vn -0.5000 -0.0000 -0.8660
vn 0.2610 -0.6205 -0.7395
vn 0.0551 -0.9862 -0.1562
vn 0.3239 0.2293 -0.9179
vn 0.3239 -0.2293 -0.9179
vn 0.2610 0.6205 -0.7395
vn 0.0551 0.9862 -0.1562
vn 0.4313 -0.8407 -0.3275
vn 0.7800 -0.2021 -0.5922
vn 0.6546 0.5697 -0.4970
vn 0.1500 0.9821 -0.1139
vn 0.1500 -0.9821 -0.1139
vn 0.6546 -0.5697 -0.4970
vn 0.7800 0.2021 -0.5922
vn 0.4313 0.8407 -0.3275
vn 0.9634 -0.1827 -0.1960
vn 0.8312 0.5296 -0.1691
vn 0.2040 0.9781 -0.0415
vn 0.2040 -0.9781 -0.0415
vn 0.8312 -0.5296 -0.1691
vn 0.9634 0.1827 -0.1960
vn 0.5700 0.8134 -0.1160
vn 0.5700 -0.8134 -0.1160
vn 0.2040 -0.9781 0.0415
vn 0.8312 -0.5296 0.1691
vn 0.9634 0.1827 0.1960
vn 0.5700 0.8134 0.1160
vn 0.5700 -0.8134 0.1160
vn 0.9634 -0.1827 0.1960
vn 0.8312 0.5296 0.1691
vn 0.2040 0.9781 0.0415
vn 0.7800 0.2021 0.5922
vn 0.4313 0.8407 0.3275
vn 0.4313 -0.8407 0.3275
vn 0.7800 -0.2021 0.5922
vn 0.6546 0.5697 0.4970
vn 0.1500 0.9821 0.1139
vn 0.1500 -0.9821 0.1139
vn 0.6546 -0.5697 0.4970
vn 0.1635 -0.8709 0.4634
vn 0.3239 -0.2293 0.9179
vn 0.2610 0.6205 0.7395
vn 0.0551 0.9862 0.1562
vn 0.0551 -0.9862 0.1562
vn 0.2610 -0.6205 0.7395
vn 0.3239 0.2293 0.9179
vn 0.1635 0.8709 0.4634
vn -0.2610 0.6205 0.7395
vn -0.0551 0.9862 0.1562
vn -0.0551 -0.9862 0.1562
vn -0.2610 -0.6205 0.7395
vn -0.3239 0.2293 0.9179
vn -0.1635 0.8709 0.4634
vn -0.1635 -0.8709 0.4634
vn -0.3239 -0.2293 0.9179
vn -0.1500 -0.9821 0.1139
vn -0.6546 -0.5697 0.4970
vn -0.7800 0.2021 0.5922
vn -0.4313 0.8407 0.3275
vn -0.4313 -0.8407 0.3275
vn -0.7800 -0.2021 0.5922
vn -0.6546 0.5697 0.4970
vn -0.1500 0.9821 0.1139
vn -0.5700 0.8134 0.1160
vn -0.5700 -0.8134 0.1160
vn -0.9634 -0.1827 0.1960
vn -0.8312 0.5296 0.1691
vn -0.2040 0.9781 0.0415
vn -0.2040 -0.9781 0.0415
vn -0.8312 -0.5296 0.1691
vn -0.9634 0.1827 0.1960
vn -0.5700 -0.8134 -0.1160
vn -0.9634 -0.1827 -0.1960
vn -0.8312 0.5296 -0.1691
vn -0.2040 0.9781 -0.0415
vn -0.2040 -0.9781 -0.0415
vn -0.8312 -0.5296 -0.1691
vn -0.9634 0.1827 -0.1960
vn -0.5700 0.8134 -0.1160
vn -0.1500 0.9821 -0.1139
vn -0.1500 -0.9821 -0.1139
vn -0.6546 -0.5697 -0.4970
vn -0.7800 0.2021 -0.5922
vn -0.4313 0.8407 -0.3275
vn -0.4313 -0.8407 -0.3275
vn -0.7800 -0.2021 -0.5922
vn -0.6546 0.5697 -0.4970
vn -0.2610 -0.6205 -0.7395
vn -0.3239 0.2293 -0.9179
vn -0.1635 0.8709 -0.4634
vn -0.1635 -0.8709 -0.4634
vn -0.3239 -0.2293 -0.9179
vn -0.2610 0.6205 -0.7395
vn -0.0551 0.9862 -0.1562
vn -0.0551 -0.9862 -0.1562
vn 0.2718 -0.2017 -0.9410
vn 0.2200 0.6094 -0.7617
vn 0.0913 -0.9443 -0.3163
vn 0.2200 -0.6094 -0.7617
vn 0.0913 0.9443 -0.3163
vn 0.2718 0.2017 -0.9410
vn 0.5990 0.6337 -0.4896
vn 0.5990 -0.6337 -0.4896
vn 0.7563 0.2144 -0.6181
vn 0.2407 -0.9504 -0.1967
vn 0.2407 0.9504 -0.1967
vn 0.7563 -0.2144 -0.6181
vn 0.2987 0.9543 -0.0000
vn 0.7597 -0.6503 -0.0000
vn 0.9747 0.2235 -0.0000
vn 0.7597 0.6503 -0.0000
vn 0.2987 -0.9543 -0.0000
vn 0.9747 -0.2235 -0.0000
vn 0.5990 -0.6337 0.4896
vn 0.7563 0.2144 0.6181
vn 0.2407 -0.9504 0.1967
vn 0.2407 0.9504 0.1967
vn 0.5990 0.6337 0.4896
vn 0.7563 -0.2144 0.6181
vn 0.2718 0.2017 0.9410
vn 0.2200 -0.6094 0.7617
vn 0.2718 -0.2017 0.9410
vn 0.2200 0.6094 0.7617
vn 0.0913 -0.9443 0.3163
vn 0.0913 0.9443 0.3163
vn -0.2200 -0.6094 0.7617
vn -0.2718 0.2017 0.9410
vn -0.0913 0.9443 0.3163
vn -0.0913 -0.9443 0.3163
vn -0.2718 -0.2017 0.9410
vn -0.2200 0.6094 0.7617
vn -0.2407 -0.9504 0.1967
vn -0.7563 -0.2144 0.6181
vn -0.5990 0.6337 0.4896
vn -0.5990 -0.6337 0.4896
vn -0.7563 0.2144 0.6181
vn -0.2407 0.9504 0.1967
vn -0.2987 -0.9543 -0.0000
vn -0.9747 -0.2235 -0.0000
vn -0.7597 0.6503 -0.0000
vn -0.7597 -0.6503 -0.0000
vn -0.9747 0.2235 -0.0000
vn -0.2987 0.9543 -0.0000
vn -0.2407 -0.9504 -0.1967
vn -0.7563 -0.2144 -0.6181
vn -0.5990 0.6337 -0.4896
vn -0.5990 -0.6337 -0.4896
vn -0.7563 0.2144 -0.6181
vn -0.2407 0.9504 -0.1967
vn -0.2718 -0.2017 -0.9410
vn -0.2200 0.6094 -0.7617
vn -0.2200 -0.6094 -0.7617
vn -0.2718 0.2017 -0.9410
vn -0.0913 0.9443 -0.3163
vn -0.0913 -0.9443 -0.3163
vn 0.2135 0.9617 -0.1718
vn 0.5675 -0.6851 -0.4567
vn 0.2135 -0.9617 -0.1718
vn 0.5675 0.6851 -0.4567
vn 0.7555 -0.2443 -0.6079
vn 0.7555 0.2443 -0.6079
vn 0.8877 0.4438 -0.1226
vn 0.9820 -0.1316 -0.1356
vn 0.9820 0.1316 -0.1356
vn 0.8877 -0.4438 -0.1226
vn 0.4713 0.8795 -0.0651
vn 0.4713 -0.8795 -0.0651
vn 0.9820 0.1316 0.1356
vn 0.8877 -0.4438 0.1226
vn 0.8877 0.4438 0.1226
vn 0.9820 -0.1316 0.1356
vn 0.4713 0.8795 0.0651
vn 0.4713 -0.8795 0.0651
vn 0.7555 0.2443 0.6079
vn 0.2135 0.9617 0.1718
vn 0.7555 -0.2443 0.6079
vn 0.2135 -0.9617 0.1718
vn 0.5675 0.6851 0.4567
vn 0.5675 -0.6851 0.4567
vn -0.7555 -0.2443 0.6079
vn -0.2135 -0.9617 0.1718
vn -0.7555 0.2443 0.6079
vn -0.2135 0.9617 0.1718
vn -0.5675 0.6851 0.4567
vn -0.5675 -0.6851 0.4567
vn -0.9820 -0.1316 0.1356
vn -0.4713 -0.8795 0.0651
vn -0.4713 0.8795 0.0651
vn -0.9820 0.1316 0.1356
vn -0.8877 -0.4438 0.1226
vn -0.8877 0.4438 0.1226
vn -0.4713 -0.8795 -0.0651
vn -0.4713 0.8795 -0.0651
vn -0.9820 0.1316 -0.1356
vn -0.8877 -0.4438 -0.1226
vn -0.8877 0.4438 -0.1226
vn -0.9820 -0.1316 -0.1356
vn -0.2135 -0.9617 -0.1718
vn -0.2135 0.9617 -0.1718
vn -0.7555 0.2443 -0.6079
vn -0.5675 -0.6851 -0.4567
vn -0.5675 0.6851 -0.4567
vn -0.7555 -0.2443 -0.6079
vn 0.7554 0.2443 -0.6079
vn 0.2194 0.9625 -0.1594
vn 0.7840 0.2469 -0.5696
vn 0.6277 -0.4082 -0.6628
vn 0.2994 0.2469 -0.9216
vn 0.0838 0.9625 -0.2579
vn 0.8850 0.4105 -0.2196
vn 0.2970 -0.6874 -0.6628
vn 0.4829 -0.5722 -0.6628
vn 0.2176 0.9500 0.2237
vn 0.2239 -0.6892 -0.6892
vn 0.0838 -0.9625 -0.2579
vn -0.7070 0.6709 0.2237
vn -0.1532 0.5073 -0.8480
vn 0.5862 -0.6892 -0.4259
vn -0.9643 -0.1478 -0.2196
vn 0.4830 0.8466 0.2237
vn 0.9659 0.1372 -0.2196
vn -0.2970 -0.6874 -0.6628
vn 0.1532 -0.5073 0.8480
vn -0.4829 0.8466 0.2237
vn -0.0000 0.5299 -0.8480
vn 0.5862 0.6892 -0.4259
vn -0.9659 0.1372 -0.2196
vn 0.7070 0.6709 0.2237
vn 0.9643 -0.1478 -0.2196
vn -0.4830 -0.5722 -0.6628
vn -0.0000 -0.5299 0.8480
vn -0.2176 0.9500 0.2237
vn 0.1532 0.5073 -0.8480
vn 0.2239 0.6892 -0.6892
vn -0.8850 0.4105 -0.2196
vn 0.7840 -0.2469 -0.5696
vn 0.2994 -0.2469 -0.9216
vn -0.6277 -0.4082 -0.6628
vn -0.1532 -0.5073 0.8480
vn 0.2194 -0.9625 -0.1594
vn 0.9690 -0.2469 -0.0000
vn 0.2712 -0.9625 -0.0000
vn 0.9690 0.2469 -0.0000
vn 0.7246 -0.6892 -0.0000
vn 0.2712 0.9625 -0.0000
vn 0.7246 0.6892 -0.0000
vn 0.7840 -0.2469 0.5696
vn 0.2194 -0.9625 0.1594
vn 0.7840 0.2469 0.5696
vn 0.5862 -0.6892 0.4259
vn 0.2194 0.9625 0.1594
vn 0.5862 0.6892 0.4259
vn 0.0838 -0.9625 0.2579
vn 0.2994 0.2469 0.9216
vn 0.2239 -0.6892 0.6892
vn 0.0838 0.9625 0.2579
vn 0.2239 0.6892 0.6892
vn 0.2994 -0.2469 0.9216
vn -0.2994 0.2469 0.9216
vn -0.2239 -0.6892 0.6892
vn -0.0838 0.9625 0.2579
vn -0.2239 0.6892 0.6892
vn -0.2994 -0.2469 0.9216
vn -0.0838 -0.9625 0.2579
vn -0.5862 -0.6892 0.4259
vn -0.2194 0.9625 0.1594
vn -0.5862 0.6892 0.4259
vn -0.7840 -0.2469 0.5696
vn -0.2194 -0.9625 0.1594
vn -0.7840 0.2469 0.5696
vn -0.7246 -0.6892 -0.0000
vn -0.2712 0.9625 -0.0000
vn -0.7246 0.6892 -0.0000
vn -0.9690 -0.2469 -0.0000
vn -0.2712 -0.9625 -0.0000
vn -0.9690 0.2469 -0.0000
vn -0.5862 -0.6892 -0.4259
vn -0.2194 0.9625 -0.1594
vn -0.5862 0.6892 -0.4259
vn -0.7840 -0.2469 -0.5696
vn -0.2194 -0.9625 -0.1594
vn -0.7840 0.2469 -0.5696
vn -0.2239 -0.6892 -0.6892
vn -0.0838 0.9625 -0.2579
vn -0.2239 0.6892 -0.6892
vn -0.2994 -0.2469 -0.9216
vn -0.0838 -0.9625 -0.2579
vn -0.2994 0.2469 -0.9216
vn 0.6137 0.7896 -0.0000
vn 0.3068 -0.7896 0.5315
vn 0.4742 0.8213 0.3173
vn 0.9765 -0.2156 -0.0000
vn 0.3068 0.7896 0.5315
vn 0.9483 -0.0000 0.3173
vn 0.4882 -0.2156 -0.8457
vn 0.6137 -0.7896 -0.0000
vn 0.4742 -0.8213 0.3173
vn 0.4882 0.2156 -0.8457
vn 0.9765 0.2156 -0.0000
vn -0.4742 -0.8213 0.3173
vn 0.3068 -0.7896 -0.5315
vn -0.9483 -0.0000 0.3173
vn 0.3068 0.7896 -0.5315
vn 0.4882 -0.2156 0.8457
vn -0.4742 0.8213 0.3173
vn 0.4882 0.2156 0.8457
vn -0.4882 0.2156 0.8457
vn -0.4882 -0.2156 0.8457
vn -0.3068 0.7896 0.5315
vn -0.3068 -0.7896 0.5315
vn -0.6137 0.7896 -0.0000
vn -0.9765 -0.2156 -0.0000
vn -0.6137 -0.7896 -0.0000
vn -0.9765 0.2156 -0.0000
vn -0.4882 0.2156 -0.8457
vn -0.4882 -0.2156 -0.8457
vn -0.3068 0.7896 -0.5315
vn -0.3068 -0.7896 -0.5315
vn 0.6692 0.2619 -0.6954
vn 0.3706 -0.8452 -0.3851
vn 0.3706 0.8452 -0.3851
vn 0.6692 -0.2619 -0.6954
vn 0.9814 -0.1920 -0.0000
vn 0.6593 0.7519 -0.0000
vn 0.6593 -0.7519 -0.0000
vn 0.9814 0.1920 -0.0000
vn 0.3706 0.8452 0.3851
vn 0.6692 0.2619 0.6954
vn 0.3706 -0.8452 0.3851
vn 0.6692 -0.2619 0.6954
vn -0.3706 -0.8452 0.3851
vn -0.6692 0.2619 0.6954
vn -0.3706 0.8452 0.3851
vn -0.6692 -0.2619 0.6954
vn -0.6593 -0.7519 -0.0000
vn -0.9814 0.1920 -0.0000
vn -0.9814 -0.1920 -0.0000
vn -0.6593 0.7519 -0.0000
vn -0.3706 -0.8452 -0.3851
vn -0.6692 0.2619 -0.6954
vn -0.6692 -0.2619 -0.6954
vn -0.3706 0.8452 -0.3851
vn 0.2157 -0.9021 -0.3737
vn 0.4706 0.3377 -0.8152
vn 0.2157 0.9021 -0.3737
vn 0.4706 -0.3377 -0.8152
vn 0.9413 -0.3377 -0.0000
vn 0.4315 0.9021 -0.0000
vn 0.4315 -0.9021 -0.0000
vn 0.9413 0.3377 -0.0000
vn 0.4706 -0.3377 0.8152
vn 0.2157 -0.9021 0.3737
vn 0.2157 0.9021 0.3737
vn 0.4706 0.3377 0.8152
vn -0.4706 -0.3377 0.8152
vn -0.4706 0.3377 0.8152
vn -0.2157 0.9021 0.3737
vn -0.2157 -0.9021 0.3737
vn -0.9413 -0.3377 -0.0000
vn -0.4315 0.9021 -0.0000
vn -0.4315 -0.9021 -0.0000
vn -0.9413 0.3377 -0.0000
vn -0.4706 -0.3377 -0.8152
vn -0.2157 0.9021 -0.3737
vn -0.2157 -0.9021 -0.3737
vn -0.4706 0.3377 -0.8152
s 0
usemtl EF_Beak
f 15//2 19//2 17//2 2//2
f 3//3 4//3 6//3 5//3
f 37//4 38//4 21//4 22//4
f 17//4 18//4 1//4 2//4
f 5//5 6//5 8//5 7//5
f 35//2 39//2 37//2 22//2
f 19//5 20//5 18//5 17//5
f 7//6 8//6 10//6 9//6
f 15//8 16//8 20//8 19//8
f 9//9 10//9 12//9 11//9
f 6//10 4//10 14//10 12//10 10//10 8//10
f 2//11 1//11 16//11 15//11
f 11//11 12//11 14//11 13//11
f 23//3 24//3 26//3 25//3
f 20//10 16//10 1//10 18//10
f 13//12 14//12 4//12 3//12
f 3//2 5//2 7//2 9//2 11//2 13//2
f 25//5 26//5 28//5 27//5
f 39//5 40//5 38//5 37//5
f 27//6 28//6 30//6 29//6
f 35//8 36//8 40//8 39//8
f 29//9 30//9 32//9 31//9
f 28//10 26//10 24//10 34//10 32//10 30//10
f 22//11 21//11 36//11 35//11
f 31//11 32//11 34//11 33//11
f 40//10 36//10 21//10 38//10
f 33//12 34//12 24//12 23//12
f 25//2 27//2 29//2 31//2 33//2 23//2
f 372//302 340//302 369//302
f 369//305 340//305 362//305
f 362//308 340//308 355//308
f 355//311 340//311 348//311
f 372//8 369//8 362//8 355//8 348//8 341//8
f 348//313 340//313 341//313
f 341//316 340//316 372//316
usemtl EF_BrownLight
f 156//1 155//1 56//1 57//1
f 43//7 150//7 51//7 52//7
f 155//13 154//13 55//13 56//13
f 49//14 156//14 57//14
f 45//15 152//15 53//15 54//15
f 154//16 45//16 54//16 55//16
f 152//17 43//17 52//17 53//17
f 150//18 41//18 51//18
f 57//19 56//19 65//19 66//19
f 55//20 54//20 63//20 64//20
f 53//21 52//21 61//21 62//21
f 51//22 41//22 60//22
f 49//23 57//23 66//23
f 56//24 55//24 64//24 65//24
f 54//25 53//25 62//25 63//25
f 52//26 51//26 60//26 61//26
f 64//27 63//27 72//27 73//27
f 62//28 61//28 70//28 71//28
f 60//29 41//29 69//29
f 49//30 66//30 75//30
f 65//31 64//31 73//31 74//31
f 63//32 62//32 71//32 72//32
f 61//33 60//33 69//33 70//33
f 66//34 65//34 74//34 75//34
f 49//35 75//35 84//35
f 74//36 73//36 82//36 83//36
f 72//37 71//37 80//37 81//37
f 70//38 69//38 78//38 79//38
f 75//39 74//39 83//39 84//39
f 73//40 72//40 81//40 82//40
f 71//41 70//41 79//41 80//41
f 69//42 41//42 78//42
f 81//43 80//43 89//43 90//43
f 79//44 78//44 87//44 88//44
f 84//45 83//45 92//45 93//45
f 82//46 81//46 90//46 91//46
f 80//47 79//47 88//47 89//47
f 78//48 41//48 87//48
f 49//49 84//49 93//49
f 83//50 82//50 91//50 92//50
f 93//51 92//51 101//51 102//51
f 91//52 90//52 99//52 100//52
f 89//53 88//53 97//53 98//53
f 87//54 41//54 96//54
f 49//55 93//55 102//55
f 92//56 91//56 100//56 101//56
f 90//57 89//57 98//57 99//57
f 88//58 87//58 96//58 97//58
f 98//59 97//59 106//59 107//59
f 96//60 41//60 105//60
f 49//61 102//61 111//61
f 101//62 100//62 109//62 110//62
f 99//63 98//63 107//63 108//63
f 97//64 96//64 105//64 106//64
f 102//65 101//65 110//65 111//65
f 100//66 99//66 108//66 109//66
f 49//67 111//67 120//67
f 110//68 109//68 118//68 119//68
f 108//69 107//69 116//69 117//69
f 106//70 105//70 114//70 115//70
f 111//71 110//71 119//71 120//71
f 109//72 108//72 117//72 118//72
f 107//73 106//73 115//73 116//73
f 105//74 41//74 114//74
f 115//75 114//75 123//75 124//75
f 120//76 119//76 128//76 129//76
f 118//77 117//77 126//77 127//77
f 116//78 115//78 124//78 125//78
f 114//79 41//79 123//79
f 49//80 120//80 129//80
f 119//81 118//81 127//81 128//81
f 117//82 116//82 125//82 126//82
f 129//83 128//83 137//83 138//83
f 127//84 126//84 135//84 136//84
f 125//85 124//85 133//85 134//85
f 123//86 41//86 132//86
f 49//87 129//87 138//87
f 128//88 127//88 136//88 137//88
f 126//89 125//89 134//89 135//89
f 124//90 123//90 132//90 133//90
f 132//91 41//91 141//91
f 49//92 138//92 147//92
f 137//93 136//93 145//93 146//93
f 135//94 134//94 143//94 144//94
f 133//95 132//95 141//95 142//95
f 138//96 137//96 146//96 147//96
f 136//97 135//97 144//97 145//97
f 134//98 133//98 142//98 143//98
f 146//99 145//99 154//99 155//99
f 144//100 143//100 152//100 45//100
f 142//101 141//101 150//101 43//101
f 147//102 146//102 155//102 156//102
f 145//103 144//103 45//103 154//103
f 143//104 142//104 43//104 152//104
f 141//105 41//105 150//105
f 49//106 147//106 156//106
f 201//107 200//107 121//107 122//107
f 197//108 198//108 112//108 113//108
f 68//109 202//109 130//109
f 202//110 201//110 122//110 130//110
f 198//111 46//111 112//111
f 200//112 197//112 113//112 121//112
f 113//113 112//113 95//113 94//113
f 130//114 122//114 85//114 77//114
f 121//115 113//115 94//115 86//115
f 68//116 130//116 77//116
f 112//117 46//117 95//117
f 122//118 121//118 86//118 85//118
f 95//119 46//119 48//119
f 77//120 85//120 59//120 67//120
f 86//121 94//121 50//121 58//121
f 94//122 95//122 48//122 50//122
f 68//123 77//123 67//123
f 85//124 86//124 58//124 59//124
f 67//125 59//125 159//125 160//125
f 58//126 50//126 42//126 158//126
f 68//127 67//127 160//127
f 48//128 46//128 44//128
f 50//129 48//129 44//129 42//129
f 59//130 58//130 158//130 159//130
f 158//131 42//131 162//131 165//131
f 160//132 159//132 166//132 167//132
f 159//133 158//133 165//133 166//133
f 42//134 44//134 163//134 162//134
f 68//135 160//135 167//135
f 44//136 46//136 163//136
f 167//137 166//137 173//137 174//137
f 165//138 162//138 169//138 172//138
f 163//139 46//139 170//139
f 68//140 167//140 174//140
f 166//141 165//141 172//141 173//141
f 162//142 163//142 170//142 169//142
f 68//143 174//143 181//143
f 173//144 172//144 179//144 180//144
f 169//145 170//145 177//145 176//145
f 174//146 173//146 180//146 181//146
f 172//147 169//147 176//147 179//147
f 170//148 46//148 177//148
f 68//149 181//149 188//149
f 180//150 179//150 186//150 187//150
f 176//151 177//151 184//151 183//151
f 181//152 180//152 187//152 188//152
f 179//153 176//153 183//153 186//153
f 177//154 46//154 184//154
f 68//155 188//155 195//155
f 187//156 186//156 193//156 194//156
f 183//157 184//157 191//157 190//157
f 188//158 187//158 194//158 195//158
f 186//159 183//159 190//159 193//159
f 184//160 46//160 191//160
f 194//161 193//161 200//161 201//161
f 190//162 191//162 198//162 197//162
f 195//163 194//163 201//163 202//163
f 193//164 190//164 197//164 200//164
f 191//165 46//165 198//165
f 68//166 195//166 202//166
f 307//216 282//216 314//216
f 309//217 308//217 315//217 316//217
f 302//219 371//219 308//219 309//219
f 283//220 282//220 307//220
f 304//225 373//225 310//225 311//225
f 305//226 304//226 311//226
f 311//229 310//229 317//229 318//229
f 308//237 307//237 314//237 315//237
f 371//245 283//245 307//245 308//245
f 310//247 309//247 316//247 317//247
f 373//248 302//248 309//248 310//248
f 305//251 311//251 318//251
f 317//252 316//252 323//252 324//252
f 305//253 318//253 325//253
f 316//254 315//254 322//254 323//254
f 318//255 317//255 324//255 325//255
f 314//256 282//256 321//256
f 315//257 314//257 321//257 322//257
f 324//258 323//258 330//258 331//258
f 305//259 325//259 332//259
f 323//260 322//260 329//260 330//260
f 325//261 324//261 331//261 332//261
f 321//262 282//262 328//262
f 322//263 321//263 328//263 329//263
f 305//264 332//264 339//264
f 330//265 329//265 336//265 337//265
f 332//266 331//266 338//266 339//266
f 328//267 282//267 335//267
f 329//268 328//268 335//268 336//268
f 331//269 330//269 337//269 338//269
f 337//270 336//270 343//270 344//270
f 339//271 338//271 345//271 346//271
f 335//272 282//272 342//272
f 336//273 335//273 342//273 343//273
f 338//274 337//274 344//274 345//274
f 305//275 339//275 346//275
f 346//276 345//276 352//276 353//276
f 342//277 282//277 349//277
f 343//278 342//278 349//278 350//278
f 345//279 344//279 351//279 352//279
f 305//280 346//280 353//280
f 344//281 343//281 350//281 351//281
f 353//282 352//282 359//282 360//282
f 349//283 282//283 356//283
f 350//284 349//284 356//284 357//284
f 352//285 351//285 358//285 359//285
f 305//286 353//286 360//286
f 351//287 350//287 357//287 358//287
f 360//288 359//288 366//288 367//288
f 356//289 282//289 363//289
f 357//290 356//290 363//290 364//290
f 359//291 358//291 365//291 366//291
f 305//292 360//292 367//292
f 358//293 357//293 364//293 365//293
f 367//294 366//294 373//294 304//294
f 363//295 282//295 283//295
f 364//296 363//296 283//296 371//296
f 366//297 365//297 302//297 373//297
f 305//298 367//298 304//298
f 365//299 364//299 371//299 302//299
usemtl EF_Brown
f 199//167 153//167 161//167
f 185//168 189//168 171//168 175//168
f 104//169 185//169 175//169
f 196//170 199//170 161//170 164//170
f 189//171 192//171 168//171 171//171
f 192//172 196//172 164//172 168//172
f 164//173 161//173 151//173 149//173
f 171//174 168//174 148//174 140//174
f 168//175 164//175 149//175 148//175
f 175//176 171//176 140//176 139//176
f 161//177 153//177 151//177
f 104//178 175//178 139//178
f 148//179 149//179 204//179 47//179
f 139//180 140//180 76//180 103//180
f 149//181 151//181 205//181 204//181
f 140//182 148//182 47//182 76//182
f 151//183 153//183 205//183
f 104//184 139//184 103//184
f 47//185 204//185 211//185 207//185
f 205//186 153//186 212//186
f 76//187 47//187 207//187 208//187
f 104//188 103//188 209//188
f 204//189 205//189 212//189 211//189
f 103//190 76//190 208//190 209//190
f 208//191 207//191 214//191 215//191
f 104//192 209//192 216//192
f 207//193 211//193 218//193 214//193
f 212//194 153//194 219//194
f 211//195 212//195 219//195 218//195
f 209//196 208//196 215//196 216//196
f 215//197 214//197 221//197 222//197
f 104//198 216//198 223//198
f 219//199 153//199 226//199
f 214//200 218//200 225//200 221//200
f 216//201 215//201 222//201 223//201
f 218//202 219//202 226//202 225//202
f 104//203 223//203 230//203
f 226//204 153//204 233//204
f 221//205 225//205 232//205 228//205
f 223//206 222//206 229//206 230//206
f 225//207 226//207 233//207 232//207
f 222//208 221//208 228//208 229//208
f 104//209 230//209 185//209
f 233//210 153//210 199//210
f 228//211 232//211 196//211 192//211
f 230//212 229//212 189//212 185//212
f 232//213 233//213 199//213 196//213
f 229//214 228//214 192//214 189//214
f 240//167 210//167 217//167
f 238//215 239//215 220//215 224//215
f 236//168 237//168 227//168 231//168
f 239//170 240//170 217//170 220//170
f 237//171 238//171 224//171 227//171
f 131//169 236//169 231//169
f 231//176 227//176 178//176 157//176
f 224//175 220//175 203//175 182//175
f 217//177 210//177 206//177
f 131//178 231//178 157//178
f 227//174 224//174 182//174 178//174
f 220//173 217//173 206//173 203//173
f 206//183 210//183 247//183
f 203//181 206//181 247//181 246//181
f 157//180 178//180 244//180 243//180
f 131//184 157//184 243//184
f 182//179 203//179 246//179 245//179
f 178//182 182//182 245//182 244//182
f 247//186 210//186 254//186
f 243//190 244//190 251//190 250//190
f 131//188 243//188 250//188
f 246//189 247//189 254//189 253//189
f 245//185 246//185 253//185 252//185
f 244//187 245//187 252//187 251//187
f 252//193 253//193 260//193 259//193
f 254//194 210//194 261//194
f 131//192 250//192 257//192
f 251//191 252//191 259//191 258//191
f 253//195 254//195 261//195 260//195
f 250//196 251//196 258//196 257//196
f 261//199 210//199 268//199
f 131//198 257//198 264//198
f 258//197 259//197 266//197 265//197
f 260//202 261//202 268//202 267//202
f 257//201 258//201 265//201 264//201
f 259//200 260//200 267//200 266//200
f 131//203 264//203 271//203
f 265//208 266//208 273//208 272//208
f 267//207 268//207 275//207 274//207
f 264//206 265//206 272//206 271//206
f 266//205 267//205 274//205 273//205
f 268//204 210//204 275//204
f 131//209 271//209 236//209
f 272//214 273//214 238//214 237//214
f 274//213 275//213 240//213 239//213
f 271//212 272//212 237//212 236//212
f 273//211 274//211 239//211 238//211
f 275//210 210//210 240//210
usemtl EF_WoodDark
f 281//218 280//218 278//218 279//218
f 279//221 278//221 276//221 277//221
f 289//222 290//222 292//222 291//222
f 249//223 248//223 241//223 242//223
f 277//224 276//224 269//224 270//224
f 270//227 269//227 262//227 263//227
f 278//228 280//228 255//228 262//228 269//228 276//228
f 263//230 262//230 255//230 256//230
f 235//231 234//231 284//231 213//231
f 242//232 241//232 234//232 235//232
f 256//233 255//233 280//233 281//233
f 281//234 279//234 277//234 270//234 263//234 256//234
f 213//235 284//235 286//235 285//235
f 234//236 241//236 248//236 288//236 286//236 284//236
f 285//238 286//238 288//238 287//238
f 293//239 294//239 296//239 295//239
f 291//240 292//240 294//240 293//240
f 287//241 288//241 248//241 249//241
f 213//242 285//242 287//242 249//242 242//242 235//242
f 295//243 296//243 298//243 297//243
f 292//244 290//244 300//244 298//244 296//244 294//244
f 297//246 298//246 300//246 299//246
f 299//249 300//249 290//249 289//249
f 293//250 295//250 297//250 299//250 289//250 291//250
usemtl EF_Comb
f 370//300 326//300 313//300
f 320//301 319//301 301//301
f 334//303 374//303 312//303 319//303
f 313//304 326//304 303//304
f 361//306 354//306 374//306 334//306
f 320//307 334//307 319//307
f 354//309 347//309 370//309 374//309
f 374//310 370//310 313//310 312//310
f 320//312 361//312 334//312
f 347//314 326//314 370//314
f 319//315 312//315 306//315 301//315
f 312//317 313//317 303//317 306//317
f 306//318 303//318 379//318 380//318
f 301//319 306//319 380//319 378//319
f 303//320 326//320 379//320
f 320//321 301//321 378//321
f 379//322 326//322 384//322
f 378//323 380//323 385//323 383//323
f 320//324 378//324 383//324
f 380//325 379//325 384//325 385//325
f 385//326 384//326 347//326 354//326
f 383//327 385//327 354//327 361//327
f 384//328 326//328 347//328
f 320//329 383//329 361//329
f 410//330 391//330 381//330 382//330
f 327//331 389//331 386//331
f 391//332 376//332 381//332
f 389//333 410//333 382//333 386//333
f 386//334 382//334 368//334 333//334
f 381//335 376//335 375//335
f 327//336 386//336 333//336
f 382//337 381//337 375//337 368//337
f 375//338 376//338 396//338
f 368//339 375//339 396//339 395//339
f 327//340 333//340 394//340
f 333//341 368//341 395//341 394//341
f 327//342 394//342 399//342
f 395//343 396//343 401//343 400//343
f 396//344 376//344 401//344
f 394//345 395//345 400//345 399//345
f 327//346 399//346 404//346
f 400//347 401//347 406//347 405//347
f 399//348 400//348 405//348 404//348
f 401//349 376//349 406//349
f 327//350 404//350 389//350
f 405//351 406//351 391//351 410//351
f 404//352 405//352 410//352 389//352
f 406//353 376//353 391//353
f 430//330 411//330 397//330 398//330
f 408//333 430//333 398//333 402//333
f 411//332 392//332 397//332
f 377//331 408//331 402//331
f 397//335 392//335 390//335
f 377//336 402//336 387//336
f 398//337 397//337 390//337 388//337
f 402//334 398//334 388//334 387//334
f 388//339 390//339 416//339 415//339
f 390//338 392//338 416//338
f 387//341 388//341 415//341 414//341
f 377//340 387//340 414//340
f 416//344 392//344 421//344
f 415//343 416//343 421//343 420//343
f 377//342 414//342 419//342
f 414//345 415//345 420//345 419//345
f 377//346 419//346 424//346
f 420//347 421//347 426//347 425//347
f 419//348 420//348 425//348 424//348
f 421//349 392//349 426//349
f 426//353 392//353 411//353
f 377//350 424//350 408//350
f 425//351 426//351 411//351 430//351
f 424//352 425//352 430//352 408//352
f 431//332 412//332 417//332
f 428//333 450//333 418//333 422//333
f 450//330 431//330 417//330 418//330
f 393//331 428//331 422//331
f 422//334 418//334 407//334 403//334
f 417//335 412//335 409//335
f 393//336 422//336 403//336
f 418//337 417//337 409//337 407//337
f 409//338 412//338 436//338
f 407//339 409//339 436//339 435//339
f 393//340 403//340 434//340
f 403//341 407//341 435//341 434//341
f 436//344 412//344 441//344
f 435//343 436//343 441//343 440//343
f 393//342 434//342 439//342
f 434//345 435//345 440//345 439//345
f 441//349 412//349 446//349
f 393//346 439//346 444//346
f 440//347 441//347 446//347 445//347
f 439//348 440//348 445//348 444//348
f 444//352 445//352 450//352 428//352
f 446//353 412//353 431//353
f 393//350 444//350 428//350
f 445//351 446//351 431//351 450//351
usemtl EF_Black
f 413//354 448//354 442//354
f 466//355 451//355 437//355 438//355
f 451//356 432//356 437//356
f 448//357 466//357 438//357 442//357
f 442//358 438//358 427//358 423//358
f 437//359 432//359 429//359
f 413//360 442//360 423//360
f 438//361 437//361 429//361 427//361
f 423//362 427//362 454//362 453//362
f 413//363 423//363 453//363
f 429//364 432//364 455//364
f 427//365 429//365 455//365 454//365
f 453//366 454//366 459//366 458//366
f 454//367 455//367 460//367 459//367
f 455//368 432//368 460//368
f 413//369 453//369 458//369
f 458//370 459//370 463//370 462//370
f 460//371 432//371 464//371
f 413//372 458//372 462//372
f 459//373 460//373 464//373 463//373
f 462//374 463//374 466//374 448//374
f 464//375 432//375 451//375
f 413//376 462//376 448//376
f 463//377 464//377 451//377 466//377
f 465//357 477//357 457//357 461//357
f 433//354 465//354 461//354
f 477//355 467//355 456//355 457//355
f 467//356 452//356 456//356
f 461//358 457//358 447//358 443//358
f 456//359 452//359 449//359
f 433//360 461//360 443//360
f 457//361 456//361 449//361 447//361
f 443//362 447//362 469//362 468//362
f 449//364 452//364 470//364
f 447//365 449//365 470//365 469//365
f 433//363 443//363 468//363
f 469//367 470//367 473//367 472//367
f 470//368 452//368 473//368
f 468//366 469//366 472//366 471//366
f 433//369 468//369 471//369
f 471//370 472//370 475//370 474//370
f 473//371 452//371 476//371
f 433//372 471//372 474//372
f 472//373 473//373 476//373 475//373
f 474//374 475//374 477//374 465//374
f 476//375 452//375 467//375
f 433//376 474//376 465//376
f 475//377 476//377 467//377 477//377
