# Blender 5.0.1
# www.blender.org
mtllib DeliveryVan.mtl
o DeliveryVan
v -0.868000 0.504000 2.296000
v -0.868000 0.280000 2.296000
v -1.092000 0.364000 1.232000
v -0.812000 0.364000 1.232000
v -1.092000 0.182000 1.280767
v -0.812000 0.182000 1.280767
v -1.092000 0.048767 1.414000
v -0.812000 0.048767 1.414000
v -1.092000 0.000000 1.596000
v -0.812000 0.000000 1.596000
v -1.092000 0.048767 1.778000
v -0.812000 0.048767 1.778000
v -1.092000 0.182000 1.911233
v -0.812000 0.182000 1.911233
v -1.092000 0.364000 1.960000
v -0.812000 0.364000 1.960000
v -1.092000 0.546000 1.911233
v -0.812000 0.546000 1.911233
v -1.092000 0.679233 1.778000
v -0.812000 0.679233 1.778000
v -1.092000 0.728000 1.596000
v -0.812000 0.728000 1.596000
v -1.092000 0.679233 1.414000
v -0.812000 0.679233 1.414000
v -1.092000 0.546000 1.280767
v -0.812000 0.546000 1.280767
v -1.114400 0.364000 1.395800
v -0.800800 0.364000 1.395800
v -1.114400 0.222437 1.454437
v -0.800800 0.222437 1.454437
v -1.114400 0.163800 1.596000
v -0.800800 0.163800 1.596000
v -1.114400 0.222437 1.737563
v -0.800800 0.222437 1.737563
v -1.114400 0.364000 1.796200
v -0.800800 0.364000 1.796200
v -1.114400 0.505563 1.737563
v -0.800800 0.505563 1.737563
v -1.114400 0.564200 1.596000
v -0.800800 0.564200 1.596000
v -1.114400 0.505563 1.454437
v -0.800800 0.505563 1.454437
v -1.138200 0.364000 1.523200
v -0.788200 0.364000 1.523200
v -1.138200 0.300953 1.559600
v -0.788200 0.300953 1.559600
v -1.138200 0.300953 1.632400
v -0.788200 0.300953 1.632400
v -1.138200 0.364000 1.668800
v -0.788200 0.364000 1.668800
v -1.138200 0.427047 1.632400
v -0.788200 0.427047 1.632400
v -1.138200 0.427047 1.559600
v -0.788200 0.427047 1.559600
v 0.812000 0.364000 1.232000
v 1.092000 0.364000 1.232000
v 0.812000 0.182000 1.280767
v 1.092000 0.182000 1.280767
v 0.812000 0.048767 1.414000
v 1.092000 0.048767 1.414000
v 0.812000 0.000000 1.596000
v 1.092000 0.000000 1.596000
v 0.812000 0.048767 1.778000
v 1.092000 0.048767 1.778000
v 0.812000 0.182000 1.911233
v 1.092000 0.182000 1.911233
v 0.812000 0.364000 1.960000
v 1.092000 0.364000 1.960000
v 0.812000 0.546000 1.911233
v 1.092000 0.546000 1.911233
v 0.812000 0.679233 1.778000
v 1.092000 0.679233 1.778000
v 0.812000 0.728000 1.596000
v 1.092000 0.728000 1.596000
v 0.812000 0.679233 1.414000
v 1.092000 0.679233 1.414000
v 0.812000 0.546000 1.280767
v 1.092000 0.546000 1.280767
v 0.800800 0.364000 1.395800
v 1.114400 0.364000 1.395800
v 0.800800 0.222437 1.454437
v 1.114400 0.222437 1.454437
v 0.800800 0.163800 1.596000
v 1.114400 0.163800 1.596000
v 0.800800 0.222437 1.737563
v 1.114400 0.222437 1.737563
v 0.800800 0.364000 1.796200
v 1.114400 0.364000 1.796200
v 0.800800 0.505563 1.737563
v 1.114400 0.505563 1.737563
v 0.800800 0.564200 1.596000
v 1.114400 0.564200 1.596000
v 0.800800 0.505563 1.454437
v 1.114400 0.505563 1.454437
v 0.788200 0.364000 1.523200
v 1.138200 0.364000 1.523200
v 0.788200 0.300953 1.559600
v 1.138200 0.300953 1.559600
v 0.788200 0.300953 1.632400
v 1.138200 0.300953 1.632400
v 0.788200 0.364000 1.668800
v 1.138200 0.364000 1.668800
v 0.788200 0.427047 1.632400
v 1.138200 0.427047 1.632400
v 0.788200 0.427047 1.559600
v 1.138200 0.427047 1.559600
v -1.092000 0.364000 -1.848000
v -0.812000 0.364000 -1.848000
v -1.092000 0.182000 -1.799233
v -0.812000 0.182000 -1.799233
v -1.092000 0.048767 -1.666000
v -0.812000 0.048767 -1.666000
v -1.092000 0.000000 -1.484000
v -0.812000 0.000000 -1.484000
v -1.092000 0.048767 -1.302000
v -0.812000 0.048767 -1.302000
v -1.092000 0.182000 -1.168767
v -0.812000 0.182000 -1.168767
v -1.092000 0.364000 -1.120000
v -0.812000 0.364000 -1.120000
v -1.092000 0.546000 -1.168767
v -0.812000 0.546000 -1.168767
v -1.092000 0.679233 -1.302000
v -0.812000 0.679233 -1.302000
v -1.092000 0.728000 -1.484000
v -0.812000 0.728000 -1.484000
v -1.092000 0.679233 -1.666000
v -0.812000 0.679233 -1.666000
v -1.092000 0.546000 -1.799233
v -0.812000 0.546000 -1.799233
v -1.114400 0.364000 -1.684200
v -0.800800 0.364000 -1.684200
v -1.114400 0.222437 -1.625563
v -0.800800 0.222437 -1.625563
v -1.114400 0.163800 -1.484000
v -0.800800 0.163800 -1.484000
v -1.114400 0.222437 -1.342437
v -0.800800 0.222437 -1.342437
v -1.114400 0.364000 -1.283800
v -0.800800 0.364000 -1.283800
v -1.114400 0.505563 -1.342437
v -0.800800 0.505563 -1.342437
v -1.114400 0.564200 -1.484000
v -0.800800 0.564200 -1.484000
v -1.114400 0.505563 -1.625563
v -0.800800 0.505563 -1.625563
v -1.138200 0.364000 -1.556800
v -0.788200 0.364000 -1.556800
v -1.138200 0.300953 -1.520400
v -0.788200 0.300953 -1.520400
v -1.138200 0.300953 -1.447600
v -0.788200 0.300953 -1.447600
v -1.138200 0.364000 -1.411200
v -0.788200 0.364000 -1.411200
v -1.138200 0.427047 -1.447600
v -0.788200 0.427047 -1.447600
v -1.138200 0.427047 -1.520400
v -0.788200 0.427047 -1.520400
v 0.812000 0.364000 -1.848000
v 1.092000 0.364000 -1.848000
v 0.812000 0.182000 -1.799233
v 1.092000 0.182000 -1.799233
v 0.812000 0.048767 -1.666000
v 1.092000 0.048767 -1.666000
v 0.812000 0.000000 -1.484000
v 1.092000 0.000000 -1.484000
v 0.812000 0.048767 -1.302000
v 1.092000 0.048767 -1.302000
v 0.812000 0.182000 -1.168767
v 1.092000 0.182000 -1.168767
v 0.812000 0.364000 -1.120000
v 1.092000 0.364000 -1.120000
v 0.812000 0.546000 -1.168767
v 1.092000 0.546000 -1.168767
v 0.812000 0.679233 -1.302000
v 1.092000 0.679233 -1.302000
v 0.812000 0.728000 -1.484000
v 1.092000 0.728000 -1.484000
v 0.812000 0.679233 -1.666000
v 1.092000 0.679233 -1.666000
v 0.812000 0.546000 -1.799233
v 1.092000 0.546000 -1.799233
v 0.800800 0.364000 -1.684200
v 1.114400 0.364000 -1.684200
v 0.800800 0.222437 -1.625563
v 1.114400 0.222437 -1.625563
v 0.800800 0.163800 -1.484000
v 1.114400 0.163800 -1.484000
v 0.800800 0.222437 -1.342437
v 1.114400 0.222437 -1.342437
v 0.800800 0.364000 -1.283800
v 1.114400 0.364000 -1.283800
v 0.800800 0.505563 -1.342437
v 1.114400 0.505563 -1.342437
v 0.800800 0.564200 -1.484000
v 1.114400 0.564200 -1.484000
v 0.800800 0.505563 -1.625563
v 1.114400 0.505563 -1.625563
v 0.788200 0.364000 -1.556800
v 1.138200 0.364000 -1.556800
v 0.788200 0.300953 -1.520400
v 1.138200 0.300953 -1.520400
v 0.788200 0.300953 -1.447600
v 1.138200 0.300953 -1.447600
v 0.788200 0.364000 -1.411200
v 1.138200 0.364000 -1.411200
v 0.788200 0.427047 -1.447600
v 1.138200 0.427047 -1.447600
v 0.788200 0.427047 -1.520400
v 1.138200 0.427047 -1.520400
v -0.868000 0.280000 -2.184000
v -0.868000 0.504000 -2.184000
v 0.868000 0.280000 2.296000
v 0.868000 0.504000 2.296000
v 0.868000 0.280000 -2.184000
v 0.868000 0.504000 -2.184000
v -1.064000 0.448000 1.316000
v -1.064000 2.184000 1.316000
v -1.064000 0.448000 -2.324000
v -1.064000 2.184000 -2.324000
v 1.064000 0.448000 1.316000
v 1.064000 2.184000 1.316000
v 1.064000 0.448000 -2.324000
v 1.064000 2.184000 -2.324000
v -1.064000 0.448000 2.324000
v -1.064000 1.176000 2.324000
v -1.064000 1.176000 1.316000
v 1.064000 0.448000 2.324000
v 1.064000 1.176000 2.324000
v 1.064000 1.176000 1.316000
v -1.064000 1.176000 2.156000
v 1.064000 1.176000 2.156000
v -0.924000 1.334312 2.115014
v -0.924000 2.106484 1.467084
v -0.924000 1.298316 2.072115
v -0.924000 2.070488 1.424186
v 0.924000 1.334312 2.115014
v 0.924000 2.106484 1.467084
v 0.924000 1.298316 2.072115
v 0.924000 2.070488 1.424186
v -1.097600 1.232000 1.344000
v -1.097600 1.680000 1.344000
v -1.097600 1.232000 0.784000
v -1.097600 1.680000 0.784000
v -1.041600 1.232000 1.344000
v -1.041600 1.680000 1.344000
v -1.041600 1.232000 0.784000
v -1.041600 1.680000 0.784000
v 1.041600 1.232000 1.344000
v 1.041600 1.680000 1.344000
v 1.041600 1.232000 0.784000
v 1.041600 1.680000 0.784000
v 1.097600 1.232000 1.344000
v 1.097600 1.680000 1.344000
v 1.097600 1.232000 0.784000
v 1.097600 1.680000 0.784000
v -1.005200 0.812000 2.366000
v -1.005200 0.980000 2.366000
v -1.005200 0.812000 2.310000
v -1.005200 0.980000 2.310000
v -0.786800 0.812000 2.366000
v -0.786800 0.980000 2.366000
v -0.786800 0.812000 2.310000
v -0.786800 0.980000 2.310000
v 0.786800 0.812000 2.366000
v 0.786800 0.980000 2.366000
v 0.786800 0.812000 2.310000
v 0.786800 0.980000 2.310000
v 1.005200 0.812000 2.366000
v 1.005200 0.980000 2.366000
v 1.005200 0.812000 2.310000
v 1.005200 0.980000 2.310000
v -0.560000 0.616000 2.366000
v -0.560000 0.840000 2.366000
v -0.560000 0.616000 2.310000
v -0.560000 0.840000 2.310000
v 0.560000 0.616000 2.366000
v 0.560000 0.840000 2.366000
v 0.560000 0.616000 2.310000
v 0.560000 0.840000 2.310000
v -1.120000 0.336000 2.464000
v -1.120000 0.532000 2.464000
v -1.120000 0.336000 2.296000
v -1.120000 0.532000 2.296000
v 1.120000 0.336000 2.464000
v 1.120000 0.532000 2.464000
v 1.120000 0.336000 2.296000
v 1.120000 0.532000 2.296000
v -1.120000 0.336000 -2.296000
v -1.120000 0.532000 -2.296000
v -1.120000 0.336000 -2.464000
v -1.120000 0.532000 -2.464000
v 1.120000 0.336000 -2.296000
v 1.120000 0.532000 -2.296000
v 1.120000 0.336000 -2.464000
v 1.120000 0.532000 -2.464000
v -1.086400 0.840000 1.316000
v -1.086400 1.036000 1.316000
v -1.086400 0.840000 -2.324000
v -1.086400 1.036000 -2.324000
v -1.058400 0.840000 1.316000
v -1.058400 1.036000 1.316000
v -1.058400 0.840000 -2.324000
v -1.058400 1.036000 -2.324000
v -1.086400 1.092000 1.316000
v -1.086400 1.176000 1.316000
v -1.086400 1.092000 -2.324000
v -1.086400 1.176000 -2.324000
v -1.058400 1.092000 1.316000
v -1.058400 1.176000 1.316000
v -1.058400 1.092000 -2.324000
v -1.058400 1.176000 -2.324000
v 1.058400 1.444141 -0.655962
v -1.086400 1.862000 -0.924000
v -1.092000 1.596000 -1.221500
v -1.058400 1.596000 -1.221500
v -1.092000 1.444141 -1.192038
v -1.058400 1.444141 -1.192038
v -1.092000 1.322359 -1.109488
v -1.058400 1.322359 -1.109488
v -1.092000 1.254775 -0.990200
v -1.058400 1.254775 -0.990200
v -1.092000 1.254775 -0.857800
v -1.058400 1.254775 -0.857800
v -1.092000 1.322359 -0.738512
v -1.058400 1.322359 -0.738512
v -1.092000 1.444141 -0.655962
v -1.058400 1.444141 -0.655962
v -1.092000 1.596000 -0.626500
v -1.058400 1.596000 -0.626500
v -1.092000 1.747859 -0.655962
v -1.058400 1.747859 -0.655962
v -1.092000 1.869641 -0.738512
v -1.058400 1.869641 -0.738512
v -1.092000 1.937225 -0.857800
v -1.058400 1.937225 -0.857800
v -1.092000 1.937225 -0.990200
v -1.058400 1.937225 -0.990200
v -1.092000 1.869641 -1.109488
v -1.058400 1.869641 -1.109488
v -1.092000 1.747859 -1.192038
v -1.058400 1.747859 -1.192038
v -1.086400 1.784090 -1.074472
v -1.086400 1.697794 -1.120602
v -1.086400 1.596000 -1.136800
v -1.086400 1.494206 -1.120602
v 1.092000 1.322359 -0.738512
v 1.058400 1.322359 -0.738512
v -1.086400 1.330000 -0.924000
v -1.080292 1.841752 -0.994525
v 1.092000 1.254775 -0.857800
v -1.075115 1.784090 -1.054313
v -1.071655 1.697794 -1.094262
v -1.070440 1.596000 -1.108290
v -1.071655 1.494206 -1.094262
v -1.075115 1.407910 -1.054313
v -1.080292 1.350248 -0.994525
v 1.058400 1.254775 -0.857800
v -1.075821 1.841752 -0.964718
v 1.092000 1.254775 -0.990200
v -1.066853 1.784090 -0.999236
v -1.060861 1.697794 -1.022301
v -1.058756 1.596000 -1.030400
v -1.060861 1.494206 -1.022301
v -1.066853 1.407910 -0.999236
v -1.075821 1.350248 -0.964718
v 1.058400 1.254775 -0.990200
v -1.074185 1.841752 -0.924000
v 1.092000 1.322359 -1.109488
v -1.063829 1.784090 -0.924000
v -1.056910 1.697794 -0.924000
v -1.054480 1.596000 -0.924000
v -1.056910 1.494206 -0.924000
v -1.063829 1.407910 -0.924000
v -1.074185 1.350248 -0.924000
v 1.058400 1.322359 -1.109488
v -1.075821 1.841752 -0.883283
v 1.092000 1.444141 -1.192038
v -1.066853 1.784090 -0.848764
v -1.060861 1.697794 -0.825699
v -1.058756 1.596000 -0.817600
v -1.060861 1.494206 -0.825699
v -1.066853 1.407910 -0.848764
v -1.075821 1.350248 -0.883283
v 1.058400 1.444141 -1.192038
v -1.080292 1.841752 -0.853475
v 1.092000 1.596000 -1.221500
v -1.075115 1.784090 -0.793687
v -1.071655 1.697794 -0.753738
v -1.070440 1.596000 -0.739710
v -1.071655 1.494206 -0.753738
v -1.075115 1.407910 -0.793687
v -1.080292 1.350248 -0.853475
v 1.058400 1.596000 -1.221500
v -1.086400 1.841752 -0.842565
v 1.086400 1.862000 -0.924000
v -1.086400 1.784090 -0.773528
v -1.086400 1.697794 -0.727399
v -1.086400 1.596000 -0.711200
v -1.086400 1.494206 -0.727399
v -1.086400 1.407910 -0.773528
v -1.086400 1.350248 -0.842565
v 0.700000 2.184000 -0.224000
v -1.092508 1.841752 -0.853475
v 1.086400 1.176000 -2.324000
v -1.097685 1.784090 -0.793687
v -1.101145 1.697794 -0.753738
v -1.102360 1.596000 -0.739710
v -1.101145 1.494206 -0.753738
v -1.097685 1.407910 -0.793687
v -1.092508 1.350248 -0.853475
v 1.086400 1.092000 -2.324000
v -1.096979 1.841752 -0.883283
v 1.086400 1.176000 1.316000
v -1.105947 1.784090 -0.848764
v -1.111939 1.697794 -0.825699
v -1.114044 1.596000 -0.817600
v -1.111939 1.494206 -0.825699
v -1.105947 1.407910 -0.848764
v -1.096979 1.350248 -0.883283
v 1.086400 1.092000 1.316000
v -1.098615 1.841752 -0.924000
v 1.058400 1.176000 -2.324000
v -1.108971 1.784090 -0.924000
v -1.115890 1.697794 -0.924000
v -1.118320 1.596000 -0.924000
v -1.115890 1.494206 -0.924000
v -1.108971 1.407910 -0.924000
v -1.098615 1.350248 -0.924000
v 1.058400 1.092000 -2.324000
v -1.096979 1.841752 -0.964718
v 1.058400 1.176000 1.316000
v -1.105947 1.784090 -0.999236
v -1.111939 1.697794 -1.022301
v -1.114044 1.596000 -1.030400
v -1.111939 1.494206 -1.022301
v -1.105947 1.407910 -0.999236
v -1.096979 1.350248 -0.964718
v 1.058400 1.092000 1.316000
v -1.092508 1.841752 -0.994525
v 1.086400 1.036000 -2.324000
v -1.097685 1.784090 -1.054313
v -1.101145 1.697794 -1.094262
v -1.102360 1.596000 -1.108290
v -1.101145 1.494206 -1.094262
v -1.097685 1.407910 -1.054313
v -1.092508 1.350248 -0.994525
v 1.086400 0.840000 -2.324000
v -1.086400 1.841752 -1.005435
v 1.086400 1.036000 1.316000
v 1.086400 0.840000 1.316000
v 1.058400 1.036000 -2.324000
v 1.058400 0.840000 -2.324000
v 1.058400 1.036000 1.316000
v -1.086400 1.407910 -1.074472
v -1.086400 1.350248 -1.005435
v 1.058400 0.840000 1.316000
v 1.092000 1.444141 -0.655962
v 1.058400 1.596000 -0.626500
v 1.092000 1.596000 -0.626500
v 1.058400 1.747859 -0.655962
v 1.092000 1.747859 -0.655962
v 1.058400 1.869641 -0.738512
v 1.092000 1.869641 -0.738512
v 1.058400 1.937225 -0.857800
v 1.092000 1.937225 -0.857800
v 1.058400 1.937225 -0.990200
v 1.092000 1.937225 -0.990200
v 1.058400 1.869641 -1.109488
v 1.092000 1.869641 -1.109488
v 1.058400 1.747859 -1.192038
v 1.092000 1.747859 -1.192038
v 1.086400 1.784090 -1.074472
v 1.086400 1.697794 -1.120602
v 1.086400 1.596000 -1.136800
v 1.086400 1.494206 -1.120602
v 0.700000 2.296000 0.336000
v 0.700000 2.184000 0.336000
v 1.086400 1.330000 -0.924000
v -0.700000 2.296000 -0.224000
v 1.092508 1.841752 -0.994525
v 1.097685 1.784090 -1.054313
v 1.101145 1.697794 -1.094262
v 1.102360 1.596000 -1.108290
v 1.101145 1.494206 -1.094262
v 1.097685 1.407910 -1.054313
v 1.092508 1.350248 -0.994525
v -0.700000 2.184000 -0.224000
v -0.700000 2.296000 0.336000
v 1.096979 1.841752 -0.964718
v 1.105947 1.784090 -0.999236
v 1.111939 1.697794 -1.022301
v 1.114044 1.596000 -1.030400
v 1.111939 1.494206 -1.022301
v 1.105947 1.407910 -0.999236
v 1.096979 1.350248 -0.964718
v -0.700000 2.184000 0.336000
v 0.980000 0.868000 -2.366000
v 1.098615 1.841752 -0.924000
v 1.108971 1.784090 -0.924000
v 1.115890 1.697794 -0.924000
v 1.118320 1.596000 -0.924000
v 1.115890 1.494206 -0.924000
v 1.108971 1.407910 -0.924000
v 1.098615 1.350248 -0.924000
v 0.980000 0.700000 -2.366000
v 0.980000 0.868000 -2.310000
v 1.096979 1.841752 -0.883283
v 1.105947 1.784090 -0.848764
v 1.111939 1.697794 -0.825699
v 1.114044 1.596000 -0.817600
v 1.111939 1.494206 -0.825699
v 1.105947 1.407910 -0.848764
v 1.096979 1.350248 -0.883283
v 0.980000 0.700000 -2.310000
v 0.812000 0.868000 -2.366000
v 1.092508 1.841752 -0.853475
v 1.097685 1.784090 -0.793687
v 1.101145 1.697794 -0.753738
v 1.102360 1.596000 -0.739710
v 1.101145 1.494206 -0.753738
v 1.097685 1.407910 -0.793687
v 1.092508 1.350248 -0.853475
v 0.812000 0.700000 -2.366000
v 0.812000 0.868000 -2.310000
v 1.086400 1.841752 -0.842565
v 1.086400 1.784090 -0.773528
v 1.086400 1.697794 -0.727399
v 1.086400 1.596000 -0.711200
v 1.086400 1.494206 -0.727399
v 1.086400 1.407910 -0.773528
v 1.086400 1.350248 -0.842565
v 0.812000 0.700000 -2.310000
v -0.812000 0.868000 -2.366000
v 1.080292 1.841752 -0.853475
v 1.075115 1.784090 -0.793687
v 1.071655 1.697794 -0.753738
v 1.070440 1.596000 -0.739710
v 1.071655 1.494206 -0.753738
v 1.075115 1.407910 -0.793687
v 1.080292 1.350248 -0.853475
v -0.812000 0.700000 -2.366000
v -0.812000 0.868000 -2.310000
v 1.075821 1.841752 -0.883283
v 1.066853 1.784090 -0.848764
v 1.060861 1.697794 -0.825699
v 1.058756 1.596000 -0.817600
v 1.060861 1.494206 -0.825699
v 1.066853 1.407910 -0.848764
v 1.075821 1.350248 -0.883283
v -0.812000 0.700000 -2.310000
v -0.980000 0.868000 -2.366000
v 1.074185 1.841752 -0.924000
v 1.063829 1.784090 -0.924000
v 1.056910 1.697794 -0.924000
v 1.054480 1.596000 -0.924000
v 1.056910 1.494206 -0.924000
v 1.063829 1.407910 -0.924000
v 1.074185 1.350248 -0.924000
v -0.980000 0.700000 -2.366000
v -0.980000 0.868000 -2.310000
v 1.075821 1.841752 -0.964718
v 1.066853 1.784090 -0.999236
v 1.060861 1.697794 -1.022301
v 1.058756 1.596000 -1.030400
v 1.060861 1.494206 -1.022301
v 1.066853 1.407910 -0.999236
v 1.075821 1.350248 -0.964718
v -0.980000 0.700000 -2.310000
v 0.021000 2.072000 -2.366000
v 1.080292 1.841752 -0.994525
v 1.075115 1.784090 -1.054313
v 1.071655 1.697794 -1.094262
v 1.070440 1.596000 -1.108290
v 1.071655 1.494206 -1.094262
v 1.075115 1.407910 -1.054313
v 1.080292 1.350248 -0.994525
v 0.021000 0.504000 -2.366000
v 0.021000 2.072000 -2.310000
v 1.086400 1.841752 -1.005435
v 0.021000 0.504000 -2.310000
v -0.021000 2.072000 -2.366000
v -0.021000 0.504000 -2.366000
v -0.021000 2.072000 -2.310000
v 1.086400 1.407910 -1.074472
v 1.086400 1.350248 -1.005435
v -0.021000 0.504000 -2.310000
v 0.700000 2.296000 -0.224000
vn 1.0000 -0.0000 -0.0000
vn -0.0000 -0.2588 -0.9659
vn -0.0000 -0.7071 -0.7071
vn -0.0000 1.0000 -0.0000
vn -0.0000 -0.9239 0.3827
vn -0.0000 -0.9659 -0.2588
vn -0.0000 -0.3827 0.9239
vn -0.0000 -0.9659 0.2588
vn -0.0000 0.9239 0.3827
vn -0.0000 0.5000 0.8660
vn -0.0000 -0.7071 0.7071
vn -0.0000 0.9239 -0.3827
vn -0.0000 -0.9239 -0.3827
vn -0.0000 -0.2588 0.9659
vn -0.0000 -0.5000 0.8660
vn -0.0000 -1.0000 -0.0000
vn -0.0000 0.2588 0.9659
vn -0.0000 0.3827 0.9239
vn -0.0000 0.7071 0.7071
vn -0.0000 -0.5000 -0.8660
vn -0.0000 -0.3827 -0.9239
vn -0.0000 0.9659 0.2588
vn -0.0000 0.9659 -0.2588
vn -0.0000 0.7071 -0.7071
vn -0.0000 0.2588 -0.9659
vn -1.0000 -0.0000 -0.0000
vn -0.0000 0.3827 -0.9239
vn -0.0000 0.5000 -0.8660
vn -0.0000 -0.0000 -1.0000
vn -0.0000 -0.0000 1.0000
vn -0.0000 0.6402 0.7682
vn -0.0000 -0.6428 -0.7660
vn -0.0000 0.6428 0.7660
vn -0.0000 -0.7660 0.6428
vn -0.0000 0.7660 -0.6428
vn 0.9835 -0.1766 0.0395
vn 0.7666 -0.6318 -0.1150
vn -0.0000 -0.1905 -0.9817
vn 0.9960 0.0799 0.0400
vn 0.7666 0.6318 -0.1150
vn -0.0000 -0.5611 -0.8278
vn 0.8557 -0.5163 -0.0344
vn 0.9611 -0.2358 -0.1442
vn -0.0000 -0.8701 -0.4929
vn 0.9960 0.0799 -0.0400
vn 0.9832 -0.1077 -0.1475
vn 0.9835 0.1766 -0.0395
vn 0.9884 0.0322 -0.1483
vn -0.0000 -0.8701 0.4929
vn 0.9989 0.0238 -0.0401
vn 0.8700 0.0775 -0.4870
vn -0.0000 -0.5611 0.8278
vn 0.9835 -0.1766 -0.0395
vn 0.3958 -0.8912 -0.2216
vn -0.0000 -0.1905 0.9817
vn 0.8557 0.5163 -0.0344
vn 0.3959 0.8912 -0.2216
vn -0.0000 0.1905 0.9817
vn 0.9989 -0.0238 -0.0401
vn 0.8700 -0.0775 -0.4870
vn -0.0000 0.5611 0.8278
vn 0.9960 -0.0799 -0.0400
vn 0.7532 0.5048 -0.4217
vn -0.0000 0.8701 0.4929
vn 0.9611 0.2358 -0.1442
vn 0.8443 -0.2526 -0.4726
vn 0.9884 -0.0322 -0.1483
vn 0.8443 0.2526 -0.4726
vn -0.0000 0.8701 -0.4929
vn 0.7532 -0.5048 -0.4217
vn -0.0000 0.5611 -0.8278
vn 0.8557 0.5163 0.0344
vn 0.9832 0.1077 -0.1475
vn -0.0000 0.1905 -0.9817
vn 0.9989 -0.0238 0.0401
vn 0.9835 0.1766 0.0395
vn 0.8557 -0.5163 0.0344
vn 0.9960 -0.0799 0.0400
vn 0.9989 0.0238 0.0401
vn 0.9832 0.1077 0.1475
vn 0.9884 -0.0322 0.1483
vn 0.9611 0.2358 0.1442
vn 0.7666 -0.6318 0.1150
vn 0.9832 -0.1077 0.1475
vn 0.9884 0.0322 0.1483
vn 0.7666 0.6318 0.1150
vn 0.9611 -0.2358 0.1442
vn 0.7532 0.5048 0.4217
vn 0.3958 -0.8912 0.2216
vn 0.8443 -0.2526 0.4726
vn 0.8700 0.0775 0.4870
vn 0.3958 0.8912 0.2216
vn 0.7532 -0.5048 0.4217
vn 0.8443 0.2526 0.4726
vn 0.8700 -0.0775 0.4870
vn -0.8700 0.0775 0.4870
vn -0.3958 0.8912 0.2216
vn -0.7532 -0.5048 0.4217
vn -0.8443 0.2526 0.4726
vn -0.8700 -0.0775 0.4870
vn -0.7532 0.5048 0.4217
vn -0.3958 -0.8912 0.2216
vn -0.8443 -0.2526 0.4726
vn -0.7666 0.6318 0.1150
vn -0.9611 -0.2358 0.1442
vn -0.9832 0.1077 0.1475
vn -0.9884 -0.0322 0.1483
vn -0.9611 0.2358 0.1442
vn -0.7666 -0.6318 0.1150
vn -0.9832 -0.1077 0.1475
vn -0.9884 0.0322 0.1483
vn -0.9989 -0.0238 0.0401
vn -0.9835 0.1766 0.0395
vn -0.8557 -0.5163 0.0344
vn -0.9960 -0.0799 0.0400
vn -0.9989 0.0238 0.0401
vn -0.8557 0.5163 0.0344
vn -0.9835 -0.1766 0.0395
vn -0.9960 0.0799 0.0400
vn -0.8557 -0.5163 -0.0344
vn -0.9960 -0.0799 -0.0400
vn -0.9989 0.0238 -0.0401
vn -0.8557 0.5163 -0.0344
vn -0.9835 -0.1766 -0.0395
vn -0.9960 0.0799 -0.0400
vn -0.9989 -0.0238 -0.0401
vn -0.9835 0.1766 -0.0395
vn -0.7666 0.6318 -0.1150
vn -0.9611 -0.2358 -0.1442
vn -0.9832 0.1077 -0.1475
vn -0.9884 -0.0322 -0.1483
vn -0.9611 0.2358 -0.1442
vn -0.7666 -0.6318 -0.1150
vn -0.9832 -0.1077 -0.1475
vn -0.9884 0.0322 -0.1483
vn -0.7532 -0.5048 -0.4217
vn -0.8443 0.2526 -0.4726
vn -0.8700 -0.0775 -0.4870
vn -0.7532 0.5048 -0.4217
vn -0.3958 -0.8912 -0.2216
vn -0.8443 -0.2526 -0.4726
vn -0.8700 0.0775 -0.4870
vn -0.3958 0.8912 -0.2216
s 0
usemtl EF_Tyre
f 3//2 4//2 6//2 5//2
f 55//2 56//2 58//2 57//2
f 5//3 6//3 8//3 7//3
f 7//6 8//6 10//6 9//6
f 9//8 10//8 12//8 11//8
f 11//11 12//11 14//11 13//11
f 13//14 14//14 16//14 15//14
f 15//17 16//17 18//17 17//17
f 17//19 18//19 20//19 19//19
f 19//22 20//22 22//22 21//22
f 21//23 22//23 24//23 23//23
f 6//1 4//1 26//1 24//1 22//1 20//1 18//1 16//1 14//1 12//1 10//1 8//1
f 23//24 24//24 26//24 25//24
f 25//25 26//25 4//25 3//25
f 3//26 5//26 7//26 9//26 11//26 13//26 15//26 17//26 19//26 21//26 23//26 25//26
f 59//6 60//6 62//6 61//6
f 57//3 58//3 60//3 59//3
f 61//8 62//8 64//8 63//8
f 63//11 64//11 66//11 65//11
f 65//14 66//14 68//14 67//14
f 67//17 68//17 70//17 69//17
f 69//19 70//19 72//19 71//19
f 71//22 72//22 74//22 73//22
f 73//23 74//23 76//23 75//23
f 61//26 63//26 65//26 67//26 69//26 71//26 73//26 75//26 77//26 55//26 57//26 59//26
f 75//24 76//24 78//24 77//24
f 107//2 108//2 110//2 109//2
f 77//25 78//25 56//25 55//25
f 64//1 62//1 60//1 58//1 56//1 78//1 76//1 74//1 72//1 70//1 68//1 66//1
f 111//6 112//6 114//6 113//6
f 109//3 110//3 112//3 111//3
f 113//8 114//8 116//8 115//8
f 115//11 116//11 118//11 117//11
f 117//14 118//14 120//14 119//14
f 119//17 120//17 122//17 121//17
f 159//2 160//2 162//2 161//2
f 121//19 122//19 124//19 123//19
f 123//22 124//22 126//22 125//22
f 125//23 126//23 128//23 127//23
f 116//1 114//1 112//1 110//1 108//1 130//1 128//1 126//1 124//1 122//1 120//1 118//1
f 127//24 128//24 130//24 129//24
f 129//25 130//25 108//25 107//25
f 109//26 111//26 113//26 115//26 117//26 119//26 121//26 123//26 125//26 127//26 129//26 107//26
f 163//6 164//6 166//6 165//6
f 161//3 162//3 164//3 163//3
f 165//8 166//8 168//8 167//8
f 167//11 168//11 170//11 169//11
f 169//14 170//14 172//14 171//14
f 171//17 172//17 174//17 173//17
f 173//19 174//19 176//19 175//19
f 175//22 176//22 178//22 177//22
f 177//23 178//23 180//23 179//23
f 168//1 166//1 164//1 162//1 160//1 182//1 180//1 178//1 176//1 174//1 172//1 170//1
f 179//24 180//24 182//24 181//24
f 181//25 182//25 160//25 159//25
f 165//26 167//26 169//26 171//26 173//26 175//26 177//26 179//26 181//26 159//26 161//26 163//26
usemtl EF_Metal
f 86//1 84//1 82//1 80//1 94//1 92//1 90//1 88//1
f 31//5 32//5 34//5 33//5
f 36//1 34//1 32//1 30//1 28//1 42//1 40//1 38//1
f 85//7 86//7 88//7 87//7
f 37//9 38//9 40//9 39//9
f 91//12 92//12 94//12 93//12
f 29//13 30//13 32//13 31//13
f 35//18 36//18 38//18 37//18
f 27//21 28//21 30//21 29//21
f 83//5 84//5 86//5 85//5
f 190//1 188//1 186//1 184//1 198//1 196//1 194//1 192//1
f 39//12 40//12 42//12 41//12
f 33//7 34//7 36//7 35//7
f 41//27 42//27 28//27 27//27
f 41//26 27//26 29//26 31//26 33//26 35//26 37//26 39//26
f 89//9 90//9 92//9 91//9
f 81//13 82//13 84//13 83//13
f 87//18 88//18 90//18 89//18
f 79//21 80//21 82//21 81//21
f 135//5 136//5 138//5 137//5
f 143//26 145//26 131//26 133//26 135//26 137//26 139//26 141//26
f 93//27 94//27 80//27 79//27
f 91//26 93//26 79//26 81//26 83//26 85//26 87//26 89//26
f 141//9 142//9 144//9 143//9
f 133//13 134//13 136//13 135//13
f 139//18 140//18 142//18 141//18
f 131//21 132//21 134//21 133//21
f 187//5 188//5 190//5 189//5
f 143//12 144//12 146//12 145//12
f 137//7 138//7 140//7 139//7
f 145//27 146//27 132//27 131//27
f 132//1 146//1 144//1 142//1 140//1 138//1 136//1 134//1
f 193//9 194//9 196//9 195//9
f 185//13 186//13 188//13 187//13
f 191//18 192//18 194//18 193//18
f 183//21 184//21 186//21 185//21
f 195//12 196//12 198//12 197//12
f 189//7 190//7 192//7 191//7
f 197//27 198//27 184//27 183//27
f 195//26 197//26 183//26 185//26 187//26 189//26 191//26 193//26
f 281//26 282//26 284//26 283//26
f 283//29 284//29 288//29 287//29
f 287//1 288//1 286//1 285//1
f 285//30 286//30 282//30 281//30
f 283//16 287//16 285//16 281//16
f 288//4 284//4 282//4 286//4
f 289//26 290//26 292//26 291//26
f 291//29 292//29 296//29 295//29
f 295//1 296//1 294//1 293//1
f 293//30 294//30 290//30 289//30
f 291//16 295//16 293//16 289//16
f 296//4 292//4 290//4 294//4
usemtl EF_GreyDark
f 50//1 48//1 46//1 44//1 54//1 52//1
f 100//1 98//1 96//1 106//1 104//1 102//1
f 155//4 156//4 158//4 157//4
f 49//10 50//10 52//10 51//10
f 47//15 48//15 50//15 49//15
f 45//16 46//16 48//16 47//16
f 51//4 52//4 54//4 53//4
f 43//20 44//20 46//20 45//20
f 153//10 154//10 156//10 155//10
f 53//28 54//28 44//28 43//28
f 51//26 53//26 43//26 45//26 47//26 49//26
f 101//10 102//10 104//10 103//10
f 97//16 98//16 100//16 99//16
f 99//15 100//15 102//15 101//15
f 103//4 104//4 106//4 105//4
f 95//20 96//20 98//20 97//20
f 149//16 150//16 152//16 151//16
f 216//4 212//4 1//4 214//4
f 105//28 106//28 96//28 95//28
f 103//26 105//26 95//26 97//26 99//26 101//26
f 151//15 152//15 154//15 153//15
f 156//1 154//1 152//1 150//1 148//1 158//1
f 211//16 215//16 213//16 2//16
f 147//20 148//20 150//20 149//20
f 2//26 1//26 212//26 211//26
f 157//28 158//28 148//28 147//28
f 147//26 149//26 151//26 153//26 155//26 157//26
f 205//10 206//10 208//10 207//10
f 203//15 204//15 206//15 205//15
f 201//16 202//16 204//16 203//16
f 207//4 208//4 210//4 209//4
f 199//20 200//20 202//20 201//20
f 211//29 212//29 216//29 215//29
f 215//1 216//1 214//1 213//1
f 201//26 203//26 205//26 207//26 209//26 199//26
f 213//30 214//30 1//30 2//30
f 209//28 210//28 200//28 199//28
f 204//1 202//1 200//1 210//1 208//1 206//1
f 273//26 274//26 276//26 275//26
f 275//29 276//29 280//29 279//29
f 279//1 280//1 278//1 277//1
f 277//30 278//30 274//30 273//30
f 275//16 279//16 277//16 273//16
f 280//4 276//4 274//4 278//4
f 587//26 584//26 582//26 583//26
f 583//29 582//29 570//29 578//29
f 578//1 570//1 579//1 581//1
f 581//30 579//30 584//30 587//30
f 583//16 578//16 581//16 587//16
f 570//4 582//4 584//4 579//4
usemtl EF_White
f 223//1 224//1 222//1 221//1
f 219//29 220//29 224//29 223//29
f 217//26 218//26 220//26 219//26
f 221//30 222//30 218//30 217//30
f 219//16 223//16 221//16 217//16
f 224//4 220//4 218//4 222//4
f 225//26 226//26 227//26 217//26
f 217//29 227//29 230//29 221//29
f 221//1 230//1 229//1 228//1
f 228//30 229//30 226//30 225//30
f 217//16 221//16 228//16 225//16
f 230//4 227//4 226//4 229//4
f 218//26 227//26 231//26
f 230//1 222//1 232//1
f 227//16 230//16 232//16 231//16
f 231//31 232//31 222//31 218//31
f 218//29 222//29 230//29 227//29
f 375//36 374//36 383//36 384//36
f 349//37 357//37 366//37
f 371//39 370//39 379//39 380//39
f 350//40 314//40 359//40
f 349//42 366//42 375//42
f 357//43 356//43 365//43 366//43
f 362//45 361//45 370//45 371//45
f 356//46 355//46 364//46 365//46
f 361//47 359//47 368//47 370//47
f 354//48 353//48 362//48 363//48
f 363//50 362//50 371//50 372//50
f 345//51 344//51 353//51 354//51
f 366//53 365//53 374//53 375//53
f 349//54 456//54 357//54
f 359//56 314//56 368//56
f 449//57 314//57 350//57
f 364//59 363//59 372//59 373//59
f 346//60 345//60 354//60 355//60
f 365//62 364//62 373//62 374//62
f 343//63 449//63 350//63 352//63
f 352//65 350//65 359//65 361//65
f 455//66 346//66 355//66 356//66
f 355//67 354//67 363//67 364//67
f 344//68 343//68 352//68 353//68
f 456//70 455//70 356//70 357//70
f 368//72 314//72 377//72
f 353//73 352//73 361//73 362//73
f 373//75 372//75 381//75 382//75
f 370//76 368//76 377//76 379//76
f 349//77 375//77 384//77
f 374//78 373//78 382//78 383//78
f 372//79 371//79 380//79 381//79
f 380//80 379//80 388//80 389//80
f 382//81 381//81 390//81 391//81
f 379//82 377//82 386//82 388//82
f 349//83 384//83 393//83
f 383//84 382//84 391//84 392//84
f 381//85 380//85 389//85 390//85
f 377//86 314//86 386//86
f 384//87 383//87 392//87 393//87
f 388//88 386//88 395//88 397//88
f 349//89 393//89 402//89
f 392//90 391//90 400//90 401//90
f 390//91 389//91 398//91 399//91
f 386//92 314//92 395//92
f 393//93 392//93 401//93 402//93
f 389//94 388//94 397//94 398//94
f 391//95 390//95 399//95 400//95
f 399//96 398//96 407//96 408//96
f 395//97 314//97 404//97
f 402//98 401//98 410//98 411//98
f 398//99 397//99 406//99 407//99
f 400//100 399//100 408//100 409//100
f 397//101 395//101 404//101 406//101
f 349//102 402//102 411//102
f 401//103 400//103 409//103 410//103
f 404//104 314//104 413//104
f 411//105 410//105 419//105 420//105
f 407//106 406//106 415//106 416//106
f 409//107 408//107 417//107 418//107
f 406//108 404//108 413//108 415//108
f 349//109 411//109 420//109
f 410//110 409//110 418//110 419//110
f 408//111 407//111 416//111 417//111
f 418//112 417//112 426//112 427//112
f 415//113 413//113 422//113 424//113
f 349//114 420//114 429//114
f 419//115 418//115 427//115 428//115
f 417//116 416//116 425//116 426//116
f 413//117 314//117 422//117
f 420//118 419//118 428//118 429//118
f 416//119 415//119 424//119 425//119
f 349//120 429//120 438//120
f 428//121 427//121 436//121 437//121
f 426//122 425//122 434//122 435//122
f 422//123 314//123 431//123
f 429//124 428//124 437//124 438//124
f 425//125 424//125 433//125 434//125
f 427//126 426//126 435//126 436//126
f 424//127 422//127 431//127 433//127
f 431//128 314//128 440//128
f 438//129 437//129 446//129 447//129
f 434//130 433//130 442//130 443//130
f 436//131 435//131 444//131 445//131
f 433//132 431//132 440//132 442//132
f 349//133 438//133 447//133
f 437//134 436//134 445//134 446//134
f 435//135 434//135 443//135 444//135
f 447//136 446//136 455//136 456//136
f 443//137 442//137 343//137 344//137
f 445//138 444//138 345//138 346//138
f 442//139 440//139 449//139 343//139
f 349//140 447//140 456//140
f 446//141 445//141 346//141 455//141
f 444//142 443//142 344//142 345//142
f 440//143 314//143 449//143
f 479//77 505//77 514//77
f 486//46 485//46 494//46 495//46
f 504//78 503//78 512//78 513//78
f 487//43 486//43 495//43 496//43
f 494//59 493//59 502//59 503//59
f 481//40 396//40 490//40
f 492//45 491//45 500//45 501//45
f 484//48 483//48 492//48 493//48
f 491//47 490//47 499//47 500//47
f 485//67 484//67 493//67 494//67
f 495//62 494//62 503//62 504//62
f 475//51 474//51 483//51 484//51
f 496//53 495//53 504//53 505//53
f 580//57 396//57 481//57
f 493//50 492//50 501//50 502//50
f 476//60 475//60 484//60 485//60
f 490//56 396//56 499//56
f 479//54 586//54 487//54
f 479//42 496//42 505//42
f 473//63 580//63 481//63 482//63
f 483//73 482//73 491//73 492//73
f 586//70 585//70 486//70 487//70
f 482//65 481//65 490//65 491//65
f 585//66 476//66 485//66 486//66
f 474//68 473//68 482//68 483//68
f 502//79 501//79 510//79 511//79
f 479//37 487//37 496//37
f 500//76 499//76 508//76 509//76
f 501//39 500//39 509//39 510//39
f 503//75 502//75 511//75 512//75
f 505//36 504//36 513//36 514//36
f 499//72 396//72 508//72
f 509//82 508//82 517//82 518//82
f 510//80 509//80 518//80 519//80
f 512//81 511//81 520//81 521//81
f 514//87 513//87 522//87 523//87
f 508//86 396//86 517//86
f 511//85 510//85 519//85 520//85
f 479//83 514//83 523//83
f 513//84 512//84 521//84 522//84
f 521//95 520//95 529//95 530//95
f 523//93 522//93 531//93 532//93
f 517//92 396//92 526//92
f 520//91 519//91 528//91 529//91
f 479//89 523//89 532//89
f 522//90 521//90 530//90 531//90
f 518//88 517//88 526//88 527//88
f 519//94 518//94 527//94 528//94
f 526//97 396//97 535//97
f 529//96 528//96 537//96 538//96
f 479//102 532//102 541//102
f 531//103 530//103 539//103 540//103
f 527//101 526//101 535//101 536//101
f 528//99 527//99 536//99 537//99
f 530//100 529//100 538//100 539//100
f 532//98 531//98 540//98 541//98
f 479//109 541//109 550//109
f 540//110 539//110 548//110 549//110
f 536//108 535//108 544//108 545//108
f 537//106 536//106 545//106 546//106
f 539//107 538//107 547//107 548//107
f 541//105 540//105 549//105 550//105
f 535//104 396//104 544//104
f 538//111 537//111 546//111 547//111
f 545//113 544//113 553//113 554//113
f 546//119 545//119 554//119 555//119
f 548//112 547//112 556//112 557//112
f 550//118 549//118 558//118 559//118
f 544//117 396//117 553//117
f 547//116 546//116 555//116 556//116
f 479//114 550//114 559//114
f 549//115 548//115 557//115 558//115
f 559//124 558//124 567//124 568//124
f 553//123 396//123 562//123
f 556//122 555//122 564//122 565//122
f 479//120 559//120 568//120
f 558//121 557//121 566//121 567//121
f 554//127 553//127 562//127 563//127
f 555//125 554//125 563//125 564//125
f 557//126 556//126 565//126 566//126
f 562//128 396//128 571//128
f 565//135 564//135 573//135 574//135
f 479//133 568//133 577//133
f 567//134 566//134 575//134 576//134
f 563//132 562//132 571//132 572//132
f 564//130 563//130 572//130 573//130
f 566//131 565//131 574//131 575//131
f 568//129 567//129 576//129 577//129
f 576//141 575//141 476//141 585//141
f 572//139 571//139 580//139 473//139
f 573//137 572//137 473//137 474//137
f 575//138 574//138 475//138 476//138
f 577//136 576//136 585//136 586//136
f 571//143 396//143 580//143
f 574//142 573//142 474//142 475//142
f 479//140 577//140 586//140
usemtl EF_Glass
f 233//26 234//26 236//26 235//26
f 235//32 236//32 240//32 239//32
f 239//1 240//1 238//1 237//1
f 237//33 238//33 234//33 233//33
f 235//34 239//34 237//34 233//34
f 240//35 236//35 234//35 238//35
f 241//26 242//26 244//26 243//26
f 243//29 244//29 248//29 247//29
f 247//1 248//1 246//1 245//1
f 245//30 246//30 242//30 241//30
f 243//16 247//16 245//16 241//16
f 248//4 244//4 242//4 246//4
f 249//26 250//26 252//26 251//26
f 251//29 252//29 256//29 255//29
f 255//1 256//1 254//1 253//1
f 253//30 254//30 250//30 249//30
f 251//16 255//16 253//16 249//16
f 256//4 252//4 250//4 254//4
usemtl EF_Light
f 257//26 258//26 260//26 259//26
f 259//29 260//29 264//29 263//29
f 263//1 264//1 262//1 261//1
f 261//30 262//30 258//30 257//30
f 259//16 263//16 261//16 257//16
f 264//4 260//4 258//4 262//4
f 265//26 266//26 268//26 267//26
f 267//29 268//29 272//29 271//29
f 271//1 272//1 270//1 269//1
f 269//30 270//30 266//30 265//30
f 267//16 271//16 269//16 265//16
f 272//4 268//4 266//4 270//4
usemtl EF_Accent
f 297//26 298//26 300//26 299//26
f 299//29 300//29 304//29 303//29
f 303//1 304//1 302//1 301//1
f 301//30 302//30 298//30 297//30
f 299//16 303//16 301//16 297//16
f 304//4 300//4 298//4 302//4
f 315//38 316//38 318//38 317//38
f 317//41 318//41 320//41 319//41
f 319//44 320//44 322//44 321//44
f 321//16 322//16 324//16 323//16
f 323//49 324//49 326//49 325//49
f 325//52 326//52 328//52 327//52
f 327//55 328//55 330//55 329//55
f 329//58 330//58 332//58 331//58
f 331//61 332//61 334//61 333//61
f 333//64 334//64 336//64 335//64
f 335//4 336//4 338//4 337//4
f 337//69 338//69 340//69 339//69
f 318//1 316//1 342//1 340//1 338//1 336//1 334//1 332//1 330//1 328//1 326//1 324//1 322//1 320//1
f 339//71 340//71 342//71 341//71
f 341//74 342//74 316//74 315//74
f 315//26 317//26 319//26 321//26 323//26 325//26 327//26 329//26 331//26 333//26 335//26 337//26 339//26 341//26
f 457//26 454//26 452//26 453//26
f 453//29 452//29 441//29 448//29
f 448//1 441//1 450//1 451//1
f 451//30 450//30 454//30 457//30
f 453//16 448//16 451//16 457//16
f 441//4 452//4 454//4 450//4
f 394//38 387//38 378//38 385//38
f 385//41 378//41 369//41 376//41
f 376//44 369//44 360//44 367//44
f 367//16 360//16 351//16 358//16
f 358//49 351//49 347//49 348//49
f 348//52 347//52 458//52 313//52
f 313//55 458//55 460//55 459//55
f 459//58 460//58 462//58 461//58
f 461//61 462//61 464//61 463//61
f 463//64 464//64 466//64 465//64
f 465//4 466//4 468//4 467//4
f 467//69 468//69 470//69 469//69
f 378//1 387//1 472//1 470//1 468//1 466//1 464//1 462//1 460//1 458//1 347//1 351//1 360//1 369//1
f 469//71 470//71 472//71 471//71
f 471//74 472//74 387//74 394//74
f 394//26 385//26 376//26 367//26 358//26 348//26 313//26 459//26 461//26 463//26 465//26 467//26 469//26 471//26
usemtl EF_Roof
f 305//26 306//26 308//26 307//26
f 307//29 308//29 312//29 311//29
f 311//1 312//1 310//1 309//1
f 309//30 310//30 306//30 305//30
f 307//16 311//16 309//16 305//16
f 312//4 308//4 306//4 310//4
f 439//26 432//26 423//26 430//26
f 430//29 423//29 405//29 412//29
f 412//1 405//1 414//1 421//1
f 421//30 414//30 432//30 439//30
f 430//16 412//16 421//16 439//16
f 405//4 423//4 432//4 414//4
f 497//26 489//26 480//26 488//26
f 488//29 480//29 588//29 403//29
f 403//1 588//1 477//1 478//1
f 478//30 477//30 489//30 497//30
f 488//16 403//16 478//16 497//16
f 588//4 480//4 489//4 477//4
usemtl EF_Comb
f 569//26 561//26 552//26 560//26
f 560//29 552//29 534//29 542//29
f 542//1 534//1 543//1 551//1
f 551//30 543//30 561//30 569//30
f 560//16 542//16 551//16 569//16
f 534//4 552//4 561//4 543//4
f 533//26 525//26 516//26 524//26
f 524//29 516//29 498//29 506//29
f 506//1 498//1 507//1 515//1
f 515//30 507//30 525//30 533//30
f 524//16 506//16 515//16 533//16
f 498//4 516//4 525//4 507//4
