# Blender 5.0.1
# www.blender.org
mtllib Egg_honey.mtl
o Egg_honey
v 0.000000 0.364000 0.000000
v 0.000000 0.000000 0.000000
v 0.008993 0.359437 -0.024708
v 0.017781 0.345976 -0.048852
v 0.026120 0.324293 -0.071764
v 0.033702 0.295475 -0.092595
v 0.040146 0.260967 -0.110300
v 0.045020 0.222499 -0.123692
v 0.047883 0.182000 -0.131557
v 0.046371 0.141501 -0.127402
v 0.042579 0.103033 -0.116986
v 0.036736 0.068525 -0.100932
v 0.029154 0.039707 -0.080101
v 0.020214 0.018024 -0.055538
v 0.010343 0.004563 -0.028418
v 0.016901 0.359437 -0.020142
v 0.033417 0.345976 -0.039825
v 0.049089 0.324293 -0.058502
v 0.063338 0.295475 -0.075484
v 0.075450 0.260967 -0.089918
v 0.084610 0.222499 -0.100835
v 0.089990 0.182000 -0.107246
v 0.087148 0.141501 -0.103859
v 0.080023 0.103033 -0.095368
v 0.069041 0.068525 -0.082280
v 0.054792 0.039707 -0.065299
v 0.037990 0.018024 -0.045275
v 0.019439 0.004563 -0.023167
v 0.022771 0.359437 -0.013147
v 0.045022 0.345976 -0.025994
v 0.066138 0.324293 -0.038185
v 0.085336 0.295475 -0.049269
v 0.101653 0.260967 -0.058690
v 0.113995 0.222499 -0.065815
v 0.121244 0.182000 -0.070000
v 0.117415 0.141501 -0.067789
v 0.107815 0.103033 -0.062247
v 0.093019 0.068525 -0.053705
v 0.073821 0.039707 -0.042621
v 0.051184 0.018024 -0.029551
v 0.026190 0.004563 -0.015121
v 0.025894 0.359437 -0.004566
v 0.051197 0.345976 -0.009027
v 0.075209 0.324293 -0.013261
v 0.097040 0.295475 -0.017111
v 0.115596 0.260967 -0.020383
v 0.129631 0.222499 -0.022857
v 0.137873 0.182000 -0.024311
v 0.133519 0.141501 -0.023543
v 0.122602 0.103033 -0.021618
v 0.105777 0.068525 -0.018651
v 0.083946 0.039707 -0.014802
v 0.058204 0.018024 -0.010263
v 0.029782 0.004563 -0.005251
v 0.025894 0.359437 0.004566
v 0.051197 0.345976 0.009027
v 0.075209 0.324293 0.013261
v 0.097040 0.295475 0.017111
v 0.115596 0.260967 0.020383
v 0.129631 0.222499 0.022857
v 0.137873 0.182000 0.024311
v 0.133519 0.141501 0.023543
v 0.122602 0.103033 0.021618
v 0.105777 0.068525 0.018651
v 0.083946 0.039707 0.014802
v 0.058204 0.018024 0.010263
v 0.029782 0.004563 0.005251
v 0.022771 0.359437 0.013147
v 0.045022 0.345976 0.025994
v 0.066138 0.324293 0.038185
v 0.085336 0.295475 0.049269
v 0.101653 0.260967 0.058690
v 0.113995 0.222499 0.065815
v 0.121244 0.182000 0.070000
v 0.117415 0.141501 0.067789
v 0.107815 0.103033 0.062247
v 0.093019 0.068525 0.053705
v 0.073821 0.039707 0.042621
v 0.051184 0.018024 0.029551
v 0.026190 0.004563 0.015121
v 0.016901 0.359437 0.020142
v 0.033417 0.345976 0.039825
v 0.049089 0.324293 0.058502
v 0.063339 0.295475 0.075484
v 0.075450 0.260967 0.089918
v 0.084610 0.222499 0.100835
v 0.089990 0.182000 0.107246
v 0.087148 0.141501 0.103859
v 0.080023 0.103033 0.095368
v 0.069041 0.068525 0.082280
v 0.054792 0.039707 0.065299
v 0.037990 0.018024 0.045275
v 0.019439 0.004563 0.023167
v 0.008993 0.359437 0.024708
v 0.017781 0.345976 0.048852
v 0.026120 0.324293 0.071764
v 0.033702 0.295475 0.092595
v 0.040146 0.260967 0.110300
v 0.045020 0.222499 0.123692
v 0.047883 0.182000 0.131557
v 0.046371 0.141501 0.127402
v 0.042579 0.103033 0.116986
v 0.036736 0.068525 0.100931
v 0.029154 0.039707 0.080101
v 0.020214 0.018024 0.055538
v 0.010343 0.004563 0.028418
v 0.000000 0.359437 0.026293
v 0.000000 0.345976 0.051987
v 0.000000 0.324293 0.076369
v 0.000000 0.295475 0.098537
v 0.000000 0.260967 0.117379
v 0.000000 0.222499 0.131630
v 0.000000 0.182000 0.140000
v 0.000000 0.141501 0.135579
v 0.000000 0.103033 0.124494
v 0.000000 0.068525 0.107409
v 0.000000 0.039707 0.085241
v 0.000000 0.018024 0.059102
v 0.000000 0.004563 0.030242
v -0.008993 0.359437 0.024708
v -0.017781 0.345976 0.048852
v -0.026120 0.324293 0.071764
v -0.033702 0.295475 0.092595
v -0.040146 0.260967 0.110300
v -0.045020 0.222499 0.123692
v -0.047883 0.182000 0.131557
v -0.046371 0.141501 0.127402
v -0.042579 0.103033 0.116986
v -0.036736 0.068525 0.100932
v -0.029154 0.039707 0.080101
v -0.020214 0.018024 0.055538
v -0.010343 0.004563 0.028418
v -0.016901 0.359437 0.020142
v -0.033417 0.345976 0.039825
v -0.049089 0.324293 0.058502
v -0.063338 0.295475 0.075484
v -0.075450 0.260967 0.089918
v -0.084610 0.222499 0.100835
v -0.089990 0.182000 0.107246
v -0.087148 0.141501 0.103859
v -0.080023 0.103033 0.095368
v -0.069041 0.068525 0.082280
v -0.054792 0.039707 0.065299
v -0.037990 0.018024 0.045275
v -0.019439 0.004563 0.023167
v -0.022771 0.359437 0.013147
v -0.045022 0.345976 0.025994
v -0.066138 0.324293 0.038185
v -0.085336 0.295475 0.049269
v -0.101653 0.260967 0.058690
v -0.113995 0.222499 0.065815
v -0.121244 0.182000 0.070000
v -0.117415 0.141501 0.067789
v -0.107815 0.103033 0.062247
v -0.093019 0.068525 0.053705
v -0.073821 0.039707 0.042621
v -0.051184 0.018024 0.029551
v -0.026190 0.004563 0.015121
v -0.025894 0.359437 0.004566
v -0.051197 0.345976 0.009028
v -0.075209 0.324293 0.013261
v -0.097040 0.295475 0.017111
v -0.115596 0.260967 0.020383
v -0.129631 0.222499 0.022857
v -0.137873 0.182000 0.024311
v -0.133519 0.141501 0.023543
v -0.122602 0.103033 0.021618
v -0.105777 0.068525 0.018651
v -0.083946 0.039707 0.014802
v -0.058204 0.018024 0.010263
v -0.029782 0.004563 0.005251
v -0.025894 0.359437 -0.004566
v -0.051197 0.345976 -0.009027
v -0.075209 0.324293 -0.013261
v -0.097040 0.295475 -0.017111
v -0.115596 0.260967 -0.020383
v -0.129631 0.222499 -0.022857
v -0.137873 0.182000 -0.024311
v -0.133519 0.141501 -0.023543
v -0.122602 0.103033 -0.021618
v -0.105777 0.068525 -0.018651
v -0.083946 0.039707 -0.014802
v -0.058204 0.018024 -0.010263
v -0.029782 0.004563 -0.005251
v -0.022771 0.359437 -0.013147
v -0.045022 0.345976 -0.025994
v -0.066138 0.324293 -0.038185
v -0.085336 0.295475 -0.049269
v -0.101653 0.260967 -0.058690
v -0.113995 0.222499 -0.065815
v -0.121244 0.182000 -0.070000
v -0.117415 0.141501 -0.067789
v -0.107815 0.103033 -0.062247
v -0.093019 0.068525 -0.053704
v -0.073821 0.039707 -0.042621
v -0.051184 0.018024 -0.029551
v -0.026190 0.004563 -0.015121
v -0.016901 0.359437 -0.020142
v -0.033417 0.345976 -0.039824
v -0.049089 0.324293 -0.058502
v -0.063339 0.295475 -0.075484
v -0.075450 0.260967 -0.089918
v -0.084610 0.222499 -0.100835
v -0.089990 0.182000 -0.107246
v -0.087148 0.141501 -0.103859
v -0.080023 0.103033 -0.095368
v -0.069041 0.068525 -0.082280
v -0.054792 0.039707 -0.065299
v -0.037990 0.018024 -0.045275
v -0.019439 0.004563 -0.023167
v -0.008993 0.359437 -0.024708
v -0.017781 0.345976 -0.048852
v -0.026120 0.324293 -0.071764
v -0.033702 0.295475 -0.092595
v -0.040146 0.260967 -0.110300
v -0.045020 0.222499 -0.123692
v -0.047883 0.182000 -0.131557
v -0.046371 0.141501 -0.127402
v -0.042579 0.103033 -0.116986
v -0.036736 0.068525 -0.100931
v -0.029154 0.039707 -0.080101
v -0.020214 0.018024 -0.055538
v -0.010343 0.004563 -0.028418
v -0.000000 0.359437 -0.026293
v -0.000000 0.345976 -0.051987
v -0.000000 0.324293 -0.076369
v -0.000000 0.295475 -0.098537
v -0.000000 0.260967 -0.117379
v -0.000000 0.222499 -0.131630
v -0.000000 0.182000 -0.140000
v -0.000000 0.141501 -0.135579
v -0.000000 0.103033 -0.124494
v -0.000000 0.068525 -0.107409
v -0.000000 0.039707 -0.085241
v -0.000000 0.018024 -0.059102
v -0.000000 0.004563 -0.030242
vn 0.1727 -0.1069 -0.9792
vn 0.0301 0.9848 -0.1709
vn 0.1671 -0.2730 -0.9474
vn 0.0816 0.8829 -0.4625
vn 0.1561 -0.4383 -0.8852
vn 0.1164 0.7422 -0.6600
vn 0.1384 -0.6038 -0.7850
vn 0.1384 0.6038 -0.7850
vn 0.1119 -0.7648 -0.6344
vn 0.1529 0.4736 -0.8674
vn 0.0743 -0.9038 -0.4215
vn 0.1631 0.3427 -0.9252
vn 0.0263 -0.9885 -0.1491
vn 0.1702 0.1994 -0.9650
vn 0.0868 0.9848 -0.1503
vn 0.4810 -0.2730 -0.8331
vn 0.2348 0.8829 -0.4067
vn 0.4494 -0.4383 -0.7784
vn 0.3351 0.7422 -0.5804
vn 0.3986 -0.6038 -0.6903
vn 0.3986 0.6038 -0.6903
vn 0.3221 -0.7648 -0.5579
vn 0.4404 0.4736 -0.7627
vn 0.2140 -0.9038 -0.3707
vn 0.4697 0.3427 -0.8136
vn 0.0757 -0.9885 -0.1312
vn 0.4900 0.1994 -0.8486
vn 0.4971 -0.1069 -0.8611
vn 0.7369 -0.2730 -0.6184
vn 0.3598 0.8829 -0.3019
vn 0.6886 -0.4383 -0.5778
vn 0.5134 0.7422 -0.4308
vn 0.6106 -0.6038 -0.5124
vn 0.6106 0.6038 -0.5124
vn 0.4935 -0.7648 -0.4141
vn 0.6747 0.4736 -0.5661
vn 0.3279 -0.9038 -0.2751
vn 0.7196 0.3427 -0.6039
vn 0.1160 -0.9885 -0.0973
vn 0.7507 0.1994 -0.6299
vn 0.7617 -0.1069 -0.6391
vn 0.1329 0.9848 -0.1116
vn 0.8446 -0.4383 -0.3074
vn 0.6298 0.7422 -0.2292
vn 0.7490 -0.6038 -0.2726
vn 0.7490 0.6038 -0.2726
vn 0.6054 -0.7648 -0.2203
vn 0.8276 0.4736 -0.3012
vn 0.4022 -0.9038 -0.1464
vn 0.8828 0.3427 -0.3213
vn 0.1423 -0.9885 -0.0518
vn 0.9208 0.1994 -0.3351
vn 0.9343 -0.1069 -0.3401
vn 0.1631 0.9848 -0.0594
vn 0.9040 -0.2730 -0.3290
vn 0.4413 0.8829 -0.1606
vn 0.6702 0.7422 -0.0000
vn 0.7971 -0.6038 -0.0000
vn 0.7971 0.6038 -0.0000
vn 0.6442 -0.7648 -0.0000
vn 0.8807 0.4736 -0.0000
vn 0.4280 -0.9038 -0.0000
vn 0.9394 0.3427 -0.0000
vn 0.1514 -0.9885 -0.0000
vn 0.9799 0.1994 -0.0000
vn 0.9943 -0.1069 -0.0000
vn 0.1735 0.9848 -0.0000
vn 0.9620 -0.2730 -0.0000
vn 0.4696 0.8829 -0.0000
vn 0.8989 -0.4383 -0.0000
vn 0.7490 -0.6038 0.2726
vn 0.7490 0.6038 0.2726
vn 0.6054 -0.7648 0.2203
vn 0.8276 0.4736 0.3012
vn 0.4022 -0.9038 0.1464
vn 0.8828 0.3427 0.3213
vn 0.1423 -0.9885 0.0518
vn 0.9208 0.1994 0.3351
vn 0.9343 -0.1069 0.3401
vn 0.1631 0.9848 0.0594
vn 0.9040 -0.2730 0.3290
vn 0.4413 0.8829 0.1606
vn 0.8446 -0.4383 0.3074
vn 0.6298 0.7422 0.2292
vn 0.6106 0.6038 0.5124
vn 0.4935 -0.7648 0.4141
vn 0.6747 0.4736 0.5661
vn 0.3279 -0.9038 0.2751
vn 0.7196 0.3427 0.6039
vn 0.1160 -0.9885 0.0973
vn 0.7507 0.1994 0.6299
vn 0.7617 -0.1069 0.6391
vn 0.1329 0.9848 0.1116
vn 0.7369 -0.2730 0.6184
vn 0.3598 0.8829 0.3019
vn 0.6886 -0.4383 0.5778
vn 0.5134 0.7422 0.4308
vn 0.6106 -0.6038 0.5124
vn 0.3221 -0.7648 0.5579
vn 0.4404 0.4736 0.7627
vn 0.2140 -0.9038 0.3707
vn 0.4697 0.3427 0.8136
vn 0.0757 -0.9885 0.1312
vn 0.4900 0.1994 0.8486
vn 0.4971 -0.1069 0.8611
vn 0.0868 0.9848 0.1503
vn 0.4810 -0.2730 0.8331
vn 0.2348 0.8829 0.4067
vn 0.4494 -0.4383 0.7784
vn 0.3351 0.7422 0.5804
vn 0.3986 -0.6038 0.6903
vn 0.3986 0.6038 0.6903
vn 0.0743 -0.9038 0.4215
vn 0.1631 0.3427 0.9252
vn 0.0263 -0.9885 0.1491
vn 0.1702 0.1994 0.9650
vn 0.1727 -0.1069 0.9792
vn 0.0301 0.9848 0.1709
vn 0.1671 -0.2730 0.9474
vn 0.0816 0.8829 0.4625
vn 0.1561 -0.4383 0.8852
vn 0.1164 0.7422 0.6600
vn 0.1384 -0.6038 0.7850
vn 0.1384 0.6038 0.7850
vn 0.1119 -0.7648 0.6344
vn 0.1529 0.4736 0.8674
vn -0.1631 0.3427 0.9252
vn -0.0263 -0.9885 0.1491
vn -0.1702 0.1994 0.9650
vn -0.1727 -0.1069 0.9792
vn -0.0301 0.9848 0.1709
vn -0.1671 -0.2730 0.9474
vn -0.0816 0.8829 0.4625
vn -0.1561 -0.4383 0.8852
vn -0.1164 0.7422 0.6600
vn -0.1384 -0.6038 0.7850
vn -0.1384 0.6038 0.7850
vn -0.1119 -0.7648 0.6344
vn -0.1529 0.4736 0.8674
vn -0.0743 -0.9038 0.4215
vn -0.0757 -0.9885 0.1312
vn -0.4900 0.1994 0.8486
vn -0.4971 -0.1069 0.8611
vn -0.0868 0.9848 0.1503
vn -0.4810 -0.2730 0.8331
vn -0.2348 0.8829 0.4067
vn -0.4494 -0.4383 0.7784
vn -0.3351 0.7422 0.5804
vn -0.3986 -0.6038 0.6903
vn -0.3986 0.6038 0.6903
vn -0.3221 -0.7648 0.5579
vn -0.4404 0.4736 0.7627
vn -0.2140 -0.9038 0.3707
vn -0.4697 0.3427 0.8136
vn -0.7507 0.1994 0.6299
vn -0.7617 -0.1069 0.6391
vn -0.1329 0.9848 0.1116
vn -0.7369 -0.2730 0.6184
vn -0.3598 0.8829 0.3019
vn -0.6886 -0.4383 0.5778
vn -0.5134 0.7422 0.4308
vn -0.6106 -0.6038 0.5124
vn -0.6106 0.6038 0.5124
vn -0.4935 -0.7648 0.4141
vn -0.6747 0.4736 0.5661
vn -0.3279 -0.9038 0.2751
vn -0.7196 0.3427 0.6039
vn -0.1160 -0.9885 0.0973
vn -0.9343 -0.1069 0.3401
vn -0.1631 0.9848 0.0594
vn -0.9040 -0.2730 0.3290
vn -0.4413 0.8829 0.1606
vn -0.8446 -0.4383 0.3074
vn -0.6298 0.7422 0.2292
vn -0.7490 -0.6038 0.2726
vn -0.7490 0.6038 0.2726
vn -0.6054 -0.7648 0.2203
vn -0.8276 0.4736 0.3012
vn -0.4022 -0.9038 0.1464
vn -0.8828 0.3427 0.3213
vn -0.1423 -0.9885 0.0518
vn -0.9208 0.1994 0.3351
vn -0.1736 0.9848 -0.0000
vn -0.9620 -0.2730 -0.0000
vn -0.4696 0.8829 -0.0000
vn -0.8989 -0.4383 -0.0000
vn -0.6702 0.7422 -0.0000
vn -0.7971 -0.6038 -0.0000
vn -0.7971 0.6038 -0.0000
vn -0.6442 -0.7648 -0.0000
vn -0.8807 0.4736 -0.0000
vn -0.4280 -0.9038 -0.0000
vn -0.9394 0.3427 -0.0000
vn -0.1514 -0.9885 -0.0000
vn -0.9799 0.1994 -0.0000
vn -0.9943 -0.1069 -0.0000
vn -0.9040 -0.2730 -0.3290
vn -0.4413 0.8829 -0.1606
vn -0.8446 -0.4383 -0.3074
vn -0.6298 0.7422 -0.2292
vn -0.7490 -0.6038 -0.2726
vn -0.7490 0.6038 -0.2726
vn -0.6054 -0.7648 -0.2203
vn -0.8276 0.4736 -0.3012
vn -0.4022 -0.9038 -0.1464
vn -0.8828 0.3427 -0.3213
vn -0.1423 -0.9885 -0.0518
vn -0.9208 0.1994 -0.3351
vn -0.9343 -0.1069 -0.3401
vn -0.1631 0.9848 -0.0594
vn -0.3598 0.8829 -0.3019
vn -0.6886 -0.4383 -0.5778
vn -0.5134 0.7422 -0.4308
vn -0.6106 -0.6038 -0.5124
vn -0.6106 0.6038 -0.5124
vn -0.4935 -0.7648 -0.4141
vn -0.6747 0.4736 -0.5661
vn -0.3279 -0.9038 -0.2751
vn -0.7196 0.3427 -0.6039
vn -0.1160 -0.9885 -0.0973
vn -0.7507 0.1994 -0.6299
vn -0.7617 -0.1069 -0.6391
vn -0.1330 0.9848 -0.1116
vn -0.7369 -0.2730 -0.6184
vn -0.4494 -0.4383 -0.7784
vn -0.3351 0.7422 -0.5804
vn -0.3986 -0.6038 -0.6903
vn -0.3986 0.6038 -0.6903
vn -0.3221 -0.7648 -0.5579
vn -0.4404 0.4736 -0.7627
vn -0.2140 -0.9038 -0.3707
vn -0.4697 0.3427 -0.8136
vn -0.0757 -0.9885 -0.1312
vn -0.4900 0.1994 -0.8486
vn -0.4971 -0.1069 -0.8611
vn -0.0868 0.9848 -0.1503
vn -0.4810 -0.2730 -0.8331
vn -0.2348 0.8829 -0.4067
vn -0.1384 -0.6038 -0.7850
vn -0.1384 0.6038 -0.7850
vn -0.1119 -0.7648 -0.6344
vn -0.1529 0.4736 -0.8674
vn -0.0743 -0.9038 -0.4215
vn -0.1631 0.3427 -0.9252
vn -0.0263 -0.9885 -0.1491
vn -0.1702 0.1994 -0.9650
vn -0.1727 -0.1069 -0.9792
vn -0.0301 0.9848 -0.1709
vn -0.1671 -0.2730 -0.9474
vn -0.0816 0.8829 -0.4625
vn -0.1561 -0.4383 -0.8852
vn -0.1164 0.7422 -0.6600
s 0
usemtl EF_Egg_honey_Shell
f 231//1 230//1 9//1 10//1
f 224//2 1//2 3//2
f 232//3 231//3 10//3 11//3
f 225//4 224//4 3//4 4//4
f 233//5 232//5 11//5 12//5
f 226//6 225//6 4//6 5//6
f 234//7 233//7 12//7 13//7
f 227//8 226//8 5//8 6//8
f 235//9 234//9 13//9 14//9
f 228//10 227//10 6//10 7//10
f 236//11 235//11 14//11 15//11
f 229//12 228//12 7//12 8//12
f 2//13 236//13 15//13
f 230//14 229//14 8//14 9//14
f 3//15 1//15 16//15
f 11//16 10//16 23//16 24//16
f 4//17 3//17 16//17 17//17
f 12//18 11//18 24//18 25//18
f 5//19 4//19 17//19 18//19
f 13//20 12//20 25//20 26//20
f 6//21 5//21 18//21 19//21
f 14//22 13//22 26//22 27//22
f 15//24 14//24 27//24 28//24
f 2//26 15//26 28//26
f 9//27 8//27 21//27 22//27
f 10//28 9//28 22//28 23//28
f 17//30 16//30 29//30 30//30
f 25//31 24//31 37//31 38//31
f 18//32 17//32 30//32 31//32
f 26//33 25//33 38//33 39//33
f 19//34 18//34 31//34 32//34
f 27//35 26//35 39//35 40//35
f 20//36 19//36 32//36 33//36
f 28//37 27//37 40//37 41//37
f 21//38 20//38 33//38 34//38
f 2//39 28//39 41//39
f 22//40 21//40 34//40 35//40
f 23//41 22//41 35//41 36//41
f 16//42 1//42 29//42
f 31//44 30//44 43//44 44//44
f 39//45 38//45 51//45 52//45
f 32//46 31//46 44//46 45//46
f 40//47 39//47 52//47 53//47
f 33//48 32//48 45//48 46//48
f 41//49 40//49 53//49 54//49
f 34//50 33//50 46//50 47//50
f 2//51 41//51 54//51
f 35//52 34//52 47//52 48//52
f 29//54 1//54 42//54
f 30//56 29//56 42//56 43//56
f 44//57 43//57 56//57 57//57
f 52//58 51//58 64//58 65//58
f 45//59 44//59 57//59 58//59
f 53//60 52//60 65//60 66//60
f 46//61 45//61 58//61 59//61
f 54//62 53//62 66//62 67//62
f 47//63 46//63 59//63 60//63
f 2//64 54//64 67//64
f 48//65 47//65 60//65 61//65
f 49//66 48//66 61//66 62//66
f 42//67 1//67 55//67
f 50//68 49//68 62//68 63//68
f 43//69 42//69 55//69 56//69
f 51//70 50//70 63//70 64//70
f 65//71 64//71 77//71 78//71
f 66//73 65//73 78//73 79//73
f 67//75 66//75 79//75 80//75
f 2//77 67//77 80//77
f 61//78 60//78 73//78 74//78
f 62//79 61//79 74//79 75//79
f 55//80 1//80 68//80
f 63//81 62//81 75//81 76//81
f 56//82 55//82 68//82 69//82
f 64//83 63//83 76//83 77//83
f 79//86 78//86 91//86 92//86
f 80//88 79//88 92//88 93//88
f 73//89 72//89 85//89 86//89
f 2//90 80//90 93//90
f 74//91 73//91 86//91 87//91
f 75//92 74//92 87//92 88//92
f 68//93 1//93 81//93
f 76//94 75//94 88//94 89//94
f 69//95 68//95 81//95 82//95
f 77//96 76//96 89//96 90//96
f 78//98 77//98 90//98 91//98
f 92//99 91//99 104//99 105//99
f 85//100 84//100 97//100 98//100
f 93//101 92//101 105//101 106//101
f 86//102 85//102 98//102 99//102
f 2//103 93//103 106//103
f 87//104 86//104 99//104 100//104
f 88//105 87//105 100//105 101//105
f 81//106 1//106 94//106
f 89//107 88//107 101//107 102//107
f 82//108 81//108 94//108 95//108
f 90//109 89//109 102//109 103//109
f 83//110 82//110 95//110 96//110
f 91//111 90//111 103//111 104//111
f 84//112 83//112 96//112 97//112
f 106//113 105//113 118//113 119//113
f 99//114 98//114 111//114 112//114
f 2//115 106//115 119//115
f 94//118 1//118 107//118
f 95//120 94//120 107//120 108//120
f 103//121 102//121 115//121 116//121
f 96//122 95//122 108//122 109//122
f 104//123 103//123 116//123 117//123
f 97//124 96//124 109//124 110//124
f 105//125 104//125 117//125 118//125
f 98//126 97//126 110//126 111//126
f 112//127 111//127 124//127 125//127
f 2//128 119//128 132//128
f 113//129 112//129 125//129 126//129
f 107//131 1//131 120//131
f 115//132 114//132 127//132 128//132
f 108//133 107//133 120//133 121//133
f 116//134 115//134 128//134 129//134
f 109//135 108//135 121//135 122//135
f 117//136 116//136 129//136 130//136
f 110//137 109//137 122//137 123//137
f 118//138 117//138 130//138 131//138
f 111//139 110//139 123//139 124//139
f 119//140 118//140 131//140 132//140
f 2//141 132//141 145//141
f 126//142 125//142 138//142 139//142
f 127//143 126//143 139//143 140//143
f 120//144 1//144 133//144
f 128//145 127//145 140//145 141//145
f 121//146 120//146 133//146 134//146
f 129//147 128//147 141//147 142//147
f 130//149 129//149 142//149 143//149
f 131//151 130//151 143//151 144//151
f 132//153 131//153 144//153 145//153
f 125//154 124//154 137//154 138//154
f 139//155 138//155 151//155 152//155
f 140//156 139//156 152//156 153//156
f 133//157 1//157 146//157
f 141//158 140//158 153//158 154//158
f 134//159 133//159 146//159 147//159
f 142//160 141//160 154//160 155//160
f 143//162 142//162 155//162 156//162
f 144//164 143//164 156//164 157//164
f 145//166 144//166 157//166 158//166
f 138//167 137//167 150//167 151//167
f 2//168 145//168 158//168
f 153//169 152//169 165//169 166//169
f 146//170 1//170 159//170
f 154//171 153//171 166//171 167//171
f 147//172 146//172 159//172 160//172
f 155//173 154//173 167//173 168//173
f 148//174 147//174 160//174 161//174
f 156//175 155//175 168//175 169//175
f 149//176 148//176 161//176 162//176
f 157//177 156//177 169//177 170//177
f 150//178 149//178 162//178 163//178
f 158//179 157//179 170//179 171//179
f 2//181 158//181 171//181
f 159//183 1//183 172//183
f 167//184 166//184 179//184 180//184
f 160//185 159//185 172//185 173//185
f 168//186 167//186 180//186 181//186
f 161//187 160//187 173//187 174//187
f 169//188 168//188 181//188 182//188
f 162//189 161//189 174//189 175//189
f 170//190 169//190 182//190 183//190
f 163//191 162//191 175//191 176//191
f 171//192 170//192 183//192 184//192
f 164//193 163//193 176//193 177//193
f 2//194 171//194 184//194
f 165//195 164//195 177//195 178//195
f 166//196 165//196 178//196 179//196
f 180//197 179//197 192//197 193//197
f 173//198 172//198 185//198 186//198
f 181//199 180//199 193//199 194//199
f 174//200 173//200 186//200 187//200
f 182//201 181//201 194//201 195//201
f 175//202 174//202 187//202 188//202
f 183//203 182//203 195//203 196//203
f 176//204 175//204 188//204 189//204
f 184//205 183//205 196//205 197//205
f 177//206 176//206 189//206 190//206
f 2//207 184//207 197//207
f 178//208 177//208 190//208 191//208
f 179//209 178//209 191//209 192//209
f 172//210 1//210 185//210
f 186//211 185//211 198//211 199//211
f 194//212 193//212 206//212 207//212
f 187//213 186//213 199//213 200//213
f 195//214 194//214 207//214 208//214
f 188//215 187//215 200//215 201//215
f 196//216 195//216 208//216 209//216
f 189//217 188//217 201//217 202//217
f 197//218 196//218 209//218 210//218
f 190//219 189//219 202//219 203//219
f 2//220 197//220 210//220
f 185//223 1//223 198//223
f 193//224 192//224 205//224 206//224
f 207//225 206//225 219//225 220//225
f 200//226 199//226 212//226 213//226
f 208//227 207//227 220//227 221//227
f 201//228 200//228 213//228 214//228
f 209//229 208//229 221//229 222//229
f 202//230 201//230 214//230 215//230
f 210//231 209//231 222//231 223//231
f 203//232 202//232 215//232 216//232
f 2//233 210//233 223//233
f 204//234 203//234 216//234 217//234
f 198//236 1//236 211//236
f 199//238 198//238 211//238 212//238
f 221//239 220//239 233//239 234//239
f 214//240 213//240 226//240 227//240
f 222//241 221//241 234//241 235//241
f 215//242 214//242 227//242 228//242
f 223//243 222//243 235//243 236//243
f 216//244 215//244 228//244 229//244
f 2//245 223//245 236//245
f 217//246 216//246 229//246 230//246
f 218//247 217//247 230//247 231//247
f 211//248 1//248 224//248
f 219//249 218//249 231//249 232//249
f 212//250 211//250 224//250 225//250
f 220//251 219//251 232//251 233//251
f 213//252 212//252 225//252 226//252
usemtl EF_Egg_honey_Spots
f 7//23 6//23 19//23 20//23
f 8//25 7//25 20//25 21//25
f 24//29 23//29 36//29 37//29
f 38//43 37//43 50//43 51//43
f 36//53 35//53 48//53 49//53
f 37//55 36//55 49//55 50//55
f 58//72 57//72 70//72 71//72
f 59//74 58//74 71//74 72//74
f 60//76 59//76 72//76 73//76
f 57//84 56//84 69//84 70//84
f 71//85 70//85 83//85 84//85
f 72//87 71//87 84//87 85//87
f 70//97 69//97 82//97 83//97
f 100//116 99//116 112//116 113//116
f 101//117 100//117 113//117 114//117
f 102//119 101//119 114//119 115//119
f 114//130 113//130 126//130 127//130
f 122//148 121//148 134//148 135//148
f 123//150 122//150 135//150 136//150
f 124//152 123//152 136//152 137//152
f 135//161 134//161 147//161 148//161
f 136//163 135//163 148//163 149//163
f 137//165 136//165 149//165 150//165
f 151//180 150//180 163//180 164//180
f 152//182 151//182 164//182 165//182
f 191//221 190//221 203//221 204//221
f 192//222 191//222 204//222 205//222
f 205//235 204//235 217//235 218//235
f 206//237 205//237 218//237 219//237
