# Blender 5.0.1
# www.blender.org
mtllib Egg_magma.mtl
o Egg_magma
v 0.000000 0.364000 0.000000
v 0.000000 0.000000 0.000000
v 0.008993 0.359437 -0.024708
v 0.017781 0.345976 -0.048852
v 0.026120 0.324293 -0.071764
v 0.033702 0.295475 -0.092595
v 0.040146 0.260967 -0.110300
v 0.045020 0.222499 -0.123692
v 0.047883 0.182000 -0.131557
v 0.046371 0.141501 -0.127402
v 0.042579 0.103033 -0.116986
v 0.036736 0.068525 -0.100932
v 0.029154 0.039707 -0.080101
v 0.020214 0.018024 -0.055538
v 0.010343 0.004563 -0.028418
v 0.016901 0.359437 -0.020142
v 0.033417 0.345976 -0.039825
v 0.049089 0.324293 -0.058502
v 0.063338 0.295475 -0.075484
v 0.075450 0.260967 -0.089918
v 0.084610 0.222499 -0.100835
v 0.089990 0.182000 -0.107246
v 0.087148 0.141501 -0.103859
v 0.080023 0.103033 -0.095368
v 0.069041 0.068525 -0.082280
v 0.054792 0.039707 -0.065299
v 0.037990 0.018024 -0.045275
v 0.019439 0.004563 -0.023167
v 0.022771 0.359437 -0.013147
v 0.045022 0.345976 -0.025994
v 0.066138 0.324293 -0.038185
v 0.085336 0.295475 -0.049269
v 0.101653 0.260967 -0.058690
v 0.113995 0.222499 -0.065815
v 0.121244 0.182000 -0.070000
v 0.117415 0.141501 -0.067789
v 0.107815 0.103033 -0.062247
v 0.093019 0.068525 -0.053705
v 0.073821 0.039707 -0.042621
v 0.051184 0.018024 -0.029551
v 0.026190 0.004563 -0.015121
v 0.025894 0.359437 -0.004566
v 0.051197 0.345976 -0.009027
v 0.075209 0.324293 -0.013261
v 0.097040 0.295475 -0.017111
v 0.115596 0.260967 -0.020383
v 0.129631 0.222499 -0.022857
v 0.137873 0.182000 -0.024311
v 0.133519 0.141501 -0.023543
v 0.122602 0.103033 -0.021618
v 0.105777 0.068525 -0.018651
v 0.083946 0.039707 -0.014802
v 0.058204 0.018024 -0.010263
v 0.029782 0.004563 -0.005251
v 0.025894 0.359437 0.004566
v 0.051197 0.345976 0.009027
v 0.075209 0.324293 0.013261
v 0.097040 0.295475 0.017111
v 0.115596 0.260967 0.020383
v 0.129631 0.222499 0.022857
v 0.137873 0.182000 0.024311
v 0.133519 0.141501 0.023543
v 0.122602 0.103033 0.021618
v 0.105777 0.068525 0.018651
v 0.083946 0.039707 0.014802
v 0.058204 0.018024 0.010263
v 0.029782 0.004563 0.005251
v 0.022771 0.359437 0.013147
v 0.045022 0.345976 0.025994
v 0.066138 0.324293 0.038185
v 0.085336 0.295475 0.049269
v 0.101653 0.260967 0.058690
v 0.113995 0.222499 0.065815
v 0.121244 0.182000 0.070000
v 0.117415 0.141501 0.067789
v 0.107815 0.103033 0.062247
v 0.093019 0.068525 0.053705
v 0.073821 0.039707 0.042621
v 0.051184 0.018024 0.029551
v 0.026190 0.004563 0.015121
v 0.016901 0.359437 0.020142
v 0.033417 0.345976 0.039825
v 0.049089 0.324293 0.058502
v 0.063339 0.295475 0.075484
v 0.075450 0.260967 0.089918
v 0.084610 0.222499 0.100835
v 0.089990 0.182000 0.107246
v 0.087148 0.141501 0.103859
v 0.080023 0.103033 0.095368
v 0.069041 0.068525 0.082280
v 0.054792 0.039707 0.065299
v 0.037990 0.018024 0.045275
v 0.019439 0.004563 0.023167
v 0.008993 0.359437 0.024708
v 0.017781 0.345976 0.048852
v 0.026120 0.324293 0.071764
v 0.033702 0.295475 0.092595
v 0.040146 0.260967 0.110300
v 0.045020 0.222499 0.123692
v 0.047883 0.182000 0.131557
v 0.046371 0.141501 0.127402
v 0.042579 0.103033 0.116986
v 0.036736 0.068525 0.100931
v 0.029154 0.039707 0.080101
v 0.020214 0.018024 0.055538
v 0.010343 0.004563 0.028418
v 0.000000 0.359437 0.026293
v 0.000000 0.345976 0.051987
v 0.000000 0.324293 0.076369
v 0.000000 0.295475 0.098537
v 0.000000 0.260967 0.117379
v 0.000000 0.222499 0.131630
v 0.000000 0.182000 0.140000
v 0.000000 0.141501 0.135579
v 0.000000 0.103033 0.124494
v 0.000000 0.068525 0.107409
v 0.000000 0.039707 0.085241
v 0.000000 0.018024 0.059102
v 0.000000 0.004563 0.030242
v -0.008993 0.359437 0.024708
v -0.017781 0.345976 0.048852
v -0.026120 0.324293 0.071764
v -0.033702 0.295475 0.092595
v -0.040146 0.260967 0.110300
v -0.045020 0.222499 0.123692
v -0.047883 0.182000 0.131557
v -0.046371 0.141501 0.127402
v -0.042579 0.103033 0.116986
v -0.036736 0.068525 0.100932
v -0.029154 0.039707 0.080101
v -0.020214 0.018024 0.055538
v -0.010343 0.004563 0.028418
v -0.016901 0.359437 0.020142
v -0.033417 0.345976 0.039825
v -0.049089 0.324293 0.058502
v -0.063338 0.295475 0.075484
v -0.075450 0.260967 0.089918
v -0.084610 0.222499 0.100835
v -0.089990 0.182000 0.107246
v -0.087148 0.141501 0.103859
v -0.080023 0.103033 0.095368
v -0.069041 0.068525 0.082280
v -0.054792 0.039707 0.065299
v -0.037990 0.018024 0.045275
v -0.019439 0.004563 0.023167
v -0.022771 0.359437 0.013147
v -0.045022 0.345976 0.025994
v -0.066138 0.324293 0.038185
v -0.085336 0.295475 0.049269
v -0.101653 0.260967 0.058690
v -0.113995 0.222499 0.065815
v -0.121244 0.182000 0.070000
v -0.117415 0.141501 0.067789
v -0.107815 0.103033 0.062247
v -0.093019 0.068525 0.053705
v -0.073821 0.039707 0.042621
v -0.051184 0.018024 0.029551
v -0.026190 0.004563 0.015121
v -0.025894 0.359437 0.004566
v -0.051197 0.345976 0.009028
v -0.075209 0.324293 0.013261
v -0.097040 0.295475 0.017111
v -0.115596 0.260967 0.020383
v -0.129631 0.222499 0.022857
v -0.137873 0.182000 0.024311
v -0.133519 0.141501 0.023543
v -0.122602 0.103033 0.021618
v -0.105777 0.068525 0.018651
v -0.083946 0.039707 0.014802
v -0.058204 0.018024 0.010263
v -0.029782 0.004563 0.005251
v -0.025894 0.359437 -0.004566
v -0.051197 0.345976 -0.009027
v -0.075209 0.324293 -0.013261
v -0.097040 0.295475 -0.017111
v -0.115596 0.260967 -0.020383
v -0.129631 0.222499 -0.022857
v -0.137873 0.182000 -0.024311
v -0.133519 0.141501 -0.023543
v -0.122602 0.103033 -0.021618
v -0.105777 0.068525 -0.018651
v -0.083946 0.039707 -0.014802
v -0.058204 0.018024 -0.010263
v -0.029782 0.004563 -0.005251
v -0.022771 0.359437 -0.013147
v -0.045022 0.345976 -0.025994
v -0.066138 0.324293 -0.038185
v -0.085336 0.295475 -0.049269
v -0.101653 0.260967 -0.058690
v -0.113995 0.222499 -0.065815
v -0.121244 0.182000 -0.070000
v -0.117415 0.141501 -0.067789
v -0.107815 0.103033 -0.062247
v -0.093019 0.068525 -0.053704
v -0.073821 0.039707 -0.042621
v -0.051184 0.018024 -0.029551
v -0.026190 0.004563 -0.015121
v -0.016901 0.359437 -0.020142
v -0.033417 0.345976 -0.039824
v -0.049089 0.324293 -0.058502
v -0.063339 0.295475 -0.075484
v -0.075450 0.260967 -0.089918
v -0.084610 0.222499 -0.100835
v -0.089990 0.182000 -0.107246
v -0.087148 0.141501 -0.103859
v -0.080023 0.103033 -0.095368
v -0.069041 0.068525 -0.082280
v -0.054792 0.039707 -0.065299
v -0.037990 0.018024 -0.045275
v -0.019439 0.004563 -0.023167
v -0.008993 0.359437 -0.024708
v -0.017781 0.345976 -0.048852
v -0.026120 0.324293 -0.071764
v -0.033702 0.295475 -0.092595
v -0.040146 0.260967 -0.110300
v -0.045020 0.222499 -0.123692
v -0.047883 0.182000 -0.131557
v -0.046371 0.141501 -0.127402
v -0.042579 0.103033 -0.116986
v -0.036736 0.068525 -0.100931
v -0.029154 0.039707 -0.080101
v -0.020214 0.018024 -0.055538
v -0.010343 0.004563 -0.028418
v -0.000000 0.359437 -0.026293
v -0.000000 0.345976 -0.051987
v -0.000000 0.324293 -0.076369
v -0.000000 0.295475 -0.098537
v -0.000000 0.260967 -0.117379
v -0.000000 0.222499 -0.131630
v -0.000000 0.182000 -0.140000
v -0.000000 0.141501 -0.135579
v -0.000000 0.103033 -0.124494
v -0.000000 0.068525 -0.107409
v -0.000000 0.039707 -0.085241
v -0.000000 0.018024 -0.059102
v -0.000000 0.004563 -0.030242
vn 0.1727 -0.1069 -0.9792
vn 0.0301 0.9848 -0.1709
vn 0.1671 -0.2730 -0.9474
vn 0.0816 0.8829 -0.4625
vn 0.1561 -0.4383 -0.8852
vn 0.1164 0.7422 -0.6600
vn 0.1384 -0.6038 -0.7850
vn 0.1384 0.6038 -0.7850
vn 0.1119 -0.7648 -0.6344
vn 0.1529 0.4736 -0.8674
vn 0.0743 -0.9038 -0.4215
vn 0.1631 0.3427 -0.9252
vn 0.0263 -0.9885 -0.1491
vn 0.1702 0.1994 -0.9650
vn 0.4971 -0.1069 -0.8611
vn 0.0868 0.9848 -0.1503
vn 0.4810 -0.2730 -0.8331
vn 0.2348 0.8829 -0.4067
vn 0.4494 -0.4383 -0.7784
vn 0.3351 0.7422 -0.5804
vn 0.3986 -0.6038 -0.6903
vn 0.3986 0.6038 -0.6903
vn 0.3221 -0.7648 -0.5579
vn 0.4404 0.4736 -0.7627
vn 0.2140 -0.9038 -0.3707
vn 0.4697 0.3427 -0.8136
vn 0.0757 -0.9885 -0.1312
vn 0.4900 0.1994 -0.8486
vn 0.7369 -0.2730 -0.6184
vn 0.3598 0.8829 -0.3019
vn 0.6886 -0.4383 -0.5778
vn 0.5134 0.7422 -0.4308
vn 0.6106 -0.6038 -0.5124
vn 0.6106 0.6038 -0.5124
vn 0.4935 -0.7648 -0.4141
vn 0.6747 0.4736 -0.5661
vn 0.3279 -0.9038 -0.2751
vn 0.7196 0.3427 -0.6039
vn 0.1160 -0.9885 -0.0973
vn 0.7507 0.1994 -0.6299
vn 0.7617 -0.1069 -0.6391
vn 0.1329 0.9848 -0.1116
vn 0.4413 0.8829 -0.1606
vn 0.8446 -0.4383 -0.3074
vn 0.6298 0.7422 -0.2292
vn 0.7490 -0.6038 -0.2726
vn 0.7490 0.6038 -0.2726
vn 0.6054 -0.7648 -0.2203
vn 0.8276 0.4736 -0.3012
vn 0.4022 -0.9038 -0.1464
vn 0.8828 0.3427 -0.3213
vn 0.1423 -0.9885 -0.0518
vn 0.9208 0.1994 -0.3351
vn 0.9343 -0.1069 -0.3401
vn 0.1631 0.9848 -0.0594
vn 0.9040 -0.2730 -0.3290
vn 0.8989 -0.4383 -0.0000
vn 0.6702 0.7422 -0.0000
vn 0.7971 -0.6038 -0.0000
vn 0.7971 0.6038 -0.0000
vn 0.6442 -0.7648 -0.0000
vn 0.8807 0.4736 -0.0000
vn 0.4280 -0.9038 -0.0000
vn 0.9394 0.3427 -0.0000
vn 0.1514 -0.9885 -0.0000
vn 0.9799 0.1994 -0.0000
vn 0.9943 -0.1069 -0.0000
vn 0.1735 0.9848 -0.0000
vn 0.9620 -0.2730 -0.0000
vn 0.4696 0.8829 -0.0000
vn 0.6298 0.7422 0.2292
vn 0.7490 -0.6038 0.2726
vn 0.7490 0.6038 0.2726
vn 0.6054 -0.7648 0.2203
vn 0.8276 0.4736 0.3012
vn 0.4022 -0.9038 0.1464
vn 0.8828 0.3427 0.3213
vn 0.1423 -0.9885 0.0518
vn 0.9208 0.1994 0.3351
vn 0.9343 -0.1069 0.3401
vn 0.1631 0.9848 0.0594
vn 0.9040 -0.2730 0.3290
vn 0.4413 0.8829 0.1606
vn 0.8446 -0.4383 0.3074
vn 0.6106 -0.6038 0.5124
vn 0.6106 0.6038 0.5124
vn 0.4935 -0.7648 0.4141
vn 0.6747 0.4736 0.5661
vn 0.3279 -0.9038 0.2751
vn 0.7196 0.3427 0.6039
vn 0.1160 -0.9885 0.0973
vn 0.7507 0.1994 0.6299
vn 0.7617 -0.1069 0.6391
vn 0.1329 0.9848 0.1116
vn 0.7369 -0.2730 0.6184
vn 0.3598 0.8829 0.3019
vn 0.6886 -0.4383 0.5778
vn 0.5134 0.7422 0.4308
vn 0.3221 -0.7648 0.5579
vn 0.4404 0.4736 0.7627
vn 0.2140 -0.9038 0.3707
vn 0.4697 0.3427 0.8136
vn 0.0757 -0.9885 0.1312
vn 0.4900 0.1994 0.8486
vn 0.4971 -0.1069 0.8611
vn 0.0868 0.9848 0.1503
vn 0.4810 -0.2730 0.8331
vn 0.2348 0.8829 0.4067
vn 0.4494 -0.4383 0.7784
vn 0.3351 0.7422 0.5804
vn 0.3986 -0.6038 0.6903
vn 0.3986 0.6038 0.6903
vn 0.1529 0.4736 0.8674
vn 0.0743 -0.9038 0.4215
vn 0.1631 0.3427 0.9252
vn 0.0263 -0.9885 0.1491
vn 0.1702 0.1994 0.9650
vn 0.1727 -0.1069 0.9792
vn 0.0301 0.9848 0.1709
vn 0.1671 -0.2730 0.9474
vn 0.0816 0.8829 0.4625
vn 0.1561 -0.4383 0.8852
vn 0.1164 0.7422 0.6600
vn 0.1384 -0.6038 0.7850
vn 0.1384 0.6038 0.7850
vn 0.1119 -0.7648 0.6344
vn -0.0743 -0.9038 0.4215
vn -0.1631 0.3427 0.9252
vn -0.0263 -0.9885 0.1491
vn -0.1702 0.1994 0.9650
vn -0.1727 -0.1069 0.9792
vn -0.0301 0.9848 0.1709
vn -0.1671 -0.2730 0.9474
vn -0.0816 0.8829 0.4625
vn -0.1561 -0.4383 0.8852
vn -0.1164 0.7422 0.6600
vn -0.1384 -0.6038 0.7850
vn -0.1384 0.6038 0.7850
vn -0.1119 -0.7648 0.6344
vn -0.1529 0.4736 0.8674
vn -0.4697 0.3427 0.8136
vn -0.0757 -0.9885 0.1312
vn -0.4900 0.1994 0.8486
vn -0.4971 -0.1069 0.8611
vn -0.0868 0.9848 0.1503
vn -0.4810 -0.2730 0.8331
vn -0.2348 0.8829 0.4067
vn -0.4494 -0.4383 0.7784
vn -0.3351 0.7422 0.5804
vn -0.3986 -0.6038 0.6903
vn -0.3986 0.6038 0.6903
vn -0.3221 -0.7648 0.5579
vn -0.4404 0.4736 0.7627
vn -0.2140 -0.9038 0.3707
vn -0.1160 -0.9885 0.0973
vn -0.7507 0.1994 0.6299
vn -0.7617 -0.1069 0.6391
vn -0.1329 0.9848 0.1116
vn -0.7369 -0.2730 0.6184
vn -0.3598 0.8829 0.3019
vn -0.6886 -0.4383 0.5778
vn -0.5134 0.7422 0.4308
vn -0.6106 -0.6038 0.5124
vn -0.6106 0.6038 0.5124
vn -0.4935 -0.7648 0.4141
vn -0.6747 0.4736 0.5661
vn -0.3279 -0.9038 0.2751
vn -0.7196 0.3427 0.6039
vn -0.9343 -0.1069 0.3401
vn -0.1631 0.9848 0.0594
vn -0.9040 -0.2730 0.3290
vn -0.4413 0.8829 0.1606
vn -0.8446 -0.4383 0.3074
vn -0.6298 0.7422 0.2292
vn -0.7490 -0.6038 0.2726
vn -0.7490 0.6038 0.2726
vn -0.6054 -0.7648 0.2203
vn -0.8276 0.4736 0.3012
vn -0.4022 -0.9038 0.1464
vn -0.8828 0.3427 0.3213
vn -0.1423 -0.9885 0.0518
vn -0.9208 0.1994 0.3351
vn -0.9943 -0.1069 -0.0000
vn -0.1736 0.9848 -0.0000
vn -0.9620 -0.2730 -0.0000
vn -0.4696 0.8829 -0.0000
vn -0.8989 -0.4383 -0.0000
vn -0.6702 0.7422 -0.0000
vn -0.7971 -0.6038 -0.0000
vn -0.7971 0.6038 -0.0000
vn -0.6442 -0.7648 -0.0000
vn -0.8807 0.4736 -0.0000
vn -0.4280 -0.9038 -0.0000
vn -0.9394 0.3427 -0.0000
vn -0.1514 -0.9885 -0.0000
vn -0.9799 0.1994 -0.0000
vn -0.1631 0.9848 -0.0594
vn -0.9040 -0.2730 -0.3290
vn -0.4413 0.8829 -0.1606
vn -0.8446 -0.4383 -0.3074
vn -0.6298 0.7422 -0.2292
vn -0.7490 -0.6038 -0.2726
vn -0.7490 0.6038 -0.2726
vn -0.6054 -0.7648 -0.2203
vn -0.8276 0.4736 -0.3012
vn -0.4022 -0.9038 -0.1464
vn -0.8828 0.3427 -0.3213
vn -0.1423 -0.9885 -0.0518
vn -0.9208 0.1994 -0.3351
vn -0.9343 -0.1069 -0.3401
vn -0.7369 -0.2730 -0.6184
vn -0.3598 0.8829 -0.3019
vn -0.6886 -0.4383 -0.5778
vn -0.5134 0.7422 -0.4308
vn -0.6106 -0.6038 -0.5124
vn -0.6106 0.6038 -0.5124
vn -0.4935 -0.7648 -0.4141
vn -0.6747 0.4736 -0.5661
vn -0.3279 -0.9038 -0.2751
vn -0.7196 0.3427 -0.6039
vn -0.1160 -0.9885 -0.0973
vn -0.7507 0.1994 -0.6299
vn -0.7617 -0.1069 -0.6391
vn -0.1330 0.9848 -0.1116
vn -0.4494 -0.4383 -0.7784
vn -0.3351 0.7422 -0.5804
vn -0.3986 -0.6038 -0.6903
vn -0.3986 0.6038 -0.6903
vn -0.3221 -0.7648 -0.5579
vn -0.4404 0.4736 -0.7627
vn -0.2140 -0.9038 -0.3707
vn -0.4697 0.3427 -0.8136
vn -0.0757 -0.9885 -0.1312
vn -0.4900 0.1994 -0.8486
vn -0.4971 -0.1069 -0.8611
vn -0.0868 0.9848 -0.1503
vn -0.4810 -0.2730 -0.8331
vn -0.2348 0.8829 -0.4067
vn -0.1164 0.7422 -0.6600
vn -0.1384 -0.6038 -0.7850
vn -0.1384 0.6038 -0.7850
vn -0.1119 -0.7648 -0.6344
vn -0.1529 0.4736 -0.8674
vn -0.0743 -0.9038 -0.4215
vn -0.1631 0.3427 -0.9252
vn -0.0263 -0.9885 -0.1491
vn -0.1702 0.1994 -0.9650
vn -0.1727 -0.1069 -0.9792
vn -0.0301 0.9848 -0.1709
vn -0.1671 -0.2730 -0.9474
vn -0.0816 0.8829 -0.4625
vn -0.1561 -0.4383 -0.8852
s 0
usemtl EF_Egg_magma_Shell
f 231//1 230//1 9//1 10//1
f 224//2 1//2 3//2
f 232//3 231//3 10//3 11//3
f 225//4 224//4 3//4 4//4
f 233//5 232//5 11//5 12//5
f 226//6 225//6 4//6 5//6
f 234//7 233//7 12//7 13//7
f 235//9 234//9 13//9 14//9
f 236//11 235//11 14//11 15//11
f 229//12 228//12 7//12 8//12
f 2//13 236//13 15//13
f 230//14 229//14 8//14 9//14
f 10//15 9//15 22//15 23//15
f 3//16 1//16 16//16
f 11//17 10//17 23//17 24//17
f 4//18 3//18 16//18 17//18
f 12//19 11//19 24//19 25//19
f 5//20 4//20 17//20 18//20
f 13//21 12//21 25//21 26//21
f 6//22 5//22 18//22 19//22
f 14//23 13//23 26//23 27//23
f 7//24 6//24 19//24 20//24
f 15//25 14//25 27//25 28//25
f 8//26 7//26 20//26 21//26
f 2//27 15//27 28//27
f 9//28 8//28 21//28 22//28
f 17//30 16//30 29//30 30//30
f 25//31 24//31 37//31 38//31
f 18//32 17//32 30//32 31//32
f 26//33 25//33 38//33 39//33
f 19//34 18//34 31//34 32//34
f 27//35 26//35 39//35 40//35
f 20//36 19//36 32//36 33//36
f 28//37 27//37 40//37 41//37
f 21//38 20//38 33//38 34//38
f 2//39 28//39 41//39
f 22//40 21//40 34//40 35//40
f 16//42 1//42 29//42
f 30//43 29//43 42//43 43//43
f 38//44 37//44 50//44 51//44
f 31//45 30//45 43//45 44//45
f 39//46 38//46 51//46 52//46
f 32//47 31//47 44//47 45//47
f 40//48 39//48 52//48 53//48
f 41//50 40//50 53//50 54//50
f 2//52 41//52 54//52
f 35//53 34//53 47//53 48//53
f 36//54 35//54 48//54 49//54
f 29//55 1//55 42//55
f 37//56 36//56 49//56 50//56
f 51//57 50//57 63//57 64//57
f 52//59 51//59 64//59 65//59
f 53//61 52//61 65//61 66//61
f 54//63 53//63 66//63 67//63
f 2//65 54//65 67//65
f 48//66 47//66 60//66 61//66
f 49//67 48//67 61//67 62//67
f 42//68 1//68 55//68
f 50//69 49//69 62//69 63//69
f 43//70 42//70 55//70 56//70
f 65//72 64//72 77//72 78//72
f 66//74 65//74 78//74 79//74
f 67//76 66//76 79//76 80//76
f 60//77 59//77 72//77 73//77
f 2//78 67//78 80//78
f 61//79 60//79 73//79 74//79
f 62//80 61//80 74//80 75//80
f 55//81 1//81 68//81
f 63//82 62//82 75//82 76//82
f 56//83 55//83 68//83 69//83
f 64//84 63//84 76//84 77//84
f 78//85 77//85 90//85 91//85
f 79//87 78//87 91//87 92//87
f 72//88 71//88 84//88 85//88
f 80//89 79//89 92//89 93//89
f 73//90 72//90 85//90 86//90
f 2//91 80//91 93//91
f 74//92 73//92 86//92 87//92
f 75//93 74//93 87//93 88//93
f 68//94 1//94 81//94
f 76//95 75//95 88//95 89//95
f 69//96 68//96 81//96 82//96
f 77//97 76//97 89//97 90//97
f 70//98 69//98 82//98 83//98
f 92//99 91//99 104//99 105//99
f 85//100 84//100 97//100 98//100
f 93//101 92//101 105//101 106//101
f 86//102 85//102 98//102 99//102
f 2//103 93//103 106//103
f 87//104 86//104 99//104 100//104
f 88//105 87//105 100//105 101//105
f 81//106 1//106 94//106
f 89//107 88//107 101//107 102//107
f 82//108 81//108 94//108 95//108
f 90//109 89//109 102//109 103//109
f 83//110 82//110 95//110 96//110
f 91//111 90//111 103//111 104//111
f 84//112 83//112 96//112 97//112
f 106//114 105//114 118//114 119//114
f 2//116 106//116 119//116
f 100//117 99//117 112//117 113//117
f 101//118 100//118 113//118 114//118
f 94//119 1//119 107//119
f 102//120 101//120 114//120 115//120
f 95//121 94//121 107//121 108//121
f 103//122 102//122 115//122 116//122
f 96//123 95//123 108//123 109//123
f 104//124 103//124 116//124 117//124
f 97//125 96//125 109//125 110//125
f 105//126 104//126 117//126 118//126
f 119//127 118//127 131//127 132//127
f 2//129 119//129 132//129
f 113//130 112//130 125//130 126//130
f 114//131 113//131 126//131 127//131
f 107//132 1//132 120//132
f 115//133 114//133 127//133 128//133
f 108//134 107//134 120//134 121//134
f 116//135 115//135 128//135 129//135
f 109//136 108//136 121//136 122//136
f 117//137 116//137 129//137 130//137
f 118//139 117//139 130//139 131//139
f 2//142 132//142 145//142
f 127//144 126//144 139//144 140//144
f 120//145 1//145 133//145
f 128//146 127//146 140//146 141//146
f 121//147 120//147 133//147 134//147
f 129//148 128//148 141//148 142//148
f 122//149 121//149 134//149 135//149
f 130//150 129//150 142//150 143//150
f 123//151 122//151 135//151 136//151
f 131//152 130//152 143//152 144//152
f 132//154 131//154 144//154 145//154
f 2//155 145//155 158//155
f 139//156 138//156 151//156 152//156
f 140//157 139//157 152//157 153//157
f 133//158 1//158 146//158
f 141//159 140//159 153//159 154//159
f 134//160 133//160 146//160 147//160
f 142//161 141//161 154//161 155//161
f 135//162 134//162 147//162 148//162
f 143//163 142//163 155//163 156//163
f 136//164 135//164 148//164 149//164
f 144//165 143//165 156//165 157//165
f 137//166 136//166 149//166 150//166
f 145//167 144//167 157//167 158//167
f 138//168 137//168 150//168 151//168
f 153//169 152//169 165//169 166//169
f 146//170 1//170 159//170
f 154//171 153//171 166//171 167//171
f 147//172 146//172 159//172 160//172
f 155//173 154//173 167//173 168//173
f 148//174 147//174 160//174 161//174
f 156//175 155//175 168//175 169//175
f 149//176 148//176 161//176 162//176
f 157//177 156//177 169//177 170//177
f 150//178 149//178 162//178 163//178
f 158//179 157//179 170//179 171//179
f 151//180 150//180 163//180 164//180
f 2//181 158//181 171//181
f 159//184 1//184 172//184
f 167//185 166//185 179//185 180//185
f 160//186 159//186 172//186 173//186
f 168//187 167//187 180//187 181//187
f 161//188 160//188 173//188 174//188
f 169//189 168//189 181//189 182//189
f 162//190 161//190 174//190 175//190
f 170//191 169//191 182//191 183//191
f 163//192 162//192 175//192 176//192
f 171//193 170//193 183//193 184//193
f 2//195 171//195 184//195
f 172//197 1//197 185//197
f 180//198 179//198 192//198 193//198
f 173//199 172//199 185//199 186//199
f 181//200 180//200 193//200 194//200
f 174//201 173//201 186//201 187//201
f 182//202 181//202 194//202 195//202
f 175//203 174//203 187//203 188//203
f 183//204 182//204 195//204 196//204
f 176//205 175//205 188//205 189//205
f 184//206 183//206 196//206 197//206
f 177//207 176//207 189//207 190//207
f 2//208 184//208 197//208
f 178//209 177//209 190//209 191//209
f 179//210 178//210 191//210 192//210
f 193//211 192//211 205//211 206//211
f 186//212 185//212 198//212 199//212
f 194//213 193//213 206//213 207//213
f 187//214 186//214 199//214 200//214
f 195//215 194//215 207//215 208//215
f 196//217 195//217 208//217 209//217
f 189//218 188//218 201//218 202//218
f 197//219 196//219 209//219 210//219
f 190//220 189//220 202//220 203//220
f 2//221 197//221 210//221
f 191//222 190//222 203//222 204//222
f 192//223 191//223 204//223 205//223
f 185//224 1//224 198//224
f 207//225 206//225 219//225 220//225
f 200//226 199//226 212//226 213//226
f 208//227 207//227 220//227 221//227
f 209//229 208//229 221//229 222//229
f 210//231 209//231 222//231 223//231
f 203//232 202//232 215//232 216//232
f 2//233 210//233 223//233
f 204//234 203//234 216//234 217//234
f 205//235 204//235 217//235 218//235
f 198//236 1//236 211//236
f 206//237 205//237 218//237 219//237
f 199//238 198//238 211//238 212//238
f 213//239 212//239 225//239 226//239
f 221//240 220//240 233//240 234//240
f 222//242 221//242 234//242 235//242
f 223//244 222//244 235//244 236//244
f 2//246 223//246 236//246
f 217//247 216//247 229//247 230//247
f 218//248 217//248 230//248 231//248
f 211//249 1//249 224//249
f 219//250 218//250 231//250 232//250
f 212//251 211//251 224//251 225//251
f 220//252 219//252 232//252 233//252
usemtl EF_Egg_magma_Spots
f 227//8 226//8 5//8 6//8
f 228//10 227//10 6//10 7//10
f 24//29 23//29 36//29 37//29
f 23//41 22//41 35//41 36//41
f 33//49 32//49 45//49 46//49
f 34//51 33//51 46//51 47//51
f 44//58 43//58 56//58 57//58
f 45//60 44//60 57//60 58//60
f 46//62 45//62 58//62 59//62
f 47//64 46//64 59//64 60//64
f 57//71 56//71 69//71 70//71
f 58//73 57//73 70//73 71//73
f 59//75 58//75 71//75 72//75
f 71//86 70//86 83//86 84//86
f 98//113 97//113 110//113 111//113
f 99//115 98//115 111//115 112//115
f 112//128 111//128 124//128 125//128
f 110//138 109//138 122//138 123//138
f 111//140 110//140 123//140 124//140
f 125//141 124//141 137//141 138//141
f 126//143 125//143 138//143 139//143
f 124//153 123//153 136//153 137//153
f 152//182 151//182 164//182 165//182
f 166//183 165//183 178//183 179//183
f 164//194 163//194 176//194 177//194
f 165//196 164//196 177//196 178//196
f 188//216 187//216 200//216 201//216
f 201//228 200//228 213//228 214//228
f 202//230 201//230 214//230 215//230
f 214//241 213//241 226//241 227//241
f 215//243 214//243 227//243 228//243
f 216//245 215//245 228//245 229//245
