# Blender 5.0.1
# www.blender.org
mtllib Egg_crystal.mtl
o Egg_crystal
v 0.000000 0.364000 0.000000
v 0.000000 0.000000 0.000000
v 0.008993 0.359437 -0.024708
v 0.017781 0.345976 -0.048852
v 0.026120 0.324293 -0.071764
v 0.033702 0.295475 -0.092595
v 0.040146 0.260967 -0.110300
v 0.045020 0.222499 -0.123692
v 0.047883 0.182000 -0.131557
v 0.046371 0.141501 -0.127402
v 0.042579 0.103033 -0.116986
v 0.036736 0.068525 -0.100932
v 0.029154 0.039707 -0.080101
v 0.020214 0.018024 -0.055538
v 0.010343 0.004563 -0.028418
v 0.016901 0.359437 -0.020142
v 0.033417 0.345976 -0.039825
v 0.049089 0.324293 -0.058502
v 0.063338 0.295475 -0.075484
v 0.075450 0.260967 -0.089918
v 0.084610 0.222499 -0.100835
v 0.089990 0.182000 -0.107246
v 0.087148 0.141501 -0.103859
v 0.080023 0.103033 -0.095368
v 0.069041 0.068525 -0.082280
v 0.054792 0.039707 -0.065299
v 0.037990 0.018024 -0.045275
v 0.019439 0.004563 -0.023167
v 0.022771 0.359437 -0.013147
v 0.045022 0.345976 -0.025994
v 0.066138 0.324293 -0.038185
v 0.085336 0.295475 -0.049269
v 0.101653 0.260967 -0.058690
v 0.113995 0.222499 -0.065815
v 0.121244 0.182000 -0.070000
v 0.117415 0.141501 -0.067789
v 0.107815 0.103033 -0.062247
v 0.093019 0.068525 -0.053705
v 0.073821 0.039707 -0.042621
v 0.051184 0.018024 -0.029551
v 0.026190 0.004563 -0.015121
v 0.025894 0.359437 -0.004566
v 0.051197 0.345976 -0.009027
v 0.075209 0.324293 -0.013261
v 0.097040 0.295475 -0.017111
v 0.115596 0.260967 -0.020383
v 0.129631 0.222499 -0.022857
v 0.137873 0.182000 -0.024311
v 0.133519 0.141501 -0.023543
v 0.122602 0.103033 -0.021618
v 0.105777 0.068525 -0.018651
v 0.083946 0.039707 -0.014802
v 0.058204 0.018024 -0.010263
v 0.029782 0.004563 -0.005251
v 0.025894 0.359437 0.004566
v 0.051197 0.345976 0.009027
v 0.075209 0.324293 0.013261
v 0.097040 0.295475 0.017111
v 0.115596 0.260967 0.020383
v 0.129631 0.222499 0.022857
v 0.137873 0.182000 0.024311
v 0.133519 0.141501 0.023543
v 0.122602 0.103033 0.021618
v 0.105777 0.068525 0.018651
v 0.083946 0.039707 0.014802
v 0.058204 0.018024 0.010263
v 0.029782 0.004563 0.005251
v 0.022771 0.359437 0.013147
v 0.045022 0.345976 0.025994
v 0.066138 0.324293 0.038185
v 0.085336 0.295475 0.049269
v 0.101653 0.260967 0.058690
v 0.113995 0.222499 0.065815
v 0.121244 0.182000 0.070000
v 0.117415 0.141501 0.067789
v 0.107815 0.103033 0.062247
v 0.093019 0.068525 0.053705
v 0.073821 0.039707 0.042621
v 0.051184 0.018024 0.029551
v 0.026190 0.004563 0.015121
v 0.016901 0.359437 0.020142
v 0.033417 0.345976 0.039825
v 0.049089 0.324293 0.058502
v 0.063339 0.295475 0.075484
v 0.075450 0.260967 0.089918
v 0.084610 0.222499 0.100835
v 0.089990 0.182000 0.107246
v 0.087148 0.141501 0.103859
v 0.080023 0.103033 0.095368
v 0.069041 0.068525 0.082280
v 0.054792 0.039707 0.065299
v 0.037990 0.018024 0.045275
v 0.019439 0.004563 0.023167
v 0.008993 0.359437 0.024708
v 0.017781 0.345976 0.048852
v 0.026120 0.324293 0.071764
v 0.033702 0.295475 0.092595
v 0.040146 0.260967 0.110300
v 0.045020 0.222499 0.123692
v 0.047883 0.182000 0.131557
v 0.046371 0.141501 0.127402
v 0.042579 0.103033 0.116986
v 0.036736 0.068525 0.100931
v 0.029154 0.039707 0.080101
v 0.020214 0.018024 0.055538
v 0.010343 0.004563 0.028418
v 0.000000 0.359437 0.026293
v 0.000000 0.345976 0.051987
v 0.000000 0.324293 0.076369
v 0.000000 0.295475 0.098537
v 0.000000 0.260967 0.117379
v 0.000000 0.222499 0.131630
v 0.000000 0.182000 0.140000
v 0.000000 0.141501 0.135579
v 0.000000 0.103033 0.124494
v 0.000000 0.068525 0.107409
v 0.000000 0.039707 0.085241
v 0.000000 0.018024 0.059102
v 0.000000 0.004563 0.030242
v -0.008993 0.359437 0.024708
v -0.017781 0.345976 0.048852
v -0.026120 0.324293 0.071764
v -0.033702 0.295475 0.092595
v -0.040146 0.260967 0.110300
v -0.045020 0.222499 0.123692
v -0.047883 0.182000 0.131557
v -0.046371 0.141501 0.127402
v -0.042579 0.103033 0.116986
v -0.036736 0.068525 0.100932
v -0.029154 0.039707 0.080101
v -0.020214 0.018024 0.055538
v -0.010343 0.004563 0.028418
v -0.016901 0.359437 0.020142
v -0.033417 0.345976 0.039825
v -0.049089 0.324293 0.058502
v -0.063338 0.295475 0.075484
v -0.075450 0.260967 0.089918
v -0.084610 0.222499 0.100835
v -0.089990 0.182000 0.107246
v -0.087148 0.141501 0.103859
v -0.080023 0.103033 0.095368
v -0.069041 0.068525 0.082280
v -0.054792 0.039707 0.065299
v -0.037990 0.018024 0.045275
v -0.019439 0.004563 0.023167
v -0.022771 0.359437 0.013147
v -0.045022 0.345976 0.025994
v -0.066138 0.324293 0.038185
v -0.085336 0.295475 0.049269
v -0.101653 0.260967 0.058690
v -0.113995 0.222499 0.065815
v -0.121244 0.182000 0.070000
v -0.117415 0.141501 0.067789
v -0.107815 0.103033 0.062247
v -0.093019 0.068525 0.053705
v -0.073821 0.039707 0.042621
v -0.051184 0.018024 0.029551
v -0.026190 0.004563 0.015121
v -0.025894 0.359437 0.004566
v -0.051197 0.345976 0.009028
v -0.075209 0.324293 0.013261
v -0.097040 0.295475 0.017111
v -0.115596 0.260967 0.020383
v -0.129631 0.222499 0.022857
v -0.137873 0.182000 0.024311
v -0.133519 0.141501 0.023543
v -0.122602 0.103033 0.021618
v -0.105777 0.068525 0.018651
v -0.083946 0.039707 0.014802
v -0.058204 0.018024 0.010263
v -0.029782 0.004563 0.005251
v -0.025894 0.359437 -0.004566
v -0.051197 0.345976 -0.009027
v -0.075209 0.324293 -0.013261
v -0.097040 0.295475 -0.017111
v -0.115596 0.260967 -0.020383
v -0.129631 0.222499 -0.022857
v -0.137873 0.182000 -0.024311
v -0.133519 0.141501 -0.023543
v -0.122602 0.103033 -0.021618
v -0.105777 0.068525 -0.018651
v -0.083946 0.039707 -0.014802
v -0.058204 0.018024 -0.010263
v -0.029782 0.004563 -0.005251
v -0.022771 0.359437 -0.013147
v -0.045022 0.345976 -0.025994
v -0.066138 0.324293 -0.038185
v -0.085336 0.295475 -0.049269
v -0.101653 0.260967 -0.058690
v -0.113995 0.222499 -0.065815
v -0.121244 0.182000 -0.070000
v -0.117415 0.141501 -0.067789
v -0.107815 0.103033 -0.062247
v -0.093019 0.068525 -0.053704
v -0.073821 0.039707 -0.042621
v -0.051184 0.018024 -0.029551
v -0.026190 0.004563 -0.015121
v -0.016901 0.359437 -0.020142
v -0.033417 0.345976 -0.039824
v -0.049089 0.324293 -0.058502
v -0.063339 0.295475 -0.075484
v -0.075450 0.260967 -0.089918
v -0.084610 0.222499 -0.100835
v -0.089990 0.182000 -0.107246
v -0.087148 0.141501 -0.103859
v -0.080023 0.103033 -0.095368
v -0.069041 0.068525 -0.082280
v -0.054792 0.039707 -0.065299
v -0.037990 0.018024 -0.045275
v -0.019439 0.004563 -0.023167
v -0.008993 0.359437 -0.024708
v -0.017781 0.345976 -0.048852
v -0.026120 0.324293 -0.071764
v -0.033702 0.295475 -0.092595
v -0.040146 0.260967 -0.110300
v -0.045020 0.222499 -0.123692
v -0.047883 0.182000 -0.131557
v -0.046371 0.141501 -0.127402
v -0.042579 0.103033 -0.116986
v -0.036736 0.068525 -0.100931
v -0.029154 0.039707 -0.080101
v -0.020214 0.018024 -0.055538
v -0.010343 0.004563 -0.028418
v -0.000000 0.359437 -0.026293
v -0.000000 0.345976 -0.051987
v -0.000000 0.324293 -0.076369
v -0.000000 0.295475 -0.098537
v -0.000000 0.260967 -0.117379
v -0.000000 0.222499 -0.131630
v -0.000000 0.182000 -0.140000
v -0.000000 0.141501 -0.135579
v -0.000000 0.103033 -0.124494
v -0.000000 0.068525 -0.107409
v -0.000000 0.039707 -0.085241
v -0.000000 0.018024 -0.059102
v -0.000000 0.004563 -0.030242
vn 0.1119 -0.7648 -0.6344
vn 0.1529 0.4736 -0.8674
vn 0.0743 -0.9038 -0.4215
vn 0.1631 0.3427 -0.9252
vn 0.0263 -0.9885 -0.1491
vn 0.1702 0.1994 -0.9650
vn 0.1727 -0.1069 -0.9792
vn 0.0301 0.9848 -0.1709
vn 0.1671 -0.2730 -0.9474
vn 0.0816 0.8829 -0.4625
vn 0.1561 -0.4383 -0.8852
vn 0.1164 0.7422 -0.6600
vn 0.1384 -0.6038 -0.7850
vn 0.1384 0.6038 -0.7850
vn 0.2140 -0.9038 -0.3707
vn 0.4697 0.3427 -0.8136
vn 0.0757 -0.9885 -0.1312
vn 0.4900 0.1994 -0.8486
vn 0.4971 -0.1069 -0.8611
vn 0.0868 0.9848 -0.1503
vn 0.4810 -0.2730 -0.8331
vn 0.2348 0.8829 -0.4067
vn 0.4494 -0.4383 -0.7784
vn 0.3351 0.7422 -0.5804
vn 0.3986 -0.6038 -0.6903
vn 0.3986 0.6038 -0.6903
vn 0.3221 -0.7648 -0.5579
vn 0.4404 0.4736 -0.7627
vn 0.7196 0.3427 -0.6039
vn 0.1160 -0.9885 -0.0973
vn 0.7507 0.1994 -0.6299
vn 0.7617 -0.1069 -0.6391
vn 0.1329 0.9848 -0.1116
vn 0.7369 -0.2730 -0.6184
vn 0.3598 0.8829 -0.3019
vn 0.6886 -0.4383 -0.5778
vn 0.5134 0.7422 -0.4308
vn 0.6106 -0.6038 -0.5124
vn 0.6106 0.6038 -0.5124
vn 0.4935 -0.7648 -0.4141
vn 0.6747 0.4736 -0.5661
vn 0.3279 -0.9038 -0.2751
vn 0.1423 -0.9885 -0.0518
vn 0.9208 0.1994 -0.3351
vn 0.9343 -0.1069 -0.3401
vn 0.1631 0.9848 -0.0594
vn 0.9040 -0.2730 -0.3290
vn 0.4413 0.8829 -0.1606
vn 0.8446 -0.4383 -0.3074
vn 0.6298 0.7422 -0.2292
vn 0.7490 -0.6038 -0.2726
vn 0.7490 0.6038 -0.2726
vn 0.6054 -0.7648 -0.2203
vn 0.8276 0.4736 -0.3012
vn 0.4022 -0.9038 -0.1464
vn 0.8828 0.3427 -0.3213
vn 0.9799 0.1994 -0.0000
vn 0.9943 -0.1069 -0.0000
vn 0.1735 0.9848 -0.0000
vn 0.9620 -0.2730 -0.0000
vn 0.4696 0.8829 -0.0000
vn 0.8989 -0.4383 -0.0000
vn 0.6702 0.7422 -0.0000
vn 0.7971 -0.6038 -0.0000
vn 0.7971 0.6038 -0.0000
vn 0.6442 -0.7648 -0.0000
vn 0.8807 0.4736 -0.0000
vn 0.4280 -0.9038 -0.0000
vn 0.9394 0.3427 -0.0000
vn 0.1514 -0.9885 -0.0000
vn 0.9343 -0.1069 0.3401
vn 0.1631 0.9848 0.0594
vn 0.9040 -0.2730 0.3290
vn 0.4413 0.8829 0.1606
vn 0.8446 -0.4383 0.3074
vn 0.6298 0.7422 0.2292
vn 0.7490 -0.6038 0.2726
vn 0.7490 0.6038 0.2726
vn 0.6054 -0.7648 0.2203
vn 0.8276 0.4736 0.3012
vn 0.4022 -0.9038 0.1464
vn 0.8828 0.3427 0.3213
vn 0.1423 -0.9885 0.0518
vn 0.9208 0.1994 0.3351
vn 0.1329 0.9848 0.1116
vn 0.7369 -0.2730 0.6184
vn 0.3598 0.8829 0.3019
vn 0.6886 -0.4383 0.5778
vn 0.5134 0.7422 0.4308
vn 0.6106 -0.6038 0.5124
vn 0.6106 0.6038 0.5124
vn 0.4935 -0.7648 0.4141
vn 0.6747 0.4736 0.5661
vn 0.3279 -0.9038 0.2751
vn 0.7196 0.3427 0.6039
vn 0.1160 -0.9885 0.0973
vn 0.7507 0.1994 0.6299
vn 0.7617 -0.1069 0.6391
vn 0.4810 -0.2730 0.8331
vn 0.2348 0.8829 0.4067
vn 0.4494 -0.4383 0.7784
vn 0.3351 0.7422 0.5804
vn 0.3986 -0.6038 0.6903
vn 0.3986 0.6038 0.6903
vn 0.3221 -0.7648 0.5579
vn 0.4404 0.4736 0.7627
vn 0.2140 -0.9038 0.3707
vn 0.4697 0.3427 0.8136
vn 0.0757 -0.9885 0.1312
vn 0.4900 0.1994 0.8486
vn 0.4971 -0.1069 0.8611
vn 0.0868 0.9848 0.1503
vn 0.0816 0.8829 0.4625
vn 0.1561 -0.4383 0.8852
vn 0.1164 0.7422 0.6600
vn 0.1384 -0.6038 0.7850
vn 0.1384 0.6038 0.7850
vn 0.1119 -0.7648 0.6344
vn 0.1529 0.4736 0.8674
vn 0.0743 -0.9038 0.4215
vn 0.1631 0.3427 0.9252
vn 0.0263 -0.9885 0.1491
vn 0.1702 0.1994 0.9650
vn 0.1727 -0.1069 0.9792
vn 0.0301 0.9848 0.1709
vn 0.1671 -0.2730 0.9474
vn -0.1561 -0.4383 0.8852
vn -0.1164 0.7422 0.6600
vn -0.1384 -0.6038 0.7850
vn -0.1384 0.6038 0.7850
vn -0.1119 -0.7648 0.6344
vn -0.1529 0.4736 0.8674
vn -0.0743 -0.9038 0.4215
vn -0.1631 0.3427 0.9252
vn -0.0263 -0.9885 0.1491
vn -0.1702 0.1994 0.9650
vn -0.1727 -0.1069 0.9792
vn -0.0301 0.9848 0.1709
vn -0.1671 -0.2730 0.9474
vn -0.0816 0.8829 0.4625
vn -0.3986 -0.6038 0.6903
vn -0.3986 0.6038 0.6903
vn -0.3221 -0.7648 0.5579
vn -0.4404 0.4736 0.7627
vn -0.2140 -0.9038 0.3707
vn -0.4697 0.3427 0.8136
vn -0.0757 -0.9885 0.1312
vn -0.4900 0.1994 0.8486
vn -0.4971 -0.1069 0.8611
vn -0.0868 0.9848 0.1503
vn -0.4810 -0.2730 0.8331
vn -0.2348 0.8829 0.4067
vn -0.4494 -0.4383 0.7784
vn -0.3351 0.7422 0.5804
vn -0.6106 0.6038 0.5124
vn -0.4935 -0.7648 0.4141
vn -0.6747 0.4736 0.5661
vn -0.3279 -0.9038 0.2751
vn -0.7196 0.3427 0.6039
vn -0.1160 -0.9885 0.0973
vn -0.7507 0.1994 0.6299
vn -0.7617 -0.1069 0.6391
vn -0.1329 0.9848 0.1116
vn -0.7369 -0.2730 0.6184
vn -0.3598 0.8829 0.3019
vn -0.6886 -0.4383 0.5778
vn -0.5134 0.7422 0.4308
vn -0.6106 -0.6038 0.5124
vn -0.6054 -0.7648 0.2203
vn -0.8276 0.4736 0.3012
vn -0.4022 -0.9038 0.1464
vn -0.8828 0.3427 0.3213
vn -0.1423 -0.9885 0.0518
vn -0.9208 0.1994 0.3351
vn -0.9343 -0.1069 0.3401
vn -0.1631 0.9848 0.0594
vn -0.9040 -0.2730 0.3290
vn -0.4413 0.8829 0.1606
vn -0.8446 -0.4383 0.3074
vn -0.6298 0.7422 0.2292
vn -0.7490 -0.6038 0.2726
vn -0.7490 0.6038 0.2726
vn -0.8807 0.4736 -0.0000
vn -0.4280 -0.9038 -0.0000
vn -0.9394 0.3427 -0.0000
vn -0.1514 -0.9885 -0.0000
vn -0.9799 0.1994 -0.0000
vn -0.9943 -0.1069 -0.0000
vn -0.1736 0.9848 -0.0000
vn -0.9620 -0.2730 -0.0000
vn -0.4696 0.8829 -0.0000
vn -0.8989 -0.4383 -0.0000
vn -0.6702 0.7422 -0.0000
vn -0.7971 -0.6038 -0.0000
vn -0.7971 0.6038 -0.0000
vn -0.6442 -0.7648 -0.0000
vn -0.4022 -0.9038 -0.1464
vn -0.8828 0.3427 -0.3213
vn -0.1423 -0.9885 -0.0518
vn -0.9208 0.1994 -0.3351
vn -0.9343 -0.1069 -0.3401
vn -0.1631 0.9848 -0.0594
vn -0.9040 -0.2730 -0.3290
vn -0.4413 0.8829 -0.1606
vn -0.8446 -0.4383 -0.3074
vn -0.6298 0.7422 -0.2292
vn -0.7490 -0.6038 -0.2726
vn -0.7490 0.6038 -0.2726
vn -0.6054 -0.7648 -0.2203
vn -0.8276 0.4736 -0.3012
vn -0.1160 -0.9885 -0.0973
vn -0.7507 0.1994 -0.6299
vn -0.7617 -0.1069 -0.6391
vn -0.1330 0.9848 -0.1116
vn -0.7369 -0.2730 -0.6184
vn -0.3598 0.8829 -0.3019
vn -0.6886 -0.4383 -0.5778
vn -0.5134 0.7422 -0.4308
vn -0.6106 -0.6038 -0.5124
vn -0.6106 0.6038 -0.5124
vn -0.4935 -0.7648 -0.4141
vn -0.6747 0.4736 -0.5661
vn -0.3279 -0.9038 -0.2751
vn -0.7196 0.3427 -0.6039
vn -0.4900 0.1994 -0.8486
vn -0.4971 -0.1069 -0.8611
vn -0.0868 0.9848 -0.1503
vn -0.4810 -0.2730 -0.8331
vn -0.2348 0.8829 -0.4067
vn -0.4494 -0.4383 -0.7784
vn -0.3351 0.7422 -0.5804
vn -0.3986 -0.6038 -0.6903
vn -0.3986 0.6038 -0.6903
vn -0.3221 -0.7648 -0.5579
vn -0.4404 0.4736 -0.7627
vn -0.2140 -0.9038 -0.3707
vn -0.4697 0.3427 -0.8136
vn -0.0757 -0.9885 -0.1312
vn -0.1727 -0.1069 -0.9792
vn -0.0301 0.9848 -0.1709
vn -0.1671 -0.2730 -0.9474
vn -0.0816 0.8829 -0.4625
vn -0.1561 -0.4383 -0.8852
vn -0.1164 0.7422 -0.6600
vn -0.1384 -0.6038 -0.7850
vn -0.1384 0.6038 -0.7850
vn -0.1119 -0.7648 -0.6344
vn -0.1529 0.4736 -0.8674
vn -0.0743 -0.9038 -0.4215
vn -0.1631 0.3427 -0.9252
vn -0.0263 -0.9885 -0.1491
vn -0.1702 0.1994 -0.9650
s 0
usemtl EF_Egg_crystal_Shell
f 235//1 234//1 13//1 14//1
f 228//2 227//2 6//2 7//2
f 236//3 235//3 14//3 15//3
f 229//4 228//4 7//4 8//4
f 2//5 236//5 15//5
f 230//6 229//6 8//6 9//6
f 231//7 230//7 9//7 10//7
f 224//8 1//8 3//8
f 232//9 231//9 10//9 11//9
f 225//10 224//10 3//10 4//10
f 233//11 232//11 11//11 12//11
f 226//12 225//12 4//12 5//12
f 234//13 233//13 12//13 13//13
f 227//14 226//14 5//14 6//14
f 15//15 14//15 27//15 28//15
f 2//17 15//17 28//17
f 10//19 9//19 22//19 23//19
f 3//20 1//20 16//20
f 11//21 10//21 23//21 24//21
f 4//22 3//22 16//22 17//22
f 12//23 11//23 24//23 25//23
f 5//24 4//24 17//24 18//24
f 13//25 12//25 25//25 26//25
f 6//26 5//26 18//26 19//26
f 14//27 13//27 26//27 27//27
f 2//30 28//30 41//30
f 22//31 21//31 34//31 35//31
f 23//32 22//32 35//32 36//32
f 16//33 1//33 29//33
f 24//34 23//34 36//34 37//34
f 17//35 16//35 29//35 30//35
f 25//36 24//36 37//36 38//36
f 18//37 17//37 30//37 31//37
f 26//38 25//38 38//38 39//38
f 19//39 18//39 31//39 32//39
f 27//40 26//40 39//40 40//40
f 20//41 19//41 32//41 33//41
f 28//42 27//42 40//42 41//42
f 2//43 41//43 54//43
f 35//44 34//44 47//44 48//44
f 36//45 35//45 48//45 49//45
f 29//46 1//46 42//46
f 37//47 36//47 49//47 50//47
f 30//48 29//48 42//48 43//48
f 38//49 37//49 50//49 51//49
f 31//50 30//50 43//50 44//50
f 39//51 38//51 51//51 52//51
f 40//53 39//53 52//53 53//53
f 33//54 32//54 45//54 46//54
f 41//55 40//55 53//55 54//55
f 34//56 33//56 46//56 47//56
f 48//57 47//57 60//57 61//57
f 49//58 48//58 61//58 62//58
f 42//59 1//59 55//59
f 50//60 49//60 62//60 63//60
f 43//61 42//61 55//61 56//61
f 51//62 50//62 63//62 64//62
f 52//64 51//64 64//64 65//64
f 53//66 52//66 65//66 66//66
f 54//68 53//68 66//68 67//68
f 47//69 46//69 59//69 60//69
f 2//70 54//70 67//70
f 62//71 61//71 74//71 75//71
f 55//72 1//72 68//72
f 63//73 62//73 75//73 76//73
f 56//74 55//74 68//74 69//74
f 64//75 63//75 76//75 77//75
f 57//76 56//76 69//76 70//76
f 65//77 64//77 77//77 78//77
f 66//79 65//79 78//79 79//79
f 67//81 66//81 79//81 80//81
f 60//82 59//82 72//82 73//82
f 2//83 67//83 80//83
f 61//84 60//84 73//84 74//84
f 68//85 1//85 81//85
f 76//86 75//86 88//86 89//86
f 69//87 68//87 81//87 82//87
f 77//88 76//88 89//88 90//88
f 70//89 69//89 82//89 83//89
f 78//90 77//90 90//90 91//90
f 71//91 70//91 83//91 84//91
f 79//92 78//92 91//92 92//92
f 80//94 79//94 92//94 93//94
f 2//96 80//96 93//96
f 75//98 74//98 87//98 88//98
f 89//99 88//99 101//99 102//99
f 82//100 81//100 94//100 95//100
f 90//101 89//101 102//101 103//101
f 83//102 82//102 95//102 96//102
f 91//103 90//103 103//103 104//103
f 84//104 83//104 96//104 97//104
f 92//105 91//105 104//105 105//105
f 85//106 84//106 97//106 98//106
f 93//107 92//107 105//107 106//107
f 86//108 85//108 98//108 99//108
f 2//109 93//109 106//109
f 87//110 86//110 99//110 100//110
f 88//111 87//111 100//111 101//111
f 81//112 1//112 94//112
f 95//113 94//113 107//113 108//113
f 103//114 102//114 115//114 116//114
f 96//115 95//115 108//115 109//115
f 104//116 103//116 116//116 117//116
f 97//117 96//117 109//117 110//117
f 105//118 104//118 117//118 118//118
f 98//119 97//119 110//119 111//119
f 106//120 105//120 118//120 119//120
f 2//122 106//122 119//122
f 101//124 100//124 113//124 114//124
f 94//125 1//125 107//125
f 102//126 101//126 114//126 115//126
f 109//128 108//128 121//128 122//128
f 117//129 116//129 129//129 130//129
f 110//130 109//130 122//130 123//130
f 118//131 117//131 130//131 131//131
f 111//132 110//132 123//132 124//132
f 119//133 118//133 131//133 132//133
f 2//135 119//135 132//135
f 114//137 113//137 126//137 127//137
f 107//138 1//138 120//138
f 108//140 107//140 120//140 121//140
f 130//141 129//141 142//141 143//141
f 123//142 122//142 135//142 136//142
f 131//143 130//143 143//143 144//143
f 124//144 123//144 136//144 137//144
f 132//145 131//145 144//145 145//145
f 125//146 124//146 137//146 138//146
f 2//147 132//147 145//147
f 126//148 125//148 138//148 139//148
f 127//149 126//149 139//149 140//149
f 120//150 1//150 133//150
f 121//152 120//152 133//152 134//152
f 122//154 121//154 134//154 135//154
f 136//155 135//155 148//155 149//155
f 144//156 143//156 156//156 157//156
f 137//157 136//157 149//157 150//157
f 145//158 144//158 157//158 158//158
f 138//159 137//159 150//159 151//159
f 2//160 145//160 158//160
f 139//161 138//161 151//161 152//161
f 140//162 139//162 152//162 153//162
f 133//163 1//163 146//163
f 141//164 140//164 153//164 154//164
f 134//165 133//165 146//165 147//165
f 142//166 141//166 154//166 155//166
f 135//167 134//167 147//167 148//167
f 143//168 142//168 155//168 156//168
f 157//169 156//169 169//169 170//169
f 150//170 149//170 162//170 163//170
f 158//171 157//171 170//171 171//171
f 151//172 150//172 163//172 164//172
f 2//173 158//173 171//173
f 152//174 151//174 164//174 165//174
f 153//175 152//175 165//175 166//175
f 146//176 1//176 159//176
f 154//177 153//177 166//177 167//177
f 147//178 146//178 159//178 160//178
f 155//179 154//179 167//179 168//179
f 148//180 147//180 160//180 161//180
f 156//181 155//181 168//181 169//181
f 149//182 148//182 161//182 162//182
f 163//183 162//183 175//183 176//183
f 171//184 170//184 183//184 184//184
f 164//185 163//185 176//185 177//185
f 2//186 171//186 184//186
f 159//189 1//189 172//189
f 167//190 166//190 179//190 180//190
f 160//191 159//191 172//191 173//191
f 168//192 167//192 180//192 181//192
f 161//193 160//193 173//193 174//193
f 169//194 168//194 181//194 182//194
f 162//195 161//195 174//195 175//195
f 170//196 169//196 182//196 183//196
f 184//197 183//197 196//197 197//197
f 177//198 176//198 189//198 190//198
f 2//199 184//199 197//199
f 178//200 177//200 190//200 191//200
f 179//201 178//201 191//201 192//201
f 172//202 1//202 185//202
f 173//204 172//204 185//204 186//204
f 181//205 180//205 193//205 194//205
f 174//206 173//206 186//206 187//206
f 182//207 181//207 194//207 195//207
f 175//208 174//208 187//208 188//208
f 183//209 182//209 195//209 196//209
f 176//210 175//210 188//210 189//210
f 2//211 197//211 210//211
f 191//212 190//212 203//212 204//212
f 192//213 191//213 204//213 205//213
f 185//214 1//214 198//214
f 186//216 185//216 198//216 199//216
f 194//217 193//217 206//217 207//217
f 187//218 186//218 199//218 200//218
f 195//219 194//219 207//219 208//219
f 188//220 187//220 200//220 201//220
f 196//221 195//221 208//221 209//221
f 189//222 188//222 201//222 202//222
f 197//223 196//223 209//223 210//223
f 190//224 189//224 202//224 203//224
f 204//225 203//225 216//225 217//225
f 205//226 204//226 217//226 218//226
f 198//227 1//227 211//227
f 206//228 205//228 218//228 219//228
f 199//229 198//229 211//229 212//229
f 207//230 206//230 219//230 220//230
f 200//231 199//231 212//231 213//231
f 208//232 207//232 220//232 221//232
f 209//234 208//234 221//234 222//234
f 210//236 209//236 222//236 223//236
f 2//238 210//238 223//238
f 218//239 217//239 230//239 231//239
f 211//240 1//240 224//240
f 219//241 218//241 231//241 232//241
f 212//242 211//242 224//242 225//242
f 220//243 219//243 232//243 233//243
f 213//244 212//244 225//244 226//244
f 221//245 220//245 233//245 234//245
f 214//246 213//246 226//246 227//246
f 222//247 221//247 234//247 235//247
f 215//248 214//248 227//248 228//248
f 223//249 222//249 235//249 236//249
f 216//250 215//250 228//250 229//250
f 2//251 223//251 236//251
f 217//252 216//252 229//252 230//252
usemtl EF_Egg_crystal_Spots
f 8//16 7//16 20//16 21//16
f 9//18 8//18 21//18 22//18
f 7//28 6//28 19//28 20//28
f 21//29 20//29 33//29 34//29
f 32//52 31//52 44//52 45//52
f 44//63 43//63 56//63 57//63
f 45//65 44//65 57//65 58//65
f 46//67 45//67 58//67 59//67
f 58//78 57//78 70//78 71//78
f 59//80 58//80 71//80 72//80
f 72//93 71//93 84//93 85//93
f 73//95 72//95 85//95 86//95
f 74//97 73//97 86//97 87//97
f 99//121 98//121 111//121 112//121
f 100//123 99//123 112//123 113//123
f 116//127 115//127 128//127 129//127
f 112//134 111//134 124//134 125//134
f 113//136 112//136 125//136 126//136
f 115//139 114//139 127//139 128//139
f 128//151 127//151 140//151 141//151
f 129//153 128//153 141//153 142//153
f 165//187 164//187 177//187 178//187
f 166//188 165//188 178//188 179//188
f 180//203 179//203 192//203 193//203
f 193//215 192//215 205//215 206//215
f 201//233 200//233 213//233 214//233
f 202//235 201//235 214//235 215//235
f 203//237 202//237 215//237 216//237
