# Blender 5.0.1
# www.blender.org
mtllib Egg_clover.mtl
o Egg_clover
v 0.000000 0.364000 0.000000
v 0.000000 0.283114 0.106058
v 0.000000 0.251648 0.121424
v 0.000000 0.080886 0.114466
v 0.000000 0.000000 0.000000
v -0.005960 0.360503 0.022242
v -0.011817 0.350146 0.044100
v -0.017453 0.333327 0.065135
v -0.022723 0.310693 0.084803
v -0.027450 0.283114 0.102444
v -0.031427 0.251648 0.117286
v -0.034429 0.217506 0.128491
v -0.036235 0.182000 0.135230
v -0.035330 0.146494 0.131855
v -0.033092 0.112352 0.123502
v -0.029626 0.080886 0.110565
v -0.025078 0.053307 0.093593
v -0.019629 0.030673 0.073256
v -0.013482 0.013854 0.050316
v -0.006861 0.003497 0.025606
v -0.011513 0.360503 0.019942
v -0.022828 0.350146 0.039539
v -0.033716 0.333327 0.058398
v -0.043897 0.310693 0.076033
v -0.053029 0.283114 0.091849
v -0.060712 0.251648 0.105156
v -0.066512 0.217506 0.115202
v -0.070000 0.182000 0.121244
v -0.068253 0.146494 0.118218
v -0.063929 0.112352 0.110728
v -0.057233 0.080886 0.099130
v -0.048447 0.053307 0.083913
v -0.037920 0.030673 0.065679
v -0.026045 0.013854 0.045112
v -0.013254 0.003497 0.022957
v -0.016282 0.360503 0.016282
v -0.032284 0.350146 0.032284
v -0.047682 0.333327 0.047682
v -0.062080 0.310693 0.062080
v -0.074995 0.283114 0.074995
v -0.085859 0.251648 0.085859
v -0.094062 0.217506 0.094062
v -0.098995 0.182000 0.098995
v -0.096525 0.146494 0.096525
v -0.090409 0.112352 0.090409
v -0.080939 0.080886 0.080939
v -0.068515 0.053307 0.068515
v -0.053627 0.030673 0.053627
v -0.036834 0.013854 0.036834
v -0.018745 0.003497 0.018745
v -0.019942 0.360503 0.011513
v -0.039539 0.350146 0.022828
v -0.058398 0.333327 0.033716
v -0.076033 0.310693 0.043897
v -0.091849 0.283114 0.053029
v -0.105156 0.251648 0.060712
v -0.115202 0.217506 0.066512
v -0.121244 0.182000 0.070000
v -0.118218 0.146494 0.068253
v -0.110728 0.112352 0.063929
v -0.099130 0.080886 0.057233
v -0.083913 0.053307 0.048447
v -0.065679 0.030673 0.037920
v -0.045112 0.013854 0.026045
v -0.022957 0.003497 0.013255
v -0.022242 0.360503 0.005960
v -0.044100 0.350146 0.011817
v -0.065135 0.333327 0.017453
v -0.084803 0.310693 0.022723
v -0.102444 0.283114 0.027450
v -0.117286 0.251648 0.031427
v -0.128491 0.217506 0.034429
v -0.135230 0.182000 0.036235
v -0.131855 0.146494 0.035330
v -0.123502 0.112352 0.033092
v -0.110565 0.080886 0.029626
v -0.093593 0.053307 0.025078
v -0.073255 0.030673 0.019629
v -0.050316 0.013854 0.013482
v -0.025606 0.003497 0.006861
v -0.023027 0.360503 0.000000
v -0.045656 0.350146 0.000000
v -0.067432 0.333327 0.000000
v -0.087795 0.310693 0.000000
v -0.106058 0.283114 0.000000
v -0.121423 0.251648 0.000000
v -0.133024 0.217506 0.000000
v -0.140000 0.182000 0.000000
v -0.136506 0.146494 0.000000
v -0.127858 0.112352 0.000000
v -0.114466 0.080886 0.000000
v -0.096895 0.053307 0.000000
v -0.075840 0.030673 0.000000
v -0.052091 0.013854 0.000000
v -0.026509 0.003497 0.000000
v -0.022242 0.360503 -0.005960
v -0.044100 0.350146 -0.011817
v -0.065135 0.333327 -0.017453
v -0.084803 0.310693 -0.022723
v -0.102444 0.283114 -0.027450
v -0.117286 0.251648 -0.031427
v -0.128491 0.217506 -0.034429
v -0.135230 0.182000 -0.036235
v -0.131855 0.146494 -0.035330
v -0.123502 0.112352 -0.033092
v -0.110565 0.080886 -0.029626
v -0.093593 0.053307 -0.025078
v -0.073255 0.030673 -0.019629
v -0.050316 0.013854 -0.013482
v -0.025606 0.003497 -0.006861
v -0.019942 0.360503 -0.011513
v -0.039539 0.350146 -0.022828
v -0.058398 0.333327 -0.033716
v -0.076033 0.310693 -0.043897
v -0.091849 0.283114 -0.053029
v -0.105156 0.251648 -0.060712
v -0.115202 0.217506 -0.066512
v -0.121243 0.182000 -0.070000
v -0.118218 0.146494 -0.068253
v -0.110728 0.112352 -0.063929
v -0.099130 0.080886 -0.057233
v -0.083913 0.053307 -0.048447
v -0.065679 0.030673 -0.037920
v -0.045112 0.013854 -0.026045
v -0.022957 0.003497 -0.013254
v -0.016282 0.360503 -0.016282
v -0.032284 0.350146 -0.032284
v -0.047682 0.333327 -0.047682
v -0.062080 0.310693 -0.062080
v -0.074994 0.283114 -0.074995
v -0.085859 0.251648 -0.085859
v -0.094062 0.217506 -0.094062
v -0.098995 0.182000 -0.098995
v -0.096524 0.146494 -0.096524
v -0.090409 0.112352 -0.090409
v -0.080939 0.080886 -0.080939
v -0.068515 0.053307 -0.068515
v -0.053627 0.030673 -0.053627
v -0.036834 0.013854 -0.036834
v -0.018745 0.003497 -0.018745
v -0.011513 0.360503 -0.019942
v -0.022828 0.350146 -0.039539
v -0.033716 0.333327 -0.058398
v -0.043897 0.310693 -0.076033
v -0.053029 0.283114 -0.091849
v -0.060712 0.251648 -0.105156
v -0.066512 0.217506 -0.115202
v -0.070000 0.182000 -0.121244
v -0.068253 0.146494 -0.118218
v -0.063929 0.112352 -0.110728
v -0.057233 0.080886 -0.099130
v -0.048447 0.053307 -0.083913
v -0.037920 0.030673 -0.065679
v -0.026045 0.013854 -0.045112
v -0.013254 0.003497 -0.022957
v -0.005960 0.360503 -0.022242
v -0.011817 0.350146 -0.044100
v -0.017453 0.333327 -0.065135
v -0.022723 0.310693 -0.084803
v -0.027450 0.283114 -0.102444
v -0.031427 0.251648 -0.117286
v -0.034429 0.217506 -0.128491
v -0.036235 0.182000 -0.135230
v -0.035330 0.146494 -0.131855
v -0.033092 0.112352 -0.123501
v -0.029626 0.080886 -0.110565
v -0.025078 0.053307 -0.093593
v -0.019629 0.030673 -0.073255
v -0.013482 0.013854 -0.050316
v -0.006861 0.003497 -0.025606
v 0.000000 0.360503 -0.023027
v 0.000000 0.350146 -0.045656
v 0.000000 0.333327 -0.067432
v 0.000000 0.310693 -0.087795
v 0.000000 0.283114 -0.106058
v 0.000000 0.251648 -0.121423
v 0.000000 0.217506 -0.133024
v 0.000000 0.182000 -0.140000
v 0.000000 0.146494 -0.136506
v 0.000000 0.112352 -0.127858
v 0.000000 0.080886 -0.114466
v 0.000000 0.053307 -0.096895
v 0.000000 0.030673 -0.075840
v 0.000000 0.013854 -0.052091
v 0.000000 0.003497 -0.026509
v 0.005960 0.360503 -0.022242
v 0.011817 0.350146 -0.044100
v 0.017453 0.333327 -0.065135
v 0.022723 0.310693 -0.084803
v 0.027450 0.283114 -0.102444
v 0.031427 0.251648 -0.117286
v 0.034429 0.217506 -0.128491
v 0.036235 0.182000 -0.135230
v 0.035330 0.146494 -0.131855
v 0.033092 0.112352 -0.123501
v 0.029626 0.080886 -0.110565
v 0.025078 0.053307 -0.093593
v 0.019629 0.030673 -0.073255
v 0.013482 0.013854 -0.050316
v 0.006861 0.003497 -0.025606
v 0.011513 0.360503 -0.019942
v 0.022828 0.350146 -0.039539
v 0.033716 0.333327 -0.058398
v 0.043897 0.310693 -0.076033
v 0.053029 0.283114 -0.091849
v 0.060712 0.251648 -0.105156
v 0.066512 0.217506 -0.115202
v 0.070000 0.182000 -0.121243
v 0.068253 0.146494 -0.118218
v 0.063929 0.112352 -0.110728
v 0.057233 0.080886 -0.099130
v 0.048447 0.053307 -0.083913
v 0.037920 0.030673 -0.065679
v 0.026045 0.013854 -0.045112
v 0.013255 0.003497 -0.022957
v 0.016282 0.360503 -0.016282
v 0.032284 0.350146 -0.032284
v 0.047682 0.333327 -0.047682
v 0.062080 0.310693 -0.062080
v 0.074995 0.283114 -0.074994
v 0.085859 0.251648 -0.085859
v 0.094062 0.217506 -0.094062
v 0.098995 0.182000 -0.098995
v 0.096525 0.146494 -0.096524
v 0.090409 0.112352 -0.090409
v 0.080939 0.080886 -0.080939
v 0.068515 0.053307 -0.068515
v 0.053627 0.030673 -0.053627
v 0.036834 0.013854 -0.036834
v 0.018745 0.003497 -0.018745
v 0.019942 0.360503 -0.011513
v 0.039539 0.350146 -0.022828
v 0.058398 0.333327 -0.033716
v 0.076033 0.310693 -0.043897
v 0.091849 0.283114 -0.053029
v 0.105156 0.251648 -0.060712
v 0.115202 0.217506 -0.066512
v 0.121244 0.182000 -0.070000
v 0.118218 0.146494 -0.068253
v 0.110728 0.112352 -0.063929
v 0.099130 0.080886 -0.057233
v 0.083913 0.053307 -0.048447
v 0.065679 0.030673 -0.037920
v 0.045112 0.013854 -0.026045
v 0.022958 0.003497 -0.013254
v 0.022242 0.360503 -0.005960
v 0.044100 0.350146 -0.011817
v 0.065135 0.333327 -0.017453
v 0.084803 0.310693 -0.022723
v 0.102444 0.283114 -0.027450
v 0.117286 0.251648 -0.031427
v 0.128491 0.217506 -0.034429
v 0.135230 0.182000 -0.036235
v 0.131855 0.146494 -0.035330
v 0.123502 0.112352 -0.033092
v 0.110565 0.080886 -0.029626
v 0.093593 0.053307 -0.025078
v 0.073256 0.030673 -0.019629
v 0.050316 0.013854 -0.013482
v 0.025606 0.003497 -0.006861
v 0.023027 0.360503 0.000000
v 0.045656 0.350146 0.000000
v 0.067432 0.333327 0.000000
v 0.087795 0.310693 0.000000
v 0.106058 0.283114 0.000000
v 0.121424 0.251648 0.000000
v 0.133024 0.217506 0.000000
v 0.140000 0.182000 0.000000
v 0.136506 0.146494 0.000000
v 0.127858 0.112352 0.000000
v 0.114466 0.080886 0.000000
v 0.096895 0.053307 0.000000
v 0.075840 0.030673 0.000000
v 0.052091 0.013854 0.000000
v 0.026509 0.003497 0.000000
v 0.022242 0.360503 0.005960
v 0.044100 0.350146 0.011817
v 0.065135 0.333327 0.017453
v 0.084803 0.310693 0.022723
v 0.102444 0.283114 0.027450
v 0.117286 0.251648 0.031427
v 0.128491 0.217506 0.034429
v 0.135230 0.182000 0.036235
v 0.131855 0.146494 0.035330
v 0.123502 0.112352 0.033092
v 0.110565 0.080886 0.029626
v 0.093593 0.053307 0.025078
v 0.073256 0.030673 0.019629
v 0.050316 0.013854 0.013482
v 0.025606 0.003497 0.006861
v 0.019942 0.360503 0.011513
v 0.039539 0.350146 0.022828
v 0.058398 0.333327 0.033716
v 0.076033 0.310693 0.043897
v 0.091849 0.283114 0.053029
v 0.105156 0.251648 0.060712
v 0.115202 0.217506 0.066512
v 0.121243 0.182000 0.070000
v 0.118218 0.146494 0.068253
v 0.110728 0.112352 0.063929
v 0.099130 0.080886 0.057233
v 0.083913 0.053307 0.048447
v 0.065679 0.030673 0.037920
v 0.045112 0.013854 0.026045
v 0.022957 0.003497 0.013255
v 0.016282 0.360503 0.016282
v 0.032284 0.350146 0.032284
v 0.047682 0.333327 0.047682
v 0.062080 0.310693 0.062080
v 0.074995 0.283114 0.074995
v 0.085859 0.251648 0.085859
v 0.094062 0.217506 0.094062
v 0.098995 0.182000 0.098995
v 0.096525 0.146494 0.096525
v 0.090409 0.112352 0.090409
v 0.080939 0.080886 0.080939
v 0.068515 0.053307 0.068515
v 0.053627 0.030673 0.053627
v 0.036834 0.013854 0.036834
v 0.018745 0.003497 0.018745
v 0.011513 0.360503 0.019942
v 0.022828 0.350146 0.039539
v 0.033716 0.333327 0.058398
v 0.043897 0.310693 0.076033
v 0.053029 0.283114 0.091849
v 0.060712 0.251648 0.105156
v 0.066512 0.217506 0.115202
v 0.070000 0.182000 0.121244
v 0.068253 0.146494 0.118218
v 0.063929 0.112352 0.110728
v 0.057233 0.080886 0.099130
v 0.048447 0.053307 0.083913
v 0.037920 0.030673 0.065679
v 0.026045 0.013854 0.045112
v 0.013255 0.003497 0.022957
v 0.005960 0.360503 0.022242
v 0.011817 0.350146 0.044100
v 0.017453 0.333327 0.065135
v 0.022723 0.310693 0.084803
v 0.027450 0.283114 0.102444
v 0.031427 0.251648 0.117286
v 0.034429 0.217506 0.128491
v 0.036235 0.182000 0.135230
v 0.035330 0.146494 0.131855
v 0.033092 0.112352 0.123502
v 0.029626 0.080886 0.110565
v 0.025078 0.053307 0.093593
v 0.019629 0.030673 0.073256
v 0.013482 0.013854 0.050316
v 0.006861 0.003497 0.025606
v 0.000000 0.360503 0.023027
v 0.000000 0.350146 0.045656
v 0.000000 0.333327 0.067432
v 0.000000 0.310693 0.087795
v 0.000000 0.217506 0.133024
v -0.000000 0.182000 0.140000
v 0.000000 0.146494 0.136506
v -0.000000 0.112352 0.127858
v 0.000000 0.053307 0.096895
v 0.000000 0.030673 0.075840
v 0.000000 0.013854 0.052091
v 0.000000 0.003497 0.026509
vn -0.1104 -0.5340 0.8382
vn -0.1091 0.5488 0.8288
vn -0.0959 -0.6780 0.7288
vn -0.1175 0.4358 0.8924
vn -0.0759 -0.8137 0.5763
vn -0.1237 0.3192 0.9396
vn -0.0493 -0.9258 0.3748
vn -0.1281 0.1912 0.9732
vn -0.0198 0.9885 0.1501
vn -0.0172 -0.9913 0.1308
vn -0.1299 -0.0971 0.9868
vn -0.0547 0.9079 0.4155
vn -0.1266 -0.2436 0.9616
vn -0.0802 0.7889 0.6093
vn -0.1203 -0.3888 0.9134
vn -0.0974 0.6656 0.7399
vn -0.2352 0.7889 0.5678
vn -0.3526 -0.3888 0.8512
vn -0.2856 0.6656 0.6895
vn -0.3235 -0.5340 0.7811
vn -0.3199 0.5488 0.7723
vn -0.2813 -0.6780 0.6791
vn -0.3444 0.4358 0.8315
vn -0.2224 -0.8137 0.5370
vn -0.3627 0.3192 0.8755
vn -0.1447 -0.9258 0.3493
vn -0.3756 0.1912 0.9068
vn -0.0580 0.9885 0.1399
vn -0.0505 -0.9913 0.1219
vn -0.3809 -0.0971 0.9195
vn -0.1604 0.9079 0.3872
vn -0.3712 -0.2436 0.8961
vn -0.5769 0.3192 0.7518
vn -0.2301 -0.9258 0.2999
vn -0.5975 0.1912 0.7787
vn -0.0922 0.9885 0.1201
vn -0.0803 -0.9913 0.1046
vn -0.6059 -0.0971 0.7896
vn -0.2551 0.9079 0.3325
vn -0.5904 -0.2436 0.7695
vn -0.3741 0.7889 0.4875
vn -0.5609 -0.3888 0.7309
vn -0.4543 0.6656 0.5921
vn -0.5147 -0.5340 0.6708
vn -0.5089 0.5488 0.6632
vn -0.4475 -0.6780 0.5832
vn -0.5479 0.4358 0.7141
vn -0.3538 -0.8137 0.4611
vn -0.7309 -0.3888 0.5609
vn -0.5921 0.6656 0.4543
vn -0.6708 -0.5340 0.5147
vn -0.6632 0.5488 0.5089
vn -0.5832 -0.6780 0.4475
vn -0.7141 0.4358 0.5479
vn -0.4611 -0.8137 0.3538
vn -0.7518 0.3192 0.5769
vn -0.2999 -0.9258 0.2301
vn -0.7787 0.1912 0.5975
vn -0.1201 0.9885 0.0922
vn -0.1046 -0.9913 0.0803
vn -0.7896 -0.0971 0.6059
vn -0.3325 0.9079 0.2551
vn -0.7695 -0.2436 0.5904
vn -0.4875 0.7889 0.3741
vn -0.3493 -0.9258 0.1447
vn -0.9068 0.1912 0.3756
vn -0.1399 0.9885 0.0579
vn -0.1219 -0.9913 0.0505
vn -0.9195 -0.0971 0.3809
vn -0.3872 0.9079 0.1604
vn -0.8961 -0.2436 0.3712
vn -0.5678 0.7889 0.2352
vn -0.8512 -0.3888 0.3526
vn -0.6895 0.6656 0.2856
vn -0.7811 -0.5340 0.3235
vn -0.7723 0.5488 0.3199
vn -0.6791 -0.6780 0.2813
vn -0.8315 0.4358 0.3444
vn -0.5370 -0.8137 0.2224
vn -0.8755 0.3192 0.3627
vn -0.8382 -0.5340 0.1104
vn -0.8288 0.5488 0.1091
vn -0.7288 -0.6780 0.0959
vn -0.8924 0.4358 0.1175
vn -0.5763 -0.8137 0.0759
vn -0.9396 0.3192 0.1237
vn -0.3748 -0.9258 0.0493
vn -0.9732 0.1912 0.1281
vn -0.1501 0.9885 0.0198
vn -0.1308 -0.9913 0.0172
vn -0.9868 -0.0971 0.1299
vn -0.4155 0.9079 0.0547
vn -0.9616 -0.2436 0.1266
vn -0.6093 0.7889 0.0802
vn -0.9134 -0.3888 0.1203
vn -0.7399 0.6656 0.0974
vn -0.1501 0.9885 -0.0198
vn -0.1308 -0.9913 -0.0172
vn -0.9868 -0.0971 -0.1299
vn -0.4155 0.9079 -0.0547
vn -0.9616 -0.2436 -0.1266
vn -0.6093 0.7889 -0.0802
vn -0.9134 -0.3888 -0.1203
vn -0.7399 0.6656 -0.0974
vn -0.8382 -0.5340 -0.1104
vn -0.8288 0.5488 -0.1091
vn -0.7288 -0.6780 -0.0959
vn -0.8924 0.4358 -0.1175
vn -0.5763 -0.8137 -0.0759
vn -0.9396 0.3192 -0.1237
vn -0.3748 -0.9258 -0.0493
vn -0.9732 0.1912 -0.1281
vn -0.7723 0.5488 -0.3199
vn -0.6791 -0.6780 -0.2813
vn -0.8315 0.4358 -0.3444
vn -0.5370 -0.8137 -0.2224
vn -0.8755 0.3192 -0.3627
vn -0.3493 -0.9258 -0.1447
vn -0.9068 0.1912 -0.3756
vn -0.1399 0.9885 -0.0579
vn -0.1219 -0.9913 -0.0505
vn -0.9195 -0.0971 -0.3809
vn -0.3872 0.9079 -0.1604
vn -0.8961 -0.2436 -0.3712
vn -0.5678 0.7889 -0.2352
vn -0.8512 -0.3888 -0.3526
vn -0.6895 0.6656 -0.2856
vn -0.7811 -0.5340 -0.3235
vn -0.7896 -0.0971 -0.6059
vn -0.3325 0.9079 -0.2551
vn -0.7695 -0.2436 -0.5904
vn -0.4875 0.7889 -0.3741
vn -0.7309 -0.3888 -0.5609
vn -0.5921 0.6656 -0.4543
vn -0.6708 -0.5340 -0.5147
vn -0.6632 0.5488 -0.5089
vn -0.5832 -0.6780 -0.4475
vn -0.7141 0.4358 -0.5479
vn -0.4611 -0.8137 -0.3538
vn -0.7518 0.3192 -0.5769
vn -0.2999 -0.9258 -0.2301
vn -0.7787 0.1912 -0.5975
vn -0.1201 0.9885 -0.0922
vn -0.1046 -0.9913 -0.0803
vn -0.4475 -0.6780 -0.5832
vn -0.5479 0.4358 -0.7141
vn -0.3538 -0.8137 -0.4611
vn -0.5769 0.3192 -0.7518
vn -0.2301 -0.9258 -0.2999
vn -0.5975 0.1912 -0.7787
vn -0.0922 0.9885 -0.1201
vn -0.0803 -0.9913 -0.1046
vn -0.6059 -0.0971 -0.7896
vn -0.2551 0.9079 -0.3325
vn -0.5904 -0.2436 -0.7695
vn -0.3741 0.7889 -0.4875
vn -0.5609 -0.3888 -0.7309
vn -0.4543 0.6656 -0.5921
vn -0.5147 -0.5340 -0.6708
vn -0.5089 0.5488 -0.6632
vn -0.1604 0.9079 -0.3872
vn -0.3712 -0.2436 -0.8961
vn -0.2352 0.7889 -0.5678
vn -0.3526 -0.3888 -0.8512
vn -0.2856 0.6656 -0.6895
vn -0.3235 -0.5340 -0.7811
vn -0.3199 0.5488 -0.7723
vn -0.2813 -0.6780 -0.6791
vn -0.3444 0.4358 -0.8316
vn -0.2224 -0.8137 -0.5370
vn -0.3627 0.3192 -0.8755
vn -0.1447 -0.9258 -0.3493
vn -0.3756 0.1912 -0.9068
vn -0.0579 0.9885 -0.1399
vn -0.0505 -0.9913 -0.1219
vn -0.3809 -0.0971 -0.9195
vn -0.1175 0.4358 -0.8924
vn -0.0759 -0.8137 -0.5763
vn -0.1237 0.3192 -0.9396
vn -0.0493 -0.9258 -0.3748
vn -0.1281 0.1912 -0.9732
vn -0.0198 0.9885 -0.1501
vn -0.0172 -0.9913 -0.1308
vn -0.1299 -0.0971 -0.9868
vn -0.0547 0.9079 -0.4155
vn -0.1266 -0.2436 -0.9616
vn -0.0802 0.7889 -0.6093
vn -0.1203 -0.3888 -0.9134
vn -0.0974 0.6656 -0.7399
vn -0.1104 -0.5340 -0.8382
vn -0.1091 0.5488 -0.8288
vn -0.0959 -0.6780 -0.7288
vn 0.1266 -0.2436 -0.9616
vn 0.0802 0.7889 -0.6093
vn 0.1203 -0.3888 -0.9134
vn 0.0974 0.6656 -0.7399
vn 0.1104 -0.5340 -0.8382
vn 0.1091 0.5488 -0.8288
vn 0.0959 -0.6780 -0.7288
vn 0.1175 0.4358 -0.8924
vn 0.0759 -0.8137 -0.5763
vn 0.1237 0.3192 -0.9396
vn 0.0493 -0.9258 -0.3748
vn 0.1281 0.1912 -0.9732
vn 0.0198 0.9885 -0.1501
vn 0.0172 -0.9913 -0.1308
vn 0.1299 -0.0971 -0.9868
vn 0.0547 0.9079 -0.4155
vn 0.2224 -0.8137 -0.5370
vn 0.3627 0.3192 -0.8755
vn 0.1447 -0.9258 -0.3493
vn 0.3756 0.1912 -0.9068
vn 0.0579 0.9885 -0.1399
vn 0.0505 -0.9913 -0.1219
vn 0.3809 -0.0971 -0.9195
vn 0.1604 0.9079 -0.3872
vn 0.3712 -0.2436 -0.8961
vn 0.2352 0.7889 -0.5678
vn 0.3526 -0.3888 -0.8512
vn 0.2856 0.6656 -0.6895
vn 0.3235 -0.5340 -0.7811
vn 0.3199 0.5488 -0.7723
vn 0.2813 -0.6780 -0.6791
vn 0.3444 0.4358 -0.8315
vn 0.5609 -0.3888 -0.7309
vn 0.4543 0.6656 -0.5921
vn 0.5147 -0.5340 -0.6708
vn 0.5089 0.5488 -0.6632
vn 0.4475 -0.6780 -0.5832
vn 0.5479 0.4358 -0.7141
vn 0.3538 -0.8137 -0.4611
vn 0.5769 0.3192 -0.7518
vn 0.2301 -0.9258 -0.2999
vn 0.5975 0.1912 -0.7787
vn 0.0922 0.9885 -0.1201
vn 0.0803 -0.9913 -0.1046
vn 0.6059 -0.0971 -0.7896
vn 0.2551 0.9079 -0.3325
vn 0.5904 -0.2436 -0.7695
vn 0.3741 0.7889 -0.4875
vn 0.2999 -0.9258 -0.2301
vn 0.7787 0.1912 -0.5975
vn 0.1201 0.9885 -0.0922
vn 0.1046 -0.9913 -0.0803
vn 0.7896 -0.0971 -0.6059
vn 0.3325 0.9079 -0.2551
vn 0.7695 -0.2436 -0.5904
vn 0.4875 0.7889 -0.3741
vn 0.7309 -0.3888 -0.5609
vn 0.5921 0.6656 -0.4543
vn 0.6708 -0.5340 -0.5147
vn 0.6632 0.5488 -0.5089
vn 0.5832 -0.6780 -0.4475
vn 0.7141 0.4358 -0.5479
vn 0.4611 -0.8137 -0.3538
vn 0.7518 0.3192 -0.5769
vn 0.6895 0.6656 -0.2856
vn 0.7811 -0.5340 -0.3235
vn 0.7723 0.5488 -0.3199
vn 0.6791 -0.6780 -0.2813
vn 0.8315 0.4358 -0.3444
vn 0.5370 -0.8137 -0.2224
vn 0.8755 0.3192 -0.3627
vn 0.3493 -0.9258 -0.1447
vn 0.9068 0.1912 -0.3756
vn 0.1399 0.9885 -0.0579
vn 0.1219 -0.9913 -0.0505
vn 0.9195 -0.0971 -0.3809
vn 0.3872 0.9079 -0.1604
vn 0.8961 -0.2436 -0.3712
vn 0.5678 0.7889 -0.2352
vn 0.8512 -0.3888 -0.3526
vn 0.9732 0.1912 -0.1281
vn 0.1501 0.9885 -0.0198
vn 0.1308 -0.9913 -0.0172
vn 0.9868 -0.0971 -0.1299
vn 0.4155 0.9079 -0.0547
vn 0.9616 -0.2436 -0.1266
vn 0.6093 0.7889 -0.0802
vn 0.9134 -0.3888 -0.1203
vn 0.7399 0.6656 -0.0974
vn 0.8382 -0.5340 -0.1104
vn 0.8288 0.5488 -0.1091
vn 0.7288 -0.6780 -0.0959
vn 0.8924 0.4358 -0.1175
vn 0.5763 -0.8137 -0.0759
vn 0.9396 0.3192 -0.1237
vn 0.3748 -0.9258 -0.0493
vn 0.8382 -0.5340 0.1104
vn 0.8288 0.5488 0.1091
vn 0.7288 -0.6780 0.0959
vn 0.8924 0.4358 0.1175
vn 0.5763 -0.8137 0.0759
vn 0.9396 0.3192 0.1237
vn 0.3748 -0.9258 0.0493
vn 0.9732 0.1912 0.1281
vn 0.1501 0.9885 0.0198
vn 0.1308 -0.9913 0.0172
vn 0.9868 -0.0971 0.1299
vn 0.4155 0.9079 0.0547
vn 0.9616 -0.2436 0.1266
vn 0.6093 0.7889 0.0802
vn 0.9134 -0.3888 0.1203
vn 0.7399 0.6656 0.0974
vn 0.1399 0.9885 0.0579
vn 0.1219 -0.9913 0.0505
vn 0.9195 -0.0971 0.3809
vn 0.3872 0.9079 0.1604
vn 0.8961 -0.2436 0.3712
vn 0.5678 0.7889 0.2352
vn 0.8512 -0.3888 0.3526
vn 0.6895 0.6656 0.2856
vn 0.7811 -0.5340 0.3235
vn 0.7723 0.5488 0.3199
vn 0.6791 -0.6780 0.2813
vn 0.8315 0.4358 0.3444
vn 0.5370 -0.8137 0.2224
vn 0.8755 0.3192 0.3627
vn 0.3493 -0.9258 0.1447
vn 0.9068 0.1912 0.3756
vn 0.6632 0.5488 0.5089
vn 0.5832 -0.6780 0.4475
vn 0.7141 0.4358 0.5479
vn 0.4611 -0.8137 0.3538
vn 0.7518 0.3192 0.5769
vn 0.2999 -0.9258 0.2301
vn 0.7787 0.1912 0.5975
vn 0.1201 0.9885 0.0922
vn 0.1046 -0.9913 0.0803
vn 0.7896 -0.0971 0.6059
vn 0.3325 0.9079 0.2551
vn 0.7695 -0.2436 0.5904
vn 0.4875 0.7889 0.3741
vn 0.7309 -0.3888 0.5609
vn 0.5921 0.6656 0.4543
vn 0.6708 -0.5340 0.5147
vn 0.6059 -0.0971 0.7896
vn 0.2551 0.9079 0.3325
vn 0.5904 -0.2436 0.7695
vn 0.3741 0.7889 0.4875
vn 0.5609 -0.3888 0.7309
vn 0.4543 0.6656 0.5921
vn 0.5147 -0.5340 0.6708
vn 0.5089 0.5488 0.6632
vn 0.4475 -0.6780 0.5832
vn 0.5479 0.4358 0.7141
vn 0.3538 -0.8137 0.4611
vn 0.5769 0.3192 0.7518
vn 0.2301 -0.9258 0.2999
vn 0.5975 0.1912 0.7787
vn 0.0922 0.9885 0.1201
vn 0.0803 -0.9913 0.1046
vn 0.2813 -0.6780 0.6791
vn 0.3444 0.4358 0.8316
vn 0.2224 -0.8137 0.5370
vn 0.3627 0.3192 0.8755
vn 0.1447 -0.9258 0.3493
vn 0.3756 0.1912 0.9068
vn 0.0579 0.9885 0.1399
vn 0.0505 -0.9913 0.1219
vn 0.3809 -0.0971 0.9195
vn 0.1604 0.9079 0.3872
vn 0.3712 -0.2436 0.8961
vn 0.2352 0.7889 0.5678
vn 0.3526 -0.3888 0.8512
vn 0.2856 0.6656 0.6895
vn 0.3235 -0.5340 0.7811
vn 0.3199 0.5488 0.7723
vn 0.1266 -0.2436 0.9616
vn 0.0802 0.7889 0.6093
vn 0.1203 -0.3888 0.9134
vn 0.0974 0.6656 0.7399
vn 0.1104 -0.5340 0.8382
vn 0.1091 0.5488 0.8288
vn 0.0959 -0.6780 0.7288
vn 0.1175 0.4358 0.8924
vn 0.0759 -0.8137 0.5763
vn 0.1237 0.3192 0.9396
vn 0.0493 -0.9258 0.3748
vn 0.1281 0.1912 0.9732
vn 0.0198 0.9885 0.1501
vn 0.0172 -0.9913 0.1308
vn 0.1299 -0.0971 0.9868
vn 0.0547 0.9079 0.4155
s 0
usemtl EF_Egg_clover_Shell
f 359//1 4//1 16//1 17//1
f 2//2 354//2 9//2 10//2
f 360//3 359//3 17//3 18//3
f 3//4 2//4 10//4 11//4
f 361//5 360//5 18//5 19//5
f 362//7 361//7 19//7 20//7
f 351//9 1//9 6//9
f 5//10 362//10 20//10
f 357//11 356//11 13//11 14//11
f 352//12 351//12 6//12 7//12
f 353//14 352//14 7//14 8//14
f 4//15 358//15 15//15 16//15
f 354//16 353//16 8//16 9//16
f 8//17 7//17 22//17 23//17
f 16//18 15//18 30//18 31//18
f 9//19 8//19 23//19 24//19
f 17//20 16//20 31//20 32//20
f 10//21 9//21 24//21 25//21
f 18//22 17//22 32//22 33//22
f 11//23 10//23 25//23 26//23
f 19//24 18//24 33//24 34//24
f 20//26 19//26 34//26 35//26
f 6//28 1//28 21//28
f 5//29 20//29 35//29
f 14//30 13//30 28//30 29//30
f 7//31 6//31 21//31 22//31
f 15//32 14//32 29//32 30//32
f 35//34 34//34 49//34 50//34
f 21//36 1//36 36//36
f 5//37 35//37 50//37
f 29//38 28//38 43//38 44//38
f 22//39 21//39 36//39 37//39
f 23//41 22//41 37//41 38//41
f 31//42 30//42 45//42 46//42
f 24//43 23//43 38//43 39//43
f 32//44 31//44 46//44 47//44
f 25//45 24//45 39//45 40//45
f 33//46 32//46 47//46 48//46
f 26//47 25//47 40//47 41//47
f 34//48 33//48 48//48 49//48
f 46//49 45//49 60//49 61//49
f 39//50 38//50 53//50 54//50
f 47//51 46//51 61//51 62//51
f 48//53 47//53 62//53 63//53
f 41//54 40//54 55//54 56//54
f 49//55 48//55 63//55 64//55
f 50//57 49//57 64//57 65//57
f 36//59 1//59 51//59
f 5//60 50//60 65//60
f 44//61 43//61 58//61 59//61
f 37//62 36//62 51//62 52//62
f 45//63 44//63 59//63 60//63
f 38//64 37//64 52//64 53//64
f 65//65 64//65 79//65 80//65
f 51//67 1//67 66//67
f 5//68 65//68 80//68
f 59//69 58//69 73//69 74//69
f 52//70 51//70 66//70 67//70
f 53//72 52//72 67//72 68//72
f 61//73 60//73 75//73 76//73
f 54//74 53//74 68//74 69//74
f 62//75 61//75 76//75 77//75
f 55//76 54//76 69//76 70//76
f 63//77 62//77 77//77 78//77
f 56//78 55//78 70//78 71//78
f 64//79 63//79 78//79 79//79
f 77//81 76//81 91//81 92//81
f 78//83 77//83 92//83 93//83
f 71//84 70//84 85//84 86//84
f 79//85 78//85 93//85 94//85
f 80//87 79//87 94//87 95//87
f 66//89 1//89 81//89
f 5//90 80//90 95//90
f 74//91 73//91 88//91 89//91
f 67//92 66//92 81//92 82//92
f 75//93 74//93 89//93 90//93
f 68//94 67//94 82//94 83//94
f 76//95 75//95 90//95 91//95
f 69//96 68//96 83//96 84//96
f 81//97 1//97 96//97
f 5//98 95//98 110//98
f 89//99 88//99 103//99 104//99
f 82//100 81//100 96//100 97//100
f 83//102 82//102 97//102 98//102
f 91//103 90//103 105//103 106//103
f 84//104 83//104 98//104 99//104
f 92//105 91//105 106//105 107//105
f 85//106 84//106 99//106 100//106
f 93//107 92//107 107//107 108//107
f 86//108 85//108 100//108 101//108
f 94//109 93//109 108//109 109//109
f 95//111 94//111 109//111 110//111
f 100//113 99//113 114//113 115//113
f 108//114 107//114 122//114 123//114
f 101//115 100//115 115//115 116//115
f 109//116 108//116 123//116 124//116
f 110//118 109//118 124//118 125//118
f 96//120 1//120 111//120
f 5//121 110//121 125//121
f 104//122 103//122 118//122 119//122
f 97//123 96//123 111//123 112//123
f 105//124 104//124 119//124 120//124
f 98//125 97//125 112//125 113//125
f 106//126 105//126 120//126 121//126
f 99//127 98//127 113//127 114//127
f 107//128 106//128 121//128 122//128
f 119//129 118//129 133//129 134//129
f 112//130 111//130 126//130 127//130
f 113//132 112//132 127//132 128//132
f 121//133 120//133 135//133 136//133
f 114//134 113//134 128//134 129//134
f 122//135 121//135 136//135 137//135
f 123//137 122//137 137//137 138//137
f 116//138 115//138 130//138 131//138
f 124//139 123//139 138//139 139//139
f 125//141 124//141 139//141 140//141
f 111//143 1//143 126//143
f 5//144 125//144 140//144
f 138//145 137//145 152//145 153//145
f 131//146 130//146 145//146 146//146
f 139//147 138//147 153//147 154//147
f 140//149 139//149 154//149 155//149
f 126//151 1//151 141//151
f 5//152 140//152 155//152
f 134//153 133//153 148//153 149//153
f 127//154 126//154 141//154 142//154
f 128//156 127//156 142//156 143//156
f 136//157 135//157 150//157 151//157
f 129//158 128//158 143//158 144//158
f 137//159 136//159 151//159 152//159
f 130//160 129//160 144//160 145//160
f 142//161 141//161 156//161 157//161
f 150//162 149//162 164//162 165//162
f 143//163 142//163 157//163 158//163
f 151//164 150//164 165//164 166//164
f 144//165 143//165 158//165 159//165
f 152//166 151//166 166//166 167//166
f 145//167 144//167 159//167 160//167
f 153//168 152//168 167//168 168//168
f 146//169 145//169 160//169 161//169
f 154//170 153//170 168//170 169//170
f 155//172 154//172 169//172 170//172
f 141//174 1//174 156//174
f 5//175 155//175 170//175
f 149//176 148//176 163//176 164//176
f 161//177 160//177 175//177 176//177
f 169//178 168//178 183//178 184//178
f 170//180 169//180 184//180 185//180
f 156//182 1//182 171//182
f 5//183 170//183 185//183
f 164//184 163//184 178//184 179//184
f 157//185 156//185 171//185 172//185
f 158//187 157//187 172//187 173//187
f 166//188 165//188 180//188 181//188
f 159//189 158//189 173//189 174//189
f 167//190 166//190 181//190 182//190
f 168//192 167//192 182//192 183//192
f 180//193 179//193 194//193 195//193
f 173//194 172//194 187//194 188//194
f 181//195 180//195 195//195 196//195
f 174//196 173//196 188//196 189//196
f 182//197 181//197 196//197 197//197
f 175//198 174//198 189//198 190//198
f 183//199 182//199 197//199 198//199
f 176//200 175//200 190//200 191//200
f 184//201 183//201 198//201 199//201
f 185//203 184//203 199//203 200//203
f 171//205 1//205 186//205
f 5//206 185//206 200//206
f 179//207 178//207 193//207 194//207
f 172//208 171//208 186//208 187//208
f 199//209 198//209 213//209 214//209
f 200//211 199//211 214//211 215//211
f 186//213 1//213 201//213
f 5//214 200//214 215//214
f 194//215 193//215 208//215 209//215
f 187//216 186//216 201//216 202//216
f 188//218 187//218 202//218 203//218
f 196//219 195//219 210//219 211//219
f 189//220 188//220 203//220 204//220
f 197//221 196//221 211//221 212//221
f 190//222 189//222 204//222 205//222
f 198//223 197//223 212//223 213//223
f 191//224 190//224 205//224 206//224
f 211//225 210//225 225//225 226//225
f 204//226 203//226 218//226 219//226
f 212//227 211//227 226//227 227//227
f 213//229 212//229 227//229 228//229
f 206//230 205//230 220//230 221//230
f 214//231 213//231 228//231 229//231
f 215//233 214//233 229//233 230//233
f 201//235 1//235 216//235
f 5//236 215//236 230//236
f 209//237 208//237 223//237 224//237
f 202//238 201//238 216//238 217//238
f 203//240 202//240 217//240 218//240
f 230//241 229//241 244//241 245//241
f 216//243 1//243 231//243
f 5//244 230//244 245//244
f 224//245 223//245 238//245 239//245
f 217//246 216//246 231//246 232//246
f 218//248 217//248 232//248 233//248
f 226//249 225//249 240//249 241//249
f 219//250 218//250 233//250 234//250
f 227//251 226//251 241//251 242//251
f 220//252 219//252 234//252 235//252
f 228//253 227//253 242//253 243//253
f 221//254 220//254 235//254 236//254
f 229//255 228//255 243//255 244//255
f 234//257 233//257 248//257 249//257
f 242//258 241//258 256//258 257//258
f 235//259 234//259 249//259 250//259
f 243//260 242//260 257//260 258//260
f 236//261 235//261 250//261 251//261
f 244//262 243//262 258//262 259//262
f 245//264 244//264 259//264 260//264
f 231//266 1//266 246//266
f 5//267 245//267 260//267
f 239//268 238//268 253//268 254//268
f 232//269 231//269 246//269 247//269
f 233//271 232//271 247//271 248//271
f 241//272 240//272 255//272 256//272
f 246//274 1//274 261//274
f 5//275 260//275 275//275
f 254//276 253//276 268//276 269//276
f 247//277 246//277 261//277 262//277
f 255//278 254//278 269//278 270//278
f 248//279 247//279 262//279 263//279
f 256//280 255//280 270//280 271//280
f 249//281 248//281 263//281 264//281
f 257//282 256//282 271//282 272//282
f 258//284 257//284 272//284 273//284
f 251//285 250//285 265//285 266//285
f 259//286 258//286 273//286 274//286
f 260//288 259//288 274//288 275//288
f 272//289 271//289 286//289 287//289
f 265//290 264//290 279//290 280//290
f 273//291 272//291 287//291 288//291
f 266//292 265//292 280//292 281//292
f 274//293 273//293 288//293 289//293
f 275//295 274//295 289//295 290//295
f 261//297 1//297 276//297
f 5//298 275//298 290//298
f 269//299 268//299 283//299 284//299
f 262//300 261//300 276//300 277//300
f 263//302 262//302 277//302 278//302
f 271//303 270//303 285//303 286//303
f 264//304 263//304 278//304 279//304
f 276//305 1//305 291//305
f 5//306 290//306 305//306
f 284//307 283//307 298//307 299//307
f 277//308 276//308 291//308 292//308
f 285//309 284//309 299//309 300//309
f 278//310 277//310 292//310 293//310
f 286//311 285//311 300//311 301//311
f 279//312 278//312 293//312 294//312
f 287//313 286//313 301//313 302//313
f 280//314 279//314 294//314 295//314
f 288//315 287//315 302//315 303//315
f 281//316 280//316 295//316 296//316
f 289//317 288//317 303//317 304//317
f 290//319 289//319 304//319 305//319
f 303//322 302//322 317//322 318//322
f 296//323 295//323 310//323 311//323
f 304//324 303//324 318//324 319//324
f 305//326 304//326 319//326 320//326
f 291//328 1//328 306//328
f 5//329 305//329 320//329
f 299//330 298//330 313//330 314//330
f 292//331 291//331 306//331 307//331
f 293//333 292//333 307//333 308//333
f 301//334 300//334 315//334 316//334
f 294//335 293//335 308//335 309//335
f 302//336 301//336 316//336 317//336
f 314//337 313//337 328//337 329//337
f 307//338 306//338 321//338 322//338
f 315//339 314//339 329//339 330//339
f 308//340 307//340 322//340 323//340
f 316//341 315//341 330//341 331//341
f 309//342 308//342 323//342 324//342
f 317//343 316//343 331//343 332//343
f 310//344 309//344 324//344 325//344
f 318//345 317//345 332//345 333//345
f 311//346 310//346 325//346 326//346
f 319//347 318//347 333//347 334//347
f 320//349 319//349 334//349 335//349
f 306//351 1//351 321//351
f 5//352 320//352 335//352
f 333//353 332//353 347//353 348//353
f 326//354 325//354 340//354 341//354
f 334//355 333//355 348//355 349//355
f 335//357 334//357 349//357 350//357
f 321//359 1//359 336//359
f 5//360 335//360 350//360
f 329//361 328//361 343//361 344//361
f 322//362 321//362 336//362 337//362
f 323//364 322//364 337//364 338//364
f 331//365 330//365 345//365 346//365
f 324//366 323//366 338//366 339//366
f 332//367 331//367 346//367 347//367
f 325//368 324//368 339//368 340//368
f 345//369 344//369 357//369 358//369
f 338//370 337//370 352//370 353//370
f 346//371 345//371 358//371 4//371
f 339//372 338//372 353//372 354//372
f 347//373 346//373 4//373 359//373
f 348//375 347//375 359//375 360//375
f 341//376 340//376 2//376 3//376
f 349//377 348//377 360//377 361//377
f 350//379 349//379 361//379 362//379
f 336//381 1//381 351//381
f 5//382 350//382 362//382
f 344//383 343//383 356//383 357//383
f 337//384 336//384 351//384 352//384
usemtl EF_Egg_clover_Spots
f 355//6 3//6 11//6 12//6
f 356//8 355//8 12//8 13//8
f 358//13 357//13 14//13 15//13
f 12//25 11//25 26//25 27//25
f 13//27 12//27 27//27 28//27
f 27//33 26//33 41//33 42//33
f 28//35 27//35 42//35 43//35
f 30//40 29//40 44//40 45//40
f 40//52 39//52 54//52 55//52
f 42//56 41//56 56//56 57//56
f 43//58 42//58 57//58 58//58
f 58//66 57//66 72//66 73//66
f 60//71 59//71 74//71 75//71
f 57//80 56//80 71//80 72//80
f 70//82 69//82 84//82 85//82
f 72//86 71//86 86//86 87//86
f 73//88 72//88 87//88 88//88
f 90//101 89//101 104//101 105//101
f 87//110 86//110 101//110 102//110
f 88//112 87//112 102//112 103//112
f 102//117 101//117 116//117 117//117
f 103//119 102//119 117//119 118//119
f 120//131 119//131 134//131 135//131
f 115//136 114//136 129//136 130//136
f 117//140 116//140 131//140 132//140
f 118//142 117//142 132//142 133//142
f 132//148 131//148 146//148 147//148
f 133//150 132//150 147//150 148//150
f 135//155 134//155 149//155 150//155
f 147//171 146//171 161//171 162//171
f 148//173 147//173 162//173 163//173
f 162//179 161//179 176//179 177//179
f 163//181 162//181 177//181 178//181
f 165//186 164//186 179//186 180//186
f 160//191 159//191 174//191 175//191
f 177//202 176//202 191//202 192//202
f 178//204 177//204 192//204 193//204
f 192//210 191//210 206//210 207//210
f 193//212 192//212 207//212 208//212
f 195//217 194//217 209//217 210//217
f 205//228 204//228 219//228 220//228
f 207//232 206//232 221//232 222//232
f 208//234 207//234 222//234 223//234
f 210//239 209//239 224//239 225//239
f 223//242 222//242 237//242 238//242
f 225//247 224//247 239//247 240//247
f 222//256 221//256 236//256 237//256
f 237//263 236//263 251//263 252//263
f 238//265 237//265 252//265 253//265
f 240//270 239//270 254//270 255//270
f 253//273 252//273 267//273 268//273
f 250//283 249//283 264//283 265//283
f 252//287 251//287 266//287 267//287
f 267//294 266//294 281//294 282//294
f 268//296 267//296 282//296 283//296
f 270//301 269//301 284//301 285//301
f 282//318 281//318 296//318 297//318
f 283//320 282//320 297//320 298//320
f 295//321 294//321 309//321 310//321
f 297//325 296//325 311//325 312//325
f 298//327 297//327 312//327 313//327
f 300//332 299//332 314//332 315//332
f 312//348 311//348 326//348 327//348
f 313//350 312//350 327//350 328//350
f 327//356 326//356 341//356 342//356
f 328//358 327//358 342//358 343//358
f 330//363 329//363 344//363 345//363
f 340//374 339//374 354//374 2//374
f 342//378 341//378 3//378 355//378
f 343//380 342//380 355//380 356//380
