# Blender 5.0.1
# www.blender.org
mtllib Egg_farm.mtl
o Egg_farm
v 0.000000 0.364000 0.000000
v 0.000000 0.000000 0.000000
v 0.008993 0.359437 -0.024708
v 0.017781 0.345976 -0.048852
v 0.026120 0.324293 -0.071764
v 0.033702 0.295475 -0.092595
v 0.040146 0.260967 -0.110300
v 0.045020 0.222499 -0.123692
v 0.047883 0.182000 -0.131557
v 0.046371 0.141501 -0.127402
v 0.042579 0.103033 -0.116986
v 0.036736 0.068525 -0.100932
v 0.029154 0.039707 -0.080101
v 0.020214 0.018024 -0.055538
v 0.010343 0.004563 -0.028418
v 0.016901 0.359437 -0.020142
v 0.033417 0.345976 -0.039825
v 0.049089 0.324293 -0.058502
v 0.063338 0.295475 -0.075484
v 0.075450 0.260967 -0.089918
v 0.084610 0.222499 -0.100835
v 0.089990 0.182000 -0.107246
v 0.087148 0.141501 -0.103859
v 0.080023 0.103033 -0.095368
v 0.069041 0.068525 -0.082280
v 0.054792 0.039707 -0.065299
v 0.037990 0.018024 -0.045275
v 0.019439 0.004563 -0.023167
v 0.022771 0.359437 -0.013147
v 0.045022 0.345976 -0.025994
v 0.066138 0.324293 -0.038185
v 0.085336 0.295475 -0.049269
v 0.101653 0.260967 -0.058690
v 0.113995 0.222499 -0.065815
v 0.121244 0.182000 -0.070000
v 0.117415 0.141501 -0.067789
v 0.107815 0.103033 -0.062247
v 0.093019 0.068525 -0.053705
v 0.073821 0.039707 -0.042621
v 0.051184 0.018024 -0.029551
v 0.026190 0.004563 -0.015121
v 0.025894 0.359437 -0.004566
v 0.051197 0.345976 -0.009027
v 0.075209 0.324293 -0.013261
v 0.097040 0.295475 -0.017111
v 0.115596 0.260967 -0.020383
v 0.129631 0.222499 -0.022857
v 0.137873 0.182000 -0.024311
v 0.133519 0.141501 -0.023543
v 0.122602 0.103033 -0.021618
v 0.105777 0.068525 -0.018651
v 0.083946 0.039707 -0.014802
v 0.058204 0.018024 -0.010263
v 0.029782 0.004563 -0.005251
v 0.025894 0.359437 0.004566
v 0.051197 0.345976 0.009027
v 0.075209 0.324293 0.013261
v 0.097040 0.295475 0.017111
v 0.115596 0.260967 0.020383
v 0.129631 0.222499 0.022857
v 0.137873 0.182000 0.024311
v 0.133519 0.141501 0.023543
v 0.122602 0.103033 0.021618
v 0.105777 0.068525 0.018651
v 0.083946 0.039707 0.014802
v 0.058204 0.018024 0.010263
v 0.029782 0.004563 0.005251
v 0.022771 0.359437 0.013147
v 0.045022 0.345976 0.025994
v 0.066138 0.324293 0.038185
v 0.085336 0.295475 0.049269
v 0.101653 0.260967 0.058690
v 0.113995 0.222499 0.065815
v 0.121244 0.182000 0.070000
v 0.117415 0.141501 0.067789
v 0.107815 0.103033 0.062247
v 0.093019 0.068525 0.053705
v 0.073821 0.039707 0.042621
v 0.051184 0.018024 0.029551
v 0.026190 0.004563 0.015121
v 0.016901 0.359437 0.020142
v 0.033417 0.345976 0.039825
v 0.049089 0.324293 0.058502
v 0.063339 0.295475 0.075484
v 0.075450 0.260967 0.089918
v 0.084610 0.222499 0.100835
v 0.089990 0.182000 0.107246
v 0.087148 0.141501 0.103859
v 0.080023 0.103033 0.095368
v 0.069041 0.068525 0.082280
v 0.054792 0.039707 0.065299
v 0.037990 0.018024 0.045275
v 0.019439 0.004563 0.023167
v 0.008993 0.359437 0.024708
v 0.017781 0.345976 0.048852
v 0.026120 0.324293 0.071764
v 0.033702 0.295475 0.092595
v 0.040146 0.260967 0.110300
v 0.045020 0.222499 0.123692
v 0.047883 0.182000 0.131557
v 0.046371 0.141501 0.127402
v 0.042579 0.103033 0.116986
v 0.036736 0.068525 0.100931
v 0.029154 0.039707 0.080101
v 0.020214 0.018024 0.055538
v 0.010343 0.004563 0.028418
v 0.000000 0.359437 0.026293
v 0.000000 0.345976 0.051987
v 0.000000 0.324293 0.076369
v 0.000000 0.295475 0.098537
v 0.000000 0.260967 0.117379
v 0.000000 0.222499 0.131630
v 0.000000 0.182000 0.140000
v 0.000000 0.141501 0.135579
v 0.000000 0.103033 0.124494
v 0.000000 0.068525 0.107409
v 0.000000 0.039707 0.085241
v 0.000000 0.018024 0.059102
v 0.000000 0.004563 0.030242
v -0.008993 0.359437 0.024708
v -0.017781 0.345976 0.048852
v -0.026120 0.324293 0.071764
v -0.033702 0.295475 0.092595
v -0.040146 0.260967 0.110300
v -0.045020 0.222499 0.123692
v -0.047883 0.182000 0.131557
v -0.046371 0.141501 0.127402
v -0.042579 0.103033 0.116986
v -0.036736 0.068525 0.100932
v -0.029154 0.039707 0.080101
v -0.020214 0.018024 0.055538
v -0.010343 0.004563 0.028418
v -0.016901 0.359437 0.020142
v -0.033417 0.345976 0.039825
v -0.049089 0.324293 0.058502
v -0.063338 0.295475 0.075484
v -0.075450 0.260967 0.089918
v -0.084610 0.222499 0.100835
v -0.089990 0.182000 0.107246
v -0.087148 0.141501 0.103859
v -0.080023 0.103033 0.095368
v -0.069041 0.068525 0.082280
v -0.054792 0.039707 0.065299
v -0.037990 0.018024 0.045275
v -0.019439 0.004563 0.023167
v -0.022771 0.359437 0.013147
v -0.045022 0.345976 0.025994
v -0.066138 0.324293 0.038185
v -0.085336 0.295475 0.049269
v -0.101653 0.260967 0.058690
v -0.113995 0.222499 0.065815
v -0.121244 0.182000 0.070000
v -0.117415 0.141501 0.067789
v -0.107815 0.103033 0.062247
v -0.093019 0.068525 0.053705
v -0.073821 0.039707 0.042621
v -0.051184 0.018024 0.029551
v -0.026190 0.004563 0.015121
v -0.025894 0.359437 0.004566
v -0.051197 0.345976 0.009028
v -0.075209 0.324293 0.013261
v -0.097040 0.295475 0.017111
v -0.115596 0.260967 0.020383
v -0.129631 0.222499 0.022857
v -0.137873 0.182000 0.024311
v -0.133519 0.141501 0.023543
v -0.122602 0.103033 0.021618
v -0.105777 0.068525 0.018651
v -0.083946 0.039707 0.014802
v -0.058204 0.018024 0.010263
v -0.029782 0.004563 0.005251
v -0.025894 0.359437 -0.004566
v -0.051197 0.345976 -0.009027
v -0.075209 0.324293 -0.013261
v -0.097040 0.295475 -0.017111
v -0.115596 0.260967 -0.020383
v -0.129631 0.222499 -0.022857
v -0.137873 0.182000 -0.024311
v -0.133519 0.141501 -0.023543
v -0.122602 0.103033 -0.021618
v -0.105777 0.068525 -0.018651
v -0.083946 0.039707 -0.014802
v -0.058204 0.018024 -0.010263
v -0.029782 0.004563 -0.005251
v -0.022771 0.359437 -0.013147
v -0.045022 0.345976 -0.025994
v -0.066138 0.324293 -0.038185
v -0.085336 0.295475 -0.049269
v -0.101653 0.260967 -0.058690
v -0.113995 0.222499 -0.065815
v -0.121244 0.182000 -0.070000
v -0.117415 0.141501 -0.067789
v -0.107815 0.103033 -0.062247
v -0.093019 0.068525 -0.053704
v -0.073821 0.039707 -0.042621
v -0.051184 0.018024 -0.029551
v -0.026190 0.004563 -0.015121
v -0.016901 0.359437 -0.020142
v -0.033417 0.345976 -0.039824
v -0.049089 0.324293 -0.058502
v -0.063339 0.295475 -0.075484
v -0.075450 0.260967 -0.089918
v -0.084610 0.222499 -0.100835
v -0.089990 0.182000 -0.107246
v -0.087148 0.141501 -0.103859
v -0.080023 0.103033 -0.095368
v -0.069041 0.068525 -0.082280
v -0.054792 0.039707 -0.065299
v -0.037990 0.018024 -0.045275
v -0.019439 0.004563 -0.023167
v -0.008993 0.359437 -0.024708
v -0.017781 0.345976 -0.048852
v -0.026120 0.324293 -0.071764
v -0.033702 0.295475 -0.092595
v -0.040146 0.260967 -0.110300
v -0.045020 0.222499 -0.123692
v -0.047883 0.182000 -0.131557
v -0.046371 0.141501 -0.127402
v -0.042579 0.103033 -0.116986
v -0.036736 0.068525 -0.100931
v -0.029154 0.039707 -0.080101
v -0.020214 0.018024 -0.055538
v -0.010343 0.004563 -0.028418
v -0.000000 0.359437 -0.026293
v -0.000000 0.345976 -0.051987
v -0.000000 0.324293 -0.076369
v -0.000000 0.295475 -0.098537
v -0.000000 0.260967 -0.117379
v -0.000000 0.222499 -0.131630
v -0.000000 0.182000 -0.140000
v -0.000000 0.141501 -0.135579
v -0.000000 0.103033 -0.124494
v -0.000000 0.068525 -0.107409
v -0.000000 0.039707 -0.085241
v -0.000000 0.018024 -0.059102
v -0.000000 0.004563 -0.030242
vn 0.1384 -0.6038 -0.7850
vn 0.1384 0.6038 -0.7850
vn 0.1119 -0.7648 -0.6344
vn 0.1529 0.4736 -0.8674
vn 0.0743 -0.9038 -0.4215
vn 0.1631 0.3427 -0.9252
vn 0.0263 -0.9885 -0.1491
vn 0.1702 0.1994 -0.9650
vn 0.1727 -0.1069 -0.9792
vn 0.0301 0.9848 -0.1709
vn 0.1671 -0.2730 -0.9474
vn 0.0816 0.8829 -0.4625
vn 0.1561 -0.4383 -0.8852
vn 0.1164 0.7422 -0.6600
vn 0.3221 -0.7648 -0.5579
vn 0.4404 0.4736 -0.7627
vn 0.2140 -0.9038 -0.3707
vn 0.4697 0.3427 -0.8136
vn 0.0757 -0.9885 -0.1312
vn 0.4900 0.1994 -0.8486
vn 0.4971 -0.1069 -0.8611
vn 0.0868 0.9848 -0.1503
vn 0.4810 -0.2730 -0.8331
vn 0.2348 0.8829 -0.4067
vn 0.4494 -0.4383 -0.7784
vn 0.3351 0.7422 -0.5804
vn 0.3986 -0.6038 -0.6903
vn 0.3986 0.6038 -0.6903
vn 0.6747 0.4736 -0.5661
vn 0.3279 -0.9038 -0.2751
vn 0.7196 0.3427 -0.6039
vn 0.1160 -0.9885 -0.0973
vn 0.7507 0.1994 -0.6299
vn 0.7617 -0.1069 -0.6391
vn 0.1329 0.9848 -0.1116
vn 0.7369 -0.2730 -0.6184
vn 0.3598 0.8829 -0.3019
vn 0.6886 -0.4383 -0.5778
vn 0.5134 0.7422 -0.4308
vn 0.6106 -0.6038 -0.5124
vn 0.6106 0.6038 -0.5124
vn 0.4935 -0.7648 -0.4141
vn 0.4022 -0.9038 -0.1464
vn 0.8828 0.3427 -0.3213
vn 0.1423 -0.9885 -0.0518
vn 0.9208 0.1994 -0.3351
vn 0.9343 -0.1069 -0.3401
vn 0.1631 0.9848 -0.0594
vn 0.9040 -0.2730 -0.3290
vn 0.4413 0.8829 -0.1606
vn 0.8446 -0.4383 -0.3074
vn 0.6298 0.7422 -0.2292
vn 0.7490 -0.6038 -0.2726
vn 0.7490 0.6038 -0.2726
vn 0.6054 -0.7648 -0.2203
vn 0.8276 0.4736 -0.3012
vn 0.9394 0.3427 -0.0000
vn 0.1514 -0.9885 -0.0000
vn 0.9799 0.1994 -0.0000
vn 0.9943 -0.1069 -0.0000
vn 0.1735 0.9848 -0.0000
vn 0.9620 -0.2730 -0.0000
vn 0.4696 0.8829 -0.0000
vn 0.8989 -0.4383 -0.0000
vn 0.6702 0.7422 -0.0000
vn 0.7971 -0.6038 -0.0000
vn 0.7971 0.6038 -0.0000
vn 0.6442 -0.7648 -0.0000
vn 0.8807 0.4736 -0.0000
vn 0.4280 -0.9038 -0.0000
vn 0.1423 -0.9885 0.0518
vn 0.9208 0.1994 0.3351
vn 0.9343 -0.1069 0.3401
vn 0.1631 0.9848 0.0594
vn 0.9040 -0.2730 0.3290
vn 0.4413 0.8829 0.1606
vn 0.8446 -0.4383 0.3074
vn 0.6298 0.7422 0.2292
vn 0.7490 -0.6038 0.2726
vn 0.7490 0.6038 0.2726
vn 0.6054 -0.7648 0.2203
vn 0.8276 0.4736 0.3012
vn 0.4022 -0.9038 0.1464
vn 0.8828 0.3427 0.3213
vn 0.7617 -0.1069 0.6391
vn 0.1329 0.9848 0.1116
vn 0.7369 -0.2730 0.6184
vn 0.3598 0.8829 0.3019
vn 0.6886 -0.4383 0.5778
vn 0.5134 0.7422 0.4308
vn 0.6106 -0.6038 0.5124
vn 0.6106 0.6038 0.5124
vn 0.4935 -0.7648 0.4141
vn 0.6747 0.4736 0.5661
vn 0.3279 -0.9038 0.2751
vn 0.7196 0.3427 0.6039
vn 0.1160 -0.9885 0.0973
vn 0.7507 0.1994 0.6299
vn 0.4971 -0.1069 0.8611
vn 0.0868 0.9848 0.1503
vn 0.4810 -0.2730 0.8331
vn 0.2348 0.8829 0.4067
vn 0.4494 -0.4383 0.7784
vn 0.3351 0.7422 0.5804
vn 0.3986 -0.6038 0.6903
vn 0.3986 0.6038 0.6903
vn 0.3221 -0.7648 0.5579
vn 0.4404 0.4736 0.7627
vn 0.2140 -0.9038 0.3707
vn 0.4697 0.3427 0.8136
vn 0.0757 -0.9885 0.1312
vn 0.4900 0.1994 0.8486
vn 0.0301 0.9848 0.1709
vn 0.1671 -0.2730 0.9474
vn 0.0816 0.8829 0.4625
vn 0.1561 -0.4383 0.8852
vn 0.1164 0.7422 0.6600
vn 0.1384 -0.6038 0.7850
vn 0.1384 0.6038 0.7850
vn 0.1119 -0.7648 0.6344
vn 0.1529 0.4736 0.8674
vn 0.0743 -0.9038 0.4215
vn 0.1631 0.3427 0.9252
vn 0.0263 -0.9885 0.1491
vn 0.1702 0.1994 0.9650
vn 0.1727 -0.1069 0.9792
vn -0.1671 -0.2730 0.9474
vn -0.0816 0.8829 0.4625
vn -0.1561 -0.4383 0.8852
vn -0.1164 0.7422 0.6600
vn -0.1384 -0.6038 0.7850
vn -0.1384 0.6038 0.7850
vn -0.1119 -0.7648 0.6344
vn -0.1529 0.4736 0.8674
vn -0.0743 -0.9038 0.4215
vn -0.1631 0.3427 0.9252
vn -0.0263 -0.9885 0.1491
vn -0.1702 0.1994 0.9650
vn -0.1727 -0.1069 0.9792
vn -0.0301 0.9848 0.1709
vn -0.4494 -0.4383 0.7784
vn -0.3351 0.7422 0.5804
vn -0.3986 -0.6038 0.6903
vn -0.3986 0.6038 0.6903
vn -0.3221 -0.7648 0.5579
vn -0.4404 0.4736 0.7627
vn -0.2140 -0.9038 0.3707
vn -0.4697 0.3427 0.8136
vn -0.0757 -0.9885 0.1312
vn -0.4900 0.1994 0.8486
vn -0.4971 -0.1069 0.8611
vn -0.0868 0.9848 0.1503
vn -0.4810 -0.2730 0.8331
vn -0.2348 0.8829 0.4067
vn -0.5134 0.7422 0.4308
vn -0.6106 -0.6038 0.5124
vn -0.6106 0.6038 0.5124
vn -0.4935 -0.7648 0.4141
vn -0.6747 0.4736 0.5661
vn -0.3279 -0.9038 0.2751
vn -0.7196 0.3427 0.6039
vn -0.1160 -0.9885 0.0973
vn -0.7507 0.1994 0.6299
vn -0.7617 -0.1069 0.6391
vn -0.1329 0.9848 0.1116
vn -0.7369 -0.2730 0.6184
vn -0.3598 0.8829 0.3019
vn -0.6886 -0.4383 0.5778
vn -0.7490 -0.6038 0.2726
vn -0.7490 0.6038 0.2726
vn -0.6054 -0.7648 0.2203
vn -0.8276 0.4736 0.3012
vn -0.4022 -0.9038 0.1464
vn -0.8828 0.3427 0.3213
vn -0.1423 -0.9885 0.0518
vn -0.9208 0.1994 0.3351
vn -0.9343 -0.1069 0.3401
vn -0.1631 0.9848 0.0594
vn -0.9040 -0.2730 0.3290
vn -0.4413 0.8829 0.1606
vn -0.8446 -0.4383 0.3074
vn -0.6298 0.7422 0.2292
vn -0.7971 0.6038 -0.0000
vn -0.6442 -0.7648 -0.0000
vn -0.8807 0.4736 -0.0000
vn -0.4280 -0.9038 -0.0000
vn -0.9394 0.3427 -0.0000
vn -0.1514 -0.9885 -0.0000
vn -0.9799 0.1994 -0.0000
vn -0.9943 -0.1069 -0.0000
vn -0.1736 0.9848 -0.0000
vn -0.9620 -0.2730 -0.0000
vn -0.4696 0.8829 -0.0000
vn -0.8989 -0.4383 -0.0000
vn -0.6702 0.7422 -0.0000
vn -0.7971 -0.6038 -0.0000
vn -0.6054 -0.7648 -0.2203
vn -0.8276 0.4736 -0.3012
vn -0.4022 -0.9038 -0.1464
vn -0.8828 0.3427 -0.3213
vn -0.1423 -0.9885 -0.0518
vn -0.9208 0.1994 -0.3351
vn -0.9343 -0.1069 -0.3401
vn -0.1631 0.9848 -0.0594
vn -0.9040 -0.2730 -0.3290
vn -0.4413 0.8829 -0.1606
vn -0.8446 -0.4383 -0.3074
vn -0.6298 0.7422 -0.2292
vn -0.7490 -0.6038 -0.2726
vn -0.7490 0.6038 -0.2726
vn -0.3279 -0.9038 -0.2751
vn -0.7196 0.3427 -0.6039
vn -0.1160 -0.9885 -0.0973
vn -0.7507 0.1994 -0.6299
vn -0.7617 -0.1069 -0.6391
vn -0.1330 0.9848 -0.1116
vn -0.7369 -0.2730 -0.6184
vn -0.3598 0.8829 -0.3019
vn -0.6886 -0.4383 -0.5778
vn -0.5134 0.7422 -0.4308
vn -0.6106 -0.6038 -0.5124
vn -0.6106 0.6038 -0.5124
vn -0.4935 -0.7648 -0.4141
vn -0.6747 0.4736 -0.5661
vn -0.4697 0.3427 -0.8136
vn -0.0757 -0.9885 -0.1312
vn -0.4900 0.1994 -0.8486
vn -0.4971 -0.1069 -0.8611
vn -0.0868 0.9848 -0.1503
vn -0.4810 -0.2730 -0.8331
vn -0.2348 0.8829 -0.4067
vn -0.4494 -0.4383 -0.7784
vn -0.3351 0.7422 -0.5804
vn -0.3986 -0.6038 -0.6903
vn -0.3986 0.6038 -0.6903
vn -0.3221 -0.7648 -0.5579
vn -0.4404 0.4736 -0.7627
vn -0.2140 -0.9038 -0.3707
vn -0.0263 -0.9885 -0.1491
vn -0.1702 0.1994 -0.9650
vn -0.1727 -0.1069 -0.9792
vn -0.0301 0.9848 -0.1709
vn -0.1671 -0.2730 -0.9474
vn -0.0816 0.8829 -0.4625
vn -0.1561 -0.4383 -0.8852
vn -0.1164 0.7422 -0.6600
vn -0.1384 -0.6038 -0.7850
vn -0.1384 0.6038 -0.7850
vn -0.1119 -0.7648 -0.6344
vn -0.1529 0.4736 -0.8674
vn -0.0743 -0.9038 -0.4215
vn -0.1631 0.3427 -0.9252
s 0
usemtl EF_Egg_farm_Shell
f 234//1 233//1 12//1 13//1
f 227//2 226//2 5//2 6//2
f 235//3 234//3 13//3 14//3
f 228//4 227//4 6//4 7//4
f 236//5 235//5 14//5 15//5
f 229//6 228//6 7//6 8//6
f 2//7 236//7 15//7
f 230//8 229//8 8//8 9//8
f 231//9 230//9 9//9 10//9
f 224//10 1//10 3//10
f 232//11 231//11 10//11 11//11
f 225//12 224//12 3//12 4//12
f 233//13 232//13 11//13 12//13
f 226//14 225//14 4//14 5//14
f 14//15 13//15 26//15 27//15
f 7//16 6//16 19//16 20//16
f 15//17 14//17 27//17 28//17
f 8//18 7//18 20//18 21//18
f 2//19 15//19 28//19
f 9//20 8//20 21//20 22//20
f 10//21 9//21 22//21 23//21
f 3//22 1//22 16//22
f 11//23 10//23 23//23 24//23
f 4//24 3//24 16//24 17//24
f 12//25 11//25 24//25 25//25
f 5//26 4//26 17//26 18//26
f 13//27 12//27 25//27 26//27
f 6//28 5//28 18//28 19//28
f 20//29 19//29 32//29 33//29
f 28//30 27//30 40//30 41//30
f 2//32 28//32 41//32
f 16//35 1//35 29//35
f 24//36 23//36 36//36 37//36
f 17//37 16//37 29//37 30//37
f 25//38 24//38 37//38 38//38
f 18//39 17//39 30//39 31//39
f 26//40 25//40 38//40 39//40
f 19//41 18//41 31//41 32//41
f 27//42 26//42 39//42 40//42
f 41//43 40//43 53//43 54//43
f 34//44 33//44 46//44 47//44
f 2//45 41//45 54//45
f 36//47 35//47 48//47 49//47
f 29//48 1//48 42//48
f 37//49 36//49 49//49 50//49
f 30//50 29//50 42//50 43//50
f 38//51 37//51 50//51 51//51
f 31//52 30//52 43//52 44//52
f 39//53 38//53 51//53 52//53
f 32//54 31//54 44//54 45//54
f 40//55 39//55 52//55 53//55
f 33//56 32//56 45//56 46//56
f 47//57 46//57 59//57 60//57
f 2//58 54//58 67//58
f 48//59 47//59 60//59 61//59
f 49//60 48//60 61//60 62//60
f 42//61 1//61 55//61
f 43//63 42//63 55//63 56//63
f 44//65 43//65 56//65 57//65
f 45//67 44//67 57//67 58//67
f 53//68 52//68 65//68 66//68
f 46//69 45//69 58//69 59//69
f 54//70 53//70 66//70 67//70
f 2//71 67//71 80//71
f 61//72 60//72 73//72 74//72
f 55//74 1//74 68//74
f 56//76 55//76 68//76 69//76
f 57//78 56//78 69//78 70//78
f 65//79 64//79 77//79 78//79
f 58//80 57//80 70//80 71//80
f 66//81 65//81 78//81 79//81
f 59//82 58//82 71//82 72//82
f 67//83 66//83 79//83 80//83
f 60//84 59//84 72//84 73//84
f 75//85 74//85 87//85 88//85
f 68//86 1//86 81//86
f 76//87 75//87 88//87 89//87
f 69//88 68//88 81//88 82//88
f 77//89 76//89 89//89 90//89
f 70//90 69//90 82//90 83//90
f 78//91 77//91 90//91 91//91
f 71//92 70//92 83//92 84//92
f 79//93 78//93 91//93 92//93
f 72//94 71//94 84//94 85//94
f 80//95 79//95 92//95 93//95
f 73//96 72//96 85//96 86//96
f 2//97 80//97 93//97
f 74//98 73//98 86//98 87//98
f 88//99 87//99 100//99 101//99
f 81//100 1//100 94//100
f 89//101 88//101 101//101 102//101
f 82//102 81//102 94//102 95//102
f 90//103 89//103 102//103 103//103
f 83//104 82//104 95//104 96//104
f 91//105 90//105 103//105 104//105
f 84//106 83//106 96//106 97//106
f 92//107 91//107 104//107 105//107
f 85//108 84//108 97//108 98//108
f 93//109 92//109 105//109 106//109
f 86//110 85//110 98//110 99//110
f 2//111 93//111 106//111
f 87//112 86//112 99//112 100//112
f 94//113 1//113 107//113
f 102//114 101//114 114//114 115//114
f 95//115 94//115 107//115 108//115
f 103//116 102//116 115//116 116//116
f 96//117 95//117 108//117 109//117
f 104//118 103//118 116//118 117//118
f 105//120 104//120 117//120 118//120
f 98//121 97//121 110//121 111//121
f 106//122 105//122 118//122 119//122
f 99//123 98//123 111//123 112//123
f 2//124 106//124 119//124
f 100//125 99//125 112//125 113//125
f 101//126 100//126 113//126 114//126
f 115//127 114//127 127//127 128//127
f 108//128 107//128 120//128 121//128
f 116//129 115//129 128//129 129//129
f 109//130 108//130 121//130 122//130
f 117//131 116//131 129//131 130//131
f 118//133 117//133 130//133 131//133
f 119//135 118//135 131//135 132//135
f 2//137 119//137 132//137
f 113//138 112//138 125//138 126//138
f 114//139 113//139 126//139 127//139
f 107//140 1//140 120//140
f 129//141 128//141 141//141 142//141
f 122//142 121//142 134//142 135//142
f 130//143 129//143 142//143 143//143
f 131//145 130//145 143//145 144//145
f 132//147 131//147 144//147 145//147
f 2//149 132//149 145//149
f 126//150 125//150 138//150 139//150
f 127//151 126//151 139//151 140//151
f 120//152 1//152 133//152
f 128//153 127//153 140//153 141//153
f 121//154 120//154 133//154 134//154
f 135//155 134//155 147//155 148//155
f 143//156 142//156 155//156 156//156
f 136//157 135//157 148//157 149//157
f 144//158 143//158 156//158 157//158
f 137//159 136//159 149//159 150//159
f 145//160 144//160 157//160 158//160
f 138//161 137//161 150//161 151//161
f 2//162 145//162 158//162
f 139//163 138//163 151//163 152//163
f 140//164 139//164 152//164 153//164
f 133//165 1//165 146//165
f 141//166 140//166 153//166 154//166
f 134//167 133//167 146//167 147//167
f 142//168 141//168 154//168 155//168
f 156//169 155//169 168//169 169//169
f 149//170 148//170 161//170 162//170
f 157//171 156//171 169//171 170//171
f 158//173 157//173 170//173 171//173
f 2//175 158//175 171//175
f 153//177 152//177 165//177 166//177
f 146//178 1//178 159//178
f 154//179 153//179 166//179 167//179
f 147//180 146//180 159//180 160//180
f 155//181 154//181 167//181 168//181
f 148//182 147//182 160//182 161//182
f 162//183 161//183 174//183 175//183
f 170//184 169//184 182//184 183//184
f 171//186 170//186 183//186 184//186
f 2//188 171//188 184//188
f 165//189 164//189 177//189 178//189
f 166//190 165//190 178//190 179//190
f 159//191 1//191 172//191
f 167//192 166//192 179//192 180//192
f 160//193 159//193 172//193 173//193
f 168//194 167//194 180//194 181//194
f 161//195 160//195 173//195 174//195
f 169//196 168//196 181//196 182//196
f 183//197 182//197 195//197 196//197
f 176//198 175//198 188//198 189//198
f 184//199 183//199 196//199 197//199
f 177//200 176//200 189//200 190//200
f 2//201 184//201 197//201
f 178//202 177//202 190//202 191//202
f 179//203 178//203 191//203 192//203
f 172//204 1//204 185//204
f 180//205 179//205 192//205 193//205
f 173//206 172//206 185//206 186//206
f 181//207 180//207 193//207 194//207
f 174//208 173//208 186//208 187//208
f 182//209 181//209 194//209 195//209
f 175//210 174//210 187//210 188//210
f 197//211 196//211 209//211 210//211
f 2//213 197//213 210//213
f 192//215 191//215 204//215 205//215
f 185//216 1//216 198//216
f 193//217 192//217 205//217 206//217
f 186//218 185//218 198//218 199//218
f 194//219 193//219 206//219 207//219
f 187//220 186//220 199//220 200//220
f 195//221 194//221 207//221 208//221
f 188//222 187//222 200//222 201//222
f 196//223 195//223 208//223 209//223
f 189//224 188//224 201//224 202//224
f 203//225 202//225 215//225 216//225
f 2//226 210//226 223//226
f 204//227 203//227 216//227 217//227
f 205//228 204//228 217//228 218//228
f 198//229 1//229 211//229
f 206//230 205//230 218//230 219//230
f 199//231 198//231 211//231 212//231
f 207//232 206//232 219//232 220//232
f 200//233 199//233 212//233 213//233
f 208//234 207//234 220//234 221//234
f 201//235 200//235 213//235 214//235
f 209//236 208//236 221//236 222//236
f 202//237 201//237 214//237 215//237
f 210//238 209//238 222//238 223//238
f 2//239 223//239 236//239
f 217//240 216//240 229//240 230//240
f 211//242 1//242 224//242
f 212//244 211//244 224//244 225//244
f 220//245 219//245 232//245 233//245
f 213//246 212//246 225//246 226//246
f 221//247 220//247 233//247 234//247
f 214//248 213//248 226//248 227//248
f 222//249 221//249 234//249 235//249
f 215//250 214//250 227//250 228//250
f 223//251 222//251 235//251 236//251
f 216//252 215//252 228//252 229//252
usemtl EF_Egg_farm_Spots
f 21//31 20//31 33//31 34//31
f 22//33 21//33 34//33 35//33
f 23//34 22//34 35//34 36//34
f 35//46 34//46 47//46 48//46
f 50//62 49//62 62//62 63//62
f 51//64 50//64 63//64 64//64
f 52//66 51//66 64//66 65//66
f 62//73 61//73 74//73 75//73
f 63//75 62//75 75//75 76//75
f 64//77 63//77 76//77 77//77
f 97//119 96//119 109//119 110//119
f 110//132 109//132 122//132 123//132
f 111//134 110//134 123//134 124//134
f 112//136 111//136 124//136 125//136
f 123//144 122//144 135//144 136//144
f 124//146 123//146 136//146 137//146
f 125//148 124//148 137//148 138//148
f 150//172 149//172 162//172 163//172
f 151//174 150//174 163//174 164//174
f 152//176 151//176 164//176 165//176
f 163//185 162//185 175//185 176//185
f 164//187 163//187 176//187 177//187
f 190//212 189//212 202//212 203//212
f 191//214 190//214 203//214 204//214
f 218//241 217//241 230//241 231//241
f 219//243 218//243 231//243 232//243
