# Blender 5.0.1
# www.blender.org
mtllib Egg_sunburst.mtl
o Egg_sunburst
v 0.000000 0.364000 0.000000
v 0.000000 0.283114 0.106058
v 0.000000 0.251648 0.121424
v 0.000000 0.080886 0.114466
v 0.000000 0.000000 0.000000
v -0.005960 0.360503 0.022242
v -0.011817 0.350146 0.044100
v -0.017453 0.333327 0.065135
v -0.022723 0.310693 0.084803
v -0.027450 0.283114 0.102444
v -0.031427 0.251648 0.117286
v -0.034429 0.217506 0.128491
v -0.036235 0.182000 0.135230
v -0.035330 0.146494 0.131855
v -0.033092 0.112352 0.123502
v -0.029626 0.080886 0.110565
v -0.025078 0.053307 0.093593
v -0.019629 0.030673 0.073256
v -0.013482 0.013854 0.050316
v -0.006861 0.003497 0.025606
v -0.011513 0.360503 0.019942
v -0.022828 0.350146 0.039539
v -0.033716 0.333327 0.058398
v -0.043897 0.310693 0.076033
v -0.053029 0.283114 0.091849
v -0.060712 0.251648 0.105156
v -0.066512 0.217506 0.115202
v -0.070000 0.182000 0.121244
v -0.068253 0.146494 0.118218
v -0.063929 0.112352 0.110728
v -0.057233 0.080886 0.099130
v -0.048447 0.053307 0.083913
v -0.037920 0.030673 0.065679
v -0.026045 0.013854 0.045112
v -0.013254 0.003497 0.022957
v -0.016282 0.360503 0.016282
v -0.032284 0.350146 0.032284
v -0.047682 0.333327 0.047682
v -0.062080 0.310693 0.062080
v -0.074995 0.283114 0.074995
v -0.085859 0.251648 0.085859
v -0.094062 0.217506 0.094062
v -0.098995 0.182000 0.098995
v -0.096525 0.146494 0.096525
v -0.090409 0.112352 0.090409
v -0.080939 0.080886 0.080939
v -0.068515 0.053307 0.068515
v -0.053627 0.030673 0.053627
v -0.036834 0.013854 0.036834
v -0.018745 0.003497 0.018745
v -0.019942 0.360503 0.011513
v -0.039539 0.350146 0.022828
v -0.058398 0.333327 0.033716
v -0.076033 0.310693 0.043897
v -0.091849 0.283114 0.053029
v -0.105156 0.251648 0.060712
v -0.115202 0.217506 0.066512
v -0.121244 0.182000 0.070000
v -0.118218 0.146494 0.068253
v -0.110728 0.112352 0.063929
v -0.099130 0.080886 0.057233
v -0.083913 0.053307 0.048447
v -0.065679 0.030673 0.037920
v -0.045112 0.013854 0.026045
v -0.022957 0.003497 0.013255
v -0.022242 0.360503 0.005960
v -0.044100 0.350146 0.011817
v -0.065135 0.333327 0.017453
v -0.084803 0.310693 0.022723
v -0.102444 0.283114 0.027450
v -0.117286 0.251648 0.031427
v -0.128491 0.217506 0.034429
v -0.135230 0.182000 0.036235
v -0.131855 0.146494 0.035330
v -0.123502 0.112352 0.033092
v -0.110565 0.080886 0.029626
v -0.093593 0.053307 0.025078
v -0.073255 0.030673 0.019629
v -0.050316 0.013854 0.013482
v -0.025606 0.003497 0.006861
v -0.023027 0.360503 0.000000
v -0.045656 0.350146 0.000000
v -0.067432 0.333327 0.000000
v -0.087795 0.310693 0.000000
v -0.106058 0.283114 0.000000
v -0.121423 0.251648 0.000000
v -0.133024 0.217506 0.000000
v -0.140000 0.182000 0.000000
v -0.136506 0.146494 0.000000
v -0.127858 0.112352 0.000000
v -0.114466 0.080886 0.000000
v -0.096895 0.053307 0.000000
v -0.075840 0.030673 0.000000
v -0.052091 0.013854 0.000000
v -0.026509 0.003497 0.000000
v -0.022242 0.360503 -0.005960
v -0.044100 0.350146 -0.011817
v -0.065135 0.333327 -0.017453
v -0.084803 0.310693 -0.022723
v -0.102444 0.283114 -0.027450
v -0.117286 0.251648 -0.031427
v -0.128491 0.217506 -0.034429
v -0.135230 0.182000 -0.036235
v -0.131855 0.146494 -0.035330
v -0.123502 0.112352 -0.033092
v -0.110565 0.080886 -0.029626
v -0.093593 0.053307 -0.025078
v -0.073255 0.030673 -0.019629
v -0.050316 0.013854 -0.013482
v -0.025606 0.003497 -0.006861
v -0.019942 0.360503 -0.011513
v -0.039539 0.350146 -0.022828
v -0.058398 0.333327 -0.033716
v -0.076033 0.310693 -0.043897
v -0.091849 0.283114 -0.053029
v -0.105156 0.251648 -0.060712
v -0.115202 0.217506 -0.066512
v -0.121243 0.182000 -0.070000
v -0.118218 0.146494 -0.068253
v -0.110728 0.112352 -0.063929
v -0.099130 0.080886 -0.057233
v -0.083913 0.053307 -0.048447
v -0.065679 0.030673 -0.037920
v -0.045112 0.013854 -0.026045
v -0.022957 0.003497 -0.013254
v -0.016282 0.360503 -0.016282
v -0.032284 0.350146 -0.032284
v -0.047682 0.333327 -0.047682
v -0.062080 0.310693 -0.062080
v -0.074994 0.283114 -0.074995
v -0.085859 0.251648 -0.085859
v -0.094062 0.217506 -0.094062
v -0.098995 0.182000 -0.098995
v -0.096524 0.146494 -0.096524
v -0.090409 0.112352 -0.090409
v -0.080939 0.080886 -0.080939
v -0.068515 0.053307 -0.068515
v -0.053627 0.030673 -0.053627
v -0.036834 0.013854 -0.036834
v -0.018745 0.003497 -0.018745
v -0.011513 0.360503 -0.019942
v -0.022828 0.350146 -0.039539
v -0.033716 0.333327 -0.058398
v -0.043897 0.310693 -0.076033
v -0.053029 0.283114 -0.091849
v -0.060712 0.251648 -0.105156
v -0.066512 0.217506 -0.115202
v -0.070000 0.182000 -0.121244
v -0.068253 0.146494 -0.118218
v -0.063929 0.112352 -0.110728
v -0.057233 0.080886 -0.099130
v -0.048447 0.053307 -0.083913
v -0.037920 0.030673 -0.065679
v -0.026045 0.013854 -0.045112
v -0.013254 0.003497 -0.022957
v -0.005960 0.360503 -0.022242
v -0.011817 0.350146 -0.044100
v -0.017453 0.333327 -0.065135
v -0.022723 0.310693 -0.084803
v -0.027450 0.283114 -0.102444
v -0.031427 0.251648 -0.117286
v -0.034429 0.217506 -0.128491
v -0.036235 0.182000 -0.135230
v -0.035330 0.146494 -0.131855
v -0.033092 0.112352 -0.123501
v -0.029626 0.080886 -0.110565
v -0.025078 0.053307 -0.093593
v -0.019629 0.030673 -0.073255
v -0.013482 0.013854 -0.050316
v -0.006861 0.003497 -0.025606
v 0.000000 0.360503 -0.023027
v 0.000000 0.350146 -0.045656
v 0.000000 0.333327 -0.067432
v 0.000000 0.310693 -0.087795
v 0.000000 0.283114 -0.106058
v 0.000000 0.251648 -0.121423
v 0.000000 0.217506 -0.133024
v 0.000000 0.182000 -0.140000
v 0.000000 0.146494 -0.136506
v 0.000000 0.112352 -0.127858
v 0.000000 0.080886 -0.114466
v 0.000000 0.053307 -0.096895
v 0.000000 0.030673 -0.075840
v 0.000000 0.013854 -0.052091
v 0.000000 0.003497 -0.026509
v 0.005960 0.360503 -0.022242
v 0.011817 0.350146 -0.044100
v 0.017453 0.333327 -0.065135
v 0.022723 0.310693 -0.084803
v 0.027450 0.283114 -0.102444
v 0.031427 0.251648 -0.117286
v 0.034429 0.217506 -0.128491
v 0.036235 0.182000 -0.135230
v 0.035330 0.146494 -0.131855
v 0.033092 0.112352 -0.123501
v 0.029626 0.080886 -0.110565
v 0.025078 0.053307 -0.093593
v 0.019629 0.030673 -0.073255
v 0.013482 0.013854 -0.050316
v 0.006861 0.003497 -0.025606
v 0.011513 0.360503 -0.019942
v 0.022828 0.350146 -0.039539
v 0.033716 0.333327 -0.058398
v 0.043897 0.310693 -0.076033
v 0.053029 0.283114 -0.091849
v 0.060712 0.251648 -0.105156
v 0.066512 0.217506 -0.115202
v 0.070000 0.182000 -0.121243
v 0.068253 0.146494 -0.118218
v 0.063929 0.112352 -0.110728
v 0.057233 0.080886 -0.099130
v 0.048447 0.053307 -0.083913
v 0.037920 0.030673 -0.065679
v 0.026045 0.013854 -0.045112
v 0.013255 0.003497 -0.022957
v 0.016282 0.360503 -0.016282
v 0.032284 0.350146 -0.032284
v 0.047682 0.333327 -0.047682
v 0.062080 0.310693 -0.062080
v 0.074995 0.283114 -0.074994
v 0.085859 0.251648 -0.085859
v 0.094062 0.217506 -0.094062
v 0.098995 0.182000 -0.098995
v 0.096525 0.146494 -0.096524
v 0.090409 0.112352 -0.090409
v 0.080939 0.080886 -0.080939
v 0.068515 0.053307 -0.068515
v 0.053627 0.030673 -0.053627
v 0.036834 0.013854 -0.036834
v 0.018745 0.003497 -0.018745
v 0.019942 0.360503 -0.011513
v 0.039539 0.350146 -0.022828
v 0.058398 0.333327 -0.033716
v 0.076033 0.310693 -0.043897
v 0.091849 0.283114 -0.053029
v 0.105156 0.251648 -0.060712
v 0.115202 0.217506 -0.066512
v 0.121244 0.182000 -0.070000
v 0.118218 0.146494 -0.068253
v 0.110728 0.112352 -0.063929
v 0.099130 0.080886 -0.057233
v 0.083913 0.053307 -0.048447
v 0.065679 0.030673 -0.037920
v 0.045112 0.013854 -0.026045
v 0.022958 0.003497 -0.013254
v 0.022242 0.360503 -0.005960
v 0.044100 0.350146 -0.011817
v 0.065135 0.333327 -0.017453
v 0.084803 0.310693 -0.022723
v 0.102444 0.283114 -0.027450
v 0.117286 0.251648 -0.031427
v 0.128491 0.217506 -0.034429
v 0.135230 0.182000 -0.036235
v 0.131855 0.146494 -0.035330
v 0.123502 0.112352 -0.033092
v 0.110565 0.080886 -0.029626
v 0.093593 0.053307 -0.025078
v 0.073256 0.030673 -0.019629
v 0.050316 0.013854 -0.013482
v 0.025606 0.003497 -0.006861
v 0.023027 0.360503 0.000000
v 0.045656 0.350146 0.000000
v 0.067432 0.333327 0.000000
v 0.087795 0.310693 0.000000
v 0.106058 0.283114 0.000000
v 0.121424 0.251648 0.000000
v 0.133024 0.217506 0.000000
v 0.140000 0.182000 0.000000
v 0.136506 0.146494 0.000000
v 0.127858 0.112352 0.000000
v 0.114466 0.080886 0.000000
v 0.096895 0.053307 0.000000
v 0.075840 0.030673 0.000000
v 0.052091 0.013854 0.000000
v 0.026509 0.003497 0.000000
v 0.022242 0.360503 0.005960
v 0.044100 0.350146 0.011817
v 0.065135 0.333327 0.017453
v 0.084803 0.310693 0.022723
v 0.102444 0.283114 0.027450
v 0.117286 0.251648 0.031427
v 0.128491 0.217506 0.034429
v 0.135230 0.182000 0.036235
v 0.131855 0.146494 0.035330
v 0.123502 0.112352 0.033092
v 0.110565 0.080886 0.029626
v 0.093593 0.053307 0.025078
v 0.073256 0.030673 0.019629
v 0.050316 0.013854 0.013482
v 0.025606 0.003497 0.006861
v 0.019942 0.360503 0.011513
v 0.039539 0.350146 0.022828
v 0.058398 0.333327 0.033716
v 0.076033 0.310693 0.043897
v 0.091849 0.283114 0.053029
v 0.105156 0.251648 0.060712
v 0.115202 0.217506 0.066512
v 0.121243 0.182000 0.070000
v 0.118218 0.146494 0.068253
v 0.110728 0.112352 0.063929
v 0.099130 0.080886 0.057233
v 0.083913 0.053307 0.048447
v 0.065679 0.030673 0.037920
v 0.045112 0.013854 0.026045
v 0.022957 0.003497 0.013255
v 0.016282 0.360503 0.016282
v 0.032284 0.350146 0.032284
v 0.047682 0.333327 0.047682
v 0.062080 0.310693 0.062080
v 0.074995 0.283114 0.074995
v 0.085859 0.251648 0.085859
v 0.094062 0.217506 0.094062
v 0.098995 0.182000 0.098995
v 0.096525 0.146494 0.096525
v 0.090409 0.112352 0.090409
v 0.080939 0.080886 0.080939
v 0.068515 0.053307 0.068515
v 0.053627 0.030673 0.053627
v 0.036834 0.013854 0.036834
v 0.018745 0.003497 0.018745
v 0.011513 0.360503 0.019942
v 0.022828 0.350146 0.039539
v 0.033716 0.333327 0.058398
v 0.043897 0.310693 0.076033
v 0.053029 0.283114 0.091849
v 0.060712 0.251648 0.105156
v 0.066512 0.217506 0.115202
v 0.070000 0.182000 0.121244
v 0.068253 0.146494 0.118218
v 0.063929 0.112352 0.110728
v 0.057233 0.080886 0.099130
v 0.048447 0.053307 0.083913
v 0.037920 0.030673 0.065679
v 0.026045 0.013854 0.045112
v 0.013255 0.003497 0.022957
v 0.005960 0.360503 0.022242
v 0.011817 0.350146 0.044100
v 0.017453 0.333327 0.065135
v 0.022723 0.310693 0.084803
v 0.027450 0.283114 0.102444
v 0.031427 0.251648 0.117286
v 0.034429 0.217506 0.128491
v 0.036235 0.182000 0.135230
v 0.035330 0.146494 0.131855
v 0.033092 0.112352 0.123502
v 0.029626 0.080886 0.110565
v 0.025078 0.053307 0.093593
v 0.019629 0.030673 0.073256
v 0.013482 0.013854 0.050316
v 0.006861 0.003497 0.025606
v 0.000000 0.360503 0.023027
v 0.000000 0.350146 0.045656
v 0.000000 0.333327 0.067432
v 0.000000 0.310693 0.087795
v 0.000000 0.217506 0.133024
v -0.000000 0.182000 0.140000
v 0.000000 0.146494 0.136506
v -0.000000 0.112352 0.127858
v 0.000000 0.053307 0.096895
v 0.000000 0.030673 0.075840
v 0.000000 0.013854 0.052091
v 0.000000 0.003497 0.026509
vn -0.1203 -0.3888 0.9134
vn -0.0974 0.6656 0.7399
vn -0.1104 -0.5340 0.8382
vn -0.1091 0.5488 0.8288
vn -0.0959 -0.6780 0.7288
vn -0.1175 0.4358 0.8924
vn -0.0759 -0.8137 0.5763
vn -0.1237 0.3192 0.9396
vn -0.0493 -0.9258 0.3748
vn -0.1281 0.1912 0.9732
vn -0.0198 0.9885 0.1501
vn -0.0172 -0.9913 0.1308
vn -0.1299 -0.0971 0.9868
vn -0.0547 0.9079 0.4155
vn -0.1266 -0.2436 0.9616
vn -0.0802 0.7889 0.6093
vn -0.3712 -0.2436 0.8961
vn -0.2352 0.7889 0.5678
vn -0.3526 -0.3888 0.8512
vn -0.2856 0.6656 0.6895
vn -0.3235 -0.5340 0.7811
vn -0.3199 0.5488 0.7723
vn -0.2813 -0.6780 0.6791
vn -0.3444 0.4358 0.8315
vn -0.2224 -0.8137 0.5370
vn -0.3627 0.3192 0.8755
vn -0.1447 -0.9258 0.3493
vn -0.3756 0.1912 0.9068
vn -0.0580 0.9885 0.1399
vn -0.0505 -0.9913 0.1219
vn -0.3809 -0.0971 0.9195
vn -0.1604 0.9079 0.3872
vn -0.3538 -0.8137 0.4611
vn -0.5769 0.3192 0.7518
vn -0.2301 -0.9258 0.2999
vn -0.5975 0.1912 0.7787
vn -0.0922 0.9885 0.1201
vn -0.0803 -0.9913 0.1046
vn -0.6059 -0.0971 0.7896
vn -0.2551 0.9079 0.3325
vn -0.5904 -0.2436 0.7695
vn -0.3741 0.7889 0.4875
vn -0.5609 -0.3888 0.7309
vn -0.4543 0.6656 0.5921
vn -0.5147 -0.5340 0.6708
vn -0.5089 0.5488 0.6632
vn -0.4475 -0.6780 0.5832
vn -0.5479 0.4358 0.7141
vn -0.4875 0.7889 0.3741
vn -0.7309 -0.3888 0.5609
vn -0.5921 0.6656 0.4543
vn -0.6708 -0.5340 0.5147
vn -0.6632 0.5488 0.5089
vn -0.5832 -0.6780 0.4475
vn -0.7141 0.4358 0.5479
vn -0.4611 -0.8137 0.3538
vn -0.7518 0.3192 0.5769
vn -0.2999 -0.9258 0.2301
vn -0.7787 0.1912 0.5975
vn -0.1201 0.9885 0.0922
vn -0.1046 -0.9913 0.0803
vn -0.7896 -0.0971 0.6059
vn -0.3325 0.9079 0.2551
vn -0.7695 -0.2436 0.5904
vn -0.8755 0.3192 0.3627
vn -0.3493 -0.9258 0.1447
vn -0.9068 0.1912 0.3756
vn -0.1399 0.9885 0.0579
vn -0.1219 -0.9913 0.0505
vn -0.9195 -0.0971 0.3809
vn -0.3872 0.9079 0.1604
vn -0.8961 -0.2436 0.3712
vn -0.5678 0.7889 0.2352
vn -0.8512 -0.3888 0.3526
vn -0.6895 0.6656 0.2856
vn -0.7811 -0.5340 0.3235
vn -0.7723 0.5488 0.3199
vn -0.6791 -0.6780 0.2813
vn -0.8315 0.4358 0.3444
vn -0.5370 -0.8137 0.2224
vn -0.9134 -0.3888 0.1203
vn -0.7399 0.6656 0.0974
vn -0.8382 -0.5340 0.1104
vn -0.8288 0.5488 0.1091
vn -0.7288 -0.6780 0.0959
vn -0.8924 0.4358 0.1175
vn -0.5763 -0.8137 0.0759
vn -0.9396 0.3192 0.1237
vn -0.3748 -0.9258 0.0493
vn -0.9732 0.1912 0.1281
vn -0.1501 0.9885 0.0198
vn -0.1308 -0.9913 0.0172
vn -0.9868 -0.0971 0.1299
vn -0.4155 0.9079 0.0547
vn -0.9616 -0.2436 0.1266
vn -0.6093 0.7889 0.0802
vn -0.3748 -0.9258 -0.0493
vn -0.9732 0.1912 -0.1281
vn -0.1501 0.9885 -0.0198
vn -0.1308 -0.9913 -0.0172
vn -0.9868 -0.0971 -0.1299
vn -0.4155 0.9079 -0.0547
vn -0.9616 -0.2436 -0.1266
vn -0.6093 0.7889 -0.0802
vn -0.9134 -0.3888 -0.1203
vn -0.7399 0.6656 -0.0974
vn -0.8382 -0.5340 -0.1104
vn -0.8288 0.5488 -0.1091
vn -0.7288 -0.6780 -0.0959
vn -0.8924 0.4358 -0.1175
vn -0.5763 -0.8137 -0.0759
vn -0.9396 0.3192 -0.1237
vn -0.7811 -0.5340 -0.3235
vn -0.7723 0.5488 -0.3199
vn -0.6791 -0.6780 -0.2813
vn -0.8315 0.4358 -0.3444
vn -0.5370 -0.8137 -0.2224
vn -0.8755 0.3192 -0.3627
vn -0.3493 -0.9258 -0.1447
vn -0.9068 0.1912 -0.3756
vn -0.1399 0.9885 -0.0579
vn -0.1219 -0.9913 -0.0505
vn -0.9195 -0.0971 -0.3809
vn -0.3872 0.9079 -0.1604
vn -0.8961 -0.2436 -0.3712
vn -0.5678 0.7889 -0.2352
vn -0.8512 -0.3888 -0.3526
vn -0.6895 0.6656 -0.2856
vn -0.1201 0.9885 -0.0922
vn -0.1046 -0.9913 -0.0803
vn -0.7896 -0.0971 -0.6059
vn -0.3325 0.9079 -0.2551
vn -0.7695 -0.2436 -0.5904
vn -0.4875 0.7889 -0.3741
vn -0.7309 -0.3888 -0.5609
vn -0.5921 0.6656 -0.4543
vn -0.6708 -0.5340 -0.5147
vn -0.6632 0.5488 -0.5089
vn -0.5832 -0.6780 -0.4475
vn -0.7141 0.4358 -0.5479
vn -0.4611 -0.8137 -0.3538
vn -0.7518 0.3192 -0.5769
vn -0.2999 -0.9258 -0.2301
vn -0.7787 0.1912 -0.5975
vn -0.5089 0.5488 -0.6632
vn -0.4475 -0.6780 -0.5832
vn -0.5479 0.4358 -0.7141
vn -0.3538 -0.8137 -0.4611
vn -0.5769 0.3192 -0.7518
vn -0.2301 -0.9258 -0.2999
vn -0.5975 0.1912 -0.7787
vn -0.0922 0.9885 -0.1201
vn -0.0803 -0.9913 -0.1046
vn -0.6059 -0.0971 -0.7896
vn -0.2551 0.9079 -0.3325
vn -0.5904 -0.2436 -0.7695
vn -0.3741 0.7889 -0.4875
vn -0.5609 -0.3888 -0.7309
vn -0.4543 0.6656 -0.5921
vn -0.5147 -0.5340 -0.6708
vn -0.3809 -0.0971 -0.9195
vn -0.1604 0.9079 -0.3872
vn -0.3712 -0.2436 -0.8961
vn -0.2352 0.7889 -0.5678
vn -0.3526 -0.3888 -0.8512
vn -0.2856 0.6656 -0.6895
vn -0.3235 -0.5340 -0.7811
vn -0.3199 0.5488 -0.7723
vn -0.2813 -0.6780 -0.6791
vn -0.3444 0.4358 -0.8316
vn -0.2224 -0.8137 -0.5370
vn -0.3627 0.3192 -0.8755
vn -0.1447 -0.9258 -0.3493
vn -0.3756 0.1912 -0.9068
vn -0.0579 0.9885 -0.1399
vn -0.0505 -0.9913 -0.1219
vn -0.0959 -0.6780 -0.7288
vn -0.1175 0.4358 -0.8924
vn -0.0759 -0.8137 -0.5763
vn -0.1237 0.3192 -0.9396
vn -0.0493 -0.9258 -0.3748
vn -0.1281 0.1912 -0.9732
vn -0.0198 0.9885 -0.1501
vn -0.0172 -0.9913 -0.1308
vn -0.1299 -0.0971 -0.9868
vn -0.0547 0.9079 -0.4155
vn -0.1266 -0.2436 -0.9616
vn -0.0802 0.7889 -0.6093
vn -0.1203 -0.3888 -0.9134
vn -0.0974 0.6656 -0.7399
vn -0.1104 -0.5340 -0.8382
vn -0.1091 0.5488 -0.8288
vn 0.0547 0.9079 -0.4155
vn 0.1266 -0.2436 -0.9616
vn 0.0802 0.7889 -0.6093
vn 0.1203 -0.3888 -0.9134
vn 0.0974 0.6656 -0.7399
vn 0.1104 -0.5340 -0.8382
vn 0.1091 0.5488 -0.8288
vn 0.0959 -0.6780 -0.7288
vn 0.1175 0.4358 -0.8924
vn 0.0759 -0.8137 -0.5763
vn 0.1237 0.3192 -0.9396
vn 0.0493 -0.9258 -0.3748
vn 0.1281 0.1912 -0.9732
vn 0.0198 0.9885 -0.1501
vn 0.0172 -0.9913 -0.1308
vn 0.1299 -0.0971 -0.9868
vn 0.3444 0.4358 -0.8315
vn 0.2224 -0.8137 -0.5370
vn 0.3627 0.3192 -0.8755
vn 0.1447 -0.9258 -0.3493
vn 0.3756 0.1912 -0.9068
vn 0.0579 0.9885 -0.1399
vn 0.0505 -0.9913 -0.1219
vn 0.3809 -0.0971 -0.9195
vn 0.1604 0.9079 -0.3872
vn 0.3712 -0.2436 -0.8961
vn 0.2352 0.7889 -0.5678
vn 0.3526 -0.3888 -0.8512
vn 0.2856 0.6656 -0.6895
vn 0.3235 -0.5340 -0.7811
vn 0.3199 0.5488 -0.7723
vn 0.2813 -0.6780 -0.6791
vn 0.5904 -0.2436 -0.7695
vn 0.3741 0.7889 -0.4875
vn 0.5609 -0.3888 -0.7309
vn 0.4543 0.6656 -0.5921
vn 0.5147 -0.5340 -0.6708
vn 0.5089 0.5488 -0.6632
vn 0.4475 -0.6780 -0.5832
vn 0.5479 0.4358 -0.7141
vn 0.3538 -0.8137 -0.4611
vn 0.5769 0.3192 -0.7518
vn 0.2301 -0.9258 -0.2999
vn 0.5975 0.1912 -0.7787
vn 0.0922 0.9885 -0.1201
vn 0.0803 -0.9913 -0.1046
vn 0.6059 -0.0971 -0.7896
vn 0.2551 0.9079 -0.3325
vn 0.4611 -0.8137 -0.3538
vn 0.7518 0.3192 -0.5769
vn 0.2999 -0.9258 -0.2301
vn 0.7787 0.1912 -0.5975
vn 0.1201 0.9885 -0.0922
vn 0.1046 -0.9913 -0.0803
vn 0.7896 -0.0971 -0.6059
vn 0.3325 0.9079 -0.2551
vn 0.7695 -0.2436 -0.5904
vn 0.4875 0.7889 -0.3741
vn 0.7309 -0.3888 -0.5609
vn 0.5921 0.6656 -0.4543
vn 0.6708 -0.5340 -0.5147
vn 0.6632 0.5488 -0.5089
vn 0.5832 -0.6780 -0.4475
vn 0.7141 0.4358 -0.5479
vn 0.8512 -0.3888 -0.3526
vn 0.6895 0.6656 -0.2856
vn 0.7811 -0.5340 -0.3235
vn 0.7723 0.5488 -0.3199
vn 0.6791 -0.6780 -0.2813
vn 0.8315 0.4358 -0.3444
vn 0.5370 -0.8137 -0.2224
vn 0.8755 0.3192 -0.3627
vn 0.3493 -0.9258 -0.1447
vn 0.9068 0.1912 -0.3756
vn 0.1399 0.9885 -0.0579
vn 0.1219 -0.9913 -0.0505
vn 0.9195 -0.0971 -0.3809
vn 0.3872 0.9079 -0.1604
vn 0.8961 -0.2436 -0.3712
vn 0.5678 0.7889 -0.2352
vn 0.3748 -0.9258 -0.0493
vn 0.9732 0.1912 -0.1281
vn 0.1501 0.9885 -0.0198
vn 0.1308 -0.9913 -0.0172
vn 0.9868 -0.0971 -0.1299
vn 0.4155 0.9079 -0.0547
vn 0.9616 -0.2436 -0.1266
vn 0.6093 0.7889 -0.0802
vn 0.9134 -0.3888 -0.1203
vn 0.7399 0.6656 -0.0974
vn 0.8382 -0.5340 -0.1104
vn 0.8288 0.5488 -0.1091
vn 0.7288 -0.6780 -0.0959
vn 0.8924 0.4358 -0.1175
vn 0.5763 -0.8137 -0.0759
vn 0.9396 0.3192 -0.1237
vn 0.7399 0.6656 0.0974
vn 0.8382 -0.5340 0.1104
vn 0.8288 0.5488 0.1091
vn 0.7288 -0.6780 0.0959
vn 0.8924 0.4358 0.1175
vn 0.5763 -0.8137 0.0759
vn 0.9396 0.3192 0.1237
vn 0.3748 -0.9258 0.0493
vn 0.9732 0.1912 0.1281
vn 0.1501 0.9885 0.0198
vn 0.1308 -0.9913 0.0172
vn 0.9868 -0.0971 0.1299
vn 0.4155 0.9079 0.0547
vn 0.9616 -0.2436 0.1266
vn 0.6093 0.7889 0.0802
vn 0.9134 -0.3888 0.1203
vn 0.9068 0.1912 0.3756
vn 0.1399 0.9885 0.0579
vn 0.1219 -0.9913 0.0505
vn 0.9195 -0.0971 0.3809
vn 0.3872 0.9079 0.1604
vn 0.8961 -0.2436 0.3712
vn 0.5678 0.7889 0.2352
vn 0.8512 -0.3888 0.3526
vn 0.6895 0.6656 0.2856
vn 0.7811 -0.5340 0.3235
vn 0.7723 0.5488 0.3199
vn 0.6791 -0.6780 0.2813
vn 0.8315 0.4358 0.3444
vn 0.5370 -0.8137 0.2224
vn 0.8755 0.3192 0.3627
vn 0.3493 -0.9258 0.1447
vn 0.6708 -0.5340 0.5147
vn 0.6632 0.5488 0.5089
vn 0.5832 -0.6780 0.4475
vn 0.7141 0.4358 0.5479
vn 0.4611 -0.8137 0.3538
vn 0.7518 0.3192 0.5769
vn 0.2999 -0.9258 0.2301
vn 0.7787 0.1912 0.5975
vn 0.1201 0.9885 0.0922
vn 0.1046 -0.9913 0.0803
vn 0.7896 -0.0971 0.6059
vn 0.3325 0.9079 0.2551
vn 0.7695 -0.2436 0.5904
vn 0.4875 0.7889 0.3741
vn 0.7309 -0.3888 0.5609
vn 0.5921 0.6656 0.4543
vn 0.0922 0.9885 0.1201
vn 0.0803 -0.9913 0.1046
vn 0.6059 -0.0971 0.7896
vn 0.2551 0.9079 0.3325
vn 0.5904 -0.2436 0.7695
vn 0.3741 0.7889 0.4875
vn 0.5609 -0.3888 0.7309
vn 0.4543 0.6656 0.5921
vn 0.5147 -0.5340 0.6708
vn 0.5089 0.5488 0.6632
vn 0.4475 -0.6780 0.5832
vn 0.5479 0.4358 0.7141
vn 0.3538 -0.8137 0.4611
vn 0.5769 0.3192 0.7518
vn 0.2301 -0.9258 0.2999
vn 0.5975 0.1912 0.7787
vn 0.3199 0.5488 0.7723
vn 0.2813 -0.6780 0.6791
vn 0.3444 0.4358 0.8316
vn 0.2224 -0.8137 0.5370
vn 0.3627 0.3192 0.8755
vn 0.1447 -0.9258 0.3493
vn 0.3756 0.1912 0.9068
vn 0.0579 0.9885 0.1399
vn 0.0505 -0.9913 0.1219
vn 0.3809 -0.0971 0.9195
vn 0.1604 0.9079 0.3872
vn 0.3712 -0.2436 0.8961
vn 0.2352 0.7889 0.5678
vn 0.3526 -0.3888 0.8512
vn 0.2856 0.6656 0.6895
vn 0.3235 -0.5340 0.7811
vn 0.1299 -0.0971 0.9868
vn 0.0547 0.9079 0.4155
vn 0.1266 -0.2436 0.9616
vn 0.0802 0.7889 0.6093
vn 0.1203 -0.3888 0.9134
vn 0.0974 0.6656 0.7399
vn 0.1104 -0.5340 0.8382
vn 0.1091 0.5488 0.8288
vn 0.0959 -0.6780 0.7288
vn 0.1175 0.4358 0.8924
vn 0.0759 -0.8137 0.5763
vn 0.1237 0.3192 0.9396
vn 0.0493 -0.9258 0.3748
vn 0.1281 0.1912 0.9732
vn 0.0198 0.9885 0.1501
vn 0.0172 -0.9913 0.1308
s 0
usemtl EF_Egg_sunburst_Shell
f 4//1 358//1 15//1 16//1
f 354//2 353//2 8//2 9//2
f 359//3 4//3 16//3 17//3
f 2//4 354//4 9//4 10//4
f 360//5 359//5 17//5 18//5
f 3//6 2//6 10//6 11//6
f 361//7 360//7 18//7 19//7
f 362//9 361//9 19//9 20//9
f 351//11 1//11 6//11
f 5//12 362//12 20//12
f 357//13 356//13 13//13 14//13
f 352//14 351//14 6//14 7//14
f 358//15 357//15 14//15 15//15
f 353//16 352//16 7//16 8//16
f 8//18 7//18 22//18 23//18
f 16//19 15//19 30//19 31//19
f 9//20 8//20 23//20 24//20
f 17//21 16//21 31//21 32//21
f 10//22 9//22 24//22 25//22
f 18//23 17//23 32//23 33//23
f 11//24 10//24 25//24 26//24
f 19//25 18//25 33//25 34//25
f 20//27 19//27 34//27 35//27
f 6//29 1//29 21//29
f 5//30 20//30 35//30
f 14//31 13//31 28//31 29//31
f 7//32 6//32 21//32 22//32
f 34//33 33//33 48//33 49//33
f 35//35 34//35 49//35 50//35
f 21//37 1//37 36//37
f 5//38 35//38 50//38
f 29//39 28//39 43//39 44//39
f 22//40 21//40 36//40 37//40
f 30//41 29//41 44//41 45//41
f 23//42 22//42 37//42 38//42
f 31//43 30//43 45//43 46//43
f 24//44 23//44 38//44 39//44
f 32//45 31//45 46//45 47//45
f 33//47 32//47 47//47 48//47
f 26//48 25//48 40//48 41//48
f 38//49 37//49 52//49 53//49
f 46//50 45//50 60//50 61//50
f 39//51 38//51 53//51 54//51
f 47//52 46//52 61//52 62//52
f 40//53 39//53 54//53 55//53
f 48//54 47//54 62//54 63//54
f 41//55 40//55 55//55 56//55
f 49//56 48//56 63//56 64//56
f 50//58 49//58 64//58 65//58
f 36//60 1//60 51//60
f 5//61 50//61 65//61
f 44//62 43//62 58//62 59//62
f 37//63 36//63 51//63 52//63
f 65//66 64//66 79//66 80//66
f 51//68 1//68 66//68
f 5//69 65//69 80//69
f 59//70 58//70 73//70 74//70
f 52//71 51//71 66//71 67//71
f 60//72 59//72 74//72 75//72
f 53//73 52//73 67//73 68//73
f 61//74 60//74 75//74 76//74
f 54//75 53//75 68//75 69//75
f 62//76 61//76 76//76 77//76
f 55//77 54//77 69//77 70//77
f 63//78 62//78 77//78 78//78
f 56//79 55//79 70//79 71//79
f 64//80 63//80 78//80 79//80
f 76//81 75//81 90//81 91//81
f 69//82 68//82 83//82 84//82
f 77//83 76//83 91//83 92//83
f 70//84 69//84 84//84 85//84
f 78//85 77//85 92//85 93//85
f 71//86 70//86 85//86 86//86
f 79//87 78//87 93//87 94//87
f 80//89 79//89 94//89 95//89
f 66//91 1//91 81//91
f 5//92 80//92 95//92
f 74//93 73//93 88//93 89//93
f 67//94 66//94 81//94 82//94
f 68//96 67//96 82//96 83//96
f 95//97 94//97 109//97 110//97
f 81//99 1//99 96//99
f 5//100 95//100 110//100
f 89//101 88//101 103//101 104//101
f 82//102 81//102 96//102 97//102
f 90//103 89//103 104//103 105//103
f 83//104 82//104 97//104 98//104
f 91//105 90//105 105//105 106//105
f 84//106 83//106 98//106 99//106
f 92//107 91//107 106//107 107//107
f 85//108 84//108 99//108 100//108
f 93//109 92//109 107//109 108//109
f 86//110 85//110 100//110 101//110
f 94//111 93//111 108//111 109//111
f 107//113 106//113 121//113 122//113
f 108//115 107//115 122//115 123//115
f 101//116 100//116 115//116 116//116
f 109//117 108//117 123//117 124//117
f 110//119 109//119 124//119 125//119
f 96//121 1//121 111//121
f 5//122 110//122 125//122
f 104//123 103//123 118//123 119//123
f 97//124 96//124 111//124 112//124
f 98//126 97//126 112//126 113//126
f 106//127 105//127 120//127 121//127
f 99//128 98//128 113//128 114//128
f 111//129 1//129 126//129
f 5//130 125//130 140//130
f 119//131 118//131 133//131 134//131
f 112//132 111//132 126//132 127//132
f 120//133 119//133 134//133 135//133
f 113//134 112//134 127//134 128//134
f 121//135 120//135 135//135 136//135
f 114//136 113//136 128//136 129//136
f 122//137 121//137 136//137 137//137
f 115//138 114//138 129//138 130//138
f 123//139 122//139 137//139 138//139
f 116//140 115//140 130//140 131//140
f 124//141 123//141 138//141 139//141
f 125//143 124//143 139//143 140//143
f 130//145 129//145 144//145 145//145
f 138//146 137//146 152//146 153//146
f 131//147 130//147 145//147 146//147
f 139//148 138//148 153//148 154//148
f 140//150 139//150 154//150 155//150
f 126//152 1//152 141//152
f 5//153 140//153 155//153
f 134//154 133//154 148//154 149//154
f 127//155 126//155 141//155 142//155
f 135//156 134//156 149//156 150//156
f 128//157 127//157 142//157 143//157
f 136//158 135//158 150//158 151//158
f 129//159 128//159 143//159 144//159
f 137//160 136//160 151//160 152//160
f 149//161 148//161 163//161 164//161
f 142//162 141//162 156//162 157//162
f 143//164 142//164 157//164 158//164
f 151//165 150//165 165//165 166//165
f 144//166 143//166 158//166 159//166
f 152//167 151//167 166//167 167//167
f 153//169 152//169 167//169 168//169
f 146//170 145//170 160//170 161//170
f 154//171 153//171 168//171 169//171
f 155//173 154//173 169//173 170//173
f 141//175 1//175 156//175
f 5//176 155//176 170//176
f 168//177 167//177 182//177 183//177
f 161//178 160//178 175//178 176//178
f 169//179 168//179 183//179 184//179
f 170//181 169//181 184//181 185//181
f 156//183 1//183 171//183
f 5//184 170//184 185//184
f 164//185 163//185 178//185 179//185
f 157//186 156//186 171//186 172//186
f 165//187 164//187 179//187 180//187
f 158//188 157//188 172//188 173//188
f 166//189 165//189 180//189 181//189
f 159//190 158//190 173//190 174//190
f 167//191 166//191 181//191 182//191
f 160//192 159//192 174//192 175//192
f 172//193 171//193 186//193 187//193
f 173//195 172//195 187//195 188//195
f 181//196 180//196 195//196 196//196
f 174//197 173//197 188//197 189//197
f 182//198 181//198 196//198 197//198
f 175//199 174//199 189//199 190//199
f 183//200 182//200 197//200 198//200
f 176//201 175//201 190//201 191//201
f 184//202 183//202 198//202 199//202
f 185//204 184//204 199//204 200//204
f 171//206 1//206 186//206
f 5//207 185//207 200//207
f 179//208 178//208 193//208 194//208
f 191//209 190//209 205//209 206//209
f 199//210 198//210 213//210 214//210
f 200//212 199//212 214//212 215//212
f 186//214 1//214 201//214
f 5//215 200//215 215//215
f 194//216 193//216 208//216 209//216
f 187//217 186//217 201//217 202//217
f 195//218 194//218 209//218 210//218
f 188//219 187//219 202//219 203//219
f 196//220 195//220 210//220 211//220
f 189//221 188//221 203//221 204//221
f 197//222 196//222 211//222 212//222
f 198//224 197//224 212//224 213//224
f 210//225 209//225 224//225 225//225
f 203//226 202//226 217//226 218//226
f 211//227 210//227 225//227 226//227
f 204//228 203//228 218//228 219//228
f 212//229 211//229 226//229 227//229
f 205//230 204//230 219//230 220//230
f 213//231 212//231 227//231 228//231
f 206//232 205//232 220//232 221//232
f 214//233 213//233 228//233 229//233
f 215//235 214//235 229//235 230//235
f 201//237 1//237 216//237
f 5//238 215//238 230//238
f 209//239 208//239 223//239 224//239
f 202//240 201//240 216//240 217//240
f 229//241 228//241 243//241 244//241
f 230//243 229//243 244//243 245//243
f 216//245 1//245 231//245
f 5//246 230//246 245//246
f 224//247 223//247 238//247 239//247
f 217//248 216//248 231//248 232//248
f 225//249 224//249 239//249 240//249
f 218//250 217//250 232//250 233//250
f 226//251 225//251 240//251 241//251
f 219//252 218//252 233//252 234//252
f 227//253 226//253 241//253 242//253
f 220//254 219//254 234//254 235//254
f 228//255 227//255 242//255 243//255
f 221//256 220//256 235//256 236//256
f 241//257 240//257 255//257 256//257
f 234//258 233//258 248//258 249//258
f 242//259 241//259 256//259 257//259
f 243//261 242//261 257//261 258//261
f 236//262 235//262 250//262 251//262
f 244//263 243//263 258//263 259//263
f 245//265 244//265 259//265 260//265
f 231//267 1//267 246//267
f 5//268 245//268 260//268
f 239//269 238//269 253//269 254//269
f 232//270 231//270 246//270 247//270
f 240//271 239//271 254//271 255//271
f 233//272 232//272 247//272 248//272
f 260//273 259//273 274//273 275//273
f 246//275 1//275 261//275
f 5//276 260//276 275//276
f 254//277 253//277 268//277 269//277
f 247//278 246//278 261//278 262//278
f 248//280 247//280 262//280 263//280
f 256//281 255//281 270//281 271//281
f 249//282 248//282 263//282 264//282
f 257//283 256//283 271//283 272//283
f 250//284 249//284 264//284 265//284
f 258//285 257//285 272//285 273//285
f 251//286 250//286 265//286 266//286
f 259//287 258//287 273//287 274//287
f 264//289 263//289 278//289 279//289
f 272//290 271//290 286//290 287//290
f 265//291 264//291 279//291 280//291
f 273//292 272//292 287//292 288//292
f 266//293 265//293 280//293 281//293
f 274//294 273//294 288//294 289//294
f 275//296 274//296 289//296 290//296
f 261//298 1//298 276//298
f 5//299 275//299 290//299
f 269//300 268//300 283//300 284//300
f 262//301 261//301 276//301 277//301
f 270//302 269//302 284//302 285//302
f 263//303 262//303 277//303 278//303
f 271//304 270//304 285//304 286//304
f 276//306 1//306 291//306
f 5//307 290//307 305//307
f 284//308 283//308 298//308 299//308
f 277//309 276//309 291//309 292//309
f 278//311 277//311 292//311 293//311
f 286//312 285//312 300//312 301//312
f 279//313 278//313 293//313 294//313
f 287//314 286//314 301//314 302//314
f 288//316 287//316 302//316 303//316
f 281//317 280//317 295//317 296//317
f 289//318 288//318 303//318 304//318
f 290//320 289//320 304//320 305//320
f 302//321 301//321 316//321 317//321
f 295//322 294//322 309//322 310//322
f 303//323 302//323 317//323 318//323
f 296//324 295//324 310//324 311//324
f 304//325 303//325 318//325 319//325
f 305//327 304//327 319//327 320//327
f 291//329 1//329 306//329
f 5//330 305//330 320//330
f 299//331 298//331 313//331 314//331
f 292//332 291//332 306//332 307//332
f 300//333 299//333 314//333 315//333
f 293//334 292//334 307//334 308//334
f 301//335 300//335 315//335 316//335
f 294//336 293//336 308//336 309//336
f 306//337 1//337 321//337
f 5//338 320//338 335//338
f 314//339 313//339 328//339 329//339
f 307//340 306//340 321//340 322//340
f 308//342 307//342 322//342 323//342
f 316//343 315//343 330//343 331//343
f 309//344 308//344 323//344 324//344
f 317//345 316//345 331//345 332//345
f 310//346 309//346 324//346 325//346
f 318//347 317//347 332//347 333//347
f 311//348 310//348 325//348 326//348
f 319//349 318//349 333//349 334//349
f 320//351 319//351 334//351 335//351
f 333//354 332//354 347//354 348//354
f 326//355 325//355 340//355 341//355
f 334//356 333//356 348//356 349//356
f 335//358 334//358 349//358 350//358
f 321//360 1//360 336//360
f 5//361 335//361 350//361
f 329//362 328//362 343//362 344//362
f 322//363 321//363 336//363 337//363
f 330//364 329//364 344//364 345//364
f 323//365 322//365 337//365 338//365
f 331//366 330//366 345//366 346//366
f 324//367 323//367 338//367 339//367
f 332//368 331//368 346//368 347//368
f 344//369 343//369 356//369 357//369
f 337//370 336//370 351//370 352//370
f 338//372 337//372 352//372 353//372
f 346//373 345//373 358//373 4//373
f 339//374 338//374 353//374 354//374
f 347//375 346//375 4//375 359//375
f 340//376 339//376 354//376 2//376
f 348//377 347//377 359//377 360//377
f 341//378 340//378 2//378 3//378
f 349//379 348//379 360//379 361//379
f 350//381 349//381 361//381 362//381
f 336//383 1//383 351//383
f 5//384 350//384 362//384
usemtl EF_Egg_sunburst_Spots
f 355//8 3//8 11//8 12//8
f 356//10 355//10 12//10 13//10
f 15//17 14//17 29//17 30//17
f 12//26 11//26 26//26 27//26
f 13//28 12//28 27//28 28//28
f 27//34 26//34 41//34 42//34
f 28//36 27//36 42//36 43//36
f 25//46 24//46 39//46 40//46
f 42//57 41//57 56//57 57//57
f 43//59 42//59 57//59 58//59
f 45//64 44//64 59//64 60//64
f 57//65 56//65 71//65 72//65
f 58//67 57//67 72//67 73//67
f 72//88 71//88 86//88 87//88
f 73//90 72//90 87//90 88//90
f 75//95 74//95 89//95 90//95
f 88//98 87//98 102//98 103//98
f 87//112 86//112 101//112 102//112
f 100//114 99//114 114//114 115//114
f 102//118 101//118 116//118 117//118
f 103//120 102//120 117//120 118//120
f 105//125 104//125 119//125 120//125
f 117//142 116//142 131//142 132//142
f 118//144 117//144 132//144 133//144
f 132//149 131//149 146//149 147//149
f 133//151 132//151 147//151 148//151
f 150//163 149//163 164//163 165//163
f 145//168 144//168 159//168 160//168
f 147//172 146//172 161//172 162//172
f 148//174 147//174 162//174 163//174
f 162//180 161//180 176//180 177//180
f 163//182 162//182 177//182 178//182
f 180//194 179//194 194//194 195//194
f 177//203 176//203 191//203 192//203
f 178//205 177//205 192//205 193//205
f 192//211 191//211 206//211 207//211
f 193//213 192//213 207//213 208//213
f 190//223 189//223 204//223 205//223
f 207//234 206//234 221//234 222//234
f 208//236 207//236 222//236 223//236
f 222//242 221//242 236//242 237//242
f 223//244 222//244 237//244 238//244
f 235//260 234//260 249//260 250//260
f 237//264 236//264 251//264 252//264
f 238//266 237//266 252//266 253//266
f 253//274 252//274 267//274 268//274
f 255//279 254//279 269//279 270//279
f 252//288 251//288 266//288 267//288
f 267//295 266//295 281//295 282//295
f 268//297 267//297 282//297 283//297
f 283//305 282//305 297//305 298//305
f 285//310 284//310 299//310 300//310
f 280//315 279//315 294//315 295//315
f 282//319 281//319 296//319 297//319
f 297//326 296//326 311//326 312//326
f 298//328 297//328 312//328 313//328
f 315//341 314//341 329//341 330//341
f 312//350 311//350 326//350 327//350
f 313//352 312//352 327//352 328//352
f 325//353 324//353 339//353 340//353
f 327//357 326//357 341//357 342//357
f 328//359 327//359 342//359 343//359
f 345//371 344//371 357//371 358//371
f 342//380 341//380 3//380 355//380
f 343//382 342//382 355//382 356//382
