# Blender 5.0.1
# www.blender.org
mtllib Egg_seashell.mtl
o Egg_seashell
v 0.000000 0.364000 0.000000
v 0.000000 0.283114 0.106058
v 0.000000 0.251648 0.121424
v 0.000000 0.080886 0.114466
v 0.000000 0.000000 0.000000
v -0.005960 0.360503 0.022242
v -0.011817 0.350146 0.044100
v -0.017453 0.333327 0.065135
v -0.022723 0.310693 0.084803
v -0.027450 0.283114 0.102444
v -0.031427 0.251648 0.117286
v -0.034429 0.217506 0.128491
v -0.036235 0.182000 0.135230
v -0.035330 0.146494 0.131855
v -0.033092 0.112352 0.123502
v -0.029626 0.080886 0.110565
v -0.025078 0.053307 0.093593
v -0.019629 0.030673 0.073256
v -0.013482 0.013854 0.050316
v -0.006861 0.003497 0.025606
v -0.011513 0.360503 0.019942
v -0.022828 0.350146 0.039539
v -0.033716 0.333327 0.058398
v -0.043897 0.310693 0.076033
v -0.053029 0.283114 0.091849
v -0.060712 0.251648 0.105156
v -0.066512 0.217506 0.115202
v -0.070000 0.182000 0.121244
v -0.068253 0.146494 0.118218
v -0.063929 0.112352 0.110728
v -0.057233 0.080886 0.099130
v -0.048447 0.053307 0.083913
v -0.037920 0.030673 0.065679
v -0.026045 0.013854 0.045112
v -0.013254 0.003497 0.022957
v -0.016282 0.360503 0.016282
v -0.032284 0.350146 0.032284
v -0.047682 0.333327 0.047682
v -0.062080 0.310693 0.062080
v -0.074995 0.283114 0.074995
v -0.085859 0.251648 0.085859
v -0.094062 0.217506 0.094062
v -0.098995 0.182000 0.098995
v -0.096525 0.146494 0.096525
v -0.090409 0.112352 0.090409
v -0.080939 0.080886 0.080939
v -0.068515 0.053307 0.068515
v -0.053627 0.030673 0.053627
v -0.036834 0.013854 0.036834
v -0.018745 0.003497 0.018745
v -0.019942 0.360503 0.011513
v -0.039539 0.350146 0.022828
v -0.058398 0.333327 0.033716
v -0.076033 0.310693 0.043897
v -0.091849 0.283114 0.053029
v -0.105156 0.251648 0.060712
v -0.115202 0.217506 0.066512
v -0.121244 0.182000 0.070000
v -0.118218 0.146494 0.068253
v -0.110728 0.112352 0.063929
v -0.099130 0.080886 0.057233
v -0.083913 0.053307 0.048447
v -0.065679 0.030673 0.037920
v -0.045112 0.013854 0.026045
v -0.022957 0.003497 0.013255
v -0.022242 0.360503 0.005960
v -0.044100 0.350146 0.011817
v -0.065135 0.333327 0.017453
v -0.084803 0.310693 0.022723
v -0.102444 0.283114 0.027450
v -0.117286 0.251648 0.031427
v -0.128491 0.217506 0.034429
v -0.135230 0.182000 0.036235
v -0.131855 0.146494 0.035330
v -0.123502 0.112352 0.033092
v -0.110565 0.080886 0.029626
v -0.093593 0.053307 0.025078
v -0.073255 0.030673 0.019629
v -0.050316 0.013854 0.013482
v -0.025606 0.003497 0.006861
v -0.023027 0.360503 0.000000
v -0.045656 0.350146 0.000000
v -0.067432 0.333327 0.000000
v -0.087795 0.310693 0.000000
v -0.106058 0.283114 0.000000
v -0.121423 0.251648 0.000000
v -0.133024 0.217506 0.000000
v -0.140000 0.182000 0.000000
v -0.136506 0.146494 0.000000
v -0.127858 0.112352 0.000000
v -0.114466 0.080886 0.000000
v -0.096895 0.053307 0.000000
v -0.075840 0.030673 0.000000
v -0.052091 0.013854 0.000000
v -0.026509 0.003497 0.000000
v -0.022242 0.360503 -0.005960
v -0.044100 0.350146 -0.011817
v -0.065135 0.333327 -0.017453
v -0.084803 0.310693 -0.022723
v -0.102444 0.283114 -0.027450
v -0.117286 0.251648 -0.031427
v -0.128491 0.217506 -0.034429
v -0.135230 0.182000 -0.036235
v -0.131855 0.146494 -0.035330
v -0.123502 0.112352 -0.033092
v -0.110565 0.080886 -0.029626
v -0.093593 0.053307 -0.025078
v -0.073255 0.030673 -0.019629
v -0.050316 0.013854 -0.013482
v -0.025606 0.003497 -0.006861
v -0.019942 0.360503 -0.011513
v -0.039539 0.350146 -0.022828
v -0.058398 0.333327 -0.033716
v -0.076033 0.310693 -0.043897
v -0.091849 0.283114 -0.053029
v -0.105156 0.251648 -0.060712
v -0.115202 0.217506 -0.066512
v -0.121243 0.182000 -0.070000
v -0.118218 0.146494 -0.068253
v -0.110728 0.112352 -0.063929
v -0.099130 0.080886 -0.057233
v -0.083913 0.053307 -0.048447
v -0.065679 0.030673 -0.037920
v -0.045112 0.013854 -0.026045
v -0.022957 0.003497 -0.013254
v -0.016282 0.360503 -0.016282
v -0.032284 0.350146 -0.032284
v -0.047682 0.333327 -0.047682
v -0.062080 0.310693 -0.062080
v -0.074994 0.283114 -0.074995
v -0.085859 0.251648 -0.085859
v -0.094062 0.217506 -0.094062
v -0.098995 0.182000 -0.098995
v -0.096524 0.146494 -0.096524
v -0.090409 0.112352 -0.090409
v -0.080939 0.080886 -0.080939
v -0.068515 0.053307 -0.068515
v -0.053627 0.030673 -0.053627
v -0.036834 0.013854 -0.036834
v -0.018745 0.003497 -0.018745
v -0.011513 0.360503 -0.019942
v -0.022828 0.350146 -0.039539
v -0.033716 0.333327 -0.058398
v -0.043897 0.310693 -0.076033
v -0.053029 0.283114 -0.091849
v -0.060712 0.251648 -0.105156
v -0.066512 0.217506 -0.115202
v -0.070000 0.182000 -0.121244
v -0.068253 0.146494 -0.118218
v -0.063929 0.112352 -0.110728
v -0.057233 0.080886 -0.099130
v -0.048447 0.053307 -0.083913
v -0.037920 0.030673 -0.065679
v -0.026045 0.013854 -0.045112
v -0.013254 0.003497 -0.022957
v -0.005960 0.360503 -0.022242
v -0.011817 0.350146 -0.044100
v -0.017453 0.333327 -0.065135
v -0.022723 0.310693 -0.084803
v -0.027450 0.283114 -0.102444
v -0.031427 0.251648 -0.117286
v -0.034429 0.217506 -0.128491
v -0.036235 0.182000 -0.135230
v -0.035330 0.146494 -0.131855
v -0.033092 0.112352 -0.123501
v -0.029626 0.080886 -0.110565
v -0.025078 0.053307 -0.093593
v -0.019629 0.030673 -0.073255
v -0.013482 0.013854 -0.050316
v -0.006861 0.003497 -0.025606
v 0.000000 0.360503 -0.023027
v 0.000000 0.350146 -0.045656
v 0.000000 0.333327 -0.067432
v 0.000000 0.310693 -0.087795
v 0.000000 0.283114 -0.106058
v 0.000000 0.251648 -0.121423
v 0.000000 0.217506 -0.133024
v 0.000000 0.182000 -0.140000
v 0.000000 0.146494 -0.136506
v 0.000000 0.112352 -0.127858
v 0.000000 0.080886 -0.114466
v 0.000000 0.053307 -0.096895
v 0.000000 0.030673 -0.075840
v 0.000000 0.013854 -0.052091
v 0.000000 0.003497 -0.026509
v 0.005960 0.360503 -0.022242
v 0.011817 0.350146 -0.044100
v 0.017453 0.333327 -0.065135
v 0.022723 0.310693 -0.084803
v 0.027450 0.283114 -0.102444
v 0.031427 0.251648 -0.117286
v 0.034429 0.217506 -0.128491
v 0.036235 0.182000 -0.135230
v 0.035330 0.146494 -0.131855
v 0.033092 0.112352 -0.123501
v 0.029626 0.080886 -0.110565
v 0.025078 0.053307 -0.093593
v 0.019629 0.030673 -0.073255
v 0.013482 0.013854 -0.050316
v 0.006861 0.003497 -0.025606
v 0.011513 0.360503 -0.019942
v 0.022828 0.350146 -0.039539
v 0.033716 0.333327 -0.058398
v 0.043897 0.310693 -0.076033
v 0.053029 0.283114 -0.091849
v 0.060712 0.251648 -0.105156
v 0.066512 0.217506 -0.115202
v 0.070000 0.182000 -0.121243
v 0.068253 0.146494 -0.118218
v 0.063929 0.112352 -0.110728
v 0.057233 0.080886 -0.099130
v 0.048447 0.053307 -0.083913
v 0.037920 0.030673 -0.065679
v 0.026045 0.013854 -0.045112
v 0.013255 0.003497 -0.022957
v 0.016282 0.360503 -0.016282
v 0.032284 0.350146 -0.032284
v 0.047682 0.333327 -0.047682
v 0.062080 0.310693 -0.062080
v 0.074995 0.283114 -0.074994
v 0.085859 0.251648 -0.085859
v 0.094062 0.217506 -0.094062
v 0.098995 0.182000 -0.098995
v 0.096525 0.146494 -0.096524
v 0.090409 0.112352 -0.090409
v 0.080939 0.080886 -0.080939
v 0.068515 0.053307 -0.068515
v 0.053627 0.030673 -0.053627
v 0.036834 0.013854 -0.036834
v 0.018745 0.003497 -0.018745
v 0.019942 0.360503 -0.011513
v 0.039539 0.350146 -0.022828
v 0.058398 0.333327 -0.033716
v 0.076033 0.310693 -0.043897
v 0.091849 0.283114 -0.053029
v 0.105156 0.251648 -0.060712
v 0.115202 0.217506 -0.066512
v 0.121244 0.182000 -0.070000
v 0.118218 0.146494 -0.068253
v 0.110728 0.112352 -0.063929
v 0.099130 0.080886 -0.057233
v 0.083913 0.053307 -0.048447
v 0.065679 0.030673 -0.037920
v 0.045112 0.013854 -0.026045
v 0.022958 0.003497 -0.013254
v 0.022242 0.360503 -0.005960
v 0.044100 0.350146 -0.011817
v 0.065135 0.333327 -0.017453
v 0.084803 0.310693 -0.022723
v 0.102444 0.283114 -0.027450
v 0.117286 0.251648 -0.031427
v 0.128491 0.217506 -0.034429
v 0.135230 0.182000 -0.036235
v 0.131855 0.146494 -0.035330
v 0.123502 0.112352 -0.033092
v 0.110565 0.080886 -0.029626
v 0.093593 0.053307 -0.025078
v 0.073256 0.030673 -0.019629
v 0.050316 0.013854 -0.013482
v 0.025606 0.003497 -0.006861
v 0.023027 0.360503 0.000000
v 0.045656 0.350146 0.000000
v 0.067432 0.333327 0.000000
v 0.087795 0.310693 0.000000
v 0.106058 0.283114 0.000000
v 0.121424 0.251648 0.000000
v 0.133024 0.217506 0.000000
v 0.140000 0.182000 0.000000
v 0.136506 0.146494 0.000000
v 0.127858 0.112352 0.000000
v 0.114466 0.080886 0.000000
v 0.096895 0.053307 0.000000
v 0.075840 0.030673 0.000000
v 0.052091 0.013854 0.000000
v 0.026509 0.003497 0.000000
v 0.022242 0.360503 0.005960
v 0.044100 0.350146 0.011817
v 0.065135 0.333327 0.017453
v 0.084803 0.310693 0.022723
v 0.102444 0.283114 0.027450
v 0.117286 0.251648 0.031427
v 0.128491 0.217506 0.034429
v 0.135230 0.182000 0.036235
v 0.131855 0.146494 0.035330
v 0.123502 0.112352 0.033092
v 0.110565 0.080886 0.029626
v 0.093593 0.053307 0.025078
v 0.073256 0.030673 0.019629
v 0.050316 0.013854 0.013482
v 0.025606 0.003497 0.006861
v 0.019942 0.360503 0.011513
v 0.039539 0.350146 0.022828
v 0.058398 0.333327 0.033716
v 0.076033 0.310693 0.043897
v 0.091849 0.283114 0.053029
v 0.105156 0.251648 0.060712
v 0.115202 0.217506 0.066512
v 0.121243 0.182000 0.070000
v 0.118218 0.146494 0.068253
v 0.110728 0.112352 0.063929
v 0.099130 0.080886 0.057233
v 0.083913 0.053307 0.048447
v 0.065679 0.030673 0.037920
v 0.045112 0.013854 0.026045
v 0.022957 0.003497 0.013255
v 0.016282 0.360503 0.016282
v 0.032284 0.350146 0.032284
v 0.047682 0.333327 0.047682
v 0.062080 0.310693 0.062080
v 0.074995 0.283114 0.074995
v 0.085859 0.251648 0.085859
v 0.094062 0.217506 0.094062
v 0.098995 0.182000 0.098995
v 0.096525 0.146494 0.096525
v 0.090409 0.112352 0.090409
v 0.080939 0.080886 0.080939
v 0.068515 0.053307 0.068515
v 0.053627 0.030673 0.053627
v 0.036834 0.013854 0.036834
v 0.018745 0.003497 0.018745
v 0.011513 0.360503 0.019942
v 0.022828 0.350146 0.039539
v 0.033716 0.333327 0.058398
v 0.043897 0.310693 0.076033
v 0.053029 0.283114 0.091849
v 0.060712 0.251648 0.105156
v 0.066512 0.217506 0.115202
v 0.070000 0.182000 0.121244
v 0.068253 0.146494 0.118218
v 0.063929 0.112352 0.110728
v 0.057233 0.080886 0.099130
v 0.048447 0.053307 0.083913
v 0.037920 0.030673 0.065679
v 0.026045 0.013854 0.045112
v 0.013255 0.003497 0.022957
v 0.005960 0.360503 0.022242
v 0.011817 0.350146 0.044100
v 0.017453 0.333327 0.065135
v 0.022723 0.310693 0.084803
v 0.027450 0.283114 0.102444
v 0.031427 0.251648 0.117286
v 0.034429 0.217506 0.128491
v 0.036235 0.182000 0.135230
v 0.035330 0.146494 0.131855
v 0.033092 0.112352 0.123502
v 0.029626 0.080886 0.110565
v 0.025078 0.053307 0.093593
v 0.019629 0.030673 0.073256
v 0.013482 0.013854 0.050316
v 0.006861 0.003497 0.025606
v 0.000000 0.360503 0.023027
v 0.000000 0.350146 0.045656
v 0.000000 0.333327 0.067432
v 0.000000 0.310693 0.087795
v 0.000000 0.217506 0.133024
v -0.000000 0.182000 0.140000
v 0.000000 0.146494 0.136506
v -0.000000 0.112352 0.127858
v 0.000000 0.053307 0.096895
v 0.000000 0.030673 0.075840
v 0.000000 0.013854 0.052091
v 0.000000 0.003497 0.026509
vn -0.1299 -0.0971 0.9868
vn -0.0547 0.9079 0.4155
vn -0.1266 -0.2436 0.9616
vn -0.0802 0.7889 0.6093
vn -0.1203 -0.3888 0.9134
vn -0.0974 0.6656 0.7399
vn -0.1104 -0.5340 0.8382
vn -0.1091 0.5488 0.8288
vn -0.0959 -0.6780 0.7288
vn -0.1175 0.4358 0.8924
vn -0.0759 -0.8137 0.5763
vn -0.1237 0.3192 0.9396
vn -0.0493 -0.9258 0.3748
vn -0.1281 0.1912 0.9732
vn -0.0198 0.9885 0.1501
vn -0.0172 -0.9913 0.1308
vn -0.1447 -0.9258 0.3493
vn -0.3756 0.1912 0.9068
vn -0.0580 0.9885 0.1399
vn -0.0505 -0.9913 0.1219
vn -0.3809 -0.0971 0.9195
vn -0.1604 0.9079 0.3872
vn -0.3712 -0.2436 0.8961
vn -0.2352 0.7889 0.5678
vn -0.3526 -0.3888 0.8512
vn -0.2856 0.6656 0.6895
vn -0.3235 -0.5340 0.7811
vn -0.3199 0.5488 0.7723
vn -0.2813 -0.6780 0.6791
vn -0.3444 0.4358 0.8315
vn -0.2224 -0.8137 0.5370
vn -0.3627 0.3192 0.8755
vn -0.5147 -0.5340 0.6708
vn -0.5089 0.5488 0.6632
vn -0.4475 -0.6780 0.5832
vn -0.5479 0.4358 0.7141
vn -0.3538 -0.8137 0.4611
vn -0.5769 0.3192 0.7518
vn -0.2301 -0.9258 0.2999
vn -0.5975 0.1912 0.7787
vn -0.0922 0.9885 0.1201
vn -0.0803 -0.9913 0.1046
vn -0.6059 -0.0971 0.7896
vn -0.2551 0.9079 0.3325
vn -0.5904 -0.2436 0.7695
vn -0.3741 0.7889 0.4875
vn -0.5609 -0.3888 0.7309
vn -0.4543 0.6656 0.5921
vn -0.1201 0.9885 0.0922
vn -0.1046 -0.9913 0.0803
vn -0.7896 -0.0971 0.6059
vn -0.3325 0.9079 0.2551
vn -0.7695 -0.2436 0.5904
vn -0.4875 0.7889 0.3741
vn -0.7309 -0.3888 0.5609
vn -0.5921 0.6656 0.4543
vn -0.6708 -0.5340 0.5147
vn -0.6632 0.5488 0.5089
vn -0.5832 -0.6780 0.4475
vn -0.7141 0.4358 0.5479
vn -0.4611 -0.8137 0.3538
vn -0.7518 0.3192 0.5769
vn -0.2999 -0.9258 0.2301
vn -0.7787 0.1912 0.5975
vn -0.7723 0.5488 0.3199
vn -0.6791 -0.6780 0.2813
vn -0.8315 0.4358 0.3444
vn -0.5370 -0.8137 0.2224
vn -0.8755 0.3192 0.3627
vn -0.3493 -0.9258 0.1447
vn -0.9068 0.1912 0.3756
vn -0.1399 0.9885 0.0579
vn -0.1219 -0.9913 0.0505
vn -0.9195 -0.0971 0.3809
vn -0.3872 0.9079 0.1604
vn -0.8961 -0.2436 0.3712
vn -0.5678 0.7889 0.2352
vn -0.8512 -0.3888 0.3526
vn -0.6895 0.6656 0.2856
vn -0.7811 -0.5340 0.3235
vn -0.9868 -0.0971 0.1299
vn -0.4155 0.9079 0.0547
vn -0.9616 -0.2436 0.1266
vn -0.6093 0.7889 0.0802
vn -0.9134 -0.3888 0.1203
vn -0.7399 0.6656 0.0974
vn -0.8382 -0.5340 0.1104
vn -0.8288 0.5488 0.1091
vn -0.7288 -0.6780 0.0959
vn -0.8924 0.4358 0.1175
vn -0.5763 -0.8137 0.0759
vn -0.9396 0.3192 0.1237
vn -0.3748 -0.9258 0.0493
vn -0.9732 0.1912 0.1281
vn -0.1501 0.9885 0.0198
vn -0.1308 -0.9913 0.0172
vn -0.7288 -0.6780 -0.0959
vn -0.8924 0.4358 -0.1175
vn -0.5763 -0.8137 -0.0759
vn -0.9396 0.3192 -0.1237
vn -0.3748 -0.9258 -0.0493
vn -0.9732 0.1912 -0.1281
vn -0.1501 0.9885 -0.0198
vn -0.1308 -0.9913 -0.0172
vn -0.9868 -0.0971 -0.1299
vn -0.4155 0.9079 -0.0547
vn -0.9616 -0.2436 -0.1266
vn -0.6093 0.7889 -0.0802
vn -0.9134 -0.3888 -0.1203
vn -0.7399 0.6656 -0.0974
vn -0.8382 -0.5340 -0.1104
vn -0.8288 0.5488 -0.1091
vn -0.3872 0.9079 -0.1604
vn -0.8961 -0.2436 -0.3712
vn -0.5678 0.7889 -0.2352
vn -0.8512 -0.3888 -0.3526
vn -0.6895 0.6656 -0.2856
vn -0.7811 -0.5340 -0.3235
vn -0.7723 0.5488 -0.3199
vn -0.6791 -0.6780 -0.2813
vn -0.8315 0.4358 -0.3444
vn -0.5370 -0.8137 -0.2224
vn -0.8755 0.3192 -0.3627
vn -0.3493 -0.9258 -0.1447
vn -0.9068 0.1912 -0.3756
vn -0.1399 0.9885 -0.0579
vn -0.1219 -0.9913 -0.0505
vn -0.9195 -0.0971 -0.3809
vn -0.7141 0.4358 -0.5479
vn -0.4611 -0.8137 -0.3538
vn -0.7518 0.3192 -0.5769
vn -0.2999 -0.9258 -0.2301
vn -0.7787 0.1912 -0.5975
vn -0.1201 0.9885 -0.0922
vn -0.1046 -0.9913 -0.0803
vn -0.7896 -0.0971 -0.6059
vn -0.3325 0.9079 -0.2551
vn -0.7695 -0.2436 -0.5904
vn -0.4875 0.7889 -0.3741
vn -0.7309 -0.3888 -0.5609
vn -0.5921 0.6656 -0.4543
vn -0.6708 -0.5340 -0.5147
vn -0.6632 0.5488 -0.5089
vn -0.5832 -0.6780 -0.4475
vn -0.5904 -0.2436 -0.7695
vn -0.3741 0.7889 -0.4875
vn -0.5609 -0.3888 -0.7309
vn -0.4543 0.6656 -0.5921
vn -0.5147 -0.5340 -0.6708
vn -0.5089 0.5488 -0.6632
vn -0.4475 -0.6780 -0.5832
vn -0.5479 0.4358 -0.7141
vn -0.3538 -0.8137 -0.4611
vn -0.5769 0.3192 -0.7518
vn -0.2301 -0.9258 -0.2999
vn -0.5975 0.1912 -0.7787
vn -0.0922 0.9885 -0.1201
vn -0.0803 -0.9913 -0.1046
vn -0.6059 -0.0971 -0.7896
vn -0.2551 0.9079 -0.3325
vn -0.2224 -0.8137 -0.5370
vn -0.3627 0.3192 -0.8755
vn -0.1447 -0.9258 -0.3493
vn -0.3756 0.1912 -0.9068
vn -0.0579 0.9885 -0.1399
vn -0.0505 -0.9913 -0.1219
vn -0.3809 -0.0971 -0.9195
vn -0.1604 0.9079 -0.3872
vn -0.3712 -0.2436 -0.8961
vn -0.2352 0.7889 -0.5678
vn -0.3526 -0.3888 -0.8512
vn -0.2856 0.6656 -0.6895
vn -0.3235 -0.5340 -0.7811
vn -0.3199 0.5488 -0.7723
vn -0.2813 -0.6780 -0.6791
vn -0.3444 0.4358 -0.8316
vn -0.1203 -0.3888 -0.9134
vn -0.0974 0.6656 -0.7399
vn -0.1104 -0.5340 -0.8382
vn -0.1091 0.5488 -0.8288
vn -0.0959 -0.6780 -0.7288
vn -0.1175 0.4358 -0.8924
vn -0.0759 -0.8137 -0.5763
vn -0.1237 0.3192 -0.9396
vn -0.0493 -0.9258 -0.3748
vn -0.1281 0.1912 -0.9732
vn -0.0198 0.9885 -0.1501
vn -0.0172 -0.9913 -0.1308
vn -0.1299 -0.0971 -0.9868
vn -0.0547 0.9079 -0.4155
vn -0.1266 -0.2436 -0.9616
vn -0.0802 0.7889 -0.6093
vn 0.0493 -0.9258 -0.3748
vn 0.1281 0.1912 -0.9732
vn 0.0198 0.9885 -0.1501
vn 0.0172 -0.9913 -0.1308
vn 0.1299 -0.0971 -0.9868
vn 0.0547 0.9079 -0.4155
vn 0.1266 -0.2436 -0.9616
vn 0.0802 0.7889 -0.6093
vn 0.1203 -0.3888 -0.9134
vn 0.0974 0.6656 -0.7399
vn 0.1104 -0.5340 -0.8382
vn 0.1091 0.5488 -0.8288
vn 0.0959 -0.6780 -0.7288
vn 0.1175 0.4358 -0.8924
vn 0.0759 -0.8137 -0.5763
vn 0.1237 0.3192 -0.9396
vn 0.2856 0.6656 -0.6895
vn 0.3235 -0.5340 -0.7811
vn 0.3199 0.5488 -0.7723
vn 0.2813 -0.6780 -0.6791
vn 0.3444 0.4358 -0.8315
vn 0.2224 -0.8137 -0.5370
vn 0.3627 0.3192 -0.8755
vn 0.1447 -0.9258 -0.3493
vn 0.3756 0.1912 -0.9068
vn 0.0579 0.9885 -0.1399
vn 0.0505 -0.9913 -0.1219
vn 0.3809 -0.0971 -0.9195
vn 0.1604 0.9079 -0.3872
vn 0.3712 -0.2436 -0.8961
vn 0.2352 0.7889 -0.5678
vn 0.3526 -0.3888 -0.8512
vn 0.5975 0.1912 -0.7787
vn 0.0922 0.9885 -0.1201
vn 0.0803 -0.9913 -0.1046
vn 0.6059 -0.0971 -0.7896
vn 0.2551 0.9079 -0.3325
vn 0.5904 -0.2436 -0.7695
vn 0.3741 0.7889 -0.4875
vn 0.5609 -0.3888 -0.7309
vn 0.4543 0.6656 -0.5921
vn 0.5147 -0.5340 -0.6708
vn 0.5089 0.5488 -0.6632
vn 0.4475 -0.6780 -0.5832
vn 0.5479 0.4358 -0.7141
vn 0.3538 -0.8137 -0.4611
vn 0.5769 0.3192 -0.7518
vn 0.2301 -0.9258 -0.2999
vn 0.6708 -0.5340 -0.5147
vn 0.6632 0.5488 -0.5089
vn 0.5832 -0.6780 -0.4475
vn 0.7141 0.4358 -0.5479
vn 0.4611 -0.8137 -0.3538
vn 0.7518 0.3192 -0.5769
vn 0.2999 -0.9258 -0.2301
vn 0.7787 0.1912 -0.5975
vn 0.1201 0.9885 -0.0922
vn 0.1046 -0.9913 -0.0803
vn 0.7896 -0.0971 -0.6059
vn 0.3325 0.9079 -0.2551
vn 0.7695 -0.2436 -0.5904
vn 0.4875 0.7889 -0.3741
vn 0.7309 -0.3888 -0.5609
vn 0.5921 0.6656 -0.4543
vn 0.1399 0.9885 -0.0579
vn 0.1219 -0.9913 -0.0505
vn 0.9195 -0.0971 -0.3809
vn 0.3872 0.9079 -0.1604
vn 0.8961 -0.2436 -0.3712
vn 0.5678 0.7889 -0.2352
vn 0.8512 -0.3888 -0.3526
vn 0.6895 0.6656 -0.2856
vn 0.7811 -0.5340 -0.3235
vn 0.7723 0.5488 -0.3199
vn 0.6791 -0.6780 -0.2813
vn 0.8315 0.4358 -0.3444
vn 0.5370 -0.8137 -0.2224
vn 0.8755 0.3192 -0.3627
vn 0.3493 -0.9258 -0.1447
vn 0.9068 0.1912 -0.3756
vn 0.8288 0.5488 -0.1091
vn 0.7288 -0.6780 -0.0959
vn 0.8924 0.4358 -0.1175
vn 0.5763 -0.8137 -0.0759
vn 0.9396 0.3192 -0.1237
vn 0.3748 -0.9258 -0.0493
vn 0.9732 0.1912 -0.1281
vn 0.1501 0.9885 -0.0198
vn 0.1308 -0.9913 -0.0172
vn 0.9868 -0.0971 -0.1299
vn 0.4155 0.9079 -0.0547
vn 0.9616 -0.2436 -0.1266
vn 0.6093 0.7889 -0.0802
vn 0.9134 -0.3888 -0.1203
vn 0.7399 0.6656 -0.0974
vn 0.8382 -0.5340 -0.1104
vn 0.9868 -0.0971 0.1299
vn 0.4155 0.9079 0.0547
vn 0.9616 -0.2436 0.1266
vn 0.6093 0.7889 0.0802
vn 0.9134 -0.3888 0.1203
vn 0.7399 0.6656 0.0974
vn 0.8382 -0.5340 0.1104
vn 0.8288 0.5488 0.1091
vn 0.7288 -0.6780 0.0959
vn 0.8924 0.4358 0.1175
vn 0.5763 -0.8137 0.0759
vn 0.9396 0.3192 0.1237
vn 0.3748 -0.9258 0.0493
vn 0.9732 0.1912 0.1281
vn 0.1501 0.9885 0.0198
vn 0.1308 -0.9913 0.0172
vn 0.6791 -0.6780 0.2813
vn 0.8315 0.4358 0.3444
vn 0.5370 -0.8137 0.2224
vn 0.8755 0.3192 0.3627
vn 0.3493 -0.9258 0.1447
vn 0.9068 0.1912 0.3756
vn 0.1399 0.9885 0.0579
vn 0.1219 -0.9913 0.0505
vn 0.9195 -0.0971 0.3809
vn 0.3872 0.9079 0.1604
vn 0.8961 -0.2436 0.3712
vn 0.5678 0.7889 0.2352
vn 0.8512 -0.3888 0.3526
vn 0.6895 0.6656 0.2856
vn 0.7811 -0.5340 0.3235
vn 0.7723 0.5488 0.3199
vn 0.7695 -0.2436 0.5904
vn 0.4875 0.7889 0.3741
vn 0.7309 -0.3888 0.5609
vn 0.5921 0.6656 0.4543
vn 0.6708 -0.5340 0.5147
vn 0.6632 0.5488 0.5089
vn 0.5832 -0.6780 0.4475
vn 0.7141 0.4358 0.5479
vn 0.4611 -0.8137 0.3538
vn 0.7518 0.3192 0.5769
vn 0.2999 -0.9258 0.2301
vn 0.7787 0.1912 0.5975
vn 0.1201 0.9885 0.0922
vn 0.1046 -0.9913 0.0803
vn 0.7896 -0.0971 0.6059
vn 0.3325 0.9079 0.2551
vn 0.3538 -0.8137 0.4611
vn 0.5769 0.3192 0.7518
vn 0.2301 -0.9258 0.2999
vn 0.5975 0.1912 0.7787
vn 0.0922 0.9885 0.1201
vn 0.0803 -0.9913 0.1046
vn 0.6059 -0.0971 0.7896
vn 0.2551 0.9079 0.3325
vn 0.5904 -0.2436 0.7695
vn 0.3741 0.7889 0.4875
vn 0.5609 -0.3888 0.7309
vn 0.4543 0.6656 0.5921
vn 0.5147 -0.5340 0.6708
vn 0.5089 0.5488 0.6632
vn 0.4475 -0.6780 0.5832
vn 0.5479 0.4358 0.7141
vn 0.2352 0.7889 0.5678
vn 0.3526 -0.3888 0.8512
vn 0.2856 0.6656 0.6895
vn 0.3235 -0.5340 0.7811
vn 0.3199 0.5488 0.7723
vn 0.2813 -0.6780 0.6791
vn 0.3444 0.4358 0.8316
vn 0.2224 -0.8137 0.5370
vn 0.3627 0.3192 0.8755
vn 0.1447 -0.9258 0.3493
vn 0.3756 0.1912 0.9068
vn 0.0579 0.9885 0.1399
vn 0.0505 -0.9913 0.1219
vn 0.3809 -0.0971 0.9195
vn 0.1604 0.9079 0.3872
vn 0.3712 -0.2436 0.8961
vn 0.1237 0.3192 0.9396
vn 0.0493 -0.9258 0.3748
vn 0.1281 0.1912 0.9732
vn 0.0198 0.9885 0.1501
vn 0.0172 -0.9913 0.1308
vn 0.1299 -0.0971 0.9868
vn 0.0547 0.9079 0.4155
vn 0.1266 -0.2436 0.9616
vn 0.0802 0.7889 0.6093
vn 0.1203 -0.3888 0.9134
vn 0.0974 0.6656 0.7399
vn 0.1104 -0.5340 0.8382
vn 0.1091 0.5488 0.8288
vn 0.0959 -0.6780 0.7288
vn 0.1175 0.4358 0.8924
vn 0.0759 -0.8137 0.5763
s 0
usemtl EF_Egg_seashell_Shell
f 357//1 356//1 13//1 14//1
f 352//2 351//2 6//2 7//2
f 353//4 352//4 7//4 8//4
f 4//5 358//5 15//5 16//5
f 354//6 353//6 8//6 9//6
f 359//7 4//7 16//7 17//7
f 2//8 354//8 9//8 10//8
f 360//9 359//9 17//9 18//9
f 3//10 2//10 10//10 11//10
f 361//11 360//11 18//11 19//11
f 362//13 361//13 19//13 20//13
f 351//15 1//15 6//15
f 5//16 362//16 20//16
f 20//17 19//17 34//17 35//17
f 6//19 1//19 21//19
f 5//20 20//20 35//20
f 14//21 13//21 28//21 29//21
f 7//22 6//22 21//22 22//22
f 15//23 14//23 29//23 30//23
f 8//24 7//24 22//24 23//24
f 16//25 15//25 30//25 31//25
f 9//26 8//26 23//26 24//26
f 17//27 16//27 31//27 32//27
f 10//28 9//28 24//28 25//28
f 18//29 17//29 32//29 33//29
f 11//30 10//30 25//30 26//30
f 19//31 18//31 33//31 34//31
f 32//33 31//33 46//33 47//33
f 25//34 24//34 39//34 40//34
f 33//35 32//35 47//35 48//35
f 26//36 25//36 40//36 41//36
f 34//37 33//37 48//37 49//37
f 35//39 34//39 49//39 50//39
f 21//41 1//41 36//41
f 5//42 35//42 50//42
f 29//43 28//43 43//43 44//43
f 22//44 21//44 36//44 37//44
f 23//46 22//46 37//46 38//46
f 31//47 30//47 45//47 46//47
f 24//48 23//48 38//48 39//48
f 36//49 1//49 51//49
f 5//50 50//50 65//50
f 44//51 43//51 58//51 59//51
f 37//52 36//52 51//52 52//52
f 45//53 44//53 59//53 60//53
f 38//54 37//54 52//54 53//54
f 46//55 45//55 60//55 61//55
f 39//56 38//56 53//56 54//56
f 47//57 46//57 61//57 62//57
f 48//59 47//59 62//59 63//59
f 41//60 40//60 55//60 56//60
f 49//61 48//61 63//61 64//61
f 50//63 49//63 64//63 65//63
f 55//65 54//65 69//65 70//65
f 63//66 62//66 77//66 78//66
f 56//67 55//67 70//67 71//67
f 64//68 63//68 78//68 79//68
f 65//70 64//70 79//70 80//70
f 51//72 1//72 66//72
f 5//73 65//73 80//73
f 59//74 58//74 73//74 74//74
f 52//75 51//75 66//75 67//75
f 53//77 52//77 67//77 68//77
f 61//78 60//78 75//78 76//78
f 54//79 53//79 68//79 69//79
f 62//80 61//80 76//80 77//80
f 74//81 73//81 88//81 89//81
f 67//82 66//82 81//82 82//82
f 75//83 74//83 89//83 90//83
f 68//84 67//84 82//84 83//84
f 76//85 75//85 90//85 91//85
f 69//86 68//86 83//86 84//86
f 77//87 76//87 91//87 92//87
f 78//89 77//89 92//89 93//89
f 71//90 70//90 85//90 86//90
f 79//91 78//91 93//91 94//91
f 80//93 79//93 94//93 95//93
f 66//95 1//95 81//95
f 5//96 80//96 95//96
f 93//97 92//97 107//97 108//97
f 86//98 85//98 100//98 101//98
f 94//99 93//99 108//99 109//99
f 95//101 94//101 109//101 110//101
f 81//103 1//103 96//103
f 5//104 95//104 110//104
f 89//105 88//105 103//105 104//105
f 82//106 81//106 96//106 97//106
f 83//108 82//108 97//108 98//108
f 91//109 90//109 105//109 106//109
f 84//110 83//110 98//110 99//110
f 92//111 91//111 106//111 107//111
f 85//112 84//112 99//112 100//112
f 97//113 96//113 111//113 112//113
f 105//114 104//114 119//114 120//114
f 98//115 97//115 112//115 113//115
f 106//116 105//116 120//116 121//116
f 99//117 98//117 113//117 114//117
f 107//118 106//118 121//118 122//118
f 100//119 99//119 114//119 115//119
f 108//120 107//120 122//120 123//120
f 101//121 100//121 115//121 116//121
f 109//122 108//122 123//122 124//122
f 110//124 109//124 124//124 125//124
f 96//126 1//126 111//126
f 5//127 110//127 125//127
f 104//128 103//128 118//128 119//128
f 116//129 115//129 130//129 131//129
f 124//130 123//130 138//130 139//130
f 125//132 124//132 139//132 140//132
f 111//134 1//134 126//134
f 5//135 125//135 140//135
f 119//136 118//136 133//136 134//136
f 112//137 111//137 126//137 127//137
f 113//139 112//139 127//139 128//139
f 121//140 120//140 135//140 136//140
f 114//141 113//141 128//141 129//141
f 122//142 121//142 136//142 137//142
f 123//144 122//144 137//144 138//144
f 128//146 127//146 142//146 143//146
f 136//147 135//147 150//147 151//147
f 129//148 128//148 143//148 144//148
f 137//149 136//149 151//149 152//149
f 130//150 129//150 144//150 145//150
f 138//151 137//151 152//151 153//151
f 131//152 130//152 145//152 146//152
f 139//153 138//153 153//153 154//153
f 140//155 139//155 154//155 155//155
f 126//157 1//157 141//157
f 5//158 140//158 155//158
f 134//159 133//159 148//159 149//159
f 127//160 126//160 141//160 142//160
f 154//161 153//161 168//161 169//161
f 155//163 154//163 169//163 170//163
f 141//165 1//165 156//165
f 5//166 155//166 170//166
f 149//167 148//167 163//167 164//167
f 142//168 141//168 156//168 157//168
f 150//169 149//169 164//169 165//169
f 143//170 142//170 157//170 158//170
f 151//171 150//171 165//171 166//171
f 144//172 143//172 158//172 159//172
f 152//173 151//173 166//173 167//173
f 145//174 144//174 159//174 160//174
f 153//175 152//175 167//175 168//175
f 146//176 145//176 160//176 161//176
f 166//177 165//177 180//177 181//177
f 159//178 158//178 173//178 174//178
f 167//179 166//179 181//179 182//179
f 168//181 167//181 182//181 183//181
f 161//182 160//182 175//182 176//182
f 169//183 168//183 183//183 184//183
f 170//185 169//185 184//185 185//185
f 156//187 1//187 171//187
f 5//188 170//188 185//188
f 164//189 163//189 178//189 179//189
f 157//190 156//190 171//190 172//190
f 158//192 157//192 172//192 173//192
f 185//193 184//193 199//193 200//193
f 171//195 1//195 186//195
f 5//196 185//196 200//196
f 179//197 178//197 193//197 194//197
f 172//198 171//198 186//198 187//198
f 180//199 179//199 194//199 195//199
f 173//200 172//200 187//200 188//200
f 181//201 180//201 195//201 196//201
f 174//202 173//202 188//202 189//202
f 182//203 181//203 196//203 197//203
f 175//204 174//204 189//204 190//204
f 183//205 182//205 197//205 198//205
f 176//206 175//206 190//206 191//206
f 184//207 183//207 198//207 199//207
f 189//209 188//209 203//209 204//209
f 197//210 196//210 211//210 212//210
f 190//211 189//211 204//211 205//211
f 198//212 197//212 212//212 213//212
f 191//213 190//213 205//213 206//213
f 199//214 198//214 213//214 214//214
f 200//216 199//216 214//216 215//216
f 186//218 1//218 201//218
f 5//219 200//219 215//219
f 194//220 193//220 208//220 209//220
f 187//221 186//221 201//221 202//221
f 188//223 187//223 202//223 203//223
f 196//224 195//224 210//224 211//224
f 201//226 1//226 216//226
f 5//227 215//227 230//227
f 209//228 208//228 223//228 224//228
f 202//229 201//229 216//229 217//229
f 203//231 202//231 217//231 218//231
f 211//232 210//232 225//232 226//232
f 204//233 203//233 218//233 219//233
f 212//234 211//234 226//234 227//234
f 213//236 212//236 227//236 228//236
f 206//237 205//237 220//237 221//237
f 214//238 213//238 228//238 229//238
f 215//240 214//240 229//240 230//240
f 227//241 226//241 241//241 242//241
f 220//242 219//242 234//242 235//242
f 228//243 227//243 242//243 243//243
f 221//244 220//244 235//244 236//244
f 229//245 228//245 243//245 244//245
f 230//247 229//247 244//247 245//247
f 216//249 1//249 231//249
f 5//250 230//250 245//250
f 224//251 223//251 238//251 239//251
f 217//252 216//252 231//252 232//252
f 218//254 217//254 232//254 233//254
f 226//255 225//255 240//255 241//255
f 219//256 218//256 233//256 234//256
f 231//257 1//257 246//257
f 5//258 245//258 260//258
f 239//259 238//259 253//259 254//259
f 232//260 231//260 246//260 247//260
f 233//262 232//262 247//262 248//262
f 241//263 240//263 255//263 256//263
f 234//264 233//264 248//264 249//264
f 242//265 241//265 256//265 257//265
f 235//266 234//266 249//266 250//266
f 243//267 242//267 257//267 258//267
f 236//268 235//268 250//268 251//268
f 244//269 243//269 258//269 259//269
f 245//271 244//271 259//271 260//271
f 258//274 257//274 272//274 273//274
f 251//275 250//275 265//275 266//275
f 259//276 258//276 273//276 274//276
f 260//278 259//278 274//278 275//278
f 246//280 1//280 261//280
f 5//281 260//281 275//281
f 254//282 253//282 268//282 269//282
f 247//283 246//283 261//283 262//283
f 255//284 254//284 269//284 270//284
f 248//285 247//285 262//285 263//285
f 256//286 255//286 270//286 271//286
f 249//287 248//287 263//287 264//287
f 257//288 256//288 271//288 272//288
f 269//289 268//289 283//289 284//289
f 262//290 261//290 276//290 277//290
f 263//292 262//292 277//292 278//292
f 271//293 270//293 285//293 286//293
f 264//294 263//294 278//294 279//294
f 272//295 271//295 286//295 287//295
f 265//296 264//296 279//296 280//296
f 273//297 272//297 287//297 288//297
f 266//298 265//298 280//298 281//298
f 274//299 273//299 288//299 289//299
f 275//301 274//301 289//301 290//301
f 261//303 1//303 276//303
f 5//304 275//304 290//304
f 288//305 287//305 302//305 303//305
f 281//306 280//306 295//306 296//306
f 289//307 288//307 303//307 304//307
f 290//309 289//309 304//309 305//309
f 276//311 1//311 291//311
f 5//312 290//312 305//312
f 284//313 283//313 298//313 299//313
f 277//314 276//314 291//314 292//314
f 285//315 284//315 299//315 300//315
f 278//316 277//316 292//316 293//316
f 286//317 285//317 300//317 301//317
f 279//318 278//318 293//318 294//318
f 287//319 286//319 301//319 302//319
f 280//320 279//320 294//320 295//320
f 293//322 292//322 307//322 308//322
f 301//323 300//323 315//323 316//323
f 294//324 293//324 308//324 309//324
f 302//325 301//325 316//325 317//325
f 303//327 302//327 317//327 318//327
f 296//328 295//328 310//328 311//328
f 304//329 303//329 318//329 319//329
f 305//331 304//331 319//331 320//331
f 291//333 1//333 306//333
f 5//334 305//334 320//334
f 299//335 298//335 313//335 314//335
f 292//336 291//336 306//336 307//336
f 319//337 318//337 333//337 334//337
f 320//339 319//339 334//339 335//339
f 306//341 1//341 321//341
f 5//342 320//342 335//342
f 314//343 313//343 328//343 329//343
f 307//344 306//344 321//344 322//344
f 315//345 314//345 329//345 330//345
f 308//346 307//346 322//346 323//346
f 316//347 315//347 330//347 331//347
f 309//348 308//348 323//348 324//348
f 317//349 316//349 331//349 332//349
f 310//350 309//350 324//350 325//350
f 318//351 317//351 332//351 333//351
f 311//352 310//352 325//352 326//352
f 323//353 322//353 337//353 338//353
f 331//354 330//354 345//354 346//354
f 324//355 323//355 338//355 339//355
f 332//356 331//356 346//356 347//356
f 325//357 324//357 339//357 340//357
f 333//358 332//358 347//358 348//358
f 326//359 325//359 340//359 341//359
f 334//360 333//360 348//360 349//360
f 335//362 334//362 349//362 350//362
f 321//364 1//364 336//364
f 5//365 335//365 350//365
f 329//366 328//366 343//366 344//366
f 322//367 321//367 336//367 337//367
f 350//370 349//370 361//370 362//370
f 336//372 1//372 351//372
f 5//373 350//373 362//373
f 344//374 343//374 356//374 357//374
f 337//375 336//375 351//375 352//375
f 345//376 344//376 357//376 358//376
f 338//377 337//377 352//377 353//377
f 346//378 345//378 358//378 4//378
f 339//379 338//379 353//379 354//379
f 347//380 346//380 4//380 359//380
f 348//382 347//382 359//382 360//382
f 341//383 340//383 2//383 3//383
f 349//384 348//384 360//384 361//384
usemtl EF_Egg_seashell_Spots
f 358//3 357//3 14//3 15//3
f 355//12 3//12 11//12 12//12
f 356//14 355//14 12//14 13//14
f 13//18 12//18 27//18 28//18
f 12//32 11//32 26//32 27//32
f 27//38 26//38 41//38 42//38
f 28//40 27//40 42//40 43//40
f 30//45 29//45 44//45 45//45
f 40//58 39//58 54//58 55//58
f 42//62 41//62 56//62 57//62
f 43//64 42//64 57//64 58//64
f 57//69 56//69 71//69 72//69
f 58//71 57//71 72//71 73//71
f 60//76 59//76 74//76 75//76
f 70//88 69//88 84//88 85//88
f 72//92 71//92 86//92 87//92
f 73//94 72//94 87//94 88//94
f 87//100 86//100 101//100 102//100
f 88//102 87//102 102//102 103//102
f 90//107 89//107 104//107 105//107
f 102//123 101//123 116//123 117//123
f 103//125 102//125 117//125 118//125
f 117//131 116//131 131//131 132//131
f 118//133 117//133 132//133 133//133
f 120//138 119//138 134//138 135//138
f 115//143 114//143 129//143 130//143
f 135//145 134//145 149//145 150//145
f 132//154 131//154 146//154 147//154
f 133//156 132//156 147//156 148//156
f 147//162 146//162 161//162 162//162
f 148//164 147//164 162//164 163//164
f 160//180 159//180 174//180 175//180
f 162//184 161//184 176//184 177//184
f 163//186 162//186 177//186 178//186
f 165//191 164//191 179//191 180//191
f 178//194 177//194 192//194 193//194
f 177//208 176//208 191//208 192//208
f 192//215 191//215 206//215 207//215
f 193//217 192//217 207//217 208//217
f 195//222 194//222 209//222 210//222
f 208//225 207//225 222//225 223//225
f 210//230 209//230 224//230 225//230
f 205//235 204//235 219//235 220//235
f 207//239 206//239 221//239 222//239
f 222//246 221//246 236//246 237//246
f 223//248 222//248 237//248 238//248
f 225//253 224//253 239//253 240//253
f 240//261 239//261 254//261 255//261
f 237//270 236//270 251//270 252//270
f 238//272 237//272 252//272 253//272
f 250//273 249//273 264//273 265//273
f 252//277 251//277 266//277 267//277
f 253//279 252//279 267//279 268//279
f 270//291 269//291 284//291 285//291
f 267//300 266//300 281//300 282//300
f 268//302 267//302 282//302 283//302
f 282//308 281//308 296//308 297//308
f 283//310 282//310 297//310 298//310
f 300//321 299//321 314//321 315//321
f 295//326 294//326 309//326 310//326
f 297//330 296//330 311//330 312//330
f 298//332 297//332 312//332 313//332
f 312//338 311//338 326//338 327//338
f 313//340 312//340 327//340 328//340
f 327//361 326//361 341//361 342//361
f 328//363 327//363 342//363 343//363
f 330//368 329//368 344//368 345//368
f 342//369 341//369 3//369 355//369
f 343//371 342//371 355//371 356//371
f 340//381 339//381 354//381 2//381
