# Blender 5.0.1
# www.blender.org
mtllib Egg_frost.mtl
o Egg_frost
v 0.000000 0.364000 0.000000
v 0.000000 0.283114 0.106058
v 0.000000 0.251648 0.121424
v 0.000000 0.080886 0.114466
v 0.000000 0.000000 0.000000
v -0.005960 0.360503 0.022242
v -0.011817 0.350146 0.044100
v -0.017453 0.333327 0.065135
v -0.022723 0.310693 0.084803
v -0.027450 0.283114 0.102444
v -0.031427 0.251648 0.117286
v -0.034429 0.217506 0.128491
v -0.036235 0.182000 0.135230
v -0.035330 0.146494 0.131855
v -0.033092 0.112352 0.123502
v -0.029626 0.080886 0.110565
v -0.025078 0.053307 0.093593
v -0.019629 0.030673 0.073256
v -0.013482 0.013854 0.050316
v -0.006861 0.003497 0.025606
v -0.011513 0.360503 0.019942
v -0.022828 0.350146 0.039539
v -0.033716 0.333327 0.058398
v -0.043897 0.310693 0.076033
v -0.053029 0.283114 0.091849
v -0.060712 0.251648 0.105156
v -0.066512 0.217506 0.115202
v -0.070000 0.182000 0.121244
v -0.068253 0.146494 0.118218
v -0.063929 0.112352 0.110728
v -0.057233 0.080886 0.099130
v -0.048447 0.053307 0.083913
v -0.037920 0.030673 0.065679
v -0.026045 0.013854 0.045112
v -0.013254 0.003497 0.022957
v -0.016282 0.360503 0.016282
v -0.032284 0.350146 0.032284
v -0.047682 0.333327 0.047682
v -0.062080 0.310693 0.062080
v -0.074995 0.283114 0.074995
v -0.085859 0.251648 0.085859
v -0.094062 0.217506 0.094062
v -0.098995 0.182000 0.098995
v -0.096525 0.146494 0.096525
v -0.090409 0.112352 0.090409
v -0.080939 0.080886 0.080939
v -0.068515 0.053307 0.068515
v -0.053627 0.030673 0.053627
v -0.036834 0.013854 0.036834
v -0.018745 0.003497 0.018745
v -0.019942 0.360503 0.011513
v -0.039539 0.350146 0.022828
v -0.058398 0.333327 0.033716
v -0.076033 0.310693 0.043897
v -0.091849 0.283114 0.053029
v -0.105156 0.251648 0.060712
v -0.115202 0.217506 0.066512
v -0.121244 0.182000 0.070000
v -0.118218 0.146494 0.068253
v -0.110728 0.112352 0.063929
v -0.099130 0.080886 0.057233
v -0.083913 0.053307 0.048447
v -0.065679 0.030673 0.037920
v -0.045112 0.013854 0.026045
v -0.022957 0.003497 0.013255
v -0.022242 0.360503 0.005960
v -0.044100 0.350146 0.011817
v -0.065135 0.333327 0.017453
v -0.084803 0.310693 0.022723
v -0.102444 0.283114 0.027450
v -0.117286 0.251648 0.031427
v -0.128491 0.217506 0.034429
v -0.135230 0.182000 0.036235
v -0.131855 0.146494 0.035330
v -0.123502 0.112352 0.033092
v -0.110565 0.080886 0.029626
v -0.093593 0.053307 0.025078
v -0.073255 0.030673 0.019629
v -0.050316 0.013854 0.013482
v -0.025606 0.003497 0.006861
v -0.023027 0.360503 0.000000
v -0.045656 0.350146 0.000000
v -0.067432 0.333327 0.000000
v -0.087795 0.310693 0.000000
v -0.106058 0.283114 0.000000
v -0.121423 0.251648 0.000000
v -0.133024 0.217506 0.000000
v -0.140000 0.182000 0.000000
v -0.136506 0.146494 0.000000
v -0.127858 0.112352 0.000000
v -0.114466 0.080886 0.000000
v -0.096895 0.053307 0.000000
v -0.075840 0.030673 0.000000
v -0.052091 0.013854 0.000000
v -0.026509 0.003497 0.000000
v -0.022242 0.360503 -0.005960
v -0.044100 0.350146 -0.011817
v -0.065135 0.333327 -0.017453
v -0.084803 0.310693 -0.022723
v -0.102444 0.283114 -0.027450
v -0.117286 0.251648 -0.031427
v -0.128491 0.217506 -0.034429
v -0.135230 0.182000 -0.036235
v -0.131855 0.146494 -0.035330
v -0.123502 0.112352 -0.033092
v -0.110565 0.080886 -0.029626
v -0.093593 0.053307 -0.025078
v -0.073255 0.030673 -0.019629
v -0.050316 0.013854 -0.013482
v -0.025606 0.003497 -0.006861
v -0.019942 0.360503 -0.011513
v -0.039539 0.350146 -0.022828
v -0.058398 0.333327 -0.033716
v -0.076033 0.310693 -0.043897
v -0.091849 0.283114 -0.053029
v -0.105156 0.251648 -0.060712
v -0.115202 0.217506 -0.066512
v -0.121243 0.182000 -0.070000
v -0.118218 0.146494 -0.068253
v -0.110728 0.112352 -0.063929
v -0.099130 0.080886 -0.057233
v -0.083913 0.053307 -0.048447
v -0.065679 0.030673 -0.037920
v -0.045112 0.013854 -0.026045
v -0.022957 0.003497 -0.013254
v -0.016282 0.360503 -0.016282
v -0.032284 0.350146 -0.032284
v -0.047682 0.333327 -0.047682
v -0.062080 0.310693 -0.062080
v -0.074994 0.283114 -0.074995
v -0.085859 0.251648 -0.085859
v -0.094062 0.217506 -0.094062
v -0.098995 0.182000 -0.098995
v -0.096524 0.146494 -0.096524
v -0.090409 0.112352 -0.090409
v -0.080939 0.080886 -0.080939
v -0.068515 0.053307 -0.068515
v -0.053627 0.030673 -0.053627
v -0.036834 0.013854 -0.036834
v -0.018745 0.003497 -0.018745
v -0.011513 0.360503 -0.019942
v -0.022828 0.350146 -0.039539
v -0.033716 0.333327 -0.058398
v -0.043897 0.310693 -0.076033
v -0.053029 0.283114 -0.091849
v -0.060712 0.251648 -0.105156
v -0.066512 0.217506 -0.115202
v -0.070000 0.182000 -0.121244
v -0.068253 0.146494 -0.118218
v -0.063929 0.112352 -0.110728
v -0.057233 0.080886 -0.099130
v -0.048447 0.053307 -0.083913
v -0.037920 0.030673 -0.065679
v -0.026045 0.013854 -0.045112
v -0.013254 0.003497 -0.022957
v -0.005960 0.360503 -0.022242
v -0.011817 0.350146 -0.044100
v -0.017453 0.333327 -0.065135
v -0.022723 0.310693 -0.084803
v -0.027450 0.283114 -0.102444
v -0.031427 0.251648 -0.117286
v -0.034429 0.217506 -0.128491
v -0.036235 0.182000 -0.135230
v -0.035330 0.146494 -0.131855
v -0.033092 0.112352 -0.123501
v -0.029626 0.080886 -0.110565
v -0.025078 0.053307 -0.093593
v -0.019629 0.030673 -0.073255
v -0.013482 0.013854 -0.050316
v -0.006861 0.003497 -0.025606
v 0.000000 0.360503 -0.023027
v 0.000000 0.350146 -0.045656
v 0.000000 0.333327 -0.067432
v 0.000000 0.310693 -0.087795
v 0.000000 0.283114 -0.106058
v 0.000000 0.251648 -0.121423
v 0.000000 0.217506 -0.133024
v 0.000000 0.182000 -0.140000
v 0.000000 0.146494 -0.136506
v 0.000000 0.112352 -0.127858
v 0.000000 0.080886 -0.114466
v 0.000000 0.053307 -0.096895
v 0.000000 0.030673 -0.075840
v 0.000000 0.013854 -0.052091
v 0.000000 0.003497 -0.026509
v 0.005960 0.360503 -0.022242
v 0.011817 0.350146 -0.044100
v 0.017453 0.333327 -0.065135
v 0.022723 0.310693 -0.084803
v 0.027450 0.283114 -0.102444
v 0.031427 0.251648 -0.117286
v 0.034429 0.217506 -0.128491
v 0.036235 0.182000 -0.135230
v 0.035330 0.146494 -0.131855
v 0.033092 0.112352 -0.123501
v 0.029626 0.080886 -0.110565
v 0.025078 0.053307 -0.093593
v 0.019629 0.030673 -0.073255
v 0.013482 0.013854 -0.050316
v 0.006861 0.003497 -0.025606
v 0.011513 0.360503 -0.019942
v 0.022828 0.350146 -0.039539
v 0.033716 0.333327 -0.058398
v 0.043897 0.310693 -0.076033
v 0.053029 0.283114 -0.091849
v 0.060712 0.251648 -0.105156
v 0.066512 0.217506 -0.115202
v 0.070000 0.182000 -0.121243
v 0.068253 0.146494 -0.118218
v 0.063929 0.112352 -0.110728
v 0.057233 0.080886 -0.099130
v 0.048447 0.053307 -0.083913
v 0.037920 0.030673 -0.065679
v 0.026045 0.013854 -0.045112
v 0.013255 0.003497 -0.022957
v 0.016282 0.360503 -0.016282
v 0.032284 0.350146 -0.032284
v 0.047682 0.333327 -0.047682
v 0.062080 0.310693 -0.062080
v 0.074995 0.283114 -0.074994
v 0.085859 0.251648 -0.085859
v 0.094062 0.217506 -0.094062
v 0.098995 0.182000 -0.098995
v 0.096525 0.146494 -0.096524
v 0.090409 0.112352 -0.090409
v 0.080939 0.080886 -0.080939
v 0.068515 0.053307 -0.068515
v 0.053627 0.030673 -0.053627
v 0.036834 0.013854 -0.036834
v 0.018745 0.003497 -0.018745
v 0.019942 0.360503 -0.011513
v 0.039539 0.350146 -0.022828
v 0.058398 0.333327 -0.033716
v 0.076033 0.310693 -0.043897
v 0.091849 0.283114 -0.053029
v 0.105156 0.251648 -0.060712
v 0.115202 0.217506 -0.066512
v 0.121244 0.182000 -0.070000
v 0.118218 0.146494 -0.068253
v 0.110728 0.112352 -0.063929
v 0.099130 0.080886 -0.057233
v 0.083913 0.053307 -0.048447
v 0.065679 0.030673 -0.037920
v 0.045112 0.013854 -0.026045
v 0.022958 0.003497 -0.013254
v 0.022242 0.360503 -0.005960
v 0.044100 0.350146 -0.011817
v 0.065135 0.333327 -0.017453
v 0.084803 0.310693 -0.022723
v 0.102444 0.283114 -0.027450
v 0.117286 0.251648 -0.031427
v 0.128491 0.217506 -0.034429
v 0.135230 0.182000 -0.036235
v 0.131855 0.146494 -0.035330
v 0.123502 0.112352 -0.033092
v 0.110565 0.080886 -0.029626
v 0.093593 0.053307 -0.025078
v 0.073256 0.030673 -0.019629
v 0.050316 0.013854 -0.013482
v 0.025606 0.003497 -0.006861
v 0.023027 0.360503 0.000000
v 0.045656 0.350146 0.000000
v 0.067432 0.333327 0.000000
v 0.087795 0.310693 0.000000
v 0.106058 0.283114 0.000000
v 0.121424 0.251648 0.000000
v 0.133024 0.217506 0.000000
v 0.140000 0.182000 0.000000
v 0.136506 0.146494 0.000000
v 0.127858 0.112352 0.000000
v 0.114466 0.080886 0.000000
v 0.096895 0.053307 0.000000
v 0.075840 0.030673 0.000000
v 0.052091 0.013854 0.000000
v 0.026509 0.003497 0.000000
v 0.022242 0.360503 0.005960
v 0.044100 0.350146 0.011817
v 0.065135 0.333327 0.017453
v 0.084803 0.310693 0.022723
v 0.102444 0.283114 0.027450
v 0.117286 0.251648 0.031427
v 0.128491 0.217506 0.034429
v 0.135230 0.182000 0.036235
v 0.131855 0.146494 0.035330
v 0.123502 0.112352 0.033092
v 0.110565 0.080886 0.029626
v 0.093593 0.053307 0.025078
v 0.073256 0.030673 0.019629
v 0.050316 0.013854 0.013482
v 0.025606 0.003497 0.006861
v 0.019942 0.360503 0.011513
v 0.039539 0.350146 0.022828
v 0.058398 0.333327 0.033716
v 0.076033 0.310693 0.043897
v 0.091849 0.283114 0.053029
v 0.105156 0.251648 0.060712
v 0.115202 0.217506 0.066512
v 0.121243 0.182000 0.070000
v 0.118218 0.146494 0.068253
v 0.110728 0.112352 0.063929
v 0.099130 0.080886 0.057233
v 0.083913 0.053307 0.048447
v 0.065679 0.030673 0.037920
v 0.045112 0.013854 0.026045
v 0.022957 0.003497 0.013255
v 0.016282 0.360503 0.016282
v 0.032284 0.350146 0.032284
v 0.047682 0.333327 0.047682
v 0.062080 0.310693 0.062080
v 0.074995 0.283114 0.074995
v 0.085859 0.251648 0.085859
v 0.094062 0.217506 0.094062
v 0.098995 0.182000 0.098995
v 0.096525 0.146494 0.096525
v 0.090409 0.112352 0.090409
v 0.080939 0.080886 0.080939
v 0.068515 0.053307 0.068515
v 0.053627 0.030673 0.053627
v 0.036834 0.013854 0.036834
v 0.018745 0.003497 0.018745
v 0.011513 0.360503 0.019942
v 0.022828 0.350146 0.039539
v 0.033716 0.333327 0.058398
v 0.043897 0.310693 0.076033
v 0.053029 0.283114 0.091849
v 0.060712 0.251648 0.105156
v 0.066512 0.217506 0.115202
v 0.070000 0.182000 0.121244
v 0.068253 0.146494 0.118218
v 0.063929 0.112352 0.110728
v 0.057233 0.080886 0.099130
v 0.048447 0.053307 0.083913
v 0.037920 0.030673 0.065679
v 0.026045 0.013854 0.045112
v 0.013255 0.003497 0.022957
v 0.005960 0.360503 0.022242
v 0.011817 0.350146 0.044100
v 0.017453 0.333327 0.065135
v 0.022723 0.310693 0.084803
v 0.027450 0.283114 0.102444
v 0.031427 0.251648 0.117286
v 0.034429 0.217506 0.128491
v 0.036235 0.182000 0.135230
v 0.035330 0.146494 0.131855
v 0.033092 0.112352 0.123502
v 0.029626 0.080886 0.110565
v 0.025078 0.053307 0.093593
v 0.019629 0.030673 0.073256
v 0.013482 0.013854 0.050316
v 0.006861 0.003497 0.025606
v 0.000000 0.360503 0.023027
v 0.000000 0.350146 0.045656
v 0.000000 0.333327 0.067432
v 0.000000 0.310693 0.087795
v 0.000000 0.217506 0.133024
v -0.000000 0.182000 0.140000
v 0.000000 0.146494 0.136506
v -0.000000 0.112352 0.127858
v 0.000000 0.053307 0.096895
v 0.000000 0.030673 0.075840
v 0.000000 0.013854 0.052091
v 0.000000 0.003497 0.026509
vn -0.1237 0.3192 0.9396
vn -0.0493 -0.9258 0.3748
vn -0.1281 0.1912 0.9732
vn -0.0198 0.9885 0.1501
vn -0.0172 -0.9913 0.1308
vn -0.1299 -0.0971 0.9868
vn -0.0547 0.9079 0.4155
vn -0.1266 -0.2436 0.9616
vn -0.0802 0.7889 0.6093
vn -0.1203 -0.3888 0.9134
vn -0.0974 0.6656 0.7399
vn -0.1104 -0.5340 0.8382
vn -0.1091 0.5488 0.8288
vn -0.0959 -0.6780 0.7288
vn -0.1175 0.4358 0.8924
vn -0.0759 -0.8137 0.5763
vn -0.3444 0.4358 0.8315
vn -0.2224 -0.8137 0.5370
vn -0.3627 0.3192 0.8755
vn -0.1447 -0.9258 0.3493
vn -0.3756 0.1912 0.9068
vn -0.0580 0.9885 0.1399
vn -0.0505 -0.9913 0.1219
vn -0.3809 -0.0971 0.9195
vn -0.1604 0.9079 0.3872
vn -0.3712 -0.2436 0.8961
vn -0.2352 0.7889 0.5678
vn -0.3526 -0.3888 0.8512
vn -0.2856 0.6656 0.6895
vn -0.3235 -0.5340 0.7811
vn -0.3199 0.5488 0.7723
vn -0.2813 -0.6780 0.6791
vn -0.5904 -0.2436 0.7695
vn -0.3741 0.7889 0.4875
vn -0.5609 -0.3888 0.7309
vn -0.4543 0.6656 0.5921
vn -0.5147 -0.5340 0.6708
vn -0.5089 0.5488 0.6632
vn -0.4475 -0.6780 0.5832
vn -0.5479 0.4358 0.7141
vn -0.3538 -0.8137 0.4611
vn -0.5769 0.3192 0.7518
vn -0.2301 -0.9258 0.2999
vn -0.5975 0.1912 0.7787
vn -0.0922 0.9885 0.1201
vn -0.0803 -0.9913 0.1046
vn -0.6059 -0.0971 0.7896
vn -0.2551 0.9079 0.3325
vn -0.4611 -0.8137 0.3538
vn -0.7518 0.3192 0.5769
vn -0.2999 -0.9258 0.2301
vn -0.7787 0.1912 0.5975
vn -0.1201 0.9885 0.0922
vn -0.1046 -0.9913 0.0803
vn -0.7896 -0.0971 0.6059
vn -0.3325 0.9079 0.2551
vn -0.7695 -0.2436 0.5904
vn -0.4875 0.7889 0.3741
vn -0.7309 -0.3888 0.5609
vn -0.5921 0.6656 0.4543
vn -0.6708 -0.5340 0.5147
vn -0.6632 0.5488 0.5089
vn -0.5832 -0.6780 0.4475
vn -0.7141 0.4358 0.5479
vn -0.5678 0.7889 0.2352
vn -0.8512 -0.3888 0.3526
vn -0.6895 0.6656 0.2856
vn -0.7811 -0.5340 0.3235
vn -0.7723 0.5488 0.3199
vn -0.6791 -0.6780 0.2813
vn -0.8315 0.4358 0.3444
vn -0.5370 -0.8137 0.2224
vn -0.8755 0.3192 0.3627
vn -0.3493 -0.9258 0.1447
vn -0.9068 0.1912 0.3756
vn -0.1399 0.9885 0.0579
vn -0.1219 -0.9913 0.0505
vn -0.9195 -0.0971 0.3809
vn -0.3872 0.9079 0.1604
vn -0.8961 -0.2436 0.3712
vn -0.9396 0.3192 0.1237
vn -0.3748 -0.9258 0.0493
vn -0.9732 0.1912 0.1281
vn -0.1501 0.9885 0.0198
vn -0.1308 -0.9913 0.0172
vn -0.9868 -0.0971 0.1299
vn -0.4155 0.9079 0.0547
vn -0.9616 -0.2436 0.1266
vn -0.6093 0.7889 0.0802
vn -0.9134 -0.3888 0.1203
vn -0.7399 0.6656 0.0974
vn -0.8382 -0.5340 0.1104
vn -0.8288 0.5488 0.1091
vn -0.7288 -0.6780 0.0959
vn -0.8924 0.4358 0.1175
vn -0.5763 -0.8137 0.0759
vn -0.9134 -0.3888 -0.1203
vn -0.7399 0.6656 -0.0974
vn -0.8382 -0.5340 -0.1104
vn -0.8288 0.5488 -0.1091
vn -0.7288 -0.6780 -0.0959
vn -0.8924 0.4358 -0.1175
vn -0.5763 -0.8137 -0.0759
vn -0.9396 0.3192 -0.1237
vn -0.3748 -0.9258 -0.0493
vn -0.9732 0.1912 -0.1281
vn -0.1501 0.9885 -0.0198
vn -0.1308 -0.9913 -0.0172
vn -0.9868 -0.0971 -0.1299
vn -0.4155 0.9079 -0.0547
vn -0.9616 -0.2436 -0.1266
vn -0.6093 0.7889 -0.0802
vn -0.3493 -0.9258 -0.1447
vn -0.9068 0.1912 -0.3756
vn -0.1399 0.9885 -0.0579
vn -0.1219 -0.9913 -0.0505
vn -0.9195 -0.0971 -0.3809
vn -0.3872 0.9079 -0.1604
vn -0.8961 -0.2436 -0.3712
vn -0.5678 0.7889 -0.2352
vn -0.8512 -0.3888 -0.3526
vn -0.6895 0.6656 -0.2856
vn -0.7811 -0.5340 -0.3235
vn -0.7723 0.5488 -0.3199
vn -0.6791 -0.6780 -0.2813
vn -0.8315 0.4358 -0.3444
vn -0.5370 -0.8137 -0.2224
vn -0.8755 0.3192 -0.3627
vn -0.6708 -0.5340 -0.5147
vn -0.6632 0.5488 -0.5089
vn -0.5832 -0.6780 -0.4475
vn -0.7141 0.4358 -0.5479
vn -0.4611 -0.8137 -0.3538
vn -0.7518 0.3192 -0.5769
vn -0.2999 -0.9258 -0.2301
vn -0.7787 0.1912 -0.5975
vn -0.1201 0.9885 -0.0922
vn -0.1046 -0.9913 -0.0803
vn -0.7896 -0.0971 -0.6059
vn -0.3325 0.9079 -0.2551
vn -0.7695 -0.2436 -0.5904
vn -0.4875 0.7889 -0.3741
vn -0.7309 -0.3888 -0.5609
vn -0.5921 0.6656 -0.4543
vn -0.0922 0.9885 -0.1201
vn -0.0803 -0.9913 -0.1046
vn -0.6059 -0.0971 -0.7896
vn -0.2551 0.9079 -0.3325
vn -0.5904 -0.2436 -0.7695
vn -0.3741 0.7889 -0.4875
vn -0.5609 -0.3888 -0.7309
vn -0.4543 0.6656 -0.5921
vn -0.5147 -0.5340 -0.6708
vn -0.5089 0.5488 -0.6632
vn -0.4475 -0.6780 -0.5832
vn -0.5479 0.4358 -0.7141
vn -0.3538 -0.8137 -0.4611
vn -0.5769 0.3192 -0.7518
vn -0.2301 -0.9258 -0.2999
vn -0.5975 0.1912 -0.7787
vn -0.3199 0.5488 -0.7723
vn -0.2813 -0.6780 -0.6791
vn -0.3444 0.4358 -0.8316
vn -0.2224 -0.8137 -0.5370
vn -0.3627 0.3192 -0.8755
vn -0.1447 -0.9258 -0.3493
vn -0.3756 0.1912 -0.9068
vn -0.0579 0.9885 -0.1399
vn -0.0505 -0.9913 -0.1219
vn -0.3809 -0.0971 -0.9195
vn -0.1604 0.9079 -0.3872
vn -0.3712 -0.2436 -0.8961
vn -0.2352 0.7889 -0.5678
vn -0.3526 -0.3888 -0.8512
vn -0.2856 0.6656 -0.6895
vn -0.3235 -0.5340 -0.7811
vn -0.1299 -0.0971 -0.9868
vn -0.0547 0.9079 -0.4155
vn -0.1266 -0.2436 -0.9616
vn -0.0802 0.7889 -0.6093
vn -0.1203 -0.3888 -0.9134
vn -0.0974 0.6656 -0.7399
vn -0.1104 -0.5340 -0.8382
vn -0.1091 0.5488 -0.8288
vn -0.0959 -0.6780 -0.7288
vn -0.1175 0.4358 -0.8924
vn -0.0759 -0.8137 -0.5763
vn -0.1237 0.3192 -0.9396
vn -0.0493 -0.9258 -0.3748
vn -0.1281 0.1912 -0.9732
vn -0.0198 0.9885 -0.1501
vn -0.0172 -0.9913 -0.1308
vn 0.0959 -0.6780 -0.7288
vn 0.1175 0.4358 -0.8924
vn 0.0759 -0.8137 -0.5763
vn 0.1237 0.3192 -0.9396
vn 0.0493 -0.9258 -0.3748
vn 0.1281 0.1912 -0.9732
vn 0.0198 0.9885 -0.1501
vn 0.0172 -0.9913 -0.1308
vn 0.1299 -0.0971 -0.9868
vn 0.0547 0.9079 -0.4155
vn 0.1266 -0.2436 -0.9616
vn 0.0802 0.7889 -0.6093
vn 0.1203 -0.3888 -0.9134
vn 0.0974 0.6656 -0.7399
vn 0.1104 -0.5340 -0.8382
vn 0.1091 0.5488 -0.8288
vn 0.1604 0.9079 -0.3872
vn 0.3712 -0.2436 -0.8961
vn 0.2352 0.7889 -0.5678
vn 0.3526 -0.3888 -0.8512
vn 0.2856 0.6656 -0.6895
vn 0.3235 -0.5340 -0.7811
vn 0.3199 0.5488 -0.7723
vn 0.2813 -0.6780 -0.6791
vn 0.3444 0.4358 -0.8315
vn 0.2224 -0.8137 -0.5370
vn 0.3627 0.3192 -0.8755
vn 0.1447 -0.9258 -0.3493
vn 0.3756 0.1912 -0.9068
vn 0.0579 0.9885 -0.1399
vn 0.0505 -0.9913 -0.1219
vn 0.3809 -0.0971 -0.9195
vn 0.5479 0.4358 -0.7141
vn 0.3538 -0.8137 -0.4611
vn 0.5769 0.3192 -0.7518
vn 0.2301 -0.9258 -0.2999
vn 0.5975 0.1912 -0.7787
vn 0.0922 0.9885 -0.1201
vn 0.0803 -0.9913 -0.1046
vn 0.6059 -0.0971 -0.7896
vn 0.2551 0.9079 -0.3325
vn 0.5904 -0.2436 -0.7695
vn 0.3741 0.7889 -0.4875
vn 0.5609 -0.3888 -0.7309
vn 0.4543 0.6656 -0.5921
vn 0.5147 -0.5340 -0.6708
vn 0.5089 0.5488 -0.6632
vn 0.4475 -0.6780 -0.5832
vn 0.7695 -0.2436 -0.5904
vn 0.4875 0.7889 -0.3741
vn 0.7309 -0.3888 -0.5609
vn 0.5921 0.6656 -0.4543
vn 0.6708 -0.5340 -0.5147
vn 0.6632 0.5488 -0.5089
vn 0.5832 -0.6780 -0.4475
vn 0.7141 0.4358 -0.5479
vn 0.4611 -0.8137 -0.3538
vn 0.7518 0.3192 -0.5769
vn 0.2999 -0.9258 -0.2301
vn 0.7787 0.1912 -0.5975
vn 0.1201 0.9885 -0.0922
vn 0.1046 -0.9913 -0.0803
vn 0.7896 -0.0971 -0.6059
vn 0.3325 0.9079 -0.2551
vn 0.5370 -0.8137 -0.2224
vn 0.8755 0.3192 -0.3627
vn 0.3493 -0.9258 -0.1447
vn 0.9068 0.1912 -0.3756
vn 0.1399 0.9885 -0.0579
vn 0.1219 -0.9913 -0.0505
vn 0.9195 -0.0971 -0.3809
vn 0.3872 0.9079 -0.1604
vn 0.8961 -0.2436 -0.3712
vn 0.5678 0.7889 -0.2352
vn 0.8512 -0.3888 -0.3526
vn 0.6895 0.6656 -0.2856
vn 0.7811 -0.5340 -0.3235
vn 0.7723 0.5488 -0.3199
vn 0.6791 -0.6780 -0.2813
vn 0.8315 0.4358 -0.3444
vn 0.9134 -0.3888 -0.1203
vn 0.7399 0.6656 -0.0974
vn 0.8382 -0.5340 -0.1104
vn 0.8288 0.5488 -0.1091
vn 0.7288 -0.6780 -0.0959
vn 0.8924 0.4358 -0.1175
vn 0.5763 -0.8137 -0.0759
vn 0.9396 0.3192 -0.1237
vn 0.3748 -0.9258 -0.0493
vn 0.9732 0.1912 -0.1281
vn 0.1501 0.9885 -0.0198
vn 0.1308 -0.9913 -0.0172
vn 0.9868 -0.0971 -0.1299
vn 0.4155 0.9079 -0.0547
vn 0.9616 -0.2436 -0.1266
vn 0.6093 0.7889 -0.0802
vn 0.3748 -0.9258 0.0493
vn 0.9732 0.1912 0.1281
vn 0.1501 0.9885 0.0198
vn 0.1308 -0.9913 0.0172
vn 0.9868 -0.0971 0.1299
vn 0.4155 0.9079 0.0547
vn 0.9616 -0.2436 0.1266
vn 0.6093 0.7889 0.0802
vn 0.9134 -0.3888 0.1203
vn 0.7399 0.6656 0.0974
vn 0.8382 -0.5340 0.1104
vn 0.8288 0.5488 0.1091
vn 0.7288 -0.6780 0.0959
vn 0.8924 0.4358 0.1175
vn 0.5763 -0.8137 0.0759
vn 0.9396 0.3192 0.1237
vn 0.6895 0.6656 0.2856
vn 0.7811 -0.5340 0.3235
vn 0.7723 0.5488 0.3199
vn 0.6791 -0.6780 0.2813
vn 0.8315 0.4358 0.3444
vn 0.5370 -0.8137 0.2224
vn 0.8755 0.3192 0.3627
vn 0.3493 -0.9258 0.1447
vn 0.9068 0.1912 0.3756
vn 0.1399 0.9885 0.0579
vn 0.1219 -0.9913 0.0505
vn 0.9195 -0.0971 0.3809
vn 0.3872 0.9079 0.1604
vn 0.8961 -0.2436 0.3712
vn 0.5678 0.7889 0.2352
vn 0.8512 -0.3888 0.3526
vn 0.7787 0.1912 0.5975
vn 0.1201 0.9885 0.0922
vn 0.1046 -0.9913 0.0803
vn 0.7896 -0.0971 0.6059
vn 0.3325 0.9079 0.2551
vn 0.7695 -0.2436 0.5904
vn 0.4875 0.7889 0.3741
vn 0.7309 -0.3888 0.5609
vn 0.5921 0.6656 0.4543
vn 0.6708 -0.5340 0.5147
vn 0.6632 0.5488 0.5089
vn 0.5832 -0.6780 0.4475
vn 0.7141 0.4358 0.5479
vn 0.4611 -0.8137 0.3538
vn 0.7518 0.3192 0.5769
vn 0.2999 -0.9258 0.2301
vn 0.5147 -0.5340 0.6708
vn 0.5089 0.5488 0.6632
vn 0.4475 -0.6780 0.5832
vn 0.5479 0.4358 0.7141
vn 0.3538 -0.8137 0.4611
vn 0.5769 0.3192 0.7518
vn 0.2301 -0.9258 0.2999
vn 0.5975 0.1912 0.7787
vn 0.0922 0.9885 0.1201
vn 0.0803 -0.9913 0.1046
vn 0.6059 -0.0971 0.7896
vn 0.2551 0.9079 0.3325
vn 0.5904 -0.2436 0.7695
vn 0.3741 0.7889 0.4875
vn 0.5609 -0.3888 0.7309
vn 0.4543 0.6656 0.5921
vn 0.0579 0.9885 0.1399
vn 0.0505 -0.9913 0.1219
vn 0.3809 -0.0971 0.9195
vn 0.1604 0.9079 0.3872
vn 0.3712 -0.2436 0.8961
vn 0.2352 0.7889 0.5678
vn 0.3526 -0.3888 0.8512
vn 0.2856 0.6656 0.6895
vn 0.3235 -0.5340 0.7811
vn 0.3199 0.5488 0.7723
vn 0.2813 -0.6780 0.6791
vn 0.3444 0.4358 0.8316
vn 0.2224 -0.8137 0.5370
vn 0.3627 0.3192 0.8755
vn 0.1447 -0.9258 0.3493
vn 0.3756 0.1912 0.9068
vn 0.1091 0.5488 0.8288
vn 0.0959 -0.6780 0.7288
vn 0.1175 0.4358 0.8924
vn 0.0759 -0.8137 0.5763
vn 0.1237 0.3192 0.9396
vn 0.0493 -0.9258 0.3748
vn 0.1281 0.1912 0.9732
vn 0.0198 0.9885 0.1501
vn 0.0172 -0.9913 0.1308
vn 0.1299 -0.0971 0.9868
vn 0.0547 0.9079 0.4155
vn 0.1266 -0.2436 0.9616
vn 0.0802 0.7889 0.6093
vn 0.1203 -0.3888 0.9134
vn 0.0974 0.6656 0.7399
vn 0.1104 -0.5340 0.8382
s 0
usemtl EF_Egg_frost_Shell
f 362//2 361//2 19//2 20//2
f 351//4 1//4 6//4
f 5//5 362//5 20//5
f 357//6 356//6 13//6 14//6
f 352//7 351//7 6//7 7//7
f 358//8 357//8 14//8 15//8
f 353//9 352//9 7//9 8//9
f 4//10 358//10 15//10 16//10
f 354//11 353//11 8//11 9//11
f 359//12 4//12 16//12 17//12
f 2//13 354//13 9//13 10//13
f 360//14 359//14 17//14 18//14
f 3//15 2//15 10//15 11//15
f 361//16 360//16 18//16 19//16
f 11//17 10//17 25//17 26//17
f 19//18 18//18 33//18 34//18
f 20//20 19//20 34//20 35//20
f 6//22 1//22 21//22
f 5//23 20//23 35//23
f 14//24 13//24 28//24 29//24
f 7//25 6//25 21//25 22//25
f 8//27 7//27 22//27 23//27
f 16//28 15//28 30//28 31//28
f 9//29 8//29 23//29 24//29
f 17//30 16//30 31//30 32//30
f 10//31 9//31 24//31 25//31
f 18//32 17//32 32//32 33//32
f 30//33 29//33 44//33 45//33
f 23//34 22//34 37//34 38//34
f 31//35 30//35 45//35 46//35
f 24//36 23//36 38//36 39//36
f 32//37 31//37 46//37 47//37
f 25//38 24//38 39//38 40//38
f 33//39 32//39 47//39 48//39
f 26//40 25//40 40//40 41//40
f 34//41 33//41 48//41 49//41
f 35//43 34//43 49//43 50//43
f 21//45 1//45 36//45
f 5//46 35//46 50//46
f 29//47 28//47 43//47 44//47
f 22//48 21//48 36//48 37//48
f 49//49 48//49 63//49 64//49
f 50//51 49//51 64//51 65//51
f 36//53 1//53 51//53
f 5//54 50//54 65//54
f 44//55 43//55 58//55 59//55
f 37//56 36//56 51//56 52//56
f 38//58 37//58 52//58 53//58
f 46//59 45//59 60//59 61//59
f 39//60 38//60 53//60 54//60
f 47//61 46//61 61//61 62//61
f 48//63 47//63 62//63 63//63
f 41//64 40//64 55//64 56//64
f 53//65 52//65 67//65 68//65
f 61//66 60//66 75//66 76//66
f 54//67 53//67 68//67 69//67
f 62//68 61//68 76//68 77//68
f 55//69 54//69 69//69 70//69
f 63//70 62//70 77//70 78//70
f 56//71 55//71 70//71 71//71
f 64//72 63//72 78//72 79//72
f 65//74 64//74 79//74 80//74
f 51//76 1//76 66//76
f 5//77 65//77 80//77
f 59//78 58//78 73//78 74//78
f 52//79 51//79 66//79 67//79
f 60//80 59//80 74//80 75//80
f 80//82 79//82 94//82 95//82
f 66//84 1//84 81//84
f 5//85 80//85 95//85
f 74//86 73//86 88//86 89//86
f 67//87 66//87 81//87 82//87
f 68//89 67//89 82//89 83//89
f 76//90 75//90 90//90 91//90
f 69//91 68//91 83//91 84//91
f 77//92 76//92 91//92 92//92
f 78//94 77//94 92//94 93//94
f 71//95 70//95 85//95 86//95
f 79//96 78//96 93//96 94//96
f 91//97 90//97 105//97 106//97
f 84//98 83//98 98//98 99//98
f 92//99 91//99 106//99 107//99
f 85//100 84//100 99//100 100//100
f 93//101 92//101 107//101 108//101
f 86//102 85//102 100//102 101//102
f 94//103 93//103 108//103 109//103
f 95//105 94//105 109//105 110//105
f 81//107 1//107 96//107
f 5//108 95//108 110//108
f 89//109 88//109 103//109 104//109
f 82//110 81//110 96//110 97//110
f 90//111 89//111 104//111 105//111
f 83//112 82//112 97//112 98//112
f 110//113 109//113 124//113 125//113
f 96//115 1//115 111//115
f 5//116 110//116 125//116
f 104//117 103//117 118//117 119//117
f 97//118 96//118 111//118 112//118
f 98//120 97//120 112//120 113//120
f 106//121 105//121 120//121 121//121
f 99//122 98//122 113//122 114//122
f 107//123 106//123 121//123 122//123
f 100//124 99//124 114//124 115//124
f 108//125 107//125 122//125 123//125
f 101//126 100//126 115//126 116//126
f 109//127 108//127 123//127 124//127
f 122//129 121//129 136//129 137//129
f 123//131 122//131 137//131 138//131
f 116//132 115//132 130//132 131//132
f 124//133 123//133 138//133 139//133
f 125//135 124//135 139//135 140//135
f 111//137 1//137 126//137
f 5//138 125//138 140//138
f 119//139 118//139 133//139 134//139
f 112//140 111//140 126//140 127//140
f 120//141 119//141 134//141 135//141
f 113//142 112//142 127//142 128//142
f 121//143 120//143 135//143 136//143
f 114//144 113//144 128//144 129//144
f 126//145 1//145 141//145
f 5//146 140//146 155//146
f 134//147 133//147 148//147 149//147
f 127//148 126//148 141//148 142//148
f 135//149 134//149 149//149 150//149
f 128//150 127//150 142//150 143//150
f 136//151 135//151 150//151 151//151
f 129//152 128//152 143//152 144//152
f 137//153 136//153 151//153 152//153
f 130//154 129//154 144//154 145//154
f 138//155 137//155 152//155 153//155
f 131//156 130//156 145//156 146//156
f 139//157 138//157 153//157 154//157
f 140//159 139//159 154//159 155//159
f 145//161 144//161 159//161 160//161
f 153//162 152//162 167//162 168//162
f 146//163 145//163 160//163 161//163
f 154//164 153//164 168//164 169//164
f 155//166 154//166 169//166 170//166
f 141//168 1//168 156//168
f 5//169 155//169 170//169
f 149//170 148//170 163//170 164//170
f 142//171 141//171 156//171 157//171
f 143//173 142//173 157//173 158//173
f 151//174 150//174 165//174 166//174
f 144//175 143//175 158//175 159//175
f 152//176 151//176 166//176 167//176
f 164//177 163//177 178//177 179//177
f 157//178 156//178 171//178 172//178
f 165//179 164//179 179//179 180//179
f 158//180 157//180 172//180 173//180
f 166//181 165//181 180//181 181//181
f 159//182 158//182 173//182 174//182
f 167//183 166//183 181//183 182//183
f 168//185 167//185 182//185 183//185
f 161//186 160//186 175//186 176//186
f 169//187 168//187 183//187 184//187
f 170//189 169//189 184//189 185//189
f 156//191 1//191 171//191
f 5//192 170//192 185//192
f 183//193 182//193 197//193 198//193
f 176//194 175//194 190//194 191//194
f 184//195 183//195 198//195 199//195
f 185//197 184//197 199//197 200//197
f 171//199 1//199 186//199
f 5//200 185//200 200//200
f 179//201 178//201 193//201 194//201
f 172//202 171//202 186//202 187//202
f 173//204 172//204 187//204 188//204
f 181//205 180//205 195//205 196//205
f 174//206 173//206 188//206 189//206
f 182//207 181//207 196//207 197//207
f 175//208 174//208 189//208 190//208
f 187//209 186//209 201//209 202//209
f 195//210 194//210 209//210 210//210
f 188//211 187//211 202//211 203//211
f 196//212 195//212 210//212 211//212
f 189//213 188//213 203//213 204//213
f 197//214 196//214 211//214 212//214
f 190//215 189//215 204//215 205//215
f 198//216 197//216 212//216 213//216
f 191//217 190//217 205//217 206//217
f 199//218 198//218 213//218 214//218
f 200//220 199//220 214//220 215//220
f 186//222 1//222 201//222
f 5//223 200//223 215//223
f 194//224 193//224 208//224 209//224
f 206//225 205//225 220//225 221//225
f 214//226 213//226 228//226 229//226
f 215//228 214//228 229//228 230//228
f 201//230 1//230 216//230
f 5//231 215//231 230//231
f 209//232 208//232 223//232 224//232
f 202//233 201//233 216//233 217//233
f 210//234 209//234 224//234 225//234
f 203//235 202//235 217//235 218//235
f 211//236 210//236 225//236 226//236
f 204//237 203//237 218//237 219//237
f 212//238 211//238 226//238 227//238
f 213//240 212//240 227//240 228//240
f 225//241 224//241 239//241 240//241
f 218//242 217//242 232//242 233//242
f 226//243 225//243 240//243 241//243
f 219//244 218//244 233//244 234//244
f 227//245 226//245 241//245 242//245
f 220//246 219//246 234//246 235//246
f 228//247 227//247 242//247 243//247
f 221//248 220//248 235//248 236//248
f 229//249 228//249 243//249 244//249
f 230//251 229//251 244//251 245//251
f 216//253 1//253 231//253
f 5//254 230//254 245//254
f 224//255 223//255 238//255 239//255
f 217//256 216//256 231//256 232//256
f 244//257 243//257 258//257 259//257
f 245//259 244//259 259//259 260//259
f 231//261 1//261 246//261
f 5//262 245//262 260//262
f 239//263 238//263 253//263 254//263
f 232//264 231//264 246//264 247//264
f 240//265 239//265 254//265 255//265
f 233//266 232//266 247//266 248//266
f 241//267 240//267 255//267 256//267
f 234//268 233//268 248//268 249//268
f 242//269 241//269 256//269 257//269
f 235//270 234//270 249//270 250//270
f 243//271 242//271 257//271 258//271
f 236//272 235//272 250//272 251//272
f 256//273 255//273 270//273 271//273
f 249//274 248//274 263//274 264//274
f 257//275 256//275 271//275 272//275
f 258//277 257//277 272//277 273//277
f 251//278 250//278 265//278 266//278
f 259//279 258//279 273//279 274//279
f 260//281 259//281 274//281 275//281
f 246//283 1//283 261//283
f 5//284 260//284 275//284
f 254//285 253//285 268//285 269//285
f 247//286 246//286 261//286 262//286
f 248//288 247//288 262//288 263//288
f 275//289 274//289 289//289 290//289
f 261//291 1//291 276//291
f 5//292 275//292 290//292
f 269//293 268//293 283//293 284//293
f 262//294 261//294 276//294 277//294
f 270//295 269//295 284//295 285//295
f 263//296 262//296 277//296 278//296
f 271//297 270//297 285//297 286//297
f 264//298 263//298 278//298 279//298
f 272//299 271//299 286//299 287//299
f 265//300 264//300 279//300 280//300
f 273//301 272//301 287//301 288//301
f 266//302 265//302 280//302 281//302
f 274//303 273//303 288//303 289//303
f 279//305 278//305 293//305 294//305
f 287//306 286//306 301//306 302//306
f 280//307 279//307 294//307 295//307
f 288//308 287//308 302//308 303//308
f 281//309 280//309 295//309 296//309
f 289//310 288//310 303//310 304//310
f 290//312 289//312 304//312 305//312
f 276//314 1//314 291//314
f 5//315 290//315 305//315
f 284//316 283//316 298//316 299//316
f 277//317 276//317 291//317 292//317
f 278//319 277//319 292//319 293//319
f 286//320 285//320 300//320 301//320
f 291//322 1//322 306//322
f 5//323 305//323 320//323
f 299//324 298//324 313//324 314//324
f 292//325 291//325 306//325 307//325
f 300//326 299//326 314//326 315//326
f 293//327 292//327 307//327 308//327
f 301//328 300//328 315//328 316//328
f 294//329 293//329 308//329 309//329
f 302//330 301//330 316//330 317//330
f 303//332 302//332 317//332 318//332
f 296//333 295//333 310//333 311//333
f 304//334 303//334 318//334 319//334
f 305//336 304//336 319//336 320//336
f 317//337 316//337 331//337 332//337
f 310//338 309//338 324//338 325//338
f 318//339 317//339 332//339 333//339
f 311//340 310//340 325//340 326//340
f 319//341 318//341 333//341 334//341
f 320//343 319//343 334//343 335//343
f 306//345 1//345 321//345
f 5//346 320//346 335//346
f 314//347 313//347 328//347 329//347
f 307//348 306//348 321//348 322//348
f 308//350 307//350 322//350 323//350
f 316//351 315//351 330//351 331//351
f 309//352 308//352 323//352 324//352
f 321//353 1//353 336//353
f 5//354 335//354 350//354
f 329//355 328//355 343//355 344//355
f 322//356 321//356 336//356 337//356
f 330//357 329//357 344//357 345//357
f 323//358 322//358 337//358 338//358
f 331//359 330//359 345//359 346//359
f 324//360 323//360 338//360 339//360
f 332//361 331//361 346//361 347//361
f 325//362 324//362 339//362 340//362
f 333//363 332//363 347//363 348//363
f 326//364 325//364 340//364 341//364
f 334//365 333//365 348//365 349//365
f 335//367 334//367 349//367 350//367
f 348//370 347//370 359//370 360//370
f 341//371 340//371 2//371 3//371
f 349//372 348//372 360//372 361//372
f 350//374 349//374 361//374 362//374
f 336//376 1//376 351//376
f 5//377 350//377 362//377
f 344//378 343//378 356//378 357//378
f 337//379 336//379 351//379 352//379
f 338//381 337//381 352//381 353//381
f 346//382 345//382 358//382 4//382
f 339//383 338//383 353//383 354//383
f 347//384 346//384 4//384 359//384
usemtl EF_Egg_frost_Spots
f 355//1 3//1 11//1 12//1
f 356//3 355//3 12//3 13//3
f 12//19 11//19 26//19 27//19
f 13//21 12//21 27//21 28//21
f 15//26 14//26 29//26 30//26
f 27//42 26//42 41//42 42//42
f 28//44 27//44 42//44 43//44
f 42//50 41//50 56//50 57//50
f 43//52 42//52 57//52 58//52
f 45//57 44//57 59//57 60//57
f 40//62 39//62 54//62 55//62
f 57//73 56//73 71//73 72//73
f 58//75 57//75 72//75 73//75
f 72//81 71//81 86//81 87//81
f 73//83 72//83 87//83 88//83
f 75//88 74//88 89//88 90//88
f 70//93 69//93 84//93 85//93
f 87//104 86//104 101//104 102//104
f 88//106 87//106 102//106 103//106
f 103//114 102//114 117//114 118//114
f 105//119 104//119 119//119 120//119
f 102//128 101//128 116//128 117//128
f 115//130 114//130 129//130 130//130
f 117//134 116//134 131//134 132//134
f 118//136 117//136 132//136 133//136
f 132//158 131//158 146//158 147//158
f 133//160 132//160 147//160 148//160
f 147//165 146//165 161//165 162//165
f 148//167 147//167 162//167 163//167
f 150//172 149//172 164//172 165//172
f 160//184 159//184 174//184 175//184
f 162//188 161//188 176//188 177//188
f 163//190 162//190 177//190 178//190
f 177//196 176//196 191//196 192//196
f 178//198 177//198 192//198 193//198
f 180//203 179//203 194//203 195//203
f 192//219 191//219 206//219 207//219
f 193//221 192//221 207//221 208//221
f 207//227 206//227 221//227 222//227
f 208//229 207//229 222//229 223//229
f 205//239 204//239 219//239 220//239
f 222//250 221//250 236//250 237//250
f 223//252 222//252 237//252 238//252
f 237//258 236//258 251//258 252//258
f 238//260 237//260 252//260 253//260
f 250//276 249//276 264//276 265//276
f 252//280 251//280 266//280 267//280
f 253//282 252//282 267//282 268//282
f 255//287 254//287 269//287 270//287
f 268//290 267//290 282//290 283//290
f 267//304 266//304 281//304 282//304
f 282//311 281//311 296//311 297//311
f 283//313 282//313 297//313 298//313
f 285//318 284//318 299//318 300//318
f 298//321 297//321 312//321 313//321
f 295//331 294//331 309//331 310//331
f 297//335 296//335 311//335 312//335
f 312//342 311//342 326//342 327//342
f 313//344 312//344 327//344 328//344
f 315//349 314//349 329//349 330//349
f 327//366 326//366 341//366 342//366
f 328//368 327//368 342//368 343//368
f 340//369 339//369 354//369 2//369
f 342//373 341//373 3//373 355//373
f 343//375 342//375 355//375 356//375
f 345//380 344//380 357//380 358//380
