# Blender 5.0.1
# www.blender.org
mtllib Egg_nebula.mtl
o Egg_nebula
v 0.000000 0.364000 0.000000
v 0.000000 0.000000 0.000000
v 0.008993 0.359437 -0.024708
v 0.017781 0.345976 -0.048852
v 0.026120 0.324293 -0.071764
v 0.033702 0.295475 -0.092595
v 0.040146 0.260967 -0.110300
v 0.045020 0.222499 -0.123692
v 0.047883 0.182000 -0.131557
v 0.046371 0.141501 -0.127402
v 0.042579 0.103033 -0.116986
v 0.036736 0.068525 -0.100932
v 0.029154 0.039707 -0.080101
v 0.020214 0.018024 -0.055538
v 0.010343 0.004563 -0.028418
v 0.016901 0.359437 -0.020142
v 0.033417 0.345976 -0.039825
v 0.049089 0.324293 -0.058502
v 0.063338 0.295475 -0.075484
v 0.075450 0.260967 -0.089918
v 0.084610 0.222499 -0.100835
v 0.089990 0.182000 -0.107246
v 0.087148 0.141501 -0.103859
v 0.080023 0.103033 -0.095368
v 0.069041 0.068525 -0.082280
v 0.054792 0.039707 -0.065299
v 0.037990 0.018024 -0.045275
v 0.019439 0.004563 -0.023167
v 0.022771 0.359437 -0.013147
v 0.045022 0.345976 -0.025994
v 0.066138 0.324293 -0.038185
v 0.085336 0.295475 -0.049269
v 0.101653 0.260967 -0.058690
v 0.113995 0.222499 -0.065815
v 0.121244 0.182000 -0.070000
v 0.117415 0.141501 -0.067789
v 0.107815 0.103033 -0.062247
v 0.093019 0.068525 -0.053705
v 0.073821 0.039707 -0.042621
v 0.051184 0.018024 -0.029551
v 0.026190 0.004563 -0.015121
v 0.025894 0.359437 -0.004566
v 0.051197 0.345976 -0.009027
v 0.075209 0.324293 -0.013261
v 0.097040 0.295475 -0.017111
v 0.115596 0.260967 -0.020383
v 0.129631 0.222499 -0.022857
v 0.137873 0.182000 -0.024311
v 0.133519 0.141501 -0.023543
v 0.122602 0.103033 -0.021618
v 0.105777 0.068525 -0.018651
v 0.083946 0.039707 -0.014802
v 0.058204 0.018024 -0.010263
v 0.029782 0.004563 -0.005251
v 0.025894 0.359437 0.004566
v 0.051197 0.345976 0.009027
v 0.075209 0.324293 0.013261
v 0.097040 0.295475 0.017111
v 0.115596 0.260967 0.020383
v 0.129631 0.222499 0.022857
v 0.137873 0.182000 0.024311
v 0.133519 0.141501 0.023543
v 0.122602 0.103033 0.021618
v 0.105777 0.068525 0.018651
v 0.083946 0.039707 0.014802
v 0.058204 0.018024 0.010263
v 0.029782 0.004563 0.005251
v 0.022771 0.359437 0.013147
v 0.045022 0.345976 0.025994
v 0.066138 0.324293 0.038185
v 0.085336 0.295475 0.049269
v 0.101653 0.260967 0.058690
v 0.113995 0.222499 0.065815
v 0.121244 0.182000 0.070000
v 0.117415 0.141501 0.067789
v 0.107815 0.103033 0.062247
v 0.093019 0.068525 0.053705
v 0.073821 0.039707 0.042621
v 0.051184 0.018024 0.029551
v 0.026190 0.004563 0.015121
v 0.016901 0.359437 0.020142
v 0.033417 0.345976 0.039825
v 0.049089 0.324293 0.058502
v 0.063339 0.295475 0.075484
v 0.075450 0.260967 0.089918
v 0.084610 0.222499 0.100835
v 0.089990 0.182000 0.107246
v 0.087148 0.141501 0.103859
v 0.080023 0.103033 0.095368
v 0.069041 0.068525 0.082280
v 0.054792 0.039707 0.065299
v 0.037990 0.018024 0.045275
v 0.019439 0.004563 0.023167
v 0.008993 0.359437 0.024708
v 0.017781 0.345976 0.048852
v 0.026120 0.324293 0.071764
v 0.033702 0.295475 0.092595
v 0.040146 0.260967 0.110300
v 0.045020 0.222499 0.123692
v 0.047883 0.182000 0.131557
v 0.046371 0.141501 0.127402
v 0.042579 0.103033 0.116986
v 0.036736 0.068525 0.100931
v 0.029154 0.039707 0.080101
v 0.020214 0.018024 0.055538
v 0.010343 0.004563 0.028418
v 0.000000 0.359437 0.026293
v 0.000000 0.345976 0.051987
v 0.000000 0.324293 0.076369
v 0.000000 0.295475 0.098537
v 0.000000 0.260967 0.117379
v 0.000000 0.222499 0.131630
v 0.000000 0.182000 0.140000
v 0.000000 0.141501 0.135579
v 0.000000 0.103033 0.124494
v 0.000000 0.068525 0.107409
v 0.000000 0.039707 0.085241
v 0.000000 0.018024 0.059102
v 0.000000 0.004563 0.030242
v -0.008993 0.359437 0.024708
v -0.017781 0.345976 0.048852
v -0.026120 0.324293 0.071764
v -0.033702 0.295475 0.092595
v -0.040146 0.260967 0.110300
v -0.045020 0.222499 0.123692
v -0.047883 0.182000 0.131557
v -0.046371 0.141501 0.127402
v -0.042579 0.103033 0.116986
v -0.036736 0.068525 0.100932
v -0.029154 0.039707 0.080101
v -0.020214 0.018024 0.055538
v -0.010343 0.004563 0.028418
v -0.016901 0.359437 0.020142
v -0.033417 0.345976 0.039825
v -0.049089 0.324293 0.058502
v -0.063338 0.295475 0.075484
v -0.075450 0.260967 0.089918
v -0.084610 0.222499 0.100835
v -0.089990 0.182000 0.107246
v -0.087148 0.141501 0.103859
v -0.080023 0.103033 0.095368
v -0.069041 0.068525 0.082280
v -0.054792 0.039707 0.065299
v -0.037990 0.018024 0.045275
v -0.019439 0.004563 0.023167
v -0.022771 0.359437 0.013147
v -0.045022 0.345976 0.025994
v -0.066138 0.324293 0.038185
v -0.085336 0.295475 0.049269
v -0.101653 0.260967 0.058690
v -0.113995 0.222499 0.065815
v -0.121244 0.182000 0.070000
v -0.117415 0.141501 0.067789
v -0.107815 0.103033 0.062247
v -0.093019 0.068525 0.053705
v -0.073821 0.039707 0.042621
v -0.051184 0.018024 0.029551
v -0.026190 0.004563 0.015121
v -0.025894 0.359437 0.004566
v -0.051197 0.345976 0.009028
v -0.075209 0.324293 0.013261
v -0.097040 0.295475 0.017111
v -0.115596 0.260967 0.020383
v -0.129631 0.222499 0.022857
v -0.137873 0.182000 0.024311
v -0.133519 0.141501 0.023543
v -0.122602 0.103033 0.021618
v -0.105777 0.068525 0.018651
v -0.083946 0.039707 0.014802
v -0.058204 0.018024 0.010263
v -0.029782 0.004563 0.005251
v -0.025894 0.359437 -0.004566
v -0.051197 0.345976 -0.009027
v -0.075209 0.324293 -0.013261
v -0.097040 0.295475 -0.017111
v -0.115596 0.260967 -0.020383
v -0.129631 0.222499 -0.022857
v -0.137873 0.182000 -0.024311
v -0.133519 0.141501 -0.023543
v -0.122602 0.103033 -0.021618
v -0.105777 0.068525 -0.018651
v -0.083946 0.039707 -0.014802
v -0.058204 0.018024 -0.010263
v -0.029782 0.004563 -0.005251
v -0.022771 0.359437 -0.013147
v -0.045022 0.345976 -0.025994
v -0.066138 0.324293 -0.038185
v -0.085336 0.295475 -0.049269
v -0.101653 0.260967 -0.058690
v -0.113995 0.222499 -0.065815
v -0.121244 0.182000 -0.070000
v -0.117415 0.141501 -0.067789
v -0.107815 0.103033 -0.062247
v -0.093019 0.068525 -0.053704
v -0.073821 0.039707 -0.042621
v -0.051184 0.018024 -0.029551
v -0.026190 0.004563 -0.015121
v -0.016901 0.359437 -0.020142
v -0.033417 0.345976 -0.039824
v -0.049089 0.324293 -0.058502
v -0.063339 0.295475 -0.075484
v -0.075450 0.260967 -0.089918
v -0.084610 0.222499 -0.100835
v -0.089990 0.182000 -0.107246
v -0.087148 0.141501 -0.103859
v -0.080023 0.103033 -0.095368
v -0.069041 0.068525 -0.082280
v -0.054792 0.039707 -0.065299
v -0.037990 0.018024 -0.045275
v -0.019439 0.004563 -0.023167
v -0.008993 0.359437 -0.024708
v -0.017781 0.345976 -0.048852
v -0.026120 0.324293 -0.071764
v -0.033702 0.295475 -0.092595
v -0.040146 0.260967 -0.110300
v -0.045020 0.222499 -0.123692
v -0.047883 0.182000 -0.131557
v -0.046371 0.141501 -0.127402
v -0.042579 0.103033 -0.116986
v -0.036736 0.068525 -0.100931
v -0.029154 0.039707 -0.080101
v -0.020214 0.018024 -0.055538
v -0.010343 0.004563 -0.028418
v -0.000000 0.359437 -0.026293
v -0.000000 0.345976 -0.051987
v -0.000000 0.324293 -0.076369
v -0.000000 0.295475 -0.098537
v -0.000000 0.260967 -0.117379
v -0.000000 0.222499 -0.131630
v -0.000000 0.182000 -0.140000
v -0.000000 0.141501 -0.135579
v -0.000000 0.103033 -0.124494
v -0.000000 0.068525 -0.107409
v -0.000000 0.039707 -0.085241
v -0.000000 0.018024 -0.059102
v -0.000000 0.004563 -0.030242
vn 0.1164 0.7422 -0.6600
vn 0.1384 -0.6038 -0.7850
vn 0.1384 0.6038 -0.7850
vn 0.1119 -0.7648 -0.6344
vn 0.1529 0.4736 -0.8674
vn 0.0743 -0.9038 -0.4215
vn 0.1631 0.3427 -0.9252
vn 0.0263 -0.9885 -0.1491
vn 0.1702 0.1994 -0.9650
vn 0.1727 -0.1069 -0.9792
vn 0.0301 0.9848 -0.1709
vn 0.1671 -0.2730 -0.9474
vn 0.0816 0.8829 -0.4625
vn 0.1561 -0.4383 -0.8852
vn 0.3986 0.6038 -0.6903
vn 0.3221 -0.7648 -0.5579
vn 0.4404 0.4736 -0.7627
vn 0.2140 -0.9038 -0.3707
vn 0.4697 0.3427 -0.8136
vn 0.0757 -0.9885 -0.1312
vn 0.4900 0.1994 -0.8486
vn 0.4971 -0.1069 -0.8611
vn 0.0868 0.9848 -0.1503
vn 0.4810 -0.2730 -0.8331
vn 0.2348 0.8829 -0.4067
vn 0.4494 -0.4383 -0.7784
vn 0.3351 0.7422 -0.5804
vn 0.3986 -0.6038 -0.6903
vn 0.4935 -0.7648 -0.4141
vn 0.6747 0.4736 -0.5661
vn 0.3279 -0.9038 -0.2751
vn 0.7196 0.3427 -0.6039
vn 0.1160 -0.9885 -0.0973
vn 0.7507 0.1994 -0.6299
vn 0.7617 -0.1069 -0.6391
vn 0.1329 0.9848 -0.1116
vn 0.7369 -0.2730 -0.6184
vn 0.3598 0.8829 -0.3019
vn 0.6886 -0.4383 -0.5778
vn 0.5134 0.7422 -0.4308
vn 0.6106 -0.6038 -0.5124
vn 0.6106 0.6038 -0.5124
vn 0.8276 0.4736 -0.3012
vn 0.4022 -0.9038 -0.1464
vn 0.8828 0.3427 -0.3213
vn 0.1423 -0.9885 -0.0518
vn 0.9208 0.1994 -0.3351
vn 0.9343 -0.1069 -0.3401
vn 0.1631 0.9848 -0.0594
vn 0.9040 -0.2730 -0.3290
vn 0.4413 0.8829 -0.1606
vn 0.8446 -0.4383 -0.3074
vn 0.6298 0.7422 -0.2292
vn 0.7490 -0.6038 -0.2726
vn 0.7490 0.6038 -0.2726
vn 0.6054 -0.7648 -0.2203
vn 0.4280 -0.9038 -0.0000
vn 0.9394 0.3427 -0.0000
vn 0.1514 -0.9885 -0.0000
vn 0.9799 0.1994 -0.0000
vn 0.9943 -0.1069 -0.0000
vn 0.1735 0.9848 -0.0000
vn 0.9620 -0.2730 -0.0000
vn 0.4696 0.8829 -0.0000
vn 0.8989 -0.4383 -0.0000
vn 0.6702 0.7422 -0.0000
vn 0.7971 -0.6038 -0.0000
vn 0.7971 0.6038 -0.0000
vn 0.6442 -0.7648 -0.0000
vn 0.8807 0.4736 -0.0000
vn 0.1423 -0.9885 0.0518
vn 0.9208 0.1994 0.3351
vn 0.9343 -0.1069 0.3401
vn 0.1631 0.9848 0.0594
vn 0.9040 -0.2730 0.3290
vn 0.4413 0.8829 0.1606
vn 0.8446 -0.4383 0.3074
vn 0.6298 0.7422 0.2292
vn 0.7490 -0.6038 0.2726
vn 0.7490 0.6038 0.2726
vn 0.6054 -0.7648 0.2203
vn 0.8276 0.4736 0.3012
vn 0.4022 -0.9038 0.1464
vn 0.8828 0.3427 0.3213
vn 0.7507 0.1994 0.6299
vn 0.7617 -0.1069 0.6391
vn 0.1329 0.9848 0.1116
vn 0.7369 -0.2730 0.6184
vn 0.3598 0.8829 0.3019
vn 0.6886 -0.4383 0.5778
vn 0.5134 0.7422 0.4308
vn 0.6106 -0.6038 0.5124
vn 0.6106 0.6038 0.5124
vn 0.4935 -0.7648 0.4141
vn 0.6747 0.4736 0.5661
vn 0.3279 -0.9038 0.2751
vn 0.7196 0.3427 0.6039
vn 0.1160 -0.9885 0.0973
vn 0.4971 -0.1069 0.8611
vn 0.0868 0.9848 0.1503
vn 0.4810 -0.2730 0.8331
vn 0.2348 0.8829 0.4067
vn 0.4494 -0.4383 0.7784
vn 0.3351 0.7422 0.5804
vn 0.3986 -0.6038 0.6903
vn 0.3986 0.6038 0.6903
vn 0.3221 -0.7648 0.5579
vn 0.4404 0.4736 0.7627
vn 0.2140 -0.9038 0.3707
vn 0.4697 0.3427 0.8136
vn 0.0757 -0.9885 0.1312
vn 0.4900 0.1994 0.8486
vn 0.1727 -0.1069 0.9792
vn 0.0301 0.9848 0.1709
vn 0.1671 -0.2730 0.9474
vn 0.0816 0.8829 0.4625
vn 0.1561 -0.4383 0.8852
vn 0.1164 0.7422 0.6600
vn 0.1384 -0.6038 0.7850
vn 0.1384 0.6038 0.7850
vn 0.1119 -0.7648 0.6344
vn 0.1529 0.4736 0.8674
vn 0.0743 -0.9038 0.4215
vn 0.1631 0.3427 0.9252
vn 0.0263 -0.9885 0.1491
vn 0.1702 0.1994 0.9650
vn -0.1671 -0.2730 0.9474
vn -0.0816 0.8829 0.4625
vn -0.1561 -0.4383 0.8852
vn -0.1164 0.7422 0.6600
vn -0.1384 -0.6038 0.7850
vn -0.1384 0.6038 0.7850
vn -0.1119 -0.7648 0.6344
vn -0.1529 0.4736 0.8674
vn -0.0743 -0.9038 0.4215
vn -0.1631 0.3427 0.9252
vn -0.0263 -0.9885 0.1491
vn -0.1702 0.1994 0.9650
vn -0.1727 -0.1069 0.9792
vn -0.0301 0.9848 0.1709
vn -0.2348 0.8829 0.4067
vn -0.4494 -0.4383 0.7784
vn -0.3351 0.7422 0.5804
vn -0.3986 -0.6038 0.6903
vn -0.3986 0.6038 0.6903
vn -0.3221 -0.7648 0.5579
vn -0.4404 0.4736 0.7627
vn -0.2140 -0.9038 0.3707
vn -0.4697 0.3427 0.8136
vn -0.0757 -0.9885 0.1312
vn -0.4900 0.1994 0.8486
vn -0.4971 -0.1069 0.8611
vn -0.0868 0.9848 0.1503
vn -0.4810 -0.2730 0.8331
vn -0.6886 -0.4383 0.5778
vn -0.5134 0.7422 0.4308
vn -0.6106 -0.6038 0.5124
vn -0.6106 0.6038 0.5124
vn -0.4935 -0.7648 0.4141
vn -0.6747 0.4736 0.5661
vn -0.3279 -0.9038 0.2751
vn -0.7196 0.3427 0.6039
vn -0.1160 -0.9885 0.0973
vn -0.7507 0.1994 0.6299
vn -0.7617 -0.1069 0.6391
vn -0.1329 0.9848 0.1116
vn -0.7369 -0.2730 0.6184
vn -0.3598 0.8829 0.3019
vn -0.6298 0.7422 0.2292
vn -0.7490 -0.6038 0.2726
vn -0.7490 0.6038 0.2726
vn -0.6054 -0.7648 0.2203
vn -0.8276 0.4736 0.3012
vn -0.4022 -0.9038 0.1464
vn -0.8828 0.3427 0.3213
vn -0.1423 -0.9885 0.0518
vn -0.9208 0.1994 0.3351
vn -0.9343 -0.1069 0.3401
vn -0.1631 0.9848 0.0594
vn -0.9040 -0.2730 0.3290
vn -0.4413 0.8829 0.1606
vn -0.8446 -0.4383 0.3074
vn -0.7971 -0.6038 -0.0000
vn -0.7971 0.6038 -0.0000
vn -0.6442 -0.7648 -0.0000
vn -0.8807 0.4736 -0.0000
vn -0.4280 -0.9038 -0.0000
vn -0.9394 0.3427 -0.0000
vn -0.1514 -0.9885 -0.0000
vn -0.9799 0.1994 -0.0000
vn -0.9943 -0.1069 -0.0000
vn -0.1736 0.9848 -0.0000
vn -0.9620 -0.2730 -0.0000
vn -0.4696 0.8829 -0.0000
vn -0.8989 -0.4383 -0.0000
vn -0.6702 0.7422 -0.0000
vn -0.6054 -0.7648 -0.2203
vn -0.8276 0.4736 -0.3012
vn -0.4022 -0.9038 -0.1464
vn -0.8828 0.3427 -0.3213
vn -0.1423 -0.9885 -0.0518
vn -0.9208 0.1994 -0.3351
vn -0.9343 -0.1069 -0.3401
vn -0.1631 0.9848 -0.0594
vn -0.9040 -0.2730 -0.3290
vn -0.4413 0.8829 -0.1606
vn -0.8446 -0.4383 -0.3074
vn -0.6298 0.7422 -0.2292
vn -0.7490 -0.6038 -0.2726
vn -0.7490 0.6038 -0.2726
vn -0.6747 0.4736 -0.5661
vn -0.3279 -0.9038 -0.2751
vn -0.7196 0.3427 -0.6039
vn -0.1160 -0.9885 -0.0973
vn -0.7507 0.1994 -0.6299
vn -0.7617 -0.1069 -0.6391
vn -0.1330 0.9848 -0.1116
vn -0.7369 -0.2730 -0.6184
vn -0.3598 0.8829 -0.3019
vn -0.6886 -0.4383 -0.5778
vn -0.5134 0.7422 -0.4308
vn -0.6106 -0.6038 -0.5124
vn -0.6106 0.6038 -0.5124
vn -0.4935 -0.7648 -0.4141
vn -0.2140 -0.9038 -0.3707
vn -0.4697 0.3427 -0.8136
vn -0.0757 -0.9885 -0.1312
vn -0.4900 0.1994 -0.8486
vn -0.4971 -0.1069 -0.8611
vn -0.0868 0.9848 -0.1503
vn -0.4810 -0.2730 -0.8331
vn -0.2348 0.8829 -0.4067
vn -0.4494 -0.4383 -0.7784
vn -0.3351 0.7422 -0.5804
vn -0.3986 -0.6038 -0.6903
vn -0.3986 0.6038 -0.6903
vn -0.3221 -0.7648 -0.5579
vn -0.4404 0.4736 -0.7627
vn -0.1631 0.3427 -0.9252
vn -0.0263 -0.9885 -0.1491
vn -0.1702 0.1994 -0.9650
vn -0.1727 -0.1069 -0.9792
vn -0.0301 0.9848 -0.1709
vn -0.1671 -0.2730 -0.9474
vn -0.0816 0.8829 -0.4625
vn -0.1561 -0.4383 -0.8852
vn -0.1164 0.7422 -0.6600
vn -0.1384 -0.6038 -0.7850
vn -0.1384 0.6038 -0.7850
vn -0.1119 -0.7648 -0.6344
vn -0.1529 0.4736 -0.8674
vn -0.0743 -0.9038 -0.4215
s 0
usemtl EF_Egg_nebula_Shell
f 226//1 225//1 4//1 5//1
f 234//2 233//2 12//2 13//2
f 227//3 226//3 5//3 6//3
f 235//4 234//4 13//4 14//4
f 228//5 227//5 6//5 7//5
f 236//6 235//6 14//6 15//6
f 229//7 228//7 7//7 8//7
f 2//8 236//8 15//8
f 230//9 229//9 8//9 9//9
f 231//10 230//10 9//10 10//10
f 224//11 1//11 3//11
f 232//12 231//12 10//12 11//12
f 225//13 224//13 3//13 4//13
f 233//14 232//14 11//14 12//14
f 14//16 13//16 26//16 27//16
f 15//18 14//18 27//18 28//18
f 8//19 7//19 20//19 21//19
f 2//20 15//20 28//20
f 9//21 8//21 21//21 22//21
f 10//22 9//22 22//22 23//22
f 3//23 1//23 16//23
f 11//24 10//24 23//24 24//24
f 4//25 3//25 16//25 17//25
f 12//26 11//26 24//26 25//26
f 5//27 4//27 17//27 18//27
f 13//28 12//28 25//28 26//28
f 27//29 26//29 39//29 40//29
f 20//30 19//30 32//30 33//30
f 28//31 27//31 40//31 41//31
f 21//32 20//32 33//32 34//32
f 2//33 28//33 41//33
f 23//35 22//35 35//35 36//35
f 16//36 1//36 29//36
f 24//37 23//37 36//37 37//37
f 17//38 16//38 29//38 30//38
f 25//39 24//39 37//39 38//39
f 18//40 17//40 30//40 31//40
f 26//41 25//41 38//41 39//41
f 19//42 18//42 31//42 32//42
f 33//43 32//43 45//43 46//43
f 41//44 40//44 53//44 54//44
f 34//45 33//45 46//45 47//45
f 2//46 41//46 54//46
f 29//49 1//49 42//49
f 37//50 36//50 49//50 50//50
f 30//51 29//51 42//51 43//51
f 38//52 37//52 50//52 51//52
f 31//53 30//53 43//53 44//53
f 39//54 38//54 51//54 52//54
f 32//55 31//55 44//55 45//55
f 40//56 39//56 52//56 53//56
f 54//57 53//57 66//57 67//57
f 47//58 46//58 59//58 60//58
f 2//59 54//59 67//59
f 48//60 47//60 60//60 61//60
f 42//62 1//62 55//62
f 50//63 49//63 62//63 63//63
f 43//64 42//64 55//64 56//64
f 51//65 50//65 63//65 64//65
f 44//66 43//66 56//66 57//66
f 52//67 51//67 64//67 65//67
f 45//68 44//68 57//68 58//68
f 53//69 52//69 65//69 66//69
f 46//70 45//70 58//70 59//70
f 2//71 67//71 80//71
f 61//72 60//72 73//72 74//72
f 62//73 61//73 74//73 75//73
f 55//74 1//74 68//74
f 63//75 62//75 75//75 76//75
f 56//76 55//76 68//76 69//76
f 64//77 63//77 76//77 77//77
f 57//78 56//78 69//78 70//78
f 65//79 64//79 77//79 78//79
f 66//81 65//81 78//81 79//81
f 67//83 66//83 79//83 80//83
f 60//84 59//84 72//84 73//84
f 74//85 73//85 86//85 87//85
f 75//86 74//86 87//86 88//86
f 68//87 1//87 81//87
f 76//88 75//88 88//88 89//88
f 69//89 68//89 81//89 82//89
f 77//90 76//90 89//90 90//90
f 70//91 69//91 82//91 83//91
f 78//92 77//92 90//92 91//92
f 79//94 78//94 91//94 92//94
f 80//96 79//96 92//96 93//96
f 73//97 72//97 85//97 86//97
f 2//98 80//98 93//98
f 88//99 87//99 100//99 101//99
f 81//100 1//100 94//100
f 89//101 88//101 101//101 102//101
f 82//102 81//102 94//102 95//102
f 90//103 89//103 102//103 103//103
f 83//104 82//104 95//104 96//104
f 91//105 90//105 103//105 104//105
f 92//107 91//107 104//107 105//107
f 93//109 92//109 105//109 106//109
f 86//110 85//110 98//110 99//110
f 2//111 93//111 106//111
f 87//112 86//112 99//112 100//112
f 101//113 100//113 113//113 114//113
f 94//114 1//114 107//114
f 102//115 101//115 114//115 115//115
f 95//116 94//116 107//116 108//116
f 103//117 102//117 115//117 116//117
f 96//118 95//118 108//118 109//118
f 104//119 103//119 116//119 117//119
f 105//121 104//121 117//121 118//121
f 106//123 105//123 118//123 119//123
f 99//124 98//124 111//124 112//124
f 2//125 106//125 119//125
f 100//126 99//126 112//126 113//126
f 115//127 114//127 127//127 128//127
f 108//128 107//128 120//128 121//128
f 116//129 115//129 128//129 129//129
f 109//130 108//130 121//130 122//130
f 117//131 116//131 129//131 130//131
f 110//132 109//132 122//132 123//132
f 118//133 117//133 130//133 131//133
f 111//134 110//134 123//134 124//134
f 119//135 118//135 131//135 132//135
f 112//136 111//136 124//136 125//136
f 2//137 119//137 132//137
f 113//138 112//138 125//138 126//138
f 114//139 113//139 126//139 127//139
f 107//140 1//140 120//140
f 121//141 120//141 133//141 134//141
f 129//142 128//142 141//142 142//142
f 122//143 121//143 134//143 135//143
f 130//144 129//144 142//144 143//144
f 123//145 122//145 135//145 136//145
f 131//146 130//146 143//146 144//146
f 124//147 123//147 136//147 137//147
f 132//148 131//148 144//148 145//148
f 125//149 124//149 137//149 138//149
f 2//150 132//150 145//150
f 126//151 125//151 138//151 139//151
f 120//153 1//153 133//153
f 128//154 127//154 140//154 141//154
f 142//155 141//155 154//155 155//155
f 135//156 134//156 147//156 148//156
f 143//157 142//157 155//157 156//157
f 136//158 135//158 148//158 149//158
f 144//159 143//159 156//159 157//159
f 145//161 144//161 157//161 158//161
f 2//163 145//163 158//163
f 139//164 138//164 151//164 152//164
f 140//165 139//165 152//165 153//165
f 133//166 1//166 146//166
f 141//167 140//167 153//167 154//167
f 134//168 133//168 146//168 147//168
f 148//169 147//169 160//169 161//169
f 156//170 155//170 168//170 169//170
f 149//171 148//171 161//171 162//171
f 157//172 156//172 169//172 170//172
f 158//174 157//174 170//174 171//174
f 2//176 158//176 171//176
f 152//177 151//177 164//177 165//177
f 153//178 152//178 165//178 166//178
f 146//179 1//179 159//179
f 154//180 153//180 166//180 167//180
f 147//181 146//181 159//181 160//181
f 155//182 154//182 167//182 168//182
f 169//183 168//183 181//183 182//183
f 162//184 161//184 174//184 175//184
f 170//185 169//185 182//185 183//185
f 163//186 162//186 175//186 176//186
f 171//187 170//187 183//187 184//187
f 164//188 163//188 176//188 177//188
f 2//189 171//189 184//189
f 165//190 164//190 177//190 178//190
f 166//191 165//191 178//191 179//191
f 159//192 1//192 172//192
f 167//193 166//193 179//193 180//193
f 160//194 159//194 172//194 173//194
f 168//195 167//195 180//195 181//195
f 161//196 160//196 173//196 174//196
f 183//197 182//197 195//197 196//197
f 176//198 175//198 188//198 189//198
f 184//199 183//199 196//199 197//199
f 177//200 176//200 189//200 190//200
f 2//201 184//201 197//201
f 178//202 177//202 190//202 191//202
f 179//203 178//203 191//203 192//203
f 172//204 1//204 185//204
f 180//205 179//205 192//205 193//205
f 173//206 172//206 185//206 186//206
f 181//207 180//207 193//207 194//207
f 174//208 173//208 186//208 187//208
f 182//209 181//209 194//209 195//209
f 197//212 196//212 209//212 210//212
f 190//213 189//213 202//213 203//213
f 2//214 197//214 210//214
f 191//215 190//215 203//215 204//215
f 192//216 191//216 204//216 205//216
f 185//217 1//217 198//217
f 193//218 192//218 205//218 206//218
f 186//219 185//219 198//219 199//219
f 194//220 193//220 206//220 207//220
f 187//221 186//221 199//221 200//221
f 195//222 194//222 207//222 208//222
f 196//224 195//224 208//224 209//224
f 210//225 209//225 222//225 223//225
f 203//226 202//226 215//226 216//226
f 2//227 210//227 223//227
f 204//228 203//228 216//228 217//228
f 205//229 204//229 217//229 218//229
f 198//230 1//230 211//230
f 206//231 205//231 218//231 219//231
f 199//232 198//232 211//232 212//232
f 207//233 206//233 219//233 220//233
f 200//234 199//234 212//234 213//234
f 208//235 207//235 220//235 221//235
f 201//236 200//236 213//236 214//236
f 209//237 208//237 221//237 222//237
f 216//239 215//239 228//239 229//239
f 2//240 223//240 236//240
f 217//241 216//241 229//241 230//241
f 218//242 217//242 230//242 231//242
f 211//243 1//243 224//243
f 219//244 218//244 231//244 232//244
f 212//245 211//245 224//245 225//245
f 220//246 219//246 232//246 233//246
f 213//247 212//247 225//247 226//247
f 221//248 220//248 233//248 234//248
f 214//249 213//249 226//249 227//249
f 222//250 221//250 234//250 235//250
f 223//252 222//252 235//252 236//252
usemtl EF_Egg_nebula_Spots
f 6//15 5//15 18//15 19//15
f 7//17 6//17 19//17 20//17
f 22//34 21//34 34//34 35//34
f 35//47 34//47 47//47 48//47
f 36//48 35//48 48//48 49//48
f 49//61 48//61 61//61 62//61
f 58//80 57//80 70//80 71//80
f 59//82 58//82 71//82 72//82
f 71//93 70//93 83//93 84//93
f 72//95 71//95 84//95 85//95
f 84//106 83//106 96//106 97//106
f 85//108 84//108 97//108 98//108
f 97//120 96//120 109//120 110//120
f 98//122 97//122 110//122 111//122
f 127//152 126//152 139//152 140//152
f 137//160 136//160 149//160 150//160
f 138//162 137//162 150//162 151//162
f 150//173 149//173 162//173 163//173
f 151//175 150//175 163//175 164//175
f 175//210 174//210 187//210 188//210
f 189//211 188//211 201//211 202//211
f 188//223 187//223 200//223 201//223
f 202//238 201//238 214//238 215//238
f 215//251 214//251 227//251 228//251
