# Blender 5.0.1
# www.blender.org
mtllib Egg_cactus.mtl
o Egg_cactus
v 0.000000 0.364000 0.000000
v 0.000000 0.283114 0.106058
v 0.000000 0.251648 0.121424
v 0.000000 0.080886 0.114466
v 0.000000 0.000000 0.000000
v -0.005960 0.360503 0.022242
v -0.011817 0.350146 0.044100
v -0.017453 0.333327 0.065135
v -0.022723 0.310693 0.084803
v -0.027450 0.283114 0.102444
v -0.031427 0.251648 0.117286
v -0.034429 0.217506 0.128491
v -0.036235 0.182000 0.135230
v -0.035330 0.146494 0.131855
v -0.033092 0.112352 0.123502
v -0.029626 0.080886 0.110565
v -0.025078 0.053307 0.093593
v -0.019629 0.030673 0.073256
v -0.013482 0.013854 0.050316
v -0.006861 0.003497 0.025606
v -0.011513 0.360503 0.019942
v -0.022828 0.350146 0.039539
v -0.033716 0.333327 0.058398
v -0.043897 0.310693 0.076033
v -0.053029 0.283114 0.091849
v -0.060712 0.251648 0.105156
v -0.066512 0.217506 0.115202
v -0.070000 0.182000 0.121244
v -0.068253 0.146494 0.118218
v -0.063929 0.112352 0.110728
v -0.057233 0.080886 0.099130
v -0.048447 0.053307 0.083913
v -0.037920 0.030673 0.065679
v -0.026045 0.013854 0.045112
v -0.013254 0.003497 0.022957
v -0.016282 0.360503 0.016282
v -0.032284 0.350146 0.032284
v -0.047682 0.333327 0.047682
v -0.062080 0.310693 0.062080
v -0.074995 0.283114 0.074995
v -0.085859 0.251648 0.085859
v -0.094062 0.217506 0.094062
v -0.098995 0.182000 0.098995
v -0.096525 0.146494 0.096525
v -0.090409 0.112352 0.090409
v -0.080939 0.080886 0.080939
v -0.068515 0.053307 0.068515
v -0.053627 0.030673 0.053627
v -0.036834 0.013854 0.036834
v -0.018745 0.003497 0.018745
v -0.019942 0.360503 0.011513
v -0.039539 0.350146 0.022828
v -0.058398 0.333327 0.033716
v -0.076033 0.310693 0.043897
v -0.091849 0.283114 0.053029
v -0.105156 0.251648 0.060712
v -0.115202 0.217506 0.066512
v -0.121244 0.182000 0.070000
v -0.118218 0.146494 0.068253
v -0.110728 0.112352 0.063929
v -0.099130 0.080886 0.057233
v -0.083913 0.053307 0.048447
v -0.065679 0.030673 0.037920
v -0.045112 0.013854 0.026045
v -0.022957 0.003497 0.013255
v -0.022242 0.360503 0.005960
v -0.044100 0.350146 0.011817
v -0.065135 0.333327 0.017453
v -0.084803 0.310693 0.022723
v -0.102444 0.283114 0.027450
v -0.117286 0.251648 0.031427
v -0.128491 0.217506 0.034429
v -0.135230 0.182000 0.036235
v -0.131855 0.146494 0.035330
v -0.123502 0.112352 0.033092
v -0.110565 0.080886 0.029626
v -0.093593 0.053307 0.025078
v -0.073255 0.030673 0.019629
v -0.050316 0.013854 0.013482
v -0.025606 0.003497 0.006861
v -0.023027 0.360503 0.000000
v -0.045656 0.350146 0.000000
v -0.067432 0.333327 0.000000
v -0.087795 0.310693 0.000000
v -0.106058 0.283114 0.000000
v -0.121423 0.251648 0.000000
v -0.133024 0.217506 0.000000
v -0.140000 0.182000 0.000000
v -0.136506 0.146494 0.000000
v -0.127858 0.112352 0.000000
v -0.114466 0.080886 0.000000
v -0.096895 0.053307 0.000000
v -0.075840 0.030673 0.000000
v -0.052091 0.013854 0.000000
v -0.026509 0.003497 0.000000
v -0.022242 0.360503 -0.005960
v -0.044100 0.350146 -0.011817
v -0.065135 0.333327 -0.017453
v -0.084803 0.310693 -0.022723
v -0.102444 0.283114 -0.027450
v -0.117286 0.251648 -0.031427
v -0.128491 0.217506 -0.034429
v -0.135230 0.182000 -0.036235
v -0.131855 0.146494 -0.035330
v -0.123502 0.112352 -0.033092
v -0.110565 0.080886 -0.029626
v -0.093593 0.053307 -0.025078
v -0.073255 0.030673 -0.019629
v -0.050316 0.013854 -0.013482
v -0.025606 0.003497 -0.006861
v -0.019942 0.360503 -0.011513
v -0.039539 0.350146 -0.022828
v -0.058398 0.333327 -0.033716
v -0.076033 0.310693 -0.043897
v -0.091849 0.283114 -0.053029
v -0.105156 0.251648 -0.060712
v -0.115202 0.217506 -0.066512
v -0.121243 0.182000 -0.070000
v -0.118218 0.146494 -0.068253
v -0.110728 0.112352 -0.063929
v -0.099130 0.080886 -0.057233
v -0.083913 0.053307 -0.048447
v -0.065679 0.030673 -0.037920
v -0.045112 0.013854 -0.026045
v -0.022957 0.003497 -0.013254
v -0.016282 0.360503 -0.016282
v -0.032284 0.350146 -0.032284
v -0.047682 0.333327 -0.047682
v -0.062080 0.310693 -0.062080
v -0.074994 0.283114 -0.074995
v -0.085859 0.251648 -0.085859
v -0.094062 0.217506 -0.094062
v -0.098995 0.182000 -0.098995
v -0.096524 0.146494 -0.096524
v -0.090409 0.112352 -0.090409
v -0.080939 0.080886 -0.080939
v -0.068515 0.053307 -0.068515
v -0.053627 0.030673 -0.053627
v -0.036834 0.013854 -0.036834
v -0.018745 0.003497 -0.018745
v -0.011513 0.360503 -0.019942
v -0.022828 0.350146 -0.039539
v -0.033716 0.333327 -0.058398
v -0.043897 0.310693 -0.076033
v -0.053029 0.283114 -0.091849
v -0.060712 0.251648 -0.105156
v -0.066512 0.217506 -0.115202
v -0.070000 0.182000 -0.121244
v -0.068253 0.146494 -0.118218
v -0.063929 0.112352 -0.110728
v -0.057233 0.080886 -0.099130
v -0.048447 0.053307 -0.083913
v -0.037920 0.030673 -0.065679
v -0.026045 0.013854 -0.045112
v -0.013254 0.003497 -0.022957
v -0.005960 0.360503 -0.022242
v -0.011817 0.350146 -0.044100
v -0.017453 0.333327 -0.065135
v -0.022723 0.310693 -0.084803
v -0.027450 0.283114 -0.102444
v -0.031427 0.251648 -0.117286
v -0.034429 0.217506 -0.128491
v -0.036235 0.182000 -0.135230
v -0.035330 0.146494 -0.131855
v -0.033092 0.112352 -0.123501
v -0.029626 0.080886 -0.110565
v -0.025078 0.053307 -0.093593
v -0.019629 0.030673 -0.073255
v -0.013482 0.013854 -0.050316
v -0.006861 0.003497 -0.025606
v 0.000000 0.360503 -0.023027
v 0.000000 0.350146 -0.045656
v 0.000000 0.333327 -0.067432
v 0.000000 0.310693 -0.087795
v 0.000000 0.283114 -0.106058
v 0.000000 0.251648 -0.121423
v 0.000000 0.217506 -0.133024
v 0.000000 0.182000 -0.140000
v 0.000000 0.146494 -0.136506
v 0.000000 0.112352 -0.127858
v 0.000000 0.080886 -0.114466
v 0.000000 0.053307 -0.096895
v 0.000000 0.030673 -0.075840
v 0.000000 0.013854 -0.052091
v 0.000000 0.003497 -0.026509
v 0.005960 0.360503 -0.022242
v 0.011817 0.350146 -0.044100
v 0.017453 0.333327 -0.065135
v 0.022723 0.310693 -0.084803
v 0.027450 0.283114 -0.102444
v 0.031427 0.251648 -0.117286
v 0.034429 0.217506 -0.128491
v 0.036235 0.182000 -0.135230
v 0.035330 0.146494 -0.131855
v 0.033092 0.112352 -0.123501
v 0.029626 0.080886 -0.110565
v 0.025078 0.053307 -0.093593
v 0.019629 0.030673 -0.073255
v 0.013482 0.013854 -0.050316
v 0.006861 0.003497 -0.025606
v 0.011513 0.360503 -0.019942
v 0.022828 0.350146 -0.039539
v 0.033716 0.333327 -0.058398
v 0.043897 0.310693 -0.076033
v 0.053029 0.283114 -0.091849
v 0.060712 0.251648 -0.105156
v 0.066512 0.217506 -0.115202
v 0.070000 0.182000 -0.121243
v 0.068253 0.146494 -0.118218
v 0.063929 0.112352 -0.110728
v 0.057233 0.080886 -0.099130
v 0.048447 0.053307 -0.083913
v 0.037920 0.030673 -0.065679
v 0.026045 0.013854 -0.045112
v 0.013255 0.003497 -0.022957
v 0.016282 0.360503 -0.016282
v 0.032284 0.350146 -0.032284
v 0.047682 0.333327 -0.047682
v 0.062080 0.310693 -0.062080
v 0.074995 0.283114 -0.074994
v 0.085859 0.251648 -0.085859
v 0.094062 0.217506 -0.094062
v 0.098995 0.182000 -0.098995
v 0.096525 0.146494 -0.096524
v 0.090409 0.112352 -0.090409
v 0.080939 0.080886 -0.080939
v 0.068515 0.053307 -0.068515
v 0.053627 0.030673 -0.053627
v 0.036834 0.013854 -0.036834
v 0.018745 0.003497 -0.018745
v 0.019942 0.360503 -0.011513
v 0.039539 0.350146 -0.022828
v 0.058398 0.333327 -0.033716
v 0.076033 0.310693 -0.043897
v 0.091849 0.283114 -0.053029
v 0.105156 0.251648 -0.060712
v 0.115202 0.217506 -0.066512
v 0.121244 0.182000 -0.070000
v 0.118218 0.146494 -0.068253
v 0.110728 0.112352 -0.063929
v 0.099130 0.080886 -0.057233
v 0.083913 0.053307 -0.048447
v 0.065679 0.030673 -0.037920
v 0.045112 0.013854 -0.026045
v 0.022958 0.003497 -0.013254
v 0.022242 0.360503 -0.005960
v 0.044100 0.350146 -0.011817
v 0.065135 0.333327 -0.017453
v 0.084803 0.310693 -0.022723
v 0.102444 0.283114 -0.027450
v 0.117286 0.251648 -0.031427
v 0.128491 0.217506 -0.034429
v 0.135230 0.182000 -0.036235
v 0.131855 0.146494 -0.035330
v 0.123502 0.112352 -0.033092
v 0.110565 0.080886 -0.029626
v 0.093593 0.053307 -0.025078
v 0.073256 0.030673 -0.019629
v 0.050316 0.013854 -0.013482
v 0.025606 0.003497 -0.006861
v 0.023027 0.360503 0.000000
v 0.045656 0.350146 0.000000
v 0.067432 0.333327 0.000000
v 0.087795 0.310693 0.000000
v 0.106058 0.283114 0.000000
v 0.121424 0.251648 0.000000
v 0.133024 0.217506 0.000000
v 0.140000 0.182000 0.000000
v 0.136506 0.146494 0.000000
v 0.127858 0.112352 0.000000
v 0.114466 0.080886 0.000000
v 0.096895 0.053307 0.000000
v 0.075840 0.030673 0.000000
v 0.052091 0.013854 0.000000
v 0.026509 0.003497 0.000000
v 0.022242 0.360503 0.005960
v 0.044100 0.350146 0.011817
v 0.065135 0.333327 0.017453
v 0.084803 0.310693 0.022723
v 0.102444 0.283114 0.027450
v 0.117286 0.251648 0.031427
v 0.128491 0.217506 0.034429
v 0.135230 0.182000 0.036235
v 0.131855 0.146494 0.035330
v 0.123502 0.112352 0.033092
v 0.110565 0.080886 0.029626
v 0.093593 0.053307 0.025078
v 0.073256 0.030673 0.019629
v 0.050316 0.013854 0.013482
v 0.025606 0.003497 0.006861
v 0.019942 0.360503 0.011513
v 0.039539 0.350146 0.022828
v 0.058398 0.333327 0.033716
v 0.076033 0.310693 0.043897
v 0.091849 0.283114 0.053029
v 0.105156 0.251648 0.060712
v 0.115202 0.217506 0.066512
v 0.121243 0.182000 0.070000
v 0.118218 0.146494 0.068253
v 0.110728 0.112352 0.063929
v 0.099130 0.080886 0.057233
v 0.083913 0.053307 0.048447
v 0.065679 0.030673 0.037920
v 0.045112 0.013854 0.026045
v 0.022957 0.003497 0.013255
v 0.016282 0.360503 0.016282
v 0.032284 0.350146 0.032284
v 0.047682 0.333327 0.047682
v 0.062080 0.310693 0.062080
v 0.074995 0.283114 0.074995
v 0.085859 0.251648 0.085859
v 0.094062 0.217506 0.094062
v 0.098995 0.182000 0.098995
v 0.096525 0.146494 0.096525
v 0.090409 0.112352 0.090409
v 0.080939 0.080886 0.080939
v 0.068515 0.053307 0.068515
v 0.053627 0.030673 0.053627
v 0.036834 0.013854 0.036834
v 0.018745 0.003497 0.018745
v 0.011513 0.360503 0.019942
v 0.022828 0.350146 0.039539
v 0.033716 0.333327 0.058398
v 0.043897 0.310693 0.076033
v 0.053029 0.283114 0.091849
v 0.060712 0.251648 0.105156
v 0.066512 0.217506 0.115202
v 0.070000 0.182000 0.121244
v 0.068253 0.146494 0.118218
v 0.063929 0.112352 0.110728
v 0.057233 0.080886 0.099130
v 0.048447 0.053307 0.083913
v 0.037920 0.030673 0.065679
v 0.026045 0.013854 0.045112
v 0.013255 0.003497 0.022957
v 0.005960 0.360503 0.022242
v 0.011817 0.350146 0.044100
v 0.017453 0.333327 0.065135
v 0.022723 0.310693 0.084803
v 0.027450 0.283114 0.102444
v 0.031427 0.251648 0.117286
v 0.034429 0.217506 0.128491
v 0.036235 0.182000 0.135230
v 0.035330 0.146494 0.131855
v 0.033092 0.112352 0.123502
v 0.029626 0.080886 0.110565
v 0.025078 0.053307 0.093593
v 0.019629 0.030673 0.073256
v 0.013482 0.013854 0.050316
v 0.006861 0.003497 0.025606
v 0.000000 0.360503 0.023027
v 0.000000 0.350146 0.045656
v 0.000000 0.333327 0.067432
v 0.000000 0.310693 0.087795
v 0.000000 0.217506 0.133024
v -0.000000 0.182000 0.140000
v 0.000000 0.146494 0.136506
v -0.000000 0.112352 0.127858
v 0.000000 0.053307 0.096895
v 0.000000 0.030673 0.075840
v 0.000000 0.013854 0.052091
v 0.000000 0.003497 0.026509
vn -0.1281 0.1912 0.9732
vn -0.0198 0.9885 0.1501
vn -0.0172 -0.9913 0.1308
vn -0.1299 -0.0971 0.9868
vn -0.0547 0.9079 0.4155
vn -0.1266 -0.2436 0.9616
vn -0.0802 0.7889 0.6093
vn -0.1203 -0.3888 0.9134
vn -0.0974 0.6656 0.7399
vn -0.1104 -0.5340 0.8382
vn -0.1091 0.5488 0.8288
vn -0.0959 -0.6780 0.7288
vn -0.1175 0.4358 0.8924
vn -0.0759 -0.8137 0.5763
vn -0.1237 0.3192 0.9396
vn -0.0493 -0.9258 0.3748
vn -0.2224 -0.8137 0.5370
vn -0.3627 0.3192 0.8755
vn -0.1447 -0.9258 0.3493
vn -0.3756 0.1912 0.9068
vn -0.0580 0.9885 0.1399
vn -0.0505 -0.9913 0.1219
vn -0.3809 -0.0971 0.9195
vn -0.1604 0.9079 0.3872
vn -0.3712 -0.2436 0.8961
vn -0.2352 0.7889 0.5678
vn -0.3526 -0.3888 0.8512
vn -0.2856 0.6656 0.6895
vn -0.3235 -0.5340 0.7811
vn -0.3199 0.5488 0.7723
vn -0.2813 -0.6780 0.6791
vn -0.3444 0.4358 0.8315
vn -0.5609 -0.3888 0.7309
vn -0.4543 0.6656 0.5921
vn -0.5147 -0.5340 0.6708
vn -0.5089 0.5488 0.6632
vn -0.4475 -0.6780 0.5832
vn -0.5479 0.4358 0.7141
vn -0.3538 -0.8137 0.4611
vn -0.5769 0.3192 0.7518
vn -0.2301 -0.9258 0.2999
vn -0.5975 0.1912 0.7787
vn -0.0922 0.9885 0.1201
vn -0.0803 -0.9913 0.1046
vn -0.6059 -0.0971 0.7896
vn -0.2551 0.9079 0.3325
vn -0.5904 -0.2436 0.7695
vn -0.3741 0.7889 0.4875
vn -0.2999 -0.9258 0.2301
vn -0.7787 0.1912 0.5975
vn -0.1201 0.9885 0.0922
vn -0.1046 -0.9913 0.0803
vn -0.7896 -0.0971 0.6059
vn -0.3325 0.9079 0.2551
vn -0.7695 -0.2436 0.5904
vn -0.4875 0.7889 0.3741
vn -0.7309 -0.3888 0.5609
vn -0.5921 0.6656 0.4543
vn -0.6708 -0.5340 0.5147
vn -0.6632 0.5488 0.5089
vn -0.5832 -0.6780 0.4475
vn -0.7141 0.4358 0.5479
vn -0.4611 -0.8137 0.3538
vn -0.7518 0.3192 0.5769
vn -0.6895 0.6656 0.2856
vn -0.7811 -0.5340 0.3235
vn -0.7723 0.5488 0.3199
vn -0.6791 -0.6780 0.2813
vn -0.8315 0.4358 0.3444
vn -0.5370 -0.8137 0.2224
vn -0.8755 0.3192 0.3627
vn -0.3493 -0.9258 0.1447
vn -0.9068 0.1912 0.3756
vn -0.1399 0.9885 0.0579
vn -0.1219 -0.9913 0.0505
vn -0.9195 -0.0971 0.3809
vn -0.3872 0.9079 0.1604
vn -0.8961 -0.2436 0.3712
vn -0.5678 0.7889 0.2352
vn -0.8512 -0.3888 0.3526
vn -0.9732 0.1912 0.1281
vn -0.1501 0.9885 0.0198
vn -0.1308 -0.9913 0.0172
vn -0.9868 -0.0971 0.1299
vn -0.4155 0.9079 0.0547
vn -0.9616 -0.2436 0.1266
vn -0.6093 0.7889 0.0802
vn -0.9134 -0.3888 0.1203
vn -0.7399 0.6656 0.0974
vn -0.8382 -0.5340 0.1104
vn -0.8288 0.5488 0.1091
vn -0.7288 -0.6780 0.0959
vn -0.8924 0.4358 0.1175
vn -0.5763 -0.8137 0.0759
vn -0.9396 0.3192 0.1237
vn -0.3748 -0.9258 0.0493
vn -0.8382 -0.5340 -0.1104
vn -0.8288 0.5488 -0.1091
vn -0.7288 -0.6780 -0.0959
vn -0.8924 0.4358 -0.1175
vn -0.5763 -0.8137 -0.0759
vn -0.9396 0.3192 -0.1237
vn -0.3748 -0.9258 -0.0493
vn -0.9732 0.1912 -0.1281
vn -0.1501 0.9885 -0.0198
vn -0.1308 -0.9913 -0.0172
vn -0.9868 -0.0971 -0.1299
vn -0.4155 0.9079 -0.0547
vn -0.9616 -0.2436 -0.1266
vn -0.6093 0.7889 -0.0802
vn -0.9134 -0.3888 -0.1203
vn -0.7399 0.6656 -0.0974
vn -0.1399 0.9885 -0.0579
vn -0.1219 -0.9913 -0.0505
vn -0.9195 -0.0971 -0.3809
vn -0.3872 0.9079 -0.1604
vn -0.8961 -0.2436 -0.3712
vn -0.5678 0.7889 -0.2352
vn -0.8512 -0.3888 -0.3526
vn -0.6895 0.6656 -0.2856
vn -0.7811 -0.5340 -0.3235
vn -0.7723 0.5488 -0.3199
vn -0.6791 -0.6780 -0.2813
vn -0.8315 0.4358 -0.3444
vn -0.5370 -0.8137 -0.2224
vn -0.8755 0.3192 -0.3627
vn -0.3493 -0.9258 -0.1447
vn -0.9068 0.1912 -0.3756
vn -0.6632 0.5488 -0.5089
vn -0.5832 -0.6780 -0.4475
vn -0.7141 0.4358 -0.5479
vn -0.4611 -0.8137 -0.3538
vn -0.7518 0.3192 -0.5769
vn -0.2999 -0.9258 -0.2301
vn -0.7787 0.1912 -0.5975
vn -0.1201 0.9885 -0.0922
vn -0.1046 -0.9913 -0.0803
vn -0.7896 -0.0971 -0.6059
vn -0.3325 0.9079 -0.2551
vn -0.7695 -0.2436 -0.5904
vn -0.4875 0.7889 -0.3741
vn -0.7309 -0.3888 -0.5609
vn -0.5921 0.6656 -0.4543
vn -0.6708 -0.5340 -0.5147
vn -0.6059 -0.0971 -0.7896
vn -0.2551 0.9079 -0.3325
vn -0.5904 -0.2436 -0.7695
vn -0.3741 0.7889 -0.4875
vn -0.5609 -0.3888 -0.7309
vn -0.4543 0.6656 -0.5921
vn -0.5147 -0.5340 -0.6708
vn -0.5089 0.5488 -0.6632
vn -0.4475 -0.6780 -0.5832
vn -0.5479 0.4358 -0.7141
vn -0.3538 -0.8137 -0.4611
vn -0.5769 0.3192 -0.7518
vn -0.2301 -0.9258 -0.2999
vn -0.5975 0.1912 -0.7787
vn -0.0922 0.9885 -0.1201
vn -0.0803 -0.9913 -0.1046
vn -0.2813 -0.6780 -0.6791
vn -0.3444 0.4358 -0.8316
vn -0.2224 -0.8137 -0.5370
vn -0.3627 0.3192 -0.8755
vn -0.1447 -0.9258 -0.3493
vn -0.3756 0.1912 -0.9068
vn -0.0579 0.9885 -0.1399
vn -0.0505 -0.9913 -0.1219
vn -0.3809 -0.0971 -0.9195
vn -0.1604 0.9079 -0.3872
vn -0.3712 -0.2436 -0.8961
vn -0.2352 0.7889 -0.5678
vn -0.3526 -0.3888 -0.8512
vn -0.2856 0.6656 -0.6895
vn -0.3235 -0.5340 -0.7811
vn -0.3199 0.5488 -0.7723
vn -0.1266 -0.2436 -0.9616
vn -0.0802 0.7889 -0.6093
vn -0.1203 -0.3888 -0.9134
vn -0.0974 0.6656 -0.7399
vn -0.1104 -0.5340 -0.8382
vn -0.1091 0.5488 -0.8288
vn -0.0959 -0.6780 -0.7288
vn -0.1175 0.4358 -0.8924
vn -0.0759 -0.8137 -0.5763
vn -0.1237 0.3192 -0.9396
vn -0.0493 -0.9258 -0.3748
vn -0.1281 0.1912 -0.9732
vn -0.0198 0.9885 -0.1501
vn -0.0172 -0.9913 -0.1308
vn -0.1299 -0.0971 -0.9868
vn -0.0547 0.9079 -0.4155
vn 0.0759 -0.8137 -0.5763
vn 0.1237 0.3192 -0.9396
vn 0.0493 -0.9258 -0.3748
vn 0.1281 0.1912 -0.9732
vn 0.0198 0.9885 -0.1501
vn 0.0172 -0.9913 -0.1308
vn 0.1299 -0.0971 -0.9868
vn 0.0547 0.9079 -0.4155
vn 0.1266 -0.2436 -0.9616
vn 0.0802 0.7889 -0.6093
vn 0.1203 -0.3888 -0.9134
vn 0.0974 0.6656 -0.7399
vn 0.1104 -0.5340 -0.8382
vn 0.1091 0.5488 -0.8288
vn 0.0959 -0.6780 -0.7288
vn 0.1175 0.4358 -0.8924
vn 0.2352 0.7889 -0.5678
vn 0.3526 -0.3888 -0.8512
vn 0.2856 0.6656 -0.6895
vn 0.3235 -0.5340 -0.7811
vn 0.3199 0.5488 -0.7723
vn 0.2813 -0.6780 -0.6791
vn 0.3444 0.4358 -0.8315
vn 0.2224 -0.8137 -0.5370
vn 0.3627 0.3192 -0.8755
vn 0.1447 -0.9258 -0.3493
vn 0.3756 0.1912 -0.9068
vn 0.0579 0.9885 -0.1399
vn 0.0505 -0.9913 -0.1219
vn 0.3809 -0.0971 -0.9195
vn 0.1604 0.9079 -0.3872
vn 0.3712 -0.2436 -0.8961
vn 0.5769 0.3192 -0.7518
vn 0.2301 -0.9258 -0.2999
vn 0.5975 0.1912 -0.7787
vn 0.0922 0.9885 -0.1201
vn 0.0803 -0.9913 -0.1046
vn 0.6059 -0.0971 -0.7896
vn 0.2551 0.9079 -0.3325
vn 0.5904 -0.2436 -0.7695
vn 0.3741 0.7889 -0.4875
vn 0.5609 -0.3888 -0.7309
vn 0.4543 0.6656 -0.5921
vn 0.5147 -0.5340 -0.6708
vn 0.5089 0.5488 -0.6632
vn 0.4475 -0.6780 -0.5832
vn 0.5479 0.4358 -0.7141
vn 0.3538 -0.8137 -0.4611
vn 0.7309 -0.3888 -0.5609
vn 0.5921 0.6656 -0.4543
vn 0.6708 -0.5340 -0.5147
vn 0.6632 0.5488 -0.5089
vn 0.5832 -0.6780 -0.4475
vn 0.7141 0.4358 -0.5479
vn 0.4611 -0.8137 -0.3538
vn 0.7518 0.3192 -0.5769
vn 0.2999 -0.9258 -0.2301
vn 0.7787 0.1912 -0.5975
vn 0.1201 0.9885 -0.0922
vn 0.1046 -0.9913 -0.0803
vn 0.7896 -0.0971 -0.6059
vn 0.3325 0.9079 -0.2551
vn 0.7695 -0.2436 -0.5904
vn 0.4875 0.7889 -0.3741
vn 0.3493 -0.9258 -0.1447
vn 0.9068 0.1912 -0.3756
vn 0.1399 0.9885 -0.0579
vn 0.1219 -0.9913 -0.0505
vn 0.9195 -0.0971 -0.3809
vn 0.3872 0.9079 -0.1604
vn 0.8961 -0.2436 -0.3712
vn 0.5678 0.7889 -0.2352
vn 0.8512 -0.3888 -0.3526
vn 0.6895 0.6656 -0.2856
vn 0.7811 -0.5340 -0.3235
vn 0.7723 0.5488 -0.3199
vn 0.6791 -0.6780 -0.2813
vn 0.8315 0.4358 -0.3444
vn 0.5370 -0.8137 -0.2224
vn 0.8755 0.3192 -0.3627
vn 0.7399 0.6656 -0.0974
vn 0.8382 -0.5340 -0.1104
vn 0.8288 0.5488 -0.1091
vn 0.7288 -0.6780 -0.0959
vn 0.8924 0.4358 -0.1175
vn 0.5763 -0.8137 -0.0759
vn 0.9396 0.3192 -0.1237
vn 0.3748 -0.9258 -0.0493
vn 0.9732 0.1912 -0.1281
vn 0.1501 0.9885 -0.0198
vn 0.1308 -0.9913 -0.0172
vn 0.9868 -0.0971 -0.1299
vn 0.4155 0.9079 -0.0547
vn 0.9616 -0.2436 -0.1266
vn 0.6093 0.7889 -0.0802
vn 0.9134 -0.3888 -0.1203
vn 0.9732 0.1912 0.1281
vn 0.1501 0.9885 0.0198
vn 0.1308 -0.9913 0.0172
vn 0.9868 -0.0971 0.1299
vn 0.4155 0.9079 0.0547
vn 0.9616 -0.2436 0.1266
vn 0.6093 0.7889 0.0802
vn 0.9134 -0.3888 0.1203
vn 0.7399 0.6656 0.0974
vn 0.8382 -0.5340 0.1104
vn 0.8288 0.5488 0.1091
vn 0.7288 -0.6780 0.0959
vn 0.8924 0.4358 0.1175
vn 0.5763 -0.8137 0.0759
vn 0.9396 0.3192 0.1237
vn 0.3748 -0.9258 0.0493
vn 0.7811 -0.5340 0.3235
vn 0.7723 0.5488 0.3199
vn 0.6791 -0.6780 0.2813
vn 0.8315 0.4358 0.3444
vn 0.5370 -0.8137 0.2224
vn 0.8755 0.3192 0.3627
vn 0.3493 -0.9258 0.1447
vn 0.9068 0.1912 0.3756
vn 0.1399 0.9885 0.0579
vn 0.1219 -0.9913 0.0505
vn 0.9195 -0.0971 0.3809
vn 0.3872 0.9079 0.1604
vn 0.8961 -0.2436 0.3712
vn 0.5678 0.7889 0.2352
vn 0.8512 -0.3888 0.3526
vn 0.6895 0.6656 0.2856
vn 0.1046 -0.9913 0.0803
vn 0.7896 -0.0971 0.6059
vn 0.3325 0.9079 0.2551
vn 0.7695 -0.2436 0.5904
vn 0.4875 0.7889 0.3741
vn 0.7309 -0.3888 0.5609
vn 0.5921 0.6656 0.4543
vn 0.6708 -0.5340 0.5147
vn 0.6632 0.5488 0.5089
vn 0.5832 -0.6780 0.4475
vn 0.7141 0.4358 0.5479
vn 0.4611 -0.8137 0.3538
vn 0.7518 0.3192 0.5769
vn 0.2999 -0.9258 0.2301
vn 0.7787 0.1912 0.5975
vn 0.1201 0.9885 0.0922
vn 0.4475 -0.6780 0.5832
vn 0.5479 0.4358 0.7141
vn 0.3538 -0.8137 0.4611
vn 0.5769 0.3192 0.7518
vn 0.2301 -0.9258 0.2999
vn 0.5975 0.1912 0.7787
vn 0.0922 0.9885 0.1201
vn 0.0803 -0.9913 0.1046
vn 0.6059 -0.0971 0.7896
vn 0.2551 0.9079 0.3325
vn 0.5904 -0.2436 0.7695
vn 0.3741 0.7889 0.4875
vn 0.5609 -0.3888 0.7309
vn 0.4543 0.6656 0.5921
vn 0.5147 -0.5340 0.6708
vn 0.5089 0.5488 0.6632
vn 0.1604 0.9079 0.3872
vn 0.3712 -0.2436 0.8961
vn 0.2352 0.7889 0.5678
vn 0.3526 -0.3888 0.8512
vn 0.2856 0.6656 0.6895
vn 0.3235 -0.5340 0.7811
vn 0.3199 0.5488 0.7723
vn 0.2813 -0.6780 0.6791
vn 0.3444 0.4358 0.8316
vn 0.2224 -0.8137 0.5370
vn 0.3627 0.3192 0.8755
vn 0.1447 -0.9258 0.3493
vn 0.3756 0.1912 0.9068
vn 0.0579 0.9885 0.1399
vn 0.0505 -0.9913 0.1219
vn 0.3809 -0.0971 0.9195
vn 0.1175 0.4358 0.8924
vn 0.0759 -0.8137 0.5763
vn 0.1237 0.3192 0.9396
vn 0.0493 -0.9258 0.3748
vn 0.1281 0.1912 0.9732
vn 0.0198 0.9885 0.1501
vn 0.0172 -0.9913 0.1308
vn 0.1299 -0.0971 0.9868
vn 0.0547 0.9079 0.4155
vn 0.1266 -0.2436 0.9616
vn 0.0802 0.7889 0.6093
vn 0.1203 -0.3888 0.9134
vn 0.0974 0.6656 0.7399
vn 0.1104 -0.5340 0.8382
vn 0.1091 0.5488 0.8288
vn 0.0959 -0.6780 0.7288
s 0
usemtl EF_Egg_cactus_Shell
f 351//2 1//2 6//2
f 5//3 362//3 20//3
f 357//4 356//4 13//4 14//4
f 352//5 351//5 6//5 7//5
f 353//7 352//7 7//7 8//7
f 4//8 358//8 15//8 16//8
f 354//9 353//9 8//9 9//9
f 359//10 4//10 16//10 17//10
f 360//12 359//12 17//12 18//12
f 3//13 2//13 10//13 11//13
f 361//14 360//14 18//14 19//14
f 362//16 361//16 19//16 20//16
f 19//17 18//17 33//17 34//17
f 20//19 19//19 34//19 35//19
f 6//21 1//21 21//21
f 5//22 20//22 35//22
f 14//23 13//23 28//23 29//23
f 7//24 6//24 21//24 22//24
f 15//25 14//25 29//25 30//25
f 8//26 7//26 22//26 23//26
f 16//27 15//27 30//27 31//27
f 9//28 8//28 23//28 24//28
f 17//29 16//29 31//29 32//29
f 18//31 17//31 32//31 33//31
f 11//32 10//32 25//32 26//32
f 31//33 30//33 45//33 46//33
f 24//34 23//34 38//34 39//34
f 32//35 31//35 46//35 47//35
f 25//36 24//36 39//36 40//36
f 33//37 32//37 47//37 48//37
f 26//38 25//38 40//38 41//38
f 34//39 33//39 48//39 49//39
f 35//41 34//41 49//41 50//41
f 21//43 1//43 36//43
f 5//44 35//44 50//44
f 29//45 28//45 43//45 44//45
f 22//46 21//46 36//46 37//46
f 23//48 22//48 37//48 38//48
f 50//49 49//49 64//49 65//49
f 36//51 1//51 51//51
f 5//52 50//52 65//52
f 44//53 43//53 58//53 59//53
f 37//54 36//54 51//54 52//54
f 45//55 44//55 59//55 60//55
f 38//56 37//56 52//56 53//56
f 46//57 45//57 60//57 61//57
f 39//58 38//58 53//58 54//58
f 47//59 46//59 61//59 62//59
f 40//60 39//60 54//60 55//60
f 48//61 47//61 62//61 63//61
f 41//62 40//62 55//62 56//62
f 49//63 48//63 63//63 64//63
f 54//65 53//65 68//65 69//65
f 62//66 61//66 76//66 77//66
f 63//68 62//68 77//68 78//68
f 56//69 55//69 70//69 71//69
f 64//70 63//70 78//70 79//70
f 65//72 64//72 79//72 80//72
f 51//74 1//74 66//74
f 5//75 65//75 80//75
f 59//76 58//76 73//76 74//76
f 52//77 51//77 66//77 67//77
f 53//79 52//79 67//79 68//79
f 61//80 60//80 75//80 76//80
f 66//82 1//82 81//82
f 5//83 80//83 95//83
f 74//84 73//84 88//84 89//84
f 67//85 66//85 81//85 82//85
f 75//86 74//86 89//86 90//86
f 68//87 67//87 82//87 83//87
f 76//88 75//88 90//88 91//88
f 69//89 68//89 83//89 84//89
f 77//90 76//90 91//90 92//90
f 70//91 69//91 84//91 85//91
f 78//92 77//92 92//92 93//92
f 71//93 70//93 85//93 86//93
f 79//94 78//94 93//94 94//94
f 80//96 79//96 94//96 95//96
f 92//97 91//97 106//97 107//97
f 93//99 92//99 107//99 108//99
f 86//100 85//100 100//100 101//100
f 94//101 93//101 108//101 109//101
f 95//103 94//103 109//103 110//103
f 81//105 1//105 96//105
f 5//106 95//106 110//106
f 89//107 88//107 103//107 104//107
f 82//108 81//108 96//108 97//108
f 83//110 82//110 97//110 98//110
f 91//111 90//111 105//111 106//111
f 84//112 83//112 98//112 99//112
f 96//113 1//113 111//113
f 5//114 110//114 125//114
f 104//115 103//115 118//115 119//115
f 97//116 96//116 111//116 112//116
f 105//117 104//117 119//117 120//117
f 98//118 97//118 112//118 113//118
f 106//119 105//119 120//119 121//119
f 99//120 98//120 113//120 114//120
f 107//121 106//121 121//121 122//121
f 100//122 99//122 114//122 115//122
f 108//123 107//123 122//123 123//123
f 101//124 100//124 115//124 116//124
f 109//125 108//125 123//125 124//125
f 110//127 109//127 124//127 125//127
f 115//129 114//129 129//129 130//129
f 123//130 122//130 137//130 138//130
f 116//131 115//131 130//131 131//131
f 124//132 123//132 138//132 139//132
f 125//134 124//134 139//134 140//134
f 111//136 1//136 126//136
f 5//137 125//137 140//137
f 119//138 118//138 133//138 134//138
f 112//139 111//139 126//139 127//139
f 113//141 112//141 127//141 128//141
f 121//142 120//142 135//142 136//142
f 114//143 113//143 128//143 129//143
f 122//144 121//144 136//144 137//144
f 134//145 133//145 148//145 149//145
f 127//146 126//146 141//146 142//146
f 128//148 127//148 142//148 143//148
f 136//149 135//149 150//149 151//149
f 129//150 128//150 143//150 144//150
f 137//151 136//151 151//151 152//151
f 138//153 137//153 152//153 153//153
f 131//154 130//154 145//154 146//154
f 139//155 138//155 153//155 154//155
f 140//157 139//157 154//157 155//157
f 126//159 1//159 141//159
f 5//160 140//160 155//160
f 153//161 152//161 167//161 168//161
f 146//162 145//162 160//162 161//162
f 154//163 153//163 168//163 169//163
f 155//165 154//165 169//165 170//165
f 141//167 1//167 156//167
f 5//168 155//168 170//168
f 149//169 148//169 163//169 164//169
f 142//170 141//170 156//170 157//170
f 150//171 149//171 164//171 165//171
f 143//172 142//172 157//172 158//172
f 151//173 150//173 165//173 166//173
f 144//174 143//174 158//174 159//174
f 152//175 151//175 166//175 167//175
f 145//176 144//176 159//176 160//176
f 158//178 157//178 172//178 173//178
f 166//179 165//179 180//179 181//179
f 159//180 158//180 173//180 174//180
f 167//181 166//181 181//181 182//181
f 160//182 159//182 174//182 175//182
f 168//183 167//183 182//183 183//183
f 161//184 160//184 175//184 176//184
f 169//185 168//185 183//185 184//185
f 170//187 169//187 184//187 185//187
f 156//189 1//189 171//189
f 5//190 170//190 185//190
f 164//191 163//191 178//191 179//191
f 157//192 156//192 171//192 172//192
f 184//193 183//193 198//193 199//193
f 185//195 184//195 199//195 200//195
f 171//197 1//197 186//197
f 5//198 185//198 200//198
f 179//199 178//199 193//199 194//199
f 172//200 171//200 186//200 187//200
f 180//201 179//201 194//201 195//201
f 173//202 172//202 187//202 188//202
f 181//203 180//203 195//203 196//203
f 174//204 173//204 188//204 189//204
f 182//205 181//205 196//205 197//205
f 183//207 182//207 197//207 198//207
f 176//208 175//208 190//208 191//208
f 188//209 187//209 202//209 203//209
f 196//210 195//210 210//210 211//210
f 189//211 188//211 203//211 204//211
f 197//212 196//212 211//212 212//212
f 190//213 189//213 204//213 205//213
f 198//214 197//214 212//214 213//214
f 191//215 190//215 205//215 206//215
f 199//216 198//216 213//216 214//216
f 200//218 199//218 214//218 215//218
f 186//220 1//220 201//220
f 5//221 200//221 215//221
f 194//222 193//222 208//222 209//222
f 187//223 186//223 201//223 202//223
f 215//226 214//226 229//226 230//226
f 201//228 1//228 216//228
f 5//229 215//229 230//229
f 209//230 208//230 223//230 224//230
f 202//231 201//231 216//231 217//231
f 203//233 202//233 217//233 218//233
f 211//234 210//234 225//234 226//234
f 204//235 203//235 218//235 219//235
f 212//236 211//236 226//236 227//236
f 205//237 204//237 219//237 220//237
f 213//238 212//238 227//238 228//238
f 206//239 205//239 220//239 221//239
f 214//240 213//240 228//240 229//240
f 226//241 225//241 240//241 241//241
f 219//242 218//242 233//242 234//242
f 227//243 226//243 241//243 242//243
f 228//245 227//245 242//245 243//245
f 221//246 220//246 235//246 236//246
f 229//247 228//247 243//247 244//247
f 230//249 229//249 244//249 245//249
f 216//251 1//251 231//251
f 5//252 230//252 245//252
f 224//253 223//253 238//253 239//253
f 217//254 216//254 231//254 232//254
f 218//256 217//256 232//256 233//256
f 245//257 244//257 259//257 260//257
f 231//259 1//259 246//259
f 5//260 245//260 260//260
f 239//261 238//261 253//261 254//261
f 232//262 231//262 246//262 247//262
f 233//264 232//264 247//264 248//264
f 241//265 240//265 255//265 256//265
f 234//266 233//266 248//266 249//266
f 242//267 241//267 256//267 257//267
f 235//268 234//268 249//268 250//268
f 243//269 242//269 257//269 258//269
f 236//270 235//270 250//270 251//270
f 244//271 243//271 258//271 259//271
f 249//273 248//273 263//273 264//273
f 257//274 256//274 271//274 272//274
f 250//275 249//275 264//275 265//275
f 258//276 257//276 272//276 273//276
f 251//277 250//277 265//277 266//277
f 259//278 258//278 273//278 274//278
f 260//280 259//280 274//280 275//280
f 246//282 1//282 261//282
f 5//283 260//283 275//283
f 254//284 253//284 268//284 269//284
f 247//285 246//285 261//285 262//285
f 255//286 254//286 269//286 270//286
f 248//287 247//287 262//287 263//287
f 256//288 255//288 270//288 271//288
f 261//290 1//290 276//290
f 5//291 275//291 290//291
f 269//292 268//292 283//292 284//292
f 262//293 261//293 276//293 277//293
f 263//295 262//295 277//295 278//295
f 271//296 270//296 285//296 286//296
f 264//297 263//297 278//297 279//297
f 272//298 271//298 286//298 287//298
f 273//300 272//300 287//300 288//300
f 266//301 265//301 280//301 281//301
f 274//302 273//302 288//302 289//302
f 275//304 274//304 289//304 290//304
f 287//305 286//305 301//305 302//305
f 280//306 279//306 294//306 295//306
f 288//307 287//307 302//307 303//307
f 281//308 280//308 295//308 296//308
f 289//309 288//309 303//309 304//309
f 290//311 289//311 304//311 305//311
f 276//313 1//313 291//313
f 5//314 290//314 305//314
f 284//315 283//315 298//315 299//315
f 277//316 276//316 291//316 292//316
f 285//317 284//317 299//317 300//317
f 278//318 277//318 292//318 293//318
f 286//319 285//319 300//319 301//319
f 279//320 278//320 293//320 294//320
f 5//321 305//321 320//321
f 299//322 298//322 313//322 314//322
f 292//323 291//323 306//323 307//323
f 293//325 292//325 307//325 308//325
f 301//326 300//326 315//326 316//326
f 294//327 293//327 308//327 309//327
f 302//328 301//328 316//328 317//328
f 295//329 294//329 309//329 310//329
f 303//330 302//330 317//330 318//330
f 296//331 295//331 310//331 311//331
f 304//332 303//332 318//332 319//332
f 305//334 304//334 319//334 320//334
f 291//336 1//336 306//336
f 318//337 317//337 332//337 333//337
f 311//338 310//338 325//338 326//338
f 319//339 318//339 333//339 334//339
f 320//341 319//341 334//341 335//341
f 306//343 1//343 321//343
f 5//344 320//344 335//344
f 314//345 313//345 328//345 329//345
f 307//346 306//346 321//346 322//346
f 315//347 314//347 329//347 330//347
f 308//348 307//348 322//348 323//348
f 316//349 315//349 330//349 331//349
f 309//350 308//350 323//350 324//350
f 317//351 316//351 331//351 332//351
f 322//353 321//353 336//353 337//353
f 323//355 322//355 337//355 338//355
f 331//356 330//356 345//356 346//356
f 324//357 323//357 338//357 339//357
f 332//358 331//358 346//358 347//358
f 325//359 324//359 339//359 340//359
f 333//360 332//360 347//360 348//360
f 326//361 325//361 340//361 341//361
f 334//362 333//362 348//362 349//362
f 335//364 334//364 349//364 350//364
f 321//366 1//366 336//366
f 5//367 335//367 350//367
f 329//368 328//368 343//368 344//368
f 341//369 340//369 2//369 3//369
f 349//370 348//370 360//370 361//370
f 350//372 349//372 361//372 362//372
f 336//374 1//374 351//374
f 5//375 350//375 362//375
f 344//376 343//376 356//376 357//376
f 337//377 336//377 351//377 352//377
f 345//378 344//378 357//378 358//378
f 338//379 337//379 352//379 353//379
f 346//380 345//380 358//380 4//380
f 339//381 338//381 353//381 354//381
f 347//382 346//382 4//382 359//382
f 340//383 339//383 354//383 2//383
f 348//384 347//384 359//384 360//384
usemtl EF_Egg_cactus_Spots
f 356//1 355//1 12//1 13//1
f 358//6 357//6 14//6 15//6
f 2//11 354//11 9//11 10//11
f 355//15 3//15 11//15 12//15
f 12//18 11//18 26//18 27//18
f 13//20 12//20 27//20 28//20
f 10//30 9//30 24//30 25//30
f 27//40 26//40 41//40 42//40
f 28//42 27//42 42//42 43//42
f 30//47 29//47 44//47 45//47
f 43//50 42//50 57//50 58//50
f 42//64 41//64 56//64 57//64
f 55//67 54//67 69//67 70//67
f 57//71 56//71 71//71 72//71
f 58//73 57//73 72//73 73//73
f 60//78 59//78 74//78 75//78
f 73//81 72//81 87//81 88//81
f 72//95 71//95 86//95 87//95
f 85//98 84//98 99//98 100//98
f 87//102 86//102 101//102 102//102
f 88//104 87//104 102//104 103//104
f 90//109 89//109 104//109 105//109
f 102//126 101//126 116//126 117//126
f 103//128 102//128 117//128 118//128
f 117//133 116//133 131//133 132//133
f 118//135 117//135 132//135 133//135
f 120//140 119//140 134//140 135//140
f 135//147 134//147 149//147 150//147
f 130//152 129//152 144//152 145//152
f 132//156 131//156 146//156 147//156
f 133//158 132//158 147//158 148//158
f 147//164 146//164 161//164 162//164
f 148//166 147//166 162//166 163//166
f 165//177 164//177 179//177 180//177
f 162//186 161//186 176//186 177//186
f 163//188 162//188 177//188 178//188
f 177//194 176//194 191//194 192//194
f 178//196 177//196 192//196 193//196
f 175//206 174//206 189//206 190//206
f 192//217 191//217 206//217 207//217
f 193//219 192//219 207//219 208//219
f 195//224 194//224 209//224 210//224
f 207//225 206//225 221//225 222//225
f 208//227 207//227 222//227 223//227
f 210//232 209//232 224//232 225//232
f 220//244 219//244 234//244 235//244
f 222//248 221//248 236//248 237//248
f 223//250 222//250 237//250 238//250
f 225//255 224//255 239//255 240//255
f 238//258 237//258 252//258 253//258
f 240//263 239//263 254//263 255//263
f 237//272 236//272 251//272 252//272
f 252//279 251//279 266//279 267//279
f 253//281 252//281 267//281 268//281
f 268//289 267//289 282//289 283//289
f 270//294 269//294 284//294 285//294
f 265//299 264//299 279//299 280//299
f 267//303 266//303 281//303 282//303
f 282//310 281//310 296//310 297//310
f 283//312 282//312 297//312 298//312
f 300//324 299//324 314//324 315//324
f 297//333 296//333 311//333 312//333
f 298//335 297//335 312//335 313//335
f 312//340 311//340 326//340 327//340
f 313//342 312//342 327//342 328//342
f 310//352 309//352 324//352 325//352
f 330//354 329//354 344//354 345//354
f 327//363 326//363 341//363 342//363
f 328//365 327//365 342//365 343//365
f 342//371 341//371 3//371 355//371
f 343//373 342//373 355//373 356//373
