# Blender 5.0.1
# www.blender.org
mtllib EggCrate.mtl
o EggCrate
v -0.420000 0.000000 0.280000
v -0.420000 0.056000 0.280000
v -0.420000 0.000000 -0.280000
v -0.420000 0.056000 -0.280000
v 0.420000 0.000000 0.280000
v 0.420000 0.056000 0.280000
v 0.420000 0.000000 -0.280000
v 0.420000 0.056000 -0.280000
v -0.420000 0.070000 0.280000
v -0.420000 0.196000 0.280000
v -0.420000 0.070000 0.235200
v -0.420000 0.196000 0.235200
v 0.420000 0.070000 0.280000
v 0.420000 0.196000 0.280000
v 0.420000 0.070000 0.235200
v 0.420000 0.196000 0.235200
v -0.420000 0.070000 -0.235200
v -0.420000 0.196000 -0.235200
v -0.420000 0.070000 -0.280000
v -0.420000 0.196000 -0.280000
v 0.420000 0.070000 -0.235200
v 0.420000 0.196000 -0.235200
v 0.420000 0.070000 -0.280000
v 0.420000 0.196000 -0.280000
v -0.375200 0.070000 0.280000
v -0.375200 0.196000 0.280000
v -0.375200 0.070000 -0.280000
v -0.375200 0.196000 -0.280000
v 0.375200 0.070000 0.280000
v 0.375200 0.196000 0.280000
v 0.375200 0.070000 -0.280000
v 0.375200 0.196000 -0.280000
v -0.420000 0.238000 0.280000
v -0.420000 0.364000 0.280000
v -0.420000 0.238000 0.235200
v -0.420000 0.364000 0.235200
v 0.420000 0.238000 0.280000
v 0.420000 0.364000 0.280000
v 0.420000 0.238000 0.235200
v 0.420000 0.364000 0.235200
v -0.420000 0.238000 -0.235200
v -0.420000 0.364000 -0.235200
v -0.420000 0.238000 -0.280000
v -0.420000 0.364000 -0.280000
v 0.420000 0.238000 -0.235200
v 0.420000 0.364000 -0.235200
v 0.420000 0.238000 -0.280000
v 0.420000 0.364000 -0.280000
v -0.375200 0.238000 0.280000
v -0.375200 0.364000 0.280000
v -0.375200 0.238000 -0.280000
v -0.375200 0.364000 -0.280000
v 0.375200 0.238000 0.280000
v 0.375200 0.364000 0.280000
v 0.375200 0.238000 -0.280000
v 0.375200 0.364000 -0.280000
v -0.431200 0.000000 0.291200
v -0.431200 0.392000 0.291200
v -0.431200 0.000000 0.212800
v -0.431200 0.392000 0.212800
v -0.352800 0.000000 0.291200
v -0.352800 0.392000 0.291200
v -0.352800 0.000000 0.212800
v -0.352800 0.392000 0.212800
v -0.431200 0.000000 -0.212800
v -0.431200 0.392000 -0.212800
v -0.431200 0.000000 -0.291200
v -0.431200 0.392000 -0.291200
v -0.352800 0.000000 -0.212800
v -0.352800 0.392000 -0.212800
v -0.352800 0.000000 -0.291200
v -0.352800 0.392000 -0.291200
v 0.352800 0.000000 0.291200
v 0.352800 0.392000 0.291200
v 0.352800 0.000000 0.212800
v 0.352800 0.392000 0.212800
v 0.431200 0.000000 0.291200
v 0.431200 0.392000 0.291200
v 0.431200 0.000000 0.212800
v 0.431200 0.392000 0.212800
v 0.352800 0.000000 -0.212800
v 0.352800 0.392000 -0.212800
v 0.352800 0.000000 -0.291200
v 0.352800 0.392000 -0.291200
v 0.431200 0.000000 -0.212800
v 0.431200 0.392000 -0.212800
v 0.431200 0.000000 -0.291200
v 0.431200 0.392000 -0.291200
v -0.378000 0.056000 0.238000
v -0.378000 0.196000 0.238000
v -0.378000 0.056000 -0.238000
v -0.378000 0.196000 -0.238000
v 0.378000 0.056000 0.238000
v 0.378000 0.196000 0.238000
v 0.378000 0.056000 -0.238000
v 0.378000 0.196000 -0.238000
v -0.238000 0.425040 0.117600
v -0.142133 0.294000 -0.086451
v -0.154977 0.228480 -0.090624
v -0.190067 0.180516 -0.102026
v -0.238000 0.162960 -0.117600
v 0.095867 0.294000 0.148749
v -0.238000 0.162960 0.117600
v -0.190067 0.180516 -0.133174
v -0.208376 0.407484 0.076826
v -0.186689 0.359520 0.046977
v -0.178751 0.294000 0.036051
v -0.186689 0.228480 0.046977
v -0.208376 0.180516 0.076826
v -0.154977 0.228480 -0.144576
v -0.142133 0.294000 -0.148749
v -0.190067 0.407484 0.102026
v -0.154977 0.359520 0.090624
v -0.142133 0.294000 0.086451
v -0.154977 0.228480 0.090624
v -0.190067 0.180516 0.102026
v -0.154977 0.359520 -0.144576
v -0.190067 0.407484 -0.133174
v -0.190067 0.407484 0.133174
v -0.154977 0.359520 0.144576
v -0.142133 0.294000 0.148749
v -0.154977 0.228480 0.144576
v -0.190067 0.180516 0.133174
v -0.238000 0.425040 -0.117600
v 0.083023 0.228480 0.144576
v -0.208376 0.407484 0.158374
v -0.186689 0.359520 0.188223
v -0.178751 0.294000 0.199149
v -0.186689 0.228480 0.188223
v -0.208376 0.180516 0.158374
v -0.208376 0.407484 -0.158374
v -0.186689 0.359520 -0.188223
v -0.238000 0.407484 0.168000
v -0.238000 0.359520 0.204895
v -0.238000 0.294000 0.218400
v -0.238000 0.228480 0.204895
v -0.238000 0.180516 0.168000
v -0.178751 0.294000 -0.199149
v -0.186689 0.228480 -0.188223
v -0.267624 0.407484 0.158374
v -0.289311 0.359520 0.188223
v -0.297249 0.294000 0.199149
v -0.289311 0.228480 0.188223
v -0.267624 0.180516 0.158374
v -0.208376 0.180516 -0.158374
v 0.047933 0.180516 0.133174
v -0.285933 0.407484 0.133174
v -0.321023 0.359520 0.144576
v -0.333867 0.294000 0.148749
v -0.321023 0.228480 0.144576
v -0.285933 0.180516 0.133174
v 0.000000 0.162960 0.117600
v 0.095867 0.294000 -0.086451
v -0.285933 0.407484 0.102026
v -0.321023 0.359520 0.090624
v -0.333867 0.294000 0.086451
v -0.321023 0.228480 0.090624
v -0.285933 0.180516 0.102026
v 0.047933 0.180516 0.102026
v 0.083023 0.228480 0.090624
v -0.267624 0.407484 0.076826
v -0.289311 0.359520 0.046977
v -0.297249 0.294000 0.036051
v -0.289311 0.228480 0.046977
v -0.267624 0.180516 0.076826
v 0.095867 0.294000 0.086451
v 0.083023 0.359520 0.090624
v -0.238000 0.407484 0.067200
v -0.238000 0.359520 0.030305
v -0.238000 0.294000 0.016800
v -0.238000 0.228480 0.030305
v -0.238000 0.180516 0.067200
v 0.047933 0.407484 0.102026
v -0.154977 0.359520 -0.090624
v -0.190067 0.407484 -0.102026
v 0.000000 0.425040 0.117600
v -0.178751 0.294000 -0.036051
v -0.186689 0.228480 -0.046977
v -0.208376 0.180516 -0.076826
v 0.083023 0.228480 -0.090624
v -0.186689 0.359520 -0.046977
v -0.208376 0.407484 -0.076826
v 0.029624 0.407484 0.076826
v -0.238000 0.294000 -0.016800
v -0.238000 0.228480 -0.030305
v -0.238000 0.180516 -0.067200
v 0.051311 0.359520 0.046977
v -0.238000 0.359520 -0.030305
v -0.238000 0.407484 -0.067200
v 0.059249 0.294000 0.036051
v -0.297249 0.294000 -0.036051
v -0.289311 0.228480 -0.046977
v -0.267624 0.180516 -0.076826
v 0.051311 0.228480 0.046977
v -0.289311 0.359520 -0.046977
v -0.267624 0.407484 -0.076826
v 0.029624 0.180516 0.076826
v -0.333867 0.294000 -0.086451
v -0.321023 0.228480 -0.090624
v -0.285933 0.180516 -0.102026
v 0.047933 0.180516 -0.102026
v -0.321023 0.359520 -0.090624
v -0.285933 0.407484 -0.102026
v 0.000000 0.162960 -0.117600
v -0.333867 0.294000 -0.148749
v -0.321023 0.228480 -0.144576
v -0.285933 0.180516 -0.133174
v 0.333867 0.294000 0.148749
v -0.321023 0.359520 -0.144576
v -0.285933 0.407484 -0.133174
v 0.047933 0.180516 -0.133174
v -0.297249 0.294000 -0.199149
v -0.289311 0.228480 -0.188223
v -0.267624 0.180516 -0.158374
v 0.083023 0.228480 -0.144576
v -0.289311 0.359520 -0.188223
v -0.267624 0.407484 -0.158374
v 0.095867 0.294000 -0.148749
v -0.238000 0.294000 -0.218400
v -0.238000 0.228480 -0.204895
v -0.238000 0.180516 -0.168000
v 0.083023 0.359520 -0.144576
v -0.238000 0.359520 -0.204895
v -0.238000 0.407484 -0.168000
v 0.047933 0.407484 -0.133174
v 0.083023 0.359520 0.144576
v 0.047933 0.407484 0.133174
v 0.000000 0.425040 -0.117600
v 0.059249 0.294000 0.199149
v 0.051311 0.228480 0.188223
v 0.029624 0.180516 0.158374
v 0.321023 0.228480 0.144576
v 0.051311 0.359520 0.188223
v 0.029624 0.407484 0.158374
v 0.029624 0.407484 -0.158374
v 0.000000 0.294000 0.218400
v 0.000000 0.228480 0.204895
v 0.000000 0.180516 0.168000
v 0.051311 0.359520 -0.188223
v 0.000000 0.359520 0.204895
v 0.000000 0.407484 0.168000
v 0.059249 0.294000 -0.199149
v -0.059249 0.294000 0.199149
v -0.051311 0.228480 0.188223
v -0.029624 0.180516 0.158374
v 0.051311 0.228480 -0.188223
v -0.051311 0.359520 0.188223
v -0.029624 0.407484 0.158374
v 0.029624 0.180516 -0.158374
v -0.095866 0.294000 0.148749
v -0.083023 0.228480 0.144576
v -0.047933 0.180516 0.133174
v 0.285933 0.180516 0.133174
v -0.083023 0.359520 0.144576
v -0.047933 0.407484 0.133174
v 0.238000 0.162960 0.117600
v -0.095867 0.294000 0.086451
v -0.083023 0.228480 0.090624
v -0.047933 0.180516 0.102026
v 0.333867 0.294000 -0.086451
v -0.083023 0.359520 0.090624
v -0.047933 0.407484 0.102026
v 0.285933 0.180516 0.102026
v -0.059249 0.294000 0.036051
v -0.051311 0.228480 0.046977
v -0.029624 0.180516 0.076826
v 0.321023 0.228480 0.090624
v -0.051311 0.359520 0.046977
v -0.029624 0.407484 0.076826
v 0.333867 0.294000 0.086451
v -0.000000 0.294000 0.016800
v -0.000000 0.228480 0.030305
v -0.000000 0.180516 0.067200
v 0.321023 0.359520 0.090624
v -0.000000 0.359520 0.030305
v -0.000000 0.407484 0.067200
v 0.285933 0.407484 0.102026
v 0.083023 0.359520 -0.090624
v 0.047933 0.407484 -0.102026
v 0.238000 0.425040 0.117600
v 0.059249 0.294000 -0.036051
v 0.051311 0.228480 -0.046977
v 0.029624 0.180516 -0.076826
v 0.321023 0.228480 -0.090624
v 0.051311 0.359520 -0.046977
v 0.029624 0.407484 -0.076826
v 0.267624 0.407484 0.076826
v 0.000000 0.294000 -0.016800
v 0.000000 0.228480 -0.030305
v 0.000000 0.180516 -0.067200
v 0.289311 0.359520 0.046977
v 0.000000 0.359520 -0.030305
v 0.000000 0.407484 -0.067200
v 0.297249 0.294000 0.036051
v -0.059249 0.294000 -0.036051
v -0.051311 0.228480 -0.046977
v -0.029624 0.180516 -0.076826
v 0.289311 0.228480 0.046977
v -0.051311 0.359520 -0.046977
v -0.029624 0.407484 -0.076826
v 0.267624 0.180516 0.076826
v -0.095866 0.294000 -0.086451
v -0.083023 0.228480 -0.090624
v -0.047933 0.180516 -0.102026
v 0.285933 0.180516 -0.102026
v -0.083023 0.359520 -0.090624
v -0.047933 0.407484 -0.102026
v 0.238000 0.162960 -0.117600
v -0.095867 0.294000 -0.148749
v -0.083023 0.228480 -0.144576
v -0.047933 0.180516 -0.133174
v -0.083023 0.359520 -0.144576
v -0.047933 0.407484 -0.133174
v 0.285933 0.180516 -0.133174
v -0.059249 0.294000 -0.199149
v -0.051311 0.228480 -0.188223
v -0.029624 0.180516 -0.158374
v 0.321023 0.228480 -0.144576
v -0.051311 0.359520 -0.188223
v -0.029624 0.407484 -0.158374
v 0.333867 0.294000 -0.148749
v -0.000000 0.294000 -0.218400
v -0.000000 0.228480 -0.204895
v -0.000000 0.180516 -0.168000
v 0.321023 0.359520 -0.144576
v -0.000000 0.359520 -0.204895
v -0.000000 0.407484 -0.168000
v 0.285933 0.407484 -0.133174
v 0.321023 0.359520 0.144576
v 0.285933 0.407484 0.133174
v 0.238000 0.425040 -0.117600
v 0.297249 0.294000 0.199149
v 0.289311 0.228480 0.188223
v 0.267624 0.180516 0.158374
v 0.289311 0.359520 0.188223
v 0.267624 0.407484 0.158374
v 0.267624 0.407484 -0.158374
v 0.238000 0.294000 0.218400
v 0.238000 0.228480 0.204895
v 0.238000 0.180516 0.168000
v 0.289311 0.359520 -0.188223
v 0.238000 0.359520 0.204895
v 0.238000 0.407484 0.168000
v 0.297249 0.294000 -0.199149
v 0.178751 0.294000 0.199149
v 0.186689 0.228480 0.188223
v 0.208376 0.180516 0.158374
v 0.289311 0.228480 -0.188223
v 0.186689 0.359520 0.188223
v 0.208376 0.407484 0.158374
v 0.267624 0.180516 -0.158374
v 0.142134 0.294000 0.148749
v 0.154977 0.228480 0.144576
v 0.190067 0.180516 0.133174
v 0.154977 0.359520 0.144576
v 0.190067 0.407484 0.133174
v 0.142133 0.294000 0.086451
v 0.154977 0.228480 0.090624
v 0.190067 0.180516 0.102026
v 0.154977 0.359520 0.090624
v 0.190067 0.407484 0.102026
v 0.178751 0.294000 0.036051
v 0.186689 0.228480 0.046977
v 0.208376 0.180516 0.076826
v 0.186689 0.359520 0.046977
v 0.208376 0.407484 0.076826
v 0.238000 0.294000 0.016800
v 0.238000 0.228480 0.030305
v 0.238000 0.180516 0.067200
v 0.238000 0.359520 0.030305
v 0.238000 0.407484 0.067200
v 0.321023 0.359520 -0.090624
v 0.285933 0.407484 -0.102026
v 0.297249 0.294000 -0.036051
v 0.289311 0.228480 -0.046977
v 0.267624 0.180516 -0.076826
v 0.289311 0.359520 -0.046977
v 0.267624 0.407484 -0.076826
v 0.238000 0.294000 -0.016800
v 0.238000 0.228480 -0.030305
v 0.238000 0.180516 -0.067200
v 0.238000 0.359520 -0.030305
v 0.238000 0.407484 -0.067200
v 0.178751 0.294000 -0.036051
v 0.186689 0.228480 -0.046977
v 0.208376 0.180516 -0.076826
v 0.186689 0.359520 -0.046977
v 0.208376 0.407484 -0.076826
v 0.142134 0.294000 -0.086451
v 0.154977 0.228480 -0.090624
v 0.190067 0.180516 -0.102026
v 0.154977 0.359520 -0.090624
v 0.190067 0.407484 -0.102026
v 0.142133 0.294000 -0.148749
v 0.154977 0.228480 -0.144576
v 0.190067 0.180516 -0.133174
v 0.154977 0.359520 -0.144576
v 0.190067 0.407484 -0.133174
v 0.178751 0.294000 -0.199149
v 0.186689 0.228480 -0.188223
v 0.208376 0.180516 -0.158374
v 0.186689 0.359520 -0.188223
v 0.208376 0.407484 -0.158374
v 0.238000 0.294000 -0.218400
v 0.238000 0.228480 -0.204895
v 0.238000 0.180516 -0.168000
v 0.238000 0.359520 -0.204895
v 0.238000 0.407484 -0.168000
vn -1.0000 -0.0000 -0.0000
vn -0.0000 -0.0000 -1.0000
vn 1.0000 -0.0000 -0.0000
vn -0.0000 -0.0000 1.0000
vn -0.0000 -1.0000 -0.0000
vn -0.0000 1.0000 -0.0000
vn 0.2494 -0.5904 -0.7676
vn 0.3032 0.1924 -0.9333
vn 0.1063 0.9390 -0.3271
vn 0.1063 -0.9390 -0.3271
vn 0.3032 -0.1924 -0.9333
vn 0.2494 0.5904 -0.7676
vn 0.2782 0.9390 -0.2021
vn 0.2782 -0.9390 -0.2021
vn 0.7939 -0.1924 -0.5768
vn 0.6529 0.5904 -0.4744
vn 0.6529 -0.5904 -0.4744
vn 0.7939 0.1924 -0.5768
vn 0.3439 -0.9390 -0.0000
vn 0.9813 -0.1924 -0.0000
vn 0.8071 0.5904 -0.0000
vn 0.8071 -0.5904 -0.0000
vn 0.9813 0.1924 -0.0000
vn 0.3439 0.9390 -0.0000
vn 0.2782 -0.9390 0.2021
vn 0.7939 -0.1924 0.5768
vn 0.6529 0.5904 0.4744
vn 0.6529 -0.5904 0.4744
vn 0.7939 0.1924 0.5768
vn 0.2782 0.9390 0.2021
vn 0.1063 -0.9390 0.3271
vn 0.3032 -0.1924 0.9333
vn 0.2494 0.5904 0.7676
vn 0.2494 -0.5904 0.7676
vn 0.3032 0.1924 0.9333
vn 0.1063 0.9390 0.3271
vn -0.3032 -0.1924 0.9333
vn -0.2494 0.5904 0.7676
vn -0.2494 -0.5904 0.7676
vn -0.3032 0.1924 0.9333
vn -0.1063 0.9390 0.3271
vn -0.1063 -0.9390 0.3271
vn -0.6529 0.5904 0.4744
vn -0.6529 -0.5904 0.4744
vn -0.7939 0.1924 0.5768
vn -0.2782 0.9390 0.2021
vn -0.2782 -0.9390 0.2021
vn -0.7939 -0.1924 0.5768
vn -0.8071 -0.5904 -0.0000
vn -0.9813 0.1924 -0.0000
vn -0.3439 0.9390 -0.0000
vn -0.3439 -0.9390 -0.0000
vn -0.9813 -0.1924 -0.0000
vn -0.8071 0.5904 -0.0000
vn -0.6529 -0.5904 -0.4744
vn -0.7939 0.1924 -0.5768
vn -0.2782 0.9390 -0.2021
vn -0.2782 -0.9390 -0.2021
vn -0.7939 -0.1924 -0.5768
vn -0.6529 0.5904 -0.4744
vn -0.2494 -0.5904 -0.7676
vn -0.3032 0.1924 -0.9333
vn -0.1063 0.9390 -0.3271
vn -0.1063 -0.9390 -0.3271
vn -0.3032 -0.1924 -0.9333
vn -0.2494 0.5904 -0.7676
s 0
usemtl EF_WoodDark
f 1//1 2//1 4//1 3//1
f 3//2 4//2 8//2 7//2
f 7//3 8//3 6//3 5//3
f 5//4 6//4 2//4 1//4
f 3//5 7//5 5//5 1//5
f 8//6 4//6 2//6 6//6
f 57//1 58//1 60//1 59//1
f 59//2 60//2 64//2 63//2
f 63//3 64//3 62//3 61//3
f 61//4 62//4 58//4 57//4
f 59//5 63//5 61//5 57//5
f 64//6 60//6 58//6 62//6
f 65//1 66//1 68//1 67//1
f 67//2 68//2 72//2 71//2
f 71//3 72//3 70//3 69//3
f 69//4 70//4 66//4 65//4
f 67//5 71//5 69//5 65//5
f 72//6 68//6 66//6 70//6
f 73//1 74//1 76//1 75//1
f 75//2 76//2 80//2 79//2
f 79//3 80//3 78//3 77//3
f 77//4 78//4 74//4 73//4
f 75//5 79//5 77//5 73//5
f 80//6 76//6 74//6 78//6
f 81//1 82//1 84//1 83//1
f 83//2 84//2 88//2 87//2
f 87//3 88//3 86//3 85//3
f 85//4 86//4 82//4 81//4
f 83//5 87//5 85//5 81//5
f 88//6 84//6 82//6 86//6
usemtl EF_Wood
f 9//1 10//1 12//1 11//1
f 11//2 12//2 16//2 15//2
f 15//3 16//3 14//3 13//3
f 13//4 14//4 10//4 9//4
f 11//5 15//5 13//5 9//5
f 16//6 12//6 10//6 14//6
f 17//1 18//1 20//1 19//1
f 19//2 20//2 24//2 23//2
f 23//3 24//3 22//3 21//3
f 21//4 22//4 18//4 17//4
f 19//5 23//5 21//5 17//5
f 24//6 20//6 18//6 22//6
f 9//1 10//1 20//1 19//1
f 19//2 20//2 28//2 27//2
f 27//3 28//3 26//3 25//3
f 25//4 26//4 10//4 9//4
f 19//5 27//5 25//5 9//5
f 28//6 20//6 10//6 26//6
f 29//1 30//1 32//1 31//1
f 31//2 32//2 24//2 23//2
f 23//3 24//3 14//3 13//3
f 13//4 14//4 30//4 29//4
f 31//5 23//5 13//5 29//5
f 24//6 32//6 30//6 14//6
f 33//1 34//1 36//1 35//1
f 35//2 36//2 40//2 39//2
f 39//3 40//3 38//3 37//3
f 37//4 38//4 34//4 33//4
f 35//5 39//5 37//5 33//5
f 40//6 36//6 34//6 38//6
f 41//1 42//1 44//1 43//1
f 43//2 44//2 48//2 47//2
f 47//3 48//3 46//3 45//3
f 45//4 46//4 42//4 41//4
f 43//5 47//5 45//5 41//5
f 48//6 44//6 42//6 46//6
f 33//1 34//1 44//1 43//1
f 43//2 44//2 52//2 51//2
f 51//3 52//3 50//3 49//3
f 49//4 50//4 34//4 33//4
f 43//5 51//5 49//5 33//5
f 52//6 44//6 34//6 50//6
f 53//1 54//1 56//1 55//1
f 55//2 56//2 48//2 47//2
f 47//3 48//3 38//3 37//3
f 37//4 38//4 54//4 53//4
f 55//5 47//5 37//5 53//5
f 48//6 56//6 54//6 38//6
usemtl EF_Straw
f 89//1 90//1 92//1 91//1
f 91//2 92//2 96//2 95//2
f 95//3 96//3 94//3 93//3
f 93//4 94//4 90//4 89//4
f 91//5 95//5 93//5 89//5
f 96//6 92//6 90//6 94//6
usemtl EF_White
f 172//7 171//7 108//7 109//7
f 170//8 169//8 106//8 107//8
f 168//9 97//9 105//9
f 103//10 172//10 109//10
f 171//11 170//11 107//11 108//11
f 169//12 168//12 105//12 106//12
f 105//13 97//13 112//13
f 103//14 109//14 116//14
f 108//15 107//15 114//15 115//15
f 106//16 105//16 112//16 113//16
f 109//17 108//17 115//17 116//17
f 107//18 106//18 113//18 114//18
f 103//19 116//19 123//19
f 115//20 114//20 121//20 122//20
f 113//21 112//21 119//21 120//21
f 116//22 115//22 122//22 123//22
f 114//23 113//23 120//23 121//23
f 112//24 97//24 119//24
f 103//25 123//25 130//25
f 122//26 121//26 128//26 129//26
f 120//27 119//27 126//27 127//27
f 123//28 122//28 129//28 130//28
f 121//29 120//29 127//29 128//29
f 119//30 97//30 126//30
f 103//31 130//31 137//31
f 129//32 128//32 135//32 136//32
f 127//33 126//33 133//33 134//33
f 130//34 129//34 136//34 137//34
f 128//35 127//35 134//35 135//35
f 126//36 97//36 133//36
f 136//37 135//37 142//37 143//37
f 134//38 133//38 140//38 141//38
f 137//39 136//39 143//39 144//39
f 135//40 134//40 141//40 142//40
f 133//41 97//41 140//41
f 103//42 137//42 144//42
f 141//43 140//43 147//43 148//43
f 144//44 143//44 150//44 151//44
f 142//45 141//45 148//45 149//45
f 140//46 97//46 147//46
f 103//47 144//47 151//47
f 143//48 142//48 149//48 150//48
f 151//49 150//49 157//49 158//49
f 149//50 148//50 155//50 156//50
f 147//51 97//51 154//51
f 103//52 151//52 158//52
f 150//53 149//53 156//53 157//53
f 148//54 147//54 154//54 155//54
f 158//55 157//55 164//55 165//55
f 156//56 155//56 162//56 163//56
f 154//57 97//57 161//57
f 103//58 158//58 165//58
f 157//59 156//59 163//59 164//59
f 155//60 154//60 161//60 162//60
f 165//61 164//61 171//61 172//61
f 163//62 162//62 169//62 170//62
f 161//63 97//63 168//63
f 103//64 165//64 172//64
f 164//65 163//65 170//65 171//65
f 162//66 161//66 168//66 169//66
f 326//12 327//12 235//12 239//12
f 204//10 324//10 249//10
f 322//8 326//8 239//8 242//8
f 323//11 322//11 242//11 246//11
f 327//9 228//9 235//9
f 324//7 323//7 246//7 249//7
f 242//18 239//18 222//18 218//18
f 204//14 249//14 211//14
f 249//17 246//17 215//17 211//17
f 239//16 235//16 225//16 222//16
f 235//13 228//13 225//13
f 246//15 242//15 218//15 215//15
f 211//22 215//22 180//22 201//22
f 222//21 225//21 279//21 278//21
f 204//19 211//19 201//19
f 218//23 222//23 278//23 153//23
f 225//24 228//24 279//24
f 215//20 218//20 153//20 180//20
f 180//26 153//26 281//26 282//26
f 278//27 279//27 286//27 285//27
f 201//28 180//28 282//28 283//28
f 279//30 228//30 286//30
f 204//25 201//25 283//25
f 153//29 278//29 285//29 281//29
f 204//31 283//31 290//31
f 286//36 228//36 293//36
f 283//34 282//34 289//34 290//34
f 282//32 281//32 288//32 289//32
f 281//35 285//35 292//35 288//35
f 285//33 286//33 293//33 292//33
f 293//41 228//41 300//41
f 288//40 292//40 299//40 295//40
f 290//39 289//39 296//39 297//39
f 292//38 293//38 300//38 299//38
f 289//37 288//37 295//37 296//37
f 204//42 290//42 297//42
f 295//45 299//45 306//45 302//45
f 297//44 296//44 303//44 304//44
f 299//43 300//43 307//43 306//43
f 296//48 295//48 302//48 303//48
f 204//47 297//47 304//47
f 300//46 228//46 307//46
f 304//49 303//49 310//49 311//49
f 306//54 307//54 313//54 312//54
f 303//53 302//53 309//53 310//53
f 204//52 304//52 311//52
f 307//51 228//51 313//51
f 302//50 306//50 312//50 309//50
f 311//55 310//55 316//55 317//55
f 312//60 313//60 320//60 319//60
f 310//59 309//59 315//59 316//59
f 204//58 311//58 317//58
f 313//57 228//57 320//57
f 309//56 312//56 319//56 315//56
f 317//61 316//61 323//61 324//61
f 319//66 320//66 327//66 326//66
f 316//65 315//65 322//65 323//65
f 204//64 317//64 324//64
f 320//63 228//63 327//63
f 315//62 319//62 326//62 322//62
f 370//12 371//12 287//12 291//12
f 256//10 369//10 301//10
f 367//8 370//8 291//8 294//8
f 368//11 367//11 294//11 298//11
f 371//9 280//9 287//9
f 369//7 368//7 298//7 301//7
f 294//18 291//18 274//18 270//18
f 256//14 301//14 263//14
f 301//17 298//17 267//17 263//17
f 291//16 287//16 277//16 274//16
f 287//13 280//13 277//13
f 298//15 294//15 270//15 267//15
f 263//22 267//22 232//22 253//22
f 256//19 263//19 253//19
f 270//23 274//23 329//23 208//23
f 274//21 277//21 330//21 329//21
f 277//24 280//24 330//24
f 267//20 270//20 208//20 232//20
f 256//25 253//25 334//25
f 329//27 330//27 336//27 335//27
f 253//28 232//28 333//28 334//28
f 330//30 280//30 336//30
f 232//26 208//26 332//26 333//26
f 208//29 329//29 335//29 332//29
f 256//31 334//31 340//31
f 332//35 335//35 342//35 338//35
f 335//33 336//33 343//33 342//33
f 333//32 332//32 338//32 339//32
f 334//34 333//34 339//34 340//34
f 336//36 280//36 343//36
f 343//41 280//41 350//41
f 338//40 342//40 349//40 345//40
f 340//39 339//39 346//39 347//39
f 342//38 343//38 350//38 349//38
f 339//37 338//37 345//37 346//37
f 256//42 340//42 347//42
f 345//45 349//45 355//45 352//45
f 347//44 346//44 353//44 354//44
f 349//43 350//43 356//43 355//43
f 346//48 345//48 352//48 353//48
f 256//47 347//47 354//47
f 350//46 280//46 356//46
f 354//49 353//49 358//49 359//49
f 355//54 356//54 361//54 360//54
f 353//53 352//53 357//53 358//53
f 256//52 354//52 359//52
f 356//51 280//51 361//51
f 352//50 355//50 360//50 357//50
f 359//55 358//55 363//55 364//55
f 360//60 361//60 366//60 365//60
f 358//59 357//59 362//59 363//59
f 256//58 359//58 364//58
f 361//57 280//57 366//57
f 357//56 360//56 365//56 362//56
f 364//61 363//61 368//61 369//61
f 365//66 366//66 371//66 370//66
f 363//65 362//65 367//65 368//65
f 256//64 364//64 369//64
f 366//63 280//63 371//63
f 362//62 365//62 370//62 367//62
usemtl EF_Cream
f 223//12 224//12 131//12 132//12
f 220//11 219//11 138//11 139//11
f 101//10 221//10 145//10
f 219//8 223//8 132//8 138//8
f 224//9 124//9 131//9
f 221//7 220//7 139//7 145//7
f 145//17 139//17 110//17 104//17
f 131//13 124//13 118//13
f 138//18 132//18 117//18 111//18
f 101//14 145//14 104//14
f 132//16 131//16 118//16 117//16
f 139//15 138//15 111//15 110//15
f 117//21 118//21 175//21 174//21
f 101//19 104//19 100//19
f 111//23 117//23 174//23 98//23
f 118//24 124//24 175//24
f 104//22 110//22 99//22 100//22
f 110//20 111//20 98//20 99//20
f 175//30 124//30 182//30
f 100//28 99//28 178//28 179//28
f 99//26 98//26 177//26 178//26
f 174//27 175//27 182//27 181//27
f 101//25 100//25 179//25
f 98//29 174//29 181//29 177//29
f 181//33 182//33 189//33 188//33
f 178//32 177//32 184//32 185//32
f 101//31 179//31 186//31
f 182//36 124//36 189//36
f 177//35 181//35 188//35 184//35
f 179//34 178//34 185//34 186//34
f 184//40 188//40 195//40 191//40
f 186//39 185//39 192//39 193//39
f 188//38 189//38 196//38 195//38
f 185//37 184//37 191//37 192//37
f 101//42 186//42 193//42
f 189//41 124//41 196//41
f 193//44 192//44 199//44 200//44
f 195//43 196//43 203//43 202//43
f 192//48 191//48 198//48 199//48
f 101//47 193//47 200//47
f 196//46 124//46 203//46
f 191//45 195//45 202//45 198//45
f 202//54 203//54 210//54 209//54
f 199//53 198//53 205//53 206//53
f 101//52 200//52 207//52
f 203//51 124//51 210//51
f 198//50 202//50 209//50 205//50
f 200//49 199//49 206//49 207//49
f 209//60 210//60 217//60 216//60
f 206//59 205//59 212//59 213//59
f 101//58 207//58 214//58
f 210//57 124//57 217//57
f 205//56 209//56 216//56 212//56
f 207//55 206//55 213//55 214//55
f 216//66 217//66 224//66 223//66
f 213//65 212//65 219//65 220//65
f 101//64 214//64 221//64
f 217//63 124//63 224//63
f 212//62 216//62 223//62 219//62
f 214//61 213//61 220//61 221//61
f 272//11 271//11 190//11 194//11
f 271//8 275//8 187//8 190//8
f 276//9 176//9 183//9
f 275//12 276//12 183//12 187//12
f 273//7 272//7 194//7 197//7
f 152//10 273//10 197//10
f 197//17 194//17 160//17 159//17
f 183//13 176//13 173//13
f 152//14 197//14 159//14
f 187//16 183//16 173//16 167//16
f 194//15 190//15 166//15 160//15
f 190//18 187//18 167//18 166//18
f 167//21 173//21 227//21 226//21
f 152//19 159//19 146//19
f 166//23 167//23 226//23 102//23
f 173//24 176//24 227//24
f 159//22 160//22 125//22 146//22
f 160//20 166//20 102//20 125//20
f 146//28 125//28 230//28 231//28
f 227//30 176//30 234//30
f 102//29 226//29 233//29 229//29
f 152//25 146//25 231//25
f 226//27 227//27 234//27 233//27
f 125//26 102//26 229//26 230//26
f 152//31 231//31 238//31
f 230//32 229//32 236//32 237//32
f 233//33 234//33 241//33 240//33
f 231//34 230//34 237//34 238//34
f 229//35 233//35 240//35 236//35
f 234//36 176//36 241//36
f 241//41 176//41 248//41
f 236//40 240//40 247//40 243//40
f 238//39 237//39 244//39 245//39
f 240//38 241//38 248//38 247//38
f 237//37 236//37 243//37 244//37
f 152//42 238//42 245//42
f 243//45 247//45 254//45 250//45
f 245//44 244//44 251//44 252//44
f 247//43 248//43 255//43 254//43
f 244//48 243//48 250//48 251//48
f 152//47 245//47 252//47
f 248//46 176//46 255//46
f 252//49 251//49 258//49 259//49
f 254//54 255//54 262//54 261//54
f 251//53 250//53 257//53 258//53
f 152//52 252//52 259//52
f 255//51 176//51 262//51
f 250//50 254//50 261//50 257//50
f 259//55 258//55 265//55 266//55
f 261//60 262//60 269//60 268//60
f 258//59 257//59 264//59 265//59
f 152//58 259//58 266//58
f 262//57 176//57 269//57
f 257//56 261//56 268//56 264//56
f 266//61 265//61 272//61 273//61
f 268//66 269//66 276//66 275//66
f 265//65 264//65 271//65 272//65
f 152//64 266//64 273//64
f 269//63 176//63 276//63
f 264//62 268//62 275//62 271//62
f 407//12 408//12 337//12 341//12
f 308//10 406//10 351//10
f 404//8 407//8 341//8 344//8
f 405//11 404//11 344//11 348//11
f 408//9 331//9 337//9
f 406//7 405//7 348//7 351//7
f 344//18 341//18 325//18 321//18
f 308//14 351//14 314//14
f 351//17 348//17 318//17 314//17
f 341//16 337//16 328//16 325//16
f 337//13 331//13 328//13
f 348//15 344//15 321//15 318//15
f 314//22 318//22 284//22 305//22
f 325//21 328//21 373//21 372//21
f 321//23 325//23 372//23 260//23
f 308//19 314//19 305//19
f 328//24 331//24 373//24
f 318//20 321//20 260//20 284//20
f 308//25 305//25 376//25
f 372//27 373//27 378//27 377//27
f 305//28 284//28 375//28 376//28
f 373//30 331//30 378//30
f 284//26 260//26 374//26 375//26
f 260//29 372//29 377//29 374//29
f 308//31 376//31 381//31
f 376//34 375//34 380//34 381//34
f 375//32 374//32 379//32 380//32
f 374//35 377//35 382//35 379//35
f 377//33 378//33 383//33 382//33
f 378//36 331//36 383//36
f 383//41 331//41 388//41
f 379//40 382//40 387//40 384//40
f 381//39 380//39 385//39 386//39
f 382//38 383//38 388//38 387//38
f 380//37 379//37 384//37 385//37
f 308//42 381//42 386//42
f 384//45 387//45 392//45 389//45
f 386//44 385//44 390//44 391//44
f 387//43 388//43 393//43 392//43
f 385//48 384//48 389//48 390//48
f 308//47 386//47 391//47
f 388//46 331//46 393//46
f 391//49 390//49 395//49 396//49
f 392//54 393//54 398//54 397//54
f 390//53 389//53 394//53 395//53
f 308//52 391//52 396//52
f 393//51 331//51 398//51
f 389//50 392//50 397//50 394//50
f 396//55 395//55 400//55 401//55
f 397//60 398//60 403//60 402//60
f 395//59 394//59 399//59 400//59
f 308//58 396//58 401//58
f 398//57 331//57 403//57
f 394//56 397//56 402//56 399//56
f 401//61 400//61 405//61 406//61
f 402//66 403//66 408//66 407//66
f 400//65 399//65 404//65 405//65
f 308//64 401//64 406//64
f 403//63 331//63 408//63
f 399//62 402//62 407//62 404//62
