# Blender 5.0.1
# www.blender.org
mtllib EggFactory.mtl
o EggFactory
v 5.950001 0.000000 -4.340000
v 5.950001 0.168000 -4.340000
v 5.949999 0.000000 4.340001
v 5.949999 0.168000 4.340001
v -3.850000 0.000000 -4.340000
v -3.850000 0.168000 -4.340000
v -3.850000 0.000000 4.340000
v -3.850000 0.168000 4.340000
v 5.810000 0.168000 -4.199999
v 5.810000 4.088000 -4.199999
v 5.809999 0.168000 4.200001
v 5.809999 4.088000 4.200001
v -3.710000 0.168000 -4.200000
v -3.710000 4.088000 -4.200000
v -3.710000 0.168000 4.200000
v -3.710000 4.088000 4.200000
v 5.824000 0.168000 -4.214000
v 5.824000 0.616000 -4.214000
v 5.823999 0.168000 4.214001
v 5.823999 0.616000 4.214001
v -3.724000 0.168000 -4.214000
v -3.724000 0.616000 -4.214000
v -3.724000 0.168000 4.214000
v -3.724000 0.616000 4.214000
v 5.866001 3.864000 -4.256000
v 5.866001 4.088000 -4.256000
v 5.866000 3.864000 4.256001
v 5.866000 4.088000 4.256001
v -3.766000 3.864000 -4.256000
v -3.766000 4.088000 -4.256000
v -3.766001 3.864000 4.256000
v -3.766001 4.088000 4.256000
v -3.710000 4.088000 -2.100000
v -3.710000 5.208000 -2.100000
v 5.810000 4.088000 -2.100000
v 5.810000 5.208000 -2.100000
v 5.670000 4.172000 -2.169999
v 5.670000 5.124001 -2.169999
v 5.670000 4.172000 -2.114000
v 5.670000 5.124001 -2.114000
v -3.570000 4.172000 -2.170000
v -3.570000 5.124001 -2.170000
v -3.570000 4.172000 -2.114000
v -3.570000 5.124001 -2.114000
v -3.710000 4.088000 -0.000000
v -3.710000 5.208000 -0.000000
v 5.810000 4.088000 0.000000
v 5.810000 5.208000 0.000000
v 5.670000 4.172000 -0.070000
v 5.670000 5.124001 -0.070000
v 5.670000 4.172000 -0.014000
v 5.670000 5.124001 -0.014000
v -3.570000 4.172000 -0.070000
v -3.570000 5.124001 -0.070000
v -3.570000 4.172000 -0.014000
v -3.570000 5.124001 -0.014000
v -3.710000 4.088000 2.100000
v -3.710000 5.208000 2.100000
v 5.810000 4.088000 2.100000
v 5.810000 5.208000 2.100000
v 5.670000 4.172000 2.030000
v 5.670000 5.124001 2.030000
v 5.670000 4.172000 2.086000
v 5.670000 5.124001 2.086000
v -3.570000 4.172000 2.030000
v -3.570000 5.124001 2.030000
v -3.570000 4.172000 2.086000
v -3.570000 5.124001 2.086000
v -3.710000 5.208000 4.200000
v 5.809999 5.208000 4.200000
v 5.670000 4.172000 4.130001
v 5.670000 5.124001 4.130001
v 5.670000 4.172000 4.186001
v 5.670000 5.124001 4.186001
v -3.570000 4.172000 4.130000
v -3.570000 5.124001 4.130000
v -3.570000 4.172000 4.186000
v -3.570000 5.124001 4.186000
v 4.130000 2.408000 -4.284000
v 4.130000 0.168000 -4.284000
v 4.130000 4.088000 2.912000
v 4.130000 7.448000 2.912000
v 3.934000 4.088000 2.859482
v 3.934000 7.448000 2.859482
v 3.790518 4.088000 2.716000
v 3.790518 7.448000 2.716000
v 3.738000 4.088000 2.520000
v 3.738000 7.448000 2.520000
v 3.790518 4.088000 2.324000
v 3.790518 7.448000 2.324000
v 3.934000 4.088000 2.180518
v 3.934000 7.448000 2.180518
v 4.130000 4.088000 2.128000
v 4.130000 7.448000 2.128000
v 4.326000 4.088000 2.180518
v 4.326000 7.448000 2.180518
v 4.469482 4.088000 2.324000
v 4.469482 7.448000 2.324000
v 4.522000 4.088000 2.520000
v 4.522000 7.448000 2.520000
v 4.469482 4.088000 2.716000
v 4.469482 7.448000 2.716000
v 4.326000 4.088000 2.859482
v 4.326000 7.448000 2.859482
v 4.130000 5.096000 2.940000
v 4.130000 5.264000 2.940000
v 3.920000 5.096000 2.883731
v 3.920000 5.264000 2.883731
v 3.766269 5.096000 2.730000
v 3.766269 5.264000 2.730000
v 3.710000 5.096000 2.520000
v 3.710000 5.264000 2.520000
v 3.766269 5.096000 2.310000
v 3.766269 5.264000 2.310000
v 3.920000 5.096000 2.156270
v 3.920000 5.264000 2.156270
v 4.130000 5.096000 2.100000
v 4.130000 5.264000 2.100000
v 4.340000 5.096000 2.156270
v 4.340000 5.264000 2.156270
v 4.493731 5.096000 2.310000
v 4.493731 5.264000 2.310000
v 4.550000 5.096000 2.520000
v 4.550000 5.264000 2.520000
v 4.493731 5.096000 2.730000
v 4.493731 5.264000 2.730000
v 4.340000 5.096000 2.883731
v 4.340000 5.264000 2.883731
v 4.130000 6.440000 2.940000
v 4.130000 6.608000 2.940000
v 3.920000 6.440000 2.883731
v 3.920000 6.608000 2.883731
v 3.766269 6.440000 2.730000
v 3.766269 6.608000 2.730000
v 3.710000 6.440000 2.520000
v 3.710000 6.608000 2.520000
v 3.766269 6.440000 2.310000
v 3.766269 6.608000 2.310000
v 3.920000 6.440000 2.156270
v 3.920000 6.608000 2.156270
v 4.130000 6.440000 2.100000
v 4.130000 6.608000 2.100000
v 4.340000 6.440000 2.156270
v 4.340000 6.608000 2.156270
v 4.493731 6.440000 2.310000
v 4.493731 6.608000 2.310000
v 4.550000 6.440000 2.520000
v 4.550000 6.608000 2.520000
v 4.493731 6.440000 2.730000
v 4.493731 6.608000 2.730000
v 4.340000 6.440000 2.883731
v 4.340000 6.608000 2.883731
v 2.870000 4.088000 2.912000
v 2.870000 6.608000 2.912000
v 2.674000 4.088000 2.859482
v 2.674000 6.608000 2.859482
v 2.530518 4.088000 2.716000
v 2.530518 6.608000 2.716000
v 2.478000 4.088000 2.520000
v 2.478000 6.608000 2.520000
v 2.530518 4.088000 2.324000
v 2.530518 6.608000 2.324000
v 2.674000 4.088000 2.180518
v 2.674000 6.608000 2.180518
v 2.870000 4.088000 2.128000
v 2.870000 6.608000 2.128000
v 3.066000 4.088000 2.180518
v 3.066000 6.608000 2.180518
v 3.209482 4.088000 2.324000
v 3.209482 6.608000 2.324000
v 3.262000 4.088000 2.520000
v 3.262000 6.608000 2.520000
v 3.209482 4.088000 2.716000
v 3.209482 6.608000 2.716000
v 3.066000 4.088000 2.859482
v 3.066000 6.608000 2.859482
v 2.870000 4.844000 2.940000
v 2.870000 5.012000 2.940000
v 2.660000 4.844000 2.883731
v 2.660000 5.012000 2.883731
v 2.506269 4.844000 2.730000
v 2.506269 5.012000 2.730000
v 2.450000 4.844000 2.520000
v 2.450000 5.012000 2.520000
v 2.506269 4.844000 2.310000
v 2.506269 5.012000 2.310000
v 2.660000 4.844000 2.156270
v 2.660000 5.012000 2.156270
v 2.870000 4.844000 2.100000
v 2.870000 5.012000 2.100000
v 3.080000 4.844000 2.156270
v 3.080000 5.012000 2.156270
v 3.233730 4.844000 2.310000
v 3.233730 5.012000 2.310000
v 3.290000 4.844000 2.520000
v 3.290000 5.012000 2.520000
v 3.233730 4.844000 2.730000
v 3.233730 5.012000 2.730000
v 3.080000 4.844000 2.883731
v 3.080000 5.012000 2.883731
v 2.870000 5.852000 2.940000
v 2.870000 6.020000 2.940000
v 2.660000 5.852000 2.883731
v 2.660000 6.020000 2.883731
v 2.506269 5.852000 2.730000
v 2.506269 6.020000 2.730000
v 2.450000 5.852000 2.520000
v 2.450000 6.020000 2.520000
v 2.506269 5.852000 2.310000
v 2.506269 6.020000 2.310000
v 2.660000 5.852000 2.156270
v 2.660000 6.020000 2.156270
v 2.870000 5.852000 2.100000
v 2.870000 6.020000 2.100000
v 3.080000 5.852000 2.156270
v 3.080000 6.020000 2.156270
v 3.233730 5.852000 2.310000
v 3.233730 6.020000 2.310000
v 3.290000 5.852000 2.520000
v 3.290000 6.020000 2.520000
v 3.233730 5.852000 2.730000
v 3.233730 6.020000 2.730000
v 3.080000 5.852000 2.883731
v 3.080000 6.020000 2.883731
v 4.130000 0.168000 -4.172000
v 4.130000 2.408000 -4.172000
v 1.330000 0.168000 -4.284000
v 1.330000 2.408000 -4.284000
v 1.330000 0.168000 -4.172000
v 1.330000 2.408000 -4.172000
v 4.074000 0.711200 -4.326000
v 4.074000 0.744800 -4.326000
v 4.074000 0.711200 -4.186000
v 4.074000 0.744800 -4.186000
v 1.386000 0.711200 -4.326000
v 1.386000 0.744800 -4.326000
v 1.386000 0.711200 -4.186000
v 1.386000 0.744800 -4.186000
v 4.074000 0.991200 -4.326000
v 4.074000 1.024800 -4.326000
v 4.074000 0.991200 -4.186000
v 4.074000 1.024800 -4.186000
v 1.386000 0.991200 -4.326000
v 1.386000 1.024800 -4.326000
v 1.386000 0.991200 -4.186000
v 1.386000 1.024800 -4.186000
v 4.074000 1.271200 -4.326000
v 4.074000 1.304800 -4.326000
v 4.074000 1.271200 -4.186000
v 4.074000 1.304800 -4.186000
v 1.386000 1.271200 -4.326000
v 1.386000 1.304800 -4.326000
v 1.386000 1.271200 -4.186000
v 1.386000 1.304800 -4.186000
v 4.074000 1.551200 -4.326000
v 4.074000 1.584800 -4.326000
v 4.074000 1.551200 -4.186000
v 4.074000 1.584800 -4.186000
v 1.386000 1.551200 -4.326000
v 1.386000 1.584800 -4.326000
v 1.386000 1.551200 -4.186000
v 1.386000 1.584800 -4.186000
v 4.074000 1.831200 -4.326000
v 4.074000 1.864800 -4.326000
v 4.074000 1.831200 -4.186000
v 4.074000 1.864800 -4.186000
v 1.386000 1.831200 -4.326000
v 1.386000 1.864800 -4.326000
v 1.386000 1.831200 -4.186000
v 1.386000 1.864800 -4.186000
v 4.074000 2.111200 -4.326000
v 4.074000 2.144800 -4.326000
v 4.074000 2.111200 -4.186000
v 4.074000 2.144800 -4.186000
v 1.386000 2.111200 -4.326000
v 1.386000 2.144800 -4.326000
v 1.386000 2.111200 -4.186000
v 1.386000 2.144800 -4.186000
v 0.224000 0.854000 -4.270000
v 0.224000 1.722000 -4.270000
v 0.224000 0.854000 -4.200000
v 0.224000 1.722000 -4.200000
v -0.924000 0.854000 -4.270000
v -0.924000 1.722000 -4.270000
v -0.924000 0.854000 -4.200000
v -0.924000 1.722000 -4.200000
v 0.154000 0.924000 -4.305000
v 0.154000 1.652000 -4.305000
v 0.154000 0.924000 -4.235000
v 0.154000 1.652000 -4.235000
v -0.854000 0.924000 -4.305000
v -0.854000 1.652000 -4.305000
v -0.854000 0.924000 -4.235000
v -0.854000 1.652000 -4.235000
v 0.154000 1.262800 -4.333000
v 0.154000 1.313200 -4.333000
v 0.154000 1.262800 -4.221000
v 0.154000 1.313200 -4.221000
v -0.854000 1.262800 -4.333000
v -0.854000 1.313200 -4.333000
v -0.854000 1.262800 -4.221000
v -0.854000 1.313200 -4.221000
v -0.324800 0.924000 -4.333000
v -0.324800 1.652000 -4.333000
v -0.324800 0.924000 -4.221000
v -0.324800 1.652000 -4.221000
v -0.375200 0.924000 -4.333000
v -0.375200 1.652000 -4.333000
v -0.375200 0.924000 -4.221000
v -0.375200 1.652000 -4.221000
v 0.224000 2.534000 -4.270000
v 0.224000 3.402000 -4.270000
v 0.224000 2.534000 -4.200000
v 0.224000 3.402000 -4.200000
v -0.924000 2.534000 -4.270000
v -0.924000 3.402000 -4.270000
v -0.924000 2.534000 -4.200000
v -0.924000 3.402000 -4.200000
v 0.154000 2.604000 -4.305000
v 0.154000 3.332000 -4.305000
v 0.154000 2.604000 -4.235000
v 0.154000 3.332000 -4.235000
v -0.854000 2.604000 -4.305000
v -0.854000 3.332000 -4.305000
v -0.854000 2.604000 -4.235000
v -0.854000 3.332000 -4.235000
v 0.154000 2.942800 -4.333000
v 0.154000 2.993200 -4.333000
v 0.154000 2.942800 -4.221000
v 0.154000 2.993200 -4.221000
v -0.854000 2.942800 -4.333000
v -0.854000 2.993200 -4.333000
v -0.854000 2.942800 -4.221000
v -0.854000 2.993200 -4.221000
v -0.324800 2.604000 -4.333000
v -0.324800 3.332000 -4.333000
v -0.324800 2.604000 -4.221000
v -0.324800 3.332000 -4.221000
v -0.375200 2.604000 -4.333000
v -0.375200 3.332000 -4.333000
v -0.375200 2.604000 -4.221000
v -0.375200 3.332000 -4.221000
v -1.455999 0.854000 -4.270000
v -1.455999 1.722000 -4.270000
v -1.455999 0.854000 -4.200000
v -1.455999 1.722000 -4.200000
v -2.604000 0.854000 -4.270000
v -2.604000 1.722000 -4.270000
v -2.604000 0.854000 -4.200000
v -2.604000 1.722000 -4.200000
v -1.526000 0.924000 -4.305000
v -1.526000 1.652000 -4.305000
v -1.526000 0.924000 -4.235000
v -1.526000 1.652000 -4.235000
v -2.534000 0.924000 -4.305000
v -2.534000 1.652000 -4.305000
v -2.534000 0.924000 -4.235000
v -2.534000 1.652000 -4.235000
v -1.526000 1.262800 -4.333000
v -1.526000 1.313200 -4.333000
v -1.526000 1.262800 -4.221000
v -1.526000 1.313200 -4.221000
v -2.534000 1.262800 -4.333000
v -2.534000 1.313200 -4.333000
v -2.534000 1.262800 -4.221000
v -2.534000 1.313200 -4.221000
v -2.004800 0.924000 -4.333000
v -2.004800 1.652000 -4.333000
v -2.004800 0.924000 -4.221000
v -2.004800 1.652000 -4.221000
v -2.055200 0.924000 -4.333000
v -2.055200 1.652000 -4.333000
v -2.055200 0.924000 -4.221000
v -2.055200 1.652000 -4.221000
v -1.455999 2.534000 -4.270000
v -1.455999 3.402000 -4.270000
v -1.455999 2.534000 -4.200000
v -1.455999 3.402000 -4.200000
v -2.604000 2.534000 -4.270000
v -2.604000 3.402000 -4.270000
v -2.604000 2.534000 -4.200000
v -2.604000 3.402000 -4.200000
v -1.526000 2.604000 -4.305000
v -1.526000 3.332000 -4.305000
v -1.526000 2.604000 -4.235000
v -1.526000 3.332000 -4.235000
v -2.534000 2.604000 -4.305000
v -2.534000 3.332000 -4.305000
v -2.534000 2.604000 -4.235000
v -2.534000 3.332000 -4.235000
v -1.526000 2.942800 -4.333000
v -1.526000 2.993200 -4.333000
v -1.526000 2.942800 -4.221000
v -1.526000 2.993200 -4.221000
v -2.534000 2.942800 -4.333000
v -2.534000 2.993200 -4.333000
v -2.534000 2.942800 -4.221000
v -2.534000 2.993200 -4.221000
v -2.004800 2.604000 -4.333000
v -2.004800 3.332000 -4.333000
v -2.004800 2.604000 -4.221000
v -2.004800 3.332000 -4.221000
v -2.055200 2.604000 -4.333000
v -2.055200 3.332000 -4.333000
v -2.055200 2.604000 -4.221000
v -2.055200 3.332000 -4.221000
v -3.710000 0.840000 -1.680000
v -3.710000 1.008000 -1.680000
v -3.710000 0.840000 -0.560000
v -3.710000 1.008000 -0.560000
v -5.950000 0.840000 -1.680001
v -5.950000 1.008000 -1.680001
v -5.950000 0.840000 -0.560001
v -5.950000 1.008000 -0.560001
v -3.920000 0.000000 -1.624000
v -3.920000 0.840000 -1.624000
v -3.920000 0.000000 -0.616000
v -3.920000 0.840000 -0.616000
v -4.060000 0.000000 -1.624000
v -4.060000 0.840000 -1.624000
v -4.060000 0.000000 -0.616000
v -4.060000 0.840000 -0.616000
v -5.600000 0.000000 -1.624001
v -5.600000 0.840000 -1.624001
v -5.600000 0.000000 -0.616000
v -5.600000 0.840000 -0.616000
v -5.740000 0.000000 -1.624001
v -5.740000 0.840000 -1.624001
v -5.740000 0.000000 -0.616001
v -5.740000 0.840000 -0.616001
v -3.710000 1.232000 -1.680000
v -3.710000 1.008000 -1.596000
v -3.710000 1.232000 -1.596000
v -5.950000 1.232000 -1.680001
v -5.950000 1.008000 -1.596000
v -5.950000 1.232000 -1.596000
v -3.710000 1.008000 -0.644000
v -3.710000 1.232000 -0.644000
v -3.710000 1.232000 -0.560000
v -5.950000 1.008000 -0.644001
v -5.950000 1.232000 -0.644001
v -5.950000 1.232000 -0.560001
v -3.934000 1.008000 -1.456000
v -3.934000 1.288000 -1.456000
v -3.934000 1.008000 -0.784000
v -3.934000 1.288000 -0.784000
v -4.606000 1.008000 -1.456000
v -4.606000 1.288000 -1.456000
v -4.606000 1.008000 -0.784000
v -4.606000 1.288000 -0.784000
v -4.102000 1.487500 -1.288000
v -4.102000 1.172500 -0.952000
v -4.165000 1.193601 -0.952000
v -4.211119 1.251250 -0.952000
v -4.228000 1.330000 -0.952000
v -4.211119 1.408750 -0.952000
v -4.102000 1.172500 -1.288000
v -4.165000 1.466399 -0.952000
v -4.146548 1.466399 -1.243453
v -4.179159 1.408750 -1.210841
v -4.191095 1.330000 -1.198905
v -4.179159 1.251250 -1.210841
v -4.146548 1.193601 -1.243453
v -4.102000 1.487500 -0.952000
v -4.438000 1.172500 -1.288000
v -4.165000 1.466399 -1.288000
v -4.211119 1.408750 -1.288000
v -4.228000 1.330000 -1.288000
v -4.211119 1.251250 -1.288000
v -4.165000 1.193601 -1.288000
v -4.146548 1.466399 -0.907453
v -4.179159 1.408750 -0.874841
v -4.146548 1.466399 -1.332548
v -4.179159 1.408750 -1.365159
v -4.191095 1.330000 -1.377096
v -4.179159 1.251250 -1.365159
v -4.146548 1.193601 -1.332548
v -4.191095 1.330000 -0.862905
v -4.179159 1.251250 -0.874841
v -4.102000 1.466399 -1.351000
v -4.102000 1.408750 -1.397120
v -4.102000 1.330000 -1.414000
v -4.102000 1.251250 -1.397120
v -4.102000 1.193601 -1.351000
v -4.146548 1.193601 -0.907453
v -4.501000 1.193601 -1.288000
v -4.057452 1.466399 -1.332548
v -4.024841 1.408750 -1.365159
v -4.012905 1.330000 -1.377096
v -4.024841 1.251250 -1.365159
v -4.057452 1.193601 -1.332548
v -4.547119 1.251250 -1.288000
v -4.564000 1.330000 -1.288000
v -4.039000 1.466399 -1.288000
v -3.992881 1.408750 -1.288000
v -3.976000 1.330000 -1.288000
v -3.992881 1.251250 -1.288000
v -4.039000 1.193601 -1.288000
v -4.547119 1.408750 -1.288000
v -4.501000 1.466399 -1.288000
v -4.057452 1.466399 -1.243453
v -4.024841 1.408750 -1.210841
v -4.012905 1.330000 -1.198905
v -4.024841 1.251250 -1.210841
v -4.057452 1.193601 -1.243453
v -4.438000 1.487500 -1.288000
v -4.438000 1.172500 -0.952000
v -4.102000 1.466399 -1.225000
v -4.102000 1.408750 -1.178881
v -4.102000 1.330000 -1.162000
v -4.102000 1.251250 -1.178881
v -4.102000 1.193601 -1.225000
v -4.482548 1.466399 -1.243453
v -4.515159 1.408750 -1.210841
v -4.146548 1.193601 -0.996548
v -4.179159 1.251250 -1.029159
v -4.191095 1.330000 -1.041096
v -4.179159 1.408750 -1.029159
v -4.146548 1.466399 -0.996548
v -4.527095 1.330000 -1.198905
v -4.515159 1.251250 -1.210841
v -4.102000 1.193601 -1.015000
v -4.102000 1.251250 -1.061120
v -4.102000 1.330000 -1.078000
v -4.102000 1.408750 -1.061120
v -4.102000 1.466399 -1.015000
v -4.482548 1.193601 -1.243453
v -4.501000 1.193601 -0.952000
v -4.057452 1.193601 -0.996548
v -4.024841 1.251250 -1.029159
v -4.012905 1.330000 -1.041096
v -4.024841 1.408750 -1.029159
v -4.057452 1.466399 -0.996548
v -4.547119 1.251250 -0.952000
v -4.564000 1.330000 -0.952000
v -4.039000 1.193601 -0.952000
v -3.992881 1.251250 -0.952000
v -3.976000 1.330000 -0.952000
v -3.992881 1.408750 -0.952000
v -4.039000 1.466399 -0.952000
v -4.547119 1.408750 -0.952000
v -4.501000 1.466399 -0.952000
v -4.057452 1.193601 -0.907453
v -4.024841 1.251250 -0.874841
v -4.012905 1.330000 -0.862905
v -4.024841 1.408750 -0.874841
v -4.057452 1.466399 -0.907453
v -4.438000 1.487500 -0.952000
v -5.126548 1.466399 -1.243453
v -4.102000 1.193601 -0.889000
v -4.102000 1.251250 -0.842881
v -4.102000 1.330000 -0.826000
v -4.102000 1.408750 -0.842881
v -4.102000 1.466399 -0.889000
v -4.482548 1.466399 -0.907453
v -4.515159 1.408750 -0.874842
v -4.482548 1.193601 -1.332548
v -4.515159 1.251250 -1.365159
v -4.527095 1.330000 -1.377096
v -4.515159 1.408750 -1.365159
v -4.482548 1.466399 -1.332548
v -4.527095 1.330000 -0.862905
v -4.515159 1.251250 -0.874842
v -4.438000 1.193601 -1.351000
v -4.438000 1.251250 -1.397120
v -4.438000 1.330000 -1.414000
v -4.438000 1.408750 -1.397120
v -4.438000 1.466399 -1.351000
v -4.482548 1.193601 -0.907453
v -5.159159 1.408750 -1.210841
v -4.393452 1.193601 -1.332548
v -4.360841 1.251250 -1.365159
v -4.348905 1.330000 -1.377096
v -4.360841 1.408750 -1.365159
v -4.393452 1.466399 -1.332548
v -5.171095 1.330000 -1.198905
v -5.159159 1.251250 -1.210841
v -4.375000 1.193601 -1.288000
v -4.328881 1.251250 -1.288000
v -4.312000 1.330000 -1.288000
v -4.328881 1.408750 -1.288000
v -4.375000 1.466399 -1.288000
v -5.126548 1.193601 -1.243453
v -5.082000 1.172500 -1.288000
v -4.393452 1.193601 -1.243453
v -4.360841 1.251250 -1.210841
v -4.348905 1.330000 -1.198905
v -4.360841 1.408750 -1.210841
v -4.393452 1.466399 -1.243453
v -5.082000 1.172500 -0.952000
v -5.145000 1.193601 -0.952000
v -4.438000 1.193601 -1.225000
v -4.438000 1.251250 -1.178881
v -4.438000 1.330000 -1.162000
v -4.438000 1.408750 -1.178881
v -4.438000 1.466399 -1.225000
v -5.191119 1.251250 -0.952000
v -5.208000 1.330000 -0.952000
v -4.482548 1.193601 -0.996548
v -4.515159 1.251250 -1.029159
v -4.527095 1.330000 -1.041096
v -4.515159 1.408750 -1.029159
v -4.482548 1.466399 -0.996548
v -5.191119 1.408750 -0.952000
v -5.145000 1.466399 -0.952000
v -4.438000 1.193601 -1.015000
v -4.438000 1.251250 -1.061120
v -4.438000 1.330000 -1.078000
v -4.438000 1.408750 -1.061120
v -4.438000 1.466399 -1.015000
v -5.082000 1.487500 -1.288000
v -5.586000 1.288000 -0.784000
v -4.393452 1.193601 -0.996548
v -4.360841 1.251250 -1.029159
v -4.348905 1.330000 -1.041096
v -4.360841 1.408750 -1.029159
v -4.393452 1.466399 -0.996548
v -5.586000 1.008000 -0.784000
v -5.586000 1.288000 -1.456000
v -4.375000 1.193601 -0.952000
v -4.328881 1.251250 -0.952000
v -4.312000 1.330000 -0.952000
v -4.328881 1.408750 -0.952000
v -4.375000 1.466399 -0.952000
v -5.586000 1.008000 -1.456000
v -4.914000 1.288000 -0.784000
v -4.393452 1.193601 -0.907453
v -4.360841 1.251250 -0.874842
v -4.348905 1.330000 -0.862905
v -4.360841 1.408750 -0.874842
v -4.393452 1.466399 -0.907453
v -4.914000 1.008000 -0.784000
v -4.914000 1.288000 -1.456000
v -4.438000 1.193601 -0.889000
v -4.438000 1.251250 -0.842881
v -4.438000 1.330000 -0.826000
v -4.438000 1.408750 -0.842881
v -4.438000 1.466399 -0.889000
v -4.914000 1.008000 -1.456000
v -5.082000 1.487500 -0.952000
v -5.145000 1.466399 -1.288000
v -5.191119 1.408750 -1.288000
v -5.208000 1.330000 -1.288000
v -5.191119 1.251250 -1.288000
v -5.145000 1.193601 -1.288000
v -5.418000 1.172500 -1.288000
v -5.126548 1.466399 -0.907453
v -5.126548 1.466399 -1.332548
v -5.159159 1.408750 -1.365159
v -5.171095 1.330000 -1.377096
v -5.159159 1.251250 -1.365159
v -5.126548 1.193601 -1.332548
v -5.159159 1.408750 -0.874842
v -5.171095 1.330000 -0.862905
v -5.082000 1.466399 -1.351000
v -5.082000 1.408750 -1.397120
v -5.082000 1.330000 -1.414000
v -5.082000 1.251250 -1.397120
v -5.082000 1.193601 -1.351000
v -5.159159 1.251250 -0.874842
v -5.126548 1.193601 -0.907453
v -5.037452 1.466399 -1.332548
v -5.004841 1.408750 -1.365159
v -4.992905 1.330000 -1.377096
v -5.004841 1.251250 -1.365159
v -5.037452 1.193601 -1.332548
v -5.481000 1.193601 -1.288000
v -5.527119 1.251250 -1.288000
v -5.019000 1.466399 -1.288000
v -4.972881 1.408750 -1.288000
v -4.956000 1.330000 -1.288000
v -4.972881 1.251250 -1.288000
v -5.019000 1.193601 -1.288000
v -5.544000 1.330000 -1.288000
v -5.527119 1.408750 -1.288000
v -5.037452 1.466399 -1.243453
v -5.004841 1.408750 -1.210841
v -4.992905 1.330000 -1.198905
v -5.004841 1.251250 -1.210841
v -5.037452 1.193601 -1.243453
v -5.481000 1.466399 -1.288000
v -5.418000 1.487500 -1.288000
v -5.082000 1.466399 -1.225000
v -5.082000 1.408750 -1.178881
v -5.082000 1.330000 -1.162000
v -5.082000 1.251250 -1.178881
v -5.082000 1.193601 -1.225000
v -5.418000 1.172500 -0.952000
v -5.462548 1.466399 -1.243453
v -5.495159 1.408750 -1.210842
v -5.126548 1.193601 -0.996548
v -5.159159 1.251250 -1.029159
v -5.171095 1.330000 -1.041096
v -5.159159 1.408750 -1.029159
v -5.126548 1.466399 -0.996548
v -5.507095 1.330000 -1.198905
v -5.495159 1.251250 -1.210842
v -5.082000 1.193601 -1.015000
v -5.082000 1.251250 -1.061120
v -5.082000 1.330000 -1.078001
v -5.082000 1.408750 -1.061120
v -5.082000 1.466399 -1.015000
v -5.462548 1.193601 -1.243453
v -5.481000 1.193601 -0.952000
v -5.037452 1.193601 -0.996548
v -5.004841 1.251250 -1.029159
v -4.992905 1.330000 -1.041096
v -5.004841 1.408750 -1.029159
v -5.037452 1.466399 -0.996548
v -5.527119 1.251250 -0.952000
v -5.544000 1.330000 -0.952000
v -5.019000 1.193601 -0.952000
v -4.972881 1.251250 -0.952000
v -4.956000 1.330000 -0.952000
v -4.972881 1.408750 -0.952000
v -5.019000 1.466399 -0.952000
v -5.527119 1.408750 -0.952000
v -5.481000 1.466399 -0.952000
v -5.037452 1.193601 -0.907453
v -5.004841 1.251250 -0.874842
v -4.992905 1.330000 -0.862905
v -5.004841 1.408750 -0.874842
v -5.037452 1.466399 -0.907453
v -5.418000 1.487500 -0.952000
v -0.725731 4.457280 -3.523066
v -5.082000 1.193601 -0.889001
v -5.082000 1.251250 -0.842881
v -5.082000 1.330000 -0.826001
v -5.082000 1.408750 -0.842881
v -5.082000 1.466399 -0.889001
v -5.462548 1.466399 -0.907453
v -5.495159 1.408750 -0.874842
v -5.462548 1.193601 -1.332548
v -5.495159 1.251250 -1.365159
v -5.507095 1.330000 -1.377096
v -5.495159 1.408750 -1.365159
v -5.462548 1.466399 -1.332548
v -5.507095 1.330000 -0.862905
v -5.495159 1.251250 -0.874842
v -5.418000 1.193601 -1.351000
v -5.418000 1.251250 -1.397120
v -5.418000 1.330000 -1.414001
v -5.418000 1.408750 -1.397120
v -5.418000 1.466399 -1.351000
v -5.462548 1.193601 -0.907453
v -0.630000 4.410000 -3.640000
v -5.373452 1.193601 -1.332548
v -5.340841 1.251250 -1.365159
v -5.328905 1.330000 -1.377096
v -5.340841 1.408750 -1.365159
v -5.373452 1.466399 -1.332548
v -0.630000 4.457280 -3.510213
v -5.355000 1.193601 -1.288000
v -5.308881 1.251250 -1.288000
v -5.292000 1.330000 -1.288000
v -5.308881 1.408750 -1.288000
v -5.355000 1.466399 -1.288000
v -0.630000 4.594490 -3.393130
v -5.373452 1.193601 -1.243453
v -5.340841 1.251250 -1.210841
v -5.328905 1.330000 -1.198905
v -5.340841 1.408750 -1.210841
v -5.373452 1.466399 -1.243453
v -5.418000 1.193601 -1.225001
v -5.418000 1.251250 -1.178881
v -5.418000 1.330000 -1.162001
v -5.418000 1.408750 -1.178881
v -5.418000 1.466399 -1.225001
v -5.462548 1.193601 -0.996548
v -5.495159 1.251250 -1.029159
v -5.507095 1.330000 -1.041096
v -5.495159 1.408750 -1.029159
v -5.462548 1.466399 -0.996548
v -0.630000 6.157511 -3.393130
v -0.630000 6.294721 -3.510213
v -5.418000 1.193601 -1.015000
v -5.418000 1.251250 -1.061120
v -5.418000 1.330000 -1.078001
v -5.418000 1.408750 -1.061120
v -5.418000 1.466399 -1.015000
v -0.630000 6.342000 -3.640000
v -2.030000 4.312000 -3.500000
v -5.373452 1.193601 -0.996548
v -5.340841 1.251250 -1.029159
v -5.328905 1.330000 -1.041096
v -5.340841 1.408750 -1.029159
v -5.373452 1.466399 -0.996548
v -2.030000 4.088000 -3.500000
v -2.030000 4.312000 -3.780000
v -5.355000 1.193601 -0.952000
v -5.308881 1.251250 -0.952000
v -5.292000 1.330000 -0.952000
v -5.308881 1.408750 -0.952000
v -5.355000 1.466399 -0.952000
v -2.030000 4.088000 -3.780000
v 0.770000 4.312000 -3.500000
v -5.373452 1.193601 -0.907453
v -5.340841 1.251250 -0.874842
v -5.328905 1.330000 -0.862905
v -5.340841 1.408750 -0.874842
v -5.373452 1.466399 -0.907453
v 0.770000 4.088000 -3.500000
v 0.770000 4.312000 -3.780000
v -5.418000 1.193601 -0.889001
v -5.418000 1.251250 -0.842881
v -5.418000 1.330000 -0.826001
v -5.418000 1.408750 -0.842881
v -5.418000 1.466399 -0.889001
v 0.770000 4.088000 -3.780000
v -0.812091 4.594490 -3.417578
v -0.880628 4.808200 -3.333863
v -0.924630 5.077490 -3.280113
v -0.939793 5.376000 -3.261593
v -0.924630 5.674510 -3.280113
v -0.880628 5.943800 -3.333863
v -0.812091 6.157511 -3.417578
v -0.725731 6.294721 -3.523066
v -0.802501 4.457280 -3.559079
v -0.958118 4.594490 -3.486079
v -1.081615 4.808200 -3.428146
v -1.160906 5.077490 -3.390951
v -1.188227 5.376000 -3.378134
v -1.160906 5.674510 -3.390951
v -1.081615 5.943800 -3.428146
v -0.958118 6.157511 -3.486079
v -0.802501 6.294721 -3.559079
v -0.845106 4.457280 -3.611120
v -1.039156 4.594490 -3.585066
v -1.193156 4.808200 -3.564390
v -1.292029 5.077490 -3.551116
v -1.326098 5.376000 -3.546541
v -1.292029 5.674510 -3.551116
v -1.193156 5.943800 -3.564390
v -1.039156 6.157511 -3.585066
v -0.845106 6.294721 -3.611120
v -0.845106 4.457280 -3.668880
v -1.039156 4.594490 -3.694934
v -1.193155 4.808200 -3.715610
v -1.292029 5.077490 -3.728884
v -1.326098 5.376000 -3.733459
v -1.292029 5.674510 -3.728884
v -1.193155 5.943800 -3.715610
v -1.039156 6.157511 -3.694934
v -0.845106 6.294721 -3.668880
v -0.802501 4.457280 -3.720921
v -0.958118 4.594490 -3.793921
v -1.081615 4.808200 -3.851854
v -1.160906 5.077490 -3.889049
v -1.188227 5.376000 -3.901866
v -1.160906 5.674510 -3.889049
v -1.081615 5.943800 -3.851854
v -0.958118 6.157511 -3.793921
v -0.802501 6.294721 -3.720921
v -0.725731 4.457280 -3.756934
v -0.812091 4.594490 -3.862422
v -0.880627 4.808200 -3.946138
v -0.924630 5.077490 -3.999887
v -0.939793 5.376000 -4.018407
v -0.924630 5.674510 -3.999887
v -0.880627 5.943800 -3.946138
v -0.812091 6.157511 -3.862422
v -0.725731 6.294721 -3.756934
v -0.630000 4.457280 -3.769787
v -0.630000 4.594490 -3.886870
v -0.630000 4.808200 -3.979787
v -0.630000 5.077490 -4.039443
v -0.630000 5.376000 -4.060000
v -0.630000 5.674510 -4.039443
v -0.630000 5.943800 -3.979787
v -0.630000 6.157511 -3.886870
v -0.630000 6.294721 -3.769787
v -0.534268 4.457280 -3.756934
v -0.447908 4.594490 -3.862422
v -0.379372 4.808200 -3.946138
v -0.335369 5.077490 -3.999886
v -0.320207 5.376000 -4.018407
v -0.335369 5.674510 -3.999886
v -0.379372 5.943800 -3.946138
v -0.447908 6.157511 -3.862422
v -0.534268 6.294721 -3.756934
v -0.457498 4.457280 -3.720921
v -0.301882 4.594490 -3.793921
v -0.178384 4.808200 -3.851854
v -0.099094 5.077490 -3.889049
v -0.071772 5.376000 -3.901865
v -0.099094 5.674510 -3.889049
v -0.178384 5.943800 -3.851854
v -0.301882 6.157511 -3.793921
v -0.457498 6.294721 -3.720921
v -0.414893 4.457280 -3.668880
v -0.220843 4.594490 -3.694934
v -0.066844 4.808200 -3.715610
v 0.032029 5.077490 -3.728884
v 0.066099 5.376000 -3.733459
v 0.032029 5.674510 -3.728884
v -0.066844 5.943800 -3.715610
v -0.220843 6.157511 -3.694934
v -0.414893 6.294721 -3.668880
v -0.414893 4.457280 -3.611120
v -0.220843 4.594490 -3.585066
v -0.066844 4.808200 -3.564390
v 0.032029 5.077490 -3.551115
v 0.066099 5.376000 -3.546541
v 0.032029 5.674510 -3.551115
v -0.066844 5.943800 -3.564390
v -0.220843 6.157511 -3.585066
v -0.414893 6.294721 -3.611120
v -0.457498 4.457280 -3.559079
v -0.301882 4.594490 -3.486079
v -0.178384 4.808200 -3.428146
v -0.099094 5.077490 -3.390951
v -0.071772 5.376000 -3.378134
v -0.099094 5.674510 -3.390951
v -0.178384 5.943800 -3.428146
v -0.301882 6.157511 -3.486079
v -0.457498 6.294721 -3.559079
v -0.534269 4.457280 -3.523066
v -1.610000 3.836000 -4.074000
v -0.447908 4.594490 -3.417578
v -0.379372 4.808200 -3.333863
v -0.335369 5.077490 -3.280113
v -0.320207 5.376000 -3.261593
v -0.335369 5.674510 -3.280113
v -0.379372 5.943800 -3.333863
v -0.447908 6.157511 -3.417578
v -0.534269 6.294721 -3.523066
v -1.610000 3.444000 -4.074000
v -1.610000 3.836000 -4.158000
v -1.610000 3.444000 -4.158000
v 0.350000 3.836000 -4.074000
v -0.630000 4.808200 -3.300213
v -0.630000 5.077490 -3.240556
v -0.630000 5.376000 -3.220000
v -0.630000 5.674510 -3.240556
v -0.630000 5.943800 -3.300213
v 0.350000 3.444000 -4.074000
v 0.350000 3.836000 -4.158000
v 0.350000 3.444000 -4.158000
vn 1.0000 -0.0000 -0.0000
vn -0.0000 -0.0000 1.0000
vn -1.0000 -0.0000 -0.0000
vn -0.0000 -0.0000 -1.0000
vn -0.0000 -1.0000 -0.0000
vn -0.0000 1.0000 -0.0000
vn -0.0000 0.8824 -0.4706
vn -0.7071 -0.0000 -0.7071
vn -0.2588 -0.0000 0.9659
vn -0.9659 -0.0000 -0.2588
vn 0.2588 -0.0000 -0.9659
vn -0.7071 -0.0000 0.7071
vn -0.9659 -0.0000 0.2588
vn -0.2588 -0.0000 -0.9659
vn 0.7071 -0.0000 -0.7071
vn 0.9659 -0.0000 -0.2588
vn 0.9659 -0.0000 0.2588
vn 0.7071 -0.0000 0.7071
vn 0.2588 -0.0000 0.9659
vn -0.3077 0.5944 0.7430
vn -0.3077 -0.5944 0.7430
vn -0.3754 0.1943 0.9063
vn -0.1304 0.9401 0.3149
vn -0.1304 -0.9401 0.3149
vn -0.3754 -0.1943 0.9063
vn -0.7430 -0.5944 0.3078
vn -0.9063 0.1943 0.3754
vn -0.3149 0.9401 0.1304
vn -0.3149 -0.9401 0.1304
vn -0.9063 -0.1943 0.3754
vn -0.7430 0.5944 0.3078
vn -0.7430 -0.5944 -0.3078
vn -0.9063 0.1943 -0.3754
vn -0.3149 0.9401 -0.1304
vn -0.3149 -0.9401 -0.1304
vn -0.9063 -0.1943 -0.3754
vn -0.7430 0.5944 -0.3078
vn -0.3754 0.1943 -0.9063
vn -0.1304 0.9401 -0.3149
vn -0.1304 -0.9401 -0.3149
vn -0.3754 -0.1943 -0.9063
vn -0.3077 0.5944 -0.7430
vn -0.3077 -0.5944 -0.7430
vn 0.1304 0.9401 -0.3149
vn 0.1304 -0.9401 -0.3149
vn 0.3754 -0.1943 -0.9063
vn 0.3077 0.5944 -0.7430
vn 0.3077 -0.5944 -0.7430
vn 0.3754 0.1943 -0.9063
vn 0.3149 -0.9401 -0.1304
vn 0.9063 -0.1943 -0.3754
vn 0.7430 0.5944 -0.3077
vn 0.7430 -0.5944 -0.3077
vn 0.9063 0.1943 -0.3754
vn 0.3149 0.9401 -0.1304
vn 0.3149 -0.9401 0.1304
vn 0.9063 -0.1943 0.3754
vn 0.7430 0.5944 0.3077
vn 0.7430 -0.5944 0.3077
vn 0.9063 0.1943 0.3754
vn 0.3149 0.9401 0.1304
vn 0.1304 -0.9401 0.3149
vn 0.3754 -0.1943 0.9063
vn 0.3077 0.5944 0.7430
vn 0.3077 -0.5944 0.7430
vn 0.3754 0.1943 0.9063
vn 0.1304 0.9401 0.3149
vn -0.7430 0.5944 0.3077
vn -0.7430 -0.5944 0.3077
vn -0.7430 0.5944 -0.3077
vn -0.7430 -0.5944 -0.3077
vn 0.7430 0.5944 -0.3078
vn 0.7430 -0.5944 -0.3078
vn 0.7430 0.5944 0.3078
vn 0.7430 -0.5944 0.3078
vn 0.3078 0.5944 0.7430
vn -0.3078 0.5944 0.7430
vn -0.1222 0.3957 0.9102
vn -0.0459 0.9386 0.3419
vn -0.1328 -0.0681 0.9888
vn -0.1016 -0.6458 0.7568
vn -0.1300 -0.2145 0.9680
vn -0.1328 0.0681 0.9888
vn -0.1300 0.2145 0.9680
vn -0.0459 -0.9386 0.3419
vn -0.1222 -0.3957 0.9102
vn -0.1016 0.6458 0.7568
vn -0.1304 0.9517 0.2780
vn -0.3812 -0.4406 0.8127
vn -0.3812 0.4406 0.8127
vn -0.1304 -0.9517 0.2780
vn -0.4120 0.2426 0.8783
vn -0.4234 -0.0775 0.9026
vn -0.3059 -0.6938 0.6520
vn -0.4234 0.0775 0.9026
vn -0.4120 -0.2426 0.8783
vn -0.3059 0.6938 0.6520
vn -0.1918 0.9688 0.1571
vn -0.6580 -0.5262 0.5387
vn -0.7701 0.0976 0.6304
vn -0.4918 0.7720 0.4026
vn -0.4918 -0.7720 0.4026
vn -0.7701 -0.0976 0.6304
vn -0.6580 0.5262 0.5387
vn -0.1918 -0.9688 0.1571
vn -0.7380 -0.3007 0.6041
vn -0.7380 0.3007 0.6041
vn -0.9387 -0.3447 -0.0000
vn -0.9387 0.3447 -0.0000
vn -0.2147 0.9767 -0.0000
vn -0.8113 -0.5846 -0.0000
vn -0.9935 0.1134 -0.0000
vn -0.5773 0.8165 -0.0000
vn -0.5773 -0.8165 -0.0000
vn -0.9936 -0.1134 -0.0000
vn -0.8113 0.5846 -0.0000
vn -0.2147 -0.9767 -0.0000
vn -0.6580 0.5262 -0.5387
vn -0.1918 -0.9688 -0.1571
vn -0.7380 -0.3007 -0.6041
vn -0.7380 0.3007 -0.6041
vn -0.1918 0.9688 -0.1571
vn -0.6580 -0.5262 -0.5387
vn -0.7701 0.0976 -0.6304
vn -0.4918 0.7720 -0.4026
vn -0.4918 -0.7720 -0.4026
vn -0.7701 -0.0976 -0.6304
vn -0.4234 -0.0775 -0.9026
vn -0.3812 0.4406 -0.8127
vn -0.1304 -0.9517 -0.2780
vn -0.4120 -0.2426 -0.8783
vn -0.4120 0.2426 -0.8783
vn -0.1304 0.9517 -0.2780
vn -0.3812 -0.4406 -0.8127
vn -0.4234 0.0775 -0.9026
vn -0.3059 0.6938 -0.6520
vn -0.3059 -0.6938 -0.6520
vn -0.1016 0.6458 -0.7568
vn -0.1016 -0.6457 -0.7568
vn -0.1328 -0.0681 -0.9888
vn -0.1222 0.3957 -0.9102
vn -0.0459 -0.9386 -0.3419
vn -0.1300 -0.2145 -0.9680
vn -0.1300 0.2145 -0.9680
vn -0.0459 0.9386 -0.3419
vn -0.1222 -0.3957 -0.9102
vn -0.1328 0.0681 -0.9888
vn 0.1222 -0.3957 -0.9102
vn 0.1328 0.0681 -0.9888
vn 0.1016 0.6457 -0.7568
vn 0.1016 -0.6457 -0.7568
vn 0.1328 -0.0681 -0.9888
vn 0.1222 0.3957 -0.9102
vn 0.0459 -0.9386 -0.3419
vn 0.1300 -0.2145 -0.9680
vn 0.1300 0.2145 -0.9680
vn 0.0459 0.9386 -0.3419
vn 0.4120 0.2426 -0.8783
vn 0.1304 0.9517 -0.2780
vn 0.3812 -0.4406 -0.8127
vn 0.4234 0.0775 -0.9026
vn 0.3059 0.6938 -0.6520
vn 0.3059 -0.6938 -0.6520
vn 0.4234 -0.0775 -0.9026
vn 0.3812 0.4406 -0.8127
vn 0.1304 -0.9517 -0.2780
vn 0.4120 -0.2426 -0.8783
vn 0.7380 -0.3007 -0.6041
vn 0.7380 0.3007 -0.6041
vn 0.1918 0.9688 -0.1571
vn 0.6580 -0.5262 -0.5387
vn 0.7701 0.0976 -0.6304
vn 0.4918 0.7720 -0.4026
vn 0.4918 -0.7720 -0.4026
vn 0.7701 -0.0976 -0.6304
vn 0.6580 0.5262 -0.5387
vn 0.1918 -0.9688 -0.1571
vn 0.8113 0.5846 -0.0000
vn 0.2147 -0.9767 -0.0000
vn 0.9387 -0.3447 -0.0000
vn 0.9387 0.3447 -0.0000
vn 0.2147 0.9767 -0.0000
vn 0.8113 -0.5846 -0.0000
vn 0.9935 0.1134 -0.0000
vn 0.5773 0.8165 -0.0000
vn 0.5773 -0.8165 -0.0000
vn 0.9935 -0.1134 -0.0000
vn 0.4918 -0.7720 0.4026
vn 0.7701 -0.0976 0.6304
vn 0.6580 0.5262 0.5387
vn 0.1918 -0.9688 0.1571
vn 0.7380 -0.3007 0.6041
vn 0.7380 0.3007 0.6041
vn 0.1918 0.9688 0.1571
vn 0.6580 -0.5262 0.5387
vn 0.7701 0.0976 0.6304
vn 0.4918 0.7720 0.4026
vn 0.4234 0.0775 0.9026
vn 0.3059 0.6938 0.6520
vn 0.3059 -0.6938 0.6520
vn 0.4234 -0.0775 0.9026
vn 0.3812 0.4406 0.8127
vn 0.1304 -0.9517 0.2780
vn 0.4120 -0.2426 0.8783
vn 0.4120 0.2426 0.8783
vn 0.1304 0.9517 0.2780
vn 0.3812 -0.4406 0.8127
vn 0.0459 0.9386 0.3419
vn 0.1222 -0.3957 0.9102
vn 0.1328 0.0681 0.9888
vn 0.1016 0.6457 0.7568
vn 0.1016 -0.6457 0.7568
vn 0.1328 -0.0681 0.9888
vn 0.1222 0.3957 0.9102
vn 0.0459 -0.9386 0.3419
vn 0.1300 -0.2145 0.9680
vn 0.1300 0.2145 0.9680
s 0
usemtl EF_GreyDark
f 1//1 2//1 4//1 3//1
f 3//2 4//2 8//2 7//2
f 7//3 8//3 6//3 5//3
f 5//4 6//4 2//4 1//4
f 3//5 7//5 5//5 1//5
f 8//6 4//6 2//6 6//6
f 230//6 226//6 79//6 228//6
f 227//4 228//4 79//4 80//4
f 225//5 229//5 227//5 80//5
f 229//3 230//3 228//3 227//3
f 225//2 226//2 230//2 229//2
f 80//1 79//1 226//1 225//1
f 407//1 408//1 410//1 409//1
f 409//2 410//2 414//2 413//2
f 413//3 414//3 412//3 411//3
f 411//4 412//4 408//4 407//4
f 409//5 413//5 411//5 407//5
f 414//6 410//6 408//6 412//6
f 809//1 803//1 796//1 802//1
f 802//2 796//2 782//2 788//2
f 788//3 782//3 789//3 795//3
f 795//4 789//4 803//4 809//4
f 802//5 788//5 795//5 809//5
f 782//6 796//6 803//6 789//6
usemtl EF_Cream
f 9//1 10//1 12//1 11//1
f 11//2 12//2 16//2 15//2
f 15//3 16//3 14//3 13//3
f 13//4 14//4 10//4 9//4
f 11//5 15//5 13//5 9//5
f 16//6 12//6 10//6 14//6
usemtl EF_Grey
f 17//1 18//1 20//1 19//1
f 19//2 20//2 24//2 23//2
f 23//3 24//3 22//3 21//3
f 21//4 22//4 18//4 17//4
f 19//5 23//5 21//5 17//5
f 24//6 20//6 18//6 22//6
f 34//3 14//3 33//3
f 10//1 36//1 35//1
f 14//5 10//5 35//5 33//5
f 33//2 35//2 36//2 34//2
f 34//7 36//7 10//7 14//7
f 46//3 33//3 45//3
f 35//1 48//1 47//1
f 33//5 35//5 47//5 45//5
f 45//2 47//2 48//2 46//2
f 46//7 48//7 35//7 33//7
f 58//3 45//3 57//3
f 47//1 60//1 59//1
f 45//5 47//5 59//5 57//5
f 57//2 59//2 60//2 58//2
f 58//7 60//7 47//7 45//7
f 69//3 57//3 16//3
f 59//1 70//1 12//1
f 57//5 59//5 12//5 16//5
f 16//2 12//2 70//2 69//2
f 69//7 70//7 59//7 57//7
f 241//5 245//5 243//5 239//5
f 253//3 254//3 252//3 251//3
f 233//2 234//2 238//2 237//2
f 245//3 246//3 244//3 243//3
f 243//4 244//4 240//4 239//4
f 249//2 250//2 254//2 253//2
f 237//3 238//3 236//3 235//3
f 247//1 248//1 250//1 249//1
f 238//6 234//6 232//6 236//6
f 246//6 242//6 240//6 244//6
f 231//1 232//1 234//1 233//1
f 251//4 252//4 248//4 247//4
f 233//5 237//5 235//5 231//5
f 241//2 242//2 246//2 245//2
f 239//1 240//1 242//1 241//1
f 235//4 236//4 232//4 231//4
f 249//5 253//5 251//5 247//5
f 254//6 250//6 248//6 252//6
f 255//1 256//1 258//1 257//1
f 257//2 258//2 262//2 261//2
f 261//3 262//3 260//3 259//3
f 259//4 260//4 256//4 255//4
f 257//5 261//5 259//5 255//5
f 262//6 258//6 256//6 260//6
f 263//1 264//1 266//1 265//1
f 265//2 266//2 270//2 269//2
f 269//3 270//3 268//3 267//3
f 267//4 268//4 264//4 263//4
f 265//5 269//5 267//5 263//5
f 270//6 266//6 264//6 268//6
f 271//1 272//1 274//1 273//1
f 273//2 274//2 278//2 277//2
f 277//3 278//3 276//3 275//3
f 275//4 276//4 272//4 271//4
f 273//5 277//5 275//5 271//5
f 278//6 274//6 272//6 276//6
f 415//1 416//1 418//1 417//1
f 417//2 418//2 422//2 421//2
f 421//3 422//3 420//3 419//3
f 419//4 420//4 416//4 415//4
f 417//5 421//5 419//5 415//5
f 422//6 418//6 416//6 420//6
f 423//1 424//1 426//1 425//1
f 425//2 426//2 430//2 429//2
f 429//3 430//3 428//3 427//3
f 427//4 428//4 424//4 423//4
f 425//5 429//5 427//5 423//5
f 430//6 426//6 424//6 428//6
usemtl EF_Roof
f 25//1 26//1 28//1 27//1
f 27//2 28//2 32//2 31//2
f 31//3 32//3 30//3 29//3
f 29//4 30//4 26//4 25//4
f 27//5 31//5 29//5 25//5
f 32//6 28//6 26//6 30//6
f 81//9 82//9 84//9 83//9
f 159//10 160//10 162//10 161//10
f 83//12 84//12 86//12 85//12
f 165//11 166//11 168//11 167//11
f 85//13 86//13 88//13 87//13
f 155//12 156//12 158//12 157//12
f 87//10 88//10 90//10 89//10
f 89//8 90//8 92//8 91//8
f 91//14 92//14 94//14 93//14
f 93//11 94//11 96//11 95//11
f 161//8 162//8 164//8 163//8
f 95//15 96//15 98//15 97//15
f 157//13 158//13 160//13 159//13
f 97//16 98//16 100//16 99//16
f 99//17 100//17 102//17 101//17
f 84//6 82//6 104//6 102//6 100//6 98//6 96//6 94//6 92//6 90//6 88//6 86//6
f 101//18 102//18 104//18 103//18
f 103//19 104//19 82//19 81//19
f 81//5 83//5 85//5 87//5 89//5 91//5 93//5 95//5 97//5 99//5 101//5 103//5
f 163//14 164//14 166//14 165//14
f 153//9 154//9 156//9 155//9
f 167//15 168//15 170//15 169//15
f 169//16 170//16 172//16 171//16
f 171//17 172//17 174//17 173//17
f 163//5 165//5 167//5 169//5 171//5 173//5 175//5 153//5 155//5 157//5 159//5 161//5
f 173//18 174//18 176//18 175//18
f 175//19 176//19 154//19 153//19
f 168//6 166//6 164//6 162//6 160//6 158//6 156//6 154//6 176//6 174//6 172//6 170//6
f 279//1 280//1 282//1 281//1
f 281//2 282//2 286//2 285//2
f 285//3 286//3 284//3 283//3
f 283//4 284//4 280//4 279//4
f 281//5 285//5 283//5 279//5
f 286//6 282//6 280//6 284//6
f 295//1 296//1 298//1 297//1
f 297//2 298//2 302//2 301//2
f 301//3 302//3 300//3 299//3
f 299//4 300//4 296//4 295//4
f 297//5 301//5 299//5 295//5
f 302//6 298//6 296//6 300//6
f 303//1 304//1 306//1 305//1
f 305//2 306//2 310//2 309//2
f 309//3 310//3 308//3 307//3
f 307//4 308//4 304//4 303//4
f 305//5 309//5 307//5 303//5
f 310//6 306//6 304//6 308//6
f 311//1 312//1 314//1 313//1
f 313//2 314//2 318//2 317//2
f 317//3 318//3 316//3 315//3
f 315//4 316//4 312//4 311//4
f 313//5 317//5 315//5 311//5
f 318//6 314//6 312//6 316//6
f 327//1 328//1 330//1 329//1
f 329//2 330//2 334//2 333//2
f 333//3 334//3 332//3 331//3
f 331//4 332//4 328//4 327//4
f 329//5 333//5 331//5 327//5
f 334//6 330//6 328//6 332//6
f 335//1 336//1 338//1 337//1
f 337//2 338//2 342//2 341//2
f 341//3 342//3 340//3 339//3
f 339//4 340//4 336//4 335//4
f 337//5 341//5 339//5 335//5
f 342//6 338//6 336//6 340//6
f 343//1 344//1 346//1 345//1
f 345//2 346//2 350//2 349//2
f 349//3 350//3 348//3 347//3
f 347//4 348//4 344//4 343//4
f 345//5 349//5 347//5 343//5
f 350//6 346//6 344//6 348//6
f 359//1 360//1 362//1 361//1
f 361//2 362//2 366//2 365//2
f 365//3 366//3 364//3 363//3
f 363//4 364//4 360//4 359//4
f 361//5 365//5 363//5 359//5
f 366//6 362//6 360//6 364//6
f 367//1 368//1 370//1 369//1
f 369//2 370//2 374//2 373//2
f 373//3 374//3 372//3 371//3
f 371//4 372//4 368//4 367//4
f 369//5 373//5 371//5 367//5
f 374//6 370//6 368//6 372//6
f 375//1 376//1 378//1 377//1
f 377//2 378//2 382//2 381//2
f 381//3 382//3 380//3 379//3
f 379//4 380//4 376//4 375//4
f 377//5 381//5 379//5 375//5
f 382//6 378//6 376//6 380//6
f 391//1 392//1 394//1 393//1
f 393//2 394//2 398//2 397//2
f 397//3 398//3 396//3 395//3
f 395//4 396//4 392//4 391//4
f 393//5 397//5 395//5 391//5
f 398//6 394//6 392//6 396//6
f 399//1 400//1 402//1 401//1
f 401//2 402//2 406//2 405//2
f 405//3 406//3 404//3 403//3
f 403//4 404//4 400//4 399//4
f 401//5 405//5 403//5 399//5
f 406//6 402//6 400//6 404//6
f 938//1 937//1 930//1 936//1
f 936//2 930//2 918//2 927//2
f 927//3 918//3 928//3 929//3
f 929//4 928//4 937//4 938//4
f 936//5 927//5 929//5 938//5
f 918//6 930//6 937//6 928//6
usemtl EF_Glass
f 37//1 38//1 40//1 39//1
f 39//2 40//2 44//2 43//2
f 43//3 44//3 42//3 41//3
f 41//4 42//4 38//4 37//4
f 39//5 43//5 41//5 37//5
f 44//6 40//6 38//6 42//6
f 49//1 50//1 52//1 51//1
f 51//2 52//2 56//2 55//2
f 55//3 56//3 54//3 53//3
f 53//4 54//4 50//4 49//4
f 51//5 55//5 53//5 49//5
f 56//6 52//6 50//6 54//6
f 61//1 62//1 64//1 63//1
f 63//2 64//2 68//2 67//2
f 67//3 68//3 66//3 65//3
f 65//4 66//4 62//4 61//4
f 63//5 67//5 65//5 61//5
f 68//6 64//6 62//6 66//6
f 71//1 72//1 74//1 73//1
f 73//2 74//2 78//2 77//2
f 77//3 78//3 76//3 75//3
f 75//4 76//4 72//4 71//4
f 73//5 77//5 75//5 71//5
f 78//6 74//6 72//6 76//6
f 287//1 288//1 290//1 289//1
f 289//2 290//2 294//2 293//2
f 293//3 294//3 292//3 291//3
f 291//4 292//4 288//4 287//4
f 289//5 293//5 291//5 287//5
f 294//6 290//6 288//6 292//6
f 319//1 320//1 322//1 321//1
f 321//2 322//2 326//2 325//2
f 325//3 326//3 324//3 323//3
f 323//4 324//4 320//4 319//4
f 321//5 325//5 323//5 319//5
f 326//6 322//6 320//6 324//6
f 351//1 352//1 354//1 353//1
f 353//2 354//2 358//2 357//2
f 357//3 358//3 356//3 355//3
f 355//4 356//4 352//4 351//4
f 353//5 357//5 355//5 351//5
f 358//6 354//6 352//6 356//6
f 383//1 384//1 386//1 385//1
f 385//2 386//2 390//2 389//2
f 389//3 390//3 388//3 387//3
f 387//4 388//4 384//4 383//4
f 385//5 389//5 387//5 383//5
f 390//6 386//6 384//6 388//6
usemtl EF_White
f 137//8 138//8 140//8 139//8
f 189//11 190//11 192//11 191//11
f 109//13 110//13 112//13 111//13
f 133//13 134//13 136//13 135//13
f 115//14 116//14 118//14 117//14
f 179//12 180//12 182//12 181//12
f 131//12 132//12 134//12 133//12
f 107//12 108//12 110//12 109//12
f 203//12 204//12 206//12 205//12
f 113//8 114//8 116//8 115//8
f 105//9 106//9 108//9 107//9
f 139//14 140//14 142//14 141//14
f 183//10 184//10 186//10 185//10
f 117//11 118//11 120//11 119//11
f 111//10 112//10 114//10 113//10
f 119//15 120//15 122//15 121//15
f 129//9 130//9 132//9 131//9
f 121//16 122//16 124//16 123//16
f 181//13 182//13 184//13 183//13
f 123//17 124//17 126//17 125//17
f 114//6 112//6 110//6 108//6 106//6 128//6 126//6 124//6 122//6 120//6 118//6 116//6
f 125//18 126//18 128//18 127//18
f 141//11 142//11 144//11 143//11
f 135//10 136//10 138//10 137//10
f 127//19 128//19 106//19 105//19
f 119//5 121//5 123//5 125//5 127//5 105//5 107//5 109//5 111//5 113//5 115//5 117//5
f 143//15 144//15 146//15 145//15
f 187//14 188//14 190//14 189//14
f 145//16 146//16 148//16 147//16
f 209//8 210//8 212//8 211//8
f 147//17 148//17 150//17 149//17
f 131//5 133//5 135//5 137//5 139//5 141//5 143//5 145//5 147//5 149//5 151//5 129//5
f 149//18 150//18 152//18 151//18
f 205//13 206//13 208//13 207//13
f 185//8 186//8 188//8 187//8
f 151//19 152//19 130//19 129//19
f 136//6 134//6 132//6 130//6 152//6 150//6 148//6 146//6 144//6 142//6 140//6 138//6
f 177//9 178//9 180//9 179//9
f 211//14 212//14 214//14 213//14
f 191//15 192//15 194//15 193//15
f 201//9 202//9 204//9 203//9
f 193//16 194//16 196//16 195//16
f 195//17 196//17 198//17 197//17
f 190//6 188//6 186//6 184//6 182//6 180//6 178//6 200//6 198//6 196//6 194//6 192//6
f 197//18 198//18 200//18 199//18
f 213//11 214//11 216//11 215//11
f 207//10 208//10 210//10 209//10
f 199//19 200//19 178//19 177//19
f 187//5 189//5 191//5 193//5 195//5 197//5 199//5 177//5 179//5 181//5 183//5 185//5
f 215//15 216//15 218//15 217//15
f 217//16 218//16 220//16 219//16
f 219//17 220//17 222//17 221//17
f 207//5 209//5 211//5 213//5 215//5 217//5 219//5 221//5 223//5 201//5 203//5 205//5
f 221//18 222//18 224//18 223//18
f 223//19 224//19 202//19 201//19
f 214//6 212//6 210//6 208//6 206//6 204//6 202//6 224//6 222//6 220//6 218//6 216//6
f 509//20 508//20 459//20 460//20
f 512//21 511//21 462//21 463//21
f 510//22 509//22 460//22 461//22
f 508//23 451//23 459//23
f 457//24 512//24 463//24
f 511//25 510//25 461//25 462//25
f 463//26 462//26 469//26 470//26
f 461//27 460//27 467//27 468//27
f 459//28 451//28 466//28
f 457//29 463//29 470//29
f 462//30 461//30 468//30 469//30
f 460//31 459//31 466//31 467//31
f 470//32 469//32 476//32 477//32
f 468//33 467//33 474//33 475//33
f 466//34 451//34 473//34
f 457//35 470//35 477//35
f 469//36 468//36 475//36 476//36
f 467//37 466//37 473//37 474//37
f 475//38 474//38 481//38 482//38
f 473//39 451//39 480//39
f 457//40 477//40 484//40
f 476//41 475//41 482//41 483//41
f 474//42 473//42 480//42 481//42
f 477//43 476//43 483//43 484//43
f 480//44 451//44 487//44
f 457//45 484//45 491//45
f 483//46 482//46 489//46 490//46
f 481//47 480//47 487//47 488//47
f 484//48 483//48 490//48 491//48
f 482//49 481//49 488//49 489//49
f 457//50 491//50 498//50
f 490//51 489//51 496//51 497//51
f 488//52 487//52 494//52 495//52
f 491//53 490//53 497//53 498//53
f 489//54 488//54 495//54 496//54
f 487//55 451//55 494//55
f 457//56 498//56 505//56
f 497//57 496//57 503//57 504//57
f 495//58 494//58 501//58 502//58
f 498//59 497//59 504//59 505//59
f 496//60 495//60 502//60 503//60
f 494//61 451//61 501//61
f 457//62 505//62 512//62
f 504//63 503//63 510//63 511//63
f 502//64 501//64 508//64 509//64
f 505//65 504//65 511//65 512//65
f 503//66 502//66 509//66 510//66
f 501//67 451//67 508//67
f 554//23 464//23 471//23
f 550//21 551//21 479//21 485//21
f 553//20 554//20 471//20 472//20
f 452//24 550//24 485//24
f 551//25 552//25 478//25 479//25
f 552//22 553//22 472//22 478//22
f 452//29 485//29 453//29
f 472//31 471//31 458//31 456//31
f 479//30 478//30 455//30 454//30
f 478//27 472//27 456//27 455//27
f 485//26 479//26 454//26 453//26
f 471//28 464//28 458//28
f 458//34 464//34 519//34
f 453//32 454//32 516//32 515//32
f 455//33 456//33 518//33 517//33
f 454//36 455//36 517//36 516//36
f 456//37 458//37 519//37 518//37
f 452//35 453//35 515//35
f 516//41 517//41 524//41 523//41
f 518//42 519//42 526//42 525//42
f 515//43 516//43 523//43 522//43
f 517//38 518//38 525//38 524//38
f 519//39 464//39 526//39
f 452//40 515//40 522//40
f 526//44 464//44 533//44
f 452//45 522//45 529//45
f 523//46 524//46 531//46 530//46
f 525//47 526//47 533//47 532//47
f 522//48 523//48 530//48 529//48
f 524//49 525//49 532//49 531//49
f 452//50 529//50 536//50
f 530//51 531//51 538//51 537//51
f 532//52 533//52 540//52 539//52
f 529//53 530//53 537//53 536//53
f 531//54 532//54 539//54 538//54
f 533//55 464//55 540//55
f 452//56 536//56 543//56
f 537//57 538//57 545//57 544//57
f 539//58 540//58 547//58 546//58
f 536//59 537//59 544//59 543//59
f 538//60 539//60 546//60 545//60
f 540//61 464//61 547//61
f 452//62 543//62 550//62
f 544//63 545//63 552//63 551//63
f 546//64 547//64 554//64 553//64
f 543//65 544//65 551//65 550//65
f 545//66 546//66 553//66 552//66
f 547//67 464//67 554//67
f 596//23 506//23 513//23
f 592//21 593//21 521//21 527//21
f 595//20 596//20 513//20 514//20
f 465//24 592//24 527//24
f 593//25 594//25 520//25 521//25
f 594//22 595//22 514//22 520//22
f 465//29 527//29 486//29
f 514//68 513//68 500//68 499//68
f 521//30 520//30 493//30 492//30
f 520//27 514//27 499//27 493//27
f 527//69 521//69 492//69 486//69
f 513//28 506//28 500//28
f 500//34 506//34 561//34
f 493//33 499//33 560//33 559//33
f 492//36 493//36 559//36 558//36
f 499//70 500//70 561//70 560//70
f 465//35 486//35 557//35
f 486//71 492//71 558//71 557//71
f 558//41 559//41 566//41 565//41
f 560//42 561//42 568//42 567//42
f 559//38 560//38 567//38 566//38
f 561//39 506//39 568//39
f 557//43 558//43 565//43 564//43
f 465//40 557//40 564//40
f 568//44 506//44 575//44
f 465//45 564//45 571//45
f 565//46 566//46 573//46 572//46
f 567//47 568//47 575//47 574//47
f 564//48 565//48 572//48 571//48
f 566//49 567//49 574//49 573//49
f 465//50 571//50 578//50
f 572//51 573//51 580//51 579//51
f 574//72 575//72 582//72 581//72
f 571//73 572//73 579//73 578//73
f 573//54 574//54 581//54 580//54
f 575//55 506//55 582//55
f 465//56 578//56 585//56
f 579//57 580//57 587//57 586//57
f 581//74 582//74 589//74 588//74
f 578//75 579//75 586//75 585//75
f 580//60 581//60 588//60 587//60
f 582//61 506//61 589//61
f 465//62 585//62 592//62
f 586//63 587//63 594//63 593//63
f 588//64 589//64 596//64 595//64
f 585//65 586//65 593//65 592//65
f 587//66 588//66 595//66 594//66
f 589//67 506//67 596//67
f 638//23 548//23 555//23
f 634//21 635//21 563//21 569//21
f 637//20 638//20 555//20 556//20
f 507//24 634//24 569//24
f 635//25 636//25 562//25 563//25
f 636//22 637//22 556//22 562//22
f 507//29 569//29 528//29
f 556//68 555//68 542//68 541//68
f 563//30 562//30 535//30 534//30
f 562//27 556//27 541//27 535//27
f 569//69 563//69 534//69 528//69
f 555//28 548//28 542//28
f 542//34 548//34 603//34
f 541//70 542//70 603//70 602//70
f 535//33 541//33 602//33 601//33
f 534//36 535//36 601//36 600//36
f 507//35 528//35 599//35
f 528//71 534//71 600//71 599//71
f 600//41 601//41 608//41 607//41
f 603//39 548//39 610//39
f 602//42 603//42 610//42 609//42
f 601//38 602//38 609//38 608//38
f 599//43 600//43 607//43 606//43
f 507//40 599//40 606//40
f 610//44 548//44 617//44
f 507//45 606//45 613//45
f 607//46 608//46 615//46 614//46
f 609//47 610//47 617//47 616//47
f 606//48 607//48 614//48 613//48
f 608//49 609//49 616//49 615//49
f 507//50 613//50 620//50
f 614//51 615//51 622//51 621//51
f 616//72 617//72 624//72 623//72
f 613//73 614//73 621//73 620//73
f 615//54 616//54 623//54 622//54
f 617//55 548//55 624//55
f 507//56 620//56 627//56
f 621//57 622//57 629//57 628//57
f 623//74 624//74 631//74 630//74
f 620//75 621//75 628//75 627//75
f 622//60 623//60 630//60 629//60
f 624//61 548//61 631//61
f 507//62 627//62 634//62
f 628//63 629//63 636//63 635//63
f 630//64 631//64 638//64 637//64
f 627//65 628//65 635//65 634//65
f 629//66 630//66 637//66 636//66
f 631//67 548//67 638//67
f 684//20 683//20 549//20 570//20
f 584//24 687//24 583//24
f 685//22 684//22 570//22 576//22
f 687//21 686//21 577//21 583//21
f 683//23 611//23 549//23
f 686//25 685//25 576//25 577//25
f 583//69 577//69 644//69 645//69
f 576//27 570//27 642//27 643//27
f 577//30 576//30 643//30 644//30
f 584//29 583//29 645//29
f 570//68 549//68 641//68 642//68
f 549//28 611//28 641//28
f 641//34 611//34 648//34
f 584//35 645//35 652//35
f 645//71 644//71 651//71 652//71
f 643//33 642//33 649//33 650//33
f 644//36 643//36 650//36 651//36
f 642//70 641//70 648//70 649//70
f 652//43 651//43 658//43 659//43
f 649//42 648//42 655//42 656//42
f 651//41 650//41 657//41 658//41
f 584//40 652//40 659//40
f 648//39 611//39 655//39
f 650//38 649//38 656//38 657//38
f 656//47 655//47 662//47 663//47
f 658//46 657//46 664//46 665//46
f 584//45 659//45 666//45
f 655//44 611//44 662//44
f 657//49 656//49 663//49 664//49
f 659//48 658//48 665//48 666//48
f 663//72 662//72 669//72 670//72
f 665//51 664//51 671//51 672//51
f 584//50 666//50 673//50
f 662//55 611//55 669//55
f 664//54 663//54 670//54 671//54
f 666//73 665//73 672//73 673//73
f 670//74 669//74 676//74 677//74
f 672//57 671//57 678//57 679//57
f 584//56 673//56 680//56
f 669//61 611//61 676//61
f 671//60 670//60 677//60 678//60
f 673//75 672//75 679//75 680//75
f 677//76 676//76 683//76 684//76
f 679//63 678//63 685//63 686//63
f 584//62 680//62 687//62
f 676//67 611//67 683//67
f 678//66 677//66 684//66 685//66
f 680//65 679//65 686//65 687//65
f 727//25 728//25 654//25 660//25
f 728//22 729//22 653//22 654//22
f 730//23 640//23 647//23
f 729//20 730//20 647//20 653//20
f 726//21 727//21 660//21 661//21
f 590//24 726//24 661//24
f 661//69 660//69 597//69 591//69
f 647//28 640//28 605//28
f 590//29 661//29 591//29
f 653//68 647//68 605//68 604//68
f 660//30 654//30 598//30 597//30
f 654//27 653//27 604//27 598//27
f 590//35 591//35 691//35
f 604//70 605//70 695//70 694//70
f 605//34 640//34 695//34
f 591//71 597//71 692//71 691//71
f 598//33 604//33 694//33 693//33
f 597//36 598//36 693//36 692//36
f 694//42 695//42 702//42 701//42
f 692//41 693//41 700//41 699//41
f 693//38 694//38 701//38 700//38
f 691//43 692//43 699//43 698//43
f 695//39 640//39 702//39
f 590//40 691//40 698//40
f 698//48 699//48 706//48 705//48
f 700//49 701//49 708//49 707//49
f 702//44 640//44 709//44
f 590//45 698//45 705//45
f 699//46 700//46 707//46 706//46
f 701//47 702//47 709//47 708//47
f 705//73 706//73 713//73 712//73
f 707//54 708//54 715//54 714//54
f 709//55 640//55 716//55
f 590//50 705//50 712//50
f 706//51 707//51 714//51 713//51
f 708//72 709//72 716//72 715//72
f 712//75 713//75 720//75 719//75
f 714//60 715//60 722//60 721//60
f 716//61 640//61 723//61
f 590//56 712//56 719//56
f 713//57 714//57 721//57 720//57
f 715//74 716//74 723//74 722//74
f 719//65 720//65 727//65 726//65
f 721//66 722//66 729//66 728//66
f 723//67 640//67 730//67
f 590//62 719//62 726//62
f 720//63 721//63 728//63 727//63
f 722//64 723//64 730//64 729//64
f 767//77 768//77 689//77 690//77
f 765//25 766//25 696//25 697//25
f 646//24 764//24 703//24
f 766//22 767//22 690//22 696//22
f 768//23 682//23 689//23
f 764//21 765//21 697//21 703//21
f 703//26 697//26 668//26 667//26
f 689//28 682//28 681//28
f 696//27 690//27 675//27 674//27
f 646//29 703//29 667//29
f 690//31 689//31 681//31 675//31
f 697//30 696//30 674//30 668//30
f 675//37 681//37 737//37 736//37
f 646//35 667//35 733//35
f 667//32 668//32 734//32 733//32
f 681//34 682//34 737//34
f 674//33 675//33 736//33 735//33
f 668//36 674//36 735//36 734//36
f 736//42 737//42 744//42 743//42
f 646//40 733//40 740//40
f 734//41 735//41 742//41 741//41
f 735//38 736//38 743//38 742//38
f 733//43 734//43 741//43 740//43
f 737//39 682//39 744//39
f 740//48 741//48 748//48 747//48
f 742//49 743//49 750//49 749//49
f 744//44 682//44 751//44
f 646//45 740//45 747//45
f 741//46 742//46 749//46 748//46
f 743//47 744//47 751//47 750//47
f 747//73 748//73 754//73 753//73
f 749//54 750//54 756//54 755//54
f 751//55 682//55 757//55
f 646//50 747//50 753//50
f 748//51 749//51 755//51 754//51
f 750//52 751//52 757//52 756//52
f 753//75 754//75 760//75 759//75
f 755//60 756//60 762//60 761//60
f 757//61 682//61 763//61
f 646//56 753//56 759//56
f 754//57 755//57 761//57 760//57
f 756//58 757//58 763//58 762//58
f 759//65 760//65 765//65 764//65
f 761//66 762//66 767//66 766//66
f 763//67 682//67 768//67
f 646//62 759//62 764//62
f 760//63 761//63 766//63 765//63
f 762//64 763//64 768//64 767//64
f 807//20 808//20 731//20 732//20
f 805//25 806//25 738//25 739//25
f 688//24 804//24 745//24
f 806//22 807//22 732//22 738//22
f 808//23 724//23 731//23
f 804//21 805//21 739//21 745//21
f 745//26 739//26 710//26 704//26
f 731//28 724//28 718//28
f 738//27 732//27 717//27 711//27
f 688//29 745//29 704//29
f 732//31 731//31 718//31 717//31
f 739//30 738//30 711//30 710//30
f 688//35 704//35 769//35
f 710//36 711//36 771//36 770//36
f 704//32 710//32 770//32 769//32
f 718//34 724//34 773//34
f 717//37 718//37 773//37 772//37
f 711//33 717//33 772//33 771//33
f 772//42 773//42 780//42 779//42
f 688//40 769//40 776//40
f 770//41 771//41 778//41 777//41
f 773//39 724//39 780//39
f 771//38 772//38 779//38 778//38
f 769//43 770//43 777//43 776//43
f 776//48 777//48 784//48 783//48
f 778//49 779//49 786//49 785//49
f 780//44 724//44 787//44
f 688//45 776//45 783//45
f 777//46 778//46 785//46 784//46
f 779//47 780//47 787//47 786//47
f 783//73 784//73 791//73 790//73
f 785//54 786//54 793//54 792//54
f 787//55 724//55 794//55
f 688//50 783//50 790//50
f 784//51 785//51 792//51 791//51
f 786//52 787//52 794//52 793//52
f 790//75 791//75 798//75 797//75
f 792//60 793//60 800//60 799//60
f 794//61 724//61 801//61
f 688//56 790//56 797//56
f 791//57 792//57 799//57 798//57
f 793//58 794//58 801//58 800//58
f 797//65 798//65 805//65 804//65
f 799//66 800//66 807//66 806//66
f 801//67 724//67 808//67
f 688//62 797//62 804//62
f 798//63 799//63 806//63 805//63
f 800//64 801//64 808//64 807//64
usemtl EF_Accent
f 408//1 431//1 433//1 432//1
f 432//2 433//2 436//2 435//2
f 435//3 436//3 434//3 412//3
f 412//4 434//4 431//4 408//4
f 432//5 435//5 412//5 408//5
f 436//6 433//6 431//6 434//6
f 437//1 438//1 439//1 410//1
f 410//2 439//2 442//2 414//2
f 414//3 442//3 441//3 440//3
f 440//4 441//4 438//4 437//4
f 410//5 414//5 440//5 437//5
f 442//6 439//6 438//6 441//6
f 935//78 774//78 816//78 815//78
f 775//79 781//79 817//79
f 932//80 933//80 813//80 812//80
f 752//81 758//81 810//81 725//81
f 931//82 932//82 812//82 811//82
f 933//83 934//83 814//83 813//83
f 934//84 935//84 815//84 814//84
f 746//85 752//85 725//85
f 758//86 931//86 811//86 810//86
f 774//87 775//87 817//87 816//87
f 817//88 781//88 826//88
f 810//89 811//89 820//89 819//89
f 815//90 816//90 825//90 824//90
f 746//91 725//91 818//91
f 814//92 815//92 824//92 823//92
f 812//93 813//93 822//93 821//93
f 725//94 810//94 819//94 818//94
f 813//95 814//95 823//95 822//95
f 811//96 812//96 821//96 820//96
f 816//97 817//97 826//97 825//97
f 826//98 781//98 835//98
f 819//99 820//99 829//99 828//99
f 822//100 823//100 832//100 831//100
f 825//101 826//101 835//101 834//101
f 818//102 819//102 828//102 827//102
f 821//103 822//103 831//103 830//103
f 824//104 825//104 834//104 833//104
f 746//105 818//105 827//105
f 820//106 821//106 830//106 829//106
f 823//107 824//107 833//107 832//107
f 829//108 830//108 839//108 838//108
f 832//109 833//109 842//109 841//109
f 835//110 781//110 844//110
f 828//111 829//111 838//111 837//111
f 831//112 832//112 841//112 840//112
f 834//113 835//113 844//113 843//113
f 827//114 828//114 837//114 836//114
f 830//115 831//115 840//115 839//115
f 833//116 834//116 843//116 842//116
f 746//117 827//117 836//117
f 842//118 843//118 852//118 851//118
f 746//119 836//119 845//119
f 838//120 839//120 848//120 847//120
f 841//121 842//121 851//121 850//121
f 844//122 781//122 853//122
f 837//123 838//123 847//123 846//123
f 840//124 841//124 850//124 849//124
f 843//125 844//125 853//125 852//125
f 836//126 837//126 846//126 845//126
f 839//127 840//127 849//127 848//127
f 848//128 849//128 858//128 857//128
f 851//129 852//129 861//129 860//129
f 746//130 845//130 854//130
f 847//131 848//131 857//131 856//131
f 850//132 851//132 860//132 859//132
f 853//133 781//133 862//133
f 846//134 847//134 856//134 855//134
f 849//135 850//135 859//135 858//135
f 852//136 853//136 862//136 861//136
f 845//137 846//137 855//137 854//137
f 861//138 862//138 871//138 870//138
f 854//139 855//139 864//139 863//139
f 857//140 858//140 867//140 866//140
f 860//141 861//141 870//141 869//141
f 746//142 854//142 863//142
f 856//143 857//143 866//143 865//143
f 859//144 860//144 869//144 868//144
f 862//145 781//145 871//145
f 855//146 856//146 865//146 864//146
f 858//147 859//147 868//147 867//147
f 864//148 865//148 874//148 873//148
f 867//149 868//149 877//149 876//149
f 870//150 871//150 880//150 879//150
f 863//151 864//151 873//151 872//151
f 866//152 867//152 876//152 875//152
f 869//153 870//153 879//153 878//153
f 746//154 863//154 872//154
f 865//155 866//155 875//155 874//155
f 868//156 869//156 878//156 877//156
f 871//157 781//157 880//157
f 877//158 878//158 887//158 886//158
f 880//159 781//159 889//159
f 873//160 874//160 883//160 882//160
f 876//161 877//161 886//161 885//161
f 879//162 880//162 889//162 888//162
f 872//163 873//163 882//163 881//163
f 875//164 876//164 885//164 884//164
f 878//165 879//165 888//165 887//165
f 746//166 872//166 881//166
f 874//167 875//167 884//167 883//167
f 883//168 884//168 893//168 892//168
f 886//169 887//169 896//169 895//169
f 889//170 781//170 898//170
f 882//171 883//171 892//171 891//171
f 885//172 886//172 895//172 894//172
f 888//173 889//173 898//173 897//173
f 881//174 882//174 891//174 890//174
f 884//175 885//175 894//175 893//175
f 887//176 888//176 897//176 896//176
f 746//177 881//177 890//177
f 896//178 897//178 906//178 905//178
f 746//179 890//179 899//179
f 892//180 893//180 902//180 901//180
f 895//181 896//181 905//181 904//181
f 898//182 781//182 907//182
f 891//183 892//183 901//183 900//183
f 894//184 895//184 904//184 903//184
f 897//185 898//185 907//185 906//185
f 890//186 891//186 900//186 899//186
f 893//187 894//187 903//187 902//187
f 899//188 900//188 909//188 908//188
f 902//189 903//189 912//189 911//189
f 905//190 906//190 915//190 914//190
f 746//191 899//191 908//191
f 901//192 902//192 911//192 910//192
f 904//193 905//193 914//193 913//193
f 907//194 781//194 916//194
f 900//195 901//195 910//195 909//195
f 903//196 904//196 913//196 912//196
f 906//197 907//197 916//197 915//197
f 912//198 913//198 923//198 922//198
f 915//199 916//199 926//199 925//199
f 908//200 909//200 919//200 917//200
f 911//201 912//201 922//201 921//201
f 914//202 915//202 925//202 924//202
f 746//203 908//203 917//203
f 910//204 911//204 921//204 920//204
f 913//205 914//205 924//205 923//205
f 916//206 781//206 926//206
f 909//207 910//207 920//207 919//207
f 926//208 781//208 775//208
f 919//209 920//209 931//209 758//209
f 922//210 923//210 934//210 933//210
f 925//211 926//211 775//211 774//211
f 917//212 919//212 758//212 752//212
f 921//213 922//213 933//213 932//213
f 924//214 925//214 774//214 935//214
f 746//215 917//215 752//215
f 920//216 921//216 932//216 931//216
f 923//217 924//217 935//217 934//217
usemtl EF_Wood
f 443//1 444//1 446//1 445//1
f 445//2 446//2 450//2 449//2
f 449//3 450//3 448//3 447//3
f 447//4 448//4 444//4 443//4
f 445//5 449//5 447//5 443//5
f 450//6 446//6 444//6 448//6
f 639//1 633//1 626//1 632//1
f 632//2 626//2 612//2 618//2
f 618//3 612//3 619//3 625//3
f 625//4 619//4 633//4 639//4
f 632//5 618//5 625//5 639//5
f 612//6 626//6 633//6 619//6
