# Blender 5.0.1
# www.blender.org
mtllib Farmhand.mtl
o Farmhand
v 0.273000 0.000000 -0.140000
v 0.273000 0.560000 -0.140000
v 0.273000 0.000000 0.140000
v 0.273000 0.560000 0.140000
v 0.007000 0.000000 -0.140000
v 0.007000 0.560000 -0.140000
v 0.007000 0.000000 0.140000
v 0.007000 0.560000 0.140000
v 0.280000 0.000000 -0.175000
v 0.280000 0.112000 -0.175000
v 0.280000 0.000000 0.147000
v 0.280000 0.112000 0.147000
v 0.000000 0.000000 -0.175000
v 0.000000 0.112000 -0.175000
v -0.000000 0.000000 0.147000
v -0.000000 0.112000 0.147000
v -0.007000 0.000000 -0.140000
v -0.007000 0.560000 -0.140000
v -0.007000 0.000000 0.140000
v -0.007000 0.560000 0.140000
v -0.273000 0.000000 -0.140000
v -0.273000 0.560000 -0.140000
v -0.273000 0.000000 0.140000
v -0.273000 0.560000 0.140000
v -0.280000 0.000000 -0.175000
v -0.280000 0.112000 -0.175000
v -0.280000 0.000000 0.147000
v -0.280000 0.112000 0.147000
v 0.280000 0.560000 -0.140000
v 0.280000 1.120000 -0.140000
v 0.280000 0.560000 0.140000
v 0.280000 1.120000 0.140000
v -0.280000 0.560000 -0.140000
v -0.280000 1.120000 -0.140000
v -0.280000 0.560000 0.140000
v -0.280000 1.120000 0.140000
v 0.210000 0.560000 -0.145600
v 0.210000 0.868000 -0.145600
v 0.210000 0.560000 0.145600
v 0.210000 0.868000 0.145600
v -0.210000 0.560000 -0.145600
v -0.210000 0.868000 -0.145600
v -0.210000 0.560000 0.145600
v -0.210000 0.868000 0.145600
v 0.193200 0.868000 -0.148400
v 0.193200 1.120000 -0.148400
v 0.193200 0.868000 0.148400
v 0.193200 1.120000 0.148400
v 0.114800 0.868000 -0.148400
v 0.114800 1.120000 -0.148400
v 0.114800 0.868000 0.148400
v 0.114800 1.120000 0.148400
v 0.176400 0.845600 -0.159600
v 0.176400 0.890400 -0.159600
v 0.176400 0.845600 -0.142800
v 0.176400 0.890400 -0.142800
v 0.131600 0.845600 -0.159600
v 0.131600 0.890400 -0.159600
v 0.131600 0.845600 -0.142800
v 0.131600 0.890400 -0.142800
v -0.114800 0.868000 -0.148400
v -0.114800 1.120000 -0.148400
v -0.114800 0.868000 0.148400
v -0.114800 1.120000 0.148400
v -0.193200 0.868000 -0.148400
v -0.193200 1.120000 -0.148400
v -0.193200 0.868000 0.148400
v -0.193200 1.120000 0.148400
v -0.131600 0.845600 -0.159600
v -0.131600 0.890400 -0.159600
v -0.131600 0.845600 -0.142800
v -0.131600 0.890400 -0.142800
v -0.176400 0.845600 -0.159600
v -0.176400 0.890400 -0.159600
v -0.176400 0.845600 -0.142800
v -0.176400 0.890400 -0.142800
v 0.084000 0.686000 -0.156800
v 0.084000 0.798000 -0.156800
v 0.084000 0.686000 -0.140000
v 0.084000 0.798000 -0.140000
v -0.084000 0.686000 -0.156800
v -0.084000 0.798000 -0.156800
v -0.084000 0.686000 -0.140000
v -0.084000 0.798000 -0.140000
v 0.553000 0.728000 -0.133000
v 0.553000 1.120000 -0.133000
v 0.553000 0.728000 0.133000
v 0.553000 1.120000 0.133000
v 0.287000 0.728000 -0.133000
v 0.287000 1.120000 -0.133000
v 0.287000 0.728000 0.133000
v 0.287000 1.120000 0.133000
v 0.546000 0.560000 -0.126000
v 0.546000 0.733600 -0.126000
v 0.546000 0.560000 0.126000
v 0.546000 0.733600 0.126000
v 0.294000 0.560000 -0.126000
v 0.294000 0.733600 -0.126000
v 0.294000 0.560000 0.126000
v 0.294000 0.733600 0.126000
v -0.287000 0.728000 -0.133000
v -0.287000 1.120000 -0.133000
v -0.287000 0.728000 0.133000
v -0.287000 1.120000 0.133000
v -0.553000 0.728000 -0.133000
v -0.553000 1.120000 -0.133000
v -0.553000 0.728000 0.133000
v -0.553000 1.120000 0.133000
v -0.294000 0.560000 -0.126000
v -0.294000 0.733600 -0.126000
v -0.294000 0.560000 0.126000
v -0.294000 0.733600 0.126000
v -0.546000 0.560000 -0.126000
v -0.546000 0.733600 -0.126000
v -0.546000 0.560000 0.126000
v -0.546000 0.733600 0.126000
v 0.161000 1.120000 -0.154000
v 0.161000 1.442000 -0.154000
v 0.161000 1.120000 0.154000
v 0.161000 1.442000 0.154000
v -0.161000 1.120000 -0.154000
v -0.161000 1.442000 -0.154000
v -0.161000 1.120000 0.154000
v -0.161000 1.442000 0.154000
v 0.089600 1.279600 -0.163800
v 0.089600 1.341200 -0.163800
v 0.089600 1.279600 -0.149800
v 0.089600 1.341200 -0.149800
v 0.044800 1.279600 -0.163800
v 0.044800 1.341200 -0.163800
v 0.044800 1.279600 -0.149800
v 0.044800 1.341200 -0.149800
v -0.044800 1.279600 -0.163800
v -0.044800 1.341200 -0.163800
v -0.044800 1.279600 -0.149800
v -0.044800 1.341200 -0.149800
v -0.089600 1.279600 -0.163800
v -0.089600 1.341200 -0.163800
v -0.089600 1.279600 -0.149800
v -0.089600 1.341200 -0.149800
v 0.056000 1.201200 -0.163800
v 0.056000 1.223600 -0.163800
v 0.056000 1.201200 -0.149800
v 0.056000 1.223600 -0.149800
v -0.056000 1.201200 -0.163800
v -0.056000 1.223600 -0.163800
v -0.056000 1.201200 -0.149800
v -0.056000 1.223600 -0.149800
v 0.168000 1.330000 0.075600
v 0.168000 1.428000 0.075600
v 0.168000 1.330000 0.159600
v 0.168000 1.428000 0.159600
v -0.168000 1.330000 0.075600
v -0.168000 1.428000 0.075600
v -0.168000 1.330000 0.159600
v -0.168000 1.428000 0.159600
v -0.000000 1.414000 0.336000
v -0.000000 1.447600 0.336000
v -0.145785 1.414000 0.302726
v -0.145785 1.447600 0.302726
v -0.262695 1.414000 0.209493
v -0.262695 1.447600 0.209493
v -0.327576 1.414000 0.074767
v -0.327576 1.447600 0.074767
v -0.327576 1.414000 -0.074767
v -0.327576 1.447600 -0.074767
v -0.262695 1.414000 -0.209493
v -0.262695 1.447600 -0.209493
v -0.145785 1.414000 -0.302726
v -0.145785 1.447600 -0.302726
v 0.000000 1.414000 -0.336000
v 0.000000 1.447600 -0.336000
v 0.145785 1.414000 -0.302726
v 0.145785 1.447600 -0.302726
v 0.262695 1.414000 -0.209493
v 0.262695 1.447600 -0.209493
v 0.327576 1.414000 -0.074767
v 0.327576 1.447600 -0.074767
v 0.327576 1.414000 0.074767
v 0.327576 1.447600 0.074767
v 0.262695 1.414000 0.209493
v 0.262695 1.447600 0.209493
v 0.145785 1.414000 0.302726
v 0.145785 1.447600 0.302726
v -0.000000 1.442000 0.173600
v -0.000000 1.596000 0.154000
v -0.086800 1.442000 0.150342
v -0.077000 1.596000 0.133368
v -0.150342 1.442000 0.086800
v -0.133368 1.596000 0.077000
v -0.173600 1.442000 -0.000000
v -0.154000 1.596000 -0.000000
v -0.150342 1.442000 -0.086800
v -0.133368 1.596000 -0.077000
v -0.086800 1.442000 -0.150342
v -0.077000 1.596000 -0.133368
v 0.000000 1.442000 -0.173600
v 0.000000 1.596000 -0.154000
v 0.086800 1.442000 -0.150342
v 0.077000 1.596000 -0.133368
v 0.150342 1.442000 -0.086800
v 0.133368 1.596000 -0.077000
v 0.173600 1.442000 0.000000
v 0.154000 1.596000 0.000000
v 0.150342 1.442000 0.086800
v 0.133368 1.596000 0.077000
v 0.086800 1.442000 0.150342
v 0.077000 1.596000 0.133368
v -0.000000 1.447600 0.179200
v -0.000000 1.486800 0.179200
v -0.089600 1.447600 0.155192
v -0.089600 1.486800 0.155192
v -0.155192 1.447600 0.089600
v -0.155192 1.486800 0.089600
v -0.179200 1.447600 -0.000000
v -0.179200 1.486800 -0.000000
v -0.155192 1.447600 -0.089600
v -0.155192 1.486800 -0.089600
v -0.089600 1.447600 -0.155192
v -0.089600 1.486800 -0.155192
v 0.000000 1.447600 -0.179200
v 0.000000 1.486800 -0.179200
v 0.089600 1.447600 -0.155192
v 0.089600 1.486800 -0.155192
v 0.155192 1.447600 -0.089600
v 0.155192 1.486800 -0.089600
v 0.179200 1.447600 0.000000
v 0.179200 1.486800 0.000000
v 0.155192 1.447600 0.089600
v 0.155192 1.486800 0.089600
v 0.089600 1.447600 0.155192
v 0.089600 1.486800 0.155192
vn 1.0000 -0.0000 -0.0000
vn -0.0000 -0.0000 1.0000
vn -1.0000 -0.0000 -0.0000
vn -0.0000 -0.0000 -1.0000
vn -0.0000 -1.0000 -0.0000
vn -0.0000 1.0000 -0.0000
vn -0.2225 -0.0000 0.9749
vn 0.9587 0.1220 -0.2569
vn -0.9587 0.1220 -0.2569
vn -0.6235 -0.0000 0.7818
vn 0.7018 0.1220 -0.7018
vn -0.9010 -0.0000 0.4339
vn -0.7071 -0.0000 -0.7071
vn -0.9587 0.1220 0.2569
vn -0.9010 -0.0000 -0.4339
vn 0.2569 0.1220 -0.9587
vn -0.6235 -0.0000 -0.7818
vn -0.9659 -0.0000 0.2588
vn -0.2225 -0.0000 -0.9749
vn -0.7018 0.1220 0.7018
vn 0.2225 -0.0000 -0.9749
vn -0.2569 0.1220 -0.9587
vn 0.2588 -0.0000 -0.9659
vn 0.6235 -0.0000 -0.7818
vn -0.9659 -0.0000 -0.2588
vn 0.9010 -0.0000 -0.4339
vn -0.7071 -0.0000 0.7071
vn -0.2569 0.1220 0.9587
vn -0.7018 0.1220 -0.7018
vn 0.9010 -0.0000 0.4339
vn 0.6235 -0.0000 0.7818
vn -0.2588 -0.0000 0.9659
vn -0.2588 -0.0000 -0.9659
vn 0.2225 -0.0000 0.9749
vn 0.9587 0.1220 0.2569
vn 0.7018 0.1220 0.7018
vn 0.2569 0.1220 0.9587
vn 0.7071 -0.0000 -0.7071
vn 0.9659 -0.0000 -0.2588
vn 0.9659 -0.0000 0.2588
vn 0.7071 -0.0000 0.7071
vn 0.2588 -0.0000 0.9659
s 0
usemtl EF_Denim
f 1//1 2//1 4//1 3//1
f 3//2 4//2 8//2 7//2
f 7//3 8//3 6//3 5//3
f 5//4 6//4 2//4 1//4
f 3//5 7//5 5//5 1//5
f 8//6 4//6 2//6 6//6
f 17//1 18//1 20//1 19//1
f 19//2 20//2 24//2 23//2
f 23//3 24//3 22//3 21//3
f 21//4 22//4 18//4 17//4
f 19//5 23//5 21//5 17//5
f 24//6 20//6 18//6 22//6
f 37//1 38//1 40//1 39//1
f 39//2 40//2 44//2 43//2
f 43//3 44//3 42//3 41//3
f 41//4 42//4 38//4 37//4
f 39//5 43//5 41//5 37//5
f 44//6 40//6 38//6 42//6
f 45//1 46//1 48//1 47//1
f 47//2 48//2 52//2 51//2
f 51//3 52//3 50//3 49//3
f 49//4 50//4 46//4 45//4
f 47//5 51//5 49//5 45//5
f 52//6 48//6 46//6 50//6
f 61//1 62//1 64//1 63//1
f 63//2 64//2 68//2 67//2
f 67//3 68//3 66//3 65//3
f 65//4 66//4 62//4 61//4
f 63//5 67//5 65//5 61//5
f 68//6 64//6 62//6 66//6
f 77//1 78//1 80//1 79//1
f 79//2 80//2 84//2 83//2
f 83//3 84//3 82//3 81//3
f 81//4 82//4 78//4 77//4
f 79//5 83//5 81//5 77//5
f 84//6 80//6 78//6 82//6
usemtl EF_WoodDark
f 9//1 10//1 12//1 11//1
f 11//2 12//2 16//2 15//2
f 15//3 16//3 14//3 13//3
f 13//4 14//4 10//4 9//4
f 11//5 15//5 13//5 9//5
f 16//6 12//6 10//6 14//6
f 15//2 16//2 28//2 27//2
f 27//3 28//3 26//3 25//3
f 25//4 26//4 14//4 13//4
f 15//5 27//5 25//5 13//5
f 28//6 16//6 14//6 26//6
usemtl EF_Shirt
f 29//1 30//1 32//1 31//1
f 31//2 32//2 36//2 35//2
f 35//3 36//3 34//3 33//3
f 33//4 34//4 30//4 29//4
f 31//5 35//5 33//5 29//5
f 36//6 32//6 30//6 34//6
f 85//1 86//1 88//1 87//1
f 87//2 88//2 92//2 91//2
f 91//3 92//3 90//3 89//3
f 89//4 90//4 86//4 85//4
f 87//5 91//5 89//5 85//5
f 92//6 88//6 86//6 90//6
f 101//1 102//1 104//1 103//1
f 103//2 104//2 108//2 107//2
f 107//3 108//3 106//3 105//3
f 105//4 106//4 102//4 101//4
f 103//5 107//5 105//5 101//5
f 108//6 104//6 102//6 106//6
usemtl EF_Accent
f 53//1 54//1 56//1 55//1
f 55//2 56//2 60//2 59//2
f 59//3 60//3 58//3 57//3
f 57//4 58//4 54//4 53//4
f 55//5 59//5 57//5 53//5
f 60//6 56//6 54//6 58//6
f 69//1 70//1 72//1 71//1
f 71//2 72//2 76//2 75//2
f 75//3 76//3 74//3 73//3
f 73//4 74//4 70//4 69//4
f 71//5 75//5 73//5 69//5
f 76//6 72//6 70//6 74//6
usemtl EF_Skin
f 93//1 94//1 96//1 95//1
f 95//2 96//2 100//2 99//2
f 99//3 100//3 98//3 97//3
f 97//4 98//4 94//4 93//4
f 95//5 99//5 97//5 93//5
f 100//6 96//6 94//6 98//6
f 109//1 110//1 112//1 111//1
f 111//2 112//2 116//2 115//2
f 115//3 116//3 114//3 113//3
f 113//4 114//4 110//4 109//4
f 111//5 115//5 113//5 109//5
f 116//6 112//6 110//6 114//6
f 117//1 118//1 120//1 119//1
f 119//2 120//2 124//2 123//2
f 123//3 124//3 122//3 121//3
f 121//4 122//4 118//4 117//4
f 119//5 123//5 121//5 117//5
f 124//6 120//6 118//6 122//6
usemtl EF_Black
f 125//1 126//1 128//1 127//1
f 127//2 128//2 132//2 131//2
f 131//3 132//3 130//3 129//3
f 129//4 130//4 126//4 125//4
f 127//5 131//5 129//5 125//5
f 132//6 128//6 126//6 130//6
f 133//1 134//1 136//1 135//1
f 135//2 136//2 140//2 139//2
f 139//3 140//3 138//3 137//3
f 137//4 138//4 134//4 133//4
f 135//5 139//5 137//5 133//5
f 140//6 136//6 134//6 138//6
f 141//1 142//1 144//1 143//1
f 143//2 144//2 148//2 147//2
f 147//3 148//3 146//3 145//3
f 145//4 146//4 142//4 141//4
f 143//5 147//5 145//5 141//5
f 148//6 144//6 142//6 146//6
usemtl EF_Hair
f 149//1 150//1 152//1 151//1
f 151//2 152//2 156//2 155//2
f 155//3 156//3 154//3 153//3
f 153//4 154//4 150//4 149//4
f 151//5 155//5 153//5 149//5
f 156//6 152//6 150//6 154//6
usemtl EF_Straw
f 157//7 158//7 160//7 159//7
f 201//8 202//8 204//8 203//8
f 191//9 192//9 194//9 193//9
f 159//10 160//10 162//10 161//10
f 199//11 200//11 202//11 201//11
f 161//12 162//12 164//12 163//12
f 163//3 164//3 166//3 165//3
f 189//14 190//14 192//14 191//14
f 165//15 166//15 168//15 167//15
f 197//16 198//16 200//16 199//16
f 167//17 168//17 170//17 169//17
f 169//19 170//19 172//19 171//19
f 187//20 188//20 190//20 189//20
f 171//21 172//21 174//21 173//21
f 195//22 196//22 198//22 197//22
f 173//24 174//24 176//24 175//24
f 175//26 176//26 178//26 177//26
f 185//28 186//28 188//28 187//28
f 177//1 178//1 180//1 179//1
f 193//29 194//29 196//29 195//29
f 179//30 180//30 182//30 181//30
f 160//6 158//6 184//6 182//6 180//6 178//6 176//6 174//6 172//6 170//6 168//6 166//6 164//6 162//6
f 181//31 182//31 184//31 183//31
f 183//34 184//34 158//34 157//34
f 157//5 159//5 161//5 163//5 165//5 167//5 169//5 171//5 173//5 175//5 177//5 179//5 181//5 183//5
f 203//35 204//35 206//35 205//35
f 193//5 195//5 197//5 199//5 201//5 203//5 205//5 207//5 185//5 187//5 189//5 191//5
f 205//36 206//36 208//36 207//36
f 207//37 208//37 186//37 185//37
f 204//6 202//6 200//6 198//6 196//6 194//6 192//6 190//6 188//6 186//6 208//6 206//6
usemtl EF_Roof
f 217//13 218//13 220//13 219//13
f 213//18 214//18 216//18 215//18
f 221//23 222//23 224//23 223//23
f 215//25 216//25 218//25 217//25
f 211//27 212//27 214//27 213//27
f 209//32 210//32 212//32 211//32
f 219//33 220//33 222//33 221//33
f 223//38 224//38 226//38 225//38
f 225//39 226//39 228//39 227//39
f 227//40 228//40 230//40 229//40
f 213//5 215//5 217//5 219//5 221//5 223//5 225//5 227//5 229//5 231//5 209//5 211//5
f 229//41 230//41 232//41 231//41
f 231//42 232//42 210//42 209//42
f 220//6 218//6 216//6 214//6 212//6 210//6 232//6 230//6 228//6 226//6 224//6 222//6
