# Blender 5.0.1
# www.blender.org
mtllib FarmPickup.mtl
o FarmPickup
v 0.840000 0.504000 -2.058000
v 0.840000 0.280000 -2.058000
v 1.064000 0.350000 -1.036000
v 0.784000 0.350000 -1.036000
v 1.064000 0.175000 -1.082891
v 0.784000 0.175000 -1.082891
v 1.064000 0.046891 -1.211000
v 0.784000 0.046891 -1.211000
v 1.064000 0.000000 -1.386000
v 0.784000 0.000000 -1.386000
v 1.064000 0.046891 -1.561000
v 0.784000 0.046891 -1.561000
v 1.064000 0.175000 -1.689109
v 0.784000 0.175000 -1.689109
v 1.064000 0.350000 -1.736000
v 0.784000 0.350000 -1.736000
v 1.064000 0.525000 -1.689109
v 0.784000 0.525000 -1.689109
v 1.064000 0.653109 -1.561000
v 0.784000 0.653109 -1.561000
v 1.064000 0.700000 -1.386000
v 0.784000 0.700000 -1.386000
v 1.064000 0.653109 -1.211000
v 0.784000 0.653109 -1.211000
v 1.064000 0.525000 -1.082891
v 0.784000 0.525000 -1.082891
v 1.086400 0.350000 -1.193500
v 0.772800 0.350000 -1.193500
v 1.086400 0.213882 -1.249882
v 0.772800 0.213882 -1.249882
v 1.086400 0.157500 -1.386000
v 0.772800 0.157500 -1.386000
v 1.086400 0.213882 -1.522118
v 0.772800 0.213882 -1.522118
v 1.086400 0.350000 -1.578500
v 0.772800 0.350000 -1.578500
v 1.086400 0.486118 -1.522118
v 0.772800 0.486118 -1.522118
v 1.086400 0.542500 -1.386000
v 0.772800 0.542500 -1.386000
v 1.086400 0.486118 -1.249882
v 0.772800 0.486118 -1.249882
v 1.110200 0.350000 -1.316000
v 0.760200 0.350000 -1.316000
v 1.110200 0.289378 -1.351000
v 0.760200 0.289378 -1.351000
v 1.110200 0.289378 -1.421000
v 0.760200 0.289378 -1.421000
v 1.110200 0.350000 -1.456000
v 0.760200 0.350000 -1.456000
v 1.110200 0.410622 -1.421000
v 0.760200 0.410622 -1.421000
v 1.110200 0.410622 -1.351000
v 0.760200 0.410622 -1.351000
v -0.784000 0.350000 -1.036000
v -1.064000 0.350000 -1.036000
v -0.784000 0.175000 -1.082891
v -1.064000 0.175000 -1.082891
v -0.784000 0.046891 -1.211000
v -1.064000 0.046891 -1.211000
v -0.784000 0.000000 -1.386000
v -1.064000 0.000000 -1.386000
v -0.784000 0.046891 -1.561000
v -1.064000 0.046891 -1.561000
v -0.784000 0.175000 -1.689109
v -1.064000 0.175000 -1.689109
v -0.784000 0.350000 -1.736000
v -1.064000 0.350000 -1.736000
v -0.784000 0.525000 -1.689109
v -1.064000 0.525000 -1.689109
v -0.784000 0.653109 -1.561000
v -1.064000 0.653109 -1.561000
v -0.784000 0.700000 -1.386000
v -1.064000 0.700000 -1.386000
v -0.784000 0.653109 -1.211000
v -1.064000 0.653109 -1.211000
v -0.784000 0.525000 -1.082891
v -1.064000 0.525000 -1.082891
v -0.772800 0.350000 -1.193500
v -1.086400 0.350000 -1.193500
v -0.772800 0.213882 -1.249882
v -1.086400 0.213882 -1.249882
v -0.772800 0.157500 -1.386000
v -1.086400 0.157500 -1.386000
v -0.772800 0.213882 -1.522118
v -1.086400 0.213882 -1.522118
v -0.772800 0.350000 -1.578500
v -1.086400 0.350000 -1.578500
v -0.772800 0.486118 -1.522118
v -1.086400 0.486118 -1.522118
v -0.772800 0.542500 -1.386000
v -1.086400 0.542500 -1.386000
v -0.772800 0.486118 -1.249882
v -1.086400 0.486118 -1.249882
v -0.760200 0.350000 -1.316000
v -1.110200 0.350000 -1.316000
v -0.760200 0.289378 -1.351000
v -1.110200 0.289378 -1.351000
v -0.760200 0.289378 -1.421000
v -1.110200 0.289378 -1.421000
v -0.760200 0.350000 -1.456000
v -1.110200 0.350000 -1.456000
v -0.760200 0.410622 -1.421000
v -1.110200 0.410622 -1.421000
v -0.760200 0.410622 -1.351000
v -1.110200 0.410622 -1.351000
v 1.064000 0.350000 1.652000
v 0.784000 0.350000 1.652000
v 1.064000 0.175000 1.605109
v 0.784000 0.175000 1.605109
v 1.064000 0.046891 1.477000
v 0.784000 0.046891 1.477000
v 1.064000 0.000000 1.302000
v 0.784000 0.000000 1.302000
v 1.064000 0.046891 1.127000
v 0.784000 0.046891 1.127000
v 1.064000 0.175000 0.998891
v 0.784000 0.175000 0.998891
v 1.064000 0.350000 0.952000
v 0.784000 0.350000 0.952000
v 1.064000 0.525000 0.998891
v 0.784000 0.525000 0.998891
v 1.064000 0.653109 1.127000
v 0.784000 0.653109 1.127000
v 1.064000 0.700000 1.302000
v 0.784000 0.700000 1.302000
v 1.064000 0.653109 1.477000
v 0.784000 0.653109 1.477000
v 1.064000 0.525000 1.605109
v 0.784000 0.525000 1.605109
v 1.086400 0.350000 1.494500
v 0.772800 0.350000 1.494500
v 1.086400 0.213882 1.438118
v 0.772800 0.213882 1.438118
v 1.086400 0.157500 1.302000
v 0.772800 0.157500 1.302000
v 1.086400 0.213882 1.165882
v 0.772800 0.213882 1.165882
v 1.086400 0.350000 1.109500
v 0.772800 0.350000 1.109500
v 1.086400 0.486118 1.165882
v 0.772800 0.486118 1.165882
v 1.086400 0.542500 1.302000
v 0.772800 0.542500 1.302000
v 1.086400 0.486118 1.438118
v 0.772800 0.486118 1.438118
v 1.110200 0.350000 1.372000
v 0.760200 0.350000 1.372000
v 1.110200 0.289378 1.337000
v 0.760200 0.289378 1.337000
v 1.110200 0.289378 1.267000
v 0.760200 0.289378 1.267000
v 1.110200 0.350000 1.232000
v 0.760200 0.350000 1.232000
v 1.110200 0.410622 1.267000
v 0.760200 0.410622 1.267000
v 1.110200 0.410622 1.337000
v 0.760200 0.410622 1.337000
v -0.784000 0.350000 1.652000
v -1.064000 0.350000 1.652000
v -0.784000 0.175000 1.605109
v -1.064000 0.175000 1.605109
v -0.784000 0.046891 1.477000
v -1.064000 0.046891 1.477000
v -0.784000 0.000000 1.302000
v -1.064000 0.000000 1.302000
v -0.784000 0.046891 1.127000
v -1.064000 0.046891 1.127000
v -0.784000 0.175000 0.998891
v -1.064000 0.175000 0.998891
v -0.784000 0.350000 0.952000
v -1.064000 0.350000 0.952000
v -0.784000 0.525000 0.998891
v -1.064000 0.525000 0.998891
v -0.784000 0.653109 1.127000
v -1.064000 0.653109 1.127000
v -0.784000 0.700000 1.302000
v -1.064000 0.700000 1.302000
v -0.784000 0.653109 1.477000
v -1.064000 0.653109 1.477000
v -0.784000 0.525000 1.605109
v -1.064000 0.525000 1.605109
v -0.772800 0.350000 1.494500
v -1.086400 0.350000 1.494500
v -0.772800 0.213882 1.438118
v -1.086400 0.213882 1.438118
v -0.772800 0.157500 1.302000
v -1.086400 0.157500 1.302000
v -0.772800 0.213882 1.165882
v -1.086400 0.213882 1.165882
v -0.772800 0.350000 1.109500
v -1.086400 0.350000 1.109500
v -0.772800 0.486118 1.165882
v -1.086400 0.486118 1.165882
v -0.772800 0.542500 1.302000
v -1.086400 0.542500 1.302000
v -0.772800 0.486118 1.438118
v -1.086400 0.486118 1.438118
v -0.760200 0.350000 1.372000
v -1.110200 0.350000 1.372000
v -0.760200 0.289378 1.337000
v -1.110200 0.289378 1.337000
v -0.760200 0.289378 1.267000
v -1.110200 0.289378 1.267000
v -0.760200 0.350000 1.232000
v -1.110200 0.350000 1.232000
v -0.760200 0.410622 1.267000
v -1.110200 0.410622 1.267000
v -0.760200 0.410622 1.337000
v -1.110200 0.410622 1.337000
v 0.840000 0.280000 2.086000
v 0.840000 0.504000 2.086000
v -0.840000 0.280000 -2.058000
v -0.840000 0.504000 -2.058000
v -0.840000 0.280000 2.086000
v -0.840000 0.504000 2.086000
v 1.008000 0.448000 -2.170000
v 1.008000 0.980000 -2.170000
v -1.008000 0.448000 -2.170000
v -1.008000 0.980000 -2.170000
v -1.008000 0.448000 -0.938000
v 0.700000 0.532000 -2.212000
v 0.700000 0.812000 -2.212000
v 0.700000 0.532000 -2.156000
v 0.700000 0.812000 -2.156000
v -0.700000 0.532000 -2.212000
v -0.700000 0.812000 -2.212000
v -0.700000 0.532000 -2.156000
v -0.700000 0.812000 -2.156000
v 0.949200 0.756000 -2.212000
v 0.949200 0.924000 -2.212000
v 0.949200 0.756000 -2.156000
v 0.949200 0.924000 -2.156000
v 0.730800 0.756000 -2.212000
v 0.730800 0.924000 -2.212000
v 0.730800 0.756000 -2.156000
v 0.730800 0.924000 -2.156000
v -0.730800 0.756000 -2.212000
v -0.730800 0.924000 -2.212000
v -0.730800 0.756000 -2.156000
v -0.730800 0.924000 -2.156000
v -0.949200 0.756000 -2.212000
v -0.949200 0.924000 -2.212000
v -0.949200 0.756000 -2.156000
v -0.949200 0.924000 -2.156000
v 1.064000 0.336000 -2.282000
v 1.064000 0.504000 -2.282000
v 1.064000 0.336000 -2.114000
v 1.064000 0.504000 -2.114000
v -1.064000 0.336000 -2.282000
v -1.064000 0.504000 -2.282000
v -1.064000 0.336000 -2.114000
v -1.064000 0.504000 -2.114000
v 1.008000 0.448000 -0.938000
v 1.008000 0.980000 -0.938000
v 1.008000 0.448000 0.182000
v 1.008000 0.980000 0.182000
v -1.008000 0.980000 -0.938000
v -1.008000 0.448000 0.182000
v -1.008000 0.980000 0.182000
v 0.952000 0.980000 -0.826000
v 0.952000 1.596000 -0.826000
v 0.952000 0.980000 0.182000
v 0.952000 1.596000 0.182000
v -0.952000 0.980000 -0.826000
v -0.952000 1.596000 -0.826000
v -0.952000 0.980000 0.182000
v -0.952000 1.596000 0.182000
v 0.868000 1.061022 -0.916871
v 0.868000 1.526621 -0.817905
v 0.868000 1.049379 -0.862095
v 0.868000 1.514978 -0.763129
v -0.868000 1.061022 -0.916871
v -0.868000 1.526621 -0.817905
v -0.868000 1.049379 -0.862095
v -0.868000 1.514978 -0.763129
v 0.985600 1.078000 -0.686000
v 0.985600 1.498000 -0.686000
v 0.985600 1.078000 0.042000
v 0.985600 1.498000 0.042000
v 0.929600 1.078000 -0.686000
v 0.929600 1.498000 -0.686000
v 0.929600 1.078000 0.042000
v 0.929600 1.498000 0.042000
v -0.929600 1.078000 -0.686000
v -0.929600 1.498000 -0.686000
v -0.929600 1.078000 0.042000
v -0.929600 1.498000 0.042000
v -0.985600 1.078000 -0.686000
v -0.985600 1.498000 -0.686000
v -0.985600 1.078000 0.042000
v -0.985600 1.498000 0.042000
v 0.980000 1.596000 -0.854000
v 0.980000 1.680000 -0.854000
v 0.980000 1.596000 0.210000
v 0.980000 1.680000 0.210000
v -0.980000 1.596000 -0.854000
v -0.980000 1.680000 -0.854000
v -0.980000 1.596000 0.210000
v -0.980000 1.680000 0.210000
v 1.008000 0.448000 0.070000
v 1.008000 0.448000 2.142000
v 1.008000 0.588000 2.142000
v -1.008000 0.448000 0.070000
v -1.008000 0.588000 0.070000
v -1.008000 0.448000 2.142000
v -1.008000 0.588000 2.142000
v 1.008000 0.588000 0.070000
v 1.008000 1.036000 0.070000
v 1.008000 1.036000 2.142000
v 0.896000 0.588000 0.070000
v 0.896000 1.036000 0.070000
v 0.896000 0.588000 2.142000
v 0.896000 1.036000 2.142000
v 1.022000 1.036000 0.070000
v 1.022000 1.092000 0.070000
v 1.022000 1.036000 2.142000
v 1.022000 1.092000 2.142000
v 0.882000 1.036000 0.070000
v 0.882000 1.092000 0.070000
v 0.882000 1.036000 2.142000
v 0.882000 1.092000 2.142000
v -0.896000 0.588000 0.070000
v -0.896000 1.036000 0.070000
v -0.896000 0.588000 2.142000
v -0.896000 1.036000 2.142000
v -1.008000 1.036000 0.070000
v -1.008000 1.036000 2.142000
v -0.882000 1.036000 0.070000
v -0.882000 1.092000 0.070000
v -0.882000 1.036000 2.142000
v -0.882000 1.092000 2.142000
v -1.022000 1.036000 0.070000
v -1.022000 1.092000 0.070000
v -1.022000 1.036000 2.142000
v -1.022000 1.092000 2.142000
v 1.008000 0.588000 2.030000
v 1.008000 1.036000 2.030000
v -1.008000 0.588000 2.030000
v -1.008000 1.036000 2.030000
v 1.064000 0.336000 2.114000
v 1.064000 0.504000 2.114000
v 1.064000 0.336000 2.282000
v 1.064000 0.504000 2.282000
v -1.064000 0.336000 2.114000
v -1.064000 0.504000 2.114000
v -1.064000 0.336000 2.282000
v -1.064000 0.504000 2.282000
v 0.924000 0.812000 2.128000
v 0.924000 0.980000 2.128000
v 0.924000 0.812000 2.184000
v 0.924000 0.980000 2.184000
v 0.756000 0.812000 2.128000
v 0.756000 0.980000 2.128000
v 0.756000 0.812000 2.184000
v 0.756000 0.980000 2.184000
v -0.756000 0.812000 2.128000
v -0.756000 0.980000 2.128000
v -0.756000 0.812000 2.184000
v -0.756000 0.980000 2.184000
v -0.924000 0.812000 2.128000
v -0.924000 0.980000 2.128000
v -0.924000 0.812000 2.184000
v -0.924000 0.980000 2.184000
v 1.078000 0.728000 -1.834000
v 1.078000 0.868000 -1.834000
v 1.078000 0.728000 -0.938000
v 1.078000 0.868000 -0.938000
v 0.938000 0.728000 -1.834000
v 0.938000 0.868000 -1.834000
v 0.938000 0.728000 -0.938000
v 0.938000 0.868000 -0.938000
v -0.938000 0.728000 -1.834000
v -0.938000 0.868000 -1.834000
v -0.938000 0.728000 -0.938000
v -0.938000 0.868000 -0.938000
v -1.078000 0.728000 -1.834000
v -1.078000 0.868000 -1.834000
v -1.078000 0.728000 -0.938000
v -1.078000 0.868000 -0.938000
v 1.078000 0.728000 0.854000
v 1.078000 0.868000 0.854000
v 1.078000 0.728000 1.750000
v 1.078000 0.868000 1.750000
v 0.938000 0.728000 0.854000
v 0.938000 0.868000 0.854000
v 0.938000 0.728000 1.750000
v 0.938000 0.868000 1.750000
v -0.938000 0.728000 0.854000
v -0.938000 0.868000 0.854000
v -0.938000 0.728000 1.750000
v -0.938000 0.868000 1.750000
v -1.078000 0.728000 0.854000
v -1.078000 0.868000 0.854000
v -1.078000 0.728000 1.750000
v -1.078000 0.868000 1.750000
v 0.700000 0.588000 0.462000
v 0.700000 0.868000 0.462000
v 0.700000 0.588000 0.910000
v 0.700000 0.868000 0.910000
v 0.140000 0.588000 0.462000
v 0.140000 0.868000 0.462000
v 0.140000 0.588000 0.910000
v 0.140000 0.868000 0.910000
v 0.714000 0.756000 0.434000
v 0.714000 0.826000 0.434000
v 0.714000 0.756000 0.490000
v 0.714000 0.826000 0.490000
v 0.126000 0.756000 0.434000
v 0.126000 0.826000 0.434000
v 0.126000 0.756000 0.490000
v 0.126000 0.826000 0.490000
v 0.714000 0.756000 0.882000
v 0.714000 0.826000 0.882000
v 0.714000 0.756000 0.938000
v 0.714000 0.826000 0.938000
v 0.126000 0.756000 0.882000
v 0.126000 0.826000 0.882000
v 0.126000 0.756000 0.938000
v 0.126000 0.826000 0.938000
v 0.560000 1.026480 0.588000
v 0.560000 1.004234 0.640666
v 0.560000 0.945994 0.673215
v 0.560000 0.874006 0.673215
v 0.560000 0.815766 0.640666
v 0.560000 0.793520 0.588000
v 0.522760 0.815766 0.746760
v 0.522760 1.004234 0.625240
v 0.499744 0.945994 0.648256
v 0.499744 0.874006 0.648256
v 0.522760 0.815766 0.625240
v 0.560000 0.793520 0.784000
v 0.242760 0.815766 0.550760
v 0.507334 1.004234 0.588000
v 0.474785 0.945994 0.588000
v 0.474785 0.874006 0.588000
v 0.507334 0.815766 0.588000
v 0.507334 0.815766 0.784000
v 0.474785 0.874006 0.784000
v 0.522760 1.004234 0.550760
v 0.499744 0.945994 0.527744
v 0.499744 0.874006 0.527744
v 0.522760 0.815766 0.550760
v 0.474785 0.945994 0.784000
v 0.507334 1.004234 0.784000
v 0.560000 1.004234 0.535334
v 0.560000 0.945994 0.502785
v 0.560000 0.874006 0.502785
v 0.560000 0.815766 0.535334
v 0.560000 1.026480 0.784000
v 0.280000 0.793520 0.588000
v 0.597240 1.004234 0.550760
v 0.620256 0.945994 0.527744
v 0.620256 0.874006 0.527744
v 0.597240 0.815766 0.550760
v 0.522760 1.004234 0.821240
v 0.499744 0.945994 0.844256
v 0.612665 1.004234 0.588000
v 0.645215 0.945994 0.588000
v 0.645215 0.874006 0.588000
v 0.612665 0.815766 0.588000
v 0.499744 0.874006 0.844256
v 0.522760 0.815766 0.821240
v 0.597240 1.004234 0.625240
v 0.620256 0.945994 0.648256
v 0.620256 0.874006 0.648256
v 0.597240 0.815766 0.625240
v 0.242760 0.815766 0.746760
v 0.227334 0.815766 0.588000
v 0.560000 0.815766 0.836666
v 0.560000 0.874006 0.869215
v 0.560000 0.945994 0.869215
v 0.560000 1.004234 0.836666
v 0.194785 0.874006 0.588000
v 0.499744 0.874006 0.723744
v 0.499744 0.945994 0.723744
v 0.522760 1.004234 0.746760
v 0.194785 0.945994 0.588000
v 0.560000 0.815766 0.731334
v 0.227334 1.004234 0.588000
v 0.560000 0.874006 0.698785
v 0.560000 0.945994 0.698785
v 0.560000 1.004234 0.731334
v 0.280000 1.026480 0.588000
v 0.597240 0.815766 0.746760
v 0.280000 0.793520 0.784000
v 0.620256 0.874006 0.723744
v 0.620256 0.945994 0.723744
v 0.597240 1.004234 0.746760
v 0.242760 1.004234 0.625240
v 0.612665 0.815766 0.784000
v 0.219744 0.945994 0.648256
v 0.645215 0.874006 0.784000
v 0.645215 0.945994 0.784000
v 0.612665 1.004234 0.784000
v 0.219744 0.874006 0.648256
v 0.597240 0.815766 0.821240
v 0.242760 0.815766 0.625240
v 0.620256 0.874006 0.844256
v 0.620256 0.945994 0.844256
v 0.597240 1.004234 0.821240
v -0.126000 0.826000 1.666000
v 0.227334 0.815766 0.784000
v 0.280000 0.815766 0.640665
v 0.280000 0.874006 0.673215
v 0.280000 0.945994 0.673215
v 0.280000 1.004234 0.640665
v 0.194785 0.874006 0.784000
v 0.219744 0.874006 0.527744
v 0.219744 0.945994 0.527744
v 0.242760 1.004234 0.550760
v 0.194785 0.945994 0.784000
v 0.280000 0.815766 0.535334
v 0.227334 1.004234 0.784000
v 0.280000 0.874006 0.502785
v 0.280000 0.945994 0.502785
v 0.280000 1.004234 0.535334
v 0.280000 1.026480 0.784000
v 0.317240 0.815766 0.550760
v -0.126000 0.756000 1.666000
v 0.340256 0.874006 0.527744
v 0.340256 0.945994 0.527744
v 0.317240 1.004234 0.550760
v 0.242760 1.004234 0.821240
v 0.332666 0.815766 0.588000
v 0.219744 0.945994 0.844256
v 0.365215 0.874006 0.588000
v 0.365215 0.945994 0.588000
v 0.332666 1.004234 0.588000
v 0.219744 0.874006 0.844256
v 0.317240 0.815766 0.625240
v 0.242760 0.815766 0.821240
v 0.340256 0.874006 0.648256
v 0.340256 0.945994 0.648256
v 0.317240 1.004234 0.625240
v -0.126000 0.826000 1.610000
v -0.126000 0.756000 1.610000
v 0.280000 0.815766 0.836665
v 0.280000 0.874006 0.869215
v 0.280000 0.945994 0.869215
v 0.280000 1.004234 0.836665
v -0.714000 0.826000 1.218000
v 0.219744 0.874006 0.723744
v 0.219744 0.945994 0.723744
v 0.242760 1.004234 0.746760
v -0.714000 0.756000 1.218000
v 0.280000 0.815766 0.731334
v -0.714000 0.826000 1.162000
v 0.280000 0.874006 0.698785
v 0.280000 0.945994 0.698785
v 0.280000 1.004234 0.731334
v -0.714000 0.756000 1.162000
v 0.317240 0.815766 0.746760
v -0.126000 0.826000 1.218000
v 0.340256 0.874006 0.723744
v 0.340256 0.945994 0.723744
v 0.317240 1.004234 0.746760
v -0.126000 0.756000 1.218000
v 0.332666 0.815766 0.784000
v -0.126000 0.826000 1.162000
v 0.365215 0.874006 0.784000
v 0.365215 0.945994 0.784000
v 0.332666 1.004234 0.784000
v -0.126000 0.756000 1.162000
v 0.317240 0.815766 0.821240
v -0.700000 0.868000 1.638000
v 0.340256 0.874006 0.844256
v 0.340256 0.945994 0.844256
v 0.317240 1.004234 0.821240
v -0.700000 0.588000 1.638000
v -0.700000 0.868000 1.190000
v -0.700000 0.588000 1.190000
v -0.140000 0.868000 1.638000
v -0.140000 0.588000 1.638000
v -0.140000 0.868000 1.190000
v -0.140000 0.588000 1.190000
v -0.714000 0.756000 1.610000
v -0.714000 0.826000 1.610000
v -0.714000 0.756000 1.666000
v -0.714000 0.826000 1.666000
v -0.280000 1.026480 1.316000
v -0.280000 1.004234 1.368665
v -0.280000 0.945994 1.401215
v -0.280000 0.874006 1.401215
v -0.280000 0.815766 1.368665
v -0.280000 0.793520 1.316000
v -0.317240 0.815766 1.474760
v -0.317240 1.004234 1.353240
v -0.340256 0.945994 1.376256
v -0.340256 0.874006 1.376256
v -0.317240 0.815766 1.353240
v -0.280000 0.793520 1.512000
v -0.597240 0.815766 1.278760
v -0.332666 1.004234 1.316000
v -0.365215 0.945994 1.316000
v -0.365215 0.874006 1.316000
v -0.332666 0.815766 1.316000
v -0.332666 0.815766 1.512000
v -0.365215 0.874006 1.512000
v -0.317240 1.004234 1.278760
v -0.340256 0.945994 1.255744
v -0.340256 0.874006 1.255744
v -0.317240 0.815766 1.278760
v -0.365215 0.945994 1.512000
v -0.332666 1.004234 1.512000
v -0.280000 1.004234 1.263334
v -0.280000 0.945994 1.230785
v -0.280000 0.874006 1.230785
v -0.280000 0.815766 1.263334
v -0.280000 1.026480 1.512000
v -0.560000 0.793520 1.316000
v -0.242760 1.004234 1.278760
v -0.219744 0.945994 1.255744
v -0.219744 0.874006 1.255744
v -0.242760 0.815766 1.278760
v -0.317240 1.004234 1.549240
v -0.340256 0.945994 1.572256
v -0.227335 1.004234 1.316000
v -0.194785 0.945994 1.316000
v -0.194785 0.874006 1.316000
v -0.227335 0.815766 1.316000
v -0.340256 0.874006 1.572256
v -0.317240 0.815766 1.549240
v -0.242760 1.004234 1.353240
v -0.219744 0.945994 1.376256
v -0.219744 0.874006 1.376256
v -0.242760 0.815766 1.353240
v -0.597240 0.815766 1.474760
v -0.612666 0.815766 1.316000
v -0.280000 0.815766 1.564665
v -0.280000 0.874006 1.597215
v -0.280000 0.945994 1.597215
v -0.280000 1.004234 1.564665
v -0.645215 0.874006 1.316000
v -0.340256 0.874006 1.451744
v -0.340256 0.945994 1.451744
v -0.317240 1.004234 1.474760
v -0.645215 0.945994 1.316000
v -0.280000 0.815766 1.459334
v -0.612666 1.004234 1.316000
v -0.280000 0.874006 1.426785
v -0.280000 0.945994 1.426785
v -0.280000 1.004234 1.459334
v -0.560000 1.026480 1.316000
v -0.242760 0.815766 1.474760
v -0.560000 0.793520 1.512000
v -0.219744 0.874006 1.451744
v -0.219744 0.945994 1.451744
v -0.242760 1.004234 1.474760
v -0.597240 1.004234 1.353240
v -0.227335 0.815766 1.512000
v -0.620256 0.945994 1.376256
v -0.194785 0.874006 1.512000
v -0.194785 0.945994 1.512000
v -0.227335 1.004234 1.512000
v -0.620256 0.874006 1.376256
v -0.242760 0.815766 1.549240
v -0.597240 0.815766 1.353240
v -0.219744 0.874006 1.572256
v -0.219744 0.945994 1.572256
v -0.242760 1.004234 1.549240
v -0.612666 0.815766 1.512000
v -0.560000 0.815766 1.368665
v -0.560000 0.874006 1.401215
v -0.560000 0.945994 1.401215
v -0.560000 1.004234 1.368665
v -0.645215 0.874006 1.512000
v -0.620256 0.874006 1.255744
v -0.620256 0.945994 1.255744
v -0.597240 1.004234 1.278760
v -0.645215 0.945994 1.512000
v -0.560000 0.815766 1.263334
v -0.612666 1.004234 1.512000
v -0.560000 0.874006 1.230785
v -0.560000 0.945994 1.230785
v -0.560000 1.004234 1.263334
v -0.560000 1.026480 1.512000
v -0.522760 0.815766 1.278760
v -0.499744 0.874006 1.255744
v -0.499744 0.945994 1.255744
v -0.522760 1.004234 1.278760
v -0.597240 1.004234 1.549240
v -0.507335 0.815766 1.316000
v -0.620256 0.945994 1.572256
v -0.474785 0.874006 1.316000
v -0.474785 0.945994 1.316000
v -0.507335 1.004234 1.316000
v -0.620256 0.874006 1.572256
v -0.522760 0.815766 1.353240
v -0.597240 0.815766 1.549240
v -0.499744 0.874006 1.376256
v -0.499744 0.945994 1.376256
v -0.522760 1.004234 1.353240
v -0.560000 0.815766 1.564665
v -0.560000 0.874006 1.597215
v -0.560000 0.945994 1.597215
v -0.560000 1.004234 1.564665
v -0.620256 0.874006 1.451744
v -0.620256 0.945994 1.451744
v -0.597240 1.004234 1.474760
v -0.560000 0.815766 1.459334
v -0.560000 0.874006 1.426785
v -0.560000 0.945994 1.426785
v -0.560000 1.004234 1.459334
v -0.522760 0.815766 1.474760
v -0.499744 0.874006 1.451744
v -0.499744 0.945994 1.451744
v -0.522760 1.004234 1.474760
v -0.507335 0.815766 1.512000
v -0.474785 0.874006 1.512000
v -0.474785 0.945994 1.512000
v -0.507335 1.004234 1.512000
v -0.522760 0.815766 1.549240
v -0.499744 0.874006 1.572256
v -0.499744 0.945994 1.572256
v -0.522760 1.004234 1.549240
vn -1.0000 -0.0000 -0.0000
vn -0.0000 -0.2588 0.9659
vn -0.0000 -0.7071 0.7071
vn -0.0000 1.0000 -0.0000
vn -0.0000 -0.9239 -0.3827
vn -0.0000 -0.9659 0.2588
vn -0.0000 -0.3827 -0.9239
vn -0.0000 -0.9659 -0.2588
vn -0.0000 0.9239 -0.3827
vn -0.0000 0.5000 -0.8660
vn -0.0000 -0.7071 -0.7071
vn -0.0000 0.9239 0.3827
vn -0.0000 -0.9239 0.3827
vn -0.0000 -0.2588 -0.9659
vn -0.0000 -0.5000 -0.8660
vn -0.0000 -1.0000 -0.0000
vn -0.0000 0.2588 -0.9659
vn -0.0000 0.3827 -0.9239
vn -0.0000 0.7071 -0.7071
vn -0.0000 -0.5000 0.8660
vn -0.0000 -0.3827 0.9239
vn -0.0000 0.9659 -0.2588
vn -0.0000 0.9659 0.2588
vn -0.0000 0.7071 0.7071
vn -0.0000 0.2588 0.9659
vn 1.0000 -0.0000 -0.0000
vn -0.0000 0.3827 0.9239
vn -0.0000 0.5000 0.8660
vn -0.0000 -0.0000 -1.0000
vn -0.0000 -0.0000 1.0000
vn -0.0000 -0.2079 0.9781
vn -0.0000 0.2079 -0.9781
vn -0.0000 -0.9781 -0.2079
vn -0.0000 0.9781 0.2079
vn -0.3400 -0.4588 0.8209
vn -0.3400 0.4588 0.8209
vn -0.1591 -0.9095 0.3842
vn -0.3827 -0.0000 0.9239
vn -0.1591 0.9095 0.3842
vn -0.3841 -0.9095 0.1591
vn -0.9239 -0.0000 0.3827
vn -0.3841 0.9095 0.1591
vn -0.8209 -0.4588 0.3400
vn -0.8209 0.4588 0.3400
vn -0.3841 -0.9095 -0.1591
vn -0.9239 -0.0000 -0.3827
vn -0.3841 0.9095 -0.1591
vn -0.8209 -0.4588 -0.3400
vn -0.8209 0.4588 -0.3400
vn -0.1591 -0.9095 -0.3841
vn -0.3827 -0.0000 -0.9239
vn -0.1591 0.9095 -0.3841
vn -0.3400 -0.4588 -0.8209
vn -0.3400 0.4588 -0.8209
vn 0.1591 -0.9095 -0.3841
vn 0.3827 -0.0000 -0.9239
vn 0.1591 0.9095 -0.3841
vn 0.3400 -0.4588 -0.8209
vn 0.3400 0.4588 -0.8209
vn 0.3841 -0.9095 -0.1591
vn 0.9239 -0.0000 -0.3827
vn 0.3841 0.9095 -0.1591
vn 0.8209 -0.4588 -0.3400
vn 0.8209 0.4588 -0.3400
vn 0.3841 -0.9095 0.1591
vn 0.9239 -0.0000 0.3827
vn 0.3841 0.9095 0.1591
vn 0.8209 -0.4588 0.3400
vn 0.8209 0.4588 0.3400
vn 0.1591 -0.9095 0.3841
vn 0.3827 -0.0000 0.9239
vn 0.1591 0.9095 0.3841
vn 0.3400 -0.4588 0.8209
vn 0.3400 0.4588 0.8209
vn -0.1591 0.9095 0.3841
vn -0.1591 -0.9095 0.3841
vn -0.1591 -0.9095 -0.3842
vn -0.1591 0.9095 -0.3842
vn 0.1591 0.9095 -0.3842
vn 0.1591 -0.9095 -0.3842
vn -0.3842 0.9095 0.1591
vn 0.3842 -0.9095 0.1591
vn 0.3842 0.9095 0.1591
vn 0.1591 -0.9095 0.3842
vn 0.1591 0.9095 0.3842
s 0
usemtl EF_Tyre
f 3//2 4//2 6//2 5//2
f 55//2 56//2 58//2 57//2
f 5//3 6//3 8//3 7//3
f 7//6 8//6 10//6 9//6
f 9//8 10//8 12//8 11//8
f 11//11 12//11 14//11 13//11
f 13//14 14//14 16//14 15//14
f 15//17 16//17 18//17 17//17
f 17//19 18//19 20//19 19//19
f 19//22 20//22 22//22 21//22
f 21//23 22//23 24//23 23//23
f 6//1 4//1 26//1 24//1 22//1 20//1 18//1 16//1 14//1 12//1 10//1 8//1
f 23//24 24//24 26//24 25//24
f 25//25 26//25 4//25 3//25
f 3//26 5//26 7//26 9//26 11//26 13//26 15//26 17//26 19//26 21//26 23//26 25//26
f 59//6 60//6 62//6 61//6
f 57//3 58//3 60//3 59//3
f 61//8 62//8 64//8 63//8
f 63//11 64//11 66//11 65//11
f 65//14 66//14 68//14 67//14
f 67//17 68//17 70//17 69//17
f 69//19 70//19 72//19 71//19
f 71//22 72//22 74//22 73//22
f 73//23 74//23 76//23 75//23
f 61//26 63//26 65//26 67//26 69//26 71//26 73//26 75//26 77//26 55//26 57//26 59//26
f 75//24 76//24 78//24 77//24
f 107//2 108//2 110//2 109//2
f 77//25 78//25 56//25 55//25
f 64//1 62//1 60//1 58//1 56//1 78//1 76//1 74//1 72//1 70//1 68//1 66//1
f 111//6 112//6 114//6 113//6
f 109//3 110//3 112//3 111//3
f 113//8 114//8 116//8 115//8
f 115//11 116//11 118//11 117//11
f 117//14 118//14 120//14 119//14
f 119//17 120//17 122//17 121//17
f 159//2 160//2 162//2 161//2
f 121//19 122//19 124//19 123//19
f 123//22 124//22 126//22 125//22
f 125//23 126//23 128//23 127//23
f 116//1 114//1 112//1 110//1 108//1 130//1 128//1 126//1 124//1 122//1 120//1 118//1
f 127//24 128//24 130//24 129//24
f 129//25 130//25 108//25 107//25
f 109//26 111//26 113//26 115//26 117//26 119//26 121//26 123//26 125//26 127//26 129//26 107//26
f 163//6 164//6 166//6 165//6
f 161//3 162//3 164//3 163//3
f 165//8 166//8 168//8 167//8
f 167//11 168//11 170//11 169//11
f 169//14 170//14 172//14 171//14
f 171//17 172//17 174//17 173//17
f 173//19 174//19 176//19 175//19
f 175//22 176//22 178//22 177//22
f 177//23 178//23 180//23 179//23
f 168//1 166//1 164//1 162//1 160//1 182//1 180//1 178//1 176//1 174//1 172//1 170//1
f 179//24 180//24 182//24 181//24
f 181//25 182//25 160//25 159//25
f 165//26 167//26 169//26 171//26 173//26 175//26 177//26 179//26 181//26 159//26 161//26 163//26
usemtl EF_Metal
f 86//1 84//1 82//1 80//1 94//1 92//1 90//1 88//1
f 31//5 32//5 34//5 33//5
f 36//1 34//1 32//1 30//1 28//1 42//1 40//1 38//1
f 85//7 86//7 88//7 87//7
f 37//9 38//9 40//9 39//9
f 91//12 92//12 94//12 93//12
f 29//13 30//13 32//13 31//13
f 35//18 36//18 38//18 37//18
f 27//21 28//21 30//21 29//21
f 83//5 84//5 86//5 85//5
f 190//1 188//1 186//1 184//1 198//1 196//1 194//1 192//1
f 39//12 40//12 42//12 41//12
f 33//7 34//7 36//7 35//7
f 41//27 42//27 28//27 27//27
f 41//26 27//26 29//26 31//26 33//26 35//26 37//26 39//26
f 89//9 90//9 92//9 91//9
f 81//13 82//13 84//13 83//13
f 87//18 88//18 90//18 89//18
f 79//21 80//21 82//21 81//21
f 135//5 136//5 138//5 137//5
f 143//26 145//26 131//26 133//26 135//26 137//26 139//26 141//26
f 93//27 94//27 80//27 79//27
f 91//26 93//26 79//26 81//26 83//26 85//26 87//26 89//26
f 141//9 142//9 144//9 143//9
f 133//13 134//13 136//13 135//13
f 139//18 140//18 142//18 141//18
f 131//21 132//21 134//21 133//21
f 187//5 188//5 190//5 189//5
f 143//12 144//12 146//12 145//12
f 137//7 138//7 140//7 139//7
f 145//27 146//27 132//27 131//27
f 132//1 146//1 144//1 142//1 140//1 138//1 136//1 134//1
f 193//9 194//9 196//9 195//9
f 185//13 186//13 188//13 187//13
f 191//18 192//18 194//18 193//18
f 183//21 184//21 186//21 185//21
f 195//12 196//12 198//12 197//12
f 189//7 190//7 192//7 191//7
f 197//27 198//27 184//27 183//27
f 195//26 197//26 183//26 185//26 187//26 189//26 191//26 193//26
f 246//26 247//26 249//26 248//26
f 248//30 249//30 253//30 252//30
f 252//1 253//1 251//1 250//1
f 250//29 251//29 247//29 246//29
f 248//16 252//16 250//16 246//16
f 253//4 249//4 247//4 251//4
f 341//26 342//26 344//26 343//26
f 343//30 344//30 348//30 347//30
f 347//1 348//1 346//1 345//1
f 345//29 346//29 342//29 341//29
f 343//16 347//16 345//16 341//16
f 348//4 344//4 342//4 346//4
usemtl EF_GreyDark
f 50//1 48//1 46//1 44//1 54//1 52//1
f 100//1 98//1 96//1 106//1 104//1 102//1
f 155//4 156//4 158//4 157//4
f 49//10 50//10 52//10 51//10
f 47//15 48//15 50//15 49//15
f 45//16 46//16 48//16 47//16
f 51//4 52//4 54//4 53//4
f 43//20 44//20 46//20 45//20
f 153//10 154//10 156//10 155//10
f 53//28 54//28 44//28 43//28
f 51//26 53//26 43//26 45//26 47//26 49//26
f 101//10 102//10 104//10 103//10
f 97//16 98//16 100//16 99//16
f 99//15 100//15 102//15 101//15
f 103//4 104//4 106//4 105//4
f 95//20 96//20 98//20 97//20
f 149//16 150//16 152//16 151//16
f 216//4 212//4 1//4 214//4
f 105//28 106//28 96//28 95//28
f 103//26 105//26 95//26 97//26 99//26 101//26
f 151//15 152//15 154//15 153//15
f 156//1 154//1 152//1 150//1 148//1 158//1
f 211//16 215//16 213//16 2//16
f 147//20 148//20 150//20 149//20
f 2//26 1//26 212//26 211//26
f 157//28 158//28 148//28 147//28
f 147//26 149//26 151//26 153//26 155//26 157//26
f 205//10 206//10 208//10 207//10
f 203//15 204//15 206//15 205//15
f 201//16 202//16 204//16 203//16
f 207//4 208//4 210//4 209//4
f 199//20 200//20 202//20 201//20
f 211//30 212//30 216//30 215//30
f 215//1 216//1 214//1 213//1
f 201//26 203//26 205//26 207//26 209//26 199//26
f 213//29 214//29 1//29 2//29
f 209//28 210//28 200//28 199//28
f 204//1 202//1 200//1 210//1 208//1 206//1
f 222//26 223//26 225//26 224//26
f 224//30 225//30 229//30 228//30
f 228//1 229//1 227//1 226//1
f 226//29 227//29 223//29 222//29
f 224//16 228//16 226//16 222//16
f 229//4 225//4 223//4 227//4
usemtl EF_Roof
f 221//1 258//1 220//1 219//1
f 254//29 221//29 258//29 255//29
f 217//26 218//26 255//26 254//26
f 219//29 220//29 218//29 217//29
f 254//16 221//16 219//16 217//16
f 258//4 255//4 218//4 220//4
f 254//26 255//26 257//26 256//26
f 256//30 257//30 260//30 259//30
f 259//1 260//1 258//1 221//1
f 256//16 259//16 221//16 254//16
f 260//4 257//4 255//4 258//4
f 261//26 262//26 264//26 263//26
f 263//30 264//30 268//30 267//30
f 267//1 268//1 266//1 265//1
f 265//29 266//29 262//29 261//29
f 263//16 267//16 265//16 261//16
f 268//4 264//4 262//4 266//4
f 308//26 309//26 310//26 303//26
f 303//30 310//30 314//30 313//30
f 313//1 314//1 312//1 311//1
f 311//29 312//29 309//29 308//29
f 303//16 313//16 311//16 308//16
f 314//4 310//4 309//4 312//4
f 323//26 324//26 326//26 325//26
f 325//30 326//30 328//30 307//30
f 307//1 328//1 327//1 305//1
f 305//29 327//29 324//29 323//29
f 325//16 307//16 305//16 323//16
f 328//4 326//4 324//4 327//4
f 337//26 338//26 310//26 303//26
f 303//30 310//30 328//30 307//30
f 307//1 328//1 340//1 339//1
f 339//29 340//29 338//29 337//29
f 303//16 307//16 339//16 337//16
f 328//4 310//4 338//4 340//4
usemtl EF_Light
f 230//26 231//26 233//26 232//26
f 232//30 233//30 237//30 236//30
f 236//1 237//1 235//1 234//1
f 234//29 235//29 231//29 230//29
f 232//16 236//16 234//16 230//16
f 237//4 233//4 231//4 235//4
f 238//26 239//26 241//26 240//26
f 240//30 241//30 245//30 244//30
f 244//1 245//1 243//1 242//1
f 242//29 243//29 239//29 238//29
f 240//16 244//16 242//16 238//16
f 245//4 241//4 239//4 243//4
usemtl EF_Glass
f 269//26 270//26 272//26 271//26
f 271//31 272//31 276//31 275//31
f 275//1 276//1 274//1 273//1
f 273//32 274//32 270//32 269//32
f 271//33 275//33 273//33 269//33
f 276//34 272//34 270//34 274//34
f 277//26 278//26 280//26 279//26
f 279//30 280//30 284//30 283//30
f 283//1 284//1 282//1 281//1
f 281//29 282//29 278//29 277//29
f 279//16 283//16 281//16 277//16
f 284//4 280//4 278//4 282//4
f 285//26 286//26 288//26 287//26
f 287//30 288//30 292//30 291//30
f 291//1 292//1 290//1 289//1
f 289//29 290//29 286//29 285//29
f 287//16 291//16 289//16 285//16
f 292//4 288//4 286//4 290//4
usemtl EF_White
f 293//26 294//26 296//26 295//26
f 295//30 296//30 300//30 299//30
f 299//1 300//1 298//1 297//1
f 297//29 298//29 294//29 293//29
f 295//16 299//16 297//16 293//16
f 300//4 296//4 294//4 298//4
f 315//26 316//26 318//26 317//26
f 317//30 318//30 322//30 321//30
f 321//1 322//1 320//1 319//1
f 319//29 320//29 316//29 315//29
f 317//16 321//16 319//16 315//16
f 322//4 318//4 316//4 320//4
f 329//26 330//26 332//26 331//26
f 331//30 332//30 336//30 335//30
f 335//1 336//1 334//1 333//1
f 333//29 334//29 330//29 329//29
f 331//16 335//16 333//16 329//16
f 336//4 332//4 330//4 334//4
f 425//35 424//35 430//35 431//35
f 423//36 422//36 428//36 429//36
f 426//37 425//37 431//37
f 424//38 423//38 429//38 430//38
f 422//39 421//39 428//39
f 426//40 431//40 437//40
f 430//41 429//41 435//41 436//41
f 428//42 421//42 434//42
f 431//43 430//43 436//43 437//43
f 429//44 428//44 434//44 435//44
f 426//45 437//45 443//45
f 436//46 435//46 441//46 442//46
f 434//47 421//47 440//47
f 437//48 436//48 442//48 443//48
f 435//49 434//49 440//49 441//49
f 426//50 443//50 449//50
f 442//51 441//51 447//51 448//51
f 440//52 421//52 446//52
f 443//53 442//53 448//53 449//53
f 441//54 440//54 446//54 447//54
f 426//55 449//55 455//55
f 448//56 447//56 453//56 454//56
f 446//57 421//57 452//57
f 449//58 448//58 454//58 455//58
f 447//59 446//59 452//59 453//59
f 426//60 455//60 461//60
f 454//61 453//61 459//61 460//61
f 452//62 421//62 458//62
f 455//63 454//63 460//63 461//63
f 453//64 452//64 458//64 459//64
f 426//65 461//65 467//65
f 460//66 459//66 465//66 466//66
f 458//67 421//67 464//67
f 461//68 460//68 466//68 467//68
f 459//69 458//69 464//69 465//69
f 426//70 467//70 425//70
f 466//71 465//71 423//71 424//71
f 464//72 421//72 422//72
f 467//73 466//73 424//73 425//73
f 465//74 464//74 422//74 423//74
f 472//36 473//36 456//36 457//36
f 470//35 471//35 462//35 463//35
f 473//75 450//75 456//75
f 471//38 472//38 457//38 462//38
f 432//76 470//76 463//76
f 463//43 462//43 439//43 438//43
f 457//44 456//44 445//44 444//44
f 432//40 463//40 438//40
f 462//41 457//41 444//41 439//41
f 456//42 450//42 445//42
f 444//49 445//49 477//49 476//49
f 439//46 444//46 476//46 475//46
f 445//47 450//47 477//47
f 432//45 438//45 427//45
f 438//48 439//48 475//48 427//48
f 475//51 476//51 482//51 481//51
f 476//54 477//54 483//54 482//54
f 427//53 475//53 481//53 479//53
f 432//77 427//77 479//77
f 477//78 450//78 483//78
f 483//57 450//57 489//57
f 479//58 481//58 487//58 485//58
f 482//59 483//59 489//59 488//59
f 432//55 479//55 485//55
f 481//56 482//56 488//56 487//56
f 485//63 487//63 493//63 491//63
f 488//64 489//64 495//64 494//64
f 432//60 485//60 491//60
f 487//61 488//61 494//61 493//61
f 489//62 450//62 495//62
f 491//68 493//68 499//68 497//68
f 494//69 495//69 501//69 500//69
f 432//65 491//65 497//65
f 493//66 494//66 500//66 499//66
f 495//67 450//67 501//67
f 497//73 499//73 471//73 470//73
f 500//74 501//74 473//74 472//74
f 432//70 497//70 470//70
f 499//71 500//71 472//71 471//71
f 501//72 450//72 473//72
f 506//36 507//36 490//36 492//36
f 504//35 505//35 496//35 498//35
f 507//75 484//75 490//75
f 505//38 506//38 492//38 496//38
f 451//76 504//76 498//76
f 451//40 498//40 469//40
f 496//41 492//41 478//41 474//41
f 490//42 484//42 480//42
f 498//43 496//43 474//43 469//43
f 492//44 490//44 480//44 478//44
f 480//47 484//47 511//47
f 469//48 474//48 509//48 433//48
f 451//45 469//45 433//45
f 478//49 480//49 511//49 510//49
f 474//46 478//46 510//46 509//46
f 510//54 511//54 517//54 516//54
f 433//53 509//53 515//53 513//53
f 509//51 510//51 516//51 515//51
f 511//52 484//52 517//52
f 451//50 433//50 513//50
f 513//58 515//58 521//58 519//58
f 516//59 517//59 523//59 522//59
f 517//79 484//79 523//79
f 451//80 513//80 519//80
f 515//56 516//56 522//56 521//56
f 519//63 521//63 527//63 525//63
f 522//64 523//64 529//64 528//64
f 451//60 519//60 525//60
f 521//61 522//61 528//61 527//61
f 523//62 484//62 529//62
f 525//68 527//68 533//68 531//68
f 528//69 529//69 535//69 534//69
f 451//65 525//65 531//65
f 527//66 528//66 534//66 533//66
f 529//67 484//67 535//67
f 531//73 533//73 505//73 504//73
f 534//74 535//74 507//74 506//74
f 451//70 531//70 504//70
f 533//71 534//71 506//71 505//71
f 535//72 484//72 507//72
f 541//75 518//75 524//75
f 539//38 540//38 526//38 530//38
f 486//76 538//76 532//76
f 540//36 541//36 524//36 526//36
f 538//35 539//35 530//35 532//35
f 530//41 526//41 512//41 508//41
f 524//42 518//42 514//42
f 532//43 530//43 508//43 503//43
f 526//44 524//44 514//44 512//44
f 486//40 532//40 503//40
f 503//48 508//48 543//48 468//48
f 512//49 514//49 545//49 544//49
f 508//46 512//46 544//46 543//46
f 514//47 518//47 545//47
f 486//45 503//45 468//45
f 468//53 543//53 549//53 547//53
f 543//51 544//51 550//51 549//51
f 545//52 518//52 551//52
f 486//50 468//50 547//50
f 544//54 545//54 551//54 550//54
f 486//55 547//55 553//55
f 551//57 518//57 557//57
f 549//56 550//56 556//56 555//56
f 547//58 549//58 555//58 553//58
f 550//59 551//59 557//59 556//59
f 486//60 553//60 559//60
f 555//61 556//61 562//61 561//61
f 557//62 518//62 563//62
f 553//63 555//63 561//63 559//63
f 556//64 557//64 563//64 562//64
f 486//65 559//65 565//65
f 561//66 562//66 568//66 567//66
f 563//67 518//67 569//67
f 559//68 561//68 567//68 565//68
f 562//69 563//69 569//69 568//69
f 486//70 565//70 538//70
f 567//71 568//71 540//71 539//71
f 569//72 518//72 541//72
f 565//73 567//73 539//73 538//73
f 568//74 569//74 541//74 540//74
f 586//76 585//76 591//76
f 582//75 581//75 588//75
f 584//38 583//38 589//38 590//38
f 585//35 584//35 590//35 591//35
f 583//36 582//36 588//36 589//36
f 586//40 591//40 597//40
f 588//81 581//81 594//81
f 590//41 589//41 595//41 596//41
f 591//43 590//43 596//43 597//43
f 589//44 588//44 594//44 595//44
f 586//45 597//45 603//45
f 594//47 581//47 600//47
f 596//46 595//46 601//46 602//46
f 597//48 596//48 602//48 603//48
f 595//49 594//49 600//49 601//49
f 586//50 603//50 609//50
f 600//52 581//52 606//52
f 602//51 601//51 607//51 608//51
f 603//53 602//53 608//53 609//53
f 601//54 600//54 606//54 607//54
f 586//80 609//80 615//80
f 606//57 581//57 612//57
f 608//56 607//56 613//56 614//56
f 609//58 608//58 614//58 615//58
f 607//59 606//59 612//59 613//59
f 586//60 615//60 621//60
f 612//62 581//62 618//62
f 614//61 613//61 619//61 620//61
f 615//63 614//63 620//63 621//63
f 613//64 612//64 618//64 619//64
f 586//82 621//82 627//82
f 618//83 581//83 624//83
f 620//66 619//66 625//66 626//66
f 621//68 620//68 626//68 627//68
f 619//69 618//69 624//69 625//69
f 586//70 627//70 585//70
f 624//72 581//72 582//72
f 626//71 625//71 583//71 584//71
f 627//73 626//73 584//73 585//73
f 625//74 624//74 582//74 583//74
f 633//75 610//75 616//75
f 631//38 632//38 617//38 622//38
f 592//76 630//76 623//76
f 632//36 633//36 616//36 617//36
f 630//35 631//35 622//35 623//35
f 623//43 622//43 599//43 598//43
f 617//44 616//44 605//44 604//44
f 592//40 623//40 598//40
f 622//41 617//41 604//41 599//41
f 616//42 610//42 605//42
f 598//48 599//48 635//48 587//48
f 604//49 605//49 637//49 636//49
f 599//46 604//46 636//46 635//46
f 605//47 610//47 637//47
f 592//45 598//45 587//45
f 592//50 587//50 639//50
f 637//52 610//52 643//52
f 635//51 636//51 642//51 641//51
f 636//54 637//54 643//54 642//54
f 587//53 635//53 641//53 639//53
f 592//55 639//55 645//55
f 641//56 642//56 648//56 647//56
f 643//57 610//57 649//57
f 639//58 641//58 647//58 645//58
f 642//59 643//59 649//59 648//59
f 592//60 645//60 651//60
f 647//61 648//61 654//61 653//61
f 649//62 610//62 655//62
f 645//63 647//63 653//63 651//63
f 648//64 649//64 655//64 654//64
f 592//65 651//65 657//65
f 653//66 654//66 660//66 659//66
f 655//67 610//67 661//67
f 651//68 653//68 659//68 657//68
f 654//69 655//69 661//69 660//69
f 592//84 657//84 630//84
f 659//71 660//71 632//71 631//71
f 661//85 610//85 633//85
f 657//73 659//73 631//73 630//73
f 660//74 661//74 633//74 632//74
f 665//36 666//36 650//36 652//36
f 663//35 664//35 656//35 658//35
f 666//75 644//75 650//75
f 664//38 665//38 652//38 656//38
f 611//76 663//76 658//76
f 658//43 656//43 634//43 629//43
f 652//44 650//44 640//44 638//44
f 611//40 658//40 629//40
f 656//41 652//41 638//41 634//41
f 650//42 644//42 640//42
f 638//49 640//49 670//49 669//49
f 634//46 638//46 669//46 668//46
f 640//47 644//47 670//47
f 611//45 629//45 593//45
f 629//48 634//48 668//48 593//48
f 669//54 670//54 676//54 675//54
f 611//50 593//50 672//50
f 670//52 644//52 676//52
f 593//53 668//53 674//53 672//53
f 668//51 669//51 675//51 674//51
f 672//58 674//58 679//58 678//58
f 676//57 644//57 681//57
f 675//59 676//59 681//59 680//59
f 611//55 672//55 678//55
f 674//56 675//56 680//56 679//56
f 678//63 679//63 685//63 683//63
f 680//64 681//64 687//64 686//64
f 611//60 678//60 683//60
f 679//61 680//61 686//61 685//61
f 681//62 644//62 687//62
f 683//68 685//68 691//68 689//68
f 686//69 687//69 693//69 692//69
f 611//65 683//65 689//65
f 685//66 686//66 692//66 691//66
f 687//67 644//67 693//67
f 689//73 691//73 664//73 663//73
f 692//74 693//74 666//74 665//74
f 611//70 689//70 663//70
f 691//71 692//71 665//71 664//71
f 693//72 644//72 666//72
f 696//36 697//36 682//36 684//36
f 694//35 695//35 688//35 690//35
f 697//75 677//75 682//75
f 695//38 696//38 684//38 688//38
f 646//76 694//76 690//76
f 646//40 690//40 662//40
f 688//41 684//41 671//41 667//41
f 682//42 677//42 673//42
f 690//43 688//43 667//43 662//43
f 684//44 682//44 673//44 671//44
f 673//47 677//47 700//47
f 662//48 667//48 698//48 628//48
f 646//45 662//45 628//45
f 671//49 673//49 700//49 699//49
f 667//46 671//46 699//46 698//46
f 699//54 700//54 704//54 703//54
f 628//53 698//53 702//53 701//53
f 698//51 699//51 703//51 702//51
f 700//52 677//52 704//52
f 646//50 628//50 701//50
f 701//58 702//58 706//58 705//58
f 703//59 704//59 708//59 707//59
f 704//57 677//57 708//57
f 646//55 701//55 705//55
f 702//56 703//56 707//56 706//56
f 705//63 706//63 710//63 709//63
f 707//64 708//64 712//64 711//64
f 646//60 705//60 709//60
f 706//61 707//61 711//61 710//61
f 708//62 677//62 712//62
f 709//68 710//68 714//68 713//68
f 711//69 712//69 716//69 715//69
f 646//65 709//65 713//65
f 710//66 711//66 715//66 714//66
f 712//67 677//67 716//67
f 713//73 714//73 695//73 694//73
f 715//74 716//74 697//74 696//74
f 646//84 713//84 694//84
f 714//71 715//71 696//71 695//71
f 716//85 677//85 697//85
usemtl EF_WoodDark
f 301//26 308//26 303//26 302//26
f 302//30 303//30 307//30 306//30
f 306//1 307//1 305//1 304//1
f 304//29 305//29 308//29 301//29
f 302//16 306//16 304//16 301//16
f 307//4 303//4 308//4 305//4
f 405//26 406//26 408//26 407//26
f 407//30 408//30 412//30 411//30
f 411//1 412//1 410//1 409//1
f 409//29 410//29 406//29 405//29
f 407//16 411//16 409//16 405//16
f 412//4 408//4 406//4 410//4
f 413//26 414//26 416//26 415//26
f 415//30 416//30 420//30 419//30
f 419//1 420//1 418//1 417//1
f 417//29 418//29 414//29 413//29
f 415//16 419//16 417//16 413//16
f 420//4 416//4 414//4 418//4
f 564//26 560//26 554//26 558//26
f 558//30 554//30 542//30 546//30
f 546//1 542//1 548//1 552//1
f 552//29 548//29 560//29 564//29
f 558//16 546//16 552//16 564//16
f 542//4 554//4 560//4 548//4
f 537//26 536//26 502//26 520//26
f 520//30 502//30 580//30 579//30
f 579//1 580//1 578//1 577//1
f 577//29 578//29 536//29 537//29
f 520//16 579//16 577//16 537//16
f 580//4 502//4 536//4 578//4
usemtl EF_Comb
f 349//26 350//26 352//26 351//26
f 351//30 352//30 356//30 355//30
f 355//1 356//1 354//1 353//1
f 353//29 354//29 350//29 349//29
f 351//16 355//16 353//16 349//16
f 356//4 352//4 350//4 354//4
f 357//26 358//26 360//26 359//26
f 359//30 360//30 364//30 363//30
f 363//1 364//1 362//1 361//1
f 361//29 362//29 358//29 357//29
f 359//16 363//16 361//16 357//16
f 364//4 360//4 358//4 362//4
usemtl EF_Black
f 365//26 366//26 368//26 367//26
f 367//30 368//30 372//30 371//30
f 371//1 372//1 370//1 369//1
f 369//29 370//29 366//29 365//29
f 367//16 371//16 369//16 365//16
f 372//4 368//4 366//4 370//4
f 373//26 374//26 376//26 375//26
f 375//30 376//30 380//30 379//30
f 379//1 380//1 378//1 377//1
f 377//29 378//29 374//29 373//29
f 375//16 379//16 377//16 373//16
f 380//4 376//4 374//4 378//4
f 381//26 382//26 384//26 383//26
f 383//30 384//30 388//30 387//30
f 387//1 388//1 386//1 385//1
f 385//29 386//29 382//29 381//29
f 383//16 387//16 385//16 381//16
f 388//4 384//4 382//4 386//4
f 389//26 390//26 392//26 391//26
f 391//30 392//30 396//30 395//30
f 395//1 396//1 394//1 393//1
f 393//29 394//29 390//29 389//29
f 391//16 395//16 393//16 389//16
f 396//4 392//4 390//4 394//4
usemtl EF_Wood
f 397//26 398//26 400//26 399//26
f 399//30 400//30 404//30 403//30
f 403//1 404//1 402//1 401//1
f 401//29 402//29 398//29 397//29
f 399//16 403//16 401//16 397//16
f 404//4 400//4 398//4 402//4
f 576//26 575//26 573//26 574//26
f 574//30 573//30 566//30 570//30
f 570//1 566//1 571//1 572//1
f 572//29 571//29 575//29 576//29
f 574//16 570//16 572//16 576//16
f 566//4 573//4 575//4 571//4
