# Blender 5.0.1
# www.blender.org
mtllib Fence.mtl
o Fence
v 1.127000 0.000000 -0.052500
v 1.127000 0.868000 -0.052500
v 1.127000 0.000000 0.101500
v 1.127000 0.868000 0.101500
v 0.973000 0.000000 -0.052500
v 0.973000 0.868000 -0.052500
v 0.973000 0.000000 0.101500
v 0.973000 0.868000 0.101500
v 1.050000 0.980000 -0.052500
v 1.050000 0.980000 0.101500
v -0.973000 0.000000 -0.052500
v -0.973000 0.868000 -0.052500
v -0.973000 0.000000 0.101500
v -0.973000 0.868000 0.101500
v -1.127000 0.000000 -0.052500
v -1.127000 0.868000 -0.052500
v -1.127000 0.000000 0.101500
v -1.127000 0.868000 0.101500
v -1.050000 0.980000 -0.052500
v -1.050000 0.980000 0.101500
v 1.120000 0.231000 -0.101500
v 1.120000 0.385000 -0.101500
v 1.120000 0.231000 -0.017500
v 1.120000 0.385000 -0.017500
v -1.120000 0.231000 -0.101500
v -1.120000 0.385000 -0.101500
v -1.120000 0.231000 -0.017500
v -1.120000 0.385000 -0.017500
v 1.120000 0.595000 -0.101500
v 1.120000 0.749000 -0.101500
v 1.120000 0.595000 -0.017500
v 1.120000 0.749000 -0.017500
v -1.120000 0.595000 -0.101500
v -1.120000 0.749000 -0.101500
v -1.120000 0.595000 -0.017500
v -1.120000 0.749000 -0.017500
v 0.056000 0.000000 -0.094500
v 0.056000 0.784000 -0.094500
v 0.056000 0.000000 -0.024500
v 0.056000 0.784000 -0.024500
v -0.056000 0.000000 -0.094500
v -0.056000 0.784000 -0.094500
v -0.056000 0.000000 -0.024500
v -0.056000 0.784000 -0.024500
vn 1.0000 -0.0000 -0.0000
vn -0.0000 -0.0000 1.0000
vn -1.0000 -0.0000 -0.0000
vn -0.0000 -0.0000 -1.0000
vn -0.0000 -1.0000 -0.0000
vn -0.8240 0.5665 -0.0000
vn 0.8240 0.5665 -0.0000
vn -0.0000 1.0000 -0.0000
s 0
usemtl EF_WoodDark
f 1//1 2//1 4//1 3//1
f 3//2 4//2 8//2 7//2
f 7//3 8//3 6//3 5//3
f 5//4 6//4 2//4 1//4
f 3//5 7//5 5//5 1//5
f 8//5 6//5 2//5 4//5
f 9//4 2//4 6//4
f 4//2 10//2 8//2
f 6//6 8//6 10//6 9//6
f 9//7 10//7 4//7 2//7
f 11//1 12//1 14//1 13//1
f 13//2 14//2 18//2 17//2
f 17//3 18//3 16//3 15//3
f 15//4 16//4 12//4 11//4
f 13//5 17//5 15//5 11//5
f 18//5 16//5 12//5 14//5
f 19//4 12//4 16//4
f 14//2 20//2 18//2
f 16//6 18//6 20//6 19//6
f 19//7 20//7 14//7 12//7
usemtl EF_White
f 21//1 22//1 24//1 23//1
f 23//2 24//2 28//2 27//2
f 27//3 28//3 26//3 25//3
f 25//4 26//4 22//4 21//4
f 23//5 27//5 25//5 21//5
f 28//8 24//8 22//8 26//8
f 29//1 30//1 32//1 31//1
f 31//2 32//2 36//2 35//2
f 35//3 36//3 34//3 33//3
f 33//4 34//4 30//4 29//4
f 31//5 35//5 33//5 29//5
f 36//8 32//8 30//8 34//8
f 37//1 38//1 40//1 39//1
f 39//2 40//2 44//2 43//2
f 43//3 44//3 42//3 41//3
f 41//4 42//4 38//4 37//4
f 39//5 43//5 41//5 37//5
f 44//8 40//8 38//8 42//8
