# Blender 5.0.1
# www.blender.org
mtllib Fox.mtl
o Fox
v 0.000000 0.276080 0.264126
v 0.000000 0.358400 0.060659
v -0.078400 0.000000 0.189459
v -0.078400 0.084000 0.189459
v -0.056576 0.000000 0.202059
v -0.056576 0.084000 0.202059
v -0.056576 0.000000 0.227259
v -0.056576 0.084000 0.227259
v -0.078400 0.000000 0.239859
v -0.078400 0.084000 0.239859
v -0.100224 0.000000 0.227259
v -0.100224 0.084000 0.227259
v -0.100224 0.000000 0.202059
v -0.100224 0.084000 0.202059
v -0.078400 0.078400 0.186659
v -0.078400 0.204400 0.172659
v -0.054151 0.078400 0.200659
v -0.042027 0.204400 0.193659
v -0.054151 0.078400 0.228659
v -0.042027 0.204400 0.235659
v -0.078400 0.078400 0.242659
v -0.078400 0.204400 0.256659
v -0.102649 0.078400 0.228659
v -0.114773 0.204400 0.235659
v -0.102649 0.078400 0.200659
v -0.114773 0.204400 0.193659
v -0.078400 0.000000 -0.118541
v -0.078400 0.084000 -0.118541
v -0.056576 0.000000 -0.105941
v -0.056576 0.084000 -0.105941
v -0.056576 0.000000 -0.080741
v -0.056576 0.084000 -0.080741
v -0.078400 0.000000 -0.068141
v -0.078400 0.084000 -0.068141
v -0.100224 0.000000 -0.080741
v -0.100224 0.084000 -0.080741
v -0.100224 0.000000 -0.105941
v -0.100224 0.084000 -0.105941
v -0.078400 0.078400 -0.121341
v -0.078400 0.204400 -0.135341
v -0.054151 0.078400 -0.107341
v -0.042027 0.204400 -0.114341
v -0.054151 0.078400 -0.079341
v -0.042027 0.204400 -0.072341
v -0.078400 0.078400 -0.065341
v -0.078400 0.204400 -0.051341
v -0.102649 0.078400 -0.079341
v -0.114773 0.204400 -0.072341
v -0.102649 0.078400 -0.107341
v -0.114773 0.204400 -0.114341
v 0.078400 0.000000 0.189459
v 0.078400 0.084000 0.189459
v 0.100224 0.000000 0.202059
v 0.100224 0.084000 0.202059
v 0.100224 0.000000 0.227259
v 0.100224 0.084000 0.227259
v 0.078400 0.000000 0.239859
v 0.078400 0.084000 0.239859
v 0.056576 0.000000 0.227259
v 0.056576 0.084000 0.227259
v 0.056576 0.000000 0.202059
v 0.056576 0.084000 0.202059
v 0.078400 0.078400 0.186659
v 0.078400 0.204400 0.172659
v 0.102649 0.078400 0.200659
v 0.114773 0.204400 0.193659
v 0.102649 0.078400 0.228659
v 0.114773 0.204400 0.235659
v 0.078400 0.078400 0.242659
v 0.078400 0.204400 0.256659
v 0.054151 0.078400 0.228659
v 0.042027 0.204400 0.235659
v 0.054151 0.078400 0.200659
v 0.042027 0.204400 0.193659
v 0.078400 0.000000 -0.118541
v 0.078400 0.084000 -0.118541
v 0.100224 0.000000 -0.105941
v 0.100224 0.084000 -0.105941
v 0.100224 0.000000 -0.080741
v 0.100224 0.084000 -0.080741
v 0.078400 0.000000 -0.068141
v 0.078400 0.084000 -0.068141
v 0.056576 0.000000 -0.080741
v 0.056576 0.084000 -0.080741
v 0.056576 0.000000 -0.105941
v 0.056576 0.084000 -0.105941
v 0.078400 0.078400 -0.121341
v 0.078400 0.204400 -0.135341
v 0.102649 0.078400 -0.107341
v 0.114773 0.204400 -0.114341
v 0.102649 0.078400 -0.079341
v 0.114773 0.204400 -0.072341
v 0.078400 0.078400 -0.065341
v 0.078400 0.204400 -0.051341
v 0.054151 0.078400 -0.079341
v 0.042027 0.204400 -0.072341
v 0.054151 0.078400 -0.107341
v 0.042027 0.204400 -0.114341
v 0.000000 0.328876 -0.092783
v 0.000000 0.303956 0.243219
v 0.000000 0.257600 -0.156341
v 0.000000 0.314160 0.214659
v 0.000000 0.292320 0.326659
v 0.026927 0.303956 0.234854
v 0.000000 0.156800 0.060659
v 0.024109 0.350727 -0.011258
v 0.046638 0.276080 0.249638
v 0.044548 0.328876 -0.072226
v 0.058204 0.296174 -0.112964
v 0.063000 0.257600 -0.127269
v 0.058204 0.219026 -0.112964
v 0.044548 0.186324 -0.072226
v 0.024109 0.164473 -0.011258
v 0.053853 0.238000 0.255049
v 0.041758 0.350727 0.019138
v 0.046638 0.199920 0.249638
v 0.077159 0.328876 -0.016062
v 0.100813 0.296174 -0.039582
v 0.109119 0.257600 -0.047841
v 0.100813 0.219026 -0.039582
v 0.077159 0.186324 -0.016062
v 0.041758 0.164473 0.019138
v 0.026927 0.172044 0.234854
v 0.048218 0.350727 0.060659
v 0.000000 0.161840 0.214659
v 0.089095 0.328876 0.060659
v 0.116409 0.296174 0.060659
v 0.126000 0.257600 0.060659
v 0.116409 0.219026 0.060659
v 0.089095 0.186324 0.060659
v 0.048218 0.164473 0.060659
v 0.047933 0.303799 0.311863
v 0.041758 0.350727 0.102180
v 0.038080 0.172044 0.214659
v 0.077159 0.328876 0.137380
v 0.100813 0.296174 0.160900
v 0.109119 0.257600 0.169159
v 0.100813 0.219026 0.160900
v 0.077159 0.186324 0.137380
v 0.041758 0.164473 0.102180
v 0.065956 0.199920 0.214659
v 0.024109 0.350727 0.132576
v 0.076160 0.238000 0.214659
v 0.044548 0.328876 0.193544
v 0.058204 0.296174 0.234281
v 0.063000 0.257600 0.248586
v 0.058204 0.219026 0.234281
v 0.044548 0.186324 0.193544
v 0.024109 0.164473 0.132576
v 0.065956 0.276080 0.214659
v 0.000000 0.350727 0.143701
v 0.038080 0.303956 0.214659
v -0.000000 0.328876 0.214101
v 0.000000 0.296174 0.261141
v 0.000000 0.257600 0.277659
v 0.000000 0.219026 0.261141
v -0.000000 0.186324 0.214101
v 0.000000 0.164473 0.143701
v 0.083023 0.335160 0.301032
v -0.024109 0.350727 0.132576
v 0.095867 0.378000 0.297067
v -0.044548 0.328876 0.193544
v -0.058204 0.296174 0.234281
v -0.063000 0.257600 0.248586
v -0.058204 0.219026 0.234281
v -0.044548 0.186324 0.193544
v -0.024109 0.164473 0.132576
v 0.026927 0.303956 0.194464
v -0.041758 0.350727 0.102180
v 0.046638 0.276080 0.179680
v -0.077159 0.328876 0.137380
v -0.100813 0.296174 0.160900
v -0.109119 0.257600 0.169159
v -0.100813 0.219026 0.160900
v -0.077159 0.186324 0.137380
v -0.041758 0.164473 0.102180
v 0.053853 0.238000 0.174269
v -0.048218 0.350727 0.060659
v 0.046638 0.199920 0.179680
v -0.089095 0.328876 0.060659
v -0.116409 0.296174 0.060659
v -0.126000 0.257600 0.060659
v -0.116409 0.219026 0.060659
v -0.089095 0.186324 0.060659
v -0.048218 0.164473 0.060659
v 0.026927 0.172044 0.194464
v -0.041758 0.350727 0.019138
v 0.083023 0.420840 0.301032
v -0.077159 0.328876 -0.016062
v -0.100813 0.296174 -0.039582
v -0.109119 0.257600 -0.047841
v -0.100813 0.219026 -0.039582
v -0.077159 0.186324 -0.016062
v -0.041758 0.164473 0.019138
v 0.047933 0.452201 0.311863
v -0.024109 0.350727 -0.011258
v 0.000000 0.172044 0.186099
v -0.044548 0.328876 -0.072226
v -0.058204 0.296174 -0.112963
v -0.063000 0.257600 -0.127269
v -0.058204 0.219026 -0.112963
v -0.044548 0.186324 -0.072226
v -0.024109 0.164473 -0.011258
v 0.000000 0.463680 0.326659
v -0.000000 0.350727 -0.022383
v 0.000000 0.238000 0.157539
v 0.000000 0.380800 0.508659
v -0.000000 0.296174 -0.139823
v 0.000000 0.303956 0.186099
v -0.000000 0.219026 -0.139823
v 0.000000 0.186324 -0.092783
v -0.000000 0.164473 -0.022383
v 0.029624 0.452201 0.287923
v 0.000000 0.238000 0.271779
v 0.000000 0.199920 0.264126
v 0.000000 0.172044 0.243219
v 0.051311 0.420840 0.259567
v -0.046638 0.276080 0.249638
v -0.026927 0.303956 0.234854
v 0.059249 0.378000 0.249187
v -0.053853 0.238000 0.255049
v -0.046638 0.199920 0.249638
v -0.026927 0.172044 0.234854
v 0.051311 0.335160 0.259567
v -0.065956 0.276080 0.214659
v -0.038080 0.303956 0.214659
v 0.029624 0.303799 0.287923
v -0.076160 0.238000 0.214659
v -0.065956 0.199920 0.214659
v -0.038080 0.172044 0.214659
v 0.016974 0.361200 0.498859
v -0.046638 0.276080 0.179680
v -0.026927 0.303956 0.194464
v 0.012003 0.347341 0.501729
v -0.053853 0.238000 0.174269
v -0.046638 0.199920 0.179680
v -0.026927 0.172044 0.194464
v 0.000000 0.341600 0.508659
v 0.000000 0.276080 0.165192
v -0.061351 0.506005 0.323610
v 0.000000 0.347341 0.494800
v 0.000000 0.361200 0.489059
v 0.000000 0.199920 0.165192
v -0.011879 0.365104 0.508659
v -0.043558 0.390446 0.368659
v -0.016800 0.355600 0.508659
v 0.047933 0.303799 0.341455
v 0.083023 0.335160 0.352286
v 0.095867 0.378000 0.356250
v 0.083023 0.420840 0.352286
v 0.047933 0.452201 0.341455
v -0.061600 0.355600 0.368659
v -0.011879 0.346096 0.508659
v 0.029624 0.303799 0.365395
v 0.051311 0.335160 0.393751
v 0.059249 0.378000 0.404130
v 0.051311 0.420840 0.393751
v 0.029624 0.452201 0.365395
v -0.043558 0.320754 0.368659
v 0.000000 0.342160 0.508659
v 0.000000 0.303799 0.374539
v 0.000000 0.335160 0.409589
v 0.000000 0.378000 0.422419
v 0.000000 0.420840 0.409589
v 0.000000 0.452201 0.374539
v 0.000000 0.306320 0.368659
v 0.011879 0.346096 0.508659
v -0.029624 0.303799 0.365395
v -0.051311 0.335160 0.393751
v -0.059249 0.378000 0.404130
v -0.051311 0.420840 0.393751
v -0.029624 0.452201 0.365395
v 0.043558 0.320754 0.368659
v 0.016800 0.355600 0.508659
v -0.047933 0.303799 0.341455
v -0.083023 0.335160 0.352286
v -0.095866 0.378000 0.356250
v -0.083023 0.420840 0.352286
v -0.047933 0.452201 0.341455
v 0.061600 0.355600 0.368659
v 0.011879 0.365104 0.508659
v -0.047933 0.303799 0.311863
v -0.083023 0.335160 0.301032
v -0.095867 0.378000 0.297067
v -0.083023 0.420840 0.301032
v -0.047933 0.452201 0.311863
v 0.043558 0.390446 0.368659
v 0.000000 0.369040 0.508659
v -0.029624 0.303799 0.287923
v -0.051311 0.335160 0.259567
v -0.059249 0.378000 0.249187
v -0.051311 0.420840 0.259567
v -0.029624 0.452201 0.287923
v 0.000000 0.404880 0.368659
v -0.064205 0.430720 0.326464
v -0.000000 0.303799 0.278779
v -0.000000 0.335160 0.243728
v -0.000000 0.378000 0.230899
v -0.000000 0.420840 0.243728
v -0.000000 0.452201 0.278779
v -0.047600 0.416889 0.391369
v 0.012003 0.375059 0.501729
v -0.036789 0.434795 0.326767
v 0.016974 0.361200 0.518459
v 0.012002 0.347341 0.515589
v -0.047600 0.406000 0.386859
v 0.012002 0.375059 0.515589
v -0.064645 0.539115 0.315703
v -0.000000 0.361200 0.528259
v -0.000000 0.347341 0.522518
v -0.074468 0.415935 0.325527
v -0.000000 0.375059 0.522518
v -0.047600 0.390600 0.402259
v -0.016974 0.361200 0.518459
v -0.012003 0.347341 0.515589
v -0.019637 0.424085 0.326133
v -0.012003 0.375059 0.515589
v -0.064508 0.434795 0.299048
v -0.016974 0.361200 0.498859
v -0.012002 0.347341 0.501729
v -0.020243 0.432235 0.271301
v -0.012002 0.375059 0.501729
v -0.047600 0.395111 0.391369
v -0.075074 0.424085 0.270696
v -0.037092 0.438870 0.299351
v -0.047600 0.421400 0.402259
v 0.000000 0.375059 0.494800
v -0.038169 0.416889 0.396814
v -0.034263 0.406000 0.394559
v 0.061351 0.506005 0.312907
v -0.038169 0.395111 0.396814
v 0.037092 0.438870 0.337167
v -0.038169 0.416889 0.407704
v -0.034263 0.406000 0.409959
v 0.047600 0.416889 0.391369
v -0.038169 0.395111 0.407704
v 0.064508 0.434795 0.337470
v -0.047600 0.416889 0.413148
v -0.047600 0.406000 0.417659
v 0.047600 0.406000 0.386859
v -0.047600 0.395111 0.413148
v 0.064645 0.539115 0.298414
v -0.057031 0.416889 0.407704
v -0.060937 0.406000 0.409959
v 0.020243 0.432235 0.342816
v -0.057031 0.395111 0.407704
v 0.047600 0.390600 0.402259
v -0.057031 0.416889 0.396814
v -0.060937 0.406000 0.394559
v 0.075074 0.424085 0.343422
v -0.057031 0.395111 0.396814
v 0.036789 0.434795 0.309751
v 0.074468 0.415935 0.288591
v 0.047600 0.395111 0.391369
v 0.019637 0.424085 0.287985
v 0.064205 0.430720 0.310054
v 0.047600 0.421400 0.402259
v 0.057031 0.416889 0.396814
v 0.060937 0.406000 0.394559
v -0.067200 0.237552 -0.127307
v 0.057031 0.395111 0.396814
v -0.067317 0.387157 -0.404820
v 0.057031 0.416889 0.407704
v 0.060937 0.406000 0.409959
v -0.047518 0.283229 -0.114209
v 0.057031 0.395111 0.407704
v 0.000000 0.413960 -0.397135
v 0.047600 0.416889 0.413148
v 0.047600 0.406000 0.417659
v 0.000000 0.302149 -0.108784
v 0.047600 0.395111 0.413148
v 0.067317 0.387157 -0.404820
v 0.038169 0.416889 0.407704
v 0.034263 0.406000 0.409959
v 0.047518 0.283229 -0.114209
v 0.038169 0.395111 0.407704
v 0.095200 0.322448 -0.423375
v 0.038169 0.416889 0.396814
v 0.034263 0.406000 0.394559
v 0.067200 0.237552 -0.127307
v 0.038169 0.395111 0.396814
v 0.067317 0.257739 -0.441930
v 0.047518 0.191875 -0.140404
v 0.000000 0.230936 -0.449616
v 0.000000 0.172955 -0.145830
v -0.095200 0.322448 -0.423375
v -0.047518 0.191875 -0.140404
v -0.067317 0.257739 -0.441930
v 0.000000 0.229052 -0.443751
v 0.000000 0.340670 -0.528259
v 0.067317 0.255856 -0.436065
v 0.007920 0.343823 -0.527355
v 0.095200 0.320564 -0.417510
v 0.011200 0.351436 -0.525172
v 0.067317 0.385273 -0.398956
v 0.007920 0.359049 -0.522989
v 0.000000 0.412076 -0.391270
v 0.000000 0.362202 -0.522085
v -0.067317 0.385273 -0.398956
v -0.007920 0.359049 -0.522989
v -0.095200 0.320564 -0.417510
v -0.011200 0.351436 -0.525172
v -0.067317 0.255856 -0.436065
v -0.007920 0.343823 -0.527355
vn 0.0424 -0.9949 -0.0919
vn 0.4977 -0.0958 -0.8620
vn 0.5000 -0.0000 -0.8660
vn 0.5000 -0.0000 0.8660
vn 0.1154 0.9910 -0.0670
vn 1.0000 -0.0000 -0.0000
vn -0.5000 -0.0000 0.8660
vn -0.0000 1.0000 -0.0000
vn -1.0000 -0.0000 -0.0000
vn 0.4977 -0.0958 0.8620
vn 0.9954 -0.0958 -0.0000
vn -0.5000 -0.0000 -0.8660
vn -0.0000 -1.0000 -0.0000
vn -0.4977 -0.0958 0.8620
vn 0.2547 -0.7940 -0.5520
vn -0.9954 -0.0958 -0.0000
vn -0.4977 -0.0958 -0.8620
vn 0.6156 0.7023 -0.3574
vn 0.1355 -0.9462 -0.2937
vn 0.3905 0.3624 -0.8463
vn 0.2547 0.7940 -0.5520
vn 0.3905 -0.3624 -0.8463
vn 0.1355 0.9462 -0.2937
vn 0.0424 0.9949 -0.0919
vn 0.3565 0.9111 -0.2070
vn 0.8297 -0.2818 -0.4818
vn 0.6156 -0.7023 -0.3574
vn 0.8297 0.2818 -0.4818
vn 0.3565 -0.9111 -0.2070
vn 0.1154 -0.9910 -0.0670
vn 0.1571 0.9873 -0.0244
vn 0.4702 0.8795 -0.0731
vn 0.7621 -0.6365 -0.1186
vn 0.9596 -0.2386 -0.1493
vn 0.4702 -0.8795 -0.0731
vn 0.1571 -0.9873 -0.0244
vn 0.9596 0.2386 -0.1493
vn 0.7621 0.6365 -0.1186
vn 0.7621 -0.6365 0.1186
vn 0.9596 -0.2386 0.1493
vn 0.4702 -0.8795 0.0731
vn 0.1571 -0.9873 0.0244
vn 0.9596 0.2386 0.1493
vn 0.7621 0.6365 0.1186
vn 0.1571 0.9873 0.0244
vn 0.4702 0.8795 0.0731
vn 0.3565 -0.9111 0.2070
vn 0.1154 -0.9910 0.0670
vn 0.8297 0.2818 0.4818
vn 0.6156 0.7023 0.3574
vn 0.1154 0.9910 0.0670
vn 0.3565 0.9111 0.2070
vn 0.6156 -0.7023 0.3574
vn 0.8297 -0.2818 0.4818
vn 0.2547 0.7940 0.5520
vn 0.0424 0.9949 0.0919
vn 0.1355 0.9462 0.2937
vn 0.2547 -0.7940 0.5520
vn 0.3905 -0.3624 0.8463
vn 0.1355 -0.9462 0.2937
vn 0.0424 -0.9949 0.0919
vn 0.3905 0.3624 0.8463
vn -0.0424 0.9949 0.0919
vn -0.1355 0.9462 0.2937
vn -0.2547 -0.7940 0.5520
vn -0.3905 -0.3624 0.8463
vn -0.1355 -0.9462 0.2937
vn -0.0424 -0.9949 0.0919
vn -0.3905 0.3624 0.8463
vn -0.2547 0.7940 0.5520
vn -0.8297 -0.2818 0.4818
vn -0.3565 -0.9111 0.2070
vn -0.1154 -0.9910 0.0670
vn -0.8297 0.2818 0.4818
vn -0.6156 0.7023 0.3574
vn -0.1154 0.9910 0.0670
vn -0.3565 0.9111 0.2070
vn -0.6156 -0.7023 0.3574
vn -0.1571 -0.9873 0.0244
vn -0.9596 0.2386 0.1493
vn -0.7621 0.6365 0.1186
vn -0.1571 0.9873 0.0244
vn -0.4702 0.8795 0.0731
vn -0.7621 -0.6365 0.1186
vn -0.9596 -0.2386 0.1493
vn -0.4702 -0.8795 0.0731
vn -0.1571 0.9873 -0.0244
vn -0.4702 0.8795 -0.0731
vn -0.7621 -0.6365 -0.1186
vn -0.9596 -0.2386 -0.1493
vn -0.4702 -0.8795 -0.0731
vn -0.1571 -0.9873 -0.0244
vn -0.9596 0.2386 -0.1493
vn -0.7621 0.6365 -0.1186
vn -0.3565 0.9111 -0.2070
vn -0.6156 -0.7023 -0.3574
vn -0.8297 -0.2818 -0.4818
vn -0.3565 -0.9111 -0.2070
vn -0.1154 -0.9910 -0.0670
vn -0.8297 0.2818 -0.4818
vn -0.6156 0.7023 -0.3574
vn -0.1154 0.9910 -0.0670
vn -0.1355 -0.9462 -0.2937
vn -0.0424 -0.9949 -0.0919
vn -0.3905 0.3624 -0.8463
vn -0.2547 0.7940 -0.5520
vn -0.0424 0.9949 -0.0919
vn -0.1355 0.9462 -0.2937
vn -0.2547 -0.7940 -0.5520
vn -0.3905 -0.3624 -0.8463
vn 0.2914 -0.1885 -0.9379
vn 0.2412 -0.5823 -0.7764
vn 0.1040 0.9366 -0.3346
vn 0.2412 0.5823 -0.7764
vn 0.2914 0.1885 -0.9379
vn 0.1040 -0.9366 -0.3346
vn 0.6587 -0.6587 -0.3638
vn 0.8522 -0.2284 -0.4707
vn 0.6587 0.6587 -0.3638
vn 0.2562 0.9562 -0.1415
vn 0.2562 -0.9562 -0.1415
vn 0.8522 0.2284 -0.4707
vn 0.8522 -0.2284 0.4707
vn 0.2562 0.9562 0.1415
vn 0.6587 0.6587 0.3638
vn 0.6587 -0.6587 0.3638
vn 0.2562 -0.9562 0.1415
vn 0.8522 0.2284 0.4707
vn 0.1040 -0.9366 0.3346
vn 0.2914 0.1885 0.9379
vn 0.2412 0.5823 0.7764
vn 0.2914 -0.1885 0.9379
vn 0.2412 -0.5823 0.7764
vn 0.1040 0.9366 0.3346
vn -0.2914 -0.1885 0.9379
vn -0.1040 0.9366 0.3346
vn -0.2914 0.1885 0.9379
vn -0.2412 0.5823 0.7764
vn -0.2412 -0.5823 0.7764
vn -0.1040 -0.9366 0.3346
vn -0.6587 0.6587 0.3638
vn -0.6587 -0.6587 0.3638
vn -0.8522 -0.2284 0.4707
vn -0.2562 0.9562 0.1415
vn -0.2562 -0.9562 0.1415
vn -0.8522 0.2284 0.4707
vn -0.8522 0.2284 -0.4707
vn -0.2562 0.9562 -0.1415
vn -0.2562 -0.9562 -0.1415
vn -0.8522 -0.2284 -0.4707
vn -0.6587 0.6587 -0.3638
vn -0.6587 -0.6587 -0.3638
vn -0.1040 0.9366 -0.3346
vn -0.1040 -0.9366 -0.3346
vn -0.2914 -0.1885 -0.9379
vn -0.2412 0.5823 -0.7764
vn -0.2412 -0.5823 -0.7764
vn -0.2914 0.1885 -0.9379
vn 0.2016 0.7299 -0.6531
vn 0.2836 -0.2751 -0.9186
vn 0.0718 -0.9699 -0.2325
vn 0.2836 0.2751 -0.9186
vn 0.2016 -0.7299 -0.6531
vn 0.0718 0.9699 -0.2325
vn 0.5347 -0.7395 -0.4089
vn 0.7620 0.2824 -0.5828
vn 0.1882 0.9715 -0.1439
vn 0.1882 -0.9715 -0.1439
vn 0.7620 -0.2824 -0.5828
vn 0.5347 0.7395 -0.4089
vn 0.2329 -0.9725 -0.0000
vn 0.6664 0.7456 -0.0000
vn 0.9579 0.2872 -0.0000
vn 0.9579 -0.2872 -0.0000
vn 0.2329 0.9725 -0.0000
vn 0.6664 -0.7456 -0.0000
vn 0.5347 -0.7395 0.4089
vn 0.5347 0.7395 0.4089
vn 0.7620 -0.2824 0.5828
vn 0.7620 0.2824 0.5828
vn 0.1882 -0.9715 0.1439
vn 0.1882 0.9715 0.1439
vn 0.2016 -0.7299 0.6531
vn 0.2836 0.2751 0.9186
vn 0.0718 0.9699 0.2325
vn 0.0718 -0.9699 0.2325
vn 0.2836 -0.2751 0.9186
vn 0.2016 0.7299 0.6531
vn -0.2016 -0.7299 0.6531
vn -0.2836 0.2751 0.9186
vn -0.0718 0.9699 0.2325
vn -0.0718 -0.9699 0.2325
vn -0.2836 -0.2751 0.9186
vn -0.2016 0.7299 0.6531
vn -0.7620 0.2824 0.5828
vn -0.1882 0.9715 0.1439
vn -0.1882 -0.9715 0.1439
vn -0.7620 -0.2824 0.5828
vn -0.5347 0.7395 0.4089
vn -0.5347 -0.7395 0.4089
vn -0.2329 0.9725 -0.0000
vn -0.2329 -0.9725 -0.0000
vn -0.9579 -0.2872 -0.0000
vn -0.6664 0.7456 -0.0000
vn -0.6664 -0.7456 -0.0000
vn -0.9579 0.2872 -0.0000
vn -0.1882 -0.9715 -0.1439
vn -0.7620 -0.2824 -0.5828
vn -0.5347 0.7395 -0.4089
vn -0.5347 -0.7395 -0.4089
vn -0.7620 0.2824 -0.5828
vn -0.1882 0.9715 -0.1439
vn -0.0718 -0.9699 -0.2325
vn -0.2836 -0.2751 -0.9186
vn -0.2016 0.7299 -0.6531
vn -0.2016 -0.7299 -0.6531
vn -0.2836 0.2751 -0.9186
vn -0.0718 0.9699 -0.2325
vn -0.4706 -0.3376 0.8152
vn 0.9413 -0.3377 -0.0000
vn 0.3057 0.9224 0.2361
vn -0.4706 0.3376 0.8152
vn 0.9413 0.3377 -0.0000
vn 0.8542 0.4423 0.2733
vn 0.2157 0.9021 0.3737
vn 0.4315 0.9021 -0.0000
vn 0.8542 -0.4423 0.2733
vn 0.4706 0.3376 0.8152
vn 0.2157 -0.9021 -0.3737
vn 0.3057 -0.9224 0.2361
vn 0.4706 -0.3376 0.8152
vn 0.4706 0.3377 -0.8152
vn -0.3057 -0.9224 0.2361
vn 0.2157 -0.9021 0.3737
vn 0.2157 0.9021 -0.3737
vn -0.8542 -0.4423 0.2733
vn -0.0000 -0.0000 1.0000
vn 0.4706 -0.3377 -0.8152
vn -0.8542 0.4423 0.2733
vn -0.2157 0.9021 0.3737
vn 0.4315 -0.9021 -0.0000
vn -0.3057 0.9224 0.2361
vn -0.0000 -0.0000 -1.0000
vn -0.2157 -0.9021 0.3737
vn -0.9413 -0.3377 -0.0000
vn -0.4315 0.9021 -0.0000
vn -0.4315 -0.9021 -0.0000
vn -0.9413 0.3377 -0.0000
vn -0.4706 -0.3377 -0.8152
vn -0.2157 0.9021 -0.3737
vn -0.2157 -0.9021 -0.3737
vn -0.4706 0.3377 -0.8152
vn -0.0382 0.3274 -0.9441
vn 0.9441 0.3274 0.0382
vn -0.0444 0.3675 -0.9290
vn 0.9290 0.3675 0.0444
vn 0.1470 -0.9781 -0.1470
vn -0.0231 0.0813 0.9964
vn -0.9964 0.0813 0.0231
vn -0.0168 0.0385 0.9991
vn -0.9991 0.0385 0.0168
vn 0.4706 0.3377 0.8152
vn 0.4706 -0.3377 0.8152
vn -0.4706 -0.3377 0.8152
vn -0.4706 0.3377 0.8152
vn 0.0168 0.0385 -0.9991
vn 0.9991 0.0385 -0.0168
vn 0.0231 0.0813 -0.9964
vn 0.9964 0.0813 -0.0231
vn -0.1470 -0.9781 0.1470
vn 0.0444 0.3675 0.9290
vn -0.9290 0.3675 -0.0444
vn 0.0382 0.3274 0.9441
vn -0.9441 0.3274 -0.0382
vn 0.3813 -0.9080 -0.1733
vn -0.3146 0.8870 -0.3382
vn 0.7594 -0.1454 -0.6342
vn 0.9206 -0.3896 -0.0247
vn 0.3146 0.8870 -0.3382
vn 0.9206 0.3435 0.1856
vn 0.3813 0.8619 0.3342
vn 0.3145 -0.5730 -0.7568
vn -0.3813 0.8619 0.3342
vn 0.7594 0.4594 -0.4608
vn -0.9206 0.3435 0.1856
vn -0.0000 0.2756 -0.9613
vn -0.9206 -0.3896 -0.0247
vn -0.3813 -0.9080 -0.1733
vn -0.0000 -0.2756 0.9613
vn -0.7594 0.4594 -0.4608
vn -0.7594 -0.1454 -0.6342
vn -0.3146 -0.5730 -0.7568
s 0
usemtl EF_Black
f 3//3 4//3 6//3 5//3
f 55//4 56//4 58//4 57//4
f 5//6 6//6 8//6 7//6
f 27//3 28//3 30//3 29//3
f 7//4 8//4 10//4 9//4
f 53//6 54//6 56//6 55//6
f 9//7 10//7 12//7 11//7
f 6//8 4//8 14//8 12//8 10//8 8//8
f 51//3 52//3 54//3 53//3
f 11//9 12//9 14//9 13//9
f 13//12 14//12 4//12 3//12
f 3//13 5//13 7//13 9//13 11//13 13//13
f 31//4 32//4 34//4 33//4
f 29//6 30//6 32//6 31//6
f 33//7 34//7 36//7 35//7
f 30//8 28//8 38//8 36//8 34//8 32//8
f 35//9 36//9 38//9 37//9
f 37//12 38//12 28//12 27//12
f 31//13 33//13 35//13 37//13 27//13 29//13
f 79//4 80//4 82//4 81//4
f 75//3 76//3 78//3 77//3
f 57//7 58//7 60//7 59//7
f 55//13 57//13 59//13 61//13 51//13 53//13
f 59//9 60//9 62//9 61//9
f 77//6 78//6 80//6 79//6
f 61//12 62//12 52//12 51//12
f 58//8 56//8 54//8 52//8 62//8 60//8
f 81//7 82//7 84//7 83//7
f 81//13 83//13 85//13 75//13 77//13 79//13
f 83//9 84//9 86//9 85//9
f 85//12 86//12 76//12 75//12
f 82//8 80//8 78//8 76//8 86//8 84//8
f 310//219 309//219 314//219 315//219
f 234//220 231//220 304//220 305//220
f 309//222 312//222 317//222 314//222
f 231//223 302//223 307//223 304//223
f 307//225 207//225 312//225
f 302//226 207//226 307//226
f 304//228 307//228 312//228 309//228
f 238//229 241//229 234//229
f 305//231 304//231 309//231 310//231
f 242//232 327//232 302//232 231//232
f 238//234 305//234 310//234
f 327//235 207//235 302//235
f 241//238 242//238 231//238 234//238
f 312//240 207//240 317//240
f 238//241 234//241 305//241
f 238//244 310//244 315//244
f 315//245 314//245 319//245 320//245
f 317//246 207//246 322//246
f 238//247 315//247 320//247
f 314//248 317//248 322//248 319//248
f 320//249 319//249 242//249 241//249
f 322//250 207//250 327//250
f 238//251 320//251 241//251
f 319//252 322//252 327//252 242//252
f 318//253 240//253 325//253
f 325//254 240//254 303//254
f 301//235 326//235 328//235
f 331//220 329//220 334//220 336//220
f 323//238 306//238 329//238 331//238
f 328//226 326//226 333//226
f 313//229 323//229 331//229
f 325//257 303//257 295//257 318//257
f 303//260 240//260 295//260
f 306//232 301//232 328//232 329//232
f 329//223 328//223 333//223 334//223
f 295//261 240//261 318//261
f 313//241 331//241 336//241
f 334//262 333//262 338//262 339//262
f 313//234 336//234 341//234
f 333//225 326//225 338//225
f 336//263 334//263 339//263 341//263
f 341//264 339//264 344//264 346//264
f 339//265 338//265 343//265 344//265
f 313//244 341//244 346//244
f 338//240 326//240 343//240
f 346//245 344//245 349//245 351//245
f 344//248 343//248 348//248 349//248
f 313//247 346//247 351//247
f 343//246 326//246 348//246
f 351//249 349//249 306//249 323//249
f 349//252 348//252 301//252 306//252
f 313//251 351//251 323//251
f 348//250 326//250 301//250
f 352//266 330//266 356//266
f 356//267 330//267 337//267
f 347//229 354//229 361//229
f 358//226 357//226 363//226
f 335//235 357//235 358//235
f 361//220 359//220 364//220 366//220
f 354//238 340//238 359//238 361//238
f 356//270 337//270 332//270 352//270
f 337//273 330//273 332//273
f 340//232 335//232 358//232 359//232
f 359//223 358//223 363//223 364//223
f 332//274 330//274 352//274
f 347//241 361//241 366//241
f 366//263 364//263 369//263 371//263
f 364//262 363//262 368//262 369//262
f 347//234 366//234 371//234
f 363//225 357//225 368//225
f 371//264 369//264 374//264 376//264
f 369//265 368//265 373//265 374//265
f 347//244 371//244 376//244
f 368//240 357//240 373//240
f 373//246 357//246 378//246
f 376//245 374//245 379//245 381//245
f 374//248 373//248 378//248 379//248
f 347//247 376//247 381//247
f 347//251 381//251 354//251
f 378//250 357//250 335//250
f 381//249 379//249 340//249 354//249
f 379//252 378//252 335//252 340//252
usemtl EF_Fox
f 105//1 212//1 113//1
f 63//2 64//2 66//2 65//2
f 106//5 2//5 115//5
f 15//2 16//2 18//2 17//2
f 39//2 40//2 42//2 41//2
f 19//10 20//10 22//10 21//10
f 17//11 18//11 20//11 19//11
f 21//14 22//14 24//14 23//14
f 20//8 18//8 16//8 26//8 24//8 22//8
f 211//15 210//15 111//15 112//15
f 23//16 24//16 26//16 25//16
f 25//17 26//17 16//17 15//17
f 21//13 23//13 25//13 15//13 17//13 19//13
f 67//10 68//10 70//10 69//10
f 43//10 44//10 46//10 45//10
f 41//11 42//11 44//11 43//11
f 45//14 46//14 48//14 47//14
f 41//13 43//13 45//13 47//13 49//13 39//13
f 47//16 48//16 50//16 49//16
f 65//11 66//11 68//11 67//11
f 49//17 50//17 40//17 39//17
f 46//8 44//8 42//8 40//8 50//8 48//8
f 91//10 92//10 94//10 93//10
f 87//2 88//2 90//2 89//2
f 69//14 70//14 72//14 71//14
f 109//18 108//18 117//18 118//18
f 69//13 71//13 73//13 63//13 65//13 67//13
f 71//16 72//16 74//16 73//16
f 89//11 90//11 92//11 91//11
f 212//19 211//19 112//19 113//19
f 73//17 74//17 64//17 63//17
f 70//8 68//8 66//8 64//8 74//8 72//8
f 101//20 208//20 109//20 110//20
f 208//21 99//21 108//21 109//21
f 210//22 101//22 110//22 111//22
f 93//14 94//14 96//14 95//14
f 99//23 205//23 106//23 108//23
f 93//13 95//13 97//13 87//13 89//13 91//13
f 95//16 96//16 98//16 97//16
f 205//24 2//24 106//24
f 108//25 106//25 115//25 117//25
f 97//17 98//17 88//17 87//17
f 94//8 92//8 90//8 88//8 98//8 96//8
f 111//26 110//26 119//26 120//26
f 112//27 111//27 120//27 121//27
f 110//28 109//28 118//28 119//28
f 113//29 112//29 121//29 122//29
f 105//30 113//30 122//30
f 115//31 2//31 124//31
f 117//32 115//32 124//32 126//32
f 121//33 120//33 129//33 130//33
f 120//34 119//34 128//34 129//34
f 122//35 121//35 130//35 131//35
f 105//36 122//36 131//36
f 119//37 118//37 127//37 128//37
f 118//38 117//38 126//38 127//38
f 130//39 129//39 138//39 139//39
f 129//40 128//40 137//40 138//40
f 131//41 130//41 139//41 140//41
f 105//42 131//42 140//42
f 128//43 127//43 136//43 137//43
f 127//44 126//44 135//44 136//44
f 124//45 2//45 133//45
f 126//46 124//46 133//46 135//46
f 140//47 139//47 148//47 149//47
f 105//48 140//48 149//48
f 137//49 136//49 145//49 146//49
f 136//50 135//50 144//50 145//50
f 133//51 2//51 142//51
f 135//52 133//52 142//52 144//52
f 139//53 138//53 147//53 148//53
f 138//54 137//54 146//54 147//54
f 145//55 144//55 153//55 154//55
f 142//56 2//56 151//56
f 144//57 142//57 151//57 153//57
f 148//58 147//58 156//58 157//58
f 147//59 146//59 155//59 156//59
f 149//60 148//60 157//60 158//60
f 105//61 149//61 158//61
f 146//62 145//62 154//62 155//62
f 151//63 2//63 160//63
f 153//64 151//64 160//64 162//64
f 157//65 156//65 165//65 166//65
f 156//66 155//66 164//66 165//66
f 158//67 157//67 166//67 167//67
f 105//68 158//68 167//68
f 155//69 154//69 163//69 164//69
f 154//70 153//70 162//70 163//70
f 165//71 164//71 173//71 174//71
f 167//72 166//72 175//72 176//72
f 105//73 167//73 176//73
f 164//74 163//74 172//74 173//74
f 163//75 162//75 171//75 172//75
f 160//76 2//76 169//76
f 162//77 160//77 169//77 171//77
f 166//78 165//78 174//78 175//78
f 105//79 176//79 185//79
f 173//80 172//80 181//80 182//80
f 172//81 171//81 180//81 181//81
f 169//82 2//82 178//82
f 171//83 169//83 178//83 180//83
f 175//84 174//84 183//84 184//84
f 174//85 173//85 182//85 183//85
f 176//86 175//86 184//86 185//86
f 178//87 2//87 187//87
f 180//88 178//88 187//88 189//88
f 184//89 183//89 192//89 193//89
f 183//90 182//90 191//90 192//90
f 185//91 184//91 193//91 194//91
f 105//92 185//92 194//92
f 182//93 181//93 190//93 191//93
f 181//94 180//94 189//94 190//94
f 189//95 187//95 196//95 198//95
f 193//96 192//96 201//96 202//96
f 192//97 191//97 200//97 201//97
f 194//98 193//98 202//98 203//98
f 105//99 194//99 203//99
f 191//100 190//100 199//100 200//100
f 190//101 189//101 198//101 199//101
f 187//102 2//102 196//102
f 203//103 202//103 211//103 212//103
f 105//104 203//104 212//104
f 200//105 199//105 208//105 101//105
f 199//106 198//106 99//106 208//106
f 196//107 2//107 205//107
f 198//108 196//108 205//108 99//108
f 202//109 201//109 210//109 211//109
f 201//110 200//110 101//110 210//110
f 299//159 300//159 213//159 217//159
f 297//160 298//160 220//160 224//160
f 103//161 296//161 227//161
f 298//162 299//162 217//162 220//162
f 296//163 297//163 224//163 227//163
f 300//164 204//164 213//164
f 227//165 224//165 159//165 132//165
f 220//166 217//166 188//166 161//166
f 213//167 204//167 195//167
f 103//168 227//168 132//168
f 224//169 220//169 161//169 159//169
f 217//170 213//170 195//170 188//170
f 103//171 132//171 247//171
f 188//172 195//172 251//172 250//172
f 161//173 188//173 250//173 249//173
f 159//174 161//174 249//174 248//174
f 195//175 204//175 251//175
f 132//176 159//176 248//176 247//176
f 247//177 248//177 255//177 254//177
f 250//178 251//178 258//178 257//178
f 248//179 249//179 256//179 255//179
f 249//180 250//180 257//180 256//180
f 103//181 247//181 254//181
f 251//182 204//182 258//182
f 254//183 255//183 262//183 261//183
f 256//184 257//184 264//184 263//184
f 258//185 204//185 265//185
f 103//186 254//186 261//186
f 255//187 256//187 263//187 262//187
f 257//188 258//188 265//188 264//188
f 261//189 262//189 269//189 268//189
f 263//190 264//190 271//190 270//190
f 265//191 204//191 272//191
f 103//192 261//192 268//192
f 262//193 263//193 270//193 269//193
f 264//194 265//194 272//194 271//194
f 270//195 271//195 278//195 277//195
f 272//196 204//196 279//196
f 103//197 268//197 275//197
f 269//198 270//198 277//198 276//198
f 271//199 272//199 279//199 278//199
f 268//200 269//200 276//200 275//200
f 279//201 204//201 286//201
f 103//202 275//202 282//202
f 276//203 277//203 284//203 283//203
f 278//204 279//204 286//204 285//204
f 275//205 276//205 283//205 282//205
f 277//206 278//206 285//206 284//206
f 103//207 282//207 289//207
f 283//208 284//208 291//208 290//208
f 285//209 286//209 293//209 292//209
f 282//210 283//210 290//210 289//210
f 284//211 285//211 292//211 291//211
f 286//212 204//212 293//212
f 103//213 289//213 296//213
f 290//214 291//214 298//214 297//214
f 292//215 293//215 300//215 299//215
f 289//216 290//216 297//216 296//216
f 291//217 292//217 299//217 298//217
f 293//218 204//218 300//218
f 324//255 308//255 321//255
f 321//256 308//256 316//256
f 324//257 321//257 316//257 311//257
f 316//258 308//258 311//258
f 311//259 308//259 324//259
f 355//268 342//268 353//268
f 353//269 342//269 350//269
f 355//270 353//270 350//270 345//270
f 350//271 342//271 345//271
f 345//272 342//272 355//272
f 385//275 384//275 382//275 383//275
f 383//278 382//278 377//278 380//278
f 380//280 377//280 372//280 375//280
f 375//281 372//281 367//281 370//281
f 370//283 367//283 362//283 365//283
f 365//285 362//285 386//285 360//285
f 382//286 384//286 388//286 386//286 362//286 367//286 372//286 377//286
f 360//287 386//287 388//287 387//287
f 387//288 388//288 384//288 385//288
f 385//289 383//289 380//289 375//289 370//289 365//289 360//289 387//289
usemtl EF_White
f 243//111 206//111 177//111 179//111
f 197//112 243//112 179//112 186//112
f 209//113 102//113 168//113
f 239//114 209//114 168//114 170//114
f 206//115 239//115 170//115 177//115
f 125//116 197//116 186//116
f 186//117 179//117 141//117 134//117
f 179//118 177//118 143//118 141//118
f 170//119 168//119 152//119 150//119
f 168//120 102//120 152//120
f 125//121 186//121 134//121
f 177//122 170//122 150//122 143//122
f 141//123 143//123 114//123 116//123
f 152//124 102//124 104//124
f 150//125 152//125 104//125 107//125
f 134//126 141//126 116//126 123//126
f 125//127 134//127 123//127
f 143//128 150//128 107//128 114//128
f 125//129 123//129 216//129
f 114//130 107//130 1//130 214//130
f 107//131 104//131 100//131 1//131
f 116//132 114//132 214//132 215//132
f 123//133 116//133 215//133 216//133
f 104//134 102//134 100//134
f 215//135 214//135 221//135 222//135
f 100//136 102//136 219//136
f 214//137 1//137 218//137 221//137
f 1//138 100//138 219//138 218//138
f 216//139 215//139 222//139 223//139
f 125//140 216//140 223//140
f 218//141 219//141 226//141 225//141
f 223//142 222//142 229//142 230//142
f 222//143 221//143 228//143 229//143
f 219//144 102//144 226//144
f 125//145 223//145 230//145
f 221//146 218//146 225//146 228//146
f 228//147 225//147 232//147 235//147
f 226//148 102//148 233//148
f 125//149 230//149 237//149
f 229//150 228//150 235//150 236//150
f 225//151 226//151 233//151 232//151
f 230//152 229//152 236//152 237//152
f 233//153 102//153 209//153
f 125//154 237//154 197//154
f 236//155 235//155 206//155 243//155
f 232//156 233//156 209//156 239//156
f 237//157 236//157 243//157 197//157
f 235//158 232//158 239//158 206//158
f 294//221 288//221 281//221 287//221
f 287//224 281//224 274//224 280//224
f 280//227 274//227 267//227 273//227
f 273//230 267//230 260//230 266//230
f 266//233 260//233 253//233 259//233
f 259//236 253//236 246//236 252//236
f 281//237 288//237 244//237 246//237 253//237 260//237 267//237 274//237
f 252//239 246//239 244//239 245//239
f 245//242 244//242 288//242 294//242
f 294//243 287//243 280//243 273//243 266//243 259//243 252//243 245//243
f 397//276 398//276 400//276 399//276
f 391//277 392//277 394//277 393//277
f 395//279 396//279 398//279 397//279
f 389//282 390//282 392//282 391//282
f 393//284 394//284 396//284 395//284
f 399//290 400//290 402//290 401//290
f 393//289 395//289 397//289 399//289 401//289 403//289 389//289 391//289
f 401//291 402//291 404//291 403//291
f 403//292 404//292 390//292 389//292
f 400//286 398//286 396//286 394//286 392//286 390//286 404//286 402//286
