# Blender 5.0.1
# www.blender.org
mtllib HenHouse.mtl
o HenHouse
v -2.072000 0.000000 1.715000
v -2.072000 0.168000 1.715000
v -2.072000 0.000000 -1.869000
v -2.072000 0.168000 -1.869000
v 2.072000 0.000000 1.715000
v 2.072000 0.168000 1.715000
v 2.072000 0.000000 -1.869000
v 2.072000 0.168000 -1.869000
v -1.960000 0.168000 1.603000
v -1.960000 1.988000 1.603000
v -1.960000 0.168000 -1.757000
v -1.960000 1.988000 -1.757000
v 1.960000 0.168000 1.603000
v 1.960000 1.988000 1.603000
v 1.960000 0.168000 -1.757000
v 1.960000 1.988000 -1.757000
v -2.030000 0.168000 1.673000
v -2.030000 1.988000 1.673000
v -2.030000 0.168000 1.533000
v -2.030000 1.988000 1.533000
v -1.890000 0.168000 1.673000
v -1.890000 1.988000 1.673000
v -1.890000 0.168000 1.533000
v -1.890000 1.988000 1.533000
v -2.030000 0.168000 -1.687000
v -2.030000 1.988000 -1.687000
v -2.030000 0.168000 -1.827000
v -2.030000 1.988000 -1.827000
v -1.890000 0.168000 -1.687000
v -1.890000 1.988000 -1.687000
v -1.890000 0.168000 -1.827000
v -1.890000 1.988000 -1.827000
v 1.890000 0.168000 1.673000
v 1.890000 1.988000 1.673000
v 1.890000 0.168000 1.533000
v 1.890000 1.988000 1.533000
v 2.030000 0.168000 1.673000
v 2.030000 1.988000 1.673000
v 2.030000 0.168000 1.533000
v 2.030000 1.988000 1.533000
v 1.890000 0.168000 -1.687000
v 1.890000 1.988000 -1.687000
v 1.890000 0.168000 -1.827000
v 1.890000 1.988000 -1.827000
v 2.030000 0.168000 -1.687000
v 2.030000 1.988000 -1.687000
v 2.030000 0.168000 -1.827000
v 2.030000 1.988000 -1.827000
v -1.932000 0.602000 1.622600
v -1.932000 0.630000 1.622600
v -1.932000 0.602000 1.600200
v -1.932000 0.630000 1.600200
v 1.932000 0.602000 1.622600
v 1.932000 0.630000 1.622600
v 1.932000 0.602000 1.600200
v 1.932000 0.630000 1.600200
v -1.932000 1.050000 1.622600
v -1.932000 1.078000 1.622600
v -1.932000 1.050000 1.600200
v -1.932000 1.078000 1.600200
v 1.932000 1.050000 1.622600
v 1.932000 1.078000 1.622600
v 1.932000 1.050000 1.600200
v 1.932000 1.078000 1.600200
v -1.932000 1.498000 1.622600
v -1.932000 1.526000 1.622600
v -1.932000 1.498000 1.600200
v -1.932000 1.526000 1.600200
v 1.932000 1.498000 1.622600
v 1.932000 1.526000 1.622600
v 1.932000 1.498000 1.600200
v 1.932000 1.526000 1.600200
v 0.000000 3.276000 1.603000
v 0.000000 3.276000 -1.757000
v -2.147866 1.864545 1.883000
v -2.240129 2.004943 1.883000
v -2.147866 1.864545 -2.037000
v -2.240129 2.004943 -2.037000
v 0.046131 3.306315 1.883000
v -0.046131 3.446713 1.883000
v 0.046131 3.306315 -2.037000
v -0.046131 3.446713 -2.037000
v -0.046131 3.306315 1.883000
v 0.046131 3.446713 1.883000
v -0.046131 3.306315 -2.037000
v 0.046131 3.446713 -2.037000
v 2.147866 1.864545 1.883000
v 2.240129 2.004943 1.883000
v 2.147866 1.864545 -2.037000
v 2.240129 2.004943 -2.037000
v -0.134400 3.295817 1.897000
v -0.134400 3.497416 1.897000
v -0.134400 3.295817 -2.051000
v -0.134400 3.497416 -2.051000
v 0.134400 3.295817 1.897000
v 0.134400 3.497416 1.897000
v 0.134400 3.295817 -2.051000
v 0.134400 3.497416 -2.051000
v -0.420000 0.168000 1.687000
v -0.420000 1.344000 1.687000
v -0.420000 0.168000 1.575000
v -0.420000 1.344000 1.575000
v 0.420000 0.168000 1.687000
v 0.420000 1.344000 1.687000
v 0.420000 0.168000 1.575000
v 0.420000 1.344000 1.575000
v -0.336000 0.168000 1.715000
v -0.336000 1.232000 1.715000
v -0.336000 0.168000 1.603000
v -0.336000 1.232000 1.603000
v 0.336000 0.168000 1.715000
v 0.336000 1.232000 1.715000
v 0.336000 0.168000 1.603000
v 0.336000 1.232000 1.603000
v 0.182000 0.686000 1.771000
v 0.182000 0.770000 1.771000
v 0.182000 0.686000 1.687000
v 0.182000 0.770000 1.687000
v 0.266000 0.686000 1.771000
v 0.266000 0.770000 1.771000
v 0.266000 0.686000 1.687000
v 0.266000 0.770000 1.687000
v -1.582000 0.854000 1.673000
v -1.582000 1.498000 1.673000
v -1.582000 0.854000 1.603000
v -1.582000 1.498000 1.603000
v -0.882000 0.854000 1.673000
v -0.882000 1.498000 1.673000
v -0.882000 0.854000 1.603000
v -0.882000 1.498000 1.603000
v -1.512000 0.924000 1.708000
v -1.512000 1.428000 1.708000
v -1.512000 0.924000 1.638000
v -1.512000 1.428000 1.638000
v -0.952000 0.924000 1.708000
v -0.952000 1.428000 1.708000
v -0.952000 0.924000 1.638000
v -0.952000 1.428000 1.638000
v -1.512000 1.150800 1.736000
v -1.512000 1.201200 1.736000
v -1.512000 1.150800 1.624000
v -1.512000 1.201200 1.624000
v -0.952000 1.150800 1.736000
v -0.952000 1.201200 1.736000
v -0.952000 1.150800 1.624000
v -0.952000 1.201200 1.624000
v -1.257200 0.924000 1.736000
v -1.257200 1.428000 1.736000
v -1.257200 0.924000 1.624000
v -1.257200 1.428000 1.624000
v -1.206800 0.924000 1.736000
v -1.206800 1.428000 1.736000
v -1.206800 0.924000 1.624000
v -1.206800 1.428000 1.624000
v 0.882000 0.854000 1.673000
v 0.882000 1.498000 1.673000
v 0.882000 0.854000 1.603000
v 0.882000 1.498000 1.603000
v 1.582000 0.854000 1.673000
v 1.582000 1.498000 1.673000
v 1.582000 0.854000 1.603000
v 1.582000 1.498000 1.603000
v 0.952000 0.924000 1.708000
v 0.952000 1.428000 1.708000
v 0.952000 0.924000 1.638000
v 0.952000 1.428000 1.638000
v 1.512000 0.924000 1.708000
v 1.512000 1.428000 1.708000
v 1.512000 0.924000 1.638000
v 1.512000 1.428000 1.638000
v 0.952000 1.150800 1.736000
v 0.952000 1.201200 1.736000
v 0.952000 1.150800 1.624000
v 0.952000 1.201200 1.624000
v 1.512000 1.150800 1.736000
v 1.512000 1.201200 1.736000
v 1.512000 1.150800 1.624000
v 1.512000 1.201200 1.624000
v 1.206800 0.924000 1.736000
v 1.206800 1.428000 1.736000
v 1.206800 0.924000 1.624000
v 1.206800 1.428000 1.624000
v 1.257200 0.924000 1.736000
v 1.257200 1.428000 1.736000
v 1.257200 0.924000 1.624000
v 1.257200 1.428000 1.624000
v 1.960000 0.854000 0.973000
v 1.960000 1.498000 0.973000
v 1.960000 0.854000 0.273000
v 1.960000 1.498000 0.273000
v 2.030000 0.854000 0.973000
v 2.030000 1.498000 0.973000
v 2.030000 0.854000 0.273000
v 2.030000 1.498000 0.273000
v 1.995000 0.924000 0.903000
v 1.995000 1.428000 0.903000
v 1.995000 0.924000 0.343000
v 1.995000 1.428000 0.343000
v 2.065000 0.924000 0.903000
v 2.065000 1.428000 0.903000
v 2.065000 0.924000 0.343000
v 2.065000 1.428000 0.343000
v 1.981000 1.150800 0.903000
v 1.981000 1.201200 0.903000
v 1.981000 1.150800 0.343000
v 1.981000 1.201200 0.343000
v 2.093000 1.150800 0.903000
v 2.093000 1.201200 0.903000
v 2.093000 1.150800 0.343000
v 2.093000 1.201200 0.343000
v 1.981000 0.924000 0.648200
v 1.981000 1.428000 0.648200
v 1.981000 0.924000 0.597800
v 1.981000 1.428000 0.597800
v 2.093000 0.924000 0.648200
v 2.093000 1.428000 0.648200
v 2.093000 0.924000 0.597800
v 2.093000 1.428000 0.597800
v -2.030000 0.854000 0.973000
v -2.030000 1.498000 0.973000
v -2.030000 0.854000 0.273000
v -2.030000 1.498000 0.273000
v -1.960000 0.854000 0.973000
v -1.960000 1.498000 0.973000
v -1.960000 0.854000 0.273000
v -1.960000 1.498000 0.273000
v -2.065000 0.924000 0.903000
v -2.065000 1.428000 0.903000
v -2.065000 0.924000 0.343000
v -2.065000 1.428000 0.343000
v -1.995000 0.924000 0.903000
v -1.995000 1.428000 0.903000
v -1.995000 0.924000 0.343000
v -1.995000 1.428000 0.343000
v -2.093000 1.150800 0.903000
v -2.093000 1.201200 0.903000
v -2.093000 1.150800 0.343000
v -2.093000 1.201200 0.343000
v -1.981000 1.150800 0.903000
v -1.981000 1.201200 0.903000
v -1.981000 1.150800 0.343000
v -1.981000 1.201200 0.343000
v -2.093000 0.924000 0.648200
v -2.093000 1.428000 0.648200
v -2.093000 0.924000 0.597800
v -2.093000 1.428000 0.597800
v -1.981000 0.924000 0.648200
v -1.981000 1.428000 0.648200
v -1.981000 0.924000 0.597800
v -1.981000 1.428000 0.597800
v 1.960000 0.854000 -0.427000
v 1.960000 1.498000 -0.427000
v 1.960000 0.854000 -1.127000
v 1.960000 1.498000 -1.127000
v 2.030000 0.854000 -0.427000
v 2.030000 1.498000 -0.427000
v 2.030000 0.854000 -1.127000
v 2.030000 1.498000 -1.127000
v 1.995000 0.924000 -0.497000
v 1.995000 1.428000 -0.497000
v 1.995000 0.924000 -1.057000
v 1.995000 1.428000 -1.057000
v 2.065000 0.924000 -0.497000
v 2.065000 1.428000 -0.497000
v 2.065000 0.924000 -1.057000
v 2.065000 1.428000 -1.057000
v 1.981000 1.150800 -0.497000
v 1.981000 1.201200 -0.497000
v 1.981000 1.150800 -1.057000
v 1.981000 1.201200 -1.057000
v 2.093000 1.150800 -0.497000
v 2.093000 1.201200 -0.497000
v 2.093000 1.150800 -1.057000
v 2.093000 1.201200 -1.057000
v 1.981000 0.924000 -0.751800
v 1.981000 1.428000 -0.751800
v 1.981000 0.924000 -0.802200
v 1.981000 1.428000 -0.802200
v 2.093000 0.924000 -0.751800
v 2.093000 1.428000 -0.751800
v 2.093000 0.924000 -0.802200
v 2.093000 1.428000 -0.802200
v -2.030000 0.854000 -0.427000
v -2.030000 1.498000 -0.427000
v -2.030000 0.854000 -1.127000
v -2.030000 1.498000 -1.127000
v -1.960000 0.854000 -0.427000
v -1.960000 1.498000 -0.427000
v -1.960000 0.854000 -1.127000
v -1.960000 1.498000 -1.127000
v -2.065000 0.924000 -0.497000
v -2.065000 1.428000 -0.497000
v -2.065000 0.924000 -1.057000
v -2.065000 1.428000 -1.057000
v -1.995000 0.924000 -0.497000
v -1.995000 1.428000 -0.497000
v -1.995000 0.924000 -1.057000
v -1.995000 1.428000 -1.057000
v -2.093000 1.150800 -0.497000
v -2.093000 1.201200 -0.497000
v -2.093000 1.150800 -1.057000
v -2.093000 1.201200 -1.057000
v -1.981000 1.150800 -0.497000
v -1.981000 1.201200 -0.497000
v -1.981000 1.150800 -1.057000
v -1.981000 1.201200 -1.057000
v -2.093000 0.924000 -0.751800
v -2.093000 1.428000 -0.751800
v -2.093000 0.924000 -0.802200
v -2.093000 1.428000 -0.802200
v -1.981000 0.924000 -0.751800
v -1.981000 1.428000 -0.751800
v -1.981000 0.924000 -0.802200
v -1.981000 1.428000 -0.802200
v -0.504000 0.000000 2.051000
v -0.504000 0.084000 2.051000
v 0.000000 2.744000 1.589000
v 0.000000 2.744000 1.673000
v 0.126000 2.710238 1.589000
v 0.126000 2.710238 1.673000
v 0.218238 2.618000 1.589000
v 0.218238 2.618000 1.673000
v 0.252000 2.492000 1.589000
v 0.252000 2.492000 1.673000
v 0.218238 2.366000 1.589000
v 0.218238 2.366000 1.673000
v 0.126000 2.273762 1.589000
v 0.126000 2.273762 1.673000
v 0.000000 2.240000 1.589000
v 0.000000 2.240000 1.673000
v -0.126000 2.273762 1.589000
v -0.126000 2.273762 1.673000
v -0.218238 2.366000 1.589000
v -0.218238 2.366000 1.673000
v -0.252000 2.492000 1.589000
v -0.252000 2.492000 1.673000
v -0.218238 2.618000 1.589000
v -0.218238 2.618000 1.673000
v -0.126000 2.710238 1.589000
v -0.126000 2.710238 1.673000
v 0.000000 2.660000 1.617000
v 0.000000 2.660000 1.701000
v 0.084000 2.637492 1.617000
v 0.084000 2.637492 1.701000
v 0.145492 2.576000 1.617000
v 0.145492 2.576000 1.701000
v 0.168000 2.492000 1.617000
v 0.168000 2.492000 1.701000
v 0.145492 2.408000 1.617000
v 0.145492 2.408000 1.701000
v 0.084000 2.346508 1.617000
v 0.084000 2.346508 1.701000
v 0.000000 2.324000 1.617000
v 0.000000 2.324000 1.701000
v -0.084000 2.346508 1.617000
v -0.084000 2.346508 1.701000
v -0.145492 2.408000 1.617000
v -0.145492 2.408000 1.701000
v -0.168000 2.492000 1.617000
v -0.168000 2.492000 1.701000
v -0.145492 2.576000 1.617000
v -0.145492 2.576000 1.701000
v -0.084000 2.637492 1.617000
v -0.084000 2.637492 1.701000
v -0.504000 0.000000 1.659000
v -0.504000 0.084000 1.659000
v 0.504000 0.000000 2.051000
v 0.504000 0.084000 2.051000
v 0.504000 0.000000 1.659000
v 0.504000 0.084000 1.659000
v 0.021000 3.864000 -0.077000
v 0.021000 3.948000 -0.469000
v 0.000000 3.444000 -0.110600
v 0.000000 4.004000 -0.110600
v 0.029098 3.444000 -0.093800
v 0.029098 4.004000 -0.093800
v 0.029098 3.444000 -0.060200
v 0.029098 4.004000 -0.060200
v 0.000000 3.444000 -0.043400
v 0.000000 4.004000 -0.043400
v -0.029098 3.444000 -0.060200
v -0.029098 4.004000 -0.060200
v -0.029098 3.444000 -0.093800
v -0.029098 4.004000 -0.093800
v 0.021000 4.032000 -0.077000
v -0.021000 3.864000 -0.077000
v -0.021000 3.948000 -0.469000
v -0.021000 4.032000 -0.077000
vn -1.0000 -0.0000 -0.0000
vn -0.0000 -0.0000 -1.0000
vn 1.0000 -0.0000 -0.0000
vn -0.0000 -0.0000 1.0000
vn -0.0000 -1.0000 -0.0000
vn -0.0000 1.0000 -0.0000
vn 0.5492 0.8357 -0.0000
vn -0.5492 0.8357 -0.0000
vn -0.8357 -0.5492 -0.0000
vn 0.8357 0.5492 -0.0000
vn 0.5492 -0.8357 -0.0000
vn -0.8357 0.5492 -0.0000
vn 0.8357 -0.5492 -0.0000
vn -0.5492 -0.8357 -0.0000
vn 0.5000 -0.0000 0.8660
vn 0.2588 0.9659 -0.0000
vn 0.7071 0.7071 -0.0000
vn 0.9659 0.2588 -0.0000
vn 0.5000 -0.0000 -0.8660
vn 0.9659 -0.2588 -0.0000
vn 0.2588 -0.9659 -0.0000
vn 0.7071 -0.7071 -0.0000
vn -0.2588 -0.9659 -0.0000
vn -0.7071 -0.7071 -0.0000
vn -0.9659 -0.2588 -0.0000
vn -0.5000 -0.0000 0.8660
vn -0.9659 0.2588 -0.0000
vn -0.0000 0.9778 -0.2095
vn -0.7071 0.7071 -0.0000
vn -0.2588 0.9659 -0.0000
vn -0.0000 -0.9778 -0.2095
vn -0.5000 -0.0000 -0.8660
s 0
usemtl EF_Path
f 1//1 2//1 4//1 3//1
f 3//2 4//2 8//2 7//2
f 7//3 8//3 6//3 5//3
f 5//4 6//4 2//4 1//4
f 3//5 7//5 5//5 1//5
f 8//6 4//6 2//6 6//6
f 367//4 368//4 316//4 315//4
f 365//5 369//5 367//5 315//5
f 370//6 366//6 316//6 368//6
f 369//3 370//3 368//3 367//3
f 365//2 366//2 370//2 369//2
f 315//1 316//1 366//1 365//1
usemtl EF_Wood
f 9//1 10//1 12//1 11//1
f 11//2 12//2 16//2 15//2
f 15//3 16//3 14//3 13//3
f 13//4 14//4 10//4 9//4
f 11//5 15//5 13//5 9//5
f 16//6 12//6 10//6 14//6
f 73//4 10//4 14//4
f 12//2 74//2 16//2
f 14//7 16//7 74//7 73//7
f 73//8 74//8 12//8 10//8
usemtl EF_White
f 17//1 18//1 20//1 19//1
f 19//2 20//2 24//2 23//2
f 23//3 24//3 22//3 21//3
f 21//4 22//4 18//4 17//4
f 19//5 23//5 21//5 17//5
f 24//6 20//6 18//6 22//6
f 25//1 26//1 28//1 27//1
f 27//2 28//2 32//2 31//2
f 31//3 32//3 30//3 29//3
f 29//4 30//4 26//4 25//4
f 27//5 31//5 29//5 25//5
f 32//6 28//6 26//6 30//6
f 33//1 34//1 36//1 35//1
f 35//2 36//2 40//2 39//2
f 39//3 40//3 38//3 37//3
f 37//4 38//4 34//4 33//4
f 35//5 39//5 37//5 33//5
f 40//6 36//6 34//6 38//6
f 41//1 42//1 44//1 43//1
f 43//2 44//2 48//2 47//2
f 47//3 48//3 46//3 45//3
f 45//4 46//4 42//4 41//4
f 43//5 47//5 45//5 41//5
f 48//6 44//6 42//6 46//6
f 99//1 100//1 102//1 101//1
f 101//2 102//2 106//2 105//2
f 105//3 106//3 104//3 103//3
f 103//4 104//4 100//4 99//4
f 101//5 105//5 103//5 99//5
f 106//6 102//6 100//6 104//6
f 123//1 124//1 126//1 125//1
f 125//2 126//2 130//2 129//2
f 129//3 130//3 128//3 127//3
f 127//4 128//4 124//4 123//4
f 125//5 129//5 127//5 123//5
f 130//6 126//6 124//6 128//6
f 139//1 140//1 142//1 141//1
f 141//2 142//2 146//2 145//2
f 145//3 146//3 144//3 143//3
f 143//4 144//4 140//4 139//4
f 141//5 145//5 143//5 139//5
f 146//6 142//6 140//6 144//6
f 147//1 148//1 150//1 149//1
f 149//2 150//2 154//2 153//2
f 153//3 154//3 152//3 151//3
f 151//4 152//4 148//4 147//4
f 149//5 153//5 151//5 147//5
f 154//6 150//6 148//6 152//6
f 155//1 156//1 158//1 157//1
f 157//2 158//2 162//2 161//2
f 161//3 162//3 160//3 159//3
f 159//4 160//4 156//4 155//4
f 157//5 161//5 159//5 155//5
f 162//6 158//6 156//6 160//6
f 171//1 172//1 174//1 173//1
f 173//2 174//2 178//2 177//2
f 177//3 178//3 176//3 175//3
f 175//4 176//4 172//4 171//4
f 173//5 177//5 175//5 171//5
f 178//6 174//6 172//6 176//6
f 179//1 180//1 182//1 181//1
f 181//2 182//2 186//2 185//2
f 185//3 186//3 184//3 183//3
f 183//4 184//4 180//4 179//4
f 181//5 185//5 183//5 179//5
f 186//6 182//6 180//6 184//6
f 187//1 188//1 190//1 189//1
f 189//2 190//2 194//2 193//2
f 193//3 194//3 192//3 191//3
f 191//4 192//4 188//4 187//4
f 189//5 193//5 191//5 187//5
f 194//6 190//6 188//6 192//6
f 203//1 204//1 206//1 205//1
f 205//2 206//2 210//2 209//2
f 209//3 210//3 208//3 207//3
f 207//4 208//4 204//4 203//4
f 205//5 209//5 207//5 203//5
f 210//6 206//6 204//6 208//6
f 211//1 212//1 214//1 213//1
f 213//2 214//2 218//2 217//2
f 217//3 218//3 216//3 215//3
f 215//4 216//4 212//4 211//4
f 213//5 217//5 215//5 211//5
f 218//6 214//6 212//6 216//6
f 219//1 220//1 222//1 221//1
f 221//2 222//2 226//2 225//2
f 225//3 226//3 224//3 223//3
f 223//4 224//4 220//4 219//4
f 221//5 225//5 223//5 219//5
f 226//6 222//6 220//6 224//6
f 235//1 236//1 238//1 237//1
f 237//2 238//2 242//2 241//2
f 241//3 242//3 240//3 239//3
f 239//4 240//4 236//4 235//4
f 237//5 241//5 239//5 235//5
f 242//6 238//6 236//6 240//6
f 243//1 244//1 246//1 245//1
f 245//2 246//2 250//2 249//2
f 249//3 250//3 248//3 247//3
f 247//4 248//4 244//4 243//4
f 245//5 249//5 247//5 243//5
f 250//6 246//6 244//6 248//6
f 251//1 252//1 254//1 253//1
f 253//2 254//2 258//2 257//2
f 257//3 258//3 256//3 255//3
f 255//4 256//4 252//4 251//4
f 253//5 257//5 255//5 251//5
f 258//6 254//6 252//6 256//6
f 267//1 268//1 270//1 269//1
f 269//2 270//2 274//2 273//2
f 273//3 274//3 272//3 271//3
f 271//4 272//4 268//4 267//4
f 269//5 273//5 271//5 267//5
f 274//6 270//6 268//6 272//6
f 275//1 276//1 278//1 277//1
f 277//2 278//2 282//2 281//2
f 281//3 282//3 280//3 279//3
f 279//4 280//4 276//4 275//4
f 277//5 281//5 279//5 275//5
f 282//6 278//6 276//6 280//6
f 283//1 284//1 286//1 285//1
f 285//2 286//2 290//2 289//2
f 289//3 290//3 288//3 287//3
f 287//4 288//4 284//4 283//4
f 285//5 289//5 287//5 283//5
f 290//6 286//6 284//6 288//6
f 299//1 300//1 302//1 301//1
f 301//2 302//2 306//2 305//2
f 305//3 306//3 304//3 303//3
f 303//4 304//4 300//4 299//4
f 301//5 305//5 303//5 299//5
f 306//6 302//6 300//6 304//6
f 307//1 308//1 310//1 309//1
f 309//2 310//2 314//2 313//2
f 313//3 314//3 312//3 311//3
f 311//4 312//4 308//4 307//4
f 309//5 313//5 311//5 307//5
f 314//6 310//6 308//6 312//6
usemtl EF_WoodDark
f 49//1 50//1 52//1 51//1
f 51//2 52//2 56//2 55//2
f 55//3 56//3 54//3 53//3
f 53//4 54//4 50//4 49//4
f 51//5 55//5 53//5 49//5
f 56//6 52//6 50//6 54//6
f 57//1 58//1 60//1 59//1
f 59//2 60//2 64//2 63//2
f 63//3 64//3 62//3 61//3
f 61//4 62//4 58//4 57//4
f 59//5 63//5 61//5 57//5
f 64//6 60//6 58//6 62//6
f 65//1 66//1 68//1 67//1
f 67//2 68//2 72//2 71//2
f 71//3 72//3 70//3 69//3
f 69//4 70//4 66//4 65//4
f 67//5 71//5 69//5 65//5
f 72//6 68//6 66//6 70//6
usemtl EF_Roof
f 75//9 76//9 78//9 77//9
f 77//2 78//2 82//2 81//2
f 81//10 82//10 80//10 79//10
f 79//4 80//4 76//4 75//4
f 77//11 81//11 79//11 75//11
f 82//8 78//8 76//8 80//8
f 83//12 84//12 86//12 85//12
f 85//2 86//2 90//2 89//2
f 89//13 90//13 88//13 87//13
f 87//4 88//4 84//4 83//4
f 85//14 89//14 87//14 83//14
f 90//7 86//7 84//7 88//7
f 91//1 92//1 94//1 93//1
f 93//2 94//2 98//2 97//2
f 97//3 98//3 96//3 95//3
f 95//4 96//4 92//4 91//4
f 93//5 97//5 95//5 91//5
f 98//6 94//6 92//6 96//6
usemtl EF_RoofDark
f 107//1 108//1 110//1 109//1
f 109//2 110//2 114//2 113//2
f 113//3 114//3 112//3 111//3
f 111//4 112//4 108//4 107//4
f 109//5 113//5 111//5 107//5
f 114//6 110//6 108//6 112//6
usemtl EF_Accent
f 115//1 116//1 118//1 117//1
f 117//2 118//2 122//2 121//2
f 121//3 122//3 120//3 119//3
f 119//4 120//4 116//4 115//4
f 117//5 121//5 119//5 115//5
f 122//6 118//6 116//6 120//6
f 317//16 318//16 320//16 319//16
f 385//3 371//3 372//3
f 319//17 320//17 322//17 321//17
f 321//18 322//18 324//18 323//18
f 386//1 388//1 387//1
f 323//20 324//20 326//20 325//20
f 325//22 326//22 328//22 327//22
f 327//21 328//21 330//21 329//21
f 329//23 330//23 332//23 331//23
f 331//24 332//24 334//24 333//24
f 385//4 388//4 386//4 371//4
f 333//25 334//25 336//25 335//25
f 335//27 336//27 338//27 337//27
f 320//4 318//4 340//4 338//4 336//4 334//4 332//4 330//4 328//4 326//4 324//4 322//4
f 372//28 387//28 388//28 385//28
f 337//29 338//29 340//29 339//29
f 339//30 340//30 318//30 317//30
f 317//2 319//2 321//2 323//2 325//2 327//2 329//2 331//2 333//2 335//2 337//2 339//2
f 371//31 386//31 387//31 372//31
usemtl EF_Glass
f 131//1 132//1 134//1 133//1
f 133//2 134//2 138//2 137//2
f 137//3 138//3 136//3 135//3
f 135//4 136//4 132//4 131//4
f 133//5 137//5 135//5 131//5
f 138//6 134//6 132//6 136//6
f 163//1 164//1 166//1 165//1
f 165//2 166//2 170//2 169//2
f 169//3 170//3 168//3 167//3
f 167//4 168//4 164//4 163//4
f 165//5 169//5 167//5 163//5
f 170//6 166//6 164//6 168//6
f 195//1 196//1 198//1 197//1
f 197//2 198//2 202//2 201//2
f 201//3 202//3 200//3 199//3
f 199//4 200//4 196//4 195//4
f 197//5 201//5 199//5 195//5
f 202//6 198//6 196//6 200//6
f 227//1 228//1 230//1 229//1
f 229//2 230//2 234//2 233//2
f 233//3 234//3 232//3 231//3
f 231//4 232//4 228//4 227//4
f 229//5 233//5 231//5 227//5
f 234//6 230//6 228//6 232//6
f 259//1 260//1 262//1 261//1
f 261//2 262//2 266//2 265//2
f 265//3 266//3 264//3 263//3
f 263//4 264//4 260//4 259//4
f 261//5 265//5 263//5 259//5
f 266//6 262//6 260//6 264//6
f 291//1 292//1 294//1 293//1
f 293//2 294//2 298//2 297//2
f 297//3 298//3 296//3 295//3
f 295//4 296//4 292//4 291//4
f 293//5 297//5 295//5 291//5
f 298//6 294//6 292//6 296//6
usemtl EF_Black
f 345//18 346//18 348//18 347//18
f 351//21 352//21 354//21 353//21
f 343//17 344//17 346//17 345//17
f 349//22 350//22 352//22 351//22
f 341//16 342//16 344//16 343//16
f 353//23 354//23 356//23 355//23
f 347//20 348//20 350//20 349//20
f 355//24 356//24 358//24 357//24
f 357//25 358//25 360//25 359//25
f 359//27 360//27 362//27 361//27
f 350//4 348//4 346//4 344//4 342//4 364//4 362//4 360//4 358//4 356//4 354//4 352//4
f 361//29 362//29 364//29 363//29
f 363//30 364//30 342//30 341//30
f 355//2 357//2 359//2 361//2 363//2 341//2 343//2 345//2 347//2 349//2 351//2 353//2
usemtl EF_GreyDark
f 377//15 378//15 380//15 379//15
f 373//19 374//19 376//19 375//19
f 381//5 383//5 373//5 375//5 377//5 379//5
f 379//26 380//26 382//26 381//26
f 381//1 382//1 384//1 383//1
f 375//3 376//3 378//3 377//3
f 383//32 384//32 374//32 373//32
f 376//6 374//6 384//6 382//6 380//6 378//6
