# Blender 5.0.1
# www.blender.org
mtllib HenTower.mtl
o HenTower
v 1.960000 0.000000 -1.960000
v 1.960000 2.240000 -1.960000
v 1.960000 0.000000 1.960000
v 1.960000 2.240000 1.960000
v -1.960000 0.000000 -1.960000
v -1.960000 2.240000 -1.960000
v -1.960000 0.000000 1.960000
v -1.960000 2.240000 1.960000
v 2.030000 0.000000 -2.030000
v 2.030000 2.240000 -2.030000
v 2.030000 0.000000 -1.890000
v 2.030000 2.240000 -1.890000
v 1.890000 0.000000 -2.030000
v 1.890000 2.240000 -2.030000
v 1.890000 0.000000 -1.890000
v 1.890000 2.240000 -1.890000
v 2.030000 0.000000 1.890000
v 2.030000 2.240000 1.890000
v 2.030000 0.000000 2.030000
v 2.030000 2.240000 2.030000
v 1.890000 0.000000 1.890000
v 1.890000 2.240000 1.890000
v 1.890000 0.000000 2.030000
v 1.890000 2.240000 2.030000
v -1.890000 0.000000 -2.030000
v -1.890000 2.240000 -2.030000
v -1.890000 0.000000 -1.890000
v -1.890000 2.240000 -1.890000
v -2.030000 0.000000 -2.030000
v -2.030000 2.240000 -2.030000
v -2.030000 0.000000 -1.890000
v -2.030000 2.240000 -1.890000
v -1.890000 0.000000 1.890000
v -1.890000 2.240000 1.890000
v -1.890000 0.000000 2.030000
v -1.890000 2.240000 2.030000
v -2.030000 0.000000 1.890000
v -2.030000 2.240000 1.890000
v -2.030000 0.000000 2.030000
v -2.030000 2.240000 2.030000
v 2.184000 2.240000 -2.184000
v 2.184000 2.380000 -2.184000
v 2.184000 2.240000 2.184000
v -2.184000 2.240000 -2.184000
v -2.184000 2.380000 -2.184000
v -2.184000 2.240000 2.184000
v 2.184000 2.520000 -2.177000
v 2.184000 2.562000 -2.177000
v 2.184000 2.520000 -2.135000
v 2.184000 2.562000 -2.135000
v -2.184000 2.520000 -2.177000
v -2.184000 2.562000 -2.177000
v -2.184000 2.520000 -2.135000
v -2.184000 2.562000 -2.135000
v 2.177000 2.520000 -2.184000
v 2.177000 2.562000 -2.184000
v 2.177000 2.520000 2.184000
v 2.177000 2.562000 2.184000
v 2.135000 2.520000 -2.184000
v 2.135000 2.562000 -2.184000
v 2.135000 2.520000 2.184000
v 2.135000 2.562000 2.184000
v 2.184000 2.520000 2.135000
v 2.184000 2.562000 2.135000
v 2.184000 2.520000 2.177000
v 2.184000 2.562000 2.177000
v -2.184000 2.520000 2.135000
v -2.184000 2.562000 2.135000
v -2.184000 2.520000 2.177000
v -2.184000 2.562000 2.177000
v -2.135000 2.520000 -2.184000
v -2.135000 2.562000 -2.184000
v -2.135000 2.520000 2.184000
v -2.135000 2.562000 2.184000
v -2.177000 2.520000 -2.184000
v -2.177000 2.562000 -2.184000
v -2.177000 2.520000 2.184000
v -2.177000 2.562000 2.184000
v 2.184000 2.660000 -2.184000
v 2.184000 2.380000 -2.128000
v 2.184000 2.660000 -2.128000
v 2.128000 2.380000 -2.184000
v 2.128000 2.660000 -2.184000
v 2.128000 2.380000 -2.128000
v 2.128000 2.660000 -2.128000
v 2.184000 2.380000 2.128000
v 2.184000 2.660000 2.128000
v 2.184000 2.380000 2.184000
v 2.184000 2.660000 2.184000
v 2.128000 2.380000 2.128000
v 2.128000 2.660000 2.128000
v 2.128000 2.380000 2.184000
v 2.128000 2.660000 2.184000
v -2.128000 2.380000 -2.184000
v -2.128000 2.660000 -2.184000
v -2.128000 2.380000 -2.128000
v -2.128000 2.660000 -2.128000
v -2.184000 2.660000 -2.184000
v -2.184000 2.380000 -2.128000
v -2.184000 2.660000 -2.128000
v -2.128000 2.380000 2.128000
v -2.128000 2.660000 2.128000
v -2.128000 2.380000 2.184000
v -2.128000 2.660000 2.184000
v -2.184000 2.380000 2.128000
v -2.184000 2.660000 2.128000
v -2.184000 2.380000 2.184000
v -2.184000 2.660000 2.184000
v 1.274000 0.910000 -2.030000
v 1.274000 1.554000 -2.030000
v 1.274000 0.910000 -1.960000
v 1.274000 1.554000 -1.960000
v 0.686000 0.910000 -2.030000
v 0.686000 1.554000 -2.030000
v 0.686000 0.910000 -1.960000
v 0.686000 1.554000 -1.960000
v 1.204000 0.980000 -2.065000
v 1.204000 1.484000 -2.065000
v 1.204000 0.980000 -1.995000
v 1.204000 1.484000 -1.995000
v 0.756000 0.980000 -2.065000
v 0.756000 1.484000 -2.065000
v 0.756000 0.980000 -1.995000
v 0.756000 1.484000 -1.995000
v 1.204000 1.206800 -2.093000
v 1.204000 1.257200 -2.093000
v 1.204000 1.206800 -1.981000
v 1.204000 1.257200 -1.981000
v 0.756000 1.206800 -2.093000
v 0.756000 1.257200 -2.093000
v 0.756000 1.206800 -1.981000
v 0.756000 1.257200 -1.981000
v 1.005200 0.980000 -2.093000
v 1.005200 1.484000 -2.093000
v 1.005200 0.980000 -1.981000
v 1.005200 1.484000 -1.981000
v 0.954800 0.980000 -2.093000
v 0.954800 1.484000 -2.093000
v 0.954800 0.980000 -1.981000
v 0.954800 1.484000 -1.981000
v -0.686000 0.910000 -2.030000
v -0.686000 1.554000 -2.030000
v -0.686000 0.910000 -1.960000
v -0.686000 1.554000 -1.960000
v -1.274000 0.910000 -2.030000
v -1.274000 1.554000 -2.030000
v -1.274000 0.910000 -1.960000
v -1.274000 1.554000 -1.960000
v -0.756000 0.980000 -2.065000
v -0.756000 1.484000 -2.065000
v -0.756000 0.980000 -1.995000
v -0.756000 1.484000 -1.995000
v -1.204000 0.980000 -2.065000
v -1.204000 1.484000 -2.065000
v -1.204000 0.980000 -1.995000
v -1.204000 1.484000 -1.995000
v -0.756000 1.206800 -2.093000
v -0.756000 1.257200 -2.093000
v -0.756000 1.206800 -1.981000
v -0.756000 1.257200 -1.981000
v -1.204000 1.206800 -2.093000
v -1.204000 1.257200 -2.093000
v -1.204000 1.206800 -1.981000
v -1.204000 1.257200 -1.981000
v -0.954800 0.980000 -2.093000
v -0.954800 1.484000 -2.093000
v -0.954800 0.980000 -1.981000
v -0.954800 1.484000 -1.981000
v -1.005200 0.980000 -2.093000
v -1.005200 1.484000 -2.093000
v -1.005200 0.980000 -1.981000
v -1.005200 1.484000 -1.981000
v -1.960000 0.910000 -0.294000
v -1.960000 1.554000 -0.294000
v -1.960000 0.910000 0.294000
v -1.960000 1.554000 0.294000
v -2.030000 0.910000 -0.294000
v -2.030000 1.554000 -0.294000
v -2.030000 0.910000 0.294000
v -2.030000 1.554000 0.294000
v -1.995000 0.980000 -0.224000
v -1.995000 1.484000 -0.224000
v -1.995000 0.980000 0.224000
v -1.995000 1.484000 0.224000
v -2.065000 0.980000 -0.224000
v -2.065000 1.484000 -0.224000
v -2.065000 0.980000 0.224000
v -2.065000 1.484000 0.224000
v -1.981000 1.206800 -0.224000
v -1.981000 1.257200 -0.224000
v -1.981000 1.206800 0.224000
v -1.981000 1.257200 0.224000
v -2.093000 1.206800 -0.224000
v -2.093000 1.257200 -0.224000
v -2.093000 1.206800 0.224000
v -2.093000 1.257200 0.224000
v -1.981000 0.980000 -0.025200
v -1.981000 1.484000 -0.025200
v -1.981000 0.980000 0.025200
v -1.981000 1.484000 0.025200
v -2.093000 0.980000 -0.025200
v -2.093000 1.484000 -0.025200
v -2.093000 0.980000 0.025200
v -2.093000 1.484000 0.025200
v 2.030000 0.910000 -0.294000
v 2.030000 1.554000 -0.294000
v 2.030000 0.910000 0.294000
v 2.030000 1.554000 0.294000
v 1.960000 0.910000 -0.294000
v 1.960000 1.554000 -0.294000
v 1.960000 0.910000 0.294000
v 1.960000 1.554000 0.294000
v 2.065000 0.980000 -0.224000
v 2.065000 1.484000 -0.224000
v 2.065000 0.980000 0.224000
v 2.065000 1.484000 0.224000
v 1.995000 0.980000 -0.224000
v 1.995000 1.484000 -0.224000
v 1.995000 0.980000 0.224000
v 1.995000 1.484000 0.224000
v 2.093000 1.206800 -0.224000
v 2.093000 1.257200 -0.224000
v 2.093000 1.206800 0.224000
v 2.093000 1.257200 0.224000
v 1.981000 1.206800 -0.224000
v 1.981000 1.257200 -0.224000
v 1.981000 1.206800 0.224000
v 1.981000 1.257200 0.224000
v 2.093000 0.980000 -0.025200
v 2.093000 1.484000 -0.025200
v 2.093000 0.980000 0.025200
v 2.093000 1.484000 0.025200
v 1.981000 0.980000 -0.025200
v 1.981000 1.484000 -0.025200
v 1.981000 0.980000 0.025200
v 1.981000 1.484000 0.025200
v 1.680000 2.380000 -1.680000
v 1.680000 4.480000 -1.680000
v 1.680000 2.380000 1.680000
v 1.680000 4.480000 1.680000
v -1.680000 2.380000 -1.680000
v -1.680000 4.480000 -1.680000
v -1.680000 2.380000 1.680000
v -1.680000 4.480000 1.680000
v 1.750000 2.380000 -1.750000
v 1.750000 4.480000 -1.750000
v 1.750000 2.380000 -1.610000
v 1.750000 4.480000 -1.610000
v 1.610000 2.380000 -1.750000
v 1.610000 4.480000 -1.750000
v 1.610000 2.380000 -1.610000
v 1.610000 4.480000 -1.610000
v 1.750000 2.380000 1.610000
v 1.750000 4.480000 1.610000
v 1.750000 2.380000 1.750000
v 1.750000 4.480000 1.750000
v 1.610000 2.380000 1.610000
v 1.610000 4.480000 1.610000
v 1.610000 2.380000 1.750000
v 1.610000 4.480000 1.750000
v -1.610000 2.380000 -1.750000
v -1.610000 4.480000 -1.750000
v -1.610000 2.380000 -1.610000
v -1.610000 4.480000 -1.610000
v -1.750000 2.380000 -1.750000
v -1.750000 4.480000 -1.750000
v -1.750000 2.380000 -1.610000
v -1.750000 4.480000 -1.610000
v -1.610000 2.380000 1.610000
v -1.610000 4.480000 1.610000
v -1.610000 2.380000 1.750000
v -1.610000 4.480000 1.750000
v -1.750000 2.380000 1.610000
v -1.750000 4.480000 1.610000
v -1.750000 2.380000 1.750000
v -1.750000 4.480000 1.750000
v 1.904000 4.480000 -1.904000
v 1.904000 4.620000 -1.904000
v 1.904000 4.480000 1.904000
v 1.904000 4.620000 1.904000
v -1.904000 4.480000 -1.904000
v -1.904000 4.620000 -1.904000
v -1.904000 4.480000 1.904000
v 1.904000 4.760000 -1.897000
v 1.904000 4.802001 -1.897000
v 1.904000 4.760000 -1.855000
v 1.904000 4.802001 -1.855000
v -1.904000 4.760000 -1.897000
v -1.904000 4.802001 -1.897000
v -1.904000 4.760000 -1.855000
v -1.904000 4.802001 -1.855000
v 1.897000 4.760000 -1.904000
v 1.897000 4.802001 -1.904000
v 1.897000 4.760000 1.904000
v 1.897000 4.802001 1.904000
v 1.855000 4.760000 -1.904000
v 1.855000 4.802001 -1.904000
v 1.855000 4.760000 1.904000
v 1.855000 4.802001 1.904000
v 1.904000 4.760000 1.855000
v 1.904000 4.802001 1.855000
v 1.904000 4.760000 1.897000
v 1.904000 4.802001 1.897000
v -1.904000 4.760000 1.855000
v -1.904000 4.802001 1.855000
v -1.904000 4.760000 1.897000
v -1.904000 4.802001 1.897000
v -1.855000 4.760000 -1.904000
v -1.855000 4.802001 -1.904000
v -1.855000 4.760000 1.904000
v -1.855000 4.802001 1.904000
v -1.897000 4.760000 -1.904000
v -1.897000 4.802001 -1.904000
v -1.897000 4.760000 1.904000
v -1.897000 4.802001 1.904000
v 1.904000 4.900000 -1.904000
v 1.904000 4.620000 -1.848000
v 1.904000 4.900000 -1.848000
v 1.848000 4.620000 -1.904000
v 1.848000 4.900000 -1.904000
v 1.848000 4.620000 -1.848000
v 1.848000 4.900000 -1.848000
v 1.904000 4.620000 1.848000
v 1.904000 4.900000 1.848000
v 1.904000 4.900000 1.904000
v 1.848000 4.620000 1.848000
v 1.848000 4.900000 1.848000
v 1.848000 4.620000 1.904000
v 1.848000 4.900000 1.904000
v -1.848000 4.620000 -1.904000
v -1.848000 4.900000 -1.904000
v -1.848000 4.620000 -1.848000
v -1.848000 4.900000 -1.848000
v -1.904000 4.900000 -1.904000
v -1.904000 4.620000 -1.848000
v -1.904000 4.900000 -1.848000
v -1.848000 4.620000 1.848000
v -1.848000 4.900000 1.848000
v -1.848000 4.620000 1.904000
v -1.848000 4.900000 1.904000
v -1.904000 4.620000 1.848000
v -1.904000 4.900000 1.848000
v -1.904000 4.620000 1.904000
v -1.904000 4.900000 1.904000
v 1.134000 3.213000 -1.750000
v 1.134000 3.857000 -1.750000
v 1.134000 3.213000 -1.680000
v 1.134000 3.857000 -1.680000
v 0.546000 3.213000 -1.750000
v 0.546000 3.857000 -1.750000
v 0.546000 3.213000 -1.680000
v 0.546000 3.857000 -1.680000
v 1.064000 3.283000 -1.785000
v 1.064000 3.787000 -1.785000
v 1.064000 3.283000 -1.715000
v 1.064000 3.787000 -1.715000
v 0.616000 3.283000 -1.785000
v 0.616000 3.787000 -1.785000
v 0.616000 3.283000 -1.715000
v 0.616000 3.787000 -1.715000
v 1.064000 3.509800 -1.813000
v 1.064000 3.560200 -1.813000
v 1.064000 3.509800 -1.701000
v 1.064000 3.560200 -1.701000
v 0.616000 3.509800 -1.813000
v 0.616000 3.560200 -1.813000
v 0.616000 3.509800 -1.701000
v 0.616000 3.560200 -1.701000
v 0.865200 3.283000 -1.813000
v 0.865200 3.787000 -1.813000
v 0.865200 3.283000 -1.701000
v 0.865200 3.787000 -1.701000
v 0.814800 3.283000 -1.813000
v 0.814800 3.787000 -1.813000
v 0.814800 3.283000 -1.701000
v 0.814800 3.787000 -1.701000
v -0.546000 3.213000 -1.750000
v -0.546000 3.857000 -1.750000
v -0.546000 3.213000 -1.680000
v -0.546000 3.857000 -1.680000
v -1.134000 3.213000 -1.750000
v -1.134000 3.857000 -1.750000
v -1.134000 3.213000 -1.680000
v -1.134000 3.857000 -1.680000
v -0.616000 3.283000 -1.785000
v -0.616000 3.787000 -1.785000
v -0.616000 3.283000 -1.715000
v -0.616000 3.787000 -1.715000
v -1.064000 3.283000 -1.785000
v -1.064000 3.787000 -1.785000
v -1.064000 3.283000 -1.715000
v -1.064000 3.787000 -1.715000
v -0.616000 3.509800 -1.813000
v -0.616000 3.560200 -1.813000
v -0.616000 3.509800 -1.701000
v -0.616000 3.560200 -1.701000
v -1.064000 3.509800 -1.813000
v -1.064000 3.560200 -1.813000
v -1.064000 3.509800 -1.701000
v -1.064000 3.560200 -1.701000
v -0.814800 3.283000 -1.813000
v -0.814800 3.787000 -1.813000
v -0.814800 3.283000 -1.701000
v -0.814800 3.787000 -1.701000
v -0.865200 3.283000 -1.813000
v -0.865200 3.787000 -1.813000
v -0.865200 3.283000 -1.701000
v -0.865200 3.787000 -1.701000
v -1.680000 3.213000 -0.294000
v -1.680000 3.857000 -0.294000
v -1.680000 3.213000 0.294000
v -1.680000 3.857000 0.294000
v -1.750000 3.213000 -0.294000
v -1.750000 3.857000 -0.294000
v -1.750000 3.213000 0.294000
v -1.750000 3.857000 0.294000
v -1.715000 3.283000 -0.224000
v -1.715000 3.787000 -0.224000
v -1.715000 3.283000 0.224000
v -1.715000 3.787000 0.224000
v -1.785000 3.283000 -0.224000
v -1.785000 3.787000 -0.224000
v -1.785000 3.283000 0.224000
v -1.785000 3.787000 0.224000
v -1.701000 3.509800 -0.224000
v -1.701000 3.560200 -0.224000
v -1.701000 3.509800 0.224000
v -1.701000 3.560200 0.224000
v -1.813000 3.509800 -0.224000
v -1.813000 3.560200 -0.224000
v -1.813000 3.509800 0.224000
v -1.813000 3.560200 0.224000
v -1.701000 3.283000 -0.025200
v -1.701000 3.787000 -0.025200
v -1.701000 3.283000 0.025200
v -1.701000 3.787000 0.025200
v -1.813000 3.283000 -0.025200
v -1.813000 3.787000 -0.025200
v -1.813000 3.283000 0.025200
v -1.813000 3.787000 0.025200
v 1.750000 3.213000 -0.294000
v 1.750000 3.857000 -0.294000
v 1.750000 3.213000 0.294000
v 1.750000 3.857000 0.294000
v 1.680000 3.213000 -0.294000
v 1.680000 3.857000 -0.294000
v 1.680000 3.213000 0.294000
v 1.680000 3.857000 0.294000
v 1.785000 3.283000 -0.224000
v 1.785000 3.787000 -0.224000
v 1.785000 3.283000 0.224000
v 1.785000 3.787000 0.224000
v 1.715000 3.283000 -0.224000
v 1.715000 3.787000 -0.224000
v 1.715000 3.283000 0.224000
v 1.715000 3.787000 0.224000
v 1.813000 3.509800 -0.224000
v 1.813000 3.560200 -0.224000
v 1.813000 3.509800 0.224000
v 1.813000 3.560200 0.224000
v 1.701000 3.509800 -0.224000
v 1.701000 3.560200 -0.224000
v 1.701000 3.509800 0.224000
v 1.701000 3.560200 0.224000
v 1.813000 3.283000 -0.025200
v 1.813000 3.787000 -0.025200
v 1.813000 3.283000 0.025200
v 1.813000 3.787000 0.025200
v 1.701000 3.283000 -0.025200
v 1.701000 3.787000 -0.025200
v 1.701000 3.283000 0.025200
v 1.701000 3.787000 0.025200
v 1.400000 4.620000 -1.400000
v 1.400000 6.580000 -1.400000
v 1.400000 4.620000 1.400000
v 1.400000 6.580000 1.400000
v -1.400000 4.620000 -1.400000
v -1.400000 6.580000 -1.400000
v -1.400000 4.620000 1.400000
v -1.400000 6.580000 1.400000
v 1.470000 4.620000 -1.470000
v 1.470000 6.580000 -1.470000
v 1.470000 4.620000 -1.330000
v 1.470000 6.580000 -1.330000
v 1.330000 4.620000 -1.470000
v 1.330000 6.580000 -1.470000
v 1.330000 4.620000 -1.330000
v 1.330000 6.580000 -1.330000
v 1.470000 4.620000 1.330000
v 1.470000 6.580000 1.330000
v 1.470000 4.620000 1.470000
v 1.470000 6.580000 1.470000
v 1.330000 4.620000 1.330000
v 1.330000 6.580000 1.330000
v 1.330000 4.620000 1.470000
v 1.330000 6.580000 1.470000
v -1.330000 4.620000 -1.470000
v -1.330000 6.580000 -1.470000
v -1.330000 4.620000 -1.330000
v -1.330000 6.580000 -1.330000
v -1.470000 4.620000 -1.470000
v -1.470000 6.580000 -1.470000
v -1.470000 4.620000 -1.330000
v -1.470000 6.580000 -1.330000
v -1.330000 4.620000 1.330000
v -1.330000 6.580000 1.330000
v -1.330000 4.620000 1.470000
v -1.330000 6.580000 1.470000
v -1.470000 4.620000 1.330000
v -1.470000 6.580000 1.330000
v -1.470000 4.620000 1.470000
v -1.470000 6.580000 1.470000
v 1.624000 6.580000 -1.624000
v 1.624000 6.720000 -1.624000
v 1.624000 6.580000 1.624000
v -1.624000 6.580000 -1.624000
v -1.624000 6.720000 -1.624000
v -1.624000 6.580000 1.624000
v 1.624000 6.860000 -1.617000
v 1.624000 6.902000 -1.617000
v 1.624000 6.860000 -1.575000
v 1.624000 6.902000 -1.575000
v -1.624000 6.860000 -1.617000
v -1.624000 6.902000 -1.617000
v -1.624000 6.860000 -1.575000
v -1.624000 6.902000 -1.575000
v 1.617000 6.860000 -1.624000
v 1.617000 6.902000 -1.624000
v 1.617000 6.860000 1.624000
v 1.617000 6.902000 1.624000
v 1.575000 6.860000 -1.624000
v 1.575000 6.902000 -1.624000
v 1.575000 6.860000 1.624000
v 1.575000 6.902000 1.624000
v 1.624000 6.860000 1.575000
v 1.624000 6.902000 1.575000
v 1.624000 6.860000 1.617000
v 1.624000 6.902000 1.617000
v -1.624000 6.860000 1.575000
v -1.624000 6.902000 1.575000
v -1.624000 6.860000 1.617000
v -1.624000 6.902000 1.617000
v -1.575000 6.860000 -1.624000
v -1.575000 6.902000 -1.624000
v -1.575000 6.860000 1.624000
v -1.575000 6.902000 1.624000
v -1.617000 6.860000 -1.624000
v -1.617000 6.902000 -1.624000
v -1.617000 6.860000 1.624000
v -1.617000 6.902000 1.624000
v 1.624000 7.000000 -1.624000
v 1.624000 6.720000 -1.568000
v 1.624000 7.000000 -1.568000
v 1.568000 6.720000 -1.624000
v 1.568000 7.000000 -1.624000
v 1.568000 6.720000 -1.568000
v 1.568000 7.000000 -1.568000
v 1.624000 6.720000 1.568000
v 1.624000 7.000000 1.568000
v 1.624000 6.720000 1.624000
v 1.624000 7.000000 1.624000
v 1.568000 6.720000 1.568000
v 1.568000 7.000000 1.568000
v 1.568000 6.720000 1.624000
v 1.568000 7.000000 1.624000
v -1.568000 6.720000 -1.624000
v -1.568000 7.000000 -1.624000
v -1.568000 6.720000 -1.568000
v -1.568000 7.000000 -1.568000
v -1.624000 7.000000 -1.624000
v -1.624000 6.720000 -1.568000
v -1.624000 7.000000 -1.568000
v -1.568000 6.720000 1.568000
v -1.568000 7.000000 1.568000
v -1.568000 6.720000 1.624000
v -1.568000 7.000000 1.624000
v -1.624000 6.720000 1.568000
v -1.624000 7.000000 1.568000
v -1.624000 6.720000 1.624000
v -1.624000 7.000000 1.624000
v 0.994000 5.376000 -1.470000
v 0.994000 6.020000 -1.470000
v 0.994000 5.376000 -1.400000
v 0.994000 6.020000 -1.400000
v 0.406000 5.376000 -1.470000
v 0.406000 6.020000 -1.470000
v 0.406000 5.376000 -1.400000
v 0.406000 6.020000 -1.400000
v 0.924000 5.446000 -1.505000
v 0.924000 5.950000 -1.505000
v 0.924000 5.446000 -1.435000
v 0.924000 5.950000 -1.435000
v 0.476000 5.446000 -1.505000
v 0.476000 5.950000 -1.505000
v 0.476000 5.446000 -1.435000
v 0.476000 5.950000 -1.435000
v 0.924000 5.672800 -1.533000
v 0.924000 5.723200 -1.533000
v 0.924000 5.672800 -1.421000
v 0.924000 5.723200 -1.421000
v 0.476000 5.672800 -1.533000
v 0.476000 5.723200 -1.533000
v 0.476000 5.672800 -1.421000
v 0.476000 5.723200 -1.421000
v 0.725200 5.446000 -1.533000
v 0.725200 5.950000 -1.533000
v 0.725200 5.446000 -1.421000
v 0.725200 5.950000 -1.421000
v 0.674800 5.446000 -1.533000
v 0.674800 5.950000 -1.533000
v 0.674800 5.446000 -1.421000
v 0.674800 5.950000 -1.421000
v -0.406000 5.376000 -1.470000
v -0.406000 6.020000 -1.470000
v -0.406000 5.376000 -1.400000
v -0.406000 6.020000 -1.400000
v -0.994000 5.376000 -1.470000
v -0.994000 6.020000 -1.470000
v -0.994000 5.376000 -1.400000
v -0.994000 6.020000 -1.400000
v -0.476000 5.446000 -1.505000
v -0.476000 5.950000 -1.505000
v -0.476000 5.446000 -1.435000
v -0.476000 5.950000 -1.435000
v -0.924000 5.446000 -1.505000
v -0.924000 5.950000 -1.505000
v -0.924000 5.446000 -1.435000
v -0.924000 5.950000 -1.435000
v -0.476000 5.672800 -1.533000
v -0.476000 5.723200 -1.533000
v -0.476000 5.672800 -1.421000
v -0.476000 5.723200 -1.421000
v -0.924000 5.672800 -1.533000
v -0.924000 5.723200 -1.533000
v -0.924000 5.672800 -1.421000
v -0.924000 5.723200 -1.421000
v -0.674800 5.446000 -1.533000
v -0.674800 5.950000 -1.533000
v -0.674800 5.446000 -1.421000
v -0.674800 5.950000 -1.421000
v -0.725200 5.446000 -1.533000
v -0.725200 5.950000 -1.533000
v -0.725200 5.446000 -1.421000
v -0.725200 5.950000 -1.421000
v -1.400000 5.376000 -0.294000
v -1.400000 6.020000 -0.294000
v -1.400000 5.376000 0.294000
v -1.400000 6.020000 0.294000
v -1.470000 5.376000 -0.294000
v -1.470000 6.020000 -0.294000
v -1.470000 5.376000 0.294000
v -1.470000 6.020000 0.294000
v -1.435000 5.446000 -0.224000
v -1.435000 5.950000 -0.224000
v -1.435000 5.446000 0.224000
v -1.435000 5.950000 0.224000
v -1.505000 5.446000 -0.224000
v -1.505000 5.950000 -0.224000
v -1.505000 5.446000 0.224000
v -1.505000 5.950000 0.224000
v -1.421000 5.672800 -0.224000
v -1.421000 5.723200 -0.224000
v -1.421000 5.672800 0.224000
v -1.421000 5.723200 0.224000
v -1.533000 5.672800 -0.224000
v -1.533000 5.723200 -0.224000
v -1.533000 5.672800 0.224000
v -1.533000 5.723200 0.224000
v -1.421000 5.446000 -0.025200
v -1.421000 5.950000 -0.025200
v -1.421000 5.446000 0.025200
v -1.421000 5.950000 0.025200
v -1.533000 5.446000 -0.025200
v -1.533000 5.950000 -0.025200
v -1.533000 5.446000 0.025200
v -1.533000 5.950000 0.025200
v 1.470000 5.376000 -0.294000
v 1.470000 6.020000 -0.294000
v 1.470000 5.376000 0.294000
v 1.470000 6.020000 0.294000
v 1.400000 5.376000 -0.294000
v 1.400000 6.020000 -0.294000
v 1.400000 5.376000 0.294000
v 1.400000 6.020000 0.294000
v 1.505000 5.446000 -0.224000
v 1.505000 5.950000 -0.224000
v 1.505000 5.446000 0.224000
v 1.505000 5.950000 0.224000
v 1.435000 5.446000 -0.224000
v 1.435000 5.950000 -0.224000
v 1.435000 5.446000 0.224000
v 1.435000 5.950000 0.224000
v 1.533000 5.672800 -0.224000
v 1.533000 5.723200 -0.224000
v 1.533000 5.672800 0.224000
v 1.533000 5.723200 0.224000
v 1.421000 5.672800 -0.224000
v 1.421000 5.723200 -0.224000
v 1.421000 5.672800 0.224000
v 1.421000 5.723200 0.224000
v 1.533000 5.446000 -0.025200
v 1.533000 5.950000 -0.025200
v 1.533000 5.446000 0.025200
v 1.533000 5.950000 0.025200
v 1.421000 5.446000 -0.025200
v 1.421000 5.950000 -0.025200
v 1.421000 5.446000 0.025200
v 1.421000 5.950000 0.025200
v 1.120000 6.720000 -1.120000
v 1.120000 8.540000 -1.120000
v 1.120000 6.720000 1.120000
v 1.120000 8.540000 1.120000
v -1.120000 6.720000 -1.120000
v -1.120000 8.540000 -1.120000
v -1.120000 6.720000 1.120000
v -1.120000 8.540000 1.120000
v 1.190000 6.720000 -1.190000
v 1.190000 8.540000 -1.190000
v 1.190000 6.720000 -1.050000
v 1.190000 8.540000 -1.050000
v 1.050000 6.720000 -1.190000
v 1.050000 8.540000 -1.190000
v 1.050000 6.720000 -1.050000
v 1.050000 8.540000 -1.050000
v 1.190000 6.720000 1.050000
v 1.190000 8.540000 1.050000
v 1.190000 6.720000 1.190000
v 1.190000 8.540000 1.190000
v 1.050000 6.720000 1.050000
v 1.050000 8.540000 1.050000
v 1.050000 6.720000 1.190000
v 1.050000 8.540000 1.190000
v -1.050000 6.720000 -1.190000
v -1.050000 8.540000 -1.190000
v -1.050000 6.720000 -1.050000
v -1.050000 8.540000 -1.050000
v -1.190000 6.720000 -1.190000
v -1.190000 8.540000 -1.190000
v -1.190000 6.720000 -1.050000
v -1.190000 8.540000 -1.050000
v -1.050000 6.720000 1.050000
v -1.050000 8.540000 1.050000
v -1.050000 6.720000 1.190000
v -1.050000 8.540000 1.190000
v -1.190000 6.720000 1.050000
v -1.190000 8.540000 1.050000
v -1.190000 6.720000 1.190000
v -1.190000 8.540000 1.190000
v 1.344000 8.540000 -1.344000
v 1.344000 8.680000 -1.344000
v 1.344000 8.540000 1.344000
v 1.344000 8.680000 1.344000
v -1.344000 8.540000 -1.344000
v -1.344000 8.680000 -1.344000
v -1.344000 8.540000 1.344000
v 1.344000 8.820000 -1.337000
v 1.344000 8.862000 -1.337000
v 1.344000 8.820000 -1.295000
v 1.344000 8.862000 -1.295000
v -1.344000 8.820000 -1.337000
v -1.344000 8.862000 -1.337000
v -1.344000 8.820000 -1.295000
v -1.344000 8.862000 -1.295000
v 1.337000 8.820000 -1.344000
v 1.337000 8.862000 -1.344000
v 1.337000 8.820000 1.344000
v 1.337000 8.862000 1.344000
v 1.295000 8.820000 -1.344000
v 1.295000 8.862000 -1.344000
v 1.295000 8.820000 1.344000
v 1.295000 8.862000 1.344000
v 1.344000 8.820000 1.295000
v 1.344000 8.862000 1.295000
v 1.344000 8.820000 1.337000
v 1.344000 8.862000 1.337000
v -1.344000 8.820000 1.295000
v -1.344000 8.862000 1.295000
v -1.344000 8.820000 1.337000
v -1.344000 8.862000 1.337000
v -1.295000 8.820000 -1.344000
v -1.295000 8.862000 -1.344000
v -1.295000 8.820000 1.344000
v -1.295000 8.862000 1.344000
v -1.337000 8.820000 -1.344000
v -1.337000 8.862000 -1.344000
v -1.337000 8.820000 1.344000
v -1.337000 8.862000 1.344000
v 1.344000 8.960000 -1.344000
v 1.344000 8.680000 -1.288000
v 1.344000 8.960000 -1.288000
v 1.288000 8.680000 -1.344000
v 1.288000 8.960000 -1.344000
v 1.288000 8.680000 -1.288000
v 1.288000 8.960000 -1.288000
v 1.344000 8.680000 1.288000
v 1.344000 8.960000 1.288000
v 1.344000 8.960000 1.344000
v 1.288000 8.680000 1.288000
v 1.288000 8.960000 1.288000
v 1.288000 8.680000 1.344000
v 1.288000 8.960000 1.344000
v -1.288000 8.680000 -1.344000
v -1.288000 8.960000 -1.344000
v -1.288000 8.680000 -1.288000
v -1.288000 8.960000 -1.288000
v -1.344000 8.960000 -1.344000
v -1.344000 8.680000 -1.288000
v -1.344000 8.960000 -1.288000
v -1.288000 8.680000 1.288000
v -1.288000 8.960000 1.288000
v -1.288000 8.680000 1.344000
v -1.288000 8.960000 1.344000
v -1.344000 8.680000 1.288000
v -1.344000 8.960000 1.288000
v -1.344000 8.680000 1.344000
v -1.344000 8.960000 1.344000
v 0.854000 7.399000 -1.190000
v 0.854000 8.043000 -1.190000
v 0.854000 7.399000 -1.120000
v 0.854000 8.043000 -1.120000
v 0.266000 7.399000 -1.190000
v 0.266000 8.043000 -1.190000
v 0.266000 7.399000 -1.120000
v 0.266000 8.043000 -1.120000
v 0.784000 7.469000 -1.225000
v 0.784000 7.973000 -1.225000
v 0.784000 7.469000 -1.155000
v 0.784000 7.973000 -1.155000
v 0.336000 7.469000 -1.225000
v 0.336000 7.973000 -1.225000
v 0.336000 7.469000 -1.155000
v 0.336000 7.973000 -1.155000
v 0.784000 7.695800 -1.253000
v 0.784000 7.746200 -1.253000
v 0.784000 7.695800 -1.141000
v 0.784000 7.746200 -1.141000
v 0.336000 7.695800 -1.253000
v 0.336000 7.746200 -1.253000
v 0.336000 7.695800 -1.141000
v 0.336000 7.746200 -1.141000
v 0.585200 7.469000 -1.253000
v 0.585200 7.973000 -1.253000
v 0.585200 7.469000 -1.141000
v 0.585200 7.973000 -1.141000
v 0.534800 7.469000 -1.253000
v 0.534800 7.973000 -1.253000
v 0.534800 7.469000 -1.141000
v 0.534800 7.973000 -1.141000
v -0.266000 7.399000 -1.190000
v -0.266000 8.043000 -1.190000
v -0.266000 7.399000 -1.120000
v -0.266000 8.043000 -1.120000
v -0.854000 7.399000 -1.190000
v -0.854000 8.043000 -1.190000
v -0.854000 7.399000 -1.120000
v -0.854000 8.043000 -1.120000
v -0.336000 7.469000 -1.225000
v -0.336000 7.973000 -1.225000
v -0.336000 7.469000 -1.155000
v -0.336000 7.973000 -1.155000
v -0.784000 7.469000 -1.225000
v -0.784000 7.973000 -1.225000
v -0.784000 7.469000 -1.155000
v -0.784000 7.973000 -1.155000
v -0.336000 7.695800 -1.253000
v -0.336000 7.746200 -1.253000
v -0.336000 7.695800 -1.141000
v -0.336000 7.746200 -1.141000
v -0.784000 7.695800 -1.253000
v -0.784000 7.746200 -1.253000
v -0.784000 7.695800 -1.141000
v -0.784000 7.746200 -1.141000
v -0.534800 7.469000 -1.253000
v -0.534800 7.973000 -1.253000
v -0.534800 7.469000 -1.141000
v -0.534800 7.973000 -1.141000
v -0.585200 7.469000 -1.253000
v -0.585200 7.973000 -1.253000
v -0.585200 7.469000 -1.141000
v -0.585200 7.973000 -1.141000
v -1.120000 7.399000 -0.294000
v -1.120000 8.043000 -0.294000
v -1.120000 7.399000 0.294000
v -1.120000 8.043000 0.294000
v -1.190000 7.399000 -0.294000
v -1.190000 8.043000 -0.294000
v -1.190000 7.399000 0.294000
v -1.190000 8.043000 0.294000
v -1.155000 7.469000 -0.224000
v -1.155000 7.973000 -0.224000
v -1.155000 7.469000 0.224000
v -1.155000 7.973000 0.224000
v -1.225000 7.469000 -0.224000
v -1.225000 7.973000 -0.224000
v -1.225000 7.469000 0.224000
v -1.225000 7.973000 0.224000
v -1.141000 7.695800 -0.224000
v -1.141000 7.746200 -0.224000
v -1.141000 7.695800 0.224000
v -1.141000 7.746200 0.224000
v -1.253000 7.695800 -0.224000
v -1.253000 7.746200 -0.224000
v -1.253000 7.695800 0.224000
v -1.253000 7.746200 0.224000
v -1.141000 7.469000 -0.025200
v -1.141000 7.973000 -0.025200
v -1.141000 7.469000 0.025200
v -1.141000 7.973000 0.025200
v -1.253000 7.469000 -0.025200
v -1.253000 7.973000 -0.025200
v -1.253000 7.469000 0.025200
v -1.253000 7.973000 0.025200
v 1.190000 7.399000 -0.294000
v 1.190000 8.043000 -0.294000
v 1.190000 7.399000 0.294000
v 1.190000 8.043000 0.294000
v 1.120000 7.399000 -0.294000
v 1.120000 8.043000 -0.294000
v 1.120000 7.399000 0.294000
v 1.120000 8.043000 0.294000
v 1.225000 7.469000 -0.224000
v 1.225000 7.973000 -0.224000
v 1.225000 7.469000 0.224000
v 1.225000 7.973000 0.224000
v 1.155000 7.469000 -0.224000
v 1.155000 7.973000 -0.224000
v 1.155000 7.469000 0.224000
v 1.155000 7.973000 0.224000
v 1.253000 7.695800 -0.224000
v 1.253000 7.746200 -0.224000
v 1.253000 7.695800 0.224000
v 1.253000 7.746200 0.224000
v 1.141000 7.695800 -0.224000
v 1.141000 7.746200 -0.224000
v 1.141000 7.695800 0.224000
v 1.141000 7.746200 0.224000
v 1.253000 7.469000 -0.025200
v 1.253000 7.973000 -0.025200
v 1.253000 7.469000 0.025200
v 1.253000 7.973000 0.025200
v 1.141000 7.469000 -0.025200
v 1.141000 7.973000 -0.025200
v 1.141000 7.469000 0.025200
v 1.141000 7.973000 0.025200
v 0.420000 0.000000 -2.044000
v 0.420000 1.120000 -2.044000
v 0.420000 0.000000 -1.932000
v 0.420000 1.120000 -1.932000
v -0.420000 0.000000 -2.044000
v -0.420000 1.120000 -2.044000
v -0.420000 0.000000 -1.932000
v -0.420000 1.120000 -1.932000
v -0.016800 10.724000 0.616000
v -0.029098 9.967999 0.016800
v -0.000000 8.680000 1.848000
v -0.000000 10.948000 0.033600
v -1.848000 8.680000 -0.000000
v -0.000000 9.967999 0.033600
v 0.000000 8.680000 -1.848000
v -0.016800 10.556001 -0.000000
v 1.848000 8.680000 0.000000
v 0.000000 10.080000 0.000000
v -0.029098 10.948000 0.016800
v -0.029098 9.967999 -0.016800
v -0.029098 10.948000 -0.016800
v 0.000000 9.967999 -0.033600
v 0.000000 10.948000 -0.033600
v 0.029098 9.967999 -0.016800
v 0.029098 10.948000 -0.016800
v 0.029098 9.967999 0.016800
v 0.029098 10.948000 0.016800
v -0.016800 10.892000 -0.000000
v 0.016800 10.556001 0.000000
v 0.016800 10.724000 0.616000
v 0.016800 10.892000 0.000000
vn 1.0000 -0.0000 -0.0000
vn -0.0000 -0.0000 1.0000
vn -1.0000 -0.0000 -0.0000
vn -0.0000 -0.0000 -1.0000
vn -0.0000 -1.0000 -0.0000
vn -0.0000 1.0000 -0.0000
vn -0.5000 -0.0000 0.8660
vn -0.5169 0.6823 0.5169
vn -0.0000 0.9648 0.2631
vn -0.5169 0.6823 -0.5169
vn 0.5169 0.6823 -0.5169
vn 0.5169 0.6823 0.5169
vn -0.0000 -0.9648 0.2631
vn -0.5000 -0.0000 -0.8660
vn 0.5000 -0.0000 -0.8660
vn 0.5000 -0.0000 0.8660
s 0
usemtl EF_Wood
f 1//1 2//1 4//1 3//1
f 3//2 4//2 8//2 7//2
f 7//3 8//3 6//3 5//3
f 5//4 6//4 2//4 1//4
f 3//5 7//5 5//5 1//5
f 8//6 4//6 2//6 6//6
f 473//1 474//1 476//1 475//1
f 475//2 476//2 480//2 479//2
f 479//3 480//3 478//3 477//3
f 477//4 478//4 474//4 473//4
f 475//5 479//5 477//5 473//5
f 480//6 476//6 474//6 478//6
usemtl EF_White
f 9//1 10//1 12//1 11//1
f 11//2 12//2 16//2 15//2
f 15//3 16//3 14//3 13//3
f 13//4 14//4 10//4 9//4
f 11//5 15//5 13//5 9//5
f 16//6 12//6 10//6 14//6
f 17//1 18//1 20//1 19//1
f 19//2 20//2 24//2 23//2
f 23//3 24//3 22//3 21//3
f 21//4 22//4 18//4 17//4
f 19//5 23//5 21//5 17//5
f 24//6 20//6 18//6 22//6
f 25//1 26//1 28//1 27//1
f 27//2 28//2 32//2 31//2
f 31//3 32//3 30//3 29//3
f 29//4 30//4 26//4 25//4
f 27//5 31//5 29//5 25//5
f 32//6 28//6 26//6 30//6
f 33//1 34//1 36//1 35//1
f 35//2 36//2 40//2 39//2
f 39//3 40//3 38//3 37//3
f 37//4 38//4 34//4 33//4
f 35//5 39//5 37//5 33//5
f 40//6 36//6 34//6 38//6
f 47//1 48//1 50//1 49//1
f 49//2 50//2 54//2 53//2
f 53//3 54//3 52//3 51//3
f 51//4 52//4 48//4 47//4
f 49//5 53//5 51//5 47//5
f 54//6 50//6 48//6 52//6
f 55//1 56//1 58//1 57//1
f 57//2 58//2 62//2 61//2
f 61//3 62//3 60//3 59//3
f 59//4 60//4 56//4 55//4
f 57//5 61//5 59//5 55//5
f 62//6 58//6 56//6 60//6
f 63//1 64//1 66//1 65//1
f 65//2 66//2 70//2 69//2
f 69//3 70//3 68//3 67//3
f 67//4 68//4 64//4 63//4
f 65//5 69//5 67//5 63//5
f 70//6 66//6 64//6 68//6
f 71//1 72//1 74//1 73//1
f 73//2 74//2 78//2 77//2
f 77//3 78//3 76//3 75//3
f 75//4 76//4 72//4 71//4
f 73//5 77//5 75//5 71//5
f 78//6 74//6 72//6 76//6
f 42//1 79//1 81//1 80//1
f 80//2 81//2 85//2 84//2
f 84//3 85//3 83//3 82//3
f 82//4 83//4 79//4 42//4
f 80//5 84//5 82//5 42//5
f 85//6 81//6 79//6 83//6
f 86//1 87//1 89//1 88//1
f 88//2 89//2 93//2 92//2
f 92//3 93//3 91//3 90//3
f 90//4 91//4 87//4 86//4
f 88//5 92//5 90//5 86//5
f 93//6 89//6 87//6 91//6
f 94//1 95//1 97//1 96//1
f 96//2 97//2 100//2 99//2
f 99//3 100//3 98//3 45//3
f 45//4 98//4 95//4 94//4
f 96//5 99//5 45//5 94//5
f 100//6 97//6 95//6 98//6
f 101//1 102//1 104//1 103//1
f 103//2 104//2 108//2 107//2
f 107//3 108//3 106//3 105//3
f 105//4 106//4 102//4 101//4
f 103//5 107//5 105//5 101//5
f 108//6 104//6 102//6 106//6
f 245//1 246//1 248//1 247//1
f 247//2 248//2 252//2 251//2
f 251//3 252//3 250//3 249//3
f 249//4 250//4 246//4 245//4
f 247//5 251//5 249//5 245//5
f 252//6 248//6 246//6 250//6
f 253//1 254//1 256//1 255//1
f 255//2 256//2 260//2 259//2
f 259//3 260//3 258//3 257//3
f 257//4 258//4 254//4 253//4
f 255//5 259//5 257//5 253//5
f 260//6 256//6 254//6 258//6
f 261//1 262//1 264//1 263//1
f 263//2 264//2 268//2 267//2
f 267//3 268//3 266//3 265//3
f 265//4 266//4 262//4 261//4
f 263//5 267//5 265//5 261//5
f 268//6 264//6 262//6 266//6
f 269//1 270//1 272//1 271//1
f 271//2 272//2 276//2 275//2
f 275//3 276//3 274//3 273//3
f 273//4 274//4 270//4 269//4
f 271//5 275//5 273//5 269//5
f 276//6 272//6 270//6 274//6
f 284//1 285//1 287//1 286//1
f 286//2 287//2 291//2 290//2
f 290//3 291//3 289//3 288//3
f 288//4 289//4 285//4 284//4
f 286//5 290//5 288//5 284//5
f 291//6 287//6 285//6 289//6
f 292//1 293//1 295//1 294//1
f 294//2 295//2 299//2 298//2
f 298//3 299//3 297//3 296//3
f 296//4 297//4 293//4 292//4
f 294//5 298//5 296//5 292//5
f 299//6 295//6 293//6 297//6
f 300//1 301//1 303//1 302//1
f 302//2 303//2 307//2 306//2
f 306//3 307//3 305//3 304//3
f 304//4 305//4 301//4 300//4
f 302//5 306//5 304//5 300//5
f 307//6 303//6 301//6 305//6
f 308//1 309//1 311//1 310//1
f 310//2 311//2 315//2 314//2
f 314//3 315//3 313//3 312//3
f 312//4 313//4 309//4 308//4
f 310//5 314//5 312//5 308//5
f 315//6 311//6 309//6 313//6
f 278//1 316//1 318//1 317//1
f 317//2 318//2 322//2 321//2
f 321//3 322//3 320//3 319//3
f 319//4 320//4 316//4 278//4
f 317//5 321//5 319//5 278//5
f 322//6 318//6 316//6 320//6
f 323//1 324//1 325//1 280//1
f 280//2 325//2 329//2 328//2
f 328//3 329//3 327//3 326//3
f 326//4 327//4 324//4 323//4
f 280//5 328//5 326//5 323//5
f 329//6 325//6 324//6 327//6
f 330//1 331//1 333//1 332//1
f 332//2 333//2 336//2 335//2
f 335//3 336//3 334//3 282//3
f 282//4 334//4 331//4 330//4
f 332//5 335//5 282//5 330//5
f 336//6 333//6 331//6 334//6
f 337//1 338//1 340//1 339//1
f 339//2 340//2 344//2 343//2
f 343//3 344//3 342//3 341//3
f 341//4 342//4 338//4 337//4
f 339//5 343//5 341//5 337//5
f 344//6 340//6 338//6 342//6
f 481//1 482//1 484//1 483//1
f 483//2 484//2 488//2 487//2
f 487//3 488//3 486//3 485//3
f 485//4 486//4 482//4 481//4
f 483//5 487//5 485//5 481//5
f 488//6 484//6 482//6 486//6
f 489//1 490//1 492//1 491//1
f 491//2 492//2 496//2 495//2
f 495//3 496//3 494//3 493//3
f 493//4 494//4 490//4 489//4
f 491//5 495//5 493//5 489//5
f 496//6 492//6 490//6 494//6
f 497//1 498//1 500//1 499//1
f 499//2 500//2 504//2 503//2
f 503//3 504//3 502//3 501//3
f 501//4 502//4 498//4 497//4
f 499//5 503//5 501//5 497//5
f 504//6 500//6 498//6 502//6
f 505//1 506//1 508//1 507//1
f 507//2 508//2 512//2 511//2
f 511//3 512//3 510//3 509//3
f 509//4 510//4 506//4 505//4
f 507//5 511//5 509//5 505//5
f 512//6 508//6 506//6 510//6
f 519//1 520//1 522//1 521//1
f 521//2 522//2 526//2 525//2
f 525//3 526//3 524//3 523//3
f 523//4 524//4 520//4 519//4
f 521//5 525//5 523//5 519//5
f 526//6 522//6 520//6 524//6
f 527//1 528//1 530//1 529//1
f 529//2 530//2 534//2 533//2
f 533//3 534//3 532//3 531//3
f 531//4 532//4 528//4 527//4
f 529//5 533//5 531//5 527//5
f 534//6 530//6 528//6 532//6
f 535//1 536//1 538//1 537//1
f 537//2 538//2 542//2 541//2
f 541//3 542//3 540//3 539//3
f 539//4 540//4 536//4 535//4
f 537//5 541//5 539//5 535//5
f 542//6 538//6 536//6 540//6
f 543//1 544//1 546//1 545//1
f 545//2 546//2 550//2 549//2
f 549//3 550//3 548//3 547//3
f 547//4 548//4 544//4 543//4
f 545//5 549//5 547//5 543//5
f 550//6 546//6 544//6 548//6
f 514//1 551//1 553//1 552//1
f 552//2 553//2 557//2 556//2
f 556//3 557//3 555//3 554//3
f 554//4 555//4 551//4 514//4
f 552//5 556//5 554//5 514//5
f 557//6 553//6 551//6 555//6
f 558//1 559//1 561//1 560//1
f 560//2 561//2 565//2 564//2
f 564//3 565//3 563//3 562//3
f 562//4 563//4 559//4 558//4
f 560//5 564//5 562//5 558//5
f 565//6 561//6 559//6 563//6
f 566//1 567//1 569//1 568//1
f 568//2 569//2 572//2 571//2
f 571//3 572//3 570//3 517//3
f 517//4 570//4 567//4 566//4
f 568//5 571//5 517//5 566//5
f 572//6 569//6 567//6 570//6
f 573//1 574//1 576//1 575//1
f 575//2 576//2 580//2 579//2
f 579//3 580//3 578//3 577//3
f 577//4 578//4 574//4 573//4
f 575//5 579//5 577//5 573//5
f 580//6 576//6 574//6 578//6
f 717//1 718//1 720//1 719//1
f 719//2 720//2 724//2 723//2
f 723//3 724//3 722//3 721//3
f 721//4 722//4 718//4 717//4
f 719//5 723//5 721//5 717//5
f 724//6 720//6 718//6 722//6
f 725//1 726//1 728//1 727//1
f 727//2 728//2 732//2 731//2
f 731//3 732//3 730//3 729//3
f 729//4 730//4 726//4 725//4
f 727//5 731//5 729//5 725//5
f 732//6 728//6 726//6 730//6
f 733//1 734//1 736//1 735//1
f 735//2 736//2 740//2 739//2
f 739//3 740//3 738//3 737//3
f 737//4 738//4 734//4 733//4
f 735//5 739//5 737//5 733//5
f 740//6 736//6 734//6 738//6
f 741//1 742//1 744//1 743//1
f 743//2 744//2 748//2 747//2
f 747//3 748//3 746//3 745//3
f 745//4 746//4 742//4 741//4
f 743//5 747//5 745//5 741//5
f 748//6 744//6 742//6 746//6
f 756//1 757//1 759//1 758//1
f 758//2 759//2 763//2 762//2
f 762//3 763//3 761//3 760//3
f 760//4 761//4 757//4 756//4
f 758//5 762//5 760//5 756//5
f 763//6 759//6 757//6 761//6
f 764//1 765//1 767//1 766//1
f 766//2 767//2 771//2 770//2
f 770//3 771//3 769//3 768//3
f 768//4 769//4 765//4 764//4
f 766//5 770//5 768//5 764//5
f 771//6 767//6 765//6 769//6
f 772//1 773//1 775//1 774//1
f 774//2 775//2 779//2 778//2
f 778//3 779//3 777//3 776//3
f 776//4 777//4 773//4 772//4
f 774//5 778//5 776//5 772//5
f 779//6 775//6 773//6 777//6
f 780//1 781//1 783//1 782//1
f 782//2 783//2 787//2 786//2
f 786//3 787//3 785//3 784//3
f 784//4 785//4 781//4 780//4
f 782//5 786//5 784//5 780//5
f 787//6 783//6 781//6 785//6
f 750//1 788//1 790//1 789//1
f 789//2 790//2 794//2 793//2
f 793//3 794//3 792//3 791//3
f 791//4 792//4 788//4 750//4
f 789//5 793//5 791//5 750//5
f 794//6 790//6 788//6 792//6
f 795//1 796//1 797//1 752//1
f 752//2 797//2 801//2 800//2
f 800//3 801//3 799//3 798//3
f 798//4 799//4 796//4 795//4
f 752//5 800//5 798//5 795//5
f 801//6 797//6 796//6 799//6
f 802//1 803//1 805//1 804//1
f 804//2 805//2 808//2 807//2
f 807//3 808//3 806//3 754//3
f 754//4 806//4 803//4 802//4
f 804//5 807//5 754//5 802//5
f 808//6 805//6 803//6 806//6
f 809//1 810//1 812//1 811//1
f 811//2 812//2 816//2 815//2
f 815//3 816//3 814//3 813//3
f 813//4 814//4 810//4 809//4
f 811//5 815//5 813//5 809//5
f 816//6 812//6 810//6 814//6
usemtl EF_Roof
f 41//1 42//1 88//1 43//1
f 43//2 88//2 107//2 46//2
f 46//3 107//3 45//3 44//3
f 44//4 45//4 42//4 41//4
f 43//5 46//5 44//5 41//5
f 107//6 88//6 42//6 45//6
f 277//1 278//1 280//1 279//1
f 279//2 280//2 343//2 283//2
f 283//3 343//3 282//3 281//3
f 281//4 282//4 278//4 277//4
f 279//5 283//5 281//5 277//5
f 343//6 280//6 278//6 282//6
f 513//1 514//1 560//1 515//1
f 515//2 560//2 579//2 518//2
f 518//3 579//3 517//3 516//3
f 516//4 517//4 514//4 513//4
f 515//5 518//5 516//5 513//5
f 579//6 560//6 514//6 517//6
f 749//1 750//1 752//1 751//1
f 751//2 752//2 815//2 755//2
f 755//3 815//3 754//3 753//3
f 753//4 754//4 750//4 749//4
f 751//5 755//5 753//5 749//5
f 815//6 752//6 750//6 754//6
f 955//8 962//8 957//8
f 957//10 962//10 959//10
f 955//5 957//5 959//5 961//5
f 959//11 962//11 961//11
f 961//12 962//12 955//12
usemtl EF_Accent
f 109//1 110//1 112//1 111//1
f 111//2 112//2 116//2 115//2
f 115//3 116//3 114//3 113//3
f 113//4 114//4 110//4 109//4
f 111//5 115//5 113//5 109//5
f 116//6 112//6 110//6 114//6
f 125//1 126//1 128//1 127//1
f 127//2 128//2 132//2 131//2
f 131//3 132//3 130//3 129//3
f 129//4 130//4 126//4 125//4
f 127//5 131//5 129//5 125//5
f 132//6 128//6 126//6 130//6
f 133//1 134//1 136//1 135//1
f 135//2 136//2 140//2 139//2
f 139//3 140//3 138//3 137//3
f 137//4 138//4 134//4 133//4
f 135//5 139//5 137//5 133//5
f 140//6 136//6 134//6 138//6
f 141//1 142//1 144//1 143//1
f 143//2 144//2 148//2 147//2
f 147//3 148//3 146//3 145//3
f 145//4 146//4 142//4 141//4
f 143//5 147//5 145//5 141//5
f 148//6 144//6 142//6 146//6
f 157//1 158//1 160//1 159//1
f 159//2 160//2 164//2 163//2
f 163//3 164//3 162//3 161//3
f 161//4 162//4 158//4 157//4
f 159//5 163//5 161//5 157//5
f 164//6 160//6 158//6 162//6
f 165//1 166//1 168//1 167//1
f 167//2 168//2 172//2 171//2
f 171//3 172//3 170//3 169//3
f 169//4 170//4 166//4 165//4
f 167//5 171//5 169//5 165//5
f 172//6 168//6 166//6 170//6
f 173//1 174//1 176//1 175//1
f 175//2 176//2 180//2 179//2
f 179//3 180//3 178//3 177//3
f 177//4 178//4 174//4 173//4
f 175//5 179//5 177//5 173//5
f 180//6 176//6 174//6 178//6
f 189//1 190//1 192//1 191//1
f 191//2 192//2 196//2 195//2
f 195//3 196//3 194//3 193//3
f 193//4 194//4 190//4 189//4
f 191//5 195//5 193//5 189//5
f 196//6 192//6 190//6 194//6
f 197//1 198//1 200//1 199//1
f 199//2 200//2 204//2 203//2
f 203//3 204//3 202//3 201//3
f 201//4 202//4 198//4 197//4
f 199//5 203//5 201//5 197//5
f 204//6 200//6 198//6 202//6
f 205//1 206//1 208//1 207//1
f 207//2 208//2 212//2 211//2
f 211//3 212//3 210//3 209//3
f 209//4 210//4 206//4 205//4
f 207//5 211//5 209//5 205//5
f 212//6 208//6 206//6 210//6
f 221//1 222//1 224//1 223//1
f 223//2 224//2 228//2 227//2
f 227//3 228//3 226//3 225//3
f 225//4 226//4 222//4 221//4
f 223//5 227//5 225//5 221//5
f 228//6 224//6 222//6 226//6
f 229//1 230//1 232//1 231//1
f 231//2 232//2 236//2 235//2
f 235//3 236//3 234//3 233//3
f 233//4 234//4 230//4 229//4
f 231//5 235//5 233//5 229//5
f 236//6 232//6 230//6 234//6
f 345//1 346//1 348//1 347//1
f 347//2 348//2 352//2 351//2
f 351//3 352//3 350//3 349//3
f 349//4 350//4 346//4 345//4
f 347//5 351//5 349//5 345//5
f 352//6 348//6 346//6 350//6
f 361//1 362//1 364//1 363//1
f 363//2 364//2 368//2 367//2
f 367//3 368//3 366//3 365//3
f 365//4 366//4 362//4 361//4
f 363//5 367//5 365//5 361//5
f 368//6 364//6 362//6 366//6
f 369//1 370//1 372//1 371//1
f 371//2 372//2 376//2 375//2
f 375//3 376//3 374//3 373//3
f 373//4 374//4 370//4 369//4
f 371//5 375//5 373//5 369//5
f 376//6 372//6 370//6 374//6
f 377//1 378//1 380//1 379//1
f 379//2 380//2 384//2 383//2
f 383//3 384//3 382//3 381//3
f 381//4 382//4 378//4 377//4
f 379//5 383//5 381//5 377//5
f 384//6 380//6 378//6 382//6
f 393//1 394//1 396//1 395//1
f 395//2 396//2 400//2 399//2
f 399//3 400//3 398//3 397//3
f 397//4 398//4 394//4 393//4
f 395//5 399//5 397//5 393//5
f 400//6 396//6 394//6 398//6
f 401//1 402//1 404//1 403//1
f 403//2 404//2 408//2 407//2
f 407//3 408//3 406//3 405//3
f 405//4 406//4 402//4 401//4
f 403//5 407//5 405//5 401//5
f 408//6 404//6 402//6 406//6
f 409//1 410//1 412//1 411//1
f 411//2 412//2 416//2 415//2
f 415//3 416//3 414//3 413//3
f 413//4 414//4 410//4 409//4
f 411//5 415//5 413//5 409//5
f 416//6 412//6 410//6 414//6
f 425//1 426//1 428//1 427//1
f 427//2 428//2 432//2 431//2
f 431//3 432//3 430//3 429//3
f 429//4 430//4 426//4 425//4
f 427//5 431//5 429//5 425//5
f 432//6 428//6 426//6 430//6
f 433//1 434//1 436//1 435//1
f 435//2 436//2 440//2 439//2
f 439//3 440//3 438//3 437//3
f 437//4 438//4 434//4 433//4
f 435//5 439//5 437//5 433//5
f 440//6 436//6 434//6 438//6
f 441//1 442//1 444//1 443//1
f 443//2 444//2 448//2 447//2
f 447//3 448//3 446//3 445//3
f 445//4 446//4 442//4 441//4
f 443//5 447//5 445//5 441//5
f 448//6 444//6 442//6 446//6
f 457//1 458//1 460//1 459//1
f 459//2 460//2 464//2 463//2
f 463//3 464//3 462//3 461//3
f 461//4 462//4 458//4 457//4
f 459//5 463//5 461//5 457//5
f 464//6 460//6 458//6 462//6
f 465//1 466//1 468//1 467//1
f 467//2 468//2 472//2 471//2
f 471//3 472//3 470//3 469//3
f 469//4 470//4 466//4 465//4
f 467//5 471//5 469//5 465//5
f 472//6 468//6 466//6 470//6
f 581//1 582//1 584//1 583//1
f 583//2 584//2 588//2 587//2
f 587//3 588//3 586//3 585//3
f 585//4 586//4 582//4 581//4
f 583//5 587//5 585//5 581//5
f 588//6 584//6 582//6 586//6
f 597//1 598//1 600//1 599//1
f 599//2 600//2 604//2 603//2
f 603//3 604//3 602//3 601//3
f 601//4 602//4 598//4 597//4
f 599//5 603//5 601//5 597//5
f 604//6 600//6 598//6 602//6
f 605//1 606//1 608//1 607//1
f 607//2 608//2 612//2 611//2
f 611//3 612//3 610//3 609//3
f 609//4 610//4 606//4 605//4
f 607//5 611//5 609//5 605//5
f 612//6 608//6 606//6 610//6
f 613//1 614//1 616//1 615//1
f 615//2 616//2 620//2 619//2
f 619//3 620//3 618//3 617//3
f 617//4 618//4 614//4 613//4
f 615//5 619//5 617//5 613//5
f 620//6 616//6 614//6 618//6
f 629//1 630//1 632//1 631//1
f 631//2 632//2 636//2 635//2
f 635//3 636//3 634//3 633//3
f 633//4 634//4 630//4 629//4
f 631//5 635//5 633//5 629//5
f 636//6 632//6 630//6 634//6
f 637//1 638//1 640//1 639//1
f 639//2 640//2 644//2 643//2
f 643//3 644//3 642//3 641//3
f 641//4 642//4 638//4 637//4
f 639//5 643//5 641//5 637//5
f 644//6 640//6 638//6 642//6
f 645//1 646//1 648//1 647//1
f 647//2 648//2 652//2 651//2
f 651//3 652//3 650//3 649//3
f 649//4 650//4 646//4 645//4
f 647//5 651//5 649//5 645//5
f 652//6 648//6 646//6 650//6
f 661//1 662//1 664//1 663//1
f 663//2 664//2 668//2 667//2
f 667//3 668//3 666//3 665//3
f 665//4 666//4 662//4 661//4
f 663//5 667//5 665//5 661//5
f 668//6 664//6 662//6 666//6
f 669//1 670//1 672//1 671//1
f 671//2 672//2 676//2 675//2
f 675//3 676//3 674//3 673//3
f 673//4 674//4 670//4 669//4
f 671//5 675//5 673//5 669//5
f 676//6 672//6 670//6 674//6
f 677//1 678//1 680//1 679//1
f 679//2 680//2 684//2 683//2
f 683//3 684//3 682//3 681//3
f 681//4 682//4 678//4 677//4
f 679//5 683//5 681//5 677//5
f 684//6 680//6 678//6 682//6
f 693//1 694//1 696//1 695//1
f 695//2 696//2 700//2 699//2
f 699//3 700//3 698//3 697//3
f 697//4 698//4 694//4 693//4
f 695//5 699//5 697//5 693//5
f 700//6 696//6 694//6 698//6
f 701//1 702//1 704//1 703//1
f 703//2 704//2 708//2 707//2
f 707//3 708//3 706//3 705//3
f 705//4 706//4 702//4 701//4
f 703//5 707//5 705//5 701//5
f 708//6 704//6 702//6 706//6
f 817//1 818//1 820//1 819//1
f 819//2 820//2 824//2 823//2
f 823//3 824//3 822//3 821//3
f 821//4 822//4 818//4 817//4
f 819//5 823//5 821//5 817//5
f 824//6 820//6 818//6 822//6
f 833//1 834//1 836//1 835//1
f 835//2 836//2 840//2 839//2
f 839//3 840//3 838//3 837//3
f 837//4 838//4 834//4 833//4
f 835//5 839//5 837//5 833//5
f 840//6 836//6 834//6 838//6
f 841//1 842//1 844//1 843//1
f 843//2 844//2 848//2 847//2
f 847//3 848//3 846//3 845//3
f 845//4 846//4 842//4 841//4
f 843//5 847//5 845//5 841//5
f 848//6 844//6 842//6 846//6
f 849//1 850//1 852//1 851//1
f 851//2 852//2 856//2 855//2
f 855//3 856//3 854//3 853//3
f 853//4 854//4 850//4 849//4
f 851//5 855//5 853//5 849//5
f 856//6 852//6 850//6 854//6
f 865//1 866//1 868//1 867//1
f 867//2 868//2 872//2 871//2
f 871//3 872//3 870//3 869//3
f 869//4 870//4 866//4 865//4
f 867//5 871//5 869//5 865//5
f 872//6 868//6 866//6 870//6
f 873//1 874//1 876//1 875//1
f 875//2 876//2 880//2 879//2
f 879//3 880//3 878//3 877//3
f 877//4 878//4 874//4 873//4
f 875//5 879//5 877//5 873//5
f 880//6 876//6 874//6 878//6
f 881//1 882//1 884//1 883//1
f 883//2 884//2 888//2 887//2
f 887//3 888//3 886//3 885//3
f 885//4 886//4 882//4 881//4
f 883//5 887//5 885//5 881//5
f 888//6 884//6 882//6 886//6
f 897//1 898//1 900//1 899//1
f 899//2 900//2 904//2 903//2
f 903//3 904//3 902//3 901//3
f 901//4 902//4 898//4 897//4
f 899//5 903//5 901//5 897//5
f 904//6 900//6 898//6 902//6
f 905//1 906//1 908//1 907//1
f 907//2 908//2 912//2 911//2
f 911//3 912//3 910//3 909//3
f 909//4 910//4 906//4 905//4
f 907//5 911//5 909//5 905//5
f 912//6 908//6 906//6 910//6
f 913//1 914//1 916//1 915//1
f 915//2 916//2 920//2 919//2
f 919//3 920//3 918//3 917//3
f 917//4 918//4 914//4 913//4
f 915//5 919//5 917//5 913//5
f 920//6 916//6 914//6 918//6
f 929//1 930//1 932//1 931//1
f 931//2 932//2 936//2 935//2
f 935//3 936//3 934//3 933//3
f 933//4 934//4 930//4 929//4
f 931//5 935//5 933//5 929//5
f 936//6 932//6 930//6 934//6
f 937//1 938//1 940//1 939//1
f 939//2 940//2 944//2 943//2
f 943//3 944//3 942//3 941//3
f 941//4 942//4 938//4 937//4
f 939//5 943//5 941//5 937//5
f 944//6 940//6 938//6 942//6
f 953//9 974//9 975//9 972//9
f 972//4 975//4 973//4 960//4
f 960//13 973//13 974//13 953//13
f 973//1 975//1 974//1
f 972//3 960//3 953//3
usemtl EF_Glass
f 117//1 118//1 120//1 119//1
f 119//2 120//2 124//2 123//2
f 123//3 124//3 122//3 121//3
f 121//4 122//4 118//4 117//4
f 119//5 123//5 121//5 117//5
f 124//6 120//6 118//6 122//6
f 149//1 150//1 152//1 151//1
f 151//2 152//2 156//2 155//2
f 155//3 156//3 154//3 153//3
f 153//4 154//4 150//4 149//4
f 151//5 155//5 153//5 149//5
f 156//6 152//6 150//6 154//6
f 181//1 182//1 184//1 183//1
f 183//2 184//2 188//2 187//2
f 187//3 188//3 186//3 185//3
f 185//4 186//4 182//4 181//4
f 183//5 187//5 185//5 181//5
f 188//6 184//6 182//6 186//6
f 213//1 214//1 216//1 215//1
f 215//2 216//2 220//2 219//2
f 219//3 220//3 218//3 217//3
f 217//4 218//4 214//4 213//4
f 215//5 219//5 217//5 213//5
f 220//6 216//6 214//6 218//6
f 353//1 354//1 356//1 355//1
f 355//2 356//2 360//2 359//2
f 359//3 360//3 358//3 357//3
f 357//4 358//4 354//4 353//4
f 355//5 359//5 357//5 353//5
f 360//6 356//6 354//6 358//6
f 385//1 386//1 388//1 387//1
f 387//2 388//2 392//2 391//2
f 391//3 392//3 390//3 389//3
f 389//4 390//4 386//4 385//4
f 387//5 391//5 389//5 385//5
f 392//6 388//6 386//6 390//6
f 417//1 418//1 420//1 419//1
f 419//2 420//2 424//2 423//2
f 423//3 424//3 422//3 421//3
f 421//4 422//4 418//4 417//4
f 419//5 423//5 421//5 417//5
f 424//6 420//6 418//6 422//6
f 449//1 450//1 452//1 451//1
f 451//2 452//2 456//2 455//2
f 455//3 456//3 454//3 453//3
f 453//4 454//4 450//4 449//4
f 451//5 455//5 453//5 449//5
f 456//6 452//6 450//6 454//6
f 589//1 590//1 592//1 591//1
f 591//2 592//2 596//2 595//2
f 595//3 596//3 594//3 593//3
f 593//4 594//4 590//4 589//4
f 591//5 595//5 593//5 589//5
f 596//6 592//6 590//6 594//6
f 621//1 622//1 624//1 623//1
f 623//2 624//2 628//2 627//2
f 627//3 628//3 626//3 625//3
f 625//4 626//4 622//4 621//4
f 623//5 627//5 625//5 621//5
f 628//6 624//6 622//6 626//6
f 653//1 654//1 656//1 655//1
f 655//2 656//2 660//2 659//2
f 659//3 660//3 658//3 657//3
f 657//4 658//4 654//4 653//4
f 655//5 659//5 657//5 653//5
f 660//6 656//6 654//6 658//6
f 685//1 686//1 688//1 687//1
f 687//2 688//2 692//2 691//2
f 691//3 692//3 690//3 689//3
f 689//4 690//4 686//4 685//4
f 687//5 691//5 689//5 685//5
f 692//6 688//6 686//6 690//6
f 825//1 826//1 828//1 827//1
f 827//2 828//2 832//2 831//2
f 831//3 832//3 830//3 829//3
f 829//4 830//4 826//4 825//4
f 827//5 831//5 829//5 825//5
f 832//6 828//6 826//6 830//6
f 857//1 858//1 860//1 859//1
f 859//2 860//2 864//2 863//2
f 863//3 864//3 862//3 861//3
f 861//4 862//4 858//4 857//4
f 859//5 863//5 861//5 857//5
f 864//6 860//6 858//6 862//6
f 889//1 890//1 892//1 891//1
f 891//2 892//2 896//2 895//2
f 895//3 896//3 894//3 893//3
f 893//4 894//4 890//4 889//4
f 891//5 895//5 893//5 889//5
f 896//6 892//6 890//6 894//6
f 921//1 922//1 924//1 923//1
f 923//2 924//2 928//2 927//2
f 927//3 928//3 926//3 925//3
f 925//4 926//4 922//4 921//4
f 923//5 927//5 925//5 921//5
f 928//6 924//6 922//6 926//6
usemtl EF_Cream
f 237//1 238//1 240//1 239//1
f 239//2 240//2 244//2 243//2
f 243//3 244//3 242//3 241//3
f 241//4 242//4 238//4 237//4
f 239//5 243//5 241//5 237//5
f 244//6 240//6 238//6 242//6
f 709//1 710//1 712//1 711//1
f 711//2 712//2 716//2 715//2
f 715//3 716//3 714//3 713//3
f 713//4 714//4 710//4 709//4
f 711//5 715//5 713//5 709//5
f 716//6 712//6 710//6 714//6
usemtl EF_RoofDark
f 945//1 946//1 948//1 947//1
f 947//2 948//2 952//2 951//2
f 951//3 952//3 950//3 949//3
f 949//4 950//4 946//4 945//4
f 947//5 951//5 949//5 945//5
f 952//6 948//6 946//6 950//6
usemtl EF_GreyDark
f 958//7 956//7 963//7 954//7
f 954//3 963//3 965//3 964//3
f 964//14 965//14 967//14 966//14
f 966//15 967//15 969//15 968//15
f 965//6 963//6 956//6 971//6 969//6 967//6
f 968//1 969//1 971//1 970//1
f 970//16 971//16 956//16 958//16
f 954//5 964//5 966//5 968//5 970//5 958//5
