# Blender 5.0.1
# www.blender.org
mtllib LittleCoop.mtl
o LittleCoop
v 0.997500 0.000000 -0.623000
v 0.997500 0.336000 -0.623000
v 0.997500 0.000000 -0.483000
v 0.997500 0.336000 -0.483000
v 0.857500 0.000000 -0.623000
v 0.857500 0.336000 -0.623000
v 0.857500 0.000000 -0.483000
v 0.857500 0.336000 -0.483000
v 0.997500 0.000000 1.113000
v 0.997500 0.336000 1.113000
v 0.997500 0.000000 1.253000
v 0.997500 0.336000 1.253000
v 0.857500 0.000000 1.113000
v 0.857500 0.336000 1.113000
v 0.857500 0.000000 1.253000
v 0.857500 0.336000 1.253000
v -0.738500 0.000000 -0.623000
v -0.738500 0.336000 -0.623000
v -0.738500 0.000000 -0.483000
v -0.738500 0.336000 -0.483000
v -0.878500 0.000000 -0.623000
v -0.878500 0.336000 -0.623000
v -0.878500 0.000000 -0.483000
v -0.878500 0.336000 -0.483000
v -0.738500 0.000000 1.113000
v -0.738500 0.336000 1.113000
v -0.738500 0.000000 1.253000
v -0.738500 0.336000 1.253000
v -0.878500 0.000000 1.113000
v -0.878500 0.336000 1.113000
v -0.878500 0.000000 1.253000
v -0.878500 0.336000 1.253000
v 1.039500 0.336000 -0.665000
v 1.039500 1.400000 -0.665000
v 1.039500 0.336000 1.295000
v 1.039500 1.400000 1.295000
v -0.920500 0.336000 -0.665000
v -0.920500 1.400000 -0.665000
v -0.920500 0.336000 1.295000
v -0.920500 1.400000 1.295000
v 1.102500 0.336000 -0.728000
v 1.102500 1.400000 -0.728000
v 1.102500 0.336000 -0.602000
v 1.102500 1.400000 -0.602000
v 0.976500 0.336000 -0.728000
v 0.976500 1.400000 -0.728000
v 0.976500 0.336000 -0.602000
v 0.976500 1.400000 -0.602000
v 1.102500 0.336000 1.232000
v 1.102500 1.400000 1.232000
v 1.102500 0.336000 1.358000
v 1.102500 1.400000 1.358000
v 0.976500 0.336000 1.232000
v 0.976500 1.400000 1.232000
v 0.976500 0.336000 1.358000
v 0.976500 1.400000 1.358000
v -0.857500 0.336000 -0.728000
v -0.857500 1.400000 -0.728000
v -0.857500 0.336000 -0.602000
v -0.857500 1.400000 -0.602000
v -0.983500 0.336000 -0.728000
v -0.983500 1.400000 -0.728000
v -0.983500 0.336000 -0.602000
v -0.983500 1.400000 -0.602000
v -0.857500 0.336000 1.232000
v -0.857500 1.400000 1.232000
v -0.857500 0.336000 1.358000
v -0.857500 1.400000 1.358000
v -0.983500 0.336000 1.232000
v -0.983500 1.400000 1.232000
v -0.983500 0.336000 1.358000
v -0.983500 1.400000 1.358000
v 0.983500 0.602000 -0.684600
v 0.983500 0.630000 -0.684600
v 0.983500 0.602000 -0.662200
v 0.983500 0.630000 -0.662200
v -0.864500 0.602000 -0.684600
v -0.864500 0.630000 -0.684600
v -0.864500 0.602000 -0.662200
v -0.864500 0.630000 -0.662200
v 0.983500 0.882000 -0.684600
v 0.983500 0.910000 -0.684600
v 0.983500 0.882000 -0.662200
v 0.983500 0.910000 -0.662200
v -0.864500 0.882000 -0.684600
v -0.864500 0.910000 -0.684600
v -0.864500 0.882000 -0.662200
v -0.864500 0.910000 -0.662200
v 0.983500 1.162000 -0.684600
v 0.983500 1.190000 -0.684600
v 0.983500 1.162000 -0.662200
v 0.983500 1.190000 -0.662200
v -0.864500 1.162000 -0.684600
v -0.864500 1.190000 -0.684600
v -0.864500 1.162000 -0.662200
v -0.864500 1.190000 -0.662200
v 0.059500 2.105600 -0.665000
v 0.059500 2.105600 1.295000
v 1.161750 1.311980 -0.861000
v 1.235372 1.414234 -0.861000
v 1.161750 1.311980 1.491000
v 1.235372 1.414234 1.491000
v 0.022689 2.132104 -0.861000
v 0.096311 2.234357 -0.861000
v 0.022689 2.132104 1.491000
v 0.096311 2.234357 1.491000
v 0.096311 2.132104 -0.861000
v 0.022689 2.234357 -0.861000
v 0.096311 2.132104 1.491000
v 0.022689 2.234357 1.491000
v -1.042750 1.311980 -0.861000
v -1.116372 1.414234 -0.861000
v -1.042750 1.311980 1.491000
v -1.116372 1.414234 1.491000
v 0.160300 2.123157 -0.875000
v 0.160300 2.274357 -0.875000
v 0.160300 2.123157 1.505000
v 0.160300 2.274357 1.505000
v -0.041300 2.123157 -0.875000
v -0.041300 2.274357 -0.875000
v -0.041300 2.123157 1.505000
v -0.041300 2.274357 1.505000
v 0.622300 0.378000 -0.735000
v 0.622300 0.910000 -0.735000
v 0.622300 0.378000 -0.651000
v 0.622300 0.910000 -0.651000
v 0.202300 0.378000 -0.735000
v 0.202300 0.910000 -0.735000
v 0.202300 0.378000 -0.651000
v 0.202300 0.910000 -0.651000
v 0.692300 0.910000 -0.733600
v 0.692300 0.994000 -0.733600
v 0.692300 0.910000 -0.663600
v 0.692300 0.994000 -0.663600
v 0.132300 0.910000 -0.733600
v 0.132300 0.994000 -0.733600
v 0.132300 0.910000 -0.663600
v 0.132300 0.994000 -0.663600
v 0.608300 0.000000 -0.665000
v 0.608300 0.000000 -1.505000
v 0.608300 0.378000 -0.665000
v 0.216300 0.000000 -0.665000
v 0.216300 0.000000 -1.505000
v 0.216300 0.378000 -0.665000
v 0.594300 0.123200 -1.250200
v 0.594300 0.156800 -1.250200
v 0.594300 0.123200 -1.199800
v 0.594300 0.156800 -1.199800
v 0.230300 0.123200 -1.250200
v 0.230300 0.156800 -1.250200
v 0.230300 0.123200 -1.199800
v 0.230300 0.156800 -1.199800
v 0.594300 0.249200 -0.970200
v 0.594300 0.282800 -0.970200
v 0.594300 0.249200 -0.919800
v 0.594300 0.282800 -0.919800
v 0.230300 0.249200 -0.970200
v 0.230300 0.282800 -0.970200
v 0.230300 0.249200 -0.919800
v 0.230300 0.282800 -0.919800
v -0.119700 0.722400 -0.735000
v -0.119700 1.226400 -0.735000
v -0.119700 0.722400 -0.665000
v -0.119700 1.226400 -0.665000
v -0.623700 0.722400 -0.735000
v -0.623700 1.226400 -0.735000
v -0.623700 0.722400 -0.665000
v -0.623700 1.226400 -0.665000
v -0.189700 0.792400 -0.770000
v -0.189700 1.156400 -0.770000
v -0.189700 0.792400 -0.700000
v -0.189700 1.156400 -0.700000
v -0.553700 0.792400 -0.770000
v -0.553700 1.156400 -0.770000
v -0.553700 0.792400 -0.700000
v -0.553700 1.156400 -0.700000
v -0.189700 0.949200 -0.798000
v -0.189700 0.999600 -0.798000
v -0.189700 0.949200 -0.686000
v -0.189700 0.999600 -0.686000
v -0.553700 0.949200 -0.798000
v -0.553700 0.999600 -0.798000
v -0.553700 0.949200 -0.686000
v -0.553700 0.999600 -0.686000
v -0.346500 0.792400 -0.798000
v -0.346500 1.156400 -0.798000
v -0.346500 0.792400 -0.686000
v -0.346500 1.156400 -0.686000
v -0.396900 0.792400 -0.798000
v -0.396900 1.156400 -0.798000
v -0.396900 0.792400 -0.686000
v -0.396900 1.156400 -0.686000
v -0.920500 0.448000 -0.273000
v -0.920500 0.896000 -0.273000
v -0.920500 0.448000 0.903000
v -0.920500 0.896000 0.903000
v -1.312500 0.448000 -0.273000
v -1.312500 0.896000 -0.273000
v -1.312500 0.448000 0.903000
v -1.312500 0.896000 0.903000
v -0.920500 0.896000 -0.329000
v -1.368500 0.896000 -0.329000
v -0.920500 1.092000 -0.329000
v -0.920500 0.896000 0.959000
v -1.368500 0.896000 0.959000
v -0.920500 1.092000 0.959000
v 1.368500 0.000000 -0.602000
v 1.368500 0.336000 -0.602000
v 1.368500 0.000000 -0.560000
v 1.368500 0.336000 -0.560000
v 1.326500 0.000000 -0.602000
v 1.326500 0.336000 -0.602000
v 1.326500 0.000000 -0.560000
v 1.326500 0.336000 -0.560000
v 1.368500 0.000000 1.190000
v 1.368500 0.336000 1.190000
v 1.368500 0.000000 1.232000
v 1.368500 0.336000 1.232000
v 1.326500 0.000000 1.190000
v 1.326500 0.336000 1.190000
v 1.326500 0.000000 1.232000
v 1.326500 0.336000 1.232000
v 1.361500 0.308000 -0.609000
v 1.361500 0.341600 -0.609000
v 1.361500 0.308000 1.239000
v 1.361500 0.341600 1.239000
v 1.333500 0.308000 -0.609000
v 1.333500 0.341600 -0.609000
v 1.333500 0.308000 1.239000
v 1.333500 0.341600 1.239000
v 1.361500 0.154000 -0.609000
v 1.361500 0.187600 -0.609000
v 1.361500 0.154000 1.239000
v 1.361500 0.187600 1.239000
v 1.333500 0.154000 -0.609000
v 1.333500 0.187600 -0.609000
v 1.333500 0.154000 1.239000
v 1.333500 0.187600 1.239000
vn 1.0000 -0.0000 -0.0000
vn -0.0000 -0.0000 1.0000
vn -1.0000 -0.0000 -0.0000
vn -0.0000 -0.0000 -1.0000
vn -0.0000 -1.0000 -0.0000
vn -0.0000 1.0000 -0.0000
vn -0.5843 0.8115 -0.0000
vn 0.5843 0.8115 -0.0000
vn 0.8115 -0.5843 -0.0000
vn -0.8115 0.5843 -0.0000
vn -0.5843 -0.8115 -0.0000
vn 0.8115 0.5843 -0.0000
vn -0.8115 -0.5843 -0.0000
vn 0.5843 -0.8115 -0.0000
vn -0.0000 0.9119 -0.4104
vn -0.4008 0.9162 -0.0000
s 0
usemtl EF_WoodDark
f 1//1 2//1 4//1 3//1
f 3//2 4//2 8//2 7//2
f 7//3 8//3 6//3 5//3
f 5//4 6//4 2//4 1//4
f 3//5 7//5 5//5 1//5
f 8//6 4//6 2//6 6//6
f 9//1 10//1 12//1 11//1
f 11//2 12//2 16//2 15//2
f 15//3 16//3 14//3 13//3
f 13//4 14//4 10//4 9//4
f 11//5 15//5 13//5 9//5
f 16//6 12//6 10//6 14//6
f 17//1 18//1 20//1 19//1
f 19//2 20//2 24//2 23//2
f 23//3 24//3 22//3 21//3
f 21//4 22//4 18//4 17//4
f 19//5 23//5 21//5 17//5
f 24//6 20//6 18//6 22//6
f 25//1 26//1 28//1 27//1
f 27//2 28//2 32//2 31//2
f 31//3 32//3 30//3 29//3
f 29//4 30//4 26//4 25//4
f 27//5 31//5 29//5 25//5
f 32//6 28//6 26//6 30//6
f 73//1 74//1 76//1 75//1
f 75//2 76//2 80//2 79//2
f 79//3 80//3 78//3 77//3
f 77//4 78//4 74//4 73//4
f 75//5 79//5 77//5 73//5
f 80//6 76//6 74//6 78//6
f 81//1 82//1 84//1 83//1
f 83//2 84//2 88//2 87//2
f 87//3 88//3 86//3 85//3
f 85//4 86//4 82//4 81//4
f 83//5 87//5 85//5 81//5
f 88//6 84//6 82//6 86//6
f 89//1 90//1 92//1 91//1
f 91//2 92//2 96//2 95//2
f 95//3 96//3 94//3 93//3
f 93//4 94//4 90//4 89//4
f 91//5 95//5 93//5 89//5
f 96//6 92//6 90//6 94//6
f 145//1 146//1 148//1 147//1
f 147//2 148//2 152//2 151//2
f 151//3 152//3 150//3 149//3
f 149//4 150//4 146//4 145//4
f 147//5 151//5 149//5 145//5
f 152//6 148//6 146//6 150//6
f 153//1 154//1 156//1 155//1
f 155//2 156//2 160//2 159//2
f 159//3 160//3 158//3 157//3
f 157//4 158//4 154//4 153//4
f 155//5 159//5 157//5 153//5
f 160//6 156//6 154//6 158//6
f 207//1 208//1 210//1 209//1
f 209//2 210//2 214//2 213//2
f 213//3 214//3 212//3 211//3
f 211//4 212//4 208//4 207//4
f 209//5 213//5 211//5 207//5
f 214//6 210//6 208//6 212//6
f 215//1 216//1 218//1 217//1
f 217//2 218//2 222//2 221//2
f 221//3 222//3 220//3 219//3
f 219//4 220//4 216//4 215//4
f 217//5 221//5 219//5 215//5
f 222//6 218//6 216//6 220//6
usemtl EF_Wood
f 33//1 34//1 36//1 35//1
f 35//2 36//2 40//2 39//2
f 39//3 40//3 38//3 37//3
f 37//4 38//4 34//4 33//4
f 35//5 39//5 37//5 33//5
f 40//6 36//6 34//6 38//6
f 97//4 34//4 38//4
f 36//2 98//2 40//2
f 38//7 40//7 98//7 97//7
f 97//8 98//8 36//8 34//8
f 141//1 139//1 140//1
f 142//3 144//3 143//3
f 139//5 142//5 143//5 140//5
f 140//15 143//15 144//15 141//15
f 141//2 144//2 142//2 139//2
f 193//1 194//1 196//1 195//1
f 195//2 196//2 200//2 199//2
f 199//3 200//3 198//3 197//3
f 197//4 198//4 194//4 193//4
f 195//5 199//5 197//5 193//5
f 200//6 196//6 194//6 198//6
usemtl EF_White
f 41//1 42//1 44//1 43//1
f 43//2 44//2 48//2 47//2
f 47//3 48//3 46//3 45//3
f 45//4 46//4 42//4 41//4
f 43//5 47//5 45//5 41//5
f 48//6 44//6 42//6 46//6
f 49//1 50//1 52//1 51//1
f 51//2 52//2 56//2 55//2
f 55//3 56//3 54//3 53//3
f 53//4 54//4 50//4 49//4
f 51//5 55//5 53//5 49//5
f 56//6 52//6 50//6 54//6
f 57//1 58//1 60//1 59//1
f 59//2 60//2 64//2 63//2
f 63//3 64//3 62//3 61//3
f 61//4 62//4 58//4 57//4
f 59//5 63//5 61//5 57//5
f 64//6 60//6 58//6 62//6
f 65//1 66//1 68//1 67//1
f 67//2 68//2 72//2 71//2
f 71//3 72//3 70//3 69//3
f 69//4 70//4 66//4 65//4
f 67//5 71//5 69//5 65//5
f 72//6 68//6 66//6 70//6
f 131//1 132//1 134//1 133//1
f 133//2 134//2 138//2 137//2
f 137//3 138//3 136//3 135//3
f 135//4 136//4 132//4 131//4
f 133//5 137//5 135//5 131//5
f 138//6 134//6 132//6 136//6
f 223//1 224//1 226//1 225//1
f 225//2 226//2 230//2 229//2
f 229//3 230//3 228//3 227//3
f 227//4 228//4 224//4 223//4
f 225//5 229//5 227//5 223//5
f 230//6 226//6 224//6 228//6
f 231//1 232//1 234//1 233//1
f 233//2 234//2 238//2 237//2
f 237//3 238//3 236//3 235//3
f 235//4 236//4 232//4 231//4
f 233//5 237//5 235//5 231//5
f 238//6 234//6 232//6 236//6
usemtl EF_Roof
f 99//9 100//9 102//9 101//9
f 101//2 102//2 106//2 105//2
f 105//10 106//10 104//10 103//10
f 103//4 104//4 100//4 99//4
f 101//11 105//11 103//11 99//11
f 106//8 102//8 100//8 104//8
f 107//12 108//12 110//12 109//12
f 109//2 110//2 114//2 113//2
f 113//13 114//13 112//13 111//13
f 111//4 112//4 108//4 107//4
f 109//14 113//14 111//14 107//14
f 114//7 110//7 108//7 112//7
f 115//1 116//1 118//1 117//1
f 117//2 118//2 122//2 121//2
f 121//3 122//3 120//3 119//3
f 119//4 120//4 116//4 115//4
f 117//5 121//5 119//5 115//5
f 122//6 118//6 116//6 120//6
f 203//4 201//4 202//4
f 204//2 206//2 205//2
f 201//5 204//5 205//5 202//5
f 202//16 205//16 206//16 203//16
f 203//1 206//1 204//1 201//1
usemtl EF_Black
f 123//1 124//1 126//1 125//1
f 125//2 126//2 130//2 129//2
f 129//3 130//3 128//3 127//3
f 127//4 128//4 124//4 123//4
f 125//5 129//5 127//5 123//5
f 130//6 126//6 124//6 128//6
usemtl EF_Accent
f 161//1 162//1 164//1 163//1
f 163//2 164//2 168//2 167//2
f 167//3 168//3 166//3 165//3
f 165//4 166//4 162//4 161//4
f 163//5 167//5 165//5 161//5
f 168//6 164//6 162//6 166//6
f 177//1 178//1 180//1 179//1
f 179//2 180//2 184//2 183//2
f 183//3 184//3 182//3 181//3
f 181//4 182//4 178//4 177//4
f 179//5 183//5 181//5 177//5
f 184//6 180//6 178//6 182//6
f 185//1 186//1 188//1 187//1
f 187//2 188//2 192//2 191//2
f 191//3 192//3 190//3 189//3
f 189//4 190//4 186//4 185//4
f 187//5 191//5 189//5 185//5
f 192//6 188//6 186//6 190//6
usemtl EF_Glass
f 169//1 170//1 172//1 171//1
f 171//2 172//2 176//2 175//2
f 175//3 176//3 174//3 173//3
f 173//4 174//4 170//4 169//4
f 171//5 175//5 173//5 169//5
f 176//6 172//6 170//6 174//6
