# Blender 5.0.1
# www.blender.org
mtllib MegaDome.mtl
o MegaDome
v -0.000000 7.962619 1.713325
v -0.000000 8.204000 0.119000
v -0.000001 0.000000 7.119000
v -0.000001 0.280000 7.119000
v -1.365633 0.000000 6.984496
v -1.365633 0.280000 6.984496
v -2.678785 0.000000 6.586157
v -2.678785 0.280000 6.586157
v -3.888992 0.000000 5.939286
v -3.888992 0.280000 5.939286
v -4.949748 0.000000 5.068747
v -4.949748 0.280000 5.068747
v -5.820288 0.000000 4.007991
v -5.820288 0.280000 4.007991
v -6.467156 0.000000 2.797784
v -6.467156 0.280000 2.797784
v -6.865497 0.000000 1.484632
v -6.865497 0.280000 1.484632
v -7.000000 0.000000 0.118999
v -7.000000 0.280000 0.118999
v -6.865497 0.000000 -1.246633
v -6.865497 0.280000 -1.246633
v -6.467156 0.000000 -2.559785
v -6.467156 0.280000 -2.559785
v -5.820286 0.000000 -3.769992
v -5.820286 0.280000 -3.769992
v -4.949747 0.000000 -4.830748
v -4.949747 0.280000 -4.830748
v -3.888991 0.000000 -5.701288
v -3.888991 0.280000 -5.701288
v -2.678784 0.000000 -6.348156
v -2.678784 0.280000 -6.348156
v -1.365632 0.000000 -6.746497
v -1.365632 0.280000 -6.746497
v 0.000001 0.000000 -6.881000
v 0.000001 0.280000 -6.881000
v 1.365633 0.000000 -6.746497
v 1.365633 0.280000 -6.746497
v 2.678785 0.000000 -6.348156
v 2.678785 0.280000 -6.348156
v 3.888992 0.000000 -5.701287
v 3.888992 0.280000 -5.701287
v 4.949748 0.000000 -4.830747
v 4.949748 0.280000 -4.830747
v 5.820288 0.000000 -3.769991
v 5.820288 0.280000 -3.769991
v 6.467156 0.000000 -2.559783
v 6.467156 0.280000 -2.559783
v 6.865497 0.000000 -1.246632
v 6.865497 0.280000 -1.246632
v 7.000000 0.000000 0.119001
v 7.000000 0.280000 0.119001
v 6.865497 0.000000 1.484633
v 6.865497 0.280000 1.484633
v 6.467156 0.000000 2.797785
v 6.467156 0.280000 2.797785
v 5.820286 0.000000 4.007992
v 5.820286 0.280000 4.007992
v 4.949747 0.000000 5.068748
v 4.949747 0.280000 5.068748
v 3.888991 0.000000 5.939287
v 3.888991 0.280000 5.939287
v 2.678784 0.000000 6.586157
v 2.678784 0.280000 6.586157
v 1.365632 0.000000 6.984496
v 1.365632 0.280000 6.984496
v -0.000001 0.280000 6.447001
v -0.000001 1.120000 6.447001
v -1.234532 0.280000 6.325409
v -1.234532 1.120000 6.325409
v -2.421622 0.280000 5.965309
v -2.421622 1.120000 5.965309
v -3.515649 0.280000 5.380539
v -3.515649 1.120000 5.380539
v -4.474572 0.280000 4.593571
v -4.474572 1.120000 4.593571
v -5.261540 0.280000 3.634648
v -5.261540 1.120000 3.634648
v -5.846310 0.280000 2.540621
v -5.846310 1.120000 2.540621
v -6.206409 0.280000 1.353531
v -6.206409 1.120000 1.353531
v -6.328000 0.280000 0.119000
v -6.328000 1.120000 0.119000
v -6.206409 0.280000 -1.115532
v -6.206409 1.120000 -1.115532
v -5.846310 0.280000 -2.302621
v -5.846310 1.120000 -2.302621
v -5.261539 0.280000 -3.396649
v -5.261539 1.120000 -3.396649
v -4.474572 0.280000 -4.355572
v -4.474572 1.120000 -4.355572
v -3.515648 0.280000 -5.142540
v -3.515648 1.120000 -5.142540
v -2.421620 0.280000 -5.727310
v -2.421620 1.120000 -5.727310
v -1.234531 0.280000 -6.087409
v -1.234531 1.120000 -6.087409
v 0.000001 0.280000 -6.209000
v 0.000001 1.120000 -6.209000
v 1.234532 0.280000 -6.087409
v 1.234532 1.120000 -6.087409
v 2.421622 0.280000 -5.727310
v 2.421622 1.120000 -5.727310
v 3.515649 0.280000 -5.142540
v 3.515649 1.120000 -5.142540
v 4.474572 0.280000 -4.355572
v 4.474572 1.120000 -4.355572
v 5.261540 0.280000 -3.396648
v 5.261540 1.120000 -3.396648
v 5.846310 0.280000 -2.302620
v 5.846310 1.120000 -2.302620
v 6.206409 0.280000 -1.115531
v 6.206409 1.120000 -1.115531
v 6.328000 0.280000 0.119001
v 6.328000 1.120000 0.119001
v 6.206409 0.280000 1.353532
v 6.206409 1.120000 1.353532
v 5.846310 0.280000 2.540622
v 5.846310 1.120000 2.540622
v 5.261539 0.280000 3.634649
v 5.261539 1.120000 3.634649
v 4.474571 0.280000 4.593572
v 4.474571 1.120000 4.593572
v 3.515648 0.280000 5.380540
v 3.515648 1.120000 5.380540
v 2.421620 0.280000 5.965309
v 2.421620 1.120000 5.965309
v 1.234531 0.280000 6.325409
v 1.234531 1.120000 6.325409
v -0.000001 1.120000 6.559000
v -0.000001 1.288000 6.559000
v -1.256382 1.120000 6.435257
v -1.256382 1.288000 6.435257
v -2.464482 1.120000 6.068784
v -2.464482 1.288000 6.068784
v -3.577873 1.120000 5.473664
v -3.577873 1.288000 5.473664
v -4.553768 1.120000 4.672768
v -4.553768 1.288000 4.672768
v -5.354665 1.120000 3.696872
v -5.354665 1.288000 3.696872
v -5.949784 1.120000 2.583481
v -5.949784 1.288000 2.583481
v -6.316257 1.120000 1.375381
v -6.316257 1.288000 1.375381
v -6.440000 1.120000 0.118999
v -6.440000 1.288000 0.118999
v -6.316257 1.120000 -1.137382
v -6.316257 1.288000 -1.137382
v -5.949784 1.120000 -2.345482
v -5.949784 1.288000 -2.345482
v -5.354663 1.120000 -3.458873
v -5.354663 1.288000 -3.458873
v -4.553767 1.120000 -4.434768
v -4.553767 1.288000 -4.434768
v -3.577872 1.120000 -5.235664
v -3.577872 1.288000 -5.235664
v -2.464481 1.120000 -5.830784
v -2.464481 1.288000 -5.830784
v -1.256381 1.120000 -6.197257
v -1.256381 1.288000 -6.197257
v 0.000001 1.120000 -6.321000
v 0.000001 1.288000 -6.321000
v 1.256382 1.120000 -6.197257
v 1.256382 1.288000 -6.197257
v 2.464482 1.120000 -5.830784
v 2.464482 1.288000 -5.830784
v 3.577873 1.120000 -5.235663
v 3.577873 1.288000 -5.235663
v 4.553768 1.120000 -4.434767
v 4.553768 1.288000 -4.434767
v 5.354665 1.120000 -3.458872
v 5.354665 1.288000 -3.458872
v 5.949784 1.120000 -2.345481
v 5.949784 1.288000 -2.345481
v 6.316257 1.120000 -1.137381
v 6.316257 1.288000 -1.137381
v 6.440000 1.120000 0.119001
v 6.440000 1.288000 0.119001
v 6.316257 1.120000 1.375382
v 6.316257 1.288000 1.375382
v 5.949784 1.120000 2.583482
v 5.949784 1.288000 2.583482
v 5.354663 1.120000 3.696873
v 5.354663 1.288000 3.696873
v 4.553767 1.120000 4.672769
v 4.553767 1.288000 4.672769
v 3.577872 1.120000 5.473665
v 3.577872 1.288000 5.473665
v 2.464481 1.120000 6.068784
v 2.464481 1.288000 6.068784
v 1.256381 1.120000 6.435257
v 1.256381 1.288000 6.435257
v -0.000000 7.254924 3.199000
v 3.925853 6.536358 0.035000
v 5.244843 5.071471 0.035000
v -0.000001 2.953474 6.069103
v -0.000001 1.120000 6.279000
v 4.341662 1.118204 4.579457
v 3.925853 6.536358 0.203000
v 5.244843 5.071471 0.203000
v 5.312454 5.042584 0.035001
v 0.084000 8.313518 0.743237
v 0.084000 7.836641 2.655884
v -0.412642 7.962619 1.659000
v 6.145518 3.256071 0.035001
v -0.797163 7.254924 3.094052
v -1.127359 6.129144 4.326358
v -1.380727 4.662000 5.271940
v -1.540001 2.953474 5.866358
v -1.594326 1.120000 6.069103
v -0.084000 8.313518 0.743237
v -0.084000 7.836641 2.655884
v 0.084000 8.150508 0.702594
v 0.084000 7.673632 2.615241
v -0.084000 8.150508 0.702594
v 5.312454 5.042584 0.203001
v -0.797163 7.962619 1.499726
v 6.145518 3.256071 0.203001
v -1.540000 7.254924 2.786358
v -2.177889 6.129144 3.891213
v -2.667359 4.662000 4.739000
v -2.975052 2.953474 5.271940
v -3.080001 1.120000 5.453716
v -0.084000 7.673632 2.615241
v 0.084000 7.771797 2.560074
v 0.084000 6.756554 4.249722
v -0.084000 7.771797 2.560074
v -0.084000 6.756554 4.249722
v 5.160194 4.971585 0.035001
v -1.127358 7.962619 1.246358
v 5.993258 3.185071 0.035001
v -2.177889 7.254924 2.296889
v -3.080000 6.129144 3.198999
v -3.772214 4.662000 3.891214
v -4.207358 2.953474 4.326358
v -4.355778 1.120000 4.474778
v 0.084000 7.627793 2.473547
v 0.084000 6.612550 4.163196
v -0.084000 7.627793 2.473547
v -0.084000 6.612550 4.163196
v 0.084000 6.648772 4.169701
v 5.160194 4.971585 0.203001
v -1.380726 7.962619 0.916163
v 5.993258 3.185071 0.203001
v -2.667359 7.254924 1.659000
v -3.772214 6.129144 2.296888
v -4.619999 4.662000 2.786357
v -5.152941 2.953474 3.094051
v -5.334717 1.120000 3.198999
v 0.084000 5.183885 5.488692
v -0.084000 6.648772 4.169701
v -0.084000 5.183885 5.488692
v 0.084000 6.536358 4.044853
v 0.084000 5.071471 5.363843
v 6.116065 3.093601 0.035001
v -1.540000 7.962619 0.531642
v 6.390403 1.141585 0.035001
v -2.975052 7.254924 0.916162
v -4.207358 6.129144 1.246358
v -5.152940 4.662000 1.499726
v -5.747358 2.953474 1.658999
v -5.950103 1.120000 1.713325
v -0.084000 6.536358 4.044853
v -0.084000 5.071471 5.363843
v 0.084000 5.042584 5.431454
v 0.083999 3.256071 6.264518
v -0.084000 5.042584 5.431454
v 6.116065 3.093601 0.203001
v -1.594325 7.962619 0.119000
v 6.390403 1.141585 0.203001
v -3.080000 7.254924 0.119000
v -4.355777 6.129144 0.118999
v -5.334716 4.662000 0.119000
v -5.950102 2.953474 0.118999
v -6.160000 1.120000 0.118999
v -0.084001 3.256071 6.264518
v 0.084000 4.971585 5.279194
v 0.083999 3.185071 6.112258
v -0.084000 4.971585 5.279194
v -0.084001 3.185071 6.112258
v 5.949700 3.070220 0.035001
v -1.540000 7.962619 -0.293642
v 6.224038 1.118204 0.035001
v -2.975052 7.254924 -0.678163
v -4.207357 6.129144 -1.008359
v -5.152940 4.662000 -1.261726
v -5.747358 2.953474 -1.421001
v -5.950103 1.120000 -1.475326
v 0.083999 3.093601 6.235065
v 0.083999 1.141585 6.509403
v -0.084001 3.093601 6.235065
v -0.084001 1.141585 6.509403
v 0.083999 3.070220 6.068700
v 5.949700 3.070220 0.203001
v -1.380726 7.962619 -0.678163
v 6.224038 1.118204 0.203001
v -2.667358 7.254924 -1.421000
v -3.772213 6.129144 -2.058889
v -4.619999 4.662000 -2.548358
v -5.152939 2.953474 -2.856052
v -5.334716 1.120000 -2.961000
v 0.083999 1.118204 6.343038
v -0.084001 3.070220 6.068700
v -0.084001 1.118204 6.343038
v -0.382005 8.313518 0.619799
v -1.734451 7.836641 1.972245
v 0.500799 8.313518 0.501005
v -1.127358 7.962619 -1.008358
v 1.853245 7.836641 1.853451
v -2.177889 7.254924 -2.058889
v -3.079999 6.129144 -2.961000
v -3.772213 4.662000 -3.653214
v -4.207357 2.953474 -4.088358
v -4.355777 1.120000 -4.236778
v -0.500799 8.313518 0.501005
v -1.853245 7.836641 1.853451
v -0.353266 8.150508 0.591060
v -1.705712 7.673632 1.943506
v -0.472060 8.150508 0.472266
v 0.382005 8.313518 0.619799
v -0.797162 7.962619 -1.261726
v 1.734451 7.836641 1.972245
v -1.540000 7.254924 -2.548358
v -2.177888 6.129144 -3.653214
v -2.667357 4.662000 -4.500999
v -2.975050 2.953474 -5.033939
v -3.079999 1.120000 -5.215717
v -1.824506 7.673632 1.824712
v -1.666703 7.771797 1.904496
v -2.861465 6.756554 3.099258
v -1.785497 7.771797 1.785703
v -2.980259 6.756554 2.980464
v 0.472060 8.150508 0.472266
v -0.412642 7.962619 -1.421000
v 1.824506 7.673632 1.824712
v -0.797162 7.254924 -2.856051
v -1.127357 6.129144 -4.088357
v -1.380726 4.662000 -5.033939
v -1.539999 2.953474 -5.628357
v -1.594324 1.120000 -5.831103
v -1.605519 7.627793 1.843313
v -2.800281 6.612550 3.038075
v -1.724313 7.627793 1.724519
v -2.919075 6.612550 2.919281
v -2.804882 6.648772 3.042675
v 0.353266 8.150508 0.591060
v 0.000000 7.962619 -1.475325
v 1.705712 7.673632 1.943506
v 0.000000 7.254924 -2.961000
v 0.000001 6.129144 -4.236776
v 0.000001 4.662000 -5.215716
v 0.000001 2.953474 -5.831102
v 0.000001 1.120000 -6.041000
v -3.737549 5.183885 3.975342
v -2.923676 6.648772 2.923881
v -3.856343 5.183885 3.856548
v -2.716600 6.536358 2.954394
v -3.649267 5.071471 3.887061
v 1.785496 7.771797 1.785703
v 0.412642 7.962619 -1.421000
v 2.980258 6.756554 2.980465
v 0.797163 7.254924 -2.856051
v 1.127359 6.129144 -4.088357
v 1.380727 4.662000 -5.033939
v 1.540001 2.953474 -5.628357
v 1.594326 1.120000 -5.831103
v -2.835394 6.536358 2.835600
v -3.768061 5.071471 3.768267
v -3.697075 5.042584 3.934868
v -4.286141 3.256071 4.523934
v -3.815869 5.042584 3.816075
v 1.666703 7.771797 1.904497
v 0.797163 7.962619 -1.261726
v 2.861464 6.756554 3.099259
v 1.540000 7.254924 -2.548358
v 2.177889 6.129144 -3.653213
v 2.667359 4.662000 -4.500999
v 2.975052 2.953474 -5.033939
v 3.080001 1.120000 -5.215716
v -4.404935 3.256071 4.405140
v -3.589411 4.971585 3.827204
v -4.178477 3.185071 4.416270
v -3.708205 4.971585 3.708411
v -4.297271 3.185071 4.297476
v 1.724313 7.627793 1.724519
v 1.127358 7.962619 -1.008358
v 2.919075 6.612550 2.919281
v 2.177889 7.254924 -2.058889
v 3.080000 6.129144 -2.960999
v 3.772214 4.662000 -3.653213
v 4.207358 2.953474 -4.088357
v 4.355778 1.120000 -4.236777
v -4.265314 3.093601 4.503107
v -4.459301 1.141585 4.697094
v -4.384108 3.093601 4.384314
v -4.578094 1.141585 4.578300
v -4.147676 3.070220 4.385470
v 1.605519 7.627793 1.843313
v 1.380726 7.962619 -0.678162
v 2.800281 6.612550 3.038075
v 2.667358 7.254924 -1.421000
v 3.772214 6.129144 -2.058888
v 4.619999 4.662000 -2.548357
v 5.152940 2.953474 -2.856050
v 5.334716 1.120000 -2.960999
v -4.341663 1.118204 4.579456
v -4.266470 3.070220 4.266676
v -4.460457 1.118204 4.460662
v -0.624237 8.313518 0.203000
v -2.536884 7.836641 0.203000
v 2.923675 6.648772 2.923882
v 1.540000 7.962619 -0.293641
v 3.856342 5.183885 3.856549
v 2.975052 7.254924 -0.678162
v 4.207357 6.129144 -1.008357
v 5.152939 4.662000 -1.261725
v 5.747358 2.953474 -1.420999
v 5.950103 1.120000 -1.475324
v -0.624237 8.313518 0.035000
v -2.536884 7.836641 0.035000
v -0.583594 8.150508 0.203000
v -2.496241 7.673632 0.203000
v -0.583594 8.150508 0.035000
v 2.804881 6.648772 3.042675
v 1.594325 7.962619 0.119000
v 3.737548 5.183885 3.975343
v 3.080000 7.254924 0.119000
v 4.355777 6.129144 0.119001
v 5.334715 4.662000 0.119001
v 5.950102 2.953474 0.119001
v 6.160000 1.120000 0.119001
v -2.496241 7.673632 0.035000
v -2.441073 7.771797 0.203000
v -4.130722 6.756554 0.203000
v -2.441073 7.771797 0.035000
v -4.130722 6.756554 0.035000
v 2.835394 6.536358 2.835601
v 1.540000 7.962619 0.531642
v 3.768061 5.071471 3.768268
v 2.975052 7.254924 0.916163
v 4.207357 6.129144 1.246359
v 5.152939 4.662000 1.499727
v 5.747357 2.953474 1.659001
v 5.950103 1.120000 1.713326
v -2.354547 7.627793 0.203000
v -4.044195 6.612550 0.203000
v -2.354547 7.627793 0.035000
v -4.044195 6.612550 0.035000
v -4.050701 6.648772 0.203000
v 2.716600 6.536358 2.954395
v 1.380726 7.962619 0.916163
v 3.649267 5.071471 3.887062
v 2.667358 7.254924 1.659000
v 3.772213 6.129144 2.296889
v 4.619999 4.662000 2.786359
v 5.152939 2.953474 3.094052
v 5.334716 1.120000 3.199001
v -5.369691 5.183885 0.203000
v -4.050701 6.648772 0.035000
v -5.369691 5.183885 0.035000
v -3.925853 6.536358 0.203000
v -5.244843 5.071471 0.203000
v 3.815868 5.042584 3.816075
v 1.127358 7.962619 1.246358
v 4.404934 3.256071 4.405141
v 2.177889 7.254924 2.296889
v 3.079999 6.129144 3.199000
v 3.772213 4.662000 3.891214
v 4.207357 2.953474 4.326358
v 4.355777 1.120000 4.474778
v -3.925853 6.536358 0.035000
v -5.244843 5.071471 0.035000
v -5.312454 5.042584 0.203000
v -6.145518 3.256071 0.203000
v -5.312454 5.042584 0.035000
v 3.697074 5.042584 3.934869
v 0.797162 7.962619 1.499726
v 4.286140 3.256071 4.523935
v 1.540000 7.254924 2.786359
v 2.177888 6.129144 3.891214
v 2.667356 4.662000 4.739000
v 2.975050 2.953474 5.271940
v 3.079999 1.120000 5.453717
v -6.145518 3.256071 0.035000
v -5.160194 4.971585 0.203000
v -5.993258 3.185071 0.203000
v -5.160194 4.971585 0.035000
v -5.993258 3.185071 0.035000
v 3.708205 4.971585 3.708411
v 0.412641 7.962619 1.659000
v 4.297270 3.185071 4.297477
v 0.797162 7.254924 3.094052
v 1.127357 6.129144 4.326357
v 1.380725 4.662000 5.271939
v 1.539999 2.953474 5.866358
v 1.594324 1.120000 6.069103
v -6.116065 3.093601 0.203000
v -6.390403 1.141585 0.203000
v -6.116065 3.093601 0.035000
v -6.390403 1.141585 0.034999
v -5.949700 3.070220 0.203000
v 3.589411 4.971585 3.827205
v 4.178476 3.185071 4.416271
v 4.384108 3.093601 4.384314
v 4.578094 1.141585 4.578301
v -0.000001 6.129144 4.474777
v -0.000001 4.662000 5.453715
v 4.265314 3.093601 4.503108
v 4.459300 1.141585 4.697095
v 4.266470 3.070220 4.266676
v -6.224038 1.118204 0.203000
v -5.949700 3.070220 0.035000
v -6.224038 1.118204 0.035000
v 4.460456 1.118204 4.460663
v 4.147676 3.070220 4.385470
v 5.369691 5.183885 0.203000
v 4.050701 6.648772 0.203000
v 5.369691 5.183885 0.035000
v 4.050701 6.648772 0.035000
v 4.044195 6.612550 0.203000
v 2.354547 7.627793 0.203000
v 4.044195 6.612550 0.035000
v 2.354547 7.627793 0.035000
v 4.130722 6.756554 0.203000
v 2.441073 7.771797 0.203000
v 4.130722 6.756554 0.035000
v 2.441073 7.771797 0.035000
v 2.496241 7.673632 0.203000
v 0.583594 8.150508 0.203000
v 2.496241 7.673632 0.035000
v 0.583594 8.150508 0.035000
v 2.536884 7.836641 0.203000
v 0.624237 8.313518 0.203000
v 2.536884 7.836641 0.035000
v 0.624237 8.313518 0.035000
v 4.460457 1.118204 -4.222662
v 4.266470 3.070220 -4.028676
v 4.341663 1.118204 -4.341456
v 4.147676 3.070220 -4.147470
v 4.578094 1.141585 -4.340300
v 4.384108 3.093601 -4.146314
v 4.459301 1.141585 -4.459094
v 4.265314 3.093601 -4.265108
v 4.297271 3.185071 -4.059476
v 3.708205 4.971585 -3.470411
v 4.178477 3.185071 -4.178270
v 3.589411 4.971585 -3.589205
v 4.404935 3.256071 -4.167140
v 3.815869 5.042584 -3.578074
v 4.286141 3.256071 -4.285934
v 3.697075 5.042584 -3.696868
v 3.768061 5.071471 -3.530267
v 2.835394 6.536358 -2.597600
v 3.649267 5.071471 -3.649061
v 2.716600 6.536358 -2.716394
v 3.856343 5.183885 -3.618548
v 2.923676 6.648772 -2.685881
v 3.737549 5.183885 -3.737342
v 2.804882 6.648772 -2.804675
v 2.919075 6.612550 -2.681281
v 1.724313 7.627793 -1.486519
v 2.800281 6.612550 -2.800075
v 1.605519 7.627793 -1.605313
v 2.980259 6.756554 -2.742464
v 1.785497 7.771797 -1.547703
v 2.861465 6.756554 -2.861258
v 1.666703 7.771797 -1.666497
v 1.824506 7.673632 -1.586712
v 0.472060 8.150508 -0.234266
v 1.705712 7.673632 -1.705506
v 0.353266 8.150508 -0.353060
v 1.853245 7.836641 -1.615451
v 0.500799 8.313518 -0.263005
v 1.734451 7.836641 -1.734244
v 0.382005 8.313518 -0.381799
v 0.084001 1.118204 -6.105038
v 0.084001 3.070220 -5.830700
v -0.083999 1.118204 -6.105038
v -0.083999 3.070220 -5.830700
v 0.084001 1.141585 -6.271403
v 0.084001 3.093601 -5.997066
v -0.083999 1.141585 -6.271403
v -0.083999 3.093601 -5.997066
v 0.084001 3.185071 -5.874259
v 0.084000 4.971585 -5.041194
v -0.083999 3.185071 -5.874259
v -0.084000 4.971585 -5.041194
v 0.084001 3.256071 -6.026519
v 0.084000 5.042584 -5.193454
v -0.083999 3.256071 -6.026519
v -0.084000 5.042584 -5.193454
v 0.084000 5.071471 -5.125844
v 0.084000 6.536358 -3.806853
v -0.084000 5.071471 -5.125844
v -0.084000 6.536358 -3.806853
v 0.084000 5.183885 -5.250691
v 0.084000 6.648772 -3.931701
v -0.084000 5.183885 -5.250691
v -0.084000 6.648772 -3.931701
v 0.084000 6.612550 -3.925195
v 0.084000 7.627793 -2.235547
v -0.084000 6.612550 -3.925195
v -0.084000 7.627793 -2.235547
v 0.084000 6.756554 -4.011722
v 0.084000 7.771797 -2.322073
v -0.084000 6.756554 -4.011722
v -0.084000 7.771797 -2.322073
v 0.084000 7.673632 -2.377241
v 0.084000 8.150508 -0.464594
v -0.084000 7.673632 -2.377241
v -0.084000 8.150508 -0.464594
v 0.084000 7.836641 -2.417884
v 0.084000 8.313518 -0.505237
v -0.084000 7.836641 -2.417884
v -0.084000 8.313518 -0.505237
v -4.341662 1.118204 -4.341457
v -4.147676 3.070220 -4.147470
v -4.460456 1.118204 -4.222663
v -4.266470 3.070220 -4.028677
v -4.459300 1.141585 -4.459095
v -4.265314 3.093601 -4.265108
v -4.578094 1.141585 -4.340301
v -4.384108 3.093601 -4.146314
v -4.178476 3.185071 -4.178271
v -3.589411 4.971585 -3.589205
v -4.297270 3.185071 -4.059477
v -3.708205 4.971585 -3.470411
v -4.286140 3.256071 -4.285935
v -3.697074 5.042584 -3.696869
v -4.404934 3.256071 -4.167141
v -3.815868 5.042584 -3.578075
v -3.649267 5.071471 -3.649061
v -2.716600 6.536358 -2.716394
v -3.768061 5.071471 -3.530267
v -2.835394 6.536358 -2.597600
v -3.737548 5.183885 -3.737342
v -2.804881 6.648772 -2.804675
v -3.856342 5.183885 -3.618549
v -2.923675 6.648772 -2.685882
v -2.800281 6.612550 -2.800075
v -1.605519 7.627793 -1.605313
v -2.919075 6.612550 -2.681281
v -1.724313 7.627793 -1.486519
v -2.861464 6.756554 -2.861259
v -1.666703 7.771797 -1.666497
v -2.980258 6.756554 -2.742465
v -1.785497 7.771797 -1.547703
v -1.705712 7.673632 -1.705506
v -0.353266 8.150508 -0.353060
v -1.824506 7.673632 -1.586712
v -0.472060 8.150508 -0.234266
v -1.734451 7.836641 -1.734245
v -0.382005 8.313518 -0.381799
v -1.853244 7.836641 -1.615451
v -0.500799 8.313518 -0.263005
v 1.260001 0.000000 -7.021000
v 1.260001 2.240000 -7.021000
v 1.260001 0.000000 -5.621000
v 1.260001 2.240000 -5.621000
v -1.259999 0.000000 -7.021000
v -1.259999 2.240000 -7.021000
v -1.260000 0.000000 -5.621000
v -1.260000 2.240000 -5.621000
v 1.260001 2.240000 -7.077001
v -1.259999 2.240000 -7.077001
v 0.000001 2.940000 -7.077001
v 1.260001 2.240000 -5.565000
v -1.260000 2.240000 -5.565000
v 0.000000 2.940000 -5.565000
v 0.700001 0.280000 -7.077001
v 0.700001 1.960000 -7.077001
v 0.700001 0.280000 -6.965000
v 0.700001 1.960000 -6.965000
v -0.699999 0.280000 -7.077001
v -0.699999 1.960000 -7.077001
v -0.699999 0.280000 -6.965000
v -0.699999 1.960000 -6.965000
v 0.784001 1.960000 -7.119000
v 0.784001 2.100000 -7.119000
v 0.784001 1.960000 -6.979000
v 0.784001 2.100000 -6.979000
v -0.783999 1.960000 -7.119000
v -0.783999 2.100000 -7.119000
v -0.783999 1.960000 -6.979000
v -0.783999 2.100000 -6.979000
v -0.000000 8.932000 0.119000
v -0.000000 8.092000 0.679000
v -0.000000 8.428000 0.679000
v -0.280000 8.092000 0.603974
v -0.280000 8.428000 0.603974
v -0.484974 8.092000 0.399000
v -0.484974 8.428000 0.399000
v -0.560000 8.092000 0.119000
v -0.560000 8.428000 0.119000
v -0.484974 8.092000 -0.161000
v -0.484974 8.428000 -0.161000
v -0.280000 8.092000 -0.365974
v -0.280000 8.428000 -0.365974
v 0.000000 8.092000 -0.441000
v 0.000000 8.428000 -0.441000
v 0.280000 8.092000 -0.365974
v 0.280000 8.428000 -0.365974
v 0.484974 8.092000 -0.161000
v 0.484974 8.428000 -0.161000
v 0.560000 8.092000 0.119000
v 0.560000 8.428000 0.119000
v 0.484974 8.092000 0.399000
v 0.484974 8.428000 0.399000
v 0.280000 8.092000 0.603974
v 0.280000 8.428000 0.603974
v -0.000000 8.260000 0.119000
v -0.098748 8.886985 0.254915
v -0.171036 8.764000 0.354411
v -0.197496 8.596001 0.390830
v -0.171036 8.428000 0.354411
v -0.098748 8.305016 0.254915
v -0.159778 8.886985 0.170915
v -0.276743 8.764000 0.208919
v -0.319555 8.596001 0.222830
v -0.276743 8.428000 0.208919
v -0.159778 8.305016 0.170915
v -0.159777 8.886985 0.067085
v -0.276743 8.764000 0.029081
v -0.319555 8.596001 0.015170
v -0.276743 8.428000 0.029081
v -0.159777 8.305016 0.067085
v -0.098748 8.886985 -0.016915
v -0.171036 8.764000 -0.116411
v -0.197496 8.596001 -0.152830
v -0.171036 8.428000 -0.116411
v -0.098748 8.305016 -0.016915
v -0.000000 8.886985 -0.049000
v -0.000000 8.764000 -0.171984
v 0.000000 8.596001 -0.217000
v -0.000000 8.428000 -0.171984
v -0.000000 8.305016 -0.049000
v 0.098748 8.886985 -0.016915
v 0.171036 8.764000 -0.116411
v 0.197496 8.596001 -0.152830
v 0.171036 8.428000 -0.116411
v 0.098748 8.305016 -0.016915
v 0.159777 8.886985 0.067085
v 0.276743 8.764000 0.029081
v 0.319555 8.596001 0.015170
v 0.276743 8.428000 0.029081
v 0.159777 8.305016 0.067085
v 0.159777 8.886985 0.170915
v 0.276743 8.764000 0.208919
v 0.319555 8.596001 0.222830
v 0.276743 8.428000 0.208919
v 0.159777 8.305016 0.170915
v 0.098748 8.886985 0.254915
v 0.171036 8.764000 0.354411
v 0.197496 8.596001 0.390830
v 0.171036 8.428000 0.354411
v 0.098748 8.305016 0.254915
v 0.000000 8.886985 0.287000
v 0.000000 8.764000 0.409985
v 0.000000 8.596001 0.455000
v 0.000000 8.428000 0.409985
v 0.000000 8.305016 0.287000
vn -0.4714 -0.0000 -0.8819
vn -0.9569 -0.0000 0.2903
vn -0.0980 -0.0000 0.9952
vn 0.7730 -0.0000 -0.6344
vn -0.9569 -0.0000 -0.2903
vn -0.2903 -0.0000 0.9569
vn 0.6344 -0.0000 -0.7730
vn -0.8572 0.5150 -0.0000
vn -0.4714 -0.0000 0.8819
vn 0.8572 -0.5150 -0.0000
vn -0.0578 0.9885 0.1395
vn -0.6344 -0.0000 0.7730
vn -0.9952 -0.0000 -0.0980
vn -0.7730 -0.0000 0.6344
vn 0.4714 -0.0000 -0.8819
vn 0.2903 -0.0000 -0.9569
vn -0.8819 -0.0000 0.4714
vn -0.3436 0.9014 0.2636
vn -0.0000 -0.0000 1.0000
vn -0.0919 0.9885 0.1198
vn -0.9952 -0.0000 0.0980
vn -0.3802 0.1128 0.9180
vn -0.2903 -0.0000 -0.9569
vn 0.5150 0.8572 -0.0000
vn -0.8819 -0.0000 -0.4714
vn 0.0980 -0.0000 -0.9952
vn -0.1198 0.9885 0.0919
vn -0.7730 -0.0000 -0.6344
vn -0.0000 -0.0000 -1.0000
vn -0.5150 -0.8572 -0.0000
vn -0.6344 -0.0000 -0.7730
vn -0.0980 -0.0000 -0.9952
vn -0.6617 0.5517 0.5077
vn -0.8701 0.3363 0.3604
vn -0.4047 0.7470 0.5275
vn -0.1089 0.5517 0.8269
vn -0.6691 0.7431 -0.0000
vn -0.7883 0.1128 0.6049
vn 0.6691 -0.7431 -0.0000
vn 0.8819 -0.0000 -0.4714
vn 0.9569 -0.0000 -0.2903
vn 0.9952 -0.0000 -0.0980
vn 0.7431 0.6691 -0.0000
vn 0.9952 -0.0000 0.0980
vn -0.5077 0.5517 0.6617
vn 0.9569 -0.0000 0.2903
vn -0.0565 0.9014 0.4294
vn 0.8819 -0.0000 0.4714
vn -0.4001 0.9014 0.1657
vn 0.7730 -0.0000 0.6344
vn -0.6142 0.7470 0.2544
vn 0.6344 -0.0000 0.7730
vn -0.7431 -0.6691 -0.0000
vn 0.4714 -0.0000 0.8819
vn -0.0000 1.0000 -0.0000
vn -0.3604 0.3363 0.8701
vn 0.2903 -0.0000 0.9569
vn -0.9180 0.1128 0.3802
vn -0.2544 0.7470 0.6142
vn 0.0980 -0.0000 0.9952
vn -0.0000 -1.0000 -0.0000
vn -0.4226 0.9063 -0.0000
vn 0.4226 -0.9063 -0.0000
vn -0.3192 0.5517 0.7705
vn -0.1395 0.9885 0.0578
vn -0.7705 0.5517 0.3192
vn -0.1657 0.9014 0.4001
vn 0.9063 0.4226 -0.0000
vn -0.6049 0.1128 0.7883
vn -0.9063 -0.4226 -0.0000
vn -0.1392 0.9903 -0.0000
vn -0.5733 0.3363 0.7471
vn 0.1392 -0.9903 -0.0000
vn 0.9903 0.1392 -0.0000
vn -0.9903 -0.1392 -0.0000
vn -0.5275 0.7470 0.4047
vn -0.1229 0.3363 0.9337
vn -0.7471 0.3363 0.5733
vn -0.0868 0.7470 0.6592
vn -0.6861 0.2419 -0.6861
vn -0.0197 0.9885 0.1497
vn 0.6861 -0.2419 0.6861
vn -0.7071 -0.0000 0.7071
vn 0.1711 0.9703 0.1711
vn 0.7071 -0.0000 -0.7071
vn -0.1711 -0.9703 -0.1711
vn -0.6061 0.5150 -0.6061
vn -0.2636 0.9014 0.3436
vn -0.1297 0.1128 0.9851
vn 0.6061 -0.5150 0.6061
vn -0.9851 0.1128 0.1297
vn -0.1497 0.9885 0.0197
vn -0.8269 0.5517 0.1089
vn 0.3642 0.8572 0.3642
vn -0.4294 0.9014 0.0565
vn -0.9337 0.3363 0.1229
vn -0.3642 -0.8572 -0.3642
vn -0.6592 0.7470 0.0868
vn -0.4731 0.7431 -0.4731
vn -0.9337 0.3363 -0.1229
vn 0.4731 -0.7431 0.4731
vn -0.6592 0.7470 -0.0868
vn 0.5255 0.6691 0.5255
vn -0.9851 0.1128 -0.1297
vn -0.1497 0.9885 -0.0197
vn -0.8269 0.5517 -0.1089
vn -0.5255 -0.6691 -0.5255
vn -0.4294 0.9014 -0.0565
vn -0.1395 0.9885 -0.0578
vn -0.2988 0.9063 -0.2988
vn -0.7705 0.5517 -0.3192
vn 0.2988 -0.9063 0.2988
vn -0.4001 0.9014 -0.1657
vn -0.8701 0.3363 -0.3604
vn 0.6409 0.4226 0.6409
vn -0.6142 0.7470 -0.2544
vn -0.6409 -0.4226 -0.6409
vn -0.9180 0.1128 -0.3802
vn -0.0984 0.9903 -0.0984
vn 0.0984 -0.9903 0.0984
vn -0.7883 0.1128 -0.6049
vn -0.1198 0.9885 -0.0919
vn -0.6617 0.5517 -0.5077
vn 0.7002 0.1392 0.7002
vn -0.3436 0.9014 -0.2636
vn -0.7471 0.3363 -0.5733
vn -0.7002 -0.1392 -0.7002
vn -0.5275 0.7470 -0.4047
vn -0.2636 0.9014 -0.3436
vn -0.0000 0.2419 -0.9703
vn -0.5733 0.3363 -0.7471
vn -0.0000 -0.2419 0.9703
vn -0.4047 0.7470 -0.5275
vn -1.0000 -0.0000 -0.0000
vn -0.0000 0.9703 0.2419
vn -0.6049 0.1128 -0.7883
vn -0.0919 0.9885 -0.1198
vn 1.0000 -0.0000 -0.0000
vn -0.5077 0.5517 -0.6617
vn -0.0000 -0.9703 -0.2419
vn -0.0578 0.9885 -0.1395
vn -0.0000 0.5150 -0.8572
vn -0.3192 0.5517 -0.7705
vn -0.0000 -0.5150 0.8572
vn -0.1657 0.9014 -0.4001
vn -0.3604 0.3363 -0.8701
vn -0.0000 0.8572 0.5150
vn -0.2544 0.7470 -0.6142
vn -0.0000 -0.8572 -0.5150
vn -0.3802 0.1128 -0.9180
vn -0.0868 0.7470 -0.6592
vn -0.0000 0.7431 -0.6691
vn -0.0000 -0.7431 0.6691
vn -0.1297 0.1128 -0.9851
vn -0.0197 0.9885 -0.1497
vn -0.1089 0.5517 -0.8269
vn -0.0000 0.6691 0.7431
vn -0.0565 0.9014 -0.4294
vn -0.1229 0.3363 -0.9337
vn -0.0000 -0.6691 -0.7431
vn -0.0000 0.9063 -0.4226
vn 0.0565 0.9014 -0.4294
vn -0.0000 -0.9063 0.4226
vn 0.1229 0.3363 -0.9337
vn 0.0868 0.7470 -0.6592
vn -0.0000 0.4226 0.9063
vn 0.1297 0.1128 -0.9851
vn 0.0197 0.9885 -0.1497
vn -0.0000 -0.4226 -0.9063
vn 0.1089 0.5517 -0.8269
vn 0.3802 0.1128 -0.9180
vn 0.0578 0.9885 -0.1395
vn -0.0000 0.9903 -0.1392
vn 0.3192 0.5517 -0.7705
vn -0.0000 -0.9903 0.1392
vn 0.1657 0.9014 -0.4001
vn 0.3604 0.3363 -0.8701
vn -0.0000 0.1392 0.9903
vn 0.2544 0.7470 -0.6142
vn -0.0000 -0.1392 -0.9903
vn 0.6861 0.2419 -0.6861
vn 0.4047 0.7470 -0.5275
vn -0.6861 -0.2419 0.6861
vn -0.7071 -0.0000 -0.7071
vn 0.6049 0.1128 -0.7883
vn 0.0919 0.9885 -0.1198
vn -0.1711 0.9703 0.1711
vn 0.5077 0.5517 -0.6617
vn 0.7071 -0.0000 0.7071
vn 0.2636 0.9014 -0.3436
vn 0.1711 -0.9703 -0.1711
vn 0.5733 0.3363 -0.7471
vn 0.6617 0.5517 -0.5077
vn 0.6061 0.5150 -0.6061
vn 0.3436 0.9014 -0.2636
vn -0.6061 -0.5150 0.6061
vn 0.7471 0.3363 -0.5733
vn 0.5275 0.7470 -0.4047
vn -0.3642 0.8572 0.3642
vn 0.7883 0.1128 -0.6049
vn 0.1198 0.9885 -0.0919
vn 0.3642 -0.8572 -0.3642
vn 0.4731 0.7431 -0.4731
vn 0.9180 0.1128 -0.3802
vn 0.1395 0.9885 -0.0578
vn -0.4731 -0.7431 0.4731
vn 0.7705 0.5517 -0.3192
vn 0.4001 0.9014 -0.1657
vn -0.5255 0.6691 0.5255
vn 0.8701 0.3363 -0.3604
vn 0.6142 0.7470 -0.2544
vn 0.5255 -0.6691 -0.5255
vn 0.9337 0.3363 -0.1229
vn 0.2988 0.9063 -0.2988
vn 0.6592 0.7470 -0.0868
vn -0.2988 -0.9063 0.2988
vn 0.9851 0.1128 -0.1297
vn 0.1497 0.9885 -0.0197
vn -0.6409 0.4226 0.6409
vn 0.8269 0.5517 -0.1089
vn 0.4294 0.9014 -0.0565
vn 0.6409 -0.4226 -0.6409
vn 0.0984 0.9903 -0.0984
vn 0.8269 0.5517 0.1089
vn -0.0984 -0.9903 0.0984
vn 0.4294 0.9014 0.0565
vn 0.9337 0.3363 0.1229
vn -0.7002 0.1392 0.7002
vn 0.6592 0.7470 0.0868
vn 0.7002 -0.1392 -0.7002
vn 0.9851 0.1128 0.1297
vn 0.1497 0.9885 0.0197
vn 0.9703 0.2419 -0.0000
vn 0.9180 0.1128 0.3802
vn 0.1395 0.9885 0.0578
vn -0.9703 -0.2419 -0.0000
vn 0.7705 0.5517 0.3192
vn 0.4001 0.9014 0.1657
vn -0.2419 0.9703 -0.0000
vn 0.8701 0.3363 0.3604
vn 0.6142 0.7470 0.2544
vn 0.2419 -0.9703 -0.0000
vn 0.8572 0.5150 -0.0000
vn 0.7471 0.3363 0.5733
vn -0.8572 -0.5150 -0.0000
vn 0.5275 0.7470 0.4047
vn -0.5150 0.8572 -0.0000
vn 0.7883 0.1128 0.6049
vn 0.1198 0.9885 0.0919
vn 0.6617 0.5517 0.5077
vn 0.5150 -0.8572 -0.0000
vn 0.3436 0.9014 0.2636
vn 0.6691 0.7431 -0.0000
vn 0.5077 0.5517 0.6617
vn -0.6691 -0.7431 -0.0000
vn 0.2636 0.9014 0.3436
vn 0.5733 0.3363 0.7471
vn -0.7431 0.6691 -0.0000
vn 0.4047 0.7470 0.5275
vn 0.7431 -0.6691 -0.0000
vn 0.6049 0.1128 0.7883
vn 0.0919 0.9885 0.1198
vn 0.4226 0.9063 -0.0000
vn -0.4226 -0.9063 -0.0000
vn 0.3802 0.1128 0.9180
vn 0.0578 0.9885 0.1395
vn 0.3192 0.5517 0.7705
vn -0.9063 0.4226 -0.0000
vn 0.1657 0.9014 0.4001
vn 0.3604 0.3363 0.8701
vn 0.9063 -0.4226 -0.0000
vn 0.2544 0.7470 0.6142
vn 0.1392 0.9903 -0.0000
vn 0.1229 0.3363 0.9337
vn -0.1392 -0.9903 -0.0000
vn 0.0868 0.7470 0.6592
vn -0.9903 0.1392 -0.0000
vn 0.1297 0.1128 0.9851
vn 0.0197 0.9885 0.1497
vn 0.1089 0.5517 0.8269
vn 0.9903 -0.1392 -0.0000
vn 0.0565 0.9014 0.4294
vn -0.2419 -0.9703 -0.0000
vn 0.2419 0.9703 -0.0000
vn 0.9703 -0.2419 -0.0000
vn -0.9703 0.2419 -0.0000
vn -0.7002 -0.1392 0.7002
vn 0.7002 0.1392 -0.7002
vn 0.0984 -0.9903 -0.0984
vn -0.0984 0.9903 0.0984
vn -0.6409 -0.4226 0.6409
vn 0.6409 0.4226 -0.6409
vn 0.2988 -0.9063 -0.2988
vn -0.2988 0.9063 0.2988
vn -0.5255 -0.6691 0.5255
vn 0.5255 0.6691 -0.5255
vn 0.4731 -0.7431 -0.4731
vn -0.4731 0.7431 0.4731
vn -0.3642 -0.8572 0.3642
vn 0.3642 0.8572 -0.3642
vn 0.6061 -0.5150 -0.6061
vn -0.6061 0.5150 0.6061
vn -0.1711 -0.9703 0.1711
vn 0.1711 0.9703 -0.1711
vn 0.6861 -0.2419 -0.6861
vn -0.6861 0.2419 0.6861
vn -0.0000 -0.1392 0.9903
vn -0.0000 0.1392 -0.9903
vn -0.0000 -0.9903 -0.1392
vn -0.0000 0.9903 0.1392
vn -0.0000 -0.4226 0.9063
vn -0.0000 0.4226 -0.9063
vn -0.0000 -0.9063 -0.4226
vn -0.0000 0.9063 0.4226
vn -0.0000 -0.6691 0.7431
vn -0.0000 0.6691 -0.7431
vn -0.0000 -0.7431 -0.6691
vn -0.0000 0.7431 0.6691
vn -0.0000 -0.8572 0.5150
vn -0.0000 0.8572 -0.5150
vn -0.0000 -0.5150 -0.8572
vn -0.0000 0.5150 0.8572
vn -0.0000 -0.9703 0.2419
vn -0.0000 0.9703 -0.2419
vn -0.0000 -0.2419 -0.9703
vn -0.0000 0.2419 0.9703
vn 0.7002 -0.1392 0.7002
vn -0.7002 0.1392 -0.7002
vn -0.0984 -0.9903 -0.0984
vn 0.0984 0.9903 0.0984
vn 0.6409 -0.4226 0.6409
vn -0.6409 0.4226 -0.6409
vn -0.2988 -0.9063 -0.2988
vn 0.2988 0.9063 0.2988
vn 0.5255 -0.6691 0.5255
vn -0.5255 0.6691 -0.5255
vn -0.4731 -0.7431 -0.4731
vn 0.4731 0.7431 0.4731
vn 0.3642 -0.8572 0.3642
vn -0.3642 0.8572 -0.3642
vn -0.6061 -0.5150 -0.6061
vn 0.6061 0.5150 0.6061
vn 0.1711 -0.9703 0.1711
vn -0.1711 0.9703 -0.1711
vn -0.6861 -0.2419 -0.6861
vn 0.6861 0.2419 0.6861
vn -0.4856 0.8742 -0.0000
vn 0.4856 0.8742 -0.0000
vn -0.2194 0.9625 -0.1594
vn -0.5862 0.6892 0.4259
vn -0.2588 -0.0000 0.9659
vn -0.7840 0.2469 -0.5696
vn -0.7840 0.2469 0.5696
vn -0.5862 0.6892 -0.4259
vn -0.2194 0.9625 0.1594
vn -0.9659 -0.0000 0.2588
vn -0.2194 -0.9625 -0.1594
vn -0.2194 -0.9625 0.1594
vn -0.9659 -0.0000 -0.2588
vn -0.7246 -0.6891 -0.0000
vn -0.5862 -0.6892 0.4259
vn -0.7246 0.6892 -0.0000
vn -0.0838 0.9625 0.2579
vn -0.2588 -0.0000 -0.9659
vn -0.9690 0.2469 -0.0000
vn -0.2239 -0.6892 0.6892
vn 0.2588 -0.0000 -0.9659
vn -0.9690 -0.2469 -0.0000
vn -0.2239 0.6892 0.6892
vn -0.2712 -0.9625 -0.0000
vn -0.0838 -0.9625 0.2579
vn 0.9659 -0.0000 -0.2588
vn -0.2712 0.9625 -0.0000
vn -0.2994 0.2469 0.9216
vn 0.9659 -0.0000 0.2588
vn -0.2994 -0.2469 0.9216
vn -0.7840 -0.2469 -0.5696
vn -0.7840 -0.2469 0.5696
vn 0.2588 -0.0000 0.9659
vn -0.5862 -0.6892 -0.4259
vn -0.0838 -0.9625 -0.2579
vn -0.2239 0.6892 -0.6892
vn -0.2994 -0.2469 -0.9216
vn -0.0838 0.9625 -0.2579
vn -0.2994 0.2469 -0.9216
vn -0.2239 -0.6892 -0.6892
vn 0.2239 0.6892 -0.6892
vn 0.2994 -0.2469 -0.9216
vn 0.0838 0.9625 -0.2579
vn 0.2994 0.2469 -0.9216
vn 0.2239 -0.6892 -0.6892
vn 0.0838 -0.9625 -0.2579
vn 0.7840 -0.2469 -0.5696
vn 0.2194 0.9625 -0.1594
vn 0.7840 0.2469 -0.5696
vn 0.5862 -0.6892 -0.4259
vn 0.2194 -0.9625 -0.1594
vn 0.5862 0.6892 -0.4259
vn 0.2712 0.9625 -0.0000
vn 0.9690 0.2469 -0.0000
vn 0.7246 -0.6891 -0.0000
vn 0.2712 -0.9625 -0.0000
vn 0.7246 0.6892 -0.0000
vn 0.9690 -0.2469 -0.0000
vn 0.2194 0.9625 0.1594
vn 0.7840 0.2469 0.5696
vn 0.5862 -0.6892 0.4259
vn 0.2194 -0.9625 0.1594
vn 0.5862 0.6892 0.4259
vn 0.7840 -0.2469 0.5696
vn 0.0838 0.9625 0.2579
vn 0.2994 0.2469 0.9216
vn 0.2239 -0.6892 0.6892
vn 0.0838 -0.9625 0.2579
vn 0.2239 0.6892 0.6892
vn 0.2994 -0.2469 0.9216
s 0
usemtl EF_Path
f 3//3 4//3 6//3 5//3
f 5//6 6//6 8//6 7//6
f 7//9 8//9 10//9 9//9
f 9//12 10//12 12//12 11//12
f 11//14 12//14 14//14 13//14
f 13//17 14//17 16//17 15//17
f 15//2 16//2 18//2 17//2
f 17//21 18//21 20//21 19//21
f 19//13 20//13 22//13 21//13
f 21//5 22//5 24//5 23//5
f 23//25 24//25 26//25 25//25
f 25//28 26//28 28//28 27//28
f 27//31 28//31 30//31 29//31
f 29//1 30//1 32//1 31//1
f 31//23 32//23 34//23 33//23
f 33//32 34//32 36//32 35//32
f 35//26 36//26 38//26 37//26
f 37//16 38//16 40//16 39//16
f 39//15 40//15 42//15 41//15
f 41//7 42//7 44//7 43//7
f 43//4 44//4 46//4 45//4
f 45//40 46//40 48//40 47//40
f 47//41 48//41 50//41 49//41
f 49//42 50//42 52//42 51//42
f 51//44 52//44 54//44 53//44
f 53//46 54//46 56//46 55//46
f 55//48 56//48 58//48 57//48
f 57//50 58//50 60//50 59//50
f 59//52 60//52 62//52 61//52
f 61//54 62//54 64//54 63//54
f 6//55 4//55 66//55 64//55 62//55 60//55 58//55 56//55 54//55 52//55 50//55 48//55 46//55 44//55 42//55 40//55 38//55 36//55 34//55 32//55 30//55 28//55 26//55 24//55 22//55 20//55 18//55 16//55 14//55 12//55 10//55 8//55
f 63//57 64//57 66//57 65//57
f 65//60 66//60 4//60 3//60
f 3//61 5//61 7//61 9//61 11//61 13//61 15//61 17//61 19//61 21//61 23//61 25//61 27//61 29//61 31//61 33//61 35//61 37//61 39//61 41//61 43//61 45//61 47//61 49//61 51//61 53//61 55//61 57//61 59//61 61//61 63//61 65//61
usemtl EF_Roof
f 107//4 108//4 110//4 109//4
f 85//5 86//5 88//5 87//5
f 105//7 106//7 108//7 107//7
f 83//13 84//13 86//13 85//13
f 103//15 104//15 106//15 105//15
f 81//21 82//21 84//21 83//21
f 101//16 102//16 104//16 103//16
f 79//2 80//2 82//2 81//2
f 99//26 100//26 102//26 101//26
f 77//17 78//17 80//17 79//17
f 97//32 98//32 100//32 99//32
f 75//14 76//14 78//14 77//14
f 95//23 96//23 98//23 97//23
f 73//12 74//12 76//12 75//12
f 93//1 94//1 96//1 95//1
f 71//9 72//9 74//9 73//9
f 91//31 92//31 94//31 93//31
f 69//6 70//6 72//6 71//6
f 89//28 90//28 92//28 91//28
f 67//3 68//3 70//3 69//3
f 87//25 88//25 90//25 89//25
f 109//40 110//40 112//40 111//40
f 111//41 112//41 114//41 113//41
f 113//42 114//42 116//42 115//42
f 115//44 116//44 118//44 117//44
f 117//46 118//46 120//46 119//46
f 119//48 120//48 122//48 121//48
f 121//50 122//50 124//50 123//50
f 123//52 124//52 126//52 125//52
f 125//54 126//54 128//54 127//54
f 87//61 89//61 91//61 93//61 95//61 97//61 99//61 101//61 103//61 105//61 107//61 109//61 111//61 113//61 115//61 117//61 119//61 121//61 123//61 125//61 127//61 129//61 67//61 69//61 71//61 73//61 75//61 77//61 79//61 81//61 83//61 85//61
f 127//57 128//57 130//57 129//57
f 129//60 130//60 68//60 67//60
f 110//55 108//55 106//55 104//55 102//55 100//55 98//55 96//55 94//55 92//55 90//55 88//55 86//55 84//55 82//55 80//55 78//55 76//55 74//55 72//55 70//55 68//55 130//55 128//55 126//55 124//55 122//55 120//55 118//55 116//55 114//55 112//55
f 668//29 666//29 667//29
f 669//19 671//19 670//19
f 666//61 669//61 670//61 667//61
f 667//347 670//347 671//347 668//347
f 668//348 671//348 669//348 666//348
usemtl EF_Accent
f 157//1 158//1 160//1 159//1
f 143//2 144//2 146//2 145//2
f 529//8 525//8 523//8 527//8
f 524//10 528//10 526//10 522//10
f 137//12 138//12 140//12 139//12
f 165//16 166//16 168//16 167//16
f 526//19 527//19 523//19 522//19
f 159//23 160//23 162//23 161//23
f 145//21 146//21 148//21 147//21
f 528//24 529//24 527//24 526//24
f 524//29 525//29 529//29 528//29
f 522//30 523//30 525//30 524//30
f 139//14 140//14 142//14 141//14
f 167//15 168//15 170//15 169//15
f 161//32 162//32 164//32 163//32
f 147//13 148//13 150//13 149//13
f 521//37 196//37 201//37 519//37
f 197//39 520//39 518//39 202//39
f 518//19 519//19 201//19 202//19
f 141//17 142//17 144//17 143//17
f 169//7 170//7 172//7 171//7
f 520//43 521//43 519//43 518//43
f 197//29 196//29 521//29 520//29
f 163//26 164//26 166//26 165//26
f 202//53 201//53 196//53 197//53
f 203//62 231//62 244//62 218//62
f 233//63 207//63 220//63 246//63
f 135//9 136//9 138//9 137//9
f 155//31 156//31 158//31 157//31
f 220//19 218//19 244//19 246//19
f 133//6 134//6 136//6 135//6
f 207//68 203//68 218//68 220//68
f 153//28 154//28 156//28 155//28
f 233//29 231//29 203//29 207//29
f 131//3 132//3 134//3 133//3
f 246//70 244//70 231//70 233//70
f 257//71 283//71 296//71 270//71
f 151//25 152//25 154//25 153//25
f 149//5 150//5 152//5 151//5
f 171//4 172//4 174//4 173//4
f 285//73 259//73 272//73 298//73
f 272//19 270//19 296//19 298//19
f 173//40 174//40 176//40 175//40
f 259//74 257//74 270//74 272//74
f 285//29 283//29 257//29 259//29
f 175//41 176//41 178//41 177//41
f 298//75 296//75 283//75 285//75
f 177//42 178//42 180//42 179//42
f 179//44 180//44 182//44 181//44
f 309//80 335//80 348//80 322//80
f 181//46 182//46 184//46 183//46
f 337//82 311//82 324//82 350//82
f 183//48 184//48 186//48 185//48
f 324//83 322//83 348//83 350//83
f 311//84 309//84 322//84 324//84
f 185//50 186//50 188//50 187//50
f 337//85 335//85 309//85 311//85
f 350//86 348//86 335//86 337//86
f 187//52 188//52 190//52 189//52
f 361//87 387//87 400//87 374//87
f 189//54 190//54 192//54 191//54
f 159//61 161//61 163//61 165//61 167//61 169//61 171//61 173//61 175//61 177//61 179//61 181//61 183//61 185//61 187//61 189//61 191//61 193//61 131//61 133//61 135//61 137//61 139//61 141//61 143//61 145//61 147//61 149//61 151//61 153//61 155//61 157//61
f 191//57 192//57 194//57 193//57
f 389//90 363//90 376//90 402//90
f 193//60 194//60 132//60 131//60
f 168//55 166//55 164//55 162//55 160//55 158//55 156//55 154//55 152//55 150//55 148//55 146//55 144//55 142//55 140//55 138//55 136//55 134//55 132//55 194//55 192//55 190//55 188//55 186//55 184//55 182//55 180//55 178//55 176//55 174//55 172//55 170//55
f 376//83 374//83 400//83 402//83
f 363//94 361//94 374//94 376//94
f 389//85 387//85 361//85 363//85
f 402//97 400//97 387//97 389//97
f 413//99 439//99 452//99 426//99
f 441//101 415//101 428//101 454//101
f 428//83 426//83 452//83 454//83
f 415//103 413//103 426//103 428//103
f 441//85 439//85 413//85 415//85
f 454//107 452//107 439//107 441//107
f 465//110 491//110 504//110 478//110
f 493//112 467//112 480//112 505//112
f 480//83 478//83 504//83 505//83
f 467//115 465//115 478//115 480//115
f 493//85 491//85 465//85 467//85
f 505//117 504//117 491//117 493//117
f 506//119 512//119 517//119 510//119
f 516//120 507//120 511//120 200//120
f 511//83 510//83 517//83 200//83
f 507//124 506//124 510//124 511//124
f 516//85 512//85 506//85 507//85
f 200//127 517//127 512//127 516//127
f 204//130 215//130 217//130 213//130
f 216//132 205//132 214//132 226//132
f 214//134 213//134 217//134 226//134
f 205//135 204//135 213//135 214//135
f 216//138 215//138 204//138 205//138
f 226//140 217//140 215//140 216//140
f 227//142 239//142 241//142 229//142
f 240//144 228//144 230//144 242//144
f 230//134 229//134 241//134 242//134
f 228//147 227//147 229//147 230//147
f 240//138 239//138 227//138 228//138
f 242//149 241//149 239//149 240//149
f 243//152 255//152 265//152 253//152
f 256//153 252//153 254//153 266//153
f 254//134 253//134 265//134 266//134
f 252//157 243//157 253//157 254//157
f 256//138 255//138 243//138 252//138
f 266//160 265//160 255//160 256//160
f 267//161 279//161 281//161 269//161
f 280//163 268//163 278//163 282//163
f 278//134 269//134 281//134 282//134
f 268//166 267//166 269//166 278//166
f 280//138 279//138 267//138 268//138
f 282//169 281//169 279//169 280//169
f 291//173 295//173 305//173 293//173
f 304//175 292//175 294//175 306//175
f 294//134 293//134 305//134 306//134
f 292//178 291//178 293//178 294//178
f 304//138 295//138 291//138 292//138
f 306//180 305//180 295//180 304//180
f 307//181 319//181 321//181 317//181
f 320//183 308//183 318//183 330//183
f 318//184 317//184 321//184 330//184
f 308//187 307//187 317//187 318//187
f 320//189 319//189 307//189 308//189
f 330//191 321//191 319//191 320//191
f 331//194 343//194 345//194 333//194
f 344//196 332//196 334//196 346//196
f 334//184 333//184 345//184 346//184
f 332//199 331//199 333//199 334//199
f 344//189 343//189 331//189 332//189
f 346//202 345//202 343//202 344//202
f 347//203 359//203 369//203 357//203
f 360//206 356//206 358//206 370//206
f 358//184 357//184 369//184 370//184
f 356//209 347//209 357//209 358//209
f 360//189 359//189 347//189 356//189
f 370//212 369//212 359//212 360//212
f 371//214 383//214 385//214 373//214
f 384//216 372//216 382//216 386//216
f 382//184 373//184 385//184 386//184
f 372//219 371//219 373//219 382//219
f 384//189 383//189 371//189 372//189
f 386//222 385//222 383//222 384//222
f 395//223 399//223 409//223 397//223
f 408//225 396//225 398//225 410//225
f 398//184 397//184 409//184 410//184
f 396//228 395//228 397//228 398//228
f 408//189 399//189 395//189 396//189
f 410//230 409//230 399//230 408//230
f 411//233 423//233 425//233 421//233
f 424//236 412//236 422//236 434//236
f 422//29 421//29 425//29 434//29
f 412//239 411//239 421//239 422//239
f 424//19 423//19 411//19 412//19
f 434//242 425//242 423//242 424//242
f 435//243 447//243 449//243 437//243
f 448//245 436//245 438//245 450//245
f 438//29 437//29 449//29 450//29
f 436//247 435//247 437//247 438//247
f 448//19 447//19 435//19 436//19
f 450//251 449//251 447//251 448//251
f 451//253 463//253 473//253 461//253
f 464//255 460//255 462//255 474//255
f 462//29 461//29 473//29 474//29
f 460//258 451//258 461//258 462//258
f 464//19 463//19 451//19 460//19
f 474//260 473//260 463//260 464//260
f 475//263 487//263 489//263 477//263
f 488//264 476//264 486//264 490//264
f 486//29 477//29 489//29 490//29
f 476//268 475//268 477//268 486//268
f 488//19 487//19 475//19 476//19
f 490//271 489//271 487//271 488//271
f 499//273 503//273 514//273 501//273
f 513//275 500//275 502//275 515//275
f 502//29 501//29 514//29 515//29
f 500//277 499//277 501//277 502//277
f 513//19 503//19 499//19 500//19
f 515//281 514//281 503//281 513//281
f 530//283 531//283 533//283 532//283
f 532//29 533//29 537//29 536//29
f 536//284 537//284 535//284 534//284
f 534//19 535//19 531//19 530//19
f 532//285 536//285 534//285 530//285
f 537//286 533//286 531//286 535//286
f 538//287 539//287 541//287 540//287
f 540//184 541//184 545//184 544//184
f 544//288 545//288 543//288 542//288
f 542//189 543//189 539//189 538//189
f 540//289 544//289 542//289 538//289
f 545//290 541//290 539//290 543//290
f 546//291 547//291 549//291 548//291
f 548//184 549//184 553//184 552//184
f 552//292 553//292 551//292 550//292
f 550//189 551//189 547//189 546//189
f 548//293 552//293 550//293 546//293
f 553//294 549//294 547//294 551//294
f 554//295 555//295 557//295 556//295
f 556//184 557//184 561//184 560//184
f 560//296 561//296 559//296 558//296
f 558//189 559//189 555//189 554//189
f 556//297 560//297 558//297 554//297
f 561//298 557//298 555//298 559//298
f 562//299 563//299 565//299 564//299
f 564//184 565//184 569//184 568//184
f 568//300 569//300 567//300 566//300
f 566//189 567//189 563//189 562//189
f 564//301 568//301 566//301 562//301
f 569//302 565//302 563//302 567//302
f 570//303 571//303 573//303 572//303
f 572//184 573//184 577//184 576//184
f 576//304 577//304 575//304 574//304
f 574//189 575//189 571//189 570//189
f 572//305 576//305 574//305 570//305
f 577//306 573//306 571//306 575//306
f 578//307 579//307 581//307 580//307
f 580//134 581//134 585//134 584//134
f 584//308 585//308 583//308 582//308
f 582//138 583//138 579//138 578//138
f 580//309 584//309 582//309 578//309
f 585//310 581//310 579//310 583//310
f 586//311 587//311 589//311 588//311
f 588//134 589//134 593//134 592//134
f 592//312 593//312 591//312 590//312
f 590//138 591//138 587//138 586//138
f 588//313 592//313 590//313 586//313
f 593//314 589//314 587//314 591//314
f 594//315 595//315 597//315 596//315
f 596//134 597//134 601//134 600//134
f 600//316 601//316 599//316 598//316
f 598//138 599//138 595//138 594//138
f 596//317 600//317 598//317 594//317
f 601//318 597//318 595//318 599//318
f 602//319 603//319 605//319 604//319
f 604//134 605//134 609//134 608//134
f 608//320 609//320 607//320 606//320
f 606//138 607//138 603//138 602//138
f 604//321 608//321 606//321 602//321
f 609//322 605//322 603//322 607//322
f 610//323 611//323 613//323 612//323
f 612//134 613//134 617//134 616//134
f 616//324 617//324 615//324 614//324
f 614//138 615//138 611//138 610//138
f 612//325 616//325 614//325 610//325
f 617//326 613//326 611//326 615//326
f 618//327 619//327 621//327 620//327
f 620//83 621//83 625//83 624//83
f 624//328 625//328 623//328 622//328
f 622//85 623//85 619//85 618//85
f 620//329 624//329 622//329 618//329
f 625//330 621//330 619//330 623//330
f 626//331 627//331 629//331 628//331
f 628//83 629//83 633//83 632//83
f 632//332 633//332 631//332 630//332
f 630//85 631//85 627//85 626//85
f 628//333 632//333 630//333 626//333
f 633//334 629//334 627//334 631//334
f 634//335 635//335 637//335 636//335
f 636//83 637//83 641//83 640//83
f 640//336 641//336 639//336 638//336
f 638//85 639//85 635//85 634//85
f 636//337 640//337 638//337 634//337
f 641//338 637//338 635//338 639//338
f 642//339 643//339 645//339 644//339
f 644//83 645//83 649//83 648//83
f 648//340 649//340 647//340 646//340
f 646//85 647//85 643//85 642//85
f 644//341 648//341 646//341 642//341
f 649//342 645//342 643//342 647//342
f 650//343 651//343 653//343 652//343
f 652//83 653//83 657//83 656//83
f 656//344 657//344 655//344 654//344
f 654//85 655//85 651//85 650//85
f 652//345 656//345 654//345 650//345
f 657//346 653//346 651//346 655//346
f 680//138 681//138 683//138 682//138
f 682//19 683//19 687//19 686//19
f 686//134 687//134 685//134 684//134
f 684//29 685//29 681//29 680//29
f 682//61 686//61 684//61 680//61
f 687//55 683//55 681//55 685//55
f 689//351 690//351 692//351 691//351
f 691//83 692//83 694//83 693//83
f 693//356 694//356 696//356 695//356
f 695//359 696//359 698//359 697//359
f 697//184 698//184 700//184 699//184
f 699//364 700//364 702//364 701//364
f 701//367 702//367 704//367 703//367
f 703//85 704//85 706//85 705//85
f 705//372 706//372 708//372 707//372
f 707//375 708//375 710//375 709//375
f 692//55 690//55 712//55 710//55 708//55 706//55 704//55 702//55 700//55 698//55 696//55 694//55
f 709//189 710//189 712//189 711//189
f 711//379 712//379 690//379 689//379
f 689//61 691//61 693//61 695//61 697//61 699//61 701//61 703//61 705//61 707//61 709//61 711//61
usemtl EF_White
f 206//11 2//11 219//11
f 234//18 232//18 245//18 247//18
f 232//27 2//27 245//27
f 236//33 235//33 248//33 249//33
f 250//34 249//34 262//34 263//34
f 222//35 221//35 234//35 235//35
f 248//51 247//51 260//51 261//51
f 251//58 250//58 263//58 264//58
f 210//64 209//64 222//64 223//64
f 208//67 206//67 219//67 221//67
f 225//69 224//69 237//69 238//69
f 224//72 223//72 236//72 237//72
f 198//77 509//77 210//77 211//77
f 508//79 195//79 208//79 209//79
f 199//89 198//89 211//89 212//89
f 258//92 2//92 271//92
f 262//93 261//93 274//93 275//93
f 260//95 258//95 271//95 273//95
f 276//100 275//100 288//100 289//100
f 274//102 273//102 286//102 287//102
f 277//104 276//104 289//104 290//104
f 284//109 2//109 297//109
f 288//111 287//111 300//111 301//111
f 286//113 284//113 297//113 299//113
f 303//121 302//121 315//121 316//121
f 302//126 301//126 314//126 315//126
f 300//128 299//128 312//128 313//128
f 312//129 310//129 323//129 325//129
f 310//137 2//137 323//137
f 314//139 313//139 326//139 327//139
f 328//146 327//146 340//146 341//146
f 326//148 325//148 338//148 339//148
f 329//150 328//150 341//150 342//150
f 336//155 2//155 349//155
f 340//156 339//156 352//156 353//156
f 338//158 336//158 349//158 351//158
f 354//164 353//164 366//164 367//164
f 352//165 351//165 364//165 365//165
f 355//167 354//167 367//167 368//167
f 362//172 2//172 375//172
f 366//174 365//174 378//174 379//174
f 364//176 362//176 375//176 377//176
f 378//182 377//182 390//182 391//182
f 381//185 380//185 393//185 394//185
f 380//192 379//192 392//192 393//192
f 392//193 391//193 404//193 405//193
f 390//195 388//195 401//195 403//195
f 388//201 2//201 401//201
f 407//204 406//204 419//204 420//204
f 406//210 405//210 418//210 419//210
f 404//211 403//211 416//211 417//211
f 414//218 2//218 427//218
f 418//220 417//220 430//220 431//220
f 416//221 414//221 427//221 429//221
f 432//227 431//227 444//227 445//227
f 430//229 429//229 442//229 443//229
f 433//231 432//231 445//231 446//231
f 440//235 2//235 453//235
f 444//237 443//237 456//237 457//237
f 442//238 440//238 453//238 455//238
f 458//244 457//244 470//244 471//244
f 456//246 455//246 468//246 469//246
f 459//248 458//248 471//248 472//248
f 470//254 469//254 482//254 483//254
f 468//256 466//256 479//256 481//256
f 466//262 2//262 479//262
f 485//265 484//265 497//265 498//265
f 484//270 483//270 496//270 497//270
f 482//272 481//272 494//272 495//272
f 492//279 2//279 1//279
f 496//280 495//280 508//280 509//280
f 494//282 492//282 1//282 195//282
f 658//138 659//138 661//138 660//138
f 660//19 661//19 665//19 664//19
f 664//134 665//134 663//134 662//134
f 662//29 663//29 659//29 658//29
f 660//61 664//61 662//61 658//61
f 665//55 661//55 659//55 663//55
usemtl EF_Glass
f 219//20 2//20 232//20
f 212//22 211//22 224//22 225//22
f 509//36 508//36 209//36 210//36
f 238//38 237//38 250//38 251//38
f 223//45 222//45 235//45 236//45
f 195//47 1//47 206//47 208//47
f 247//49 245//49 258//49 260//49
f 211//56 210//56 223//56 224//56
f 209//59 208//59 221//59 222//59
f 245//65 2//65 258//65
f 249//66 248//66 261//66 262//66
f 235//76 234//76 247//76 248//76
f 237//78 236//78 249//78 250//78
f 1//81 2//81 206//81
f 221//88 219//88 232//88 234//88
f 264//91 263//91 276//91 277//91
f 263//96 262//96 275//96 276//96
f 261//98 260//98 273//98 274//98
f 271//105 2//105 284//105
f 275//106 274//106 287//106 288//106
f 273//108 271//108 284//108 286//108
f 289//114 288//114 301//114 302//114
f 287//116 286//116 299//116 300//116
f 290//118 289//118 302//118 303//118
f 297//122 2//122 310//122
f 301//123 300//123 313//123 314//123
f 299//125 297//125 310//125 312//125
f 315//131 314//131 327//131 328//131
f 313//133 312//133 325//133 326//133
f 316//136 315//136 328//136 329//136
f 323//141 2//141 336//141
f 327//143 326//143 339//143 340//143
f 325//145 323//145 336//145 338//145
f 339//151 338//151 351//151 352//151
f 342//154 341//154 354//154 355//154
f 341//159 340//159 353//159 354//159
f 351//162 349//162 362//162 364//162
f 349//168 2//168 362//168
f 353//170 352//170 365//170 366//170
f 368//171 367//171 380//171 381//171
f 367//177 366//177 379//177 380//177
f 365//179 364//179 377//179 378//179
f 375//186 2//186 388//186
f 379//188 378//188 391//188 392//188
f 377//190 375//190 388//190 390//190
f 393//197 392//197 405//197 406//197
f 391//198 390//198 403//198 404//198
f 394//200 393//200 406//200 407//200
f 401//205 2//205 414//205
f 405//207 404//207 417//207 418//207
f 403//208 401//208 414//208 416//208
f 419//213 418//213 431//213 432//213
f 417//215 416//215 429//215 430//215
f 420//217 419//217 432//217 433//217
f 431//224 430//224 443//224 444//224
f 429//226 427//226 440//226 442//226
f 427//232 2//232 440//232
f 446//234 445//234 458//234 459//234
f 445//240 444//240 457//240 458//240
f 443//241 442//241 455//241 456//241
f 453//249 2//249 466//249
f 457//250 456//250 469//250 470//250
f 455//252 453//252 466//252 468//252
f 471//257 470//257 483//257 484//257
f 469//259 468//259 481//259 482//259
f 472//261 471//261 484//261 485//261
f 479//266 2//266 492//266
f 483//267 482//267 495//267 496//267
f 481//269 479//269 492//269 494//269
f 497//274 496//274 509//274 198//274
f 495//276 494//276 195//276 508//276
f 498//278 497//278 198//278 199//278
f 672//138 673//138 675//138 674//138
f 674//19 675//19 679//19 678//19
f 678//134 679//134 677//134 676//134
f 676//29 677//29 673//29 672//29
f 674//61 678//61 676//61 672//61
f 679//55 675//55 673//55 677//55
usemtl EF_Light
f 724//349 688//349 729//349
f 715//350 714//350 719//350 720//350
f 726//352 725//352 730//352 731//352
f 716//353 715//353 720//353 721//353
f 725//354 724//354 729//354 730//354
f 714//355 688//355 719//355
f 713//357 728//357 733//357
f 713//358 718//358 723//358
f 723//360 722//360 727//360 728//360
f 718//361 717//361 722//361 723//361
f 720//362 719//362 724//362 725//362
f 759//363 688//363 714//363
f 721//365 720//365 725//365 726//365
f 763//366 762//366 717//366 718//366
f 722//368 721//368 726//368 727//368
f 760//369 759//369 714//369 715//369
f 713//370 723//370 728//370
f 713//371 763//371 718//371
f 719//373 688//373 724//373
f 761//374 760//374 715//374 716//374
f 762//376 761//376 716//376 717//376
f 727//377 726//377 731//377 732//377
f 717//378 716//378 721//378 722//378
f 728//380 727//380 732//380 733//380
f 713//381 733//381 738//381
f 730//382 729//382 734//382 735//382
f 732//383 731//383 736//383 737//383
f 729//384 688//384 734//384
f 731//385 730//385 735//385 736//385
f 733//386 732//386 737//386 738//386
f 735//387 734//387 739//387 740//387
f 737//388 736//388 741//388 742//388
f 734//389 688//389 739//389
f 736//390 735//390 740//390 741//390
f 738//391 737//391 742//391 743//391
f 713//392 738//392 743//392
f 742//393 741//393 746//393 747//393
f 739//394 688//394 744//394
f 741//395 740//395 745//395 746//395
f 743//396 742//396 747//396 748//396
f 713//397 743//397 748//397
f 740//398 739//398 744//398 745//398
f 744//399 688//399 749//399
f 746//400 745//400 750//400 751//400
f 748//401 747//401 752//401 753//401
f 713//402 748//402 753//402
f 745//403 744//403 749//403 750//403
f 747//404 746//404 751//404 752//404
f 749//405 688//405 754//405
f 751//406 750//406 755//406 756//406
f 753//407 752//407 757//407 758//407
f 713//408 753//408 758//408
f 750//409 749//409 754//409 755//409
f 752//410 751//410 756//410 757//410
f 754//411 688//411 759//411
f 756//412 755//412 760//412 761//412
f 758//413 757//413 762//413 763//413
f 713//414 758//414 763//414
f 755//415 754//415 759//415 760//415
f 757//416 756//416 761//416 762//416
