# Blender 5.0.1
# www.blender.org
mtllib PoultryHall.mtl
o PoultryHall
v 6.020000 0.000000 -3.533745
v 6.020000 0.168000 -3.533745
v 6.020000 0.000000 4.026255
v 6.020000 0.168000 4.026255
v -6.020000 0.000000 -3.533746
v -6.020000 0.168000 -3.533746
v -6.020000 0.000000 4.026254
v -6.020000 0.168000 4.026254
v 5.880001 0.168000 -3.393745
v 5.880001 2.408000 -3.393745
v 5.880000 0.168000 3.886255
v 5.880000 2.408000 3.886255
v -5.880000 0.168000 -3.393746
v -5.880000 2.408000 -3.393746
v -5.880001 0.168000 3.886254
v -5.880001 2.408000 3.886254
v 5.894001 0.168000 -3.407745
v 5.894001 0.504000 -3.407745
v 5.893999 0.168000 3.900255
v 5.893999 0.504000 3.900255
v -5.893999 0.168000 -3.407746
v -5.893999 0.504000 -3.407746
v -5.894001 0.168000 3.900254
v -5.894001 0.504000 3.900254
v 5.964000 0.168000 -3.477745
v 5.964000 2.408000 -3.477745
v 5.964000 0.168000 -3.309745
v 5.964000 2.408000 -3.309745
v 5.796001 0.168000 -3.477745
v 5.796001 2.408000 -3.477745
v 5.796001 0.168000 -3.309745
v 5.796001 2.408000 -3.309745
v 5.963999 0.168000 3.802255
v 5.963999 2.408000 3.802255
v 5.963999 0.168000 3.970255
v 5.963999 2.408000 3.970255
v 5.796000 0.168000 3.802255
v 5.796000 2.408000 3.802255
v 5.796000 0.168000 3.970255
v 5.796000 2.408000 3.970255
v -5.796000 0.168000 -3.477746
v -5.796000 2.408000 -3.477746
v -5.796000 0.168000 -3.309746
v -5.796000 2.408000 -3.309746
v -5.963999 0.168000 -3.477746
v -5.963999 2.408000 -3.477746
v -5.963999 0.168000 -3.309746
v -5.963999 2.408000 -3.309746
v -5.796001 0.168000 3.802254
v -5.796001 2.408000 3.802254
v -5.796001 0.168000 3.970254
v -5.796001 2.408000 3.970254
v -5.964000 0.168000 3.802254
v -5.964000 2.408000 3.802254
v -5.964000 0.168000 3.970254
v -5.964000 2.408000 3.970254
v 6.160000 2.327085 -3.624928
v 6.160000 2.483887 -3.685236
v 6.160000 3.827599 0.276409
v 6.160000 3.984401 0.216101
v -6.159999 2.327085 -3.624929
v -6.159999 2.483887 -3.685237
v -6.160000 3.827599 0.276408
v -6.160000 3.984401 0.216100
v 6.160000 3.827599 0.216101
v 6.160000 3.984401 0.276409
v 6.159999 2.327085 4.117438
v 6.159999 2.483887 4.177746
v -6.160000 3.827599 0.216100
v -6.160000 3.984401 0.276408
v -6.160000 2.327085 4.117436
v -6.160000 2.483887 4.177745
v 6.160000 3.878000 0.106255
v 6.160000 4.074000 0.106255
v 6.160000 3.878000 0.386255
v 6.160000 4.074000 0.386255
v -6.160000 3.878000 0.106254
v -6.160000 4.074000 0.106254
v -6.160000 3.878000 0.386254
v -6.160000 4.074000 0.386254
v 5.712000 2.408000 -3.393745
v 5.712000 2.408000 3.886255
v 5.712000 3.808000 0.246255
v 5.880000 3.808000 0.246255
v -5.880000 3.808000 0.246254
v -5.712000 2.408000 -3.393746
v -5.712000 2.408000 3.886254
v -5.712000 3.808000 0.246254
v 4.970001 1.218000 -3.463745
v 4.970001 1.806000 -3.463745
v 4.970001 1.218000 -3.393745
v 4.970001 1.806000 -3.393745
v 3.990000 1.218000 -3.463745
v 3.990000 1.806000 -3.463745
v 3.990000 1.218000 -3.393745
v 3.990000 1.806000 -3.393745
v 4.900001 1.288000 -3.498745
v 4.900001 1.736000 -3.498745
v 4.900001 1.288000 -3.428745
v 4.900001 1.736000 -3.428745
v 4.060000 1.288000 -3.498745
v 4.060000 1.736000 -3.498745
v 4.060000 1.288000 -3.428745
v 4.060000 1.736000 -3.428745
v 4.900001 1.486800 -3.526745
v 4.900001 1.537200 -3.526745
v 4.900001 1.486800 -3.414745
v 4.900001 1.537200 -3.414745
v 4.060000 1.486800 -3.526745
v 4.060000 1.537200 -3.526745
v 4.060000 1.486800 -3.414745
v 4.060000 1.537200 -3.414745
v 4.505200 1.288000 -3.526745
v 4.505200 1.736000 -3.526745
v 4.505200 1.288000 -3.414745
v 4.505200 1.736000 -3.414745
v 4.454800 1.288000 -3.526745
v 4.454800 1.736000 -3.526745
v 4.454800 1.288000 -3.414745
v 4.454800 1.736000 -3.414745
v 4.969999 1.218000 3.886255
v 4.969999 1.806000 3.886255
v 4.969999 1.218000 3.956255
v 4.969999 1.806000 3.956255
v 3.990000 1.218000 3.886255
v 3.990000 1.806000 3.886255
v 3.990000 1.218000 3.956255
v 3.990000 1.806000 3.956255
v 4.900000 1.288000 3.921255
v 4.900000 1.736000 3.921255
v 4.900000 1.288000 3.991255
v 4.900000 1.736000 3.991255
v 4.060000 1.288000 3.921255
v 4.060000 1.736000 3.921255
v 4.060000 1.288000 3.991255
v 4.060000 1.736000 3.991255
v 4.900000 1.486800 3.907255
v 4.900000 1.537200 3.907255
v 4.900000 1.486800 4.019255
v 4.900000 1.537200 4.019255
v 4.060000 1.486800 3.907255
v 4.060000 1.537200 3.907255
v 4.060000 1.486800 4.019255
v 4.060000 1.537200 4.019255
v 4.505199 1.288000 3.907255
v 4.505199 1.736000 3.907255
v 4.505199 1.288000 4.019255
v 4.505199 1.736000 4.019255
v 4.454800 1.288000 3.907255
v 4.454800 1.736000 3.907255
v 4.454800 1.288000 4.019255
v 4.454800 1.736000 4.019255
v 3.290000 1.218000 -3.463745
v 3.290000 1.806000 -3.463745
v 3.290000 1.218000 -3.393745
v 3.290000 1.806000 -3.393745
v 2.310000 1.218000 -3.463745
v 2.310000 1.806000 -3.463745
v 2.310000 1.218000 -3.393745
v 2.310000 1.806000 -3.393745
v 3.220000 1.288000 -3.498745
v 3.220000 1.736000 -3.498745
v 3.220000 1.288000 -3.428745
v 3.220000 1.736000 -3.428745
v 2.380000 1.288000 -3.498745
v 2.380000 1.736000 -3.498745
v 2.380000 1.288000 -3.428745
v 2.380000 1.736000 -3.428745
v 3.220000 1.486800 -3.526745
v 3.220000 1.537200 -3.526745
v 3.220000 1.486800 -3.414745
v 3.220000 1.537200 -3.414745
v 2.380000 1.486800 -3.526745
v 2.380000 1.537200 -3.526745
v 2.380000 1.486800 -3.414745
v 2.380000 1.537200 -3.414745
v 2.825200 1.288000 -3.526745
v 2.825200 1.736000 -3.526745
v 2.825200 1.288000 -3.414745
v 2.825200 1.736000 -3.414745
v 2.774800 1.288000 -3.526745
v 2.774800 1.736000 -3.526745
v 2.774800 1.288000 -3.414745
v 2.774800 1.736000 -3.414745
v 3.290000 1.218000 3.886255
v 3.290000 1.806000 3.886255
v 3.290000 1.218000 3.956255
v 3.290000 1.806000 3.956255
v 2.310000 1.218000 3.886255
v 2.310000 1.806000 3.886255
v 2.310000 1.218000 3.956255
v 2.310000 1.806000 3.956255
v 3.220000 1.288000 3.921255
v 3.220000 1.736000 3.921255
v 3.220000 1.288000 3.991255
v 3.220000 1.736000 3.991255
v 2.380000 1.288000 3.921255
v 2.380000 1.736000 3.921255
v 2.380000 1.288000 3.991255
v 2.380000 1.736000 3.991255
v 3.220000 1.486800 3.907255
v 3.220000 1.537200 3.907255
v 3.220000 1.486800 4.019255
v 3.220000 1.537200 4.019255
v 2.380000 1.486800 3.907255
v 2.380000 1.537200 3.907255
v 2.380000 1.486800 4.019255
v 2.380000 1.537200 4.019255
v 2.825200 1.288000 3.907255
v 2.825200 1.736000 3.907255
v 2.825200 1.288000 4.019255
v 2.825200 1.736000 4.019255
v 2.774800 1.288000 3.907255
v 2.774800 1.736000 3.907255
v 2.774800 1.288000 4.019255
v 2.774800 1.736000 4.019255
v 1.610000 1.218000 -3.463745
v 1.610000 1.806000 -3.463745
v 1.610000 1.218000 -3.393745
v 1.610000 1.806000 -3.393745
v 0.630000 1.218000 -3.463746
v 0.630000 1.806000 -3.463746
v 0.630000 1.218000 -3.393745
v 0.630000 1.806000 -3.393745
v 1.540000 1.288000 -3.498745
v 1.540000 1.736000 -3.498745
v 1.540000 1.288000 -3.428745
v 1.540000 1.736000 -3.428745
v 0.700000 1.288000 -3.498745
v 0.700000 1.736000 -3.498745
v 0.700000 1.288000 -3.428746
v 0.700000 1.736000 -3.428746
v 1.540000 1.486800 -3.526745
v 1.540000 1.537200 -3.526745
v 1.540000 1.486800 -3.414745
v 1.540000 1.537200 -3.414745
v 0.700000 1.486800 -3.526745
v 0.700000 1.537200 -3.526745
v 0.700000 1.486800 -3.414746
v 0.700000 1.537200 -3.414746
v 1.145200 1.288000 -3.526745
v 1.145200 1.736000 -3.526745
v 1.145200 1.288000 -3.414746
v 1.145200 1.736000 -3.414746
v 1.094800 1.288000 -3.526745
v 1.094800 1.736000 -3.526745
v 1.094800 1.288000 -3.414746
v 1.094800 1.736000 -3.414746
v 1.610000 1.218000 3.886255
v 1.610000 1.806000 3.886255
v 1.610000 1.218000 3.956255
v 1.610000 1.806000 3.956255
v 0.630000 1.218000 3.886255
v 0.630000 1.806000 3.886255
v 0.630000 1.218000 3.956254
v 0.630000 1.806000 3.956254
v 1.540000 1.288000 3.921255
v 1.540000 1.736000 3.921255
v 1.540000 1.288000 3.991255
v 1.540000 1.736000 3.991255
v 0.700000 1.288000 3.921255
v 0.700000 1.736000 3.921255
v 0.700000 1.288000 3.991255
v 0.700000 1.736000 3.991255
v 1.540000 1.486800 3.907255
v 1.540000 1.537200 3.907255
v 1.540000 1.486800 4.019255
v 1.540000 1.537200 4.019255
v 0.700000 1.486800 3.907254
v 0.700000 1.537200 3.907254
v 0.700000 1.486800 4.019254
v 0.700000 1.537200 4.019254
v 1.145200 1.288000 3.907254
v 1.145200 1.736000 3.907254
v 1.145200 1.288000 4.019254
v 1.145200 1.736000 4.019254
v 1.094800 1.288000 3.907254
v 1.094800 1.736000 3.907254
v 1.094800 1.288000 4.019254
v 1.094800 1.736000 4.019254
v -0.070000 1.218000 -3.463746
v -0.070000 1.806000 -3.463746
v -0.070000 1.218000 -3.393745
v -0.070000 1.806000 -3.393745
v -1.050000 1.218000 -3.463746
v -1.050000 1.806000 -3.463746
v -1.050000 1.218000 -3.393745
v -1.050000 1.806000 -3.393745
v -0.140000 1.288000 -3.498745
v -0.140000 1.736000 -3.498745
v -0.140000 1.288000 -3.428746
v -0.140000 1.736000 -3.428746
v -0.980000 1.288000 -3.498745
v -0.980000 1.736000 -3.498745
v -0.980000 1.288000 -3.428746
v -0.980000 1.736000 -3.428746
v -0.140000 1.486800 -3.526745
v -0.140000 1.537200 -3.526745
v -0.140000 1.486800 -3.414746
v -0.140000 1.537200 -3.414746
v -0.980000 1.486800 -3.526745
v -0.980000 1.537200 -3.526745
v -0.980000 1.486800 -3.414746
v -0.980000 1.537200 -3.414746
v -0.534800 1.288000 -3.526745
v -0.534800 1.736000 -3.526745
v -0.534800 1.288000 -3.414746
v -0.534800 1.736000 -3.414746
v -0.585200 1.288000 -3.526745
v -0.585200 1.736000 -3.526745
v -0.585200 1.288000 -3.414746
v -0.585200 1.736000 -3.414746
v -0.070000 1.218000 3.886255
v -0.070000 1.806000 3.886255
v -0.070000 1.218000 3.956254
v -0.070000 1.806000 3.956254
v -1.050000 1.218000 3.886255
v -1.050000 1.806000 3.886255
v -1.050000 1.218000 3.956254
v -1.050000 1.806000 3.956254
v -0.140000 1.288000 3.921255
v -0.140000 1.736000 3.921255
v -0.140000 1.288000 3.991255
v -0.140000 1.736000 3.991255
v -0.980000 1.288000 3.921255
v -0.980000 1.736000 3.921255
v -0.980000 1.288000 3.991255
v -0.980000 1.736000 3.991255
v -0.140000 1.486800 3.907254
v -0.140000 1.537200 3.907254
v -0.140000 1.486800 4.019254
v -0.140000 1.537200 4.019254
v -0.980000 1.486800 3.907254
v -0.980000 1.537200 3.907254
v -0.980000 1.486800 4.019254
v -0.980000 1.537200 4.019254
v -0.534800 1.288000 3.907254
v -0.534800 1.736000 3.907254
v -0.534800 1.288000 4.019254
v -0.534800 1.736000 4.019254
v -0.585200 1.288000 3.907254
v -0.585200 1.736000 3.907254
v -0.585200 1.288000 4.019254
v -0.585200 1.736000 4.019254
v -1.750000 1.218000 -3.463746
v -1.750000 1.806000 -3.463746
v -1.750000 1.218000 -3.393746
v -1.750000 1.806000 -3.393746
v -2.730000 1.218000 -3.463746
v -2.730000 1.806000 -3.463746
v -2.730000 1.218000 -3.393746
v -2.730000 1.806000 -3.393746
v -1.820000 1.288000 -3.498746
v -1.820000 1.736000 -3.498746
v -1.820000 1.288000 -3.428746
v -1.820000 1.736000 -3.428746
v -2.660000 1.288000 -3.498746
v -2.660000 1.736000 -3.498746
v -2.660000 1.288000 -3.428746
v -2.660000 1.736000 -3.428746
v -1.820000 1.486800 -3.526746
v -1.820000 1.537200 -3.526746
v -1.820000 1.486800 -3.414746
v -1.820000 1.537200 -3.414746
v -2.660000 1.486800 -3.526746
v -2.660000 1.537200 -3.526746
v -2.660000 1.486800 -3.414746
v -2.660000 1.537200 -3.414746
v -2.214800 1.288000 -3.526746
v -2.214800 1.736000 -3.526746
v -2.214800 1.288000 -3.414746
v -2.214800 1.736000 -3.414746
v -2.265200 1.288000 -3.526746
v -2.265200 1.736000 -3.526746
v -2.265200 1.288000 -3.414746
v -2.265200 1.736000 -3.414746
v -1.750000 1.218000 3.886254
v -1.750000 1.806000 3.886254
v -1.750000 1.218000 3.956254
v -1.750000 1.806000 3.956254
v -2.730000 1.218000 3.886254
v -2.730000 1.806000 3.886254
v -2.730000 1.218000 3.956254
v -2.730000 1.806000 3.956254
v -1.820000 1.288000 3.921254
v -1.820000 1.736000 3.921254
v -1.820000 1.288000 3.991254
v -1.820000 1.736000 3.991254
v -2.660000 1.288000 3.921254
v -2.660000 1.736000 3.921254
v -2.660000 1.288000 3.991254
v -2.660000 1.736000 3.991254
v -1.820000 1.486800 3.907254
v -1.820000 1.537200 3.907254
v -1.820000 1.486800 4.019254
v -1.820000 1.537200 4.019254
v -2.660000 1.486800 3.907254
v -2.660000 1.537200 3.907254
v -2.660000 1.486800 4.019254
v -2.660000 1.537200 4.019254
v -2.214800 1.288000 3.907254
v -2.214800 1.736000 3.907254
v -2.214800 1.288000 4.019254
v -2.214800 1.736000 4.019254
v -2.265200 1.288000 3.907254
v -2.265200 1.736000 3.907254
v -2.265200 1.288000 4.019254
v -2.265200 1.736000 4.019254
v -3.430000 1.218000 -3.463746
v -3.430000 1.806000 -3.463746
v -3.430000 1.218000 -3.393746
v -3.430000 1.806000 -3.393746
v -4.410000 1.218000 -3.463746
v -4.410000 1.806000 -3.463746
v -4.410000 1.218000 -3.393746
v -4.410000 1.806000 -3.393746
v -3.500000 1.288000 -3.498746
v -3.500000 1.736000 -3.498746
v -3.500000 1.288000 -3.428746
v -3.500000 1.736000 -3.428746
v -4.340000 1.288000 -3.498746
v -4.340000 1.736000 -3.498746
v -4.340000 1.288000 -3.428746
v -4.340000 1.736000 -3.428746
v -3.500000 1.486800 -3.526746
v -3.500000 1.537200 -3.526746
v -3.500000 1.486800 -3.414746
v -3.500000 1.537200 -3.414746
v -4.340000 1.486800 -3.526746
v -4.340000 1.537200 -3.526746
v -4.340000 1.486800 -3.414746
v -4.340000 1.537200 -3.414746
v -3.894800 1.288000 -3.526746
v -3.894800 1.736000 -3.526746
v -3.894800 1.288000 -3.414746
v -3.894800 1.736000 -3.414746
v -3.945200 1.288000 -3.526746
v -3.945200 1.736000 -3.526746
v -3.945200 1.288000 -3.414746
v -3.945200 1.736000 -3.414746
v -3.430000 1.218000 3.886254
v -3.430000 1.806000 3.886254
v -3.430000 1.218000 3.956254
v -3.430000 1.806000 3.956254
v -4.410000 1.218000 3.886254
v -4.410000 1.806000 3.886254
v -4.410000 1.218000 3.956254
v -4.410000 1.806000 3.956254
v -3.500000 1.288000 3.921254
v -3.500000 1.736000 3.921254
v -3.500000 1.288000 3.991254
v -3.500000 1.736000 3.991254
v -4.340000 1.288000 3.921254
v -4.340000 1.736000 3.921254
v -4.340000 1.288000 3.991254
v -4.340000 1.736000 3.991254
v -3.500000 1.486800 3.907254
v -3.500000 1.537200 3.907254
v -3.500000 1.486800 4.019254
v -3.500000 1.537200 4.019254
v -4.340000 1.486800 3.907254
v -4.340000 1.537200 3.907254
v -4.340000 1.486800 4.019254
v -4.340000 1.537200 4.019254
v -3.894800 1.288000 3.907254
v -3.894800 1.736000 3.907254
v -3.894800 1.288000 4.019254
v -3.894800 1.736000 4.019254
v -3.945200 1.288000 3.907254
v -3.945200 1.736000 3.907254
v -3.945200 1.288000 4.019254
v -3.945200 1.736000 4.019254
v 5.992001 0.168000 -0.873745
v 5.992001 1.988000 -0.873745
v 5.992001 0.168000 1.366255
v 5.992001 1.988000 1.366255
v 5.880000 0.168000 -0.873745
v 5.880000 1.988000 -0.873745
v 5.880000 0.168000 1.366255
v 5.880000 1.988000 1.366255
v 6.020000 0.168000 0.190255
v 6.020000 1.988000 0.190255
v 6.020000 0.168000 0.302255
v 6.020000 1.988000 0.302255
v 5.880000 0.168000 0.190255
v 5.880000 1.988000 0.190255
v 5.880000 0.168000 0.302255
v 5.880000 1.988000 0.302255
v -5.880000 0.168000 -0.873746
v -5.880000 1.988000 -0.873746
v -5.880000 0.168000 1.366254
v -5.880000 1.988000 1.366254
v -5.992001 0.168000 -0.873746
v -5.992001 1.988000 -0.873746
v -5.992001 0.168000 1.366254
v -5.992001 1.988000 1.366254
v -5.880000 0.168000 0.190254
v -5.880000 1.988000 0.190254
v -5.880000 0.168000 0.302254
v -5.880000 1.988000 0.302254
v -6.020000 0.168000 0.190254
v -6.020000 1.988000 0.190254
v -6.020000 0.168000 0.302254
v -6.020000 1.988000 0.302254
v 0.700000 0.168000 -3.491745
v 0.700000 1.568000 -3.491745
v 0.700000 0.168000 -3.379745
v 0.700000 1.568000 -3.379745
v -0.700000 0.168000 -3.491745
v -0.700000 1.568000 -3.491745
v -0.700000 0.168000 -3.379745
v -0.700000 1.568000 -3.379745
v 0.896000 1.680000 -4.177745
v -0.896000 1.680000 -4.177745
v 0.000000 2.072000 -4.177745
v 0.896000 1.680000 -3.337746
v -0.896000 1.680000 -3.337746
v 0.000000 2.072000 -3.337746
v 0.833000 0.168000 -4.170746
v 0.833000 1.680000 -4.170746
v 0.833000 0.168000 -4.072746
v 0.833000 1.680000 -4.072746
v 0.735000 0.168000 -4.170746
v 0.735000 1.680000 -4.170746
v 0.735000 0.168000 -4.072746
v 0.735000 1.680000 -4.072746
v -0.735000 0.168000 -4.170746
v -0.735000 1.680000 -4.170746
v -0.735000 0.168000 -4.072746
v -0.735000 1.680000 -4.072746
v -0.833000 0.168000 -4.170746
v -0.833000 1.680000 -4.170746
v -0.833000 0.168000 -4.072746
v -0.833000 1.680000 -4.072746
v 1.120000 2.492000 -3.547745
v 1.120000 1.988000 -3.547745
v 3.920000 3.808000 0.498255
v 3.920000 4.200000 0.498255
v 3.771878 3.808000 0.450127
v 3.771878 4.200000 0.450127
v 3.680334 3.808000 0.324127
v 3.680334 4.200000 0.324127
v 3.680334 3.808000 0.168383
v 3.680334 4.200000 0.168383
v 3.771878 3.808000 0.042383
v 3.771878 4.200000 0.042383
v 3.920000 3.808000 -0.005745
v 3.920000 4.200000 -0.005745
v 4.068122 3.808000 0.042383
v 4.068122 4.200000 0.042383
v 4.159667 3.808000 0.168383
v 4.159667 4.200000 0.168383
v 4.159667 3.808000 0.324127
v 4.159667 4.200000 0.324127
v 4.068122 3.808000 0.450127
v 4.068122 4.200000 0.450127
v 3.920000 4.200000 0.610255
v 3.920000 4.340000 0.358255
v 3.706046 4.200000 0.540737
v 3.854168 4.340000 0.336865
v 3.573815 4.200000 0.358737
v 3.813482 4.340000 0.280865
v 3.573815 4.200000 0.133773
v 3.813482 4.340000 0.211645
v 3.706046 4.200000 -0.048227
v 3.854168 4.340000 0.155645
v 3.920000 4.200000 -0.117745
v 3.920000 4.340000 0.134255
v 4.133954 4.200000 -0.048227
v 3.985832 4.340000 0.155645
v 4.266185 4.200000 0.133773
v 4.026518 4.340000 0.211645
v 4.266185 4.200000 0.358737
v 4.026518 4.340000 0.280865
v 4.133954 4.200000 0.540737
v 3.985832 4.340000 0.336865
v 1.316000 3.808000 0.498255
v 1.316000 4.200000 0.498255
v 1.167878 3.808000 0.450127
v 1.167878 4.200000 0.450127
v 1.076334 3.808000 0.324127
v 1.076334 4.200000 0.324127
v 1.076334 3.808000 0.168382
v 1.076334 4.200000 0.168382
v 1.167878 3.808000 0.042382
v 1.167878 4.200000 0.042382
v 1.316000 3.808000 -0.005745
v 1.316000 4.200000 -0.005745
v 1.464122 3.808000 0.042382
v 1.464122 4.200000 0.042382
v 1.555666 3.808000 0.168382
v 1.555666 4.200000 0.168382
v 1.555666 3.808000 0.324127
v 1.555666 4.200000 0.324127
v 1.464122 3.808000 0.450127
v 1.464122 4.200000 0.450127
v 1.316000 4.200000 0.610255
v 1.316000 4.340000 0.358255
v 1.102046 4.200000 0.540737
v 1.250168 4.340000 0.336865
v 0.969815 4.200000 0.358737
v 1.209482 4.340000 0.280865
v 0.969815 4.200000 0.133772
v 1.209482 4.340000 0.211645
v 1.102046 4.200000 -0.048228
v 1.250168 4.340000 0.155645
v 1.316000 4.200000 -0.117745
v 1.316000 4.340000 0.134255
v 1.529954 4.200000 -0.048228
v 1.381832 4.340000 0.155645
v 1.662184 4.200000 0.133772
v 1.422518 4.340000 0.211645
v 1.662184 4.200000 0.358737
v 1.422518 4.340000 0.280865
v 1.529954 4.200000 0.540737
v 1.381832 4.340000 0.336865
v -1.316000 3.808000 0.498254
v -1.316000 4.200000 0.498254
v -1.464122 3.808000 0.450127
v -1.464122 4.200000 0.450127
v -1.555666 3.808000 0.324127
v -1.555666 4.200000 0.324127
v -1.555666 3.808000 0.168382
v -1.555666 4.200000 0.168382
v -1.464122 3.808000 0.042382
v -1.464122 4.200000 0.042382
v -1.316000 3.808000 -0.005746
v -1.316000 4.200000 -0.005746
v -1.167878 3.808000 0.042382
v -1.167878 4.200000 0.042382
v -1.076334 3.808000 0.168382
v -1.076334 4.200000 0.168382
v -1.076334 3.808000 0.324127
v -1.076334 4.200000 0.324127
v -1.167878 3.808000 0.450127
v -1.167878 4.200000 0.450127
v -1.316000 4.200000 0.610254
v -1.316000 4.340000 0.358254
v -1.529954 4.200000 0.540737
v -1.381832 4.340000 0.336864
v -1.662184 4.200000 0.358737
v -1.422518 4.340000 0.280864
v -1.662184 4.200000 0.133772
v -1.422518 4.340000 0.211644
v -1.529954 4.200000 -0.048228
v -1.381832 4.340000 0.155644
v -1.316000 4.200000 -0.117746
v -1.316000 4.340000 0.134254
v -1.102046 4.200000 -0.048228
v -1.250168 4.340000 0.155644
v -0.969815 4.200000 0.133772
v -1.209482 4.340000 0.211645
v -0.969815 4.200000 0.358737
v -1.209482 4.340000 0.280864
v -1.102046 4.200000 0.540737
v -1.250168 4.340000 0.336864
v -3.920000 3.808000 0.498254
v -3.920000 4.200000 0.498254
v -4.068122 3.808000 0.450126
v -4.068122 4.200000 0.450126
v -4.159667 3.808000 0.324126
v -4.159667 4.200000 0.324126
v -4.159667 3.808000 0.168382
v -4.159667 4.200000 0.168382
v -4.068122 3.808000 0.042382
v -4.068122 4.200000 0.042382
v -3.920000 3.808000 -0.005746
v -3.920000 4.200000 -0.005746
v -3.771878 3.808000 0.042382
v -3.771878 4.200000 0.042382
v -3.680334 3.808000 0.168382
v -3.680334 4.200000 0.168382
v -3.680334 3.808000 0.324126
v -3.680334 4.200000 0.324126
v -3.771878 3.808000 0.450126
v -3.771878 4.200000 0.450126
v -3.920000 4.200000 0.610254
v -3.920000 4.340000 0.358254
v -4.133954 4.200000 0.540736
v -3.985832 4.340000 0.336864
v -4.266185 4.200000 0.358736
v -4.026518 4.340000 0.280864
v -4.266185 4.200000 0.133772
v -4.026518 4.340000 0.211644
v -4.133954 4.200000 -0.048228
v -3.985832 4.340000 0.155644
v -3.920000 4.200000 -0.117746
v -3.920000 4.340000 0.134254
v -3.706046 4.200000 -0.048228
v -3.854168 4.340000 0.155644
v -3.573815 4.200000 0.133772
v -3.813482 4.340000 0.211644
v -3.573815 4.200000 0.358736
v -3.813482 4.340000 0.280864
v -3.706046 4.200000 0.540736
v -3.854168 4.340000 0.336864
v 1.120000 1.988000 -3.463746
v 1.120000 2.492000 -3.463746
v -1.120000 1.988000 -3.547745
v -1.120000 2.492000 -3.547745
v -1.120000 1.988000 -3.463746
v -1.120000 2.492000 -3.463746
v 0.000000 2.408000 -3.561746
v 0.000000 2.072000 -3.561746
v -0.039499 2.385492 -3.534563
v -0.068414 2.324000 -3.514663
v -0.078998 2.240000 -3.507380
v -0.068414 2.156000 -3.514663
v -0.039499 2.094508 -3.534563
v -0.063911 2.385492 -3.551363
v -0.110697 2.324000 -3.543762
v -0.127822 2.240000 -3.540980
v -0.110697 2.156000 -3.543762
v -0.063911 2.094508 -3.551363
v -0.063911 2.385492 -3.572129
v -0.110697 2.324000 -3.579730
v -0.127822 2.240000 -3.582512
v -0.110697 2.156000 -3.579730
v -0.063911 2.094508 -3.572129
v -0.039499 2.385492 -3.588929
v -0.068414 2.324000 -3.608828
v -0.078998 2.240000 -3.616112
v -0.068414 2.156000 -3.608828
v -0.039499 2.094508 -3.588929
v 0.000000 2.385492 -3.595345
v 0.000000 2.324000 -3.619942
v 0.000000 2.240000 -3.628946
v 0.000000 2.156000 -3.619942
v 0.000000 2.094508 -3.595345
v 0.039499 2.385492 -3.588929
v 0.068415 2.324000 -3.608828
v 0.078999 2.240000 -3.616112
v 0.068415 2.156000 -3.608828
v 0.039499 2.094508 -3.588929
v 0.063911 2.385492 -3.572129
v 0.110697 2.324000 -3.579730
v 0.127822 2.240000 -3.582512
v 0.110697 2.156000 -3.579730
v 0.063911 2.094508 -3.572129
v 0.063911 2.385492 -3.551363
v 0.110697 2.324000 -3.543762
v 0.127822 2.240000 -3.540980
v 0.110697 2.156000 -3.543762
v 0.063911 2.094508 -3.551363
v 0.039499 2.385492 -3.534563
v 0.068415 2.324000 -3.514663
v 0.078999 2.240000 -3.507380
v 0.068415 2.156000 -3.514663
v 0.039499 2.094508 -3.534563
v 0.000000 2.385492 -3.528146
v 0.000000 2.324000 -3.503549
v 0.000000 2.240000 -3.494546
v 0.000000 2.156000 -3.503549
v 0.000000 2.094508 -3.528146
vn 1.0000 -0.0000 -0.0000
vn -0.0000 -0.0000 1.0000
vn -1.0000 -0.0000 -0.0000
vn -0.0000 -0.0000 -1.0000
vn -0.0000 -1.0000 -0.0000
vn -0.0000 1.0000 -0.0000
vn -0.0000 0.3590 0.9333
vn -0.0000 -0.3590 -0.9333
vn -0.0000 -0.9333 0.3590
vn -0.0000 0.9333 -0.3590
vn -0.0000 -0.3590 0.9333
vn -0.0000 0.3590 -0.9333
vn -0.0000 -0.9333 -0.3590
vn -0.0000 0.9333 0.3590
vn -0.4008 0.9162 -0.0000
vn 0.4008 0.9162 -0.0000
vn 0.1559 0.8635 -0.4797
vn -0.5044 0.8635 -0.0000
vn -0.3090 -0.0000 0.9511
vn -0.8090 -0.0000 -0.5878
vn -0.5612 -0.1414 0.8155
vn -0.8090 -0.0000 0.5878
vn -0.1595 -0.1052 0.9816
vn -0.1559 0.8635 -0.4797
vn -0.4081 0.8635 0.2965
vn -0.5003 0.4705 0.7269
vn -0.3090 -0.0000 -0.9511
vn -0.1492 0.3672 0.9181
vn -0.4081 0.8635 -0.2965
vn 0.3090 -0.0000 -0.9511
vn -0.1559 0.8635 0.4797
vn 0.8090 -0.0000 -0.5878
vn 0.8090 -0.0000 0.5878
vn 0.3090 -0.0000 0.9511
vn 0.4081 0.8635 -0.2965
vn 0.5044 0.8635 -0.0000
vn 0.4081 0.8635 0.2965
vn 0.1559 0.8635 0.4797
vn -0.2546 -0.8935 0.3699
vn -0.5612 0.1414 0.8155
vn -0.5003 -0.4705 0.7269
vn -0.0900 0.8274 0.5543
vn -0.2546 0.8935 0.3699
vn -0.1492 -0.3672 0.9181
vn -0.1595 0.1052 0.9816
vn -0.0901 -0.8274 0.5543
vn -0.7958 0.6055 -0.0000
vn -0.9798 -0.1998 -0.0000
vn -0.7958 -0.6055 -0.0000
vn -0.3322 0.9432 -0.0000
vn -0.9798 0.1998 -0.0000
vn -0.3322 -0.9432 -0.0000
vn -0.5612 -0.1414 -0.8155
vn -0.5003 -0.4705 -0.7269
vn -0.2546 0.8935 -0.3699
vn -0.5612 0.1414 -0.8155
vn -0.2546 -0.8935 -0.3699
vn -0.5003 0.4705 -0.7269
vn -0.1492 -0.3672 -0.9181
vn -0.0901 0.8274 -0.5543
vn -0.1595 0.1052 -0.9816
vn -0.0900 -0.8274 -0.5543
vn -0.1491 0.3672 -0.9181
vn -0.1595 -0.1052 -0.9816
vn 0.0900 0.8274 -0.5543
vn 0.1595 0.1052 -0.9816
vn 0.0900 -0.8274 -0.5543
vn 0.1492 0.3672 -0.9181
vn 0.1595 -0.1052 -0.9816
vn 0.1492 -0.3672 -0.9181
vn 0.2546 0.8935 -0.3699
vn 0.5612 0.1414 -0.8155
vn 0.2546 -0.8935 -0.3699
vn 0.5003 0.4705 -0.7269
vn 0.5612 -0.1414 -0.8155
vn 0.5003 -0.4705 -0.7269
vn 0.3322 0.9432 -0.0000
vn 0.9798 0.1998 -0.0000
vn 0.3322 -0.9432 -0.0000
vn 0.7958 0.6055 -0.0000
vn 0.9798 -0.1998 -0.0000
vn 0.7958 -0.6055 -0.0000
vn 0.5612 0.1414 0.8155
vn 0.2546 -0.8935 0.3699
vn 0.5003 0.4705 0.7269
vn 0.5612 -0.1414 0.8155
vn 0.5003 -0.4705 0.7269
vn 0.2546 0.8935 0.3699
vn 0.0901 -0.8274 0.5543
vn 0.1492 0.3672 0.9181
vn 0.1595 -0.1052 0.9816
vn 0.1492 -0.3672 0.9181
vn 0.0900 0.8274 0.5543
vn 0.1595 0.1052 0.9816
s 0
usemtl EF_Path
f 1//1 2//1 4//1 3//1
f 3//2 4//2 8//2 7//2
f 7//3 8//3 6//3 5//3
f 5//4 6//4 2//4 1//4
f 3//5 7//5 5//5 1//5
f 8//6 4//6 2//6 6//6
usemtl EF_White
f 9//1 10//1 12//1 11//1
f 11//2 12//2 16//2 15//2
f 15//3 16//3 14//3 13//3
f 13//4 14//4 10//4 9//4
f 11//5 15//5 13//5 9//5
f 16//6 12//6 10//6 14//6
f 83//3 81//3 82//3
f 10//1 84//1 12//1
f 81//5 10//5 12//5 82//5
f 82//14 12//14 84//14 83//14
f 83//10 84//10 10//10 81//10
f 85//3 14//3 16//3
f 86//1 88//1 87//1
f 14//5 86//5 87//5 16//5
f 16//14 87//14 88//14 85//14
f 85//10 88//10 86//10 14//10
f 481//1 482//1 484//1 483//1
f 483//2 484//2 488//2 487//2
f 487//3 488//3 486//3 485//3
f 485//4 486//4 482//4 481//4
f 483//5 487//5 485//5 481//5
f 488//6 484//6 482//6 486//6
f 497//1 498//1 500//1 499//1
f 499//2 500//2 504//2 503//2
f 503//3 504//3 502//3 501//3
f 501//4 502//4 498//4 497//4
f 499//5 503//5 501//5 497//5
f 504//6 500//6 498//6 502//6
f 519//1 520//1 522//1 521//1
f 521//2 522//2 526//2 525//2
f 525//3 526//3 524//3 523//3
f 523//4 524//4 520//4 519//4
f 521//5 525//5 523//5 519//5
f 526//6 522//6 520//6 524//6
f 527//1 528//1 530//1 529//1
f 529//2 530//2 534//2 533//2
f 533//3 534//3 532//3 531//3
f 531//4 532//4 528//4 527//4
f 529//5 533//5 531//5 527//5
f 534//6 530//6 528//6 532//6
f 708//21 707//21 712//21 713//21
f 753//23 752//23 707//23 708//23
f 706//26 705//26 710//26 711//26
f 751//28 750//28 705//28 706//28
f 704//39 709//39 714//39
f 707//40 706//40 711//40 712//40
f 709//41 708//41 713//41 714//41
f 750//42 703//42 705//42
f 705//43 703//43 710//43
f 754//44 753//44 708//44 709//44
f 752//45 751//45 706//45 707//45
f 704//46 754//46 709//46
f 711//47 710//47 715//47 716//47
f 713//48 712//48 717//48 718//48
f 714//49 713//49 718//49 719//49
f 710//50 703//50 715//50
f 712//51 711//51 716//51 717//51
f 704//52 714//52 719//52
f 718//53 717//53 722//53 723//53
f 719//54 718//54 723//54 724//54
f 715//55 703//55 720//55
f 717//56 716//56 721//56 722//56
f 704//57 719//57 724//57
f 716//58 715//58 720//58 721//58
f 724//59 723//59 728//59 729//59
f 720//60 703//60 725//60
f 722//61 721//61 726//61 727//61
f 704//62 724//62 729//62
f 721//63 720//63 725//63 726//63
f 723//64 722//64 727//64 728//64
f 725//65 703//65 730//65
f 727//66 726//66 731//66 732//66
f 704//67 729//67 734//67
f 726//68 725//68 730//68 731//68
f 728//69 727//69 732//69 733//69
f 729//70 728//70 733//70 734//70
f 730//71 703//71 735//71
f 732//72 731//72 736//72 737//72
f 704//73 734//73 739//73
f 731//74 730//74 735//74 736//74
f 733//75 732//75 737//75 738//75
f 734//76 733//76 738//76 739//76
f 735//77 703//77 740//77
f 737//78 736//78 741//78 742//78
f 704//79 739//79 744//79
f 736//80 735//80 740//80 741//80
f 738//81 737//81 742//81 743//81
f 739//82 738//82 743//82 744//82
f 742//83 741//83 746//83 747//83
f 704//84 744//84 749//84
f 741//85 740//85 745//85 746//85
f 743//86 742//86 747//86 748//86
f 744//87 743//87 748//87 749//87
f 740//88 703//88 745//88
f 704//89 749//89 754//89
f 746//90 745//90 750//90 751//90
f 748//91 747//91 752//91 753//91
f 749//92 748//92 753//92 754//92
f 745//93 703//93 750//93
f 747//94 746//94 751//94 752//94
usemtl EF_Roof
f 17//1 18//1 20//1 19//1
f 19//2 20//2 24//2 23//2
f 23//3 24//3 22//3 21//3
f 21//4 22//4 18//4 17//4
f 19//5 23//5 21//5 17//5
f 24//6 20//6 18//6 22//6
f 57//1 58//1 60//1 59//1
f 59//7 60//7 64//7 63//7
f 63//3 64//3 62//3 61//3
f 61//8 62//8 58//8 57//8
f 59//9 63//9 61//9 57//9
f 64//10 60//10 58//10 62//10
f 65//1 66//1 68//1 67//1
f 67//11 68//11 72//11 71//11
f 71//3 72//3 70//3 69//3
f 69//12 70//12 66//12 65//12
f 67//13 71//13 69//13 65//13
f 72//14 68//14 66//14 70//14
f 473//1 474//1 476//1 475//1
f 475//2 476//2 480//2 479//2
f 479//3 480//3 478//3 477//3
f 477//4 478//4 474//4 473//4
f 475//5 479//5 477//5 473//5
f 480//6 476//6 474//6 478//6
f 489//1 490//1 492//1 491//1
f 491//2 492//2 496//2 495//2
f 495//3 496//3 494//3 493//3
f 493//4 494//4 490//4 489//4
f 491//5 495//5 493//5 489//5
f 496//6 492//6 490//6 494//6
f 515//4 513//4 514//4
f 516//2 518//2 517//2
f 513//5 516//5 517//5 514//5
f 514//15 517//15 518//15 515//15
f 515//16 518//16 516//16 513//16
usemtl EF_Wood
f 25//1 26//1 28//1 27//1
f 27//2 28//2 32//2 31//2
f 31//3 32//3 30//3 29//3
f 29//4 30//4 26//4 25//4
f 27//5 31//5 29//5 25//5
f 32//6 28//6 26//6 30//6
f 33//1 34//1 36//1 35//1
f 35//2 36//2 40//2 39//2
f 39//3 40//3 38//3 37//3
f 37//4 38//4 34//4 33//4
f 35//5 39//5 37//5 33//5
f 40//6 36//6 34//6 38//6
f 41//1 42//1 44//1 43//1
f 43//2 44//2 48//2 47//2
f 47//3 48//3 46//3 45//3
f 45//4 46//4 42//4 41//4
f 43//5 47//5 45//5 41//5
f 48//6 44//6 42//6 46//6
f 49//1 50//1 52//1 51//1
f 51//2 52//2 56//2 55//2
f 55//3 56//3 54//3 53//3
f 53//4 54//4 50//4 49//4
f 51//5 55//5 53//5 49//5
f 56//6 52//6 50//6 54//6
f 89//1 90//1 92//1 91//1
f 91//2 92//2 96//2 95//2
f 95//3 96//3 94//3 93//3
f 93//4 94//4 90//4 89//4
f 91//5 95//5 93//5 89//5
f 96//6 92//6 90//6 94//6
f 105//1 106//1 108//1 107//1
f 107//2 108//2 112//2 111//2
f 111//3 112//3 110//3 109//3
f 109//4 110//4 106//4 105//4
f 107//5 111//5 109//5 105//5
f 112//6 108//6 106//6 110//6
f 113//1 114//1 116//1 115//1
f 115//2 116//2 120//2 119//2
f 119//3 120//3 118//3 117//3
f 117//4 118//4 114//4 113//4
f 115//5 119//5 117//5 113//5
f 120//6 116//6 114//6 118//6
f 121//1 122//1 124//1 123//1
f 123//2 124//2 128//2 127//2
f 127//3 128//3 126//3 125//3
f 125//4 126//4 122//4 121//4
f 123//5 127//5 125//5 121//5
f 128//6 124//6 122//6 126//6
f 137//1 138//1 140//1 139//1
f 139//2 140//2 144//2 143//2
f 143//3 144//3 142//3 141//3
f 141//4 142//4 138//4 137//4
f 139//5 143//5 141//5 137//5
f 144//6 140//6 138//6 142//6
f 145//1 146//1 148//1 147//1
f 147//2 148//2 152//2 151//2
f 151//3 152//3 150//3 149//3
f 149//4 150//4 146//4 145//4
f 147//5 151//5 149//5 145//5
f 152//6 148//6 146//6 150//6
f 153//1 154//1 156//1 155//1
f 155//2 156//2 160//2 159//2
f 159//3 160//3 158//3 157//3
f 157//4 158//4 154//4 153//4
f 155//5 159//5 157//5 153//5
f 160//6 156//6 154//6 158//6
f 169//1 170//1 172//1 171//1
f 171//2 172//2 176//2 175//2
f 175//3 176//3 174//3 173//3
f 173//4 174//4 170//4 169//4
f 171//5 175//5 173//5 169//5
f 176//6 172//6 170//6 174//6
f 177//1 178//1 180//1 179//1
f 179//2 180//2 184//2 183//2
f 183//3 184//3 182//3 181//3
f 181//4 182//4 178//4 177//4
f 179//5 183//5 181//5 177//5
f 184//6 180//6 178//6 182//6
f 185//1 186//1 188//1 187//1
f 187//2 188//2 192//2 191//2
f 191//3 192//3 190//3 189//3
f 189//4 190//4 186//4 185//4
f 187//5 191//5 189//5 185//5
f 192//6 188//6 186//6 190//6
f 201//1 202//1 204//1 203//1
f 203//2 204//2 208//2 207//2
f 207//3 208//3 206//3 205//3
f 205//4 206//4 202//4 201//4
f 203//5 207//5 205//5 201//5
f 208//6 204//6 202//6 206//6
f 209//1 210//1 212//1 211//1
f 211//2 212//2 216//2 215//2
f 215//3 216//3 214//3 213//3
f 213//4 214//4 210//4 209//4
f 211//5 215//5 213//5 209//5
f 216//6 212//6 210//6 214//6
f 217//1 218//1 220//1 219//1
f 219//2 220//2 224//2 223//2
f 223//3 224//3 222//3 221//3
f 221//4 222//4 218//4 217//4
f 219//5 223//5 221//5 217//5
f 224//6 220//6 218//6 222//6
f 233//1 234//1 236//1 235//1
f 235//2 236//2 240//2 239//2
f 239//3 240//3 238//3 237//3
f 237//4 238//4 234//4 233//4
f 235//5 239//5 237//5 233//5
f 240//6 236//6 234//6 238//6
f 241//1 242//1 244//1 243//1
f 243//2 244//2 248//2 247//2
f 247//3 248//3 246//3 245//3
f 245//4 246//4 242//4 241//4
f 243//5 247//5 245//5 241//5
f 248//6 244//6 242//6 246//6
f 249//1 250//1 252//1 251//1
f 251//2 252//2 256//2 255//2
f 255//3 256//3 254//3 253//3
f 253//4 254//4 250//4 249//4
f 251//5 255//5 253//5 249//5
f 256//6 252//6 250//6 254//6
f 265//1 266//1 268//1 267//1
f 267//2 268//2 272//2 271//2
f 271//3 272//3 270//3 269//3
f 269//4 270//4 266//4 265//4
f 267//5 271//5 269//5 265//5
f 272//6 268//6 266//6 270//6
f 273//1 274//1 276//1 275//1
f 275//2 276//2 280//2 279//2
f 279//3 280//3 278//3 277//3
f 277//4 278//4 274//4 273//4
f 275//5 279//5 277//5 273//5
f 280//6 276//6 274//6 278//6
f 281//1 282//1 284//1 283//1
f 283//2 284//2 288//2 287//2
f 287//3 288//3 286//3 285//3
f 285//4 286//4 282//4 281//4
f 283//5 287//5 285//5 281//5
f 288//6 284//6 282//6 286//6
f 297//1 298//1 300//1 299//1
f 299//2 300//2 304//2 303//2
f 303//3 304//3 302//3 301//3
f 301//4 302//4 298//4 297//4
f 299//5 303//5 301//5 297//5
f 304//6 300//6 298//6 302//6
f 305//1 306//1 308//1 307//1
f 307//2 308//2 312//2 311//2
f 311//3 312//3 310//3 309//3
f 309//4 310//4 306//4 305//4
f 307//5 311//5 309//5 305//5
f 312//6 308//6 306//6 310//6
f 313//1 314//1 316//1 315//1
f 315//2 316//2 320//2 319//2
f 319//3 320//3 318//3 317//3
f 317//4 318//4 314//4 313//4
f 315//5 319//5 317//5 313//5
f 320//6 316//6 314//6 318//6
f 329//1 330//1 332//1 331//1
f 331//2 332//2 336//2 335//2
f 335//3 336//3 334//3 333//3
f 333//4 334//4 330//4 329//4
f 331//5 335//5 333//5 329//5
f 336//6 332//6 330//6 334//6
f 337//1 338//1 340//1 339//1
f 339//2 340//2 344//2 343//2
f 343//3 344//3 342//3 341//3
f 341//4 342//4 338//4 337//4
f 339//5 343//5 341//5 337//5
f 344//6 340//6 338//6 342//6
f 345//1 346//1 348//1 347//1
f 347//2 348//2 352//2 351//2
f 351//3 352//3 350//3 349//3
f 349//4 350//4 346//4 345//4
f 347//5 351//5 349//5 345//5
f 352//6 348//6 346//6 350//6
f 361//1 362//1 364//1 363//1
f 363//2 364//2 368//2 367//2
f 367//3 368//3 366//3 365//3
f 365//4 366//4 362//4 361//4
f 363//5 367//5 365//5 361//5
f 368//6 364//6 362//6 366//6
f 369//1 370//1 372//1 371//1
f 371//2 372//2 376//2 375//2
f 375//3 376//3 374//3 373//3
f 373//4 374//4 370//4 369//4
f 371//5 375//5 373//5 369//5
f 376//6 372//6 370//6 374//6
f 377//1 378//1 380//1 379//1
f 379//2 380//2 384//2 383//2
f 383//3 384//3 382//3 381//3
f 381//4 382//4 378//4 377//4
f 379//5 383//5 381//5 377//5
f 384//6 380//6 378//6 382//6
f 393//1 394//1 396//1 395//1
f 395//2 396//2 400//2 399//2
f 399//3 400//3 398//3 397//3
f 397//4 398//4 394//4 393//4
f 395//5 399//5 397//5 393//5
f 400//6 396//6 394//6 398//6
f 401//1 402//1 404//1 403//1
f 403//2 404//2 408//2 407//2
f 407//3 408//3 406//3 405//3
f 405//4 406//4 402//4 401//4
f 403//5 407//5 405//5 401//5
f 408//6 404//6 402//6 406//6
f 409//1 410//1 412//1 411//1
f 411//2 412//2 416//2 415//2
f 415//3 416//3 414//3 413//3
f 413//4 414//4 410//4 409//4
f 411//5 415//5 413//5 409//5
f 416//6 412//6 410//6 414//6
f 425//1 426//1 428//1 427//1
f 427//2 428//2 432//2 431//2
f 431//3 432//3 430//3 429//3
f 429//4 430//4 426//4 425//4
f 427//5 431//5 429//5 425//5
f 432//6 428//6 426//6 430//6
f 433//1 434//1 436//1 435//1
f 435//2 436//2 440//2 439//2
f 439//3 440//3 438//3 437//3
f 437//4 438//4 434//4 433//4
f 435//5 439//5 437//5 433//5
f 440//6 436//6 434//6 438//6
f 441//1 442//1 444//1 443//1
f 443//2 444//2 448//2 447//2
f 447//3 448//3 446//3 445//3
f 445//4 446//4 442//4 441//4
f 443//5 447//5 445//5 441//5
f 448//6 444//6 442//6 446//6
f 457//1 458//1 460//1 459//1
f 459//2 460//2 464//2 463//2
f 463//3 464//3 462//3 461//3
f 461//4 462//4 458//4 457//4
f 459//5 463//5 461//5 457//5
f 464//6 460//6 458//6 462//6
f 465//1 466//1 468//1 467//1
f 467//2 468//2 472//2 471//2
f 471//3 472//3 470//3 469//3
f 469//4 470//4 466//4 465//4
f 467//5 471//5 469//5 465//5
f 472//6 468//6 466//6 470//6
f 505//1 506//1 508//1 507//1
f 507//2 508//2 512//2 511//2
f 511//3 512//3 510//3 509//3
f 509//4 510//4 506//4 505//4
f 507//5 511//5 509//5 505//5
f 512//6 508//6 506//6 510//6
usemtl EF_RoofDark
f 73//1 74//1 76//1 75//1
f 75//2 76//2 80//2 79//2
f 79//3 80//3 78//3 77//3
f 77//4 78//4 74//4 73//4
f 75//5 79//5 77//5 73//5
f 80//6 76//6 74//6 78//6
usemtl EF_Glass
f 97//1 98//1 100//1 99//1
f 99//2 100//2 104//2 103//2
f 103//3 104//3 102//3 101//3
f 101//4 102//4 98//4 97//4
f 99//5 103//5 101//5 97//5
f 104//6 100//6 98//6 102//6
f 129//1 130//1 132//1 131//1
f 131//2 132//2 136//2 135//2
f 135//3 136//3 134//3 133//3
f 133//4 134//4 130//4 129//4
f 131//5 135//5 133//5 129//5
f 136//6 132//6 130//6 134//6
f 161//1 162//1 164//1 163//1
f 163//2 164//2 168//2 167//2
f 167//3 168//3 166//3 165//3
f 165//4 166//4 162//4 161//4
f 163//5 167//5 165//5 161//5
f 168//6 164//6 162//6 166//6
f 193//1 194//1 196//1 195//1
f 195//2 196//2 200//2 199//2
f 199//3 200//3 198//3 197//3
f 197//4 198//4 194//4 193//4
f 195//5 199//5 197//5 193//5
f 200//6 196//6 194//6 198//6
f 225//1 226//1 228//1 227//1
f 227//2 228//2 232//2 231//2
f 231//3 232//3 230//3 229//3
f 229//4 230//4 226//4 225//4
f 227//5 231//5 229//5 225//5
f 232//6 228//6 226//6 230//6
f 257//1 258//1 260//1 259//1
f 259//2 260//2 264//2 263//2
f 263//3 264//3 262//3 261//3
f 261//4 262//4 258//4 257//4
f 259//5 263//5 261//5 257//5
f 264//6 260//6 258//6 262//6
f 289//1 290//1 292//1 291//1
f 291//2 292//2 296//2 295//2
f 295//3 296//3 294//3 293//3
f 293//4 294//4 290//4 289//4
f 291//5 295//5 293//5 289//5
f 296//6 292//6 290//6 294//6
f 321//1 322//1 324//1 323//1
f 323//2 324//2 328//2 327//2
f 327//3 328//3 326//3 325//3
f 325//4 326//4 322//4 321//4
f 323//5 327//5 325//5 321//5
f 328//6 324//6 322//6 326//6
f 353//1 354//1 356//1 355//1
f 355//2 356//2 360//2 359//2
f 359//3 360//3 358//3 357//3
f 357//4 358//4 354//4 353//4
f 355//5 359//5 357//5 353//5
f 360//6 356//6 354//6 358//6
f 385//1 386//1 388//1 387//1
f 387//2 388//2 392//2 391//2
f 391//3 392//3 390//3 389//3
f 389//4 390//4 386//4 385//4
f 387//5 391//5 389//5 385//5
f 392//6 388//6 386//6 390//6
f 417//1 418//1 420//1 419//1
f 419//2 420//2 424//2 423//2
f 423//3 424//3 422//3 421//3
f 421//4 422//4 418//4 417//4
f 419//5 423//5 421//5 417//5
f 424//6 420//6 418//6 422//6
f 449//1 450//1 452//1 451//1
f 451//2 452//2 456//2 455//2
f 455//3 456//3 454//3 453//3
f 453//4 454//4 450//4 449//4
f 451//5 455//5 453//5 449//5
f 456//6 452//6 450//6 454//6
usemtl EF_Metal
f 537//19 538//19 540//19 539//19
f 583//20 584//20 586//20 585//20
f 539//22 540//22 542//22 541//22
f 541//3 542//3 544//3 543//3
f 543//20 544//20 546//20 545//20
f 545//27 546//27 548//27 547//27
f 547//30 548//30 550//30 549//30
f 549//32 550//32 552//32 551//32
f 579//22 580//22 582//22 581//22
f 581//3 582//3 584//3 583//3
f 551//1 552//1 554//1 553//1
f 540//6 538//6 556//6 554//6 552//6 550//6 548//6 546//6 544//6 542//6
f 587//30 588//30 590//30 589//30
f 553//33 554//33 556//33 555//33
f 623//20 624//20 626//20 625//20
f 585//27 586//27 588//27 587//27
f 555//34 556//34 538//34 537//34
f 537//5 539//5 541//5 543//5 545//5 547//5 549//5 551//5 553//5 555//5
f 577//19 578//19 580//19 579//19
f 589//32 590//32 592//32 591//32
f 619//22 620//22 622//22 621//22
f 621//3 622//3 624//3 623//3
f 591//1 592//1 594//1 593//1
f 582//6 580//6 578//6 596//6 594//6 592//6 590//6 588//6 586//6 584//6
f 627//30 628//30 630//30 629//30
f 593//33 594//33 596//33 595//33
f 657//19 658//19 660//19 659//19
f 625//27 626//27 628//27 627//27
f 595//34 596//34 578//34 577//34
f 581//5 583//5 585//5 587//5 589//5 591//5 593//5 595//5 577//5 579//5
f 617//19 618//19 620//19 619//19
f 629//32 630//32 632//32 631//32
f 665//27 666//27 668//27 667//27
f 667//30 668//30 670//30 669//30
f 631//1 632//1 634//1 633//1
f 622//6 620//6 618//6 636//6 634//6 632//6 630//6 628//6 626//6 624//6
f 661//3 662//3 664//3 663//3
f 633//33 634//33 636//33 635//33
f 659//22 660//22 662//22 661//22
f 635//34 636//34 618//34 617//34
f 625//5 627//5 629//5 631//5 633//5 635//5 617//5 619//5 621//5 623//5
f 663//20 664//20 666//20 665//20
f 669//32 670//32 672//32 671//32
f 671//1 672//1 674//1 673//1
f 667//5 669//5 671//5 673//5 675//5 657//5 659//5 661//5 663//5 665//5
f 673//33 674//33 676//33 675//33
f 675//34 676//34 658//34 657//34
f 668//6 666//6 664//6 662//6 660//6 658//6 676//6 674//6 672//6 670//6
usemtl EF_GreyDark
f 567//17 568//17 570//17 569//17
f 561//18 562//18 564//18 563//18
f 565//24 566//24 568//24 567//24
f 559//25 560//25 562//25 561//25
f 603//29 604//29 606//29 605//29
f 563//29 564//29 566//29 565//29
f 557//31 558//31 560//31 559//31
f 569//35 570//35 572//35 571//35
f 599//25 600//25 602//25 601//25
f 601//18 602//18 604//18 603//18
f 571//36 572//36 574//36 573//36
f 564//6 562//6 560//6 558//6 576//6 574//6 572//6 570//6 568//6 566//6
f 607//17 608//17 610//17 609//17
f 573//37 574//37 576//37 575//37
f 643//29 644//29 646//29 645//29
f 605//24 606//24 608//24 607//24
f 575//38 576//38 558//38 557//38
f 569//5 571//5 573//5 575//5 557//5 559//5 561//5 563//5 565//5 567//5
f 597//31 598//31 600//31 599//31
f 609//35 610//35 612//35 611//35
f 639//25 640//25 642//25 641//25
f 641//18 642//18 644//18 643//18
f 611//36 612//36 614//36 613//36
f 608//6 606//6 604//6 602//6 600//6 598//6 616//6 614//6 612//6 610//6
f 647//17 648//17 650//17 649//17
f 613//37 614//37 616//37 615//37
f 679//25 680//25 682//25 681//25
f 645//24 646//24 648//24 647//24
f 615//38 616//38 598//38 597//38
f 607//5 609//5 611//5 613//5 615//5 597//5 599//5 601//5 603//5 605//5
f 637//31 638//31 640//31 639//31
f 649//35 650//35 652//35 651//35
f 687//17 688//17 690//17 689//17
f 685//24 686//24 688//24 687//24
f 651//36 652//36 654//36 653//36
f 681//18 682//18 684//18 683//18
f 647//5 649//5 651//5 653//5 655//5 637//5 639//5 641//5 643//5 645//5
f 653//37 654//37 656//37 655//37
f 677//31 678//31 680//31 679//31
f 655//38 656//38 638//38 637//38
f 648//6 646//6 644//6 642//6 640//6 638//6 656//6 654//6 652//6 650//6
f 683//29 684//29 686//29 685//29
f 689//35 690//35 692//35 691//35
f 691//36 692//36 694//36 693//36
f 679//5 681//5 683//5 685//5 687//5 689//5 691//5 693//5 695//5 677//5
f 693//37 694//37 696//37 695//37
f 695//38 696//38 678//38 677//38
f 688//6 686//6 684//6 682//6 680//6 678//6 696//6 694//6 692//6 690//6
usemtl EF_Accent
f 697//5 701//5 699//5 536//5
f 702//6 698//6 535//6 700//6
f 699//4 700//4 535//4 536//4
f 701//3 702//3 700//3 699//3
f 697//2 698//2 702//2 701//2
f 536//1 535//1 698//1 697//1
