# Blender 5.0.1
# www.blender.org
mtllib RedBarn.mtl
o RedBarn
v -3.444000 0.000000 4.245500
v -3.444000 0.168000 4.245500
v -3.444000 0.000000 -4.322500
v -3.444000 0.168000 -4.322500
v 3.444000 0.000000 4.245500
v 3.444000 0.168000 4.245500
v 3.444000 0.000000 -4.322500
v 3.444000 0.168000 -4.322500
v -3.360000 0.168000 4.161500
v -3.360000 3.248000 4.161500
v -3.360000 0.168000 -4.238500
v -3.360000 3.248000 -4.238500
v 3.360000 0.168000 4.161500
v 3.360000 3.248000 4.161500
v 3.360000 0.168000 -4.238500
v 3.360000 3.248000 -4.238500
v -3.458000 0.168000 4.259500
v -3.458000 3.248000 4.259500
v -3.458000 0.168000 4.063500
v -3.458000 3.248000 4.063500
v -3.262000 0.168000 4.259500
v -3.262000 3.248000 4.259500
v -3.262000 0.168000 4.063500
v -3.262000 3.248000 4.063500
v -3.458000 0.168000 -4.140500
v -3.458000 3.248000 -4.140500
v -3.458000 0.168000 -4.336500
v -3.458000 3.248000 -4.336500
v -3.262000 0.168000 -4.140500
v -3.262000 3.248000 -4.140500
v -3.262000 0.168000 -4.336500
v -3.262000 3.248000 -4.336500
v 3.262000 0.168000 4.259500
v 3.262000 3.248000 4.259500
v 3.262000 0.168000 4.063500
v 3.262000 3.248000 4.063500
v 3.458000 0.168000 4.259500
v 3.458000 3.248000 4.259500
v 3.458000 0.168000 4.063500
v 3.458000 3.248000 4.063500
v 3.262000 0.168000 -4.140500
v 3.262000 3.248000 -4.140500
v 3.262000 0.168000 -4.336500
v 3.262000 3.248000 -4.336500
v 3.458000 0.168000 -4.140500
v 3.458000 3.248000 -4.140500
v 3.458000 0.168000 -4.336500
v 3.458000 3.248000 -4.336500
v -3.374000 3.108000 4.175500
v -3.374000 3.248000 4.175500
v -3.374000 3.108000 -4.252500
v -3.374000 3.248000 -4.252500
v 3.374000 3.108000 4.175500
v 3.374000 3.248000 4.175500
v 3.374000 3.108000 -4.252500
v 3.374000 3.248000 -4.252500
v -3.584000 3.136000 4.385500
v -2.195200 4.860800 4.385500
v 0.000000 5.807200 4.385500
v 2.195200 4.860800 4.385500
v 3.584000 3.136000 4.385500
v -3.584000 3.136000 -4.462500
v -2.195200 4.860800 -4.462500
v 0.000000 5.807200 -4.462500
v 2.195200 4.860800 -4.462500
v 3.584000 3.136000 -4.462500
v -3.360000 3.248000 4.402300
v -2.083200 4.748800 4.402300
v 0.000000 5.583200 4.402300
v 2.083200 4.748800 4.402300
v 3.360000 3.248000 4.402300
v -3.360000 3.248000 -4.479300
v -2.083200 4.748800 -4.479300
v 0.000000 5.583200 -4.479300
v 2.083200 4.748800 -4.479300
v 3.360000 3.248000 -4.479300
v -3.349894 3.184259 4.441500
v -3.424537 3.247761 4.441500
v -3.349894 3.184259 4.385500
v -3.424537 3.247761 4.385500
v -2.018664 4.749039 4.441500
v -2.093306 4.812541 4.441500
v -2.018664 4.749039 4.385500
v -2.093306 4.812541 4.385500
v -2.103970 4.687696 4.441500
v -2.140408 4.778671 4.441500
v -2.103970 4.687696 4.385500
v -2.140408 4.778671 4.385500
v 0.057208 5.553330 4.441500
v 0.020770 5.644304 4.441500
v 0.057208 5.553330 4.385500
v 0.020770 5.644304 4.385500
v -0.057208 5.553330 4.441500
v -0.020770 5.644304 4.441500
v -0.057208 5.553330 4.385500
v -0.020770 5.644304 4.385500
v 2.103970 4.687696 4.441500
v 2.140408 4.778671 4.441500
v 2.103970 4.687696 4.385500
v 2.140408 4.778671 4.385500
v 2.018664 4.749039 4.441500
v 2.093306 4.812541 4.441500
v 2.018664 4.749039 4.385500
v 2.093306 4.812541 4.385500
v 3.349894 3.184259 4.441500
v 3.424537 3.247761 4.441500
v 3.349894 3.184259 4.385500
v 3.424537 3.247761 4.385500
v -3.349894 3.184259 -4.462500
v -3.424537 3.247761 -4.462500
v -3.349894 3.184259 -4.518500
v -3.424537 3.247761 -4.518500
v -2.018664 4.749039 -4.462500
v -2.093306 4.812541 -4.462500
v -2.018664 4.749039 -4.518500
v -2.093306 4.812541 -4.518500
v -2.103970 4.687696 -4.462500
v -2.140408 4.778671 -4.462500
v -2.103970 4.687696 -4.518500
v -2.140408 4.778671 -4.518500
v 0.057208 5.553330 -4.462500
v 0.020770 5.644304 -4.462500
v 0.057208 5.553330 -4.518500
v 0.020770 5.644304 -4.518500
v -0.057208 5.553330 -4.462500
v -0.020770 5.644304 -4.462500
v -0.057208 5.553330 -4.518500
v -0.020770 5.644304 -4.518500
v 2.103970 4.687696 -4.462500
v 2.140408 4.778671 -4.462500
v 2.103970 4.687696 -4.518500
v 2.140408 4.778671 -4.518500
v 2.018664 4.749039 -4.462500
v 2.093306 4.812541 -4.462500
v 2.018664 4.749039 -4.518500
v 2.093306 4.812541 -4.518500
v 3.349894 3.184259 -4.462500
v 3.424537 3.247761 -4.462500
v 3.349894 3.184259 -4.518500
v 3.424537 3.247761 -4.518500
v -0.420000 3.916640 4.469500
v -0.420000 4.756640 4.469500
v -0.420000 3.916640 4.385500
v -0.420000 4.756640 4.385500
v 0.420000 3.916640 4.469500
v 0.420000 4.756640 4.469500
v 0.420000 3.916640 4.385500
v 0.420000 4.756640 4.385500
v -0.336000 4.000640 4.497500
v -0.336000 4.672640 4.497500
v -0.336000 4.000640 4.385500
v -0.336000 4.672640 4.385500
v 0.336000 4.000640 4.497500
v 0.336000 4.672640 4.497500
v 0.336000 4.000640 4.385500
v 0.336000 4.672640 4.385500
v -0.042000 4.000640 4.518500
v -0.042000 4.672640 4.518500
v -0.042000 4.000640 4.392500
v -0.042000 4.672640 4.392500
v 0.042000 4.000640 4.518500
v 0.042000 4.672640 4.518500
v 0.042000 4.000640 4.392500
v 0.042000 4.672640 4.392500
v -1.388800 0.168000 4.245500
v -1.388800 2.497600 4.245500
v -1.388800 0.168000 4.161500
v -1.388800 2.497600 4.161500
v 1.388800 0.168000 4.245500
v 1.388800 2.497600 4.245500
v 1.388800 0.168000 4.161500
v 1.388800 2.497600 4.161500
v -1.276800 0.168000 4.287500
v -1.276800 2.385600 4.287500
v -1.276800 0.168000 4.203500
v -1.276800 2.385600 4.203500
v 1.276800 0.168000 4.287500
v 1.276800 2.385600 4.287500
v 1.276800 0.168000 4.203500
v 1.276800 2.385600 4.203500
v -1.298308 2.324753 4.329500
v -1.213379 2.373651 4.329500
v -1.298308 2.324753 4.245500
v -1.213379 2.373651 4.245500
v -0.063421 0.179949 4.329500
v 0.021508 0.228847 4.329500
v -0.063421 0.179949 4.245500
v 0.021508 0.228847 4.245500
v -1.213379 0.179949 4.329500
v -1.298308 0.228847 4.329500
v -1.213379 0.179949 4.245500
v -1.298308 0.228847 4.245500
v 0.021508 2.324753 4.329500
v -0.063421 2.373651 4.329500
v 0.021508 2.324753 4.245500
v -0.063421 2.373651 4.245500
v -1.278200 0.168000 4.329500
v -1.278200 2.385600 4.329500
v -1.278200 0.168000 4.245500
v -1.278200 2.385600 4.245500
v -1.180200 0.168000 4.329500
v -1.180200 2.385600 4.329500
v -1.180200 0.168000 4.245500
v -1.180200 2.385600 4.245500
v -0.021508 2.324753 4.329500
v 0.063421 2.373651 4.329500
v -0.021508 2.324753 4.245500
v 0.063421 2.373651 4.245500
v 1.213379 0.179949 4.329500
v 1.298308 0.228847 4.329500
v 1.213379 0.179949 4.245500
v 1.298308 0.228847 4.245500
v 0.063421 0.179949 4.329500
v -0.021508 0.228847 4.329500
v 0.063421 0.179949 4.245500
v -0.021508 0.228847 4.245500
v 1.298308 2.324753 4.329500
v 1.213379 2.373651 4.329500
v 1.298308 2.324753 4.245500
v 1.213379 2.373651 4.245500
v 1.180200 0.168000 4.329500
v 1.180200 2.385600 4.329500
v 1.180200 0.168000 4.245500
v 1.180200 2.385600 4.245500
v 1.278200 0.168000 4.329500
v 1.278200 2.385600 4.329500
v 1.278200 0.168000 4.245500
v 1.278200 2.385600 4.245500
v -0.042000 0.168000 4.329500
v -0.042000 2.385600 4.329500
v -0.042000 0.168000 4.245500
v -0.042000 2.385600 4.245500
v 0.042000 0.168000 4.329500
v 0.042000 2.385600 4.329500
v 0.042000 0.168000 4.245500
v 0.042000 2.385600 4.245500
v -1.276800 2.289000 4.329500
v -1.276800 2.387000 4.329500
v -1.276800 2.289000 4.245500
v -1.276800 2.387000 4.245500
v 1.276800 2.289000 4.329500
v 1.276800 2.387000 4.329500
v 1.276800 2.289000 4.245500
v 1.276800 2.387000 4.245500
v -1.276800 0.166600 4.329500
v -1.276800 0.264600 4.329500
v -1.276800 0.166600 4.245500
v -1.276800 0.264600 4.245500
v 1.276800 0.166600 4.329500
v 1.276800 0.264600 4.329500
v 1.276800 0.166600 4.245500
v 1.276800 0.264600 4.245500
v 3.360000 1.699600 2.859500
v 3.360000 2.455600 2.859500
v 3.360000 1.699600 2.103500
v 3.360000 2.455600 2.103500
v 3.430000 1.699600 2.859500
v 3.430000 2.455600 2.859500
v 3.430000 1.699600 2.103500
v 3.430000 2.455600 2.103500
v 3.395000 1.769600 2.789500
v 3.395000 2.385600 2.789500
v 3.395000 1.769600 2.173500
v 3.395000 2.385600 2.173500
v 3.465000 1.769600 2.789500
v 3.465000 2.385600 2.789500
v 3.465000 1.769600 2.173500
v 3.465000 2.385600 2.173500
v 3.381000 2.052400 2.789500
v 3.381000 2.102800 2.789500
v 3.381000 2.052400 2.173500
v 3.381000 2.102800 2.173500
v 3.493000 2.052400 2.789500
v 3.493000 2.102800 2.789500
v 3.493000 2.052400 2.173500
v 3.493000 2.102800 2.173500
v 3.381000 1.769600 2.506700
v 3.381000 2.385600 2.506700
v 3.381000 1.769600 2.456300
v 3.381000 2.385600 2.456300
v 3.493000 1.769600 2.506700
v 3.493000 2.385600 2.506700
v 3.493000 1.769600 2.456300
v 3.493000 2.385600 2.456300
v -3.430000 1.699600 2.859500
v -3.430000 2.455600 2.859500
v -3.430000 1.699600 2.103500
v -3.430000 2.455600 2.103500
v -3.360000 1.699600 2.859500
v -3.360000 2.455600 2.859500
v -3.360000 1.699600 2.103500
v -3.360000 2.455600 2.103500
v -3.465000 1.769600 2.789500
v -3.465000 2.385600 2.789500
v -3.465000 1.769600 2.173500
v -3.465000 2.385600 2.173500
v -3.395000 1.769600 2.789500
v -3.395000 2.385600 2.789500
v -3.395000 1.769600 2.173500
v -3.395000 2.385600 2.173500
v -3.493000 2.052400 2.789500
v -3.493000 2.102800 2.789500
v -3.493000 2.052400 2.173500
v -3.493000 2.102800 2.173500
v -3.381000 2.052400 2.789500
v -3.381000 2.102800 2.789500
v -3.381000 2.052400 2.173500
v -3.381000 2.102800 2.173500
v -3.493000 1.769600 2.506700
v -3.493000 2.385600 2.506700
v -3.493000 1.769600 2.456300
v -3.493000 2.385600 2.456300
v -3.381000 1.769600 2.506700
v -3.381000 2.385600 2.506700
v -3.381000 1.769600 2.456300
v -3.381000 2.385600 2.456300
v 3.360000 1.699600 0.339500
v 3.360000 2.455600 0.339500
v 3.360000 1.699600 -0.416500
v 3.360000 2.455600 -0.416500
v 3.430000 1.699600 0.339500
v 3.430000 2.455600 0.339500
v 3.430000 1.699600 -0.416500
v 3.430000 2.455600 -0.416500
v 3.395000 1.769600 0.269500
v 3.395000 2.385600 0.269500
v 3.395000 1.769600 -0.346500
v 3.395000 2.385600 -0.346500
v 3.465000 1.769600 0.269500
v 3.465000 2.385600 0.269500
v 3.465000 1.769600 -0.346500
v 3.465000 2.385600 -0.346500
v 3.381000 2.052400 0.269500
v 3.381000 2.102800 0.269500
v 3.381000 2.052400 -0.346500
v 3.381000 2.102800 -0.346500
v 3.493000 2.052400 0.269500
v 3.493000 2.102800 0.269500
v 3.493000 2.052400 -0.346500
v 3.493000 2.102800 -0.346500
v 3.381000 1.769600 -0.013300
v 3.381000 2.385600 -0.013300
v 3.381000 1.769600 -0.063700
v 3.381000 2.385600 -0.063700
v 3.493000 1.769600 -0.013300
v 3.493000 2.385600 -0.013300
v 3.493000 1.769600 -0.063700
v 3.493000 2.385600 -0.063700
v -3.430000 1.699600 0.339500
v -3.430000 2.455600 0.339500
v -3.430000 1.699600 -0.416500
v -3.430000 2.455600 -0.416500
v -3.360000 1.699600 0.339500
v -3.360000 2.455600 0.339500
v -3.360000 1.699600 -0.416500
v -3.360000 2.455600 -0.416500
v -3.465000 1.769600 0.269500
v -3.465000 2.385600 0.269500
v -3.465000 1.769600 -0.346500
v -3.465000 2.385600 -0.346500
v -3.395000 1.769600 0.269500
v -3.395000 2.385600 0.269500
v -3.395000 1.769600 -0.346500
v -3.395000 2.385600 -0.346500
v -3.493000 2.052400 0.269500
v -3.493000 2.102800 0.269500
v -3.493000 2.052400 -0.346500
v -3.493000 2.102800 -0.346500
v -3.381000 2.052400 0.269500
v -3.381000 2.102800 0.269500
v -3.381000 2.052400 -0.346500
v -3.381000 2.102800 -0.346500
v -3.493000 1.769600 -0.013300
v -3.493000 2.385600 -0.013300
v -3.493000 1.769600 -0.063700
v -3.493000 2.385600 -0.063700
v -3.381000 1.769600 -0.013300
v -3.381000 2.385600 -0.013300
v -3.381000 1.769600 -0.063700
v -3.381000 2.385600 -0.063700
v 3.360000 1.699600 -2.180500
v 3.360000 2.455600 -2.180500
v 3.360000 1.699600 -2.936500
v 3.360000 2.455600 -2.936500
v 3.430000 1.699600 -2.180500
v 3.430000 2.455600 -2.180500
v 3.430000 1.699600 -2.936500
v 3.430000 2.455600 -2.936500
v 3.395000 1.769600 -2.250500
v 3.395000 2.385600 -2.250500
v 3.395000 1.769600 -2.866500
v 3.395000 2.385600 -2.866500
v 3.465000 1.769600 -2.250500
v 3.465000 2.385600 -2.250500
v 3.465000 1.769600 -2.866500
v 3.465000 2.385600 -2.866500
v 3.381000 2.052400 -2.250500
v 3.381000 2.102800 -2.250500
v 3.381000 2.052400 -2.866500
v 3.381000 2.102800 -2.866500
v 3.493000 2.052400 -2.250500
v 3.493000 2.102800 -2.250500
v 3.493000 2.052400 -2.866500
v 3.493000 2.102800 -2.866500
v 3.381000 1.769600 -2.533300
v 3.381000 2.385600 -2.533300
v 3.381000 1.769600 -2.583700
v 3.381000 2.385600 -2.583700
v 3.493000 1.769600 -2.533300
v 3.493000 2.385600 -2.533300
v 3.493000 1.769600 -2.583700
v 3.493000 2.385600 -2.583700
v -3.430000 1.699600 -2.180500
v -3.430000 2.455600 -2.180500
v -3.430000 1.699600 -2.936500
v -3.430000 2.455600 -2.936500
v -3.360000 1.699600 -2.180500
v -3.360000 2.455600 -2.180500
v -3.360000 1.699600 -2.936500
v -3.360000 2.455600 -2.936500
v -3.465000 1.769600 -2.250500
v -3.465000 2.385600 -2.250500
v -3.465000 1.769600 -2.866500
v -3.465000 2.385600 -2.866500
v -3.395000 1.769600 -2.250500
v -3.395000 2.385600 -2.250500
v -3.395000 1.769600 -2.866500
v -3.395000 2.385600 -2.866500
v -3.493000 2.052400 -2.250500
v -3.493000 2.102800 -2.250500
v -3.493000 2.052400 -2.866500
v -3.493000 2.102800 -2.866500
v -3.381000 2.052400 -2.250500
v -3.381000 2.102800 -2.250500
v -3.381000 2.052400 -2.866500
v -3.381000 2.102800 -2.866500
v -3.493000 1.769600 -2.533300
v -3.493000 2.385600 -2.533300
v -3.493000 1.769600 -2.583700
v -3.493000 2.385600 -2.583700
v -3.381000 1.769600 -2.533300
v -3.381000 2.385600 -2.533300
v -3.381000 1.769600 -2.583700
v -3.381000 2.385600 -2.583700
v -2.797200 1.699600 4.231500
v -2.797200 2.455600 4.231500
v -2.797200 1.699600 4.161500
v -2.797200 2.455600 4.161500
v -2.041200 1.699600 4.231500
v -2.041200 2.455600 4.231500
v -2.041200 1.699600 4.161500
v -2.041200 2.455600 4.161500
v -2.727200 1.769600 4.266500
v -2.727200 2.385600 4.266500
v -2.727200 1.769600 4.196500
v -2.727200 2.385600 4.196500
v -2.111200 1.769600 4.266500
v -2.111200 2.385600 4.266500
v -2.111200 1.769600 4.196500
v -2.111200 2.385600 4.196500
v -2.727200 2.052400 4.294500
v -2.727200 2.102800 4.294500
v -2.727200 2.052400 4.182500
v -2.727200 2.102800 4.182500
v -2.111200 2.052400 4.294500
v -2.111200 2.102800 4.294500
v -2.111200 2.052400 4.182500
v -2.111200 2.102800 4.182500
v -2.444400 1.769600 4.294500
v -2.444400 2.385600 4.294500
v -2.444400 1.769600 4.182500
v -2.444400 2.385600 4.182500
v -2.394000 1.769600 4.294500
v -2.394000 2.385600 4.294500
v -2.394000 1.769600 4.182500
v -2.394000 2.385600 4.182500
v 2.041200 1.699600 4.231500
v 2.041200 2.455600 4.231500
v 2.041200 1.699600 4.161500
v 2.041200 2.455600 4.161500
v 2.797200 1.699600 4.231500
v 2.797200 2.455600 4.231500
v 2.797200 1.699600 4.161500
v 2.797200 2.455600 4.161500
v 2.111200 1.769600 4.266500
v 2.111200 2.385600 4.266500
v 2.111200 1.769600 4.196500
v 2.111200 2.385600 4.196500
v 2.727200 1.769600 4.266500
v 2.727200 2.385600 4.266500
v 2.727200 1.769600 4.196500
v 2.727200 2.385600 4.196500
v 2.111200 2.052400 4.294500
v 2.111200 2.102800 4.294500
v 2.111200 2.052400 4.182500
v 2.111200 2.102800 4.182500
v 2.727200 2.052400 4.294500
v 2.727200 2.102800 4.294500
v 2.727200 2.052400 4.182500
v 2.727200 2.102800 4.182500
v 2.394000 1.769600 4.294500
v 2.394000 2.385600 4.294500
v 2.394000 1.769600 4.182500
v 2.394000 2.385600 4.182500
v 2.444400 1.769600 4.294500
v 2.444400 2.385600 4.294500
v 2.444400 1.769600 4.182500
v 2.444400 2.385600 4.182500
vn -1.0000 -0.0000 -0.0000
vn -0.0000 -0.0000 -1.0000
vn 1.0000 -0.0000 -0.0000
vn -0.0000 -0.0000 1.0000
vn -0.0000 -1.0000 -0.0000
vn -0.0000 1.0000 -0.0000
vn -0.7789 0.6272 -0.0000
vn -0.3959 0.9183 -0.0000
vn 0.3959 0.9183 -0.0000
vn 0.7789 0.6272 -0.0000
vn -0.7617 0.6480 -0.0000
vn -0.3718 0.9283 -0.0000
vn 0.3718 0.9283 -0.0000
vn 0.7617 0.6480 -0.0000
vn -0.6480 -0.7617 -0.0000
vn 0.6480 0.7617 -0.0000
vn 0.7617 -0.6480 -0.0000
vn -0.9283 -0.3718 -0.0000
vn 0.9283 0.3718 -0.0000
vn 0.3718 -0.9283 -0.0000
vn -0.9283 0.3718 -0.0000
vn 0.9283 -0.3718 -0.0000
vn -0.3718 -0.9283 -0.0000
vn -0.6480 0.7617 -0.0000
vn 0.6480 -0.7617 -0.0000
vn -0.7617 -0.6480 -0.0000
vn -0.4990 0.8666 -0.0000
vn 0.4990 -0.8666 -0.0000
vn -0.8666 -0.4990 -0.0000
vn 0.8666 0.4990 -0.0000
vn -0.4990 -0.8666 -0.0000
vn 0.4990 0.8666 -0.0000
vn 0.8666 -0.4990 -0.0000
vn -0.8666 0.4990 -0.0000
s 0
usemtl EF_Path
f 1//1 2//1 4//1 3//1
f 3//2 4//2 8//2 7//2
f 7//3 8//3 6//3 5//3
f 5//4 6//4 2//4 1//4
f 3//5 7//5 5//5 1//5
f 8//6 4//6 2//6 6//6
usemtl EF_Roof
f 9//1 10//1 12//1 11//1
f 11//2 12//2 16//2 15//2
f 15//3 16//3 14//3 13//3
f 13//4 14//4 10//4 9//4
f 11//5 15//5 13//5 9//5
f 16//6 12//6 10//6 14//6
f 71//4 70//4 69//4 68//4 67//4
f 72//2 73//2 74//2 75//2 76//2
f 67//11 68//11 73//11 72//11
f 68//12 69//12 74//12 73//12
f 69//13 70//13 75//13 74//13
f 70//14 71//14 76//14 75//14
f 71//5 67//5 72//5 76//5
f 173//1 174//1 176//1 175//1
f 175//2 176//2 180//2 179//2
f 179//3 180//3 178//3 177//3
f 177//4 178//4 174//4 173//4
f 175//5 179//5 177//5 173//5
f 180//6 176//6 174//6 178//6
usemtl EF_White
f 17//1 18//1 20//1 19//1
f 19//2 20//2 24//2 23//2
f 23//3 24//3 22//3 21//3
f 21//4 22//4 18//4 17//4
f 19//5 23//5 21//5 17//5
f 24//6 20//6 18//6 22//6
f 25//1 26//1 28//1 27//1
f 27//2 28//2 32//2 31//2
f 31//3 32//3 30//3 29//3
f 29//4 30//4 26//4 25//4
f 27//5 31//5 29//5 25//5
f 32//6 28//6 26//6 30//6
f 33//1 34//1 36//1 35//1
f 35//2 36//2 40//2 39//2
f 39//3 40//3 38//3 37//3
f 37//4 38//4 34//4 33//4
f 35//5 39//5 37//5 33//5
f 40//6 36//6 34//6 38//6
f 41//1 42//1 44//1 43//1
f 43//2 44//2 48//2 47//2
f 47//3 48//3 46//3 45//3
f 45//4 46//4 42//4 41//4
f 43//5 47//5 45//5 41//5
f 48//6 44//6 42//6 46//6
f 49//1 50//1 52//1 51//1
f 51//2 52//2 56//2 55//2
f 55//3 56//3 54//3 53//3
f 53//4 54//4 50//4 49//4
f 51//5 55//5 53//5 49//5
f 56//6 52//6 50//6 54//6
f 77//15 78//15 80//15 79//15
f 79//2 80//2 84//2 83//2
f 83//16 84//16 82//16 81//16
f 81//4 82//4 78//4 77//4
f 79//17 83//17 81//17 77//17
f 84//11 80//11 78//11 82//11
f 85//18 86//18 88//18 87//18
f 87//2 88//2 92//2 91//2
f 91//19 92//19 90//19 89//19
f 89//4 90//4 86//4 85//4
f 87//20 91//20 89//20 85//20
f 92//12 88//12 86//12 90//12
f 93//21 94//21 96//21 95//21
f 95//2 96//2 100//2 99//2
f 99//22 100//22 98//22 97//22
f 97//4 98//4 94//4 93//4
f 95//23 99//23 97//23 93//23
f 100//13 96//13 94//13 98//13
f 101//24 102//24 104//24 103//24
f 103//2 104//2 108//2 107//2
f 107//25 108//25 106//25 105//25
f 105//4 106//4 102//4 101//4
f 103//26 107//26 105//26 101//26
f 108//14 104//14 102//14 106//14
f 109//15 110//15 112//15 111//15
f 111//2 112//2 116//2 115//2
f 115//16 116//16 114//16 113//16
f 113//4 114//4 110//4 109//4
f 111//17 115//17 113//17 109//17
f 116//11 112//11 110//11 114//11
f 117//18 118//18 120//18 119//18
f 119//2 120//2 124//2 123//2
f 123//19 124//19 122//19 121//19
f 121//4 122//4 118//4 117//4
f 119//20 123//20 121//20 117//20
f 124//12 120//12 118//12 122//12
f 125//21 126//21 128//21 127//21
f 127//2 128//2 132//2 131//2
f 131//22 132//22 130//22 129//22
f 129//4 130//4 126//4 125//4
f 127//23 131//23 129//23 125//23
f 132//13 128//13 126//13 130//13
f 133//24 134//24 136//24 135//24
f 135//2 136//2 140//2 139//2
f 139//25 140//25 138//25 137//25
f 137//4 138//4 134//4 133//4
f 135//26 139//26 137//26 133//26
f 140//14 136//14 134//14 138//14
f 141//1 142//1 144//1 143//1
f 143//2 144//2 148//2 147//2
f 147//3 148//3 146//3 145//3
f 145//4 146//4 142//4 141//4
f 143//5 147//5 145//5 141//5
f 148//6 144//6 142//6 146//6
f 157//1 158//1 160//1 159//1
f 159//2 160//2 164//2 163//2
f 163//3 164//3 162//3 161//3
f 161//4 162//4 158//4 157//4
f 159//5 163//5 161//5 157//5
f 164//6 160//6 158//6 162//6
f 165//1 166//1 168//1 167//1
f 167//2 168//2 172//2 171//2
f 171//3 172//3 170//3 169//3
f 169//4 170//4 166//4 165//4
f 167//5 171//5 169//5 165//5
f 172//6 168//6 166//6 170//6
f 181//27 182//27 184//27 183//27
f 183//2 184//2 188//2 187//2
f 187//28 188//28 186//28 185//28
f 185//4 186//4 182//4 181//4
f 183//29 187//29 185//29 181//29
f 188//30 184//30 182//30 186//30
f 189//31 190//31 192//31 191//31
f 191//2 192//2 196//2 195//2
f 195//32 196//32 194//32 193//32
f 193//4 194//4 190//4 189//4
f 191//33 195//33 193//33 189//33
f 196//34 192//34 190//34 194//34
f 197//1 198//1 200//1 199//1
f 199//2 200//2 204//2 203//2
f 203//3 204//3 202//3 201//3
f 201//4 202//4 198//4 197//4
f 199//5 203//5 201//5 197//5
f 204//6 200//6 198//6 202//6
f 205//27 206//27 208//27 207//27
f 207//2 208//2 212//2 211//2
f 211//28 212//28 210//28 209//28
f 209//4 210//4 206//4 205//4
f 207//29 211//29 209//29 205//29
f 212//30 208//30 206//30 210//30
f 213//31 214//31 216//31 215//31
f 215//2 216//2 220//2 219//2
f 219//32 220//32 218//32 217//32
f 217//4 218//4 214//4 213//4
f 215//33 219//33 217//33 213//33
f 220//34 216//34 214//34 218//34
f 221//1 222//1 224//1 223//1
f 223//2 224//2 228//2 227//2
f 227//3 228//3 226//3 225//3
f 225//4 226//4 222//4 221//4
f 223//5 227//5 225//5 221//5
f 228//6 224//6 222//6 226//6
f 229//1 230//1 232//1 231//1
f 231//2 232//2 236//2 235//2
f 235//3 236//3 234//3 233//3
f 233//4 234//4 230//4 229//4
f 231//5 235//5 233//5 229//5
f 236//6 232//6 230//6 234//6
f 237//1 238//1 240//1 239//1
f 239//2 240//2 244//2 243//2
f 243//3 244//3 242//3 241//3
f 241//4 242//4 238//4 237//4
f 239//5 243//5 241//5 237//5
f 244//6 240//6 238//6 242//6
f 245//1 246//1 248//1 247//1
f 247//2 248//2 252//2 251//2
f 251//3 252//3 250//3 249//3
f 249//4 250//4 246//4 245//4
f 247//5 251//5 249//5 245//5
f 252//6 248//6 246//6 250//6
f 253//1 254//1 256//1 255//1
f 255//2 256//2 260//2 259//2
f 259//3 260//3 258//3 257//3
f 257//4 258//4 254//4 253//4
f 255//5 259//5 257//5 253//5
f 260//6 256//6 254//6 258//6
f 269//1 270//1 272//1 271//1
f 271//2 272//2 276//2 275//2
f 275//3 276//3 274//3 273//3
f 273//4 274//4 270//4 269//4
f 271//5 275//5 273//5 269//5
f 276//6 272//6 270//6 274//6
f 277//1 278//1 280//1 279//1
f 279//2 280//2 284//2 283//2
f 283//3 284//3 282//3 281//3
f 281//4 282//4 278//4 277//4
f 279//5 283//5 281//5 277//5
f 284//6 280//6 278//6 282//6
f 285//1 286//1 288//1 287//1
f 287//2 288//2 292//2 291//2
f 291//3 292//3 290//3 289//3
f 289//4 290//4 286//4 285//4
f 287//5 291//5 289//5 285//5
f 292//6 288//6 286//6 290//6
f 301//1 302//1 304//1 303//1
f 303//2 304//2 308//2 307//2
f 307//3 308//3 306//3 305//3
f 305//4 306//4 302//4 301//4
f 303//5 307//5 305//5 301//5
f 308//6 304//6 302//6 306//6
f 309//1 310//1 312//1 311//1
f 311//2 312//2 316//2 315//2
f 315//3 316//3 314//3 313//3
f 313//4 314//4 310//4 309//4
f 311//5 315//5 313//5 309//5
f 316//6 312//6 310//6 314//6
f 317//1 318//1 320//1 319//1
f 319//2 320//2 324//2 323//2
f 323//3 324//3 322//3 321//3
f 321//4 322//4 318//4 317//4
f 319//5 323//5 321//5 317//5
f 324//6 320//6 318//6 322//6
f 333//1 334//1 336//1 335//1
f 335//2 336//2 340//2 339//2
f 339//3 340//3 338//3 337//3
f 337//4 338//4 334//4 333//4
f 335//5 339//5 337//5 333//5
f 340//6 336//6 334//6 338//6
f 341//1 342//1 344//1 343//1
f 343//2 344//2 348//2 347//2
f 347//3 348//3 346//3 345//3
f 345//4 346//4 342//4 341//4
f 343//5 347//5 345//5 341//5
f 348//6 344//6 342//6 346//6
f 349//1 350//1 352//1 351//1
f 351//2 352//2 356//2 355//2
f 355//3 356//3 354//3 353//3
f 353//4 354//4 350//4 349//4
f 351//5 355//5 353//5 349//5
f 356//6 352//6 350//6 354//6
f 365//1 366//1 368//1 367//1
f 367//2 368//2 372//2 371//2
f 371//3 372//3 370//3 369//3
f 369//4 370//4 366//4 365//4
f 367//5 371//5 369//5 365//5
f 372//6 368//6 366//6 370//6
f 373//1 374//1 376//1 375//1
f 375//2 376//2 380//2 379//2
f 379//3 380//3 378//3 377//3
f 377//4 378//4 374//4 373//4
f 375//5 379//5 377//5 373//5
f 380//6 376//6 374//6 378//6
f 381//1 382//1 384//1 383//1
f 383//2 384//2 388//2 387//2
f 387//3 388//3 386//3 385//3
f 385//4 386//4 382//4 381//4
f 383//5 387//5 385//5 381//5
f 388//6 384//6 382//6 386//6
f 397//1 398//1 400//1 399//1
f 399//2 400//2 404//2 403//2
f 403//3 404//3 402//3 401//3
f 401//4 402//4 398//4 397//4
f 399//5 403//5 401//5 397//5
f 404//6 400//6 398//6 402//6
f 405//1 406//1 408//1 407//1
f 407//2 408//2 412//2 411//2
f 411//3 412//3 410//3 409//3
f 409//4 410//4 406//4 405//4
f 407//5 411//5 409//5 405//5
f 412//6 408//6 406//6 410//6
f 413//1 414//1 416//1 415//1
f 415//2 416//2 420//2 419//2
f 419//3 420//3 418//3 417//3
f 417//4 418//4 414//4 413//4
f 415//5 419//5 417//5 413//5
f 420//6 416//6 414//6 418//6
f 429//1 430//1 432//1 431//1
f 431//2 432//2 436//2 435//2
f 435//3 436//3 434//3 433//3
f 433//4 434//4 430//4 429//4
f 431//5 435//5 433//5 429//5
f 436//6 432//6 430//6 434//6
f 437//1 438//1 440//1 439//1
f 439//2 440//2 444//2 443//2
f 443//3 444//3 442//3 441//3
f 441//4 442//4 438//4 437//4
f 439//5 443//5 441//5 437//5
f 444//6 440//6 438//6 442//6
f 445//1 446//1 448//1 447//1
f 447//2 448//2 452//2 451//2
f 451//3 452//3 450//3 449//3
f 449//4 450//4 446//4 445//4
f 447//5 451//5 449//5 445//5
f 452//6 448//6 446//6 450//6
f 461//1 462//1 464//1 463//1
f 463//2 464//2 468//2 467//2
f 467//3 468//3 466//3 465//3
f 465//4 466//4 462//4 461//4
f 463//5 467//5 465//5 461//5
f 468//6 464//6 462//6 466//6
f 469//1 470//1 472//1 471//1
f 471//2 472//2 476//2 475//2
f 475//3 476//3 474//3 473//3
f 473//4 474//4 470//4 469//4
f 471//5 475//5 473//5 469//5
f 476//6 472//6 470//6 474//6
f 477//1 478//1 480//1 479//1
f 479//2 480//2 484//2 483//2
f 483//3 484//3 482//3 481//3
f 481//4 482//4 478//4 477//4
f 479//5 483//5 481//5 477//5
f 484//6 480//6 478//6 482//6
f 493//1 494//1 496//1 495//1
f 495//2 496//2 500//2 499//2
f 499//3 500//3 498//3 497//3
f 497//4 498//4 494//4 493//4
f 495//5 499//5 497//5 493//5
f 500//6 496//6 494//6 498//6
f 501//1 502//1 504//1 503//1
f 503//2 504//2 508//2 507//2
f 507//3 508//3 506//3 505//3
f 505//4 506//4 502//4 501//4
f 503//5 507//5 505//5 501//5
f 508//6 504//6 502//6 506//6
usemtl EF_RoofDark
f 61//4 60//4 59//4 58//4 57//4
f 62//2 63//2 64//2 65//2 66//2
f 57//7 58//7 63//7 62//7
f 58//8 59//8 64//8 63//8
f 59//9 60//9 65//9 64//9
f 60//10 61//10 66//10 65//10
f 61//5 57//5 62//5 66//5
usemtl EF_WoodDark
f 149//1 150//1 152//1 151//1
f 151//2 152//2 156//2 155//2
f 155//3 156//3 154//3 153//3
f 153//4 154//4 150//4 149//4
f 151//5 155//5 153//5 149//5
f 156//6 152//6 150//6 154//6
usemtl EF_Glass
f 261//1 262//1 264//1 263//1
f 263//2 264//2 268//2 267//2
f 267//3 268//3 266//3 265//3
f 265//4 266//4 262//4 261//4
f 263//5 267//5 265//5 261//5
f 268//6 264//6 262//6 266//6
f 293//1 294//1 296//1 295//1
f 295//2 296//2 300//2 299//2
f 299//3 300//3 298//3 297//3
f 297//4 298//4 294//4 293//4
f 295//5 299//5 297//5 293//5
f 300//6 296//6 294//6 298//6
f 325//1 326//1 328//1 327//1
f 327//2 328//2 332//2 331//2
f 331//3 332//3 330//3 329//3
f 329//4 330//4 326//4 325//4
f 327//5 331//5 329//5 325//5
f 332//6 328//6 326//6 330//6
f 357//1 358//1 360//1 359//1
f 359//2 360//2 364//2 363//2
f 363//3 364//3 362//3 361//3
f 361//4 362//4 358//4 357//4
f 359//5 363//5 361//5 357//5
f 364//6 360//6 358//6 362//6
f 389//1 390//1 392//1 391//1
f 391//2 392//2 396//2 395//2
f 395//3 396//3 394//3 393//3
f 393//4 394//4 390//4 389//4
f 391//5 395//5 393//5 389//5
f 396//6 392//6 390//6 394//6
f 421//1 422//1 424//1 423//1
f 423//2 424//2 428//2 427//2
f 427//3 428//3 426//3 425//3
f 425//4 426//4 422//4 421//4
f 423//5 427//5 425//5 421//5
f 428//6 424//6 422//6 426//6
f 453//1 454//1 456//1 455//1
f 455//2 456//2 460//2 459//2
f 459//3 460//3 458//3 457//3
f 457//4 458//4 454//4 453//4
f 455//5 459//5 457//5 453//5
f 460//6 456//6 454//6 458//6
f 485//1 486//1 488//1 487//1
f 487//2 488//2 492//2 491//2
f 491//3 492//3 490//3 489//3
f 489//4 490//4 486//4 485//4
f 487//5 491//5 489//5 485//5
f 492//6 488//6 486//6 490//6
