# Blender 5.0.1
# www.blender.org
mtllib RoboPicker.mtl
o RoboPicker
v -0.301954 0.000000 0.344400
v -0.301954 0.196000 0.344400
v -0.301954 0.000000 -0.383600
v -0.301954 0.196000 -0.383600
v -0.105954 0.000000 0.344400
v -0.105954 0.196000 0.344400
v -0.105954 0.000000 -0.383600
v -0.105954 0.196000 -0.383600
v 0.230046 0.196000 0.344400
v 0.230046 0.000000 0.344400
v -0.307554 0.100800 0.159600
v -0.100354 0.100800 0.159600
v -0.307554 0.041551 0.178851
v -0.100354 0.041551 0.178851
v -0.307554 0.004934 0.229251
v -0.100354 0.004933 0.229251
v -0.307554 0.004934 0.291549
v -0.100354 0.004933 0.291549
v -0.307554 0.041551 0.341949
v -0.100354 0.041551 0.341949
v -0.307554 0.100800 0.361200
v -0.100354 0.100800 0.361200
v -0.307554 0.160049 0.341949
v -0.100354 0.160049 0.341949
v -0.307554 0.196667 0.291549
v -0.100354 0.196666 0.291549
v -0.307554 0.196667 0.229251
v -0.100354 0.196666 0.229251
v -0.307554 0.160049 0.178851
v -0.100354 0.160049 0.178851
v -0.307554 0.100800 -0.120400
v -0.100354 0.100800 -0.120400
v -0.307554 0.041551 -0.101149
v -0.100354 0.041551 -0.101149
v -0.307554 0.004934 -0.050749
v -0.100354 0.004933 -0.050749
v -0.307554 0.004934 0.011549
v -0.100354 0.004933 0.011549
v -0.307554 0.041551 0.061949
v -0.100354 0.041551 0.061949
v -0.307554 0.100800 0.081200
v -0.100354 0.100800 0.081200
v -0.307554 0.160049 0.061949
v -0.100354 0.160049 0.061949
v -0.307554 0.196667 0.011549
v -0.100354 0.196666 0.011549
v -0.307554 0.196667 -0.050749
v -0.100354 0.196666 -0.050749
v -0.307554 0.160049 -0.101149
v -0.100354 0.160049 -0.101149
v -0.307554 0.100800 -0.400400
v -0.100354 0.100800 -0.400400
v -0.307554 0.041551 -0.381149
v -0.100354 0.041551 -0.381149
v -0.307554 0.004934 -0.330749
v -0.100354 0.004933 -0.330749
v -0.307554 0.004934 -0.268451
v -0.100354 0.004933 -0.268451
v -0.307554 0.041551 -0.218051
v -0.100354 0.041551 -0.218051
v -0.307554 0.100800 -0.198800
v -0.100354 0.100800 -0.198800
v -0.307554 0.160049 -0.218051
v -0.100354 0.160049 -0.218051
v -0.307554 0.196667 -0.268451
v -0.100354 0.196666 -0.268451
v -0.307554 0.196667 -0.330749
v -0.100354 0.196666 -0.330749
v -0.307554 0.160049 -0.381149
v -0.100354 0.160049 -0.381149
v 0.230046 0.000000 -0.383600
v 0.230046 0.196000 -0.383600
v 0.426046 0.000000 0.344400
v 0.426046 0.196000 0.344400
v 0.426046 0.000000 -0.383600
v 0.426046 0.196000 -0.383600
v -0.133954 0.238000 0.260400
v -0.133954 0.126000 0.260400
v 0.224446 0.100800 0.159600
v 0.431646 0.100800 0.159600
v 0.224446 0.041551 0.178851
v 0.431646 0.041551 0.178851
v 0.224446 0.004934 0.229251
v 0.431646 0.004933 0.229251
v 0.224446 0.004934 0.291549
v 0.431646 0.004933 0.291549
v 0.224446 0.041551 0.341949
v 0.431646 0.041551 0.341949
v 0.224446 0.100800 0.361200
v 0.431646 0.100800 0.361200
v 0.224446 0.160049 0.341949
v 0.431646 0.160049 0.341949
v 0.224446 0.196667 0.291549
v 0.431646 0.196666 0.291549
v 0.224446 0.196667 0.229251
v 0.431646 0.196666 0.229251
v 0.224446 0.160049 0.178851
v 0.431646 0.160049 0.178851
v 0.224446 0.100800 -0.120400
v 0.431646 0.100800 -0.120400
v 0.224446 0.041551 -0.101149
v 0.431646 0.041551 -0.101149
v 0.224446 0.004934 -0.050749
v 0.431646 0.004933 -0.050749
v 0.224446 0.004934 0.011549
v 0.431646 0.004933 0.011549
v 0.224446 0.041551 0.061949
v 0.431646 0.041551 0.061949
v 0.224446 0.100800 0.081200
v 0.431646 0.100800 0.081200
v 0.224446 0.160049 0.061949
v 0.431646 0.160049 0.061949
v 0.224446 0.196667 0.011549
v 0.431646 0.196666 0.011549
v 0.224446 0.196667 -0.050749
v 0.431646 0.196666 -0.050749
v 0.224446 0.160049 -0.101149
v 0.431646 0.160049 -0.101149
v 0.224446 0.100800 -0.400400
v 0.431646 0.100800 -0.400400
v 0.224446 0.041551 -0.381149
v 0.431646 0.041551 -0.381149
v 0.224446 0.004934 -0.330749
v 0.431646 0.004933 -0.330749
v 0.224446 0.004934 -0.268451
v 0.431646 0.004933 -0.268451
v 0.224446 0.041551 -0.218051
v 0.431646 0.041551 -0.218051
v 0.224446 0.100800 -0.198800
v 0.431646 0.100800 -0.198800
v 0.224446 0.160049 -0.218051
v 0.431646 0.160049 -0.218051
v 0.224446 0.196667 -0.268451
v 0.431646 0.196666 -0.268451
v 0.224446 0.196667 -0.330749
v 0.431646 0.196666 -0.330749
v 0.224446 0.160049 -0.381149
v 0.431646 0.160049 -0.381149
v -0.133954 0.126000 -0.299600
v -0.133954 0.238000 -0.299600
v 0.258046 0.126000 0.260400
v 0.258046 0.238000 0.260400
v 0.258046 0.126000 -0.299600
v 0.258046 0.238000 -0.299600
v -0.245954 0.224000 0.232400
v -0.245954 0.672000 0.232400
v -0.245954 0.224000 -0.271600
v -0.245954 0.672000 -0.271600
v 0.370046 0.224000 0.232400
v 0.370046 0.672000 0.232400
v 0.370046 0.224000 -0.271600
v 0.370046 0.672000 -0.271600
v -0.259954 0.672000 0.246400
v -0.259954 0.742000 0.246400
v -0.259954 0.672000 -0.285600
v -0.259954 0.742000 -0.285600
v 0.384046 0.672000 0.246400
v 0.384046 0.742000 0.246400
v 0.384046 0.672000 -0.285600
v 0.384046 0.742000 -0.285600
v -0.105954 0.336000 0.252000
v -0.105954 0.532000 0.252000
v -0.105954 0.336000 0.224000
v -0.105954 0.532000 0.224000
v 0.230046 0.336000 0.252000
v 0.230046 0.532000 0.252000
v 0.230046 0.336000 0.224000
v 0.230046 0.532000 0.224000
v -0.161954 0.826000 0.162400
v -0.161954 1.106000 0.162400
v 0.062046 0.484400 0.240800
v 0.062046 0.484400 0.268800
v 0.091671 0.474774 0.240800
v 0.091671 0.474774 0.268800
v 0.109979 0.449574 0.240800
v 0.109979 0.449574 0.268800
v 0.109979 0.418426 0.240800
v 0.109979 0.418426 0.268800
v 0.091671 0.393226 0.240800
v 0.091671 0.393226 0.268800
v 0.062046 0.383600 0.240800
v 0.062046 0.383600 0.268800
v 0.032422 0.393226 0.240800
v 0.032422 0.393226 0.268800
v 0.014113 0.418426 0.240800
v 0.014113 0.418426 0.268800
v 0.014113 0.449574 0.240800
v 0.014113 0.449574 0.268800
v 0.032422 0.474774 0.240800
v 0.032422 0.474774 0.268800
v 0.062046 0.742000 -0.089600
v 0.062046 0.840000 -0.089600
v 0.111544 0.742000 -0.069097
v 0.111544 0.840000 -0.069097
v 0.132046 0.742000 -0.019600
v 0.132046 0.840000 -0.019600
v 0.111544 0.742000 0.029897
v 0.111544 0.840000 0.029897
v 0.062046 0.742000 0.050400
v 0.062046 0.840000 0.050400
v 0.012549 0.742000 0.029897
v 0.012549 0.840000 0.029897
v -0.007954 0.742000 -0.019600
v -0.007954 0.840000 -0.019600
v 0.012549 0.742000 -0.069097
v 0.012549 0.840000 -0.069097
v -0.161954 0.826000 -0.201600
v -0.161954 1.106000 -0.201600
v 0.286046 0.826000 0.162400
v 0.286046 1.106000 0.162400
v 0.286046 0.826000 -0.201600
v 0.286046 1.106000 -0.201600
v -0.112954 0.917000 0.179200
v -0.112954 1.043000 0.179200
v -0.112954 0.917000 0.151200
v -0.112954 1.043000 0.151200
v 0.237046 0.917000 0.179200
v 0.237046 1.043000 0.179200
v 0.237046 0.917000 0.151200
v 0.237046 1.043000 0.151200
v -0.055554 0.946400 0.190400
v -0.055554 1.013600 0.190400
v -0.055554 0.946400 0.173600
v -0.055554 1.013600 0.173600
v 0.011646 0.946400 0.190400
v 0.011646 1.013600 0.190400
v 0.011646 0.946400 0.173600
v 0.011646 1.013600 0.173600
v 0.112446 0.946400 0.190400
v 0.112446 1.013600 0.190400
v 0.112446 0.946400 0.173600
v 0.112446 1.013600 0.173600
v 0.179646 0.946400 0.190400
v 0.179646 1.013600 0.190400
v 0.179646 0.946400 0.173600
v 0.179646 1.013600 0.173600
v 0.062046 1.324373 -0.040600
v 0.062046 1.330000 -0.019600
v 0.062046 1.106000 -0.033600
v 0.062046 1.274000 -0.033600
v 0.074170 1.106000 -0.026600
v 0.074170 1.274000 -0.026600
v 0.074170 1.106000 -0.012600
v 0.074170 1.274000 -0.012600
v 0.062046 1.106000 -0.005600
v 0.062046 1.274000 -0.005600
v 0.049922 1.106000 -0.012600
v 0.049922 1.274000 -0.012600
v 0.049922 1.106000 -0.026600
v 0.049922 1.274000 -0.026600
v 0.062046 1.309000 -0.055973
v 0.062046 1.288000 -0.061600
v 0.062046 1.267000 -0.055973
v 0.062046 1.251627 -0.040600
v 0.062046 1.246000 -0.019600
v 0.076895 1.324373 -0.034449
v -0.286554 0.236008 -0.005165
v 0.087766 1.309000 -0.045320
v 0.091745 1.288000 -0.049298
v 0.087766 1.267000 -0.045320
v 0.076895 1.251627 -0.034449
v -0.384554 0.575992 0.077965
v 0.083046 1.324373 -0.019600
v -0.384554 0.285008 -0.090035
v 0.098419 1.309000 -0.019600
v 0.104046 1.288000 -0.019600
v 0.098419 1.267000 -0.019600
v 0.083046 1.251627 -0.019600
v -0.245954 0.609497 -0.069097
v 0.076895 1.324373 -0.004751
v -0.329954 0.609497 -0.069097
v 0.087766 1.309000 0.006120
v 0.091745 1.288000 0.010098
v 0.087766 1.267000 0.006120
v 0.076895 1.251627 -0.004751
v -0.245954 0.630000 -0.019600
v 0.062046 1.324373 0.001400
v -0.329954 0.630000 -0.019600
v 0.062046 1.309000 0.016773
v 0.062046 1.288000 0.022400
v 0.062046 1.267000 0.016773
v 0.062046 1.251627 0.001400
v -0.245954 0.609497 0.029897
v 0.047197 1.324373 -0.004751
v -0.329954 0.609497 0.029897
v 0.036326 1.309000 0.006120
v 0.032348 1.288000 0.010098
v 0.036326 1.267000 0.006120
v 0.047197 1.251627 -0.004751
v -0.245954 0.560000 0.050400
v 0.041046 1.324373 -0.019600
v -0.329954 0.560000 0.050400
v 0.025673 1.309000 -0.019600
v 0.020046 1.288000 -0.019600
v 0.025673 1.267000 -0.019600
v 0.041046 1.251627 -0.019600
v -0.245954 0.510503 0.029897
v 0.047197 1.324373 -0.034449
v -0.329954 0.510503 0.029897
v 0.036326 1.309000 -0.045320
v 0.032348 1.288000 -0.049298
v 0.036326 1.267000 -0.045320
v 0.047197 1.251627 -0.034449
v -0.245954 0.490000 -0.019600
v -0.329954 0.490000 -0.019600
v -0.245954 0.510503 -0.069097
v -0.329954 0.510503 -0.069097
v -0.245954 0.560000 -0.089600
v -0.329954 0.560000 -0.089600
v -0.384554 0.236008 -0.005165
v -0.384554 0.526992 0.162835
v -0.286554 0.526992 0.162835
v -0.286554 0.285008 -0.090035
v -0.286554 0.575992 0.077965
v 0.410646 0.236008 -0.005165
v 0.410646 0.526992 0.162835
v 0.370046 0.560000 -0.089600
v 0.454046 0.560000 -0.089600
v 0.370046 0.510503 -0.069097
v 0.454046 0.510503 -0.069097
v 0.370046 0.490000 -0.019600
v 0.454046 0.490000 -0.019600
v 0.370046 0.510503 0.029897
v 0.454046 0.510503 0.029897
v 0.370046 0.560000 0.050400
v 0.454046 0.560000 0.050400
v 0.370046 0.609497 0.029897
v 0.454046 0.609497 0.029897
v 0.370046 0.630000 -0.019600
v 0.454046 0.630000 -0.019600
v 0.370046 0.609497 -0.069097
v 0.454046 0.609497 -0.069097
v 0.410646 0.285008 -0.090035
v 0.410646 0.575992 0.077965
v 0.508646 0.236008 -0.005165
v 0.508646 0.526992 0.162835
v 0.508646 0.285008 -0.090035
v 0.508646 0.575992 0.077965
v -0.385954 0.431480 0.204400
v -0.385954 0.423190 0.180600
v -0.335554 0.210000 0.064400
v -0.335554 0.350000 0.036400
v -0.245035 0.210000 0.093811
v -0.228577 0.350000 0.071159
v -0.189091 0.210000 0.170811
v -0.162462 0.350000 0.162159
v -0.189091 0.210000 0.265989
v -0.162462 0.350000 0.274641
v -0.245035 0.210000 0.342989
v -0.228577 0.350000 0.365641
v -0.335554 0.210000 0.372400
v -0.335554 0.350000 0.400400
v -0.426073 0.210000 0.342989
v -0.442531 0.350000 0.365641
v -0.482017 0.210000 0.265989
v -0.508646 0.350000 0.274641
v -0.482017 0.210000 0.170811
v -0.508646 0.350000 0.162159
v -0.426073 0.210000 0.093811
v -0.442531 0.350000 0.071159
v -0.335554 0.336000 0.078400
v -0.335554 0.350000 0.078400
v -0.253264 0.336000 0.105138
v -0.253264 0.350000 0.105138
v -0.202406 0.336000 0.175138
v -0.202406 0.350000 0.175138
v -0.202406 0.336000 0.261662
v -0.202406 0.350000 0.261662
v -0.253264 0.336000 0.331662
v -0.253264 0.350000 0.331662
v -0.335554 0.336000 0.358400
v -0.335554 0.350000 0.358400
v -0.417844 0.336000 0.331662
v -0.417844 0.350000 0.331662
v -0.468702 0.336000 0.261662
v -0.468702 0.350000 0.261662
v -0.468702 0.336000 0.175138
v -0.468702 0.350000 0.175138
v -0.417844 0.336000 0.105138
v -0.417844 0.350000 0.105138
v -0.285154 0.307720 0.232400
v -0.385954 0.369600 0.156800
v -0.261354 0.316010 0.232400
v -0.385954 0.316010 0.180600
v -0.385954 0.307720 0.204400
v -0.243931 0.338660 0.232400
v -0.369125 0.423190 0.187571
v -0.356805 0.400540 0.175251
v -0.352296 0.369600 0.170742
v -0.356805 0.338660 0.175251
v -0.369125 0.316010 0.187571
v -0.237554 0.369600 0.232400
v -0.243931 0.400540 0.232400
v -0.362154 0.423190 0.204400
v -0.344731 0.400540 0.204400
v -0.338354 0.369600 0.204400
v -0.344731 0.338660 0.204400
v -0.362154 0.316010 0.204400
v -0.261354 0.423190 0.232400
v -0.285154 0.431480 0.232400
v -0.369125 0.423190 0.221229
v -0.356805 0.400540 0.233549
v -0.352296 0.369600 0.238058
v -0.356805 0.338660 0.233549
v -0.369125 0.316010 0.221229
v -0.335554 0.307720 0.168000
v -0.268325 0.423190 0.215571
v -0.385954 0.423190 0.228200
v -0.385954 0.400540 0.245623
v -0.385954 0.369600 0.252000
v -0.385954 0.338660 0.245623
v -0.385954 0.316010 0.228200
v -0.256005 0.400540 0.203251
v -0.251496 0.369600 0.198742
v -0.402783 0.423190 0.221229
v -0.415103 0.400540 0.233549
v -0.419612 0.369600 0.238058
v -0.415103 0.338660 0.233549
v -0.402783 0.316010 0.221229
v -0.256005 0.338660 0.203251
v -0.268325 0.316010 0.215571
v -0.409754 0.423190 0.204400
v -0.427177 0.400540 0.204400
v -0.433554 0.369600 0.204400
v -0.427177 0.338660 0.204400
v -0.409754 0.316010 0.204400
v -0.311754 0.316010 0.168000
v -0.294331 0.338660 0.168000
v -0.402783 0.423190 0.187571
v -0.415103 0.400540 0.175251
v -0.419612 0.369600 0.170742
v -0.415103 0.338660 0.175251
v -0.402783 0.316010 0.187571
v -0.285154 0.316010 0.208600
v -0.287954 0.369600 0.168000
v -0.285154 0.369600 0.184800
v -0.385954 0.400540 0.163177
v -0.294331 0.400540 0.168000
v -0.385954 0.338660 0.163177
v -0.285154 0.423190 0.208600
v -0.311754 0.423190 0.168000
v -0.335554 0.431480 0.168000
v -0.268325 0.316010 0.249229
v -0.256005 0.338660 0.261549
v -0.251496 0.369600 0.266058
v -0.256005 0.400540 0.261549
v -0.268325 0.423190 0.249229
v -0.318725 0.423190 0.151171
v -0.285154 0.316010 0.256200
v -0.285154 0.338660 0.273623
v -0.285154 0.369600 0.280000
v -0.285154 0.400540 0.273623
v -0.285154 0.423190 0.256200
v -0.306405 0.400540 0.138851
v -0.301896 0.369600 0.134342
v -0.301983 0.316010 0.249229
v -0.314303 0.338660 0.261549
v -0.318812 0.369600 0.266058
v -0.314303 0.400540 0.261549
v -0.301983 0.423190 0.249229
v -0.306405 0.338660 0.138851
v -0.318725 0.316010 0.151171
v -0.308954 0.316010 0.232400
v -0.326377 0.338660 0.232400
v -0.332754 0.369600 0.232400
v -0.326377 0.400540 0.232400
v -0.308954 0.423190 0.232400
v -0.301983 0.316010 0.215571
v -0.314303 0.338660 0.203251
v -0.318812 0.369600 0.198742
v -0.314303 0.400540 0.203251
v -0.301983 0.423190 0.215571
v -0.335554 0.316010 0.144200
v -0.335554 0.369600 0.120400
v -0.285154 0.338660 0.191177
v -0.285154 0.400540 0.191177
v -0.335554 0.423190 0.144200
v -0.318725 0.316010 0.184829
v -0.306405 0.338660 0.197149
v -0.301896 0.369600 0.201658
v -0.306405 0.400540 0.197149
v -0.318725 0.423190 0.184829
v -0.335554 0.316010 0.191800
v -0.335554 0.338660 0.209223
v -0.335554 0.369600 0.215600
v -0.335554 0.400540 0.209223
v -0.335554 0.423190 0.191800
v -0.352383 0.316010 0.184829
v -0.364703 0.338660 0.197149
v -0.369212 0.369600 0.201658
v -0.364703 0.400540 0.197149
v -0.352383 0.423190 0.184829
v -0.359354 0.316010 0.168000
v -0.376777 0.338660 0.168000
v -0.383154 0.369600 0.168000
v -0.376777 0.400540 0.168000
v -0.359354 0.423190 0.168000
v -0.352383 0.316010 0.151171
v -0.364703 0.338660 0.138851
v -0.369212 0.369600 0.134342
v -0.364703 0.400540 0.138851
v -0.352383 0.423190 0.151171
v -0.335554 0.338660 0.126777
v -0.335554 0.400540 0.126777
vn -1.0000 -0.0000 -0.0000
vn -0.0000 -0.0000 -1.0000
vn 1.0000 -0.0000 -0.0000
vn -0.0000 -0.0000 1.0000
vn -0.0000 -1.0000 -0.0000
vn -0.0000 1.0000 -0.0000
vn -0.0000 0.3090 0.9511
vn -0.0000 -0.3090 -0.9511
vn -0.0000 -0.8090 0.5878
vn -0.0000 -0.3090 0.9511
vn -0.0000 -0.8090 -0.5878
vn -0.0000 0.8090 0.5878
vn -0.0000 0.8090 -0.5878
vn -0.0000 0.3090 -0.9511
vn -0.9239 -0.0000 0.3827
vn 0.9239 -0.0000 0.3827
vn 0.3090 0.9511 -0.0000
vn 0.8090 0.5878 -0.0000
vn -0.3827 -0.0000 0.9239
vn 0.9239 -0.0000 -0.3827
vn 0.8090 -0.5878 -0.0000
vn 0.3090 -0.9511 -0.0000
vn -0.3090 -0.9511 -0.0000
vn 0.3827 -0.0000 0.9239
vn 0.3827 -0.0000 -0.9239
vn -0.8090 -0.5878 -0.0000
vn -0.8090 0.5878 -0.0000
vn -0.3090 0.9511 -0.0000
vn -0.9239 -0.0000 -0.3827
vn -0.3827 -0.0000 -0.9239
vn 0.2574 -0.9604 -0.1066
vn 0.2811 -0.6786 -0.6786
vn 0.5000 -0.0000 -0.8660
vn 0.6786 0.6786 -0.2811
vn 0.3715 -0.2403 -0.8968
vn 0.2574 0.9604 -0.1066
vn 0.1066 -0.9604 -0.2573
vn 0.5000 -0.0000 0.8660
vn 0.8968 -0.2403 -0.3715
vn 0.1066 0.9604 -0.2573
vn -0.5000 -0.0000 0.8660
vn 0.2811 0.6786 -0.6786
vn 0.6786 -0.6786 -0.2811
vn 0.3715 0.2403 -0.8968
vn -0.5000 -0.0000 -0.8660
vn 0.8968 0.2403 -0.3715
vn 0.2574 -0.9604 0.1066
vn 0.8968 -0.2403 0.3715
vn 0.6786 0.6786 0.2811
vn 0.6786 -0.6786 0.2811
vn 0.8968 0.2403 0.3715
vn 0.2574 0.9604 0.1066
vn 0.1066 -0.9604 0.2573
vn 0.3715 -0.2403 0.8968
vn 0.2811 0.6786 0.6786
vn 0.2811 -0.6786 0.6786
vn 0.3715 0.2403 0.8968
vn 0.1066 0.9604 0.2573
vn -0.1066 -0.9604 0.2573
vn -0.3715 -0.2403 0.8968
vn -0.2811 0.6786 0.6786
vn -0.2811 -0.6786 0.6786
vn -0.3715 0.2403 0.8968
vn -0.1066 0.9604 0.2573
vn -0.8968 -0.2403 0.3715
vn -0.6786 0.6786 0.2811
vn -0.6786 -0.6786 0.2811
vn -0.8968 0.2403 0.3715
vn -0.2574 0.9604 0.1066
vn -0.2574 -0.9604 0.1066
vn -0.6786 0.6786 -0.2811
vn -0.6786 -0.6786 -0.2811
vn -0.8968 0.2403 -0.3715
vn -0.2574 0.9604 -0.1066
vn -0.2574 -0.9604 -0.1066
vn -0.8968 -0.2403 -0.3715
vn -0.2811 -0.6786 -0.6786
vn -0.3715 0.2403 -0.8968
vn -0.1066 0.9604 -0.2573
vn -0.1066 -0.9604 -0.2573
vn -0.3715 -0.2403 -0.8968
vn -0.2811 0.6786 -0.6786
vn 0.7948 -0.1869 -0.5774
vn -0.3090 -0.0000 0.9511
vn -0.0000 -0.3827 -0.9239
vn -0.0000 -0.9239 0.3827
vn -0.0000 0.8660 0.5000
vn -0.0000 -0.9239 -0.3827
vn -0.0000 -0.8660 -0.5000
vn 0.7531 0.5793 0.3119
vn -0.0000 -0.5000 0.8660
vn -0.0000 -0.3827 0.9239
vn -0.0000 0.3827 0.9239
vn -0.0000 0.5000 -0.8660
vn -0.0000 0.9239 0.3827
vn -0.0000 0.9239 -0.3827
vn 0.3259 -0.9357 0.1350
vn -0.0000 0.3827 -0.9239
vn 0.7531 0.5793 -0.3119
vn 0.3259 0.9357 -0.1350
vn 0.3036 -0.1869 -0.9343
vn 0.9824 -0.1869 -0.0000
vn 0.3090 -0.0000 0.9511
vn 0.8090 -0.0000 -0.5878
vn 0.7948 -0.1869 0.5774
vn 0.1350 -0.9357 -0.3259
vn 0.3259 -0.9357 -0.1350
vn 0.3036 -0.1869 0.9343
vn 0.7531 -0.5793 0.3119
vn 0.3119 0.5793 0.7531
vn -0.3036 -0.1869 0.9343
vn 0.8090 -0.0000 0.5878
vn 0.3090 -0.0000 -0.9511
vn -0.7948 -0.1869 0.5774
vn 0.3119 0.5793 -0.7531
vn 0.9076 -0.1871 -0.3759
vn -0.9824 -0.1869 -0.0000
vn 0.9076 0.1871 0.3759
vn -0.7948 -0.1869 -0.5774
vn 0.3759 0.1871 -0.9076
vn 0.9076 -0.1871 0.3759
vn -0.3036 -0.1869 -0.9343
vn 0.3759 -0.1871 -0.9076
vn -0.8090 -0.0000 0.5878
vn 0.9076 0.1871 -0.3759
vn 0.1350 0.9357 -0.3259
vn 0.3119 -0.5793 -0.7531
vn -0.8090 -0.0000 -0.5878
vn 0.3259 0.9357 0.1350
vn 0.7531 -0.5793 -0.3119
vn -0.3090 -0.0000 -0.9511
vn 0.3119 -0.5793 0.7531
vn 0.3759 -0.1871 0.9076
vn 0.1350 0.9357 0.3259
vn 0.3759 0.1871 0.9076
vn 0.1350 -0.9357 0.3259
vn -0.3119 0.5793 0.7531
vn -0.3119 -0.5793 0.7531
vn -0.3759 -0.1871 0.9076
vn -0.1350 0.9357 0.3259
vn -0.3759 0.1871 0.9076
vn -0.1350 -0.9357 0.3259
vn -0.7531 -0.5793 0.3119
vn -0.9076 -0.1871 0.3759
vn -0.3259 0.9357 0.1350
vn -0.9076 0.1871 0.3759
vn -0.3259 -0.9357 0.1350
vn -0.7531 0.5793 0.3119
vn -0.9076 -0.1871 -0.3759
vn -0.3259 0.9357 -0.1350
vn -0.9076 0.1871 -0.3759
vn -0.3259 -0.9357 -0.1350
vn -0.7531 0.5793 -0.3119
vn -0.7531 -0.5793 -0.3119
vn -0.1350 0.9357 -0.3259
vn -0.3759 0.1871 -0.9076
vn -0.1350 -0.9357 -0.3259
vn -0.3119 0.5793 -0.7531
vn -0.3119 -0.5793 -0.7531
vn -0.3759 -0.1871 -0.9076
s 0
usemtl EF_GreyDark
f 1//1 2//1 4//1 3//1
f 3//2 4//2 8//2 7//2
f 7//3 8//3 6//3 5//3
f 5//4 6//4 2//4 1//4
f 3//5 7//5 5//5 1//5
f 8//6 4//6 2//6 6//6
f 71//5 75//5 73//5 10//5
f 76//6 72//6 9//6 74//6
f 73//4 74//4 9//4 10//4
f 75//3 76//3 74//3 73//3
f 71//2 72//2 76//2 75//2
f 10//1 9//1 72//1 71//1
f 139//5 143//5 141//5 78//5
f 144//6 140//6 77//6 142//6
f 141//4 142//4 77//4 78//4
f 143//3 144//3 142//3 141//3
f 139//2 140//2 144//2 143//2
f 78//1 77//1 140//1 139//1
f 201//15 202//15 204//15 203//15
f 195//16 196//16 198//16 197//16
f 198//6 196//6 194//6 192//6 206//6 204//6 202//6 200//6
f 199//19 200//19 202//19 201//19
f 193//20 194//20 196//20 195//20
f 197//24 198//24 200//24 199//24
f 191//25 192//25 194//25 193//25
f 203//29 204//29 206//29 205//29
f 205//30 206//30 192//30 191//30
f 203//5 205//5 191//5 193//5 195//5 197//5 199//5 201//5
f 239//33 240//33 242//33 241//33
f 241//3 242//3 244//3 243//3
f 243//38 244//38 246//38 245//38
f 245//41 246//41 248//41 247//41
f 242//6 240//6 250//6 248//6 246//6 244//6
f 247//1 248//1 250//1 249//1
f 249//45 250//45 240//45 239//45
f 239//5 241//5 243//5 245//5 247//5 249//5
f 309//85 308//85 306//85 307//85
f 321//86 322//86 324//86 323//86
f 307//88 306//88 304//88 305//88
f 319//88 320//88 322//88 321//88
f 305//86 304//86 297//86 299//86
f 299//92 297//92 290//92 292//92
f 292//93 290//93 283//93 285//93
f 317//85 318//85 320//85 319//85
f 285//95 283//95 276//95 278//95
f 306//3 308//3 269//3 276//3 283//3 290//3 297//3 304//3
f 278//96 276//96 269//96 271//96
f 271//98 269//98 308//98 309//98
f 309//1 307//1 305//1 299//1 292//1 285//1 278//1 271//1
f 323//92 324//92 326//92 325//92
f 325//93 326//93 328//93 327//93
f 327//95 328//95 330//95 329//95
f 317//1 319//1 321//1 323//1 325//1 327//1 329//1 331//1
f 329//96 330//96 332//96 331//96
f 331//98 332//98 318//98 317//98
f 324//3 322//3 320//3 318//3 332//3 330//3 328//3 326//3
usemtl EF_Black
f 41//7 42//7 44//7 43//7
f 35//5 36//5 38//5 37//5
f 11//8 12//8 14//8 13//8
f 57//9 58//9 60//9 59//9
f 107//10 108//10 110//10 109//10
f 13//11 14//11 16//11 15//11
f 15//5 16//5 18//5 17//5
f 39//10 40//10 42//10 41//10
f 33//11 34//11 36//11 35//11
f 17//9 18//9 20//9 19//9
f 103//5 104//5 106//5 105//5
f 109//7 110//7 112//7 111//7
f 19//10 20//10 22//10 21//10
f 81//11 82//11 84//11 83//11
f 21//7 22//7 24//7 23//7
f 37//9 38//9 40//9 39//9
f 31//8 32//8 34//8 33//8
f 23//12 24//12 26//12 25//12
f 53//11 54//11 56//11 55//11
f 55//5 56//5 58//5 57//5
f 25//6 26//6 28//6 27//6
f 14//3 12//3 30//3 28//3 26//3 24//3 22//3 20//3 18//3 16//3
f 61//7 62//7 64//7 63//7
f 27//13 28//13 30//13 29//13
f 59//10 60//10 62//10 61//10
f 29//14 30//14 12//14 11//14
f 11//1 13//1 15//1 17//1 19//1 21//1 23//1 25//1 27//1 29//1
f 51//8 52//8 54//8 53//8
f 43//12 44//12 46//12 45//12
f 79//8 80//8 82//8 81//8
f 45//6 46//6 48//6 47//6
f 38//3 36//3 34//3 32//3 50//3 48//3 46//3 44//3 42//3 40//3
f 85//9 86//9 88//9 87//9
f 47//13 48//13 50//13 49//13
f 83//5 84//5 86//5 85//5
f 49//14 50//14 32//14 31//14
f 43//1 45//1 47//1 49//1 31//1 33//1 35//1 37//1 39//1 41//1
f 63//12 64//12 66//12 65//12
f 65//6 66//6 68//6 67//6
f 56//3 54//3 52//3 70//3 68//3 66//3 64//3 62//3 60//3 58//3
f 67//13 68//13 70//13 69//13
f 101//11 102//11 104//11 103//11
f 125//9 126//9 128//9 127//9
f 69//14 70//14 52//14 51//14
f 55//1 57//1 59//1 61//1 63//1 65//1 67//1 69//1 51//1 53//1
f 87//10 88//10 90//10 89//10
f 89//7 90//7 92//7 91//7
f 105//9 106//9 108//9 107//9
f 99//8 100//8 102//8 101//8
f 91//12 92//12 94//12 93//12
f 121//11 122//11 124//11 123//11
f 123//5 124//5 126//5 125//5
f 93//6 94//6 96//6 95//6
f 86//3 84//3 82//3 80//3 98//3 96//3 94//3 92//3 90//3 88//3
f 129//7 130//7 132//7 131//7
f 95//13 96//13 98//13 97//13
f 127//10 128//10 130//10 129//10
f 97//14 98//14 80//14 79//14
f 85//1 87//1 89//1 91//1 93//1 95//1 97//1 79//1 81//1 83//1
f 119//8 120//8 122//8 121//8
f 111//12 112//12 114//12 113//12
f 113//6 114//6 116//6 115//6
f 110//3 108//3 106//3 104//3 102//3 100//3 118//3 116//3 114//3 112//3
f 115//13 116//13 118//13 117//13
f 117//14 118//14 100//14 99//14
f 103//1 105//1 107//1 109//1 111//1 113//1 115//1 117//1 99//1 101//1
f 131//12 132//12 134//12 133//12
f 133//6 134//6 136//6 135//6
f 124//3 122//3 120//3 138//3 136//3 134//3 132//3 130//3 128//3 126//3
f 135//13 136//13 138//13 137//13
f 137//14 138//14 120//14 119//14
f 129//1 131//1 133//1 135//1 137//1 119//1 121//1 123//1 125//1 127//1
f 219//3 220//3 218//3 217//3
f 220//6 216//6 214//6 218//6
f 217//4 218//4 214//4 213//4
f 213//1 214//1 216//1 215//1
f 215//5 219//5 217//5 213//5
f 215//2 216//2 220//2 219//2
usemtl EF_Metal
f 147//2 148//2 152//2 151//2
f 145//1 146//1 148//1 147//1
f 152//6 148//6 146//6 150//6
f 151//3 152//3 150//3 149//3
f 147//5 151//5 149//5 145//5
f 149//4 150//4 146//4 145//4
f 207//5 211//5 209//5 169//5
f 211//3 212//3 210//3 209//3
f 212//6 208//6 170//6 210//6
f 209//4 210//4 170//4 169//4
f 207//2 208//2 212//2 211//2
f 169//1 170//1 208//1 207//1
f 314//87 262//87 311//87 312//87
f 264//89 313//89 257//89 310//89
f 257//91 312//91 311//91 310//91
f 313//3 314//3 312//3 257//3
f 264//94 262//94 314//94 313//94
f 310//1 311//1 262//1 264//1
f 333//89 337//89 335//89 315//89
f 335//91 336//91 316//91 315//91
f 337//3 338//3 336//3 335//3
f 333//94 334//94 338//94 337//94
f 315//1 316//1 334//1 333//1
f 338//87 334//87 316//87 336//87
usemtl EF_Accent
f 153//1 154//1 156//1 155//1
f 155//2 156//2 160//2 159//2
f 157//4 158//4 154//4 153//4
f 161//1 162//1 164//1 163//1
f 160//6 156//6 154//6 158//6
f 159//3 160//3 158//3 157//3
f 155//5 159//5 157//5 153//5
f 163//2 164//2 168//2 167//2
f 167//3 168//3 166//3 165//3
f 165//4 166//4 162//4 161//4
f 163//5 167//5 165//5 161//5
f 168//6 164//6 162//6 166//6
f 255//31 261//31 268//31
f 254//32 253//32 260//32 261//32
f 258//34 256//34 263//34 265//34
f 253//35 252//35 259//35 260//35
f 256//36 238//36 263//36
f 255//37 254//37 261//37
f 260//39 259//39 266//39 267//39
f 237//40 238//40 256//40
f 251//42 237//42 256//42 258//42
f 261//43 260//43 267//43 268//43
f 252//44 251//44 258//44 259//44
f 259//46 258//46 265//46 266//46
f 255//47 268//47 275//47
f 267//48 266//48 273//48 274//48
f 265//49 263//49 270//49 272//49
f 268//50 267//50 274//50 275//50
f 266//51 265//51 272//51 273//51
f 263//52 238//52 270//52
f 255//53 275//53 282//53
f 274//54 273//54 280//54 281//54
f 272//55 270//55 277//55 279//55
f 275//56 274//56 281//56 282//56
f 273//57 272//57 279//57 280//57
f 270//58 238//58 277//58
f 255//59 282//59 289//59
f 281//60 280//60 287//60 288//60
f 279//61 277//61 284//61 286//61
f 282//62 281//62 288//62 289//62
f 280//63 279//63 286//63 287//63
f 277//64 238//64 284//64
f 288//65 287//65 294//65 295//65
f 286//66 284//66 291//66 293//66
f 289//67 288//67 295//67 296//67
f 287//68 286//68 293//68 294//68
f 284//69 238//69 291//69
f 255//70 289//70 296//70
f 293//71 291//71 298//71 300//71
f 296//72 295//72 302//72 303//72
f 294//73 293//73 300//73 301//73
f 291//74 238//74 298//74
f 255//75 296//75 303//75
f 295//76 294//76 301//76 302//76
f 303//77 302//77 253//77 254//77
f 301//78 300//78 251//78 252//78
f 298//79 238//79 237//79
f 255//80 303//80 254//80
f 302//81 301//81 252//81 253//81
f 300//82 298//82 237//82 251//82
usemtl EF_Comb
f 171//17 172//17 174//17 173//17
f 173//18 174//18 176//18 175//18
f 175//3 176//3 178//3 177//3
f 177//21 178//21 180//21 179//21
f 179//22 180//22 182//22 181//22
f 181//23 182//23 184//23 183//23
f 183//26 184//26 186//26 185//26
f 185//1 186//1 188//1 187//1
f 174//4 172//4 190//4 188//4 186//4 184//4 182//4 180//4 178//4 176//4
f 187//27 188//27 190//27 189//27
f 189//28 190//28 172//28 171//28
f 171//2 173//2 175//2 177//2 179//2 181//2 183//2 185//2 187//2 189//2
usemtl EF_RoboEye
f 227//3 228//3 226//3 225//3
f 223//2 224//2 228//2 227//2
f 221//1 222//1 224//1 223//1
f 225//4 226//4 222//4 221//4
f 223//5 227//5 225//5 221//5
f 228//6 224//6 222//6 226//6
f 229//1 230//1 232//1 231//1
f 231//2 232//2 236//2 235//2
f 235//3 236//3 234//3 233//3
f 233//4 234//4 230//4 229//4
f 231//5 235//5 233//5 229//5
f 236//6 232//6 230//6 234//6
usemtl EF_Straw
f 343//83 344//83 346//83 345//83
f 341//101 342//101 344//101 343//101
f 345//102 346//102 348//102 347//102
f 347//105 348//105 350//105 349//105
f 349//108 350//108 352//108 351//108
f 351//111 352//111 354//111 353//111
f 353//114 354//114 356//114 355//114
f 355//117 356//117 358//117 357//117
f 344//6 342//6 360//6 358//6 356//6 354//6 352//6 350//6 348//6 346//6
f 357//119 358//119 360//119 359//119
f 359//122 360//122 342//122 341//122
f 341//5 343//5 345//5 347//5 349//5 351//5 353//5 355//5 357//5 359//5
usemtl EF_Cream
f 371//84 372//84 374//84 373//84
f 365//3 366//3 368//3 367//3
f 369//103 370//103 372//103 371//103
f 363//104 364//104 366//104 365//104
f 367//112 368//112 370//112 369//112
f 361//113 362//113 364//113 363//113
f 373//124 374//124 376//124 375//124
f 375//1 376//1 378//1 377//1
f 368//6 366//6 364//6 362//6 380//6 378//6 376//6 374//6 372//6 370//6
f 377//128 378//128 380//128 379//128
f 379//131 380//131 362//131 361//131
f 371//5 373//5 375//5 377//5 379//5 361//5 363//5 365//5 367//5 369//5
usemtl EF_White
f 395//90 394//90 401//90 402//90
f 385//97 398//97 405//97
f 388//99 387//99 394//99 395//99
f 387//100 339//100 394//100
f 385//106 384//106 391//106
f 385//107 391//107 398//107
f 398//109 397//109 404//109 405//109
f 402//110 401//110 408//110 409//110
f 437//115 340//115 387//115 388//115
f 390//116 389//116 396//116 397//116
f 396//118 395//118 402//118 403//118
f 382//120 437//120 388//120 389//120
f 397//121 396//121 403//121 404//121
f 439//123 382//123 389//123 390//123
f 389//125 388//125 395//125 396//125
f 340//126 339//126 387//126
f 384//127 439//127 390//127 391//127
f 394//129 339//129 401//129
f 391//130 390//130 397//130 398//130
f 405//132 404//132 411//132 412//132
f 404//133 403//133 410//133 411//133
f 401//134 339//134 408//134
f 403//135 402//135 409//135 410//135
f 385//136 405//136 412//136
f 409//137 408//137 415//137 416//137
f 412//138 411//138 418//138 419//138
f 411//139 410//139 417//139 418//139
f 408//140 339//140 415//140
f 410//141 409//141 416//141 417//141
f 385//142 412//142 419//142
f 419//143 418//143 425//143 426//143
f 418//144 417//144 424//144 425//144
f 415//145 339//145 422//145
f 417//146 416//146 423//146 424//146
f 385//147 419//147 426//147
f 416//148 415//148 422//148 423//148
f 425//149 424//149 431//149 432//149
f 422//150 339//150 429//150
f 424//151 423//151 430//151 431//151
f 385//152 426//152 433//152
f 423//153 422//153 429//153 430//153
f 426//154 425//154 432//154 433//154
f 429//155 339//155 340//155
f 431//156 430//156 437//156 382//156
f 385//157 433//157 384//157
f 430//158 429//158 340//158 437//158
f 433//159 432//159 439//159 384//159
f 432//160 431//160 382//160 439//160
f 436//120 476//120 413//120 414//120
f 434//127 475//127 420//127 421//127
f 440//126 400//126 407//126
f 475//123 436//123 414//123 420//123
f 381//106 434//106 421//106
f 476//115 440//115 407//115 413//115
f 381//107 421//107 383//107
f 420//116 414//116 392//116 386//116
f 413//99 407//99 399//99 393//99
f 407//100 400//100 399//100
f 421//130 420//130 386//130 383//130
f 414//125 413//125 393//125 392//125
f 399//129 400//129 447//129
f 383//109 386//109 444//109 443//109
f 392//118 393//118 446//118 445//118
f 393//90 399//90 447//90 446//90
f 386//121 392//121 445//121 444//121
f 381//97 383//97 443//97
f 447//134 400//134 453//134
f 381//136 443//136 449//136
f 446//110 447//110 453//110 452//110
f 443//132 444//132 450//132 449//132
f 444//133 445//133 451//133 450//133
f 445//135 446//135 452//135 451//135
f 381//142 449//142 456//142
f 450//139 451//139 458//139 457//139
f 452//137 453//137 460//137 459//137
f 449//138 450//138 457//138 456//138
f 451//141 452//141 459//141 458//141
f 453//140 400//140 460//140
f 457//144 458//144 465//144 464//144
f 459//148 460//148 467//148 466//148
f 456//143 457//143 464//143 463//143
f 458//146 459//146 466//146 465//146
f 460//145 400//145 467//145
f 381//147 456//147 463//147
f 466//153 467//153 472//153 471//153
f 463//154 464//154 469//154 468//154
f 465//151 466//151 471//151 470//151
f 467//150 400//150 472//150
f 381//152 463//152 468//152
f 464//149 465//149 470//149 469//149
f 468//159 469//159 475//159 434//159
f 470//156 471//156 476//156 436//156
f 472//155 400//155 440//155
f 381//157 468//157 434//157
f 469//160 470//160 436//160 475//160
f 471//158 472//158 440//158 476//158
f 503//123 474//123 455//123 461//123
f 473//127 503//127 461//127 462//127
f 504//115 477//115 448//115 454//115
f 406//106 473//106 462//106
f 477//126 442//126 448//126
f 474//120 504//120 454//120 455//120
f 406//107 462//107 427//107
f 461//116 455//116 435//116 428//116
f 454//99 448//99 441//99 438//99
f 462//130 461//130 428//130 427//130
f 455//125 454//125 438//125 435//125
f 448//100 442//100 441//100
f 441//129 442//129 482//129
f 438//90 441//90 482//90 481//90
f 427//109 428//109 479//109 478//109
f 428//121 435//121 480//121 479//121
f 406//97 427//97 478//97
f 435//118 438//118 481//118 480//118
f 481//110 482//110 487//110 486//110
f 478//132 479//132 484//132 483//132
f 480//135 481//135 486//135 485//135
f 482//134 442//134 487//134
f 479//133 480//133 485//133 484//133
f 406//136 478//136 483//136
f 406//142 483//142 488//142
f 484//139 485//139 490//139 489//139
f 486//137 487//137 492//137 491//137
f 483//138 484//138 489//138 488//138
f 485//141 486//141 491//141 490//141
f 487//140 442//140 492//140
f 489//144 490//144 495//144 494//144
f 491//148 492//148 497//148 496//148
f 488//143 489//143 494//143 493//143
f 490//146 491//146 496//146 495//146
f 492//145 442//145 497//145
f 406//147 488//147 493//147
f 496//153 497//153 502//153 501//153
f 493//154 494//154 499//154 498//154
f 495//151 496//151 501//151 500//151
f 497//150 442//150 502//150
f 406//152 493//152 498//152
f 494//149 495//149 500//149 499//149
f 498//159 499//159 503//159 473//159
f 500//156 501//156 504//156 474//156
f 502//155 442//155 477//155
f 406//157 498//157 473//157
f 499//160 500//160 474//160 503//160
f 501//158 502//158 477//158 504//158
