# Blender 5.0.1
# www.blender.org
mtllib Rock.mtl
o Rock
v -0.102977 0.000000 0.037850
v 0.287986 0.069870 0.266819
v -0.198458 0.119351 0.392111
v -0.536609 0.092393 0.009955
v -0.222821 0.148940 -0.357157
v 0.259594 0.064678 -0.217036
v 0.011759 0.359414 0.363790
v -0.427674 0.387752 0.265738
v -0.479349 0.439013 -0.256875
v 0.035969 0.384704 -0.304629
v 0.402115 0.433146 0.047613
v -0.071683 0.523389 0.046781
v -0.215062 0.000000 0.211904
v 0.094976 0.000000 0.128824
v 0.066789 0.091205 0.355303
v 0.353762 0.048472 -0.030291
v 0.092370 0.000000 -0.163262
v -0.389125 0.029174 -0.010189
v -0.437894 0.066210 0.217374
v -0.162737 0.032050 -0.196927
v -0.423391 0.134795 -0.185967
v 0.069743 0.093754 -0.363798
v 0.378227 0.232695 0.170968
v 0.392373 0.269000 -0.115617
v -0.129290 0.222361 0.467048
v 0.232880 0.247585 0.334390
v -0.554852 0.226205 0.112383
v -0.359538 0.249389 0.297619
v -0.432306 0.277920 -0.328878
v -0.567978 0.272310 -0.082845
v 0.261216 0.271686 -0.318357
v -0.070389 0.284450 -0.467048
v 0.237483 0.444645 0.257112
v -0.218242 0.449791 0.303796
v -0.566997 0.390588 0.035293
v -0.236405 0.463280 -0.343816
v 0.304301 0.447633 -0.245094
v -0.037293 0.508964 0.238094
v 0.179940 0.479992 0.012839
v -0.271824 0.511418 0.154776
v -0.335394 0.528940 -0.125613
v 0.019271 0.531810 -0.208904
v 0.347476 0.000000 0.144767
v 0.544441 0.027733 0.296927
v 0.325726 0.049821 0.353655
v 0.135177 0.018892 0.152147
v 0.282889 0.028816 0.030811
v 0.530683 0.041596 0.070239
v 0.406155 0.209653 0.350913
v 0.168123 0.175247 0.266968
v 0.201597 0.192836 0.076662
v 0.427651 0.204600 -0.004454
v 0.567978 0.175352 0.148140
v 0.367347 0.244405 0.190696
vn -0.0000 -1.0000 -0.0000
vn 0.2569 -0.9582 0.1259
vn -0.0915 -0.9941 -0.0589
vn -0.0817 -0.9901 -0.1144
vn -0.1100 -0.9882 -0.1069
vn 0.9023 -0.3669 0.2262
vn 0.0456 -0.6075 0.7930
vn -0.8502 -0.3881 0.3556
vn -0.4741 -0.6367 -0.6081
vn 0.5299 -0.3762 -0.7600
vn 0.7461 -0.0217 0.6655
vn -0.5969 -0.1696 0.7842
vn -0.9872 -0.1570 0.0293
vn -0.3297 -0.3426 -0.8797
vn 0.8082 -0.2640 -0.5264
vn 0.1029 0.6596 0.7446
vn -0.3280 0.8255 0.4593
vn -0.5202 0.8539 -0.0145
vn 0.2716 0.5464 -0.7923
vn 0.2095 0.9776 -0.0216
vn 0.1818 0.9785 0.0969
vn 0.2852 0.9583 0.0173
vn 0.0563 0.5490 -0.8339
vn -0.0004 0.9995 0.0328
vn -0.0831 0.9432 -0.3216
vn -0.2232 0.9008 -0.3723
vn -0.0232 0.9974 0.0676
vn -0.4266 0.8915 0.1524
vn -0.4605 0.8394 0.2887
vn -0.0174 0.9968 0.0783
vn -0.1402 0.8962 0.4210
vn 0.0601 0.6537 0.7543
vn 0.1754 0.9836 0.0426
vn 0.2212 0.9712 0.0884
vn 0.1909 0.9769 0.0964
vn 0.9241 0.2404 -0.2969
vn 0.8396 0.0205 -0.5429
vn 0.1221 0.3559 -0.9265
vn 0.2971 0.7133 -0.6348
vn -0.3456 0.2934 -0.8913
vn -0.3479 0.2960 -0.8896
vn -0.9385 0.2479 -0.2404
vn -0.9973 -0.0475 0.0558
vn -0.8412 0.1774 0.5108
vn -0.2116 0.1193 0.9700
vn -0.5286 0.3488 0.7739
vn 0.0203 0.5882 0.8084
vn 0.2923 0.3432 0.8926
vn 0.7373 0.2317 0.6346
vn 0.7643 0.2694 0.5858
vn 0.3135 0.7025 -0.6389
vn 0.3949 -0.1958 -0.8976
vn -0.1207 -0.5398 -0.8331
vn -0.8746 -0.0394 -0.4832
vn -0.7640 -0.4791 -0.4322
vn -0.7531 -0.4005 -0.5219
vn -0.6688 -0.1622 0.7255
vn -0.6864 -0.0248 0.7268
vn -0.5692 -0.1133 0.8144
vn 0.2989 0.3586 0.8843
vn 0.3483 -0.2491 0.9037
vn 0.3405 -0.2401 0.9091
vn 0.9947 -0.0958 0.0370
vn 0.9864 -0.1618 0.0282
vn 0.8346 -0.3197 -0.4486
vn 0.2005 -0.8786 -0.4334
vn -0.0589 -0.9068 -0.4173
vn -0.1679 -0.8253 -0.5391
vn -0.3412 -0.8157 -0.4671
vn -0.3463 -0.8324 -0.4327
vn -0.4060 -0.8161 -0.4112
vn -0.3853 -0.9203 0.0672
vn -0.2814 -0.9549 0.0951
vn -0.2249 -0.8027 0.5523
vn 0.2874 -0.9308 -0.2257
vn 0.1831 -0.9831 -0.0016
vn -0.0117 -0.8332 0.5529
vn 0.1025 -0.9182 0.3825
vn 0.0628 -0.9230 0.3795
vn -0.0391 -0.9729 0.2280
vn 0.1931 -0.9786 -0.0716
vn -0.0787 -0.9715 0.2235
vn -0.0936 -0.9765 -0.1939
vn 0.0959 -0.9507 -0.2948
vn 0.9709 -0.2283 -0.0729
vn 0.2398 -0.1041 0.9652
vn -0.6514 -0.3551 0.6705
vn -0.6280 -0.0954 -0.7723
vn 0.1649 -0.3228 -0.9320
vn 0.7453 0.4106 0.5253
vn -0.3510 0.1923 0.9164
vn -0.9437 0.3004 -0.1382
vn -0.3406 0.0928 -0.9356
vn 0.7413 0.1712 -0.6489
vn 0.3455 0.9309 0.1182
vn -0.2269 0.9389 0.2586
vn -0.3169 0.9479 0.0319
vn -0.1355 0.9618 -0.2380
vn 0.3050 0.9472 -0.0989
s 0
usemtl EF_Rock
f 1//1 14//1 13//1
f 2//2 14//2 16//2
f 1//3 13//3 18//3
f 1//4 18//4 20//4
f 1//5 20//5 17//5
f 2//6 16//6 23//6
f 3//7 15//7 25//7
f 4//8 19//8 27//8
f 5//9 21//9 29//9
f 6//10 22//10 31//10
f 2//11 23//11 26//11
f 3//12 25//12 28//12
f 4//13 27//13 30//13
f 5//14 29//14 32//14
f 6//15 31//15 24//15
f 7//16 33//16 38//16
f 8//17 34//17 40//17
f 9//18 35//18 41//18
f 10//19 36//19 42//19
f 11//20 37//20 39//20
f 39//21 42//21 12//21
f 39//22 37//22 42//22
f 37//23 10//23 42//23
f 42//24 41//24 12//24
f 42//25 36//25 41//25
f 36//26 9//26 41//26
f 41//27 40//27 12//27
f 41//28 35//28 40//28
f 35//29 8//29 40//29
f 40//30 38//30 12//30
f 40//31 34//31 38//31
f 34//32 7//32 38//32
f 38//33 39//33 12//33
f 38//34 33//34 39//34
f 33//35 11//35 39//35
f 24//36 37//36 11//36
f 24//37 31//37 37//37
f 31//38 10//38 37//38
f 32//39 36//39 10//39
f 32//40 29//40 36//40
f 29//41 9//41 36//41
f 30//42 35//42 9//42
f 30//43 27//43 35//43
f 27//44 8//44 35//44
f 28//45 34//45 8//45
f 28//46 25//46 34//46
f 25//47 7//47 34//47
f 26//48 33//48 7//48
f 26//49 23//49 33//49
f 23//50 11//50 33//50
f 31//51 32//51 10//51
f 31//52 22//52 32//52
f 22//53 5//53 32//53
f 29//54 30//54 9//54
f 29//55 21//55 30//55
f 21//56 4//56 30//56
f 27//57 28//57 8//57
f 27//58 19//58 28//58
f 19//59 3//59 28//59
f 25//60 26//60 7//60
f 25//61 15//61 26//61
f 15//62 2//62 26//62
f 23//63 24//63 11//63
f 23//64 16//64 24//64
f 16//65 6//65 24//65
f 17//66 22//66 6//66
f 17//67 20//67 22//67
f 20//68 5//68 22//68
f 20//69 21//69 5//69
f 20//70 18//70 21//70
f 18//71 4//71 21//71
f 18//72 19//72 4//72
f 18//73 13//73 19//73
f 13//74 3//74 19//74
f 16//75 17//75 6//75
f 16//76 14//76 17//76
f 14//1 1//1 17//1
f 13//77 15//77 3//77
f 13//78 14//78 15//78
f 14//79 2//79 15//79
usemtl EF_RockDark
f 43//80 44//80 45//80
f 44//81 43//81 48//81
f 43//82 45//82 46//82
f 43//83 46//83 47//83
f 43//84 47//84 48//84
f 44//85 48//85 53//85
f 45//86 44//86 49//86
f 46//87 45//87 50//87
f 47//88 46//88 51//88
f 48//89 47//89 52//89
f 44//90 53//90 49//90
f 45//91 49//91 50//91
f 46//92 50//92 51//92
f 47//93 51//93 52//93
f 48//94 52//94 53//94
f 49//95 53//95 54//95
f 50//96 49//96 54//96
f 51//97 50//97 54//97
f 52//98 51//98 54//98
f 53//99 52//99 54//99
