# Blender 5.0.1
# www.blender.org
mtllib Signboard.mtl
o Signboard
v 1.022000 0.000000 -0.004200
v 1.022000 1.680000 -0.004200
v 1.022000 0.000000 0.135800
v 1.022000 1.680000 0.135800
v 0.882000 0.000000 -0.004200
v 0.882000 1.680000 -0.004200
v 0.882000 0.000000 0.135800
v 0.882000 1.680000 0.135800
v -0.882000 0.000000 -0.004200
v -0.882000 1.680000 -0.004200
v -0.882000 0.000000 0.135800
v -0.882000 1.680000 0.135800
v -1.022000 0.000000 -0.004200
v -1.022000 1.680000 -0.004200
v -1.022000 0.000000 0.135800
v -1.022000 1.680000 0.135800
v 1.064000 0.728000 -0.074200
v 1.064000 1.624000 -0.074200
v 1.064000 0.728000 0.037800
v 1.064000 1.624000 0.037800
v -1.064000 0.728000 -0.074200
v -1.064000 1.624000 -0.074200
v -1.064000 0.728000 0.037800
v -1.064000 1.624000 0.037800
v 0.980000 0.812000 -0.091000
v 0.980000 1.540000 -0.091000
v 0.980000 0.812000 0.026600
v 0.980000 1.540000 0.026600
v -0.980000 0.812000 -0.091000
v -0.980000 1.540000 -0.091000
v -0.980000 0.812000 0.026600
v -0.980000 1.540000 0.026600
v 1.176000 1.624000 -0.158200
v -1.176000 1.624000 -0.158200
v 0.000000 1.904000 -0.158200
v 1.176000 1.624000 0.177800
v -1.176000 1.624000 0.177800
v -0.000000 1.904000 0.177800
v 0.616000 1.440600 -0.102200
v 0.616000 1.405150 -0.064400
v -0.042000 1.050000 -0.119000
v 0.616000 1.176000 -0.026600
v -0.294000 1.358000 -0.085400
v 0.616000 0.946850 -0.064400
v 0.616000 0.911400 -0.102200
v -0.294000 1.274000 -0.085400
v 0.556751 1.405150 -0.071619
v 0.513378 1.308300 -0.049232
v 0.497503 1.176000 -0.041038
v 0.513378 1.043700 -0.049232
v 0.556751 0.946850 -0.071619
v -0.294000 1.358000 -0.119000
v -0.294000 1.274000 -0.119000
v 0.520134 1.405150 -0.090519
v 0.449954 1.308300 -0.081968
v 0.424267 1.176000 -0.078838
v 0.449954 1.043700 -0.081968
v 0.520134 0.946850 -0.090519
v -0.042000 1.358000 -0.085400
v -0.042000 1.274000 -0.085400
v 0.520134 1.405150 -0.113881
v 0.449954 1.308300 -0.122432
v 0.424267 1.176000 -0.125562
v 0.449954 1.043700 -0.122432
v 0.520134 0.946850 -0.113881
v -0.042000 1.358000 -0.119000
v -0.042000 1.274000 -0.119000
v 0.556751 1.405150 -0.132781
v 0.513378 1.308300 -0.155168
v 0.497503 1.176000 -0.163362
v 0.513378 1.043700 -0.155168
v 0.556751 0.946850 -0.132781
v 0.084000 1.134000 -0.085400
v 0.084000 1.050000 -0.085400
v 0.616000 1.405150 -0.140000
v 0.616000 1.308300 -0.167671
v 0.616000 1.176000 -0.177800
v 0.616000 1.043700 -0.167671
v 0.616000 0.946850 -0.140000
v 0.084000 1.134000 -0.119000
v 0.084000 1.050000 -0.119000
v 0.675249 1.405150 -0.132781
v 0.718622 1.308300 -0.155168
v 0.734498 1.176000 -0.163362
v 0.718622 1.043700 -0.155168
v 0.675249 0.946850 -0.132781
v 0.252000 1.134000 -0.085400
v 0.252000 1.050000 -0.085400
v 0.711866 1.405150 -0.113881
v 0.782046 1.308300 -0.122432
v 0.807733 1.176000 -0.125562
v 0.782046 1.043700 -0.122432
v 0.711866 0.946850 -0.113881
v 0.252000 1.134000 -0.119000
v 0.252000 1.050000 -0.119000
v 0.711866 1.405150 -0.090519
v 0.782046 1.308300 -0.081968
v 0.807733 1.176000 -0.078838
v 0.782046 1.043700 -0.081968
v 0.711866 0.946850 -0.090519
v 0.042000 1.358000 -0.085400
v 0.042000 1.274000 -0.085400
v 0.675249 1.405150 -0.071619
v 0.718622 1.308300 -0.049232
v 0.734498 1.176000 -0.041038
v 0.718622 1.043700 -0.049232
v 0.675249 0.946850 -0.071619
v 0.042000 1.358000 -0.119000
v 0.042000 1.274000 -0.119000
v 0.294000 1.358000 -0.085400
v 0.616000 1.308300 -0.036728
v 0.294000 1.274000 -0.085400
v 0.616000 1.043700 -0.036728
v 0.294000 1.358000 -0.119000
v 0.294000 1.274000 -0.119000
v -0.042000 1.134000 -0.119000
v -0.042000 1.050000 -0.085400
v -0.042000 1.134000 -0.085400
v -0.294000 1.050000 -0.119000
v -0.294000 1.134000 -0.119000
v -0.294000 1.050000 -0.085400
v -0.294000 1.134000 -0.085400
v -0.378000 1.274000 -0.119000
v -0.378000 1.358000 -0.119000
v -0.378000 1.274000 -0.085400
v -0.378000 1.358000 -0.085400
v -0.630000 1.274000 -0.119000
v -0.630000 1.358000 -0.119000
v -0.630000 1.274000 -0.085400
v -0.630000 1.358000 -0.085400
v -0.420000 1.050000 -0.119000
v -0.420000 1.134000 -0.119000
v -0.420000 1.050000 -0.085400
v -0.420000 1.134000 -0.085400
v -0.588000 1.050000 -0.119000
v -0.588000 1.134000 -0.119000
v -0.588000 1.050000 -0.085400
v -0.588000 1.134000 -0.085400
v -0.714000 1.274000 -0.119000
v -0.714000 1.358000 -0.119000
v -0.714000 1.274000 -0.085400
v -0.714000 1.358000 -0.085400
v -0.966000 1.274000 -0.119000
v -0.966000 1.358000 -0.119000
v -0.966000 1.274000 -0.085400
v -0.966000 1.358000 -0.085400
v -0.714000 1.050000 -0.119000
v -0.714000 1.134000 -0.119000
v -0.714000 1.050000 -0.085400
v -0.714000 1.134000 -0.085400
v -0.966000 1.050000 -0.119000
v -0.966000 1.134000 -0.119000
v -0.966000 1.050000 -0.085400
v -0.966000 1.134000 -0.085400
vn 1.0000 -0.0000 -0.0000
vn -0.0000 -0.0000 1.0000
vn -1.0000 -0.0000 -0.0000
vn -0.0000 -0.0000 -1.0000
vn -0.0000 -1.0000 -0.0000
vn -0.0000 1.0000 -0.0000
vn -0.2316 0.9728 -0.0000
vn 0.2316 0.9728 -0.0000
vn -0.1164 -0.2729 0.9550
vn -0.1206 0.0758 0.9898
vn -0.0831 0.7269 0.6817
vn -0.0831 -0.7269 0.6817
vn -0.1206 -0.0758 0.9898
vn -0.1164 0.2729 0.9550
vn -0.2506 0.8376 0.4855
vn -0.2506 -0.8376 0.4855
vn -0.4559 -0.1094 0.8833
vn -0.4243 0.3800 0.8220
vn -0.4242 -0.3800 0.8220
vn -0.4559 0.1094 0.8833
vn -0.3468 -0.9379 -0.0000
vn -0.9817 -0.1906 -0.0000
vn -0.8098 0.5868 -0.0000
vn -0.8098 -0.5868 -0.0000
vn -0.9817 0.1906 -0.0000
vn -0.3468 0.9379 -0.0000
vn -0.2506 -0.8376 -0.4855
vn -0.4559 -0.1094 -0.8833
vn -0.4242 0.3800 -0.8220
vn -0.4242 -0.3800 -0.8220
vn -0.4559 0.1094 -0.8833
vn -0.2506 0.8376 -0.4855
vn -0.0831 -0.7269 -0.6817
vn -0.1206 -0.0758 -0.9898
vn -0.1164 0.2729 -0.9550
vn -0.1164 -0.2729 -0.9550
vn -0.1206 0.0758 -0.9898
vn -0.0831 0.7269 -0.6817
vn 0.1206 -0.0758 -0.9898
vn 0.1164 0.2729 -0.9550
vn 0.1164 -0.2729 -0.9550
vn 0.1206 0.0758 -0.9898
vn 0.0831 0.7269 -0.6817
vn 0.0831 -0.7269 -0.6817
vn 0.4242 0.3800 -0.8220
vn 0.4242 -0.3800 -0.8220
vn 0.4559 0.1094 -0.8833
vn 0.2506 0.8376 -0.4855
vn 0.2506 -0.8376 -0.4855
vn 0.4559 -0.1094 -0.8833
vn 0.8098 -0.5868 -0.0000
vn 0.9817 0.1906 -0.0000
vn 0.3468 0.9379 -0.0000
vn 0.3468 -0.9379 -0.0000
vn 0.9817 -0.1906 -0.0000
vn 0.8098 0.5868 -0.0000
vn 0.4242 -0.3800 0.8220
vn 0.4559 0.1094 0.8833
vn 0.2506 0.8376 0.4855
vn 0.2506 -0.8376 0.4855
vn 0.4559 -0.1094 0.8833
vn 0.4242 0.3800 0.8220
vn 0.1164 -0.2729 0.9550
vn 0.1206 0.0758 0.9898
vn 0.0831 0.7269 0.6817
vn 0.0831 -0.7269 0.6817
vn 0.1206 -0.0758 0.9898
vn 0.1164 0.2729 0.9550
s 0
usemtl EF_WoodDark
f 1//1 2//1 4//1 3//1
f 3//2 4//2 8//2 7//2
f 7//3 8//3 6//3 5//3
f 5//4 6//4 2//4 1//4
f 3//5 7//5 5//5 1//5
f 8//6 4//6 2//6 6//6
f 9//1 10//1 12//1 11//1
f 11//2 12//2 16//2 15//2
f 15//3 16//3 14//3 13//3
f 13//4 14//4 10//4 9//4
f 11//5 15//5 13//5 9//5
f 16//6 12//6 10//6 14//6
f 95//1 94//1 87//1 88//1
f 88//2 87//2 73//2 74//2
f 74//3 73//3 80//3 81//3
f 81//4 80//4 94//4 95//4
f 88//5 74//5 81//5 95//5
f 73//6 87//6 94//6 80//6
f 41//1 116//1 118//1 117//1
f 117//2 118//2 122//2 121//2
f 121//3 122//3 120//3 119//3
f 119//4 120//4 116//4 41//4
f 117//5 121//5 119//5 41//5
f 122//6 118//6 116//6 120//6
f 131//1 132//1 134//1 133//1
f 133//2 134//2 138//2 137//2
f 137//3 138//3 136//3 135//3
f 135//4 136//4 132//4 131//4
f 133//5 137//5 135//5 131//5
f 138//6 134//6 132//6 136//6
f 147//1 148//1 150//1 149//1
f 149//2 150//2 154//2 153//2
f 153//3 154//3 152//3 151//3
f 151//4 152//4 148//4 147//4
f 149//5 153//5 151//5 147//5
f 154//6 150//6 148//6 152//6
usemtl EF_Wood
f 17//1 18//1 20//1 19//1
f 19//2 20//2 24//2 23//2
f 23//3 24//3 22//3 21//3
f 21//4 22//4 18//4 17//4
f 19//5 23//5 21//5 17//5
f 24//6 20//6 18//6 22//6
usemtl EF_Cream
f 25//1 26//1 28//1 27//1
f 27//2 28//2 32//2 31//2
f 31//3 32//3 30//3 29//3
f 29//4 30//4 26//4 25//4
f 27//5 31//5 29//5 25//5
f 32//6 28//6 26//6 30//6
usemtl EF_Roof
f 35//4 33//4 34//4
f 36//2 38//2 37//2
f 33//5 36//5 37//5 34//5
f 34//7 37//7 38//7 35//7
f 35//8 38//8 36//8 33//8
f 115//1 114//1 110//1 112//1
f 112//2 110//2 101//2 102//2
f 102//3 101//3 108//3 109//3
f 109//4 108//4 114//4 115//4
f 112//5 102//5 109//5 115//5
f 101//6 110//6 114//6 108//6
f 67//1 66//1 59//1 60//1
f 60//2 59//2 43//2 46//2
f 46//3 43//3 52//3 53//3
f 53//4 52//4 66//4 67//4
f 60//5 46//5 53//5 67//5
f 43//6 59//6 66//6 52//6
f 123//1 124//1 126//1 125//1
f 125//2 126//2 130//2 129//2
f 129//3 130//3 128//3 127//3
f 127//4 128//4 124//4 123//4
f 125//5 129//5 127//5 123//5
f 130//6 126//6 124//6 128//6
f 139//1 140//1 142//1 141//1
f 141//2 142//2 146//2 145//2
f 145//3 146//3 144//3 143//3
f 143//4 144//4 140//4 139//4
f 141//5 145//5 143//5 139//5
f 146//6 142//6 140//6 144//6
usemtl EF_Accent
f 44//9 113//9 50//9 51//9
f 42//10 111//10 48//10 49//10
f 40//11 39//11 47//11
f 45//12 44//12 51//12
f 113//13 42//13 49//13 50//13
f 111//14 40//14 47//14 48//14
f 47//15 39//15 54//15
f 45//16 51//16 58//16
f 50//17 49//17 56//17 57//17
f 48//18 47//18 54//18 55//18
f 51//19 50//19 57//19 58//19
f 49//20 48//20 55//20 56//20
f 45//21 58//21 65//21
f 57//22 56//22 63//22 64//22
f 55//23 54//23 61//23 62//23
f 58//24 57//24 64//24 65//24
f 56//25 55//25 62//25 63//25
f 54//26 39//26 61//26
f 45//27 65//27 72//27
f 64//28 63//28 70//28 71//28
f 62//29 61//29 68//29 69//29
f 65//30 64//30 71//30 72//30
f 63//31 62//31 69//31 70//31
f 61//32 39//32 68//32
f 45//33 72//33 79//33
f 71//34 70//34 77//34 78//34
f 69//35 68//35 75//35 76//35
f 72//36 71//36 78//36 79//36
f 70//37 69//37 76//37 77//37
f 68//38 39//38 75//38
f 78//39 77//39 84//39 85//39
f 76//40 75//40 82//40 83//40
f 79//41 78//41 85//41 86//41
f 77//42 76//42 83//42 84//42
f 75//43 39//43 82//43
f 45//44 79//44 86//44
f 83//45 82//45 89//45 90//45
f 86//46 85//46 92//46 93//46
f 84//47 83//47 90//47 91//47
f 82//48 39//48 89//48
f 45//49 86//49 93//49
f 85//50 84//50 91//50 92//50
f 93//51 92//51 99//51 100//51
f 91//52 90//52 97//52 98//52
f 89//53 39//53 96//53
f 45//54 93//54 100//54
f 92//55 91//55 98//55 99//55
f 90//56 89//56 96//56 97//56
f 100//57 99//57 106//57 107//57
f 98//58 97//58 104//58 105//58
f 96//59 39//59 103//59
f 45//60 100//60 107//60
f 99//61 98//61 105//61 106//61
f 97//62 96//62 103//62 104//62
f 107//63 106//63 113//63 44//63
f 105//64 104//64 111//64 42//64
f 103//65 39//65 40//65
f 45//66 107//66 44//66
f 106//67 105//67 42//67 113//67
f 104//68 103//68 40//68 111//68
