# Blender 5.0.1
# www.blender.org
mtllib Silo.mtl
o Silo
v -0.389486 7.760200 0.000000
v -0.221486 3.883600 1.559600
v -0.389486 0.000000 -1.568000
v -0.389486 0.224000 -1.568000
v 0.095053 0.000000 -1.491257
v 0.095053 0.224000 -1.491257
v 0.532162 0.000000 -1.268539
v 0.532162 0.224000 -1.268539
v 0.879053 0.000000 -0.921647
v 0.879053 0.224000 -0.921647
v 1.101771 0.000000 -0.484539
v 1.101771 0.224000 -0.484539
v 1.178514 0.000000 0.000000
v 1.178514 0.224000 0.000000
v 1.101771 0.000000 0.484539
v 1.101771 0.224000 0.484539
v 0.879053 0.000000 0.921647
v 0.879053 0.224000 0.921647
v 0.532162 0.000000 1.268539
v 0.532162 0.224000 1.268539
v 0.095053 0.000000 1.491257
v 0.095053 0.224000 1.491257
v -0.389486 0.000000 1.568000
v -0.389486 0.224000 1.568000
v -0.874024 0.000000 1.491257
v -0.874024 0.224000 1.491257
v -1.311133 0.000000 1.268539
v -1.311133 0.224000 1.268539
v -1.658024 0.000000 0.921647
v -1.658024 0.224000 0.921647
v -1.880742 0.000000 0.484539
v -1.880742 0.224000 0.484539
v -1.957486 0.000000 0.000000
v -1.957486 0.224000 0.000000
v -1.880742 0.000000 -0.484539
v -1.880742 0.224000 -0.484539
v -1.658024 0.000000 -0.921647
v -1.658024 0.224000 -0.921647
v -1.311133 0.000000 -1.268539
v -1.311133 0.224000 -1.268539
v -0.874024 0.000000 -1.491257
v -0.874024 0.224000 -1.491257
v -0.389486 0.224000 -1.400000
v -0.389486 6.944000 -1.400000
v 0.043138 0.224000 -1.331479
v 0.043138 6.944000 -1.331479
v 0.433414 0.224000 -1.132624
v 0.433414 6.944000 -1.132624
v 0.743138 0.224000 -0.822899
v 0.743138 6.944000 -0.822899
v 0.941994 0.224000 -0.432624
v 0.941994 6.944000 -0.432624
v 1.010514 0.224000 0.000000
v 1.010514 6.944000 0.000000
v 0.941994 0.224000 0.432624
v 0.941994 6.944000 0.432624
v 0.743138 0.224000 0.822899
v 0.743138 6.944000 0.822899
v 0.433414 0.224000 1.132624
v 0.433414 6.944000 1.132624
v 0.043138 0.224000 1.331479
v 0.043138 6.944000 1.331479
v -0.389486 0.224000 1.400000
v -0.389486 6.944000 1.400000
v -0.822109 0.224000 1.331479
v -0.822109 6.944000 1.331479
v -1.212385 0.224000 1.132624
v -1.212385 6.944000 1.132624
v -1.522109 0.224000 0.822899
v -1.522109 6.944000 0.822899
v -1.720965 0.224000 0.432624
v -1.720965 6.944000 0.432624
v -1.789486 0.224000 0.000000
v -1.789486 6.944000 0.000000
v -1.720965 0.224000 -0.432624
v -1.720965 6.944000 -0.432624
v -1.522109 0.224000 -0.822899
v -1.522109 6.944000 -0.822899
v -1.212385 0.224000 -1.132624
v -1.212385 6.944000 -1.132624
v -0.822109 0.224000 -1.331479
v -0.822109 6.944000 -1.331479
v -0.389486 1.344000 -1.442000
v -0.389486 1.456000 -1.442000
v 0.056117 1.344000 -1.371423
v 0.056117 1.456000 -1.371423
v 0.458101 1.344000 -1.166602
v 0.458101 1.456000 -1.166602
v 0.777117 1.344000 -0.847586
v 0.777117 1.456000 -0.847586
v 0.981938 1.344000 -0.445603
v 0.981938 1.456000 -0.445603
v 1.052514 1.344000 0.000000
v 1.052514 1.456000 0.000000
v 0.981938 1.344000 0.445603
v 0.981938 1.456000 0.445603
v 0.777117 1.344000 0.847586
v 0.777117 1.456000 0.847586
v 0.458101 1.344000 1.166602
v 0.458101 1.456000 1.166602
v 0.056117 1.344000 1.371423
v 0.056117 1.456000 1.371423
v -0.389486 1.344000 1.442000
v -0.389486 1.456000 1.442000
v -0.835088 1.344000 1.371423
v -0.835088 1.456000 1.371423
v -1.237072 1.344000 1.166602
v -1.237072 1.456000 1.166602
v -1.556088 1.344000 0.847586
v -1.556088 1.456000 0.847586
v -1.760909 1.344000 0.445603
v -1.760909 1.456000 0.445603
v -1.831486 1.344000 0.000000
v -1.831486 1.456000 0.000000
v -1.760909 1.344000 -0.445603
v -1.760909 1.456000 -0.445603
v -1.556088 1.344000 -0.847586
v -1.556088 1.456000 -0.847586
v -1.237072 1.344000 -1.166602
v -1.237072 1.456000 -1.166602
v -0.835088 1.344000 -1.371423
v -0.835088 1.456000 -1.371423
v -0.389486 2.464000 -1.442000
v -0.389486 2.576000 -1.442000
v 0.056117 2.464000 -1.371423
v 0.056117 2.576000 -1.371423
v 0.458101 2.464000 -1.166602
v 0.458101 2.576000 -1.166602
v 0.777117 2.464000 -0.847586
v 0.777117 2.576000 -0.847586
v 0.981938 2.464000 -0.445603
v 0.981938 2.576000 -0.445603
v 1.052514 2.464000 0.000000
v 1.052514 2.576000 0.000000
v 0.981938 2.464000 0.445603
v 0.981938 2.576000 0.445603
v 0.777117 2.464000 0.847586
v 0.777117 2.576000 0.847586
v 0.458101 2.464000 1.166602
v 0.458101 2.576000 1.166602
v 0.056117 2.464000 1.371423
v 0.056117 2.576000 1.371423
v -0.389486 2.464000 1.442000
v -0.389486 2.576000 1.442000
v -0.835088 2.464000 1.371423
v -0.835088 2.576000 1.371423
v -1.237072 2.464000 1.166602
v -1.237072 2.576000 1.166602
v -1.556088 2.464000 0.847586
v -1.556088 2.576000 0.847586
v -1.760909 2.464000 0.445603
v -1.760909 2.576000 0.445603
v -1.831486 2.464000 0.000000
v -1.831486 2.576000 0.000000
v -1.760909 2.464000 -0.445603
v -1.760909 2.576000 -0.445603
v -1.556088 2.464000 -0.847586
v -1.556088 2.576000 -0.847586
v -1.237072 2.464000 -1.166602
v -1.237072 2.576000 -1.166602
v -0.835088 2.464000 -1.371423
v -0.835088 2.576000 -1.371423
v -0.389486 3.584000 -1.442000
v -0.389486 3.696000 -1.442000
v 0.056117 3.584000 -1.371423
v 0.056117 3.696000 -1.371423
v 0.458101 3.584000 -1.166602
v 0.458101 3.696000 -1.166602
v 0.777117 3.584000 -0.847586
v 0.777117 3.696000 -0.847586
v 0.981938 3.584000 -0.445603
v 0.981938 3.696000 -0.445603
v 1.052514 3.584000 0.000000
v 1.052514 3.696000 0.000000
v 0.981938 3.584000 0.445603
v 0.981938 3.696000 0.445603
v 0.777117 3.584000 0.847586
v 0.777117 3.696000 0.847586
v 0.458101 3.584000 1.166602
v 0.458101 3.696000 1.166602
v 0.056117 3.584000 1.371423
v 0.056117 3.696000 1.371423
v -0.389486 3.584000 1.442000
v -0.389486 3.696000 1.442000
v -0.835088 3.584000 1.371423
v -0.835088 3.696000 1.371423
v -1.237072 3.584000 1.166602
v -1.237072 3.696000 1.166602
v -1.556088 3.584000 0.847586
v -1.556088 3.696000 0.847586
v -1.760909 3.584000 0.445603
v -1.760909 3.696000 0.445603
v -1.831486 3.584000 0.000000
v -1.831486 3.696000 0.000000
v -1.760909 3.584000 -0.445603
v -1.760909 3.696000 -0.445603
v -1.556088 3.584000 -0.847586
v -1.556088 3.696000 -0.847586
v -1.237072 3.584000 -1.166602
v -1.237072 3.696000 -1.166602
v -0.835088 3.584000 -1.371423
v -0.835088 3.696000 -1.371423
v -0.389486 4.704000 -1.442000
v -0.389486 4.816000 -1.442000
v 0.056117 4.704000 -1.371423
v 0.056117 4.816000 -1.371423
v 0.458101 4.704000 -1.166602
v 0.458101 4.816000 -1.166602
v 0.777117 4.704000 -0.847586
v 0.777117 4.816000 -0.847586
v 0.981938 4.704000 -0.445603
v 0.981938 4.816000 -0.445603
v 1.052514 4.704000 0.000000
v 1.052514 4.816000 0.000000
v 0.981938 4.704000 0.445603
v 0.981938 4.816000 0.445603
v 0.777117 4.704000 0.847586
v 0.777117 4.816000 0.847586
v 0.458101 4.704000 1.166602
v 0.458101 4.816000 1.166602
v 0.056117 4.704000 1.371423
v 0.056117 4.816000 1.371423
v -0.389486 4.704000 1.442000
v -0.389486 4.816000 1.442000
v -0.835088 4.704000 1.371423
v -0.835088 4.816000 1.371423
v -1.237072 4.704000 1.166602
v -1.237072 4.816000 1.166602
v -1.556088 4.704000 0.847586
v -1.556088 4.816000 0.847586
v -1.760909 4.704000 0.445603
v -1.760909 4.816000 0.445603
v -1.831486 4.704000 0.000000
v -1.831486 4.816000 0.000000
v -1.760909 4.704000 -0.445603
v -1.760909 4.816000 -0.445603
v -1.556088 4.704000 -0.847586
v -1.556088 4.816000 -0.847586
v -1.237072 4.704000 -1.166602
v -1.237072 4.816000 -1.166602
v -0.835088 4.704000 -1.371423
v -0.835088 4.816000 -1.371423
v -0.389486 5.824000 -1.442000
v -0.389486 5.936000 -1.442000
v 0.056117 5.824000 -1.371423
v 0.056117 5.936000 -1.371423
v 0.458101 5.824000 -1.166602
v 0.458101 5.936000 -1.166602
v 0.777117 5.824000 -0.847586
v 0.777117 5.936000 -0.847586
v 0.981938 5.824000 -0.445603
v 0.981938 5.936000 -0.445603
v 1.052514 5.824000 0.000000
v 1.052514 5.936000 0.000000
v 0.981938 5.824000 0.445603
v 0.981938 5.936000 0.445603
v 0.777117 5.824000 0.847586
v 0.777117 5.936000 0.847586
v 0.458101 5.824000 1.166602
v 0.458101 5.936000 1.166602
v 0.056117 5.824000 1.371423
v 0.056117 5.936000 1.371423
v -0.389486 5.824000 1.442000
v -0.389486 5.936000 1.442000
v -0.835088 5.824000 1.371423
v -0.835088 5.936000 1.371423
v -1.237072 5.824000 1.166602
v -1.237072 5.936000 1.166602
v -1.556088 5.824000 0.847586
v -1.556088 5.936000 0.847586
v -1.760909 5.824000 0.445603
v -1.760909 5.936000 0.445603
v -1.831486 5.824000 0.000000
v -1.831486 5.936000 0.000000
v -1.760909 5.824000 -0.445603
v -1.760909 5.936000 -0.445603
v -1.556088 5.824000 -0.847586
v -1.556088 5.936000 -0.847586
v -1.237072 5.824000 -1.166602
v -1.237072 5.936000 -1.166602
v -0.835088 5.824000 -1.371423
v -0.835088 5.936000 -1.371423
v -0.389486 3.304000 -1.456000
v -0.389486 3.584000 -1.456000
v 0.060443 3.304000 -1.384738
v 0.060443 3.584000 -1.384738
v 0.466330 3.304000 -1.177929
v 0.466330 3.584000 -1.177929
v 0.788443 3.304000 -0.855815
v 0.788443 3.584000 -0.855815
v 0.995253 3.304000 -0.449929
v 0.995253 3.584000 -0.449929
v 1.066514 3.304000 0.000000
v 1.066514 3.584000 0.000000
v 0.995253 3.304000 0.449929
v 0.995253 3.584000 0.449929
v 0.788443 3.304000 0.855815
v 0.788443 3.584000 0.855815
v 0.466330 3.304000 1.177929
v 0.466330 3.584000 1.177929
v 0.060443 3.304000 1.384738
v 0.060443 3.584000 1.384738
v -0.389486 3.304000 1.456000
v -0.389486 3.584000 1.456000
v -0.839414 3.304000 1.384738
v -0.839414 3.584000 1.384738
v -1.245301 3.304000 1.177929
v -1.245301 3.584000 1.177929
v -1.567414 3.304000 0.855815
v -1.567414 3.584000 0.855815
v -1.774224 3.304000 0.449929
v -1.774224 3.584000 0.449929
v -1.845485 3.304000 0.000000
v -1.845485 3.584000 0.000000
v -1.774224 3.304000 -0.449929
v -1.774224 3.584000 -0.449929
v -1.567414 3.304000 -0.855815
v -1.567414 3.584000 -0.855815
v -1.245301 3.304000 -1.177929
v -1.245301 3.584000 -1.177929
v -0.839414 3.304000 -1.384738
v -0.839414 3.584000 -1.384738
v -0.389486 7.604320 -0.872273
v -0.221486 3.844400 1.559600
v -0.389486 7.196220 -1.411368
v -0.557486 3.883600 1.520400
v -0.221486 2.164400 1.559600
v -0.557486 3.844400 1.520400
v -0.557486 2.203600 1.520400
v -0.557486 3.883600 1.559600
v -0.557486 2.164400 1.520400
v -0.557486 3.844400 1.559600
v -0.247776 7.720252 -0.436137
v -0.119938 7.604320 -0.829581
v -0.018486 7.423750 -1.141821
v 0.046651 7.196220 -1.342291
v 0.069096 6.944000 -1.411368
v -0.557486 2.203600 1.559600
v -0.557486 2.164400 1.559600
v -0.221486 1.923600 1.520400
v -0.221486 1.884400 1.520400
v -0.221486 3.603600 1.520400
v -0.221486 3.564400 1.520400
v -0.119938 7.720252 -0.371000
v 0.123224 7.604320 -0.705684
v 0.316198 7.423750 -0.971291
v 0.440096 7.196220 -1.141821
v 0.482788 6.944000 -1.200581
v -0.221486 1.923600 1.559600
v -0.221486 1.884400 1.559600
v -0.557486 1.923600 1.520400
v -0.557486 1.884400 1.520400
v -0.221486 3.603600 1.559600
v -0.221486 3.564400 1.559600
v -0.018486 7.720252 -0.269547
v 0.316198 7.604320 -0.512709
v 0.581805 7.423750 -0.705684
v 0.752335 7.196220 -0.829581
v 0.811096 6.944000 -0.872273
v -0.557486 1.923600 1.559600
v -0.557486 1.884400 1.559600
v -0.221486 1.643600 1.520400
v -0.221486 1.604400 1.520400
v -0.557486 3.603600 1.520400
v -0.557486 3.564400 1.520400
v 0.046651 7.720252 -0.141709
v 0.440096 7.604320 -0.269547
v 0.752335 7.423750 -0.371000
v 0.952805 7.196220 -0.436137
v 1.021882 6.944000 -0.458581
v -0.221486 1.643600 1.559600
v -0.221486 1.604400 1.559600
v -0.557486 1.643600 1.520400
v -0.557486 1.604400 1.520400
v -0.557486 3.603600 1.559600
v -0.557486 3.564400 1.559600
v 0.069096 7.720252 0.000000
v 0.482788 7.604320 0.000000
v 0.811096 7.423750 0.000000
v 1.021882 7.196220 0.000000
v 1.094514 6.944000 -0.000000
v -0.557486 1.643600 1.559600
v -0.557486 1.604400 1.559600
v -0.221486 1.363600 1.520400
v -0.221486 1.324400 1.520400
v -0.221486 3.323600 1.520400
v -0.221486 3.284400 1.520400
v 0.046651 7.720252 0.141709
v 0.440096 7.604320 0.269547
v 0.752335 7.423750 0.371000
v 0.952805 7.196220 0.436137
v 1.021882 6.944000 0.458581
v -0.221486 1.363600 1.559600
v -0.221486 1.324400 1.559600
v -0.557486 1.363600 1.520400
v -0.557486 1.324400 1.520400
v -0.221486 3.323600 1.559600
v -0.221486 3.284400 1.559600
v -0.018486 7.720252 0.269547
v 0.316198 7.604320 0.512709
v 0.581805 7.423750 0.705684
v 0.752335 7.196220 0.829581
v 0.811096 6.944000 0.872273
v -0.557486 1.363600 1.559600
v -0.557486 1.324400 1.559600
v -0.221486 1.083600 1.520400
v -0.221486 1.044400 1.520400
v -0.557486 3.323600 1.520400
v -0.557486 3.284400 1.520400
v -0.119938 7.720252 0.371000
v 0.123224 7.604320 0.705684
v 0.316198 7.423750 0.971291
v 0.440096 7.196220 1.141821
v 0.482788 6.944000 1.200581
v -0.221486 1.083600 1.559600
v -0.221486 1.044400 1.559600
v -0.557486 1.083600 1.520400
v -0.557486 1.044400 1.520400
v -0.557486 3.323600 1.559600
v -0.557486 3.284400 1.559600
v -0.247776 7.720252 0.436137
v -0.119938 7.604320 0.829581
v -0.018486 7.423750 1.141821
v 0.046651 7.196220 1.342291
v 0.069096 6.944000 1.411368
v -0.557486 1.083600 1.559600
v -0.557486 1.044400 1.559600
v -0.221486 0.803600 1.520400
v -0.221486 0.764400 1.520400
v -0.221486 3.043600 1.520400
v -0.221486 3.004400 1.520400
v -0.389486 7.720252 0.458581
v -0.389486 7.604320 0.872273
v -0.389486 7.423750 1.200582
v -0.389486 7.196220 1.411368
v -0.389486 6.944000 1.484000
v -0.221486 0.803600 1.559600
v -0.221486 0.764400 1.559600
v -0.557486 0.803600 1.520400
v -0.557486 0.764400 1.520400
v -0.221486 3.043600 1.559600
v -0.221486 3.004400 1.559600
v -0.531195 7.720252 0.436137
v -0.659033 7.604320 0.829581
v -0.760486 7.423750 1.141821
v -0.825622 7.196220 1.342291
v -0.848067 6.944000 1.411368
v -0.557486 0.803600 1.559600
v -0.557486 0.764400 1.559600
v -0.196286 7.504000 1.514800
v -0.196286 0.224000 1.514800
v -0.557486 3.043600 1.520400
v -0.557486 3.004400 1.520400
v -0.659033 7.720252 0.371000
v -0.902195 7.604320 0.705684
v -1.095170 7.423750 0.971291
v -1.219067 7.196220 1.141821
v -1.261759 6.944000 1.200581
v -0.196286 7.504000 1.565200
v -0.196286 0.224000 1.565200
v -0.246686 7.504000 1.514800
v -0.246686 0.224000 1.514800
v -0.557486 3.043600 1.559600
v -0.557486 3.004400 1.559600
v -0.760486 7.720252 0.269547
v -1.095170 7.604320 0.512709
v -1.360777 7.423750 0.705684
v -1.531307 7.196220 0.829581
v -1.590067 6.944000 0.872273
v -0.246686 7.504000 1.565200
v -0.246686 0.224000 1.565200
v -0.532286 7.504000 1.514800
v -0.532286 0.224000 1.514800
v -0.221486 2.763600 1.520400
v -0.221486 2.724400 1.520400
v -0.825622 7.720252 0.141709
v -1.219067 7.604320 0.269547
v -1.531307 7.423750 0.371000
v -1.731777 7.196220 0.436137
v -1.800853 6.944000 0.458581
v -0.532286 7.504000 1.565200
v -0.532286 0.224000 1.565200
v -0.582686 7.504000 1.514800
v -0.582686 0.224000 1.514800
v -0.221486 2.763600 1.559600
v -0.221486 2.724400 1.559600
v -0.848067 7.720252 0.000000
v -1.261759 7.604320 -0.000000
v -1.590067 7.423750 -0.000000
v -1.800854 7.196220 -0.000000
v -1.873486 6.944000 0.000000
v -0.471776 7.984200 -0.113262
v -0.537607 7.704200 -0.203872
v -0.522634 7.984200 -0.043262
v -0.629152 7.704200 -0.077872
v -0.557486 2.763600 1.520400
v -0.557486 2.724400 1.520400
v -0.825622 7.720252 -0.141709
v -1.219067 7.604320 -0.269548
v -1.531307 7.423750 -0.371000
v -1.731777 7.196220 -0.436137
v -1.800853 6.944000 -0.458581
v -0.522634 7.984200 0.043262
v -0.629152 7.704200 0.077872
v -0.471776 7.984200 0.113262
v -0.537607 7.704200 0.203872
v -0.557486 2.763600 1.559600
v -0.557486 2.724400 1.559600
v -0.760486 7.720252 -0.269547
v -1.095169 7.604320 -0.512710
v -1.360777 7.423750 -0.705684
v -1.531307 7.196220 -0.829582
v -1.590067 6.944000 -0.872273
v -0.389486 7.984200 0.140000
v -0.389486 7.704200 0.252000
v -0.307196 7.984200 0.113262
v -0.241364 7.704200 0.203872
v -0.221486 2.483600 1.520400
v -0.221486 2.444400 1.520400
v -0.659033 7.720252 -0.371000
v -0.902195 7.604320 -0.705684
v -1.095170 7.423750 -0.971291
v -1.219067 7.196220 -1.141821
v -1.261759 6.944000 -1.200581
v -0.256338 7.984200 0.043262
v -0.149819 7.704200 0.077872
v -0.256338 7.984200 -0.043262
v -0.149819 7.704200 -0.077872
v -0.221486 2.483600 1.559600
v -0.221486 2.444400 1.559600
v -0.531195 7.720252 -0.436137
v -0.659033 7.604320 -0.829581
v -0.760486 7.423750 -1.141821
v -0.825622 7.196220 -1.342291
v -0.848067 6.944000 -1.411368
v -0.307196 7.984200 -0.113262
v -0.241364 7.704200 -0.203872
v -0.389486 7.984200 -0.140000
v -0.389486 7.704200 -0.252000
v -0.557486 2.483600 1.520400
v -0.557486 2.444400 1.520400
v -0.389486 7.720252 -0.458581
v -0.557486 2.483600 1.559600
v -0.389486 7.423750 -1.200582
v -0.557486 2.444400 1.559600
v -0.389486 6.944000 -1.484000
v -0.221486 2.203600 1.520400
v -0.582686 7.504000 1.565200
v -0.221486 2.164400 1.520400
v -0.582686 0.224000 1.565200
v -0.221486 2.203600 1.559600
v -0.221486 3.844400 1.520400
v -0.221486 3.883600 1.520400
v -0.557486 4.124400 1.559600
v -0.557486 4.163600 1.559600
v -0.557486 4.124400 1.520400
v -0.557486 4.163600 1.520400
v -0.221486 4.124400 1.559600
v -0.221486 4.163600 1.559600
v -0.221486 4.124400 1.520400
v -0.221486 4.163600 1.520400
v -0.557486 4.404400 1.559600
v -0.557486 4.443600 1.559600
v -0.557486 4.404400 1.520400
v -0.557486 4.443600 1.520400
v -0.221486 4.404400 1.559600
v -0.221486 4.443600 1.559600
v -0.221486 4.404400 1.520400
v -0.221486 4.443600 1.520400
v -0.557486 4.684400 1.559600
v -0.557486 4.723600 1.559600
v -0.557486 4.684400 1.520400
v -0.557486 4.723600 1.520400
v -0.221486 4.684400 1.559600
v -0.221486 4.723600 1.559600
v -0.221486 4.684400 1.520400
v -0.221486 4.723600 1.520400
v -0.557486 4.964400 1.559600
v -0.557486 5.003600 1.559600
v -0.557486 4.964400 1.520400
v -0.557486 5.003600 1.520400
v -0.221486 4.964400 1.559600
v -0.221486 5.003600 1.559600
v -0.221486 4.964400 1.520400
v -0.221486 5.003600 1.520400
v -0.557486 5.244400 1.559600
v -0.557486 5.283600 1.559600
v -0.557486 5.244400 1.520400
v -0.557486 5.283600 1.520400
v -0.221486 5.244400 1.559600
v -0.221486 5.283600 1.559600
v -0.221486 5.244400 1.520400
v -0.221486 5.283600 1.520400
v -0.557486 5.524400 1.559600
v -0.557486 5.563600 1.559600
v -0.557486 5.524400 1.520400
v -0.557486 5.563600 1.520400
v -0.221486 5.524400 1.559600
v -0.221486 5.563600 1.559600
v -0.221486 5.524400 1.520400
v -0.221486 5.563600 1.520400
v -0.557486 5.804400 1.559600
v -0.557486 5.843600 1.559600
v -0.557486 5.804400 1.520400
v -0.557486 5.843600 1.520400
v -0.221486 5.804400 1.559600
v -0.221486 5.843600 1.559600
v -0.221486 5.804400 1.520400
v -0.221486 5.843600 1.520400
v -0.557486 6.084400 1.559600
v -0.557486 6.123600 1.559600
v -0.557486 6.084400 1.520400
v -0.557486 6.123600 1.520400
v -0.221486 6.084400 1.559600
v -0.221486 6.123600 1.559600
v -0.221486 6.084400 1.520400
v -0.221486 6.123600 1.520400
v -0.557486 6.364400 1.559600
v -0.557486 6.403600 1.559600
v -0.557486 6.364400 1.520400
v -0.557486 6.403600 1.520400
v -0.221486 6.364400 1.559600
v -0.221486 6.403600 1.559600
v -0.221486 6.364400 1.520400
v -0.221486 6.403600 1.520400
v -0.557486 6.644400 1.559600
v -0.557486 6.683600 1.559600
v -0.557486 6.644400 1.520400
v -0.557486 6.683600 1.520400
v -0.221486 6.644400 1.559600
v -0.221486 6.683600 1.559600
v -0.221486 6.644400 1.520400
v -0.221486 6.683600 1.520400
v -0.557486 6.924400 1.559600
v -0.557486 6.963600 1.559600
v -0.557486 6.924400 1.520400
v -0.557486 6.963600 1.520400
v -0.221486 6.924400 1.559600
v -0.221486 6.963600 1.559600
v -0.221486 6.924400 1.520400
v -0.221486 6.963600 1.520400
v -0.557486 7.204400 1.559600
v -0.557486 7.243600 1.559600
v -0.557486 7.204400 1.520400
v -0.557486 7.243600 1.520400
v -0.221486 7.204400 1.559600
v -0.221486 7.243600 1.559600
v -0.221486 7.204400 1.520400
v -0.221486 7.243600 1.520400
v 0.898514 0.784000 0.224000
v 0.898514 0.224000 0.224000
v 0.973530 0.620039 -0.196000
v 1.831499 1.339961 -0.196000
v 1.062615 0.513871 -0.138593
v 1.920585 1.233793 -0.138593
v 1.099516 0.469894 0.000000
v 1.957486 1.189816 0.000000
v 1.062615 0.513871 0.138593
v 1.920585 1.233793 0.138593
v 0.973530 0.620039 0.196000
v 1.831499 1.339961 0.196000
v 0.884444 0.726207 0.138593
v 1.742413 1.446129 0.138593
v 0.847543 0.770184 0.000000
v 1.705513 1.490106 0.000000
v 0.884444 0.726207 -0.138593
v 1.742413 1.446129 -0.138593
v 0.898514 0.224000 -0.224000
v 0.898514 0.784000 -0.224000
v 1.346514 0.224000 0.224000
v 1.346514 0.784000 0.224000
v 1.346514 0.224000 -0.224000
v 1.346514 0.784000 -0.224000
vn 0.1564 -0.0000 0.9877
vn 0.9877 -0.0000 -0.1564
vn 0.1564 -0.0000 -0.9877
vn -0.7071 -0.0000 0.7071
vn 0.9877 -0.0000 0.1564
vn 0.4540 -0.0000 -0.8910
vn -0.4540 -0.0000 0.8910
vn -0.1564 -0.0000 0.9877
vn 0.7071 -0.0000 -0.7071
vn 0.4540 -0.0000 0.8910
vn 0.8910 -0.0000 -0.4540
vn 0.8910 -0.0000 0.4540
vn 0.7071 -0.0000 0.7071
vn -0.8910 -0.0000 0.4540
vn -0.9877 -0.0000 0.1564
vn -0.9877 -0.0000 -0.1564
vn -0.8910 -0.0000 -0.4540
vn -0.7071 -0.0000 -0.7071
vn -0.0000 1.0000 -0.0000
vn -0.4540 -0.0000 -0.8910
vn 0.6574 0.6751 -0.3349
vn -0.1564 -0.0000 -0.9877
vn -0.0000 -1.0000 -0.0000
vn -0.0000 -0.0000 1.0000
vn 1.0000 -0.0000 -0.0000
vn -0.0000 -0.0000 -1.0000
vn 0.1505 0.2736 -0.9500
vn -1.0000 -0.0000 -0.0000
vn 0.0399 0.9961 -0.0783
vn 0.1239 0.9620 -0.2432
vn 0.5217 0.6751 -0.5217
vn 0.0621 0.9961 -0.0621
vn 0.3349 0.6751 -0.6574
vn 0.0761 0.8737 -0.4805
vn 0.4335 0.8737 -0.2209
vn 0.6801 0.2736 -0.6801
vn 0.2209 0.8737 -0.4335
vn 0.0783 0.9961 -0.0399
vn 0.4367 0.2736 -0.8570
vn 0.8570 0.2736 -0.4367
vn 0.0137 0.9961 -0.0868
vn 0.3440 0.8737 -0.3440
vn 0.1930 0.9620 -0.1930
vn 0.1154 0.6751 -0.7287
vn 0.0427 0.9620 -0.2696
vn 0.2432 0.9620 -0.1239
vn 0.0868 0.9961 -0.0137
vn 0.2696 0.9620 -0.0427
vn 0.4805 0.8737 -0.0761
vn 0.7287 0.6751 -0.1154
vn 0.9500 0.2736 -0.1505
vn 0.9500 0.2736 0.1505
vn 0.0868 0.9961 0.0137
vn 0.2696 0.9620 0.0427
vn 0.4805 0.8737 0.0761
vn 0.7287 0.6751 0.1154
vn 0.8570 0.2736 0.4367
vn 0.0783 0.9961 0.0399
vn 0.2432 0.9620 0.1239
vn 0.4335 0.8737 0.2209
vn 0.6574 0.6751 0.3349
vn 0.6801 0.2736 0.6801
vn 0.0621 0.9961 0.0621
vn 0.1930 0.9620 0.1930
vn 0.3440 0.8737 0.3440
vn 0.5217 0.6751 0.5217
vn 0.2209 0.8737 0.4335
vn 0.3349 0.6751 0.6574
vn 0.4367 0.2736 0.8570
vn 0.0399 0.9961 0.0783
vn 0.1239 0.9620 0.2432
vn 0.0427 0.9620 0.2696
vn 0.0761 0.8737 0.4805
vn 0.1154 0.6751 0.7287
vn 0.1505 0.2736 0.9500
vn 0.0137 0.9961 0.0868
vn -0.0137 0.9961 0.0868
vn -0.0427 0.9620 0.2696
vn -0.0761 0.8737 0.4805
vn -0.1154 0.6751 0.7287
vn -0.1505 0.2736 0.9500
vn -0.4367 0.2736 0.8570
vn -0.0399 0.9961 0.0783
vn -0.1239 0.9620 0.2432
vn -0.2209 0.8737 0.4335
vn -0.3349 0.6751 0.6574
vn -0.6801 0.2736 0.6801
vn -0.0621 0.9961 0.0621
vn -0.1930 0.9620 0.1930
vn -0.3440 0.8737 0.3440
vn -0.5217 0.6751 0.5217
vn -0.6574 0.6751 0.3349
vn -0.8570 0.2736 0.4367
vn -0.0783 0.9961 0.0399
vn -0.2432 0.9620 0.1239
vn -0.4335 0.8737 0.2209
vn -0.4805 0.8737 0.0761
vn -0.7287 0.6751 0.1154
vn -0.2888 0.3556 -0.8889
vn -0.7561 0.3556 -0.5494
vn -0.9500 0.2736 0.1505
vn -0.0868 0.9961 0.0137
vn -0.2696 0.9620 0.0427
vn -0.2696 0.9620 -0.0427
vn -0.4805 0.8737 -0.0761
vn -0.7287 0.6751 -0.1154
vn -0.9347 0.3556 -0.0000
vn -0.7562 0.3556 0.5494
vn -0.9500 0.2736 -0.1505
vn -0.0868 0.9961 -0.0137
vn -0.8570 0.2736 -0.4367
vn -0.0783 0.9961 -0.0399
vn -0.2432 0.9620 -0.1239
vn -0.4335 0.8737 -0.2209
vn -0.6574 0.6751 -0.3349
vn -0.2888 0.3556 0.8889
vn 0.2888 0.3556 0.8889
vn -0.6801 0.2736 -0.6801
vn -0.0621 0.9961 -0.0621
vn -0.1930 0.9620 -0.1930
vn -0.3440 0.8737 -0.3440
vn -0.5217 0.6751 -0.5217
vn 0.7561 0.3556 0.5494
vn 0.9347 0.3556 -0.0000
vn -0.4367 0.2736 -0.8570
vn -0.0399 0.9961 -0.0783
vn -0.1239 0.9620 -0.2432
vn -0.2209 0.8737 -0.4335
vn -0.3349 0.6751 -0.6574
vn 0.7562 0.3556 -0.5494
vn -0.1154 0.6751 -0.7287
vn 0.2888 0.3556 -0.8889
vn -0.1505 0.2736 -0.9500
vn -0.0137 0.9961 -0.0868
vn -0.0427 0.9620 -0.2696
vn -0.0761 0.8737 -0.4805
vn 0.2460 -0.2932 -0.9239
vn 0.5939 -0.7077 -0.3827
vn 0.5939 -0.7077 0.3827
vn 0.2460 -0.2932 0.9239
vn -0.2460 0.2932 0.9239
vn -0.5939 0.7077 0.3827
vn 0.7660 0.6428 -0.0000
vn -0.5939 0.7077 -0.3827
vn -0.2460 0.2932 -0.9239
vn -0.7660 -0.6428 -0.0000
s 0
usemtl EF_GreyDark
f 3//3 4//3 6//3 5//3
f 5//6 6//6 8//6 7//6
f 7//9 8//9 10//9 9//9
f 9//11 10//11 12//11 11//11
f 11//2 12//2 14//2 13//2
f 13//5 14//5 16//5 15//5
f 15//12 16//12 18//12 17//12
f 17//13 18//13 20//13 19//13
f 19//10 20//10 22//10 21//10
f 21//1 22//1 24//1 23//1
f 23//8 24//8 26//8 25//8
f 25//7 26//7 28//7 27//7
f 27//4 28//4 30//4 29//4
f 29//14 30//14 32//14 31//14
f 31//15 32//15 34//15 33//15
f 33//16 34//16 36//16 35//16
f 35//17 36//17 38//17 37//17
f 37//18 38//18 40//18 39//18
f 6//19 4//19 42//19 40//19 38//19 36//19 34//19 32//19 30//19 28//19 26//19 24//19 22//19 20//19 18//19 16//19 14//19 12//19 10//19 8//19
f 39//20 40//20 42//20 41//20
f 41//22 42//22 4//22 3//22
f 3//23 5//23 7//23 9//23 11//23 13//23 15//23 17//23 19//23 21//23 23//23 25//23 27//23 29//23 31//23 33//23 35//23 37//23 39//23 41//23
f 558//24 559//24 555//24 554//24
f 560//25 561//25 559//25 558//25
f 556//26 557//26 561//26 560//26
f 554//28 555//28 557//28 556//28
f 553//19 326//19 330//19 2//19
f 328//23 552//23 324//23 332//23
f 324//24 2//24 330//24 332//24
f 552//25 553//25 2//25 324//25
f 328//26 326//26 553//26 552//26
f 332//28 330//28 326//28 328//28
f 342//19 364//19 375//19 353//19
f 365//23 343//23 354//23 376//23
f 354//24 353//24 375//24 376//24
f 343//25 342//25 353//25 354//25
f 365//26 364//26 342//26 343//26
f 376//28 375//28 364//28 365//28
f 386//19 408//19 419//19 397//19
f 409//23 387//23 398//23 420//23
f 398//24 397//24 419//24 420//24
f 387//25 386//25 397//25 398//25
f 409//26 408//26 386//26 387//26
f 420//28 419//28 408//28 409//28
f 430//19 452//19 463//19 441//19
f 453//23 431//23 442//23 464//23
f 442//24 441//24 463//24 464//24
f 431//25 430//25 441//25 442//25
f 453//26 452//26 430//26 431//26
f 464//28 463//28 452//28 453//28
f 474//19 496//19 507//19 485//19
f 497//23 475//23 486//23 508//23
f 486//24 485//24 507//24 508//24
f 475//25 474//25 485//25 486//25
f 497//26 496//26 474//26 475//26
f 508//28 507//28 496//28 497//28
f 518//19 540//19 543//19 529//19
f 541//23 519//23 530//23 545//23
f 530//24 529//24 543//24 545//24
f 519//25 518//25 529//25 530//25
f 541//26 540//26 518//26 519//26
f 545//28 543//28 540//28 541//28
f 547//19 329//19 338//19 551//19
f 331//23 549//23 327//23 339//23
f 327//24 551//24 338//24 339//24
f 549//25 547//25 551//25 327//25
f 331//26 329//26 547//26 549//26
f 339//28 338//28 329//28 331//28
f 340//19 351//19 360//19 349//19
f 352//23 341//23 350//23 361//23
f 350//24 349//24 360//24 361//24
f 341//25 340//25 349//25 350//25
f 352//26 351//26 340//26 341//26
f 361//28 360//28 351//28 352//28
f 362//19 373//19 382//19 371//19
f 374//23 363//23 372//23 383//23
f 372//24 371//24 382//24 383//24
f 363//25 362//25 371//25 372//25
f 374//26 373//26 362//26 363//26
f 383//28 382//28 373//28 374//28
f 384//19 395//19 404//19 393//19
f 396//23 385//23 394//23 405//23
f 394//24 393//24 404//24 405//24
f 385//25 384//25 393//25 394//25
f 396//26 395//26 384//26 385//26
f 405//28 404//28 395//28 396//28
f 406//19 417//19 426//19 415//19
f 418//23 407//23 416//23 427//23
f 416//24 415//24 426//24 427//24
f 407//25 406//25 415//25 416//25
f 418//26 417//26 406//26 407//26
f 427//28 426//28 417//28 418//28
f 462//26 461//26 450//26 451//26
f 550//28 548//28 483//28 484//28
f 462//23 451//23 460//23 471//23
f 484//26 483//26 472//26 473//26
f 450//19 461//19 470//19 459//19
f 473//25 472//25 481//25 482//25
f 449//28 448//28 439//28 440//28
f 482//24 481//24 548//24 550//24
f 440//26 439//26 428//26 429//26
f 484//23 473//23 482//23 550//23
f 429//25 428//25 437//25 438//25
f 472//19 483//19 548//19 481//19
f 438//24 437//24 448//24 449//24
f 471//28 470//28 461//28 462//28
f 440//23 429//23 438//23 449//23
f 460//24 459//24 470//24 471//24
f 428//19 439//19 448//19 437//19
f 451//25 450//25 459//25 460//25
f 556//23 560//23 558//23 554//23
f 561//19 557//19 555//19 559//19
f 562//28 563//28 565//28 564//28
f 564//26 565//26 569//26 568//26
f 568//25 569//25 567//25 566//25
f 566//24 567//24 563//24 562//24
f 564//23 568//23 566//23 562//23
f 569//19 565//19 563//19 567//19
f 570//28 571//28 573//28 572//28
f 572//26 573//26 577//26 576//26
f 576//25 577//25 575//25 574//25
f 574//24 575//24 571//24 570//24
f 572//23 576//23 574//23 570//23
f 577//19 573//19 571//19 575//19
f 578//28 579//28 581//28 580//28
f 580//26 581//26 585//26 584//26
f 584//25 585//25 583//25 582//25
f 582//24 583//24 579//24 578//24
f 580//23 584//23 582//23 578//23
f 585//19 581//19 579//19 583//19
f 586//28 587//28 589//28 588//28
f 588//26 589//26 593//26 592//26
f 592//25 593//25 591//25 590//25
f 590//24 591//24 587//24 586//24
f 588//23 592//23 590//23 586//23
f 593//19 589//19 587//19 591//19
f 594//28 595//28 597//28 596//28
f 596//26 597//26 601//26 600//26
f 600//25 601//25 599//25 598//25
f 598//24 599//24 595//24 594//24
f 596//23 600//23 598//23 594//23
f 601//19 597//19 595//19 599//19
f 602//28 603//28 605//28 604//28
f 604//26 605//26 609//26 608//26
f 608//25 609//25 607//25 606//25
f 606//24 607//24 603//24 602//24
f 604//23 608//23 606//23 602//23
f 609//19 605//19 603//19 607//19
f 610//28 611//28 613//28 612//28
f 612//26 613//26 617//26 616//26
f 616//25 617//25 615//25 614//25
f 614//24 615//24 611//24 610//24
f 612//23 616//23 614//23 610//23
f 617//19 613//19 611//19 615//19
f 618//28 619//28 621//28 620//28
f 620//26 621//26 625//26 624//26
f 624//25 625//25 623//25 622//25
f 622//24 623//24 619//24 618//24
f 620//23 624//23 622//23 618//23
f 625//19 621//19 619//19 623//19
f 626//28 627//28 629//28 628//28
f 628//26 629//26 633//26 632//26
f 632//25 633//25 631//25 630//25
f 630//24 631//24 627//24 626//24
f 628//23 632//23 630//23 626//23
f 633//19 629//19 627//19 631//19
f 634//28 635//28 637//28 636//28
f 636//26 637//26 641//26 640//26
f 640//25 641//25 639//25 638//25
f 638//24 639//24 635//24 634//24
f 636//23 640//23 638//23 634//23
f 641//19 637//19 635//19 639//19
f 642//28 643//28 645//28 644//28
f 644//26 645//26 649//26 648//26
f 648//25 649//25 647//25 646//25
f 646//24 647//24 643//24 642//24
f 644//23 648//23 646//23 642//23
f 649//19 645//19 643//19 647//19
usemtl EF_Metal
f 67//4 68//4 70//4 69//4
f 53//5 54//5 56//5 55//5
f 65//7 66//7 68//7 67//7
f 51//2 52//2 54//2 53//2
f 63//8 64//8 66//8 65//8
f 49//11 50//11 52//11 51//11
f 61//1 62//1 64//1 63//1
f 47//9 48//9 50//9 49//9
f 59//10 60//10 62//10 61//10
f 45//6 46//6 48//6 47//6
f 57//13 58//13 60//13 59//13
f 43//3 44//3 46//3 45//3
f 55//12 56//12 58//12 57//12
f 69//14 70//14 72//14 71//14
f 71//15 72//15 74//15 73//15
f 73//16 74//16 76//16 75//16
f 75//17 76//17 78//17 77//17
f 77//18 78//18 80//18 79//18
f 55//23 57//23 59//23 61//23 63//23 65//23 67//23 69//23 71//23 73//23 75//23 77//23 79//23 81//23 43//23 45//23 47//23 49//23 51//23 53//23
f 79//20 80//20 82//20 81//20
f 81//22 82//22 44//22 43//22
f 70//19 68//19 66//19 64//19 62//19 60//19 58//19 56//19 54//19 52//19 50//19 48//19 46//19 44//19 82//19 80//19 78//19 76//19 74//19 72//19
usemtl EF_Grey
f 141//1 142//1 144//1 143//1
f 131//2 132//2 134//2 133//2
f 103//8 104//8 106//8 105//8
f 99//10 100//10 102//10 101//10
f 179//10 180//10 182//10 181//10
f 145//7 146//7 148//7 147//7
f 223//8 224//8 226//8 225//8
f 219//10 220//10 222//10 221//10
f 91//2 92//2 94//2 93//2
f 87//9 88//9 90//9 89//9
f 139//10 140//10 142//10 141//10
f 263//8 264//8 266//8 265//8
f 171//2 172//2 174//2 173//2
f 183//8 184//8 186//8 185//8
f 105//7 106//7 108//7 107//7
f 101//1 102//1 104//1 103//1
f 143//8 144//8 146//8 145//8
f 225//7 226//7 228//7 227//7
f 185//7 186//7 188//7 187//7
f 127//9 128//9 130//9 129//9
f 167//9 168//9 170//9 169//9
f 89//11 90//11 92//11 91//11
f 259//10 260//10 262//10 261//10
f 85//6 86//6 88//6 87//6
f 251//2 252//2 254//2 253//2
f 221//1 222//1 224//1 223//1
f 97//13 98//13 100//13 99//13
f 211//2 212//2 214//2 213//2
f 83//3 84//3 86//3 85//3
f 129//11 130//11 132//11 131//11
f 95//12 96//12 98//12 97//12
f 93//5 94//5 96//5 95//5
f 107//4 108//4 110//4 109//4
f 125//6 126//6 128//6 127//6
f 181//1 182//1 184//1 183//1
f 109//14 110//14 112//14 111//14
f 173//5 174//5 176//5 175//5
f 137//13 138//13 140//13 139//13
f 111//15 112//15 114//15 113//15
f 187//4 188//4 190//4 189//4
f 169//11 170//11 172//11 171//11
f 113//16 114//16 116//16 115//16
f 123//3 124//3 126//3 125//3
f 207//9 208//9 210//9 209//9
f 115//17 116//17 118//17 117//17
f 135//12 136//12 138//12 137//12
f 117//18 118//18 120//18 119//18
f 91//23 93//23 95//23 97//23 99//23 101//23 103//23 105//23 107//23 109//23 111//23 113//23 115//23 117//23 119//23 121//23 83//23 85//23 87//23 89//23
f 119//20 120//20 122//20 121//20
f 133//5 134//5 136//5 135//5
f 147//4 148//4 150//4 149//4
f 121//22 122//22 84//22 83//22
f 102//19 100//19 98//19 96//19 94//19 92//19 90//19 88//19 86//19 84//19 122//19 120//19 118//19 116//19 114//19 112//19 110//19 108//19 106//19 104//19
f 165//6 166//6 168//6 167//6
f 149//14 150//14 152//14 151//14
f 177//13 178//13 180//13 179//13
f 151//15 152//15 154//15 153//15
f 153//16 154//16 156//16 155//16
f 209//11 210//11 212//11 211//11
f 163//3 164//3 166//3 165//3
f 155//17 156//17 158//17 157//17
f 175//12 176//12 178//12 177//12
f 157//18 158//18 160//18 159//18
f 130//19 128//19 126//19 124//19 162//19 160//19 158//19 156//19 154//19 152//19 150//19 148//19 146//19 144//19 142//19 140//19 138//19 136//19 134//19 132//19
f 159//20 160//20 162//20 161//20
f 265//7 266//7 268//7 267//7
f 247//9 248//9 250//9 249//9
f 161//22 162//22 124//22 123//22
f 145//23 147//23 149//23 151//23 153//23 155//23 157//23 159//23 161//23 123//23 125//23 127//23 129//23 131//23 133//23 135//23 137//23 139//23 141//23 143//23
f 205//6 206//6 208//6 207//6
f 261//1 262//1 264//1 263//1
f 189//14 190//14 192//14 191//14
f 253//5 254//5 256//5 255//5
f 217//13 218//13 220//13 219//13
f 191//15 192//15 194//15 193//15
f 267//4 268//4 270//4 269//4
f 249//11 250//11 252//11 251//11
f 193//16 194//16 196//16 195//16
f 203//3 204//3 206//3 205//3
f 195//17 196//17 198//17 197//17
f 215//12 216//12 218//12 217//12
f 197//18 198//18 200//18 199//18
f 169//23 171//23 173//23 175//23 177//23 179//23 181//23 183//23 185//23 187//23 189//23 191//23 193//23 195//23 197//23 199//23 201//23 163//23 165//23 167//23
f 199//20 200//20 202//20 201//20
f 213//5 214//5 216//5 215//5
f 227//4 228//4 230//4 229//4
f 201//22 202//22 164//22 163//22
f 176//19 174//19 172//19 170//19 168//19 166//19 164//19 202//19 200//19 198//19 196//19 194//19 192//19 190//19 188//19 186//19 184//19 182//19 180//19 178//19
f 245//6 246//6 248//6 247//6
f 229//14 230//14 232//14 231//14
f 257//13 258//13 260//13 259//13
f 231//15 232//15 234//15 233//15
f 233//16 234//16 236//16 235//16
f 243//3 244//3 246//3 245//3
f 235//17 236//17 238//17 237//17
f 255//12 256//12 258//12 257//12
f 237//18 238//18 240//18 239//18
f 228//19 226//19 224//19 222//19 220//19 218//19 216//19 214//19 212//19 210//19 208//19 206//19 204//19 242//19 240//19 238//19 236//19 234//19 232//19 230//19
f 239//20 240//20 242//20 241//20
f 241//22 242//22 204//22 203//22
f 213//23 215//23 217//23 219//23 221//23 223//23 225//23 227//23 229//23 231//23 233//23 235//23 237//23 239//23 241//23 203//23 205//23 207//23 209//23 211//23
f 269//14 270//14 272//14 271//14
f 271//15 272//15 274//15 273//15
f 273//16 274//16 276//16 275//16
f 275//17 276//17 278//17 277//17
f 277//18 278//18 280//18 279//18
f 249//23 251//23 253//23 255//23 257//23 259//23 261//23 263//23 265//23 267//23 269//23 271//23 273//23 275//23 277//23 279//23 281//23 243//23 245//23 247//23
f 279//20 280//20 282//20 281//20
f 281//22 282//22 244//22 243//22
f 250//19 248//19 246//19 244//19 282//19 280//19 278//19 276//19 274//19 272//19 270//19 268//19 266//19 264//19 262//19 260//19 258//19 256//19 254//19 252//19
f 652//137 653//137 655//137 654//137
f 654//138 655//138 657//138 656//138
f 656//139 657//139 659//139 658//139
f 658//140 659//140 661//140 660//140
f 660//141 661//141 663//141 662//141
f 662//142 663//142 665//142 664//142
f 655//143 653//143 667//143 665//143 663//143 661//143 659//143 657//143
f 664//144 665//144 667//144 666//144
f 666//145 667//145 653//145 652//145
f 652//146 654//146 656//146 658//146 660//146 662//146 664//146 666//146
usemtl EF_Roof
f 305//7 306//7 308//7 307//7
f 303//8 304//8 306//8 305//8
f 358//21 357//21 368//21 369//21
f 299//10 300//10 302//10 301//10
f 546//27 325//27 336//27 337//27
f 301//1 302//1 304//1 303//1
f 291//2 292//2 294//2 293//2
f 287//9 288//9 290//9 289//9
f 333//29 1//29 344//29
f 334//30 333//30 344//30 345//30
f 347//31 346//31 357//31 358//31
f 344//32 1//32 355//32
f 336//33 335//33 346//33 347//33
f 289//11 290//11 292//11 291//11
f 544//34 323//34 334//34 335//34
f 357//35 356//35 367//35 368//35
f 285//6 286//6 288//6 287//6
f 348//36 347//36 358//36 359//36
f 335//37 334//37 345//37 346//37
f 297//13 298//13 300//13 299//13
f 355//38 1//38 366//38
f 337//39 336//39 347//39 348//39
f 283//3 284//3 286//3 285//3
f 295//12 296//12 298//12 297//12
f 359//40 358//40 369//40 370//40
f 293//5 294//5 296//5 295//5
f 307//4 308//4 310//4 309//4
f 542//41 1//41 333//41
f 309//14 310//14 312//14 311//14
f 346//42 345//42 356//42 357//42
f 311//15 312//15 314//15 313//15
f 313//16 314//16 316//16 315//16
f 315//17 316//17 318//17 317//17
f 345//43 344//43 355//43 356//43
f 325//44 544//44 335//44 336//44
f 317//18 318//18 320//18 319//18
f 304//19 302//19 300//19 298//19 296//19 294//19 292//19 290//19 288//19 286//19 284//19 322//19 320//19 318//19 316//19 314//19 312//19 310//19 308//19 306//19
f 323//45 542//45 333//45 334//45
f 319//20 320//20 322//20 321//20
f 321//22 322//22 284//22 283//22
f 293//23 295//23 297//23 299//23 301//23 303//23 305//23 307//23 309//23 311//23 313//23 315//23 317//23 319//23 321//23 283//23 285//23 287//23 289//23 291//23
f 356//46 355//46 366//46 367//46
f 366//47 1//47 377//47
f 367//48 366//48 377//48 378//48
f 368//49 367//49 378//49 379//49
f 369//50 368//50 379//50 380//50
f 370//51 369//51 380//51 381//51
f 381//52 380//52 391//52 392//52
f 377//53 1//53 388//53
f 378//54 377//54 388//54 389//54
f 379//55 378//55 389//55 390//55
f 380//56 379//56 390//56 391//56
f 392//57 391//57 402//57 403//57
f 388//58 1//58 399//58
f 389//59 388//59 399//59 400//59
f 390//60 389//60 400//60 401//60
f 391//61 390//61 401//61 402//61
f 403//62 402//62 413//62 414//62
f 399//63 1//63 410//63
f 400//64 399//64 410//64 411//64
f 401//65 400//65 411//65 412//65
f 402//66 401//66 412//66 413//66
f 412//67 411//67 422//67 423//67
f 413//68 412//68 423//68 424//68
f 414//69 413//69 424//69 425//69
f 410//70 1//70 421//70
f 411//71 410//71 421//71 422//71
f 422//72 421//72 432//72 433//72
f 423//73 422//73 433//73 434//73
f 424//74 423//74 434//74 435//74
f 425//75 424//75 435//75 436//75
f 421//76 1//76 432//76
f 432//77 1//77 443//77
f 433//78 432//78 443//78 444//78
f 434//79 433//79 444//79 445//79
f 435//80 434//80 445//80 446//80
f 436//81 435//81 446//81 447//81
f 447//82 446//82 457//82 458//82
f 443//83 1//83 454//83
f 444//84 443//84 454//84 455//84
f 445//85 444//85 455//85 456//85
f 446//86 445//86 456//86 457//86
f 458//87 457//87 468//87 469//87
f 454//88 1//88 465//88
f 455//89 454//89 465//89 466//89
f 456//90 455//90 466//90 467//90
f 457//91 456//91 467//91 468//91
f 468//92 467//92 478//92 479//92
f 469//93 468//93 479//93 480//93
f 465//94 1//94 476//94
f 466//95 465//95 476//95 477//95
f 467//96 466//96 477//96 478//96
f 478//97 477//97 488//97 489//97
f 479//98 478//98 489//98 490//98
f 480//101 479//101 490//101 491//101
f 476//102 1//102 487//102
f 477//103 476//103 487//103 488//103
f 488//104 487//104 498//104 499//104
f 489//105 488//105 499//105 500//105
f 490//106 489//106 500//106 501//106
f 491//109 490//109 501//109 502//109
f 487//110 1//110 498//110
f 502//111 501//111 512//111 513//111
f 498//112 1//112 509//112
f 499//113 498//113 509//113 510//113
f 500//114 499//114 510//114 511//114
f 501//115 500//115 511//115 512//115
f 513//118 512//118 523//118 524//118
f 509//119 1//119 520//119
f 510//120 509//120 520//120 521//120
f 511//121 510//121 521//121 522//121
f 512//122 511//122 522//122 523//122
f 524//125 523//125 534//125 535//125
f 520//126 1//126 531//126
f 521//127 520//127 531//127 532//127
f 522//128 521//128 532//128 533//128
f 523//129 522//129 533//129 534//129
f 534//131 533//131 544//131 325//131
f 535//133 534//133 325//133 546//133
f 531//134 1//134 542//134
f 532//135 531//135 542//135 323//135
f 533//136 532//136 323//136 544//136
usemtl EF_Accent
f 538//19 492//19 494//19 503//19 505//19 514//19 516//19 525//19 527//19 536//19
f 493//99 492//99 538//99 539//99
f 495//100 494//100 492//100 493//100
f 493//23 539//23 537//23 528//23 526//23 517//23 515//23 506//23 504//23 495//23
f 504//107 503//107 494//107 495//107
f 506//108 505//108 503//108 504//108
f 515//116 514//116 505//116 506//116
f 517//117 516//117 514//117 515//117
f 526//123 525//123 516//123 517//123
f 528//124 527//124 525//124 526//124
f 537//130 536//130 527//130 528//130
f 539//132 538//132 536//132 537//132
usemtl EF_Wood
f 673//19 669//19 650//19 671//19
f 668//23 672//23 670//23 651//23
f 670//24 671//24 650//24 651//24
f 672//25 673//25 671//25 670//25
f 668//26 669//26 673//26 672//26
f 651//28 650//28 669//28 668//28
