# Blender 5.0.1
# www.blender.org
mtllib SkyRoost.mtl
o SkyRoost
v -1.402068 2.632000 -0.112000
v -1.402068 2.800000 -0.112000
v 0.403931 0.000000 1.680000
v 0.403931 0.280000 1.680000
v -0.238977 0.000000 1.552117
v -0.238977 0.280000 1.552117
v -0.784008 0.000000 1.187939
v -0.784008 0.280000 1.187939
v -1.148186 0.000000 0.642908
v -1.148186 0.280000 0.642908
v -1.276068 0.000000 -0.000000
v -1.276068 0.280000 -0.000000
v -1.148186 0.000000 -0.642908
v -1.148186 0.280000 -0.642908
v -0.784008 0.000000 -1.187940
v -0.784008 0.280000 -1.187940
v -0.238976 0.000000 -1.552117
v -0.238976 0.280000 -1.552117
v 0.403932 0.000000 -1.680000
v 0.403932 0.280000 -1.680000
v 1.046840 0.000000 -1.552117
v 1.046840 0.280000 -1.552117
v 1.591871 0.000000 -1.187939
v 1.591871 0.280000 -1.187939
v 1.956049 0.000000 -0.642908
v 1.956049 0.280000 -0.642908
v 2.083931 0.000000 0.000000
v 2.083931 0.280000 0.000000
v 1.956049 0.000000 0.642908
v 1.956049 0.280000 0.642908
v 1.591871 0.000000 1.187940
v 1.591871 0.280000 1.187940
v 1.046840 0.000000 1.552118
v 1.046840 0.280000 1.552118
v 0.403931 0.280000 0.560000
v 0.403931 10.360000 0.448000
v 0.123931 0.280000 0.484974
v 0.179932 10.360000 0.387979
v -0.081043 0.280000 0.280000
v 0.015952 10.360000 0.224000
v -0.156068 0.280000 -0.000000
v -0.044068 10.360000 -0.000000
v -0.081043 0.280000 -0.280000
v 0.015952 10.360000 -0.224000
v 0.123932 0.280000 -0.484974
v 0.179932 10.360000 -0.387979
v 0.403932 0.280000 -0.560000
v 0.403932 10.360000 -0.448000
v 0.683932 0.280000 -0.484974
v 0.627932 10.360000 -0.387979
v 0.888906 0.280000 -0.280000
v 0.791911 10.360000 -0.224000
v 0.963932 0.280000 0.000000
v 0.851932 10.360000 0.000000
v 0.888906 0.280000 0.280000
v 0.791911 10.360000 0.224000
v 0.683931 0.280000 0.484974
v 0.627931 10.360000 0.387979
v 0.403931 1.680000 0.568400
v 0.403931 1.792000 0.568400
v 0.119732 1.680000 0.492249
v 0.119732 1.792000 0.492249
v -0.088317 1.680000 0.284200
v -0.088317 1.792000 0.284200
v -0.164468 1.680000 -0.000000
v -0.164468 1.792000 -0.000000
v -0.088317 1.680000 -0.284200
v -0.088317 1.792000 -0.284200
v 0.119732 1.680000 -0.492249
v 0.119732 1.792000 -0.492249
v 0.403932 1.680000 -0.568400
v 0.403932 1.792000 -0.568400
v 0.688132 1.680000 -0.492249
v 0.688132 1.792000 -0.492249
v 0.896180 1.680000 -0.284200
v 0.896180 1.792000 -0.284200
v 0.972332 1.680000 0.000000
v 0.972332 1.792000 0.000000
v 0.896180 1.680000 0.284200
v 0.896180 1.792000 0.284200
v 0.688131 1.680000 0.492249
v 0.688131 1.792000 0.492249
v 0.403931 3.360000 0.548800
v 0.403931 3.472000 0.548800
v 0.129531 3.360000 0.475275
v 0.129531 3.472000 0.475275
v -0.071343 3.360000 0.274400
v -0.071343 3.472000 0.274400
v -0.144868 3.360000 -0.000000
v -0.144868 3.472000 -0.000000
v -0.071343 3.360000 -0.274400
v -0.071343 3.472000 -0.274400
v 0.129532 3.360000 -0.475275
v 0.129532 3.472000 -0.475275
v 0.403932 3.360000 -0.548800
v 0.403932 3.472000 -0.548800
v 0.678332 3.360000 -0.475275
v 0.678332 3.472000 -0.475275
v 0.879206 3.360000 -0.274400
v 0.879206 3.472000 -0.274400
v 0.952732 3.360000 0.000000
v 0.952732 3.472000 0.000000
v 0.879206 3.360000 0.274400
v 0.879206 3.472000 0.274400
v 0.678331 3.360000 0.475275
v 0.678331 3.472000 0.475275
v 0.403931 5.040000 0.529200
v 0.403931 5.152000 0.529200
v 0.139332 5.040000 0.458301
v 0.139332 5.152000 0.458301
v -0.054369 5.040000 0.264600
v -0.054369 5.152000 0.264600
v -0.125268 5.040000 -0.000000
v -0.125268 5.152000 -0.000000
v -0.054369 5.040000 -0.264600
v -0.054369 5.152000 -0.264600
v 0.139332 5.040000 -0.458301
v 0.139332 5.152000 -0.458301
v 0.403932 5.040000 -0.529200
v 0.403932 5.152000 -0.529200
v 0.668532 5.040000 -0.458301
v 0.668532 5.152000 -0.458301
v 0.862232 5.040000 -0.264600
v 0.862232 5.152000 -0.264600
v 0.933132 5.040000 0.000000
v 0.933132 5.152000 0.000000
v 0.862232 5.040000 0.264600
v 0.862232 5.152000 0.264600
v 0.668531 5.040000 0.458301
v 0.668531 5.152000 0.458301
v 0.403931 6.720000 0.509600
v 0.403931 6.832000 0.509600
v 0.149132 6.720000 0.441327
v 0.149132 6.832000 0.441327
v -0.037395 6.720000 0.254800
v -0.037395 6.832000 0.254800
v -0.105668 6.720000 -0.000000
v -0.105668 6.832000 -0.000000
v -0.037395 6.720000 -0.254800
v -0.037395 6.832000 -0.254800
v 0.149132 6.720000 -0.441327
v 0.149132 6.832000 -0.441327
v 0.403932 6.720000 -0.509600
v 0.403932 6.832000 -0.509600
v 0.658732 6.720000 -0.441326
v 0.658732 6.832000 -0.441326
v 0.845258 6.720000 -0.254800
v 0.845258 6.832000 -0.254800
v 0.913532 6.720000 0.000000
v 0.913532 6.832000 0.000000
v 0.845258 6.720000 0.254800
v 0.845258 6.832000 0.254800
v 0.658732 6.720000 0.441327
v 0.658732 6.832000 0.441327
v 0.403931 8.400000 0.490000
v 0.403931 8.512000 0.490000
v 0.158932 8.400000 0.424352
v 0.158932 8.512000 0.424352
v -0.020421 8.400000 0.245000
v -0.020421 8.512000 0.245000
v -0.086068 8.400000 -0.000000
v -0.086068 8.512000 -0.000000
v -0.020421 8.400000 -0.245000
v -0.020421 8.512000 -0.245000
v 0.158932 8.400000 -0.424352
v 0.158932 8.512000 -0.424352
v 0.403932 8.400000 -0.490000
v 0.403932 8.512000 -0.490000
v 0.648932 8.400000 -0.424352
v 0.648932 8.512000 -0.424352
v 0.828284 8.400000 -0.245000
v 0.828284 8.512000 -0.245000
v 0.893932 8.400000 0.000000
v 0.893932 8.512000 0.000000
v 0.828284 8.400000 0.245000
v 0.828284 8.512000 0.245000
v 0.648932 8.400000 0.424352
v 0.648932 8.512000 0.424352
v -1.416069 2.800000 1.232000
v -1.416069 2.968000 1.232000
v -2.140220 2.800000 0.996709
v -2.140220 2.968000 0.996709
v -2.587770 2.800000 0.380709
v -2.587770 2.968000 0.380709
v -2.587770 2.800000 -0.380709
v -2.587770 2.968000 -0.380709
v -2.140220 2.800000 -0.996709
v -2.140220 2.968000 -0.996709
v -1.416068 2.800000 -1.232000
v -1.416068 2.968000 -1.232000
v -0.691917 2.800000 -0.996709
v -0.691917 2.968000 -0.996709
v -0.244367 2.800000 -0.380709
v -0.244367 2.968000 -0.380709
v -0.244367 2.800000 0.380709
v -0.244367 2.968000 0.380709
v -0.691917 2.800000 0.996709
v -0.691917 2.968000 0.996709
v 0.417932 2.632000 -0.112000
v 0.417932 2.800000 -0.112000
v -1.402068 2.632000 0.112000
v -1.402068 2.800000 0.112000
v 0.417932 2.632000 0.112000
v 0.417932 2.800000 0.112000
v -0.856068 2.968000 -0.476000
v -0.856068 3.808000 -0.476000
v -0.856069 2.968000 0.476000
v -0.856069 3.808000 0.476000
v -1.976068 2.968000 -0.476000
v -1.976068 3.808000 -0.476000
v -1.976068 2.968000 0.476000
v -1.976068 3.808000 0.476000
v 1.209936 4.872000 1.620042
v 0.589780 5.040000 2.572875
v -1.416069 3.808000 0.896000
v 1.313931 5.208000 2.808166
v -2.312068 3.808000 -0.000000
v 1.313931 5.040000 2.808166
v -1.416068 3.808000 -0.896000
v 1.209936 5.040000 1.620042
v -0.520068 3.808000 -0.000000
v -1.416068 4.368000 -0.000000
v 0.589780 5.208000 2.572875
v 0.142230 5.040000 1.956875
v 0.142230 5.208000 1.956875
v 0.142230 5.040000 1.195457
v 0.142230 5.208000 1.195457
v 0.589780 5.040000 0.579457
v 0.589780 5.208000 0.579457
v 1.313932 5.040000 0.344166
v 1.313932 5.208000 0.344166
v 2.038083 5.040000 0.579457
v 2.038083 5.208000 0.579457
v 2.485633 5.040000 1.195458
v 2.485633 5.208000 1.195458
v 2.485633 5.040000 1.956876
v 2.485633 5.208000 1.956876
v 2.038083 5.040000 2.572875
v 2.038083 5.208000 2.572875
v 0.299937 4.872000 0.043876
v 0.299937 5.040000 0.043876
v 1.403926 4.872000 1.508042
v 1.403926 5.040000 1.508042
v 0.493926 4.872000 -0.068124
v 0.493926 5.040000 -0.068124
v 0.621703 5.208000 1.329192
v 0.621703 6.048000 1.329192
v 1.446159 5.208000 0.853192
v 1.446159 6.048000 0.853192
v 1.181703 5.208000 2.299140
v 1.181703 6.048000 2.299140
v 2.006160 5.208000 1.823141
v 2.006160 6.048000 1.823141
v 1.403927 7.112000 -1.508042
v 0.589780 7.280000 -0.579457
v 1.313931 6.048000 2.472166
v 1.313932 7.447999 -0.344166
v 0.417931 6.048000 1.576166
v 1.313932 7.280000 -0.344166
v 1.313932 6.048000 0.680166
v 1.403927 7.280000 -1.508042
v 2.209931 6.048000 1.576166
v 1.313931 6.608000 1.576166
v 0.589780 7.447999 -0.579457
v 0.142230 7.280000 -1.195457
v 0.142230 7.447999 -1.195457
v 0.142230 7.280000 -1.956875
v 0.142230 7.447999 -1.956875
v 0.589780 7.280000 -2.572875
v 0.589780 7.447999 -2.572875
v 1.313932 7.280000 -2.808166
v 1.313932 7.447999 -2.808166
v 2.038083 7.280000 -2.572875
v 2.038083 7.447999 -2.572875
v 2.485634 7.280000 -1.956875
v 2.485634 7.447999 -1.956875
v 2.485633 7.280000 -1.195457
v 2.485633 7.447999 -1.195457
v 2.038083 7.280000 -0.579457
v 2.038083 7.447999 -0.579457
v 0.493926 7.112000 0.068124
v 0.493926 7.280000 0.068124
v 1.209937 7.112000 -1.620042
v 1.209937 7.280000 -1.620042
v 0.299937 7.112000 -0.043876
v 0.299937 7.280000 -0.043876
v 1.446160 7.448000 -0.853192
v 1.446160 8.288000 -0.853192
v 0.621704 7.448000 -1.329192
v 0.621704 8.288000 -1.329192
v 2.006160 7.448000 -1.823140
v 2.006160 8.288000 -1.823140
v 1.181704 7.448000 -2.299140
v 1.181704 8.288000 -2.299140
v -1.140618 11.452001 0.600762
v -0.567968 10.360000 2.018170
v 1.313932 8.288000 -0.680166
v 0.403931 10.584001 2.240000
v 0.417932 8.288000 -1.576166
v 0.403931 10.360000 2.240000
v 1.313932 8.288000 -2.472166
v -1.140618 10.948000 0.600762
v 2.209932 8.288000 -1.576166
v 1.313932 8.848001 -1.576166
v -0.567968 10.584001 2.018170
v -1.347371 10.360000 1.396617
v -1.347371 10.584001 1.396617
v -1.779907 10.360000 0.498447
v -1.779907 10.584001 0.498447
v -1.779907 10.360000 -0.498447
v -1.779907 10.584001 -0.498447
v -1.347371 10.360000 -1.396617
v -1.347371 10.584001 -1.396617
v -0.567968 10.360000 -2.018170
v -0.567968 10.584001 -2.018170
v 0.403932 10.360000 -2.240000
v 0.403932 10.584001 -2.240000
v 1.375831 10.360000 -2.018170
v 1.375831 10.584001 -2.018170
v 2.155234 10.360000 -1.396617
v 2.155234 10.584001 -1.396617
v 2.587770 10.360000 -0.498447
v 2.587770 10.584001 -0.498447
v 2.587770 10.360000 0.498447
v 2.587770 10.584001 0.498447
v 2.155234 10.360000 1.396617
v 2.155234 10.584001 1.396617
v 1.375831 10.360000 2.018170
v 1.375831 10.584001 2.018170
v 0.403931 10.584000 1.680000
v 0.403931 11.844000 1.680000
v -0.436069 10.584000 1.454923
v -0.436069 11.844000 1.454923
v -1.050991 10.584000 0.840000
v -1.050991 11.844000 0.840000
v -1.276068 10.584000 -0.000000
v -1.276068 11.844000 -0.000000
v -1.050991 10.584000 -0.840000
v -1.050991 11.844000 -0.840000
v -0.436068 10.584000 -1.454923
v -0.436068 11.844000 -1.454923
v 0.403932 10.584000 -1.680000
v 0.403932 11.844000 -1.680000
v 1.243932 10.584000 -1.454922
v 1.243932 11.844000 -1.454922
v 1.858854 10.584000 -0.840000
v 1.858854 11.844000 -0.840000
v 2.083931 10.584000 0.000000
v 2.083931 11.844000 0.000000
v 1.858854 10.584000 0.840000
v 1.858854 11.844000 0.840000
v 1.243931 10.584000 1.454923
v 1.243931 11.844000 1.454923
v -0.888618 10.948000 1.037238
v -0.888618 11.452001 1.037238
v -1.213364 10.948000 0.642761
v -1.213364 11.452001 0.642761
v -0.961364 10.948000 1.079238
v -0.961364 11.452001 1.079238
v 0.151931 10.948000 1.638000
v 0.151931 11.452001 1.638000
v 0.655931 10.948000 1.638000
v 0.655931 11.452001 1.638000
v 0.151931 10.948000 1.722000
v 0.151931 11.452001 1.722000
v 0.655931 10.948000 1.722000
v 0.655931 11.452001 1.722000
v 1.696481 10.948000 1.037239
v 1.696481 11.452001 1.037239
v 1.948481 10.948000 0.600762
v 1.948481 11.452001 0.600762
v 1.769227 10.948000 1.079239
v 1.769227 11.452001 1.079239
v 2.021227 10.948000 0.642762
v 2.021227 11.452001 0.642762
v 1.948481 10.948000 -0.600761
v 1.948481 11.452001 -0.600761
v 1.696481 10.948000 -1.037238
v 1.696481 11.452001 -1.037238
v 2.021227 10.948000 -0.642761
v 2.021227 11.452001 -0.642761
v 1.769227 10.948000 -1.079238
v 1.769227 11.452001 -1.079238
v 0.655932 10.948000 -1.638000
v 0.655932 11.452001 -1.638000
v 0.151932 10.948000 -1.638000
v 0.151932 11.452001 -1.638000
v 0.655932 10.948000 -1.722000
v 0.655932 11.452001 -1.722000
v 0.151932 10.948000 -1.722000
v 0.151932 11.452001 -1.722000
v -0.888618 10.948000 -1.037238
v -0.888618 11.452001 -1.037238
v -1.140618 10.948000 -0.600762
v -1.140618 11.452001 -0.600762
v -0.961364 10.948000 -1.079238
v -0.961364 11.452001 -1.079238
v -1.213364 10.948000 -0.642762
v -1.213364 11.452001 -0.642762
v 0.403932 13.865492 0.084000
v 0.403932 13.888000 0.000000
v 0.403931 11.844000 2.128000
v 0.403932 13.243999 0.056000
v -0.660069 11.844000 1.842902
v 0.375932 13.243999 0.048497
v -1.438971 11.844000 1.064000
v 0.355434 13.243999 0.028000
v -1.724068 11.844000 -0.000000
v 0.347932 13.243999 0.000000
v -1.438970 11.844000 -1.064000
v 0.355434 13.243999 -0.028000
v -0.660068 11.844000 -1.842902
v 0.375932 13.243999 -0.048497
v 0.403932 11.844000 -2.128000
v 0.403932 13.243999 -0.056000
v 1.467932 11.844000 -1.842902
v 0.431932 13.243999 -0.048497
v 2.246834 11.844000 -1.064000
v 0.452429 13.243999 -0.028000
v 2.531931 11.844000 0.000000
v 0.459932 13.243999 0.000000
v 2.246834 11.844000 1.064000
v 0.452429 13.243999 0.028000
v 1.467932 11.844000 1.842902
v 0.431932 13.243999 0.048497
v 0.403932 13.216001 0.042000
v 0.403932 13.664000 0.042000
v 0.367558 13.216001 0.021000
v 0.367558 13.664000 0.021000
v 0.367558 13.216001 -0.021000
v 0.367558 13.664000 -0.021000
v 0.403932 13.216001 -0.042000
v 0.403932 13.664000 -0.042000
v 0.440305 13.216001 -0.021000
v 0.440305 13.664000 -0.021000
v 0.440305 13.216001 0.021000
v 0.440305 13.664000 0.021000
v 0.403932 13.804000 0.145492
v 0.403932 13.720000 0.168000
v 0.403932 13.636001 0.145492
v 0.403932 13.574508 0.084000
v 0.403932 13.552000 0.000000
v 0.344535 13.865492 0.059397
v -0.695069 10.584001 1.807902
v 0.301053 13.804000 0.102879
v 0.285138 13.720000 0.118794
v 0.301053 13.636001 0.102879
v 0.344535 13.574508 0.059397
v -0.625069 10.920000 1.877902
v 0.319932 13.865492 0.000000
v -0.625069 10.584001 1.877902
v 0.258439 13.804000 0.000000
v 0.235932 13.720000 0.000000
v 0.258439 13.636001 0.000000
v 0.319932 13.574508 0.000000
v -0.625069 10.920000 1.807902
v 0.344535 13.865492 -0.059397
v -0.625069 10.584001 1.807902
v 0.301053 13.804000 -0.102879
v 0.285138 13.720000 -0.118794
v 0.301053 13.636001 -0.102879
v 0.344535 13.574508 -0.059397
v -1.473971 10.920000 1.099000
v 0.403932 13.865492 -0.084000
v -1.473971 10.584001 1.099000
v 0.403932 13.804000 -0.145492
v 0.403932 13.720000 -0.168000
v 0.403932 13.636001 -0.145492
v 0.403932 13.574508 -0.084000
v -1.473971 10.920000 1.029000
v 0.463329 13.865492 -0.059397
v -1.473971 10.584001 1.029000
v 0.506810 13.804000 -0.102879
v 0.522725 13.720000 -0.118794
v 0.506810 13.636001 -0.102879
v 0.463329 13.574508 -0.059397
v -1.403971 10.920000 1.099000
v 0.487932 13.865492 0.000000
v -1.403971 10.584001 1.099000
v 0.549424 13.804000 0.000000
v 0.571932 13.720000 0.000000
v 0.549424 13.636001 0.000000
v 0.487932 13.574508 0.000000
v -1.403971 10.920000 1.029000
v 0.463329 13.865492 0.059397
v -1.403971 10.584001 1.029000
v 0.506810 13.804000 0.102879
v 0.522725 13.720000 0.118794
v 0.506810 13.636001 0.102879
v 0.463329 13.574508 0.059397
v -1.759068 10.920000 0.035000
v -1.759068 10.584001 0.035000
v -1.759068 10.920000 -0.035000
v -1.759068 10.584001 -0.035000
v -1.689068 10.920000 0.035000
v -1.689068 10.584001 0.035000
v -1.689068 10.920000 -0.035000
v -1.689068 10.584001 -0.035000
v -0.695069 10.920000 1.807902
v -0.695069 10.584001 1.877902
v -0.695069 10.920000 1.877902
v 0.438931 10.584001 2.093000
v 0.438931 10.920000 2.093000
v 0.438931 10.584001 2.163000
v 0.438931 10.920000 2.163000
v 0.368931 10.584001 2.093000
v 0.368931 10.920000 2.093000
v 0.368931 10.584001 2.163000
v 0.368931 10.920000 2.163000
v 1.502931 10.584001 1.807902
v 1.502931 10.920000 1.807902
v 1.502931 10.584001 1.877902
v 1.502931 10.920000 1.877902
v 1.432931 10.584001 1.807902
v 1.432931 10.920000 1.807902
v 1.432931 10.584001 1.877902
v 1.432931 10.920000 1.877902
v 2.281834 10.584001 1.029000
v 2.281834 10.920000 1.029000
v 2.281834 10.584001 1.099000
v 2.281834 10.920000 1.099000
v 2.211833 10.584001 1.029000
v 2.211833 10.920000 1.029000
v 2.211833 10.584001 1.099000
v 2.211833 10.920000 1.099000
v 2.566931 10.584001 -0.035000
v 2.566931 10.920000 -0.035000
v 2.566931 10.584001 0.035000
v 2.566931 10.920000 0.035000
v 2.496931 10.584001 -0.035000
v 2.496931 10.920000 -0.035000
v 2.496931 10.584001 0.035000
v 2.496931 10.920000 0.035000
v 2.281834 10.584001 -1.099000
v 2.281834 10.920000 -1.099000
v 2.281834 10.584001 -1.029000
v 2.281834 10.920000 -1.029000
v 2.211834 10.584001 -1.099000
v 2.211834 10.920000 -1.099000
v 2.211834 10.584001 -1.029000
v 2.211834 10.920000 -1.029000
v 1.502932 10.584001 -1.877902
v 1.502932 10.920000 -1.877902
v 1.502932 10.584001 -1.807902
v 1.502932 10.920000 -1.807902
v 1.432932 10.584001 -1.877902
v 1.432932 10.920000 -1.877902
v 1.432932 10.584001 -1.807902
v 1.432932 10.920000 -1.807902
v 0.438932 10.584001 -2.163000
v 0.438932 10.920000 -2.163000
v 0.438932 10.584001 -2.093000
v 0.438932 10.920000 -2.093000
v 0.368932 10.584001 -2.163000
v 0.368932 10.920000 -2.163000
v 0.368932 10.584001 -2.093000
v 0.368932 10.920000 -2.093000
v -0.625068 10.584001 -1.877902
v -0.625068 10.920000 -1.877902
v -0.625068 10.584001 -1.807902
v -0.625068 10.920000 -1.807902
v -0.695068 10.584001 -1.877902
v -0.695068 10.920000 -1.877902
v -0.695068 10.584001 -1.807902
v -0.695068 10.920000 -1.807902
v -1.403970 10.584001 -1.099000
v -1.403970 10.920000 -1.099000
v -1.403970 10.584001 -1.029000
v -1.403970 10.920000 -1.029000
v -1.473970 10.584001 -1.099000
v -1.473970 10.920000 -1.099000
v -1.473970 10.584001 -1.029000
v -1.473970 10.920000 -1.029000
vn 0.9659 0.0107 0.2588
vn -0.7071 0.0107 -0.7071
vn -0.1951 -0.0000 0.9808
vn -0.0000 1.0000 -0.0000
vn -0.3090 -0.0000 0.9511
vn -0.5556 -0.0000 0.8315
vn -0.2588 -0.0000 -0.9659
vn -0.8315 -0.0000 0.5556
vn 0.9659 0.0107 -0.2588
vn -0.9659 0.0107 -0.2588
vn -0.9808 -0.0000 0.1951
vn -0.2588 -0.0000 0.9659
vn -0.9659 -0.0000 0.2588
vn -0.9808 -0.0000 -0.1951
vn -0.7071 -0.0000 0.7071
vn -0.8315 -0.0000 -0.5556
vn 0.7071 0.0107 -0.7071
vn -0.9659 0.0107 0.2588
vn -0.5556 -0.0000 -0.8315
vn -0.7071 -0.0000 -0.7071
vn -0.1951 -0.0000 -0.9808
vn 0.2588 -0.0000 -0.9659
vn 0.1951 -0.0000 -0.9808
vn 0.2588 0.0107 -0.9659
vn -0.7071 0.0107 0.7071
vn 0.5556 -0.0000 -0.8315
vn 0.8315 -0.0000 -0.5556
vn -0.9659 -0.0000 -0.2588
vn 0.9808 -0.0000 -0.1951
vn -0.2588 0.0107 -0.9659
vn -0.2588 0.0107 0.9659
vn 0.9808 -0.0000 0.1951
vn 0.8315 -0.0000 0.5556
vn 0.5556 -0.0000 0.8315
vn 0.1951 -0.0000 0.9808
vn -0.0000 -1.0000 -0.0000
vn 0.7071 0.0107 0.7071
vn 0.2588 0.0107 0.9659
vn 0.7071 -0.0000 -0.7071
vn 0.9659 -0.0000 -0.2588
vn -0.8090 -0.0000 0.5878
vn 0.9659 -0.0000 0.2588
vn -1.0000 -0.0000 -0.0000
vn 0.7071 -0.0000 0.7071
vn 0.2588 -0.0000 0.9659
vn 0.5000 -0.0000 -0.8660
vn -0.8090 -0.0000 -0.5878
vn 0.8090 -0.0000 -0.5878
vn -0.0000 -0.0000 -1.0000
vn -0.0000 -0.0000 1.0000
vn 0.3090 -0.0000 -0.9511
vn 1.0000 -0.0000 -0.0000
vn -0.4683 0.7493 0.4683
vn -0.8660 -0.0000 0.5000
vn -0.3090 -0.0000 -0.9511
vn -0.4683 0.7493 -0.4683
vn 0.8090 -0.0000 0.5878
vn 0.5000 -0.0000 0.8660
vn 0.3090 -0.0000 0.9511
vn 0.4683 0.7493 -0.4683
vn -0.5000 -0.0000 -0.8660
vn 0.4683 0.7493 0.4683
vn 0.8660 -0.0000 0.5000
vn 0.8660 -0.0000 -0.5000
vn -0.5000 -0.0000 0.8660
vn -0.6235 -0.0000 0.7818
vn -0.2225 -0.0000 0.9749
vn -0.8660 -0.0000 -0.5000
vn -0.9010 -0.0000 0.4339
vn -0.9010 -0.0000 -0.4339
vn -0.6235 -0.0000 -0.7818
vn -0.2225 -0.0000 -0.9749
vn 0.2225 -0.0000 -0.9749
vn 0.6235 -0.0000 -0.7818
vn 0.9010 -0.0000 -0.4339
vn 0.9010 -0.0000 0.4339
vn 0.6235 -0.0000 0.7818
vn 0.2225 -0.0000 0.9749
vn -0.6786 -0.6786 -0.2811
vn -0.8968 0.2403 0.3715
vn -0.1484 0.8194 0.5537
vn -0.8968 0.2403 -0.3715
vn -0.3715 0.2403 0.8968
vn -0.4053 0.8194 0.4053
vn -0.2573 0.9604 0.1066
vn -0.5537 0.8194 0.1484
vn -0.8968 -0.2403 0.3715
vn -0.5537 0.8194 -0.1484
vn -0.1066 -0.9604 0.2573
vn -0.4053 0.8194 -0.4053
vn -0.6786 0.6786 0.2811
vn -0.1484 0.8194 -0.5537
vn -0.1066 0.9604 0.2573
vn -0.6786 -0.6786 0.2811
vn 0.1484 0.8194 -0.5537
vn -0.2811 -0.6786 0.6786
vn 0.4053 0.8194 -0.4053
vn 0.5537 0.8194 -0.1484
vn -0.3715 -0.2403 0.8968
vn -0.2573 -0.9604 0.1066
vn 0.5537 0.8194 0.1484
vn -0.2811 0.6786 0.6786
vn 0.4053 0.8194 0.4053
vn -0.2574 -0.9604 -0.1066
vn 0.1484 0.8194 0.5537
vn -0.2573 0.9604 -0.1066
vn -0.6786 0.6786 -0.2811
vn -0.8968 -0.2403 -0.3715
vn -0.1066 -0.9604 -0.2573
vn -0.2811 -0.6786 -0.6786
vn -0.3715 0.2403 -0.8968
vn -0.1066 0.9604 -0.2573
vn -0.2811 0.6786 -0.6786
vn -0.3715 -0.2403 -0.8968
vn 0.1066 -0.9604 -0.2573
vn 0.2811 -0.6786 -0.6786
vn 0.3715 0.2403 -0.8968
vn 0.1066 0.9604 -0.2573
vn 0.2811 0.6786 -0.6786
vn 0.3715 -0.2403 -0.8968
vn 0.6786 -0.6786 -0.2811
vn 0.8968 0.2403 -0.3715
vn 0.2573 0.9604 -0.1066
vn 0.6786 0.6786 -0.2811
vn 0.8968 -0.2403 -0.3715
vn 0.2574 -0.9604 -0.1066
vn 0.8968 0.2403 0.3715
vn 0.2573 0.9604 0.1066
vn 0.6786 0.6786 0.2811
vn 0.8968 -0.2403 0.3715
vn 0.2574 -0.9604 0.1066
vn 0.6786 -0.6786 0.2811
vn 0.1066 0.9604 0.2573
vn 0.2811 0.6786 0.6786
vn 0.3715 -0.2403 0.8968
vn 0.1066 -0.9604 0.2573
vn 0.2811 -0.6786 0.6786
vn 0.3715 0.2403 0.8968
s 0
usemtl EF_Path
f 3//3 4//3 6//3 5//3
f 5//6 6//6 8//6 7//6
f 7//8 8//8 10//8 9//8
f 9//11 10//11 12//11 11//11
f 11//14 12//14 14//14 13//14
f 13//16 14//16 16//16 15//16
f 15//19 16//19 18//19 17//19
f 17//21 18//21 20//21 19//21
f 19//23 20//23 22//23 21//23
f 21//26 22//26 24//26 23//26
f 23//27 24//27 26//27 25//27
f 25//29 26//29 28//29 27//29
f 27//32 28//32 30//32 29//32
f 29//33 30//33 32//33 31//33
f 6//4 4//4 34//4 32//4 30//4 28//4 26//4 24//4 22//4 20//4 18//4 16//4 14//4 12//4 10//4 8//4
f 31//34 32//34 34//34 33//34
f 33//35 34//35 4//35 3//35
f 3//36 5//36 7//36 9//36 11//36 13//36 15//36 17//36 19//36 21//36 23//36 25//36 27//36 29//36 31//36 33//36
usemtl EF_Wood
f 53//1 54//1 56//1 55//1
f 43//2 44//2 46//2 45//2
f 46//4 44//4 42//4 40//4 38//4 36//4 58//4 56//4 54//4 52//4 50//4 48//4
f 51//9 52//9 54//9 53//9
f 41//10 42//10 44//10 43//10
f 49//17 50//17 52//17 51//17
f 39//18 40//18 42//18 41//18
f 47//24 48//24 50//24 49//24
f 37//25 38//25 40//25 39//25
f 45//30 46//30 48//30 47//30
f 35//31 36//31 38//31 37//31
f 55//37 56//37 58//37 57//37
f 57//38 58//38 36//38 35//38
f 55//36 57//36 35//36 37//36 39//36 41//36 43//36 45//36 47//36 49//36 51//36 53//36
usemtl EF_White
f 93//7 94//7 96//7 95//7
f 69//7 70//7 72//7 71//7
f 59//12 60//12 62//12 61//12
f 87//13 88//13 90//13 89//13
f 111//13 112//13 114//13 113//13
f 109//15 110//15 112//15 111//15
f 115//20 116//20 118//20 117//20
f 63//13 64//13 66//13 65//13
f 67//20 68//20 70//20 69//20
f 119//22 120//22 122//22 121//22
f 135//13 136//13 138//13 137//13
f 133//15 134//15 136//15 135//15
f 113//28 114//28 116//28 115//28
f 61//15 62//15 64//15 63//15
f 167//22 168//22 170//22 169//22
f 91//20 92//20 94//20 93//20
f 157//15 158//15 160//15 159//15
f 85//15 86//15 88//15 87//15
f 163//20 164//20 166//20 165//20
f 71//22 72//22 74//22 73//22
f 65//28 66//28 68//28 67//28
f 73//39 74//39 76//39 75//39
f 117//7 118//7 120//7 119//7
f 83//12 84//12 86//12 85//12
f 75//40 76//40 78//40 77//40
f 139//20 140//20 142//20 141//20
f 77//42 78//42 80//42 79//42
f 66//4 64//4 62//4 60//4 82//4 80//4 78//4 76//4 74//4 72//4 70//4 68//4
f 79//44 80//44 82//44 81//44
f 95//22 96//22 98//22 97//22
f 89//28 90//28 92//28 91//28
f 81//45 82//45 60//45 59//45
f 63//36 65//36 67//36 69//36 71//36 73//36 75//36 77//36 79//36 81//36 59//36 61//36
f 97//39 98//39 100//39 99//39
f 107//12 108//12 110//12 109//12
f 159//13 160//13 162//13 161//13
f 99//40 100//40 102//40 101//40
f 141//7 142//7 144//7 143//7
f 101//42 102//42 104//42 103//42
f 87//36 89//36 91//36 93//36 95//36 97//36 99//36 101//36 103//36 105//36 83//36 85//36
f 103//44 104//44 106//44 105//44
f 161//28 162//28 164//28 163//28
f 105//45 106//45 84//45 83//45
f 98//4 96//4 94//4 92//4 90//4 88//4 86//4 84//4 106//4 104//4 102//4 100//4
f 121//39 122//39 124//39 123//39
f 165//7 166//7 168//7 167//7
f 131//12 132//12 134//12 133//12
f 123//40 124//40 126//40 125//40
f 125//42 126//42 128//42 127//42
f 114//4 112//4 110//4 108//4 130//4 128//4 126//4 124//4 122//4 120//4 118//4 116//4
f 127//44 128//44 130//44 129//44
f 143//22 144//22 146//22 145//22
f 137//28 138//28 140//28 139//28
f 129//45 130//45 108//45 107//45
f 117//36 119//36 121//36 123//36 125//36 127//36 129//36 107//36 109//36 111//36 113//36 115//36
f 145//39 146//39 148//39 147//39
f 155//12 156//12 158//12 157//12
f 147//40 148//40 150//40 149//40
f 149//42 150//42 152//42 151//42
f 137//36 139//36 141//36 143//36 145//36 147//36 149//36 151//36 153//36 131//36 133//36 135//36
f 151//44 152//44 154//44 153//44
f 153//45 154//45 132//45 131//45
f 144//4 142//4 140//4 138//4 136//4 134//4 132//4 154//4 152//4 150//4 148//4 146//4
f 169//39 170//39 172//39 171//39
f 171//40 172//40 174//40 173//40
f 173//42 174//42 176//42 175//42
f 165//36 167//36 169//36 171//36 173//36 175//36 177//36 155//36 157//36 159//36 161//36 163//36
f 175//44 176//44 178//44 177//44
f 177//45 178//45 156//45 155//45
f 168//4 166//4 164//4 162//4 160//4 158//4 156//4 178//4 176//4 174//4 172//4 170//4
f 498//52 497//52 495//52 496//52
f 496//50 495//50 491//50 492//50
f 492//43 491//43 493//43 494//43
f 494//49 493//49 497//49 498//49
f 496//36 492//36 494//36 498//36
f 491//4 495//4 497//4 493//4
f 486//52 484//52 477//52 479//52
f 479//50 477//50 463//50 465//50
f 465//43 463//43 470//43 472//43
f 472//49 470//49 484//49 486//49
f 479//36 465//36 472//36 486//36
f 463//4 477//4 484//4 470//4
f 458//52 456//52 449//52 451//52
f 451//50 449//50 501//50 500//50
f 500//43 501//43 499//43 444//43
f 444//49 499//49 456//49 458//49
f 451//36 500//36 444//36 458//36
f 501//4 449//4 456//4 499//4
f 502//52 503//52 505//52 504//52
f 504//50 505//50 509//50 508//50
f 508//43 509//43 507//43 506//43
f 506//49 507//49 503//49 502//49
f 504//36 508//36 506//36 502//36
f 509//4 505//4 503//4 507//4
f 510//52 511//52 513//52 512//52
f 512//50 513//50 517//50 516//50
f 516//43 517//43 515//43 514//43
f 514//49 515//49 511//49 510//49
f 512//36 516//36 514//36 510//36
f 517//4 513//4 511//4 515//4
f 518//52 519//52 521//52 520//52
f 520//50 521//50 525//50 524//50
f 524//43 525//43 523//43 522//43
f 522//49 523//49 519//49 518//49
f 520//36 524//36 522//36 518//36
f 525//4 521//4 519//4 523//4
f 526//52 527//52 529//52 528//52
f 528//50 529//50 533//50 532//50
f 532//43 533//43 531//43 530//43
f 530//49 531//49 527//49 526//49
f 528//36 532//36 530//36 526//36
f 533//4 529//4 527//4 531//4
f 534//52 535//52 537//52 536//52
f 536//50 537//50 541//50 540//50
f 540//43 541//43 539//43 538//43
f 538//49 539//49 535//49 534//49
f 536//36 540//36 538//36 534//36
f 541//4 537//4 535//4 539//4
f 542//52 543//52 545//52 544//52
f 544//50 545//50 549//50 548//50
f 548//43 549//43 547//43 546//43
f 546//49 547//49 543//49 542//49
f 544//36 548//36 546//36 542//36
f 549//4 545//4 543//4 547//4
f 550//52 551//52 553//52 552//52
f 552//50 553//50 557//50 556//50
f 556//43 557//43 555//43 554//43
f 554//49 555//49 551//49 550//49
f 552//36 556//36 554//36 550//36
f 557//4 553//4 551//4 555//4
f 558//52 559//52 561//52 560//52
f 560//50 561//50 565//50 564//50
f 564//43 565//43 563//43 562//43
f 562//49 563//49 559//49 558//49
f 560//36 564//36 562//36 558//36
f 565//4 561//4 559//4 563//4
f 566//52 567//52 569//52 568//52
f 568//50 569//50 573//50 572//50
f 572//43 573//43 571//43 570//43
f 570//49 571//49 567//49 566//49
f 568//36 572//36 570//36 566//36
f 573//4 569//4 567//4 571//4
usemtl EF_WoodDark
f 218//5 216//5 223//5 214//5
f 181//41 182//41 184//41 183//41
f 201//43 202//43 2//43 1//43
f 185//47 186//47 188//47 187//47
f 191//48 192//48 194//48 193//48
f 183//43 184//43 186//43 185//43
f 203//50 204//50 202//50 201//50
f 189//51 190//51 192//51 191//51
f 199//52 200//52 204//52 203//52
f 187//55 188//55 190//55 189//55
f 179//5 180//5 182//5 181//5
f 214//41 223//41 225//41 224//41
f 199//36 203//36 201//36 1//36
f 204//4 200//4 2//4 202//4
f 193//52 194//52 196//52 195//52
f 1//49 2//49 200//49 199//49
f 189//36 191//36 193//36 195//36 197//36 179//36 181//36 183//36 185//36 187//36
f 195//57 196//57 198//57 197//57
f 197//59 198//59 180//59 179//59
f 192//4 190//4 188//4 186//4 184//4 182//4 180//4 198//4 196//4 194//4
f 224//43 225//43 227//43 226//43
f 245//4 241//4 220//4 243//4
f 226//47 227//47 229//47 228//47
f 240//36 244//36 242//36 213//36
f 255//41 264//41 266//41 265//41
f 228//55 229//55 231//55 230//55
f 242//58 243//58 220//58 213//58
f 259//5 257//5 264//5 255//5
f 230//51 231//51 233//51 232//51
f 244//64 245//64 243//64 242//64
f 232//48 233//48 235//48 234//48
f 240//61 241//61 245//61 244//61
f 234//52 235//52 237//52 236//52
f 213//54 220//54 241//54 240//54
f 214//36 224//36 226//36 228//36 230//36 232//36 234//36 236//36 238//36 218//36
f 236//57 237//57 239//57 238//57
f 238//59 239//59 216//59 218//59
f 225//4 223//4 216//4 239//4 237//4 235//4 233//4 231//4 229//4 227//4
f 265//43 266//43 268//43 267//43
f 286//4 282//4 261//4 284//4
f 267//47 268//47 270//47 269//47
f 281//36 285//36 283//36 254//36
f 296//66 305//66 307//66 306//66
f 269//55 270//55 272//55 271//55
f 283//46 284//46 261//46 254//46
f 300//67 298//67 305//67 296//67
f 271//51 272//51 274//51 273//51
f 285//68 286//68 284//68 283//68
f 273//48 274//48 276//48 275//48
f 281//65 282//65 286//65 285//65
f 275//52 276//52 278//52 277//52
f 254//63 261//63 282//63 281//63
f 255//36 265//36 267//36 269//36 271//36 273//36 275//36 277//36 279//36 259//36
f 277//57 278//57 280//57 279//57
f 279//59 280//59 257//59 259//59
f 266//4 264//4 257//4 280//4 278//4 276//4 274//4 272//4 270//4 268//4
f 306//69 307//69 309//69 308//69
f 308//43 309//43 311//43 310//43
f 310//70 311//70 313//70 312//70
f 312//71 313//71 315//71 314//71
f 314//72 315//72 317//72 316//72
f 316//73 317//73 319//73 318//73
f 318//74 319//74 321//74 320//74
f 320//75 321//75 323//75 322//75
f 322//52 323//52 325//52 324//52
f 324//76 325//76 327//76 326//76
f 296//36 306//36 308//36 310//36 312//36 314//36 316//36 318//36 320//36 322//36 324//36 326//36 328//36 300//36
f 326//77 327//77 329//77 328//77
f 328//78 329//78 298//78 300//78
f 307//4 305//4 298//4 329//4 327//4 325//4 323//4 321//4 319//4 317//4 315//4 313//4 311//4 309//4
usemtl EF_Cream
f 212//4 208//4 206//4 210//4
f 209//49 210//49 206//49 205//49
f 205//52 206//52 208//52 207//52
f 250//54 251//54 247//54 246//54
f 211//43 212//43 210//43 209//43
f 207//36 211//36 209//36 205//36
f 207//50 208//50 212//50 211//50
f 252//58 253//58 251//58 250//58
f 246//61 247//61 249//61 248//61
f 291//63 292//63 288//63 287//63
f 253//4 249//4 247//4 251//4
f 248//36 252//36 250//36 246//36
f 248//64 249//64 253//64 252//64
f 293//46 294//46 292//46 291//46
f 287//65 288//65 290//65 289//65
f 294//4 290//4 288//4 292//4
f 289//36 293//36 291//36 287//36
f 289//68 290//68 294//68 293//68
f 344//39 345//39 347//39 346//39
f 334//13 335//13 337//13 336//13
f 342//22 343//22 345//22 344//22
f 332//15 333//15 335//15 334//15
f 340//7 341//7 343//7 342//7
f 330//12 331//12 333//12 332//12
f 338//20 339//20 341//20 340//20
f 336//28 337//28 339//28 338//28
f 346//40 347//40 349//40 348//40
f 348//42 349//42 351//42 350//42
f 341//4 339//4 337//4 335//4 333//4 331//4 353//4 351//4 349//4 347//4 345//4 343//4
f 350//44 351//44 353//44 352//44
f 352//45 353//45 331//45 330//45
f 346//36 348//36 350//36 352//36 330//36 332//36 334//36 336//36 338//36 340//36 342//36 344//36
usemtl EF_Roof
f 215//53 222//53 217//53
f 217//56 222//56 219//56
f 215//36 217//36 219//36 221//36
f 219//60 222//60 221//60
f 258//56 263//56 260//56
f 221//62 222//62 215//62
f 256//53 263//53 258//53
f 258//36 260//36 262//36 256//36
f 260//60 263//60 262//60
f 299//56 304//56 301//56
f 262//62 263//62 256//62
f 297//53 304//53 299//53
f 299//36 301//36 303//36 297//36
f 301//60 304//60 303//60
f 303//62 304//62 297//62
f 402//81 403//81 405//81 404//81
f 404//84 405//84 407//84 406//84
f 406//86 407//86 409//86 408//86
f 408//88 409//88 411//88 410//88
f 410//90 411//90 413//90 412//90
f 412//92 413//92 415//92 414//92
f 414//95 415//95 417//95 416//95
f 416//97 417//97 419//97 418//97
f 418//98 419//98 421//98 420//98
f 420//101 421//101 423//101 422//101
f 405//4 403//4 425//4 423//4 421//4 419//4 417//4 415//4 413//4 411//4 409//4 407//4
f 422//103 423//103 425//103 424//103
f 424//105 425//105 403//105 402//105
f 402//36 404//36 406//36 408//36 410//36 412//36 414//36 416//36 418//36 420//36 422//36 424//36
usemtl EF_Glass
f 370//46 371//46 375//46 374//46
f 360//49 361//49 363//49 362//49
f 375//4 371//4 369//4 373//4
f 358//54 359//54 357//54 356//54
f 362//52 363//52 367//52 366//52
f 376//54 377//54 379//54 378//54
f 356//61 357//61 295//61 302//61
f 374//63 375//63 373//63 372//63
f 366//50 367//50 365//50 364//50
f 378//61 379//61 383//61 382//61
f 354//36 358//36 356//36 302//36
f 372//65 373//65 369//65 368//65
f 364//43 365//43 361//43 360//43
f 378//36 382//36 380//36 376//36
f 359//4 355//4 295//4 357//4
f 370//36 374//36 372//36 368//36
f 362//36 366//36 364//36 360//36
f 380//58 381//58 377//58 376//58
f 368//68 369//68 371//68 370//68
f 354//58 355//58 359//58 358//58
f 302//64 295//64 355//64 354//64
f 382//64 383//64 381//64 380//64
f 367//4 363//4 361//4 365//4
f 383//4 379//4 377//4 381//4
f 384//50 385//50 387//50 386//50
f 386//43 387//43 391//43 390//43
f 390//49 391//49 389//49 388//49
f 388//52 389//52 385//52 384//52
f 386//36 390//36 388//36 384//36
f 391//4 387//4 385//4 389//4
f 392//63 393//63 395//63 394//63
f 394//65 395//65 399//65 398//65
f 398//68 399//68 397//68 396//68
f 396//46 397//46 393//46 392//46
f 394//36 398//36 396//36 392//36
f 399//4 395//4 393//4 397//4
usemtl EF_GreyDark
f 430//61 431//61 433//61 432//61
f 435//4 433//4 431//4 429//4 427//4 437//4
f 436//58 437//58 427//58 426//58
f 428//43 429//43 431//43 430//43
f 434//52 435//52 437//52 436//52
f 432//36 434//36 436//36 426//36 428//36 430//36
f 426//65 427//65 429//65 428//65
f 432//46 433//46 435//46 434//46
usemtl EF_Accent
f 455//79 454//79 461//79 462//79
f 446//80 445//80 452//80 453//80
f 453//82 452//82 459//82 460//82
f 439//83 438//83 445//83 446//83
f 443//85 401//85 450//85
f 447//87 446//87 453//87 454//87
f 442//89 441//89 448//89
f 445//91 443//91 450//91 452//91
f 400//93 401//93 443//93
f 448//94 447//94 454//94 455//94
f 441//96 440//96 447//96 448//96
f 440//99 439//99 446//99 447//99
f 442//100 448//100 455//100
f 438//102 400//102 443//102 445//102
f 442//104 455//104 462//104
f 450//106 401//106 457//106
f 452//107 450//107 457//107 459//107
f 454//108 453//108 460//108 461//108
f 442//109 462//109 469//109
f 462//110 461//110 468//110 469//110
f 460//111 459//111 466//111 467//111
f 457//112 401//112 464//112
f 459//113 457//113 464//113 466//113
f 461//114 460//114 467//114 468//114
f 442//115 469//115 476//115
f 469//116 468//116 475//116 476//116
f 467//117 466//117 473//117 474//117
f 464//118 401//118 471//118
f 466//119 464//119 471//119 473//119
f 468//120 467//120 474//120 475//120
f 476//121 475//121 482//121 483//121
f 474//122 473//122 480//122 481//122
f 471//123 401//123 478//123
f 473//124 471//124 478//124 480//124
f 475//125 474//125 481//125 482//125
f 442//126 476//126 483//126
f 481//127 480//127 487//127 488//127
f 478//128 401//128 485//128
f 480//129 478//129 485//129 487//129
f 482//130 481//130 488//130 489//130
f 442//131 483//131 490//131
f 483//132 482//132 489//132 490//132
f 485//133 401//133 400//133
f 487//134 485//134 400//134 438//134
f 489//135 488//135 439//135 440//135
f 442//136 490//136 441//136
f 490//137 489//137 440//137 441//137
f 488//138 487//138 438//138 439//138
