# Blender 5.0.1
# www.blender.org
mtllib Tree.mtl
o Tree
v -0.003115 1.031644 -0.035198
v -0.093105 0.924398 -0.035198
v -0.032052 0.000000 0.244802
v -0.032052 1.680000 0.174802
v -0.196236 0.000000 0.165735
v -0.141508 1.680000 0.122091
v -0.236786 0.000000 -0.011927
v -0.168541 1.680000 0.003649
v -0.123167 0.000000 -0.154401
v -0.092795 1.680000 -0.091333
v 0.059064 0.000000 -0.154401
v 0.028692 1.680000 -0.091333
v 0.172683 0.000000 -0.011927
v 0.104438 1.680000 0.003649
v 0.132133 0.000000 0.165735
v 0.077405 1.680000 0.122091
v -0.093105 0.924398 0.104802
v -0.003115 1.031644 0.104802
v -0.564988 1.320355 -0.035198
v -0.474998 1.427602 -0.035198
v -0.564988 1.320355 0.104802
v -0.474998 1.427602 0.104802
v 0.088012 1.157804 0.161175
v -0.809742 1.750818 -0.523619
v 0.192978 1.588117 -1.000469
v 0.904320 1.549877 0.065089
v 0.396869 1.524208 0.971139
v -0.813220 1.662543 0.610943
v -0.226587 2.667055 -0.812945
v 0.839310 2.493203 -0.606916
v 0.767572 2.706102 0.593303
v -0.338876 2.616299 1.000469
v -0.926119 2.650398 0.037923
v -0.074626 3.161861 0.023619
v -0.475096 1.908430 0.233490
v -0.997965 2.300454 -0.319406
v -0.211593 2.362004 -0.427437
v 0.315345 2.259044 0.191120
v -0.334743 2.386993 0.807546
v -1.087387 2.356300 0.641027
v -0.685887 2.957324 -0.421190
v 0.193106 3.052878 -0.143201
v 0.187222 3.138194 0.724620
v -0.628966 2.980021 0.878556
v -1.123425 3.019373 0.239234
v -0.443520 3.434428 0.226471
v 0.403674 2.189400 -0.043585
v -0.250477 2.525018 -0.531664
v 0.632915 2.616367 -0.770148
v 1.073391 2.635170 -0.089612
v 0.549227 2.533233 0.477785
v -0.119999 2.521997 0.325928
v 0.095472 3.294502 -0.661066
v 0.825465 3.205952 -0.421340
v 0.843497 3.296362 0.317849
v 0.139364 3.225456 0.553109
v -0.252136 3.306293 -0.009832
v 0.372681 3.598574 -0.110989
v -0.035209 2.820434 0.118030
v -0.552451 3.076736 -0.234363
v 0.035266 3.083081 -0.364260
v 0.464114 3.163516 0.053609
v 0.085804 3.150455 0.534959
v -0.518029 3.146858 0.371318
v -0.264869 3.630829 -0.430587
v 0.367830 3.554424 -0.225499
v 0.356890 3.597494 0.449449
v -0.308741 3.624893 0.558915
v -0.606625 3.617340 0.043722
v -0.138128 3.867790 0.115919
v 0.480914 1.606061 0.292042
v 0.124845 1.861554 0.095955
v 0.680475 1.997104 -0.171580
v 1.123425 1.901299 0.335415
v 0.785449 1.999876 1.000144
v -0.010921 1.913357 0.682107
v 0.368384 2.533357 -0.244150
v 1.055130 2.550962 -0.050387
v 1.064793 2.609914 0.735314
v 0.346740 2.599165 0.927127
v -0.093105 2.609046 0.326191
v 0.476087 2.983773 0.369231
v -0.760051 2.170000 -0.581198
v -0.760051 2.141297 -0.511901
v -0.760051 2.072000 -0.483198
v -0.760051 2.002703 -0.511901
v -0.760051 1.974000 -0.581198
v 0.751949 2.310000 -0.413198
v -0.820064 2.141297 -0.546550
v -0.844922 2.072000 -0.532198
v -0.820064 2.002703 -0.546550
v 0.691936 2.338704 -0.447846
v 0.667078 2.408000 -0.462198
v -0.820064 2.141297 -0.615846
v -0.844922 2.072000 -0.630198
v -0.820064 2.002703 -0.615846
v 0.691936 2.477297 -0.447846
v 0.751949 2.506000 -0.413198
v -0.760051 2.141297 -0.650494
v -0.760051 2.072000 -0.679198
v -0.760051 2.002703 -0.650494
v -0.256051 2.534000 -0.861198
v 0.691936 2.477297 -0.378549
v -0.700039 2.141297 -0.615846
v -0.675181 2.072000 -0.630198
v -0.700039 2.002703 -0.615846
v 0.667078 2.408000 -0.364198
v 0.691936 2.338704 -0.378549
v -0.700039 2.141297 -0.546550
v -0.675181 2.072000 -0.532198
v -0.700039 2.002703 -0.546550
v -0.316064 2.562704 -0.895846
v -0.340922 2.632000 -0.910198
v 0.751948 2.338704 -0.343901
v -0.316064 2.701296 -0.895846
v 0.751948 2.477297 -0.343901
v -0.256051 2.730000 -0.861198
v 0.751949 2.338704 -0.482494
v 0.751949 2.408000 -0.511198
v 0.751949 2.477297 -0.482494
v -0.316064 2.701296 -0.826549
v -0.340922 2.632000 -0.812198
v 0.811961 2.338704 -0.447846
v 0.836819 2.408000 -0.462198
v 0.811961 2.477297 -0.447846
v -0.316064 2.562704 -0.826549
v 0.811961 2.338704 -0.378549
v 0.836819 2.408000 -0.364198
v 0.811961 2.477297 -0.378549
v -0.256052 2.562704 -0.791901
v 0.751948 2.408000 -0.315198
v -0.256052 2.701296 -0.791901
v -0.256051 2.562704 -0.930494
v -0.256051 2.632000 -0.959198
v -0.256051 2.701296 -0.930494
v -0.196039 2.562704 -0.895846
v -0.171181 2.632000 -0.910198
v -0.196039 2.701296 -0.895846
v -0.196039 2.562704 -0.826549
v -0.171181 2.632000 -0.812198
v -0.196039 2.701296 -0.826549
v -0.256052 2.632000 -0.763198
vn -0.9926 -0.1207 -0.0124
vn 0.6428 0.7660 -0.0000
vn -0.4336 0.0375 0.9003
vn -0.4309 -0.0107 -0.9024
vn -0.6428 -0.7660 -0.0000
vn -0.9742 0.0375 0.2224
vn 0.4433 -0.8680 0.2237
vn -0.0000 -0.0000 -1.0000
vn -0.7813 0.0375 -0.6231
vn 0.3865 -0.8757 -0.2895
vn -0.7660 0.6428 -0.0000
vn -0.0000 0.0375 -0.9993
vn -0.5132 -0.8556 -0.0681
vn -0.0000 -0.0000 1.0000
vn 0.7813 0.0375 -0.6231
vn -0.0000 1.0000 -0.0000
vn 0.7660 -0.6428 -0.0000
vn 0.9742 0.0375 0.2224
vn -0.2381 -0.8476 0.4742
vn -0.3117 -0.8815 -0.3547
vn 0.4336 0.0375 0.9003
vn -0.0000 -1.0000 -0.0000
vn 0.7809 -0.3259 -0.5330
vn 0.8678 -0.1179 0.4827
vn -0.3016 -0.2281 0.9257
vn -0.7438 0.2820 -0.6060
vn 0.2230 0.2504 -0.9421
vn 0.9943 0.0984 0.0420
vn 0.3249 0.1940 0.9256
vn -0.8326 0.2037 0.5151
vn -0.4810 0.7901 -0.3800
vn 0.2350 0.8173 -0.5261
vn 0.5327 0.8382 -0.1169
vn 0.1178 0.8531 0.5083
vn -0.4832 0.8135 0.3236
vn -0.0139 -0.8218 -0.5696
vn -0.5941 -0.8044 -0.0085
vn 0.3459 -0.8323 -0.4332
vn 0.3649 -0.7571 0.5419
vn -0.1138 -0.7493 0.6524
vn -0.9906 -0.1060 -0.0861
vn -0.1285 -0.0920 -0.9874
vn 0.7376 -0.1624 -0.6554
vn 0.6093 -0.3446 0.7141
vn -0.2026 -0.2149 0.9554
vn -0.7855 0.2884 -0.5475
vn 0.2713 0.2260 -0.9356
vn 0.9888 0.1489 -0.0079
vn 0.1897 -0.0234 0.9816
vn -0.7402 0.3186 0.5921
vn -0.4842 0.7811 -0.3942
vn 0.1100 0.7802 -0.6159
vn 0.4765 0.8753 -0.0828
vn -0.0545 0.8264 0.5604
vn -0.4693 0.7815 0.4111
vn -0.0516 -0.8538 -0.5180
vn -0.4977 -0.8643 0.0727
vn 0.5121 -0.8013 -0.3093
vn 0.5346 -0.7664 0.3562
vn -0.1155 -0.8141 0.5691
vn -0.9835 -0.1018 0.1493
vn -0.2558 -0.0474 -0.9656
vn 0.8379 0.0480 -0.5437
vn 0.7396 -0.1476 0.6567
vn -0.2118 -0.2288 0.9502
vn -0.8390 0.3010 -0.4533
vn 0.3294 0.3987 -0.8558
vn 0.9288 0.3644 -0.0672
vn 0.3087 0.0796 0.9478
vn -0.8083 0.1113 0.5781
vn -0.4432 0.8602 -0.2522
vn 0.2806 0.7732 -0.5688
vn 0.6065 0.7873 -0.1111
vn 0.0844 0.8558 0.5104
vn -0.3455 0.8647 0.3645
vn -0.0983 -0.8679 -0.4870
vn -0.5087 -0.8514 0.1275
vn 0.4970 -0.7905 -0.3579
vn 0.5512 -0.7246 0.4136
vn -0.1694 -0.7482 0.6414
vn -0.9881 -0.1360 0.0719
vn -0.2077 -0.2290 -0.9510
vn 0.6944 -0.2970 -0.6555
vn 0.7436 -0.3409 0.5752
vn -0.2514 -0.2562 0.9334
vn -0.7957 0.2121 -0.5673
vn 0.3141 0.0574 -0.9477
vn 0.9709 0.2395 0.0005
vn 0.1652 0.0877 0.9824
vn -0.8526 0.1809 0.4903
vn -0.4193 0.8644 -0.2775
vn 0.2451 0.8675 -0.4330
vn 0.5029 0.8631 -0.0469
vn 0.1193 0.8505 0.5123
vn -0.4860 0.8316 0.2688
vn -0.1480 -0.7237 -0.6741
vn -0.5611 -0.8258 -0.0570
vn 0.3912 -0.7796 -0.4891
vn 0.3775 -0.8687 0.3208
vn -0.1159 -0.8460 0.5204
vn -0.9552 -0.2162 -0.2021
vn -0.3462 -0.3208 -0.8816
vn 0.6833 -0.3184 -0.6571
vn 0.8629 -0.1923 0.4673
vn -0.3532 -0.1460 0.9241
vn -0.7792 -0.0344 -0.6259
vn 0.2708 0.0274 -0.9622
vn 0.9955 0.0932 -0.0192
vn 0.2429 0.2906 0.9255
vn -0.7884 0.2038 0.5804
vn -0.4597 0.7524 -0.4718
vn 0.1498 0.7842 -0.6022
vn 0.5649 0.8223 -0.0686
vn 0.1441 0.7988 0.5841
vn -0.5255 0.7525 0.3970
vn -0.4706 0.3377 0.8152
vn -0.4706 -0.3377 0.8152
vn -0.2157 0.9021 0.3737
vn -0.2157 -0.9021 0.3737
vn -0.9413 -0.3377 -0.0000
vn -0.4315 0.9021 -0.0000
vn -0.4315 -0.9021 -0.0000
vn -0.9413 0.3377 -0.0000
vn -0.4706 -0.3377 -0.8152
vn -0.2157 0.9021 -0.3737
vn -0.2157 -0.9021 -0.3737
vn -0.4706 0.3377 -0.8152
vn 0.4706 0.3377 -0.8152
vn 0.4706 -0.3377 -0.8152
vn 0.2157 0.9021 -0.3737
vn 0.2157 -0.9021 -0.3737
vn 0.4315 -0.9021 -0.0000
vn 0.9413 0.3377 -0.0000
vn 0.9413 -0.3377 -0.0000
vn 0.4315 0.9021 -0.0000
vn 0.2157 -0.9021 0.3737
vn 0.4706 0.3377 0.8152
vn 0.4706 -0.3377 0.8152
vn 0.2157 0.9021 0.3737
s 0
usemtl EF_Trunk
f 22//2 18//2 1//2 20//2
f 3//3 4//3 6//3 5//3
f 17//5 21//5 19//5 2//5
f 5//6 6//6 8//6 7//6
f 19//8 20//8 1//8 2//8
f 7//9 8//9 10//9 9//9
f 21//11 22//11 20//11 19//11
f 9//12 10//12 12//12 11//12
f 17//14 18//14 22//14 21//14
f 11//15 12//15 14//15 13//15
f 6//16 4//16 16//16 14//16 12//16 10//16 8//16
f 2//17 1//17 18//17 17//17
f 13//18 14//18 16//18 15//18
f 15//21 16//21 4//21 3//21
f 3//22 5//22 7//22 9//22 11//22 13//22 15//22
usemtl EF_Leaf
f 24//1 28//1 33//1
f 25//4 24//4 29//4
f 23//7 26//7 27//7
f 23//10 25//10 26//10
f 24//13 23//13 28//13
f 23//19 27//19 28//19
f 23//20 24//20 25//20
f 26//23 25//23 30//23
f 27//24 26//24 31//24
f 28//25 27//25 32//25
f 24//26 33//26 29//26
f 25//27 29//27 30//27
f 26//28 30//28 31//28
f 27//29 31//29 32//29
f 28//30 32//30 33//30
f 29//31 33//31 34//31
f 30//32 29//32 34//32
f 31//33 30//33 34//33
f 32//34 31//34 34//34
f 33//35 32//35 34//35
f 47//56 48//56 49//56
f 48//57 47//57 52//57
f 47//58 49//58 50//58
f 47//59 50//59 51//59
f 47//60 51//60 52//60
f 48//61 52//61 57//61
f 49//62 48//62 53//62
f 50//63 49//63 54//63
f 51//64 50//64 55//64
f 52//65 51//65 56//65
f 48//66 57//66 53//66
f 49//67 53//67 54//67
f 50//68 54//68 55//68
f 51//69 55//69 56//69
f 52//70 56//70 57//70
f 53//71 57//71 58//71
f 54//72 53//72 58//72
f 55//73 54//73 58//73
f 56//74 55//74 58//74
f 57//75 56//75 58//75
usemtl EF_LeafDark
f 35//36 36//36 37//36
f 36//37 35//37 40//37
f 35//38 37//38 38//38
f 35//39 38//39 39//39
f 35//40 39//40 40//40
f 36//41 40//41 45//41
f 37//42 36//42 41//42
f 38//43 37//43 42//43
f 39//44 38//44 43//44
f 40//45 39//45 44//45
f 36//46 45//46 41//46
f 37//47 41//47 42//47
f 38//48 42//48 43//48
f 39//49 43//49 44//49
f 40//50 44//50 45//50
f 41//51 45//51 46//51
f 42//52 41//52 46//52
f 43//53 42//53 46//53
f 44//54 43//54 46//54
f 45//55 44//55 46//55
f 59//76 60//76 61//76
f 60//77 59//77 64//77
f 59//78 61//78 62//78
f 59//79 62//79 63//79
f 59//80 63//80 64//80
f 60//81 64//81 69//81
f 61//82 60//82 65//82
f 62//83 61//83 66//83
f 63//84 62//84 67//84
f 64//85 63//85 68//85
f 60//86 69//86 65//86
f 61//87 65//87 66//87
f 62//88 66//88 67//88
f 63//89 67//89 68//89
f 64//90 68//90 69//90
f 65//91 69//91 70//91
f 66//92 65//92 70//92
f 67//93 66//93 70//93
f 68//94 67//94 70//94
f 69//95 68//95 70//95
f 71//96 72//96 73//96
f 72//97 71//97 76//97
f 71//98 73//98 74//98
f 71//99 74//99 75//99
f 71//100 75//100 76//100
f 72//101 76//101 81//101
f 73//102 72//102 77//102
f 74//103 73//103 78//103
f 75//104 74//104 79//104
f 76//105 75//105 80//105
f 72//106 81//106 77//106
f 73//107 77//107 78//107
f 74//108 78//108 79//108
f 75//109 79//109 80//109
f 76//110 80//110 81//110
f 77//111 81//111 82//111
f 78//112 77//112 82//112
f 79//113 78//113 82//113
f 80//114 79//114 82//114
f 81//115 80//115 82//115
usemtl EF_Comb
f 85//116 84//116 89//116 90//116
f 86//117 85//117 90//117 91//117
f 84//118 83//118 89//118
f 87//119 86//119 91//119
f 91//120 90//120 95//120 96//120
f 89//121 83//121 94//121
f 87//122 91//122 96//122
f 90//123 89//123 94//123 95//123
f 96//124 95//124 100//124 101//124
f 94//125 83//125 99//125
f 87//126 96//126 101//126
f 95//127 94//127 99//127 100//127
f 100//128 99//128 104//128 105//128
f 101//129 100//129 105//129 106//129
f 99//130 83//130 104//130
f 87//131 101//131 106//131
f 87//132 106//132 111//132
f 105//133 104//133 109//133 110//133
f 106//134 105//134 110//134 111//134
f 104//135 83//135 109//135
f 87//136 111//136 86//136
f 110//137 109//137 84//137 85//137
f 111//138 110//138 85//138 86//138
f 109//139 83//139 84//139
f 131//116 116//116 103//116 107//116
f 88//119 114//119 108//119
f 116//118 98//118 103//118
f 114//117 131//117 107//117 108//117
f 108//120 107//120 93//120 92//120
f 103//121 98//121 97//121
f 88//122 108//122 92//122
f 107//123 103//123 97//123 93//123
f 92//124 93//124 119//124 118//124
f 97//125 98//125 120//125
f 88//126 92//126 118//126
f 93//127 97//127 120//127 119//127
f 120//130 98//130 125//130
f 119//128 120//128 125//128 124//128
f 88//131 118//131 123//131
f 118//129 119//129 124//129 123//129
f 88//132 123//132 127//132
f 124//133 125//133 129//133 128//133
f 123//134 124//134 128//134 127//134
f 125//135 98//135 129//135
f 88//136 127//136 114//136
f 128//137 129//137 116//137 131//137
f 127//138 128//138 131//138 114//138
f 129//139 98//139 116//139
f 142//116 132//116 121//116 122//116
f 130//117 142//117 122//117 126//117
f 132//118 117//118 121//118
f 102//119 130//119 126//119
f 102//122 126//122 112//122
f 122//123 121//123 115//123 113//123
f 126//120 122//120 113//120 112//120
f 121//121 117//121 115//121
f 115//125 117//125 135//125
f 113//127 115//127 135//127 134//127
f 102//126 112//126 133//126
f 112//124 113//124 134//124 133//124
f 133//129 134//129 137//129 136//129
f 135//130 117//130 138//130
f 102//131 133//131 136//131
f 134//128 135//128 138//128 137//128
f 102//132 136//132 139//132
f 137//133 138//133 141//133 140//133
f 136//134 137//134 140//134 139//134
f 138//135 117//135 141//135
f 102//136 139//136 130//136
f 140//137 141//137 132//137 142//137
f 139//138 140//138 142//138 130//138
f 141//139 117//139 132//139
