# Blender 5.0.1
# www.blender.org
mtllib TwinCoop.mtl
o TwinCoop
v -2.296064 0.000000 0.679000
v -2.296064 0.336000 0.679000
v -2.296064 0.000000 0.539000
v -2.296064 0.336000 0.539000
v -2.156064 0.000000 0.679000
v -2.156064 0.336000 0.679000
v -2.156064 0.000000 0.539000
v -2.156064 0.336000 0.539000
v -2.296064 0.000000 -1.169000
v -2.296064 0.336000 -1.169000
v -2.296064 0.000000 -1.309000
v -2.296064 0.336000 -1.309000
v -2.156064 0.000000 -1.169000
v -2.156064 0.336000 -1.169000
v -2.156064 0.000000 -1.309000
v -2.156064 0.336000 -1.309000
v -0.560064 0.000000 0.679000
v -0.560064 0.336000 0.679000
v -0.560064 0.000000 0.539000
v -0.560064 0.336000 0.539000
v -0.420064 0.000000 0.679000
v -0.420064 0.336000 0.679000
v -0.420064 0.000000 0.539000
v -0.420064 0.336000 0.539000
v -0.560064 0.000000 -1.169000
v -0.560064 0.336000 -1.169000
v -0.560064 0.000000 -1.309000
v -0.560064 0.336000 -1.309000
v -0.420064 0.000000 -1.169000
v -0.420064 0.336000 -1.169000
v -0.420064 0.000000 -1.309000
v -0.420064 0.336000 -1.309000
v -2.338064 0.336000 0.721000
v -2.338064 1.456000 0.721000
v -2.338064 0.336000 -1.351000
v -2.338064 1.456000 -1.351000
v -0.378064 0.336000 0.721000
v -0.378064 1.456000 0.721000
v -0.378064 0.336000 -1.351000
v -0.378064 1.456000 -1.351000
v -2.401064 0.336000 0.784000
v -2.401064 1.456000 0.784000
v -2.401064 0.336000 0.658000
v -2.401064 1.456000 0.658000
v -2.275064 0.336000 0.784000
v -2.275064 1.456000 0.784000
v -2.275064 0.336000 0.658000
v -2.275064 1.456000 0.658000
v -2.401064 0.336000 -1.288000
v -2.401064 1.456000 -1.288000
v -2.401064 0.336000 -1.414000
v -2.401064 1.456000 -1.414000
v -2.275064 0.336000 -1.288000
v -2.275064 1.456000 -1.288000
v -2.275064 0.336000 -1.414000
v -2.275064 1.456000 -1.414000
v -0.441064 0.336000 0.784000
v -0.441064 1.456000 0.784000
v -0.441064 0.336000 0.658000
v -0.441064 1.456000 0.658000
v -0.315064 0.336000 0.784000
v -0.315064 1.456000 0.784000
v -0.315064 0.336000 0.658000
v -0.315064 1.456000 0.658000
v -0.441064 0.336000 -1.288000
v -0.441064 1.456000 -1.288000
v -0.441064 0.336000 -1.414000
v -0.441064 1.456000 -1.414000
v -0.315064 0.336000 -1.288000
v -0.315064 1.456000 -1.288000
v -0.315064 0.336000 -1.414000
v -0.315064 1.456000 -1.414000
v -2.282064 0.602000 0.740600
v -2.282064 0.630000 0.740600
v -2.282064 0.602000 0.718200
v -2.282064 0.630000 0.718200
v -0.434064 0.602000 0.740600
v -0.434064 0.630000 0.740600
v -0.434064 0.602000 0.718200
v -0.434064 0.630000 0.718200
v -2.282064 0.882000 0.740600
v -2.282064 0.910000 0.740600
v -2.282064 0.882000 0.718200
v -2.282064 0.910000 0.718200
v -0.434064 0.882000 0.740600
v -0.434064 0.910000 0.740600
v -0.434064 0.882000 0.718200
v -0.434064 0.910000 0.718200
v -2.282064 1.162000 0.740600
v -2.282064 1.190000 0.740600
v -2.282064 1.162000 0.718200
v -2.282064 1.190000 0.718200
v -0.434064 1.162000 0.740600
v -0.434064 1.190000 0.740600
v -0.434064 1.162000 0.718200
v -0.434064 1.190000 0.718200
v -1.358064 2.161600 0.721000
v -1.358064 2.161600 -1.351000
v -2.460314 1.367980 0.917000
v -2.533936 1.470234 0.917000
v -2.460314 1.367980 -1.547000
v -2.533936 1.470234 -1.547000
v -1.321253 2.188104 0.917000
v -1.394875 2.290357 0.917000
v -1.321253 2.188104 -1.547000
v -1.394875 2.290357 -1.547000
v -1.394875 2.188104 0.917000
v -1.321253 2.290357 0.917000
v -1.394875 2.188104 -1.547000
v -1.321253 2.290357 -1.547000
v -0.255815 1.367980 0.917000
v -0.182192 1.470234 0.917000
v -0.255815 1.367980 -1.547000
v -0.182192 1.470234 -1.547000
v -1.458864 2.179157 0.931000
v -1.458864 2.330357 0.931000
v -1.458864 2.179157 -1.561000
v -1.458864 2.330357 -1.561000
v -1.257264 2.179157 0.931000
v -1.257264 2.330357 0.931000
v -1.257264 2.179157 -1.561000
v -1.257264 2.330357 -1.561000
v -1.920864 0.378000 0.791000
v -1.920864 0.910000 0.791000
v -1.920864 0.378000 0.707000
v -1.920864 0.910000 0.707000
v -1.500864 0.378000 0.791000
v -1.500864 0.910000 0.791000
v -1.500864 0.378000 0.707000
v -1.500864 0.910000 0.707000
v -1.990864 0.910000 0.789600
v -1.990864 0.994000 0.789600
v -1.990864 0.910000 0.719600
v -1.990864 0.994000 0.719600
v -1.430864 0.910000 0.789600
v -1.430864 0.994000 0.789600
v -1.430864 0.910000 0.719600
v -1.430864 0.994000 0.719600
v -1.906864 0.000000 0.721000
v -1.906864 0.000000 1.561000
v -1.906864 0.378000 0.721000
v -1.514864 0.000000 0.721000
v -1.514864 0.000000 1.561000
v -1.514864 0.378000 0.721000
v -1.892864 0.123200 1.306200
v -1.892864 0.156800 1.306200
v -1.892864 0.123200 1.255800
v -1.892864 0.156800 1.255800
v -1.528864 0.123200 1.306200
v -1.528864 0.156800 1.306200
v -1.528864 0.123200 1.255800
v -1.528864 0.156800 1.255800
v -1.892864 0.249200 1.026200
v -1.892864 0.282800 1.026200
v -1.892864 0.249200 0.975800
v -1.892864 0.282800 0.975800
v -1.528864 0.249200 1.026200
v -1.528864 0.282800 1.026200
v -1.528864 0.249200 0.975800
v -1.528864 0.282800 0.975800
v -1.178864 0.756000 0.791000
v -1.178864 1.260000 0.791000
v -1.178864 0.756000 0.721000
v -1.178864 1.260000 0.721000
v -0.674864 0.756000 0.791000
v -0.674864 1.260000 0.791000
v -0.674864 0.756000 0.721000
v -0.674864 1.260000 0.721000
v -1.108864 0.826000 0.826000
v -1.108864 1.190000 0.826000
v -1.108864 0.826000 0.756000
v -1.108864 1.190000 0.756000
v -0.744864 0.826000 0.826000
v -0.744864 1.190000 0.826000
v -0.744864 0.826000 0.756000
v -0.744864 1.190000 0.756000
v -1.108864 0.982800 0.854000
v -1.108864 1.033200 0.854000
v -1.108864 0.982800 0.742000
v -1.108864 1.033200 0.742000
v -0.744864 0.982800 0.854000
v -0.744864 1.033200 0.854000
v -0.744864 0.982800 0.742000
v -0.744864 1.033200 0.742000
v -0.952064 0.826000 0.854000
v -0.952064 1.190000 0.854000
v -0.952064 0.826000 0.742000
v -0.952064 1.190000 0.742000
v -0.901664 0.826000 0.854000
v -0.901664 1.190000 0.854000
v -0.901664 0.826000 0.742000
v -0.901664 1.190000 0.742000
v 0.167936 0.000000 0.679000
v 0.167936 0.336000 0.679000
v 0.167936 0.000000 0.539000
v 0.167936 0.336000 0.539000
v 0.307936 0.000000 0.679000
v 0.307936 0.336000 0.679000
v 0.307936 0.000000 0.539000
v 0.307936 0.336000 0.539000
v 0.167936 0.000000 -1.169000
v 0.167936 0.336000 -1.169000
v 0.167936 0.000000 -1.309000
v 0.167936 0.336000 -1.309000
v 0.307936 0.000000 -1.169000
v 0.307936 0.336000 -1.169000
v 0.307936 0.000000 -1.309000
v 0.307936 0.336000 -1.309000
v 1.903936 0.000000 0.679000
v 1.903936 0.336000 0.679000
v 1.903936 0.000000 0.539000
v 1.903936 0.336000 0.539000
v 2.043936 0.000000 0.679000
v 2.043936 0.336000 0.679000
v 2.043936 0.000000 0.539000
v 2.043936 0.336000 0.539000
v 1.903936 0.000000 -1.169000
v 1.903936 0.336000 -1.169000
v 1.903936 0.000000 -1.309000
v 1.903936 0.336000 -1.309000
v 2.043936 0.000000 -1.169000
v 2.043936 0.336000 -1.169000
v 2.043936 0.000000 -1.309000
v 2.043936 0.336000 -1.309000
v 0.125936 0.336000 0.721000
v 0.125936 1.456000 0.721000
v 0.125936 0.336000 -1.351000
v 0.125936 1.456000 -1.351000
v 2.085936 0.336000 0.721000
v 2.085936 1.456000 0.721000
v 2.085936 0.336000 -1.351000
v 2.085936 1.456000 -1.351000
v 0.062936 0.336000 0.784000
v 0.062936 1.456000 0.784000
v 0.062936 0.336000 0.658000
v 0.062936 1.456000 0.658000
v 0.188936 0.336000 0.784000
v 0.188936 1.456000 0.784000
v 0.188936 0.336000 0.658000
v 0.188936 1.456000 0.658000
v 0.062936 0.336000 -1.288000
v 0.062936 1.456000 -1.288000
v 0.062936 0.336000 -1.414000
v 0.062936 1.456000 -1.414000
v 0.188936 0.336000 -1.288000
v 0.188936 1.456000 -1.288000
v 0.188936 0.336000 -1.414000
v 0.188936 1.456000 -1.414000
v 2.022936 0.336000 0.784000
v 2.022936 1.456000 0.784000
v 2.022936 0.336000 0.658000
v 2.022936 1.456000 0.658000
v 2.148936 0.336000 0.784000
v 2.148936 1.456000 0.784000
v 2.148936 0.336000 0.658000
v 2.148936 1.456000 0.658000
v 2.022936 0.336000 -1.288000
v 2.022936 1.456000 -1.288000
v 2.022936 0.336000 -1.414000
v 2.022936 1.456000 -1.414000
v 2.148936 0.336000 -1.288000
v 2.148936 1.456000 -1.288000
v 2.148936 0.336000 -1.414000
v 2.148936 1.456000 -1.414000
v 0.181936 0.602000 0.740600
v 0.181936 0.630000 0.740600
v 0.181936 0.602000 0.718200
v 0.181936 0.630000 0.718200
v 2.029936 0.602000 0.740600
v 2.029936 0.630000 0.740600
v 2.029936 0.602000 0.718200
v 2.029936 0.630000 0.718200
v 0.181936 0.882000 0.740600
v 0.181936 0.910000 0.740600
v 0.181936 0.882000 0.718200
v 0.181936 0.910000 0.718200
v 2.029936 0.882000 0.740600
v 2.029936 0.910000 0.740600
v 2.029936 0.882000 0.718200
v 2.029936 0.910000 0.718200
v 0.181936 1.162000 0.740600
v 0.181936 1.190000 0.740600
v 0.181936 1.162000 0.718200
v 0.181936 1.190000 0.718200
v 2.029936 1.162000 0.740600
v 2.029936 1.190000 0.740600
v 2.029936 1.162000 0.718200
v 2.029936 1.190000 0.718200
v 1.105936 2.161600 0.721000
v 1.105936 2.161600 -1.351000
v 0.003686 1.367980 0.917000
v -0.069936 1.470234 0.917000
v 0.003686 1.367980 -1.547000
v -0.069936 1.470234 -1.547000
v 1.142747 2.188104 0.917000
v 1.069125 2.290357 0.917000
v 1.142747 2.188104 -1.547000
v 1.069125 2.290357 -1.547000
v 1.069125 2.188104 0.917000
v 1.142747 2.290357 0.917000
v 1.069125 2.188104 -1.547000
v 1.142747 2.290357 -1.547000
v 2.208185 1.367980 0.917000
v 2.281808 1.470234 0.917000
v 2.208185 1.367980 -1.547000
v 2.281808 1.470234 -1.547000
v 1.005136 2.179157 0.931000
v 1.005136 2.330357 0.931000
v 1.005136 2.179157 -1.561000
v 1.005136 2.330357 -1.561000
v 1.206736 2.179157 0.931000
v 1.206736 2.330357 0.931000
v 1.206736 2.179157 -1.561000
v 1.206736 2.330357 -1.561000
v 0.543136 0.378000 0.791000
v 0.543136 0.910000 0.791000
v 0.543136 0.378000 0.707000
v 0.543136 0.910000 0.707000
v 0.963136 0.378000 0.791000
v 0.963136 0.910000 0.791000
v 0.963136 0.378000 0.707000
v 0.963136 0.910000 0.707000
v 0.473136 0.910000 0.789600
v 0.473136 0.994000 0.789600
v 0.473136 0.910000 0.719600
v 0.473136 0.994000 0.719600
v 1.033136 0.910000 0.789600
v 1.033136 0.994000 0.789600
v 1.033136 0.910000 0.719600
v 1.033136 0.994000 0.719600
v 0.557136 0.000000 0.721000
v 0.557136 0.000000 1.561000
v 0.557136 0.378000 0.721000
v 0.949136 0.000000 0.721000
v 0.949136 0.000000 1.561000
v 0.949136 0.378000 0.721000
v 0.571136 0.123200 1.306200
v 0.571136 0.156800 1.306200
v 0.571136 0.123200 1.255800
v 0.571136 0.156800 1.255800
v 0.935136 0.123200 1.306200
v 0.935136 0.156800 1.306200
v 0.935136 0.123200 1.255800
v 0.935136 0.156800 1.255800
v 0.571136 0.249200 1.026200
v 0.571136 0.282800 1.026200
v 0.571136 0.249200 0.975800
v 0.571136 0.282800 0.975800
v 0.935136 0.249200 1.026200
v 0.935136 0.282800 1.026200
v 0.935136 0.249200 0.975800
v 0.935136 0.282800 0.975800
v 1.285136 0.756000 0.791000
v 1.285136 1.260000 0.791000
v 1.285136 0.756000 0.721000
v 1.285136 1.260000 0.721000
v 1.789136 0.756000 0.791000
v 1.789136 1.260000 0.791000
v 1.789136 0.756000 0.721000
v 1.789136 1.260000 0.721000
v 1.355136 0.826000 0.826000
v 1.355136 1.190000 0.826000
v 1.355136 0.826000 0.756000
v 1.355136 1.190000 0.756000
v 1.719136 0.826000 0.826000
v 1.719136 1.190000 0.826000
v 1.719136 0.826000 0.756000
v 1.719136 1.190000 0.756000
v 1.355136 0.982800 0.854000
v 1.355136 1.033200 0.854000
v 1.355136 0.982800 0.742000
v 1.355136 1.033200 0.742000
v 1.719136 0.982800 0.854000
v 1.719136 1.033200 0.854000
v 1.719136 0.982800 0.742000
v 1.719136 1.033200 0.742000
v 1.511936 0.826000 0.854000
v 1.511936 1.190000 0.854000
v 1.511936 0.826000 0.742000
v 1.511936 1.190000 0.742000
v 1.562336 0.826000 0.854000
v 1.562336 1.190000 0.854000
v 1.562336 0.826000 0.742000
v 1.562336 1.190000 0.742000
v 2.085936 0.448000 0.306600
v 2.085936 0.896000 0.306600
v 2.085936 0.448000 -0.936600
v 2.085936 0.896000 -0.936600
v 2.477936 0.448000 0.306600
v 2.477936 0.896000 0.306600
v 2.477936 0.448000 -0.936600
v 2.477936 0.896000 -0.936600
v 2.085936 0.896000 0.362600
v 2.533936 0.896000 0.362600
v 2.085936 1.092000 0.362600
v 2.085936 0.896000 -0.992600
v 2.533936 0.896000 -0.992600
v 2.085936 1.092000 -0.992600
v -0.434064 0.616000 0.105000
v -0.434064 0.700000 0.105000
v -0.434064 0.616000 -0.735000
v -0.434064 0.700000 -0.735000
v 0.181936 0.616000 0.105000
v 0.181936 0.700000 0.105000
v 0.181936 0.616000 -0.735000
v 0.181936 0.700000 -0.735000
v -0.602064 1.232000 0.189000
v 0.349936 1.232000 0.189000
v -0.126064 1.568000 0.189000
v -0.602064 1.232000 -0.819000
v 0.349936 1.232000 -0.819000
v -0.126064 1.568000 -0.819000
v -0.441064 0.616000 0.112000
v -0.441064 1.232000 0.112000
v -0.441064 0.616000 0.042000
v -0.441064 1.232000 0.042000
v -0.371064 0.616000 0.112000
v -0.371064 1.232000 0.112000
v -0.371064 0.616000 0.042000
v -0.371064 1.232000 0.042000
v 0.118936 0.616000 0.112000
v 0.118936 1.232000 0.112000
v 0.118936 0.616000 0.042000
v 0.118936 1.232000 0.042000
v 0.188936 0.616000 0.112000
v 0.188936 1.232000 0.112000
v 0.188936 0.616000 0.042000
v 0.188936 1.232000 0.042000
vn -1.0000 -0.0000 -0.0000
vn -0.0000 -0.0000 -1.0000
vn 1.0000 -0.0000 -0.0000
vn -0.0000 -0.0000 1.0000
vn -0.0000 -1.0000 -0.0000
vn -0.0000 1.0000 -0.0000
vn 0.5843 0.8115 -0.0000
vn -0.5843 0.8115 -0.0000
vn -0.8115 -0.5843 -0.0000
vn 0.8115 0.5843 -0.0000
vn 0.5843 -0.8115 -0.0000
vn -0.8115 0.5843 -0.0000
vn 0.8115 -0.5843 -0.0000
vn -0.5843 -0.8115 -0.0000
vn -0.0000 0.9119 0.4104
vn 0.4008 0.9162 -0.0000
vn 0.5767 0.8170 -0.0000
vn -0.5767 0.8170 -0.0000
s 0
usemtl EF_WoodDark
f 1//1 2//1 4//1 3//1
f 3//2 4//2 8//2 7//2
f 7//3 8//3 6//3 5//3
f 5//4 6//4 2//4 1//4
f 3//5 7//5 5//5 1//5
f 8//6 4//6 2//6 6//6
f 9//1 10//1 12//1 11//1
f 11//2 12//2 16//2 15//2
f 15//3 16//3 14//3 13//3
f 13//4 14//4 10//4 9//4
f 11//5 15//5 13//5 9//5
f 16//6 12//6 10//6 14//6
f 17//1 18//1 20//1 19//1
f 19//2 20//2 24//2 23//2
f 23//3 24//3 22//3 21//3
f 21//4 22//4 18//4 17//4
f 19//5 23//5 21//5 17//5
f 24//6 20//6 18//6 22//6
f 25//1 26//1 28//1 27//1
f 27//2 28//2 32//2 31//2
f 31//3 32//3 30//3 29//3
f 29//4 30//4 26//4 25//4
f 27//5 31//5 29//5 25//5
f 32//6 28//6 26//6 30//6
f 73//1 74//1 76//1 75//1
f 75//2 76//2 80//2 79//2
f 79//3 80//3 78//3 77//3
f 77//4 78//4 74//4 73//4
f 75//5 79//5 77//5 73//5
f 80//6 76//6 74//6 78//6
f 81//1 82//1 84//1 83//1
f 83//2 84//2 88//2 87//2
f 87//3 88//3 86//3 85//3
f 85//4 86//4 82//4 81//4
f 83//5 87//5 85//5 81//5
f 88//6 84//6 82//6 86//6
f 89//1 90//1 92//1 91//1
f 91//2 92//2 96//2 95//2
f 95//3 96//3 94//3 93//3
f 93//4 94//4 90//4 89//4
f 91//5 95//5 93//5 89//5
f 96//6 92//6 90//6 94//6
f 145//1 146//1 148//1 147//1
f 147//2 148//2 152//2 151//2
f 151//3 152//3 150//3 149//3
f 149//4 150//4 146//4 145//4
f 147//5 151//5 149//5 145//5
f 152//6 148//6 146//6 150//6
f 153//1 154//1 156//1 155//1
f 155//2 156//2 160//2 159//2
f 159//3 160//3 158//3 157//3
f 157//4 158//4 154//4 153//4
f 155//5 159//5 157//5 153//5
f 160//6 156//6 154//6 158//6
f 193//1 194//1 196//1 195//1
f 195//2 196//2 200//2 199//2
f 199//3 200//3 198//3 197//3
f 197//4 198//4 194//4 193//4
f 195//5 199//5 197//5 193//5
f 200//6 196//6 194//6 198//6
f 201//1 202//1 204//1 203//1
f 203//2 204//2 208//2 207//2
f 207//3 208//3 206//3 205//3
f 205//4 206//4 202//4 201//4
f 203//5 207//5 205//5 201//5
f 208//6 204//6 202//6 206//6
f 209//1 210//1 212//1 211//1
f 211//2 212//2 216//2 215//2
f 215//3 216//3 214//3 213//3
f 213//4 214//4 210//4 209//4
f 211//5 215//5 213//5 209//5
f 216//6 212//6 210//6 214//6
f 217//1 218//1 220//1 219//1
f 219//2 220//2 224//2 223//2
f 223//3 224//3 222//3 221//3
f 221//4 222//4 218//4 217//4
f 219//5 223//5 221//5 217//5
f 224//6 220//6 218//6 222//6
f 265//1 266//1 268//1 267//1
f 267//2 268//2 272//2 271//2
f 271//3 272//3 270//3 269//3
f 269//4 270//4 266//4 265//4
f 267//5 271//5 269//5 265//5
f 272//6 268//6 266//6 270//6
f 273//1 274//1 276//1 275//1
f 275//2 276//2 280//2 279//2
f 279//3 280//3 278//3 277//3
f 277//4 278//4 274//4 273//4
f 275//5 279//5 277//5 273//5
f 280//6 276//6 274//6 278//6
f 281//1 282//1 284//1 283//1
f 283//2 284//2 288//2 287//2
f 287//3 288//3 286//3 285//3
f 285//4 286//4 282//4 281//4
f 283//5 287//5 285//5 281//5
f 288//6 284//6 282//6 286//6
f 337//1 338//1 340//1 339//1
f 339//2 340//2 344//2 343//2
f 343//3 344//3 342//3 341//3
f 341//4 342//4 338//4 337//4
f 339//5 343//5 341//5 337//5
f 344//6 340//6 338//6 342//6
f 345//1 346//1 348//1 347//1
f 347//2 348//2 352//2 351//2
f 351//3 352//3 350//3 349//3
f 349//4 350//4 346//4 345//4
f 347//5 351//5 349//5 345//5
f 352//6 348//6 346//6 350//6
usemtl EF_Wood
f 33//1 34//1 36//1 35//1
f 35//2 36//2 40//2 39//2
f 39//3 40//3 38//3 37//3
f 37//4 38//4 34//4 33//4
f 35//5 39//5 37//5 33//5
f 40//6 36//6 34//6 38//6
f 97//4 34//4 38//4
f 36//2 98//2 40//2
f 38//7 40//7 98//7 97//7
f 97//8 98//8 36//8 34//8
f 141//1 139//1 140//1
f 142//3 144//3 143//3
f 139//5 142//5 143//5 140//5
f 140//15 143//15 144//15 141//15
f 141//2 144//2 142//2 139//2
f 225//1 226//1 228//1 227//1
f 227//2 228//2 232//2 231//2
f 231//3 232//3 230//3 229//3
f 229//4 230//4 226//4 225//4
f 227//5 231//5 229//5 225//5
f 232//6 228//6 226//6 230//6
f 289//4 226//4 230//4
f 228//2 290//2 232//2
f 230//7 232//7 290//7 289//7
f 289//8 290//8 228//8 226//8
f 333//1 331//1 332//1
f 334//3 336//3 335//3
f 331//5 334//5 335//5 332//5
f 332//15 335//15 336//15 333//15
f 333//2 336//2 334//2 331//2
f 385//1 386//1 388//1 387//1
f 387//2 388//2 392//2 391//2
f 391//3 392//3 390//3 389//3
f 389//4 390//4 386//4 385//4
f 387//5 391//5 389//5 385//5
f 392//6 388//6 386//6 390//6
f 399//1 400//1 402//1 401//1
f 401//2 402//2 406//2 405//2
f 405//3 406//3 404//3 403//3
f 403//4 404//4 400//4 399//4
f 401//5 405//5 403//5 399//5
f 406//6 402//6 400//6 404//6
usemtl EF_White
f 41//1 42//1 44//1 43//1
f 43//2 44//2 48//2 47//2
f 47//3 48//3 46//3 45//3
f 45//4 46//4 42//4 41//4
f 43//5 47//5 45//5 41//5
f 48//6 44//6 42//6 46//6
f 49//1 50//1 52//1 51//1
f 51//2 52//2 56//2 55//2
f 55//3 56//3 54//3 53//3
f 53//4 54//4 50//4 49//4
f 51//5 55//5 53//5 49//5
f 56//6 52//6 50//6 54//6
f 57//1 58//1 60//1 59//1
f 59//2 60//2 64//2 63//2
f 63//3 64//3 62//3 61//3
f 61//4 62//4 58//4 57//4
f 59//5 63//5 61//5 57//5
f 64//6 60//6 58//6 62//6
f 65//1 66//1 68//1 67//1
f 67//2 68//2 72//2 71//2
f 71//3 72//3 70//3 69//3
f 69//4 70//4 66//4 65//4
f 67//5 71//5 69//5 65//5
f 72//6 68//6 66//6 70//6
f 131//1 132//1 134//1 133//1
f 133//2 134//2 138//2 137//2
f 137//3 138//3 136//3 135//3
f 135//4 136//4 132//4 131//4
f 133//5 137//5 135//5 131//5
f 138//6 134//6 132//6 136//6
f 233//1 234//1 236//1 235//1
f 235//2 236//2 240//2 239//2
f 239//3 240//3 238//3 237//3
f 237//4 238//4 234//4 233//4
f 235//5 239//5 237//5 233//5
f 240//6 236//6 234//6 238//6
f 241//1 242//1 244//1 243//1
f 243//2 244//2 248//2 247//2
f 247//3 248//3 246//3 245//3
f 245//4 246//4 242//4 241//4
f 243//5 247//5 245//5 241//5
f 248//6 244//6 242//6 246//6
f 249//1 250//1 252//1 251//1
f 251//2 252//2 256//2 255//2
f 255//3 256//3 254//3 253//3
f 253//4 254//4 250//4 249//4
f 251//5 255//5 253//5 249//5
f 256//6 252//6 250//6 254//6
f 257//1 258//1 260//1 259//1
f 259//2 260//2 264//2 263//2
f 263//3 264//3 262//3 261//3
f 261//4 262//4 258//4 257//4
f 259//5 263//5 261//5 257//5
f 264//6 260//6 258//6 262//6
f 323//1 324//1 326//1 325//1
f 325//2 326//2 330//2 329//2
f 329//3 330//3 328//3 327//3
f 327//4 328//4 324//4 323//4
f 325//5 329//5 327//5 323//5
f 330//6 326//6 324//6 328//6
f 413//1 414//1 416//1 415//1
f 415//2 416//2 420//2 419//2
f 419//3 420//3 418//3 417//3
f 417//4 418//4 414//4 413//4
f 415//5 419//5 417//5 413//5
f 420//6 416//6 414//6 418//6
f 421//1 422//1 424//1 423//1
f 423//2 424//2 428//2 427//2
f 427//3 428//3 426//3 425//3
f 425//4 426//4 422//4 421//4
f 423//5 427//5 425//5 421//5
f 428//6 424//6 422//6 426//6
usemtl EF_Roof
f 99//9 100//9 102//9 101//9
f 101//2 102//2 106//2 105//2
f 105//10 106//10 104//10 103//10
f 103//4 104//4 100//4 99//4
f 101//11 105//11 103//11 99//11
f 106//8 102//8 100//8 104//8
f 107//12 108//12 110//12 109//12
f 109//2 110//2 114//2 113//2
f 113//13 114//13 112//13 111//13
f 111//4 112//4 108//4 107//4
f 109//14 113//14 111//14 107//14
f 114//7 110//7 108//7 112//7
f 115//1 116//1 118//1 117//1
f 117//2 118//2 122//2 121//2
f 121//3 122//3 120//3 119//3
f 119//4 120//4 116//4 115//4
f 117//5 121//5 119//5 115//5
f 122//6 118//6 116//6 120//6
f 291//9 292//9 294//9 293//9
f 293//2 294//2 298//2 297//2
f 297//10 298//10 296//10 295//10
f 295//4 296//4 292//4 291//4
f 293//11 297//11 295//11 291//11
f 298//8 294//8 292//8 296//8
f 299//12 300//12 302//12 301//12
f 301//2 302//2 306//2 305//2
f 305//13 306//13 304//13 303//13
f 303//4 304//4 300//4 299//4
f 301//14 305//14 303//14 299//14
f 306//7 302//7 300//7 304//7
f 307//1 308//1 310//1 309//1
f 309//2 310//2 314//2 313//2
f 313//3 314//3 312//3 311//3
f 311//4 312//4 308//4 307//4
f 309//5 313//5 311//5 307//5
f 314//6 310//6 308//6 312//6
f 395//4 393//4 394//4
f 396//2 398//2 397//2
f 393//5 396//5 397//5 394//5
f 394//16 397//16 398//16 395//16
f 395//1 398//1 396//1 393//1
usemtl EF_Black
f 123//1 124//1 126//1 125//1
f 125//2 126//2 130//2 129//2
f 129//3 130//3 128//3 127//3
f 127//4 128//4 124//4 123//4
f 125//5 129//5 127//5 123//5
f 130//6 126//6 124//6 128//6
f 315//1 316//1 318//1 317//1
f 317//2 318//2 322//2 321//2
f 321//3 322//3 320//3 319//3
f 319//4 320//4 316//4 315//4
f 317//5 321//5 319//5 315//5
f 322//6 318//6 316//6 320//6
usemtl EF_Accent
f 161//1 162//1 164//1 163//1
f 163//2 164//2 168//2 167//2
f 167//3 168//3 166//3 165//3
f 165//4 166//4 162//4 161//4
f 163//5 167//5 165//5 161//5
f 168//6 164//6 162//6 166//6
f 177//1 178//1 180//1 179//1
f 179//2 180//2 184//2 183//2
f 183//3 184//3 182//3 181//3
f 181//4 182//4 178//4 177//4
f 179//5 183//5 181//5 177//5
f 184//6 180//6 178//6 182//6
f 185//1 186//1 188//1 187//1
f 187//2 188//2 192//2 191//2
f 191//3 192//3 190//3 189//3
f 189//4 190//4 186//4 185//4
f 187//5 191//5 189//5 185//5
f 192//6 188//6 186//6 190//6
f 353//1 354//1 356//1 355//1
f 355//2 356//2 360//2 359//2
f 359//3 360//3 358//3 357//3
f 357//4 358//4 354//4 353//4
f 355//5 359//5 357//5 353//5
f 360//6 356//6 354//6 358//6
f 369//1 370//1 372//1 371//1
f 371//2 372//2 376//2 375//2
f 375//3 376//3 374//3 373//3
f 373//4 374//4 370//4 369//4
f 371//5 375//5 373//5 369//5
f 376//6 372//6 370//6 374//6
f 377//1 378//1 380//1 379//1
f 379//2 380//2 384//2 383//2
f 383//3 384//3 382//3 381//3
f 381//4 382//4 378//4 377//4
f 379//5 383//5 381//5 377//5
f 384//6 380//6 378//6 382//6
usemtl EF_Glass
f 169//1 170//1 172//1 171//1
f 171//2 172//2 176//2 175//2
f 175//3 176//3 174//3 173//3
f 173//4 174//4 170//4 169//4
f 171//5 175//5 173//5 169//5
f 176//6 172//6 170//6 174//6
f 361//1 362//1 364//1 363//1
f 363//2 364//2 368//2 367//2
f 367//3 368//3 366//3 365//3
f 365//4 366//4 362//4 361//4
f 363//5 367//5 365//5 361//5
f 368//6 364//6 362//6 366//6
usemtl EF_RoofDark
f 409//4 407//4 408//4
f 410//2 412//2 411//2
f 407//5 410//5 411//5 408//5
f 408//17 411//17 412//17 409//17
f 409//18 412//18 410//18 407//18
