# Blender 5.0.1
# www.blender.org
mtllib Warehouse.mtl
o Warehouse
v -5.040000 0.000000 2.496346
v -5.040000 4.480000 2.496346
v -5.040000 0.000000 -4.223654
v -5.040000 4.480000 -4.223654
v 5.040000 0.000000 2.496346
v 5.040000 4.480000 2.496346
v 5.040000 0.000000 -4.223654
v 5.040000 4.480000 -4.223654
v -4.662000 0.000000 2.538347
v -4.662000 4.480000 2.538347
v -4.662000 0.000000 2.482346
v -4.662000 4.480000 2.482346
v -4.578000 0.000000 2.538347
v -4.578000 4.480000 2.538347
v -4.578000 0.000000 2.482346
v -4.578000 4.480000 2.482346
v -4.662000 0.000000 -4.209654
v -4.662000 4.480000 -4.209654
v -4.662000 0.000000 -4.265654
v -4.662000 4.480000 -4.265654
v -4.578000 0.000000 -4.209654
v -4.578000 4.480000 -4.209654
v -4.578000 0.000000 -4.265654
v -4.578000 4.480000 -4.265654
v -3.822000 0.000000 2.538347
v -3.822000 4.480000 2.538347
v -3.822000 0.000000 2.482346
v -3.822000 4.480000 2.482346
v -3.738000 0.000000 2.538347
v -3.738000 4.480000 2.538347
v -3.738000 0.000000 2.482346
v -3.738000 4.480000 2.482346
v -3.822000 0.000000 -4.209654
v -3.822000 4.480000 -4.209654
v -3.822000 0.000000 -4.265654
v -3.822000 4.480000 -4.265654
v -3.738000 0.000000 -4.209654
v -3.738000 4.480000 -4.209654
v -3.738000 0.000000 -4.265654
v -3.738000 4.480000 -4.265654
v -2.982000 0.000000 2.538347
v -2.982000 4.480000 2.538347
v -2.982000 0.000000 2.482346
v -2.982000 4.480000 2.482346
v -2.898000 0.000000 2.538347
v -2.898000 4.480000 2.538347
v -2.898000 0.000000 2.482346
v -2.898000 4.480000 2.482346
v -2.982000 0.000000 -4.209654
v -2.982000 4.480000 -4.209654
v -2.982000 0.000000 -4.265654
v -2.982000 4.480000 -4.265654
v -2.898000 0.000000 -4.209654
v -2.898000 4.480000 -4.209654
v -2.898000 0.000000 -4.265654
v -2.898000 4.480000 -4.265654
v -2.142000 0.000000 2.538347
v -2.142000 4.480000 2.538347
v -2.142000 0.000000 2.482346
v -2.142000 4.480000 2.482346
v -2.058000 0.000000 2.538347
v -2.058000 4.480000 2.538347
v -2.058000 0.000000 2.482346
v -2.058000 4.480000 2.482346
v -2.142000 0.000000 -4.209654
v -2.142000 4.480000 -4.209654
v -2.142000 0.000000 -4.265654
v -2.142000 4.480000 -4.265654
v -2.058000 0.000000 -4.209654
v -2.058000 4.480000 -4.209654
v -2.058000 0.000000 -4.265654
v -2.058000 4.480000 -4.265654
v -1.302000 0.000000 2.538347
v -1.302000 4.480000 2.538347
v -1.302000 0.000000 2.482346
v -1.302000 4.480000 2.482346
v -1.218000 0.000000 2.538347
v -1.218000 4.480000 2.538347
v -1.218000 0.000000 2.482346
v -1.218000 4.480000 2.482346
v -1.302000 0.000000 -4.209654
v -1.302000 4.480000 -4.209654
v -1.302000 0.000000 -4.265654
v -1.302000 4.480000 -4.265654
v -1.218000 0.000000 -4.209654
v -1.218000 4.480000 -4.209654
v -1.218000 0.000000 -4.265654
v -1.218000 4.480000 -4.265654
v -0.462000 0.000000 2.538347
v -0.462000 4.480000 2.538347
v -0.462000 0.000000 2.482346
v -0.462000 4.480000 2.482346
v -0.378000 0.000000 2.538347
v -0.378000 4.480000 2.538347
v -0.378000 0.000000 2.482346
v -0.378000 4.480000 2.482346
v -0.462000 0.000000 -4.209654
v -0.462000 4.480000 -4.209654
v -0.462000 0.000000 -4.265654
v -0.462000 4.480000 -4.265654
v -0.378000 0.000000 -4.209654
v -0.378000 4.480000 -4.209654
v -0.378000 0.000000 -4.265654
v -0.378000 4.480000 -4.265654
v 0.378000 0.000000 2.538347
v 0.378000 4.480000 2.538347
v 0.378000 0.000000 2.482346
v 0.378000 4.480000 2.482346
v 0.462000 0.000000 2.538347
v 0.462000 4.480000 2.538347
v 0.462000 0.000000 2.482346
v 0.462000 4.480000 2.482346
v 0.378000 0.000000 -4.209654
v 0.378000 4.480000 -4.209654
v 0.378000 0.000000 -4.265654
v 0.378000 4.480000 -4.265654
v 0.462000 0.000000 -4.209654
v 0.462000 4.480000 -4.209654
v 0.462000 0.000000 -4.265654
v 0.462000 4.480000 -4.265654
v 1.218000 0.000000 2.538347
v 1.218000 4.480000 2.538347
v 1.218000 0.000000 2.482346
v 1.218000 4.480000 2.482346
v 1.302000 0.000000 2.538347
v 1.302000 4.480000 2.538347
v 1.302000 0.000000 2.482346
v 1.302000 4.480000 2.482346
v 1.218000 0.000000 -4.209654
v 1.218000 4.480000 -4.209654
v 1.218000 0.000000 -4.265654
v 1.218000 4.480000 -4.265654
v 1.302000 0.000000 -4.209654
v 1.302000 4.480000 -4.209654
v 1.302000 0.000000 -4.265654
v 1.302000 4.480000 -4.265654
v 2.058000 0.000000 2.538347
v 2.058000 4.480000 2.538347
v 2.058000 0.000000 2.482346
v 2.058000 4.480000 2.482346
v 2.142000 0.000000 2.538347
v 2.142000 4.480000 2.538347
v 2.142000 0.000000 2.482346
v 2.142000 4.480000 2.482346
v 2.058000 0.000000 -4.209654
v 2.058000 4.480000 -4.209654
v 2.058000 0.000000 -4.265654
v 2.058000 4.480000 -4.265654
v 2.142000 0.000000 -4.209654
v 2.142000 4.480000 -4.209654
v 2.142000 0.000000 -4.265654
v 2.142000 4.480000 -4.265654
v 2.898000 0.000000 2.538347
v 2.898000 4.480000 2.538347
v 2.898000 0.000000 2.482346
v 2.898000 4.480000 2.482346
v 2.982000 0.000000 2.538347
v 2.982000 4.480000 2.538347
v 2.982000 0.000000 2.482346
v 2.982000 4.480000 2.482346
v 2.898000 0.000000 -4.209654
v 2.898000 4.480000 -4.209654
v 2.898000 0.000000 -4.265654
v 2.898000 4.480000 -4.265654
v 2.982000 0.000000 -4.209654
v 2.982000 4.480000 -4.209654
v 2.982000 0.000000 -4.265654
v 2.982000 4.480000 -4.265654
v 3.738000 0.000000 2.538347
v 3.738000 4.480000 2.538347
v 3.738000 0.000000 2.482346
v 3.738000 4.480000 2.482346
v 3.822000 0.000000 2.538347
v 3.822000 4.480000 2.538347
v 3.822000 0.000000 2.482346
v 3.822000 4.480000 2.482346
v 3.738000 0.000000 -4.209654
v 3.738000 4.480000 -4.209654
v 3.738000 0.000000 -4.265654
v 3.738000 4.480000 -4.265654
v 3.822000 0.000000 -4.209654
v 3.822000 4.480000 -4.209654
v 3.822000 0.000000 -4.265654
v 3.822000 4.480000 -4.265654
v 4.578000 0.000000 2.538347
v 4.578000 4.480000 2.538347
v 4.578000 0.000000 2.482346
v 4.578000 4.480000 2.482346
v 4.662000 0.000000 2.538347
v 4.662000 4.480000 2.538347
v 4.662000 0.000000 2.482346
v 4.662000 4.480000 2.482346
v 4.578000 0.000000 -4.209654
v 4.578000 4.480000 -4.209654
v 4.578000 0.000000 -4.265654
v 4.578000 4.480000 -4.265654
v 4.662000 0.000000 -4.209654
v 4.662000 4.480000 -4.209654
v 4.662000 0.000000 -4.265654
v 4.662000 4.480000 -4.265654
v -5.068000 4.200000 2.524346
v -5.068000 4.480000 2.524346
v -5.068000 4.200000 -4.251654
v -5.068000 4.480000 -4.251654
v 5.068000 4.200000 2.524346
v 5.068000 4.480000 2.524346
v 5.068000 4.200000 -4.251654
v 5.068000 4.480000 -4.251654
v -5.264000 4.426757 2.686715
v -5.264000 4.559573 2.730987
v -5.264000 5.617592 -0.885790
v -5.264000 5.750408 -0.841518
v 5.264000 4.426757 2.686715
v 5.264000 4.559573 2.730987
v 5.264000 5.617592 -0.885790
v 5.264000 5.750408 -0.841518
v -5.264000 5.617592 -0.841518
v -5.264000 5.750408 -0.885789
v -5.264000 4.426757 -4.414023
v -5.264000 4.559573 -4.458294
v 5.264000 5.617592 -0.841518
v 5.264000 5.750408 -0.885789
v 5.264000 4.426757 -4.414023
v 5.264000 4.559573 -4.458294
v -4.927999 4.480000 2.496346
v -4.928000 4.480000 -4.223654
v -4.927999 5.600000 -0.863654
v -5.040000 5.600000 -0.863654
v 5.040000 5.600000 -0.863654
v 4.928000 4.480000 2.496346
v 4.927999 4.480000 -4.223654
v 4.927999 5.600000 -0.863654
v -4.480000 0.000000 4.176346
v -4.480000 1.008000 4.176346
v -4.480000 0.000000 2.496346
v -4.480000 1.008000 2.496346
v 4.480000 0.000000 4.176346
v 4.480000 1.008000 4.176346
v 4.480000 0.000000 2.496346
v 4.480000 1.008000 2.496346
v -4.480000 0.966000 4.218346
v -4.480000 1.050000 4.218346
v -4.480000 0.966000 4.134346
v -4.480000 1.050000 4.134346
v 4.480000 0.966000 4.218346
v 4.480000 1.050000 4.218346
v 4.480000 0.966000 4.134346
v 4.480000 1.050000 4.134346
v -3.780000 1.008000 2.580346
v -3.780000 3.248000 2.580346
v -3.780000 1.008000 2.468347
v -3.780000 3.248000 2.468347
v -1.820000 1.008000 2.580346
v -1.820000 3.248000 2.580346
v -1.820000 1.008000 2.468347
v -1.820000 3.248000 2.468347
v -3.780000 1.271200 2.629346
v -3.780000 1.304800 2.629346
v -3.780000 1.271200 2.475346
v -3.780000 1.304800 2.475346
v -1.820000 1.271200 2.629346
v -1.820000 1.304800 2.629346
v -1.820000 1.271200 2.475346
v -1.820000 1.304800 2.475346
v -3.780000 1.551200 2.629346
v -3.780000 1.584800 2.629346
v -3.780000 1.551200 2.475346
v -3.780000 1.584800 2.475346
v -1.820000 1.551200 2.629346
v -1.820000 1.584800 2.629346
v -1.820000 1.551200 2.475346
v -1.820000 1.584800 2.475346
v -3.780000 1.831200 2.629346
v -3.780000 1.864800 2.629346
v -3.780000 1.831200 2.475346
v -3.780000 1.864800 2.475346
v -1.820000 1.831200 2.629346
v -1.820000 1.864800 2.629346
v -1.820000 1.831200 2.475346
v -1.820000 1.864800 2.475346
v -3.780000 2.111200 2.629346
v -3.780000 2.144800 2.629346
v -3.780000 2.111200 2.475346
v -3.780000 2.144800 2.475346
v -1.820000 2.111200 2.629346
v -1.820000 2.144800 2.629346
v -1.820000 2.111200 2.475346
v -1.820000 2.144800 2.475346
v -3.780000 2.391200 2.629346
v -3.780000 2.424800 2.629346
v -3.780000 2.391200 2.475346
v -3.780000 2.424800 2.475346
v -1.820000 2.391200 2.629346
v -1.820000 2.424800 2.629346
v -1.820000 2.391200 2.475346
v -1.820000 2.424800 2.475346
v -3.780000 2.671200 2.629346
v -3.780000 2.704800 2.629346
v -3.780000 2.671200 2.475346
v -3.780000 2.704800 2.475346
v -1.820000 2.671200 2.629346
v -1.820000 2.704800 2.629346
v -1.820000 2.671200 2.475346
v -1.820000 2.704800 2.475346
v -3.780000 2.951200 2.629346
v -3.780000 2.984800 2.629346
v -3.780000 2.951200 2.475346
v -3.780000 2.984800 2.475346
v -1.820000 2.951200 2.629346
v -1.820000 2.984800 2.629346
v -1.820000 2.951200 2.475346
v -1.820000 2.984800 2.475346
v -3.920000 3.248000 2.622346
v -3.920000 3.416000 2.622346
v -3.920000 3.248000 2.482346
v -3.920000 3.416000 2.482346
v -1.680000 3.248000 2.622346
v -1.680000 3.416000 2.622346
v -1.680000 3.248000 2.482346
v -1.680000 3.416000 2.482346
v -3.640000 0.560000 4.344346
v -3.640000 0.896000 4.344346
v -3.640000 0.560000 4.176346
v -3.640000 0.896000 4.176346
v -3.416000 0.560000 4.344346
v -3.416000 0.896000 4.344346
v -3.416000 0.560000 4.176346
v -3.416000 0.896000 4.176346
v -2.184000 0.560000 4.344346
v -2.184000 0.896000 4.344346
v -2.184000 0.560000 4.176346
v -2.184000 0.896000 4.176346
v -1.960000 0.560000 4.344346
v -1.960000 0.896000 4.344346
v -1.960000 0.560000 4.176346
v -1.960000 0.896000 4.176346
v -0.980000 1.008000 2.580346
v -0.980000 3.248000 2.580346
v -0.980000 1.008000 2.468347
v -0.980000 3.248000 2.468347
v 0.980000 1.008000 2.580346
v 0.980000 3.248000 2.580346
v 0.980000 1.008000 2.468347
v 0.980000 3.248000 2.468347
v -0.980000 1.271200 2.629346
v -0.980000 1.304800 2.629346
v -0.980000 1.271200 2.475346
v -0.980000 1.304800 2.475346
v 0.980000 1.271200 2.629346
v 0.980000 1.304800 2.629346
v 0.980000 1.271200 2.475346
v 0.980000 1.304800 2.475346
v -0.980000 1.551200 2.629346
v -0.980000 1.584800 2.629346
v -0.980000 1.551200 2.475346
v -0.980000 1.584800 2.475346
v 0.980000 1.551200 2.629346
v 0.980000 1.584800 2.629346
v 0.980000 1.551200 2.475346
v 0.980000 1.584800 2.475346
v -0.980000 1.831200 2.629346
v -0.980000 1.864800 2.629346
v -0.980000 1.831200 2.475346
v -0.980000 1.864800 2.475346
v 0.980000 1.831200 2.629346
v 0.980000 1.864800 2.629346
v 0.980000 1.831200 2.475346
v 0.980000 1.864800 2.475346
v -0.980000 2.111200 2.629346
v -0.980000 2.144800 2.629346
v -0.980000 2.111200 2.475346
v -0.980000 2.144800 2.475346
v 0.980000 2.111200 2.629346
v 0.980000 2.144800 2.629346
v 0.980000 2.111200 2.475346
v 0.980000 2.144800 2.475346
v -0.980000 2.391200 2.629346
v -0.980000 2.424800 2.629346
v -0.980000 2.391200 2.475346
v -0.980000 2.424800 2.475346
v 0.980000 2.391200 2.629346
v 0.980000 2.424800 2.629346
v 0.980000 2.391200 2.475346
v 0.980000 2.424800 2.475346
v -0.980000 2.671200 2.629346
v -0.980000 2.704800 2.629346
v -0.980000 2.671200 2.475346
v -0.980000 2.704800 2.475346
v 0.980000 2.671200 2.629346
v 0.980000 2.704800 2.629346
v 0.980000 2.671200 2.475346
v 0.980000 2.704800 2.475346
v -0.980000 2.951200 2.629346
v -0.980000 2.984800 2.629346
v -0.980000 2.951200 2.475346
v -0.980000 2.984800 2.475346
v 0.980000 2.951200 2.629346
v 0.980000 2.984800 2.629346
v 0.980000 2.951200 2.475346
v 0.980000 2.984800 2.475346
v -1.120000 3.248000 2.622346
v -1.120000 3.416000 2.622346
v -1.120000 3.248000 2.482346
v -1.120000 3.416000 2.482346
v 1.120000 3.248000 2.622346
v 1.120000 3.416000 2.622346
v 1.120000 3.248000 2.482346
v 1.120000 3.416000 2.482346
v -0.840000 0.560000 4.344346
v -0.840000 0.896000 4.344346
v -0.840000 0.560000 4.176346
v -0.840000 0.896000 4.176346
v -0.616000 0.560000 4.344346
v -0.616000 0.896000 4.344346
v -0.616000 0.560000 4.176346
v -0.616000 0.896000 4.176346
v 0.616000 0.560000 4.344346
v 0.616000 0.896000 4.344346
v 0.616000 0.560000 4.176346
v 0.616000 0.896000 4.176346
v 0.840000 0.560000 4.344346
v 0.840000 0.896000 4.344346
v 0.840000 0.560000 4.176346
v 0.840000 0.896000 4.176346
v 1.820000 1.008000 2.580346
v 1.820000 3.248000 2.580346
v 1.820000 1.008000 2.468347
v 1.820000 3.248000 2.468347
v 3.780000 1.008000 2.580346
v 3.780000 3.248000 2.580346
v 3.780000 1.008000 2.468347
v 3.780000 3.248000 2.468347
v 1.820000 1.271200 2.629346
v 1.820000 1.304800 2.629346
v 1.820000 1.271200 2.475346
v 1.820000 1.304800 2.475346
v 3.780000 1.271200 2.629346
v 3.780000 1.304800 2.629346
v 3.780000 1.271200 2.475346
v 3.780000 1.304800 2.475346
v 1.820000 1.551200 2.629346
v 1.820000 1.584800 2.629346
v 1.820000 1.551200 2.475346
v 1.820000 1.584800 2.475346
v 3.780000 1.551200 2.629346
v 3.780000 1.584800 2.629346
v 3.780000 1.551200 2.475346
v 3.780000 1.584800 2.475346
v 1.820000 1.831200 2.629346
v 1.820000 1.864800 2.629346
v 1.820000 1.831200 2.475346
v 1.820000 1.864800 2.475346
v 3.780000 1.831200 2.629346
v 3.780000 1.864800 2.629346
v 3.780000 1.831200 2.475346
v 3.780000 1.864800 2.475346
v 1.820000 2.111200 2.629346
v 1.820000 2.144800 2.629346
v 1.820000 2.111200 2.475346
v 1.820000 2.144800 2.475346
v 3.780000 2.111200 2.629346
v 3.780000 2.144800 2.629346
v 3.780000 2.111200 2.475346
v 3.780000 2.144800 2.475346
v 1.820000 2.391200 2.629346
v 1.820000 2.424800 2.629346
v 1.820000 2.391200 2.475346
v 1.820000 2.424800 2.475346
v 3.780000 2.391200 2.629346
v 3.780000 2.424800 2.629346
v 3.780000 2.391200 2.475346
v 3.780000 2.424800 2.475346
v 1.820000 2.671200 2.629346
v 1.820000 2.704800 2.629346
v 1.820000 2.671200 2.475346
v 1.820000 2.704800 2.475346
v 3.780000 2.671200 2.629346
v 3.780000 2.704800 2.629346
v 3.780000 2.671200 2.475346
v 3.780000 2.704800 2.475346
v 1.820000 2.951200 2.629346
v 1.820000 2.984800 2.629346
v 1.820000 2.951200 2.475346
v 1.820000 2.984800 2.475346
v 3.780000 2.951200 2.629346
v 3.780000 2.984800 2.629346
v 3.780000 2.951200 2.475346
v 3.780000 2.984800 2.475346
v 1.680000 3.248000 2.622346
v 1.680000 3.416000 2.622346
v 1.680000 3.248000 2.482346
v 1.680000 3.416000 2.482346
v 3.920000 3.248000 2.622346
v 3.920000 3.416000 2.622346
v 3.920000 3.248000 2.482346
v 3.920000 3.416000 2.482346
v 1.960000 0.560000 4.344346
v 1.960000 0.896000 4.344346
v 1.960000 0.560000 4.176346
v 1.960000 0.896000 4.176346
v 2.184000 0.560000 4.344346
v 2.184000 0.896000 4.344346
v 2.184000 0.560000 4.176346
v 2.184000 0.896000 4.176346
v 3.416000 0.560000 4.344346
v 3.416000 0.896000 4.344346
v 3.416000 0.560000 4.176346
v 3.416000 0.896000 4.176346
v 3.640000 0.560000 4.344346
v 3.640000 0.896000 4.344346
v 3.640000 0.560000 4.176346
v 3.640000 0.896000 4.176346
v -4.760000 3.840822 4.458294
v -4.760000 3.980055 4.443661
v -4.760000 3.635946 2.509032
v -4.760000 3.775179 2.494398
v 4.760000 3.840822 4.458294
v 4.760000 3.980055 4.443661
v 4.760000 3.635946 2.509032
v 4.760000 3.775179 2.494398
v -4.536000 1.008000 4.344347
v -4.536000 3.808000 4.344347
v -4.536000 1.008000 4.232346
v -4.536000 3.808000 4.232346
v -4.424000 1.008000 4.344347
v -4.424000 3.808000 4.344347
v -4.424000 1.008000 4.232346
v -4.424000 3.808000 4.232346
v 4.424000 1.008000 4.344347
v 4.424000 3.808000 4.344347
v 4.424000 1.008000 4.232346
v 4.424000 3.808000 4.232346
v 4.536000 1.008000 4.344347
v 4.536000 3.808000 4.344347
v 4.536000 1.008000 4.232346
v 4.536000 3.808000 4.232346
v -5.152000 0.000000 3.896346
v -5.152000 0.252000 3.896346
v -5.152000 0.000000 3.616346
v -5.152000 0.252000 3.616346
v -4.480000 0.000000 3.896346
v -4.480000 0.252000 3.896346
v -4.480000 0.000000 3.616346
v -4.480000 0.252000 3.616346
v -5.152000 0.504000 3.616346
v -5.152000 0.000000 3.336346
v -5.152000 0.504000 3.336346
v -4.480000 0.504000 3.616346
v -4.480000 0.000000 3.336346
v -4.480000 0.504000 3.336346
v -5.152000 0.756000 3.336346
v -5.152000 0.000000 3.056346
v -5.152000 0.756000 3.056346
v -4.480000 0.756000 3.336346
v -4.480000 0.000000 3.056346
v -4.480000 0.756000 3.056346
v -5.152000 1.008000 3.056346
v -5.152000 0.000000 2.776346
v -5.152000 1.008000 2.776346
v -4.480000 1.008000 3.056346
v -4.480000 0.000000 2.776346
v -4.480000 1.008000 2.776346
v -1.680000 3.388000 2.622346
v -1.680000 4.116000 2.622346
v -1.680000 3.388000 2.538347
v -1.680000 4.116000 2.538347
v 1.680000 3.388000 2.622346
v 1.680000 4.116000 2.622346
v 1.680000 3.388000 2.538347
v 1.680000 4.116000 2.538347
v -1.260000 4.016600 2.636346
v -1.260000 3.981150 2.592246
v -1.260000 3.752000 2.548146
v -1.260000 3.522850 2.592246
v -1.260000 3.487400 2.636346
v -1.200751 3.981150 2.600669
v -1.157378 3.884300 2.574551
v -1.141502 3.752000 2.564991
v -1.157378 3.619700 2.574551
v -1.200751 3.522850 2.600669
v -1.164133 3.981150 2.622719
v -1.093954 3.884300 2.612743
v -1.068267 3.752000 2.609091
v -1.093954 3.619700 2.612743
v -1.164133 3.522850 2.622719
v -1.164133 3.981150 2.649974
v -1.093954 3.884300 2.659950
v -1.068267 3.752000 2.663602
v -1.093954 3.619700 2.659950
v -1.164133 3.522850 2.649974
v -1.200751 3.981150 2.672024
v -1.157378 3.884300 2.698142
v -1.141502 3.752000 2.707701
v -1.157378 3.619700 2.698142
v -1.200751 3.522850 2.672024
v -1.260000 3.981150 2.680446
v -1.260000 3.884300 2.712730
v -1.260000 3.752000 2.724546
v -1.260000 3.619700 2.712730
v -1.260000 3.522850 2.680446
v -1.319249 3.981150 2.672024
v -1.362622 3.884300 2.698142
v -1.378497 3.752000 2.707701
v -1.362622 3.619700 2.698142
v -1.319249 3.522850 2.672024
v -1.355867 3.981150 2.649974
v -1.426046 3.884300 2.659950
v -1.451733 3.752000 2.663602
v -1.426046 3.619700 2.659950
v -1.355867 3.522850 2.649974
v -1.355867 3.981150 2.622719
v -1.426046 3.884300 2.612743
v -1.451733 3.752000 2.609091
v -1.426046 3.619700 2.612743
v -1.355867 3.522850 2.622719
v -1.319249 3.981150 2.600669
v -1.362622 3.884300 2.574551
v -1.378497 3.752000 2.564991
v -1.362622 3.619700 2.574551
v -1.319249 3.522850 2.600669
v -1.260000 3.884300 2.559963
v -1.260000 3.619700 2.559963
vn -1.0000 -0.0000 -0.0000
vn -0.0000 -0.0000 -1.0000
vn 1.0000 -0.0000 -0.0000
vn -0.0000 -0.0000 1.0000
vn -0.0000 -1.0000 -0.0000
vn -0.0000 1.0000 -0.0000
vn -0.0000 0.3162 -0.9487
vn -0.0000 -0.3162 0.9487
vn -0.0000 -0.9487 -0.3162
vn -0.0000 0.9487 0.3162
vn -0.0000 -0.3162 -0.9487
vn -0.0000 0.3162 0.9487
vn -0.0000 -0.9487 0.3162
vn -0.0000 0.9487 -0.3162
vn -0.0000 -0.1045 -0.9945
vn -0.0000 0.1045 0.9945
vn -0.0000 -0.9945 0.1045
vn -0.0000 0.9945 -0.1045
vn 0.0887 0.7763 -0.6241
vn 0.0887 -0.7763 -0.6241
vn 0.1402 -0.0881 -0.9862
vn 0.1336 0.3134 -0.9402
vn 0.1336 -0.3134 -0.9402
vn 0.1402 0.0881 -0.9862
vn 0.2588 -0.8651 -0.4298
vn 0.5120 -0.1229 -0.8502
vn 0.4683 0.4194 -0.7777
vn 0.4683 -0.4194 -0.7777
vn 0.5120 0.1229 -0.8502
vn 0.2588 0.8651 -0.4298
vn 0.9817 -0.1906 -0.0000
vn 0.8098 0.5868 -0.0000
vn 0.8098 -0.5868 -0.0000
vn 0.9817 0.1906 -0.0000
vn 0.3468 0.9379 -0.0000
vn 0.3468 -0.9379 -0.0000
vn 0.4683 0.4194 0.7777
vn 0.4683 -0.4194 0.7777
vn 0.5120 0.1229 0.8502
vn 0.2588 0.8651 0.4298
vn 0.2588 -0.8651 0.4298
vn 0.5120 -0.1229 0.8502
vn 0.1336 -0.3134 0.9402
vn 0.1402 0.0881 0.9862
vn 0.0887 0.7763 0.6241
vn 0.0887 -0.7763 0.6241
vn 0.1402 -0.0881 0.9862
vn 0.1336 0.3134 0.9402
vn -0.1336 -0.3134 0.9402
vn -0.1402 0.0881 0.9862
vn -0.0887 0.7763 0.6241
vn -0.0887 -0.7763 0.6241
vn -0.1402 -0.0881 0.9862
vn -0.1336 0.3134 0.9402
vn -0.4683 -0.4194 0.7777
vn -0.5120 0.1229 0.8502
vn -0.2588 0.8651 0.4298
vn -0.2588 -0.8651 0.4298
vn -0.5120 -0.1229 0.8502
vn -0.4683 0.4194 0.7777
vn -0.8098 -0.5868 -0.0000
vn -0.9817 0.1906 -0.0000
vn -0.3468 0.9379 -0.0000
vn -0.3468 -0.9379 -0.0000
vn -0.9817 -0.1906 -0.0000
vn -0.8098 0.5868 -0.0000
vn -0.5120 0.1229 -0.8502
vn -0.2588 0.8651 -0.4298
vn -0.2588 -0.8651 -0.4298
vn -0.5120 -0.1229 -0.8502
vn -0.4683 0.4194 -0.7777
vn -0.4683 -0.4194 -0.7777
vn -0.0887 0.7763 -0.6241
vn -0.0887 -0.7763 -0.6241
vn -0.1402 -0.0881 -0.9862
vn -0.1336 0.3134 -0.9402
vn -0.1336 -0.3134 -0.9402
vn -0.1402 0.0881 -0.9862
s 0
usemtl EF_Grey
f 1//1 2//1 4//1 3//1
f 3//2 4//2 8//2 7//2
f 7//3 8//3 6//3 5//3
f 5//4 6//4 2//4 1//4
f 3//5 7//5 5//5 1//5
f 8//6 4//6 2//6 6//6
f 227//3 225//3 226//3
f 2//1 228//1 4//1
f 225//5 2//5 4//5 226//5
f 226//14 4//14 228//14 227//14
f 227//10 228//10 2//10 225//10
f 229//3 6//3 8//3
f 230//1 232//1 231//1
f 6//5 230//5 231//5 8//5
f 8//14 231//14 232//14 229//14
f 229//10 232//10 230//10 6//10
usemtl EF_Metal
f 9//1 10//1 12//1 11//1
f 11//2 12//2 16//2 15//2
f 15//3 16//3 14//3 13//3
f 13//4 14//4 10//4 9//4
f 11//5 15//5 13//5 9//5
f 16//6 12//6 10//6 14//6
f 17//1 18//1 20//1 19//1
f 19//2 20//2 24//2 23//2
f 23//3 24//3 22//3 21//3
f 21//4 22//4 18//4 17//4
f 19//5 23//5 21//5 17//5
f 24//6 20//6 18//6 22//6
f 25//1 26//1 28//1 27//1
f 27//2 28//2 32//2 31//2
f 31//3 32//3 30//3 29//3
f 29//4 30//4 26//4 25//4
f 27//5 31//5 29//5 25//5
f 32//6 28//6 26//6 30//6
f 33//1 34//1 36//1 35//1
f 35//2 36//2 40//2 39//2
f 39//3 40//3 38//3 37//3
f 37//4 38//4 34//4 33//4
f 35//5 39//5 37//5 33//5
f 40//6 36//6 34//6 38//6
f 41//1 42//1 44//1 43//1
f 43//2 44//2 48//2 47//2
f 47//3 48//3 46//3 45//3
f 45//4 46//4 42//4 41//4
f 43//5 47//5 45//5 41//5
f 48//6 44//6 42//6 46//6
f 49//1 50//1 52//1 51//1
f 51//2 52//2 56//2 55//2
f 55//3 56//3 54//3 53//3
f 53//4 54//4 50//4 49//4
f 51//5 55//5 53//5 49//5
f 56//6 52//6 50//6 54//6
f 57//1 58//1 60//1 59//1
f 59//2 60//2 64//2 63//2
f 63//3 64//3 62//3 61//3
f 61//4 62//4 58//4 57//4
f 59//5 63//5 61//5 57//5
f 64//6 60//6 58//6 62//6
f 65//1 66//1 68//1 67//1
f 67//2 68//2 72//2 71//2
f 71//3 72//3 70//3 69//3
f 69//4 70//4 66//4 65//4
f 67//5 71//5 69//5 65//5
f 72//6 68//6 66//6 70//6
f 73//1 74//1 76//1 75//1
f 75//2 76//2 80//2 79//2
f 79//3 80//3 78//3 77//3
f 77//4 78//4 74//4 73//4
f 75//5 79//5 77//5 73//5
f 80//6 76//6 74//6 78//6
f 81//1 82//1 84//1 83//1
f 83//2 84//2 88//2 87//2
f 87//3 88//3 86//3 85//3
f 85//4 86//4 82//4 81//4
f 83//5 87//5 85//5 81//5
f 88//6 84//6 82//6 86//6
f 89//1 90//1 92//1 91//1
f 91//2 92//2 96//2 95//2
f 95//3 96//3 94//3 93//3
f 93//4 94//4 90//4 89//4
f 91//5 95//5 93//5 89//5
f 96//6 92//6 90//6 94//6
f 97//1 98//1 100//1 99//1
f 99//2 100//2 104//2 103//2
f 103//3 104//3 102//3 101//3
f 101//4 102//4 98//4 97//4
f 99//5 103//5 101//5 97//5
f 104//6 100//6 98//6 102//6
f 105//1 106//1 108//1 107//1
f 107//2 108//2 112//2 111//2
f 111//3 112//3 110//3 109//3
f 109//4 110//4 106//4 105//4
f 107//5 111//5 109//5 105//5
f 112//6 108//6 106//6 110//6
f 113//1 114//1 116//1 115//1
f 115//2 116//2 120//2 119//2
f 119//3 120//3 118//3 117//3
f 117//4 118//4 114//4 113//4
f 115//5 119//5 117//5 113//5
f 120//6 116//6 114//6 118//6
f 121//1 122//1 124//1 123//1
f 123//2 124//2 128//2 127//2
f 127//3 128//3 126//3 125//3
f 125//4 126//4 122//4 121//4
f 123//5 127//5 125//5 121//5
f 128//6 124//6 122//6 126//6
f 129//1 130//1 132//1 131//1
f 131//2 132//2 136//2 135//2
f 135//3 136//3 134//3 133//3
f 133//4 134//4 130//4 129//4
f 131//5 135//5 133//5 129//5
f 136//6 132//6 130//6 134//6
f 137//1 138//1 140//1 139//1
f 139//2 140//2 144//2 143//2
f 143//3 144//3 142//3 141//3
f 141//4 142//4 138//4 137//4
f 139//5 143//5 141//5 137//5
f 144//6 140//6 138//6 142//6
f 145//1 146//1 148//1 147//1
f 147//2 148//2 152//2 151//2
f 151//3 152//3 150//3 149//3
f 149//4 150//4 146//4 145//4
f 147//5 151//5 149//5 145//5
f 152//6 148//6 146//6 150//6
f 153//1 154//1 156//1 155//1
f 155//2 156//2 160//2 159//2
f 159//3 160//3 158//3 157//3
f 157//4 158//4 154//4 153//4
f 155//5 159//5 157//5 153//5
f 160//6 156//6 154//6 158//6
f 161//1 162//1 164//1 163//1
f 163//2 164//2 168//2 167//2
f 167//3 168//3 166//3 165//3
f 165//4 166//4 162//4 161//4
f 163//5 167//5 165//5 161//5
f 168//6 164//6 162//6 166//6
f 169//1 170//1 172//1 171//1
f 171//2 172//2 176//2 175//2
f 175//3 176//3 174//3 173//3
f 173//4 174//4 170//4 169//4
f 171//5 175//5 173//5 169//5
f 176//6 172//6 170//6 174//6
f 177//1 178//1 180//1 179//1
f 179//2 180//2 184//2 183//2
f 183//3 184//3 182//3 181//3
f 181//4 182//4 178//4 177//4
f 179//5 183//5 181//5 177//5
f 184//6 180//6 178//6 182//6
f 185//1 186//1 188//1 187//1
f 187//2 188//2 192//2 191//2
f 191//3 192//3 190//3 189//3
f 189//4 190//4 186//4 185//4
f 187//5 191//5 189//5 185//5
f 192//6 188//6 186//6 190//6
f 193//1 194//1 196//1 195//1
f 195//2 196//2 200//2 199//2
f 199//3 200//3 198//3 197//3
f 197//4 198//4 194//4 193//4
f 195//5 199//5 197//5 193//5
f 200//6 196//6 194//6 198//6
f 249//1 250//1 252//1 251//1
f 251//2 252//2 256//2 255//2
f 255//3 256//3 254//3 253//3
f 253//4 254//4 250//4 249//4
f 251//5 255//5 253//5 249//5
f 256//6 252//6 250//6 254//6
f 337//1 338//1 340//1 339//1
f 339//2 340//2 344//2 343//2
f 343//3 344//3 342//3 341//3
f 341//4 342//4 338//4 337//4
f 339//5 343//5 341//5 337//5
f 344//6 340//6 338//6 342//6
f 425//1 426//1 428//1 427//1
f 427//2 428//2 432//2 431//2
f 431//3 432//3 430//3 429//3
f 429//4 430//4 426//4 425//4
f 427//5 431//5 429//5 425//5
f 432//6 428//6 426//6 430//6
usemtl EF_Roof
f 201//1 202//1 204//1 203//1
f 203//2 204//2 208//2 207//2
f 207//3 208//3 206//3 205//3
f 205//4 206//4 202//4 201//4
f 203//5 207//5 205//5 201//5
f 208//6 204//6 202//6 206//6
f 513//1 514//1 516//1 515//1
f 515//15 516//15 520//15 519//15
f 519//3 520//3 518//3 517//3
f 517//16 518//16 514//16 513//16
f 515//17 519//17 517//17 513//17
f 520//18 516//18 514//18 518//18
usemtl EF_GreyDark
f 209//1 210//1 212//1 211//1
f 211//7 212//7 216//7 215//7
f 215//3 216//3 214//3 213//3
f 213//8 214//8 210//8 209//8
f 211//9 215//9 213//9 209//9
f 216//10 212//10 210//10 214//10
f 217//1 218//1 220//1 219//1
f 219//11 220//11 224//11 223//11
f 223//3 224//3 222//3 221//3
f 221//12 222//12 218//12 217//12
f 219//13 223//13 221//13 217//13
f 224//14 220//14 218//14 222//14
f 257//1 258//1 260//1 259//1
f 259//2 260//2 264//2 263//2
f 263//3 264//3 262//3 261//3
f 261//4 262//4 258//4 257//4
f 259//5 263//5 261//5 257//5
f 264//6 260//6 258//6 262//6
f 265//1 266//1 268//1 267//1
f 267//2 268//2 272//2 271//2
f 271//3 272//3 270//3 269//3
f 269//4 270//4 266//4 265//4
f 267//5 271//5 269//5 265//5
f 272//6 268//6 266//6 270//6
f 273//1 274//1 276//1 275//1
f 275//2 276//2 280//2 279//2
f 279//3 280//3 278//3 277//3
f 277//4 278//4 274//4 273//4
f 275//5 279//5 277//5 273//5
f 280//6 276//6 274//6 278//6
f 281//1 282//1 284//1 283//1
f 283//2 284//2 288//2 287//2
f 287//3 288//3 286//3 285//3
f 285//4 286//4 282//4 281//4
f 283//5 287//5 285//5 281//5
f 288//6 284//6 282//6 286//6
f 289//1 290//1 292//1 291//1
f 291//2 292//2 296//2 295//2
f 295//3 296//3 294//3 293//3
f 293//4 294//4 290//4 289//4
f 291//5 295//5 293//5 289//5
f 296//6 292//6 290//6 294//6
f 297//1 298//1 300//1 299//1
f 299//2 300//2 304//2 303//2
f 303//3 304//3 302//3 301//3
f 301//4 302//4 298//4 297//4
f 299//5 303//5 301//5 297//5
f 304//6 300//6 298//6 302//6
f 305//1 306//1 308//1 307//1
f 307//2 308//2 312//2 311//2
f 311//3 312//3 310//3 309//3
f 309//4 310//4 306//4 305//4
f 307//5 311//5 309//5 305//5
f 312//6 308//6 306//6 310//6
f 345//1 346//1 348//1 347//1
f 347//2 348//2 352//2 351//2
f 351//3 352//3 350//3 349//3
f 349//4 350//4 346//4 345//4
f 347//5 351//5 349//5 345//5
f 352//6 348//6 346//6 350//6
f 353//1 354//1 356//1 355//1
f 355//2 356//2 360//2 359//2
f 359//3 360//3 358//3 357//3
f 357//4 358//4 354//4 353//4
f 355//5 359//5 357//5 353//5
f 360//6 356//6 354//6 358//6
f 361//1 362//1 364//1 363//1
f 363//2 364//2 368//2 367//2
f 367//3 368//3 366//3 365//3
f 365//4 366//4 362//4 361//4
f 363//5 367//5 365//5 361//5
f 368//6 364//6 362//6 366//6
f 369//1 370//1 372//1 371//1
f 371//2 372//2 376//2 375//2
f 375//3 376//3 374//3 373//3
f 373//4 374//4 370//4 369//4
f 371//5 375//5 373//5 369//5
f 376//6 372//6 370//6 374//6
f 377//1 378//1 380//1 379//1
f 379//2 380//2 384//2 383//2
f 383//3 384//3 382//3 381//3
f 381//4 382//4 378//4 377//4
f 379//5 383//5 381//5 377//5
f 384//6 380//6 378//6 382//6
f 385//1 386//1 388//1 387//1
f 387//2 388//2 392//2 391//2
f 391//3 392//3 390//3 389//3
f 389//4 390//4 386//4 385//4
f 387//5 391//5 389//5 385//5
f 392//6 388//6 386//6 390//6
f 393//1 394//1 396//1 395//1
f 395//2 396//2 400//2 399//2
f 399//3 400//3 398//3 397//3
f 397//4 398//4 394//4 393//4
f 395//5 399//5 397//5 393//5
f 400//6 396//6 394//6 398//6
f 433//1 434//1 436//1 435//1
f 435//2 436//2 440//2 439//2
f 439//3 440//3 438//3 437//3
f 437//4 438//4 434//4 433//4
f 435//5 439//5 437//5 433//5
f 440//6 436//6 434//6 438//6
f 441//1 442//1 444//1 443//1
f 443//2 444//2 448//2 447//2
f 447//3 448//3 446//3 445//3
f 445//4 446//4 442//4 441//4
f 443//5 447//5 445//5 441//5
f 448//6 444//6 442//6 446//6
f 449//1 450//1 452//1 451//1
f 451//2 452//2 456//2 455//2
f 455//3 456//3 454//3 453//3
f 453//4 454//4 450//4 449//4
f 451//5 455//5 453//5 449//5
f 456//6 452//6 450//6 454//6
f 457//1 458//1 460//1 459//1
f 459//2 460//2 464//2 463//2
f 463//3 464//3 462//3 461//3
f 461//4 462//4 458//4 457//4
f 459//5 463//5 461//5 457//5
f 464//6 460//6 458//6 462//6
f 465//1 466//1 468//1 467//1
f 467//2 468//2 472//2 471//2
f 471//3 472//3 470//3 469//3
f 469//4 470//4 466//4 465//4
f 467//5 471//5 469//5 465//5
f 472//6 468//6 466//6 470//6
f 473//1 474//1 476//1 475//1
f 475//2 476//2 480//2 479//2
f 479//3 480//3 478//3 477//3
f 477//4 478//4 474//4 473//4
f 475//5 479//5 477//5 473//5
f 480//6 476//6 474//6 478//6
f 481//1 482//1 484//1 483//1
f 483//2 484//2 488//2 487//2
f 487//3 488//3 486//3 485//3
f 485//4 486//4 482//4 481//4
f 483//5 487//5 485//5 481//5
f 488//6 484//6 482//6 486//6
usemtl EF_Path
f 233//1 234//1 236//1 235//1
f 235//2 236//2 240//2 239//2
f 239//3 240//3 238//3 237//3
f 237//4 238//4 234//4 233//4
f 235//5 239//5 237//5 233//5
f 240//6 236//6 234//6 238//6
f 537//1 538//1 540//1 539//1
f 539//2 540//2 544//2 543//2
f 543//3 544//3 542//3 541//3
f 541//4 542//4 538//4 537//4
f 539//5 543//5 541//5 537//5
f 544//6 540//6 538//6 542//6
f 539//1 545//1 547//1 546//1
f 546//2 547//2 550//2 549//2
f 549//3 550//3 548//3 543//3
f 543//4 548//4 545//4 539//4
f 546//5 549//5 543//5 539//5
f 550//6 547//6 545//6 548//6
f 546//1 551//1 553//1 552//1
f 552//2 553//2 556//2 555//2
f 555//3 556//3 554//3 549//3
f 549//4 554//4 551//4 546//4
f 552//5 555//5 549//5 546//5
f 556//6 553//6 551//6 554//6
f 552//1 557//1 559//1 558//1
f 558//2 559//2 562//2 561//2
f 561//3 562//3 560//3 555//3
f 555//4 560//4 557//4 552//4
f 558//5 561//5 555//5 552//5
f 562//6 559//6 557//6 560//6
usemtl EF_Accent
f 241//1 242//1 244//1 243//1
f 243//2 244//2 248//2 247//2
f 247//3 248//3 246//3 245//3
f 245//4 246//4 242//4 241//4
f 243//5 247//5 245//5 241//5
f 248//6 244//6 242//6 246//6
f 313//1 314//1 316//1 315//1
f 315//2 316//2 320//2 319//2
f 319//3 320//3 318//3 317//3
f 317//4 318//4 314//4 313//4
f 315//5 319//5 317//5 313//5
f 320//6 316//6 314//6 318//6
f 401//1 402//1 404//1 403//1
f 403//2 404//2 408//2 407//2
f 407//3 408//3 406//3 405//3
f 405//4 406//4 402//4 401//4
f 403//5 407//5 405//5 401//5
f 408//6 404//6 402//6 406//6
f 489//1 490//1 492//1 491//1
f 491//2 492//2 496//2 495//2
f 495//3 496//3 494//3 493//3
f 493//4 494//4 490//4 489//4
f 491//5 495//5 493//5 489//5
f 496//6 492//6 490//6 494//6
f 563//1 564//1 566//1 565//1
f 565//2 566//2 570//2 569//2
f 569//3 570//3 568//3 567//3
f 567//4 568//4 564//4 563//4
f 565//5 569//5 567//5 563//5
f 570//6 566//6 564//6 568//6
usemtl EF_Black
f 321//1 322//1 324//1 323//1
f 323//2 324//2 328//2 327//2
f 327//3 328//3 326//3 325//3
f 325//4 326//4 322//4 321//4
f 323//5 327//5 325//5 321//5
f 328//6 324//6 322//6 326//6
f 329//1 330//1 332//1 331//1
f 331//2 332//2 336//2 335//2
f 335//3 336//3 334//3 333//3
f 333//4 334//4 330//4 329//4
f 331//5 335//5 333//5 329//5
f 336//6 332//6 330//6 334//6
f 409//1 410//1 412//1 411//1
f 411//2 412//2 416//2 415//2
f 415//3 416//3 414//3 413//3
f 413//4 414//4 410//4 409//4
f 411//5 415//5 413//5 409//5
f 416//6 412//6 410//6 414//6
f 417//1 418//1 420//1 419//1
f 419//2 420//2 424//2 423//2
f 423//3 424//3 422//3 421//3
f 421//4 422//4 418//4 417//4
f 419//5 423//5 421//5 417//5
f 424//6 420//6 418//6 422//6
f 497//1 498//1 500//1 499//1
f 499//2 500//2 504//2 503//2
f 503//3 504//3 502//3 501//3
f 501//4 502//4 498//4 497//4
f 499//5 503//5 501//5 497//5
f 504//6 500//6 498//6 502//6
f 505//1 506//1 508//1 507//1
f 507//2 508//2 512//2 511//2
f 511//3 512//3 510//3 509//3
f 509//4 510//4 506//4 505//4
f 507//5 511//5 509//5 505//5
f 512//6 508//6 506//6 510//6
usemtl EF_White
f 521//1 522//1 524//1 523//1
f 523//2 524//2 528//2 527//2
f 527//3 528//3 526//3 525//3
f 525//4 526//4 522//4 521//4
f 523//5 527//5 525//5 521//5
f 528//6 524//6 522//6 526//6
f 529//1 530//1 532//1 531//1
f 531//2 532//2 536//2 535//2
f 535//3 536//3 534//3 533//3
f 533//4 534//4 530//4 529//4
f 531//5 535//5 533//5 529//5
f 536//6 532//6 530//6 534//6
f 572//19 571//19 576//19
f 575//20 574//20 580//20
f 622//21 573//21 578//21 579//21
f 621//22 572//22 576//22 577//22
f 574//23 622//23 579//23 580//23
f 573//24 621//24 577//24 578//24
f 575//25 580//25 585//25
f 579//26 578//26 583//26 584//26
f 577//27 576//27 581//27 582//27
f 580//28 579//28 584//28 585//28
f 578//29 577//29 582//29 583//29
f 576//30 571//30 581//30
f 584//31 583//31 588//31 589//31
f 582//32 581//32 586//32 587//32
f 585//33 584//33 589//33 590//33
f 583//34 582//34 587//34 588//34
f 581//35 571//35 586//35
f 575//36 585//36 590//36
f 587//37 586//37 591//37 592//37
f 590//38 589//38 594//38 595//38
f 588//39 587//39 592//39 593//39
f 586//40 571//40 591//40
f 575//41 590//41 595//41
f 589//42 588//42 593//42 594//42
f 595//43 594//43 599//43 600//43
f 593//44 592//44 597//44 598//44
f 591//45 571//45 596//45
f 575//46 595//46 600//46
f 594//47 593//47 598//47 599//47
f 592//48 591//48 596//48 597//48
f 600//49 599//49 604//49 605//49
f 598//50 597//50 602//50 603//50
f 596//51 571//51 601//51
f 575//52 600//52 605//52
f 599//53 598//53 603//53 604//53
f 597//54 596//54 601//54 602//54
f 605//55 604//55 609//55 610//55
f 603//56 602//56 607//56 608//56
f 601//57 571//57 606//57
f 575//58 605//58 610//58
f 604//59 603//59 608//59 609//59
f 602//60 601//60 606//60 607//60
f 610//61 609//61 614//61 615//61
f 608//62 607//62 612//62 613//62
f 606//63 571//63 611//63
f 575//64 610//64 615//64
f 609//65 608//65 613//65 614//65
f 607//66 606//66 611//66 612//66
f 613//67 612//67 617//67 618//67
f 611//68 571//68 616//68
f 575//69 615//69 620//69
f 614//70 613//70 618//70 619//70
f 612//71 611//71 616//71 617//71
f 615//72 614//72 619//72 620//72
f 616//73 571//73 572//73
f 575//74 620//74 574//74
f 619//75 618//75 573//75 622//75
f 617//76 616//76 572//76 621//76
f 620//77 619//77 622//77 574//77
f 618//78 617//78 621//78 573//78
