# Blender 5.0.1
# www.blender.org
mtllib Basket.mtl
o Basket
v -1.150816 0.000000 -0.753650 0.7882 0.5412 0.2941
v -1.196506 0.320000 -0.780629 0.7176 0.4823 0.2549
v 1.150816 0.000000 -0.753650 0.7882 0.5412 0.2941
v 1.196506 0.320000 -0.780629 0.7176 0.4823 0.2549
v 1.150816 0.000000 0.605409 0.7882 0.5412 0.2941
v 1.196506 0.320000 0.632388 0.7176 0.4823 0.2549
v -1.150816 0.000000 0.605409 0.7882 0.5412 0.2941
v -1.196506 0.320000 0.632388 0.7176 0.4823 0.2549
v -1.225062 0.520000 -0.797491 0.6824 0.4510 0.2392
v 1.225062 0.520000 -0.797491 0.6824 0.4510 0.2392
v 1.225062 0.520000 0.649250 0.6824 0.4510 0.2392
v -1.225062 0.520000 0.649250 0.6824 0.4510 0.2392
v -1.270752 0.840000 -0.824470 0.6824 0.4510 0.2392
v -1.299309 1.040000 -0.841331 0.6824 0.4510 0.2392
v 1.270752 0.840000 -0.824470 0.6824 0.4510 0.2392
v 1.299309 1.040000 -0.841331 0.6824 0.4510 0.2392
v 1.270752 0.840000 0.676229 0.6824 0.4510 0.2392
v 1.299309 1.040000 0.693090 0.6824 0.4510 0.2392
v -1.270752 0.840000 0.676229 0.6824 0.4510 0.2392
v -1.299309 1.040000 0.693090 0.6824 0.4510 0.2392
v -1.336432 1.300000 -0.863252 0.7882 0.5412 0.2941
v 1.336432 1.300000 -0.863252 0.7882 0.5412 0.2941
v 1.336432 1.300000 0.715011 0.7882 0.5412 0.2941
v -1.336432 1.300000 0.715011 0.7882 0.5412 0.2941
v -1.330979 1.280000 -0.839556 0.6118 0.3961 0.2039
v -1.380979 1.330000 -0.839556 0.6118 0.3961 0.2039
v -1.330979 1.330000 -0.889556 0.6118 0.3961 0.2039
v -1.366335 1.294645 -0.839556 0.6118 0.3961 0.2039
v -1.359847 1.301132 -0.868424 0.6118 0.3961 0.2039
v -1.366335 1.330000 -0.874911 0.6118 0.3961 0.2039
v -1.330979 1.294645 -0.874911 0.6118 0.3961 0.2039
v -1.330979 1.440000 -0.839556 0.6118 0.3961 0.2039
v -1.330979 1.390000 -0.889556 0.6118 0.3961 0.2039
v -1.380979 1.390000 -0.839556 0.6118 0.3961 0.2039
v -1.330979 1.425355 -0.874911 0.6118 0.3961 0.2039
v -1.359847 1.418868 -0.868424 0.6118 0.3961 0.2039
v -1.366335 1.390000 -0.874911 0.6118 0.3961 0.2039
v -1.366335 1.425355 -0.839556 0.6118 0.3961 0.2039
v 1.330979 1.280000 -0.839556 0.6118 0.3961 0.2039
v 1.330979 1.330000 -0.889556 0.6118 0.3961 0.2039
v 1.380979 1.330000 -0.839556 0.6118 0.3961 0.2039
v 1.330979 1.294645 -0.874911 0.6118 0.3961 0.2039
v 1.359847 1.301132 -0.868424 0.6118 0.3961 0.2039
v 1.366335 1.330000 -0.874911 0.6118 0.3961 0.2039
v 1.366335 1.294645 -0.839556 0.6118 0.3961 0.2039
v 1.330979 1.440000 -0.839556 0.6118 0.3961 0.2039
v 1.380979 1.390000 -0.839556 0.6118 0.3961 0.2039
v 1.330979 1.390000 -0.889556 0.6118 0.3961 0.2039
v 1.366335 1.425355 -0.839556 0.6118 0.3961 0.2039
v 1.359847 1.418868 -0.868424 0.6118 0.3961 0.2039
v 1.366335 1.390000 -0.874911 0.6118 0.3961 0.2039
v 1.330979 1.425355 -0.874911 0.6118 0.3961 0.2039
v 1.330979 1.280000 0.691315 0.6118 0.3961 0.2039
v 1.380979 1.330000 0.691315 0.6118 0.3961 0.2039
v 1.330979 1.330000 0.741315 0.6118 0.3961 0.2039
v 1.366335 1.294645 0.691315 0.6118 0.3961 0.2039
v 1.359847 1.301132 0.720183 0.6118 0.3961 0.2039
v 1.366335 1.330000 0.726670 0.6118 0.3961 0.2039
v 1.330979 1.294645 0.726670 0.6118 0.3961 0.2039
v 1.330979 1.440000 0.691315 0.6118 0.3961 0.2039
v 1.330979 1.390000 0.741315 0.6118 0.3961 0.2039
v 1.380979 1.390000 0.691315 0.6118 0.3961 0.2039
v 1.330979 1.425355 0.726670 0.6118 0.3961 0.2039
v 1.359847 1.418868 0.720183 0.6118 0.3961 0.2039
v 1.366335 1.390000 0.726670 0.6118 0.3961 0.2039
v 1.366335 1.425355 0.691315 0.6118 0.3961 0.2039
v -1.330979 1.280000 0.691315 0.6118 0.3961 0.2039
v -1.330979 1.330000 0.741315 0.6118 0.3961 0.2039
v -1.380979 1.330000 0.691315 0.6118 0.3961 0.2039
v -1.330979 1.294645 0.726670 0.6118 0.3961 0.2039
v -1.359847 1.301132 0.720183 0.6118 0.3961 0.2039
v -1.366335 1.330000 0.726670 0.6118 0.3961 0.2039
v -1.366335 1.294645 0.691315 0.6118 0.3961 0.2039
v -1.330979 1.440000 0.691315 0.6118 0.3961 0.2039
v -1.380979 1.390000 0.691315 0.6118 0.3961 0.2039
v -1.330979 1.390000 0.741315 0.6118 0.3961 0.2039
v -1.366335 1.425355 0.691315 0.6118 0.3961 0.2039
v -1.359847 1.418868 0.720183 0.6118 0.3961 0.2039
v -1.366335 1.390000 0.726670 0.6118 0.3961 0.2039
v -1.330979 1.425355 0.726670 0.6118 0.3961 0.2039
v -1.190000 1.385000 0.605880 1.0000 0.9647 0.8980
v -1.190000 1.415000 0.605880 1.0000 0.9647 0.8980
v -0.850000 1.415000 0.605880 0.9372 0.6667 0.6079
v -1.190000 1.385000 0.265880 0.9372 0.6667 0.6079
v -1.190000 1.415000 0.265880 0.9372 0.6667 0.6079
v -1.190000 1.385000 -0.074120 0.9058 0.5216 0.4667
v -1.190000 1.415000 -0.074120 0.9058 0.5216 0.4667
v -1.190000 1.385000 -0.414120 0.9372 0.6667 0.6079
v -1.190000 1.415000 -0.414120 0.9372 0.6667 0.6079
v -1.190000 1.385000 -0.754120 0.8470 0.2275 0.1804
v -1.190000 1.415000 -0.754120 0.8470 0.2275 0.1804
v -0.850000 1.385000 -0.754120 0.9058 0.5216 0.4667
v -0.850000 1.385000 0.605880 0.9372 0.6667 0.6079
v -0.510000 1.385000 0.605880 0.9058 0.5216 0.4667
v -0.510000 1.415000 0.605880 0.9058 0.5216 0.4667
v -0.850000 1.385000 0.265880 0.9607 0.7804 0.7176
v -0.850000 1.415000 0.265880 0.9607 0.7804 0.7176
v -0.850000 1.385000 -0.074120 0.9411 0.6863 0.6276
v -0.850000 1.415000 -0.074120 0.9411 0.6863 0.6276
v -0.510000 1.385000 0.265880 0.9411 0.6863 0.6276
v -0.510000 1.415000 0.265880 0.9411 0.6863 0.6276
v -0.510000 1.385000 -0.074120 0.9215 0.5961 0.5373
v -0.510000 1.415000 -0.074120 0.9215 0.5961 0.5373
v -0.850000 1.385000 -0.414120 0.9215 0.5961 0.5373
v -0.850000 1.415000 -0.414120 0.9215 0.5961 0.5373
v -0.510000 1.385000 -0.414120 0.9215 0.5961 0.5373
v -0.510000 1.415000 -0.414120 0.9215 0.5961 0.5373
v -0.850000 1.415000 -0.754120 0.9058 0.5216 0.4667
v -0.510000 1.385000 -0.754120 0.9372 0.6667 0.6079
v -0.510000 1.415000 -0.754120 0.9372 0.6667 0.6079
v -0.170000 1.385000 0.605880 0.9372 0.6667 0.6079
v -0.170000 1.415000 0.605880 0.9372 0.6667 0.6079
v -0.170000 1.385000 0.265880 0.9215 0.5961 0.5373
v -0.170000 1.415000 0.265880 0.9215 0.5961 0.5373
v -0.170000 1.385000 -0.074120 0.9215 0.5961 0.5373
v -0.170000 1.415000 -0.074120 0.9215 0.5961 0.5373
v -0.170000 1.385000 -0.414120 0.9215 0.5961 0.5373
v -0.170000 1.415000 -0.414120 0.9215 0.5961 0.5373
v -0.170000 1.385000 -0.754120 0.9058 0.5216 0.4667
v -0.170000 1.415000 -0.754120 0.9058 0.5216 0.4667
v 0.170000 1.385000 0.605880 0.9058 0.5216 0.4667
v 0.170000 1.415000 0.605880 0.9058 0.5216 0.4667
v 0.170000 1.385000 0.265880 0.9215 0.5961 0.5373
v 0.170000 1.415000 0.265880 0.9215 0.5961 0.5373
v 0.170000 1.385000 -0.074120 0.9215 0.5961 0.5373
v 0.170000 1.415000 -0.074120 0.9215 0.5961 0.5373
v 0.170000 1.385000 -0.414120 0.9215 0.5961 0.5373
v 0.170000 1.415000 -0.414120 0.9215 0.5961 0.5373
v 0.170000 1.385000 -0.754120 0.9372 0.6667 0.6079
v 0.170000 1.415000 -0.754120 0.9372 0.6667 0.6079
v 0.510000 1.385000 0.605880 0.9372 0.6667 0.6079
v 0.510000 1.415000 0.605880 0.9372 0.6667 0.6079
v 0.510000 1.385000 0.265880 0.9215 0.5961 0.5373
v 0.510000 1.415000 0.265880 0.9215 0.5961 0.5373
v 0.510000 1.385000 -0.074120 0.9215 0.5961 0.5373
v 0.510000 1.415000 -0.074120 0.9215 0.5961 0.5373
v 0.510000 1.385000 -0.414120 0.9215 0.5961 0.5373
v 0.510000 1.415000 -0.414120 0.9215 0.5961 0.5373
v 0.510000 1.385000 -0.754120 0.9058 0.5216 0.4667
v 0.510000 1.415000 -0.754120 0.9058 0.5216 0.4667
v 0.850000 1.415000 0.605880 0.9058 0.5216 0.4667
v 0.850000 1.385000 0.265880 0.9215 0.5961 0.5373
v 0.850000 1.415000 0.265880 0.9215 0.5961 0.5373
v 0.850000 1.385000 -0.074120 0.9215 0.5961 0.5373
v 0.850000 1.415000 -0.074120 0.9215 0.5961 0.5373
v 0.850000 1.385000 -0.414120 0.9215 0.5961 0.5373
v 0.850000 1.415000 -0.414120 0.9215 0.5961 0.5373
v 0.850000 1.415000 -0.754120 0.9372 0.6667 0.6079
v 0.850000 1.385000 0.605880 0.9058 0.5216 0.4667
v 1.190000 1.385000 0.605880 1.0000 0.9647 0.8980
v 1.190000 1.415000 0.605880 1.0000 0.9647 0.8980
v 1.190000 1.385000 0.265880 0.9372 0.6667 0.6079
v 1.190000 1.415000 0.265880 0.9372 0.6667 0.6079
v 1.190000 1.385000 -0.074120 0.9058 0.5216 0.4667
v 1.190000 1.415000 -0.074120 0.9058 0.5216 0.4667
v 1.190000 1.415000 -0.414120 0.9372 0.6667 0.6079
v 0.850000 1.385000 -0.754120 0.9372 0.6667 0.6079
v 1.190000 1.385000 -0.414120 0.9372 0.6667 0.6079
v 1.190000 1.385000 -0.754120 0.8470 0.2275 0.1804
v 1.190000 1.415000 -0.754120 0.8470 0.2275 0.1804
v -0.930000 0.959813 0.875414 0.8470 0.2275 0.1804
v -0.930000 0.984308 0.889556 0.8470 0.2275 0.1804
v -0.950000 0.979131 0.870237 0.8470 0.2275 0.1804
v -0.930000 1.428633 0.770499 0.8470 0.2275 0.1804
v -0.930000 1.442776 0.746004 0.8470 0.2275 0.1804
v -0.950000 1.423457 0.751181 0.8470 0.2275 0.1804
v -0.930000 0.957224 0.865755 0.8470 0.2275 0.1804
v -0.950000 0.976543 0.860578 0.8470 0.2275 0.1804
v -0.930000 0.971367 0.841260 0.8470 0.2275 0.1804
v -0.930000 1.440187 0.736345 0.8470 0.2275 0.1804
v -0.930000 1.415693 0.722203 0.8470 0.2275 0.1804
v -0.950000 1.420869 0.741521 0.8470 0.2275 0.1804
v -0.270000 0.959813 0.875414 0.8470 0.2275 0.1804
v -0.250000 0.979131 0.870237 0.8470 0.2275 0.1804
v -0.270000 0.984308 0.889556 0.8470 0.2275 0.1804
v -0.270000 1.442776 0.746004 0.8470 0.2275 0.1804
v -0.270000 1.428633 0.770499 0.8470 0.2275 0.1804
v -0.250000 1.423457 0.751181 0.8470 0.2275 0.1804
v -0.270000 0.957224 0.865755 0.8470 0.2275 0.1804
v -0.270000 0.971367 0.841260 0.8470 0.2275 0.1804
v -0.250000 0.976543 0.860578 0.8470 0.2275 0.1804
v -0.270000 1.440187 0.736345 0.8470 0.2275 0.1804
v -0.250000 1.420869 0.741521 0.8470 0.2275 0.1804
v -0.270000 1.415693 0.722203 0.8470 0.2275 0.1804
v -0.843736 1.425000 0.171573 0.7098 0.3294 0.2275
v -0.797774 1.377417 0.159258 0.7098 0.3294 0.2275
v -0.810391 1.384958 0.128992 0.7098 0.3294 0.2275
v -0.828039 1.405563 0.109090 0.7098 0.3294 0.2275
v -0.845990 1.433708 0.104884 0.7098 0.3294 0.2275
v -0.859432 1.461854 0.117501 0.7098 0.3294 0.2275
v -0.864765 1.482458 0.143561 0.7098 0.3294 0.2275
v -0.860559 1.490000 0.176081 0.7098 0.3294 0.2275
v -0.847941 1.482458 0.206346 0.7098 0.3294 0.2275
v -0.830293 1.461854 0.226249 0.7098 0.3294 0.2275
v -0.812343 1.433708 0.230454 0.7098 0.3294 0.2275
v -0.798901 1.405563 0.217837 0.7098 0.3294 0.2275
v -0.793568 1.384958 0.191777 0.7098 0.3294 0.2275
v -0.734988 1.360000 0.142434 0.7098 0.3294 0.2275
v -0.756843 1.373063 0.090013 0.7098 0.3294 0.2275
v -0.787410 1.408750 0.055541 0.7098 0.3294 0.2275
v -0.818501 1.457500 0.048257 0.7098 0.3294 0.2275
v -0.841784 1.506250 0.070111 0.7098 0.3294 0.2275
v -0.851020 1.541937 0.115248 0.7098 0.3294 0.2275
v -0.843736 1.555000 0.171573 0.7098 0.3294 0.2275
v -0.821882 1.541937 0.223995 0.7098 0.3294 0.2275
v -0.791314 1.506250 0.258466 0.7098 0.3294 0.2275
v -0.760223 1.457500 0.265751 0.7098 0.3294 0.2275
v -0.736940 1.408750 0.243897 0.7098 0.3294 0.2275
v -0.727704 1.373063 0.198760 0.7098 0.3294 0.2275
v -0.672203 1.377417 0.125611 0.7098 0.3294 0.2275
v -0.697438 1.392500 0.065080 0.7098 0.3294 0.2275
v -0.732735 1.433708 0.025276 0.7098 0.3294 0.2275
v -0.768635 1.490000 0.016864 0.7098 0.3294 0.2275
v -0.795520 1.546292 0.042099 0.7098 0.3294 0.2275
v -0.806185 1.587500 0.094218 0.7098 0.3294 0.2275
v -0.797774 1.602583 0.159258 0.7098 0.3294 0.2275
v -0.772539 1.587500 0.219789 0.7098 0.3294 0.2275
v -0.737242 1.546292 0.259593 0.7098 0.3294 0.2275
v -0.701342 1.490000 0.268005 0.7098 0.3294 0.2275
v -0.674457 1.433708 0.242770 0.7098 0.3294 0.2275
v -0.663792 1.392500 0.190650 0.7098 0.3294 0.2275
v 0.197774 1.897417 -0.107499 0.7098 0.3294 0.2275
v 0.172539 1.912500 -0.168030 0.7098 0.3294 0.2275
v 0.137242 1.953708 -0.207834 0.7098 0.3294 0.2275
v 0.101342 2.010000 -0.216246 0.7098 0.3294 0.2275
v 0.074457 2.066292 -0.191011 0.7098 0.3294 0.2275
v 0.063792 2.107500 -0.138891 0.7098 0.3294 0.2275
v 0.072203 2.122583 -0.073852 0.7098 0.3294 0.2275
v 0.097438 2.107500 -0.013321 0.7098 0.3294 0.2275
v 0.132735 2.066292 0.026483 0.7098 0.3294 0.2275
v 0.168635 2.010000 0.034895 0.7098 0.3294 0.2275
v 0.195520 1.953708 0.009660 0.7098 0.3294 0.2275
v 0.206185 1.912500 -0.042459 0.7098 0.3294 0.2275
v 0.243736 1.945000 -0.119814 0.7098 0.3294 0.2275
v 0.221882 1.958063 -0.172236 0.7098 0.3294 0.2275
v 0.191314 1.993750 -0.206707 0.7098 0.3294 0.2275
v 0.160223 2.042500 -0.213992 0.7098 0.3294 0.2275
v 0.136940 2.091250 -0.192138 0.7098 0.3294 0.2275
v 0.127704 2.126937 -0.147001 0.7098 0.3294 0.2275
v 0.134988 2.140000 -0.090675 0.7098 0.3294 0.2275
v 0.156843 2.126937 -0.038254 0.7098 0.3294 0.2275
v 0.187410 2.091250 -0.003782 0.7098 0.3294 0.2275
v 0.218501 2.042500 0.003502 0.7098 0.3294 0.2275
v 0.241784 1.993750 -0.018352 0.7098 0.3294 0.2275
v 0.251020 1.958063 -0.063489 0.7098 0.3294 0.2275
v 0.260559 2.010000 -0.124322 0.7098 0.3294 0.2275
v 0.247941 2.017542 -0.154587 0.7098 0.3294 0.2275
v 0.230293 2.038146 -0.174490 0.7098 0.3294 0.2275
v 0.212343 2.066292 -0.178695 0.7098 0.3294 0.2275
v 0.198901 2.094437 -0.166078 0.7098 0.3294 0.2275
v 0.193568 2.115042 -0.140018 0.7098 0.3294 0.2275
v 0.197774 2.122583 -0.107499 0.7098 0.3294 0.2275
v 0.210391 2.115042 -0.077233 0.7098 0.3294 0.2275
v 0.228039 2.094437 -0.057331 0.7098 0.3294 0.2275
v 0.245990 2.066292 -0.053125 0.7098 0.3294 0.2275
v 0.259432 2.038146 -0.065742 0.7098 0.3294 0.2275
v 0.264765 2.017542 -0.091802 0.7098 0.3294 0.2275
v 0.243736 2.075000 -0.119814 0.7098 0.3294 0.2275
v -0.317900 1.382188 -0.394422 0.7098 0.3294 0.2275
v -0.266101 1.343590 -0.375569 0.7098 0.3294 0.2275
v -0.260246 1.350261 -0.408023 0.7098 0.3294 0.2275
v -0.266479 1.368487 -0.435611 0.7098 0.3294 0.2275
v -0.283131 1.393383 -0.450939 0.7098 0.3294 0.2275
v -0.305741 1.418280 -0.449901 0.7098 0.3294 0.2275
v -0.328249 1.436505 -0.432775 0.7098 0.3294 0.2275
v -0.344624 1.443176 -0.404149 0.7098 0.3294 0.2275
v -0.350480 1.436505 -0.371694 0.7098 0.3294 0.2275
v -0.344246 1.418280 -0.344107 0.7098 0.3294 0.2275
v -0.327594 1.393383 -0.328779 0.7098 0.3294 0.2275
v -0.304985 1.368487 -0.329817 0.7098 0.3294 0.2275
v -0.282477 1.350261 -0.346943 0.7098 0.3294 0.2275
v -0.203107 1.337725 -0.352641 0.7098 0.3294 0.2275
v -0.192965 1.349280 -0.408854 0.7098 0.3294 0.2275
v -0.203762 1.380847 -0.456637 0.7098 0.3294 0.2275
v -0.232604 1.423969 -0.483186 0.7098 0.3294 0.2275
v -0.271765 1.467091 -0.481388 0.7098 0.3294 0.2275
v -0.310749 1.498659 -0.451724 0.7098 0.3294 0.2275
v -0.339113 1.510213 -0.402143 0.7098 0.3294 0.2275
v -0.349255 1.498659 -0.345930 0.7098 0.3294 0.2275
v -0.338458 1.467091 -0.298147 0.7098 0.3294 0.2275
v -0.309616 1.423969 -0.271598 0.7098 0.3294 0.2275
v -0.270456 1.380847 -0.273396 0.7098 0.3294 0.2275
v -0.231471 1.349280 -0.303060 0.7098 0.3294 0.2275
v -0.145797 1.366165 -0.331782 0.7098 0.3294 0.2275
v -0.134086 1.379507 -0.396691 0.7098 0.3294 0.2275
v -0.146553 1.415958 -0.451866 0.7098 0.3294 0.2275
v -0.179857 1.465750 -0.482522 0.7098 0.3294 0.2275
v -0.225076 1.515543 -0.480446 0.7098 0.3294 0.2275
v -0.270092 1.551994 -0.446193 0.7098 0.3294 0.2275
v -0.302843 1.565336 -0.388942 0.7098 0.3294 0.2275
v -0.314554 1.551994 -0.324033 0.7098 0.3294 0.2275
v -0.302087 1.515543 -0.268858 0.7098 0.3294 0.2275
v -0.268783 1.465750 -0.238202 0.7098 0.3294 0.2275
v -0.223564 1.415958 -0.240278 0.7098 0.3294 0.2275
v -0.178548 1.379507 -0.274531 0.7098 0.3294 0.2275
v 0.602843 2.034664 -0.059299 0.7098 0.3294 0.2275
v 0.614554 2.048006 -0.124208 0.7098 0.3294 0.2275
v 0.602087 2.084456 -0.179383 0.7098 0.3294 0.2275
v 0.568783 2.134249 -0.210039 0.7098 0.3294 0.2275
v 0.523564 2.184042 -0.207963 0.7098 0.3294 0.2275
v 0.478548 2.220493 -0.173710 0.7098 0.3294 0.2275
v 0.445797 2.233835 -0.116459 0.7098 0.3294 0.2275
v 0.434086 2.220493 -0.051550 0.7098 0.3294 0.2275
v 0.446553 2.184042 0.003625 0.7098 0.3294 0.2275
v 0.479857 2.134249 0.034281 0.7098 0.3294 0.2275
v 0.525076 2.084456 0.032205 0.7098 0.3294 0.2275
v 0.570092 2.048006 -0.002048 0.7098 0.3294 0.2275
v 0.639113 2.089787 -0.046098 0.7098 0.3294 0.2275
v 0.649255 2.101341 -0.102311 0.7098 0.3294 0.2275
v 0.638458 2.132909 -0.150093 0.7098 0.3294 0.2275
v 0.609616 2.176031 -0.176643 0.7098 0.3294 0.2275
v 0.570456 2.219152 -0.174845 0.7098 0.3294 0.2275
v 0.531471 2.250720 -0.145181 0.7098 0.3294 0.2275
v 0.503107 2.262275 -0.095600 0.7098 0.3294 0.2275
v 0.492965 2.250720 -0.039387 0.7098 0.3294 0.2275
v 0.503762 2.219152 0.008396 0.7098 0.3294 0.2275
v 0.532604 2.176031 0.034945 0.7098 0.3294 0.2275
v 0.571765 2.132909 0.033147 0.7098 0.3294 0.2275
v 0.610749 2.101341 0.003483 0.7098 0.3294 0.2275
v 0.644624 2.156824 -0.044092 0.7098 0.3294 0.2275
v 0.650480 2.163495 -0.076547 0.7098 0.3294 0.2275
v 0.644246 2.181720 -0.104134 0.7098 0.3294 0.2275
v 0.627594 2.206617 -0.119462 0.7098 0.3294 0.2275
v 0.604985 2.231513 -0.118424 0.7098 0.3294 0.2275
v 0.582477 2.249738 -0.101298 0.7098 0.3294 0.2275
v 0.566101 2.256409 -0.072672 0.7098 0.3294 0.2275
v 0.560246 2.249738 -0.040218 0.7098 0.3294 0.2275
v 0.566479 2.231513 -0.012630 0.7098 0.3294 0.2275
v 0.583131 2.206617 0.002698 0.7098 0.3294 0.2275
v 0.605741 2.181720 0.001660 0.7098 0.3294 0.2275
v 0.628249 2.163495 -0.015466 0.7098 0.3294 0.2275
v 0.617900 2.217812 -0.053819 0.7098 0.3294 0.2275
v -0.061670 1.414788 0.175019 0.7098 0.3294 0.2275
v -0.026177 1.363905 0.171914 0.7098 0.3294 0.2275
v -0.031531 1.371459 0.142268 0.7098 0.3294 0.2275
v -0.040927 1.392096 0.121045 0.7098 0.3294 0.2275
v -0.051850 1.420287 0.113931 0.7098 0.3294 0.2275
v -0.061370 1.448477 0.122833 0.7098 0.3294 0.2275
v -0.066939 1.469114 0.145366 0.7098 0.3294 0.2275
v -0.067063 1.476668 0.175491 0.7098 0.3294 0.2275
v -0.061710 1.469114 0.205137 0.7098 0.3294 0.2275
v -0.052313 1.448477 0.226361 0.7098 0.3294 0.2275
v -0.041391 1.420287 0.233474 0.7098 0.3294 0.2275
v -0.031870 1.392096 0.224572 0.7098 0.3294 0.2275
v -0.026301 1.371459 0.202040 0.7098 0.3294 0.2275
v 0.029905 1.337653 0.167007 0.7098 0.3294 0.2275
v 0.020633 1.350737 0.115659 0.7098 0.3294 0.2275
v 0.004357 1.386481 0.078899 0.7098 0.3294 0.2275
v -0.014561 1.435309 0.066578 0.7098 0.3294 0.2275
v -0.031051 1.484137 0.081997 0.7098 0.3294 0.2275
v -0.040697 1.519881 0.121024 0.7098 0.3294 0.2275
v -0.040912 1.532965 0.173203 0.7098 0.3294 0.2275
v -0.031639 1.519881 0.224552 0.7098 0.3294 0.2275
v -0.015363 1.484137 0.261312 0.7098 0.3294 0.2275
v 0.003554 1.435309 0.273633 0.7098 0.3294 0.2275
v 0.020045 1.386481 0.258214 0.7098 0.3294 0.2275
v 0.029690 1.350737 0.219186 0.7098 0.3294 0.2275
v 0.091550 1.343067 0.161614 0.7098 0.3294 0.2275
v 0.080843 1.358175 0.102322 0.7098 0.3294 0.2275
v 0.062050 1.399449 0.059875 0.7098 0.3294 0.2275
v 0.040205 1.455830 0.045648 0.7098 0.3294 0.2275
v 0.021163 1.512212 0.063452 0.7098 0.3294 0.2275
v 0.010026 1.553486 0.108517 0.7098 0.3294 0.2275
v 0.009778 1.568594 0.168768 0.7098 0.3294 0.2275
v 0.020485 1.553486 0.228061 0.7098 0.3294 0.2275
v 0.039278 1.512212 0.270507 0.7098 0.3294 0.2275
v 0.061123 1.455830 0.284735 0.7098 0.3294 0.2275
v 0.080165 1.399449 0.266930 0.7098 0.3294 0.2275
v 0.091302 1.358175 0.221865 0.7098 0.3294 0.2275
v 0.990222 1.671407 0.082991 0.7098 0.3294 0.2275
v 0.979515 1.686514 0.023698 0.7098 0.3294 0.2275
v 0.960722 1.727788 -0.018748 0.7098 0.3294 0.2275
v 0.938877 1.784170 -0.032976 0.7098 0.3294 0.2275
v 0.919835 1.840551 -0.015171 0.7098 0.3294 0.2275
v 0.908698 1.881825 0.029894 0.7098 0.3294 0.2275
v 0.908450 1.896933 0.090145 0.7098 0.3294 0.2275
v 0.919157 1.881825 0.149437 0.7098 0.3294 0.2275
v 0.937950 1.840551 0.191884 0.7098 0.3294 0.2275
v 0.959795 1.784170 0.206111 0.7098 0.3294 0.2275
v 0.978837 1.727788 0.188307 0.7098 0.3294 0.2275
v 0.989974 1.686514 0.143242 0.7098 0.3294 0.2275
v 1.040912 1.707035 0.078556 0.7098 0.3294 0.2275
v 1.031639 1.720119 0.027207 0.7098 0.3294 0.2275
v 1.015363 1.755863 -0.009553 0.7098 0.3294 0.2275
v 0.996446 1.804691 -0.021874 0.7098 0.3294 0.2275
v 0.979955 1.853519 -0.006455 0.7098 0.3294 0.2275
v 0.970310 1.889263 0.032573 0.7098 0.3294 0.2275
v 0.970095 1.902347 0.084752 0.7098 0.3294 0.2275
v 0.979367 1.889263 0.136100 0.7098 0.3294 0.2275
v 0.995643 1.853519 0.172860 0.7098 0.3294 0.2275
v 1.014561 1.804691 0.185181 0.7098 0.3294 0.2275
v 1.031051 1.755863 0.169762 0.7098 0.3294 0.2275
v 1.040697 1.720119 0.130735 0.7098 0.3294 0.2275
v 1.067063 1.763332 0.076268 0.7098 0.3294 0.2275
v 1.061710 1.770886 0.046622 0.7098 0.3294 0.2275
v 1.052313 1.791523 0.025398 0.7098 0.3294 0.2275
v 1.041391 1.819713 0.018285 0.7098 0.3294 0.2275
v 1.031870 1.847904 0.027187 0.7098 0.3294 0.2275
v 1.026301 1.868541 0.049720 0.7098 0.3294 0.2275
v 1.026177 1.876095 0.079845 0.7098 0.3294 0.2275
v 1.031531 1.868541 0.109491 0.7098 0.3294 0.2275
v 1.040927 1.847904 0.130715 0.7098 0.3294 0.2275
v 1.051850 1.819713 0.137828 0.7098 0.3294 0.2275
v 1.061370 1.791523 0.128926 0.7098 0.3294 0.2275
v 1.066939 1.770886 0.106393 0.7098 0.3294 0.2275
v 1.061670 1.825212 0.076740 0.7098 0.3294 0.2275
v -1.115793 1.459986 -0.037650 0.9098 0.7216 0.4196
v -1.088971 1.389356 -0.067957 0.9098 0.7216 0.4196
v -1.105814 1.419193 -0.090856 0.9098 0.7216 0.4196
v -1.119953 1.475364 -0.085699 0.9098 0.7216 0.4196
v -1.123108 1.524964 -0.055507 0.9098 0.7216 0.4196
v -1.113429 1.538939 -0.017966 0.9098 0.7216 0.4196
v -1.096586 1.509101 0.004933 0.9098 0.7216 0.4196
v -1.082446 1.452931 -0.000224 0.9098 0.7216 0.4196
v -1.079292 1.403331 -0.030416 0.9098 0.7216 0.4196
v -1.040151 1.345973 -0.100765 0.9098 0.7216 0.4196
v -1.069323 1.397653 -0.140428 0.9098 0.7216 0.4196
v -1.093814 1.494943 -0.131496 0.9098 0.7216 0.4196
v -1.099278 1.580853 -0.079202 0.9098 0.7216 0.4196
v -1.082513 1.605058 -0.014179 0.9098 0.7216 0.4196
v -1.053341 1.553378 0.025483 0.9098 0.7216 0.4196
v -1.028850 1.456088 0.016551 0.9098 0.7216 0.4196
v -1.023387 1.370178 -0.035742 0.9098 0.7216 0.4196
v -0.982414 1.341462 -0.127285 0.9098 0.7216 0.4196
v -1.016099 1.401136 -0.173083 0.9098 0.7216 0.4196
v -1.044379 1.513478 -0.162769 0.9098 0.7216 0.4196
v -1.050687 1.612678 -0.102385 0.9098 0.7216 0.4196
v -1.031329 1.640627 -0.027304 0.9098 0.7216 0.4196
v -0.997644 1.580953 0.018495 0.9098 0.7216 0.4196
v -0.969365 1.468611 0.008181 0.9098 0.7216 0.4196
v -0.963056 1.369411 -0.052203 0.9098 0.7216 0.4196
v -0.401503 1.507106 -0.338719 0.9098 0.7216 0.4196
v -0.435188 1.566781 -0.384517 0.9098 0.7216 0.4196
v -0.463468 1.679122 -0.374203 0.9098 0.7216 0.4196
v -0.469777 1.778322 -0.313820 0.9098 0.7216 0.4196
v -0.450419 1.806271 -0.238738 0.9098 0.7216 0.4196
v -0.416734 1.746597 -0.192940 0.9098 0.7216 0.4196
v -0.388454 1.634256 -0.203253 0.9098 0.7216 0.4196
v -0.382145 1.535055 -0.263637 0.9098 0.7216 0.4196
v -0.350319 1.542676 -0.351843 0.9098 0.7216 0.4196
v -0.379491 1.594355 -0.391506 0.9098 0.7216 0.4196
v -0.403982 1.691646 -0.382574 0.9098 0.7216 0.4196
v -0.409446 1.777555 -0.330280 0.9098 0.7216 0.4196
v -0.392681 1.801760 -0.265257 0.9098 0.7216 0.4196
v -0.363509 1.750081 -0.225595 0.9098 0.7216 0.4196
v -0.339018 1.652790 -0.234527 0.9098 0.7216 0.4196
v -0.333555 1.566880 -0.286821 0.9098 0.7216 0.4196
v -0.319404 1.608795 -0.348056 0.9098 0.7216 0.4196
v -0.336246 1.638632 -0.370955 0.9098 0.7216 0.4196
v -0.350386 1.694803 -0.365799 0.9098 0.7216 0.4196
v -0.353540 1.744403 -0.335607 0.9098 0.7216 0.4196
v -0.343861 1.758377 -0.298066 0.9098 0.7216 0.4196
v -0.327019 1.728540 -0.275167 0.9098 0.7216 0.4196
v -0.312879 1.672369 -0.280324 0.9098 0.7216 0.4196
v -0.309725 1.622769 -0.310515 0.9098 0.7216 0.4196
v -0.317040 1.687747 -0.328372 0.9098 0.7216 0.4196
v -1.170516 1.459986 -0.188001 0.9098 0.7216 0.4196
v -1.130489 1.389356 -0.182025 0.9098 0.7216 0.4196
v -1.147205 1.403331 -0.217005 0.9098 0.7216 0.4196
v -1.169028 1.452931 -0.238106 0.9098 0.7216 0.4196
v -1.183175 1.509101 -0.232967 0.9098 0.7216 0.4196
v -1.181358 1.538939 -0.204599 0.9098 0.7216 0.4196
v -1.164641 1.524964 -0.169620 0.9098 0.7216 0.4196
v -1.142818 1.475364 -0.148519 0.9098 0.7216 0.4196
v -1.128672 1.419193 -0.153658 0.9098 0.7216 0.4196
v -1.072001 1.345973 -0.188273 0.9098 0.7216 0.4196
v -1.100955 1.370178 -0.248860 0.9098 0.7216 0.4196
v -1.138754 1.456088 -0.285407 0.9098 0.7216 0.4196
v -1.163257 1.553378 -0.276507 0.9098 0.7216 0.4196
v -1.160109 1.605058 -0.227373 0.9098 0.7216 0.4196
v -1.131156 1.580853 -0.166786 0.9098 0.7216 0.4196
v -1.093357 1.494943 -0.130239 0.9098 0.7216 0.4196
v -1.068854 1.397653 -0.139139 0.9098 0.7216 0.4196
v -1.010726 1.341462 -0.205071 0.9098 0.7216 0.4196
v -1.044158 1.369411 -0.275030 0.9098 0.7216 0.4196
v -1.087805 1.468611 -0.317232 0.9098 0.7216 0.4196
v -1.116098 1.580953 -0.306954 0.9098 0.7216 0.4196
v -1.112464 1.640627 -0.250219 0.9098 0.7216 0.4196
v -1.079031 1.612678 -0.180260 0.9098 0.7216 0.4196
v -1.035385 1.513478 -0.138058 0.9098 0.7216 0.4196
v -1.007092 1.401136 -0.148335 0.9098 0.7216 0.4196
v -0.429815 1.507106 -0.416505 0.9098 0.7216 0.4196
v -0.463248 1.535055 -0.486464 0.9098 0.7216 0.4196
v -0.506894 1.634256 -0.528666 0.9098 0.7216 0.4196
v -0.535187 1.746597 -0.518389 0.9098 0.7216 0.4196
v -0.531553 1.806271 -0.461653 0.9098 0.7216 0.4196
v -0.498120 1.778322 -0.391694 0.9098 0.7216 0.4196
v -0.454474 1.679122 -0.349492 0.9098 0.7216 0.4196
v -0.426181 1.566781 -0.359770 0.9098 0.7216 0.4196
v -0.382170 1.542676 -0.439352 0.9098 0.7216 0.4196
v -0.411123 1.566880 -0.499938 0.9098 0.7216 0.4196
v -0.448922 1.652790 -0.536486 0.9098 0.7216 0.4196
v -0.473425 1.750081 -0.527585 0.9098 0.7216 0.4196
v -0.470277 1.801760 -0.478451 0.9098 0.7216 0.4196
v -0.441324 1.777555 -0.417864 0.9098 0.7216 0.4196
v -0.403525 1.691646 -0.381317 0.9098 0.7216 0.4196
v -0.379022 1.594355 -0.390217 0.9098 0.7216 0.4196
v -0.360921 1.608795 -0.462125 0.9098 0.7216 0.4196
v -0.377638 1.622769 -0.497104 0.9098 0.7216 0.4196
v -0.399461 1.672369 -0.518205 0.9098 0.7216 0.4196
v -0.413607 1.728540 -0.513067 0.9098 0.7216 0.4196
v -0.411790 1.758377 -0.484699 0.9098 0.7216 0.4196
v -0.395074 1.744403 -0.449719 0.9098 0.7216 0.4196
v -0.373251 1.694803 -0.428618 0.9098 0.7216 0.4196
v -0.359104 1.638632 -0.433757 0.9098 0.7216 0.4196
v -0.371763 1.687747 -0.478723 0.9098 0.7216 0.4196
v -1.112188 1.375641 -0.124096 0.9098 0.7216 0.4196
v -1.090786 1.347580 -0.131886 0.9098 0.7216 0.4196
v -1.109764 1.356916 -0.176712 0.9098 0.7216 0.4196
v -1.122326 1.379455 -0.193569 0.9098 0.7216 0.4196
v -1.121114 1.401995 -0.172581 0.9098 0.7216 0.4196
v -1.106838 1.411331 -0.126044 0.9098 0.7216 0.4196
v -1.087860 1.401995 -0.081217 0.9098 0.7216 0.4196
v -1.075298 1.379455 -0.064361 0.9098 0.7216 0.4196
v -1.076510 1.356916 -0.085349 0.9098 0.7216 0.4196
v -1.048365 1.334666 -0.147326 0.9098 0.7216 0.4196
v -1.081235 1.350837 -0.224967 0.9098 0.7216 0.4196
v -1.102994 1.389876 -0.254163 0.9098 0.7216 0.4196
v -1.100895 1.428916 -0.217812 0.9098 0.7216 0.4196
v -1.076168 1.445086 -0.137207 0.9098 0.7216 0.4196
v -1.043298 1.428916 -0.059565 0.9098 0.7216 0.4196
v -1.021539 1.389876 -0.030369 0.9098 0.7216 0.4196
v -1.023638 1.350837 -0.066721 0.9098 0.7216 0.4196
v -0.996292 1.340360 -0.166279 0.9098 0.7216 0.4196
v -1.034248 1.359032 -0.255931 0.9098 0.7216 0.4196
v -1.059372 1.404111 -0.289644 0.9098 0.7216 0.4196
v -1.056948 1.449190 -0.247669 0.9098 0.7216 0.4196
v -1.028396 1.467862 -0.154594 0.9098 0.7216 0.4196
v -0.990441 1.449190 -0.064942 0.9098 0.7216 0.4196
v -0.965317 1.404111 -0.031229 0.9098 0.7216 0.4196
v -0.967740 1.359032 -0.073204 0.9098 0.7216 0.4196
v -0.415382 1.506004 -0.377713 0.9098 0.7216 0.4196
v -0.453337 1.524677 -0.467366 0.9098 0.7216 0.4196
v -0.478461 1.569755 -0.501078 0.9098 0.7216 0.4196
v -0.476038 1.614834 -0.459103 0.9098 0.7216 0.4196
v -0.447485 1.633507 -0.366028 0.9098 0.7216 0.4196
v -0.409530 1.614834 -0.276376 0.9098 0.7216 0.4196
v -0.384406 1.569755 -0.242663 0.9098 0.7216 0.4196
v -0.386829 1.524677 -0.284638 0.9098 0.7216 0.4196
v -0.367610 1.528780 -0.395101 0.9098 0.7216 0.4196
v -0.400480 1.544951 -0.472742 0.9098 0.7216 0.4196
v -0.422239 1.583990 -0.501938 0.9098 0.7216 0.4196
v -0.420140 1.623030 -0.465586 0.9098 0.7216 0.4196
v -0.395413 1.639200 -0.384981 0.9098 0.7216 0.4196
v -0.362543 1.623030 -0.307340 0.9098 0.7216 0.4196
v -0.340784 1.583990 -0.278144 0.9098 0.7216 0.4196
v -0.342883 1.544951 -0.314495 0.9098 0.7216 0.4196
v -0.336940 1.562536 -0.406264 0.9098 0.7216 0.4196
v -0.355918 1.571872 -0.451090 0.9098 0.7216 0.4196
v -0.368480 1.594411 -0.467946 0.9098 0.7216 0.4196
v -0.367268 1.616951 -0.446959 0.9098 0.7216 0.4196
v -0.352992 1.626287 -0.400421 0.9098 0.7216 0.4196
v -0.334014 1.616951 -0.355595 0.9098 0.7216 0.4196
v -0.321452 1.594411 -0.338738 0.9098 0.7216 0.4196
v -0.322664 1.571872 -0.359726 0.9098 0.7216 0.4196
v -0.331589 1.598225 -0.408211 0.9098 0.7216 0.4196
v -1.113166 1.437479 -0.123740 1.0000 0.9647 0.8980
v -1.098573 1.418346 -0.129052 1.0000 0.9647 0.8980
v -1.110152 1.424712 -0.155877 1.0000 0.9647 0.8980
v -1.118154 1.440080 -0.165822 1.0000 0.9647 0.8980
v -1.117891 1.455447 -0.153061 1.0000 0.9647 0.8980
v -1.109518 1.461813 -0.125068 1.0000 0.9647 0.8980
v -1.097939 1.455447 -0.098242 1.0000 0.9647 0.8980
v -1.089937 1.440080 -0.088298 1.0000 0.9647 0.8980
v -1.090200 1.424712 -0.101059 1.0000 0.9647 0.8980
v -1.069650 1.409541 -0.139579 1.0000 0.9647 0.8980
v -1.089705 1.420567 -0.186042 1.0000 0.9647 0.8980
v -1.103565 1.447185 -0.203267 1.0000 0.9647 0.8980
v -1.103109 1.473802 -0.181164 1.0000 0.9647 0.8980
v -1.088606 1.484828 -0.132679 1.0000 0.9647 0.8980
v -1.068551 1.473802 -0.086216 1.0000 0.9647 0.8980
v -1.054692 1.447185 -0.068991 1.0000 0.9647 0.8980
v -1.055147 1.420567 -0.091095 1.0000 0.9647 0.8980
v -1.034146 1.413424 -0.152501 1.0000 0.9647 0.8980
v -1.057304 1.426155 -0.206153 1.0000 0.9647 0.8980
v -1.073307 1.456890 -0.226042 1.0000 0.9647 0.8980
v -1.072782 1.487626 -0.200519 1.0000 0.9647 0.8980
v -1.056035 1.500357 -0.144534 1.0000 0.9647 0.8980
v -1.032877 1.487626 -0.090883 1.0000 0.9647 0.8980
v -1.016874 1.456890 -0.070993 1.0000 0.9647 0.8980
v -1.017399 1.426155 -0.096516 1.0000 0.9647 0.8980
v -0.416928 1.589421 -0.377150 1.0000 0.9647 0.8980
v -0.440086 1.602152 -0.430802 1.0000 0.9647 0.8980
v -0.456089 1.632887 -0.450691 1.0000 0.9647 0.8980
v -0.455564 1.663623 -0.425168 1.0000 0.9647 0.8980
v -0.438817 1.676354 -0.369183 1.0000 0.9647 0.8980
v -0.415659 1.663623 -0.315532 1.0000 0.9647 0.8980
v -0.399656 1.632887 -0.295642 1.0000 0.9647 0.8980
v -0.400182 1.602152 -0.321165 1.0000 0.9647 0.8980
v -0.384357 1.604950 -0.389005 1.0000 0.9647 0.8980
v -0.404412 1.615975 -0.435469 1.0000 0.9647 0.8980
v -0.418271 1.642593 -0.452694 1.0000 0.9647 0.8980
v -0.417816 1.669211 -0.430590 1.0000 0.9647 0.8980
v -0.403313 1.680236 -0.382106 1.0000 0.9647 0.8980
v -0.383258 1.669211 -0.335642 1.0000 0.9647 0.8980
v -0.369399 1.642593 -0.318417 1.0000 0.9647 0.8980
v -0.369854 1.615975 -0.340521 1.0000 0.9647 0.8980
v -0.363445 1.627965 -0.396616 1.0000 0.9647 0.8980
v -0.375024 1.634330 -0.423442 1.0000 0.9647 0.8980
v -0.383026 1.649698 -0.433387 1.0000 0.9647 0.8980
v -0.382763 1.665066 -0.420625 1.0000 0.9647 0.8980
v -0.374390 1.671431 -0.392633 1.0000 0.9647 0.8980
v -0.362811 1.665066 -0.365807 1.0000 0.9647 0.8980
v -0.354809 1.649698 -0.355862 1.0000 0.9647 0.8980
v -0.355072 1.634330 -0.368624 1.0000 0.9647 0.8980
v -0.359797 1.652299 -0.397944 1.0000 0.9647 0.8980
v 1.227275 1.410174 -0.119120 0.6118 0.3961 0.2039
v 1.227275 1.410174 -0.029120 0.6118 0.3961 0.2039
v 1.150000 1.400000 0.015880 0.6118 0.3961 0.2039
v 1.072724 1.389826 -0.029120 0.6118 0.3961 0.2039
v 1.072724 1.389826 -0.119120 0.6118 0.3961 0.2039
v 1.150000 1.400000 -0.164121 0.6118 0.3961 0.2039
v -1.227275 1.410174 -0.119120 0.6118 0.3961 0.2039
v -1.227275 1.410174 -0.029120 0.6118 0.3961 0.2039
v -1.150000 1.400000 0.015880 0.6118 0.3961 0.2039
v -1.072724 1.389826 -0.029120 0.6118 0.3961 0.2039
v -1.072724 1.389826 -0.119120 0.6118 0.3961 0.2039
v -1.150000 1.400000 -0.164120 0.6118 0.3961 0.2039
v -1.186101 1.717815 -0.119120 0.6118 0.3961 0.2039
v -1.186101 1.717815 -0.029120 0.6118 0.3961 0.2039
v -1.110815 1.697642 0.015880 0.6118 0.3961 0.2039
v -1.035528 1.677469 -0.029120 0.6118 0.3961 0.2039
v -1.035528 1.677469 -0.119120 0.6118 0.3961 0.2039
v -1.110815 1.697642 -0.164120 0.6118 0.3961 0.2039
v -1.063429 2.013971 -0.119120 0.6118 0.3961 0.2039
v -1.063429 2.013971 -0.029120 0.6118 0.3961 0.2039
v -0.995929 1.975000 0.015880 0.6118 0.3961 0.2039
v -0.928429 1.936029 -0.029120 0.6118 0.3961 0.2039
v -0.928429 1.936029 -0.119120 0.6118 0.3961 0.2039
v -0.995929 1.975000 -0.164120 0.6118 0.3961 0.2039
v -0.868286 2.268286 -0.119120 0.6118 0.3961 0.2039
v -0.868286 2.268286 -0.029120 0.6118 0.3961 0.2039
v -0.813173 2.213173 0.015880 0.6118 0.3961 0.2039
v -0.758059 2.158059 -0.029120 0.6118 0.3961 0.2039
v -0.758059 2.158059 -0.119121 0.6118 0.3961 0.2039
v -0.813173 2.213173 -0.164121 0.6118 0.3961 0.2039
v -0.613971 2.463429 -0.119120 0.6118 0.3961 0.2039
v -0.613971 2.463429 -0.029120 0.6118 0.3961 0.2039
v -0.575000 2.395929 0.015880 0.6118 0.3961 0.2039
v -0.536029 2.328429 -0.029120 0.6118 0.3961 0.2039
v -0.536029 2.328429 -0.119120 0.6118 0.3961 0.2039
v -0.575000 2.395929 -0.164120 0.6118 0.3961 0.2039
v -0.317815 2.586101 -0.119120 0.6118 0.3961 0.2039
v -0.317815 2.586101 -0.029120 0.6118 0.3961 0.2039
v -0.297642 2.510815 0.015880 0.6118 0.3961 0.2039
v -0.277469 2.435528 -0.029120 0.6118 0.3961 0.2039
v -0.277469 2.435528 -0.119120 0.6118 0.3961 0.2039
v -0.297642 2.510815 -0.164120 0.6118 0.3961 0.2039
v 0.000000 2.627942 -0.119120 0.6118 0.3961 0.2039
v -0.000000 2.627942 -0.029120 0.6118 0.3961 0.2039
v -0.000000 2.550000 0.015880 0.6118 0.3961 0.2039
v -0.000000 2.472058 -0.029120 0.6118 0.3961 0.2039
v 0.000000 2.472058 -0.119120 0.6118 0.3961 0.2039
v 0.000000 2.550000 -0.164121 0.6118 0.3961 0.2039
v 0.317815 2.586101 -0.119120 0.6118 0.3961 0.2039
v 0.317815 2.586101 -0.029121 0.6118 0.3961 0.2039
v 0.297642 2.510815 0.015880 0.6118 0.3961 0.2039
v 0.277469 2.435528 -0.029120 0.6118 0.3961 0.2039
v 0.277469 2.435528 -0.119120 0.6118 0.3961 0.2039
v 0.297642 2.510815 -0.164120 0.6118 0.3961 0.2039
v 0.613971 2.463429 -0.119120 0.6118 0.3961 0.2039
v 0.613971 2.463429 -0.029120 0.6118 0.3961 0.2039
v 0.575000 2.395929 0.015880 0.6118 0.3961 0.2039
v 0.536029 2.328429 -0.029120 0.6118 0.3961 0.2039
v 0.536029 2.328429 -0.119120 0.6118 0.3961 0.2039
v 0.575000 2.395929 -0.164121 0.6118 0.3961 0.2039
v 0.868286 2.268286 -0.119120 0.6118 0.3961 0.2039
v 0.868286 2.268286 -0.029121 0.6118 0.3961 0.2039
v 0.813173 2.213173 0.015880 0.6118 0.3961 0.2039
v 0.758059 2.158059 -0.029120 0.6118 0.3961 0.2039
v 0.758059 2.158059 -0.119120 0.6118 0.3961 0.2039
v 0.813173 2.213173 -0.164120 0.6118 0.3961 0.2039
v 1.063429 2.013971 -0.119120 0.6118 0.3961 0.2039
v 1.063429 2.013971 -0.029121 0.6118 0.3961 0.2039
v 0.995929 1.975000 0.015880 0.6118 0.3961 0.2039
v 0.928429 1.936029 -0.029120 0.6118 0.3961 0.2039
v 0.928429 1.936029 -0.119120 0.6118 0.3961 0.2039
v 0.995929 1.975000 -0.164121 0.6118 0.3961 0.2039
v 1.186101 1.717815 -0.119120 0.6118 0.3961 0.2039
v 1.186101 1.717815 -0.029120 0.6118 0.3961 0.2039
v 1.110815 1.697642 0.015880 0.6118 0.3961 0.2039
v 1.035528 1.677469 -0.029120 0.6118 0.3961 0.2039
v 1.035528 1.677469 -0.119120 0.6118 0.3961 0.2039
v 1.110815 1.697642 -0.164121 0.6118 0.3961 0.2039
vn -0.0000 -0.0840 -0.9965
vn 0.9900 -0.1413 -0.0000
vn -0.0000 1.0000 -0.0000
vn -0.0000 -0.0840 0.9965
vn -0.9900 -0.1413 -0.0000
vn -0.0000 -1.0000 -0.0000
vn -0.1794 -0.9673 -0.1794
vn -0.3600 -0.9194 -0.1585
vn -0.3251 -0.8881 -0.3251
vn -0.1585 -0.9194 -0.3600
vn -0.9673 -0.1794 -0.1794
vn -0.9194 -0.1585 -0.3600
vn -0.8881 -0.3251 -0.3251
vn -0.9194 -0.3600 -0.1585
vn -0.1794 -0.1794 -0.9673
vn -0.1585 -0.3600 -0.9194
vn -0.3251 -0.3251 -0.8881
vn -0.3600 -0.1585 -0.9194
vn -0.1794 0.9673 -0.1794
vn -0.1585 0.9194 -0.3600
vn -0.3251 0.8881 -0.3251
vn -0.3600 0.9194 -0.1585
vn -0.1794 0.1794 -0.9673
vn -0.3600 0.1585 -0.9194
vn -0.3251 0.3251 -0.8881
vn -0.1585 0.3600 -0.9194
vn -0.9673 0.1794 -0.1794
vn -0.9194 0.3600 -0.1585
vn -0.8881 0.3251 -0.3251
vn -0.9194 0.1585 -0.3600
vn 0.1794 -0.9673 -0.1794
vn 0.1585 -0.9194 -0.3600
vn 0.3251 -0.8881 -0.3251
vn 0.3600 -0.9194 -0.1585
vn 0.1794 -0.1794 -0.9673
vn 0.3600 -0.1585 -0.9194
vn 0.3251 -0.3251 -0.8881
vn 0.1585 -0.3600 -0.9194
vn 0.9673 -0.1794 -0.1794
vn 0.9194 -0.3600 -0.1585
vn 0.8881 -0.3251 -0.3251
vn 0.9194 -0.1585 -0.3600
vn 0.1794 0.9673 -0.1794
vn 0.3600 0.9194 -0.1585
vn 0.3251 0.8881 -0.3251
vn 0.1585 0.9194 -0.3600
vn 0.9673 0.1794 -0.1794
vn 0.9194 0.1585 -0.3600
vn 0.8881 0.3251 -0.3251
vn 0.9194 0.3600 -0.1585
vn 0.1794 0.1794 -0.9673
vn 0.1585 0.3600 -0.9194
vn 0.3251 0.3251 -0.8881
vn 0.3600 0.1585 -0.9194
vn 0.1794 -0.9673 0.1794
vn 0.3600 -0.9194 0.1585
vn 0.3251 -0.8881 0.3251
vn 0.1585 -0.9194 0.3600
vn 0.9673 -0.1794 0.1794
vn 0.9194 -0.1585 0.3600
vn 0.8881 -0.3251 0.3251
vn 0.9194 -0.3600 0.1585
vn 0.1794 -0.1794 0.9673
vn 0.1585 -0.3600 0.9194
vn 0.3251 -0.3251 0.8881
vn 0.3600 -0.1585 0.9194
vn 0.1794 0.9673 0.1794
vn 0.1585 0.9194 0.3600
vn 0.3251 0.8881 0.3251
vn 0.3600 0.9194 0.1585
vn 0.1794 0.1794 0.9673
vn 0.3600 0.1585 0.9194
vn 0.3251 0.3251 0.8881
vn 0.1585 0.3600 0.9194
vn 0.9673 0.1794 0.1794
vn 0.9194 0.3600 0.1585
vn 0.8881 0.3251 0.3251
vn 0.9194 0.1585 0.3600
vn -0.1794 -0.9673 0.1794
vn -0.1585 -0.9194 0.3600
vn -0.3251 -0.8881 0.3251
vn -0.3600 -0.9194 0.1585
vn -0.1794 -0.1794 0.9673
vn -0.3600 -0.1585 0.9194
vn -0.3251 -0.3251 0.8881
vn -0.1585 -0.3600 0.9194
vn -0.9673 -0.1794 0.1794
vn -0.9194 -0.3600 0.1585
vn -0.8881 -0.3251 0.3251
vn -0.9194 -0.1585 0.3600
vn -0.1794 0.9673 0.1794
vn -0.3600 0.9194 0.1585
vn -0.3251 0.8881 0.3251
vn -0.1585 0.9194 0.3600
vn -0.9673 0.1794 0.1794
vn -0.9194 0.1585 0.3600
vn -0.8881 0.3251 0.3251
vn -0.9194 0.3600 0.1585
vn -0.1794 0.1794 0.9673
vn -0.1585 0.3600 0.9194
vn -0.3251 0.3251 0.8881
vn -0.3600 0.1585 0.9194
vn -1.0000 -0.0000 -0.0000
vn -0.0000 -0.0000 -1.0000
vn 1.0000 -0.0000 -0.0000
vn -0.0000 -0.0000 1.0000
vn -0.4606 -0.6137 0.6413
vn -0.4606 -0.2485 0.8521
vn -0.7588 -0.3257 0.5641
vn -0.4606 0.6413 0.6137
vn -0.4606 0.8521 0.2485
vn -0.7588 0.5641 0.3257
vn -0.4606 -0.8521 -0.2485
vn -0.7588 -0.5641 -0.3257
vn -0.4606 -0.6413 -0.6137
vn -0.4606 0.6137 -0.6413
vn -0.4606 0.2485 -0.8521
vn -0.7588 0.3257 -0.5641
vn 0.4606 -0.6137 0.6413
vn 0.7588 -0.3257 0.5641
vn 0.4606 -0.2485 0.8521
vn 0.4606 0.8521 0.2485
vn 0.4606 0.6413 0.6137
vn 0.7588 0.5641 0.3257
vn 0.4606 -0.8521 -0.2485
vn 0.4606 -0.6413 -0.6137
vn 0.7588 -0.5641 -0.3257
vn 0.4606 0.6137 -0.6413
vn 0.7588 0.3257 -0.5641
vn 0.4606 0.2485 -0.8521
vn -0.0000 -0.9659 0.2588
vn -0.0000 0.2588 0.9659
vn -0.0000 0.9659 -0.2588
vn -0.0000 -0.2588 -0.9659
vn -0.8365 -0.5000 0.2241
vn -0.5555 -0.8219 -0.1260
vn -0.4525 -0.8835 0.1212
vn -0.6997 -0.6536 -0.2885
vn -0.8463 -0.4237 -0.3229
vn -0.9561 -0.1938 -0.2198
vn -0.9996 -0.0255 -0.0070
vn -0.9653 0.0361 0.2587
vn -0.8622 -0.0255 0.5059
vn -0.7181 -0.1938 0.6684
vn -0.5715 -0.4237 0.7028
vn -0.4617 -0.6536 0.5997
vn -0.4181 -0.8219 0.3869
vn -0.1505 -0.8982 -0.4131
vn 0.0196 -0.9998 -0.0052
vn -0.3883 -0.6205 -0.6813
vn -0.6302 -0.2412 -0.7380
vn -0.8114 0.1381 -0.5680
vn -0.8832 0.4158 -0.2168
vn -0.8266 0.5174 0.2215
vn -0.6565 0.4158 0.6294
vn -0.4187 0.1381 0.8976
vn -0.1768 -0.2412 0.9542
vn 0.0044 -0.6205 0.7842
vn 0.0763 -0.8982 0.4330
vn 0.1795 -0.8078 -0.5615
vn 0.3721 -0.9228 -0.0997
vn -0.0897 -0.4934 -0.8652
vn -0.3636 -0.0639 -0.9293
vn -0.5687 0.3655 -0.7368
vn -0.6501 0.6799 -0.3392
vn -0.5859 0.7950 0.1570
vn -0.3934 0.6799 0.6188
vn -0.1241 0.3655 0.9225
vn 0.1498 -0.0639 0.9867
vn 0.3549 -0.4934 0.7941
vn 0.4362 -0.8078 0.3965
vn 0.3934 -0.6799 -0.6188
vn 0.5859 -0.7950 -0.1570
vn 0.1241 -0.3655 -0.9225
vn -0.1498 0.0639 -0.9867
vn -0.3549 0.4934 -0.7941
vn -0.4362 0.8078 -0.3965
vn -0.3721 0.9228 0.0997
vn -0.1795 0.8078 0.5615
vn 0.0897 0.4934 0.8652
vn 0.3636 0.0639 0.9293
vn 0.5687 -0.3655 0.7368
vn 0.6501 -0.6799 0.3392
vn 0.6565 -0.4158 -0.6294
vn 0.8266 -0.5174 -0.2215
vn 0.4187 -0.1381 -0.8976
vn 0.1768 0.2412 -0.9542
vn -0.0044 0.6205 -0.7842
vn -0.0763 0.8982 -0.4330
vn -0.0196 0.9998 0.0052
vn 0.1505 0.8982 0.4131
vn 0.3883 0.6205 0.6813
vn 0.6302 0.2412 0.7380
vn 0.8114 -0.1381 0.5680
vn 0.8832 -0.4158 0.2168
vn 0.8622 0.0255 -0.5059
vn 0.9653 -0.0361 -0.2587
vn 0.7181 0.1938 -0.6684
vn 0.5715 0.4237 -0.7028
vn 0.4617 0.6536 -0.5997
vn 0.4181 0.8219 -0.3869
vn 0.4525 0.8835 -0.1212
vn 0.5555 0.8219 0.1260
vn 0.6997 0.6536 0.2885
vn 0.8463 0.4237 0.3229
vn 0.9561 0.1938 0.2198
vn 0.9996 0.0255 0.0070
vn 0.8365 0.5000 -0.2241
vn -0.7198 -0.6428 -0.2620
vn -0.2415 -0.8969 -0.3704
vn -0.2893 -0.9514 -0.1053
vn -0.2924 -0.7481 -0.5957
vn -0.4284 -0.5447 -0.7209
vn -0.6131 -0.3414 -0.7124
vn -0.7969 -0.1925 -0.5726
vn -0.9307 -0.1380 -0.3387
vn -0.9785 -0.1925 -0.0737
vn -0.9276 -0.3414 0.1517
vn -0.7916 -0.5447 0.2769
vn -0.6069 -0.7481 0.2684
vn -0.4231 -0.8969 0.1285
vn 0.2608 -0.8912 -0.3712
vn 0.1819 -0.9811 0.0662
vn 0.1768 -0.6456 -0.7430
vn -0.0476 -0.3100 -0.9495
vn -0.3523 0.0255 -0.9355
vn -0.6556 0.2711 -0.7047
vn -0.8763 0.3610 -0.3190
vn -0.9552 0.2711 0.1184
vn -0.8712 0.0255 0.4902
vn -0.6468 -0.3100 0.6968
vn -0.3421 -0.6456 0.6828
vn -0.0388 -0.8912 0.4520
vn 0.5964 -0.7401 -0.3107
vn 0.5071 -0.8419 0.1846
vn 0.5013 -0.4620 -0.7316
vn 0.2472 -0.0822 -0.9655
vn -0.0978 0.2977 -0.9496
vn -0.4412 0.5758 -0.6883
vn -0.6911 0.6776 -0.2515
vn -0.7804 0.5758 0.2437
vn -0.6853 0.2977 0.6646
vn -0.4312 -0.0822 0.8985
vn -0.0863 -0.4620 0.8827
vn 0.2572 -0.7401 0.6213
vn 0.7804 -0.5758 -0.2437
vn 0.6911 -0.6776 0.2515
vn 0.6853 -0.2977 -0.6646
vn 0.4312 0.0822 -0.8985
vn 0.0863 0.4620 -0.8827
vn -0.2572 0.7401 -0.6213
vn -0.5071 0.8419 -0.1846
vn -0.5964 0.7401 0.3107
vn -0.5013 0.4620 0.7316
vn -0.2472 0.0822 0.9655
vn 0.0978 -0.2977 0.9496
vn 0.4412 -0.5758 0.6883
vn 0.9552 -0.2711 -0.1184
vn 0.8763 -0.3610 0.3190
vn 0.8712 -0.0255 -0.4902
vn 0.6468 0.3100 -0.6968
vn 0.3421 0.6456 -0.6828
vn 0.0388 0.8912 -0.4520
vn -0.1819 0.9811 -0.0662
vn -0.2608 0.8912 0.3712
vn -0.1768 0.6456 0.7430
vn 0.0476 0.3100 0.9495
vn 0.3523 -0.0255 0.9355
vn 0.6556 -0.2711 0.7047
vn 0.9785 0.1925 0.0737
vn 0.9307 0.1380 0.3387
vn 0.9276 0.3414 -0.1517
vn 0.7916 0.5447 -0.2769
vn 0.6069 0.7481 -0.2684
vn 0.4231 0.8969 -0.1285
vn 0.2893 0.9514 0.1053
vn 0.2415 0.8969 0.3704
vn 0.2924 0.7481 0.5957
vn 0.4284 0.5447 0.7209
vn 0.6131 0.3414 0.7124
vn 0.7969 0.1925 0.5726
vn 0.7198 0.6428 0.2620
vn -0.9361 -0.3420 0.0819
vn -0.6598 -0.7219 -0.2087
vn -0.6124 -0.7887 0.0536
vn -0.7429 -0.5393 -0.3965
vn -0.8396 -0.2898 -0.4595
vn -0.9238 -0.0404 -0.3807
vn -0.9731 0.1422 -0.1813
vn -0.9742 0.2090 0.0852
vn -0.9268 0.1422 0.3476
vn -0.8437 -0.0404 0.5353
vn -0.7470 -0.2898 0.5983
vn -0.6628 -0.5393 0.5195
vn -0.6135 -0.7219 0.3201
vn -0.2312 -0.8778 -0.4194
vn -0.1531 -0.9881 0.0134
vn -0.3684 -0.5765 -0.7293
vn -0.5279 -0.1650 -0.8331
vn -0.6669 0.2466 -0.7032
vn -0.7482 0.5479 -0.3742
vn -0.7500 0.6582 0.0656
vn -0.6718 0.5479 0.4984
vn -0.5346 0.2466 0.8083
vn -0.3752 -0.1650 0.9122
vn -0.2362 -0.5765 0.7822
vn -0.1549 -0.8778 0.4532
vn 0.1298 -0.8508 -0.5091
vn 0.2183 -0.9757 -0.0191
vn -0.0256 -0.5097 -0.8600
vn -0.2061 -0.0437 -0.9776
vn -0.3635 0.4223 -0.8304
vn -0.4555 0.7634 -0.4579
vn -0.4576 0.8883 0.0400
vn -0.3691 0.7634 0.5301
vn -0.2138 0.4223 0.8809
vn -0.0332 -0.0437 0.9985
vn 0.1242 -0.5097 0.8513
vn 0.2162 -0.8508 0.4789
vn 0.3691 -0.7634 -0.5301
vn 0.4576 -0.8883 -0.0400
vn 0.2138 -0.4223 -0.8809
vn 0.0332 0.0437 -0.9985
vn -0.1242 0.5097 -0.8513
vn -0.2162 0.8508 -0.4789
vn -0.2183 0.9757 0.0191
vn -0.1298 0.8508 0.5091
vn 0.0256 0.5097 0.8600
vn 0.2061 0.0437 0.9776
vn 0.3635 -0.4223 0.8304
vn 0.4555 -0.7634 0.4579
vn 0.6718 -0.5479 -0.4984
vn 0.7500 -0.6582 -0.0656
vn 0.5346 -0.2466 -0.8083
vn 0.3752 0.1650 -0.9122
vn 0.2362 0.5765 -0.7822
vn 0.1549 0.8778 -0.4532
vn 0.1531 0.9881 -0.0134
vn 0.2312 0.8778 0.4194
vn 0.3684 0.5765 0.7293
vn 0.5279 0.1650 0.8331
vn 0.6669 -0.2466 0.7032
vn 0.7482 -0.5479 0.3742
vn 0.9268 -0.1422 -0.3476
vn 0.9742 -0.2090 -0.0852
vn 0.8437 0.0404 -0.5353
vn 0.7470 0.2898 -0.5983
vn 0.6628 0.5393 -0.5195
vn 0.6135 0.7219 -0.3201
vn 0.6124 0.7887 -0.0536
vn 0.6598 0.7219 0.2087
vn 0.7429 0.5393 0.3965
vn 0.8396 0.2898 0.4595
vn 0.9238 0.0404 0.3807
vn 0.9731 -0.1422 0.1813
vn 0.9361 0.3420 -0.0819
vn -0.9077 -0.2588 0.3304
vn -0.8979 -0.3744 -0.2315
vn -0.7264 -0.6723 0.1423
vn -0.9604 -0.0666 -0.2706
vn -0.9855 0.1613 -0.0525
vn -0.8718 0.2166 0.4394
vn -0.6187 -0.0581 0.7835
vn -0.4911 -0.3473 0.7989
vn -0.5311 -0.5938 0.6045
vn -0.6396 -0.4263 -0.6396
vn -0.5140 -0.6857 -0.5154
vn -0.7325 0.1050 -0.6726
vn -0.7935 0.5144 -0.3252
vn -0.7363 0.6739 -0.0610
vn -0.2310 0.1780 0.9565
vn -0.3461 0.4404 0.8284
vn -0.0217 -0.3201 0.9471
vn -0.0772 -0.7627 0.6421
vn -0.1238 -0.9191 0.3740
vn -0.2242 -0.6698 -0.7079
vn -0.2153 -0.6681 -0.7122
vn -0.4827 0.2056 -0.8513
vn -0.4271 -0.0245 -0.9039
vn -0.5008 0.4266 -0.7531
vn -0.4654 0.8620 -0.2009
vn -0.4741 0.8581 -0.1972
vn -0.0354 0.5958 0.8024
vn -0.0262 0.5993 0.8001
vn 0.2944 -0.2593 0.9198
vn 0.2539 -0.0248 0.9669
vn 0.3277 -0.4759 0.8161
vn 0.2240 -0.9308 0.2888
vn 0.2144 -0.9322 0.2917
vn 0.0354 -0.5958 -0.8024
vn 0.0262 -0.5993 -0.8001
vn -0.2944 0.2593 -0.9198
vn -0.2539 0.0248 -0.9669
vn -0.3277 0.4759 -0.8161
vn -0.2240 0.9308 -0.2888
vn -0.2144 0.9322 -0.2917
vn 0.2242 0.6698 0.7079
vn 0.2153 0.6681 0.7122
vn 0.4827 -0.2056 0.8513
vn 0.4271 0.0245 0.9039
vn 0.5008 -0.4266 0.7531
vn 0.4654 -0.8620 0.2009
vn 0.4741 -0.8581 0.1972
vn 0.2310 -0.1780 -0.9565
vn 0.3461 -0.4404 -0.8284
vn 0.0217 0.3201 -0.9471
vn 0.0772 0.7627 -0.6421
vn 0.1238 0.9191 -0.3740
vn 0.6396 0.4263 0.6396
vn 0.5140 0.6857 0.5154
vn 0.7325 -0.1050 0.6726
vn 0.7935 -0.5144 0.3252
vn 0.7363 -0.6739 0.0610
vn 0.6187 0.0581 -0.7835
vn 0.8718 -0.2166 -0.4394
vn 0.4911 0.3473 -0.7989
vn 0.5311 0.5938 -0.6045
vn 0.7264 0.6723 -0.1423
vn 0.8979 0.3744 0.2315
vn 0.9604 0.0666 0.2706
vn 0.9855 -0.1613 0.0525
vn 0.9077 0.2588 -0.3304
vn -0.7954 -0.5938 -0.1217
vn -0.6480 -0.6723 0.3579
vn -0.8897 -0.3473 -0.2963
vn -0.9776 -0.0581 -0.2025
vn -0.9503 0.2166 0.2238
vn -0.7212 0.1613 0.6737
vn -0.5618 -0.0666 0.8246
vn -0.5390 -0.3744 0.7545
vn -0.4719 -0.7627 -0.4423
vn -0.3352 -0.9191 -0.2070
vn -0.6255 -0.3201 -0.7116
vn -0.7918 0.1780 -0.5842
vn -0.7976 0.4404 -0.4122
vn -0.3988 0.5144 0.7592
vn -0.5249 0.6739 0.5200
vn -0.1288 0.1050 0.9861
vn -0.0789 -0.4263 0.9011
vn -0.0625 -0.6857 0.7252
vn -0.0233 -0.9322 -0.3613
vn -0.0140 -0.9308 -0.3652
vn -0.3657 -0.2593 -0.8939
vn -0.2736 -0.4759 -0.8358
vn -0.4270 -0.0248 -0.9039
vn -0.5344 0.5993 -0.5961
vn -0.5429 0.5958 -0.5919
vn -0.2364 0.8581 0.4558
vn -0.2274 0.8620 0.4531
vn 0.1774 0.2056 0.9624
vn 0.1004 0.4266 0.8989
vn 0.2539 -0.0245 0.9669
vn 0.2929 -0.6681 0.6840
vn 0.2832 -0.6698 0.6864
vn 0.2364 -0.8581 -0.4558
vn 0.2274 -0.8620 -0.4531
vn -0.1774 -0.2056 -0.9624
vn -0.1004 -0.4266 -0.8989
vn -0.2539 0.0245 -0.9669
vn -0.2929 0.6681 -0.6840
vn -0.2832 0.6698 -0.6864
vn 0.0233 0.9322 0.3613
vn 0.0140 0.9308 0.3652
vn 0.3657 0.2593 0.8939
vn 0.2736 0.4759 0.8358
vn 0.4270 0.0248 0.9039
vn 0.5344 -0.5993 0.5961
vn 0.5429 -0.5958 0.5919
vn 0.3988 -0.5144 -0.7592
vn 0.5249 -0.6739 -0.5200
vn 0.1288 -0.1050 -0.9861
vn 0.0789 0.4263 -0.9011
vn 0.0625 0.6857 -0.7252
vn 0.4719 0.7627 0.4423
vn 0.3352 0.9191 0.2070
vn 0.6255 0.3201 0.7116
vn 0.7918 -0.1780 0.5842
vn 0.7976 -0.4404 0.4122
vn 0.7212 -0.1613 -0.6737
vn 0.9503 -0.2166 -0.2238
vn 0.5618 0.0666 -0.8246
vn 0.5390 0.3744 -0.7545
vn 0.6480 0.6723 -0.3579
vn 0.7954 0.5938 0.1217
vn 0.8897 0.3473 0.2963
vn 0.9776 0.0581 0.2025
vn -0.6764 -0.7349 -0.0485
vn -0.4966 -0.8490 0.1807
vn -0.9563 -0.2235 -0.1888
vn -0.9438 0.3269 0.0488
vn -0.8289 0.4710 0.3017
vn -0.7543 0.3269 0.5693
vn -0.6112 -0.2235 0.7593
vn -0.4870 -0.7349 0.4720
vn -0.3523 -0.8619 -0.3647
vn -0.0754 -0.9968 0.0274
vn -0.4727 -0.6814 -0.5588
vn -0.7313 0.6433 -0.2268
vn -0.7610 0.4635 -0.4539
vn -0.5336 0.8231 0.1942
vn -0.4144 0.6433 0.6438
vn -0.2912 0.4635 0.8369
vn -0.0354 -0.8619 0.5059
vn -0.0029 -0.6814 0.7319
vn -0.0644 -0.8508 -0.5215
vn 0.1709 -0.9833 -0.0622
vn -0.2038 -0.6566 -0.7262
vn -0.4790 0.7957 -0.3706
vn -0.5195 0.5971 -0.6113
vn -0.3140 0.9425 0.1143
vn -0.1288 0.7957 0.5918
vn -0.0050 0.5971 0.8022
vn 0.2858 -0.8508 0.4409
vn 0.3107 -0.6566 0.6873
vn 0.1288 -0.7957 -0.5918
vn 0.3140 -0.9425 -0.1143
vn 0.0050 -0.5971 -0.8022
vn -0.2858 0.8508 -0.4409
vn -0.3107 0.6566 -0.6873
vn -0.1709 0.9833 0.0622
vn 0.0644 0.8508 0.5215
vn 0.2038 0.6566 0.7262
vn 0.4790 -0.7957 0.3706
vn 0.5195 -0.5971 0.6113
vn 0.4144 -0.6433 -0.6438
vn 0.5336 -0.8231 -0.1942
vn 0.2912 -0.4635 -0.8369
vn 0.0354 0.8619 -0.5059
vn 0.0029 0.6814 -0.7319
vn 0.0754 0.9968 -0.0274
vn 0.3523 0.8619 0.3647
vn 0.4727 0.6814 0.5588
vn 0.7313 -0.6433 0.2268
vn 0.7610 -0.4635 0.4539
vn 0.7543 -0.3269 -0.5693
vn 0.8289 -0.4710 -0.3017
vn 0.6112 0.2235 -0.7593
vn 0.4870 0.7349 -0.4720
vn 0.4966 0.8490 -0.1807
vn 0.6764 0.7349 0.0485
vn 0.9563 0.2235 0.1888
vn 0.9438 -0.3269 -0.0488
vn -0.6817 -0.7268 -0.0841
vn -0.4939 -0.8507 0.1798
vn -0.9487 -0.2178 -0.2293
vn -0.9462 0.3235 0.0121
vn -0.8274 0.4740 0.3012
vn -0.7326 0.3235 0.5989
vn -0.5793 -0.2178 0.7855
vn -0.4681 -0.7268 0.5026
vn -0.3547 -0.8434 -0.4037
vn -0.0745 -0.9969 0.0271
vn -0.4840 -0.6389 -0.5979
vn -0.7264 0.6328 -0.2684
vn -0.7527 0.4282 -0.5001
vn -0.5329 0.8237 0.1939
vn -0.3839 0.6328 0.6725
vn -0.2552 0.4282 0.8669
vn -0.0122 -0.8434 0.5372
vn 0.0135 -0.6389 0.7691
vn -0.0773 -0.8286 -0.5544
vn 0.1710 -0.9833 -0.0622
vn -0.2229 -0.6088 -0.7614
vn -0.4814 0.7761 -0.4074
vn -0.5154 0.5527 -0.6549
vn -0.3139 0.9425 0.1143
vn -0.1069 0.7761 0.6215
vn 0.0262 0.5527 0.8330
vn 0.2971 -0.8286 0.4744
vn 0.3186 -0.6088 0.7265
vn 0.1069 -0.7761 -0.6215
vn 0.3139 -0.9425 -0.1143
vn -0.0262 -0.5527 -0.8330
vn -0.2971 0.8286 -0.4744
vn -0.3186 0.6088 -0.7265
vn -0.1710 0.9833 0.0622
vn 0.0773 0.8286 0.5544
vn 0.2229 0.6088 0.7614
vn 0.4814 -0.7761 0.4074
vn 0.5154 -0.5527 0.6549
vn 0.3839 -0.6328 -0.6725
vn 0.5329 -0.8237 -0.1939
vn 0.2552 -0.4282 -0.8669
vn 0.0122 0.8434 -0.5372
vn -0.0135 0.6389 -0.7691
vn 0.0745 0.9969 -0.0271
vn 0.3547 0.8434 0.4037
vn 0.4840 0.6389 0.5979
vn 0.7264 -0.6328 0.2684
vn 0.7527 -0.4282 0.5001
vn 0.7326 -0.3235 -0.5989
vn 0.8274 -0.4740 -0.3012
vn 0.5793 0.2178 -0.7855
vn 0.4681 0.7268 -0.5026
vn 0.4939 0.8507 -0.1798
vn 0.6817 0.7268 0.0841
vn 0.9487 0.2178 0.2293
vn 0.9462 -0.3235 -0.0121
vn 0.1305 -0.9914 -0.0000
vn -0.1305 -0.9914 -0.0000
vn -0.4972 0.0660 -0.8651
vn -0.4821 0.1295 -0.8665
vn -0.4821 0.1296 -0.8665
vn -0.9912 0.1327 -0.0000
vn -0.9656 0.2599 -0.0000
vn -0.4972 0.0660 0.8651
vn -0.4821 0.1296 0.8665
vn -0.4821 0.1295 0.8665
vn 0.4974 -0.0649 0.8651
vn 0.4822 -0.1290 0.8665
vn 0.9917 -0.1282 -0.0000
vn 0.9662 -0.2577 -0.0000
vn 0.4974 -0.0649 -0.8651
vn 0.4822 -0.1290 -0.8665
vn -0.4330 0.2500 -0.8660
vn -0.8660 0.5000 -0.0000
vn -0.4330 0.2500 0.8660
vn 0.4330 -0.2500 0.8660
vn 0.8660 -0.5000 -0.0000
vn 0.4330 -0.2500 -0.8660
vn -0.3536 0.3536 -0.8660
vn -0.7071 0.7071 -0.0000
vn -0.3536 0.3536 0.8660
vn 0.3536 -0.3536 0.8660
vn 0.7071 -0.7071 -0.0000
vn 0.3536 -0.3536 -0.8660
vn -0.2500 0.4330 -0.8660
vn -0.5000 0.8660 -0.0000
vn -0.2500 0.4330 0.8660
vn 0.2500 -0.4330 0.8660
vn 0.5000 -0.8660 -0.0000
vn 0.2500 -0.4330 -0.8660
vn -0.1294 0.4830 -0.8660
vn -0.2588 0.9659 -0.0000
vn -0.1294 0.4830 0.8660
vn 0.1294 -0.4830 0.8660
vn 0.2588 -0.9659 -0.0000
vn 0.1294 -0.4830 -0.8660
vn -0.0000 0.5000 -0.8660
vn -0.0000 0.5000 0.8660
vn -0.0000 -0.5000 0.8660
vn -0.0000 -0.5000 -0.8660
vn 0.1294 0.4830 -0.8660
vn 0.2588 0.9659 -0.0000
vn 0.1294 0.4830 0.8660
vn -0.1294 -0.4830 0.8660
vn -0.2588 -0.9659 -0.0000
vn -0.1294 -0.4830 -0.8660
vn 0.2500 0.4330 -0.8660
vn 0.5000 0.8660 -0.0000
vn 0.2500 0.4330 0.8660
vn -0.2500 -0.4330 0.8660
vn -0.5000 -0.8660 -0.0000
vn -0.2500 -0.4330 -0.8660
vn 0.3536 0.3536 -0.8660
vn 0.7071 0.7071 -0.0000
vn 0.3536 0.3536 0.8660
vn -0.3536 -0.3536 0.8660
vn -0.7071 -0.7071 -0.0000
vn -0.3536 -0.3536 -0.8660
vn 0.4330 0.2500 -0.8660
vn 0.8660 0.5000 -0.0000
vn 0.4330 0.2500 0.8660
vn -0.4330 -0.2500 0.8660
vn -0.8660 -0.5000 -0.0000
vn -0.4330 -0.2500 -0.8660
vn 0.4821 0.1295 -0.8665
vn 0.4821 0.1296 -0.8665
vn 0.9656 0.2599 -0.0000
vn 0.4821 0.1296 0.8665
vn 0.4821 0.1295 0.8665
vn -0.4822 -0.1290 0.8665
vn -0.9662 -0.2577 -0.0000
vn -0.4822 -0.1290 -0.8665
vn 0.4972 0.0660 -0.8651
vn 0.9912 0.1327 -0.0000
vn 0.4972 0.0660 0.8651
vn -0.4974 -0.0649 0.8651
vn -0.9917 -0.1282 -0.0000
vn -0.4974 -0.0649 -0.8651
vt 0.000000 0.000000
vt 1.000000 0.000000
vt 0.600000 0.000000
vt 0.800000 0.000000
vt 0.400000 0.000000
vt 0.200000 0.000000
vt 0.000000 1.000000
vt 0.083333 1.000000
vt 0.083333 0.833333
vt 0.000000 0.833333
vt 0.000000 0.166667
vt 0.083333 0.166667
vt 0.083333 0.000000
vt 0.000000 0.333333
vt 0.083333 0.333333
vt 0.000000 0.500000
vt 0.083333 0.500000
vt 0.000000 0.666667
vt 0.083333 0.666667
vt 0.166667 1.000000
vt 0.166667 0.833333
vt 0.166667 0.166667
vt 0.166667 0.000000
vt 0.166667 0.333333
vt 0.166667 0.500000
vt 0.166667 0.666667
vt 0.250000 1.000000
vt 0.250000 0.833333
vt 0.250000 0.166667
vt 0.250000 0.000000
vt 0.250000 0.333333
vt 0.250000 0.500000
vt 0.250000 0.666667
vt 0.333333 1.000000
vt 0.333333 0.833333
vt 0.333333 0.166667
vt 0.333333 0.000000
vt 0.333333 0.333333
vt 0.333333 0.500000
vt 0.333333 0.666667
vt 0.416667 1.000000
vt 0.416667 0.833333
vt 0.416667 0.166667
vt 0.416667 0.000000
vt 0.416667 0.333333
vt 0.416667 0.500000
vt 0.416667 0.666667
vt 0.500000 1.000000
vt 0.500000 0.833333
vt 0.500000 0.166667
vt 0.500000 0.000000
vt 0.500000 0.333333
vt 0.500000 0.500000
vt 0.500000 0.666667
vt 0.583333 1.000000
vt 0.583333 0.833333
vt 0.583333 0.166667
vt 0.583333 0.000000
vt 0.583333 0.333333
vt 0.583333 0.500000
vt 0.583333 0.666667
vt 0.666667 1.000000
vt 0.666667 0.833333
vt 0.666667 0.166667
vt 0.666667 0.000000
vt 0.666667 0.333333
vt 0.666667 0.500000
vt 0.666667 0.666667
vt 0.750000 1.000000
vt 0.750000 0.833333
vt 0.750000 0.166667
vt 0.750000 0.000000
vt 0.750000 0.333333
vt 0.750000 0.500000
vt 0.750000 0.666667
vt 0.833333 1.000000
vt 0.833333 0.833333
vt 0.833333 0.166667
vt 0.833333 0.000000
vt 0.833333 0.333333
vt 0.833333 0.500000
vt 0.833333 0.666667
vt 0.916667 1.000000
vt 0.916667 0.833333
vt 0.916667 0.166667
vt 0.916667 0.000000
vt 0.916667 0.333333
vt 0.916667 0.500000
vt 0.916667 0.666667
vt 1.000000 1.000000
vt 1.000000 0.833333
vt 1.000000 0.166667
vt 1.000000 0.333333
vt 1.000000 0.500000
vt 1.000000 0.666667
s 1
usemtl wood
f 1/1/1 2/1/1 4/1/1 3/1/1
f 3/1/2 4/1/2 6/1/2 5/1/2
f 4/1/3 2/1/3 8/1/3 6/1/3
f 5/1/4 6/1/4 8/1/4 7/1/4
f 7/1/5 8/1/5 2/1/5 1/1/5
f 1/1/6 3/1/6 5/1/6 7/1/6
f 9/1/1 13/1/1 15/1/1 10/1/1
f 10/1/2 15/1/2 17/1/2 11/1/2
f 11/1/4 17/1/4 19/1/4 12/1/4
f 12/1/5 19/1/5 13/1/5 9/1/5
f 14/1/1 21/1/1 22/1/1 16/1/1
f 16/1/2 22/1/2 23/1/2 18/1/2
f 22/1/3 21/1/3 24/1/3 23/1/3
f 18/1/4 23/1/4 24/1/4 20/1/4
f 20/1/5 24/1/5 21/1/5 14/1/5
usemtl wood_dark
f 2/1/1 9/1/1 10/1/1 4/1/1
f 4/1/2 10/1/2 11/1/2 6/1/2
f 10/1/3 9/1/3 12/1/3 11/1/3
f 6/1/4 11/1/4 12/1/4 8/1/4
f 8/1/5 12/1/5 9/1/5 2/1/5
f 13/1/1 14/1/1 16/1/1 15/1/1
f 15/1/2 16/1/2 18/1/2 17/1/2
f 16/1/3 14/1/3 20/1/3 18/1/3
f 17/1/4 18/1/4 20/1/4 19/1/4
f 19/1/5 20/1/5 14/1/5 13/1/5
f 13/1/6 15/1/6 17/1/6 19/1/6
f 25/1/7 28/1/8 29/1/9 31/1/10
f 26/1/11 30/1/12 29/1/13 28/1/14
f 27/1/15 31/1/16 29/1/17 30/1/18
f 32/1/19 35/1/20 36/1/21 38/1/22
f 33/1/23 37/1/24 36/1/25 35/1/26
f 34/1/27 38/1/28 36/1/29 37/1/30
f 39/1/31 42/1/32 43/1/33 45/1/34
f 40/1/35 44/1/36 43/1/37 42/1/38
f 41/1/39 45/1/40 43/1/41 44/1/42
f 46/1/43 49/1/44 50/1/45 52/1/46
f 47/1/47 51/1/48 50/1/49 49/1/50
f 48/1/51 52/1/52 50/1/53 51/1/54
f 53/1/55 56/1/56 57/1/57 59/1/58
f 54/1/59 58/1/60 57/1/61 56/1/62
f 55/1/63 59/1/64 57/1/65 58/1/66
f 60/1/67 63/1/68 64/1/69 66/1/70
f 61/1/71 65/1/72 64/1/73 63/1/74
f 62/1/75 66/1/76 64/1/77 65/1/78
f 67/1/79 70/1/80 71/1/81 73/1/82
f 68/1/83 72/1/84 71/1/85 70/1/86
f 69/1/87 73/1/88 71/1/89 72/1/90
f 74/1/91 77/1/92 78/1/93 80/1/94
f 75/1/95 79/1/96 78/1/97 77/1/98
f 76/1/99 80/1/100 78/1/101 79/1/102
f 27/1/15 40/1/35 42/1/38 31/1/16
f 31/1/10 42/1/32 39/1/31 25/1/7
f 48/1/51 33/1/23 35/1/26 52/1/52
f 52/1/46 35/1/20 32/1/19 46/1/43
f 26/1/11 34/1/27 37/1/30 30/1/12
f 30/1/18 37/1/24 33/1/23 27/1/15
f 47/1/47 41/1/39 44/1/42 51/1/48
f 51/1/54 44/1/36 40/1/35 48/1/51
f 41/1/39 54/1/59 56/1/62 45/1/40
f 45/1/34 56/1/56 53/1/55 39/1/31
f 62/1/75 47/1/47 49/1/50 66/1/76
f 66/1/70 49/1/44 46/1/43 60/1/67
f 61/1/71 55/1/63 58/1/66 65/1/72
f 65/1/78 58/1/60 54/1/59 62/1/75
f 55/1/63 68/1/83 70/1/86 59/1/64
f 59/1/58 70/1/80 67/1/79 53/1/55
f 76/1/99 61/1/71 63/1/74 80/1/100
f 80/1/94 63/1/68 60/1/67 74/1/91
f 75/1/95 69/1/87 72/1/90 79/1/96
f 79/1/102 72/1/84 68/1/83 76/1/99
f 69/1/87 26/1/11 28/1/14 73/1/88
f 73/1/82 28/1/8 25/1/7 67/1/79
f 34/1/27 75/1/95 77/1/98 38/1/28
f 38/1/22 77/1/92 74/1/91 32/1/19
f 25/1/7 39/1/31 53/1/55 67/1/79
f 27/1/15 33/1/23 48/1/51 40/1/35
f 69/1/87 75/1/95 34/1/27 26/1/11
f 46/1/43 32/1/19 74/1/91 60/1/67
f 41/1/39 47/1/47 62/1/75 54/1/59
f 55/1/63 61/1/71 76/1/99 68/1/83
f 612/2/599 610/3/599 611/4/599
f 612/2/599 609/5/599 610/3/599
f 607/1/599 609/5/599 612/2/599
f 607/1/599 608/6/599 609/5/599
f 615/5/600 617/4/600 616/3/600
f 615/5/600 618/2/600 617/4/600
f 614/6/600 618/2/600 615/5/600
f 614/6/600 613/1/600 618/2/600
f 613/7/601 619/8/602 624/9/603 618/10/601
f 614/11/604 620/12/605 619/13/605 613/1/604
f 615/14/606 621/15/607 620/12/608 614/11/606
f 616/16/609 622/17/610 621/15/610 615/14/609
f 617/18/611 623/19/612 622/17/612 616/16/611
f 618/10/613 624/9/614 623/19/614 617/18/613
f 619/8/602 625/20/615 630/21/615 624/9/603
f 620/12/605 626/22/616 625/23/616 619/13/605
f 621/15/607 627/24/617 626/22/617 620/12/608
f 622/17/610 628/25/618 627/24/618 621/15/610
f 623/19/612 629/26/619 628/25/619 622/17/612
f 624/9/614 630/21/620 629/26/620 623/19/614
f 625/20/615 631/27/621 636/28/621 630/21/615
f 626/22/616 632/29/622 631/30/622 625/23/616
f 627/24/617 633/31/623 632/29/623 626/22/617
f 628/25/618 634/32/624 633/31/624 627/24/618
f 629/26/619 635/33/625 634/32/625 628/25/619
f 630/21/620 636/28/626 635/33/626 629/26/620
f 631/27/621 637/34/627 642/35/627 636/28/621
f 632/29/622 638/36/628 637/37/628 631/30/622
f 633/31/623 639/38/629 638/36/629 632/29/623
f 634/32/624 640/39/630 639/38/630 633/31/624
f 635/33/625 641/40/631 640/39/631 634/32/625
f 636/28/626 642/35/632 641/40/632 635/33/626
f 637/34/627 643/41/633 648/42/633 642/35/627
f 638/36/628 644/43/634 643/44/634 637/37/628
f 639/38/629 645/45/635 644/43/635 638/36/629
f 640/39/630 646/46/636 645/45/636 639/38/630
f 641/40/631 647/47/637 646/46/637 640/39/631
f 642/35/632 648/42/638 647/47/638 641/40/632
f 643/41/633 649/48/639 654/49/639 648/42/633
f 644/43/634 650/50/3 649/51/3 643/44/634
f 645/45/635 651/52/640 650/50/640 644/43/635
f 646/46/636 652/53/641 651/52/641 645/45/636
f 647/47/637 653/54/6 652/53/6 646/46/637
f 648/42/638 654/49/642 653/54/642 647/47/638
f 649/48/639 655/55/643 660/56/643 654/49/639
f 650/50/3 656/57/644 655/58/644 649/51/3
f 651/52/640 657/59/645 656/57/645 650/50/640
f 652/53/641 658/60/646 657/59/646 651/52/641
f 653/54/6 659/61/647 658/60/647 652/53/6
f 654/49/642 660/56/648 659/61/648 653/54/642
f 655/55/643 661/62/649 666/63/649 660/56/643
f 656/57/644 662/64/650 661/65/650 655/58/644
f 657/59/645 663/66/651 662/64/651 656/57/645
f 658/60/646 664/67/652 663/66/652 657/59/646
f 659/61/647 665/68/653 664/67/653 658/60/647
f 660/56/648 666/63/654 665/68/654 659/61/648
f 661/62/649 667/69/655 672/70/655 666/63/649
f 662/64/650 668/71/656 667/72/656 661/65/650
f 663/66/651 669/73/657 668/71/657 662/64/651
f 664/67/652 670/74/658 669/73/658 663/66/652
f 665/68/653 671/75/659 670/74/659 664/67/653
f 666/63/654 672/70/660 671/75/660 665/68/654
f 667/69/655 673/76/661 678/77/661 672/70/655
f 668/71/656 674/78/662 673/79/662 667/72/656
f 669/73/657 675/80/663 674/78/663 668/71/657
f 670/74/658 676/81/664 675/80/664 669/73/658
f 671/75/659 677/82/665 676/81/665 670/74/659
f 672/70/660 678/77/666 677/82/666 671/75/660
f 673/76/661 679/83/667 684/84/668 678/77/661
f 674/78/662 680/85/669 679/86/669 673/79/662
f 675/80/663 681/87/670 680/85/671 674/78/663
f 676/81/664 682/88/672 681/87/672 675/80/664
f 677/82/665 683/89/673 682/88/673 676/81/665
f 678/77/666 684/84/674 683/89/674 677/82/666
f 679/83/667 607/90/675 612/91/675 684/84/668
f 680/85/669 608/92/676 607/2/676 679/86/669
f 681/87/670 609/93/677 608/92/677 680/85/671
f 682/88/672 610/94/678 609/93/678 681/87/672
f 683/89/673 611/95/679 610/94/679 682/88/673
f 684/84/674 612/91/680 611/95/680 683/89/674
usemtl cream
f 81/1/103 82/1/103 85/1/103 84/1/103
f 84/1/104 85/1/104 97/1/104 96/1/104
f 96/1/105 97/1/105 83/1/105 93/1/105
f 93/1/106 83/1/106 82/1/106 81/1/106
f 84/1/6 96/1/6 93/1/6 81/1/6
f 97/1/3 85/1/3 82/1/3 83/1/3
f 86/1/103 87/1/103 89/1/103 88/1/103
f 88/1/104 89/1/104 105/1/104 104/1/104
f 104/1/105 105/1/105 99/1/105 98/1/105
f 88/1/6 104/1/6 98/1/6 86/1/6
f 105/1/3 89/1/3 87/1/3 99/1/3
f 96/1/103 97/1/103 99/1/103 98/1/103
f 98/1/104 99/1/104 103/1/104 102/1/104
f 102/1/105 103/1/105 101/1/105 100/1/105
f 100/1/106 101/1/106 97/1/106 96/1/106
f 98/1/6 102/1/6 100/1/6 96/1/6
f 103/1/3 99/1/3 97/1/3 101/1/3
f 92/1/104 108/1/104 110/1/104 109/1/104
f 109/1/105 110/1/105 107/1/105 106/1/105
f 92/1/6 109/1/6 106/1/6 104/1/6
f 110/1/3 108/1/3 105/1/3 107/1/3
f 100/1/104 101/1/104 114/1/104 113/1/104
f 113/1/105 114/1/105 112/1/105 111/1/105
f 111/1/106 112/1/106 95/1/106 94/1/106
f 100/1/6 113/1/6 111/1/6 94/1/6
f 114/1/3 101/1/3 95/1/3 112/1/3
f 106/1/104 107/1/104 118/1/104 117/1/104
f 117/1/105 118/1/105 116/1/105 115/1/105
f 106/1/6 117/1/6 115/1/6 102/1/6
f 118/1/3 107/1/3 103/1/3 116/1/3
f 115/1/104 116/1/104 126/1/104 125/1/104
f 125/1/105 126/1/105 124/1/105 123/1/105
f 115/1/6 125/1/6 123/1/6 113/1/6
f 126/1/3 116/1/3 114/1/3 124/1/3
f 119/1/104 120/1/104 130/1/104 129/1/104
f 129/1/105 130/1/105 128/1/105 127/1/105
f 119/1/6 129/1/6 127/1/6 117/1/6
f 130/1/3 120/1/3 118/1/3 128/1/3
f 123/1/104 124/1/104 134/1/104 133/1/104
f 133/1/105 134/1/105 132/1/105 131/1/105
f 131/1/106 132/1/106 122/1/106 121/1/106
f 123/1/6 133/1/6 131/1/6 121/1/6
f 134/1/3 124/1/3 122/1/3 132/1/3
f 127/1/104 128/1/104 138/1/104 137/1/104
f 137/1/105 138/1/105 136/1/105 135/1/105
f 127/1/6 137/1/6 135/1/6 125/1/6
f 138/1/3 128/1/3 126/1/3 136/1/3
f 135/1/104 136/1/104 145/1/104 144/1/104
f 144/1/105 145/1/105 143/1/105 142/1/105
f 135/1/6 144/1/6 142/1/6 133/1/6
f 145/1/3 136/1/3 134/1/3 143/1/3
f 139/1/104 140/1/104 148/1/104 157/1/104
f 157/1/105 148/1/105 147/1/105 146/1/105
f 139/1/6 157/1/6 146/1/6 137/1/6
f 148/1/3 140/1/3 138/1/3 147/1/3
f 142/1/104 143/1/104 153/1/104 152/1/104
f 152/1/105 153/1/105 151/1/105 150/1/105
f 150/1/106 151/1/106 141/1/106 149/1/106
f 142/1/6 152/1/6 150/1/6 149/1/6
f 153/1/3 143/1/3 141/1/3 151/1/3
f 146/1/104 147/1/104 156/1/104 158/1/104
f 158/1/105 156/1/105 155/1/105 154/1/105
f 146/1/6 158/1/6 154/1/6 144/1/6
f 156/1/3 147/1/3 145/1/3 155/1/3
f 557/1/357 559/1/543 558/1/544
f 557/1/357 560/1/545 559/1/543
f 557/1/357 561/1/546 560/1/545
f 557/1/357 562/1/547 561/1/546
f 557/1/357 563/1/548 562/1/547
f 557/1/357 564/1/549 563/1/548
f 557/1/357 565/1/550 564/1/549
f 557/1/357 558/1/544 565/1/550
f 558/1/544 559/1/543 567/1/551 566/1/552
f 559/1/543 560/1/545 568/1/553 567/1/551
f 560/1/545 561/1/546 569/1/554 568/1/555
f 561/1/546 562/1/547 570/1/556 569/1/554
f 562/1/547 563/1/548 571/1/557 570/1/556
f 563/1/548 564/1/549 572/1/558 571/1/557
f 564/1/549 565/1/550 573/1/559 572/1/560
f 565/1/550 558/1/544 566/1/552 573/1/559
f 566/1/552 567/1/551 575/1/561 574/1/562
f 567/1/551 568/1/553 576/1/563 575/1/561
f 568/1/555 569/1/554 577/1/564 576/1/565
f 569/1/554 570/1/556 578/1/566 577/1/564
f 570/1/556 571/1/557 579/1/567 578/1/566
f 571/1/557 572/1/558 580/1/568 579/1/567
f 572/1/560 573/1/559 581/1/569 580/1/570
f 573/1/559 566/1/552 574/1/562 581/1/569
f 574/1/562 575/1/561 583/1/571 582/1/572
f 575/1/561 576/1/563 584/1/573 583/1/571
f 576/1/565 577/1/564 585/1/574 584/1/575
f 577/1/564 578/1/566 586/1/576 585/1/574
f 578/1/566 579/1/567 587/1/577 586/1/576
f 579/1/567 580/1/568 588/1/578 587/1/577
f 580/1/570 581/1/569 589/1/579 588/1/580
f 581/1/569 574/1/562 582/1/572 589/1/579
f 582/1/572 583/1/571 591/1/581 590/1/582
f 583/1/571 584/1/573 592/1/583 591/1/581
f 584/1/575 585/1/574 593/1/584 592/1/585
f 585/1/574 586/1/576 594/1/586 593/1/584
f 586/1/576 587/1/577 595/1/587 594/1/586
f 587/1/577 588/1/578 596/1/588 595/1/587
f 588/1/580 589/1/579 597/1/589 596/1/590
f 589/1/579 582/1/572 590/1/582 597/1/589
f 590/1/582 591/1/581 599/1/591 598/1/592
f 591/1/581 592/1/583 600/1/593 599/1/591
f 592/1/585 593/1/584 601/1/594 600/1/593
f 593/1/584 594/1/586 602/1/595 601/1/594
f 594/1/586 595/1/587 603/1/596 602/1/595
f 595/1/587 596/1/588 604/1/597 603/1/596
f 596/1/590 597/1/589 605/1/598 604/1/597
f 597/1/589 590/1/582 598/1/592 605/1/598
f 598/1/592 599/1/591 606/1/422
f 599/1/591 600/1/593 606/1/422
f 600/1/593 601/1/594 606/1/422
f 601/1/594 602/1/595 606/1/422
f 602/1/595 603/1/596 606/1/422
f 603/1/596 604/1/597 606/1/422
f 604/1/597 605/1/598 606/1/422
f 605/1/598 598/1/592 606/1/422
usemtl ketchup
f 84/1/103 85/1/103 87/1/103 86/1/103
f 86/1/104 87/1/104 99/1/104 98/1/104
f 86/1/6 98/1/6 96/1/6 84/1/6
f 99/1/3 87/1/3 85/1/3 97/1/3
f 88/1/103 89/1/103 91/1/103 90/1/103
f 90/1/104 91/1/104 108/1/104 92/1/104
f 92/1/105 108/1/105 105/1/105 104/1/105
f 90/1/6 92/1/6 104/1/6 88/1/6
f 108/1/3 91/1/3 89/1/3 105/1/3
f 100/1/105 101/1/105 95/1/105 94/1/105
f 94/1/106 95/1/106 83/1/106 93/1/106
f 96/1/6 100/1/6 94/1/6 93/1/6
f 101/1/3 97/1/3 83/1/3 95/1/3
f 104/1/104 105/1/104 107/1/104 106/1/104
f 106/1/105 107/1/105 103/1/105 102/1/105
f 104/1/6 106/1/6 102/1/6 98/1/6
f 107/1/3 105/1/3 99/1/3 103/1/3
f 102/1/104 103/1/104 116/1/104 115/1/104
f 115/1/105 116/1/105 114/1/105 113/1/105
f 102/1/6 115/1/6 113/1/6 100/1/6
f 116/1/3 103/1/3 101/1/3 114/1/3
f 109/1/104 110/1/104 120/1/104 119/1/104
f 119/1/105 120/1/105 118/1/105 117/1/105
f 109/1/6 119/1/6 117/1/6 106/1/6
f 120/1/3 110/1/3 107/1/3 118/1/3
f 113/1/104 114/1/104 124/1/104 123/1/104
f 123/1/105 124/1/105 122/1/105 121/1/105
f 121/1/106 122/1/106 112/1/106 111/1/106
f 113/1/6 123/1/6 121/1/6 111/1/6
f 124/1/3 114/1/3 112/1/3 122/1/3
f 117/1/104 118/1/104 128/1/104 127/1/104
f 127/1/105 128/1/105 126/1/105 125/1/105
f 117/1/6 127/1/6 125/1/6 115/1/6
f 128/1/3 118/1/3 116/1/3 126/1/3
f 125/1/104 126/1/104 136/1/104 135/1/104
f 135/1/105 136/1/105 134/1/105 133/1/105
f 125/1/6 135/1/6 133/1/6 123/1/6
f 136/1/3 126/1/3 124/1/3 134/1/3
f 129/1/104 130/1/104 140/1/104 139/1/104
f 139/1/105 140/1/105 138/1/105 137/1/105
f 129/1/6 139/1/6 137/1/6 127/1/6
f 140/1/3 130/1/3 128/1/3 138/1/3
f 133/1/104 134/1/104 143/1/104 142/1/104
f 142/1/105 143/1/105 141/1/105 149/1/105
f 149/1/106 141/1/106 132/1/106 131/1/106
f 133/1/6 142/1/6 149/1/6 131/1/6
f 143/1/3 134/1/3 132/1/3 141/1/3
f 137/1/104 138/1/104 147/1/104 146/1/104
f 146/1/105 147/1/105 145/1/105 144/1/105
f 137/1/6 146/1/6 144/1/6 135/1/6
f 147/1/3 138/1/3 136/1/3 145/1/3
f 144/1/104 145/1/104 155/1/104 154/1/104
f 154/1/105 155/1/105 153/1/105 152/1/105
f 144/1/6 154/1/6 152/1/6 142/1/6
f 155/1/3 145/1/3 143/1/3 153/1/3
f 157/1/104 148/1/104 160/1/104 159/1/104
f 159/1/105 160/1/105 156/1/105 158/1/105
f 157/1/6 159/1/6 158/1/6 146/1/6
f 160/1/3 148/1/3 147/1/3 156/1/3
f 161/1/107 162/1/108 163/1/109
f 164/1/110 165/1/111 166/1/112
f 167/1/113 168/1/114 169/1/115
f 170/1/116 171/1/117 172/1/118
f 173/1/119 174/1/120 175/1/121
f 176/1/122 177/1/123 178/1/124
f 179/1/125 180/1/126 181/1/127
f 182/1/128 183/1/129 184/1/130
f 167/1/113 161/1/107 163/1/109 168/1/114
f 162/1/108 164/1/110 166/1/112 163/1/109
f 165/1/111 170/1/116 172/1/118 166/1/112
f 171/1/117 169/1/115 168/1/114 172/1/118
f 179/1/125 167/1/113 169/1/115 180/1/126
f 170/1/116 182/1/128 184/1/130 171/1/117
f 183/1/129 181/1/127 180/1/126 184/1/130
f 173/1/119 179/1/125 181/1/127 174/1/120
f 182/1/128 176/1/122 178/1/124 183/1/129
f 177/1/123 175/1/121 174/1/120 178/1/124
f 161/1/107 173/1/119 175/1/121 162/1/108
f 176/1/122 165/1/111 164/1/110 177/1/123
f 167/1/131 179/1/131 173/1/131 161/1/131
f 163/1/103 166/1/103 172/1/103 168/1/103
f 175/1/132 177/1/132 164/1/132 162/1/132
f 182/1/133 170/1/133 165/1/133 176/1/133
f 169/1/134 171/1/134 184/1/134 180/1/134
f 181/1/105 183/1/105 178/1/105 174/1/105
usemtl sausage
f 185/1/135 187/1/136 186/1/137
f 185/1/135 188/1/138 187/1/136
f 185/1/135 189/1/139 188/1/138
f 185/1/135 190/1/140 189/1/139
f 185/1/135 191/1/141 190/1/140
f 185/1/135 192/1/142 191/1/141
f 185/1/135 193/1/143 192/1/142
f 185/1/135 194/1/144 193/1/143
f 185/1/135 195/1/145 194/1/144
f 185/1/135 196/1/146 195/1/145
f 185/1/135 197/1/147 196/1/146
f 185/1/135 186/1/137 197/1/147
f 186/1/137 187/1/136 199/1/148 198/1/149
f 187/1/136 188/1/138 200/1/150 199/1/148
f 188/1/138 189/1/139 201/1/151 200/1/150
f 189/1/139 190/1/140 202/1/152 201/1/151
f 190/1/140 191/1/141 203/1/153 202/1/152
f 191/1/141 192/1/142 204/1/154 203/1/153
f 192/1/142 193/1/143 205/1/155 204/1/154
f 193/1/143 194/1/144 206/1/156 205/1/155
f 194/1/144 195/1/145 207/1/157 206/1/156
f 195/1/145 196/1/146 208/1/158 207/1/157
f 196/1/146 197/1/147 209/1/159 208/1/158
f 197/1/147 186/1/137 198/1/149 209/1/159
f 198/1/149 199/1/148 211/1/160 210/1/161
f 199/1/148 200/1/150 212/1/162 211/1/160
f 200/1/150 201/1/151 213/1/163 212/1/162
f 201/1/151 202/1/152 214/1/164 213/1/163
f 202/1/152 203/1/153 215/1/165 214/1/164
f 203/1/153 204/1/154 216/1/166 215/1/165
f 204/1/154 205/1/155 217/1/167 216/1/166
f 205/1/155 206/1/156 218/1/168 217/1/167
f 206/1/156 207/1/157 219/1/169 218/1/168
f 207/1/157 208/1/158 220/1/170 219/1/169
f 208/1/158 209/1/159 221/1/171 220/1/170
f 209/1/159 198/1/149 210/1/161 221/1/171
f 210/1/161 211/1/160 223/1/172 222/1/173
f 211/1/160 212/1/162 224/1/174 223/1/172
f 212/1/162 213/1/163 225/1/175 224/1/174
f 213/1/163 214/1/164 226/1/176 225/1/175
f 214/1/164 215/1/165 227/1/177 226/1/176
f 215/1/165 216/1/166 228/1/178 227/1/177
f 216/1/166 217/1/167 229/1/179 228/1/178
f 217/1/167 218/1/168 230/1/180 229/1/179
f 218/1/168 219/1/169 231/1/181 230/1/180
f 219/1/169 220/1/170 232/1/182 231/1/181
f 220/1/170 221/1/171 233/1/183 232/1/182
f 221/1/171 210/1/161 222/1/173 233/1/183
f 222/1/173 223/1/172 235/1/184 234/1/185
f 223/1/172 224/1/174 236/1/186 235/1/184
f 224/1/174 225/1/175 237/1/187 236/1/186
f 225/1/175 226/1/176 238/1/188 237/1/187
f 226/1/176 227/1/177 239/1/189 238/1/188
f 227/1/177 228/1/178 240/1/190 239/1/189
f 228/1/178 229/1/179 241/1/191 240/1/190
f 229/1/179 230/1/180 242/1/192 241/1/191
f 230/1/180 231/1/181 243/1/193 242/1/192
f 231/1/181 232/1/182 244/1/194 243/1/193
f 232/1/182 233/1/183 245/1/195 244/1/194
f 233/1/183 222/1/173 234/1/185 245/1/195
f 234/1/185 235/1/184 247/1/196 246/1/197
f 235/1/184 236/1/186 248/1/198 247/1/196
f 236/1/186 237/1/187 249/1/199 248/1/198
f 237/1/187 238/1/188 250/1/200 249/1/199
f 238/1/188 239/1/189 251/1/201 250/1/200
f 239/1/189 240/1/190 252/1/202 251/1/201
f 240/1/190 241/1/191 253/1/203 252/1/202
f 241/1/191 242/1/192 254/1/204 253/1/203
f 242/1/192 243/1/193 255/1/205 254/1/204
f 243/1/193 244/1/194 256/1/206 255/1/205
f 244/1/194 245/1/195 257/1/207 256/1/206
f 245/1/195 234/1/185 246/1/197 257/1/207
f 246/1/197 247/1/196 258/1/208
f 247/1/196 248/1/198 258/1/208
f 248/1/198 249/1/199 258/1/208
f 249/1/199 250/1/200 258/1/208
f 250/1/200 251/1/201 258/1/208
f 251/1/201 252/1/202 258/1/208
f 252/1/202 253/1/203 258/1/208
f 253/1/203 254/1/204 258/1/208
f 254/1/204 255/1/205 258/1/208
f 255/1/205 256/1/206 258/1/208
f 256/1/206 257/1/207 258/1/208
f 257/1/207 246/1/197 258/1/208
f 259/1/209 261/1/210 260/1/211
f 259/1/209 262/1/212 261/1/210
f 259/1/209 263/1/213 262/1/212
f 259/1/209 264/1/214 263/1/213
f 259/1/209 265/1/215 264/1/214
f 259/1/209 266/1/216 265/1/215
f 259/1/209 267/1/217 266/1/216
f 259/1/209 268/1/218 267/1/217
f 259/1/209 269/1/219 268/1/218
f 259/1/209 270/1/220 269/1/219
f 259/1/209 271/1/221 270/1/220
f 259/1/209 260/1/211 271/1/221
f 260/1/211 261/1/210 273/1/222 272/1/223
f 261/1/210 262/1/212 274/1/224 273/1/222
f 262/1/212 263/1/213 275/1/225 274/1/224
f 263/1/213 264/1/214 276/1/226 275/1/225
f 264/1/214 265/1/215 277/1/227 276/1/226
f 265/1/215 266/1/216 278/1/228 277/1/227
f 266/1/216 267/1/217 279/1/229 278/1/228
f 267/1/217 268/1/218 280/1/230 279/1/229
f 268/1/218 269/1/219 281/1/231 280/1/230
f 269/1/219 270/1/220 282/1/232 281/1/231
f 270/1/220 271/1/221 283/1/233 282/1/232
f 271/1/221 260/1/211 272/1/223 283/1/233
f 272/1/223 273/1/222 285/1/234 284/1/235
f 273/1/222 274/1/224 286/1/236 285/1/234
f 274/1/224 275/1/225 287/1/237 286/1/236
f 275/1/225 276/1/226 288/1/238 287/1/237
f 276/1/226 277/1/227 289/1/239 288/1/238
f 277/1/227 278/1/228 290/1/240 289/1/239
f 278/1/228 279/1/229 291/1/241 290/1/240
f 279/1/229 280/1/230 292/1/242 291/1/241
f 280/1/230 281/1/231 293/1/243 292/1/242
f 281/1/231 282/1/232 294/1/244 293/1/243
f 282/1/232 283/1/233 295/1/245 294/1/244
f 283/1/233 272/1/223 284/1/235 295/1/245
f 284/1/235 285/1/234 297/1/246 296/1/247
f 285/1/234 286/1/236 298/1/248 297/1/246
f 286/1/236 287/1/237 299/1/249 298/1/248
f 287/1/237 288/1/238 300/1/250 299/1/249
f 288/1/238 289/1/239 301/1/251 300/1/250
f 289/1/239 290/1/240 302/1/252 301/1/251
f 290/1/240 291/1/241 303/1/253 302/1/252
f 291/1/241 292/1/242 304/1/254 303/1/253
f 292/1/242 293/1/243 305/1/255 304/1/254
f 293/1/243 294/1/244 306/1/256 305/1/255
f 294/1/244 295/1/245 307/1/257 306/1/256
f 295/1/245 284/1/235 296/1/247 307/1/257
f 296/1/247 297/1/246 309/1/258 308/1/259
f 297/1/246 298/1/248 310/1/260 309/1/258
f 298/1/248 299/1/249 311/1/261 310/1/260
f 299/1/249 300/1/250 312/1/262 311/1/261
f 300/1/250 301/1/251 313/1/263 312/1/262
f 301/1/251 302/1/252 314/1/264 313/1/263
f 302/1/252 303/1/253 315/1/265 314/1/264
f 303/1/253 304/1/254 316/1/266 315/1/265
f 304/1/254 305/1/255 317/1/267 316/1/266
f 305/1/255 306/1/256 318/1/268 317/1/267
f 306/1/256 307/1/257 319/1/269 318/1/268
f 307/1/257 296/1/247 308/1/259 319/1/269
f 308/1/259 309/1/258 321/1/270 320/1/271
f 309/1/258 310/1/260 322/1/272 321/1/270
f 310/1/260 311/1/261 323/1/273 322/1/272
f 311/1/261 312/1/262 324/1/274 323/1/273
f 312/1/262 313/1/263 325/1/275 324/1/274
f 313/1/263 314/1/264 326/1/276 325/1/275
f 314/1/264 315/1/265 327/1/277 326/1/276
f 315/1/265 316/1/266 328/1/278 327/1/277
f 316/1/266 317/1/267 329/1/279 328/1/278
f 317/1/267 318/1/268 330/1/280 329/1/279
f 318/1/268 319/1/269 331/1/281 330/1/280
f 319/1/269 308/1/259 320/1/271 331/1/281
f 320/1/271 321/1/270 332/1/282
f 321/1/270 322/1/272 332/1/282
f 322/1/272 323/1/273 332/1/282
f 323/1/273 324/1/274 332/1/282
f 324/1/274 325/1/275 332/1/282
f 325/1/275 326/1/276 332/1/282
f 326/1/276 327/1/277 332/1/282
f 327/1/277 328/1/278 332/1/282
f 328/1/278 329/1/279 332/1/282
f 329/1/279 330/1/280 332/1/282
f 330/1/280 331/1/281 332/1/282
f 331/1/281 320/1/271 332/1/282
f 333/1/283 335/1/284 334/1/285
f 333/1/283 336/1/286 335/1/284
f 333/1/283 337/1/287 336/1/286
f 333/1/283 338/1/288 337/1/287
f 333/1/283 339/1/289 338/1/288
f 333/1/283 340/1/290 339/1/289
f 333/1/283 341/1/291 340/1/290
f 333/1/283 342/1/292 341/1/291
f 333/1/283 343/1/293 342/1/292
f 333/1/283 344/1/294 343/1/293
f 333/1/283 345/1/295 344/1/294
f 333/1/283 334/1/285 345/1/295
f 334/1/285 335/1/284 347/1/296 346/1/297
f 335/1/284 336/1/286 348/1/298 347/1/296
f 336/1/286 337/1/287 349/1/299 348/1/298
f 337/1/287 338/1/288 350/1/300 349/1/299
f 338/1/288 339/1/289 351/1/301 350/1/300
f 339/1/289 340/1/290 352/1/302 351/1/301
f 340/1/290 341/1/291 353/1/303 352/1/302
f 341/1/291 342/1/292 354/1/304 353/1/303
f 342/1/292 343/1/293 355/1/305 354/1/304
f 343/1/293 344/1/294 356/1/306 355/1/305
f 344/1/294 345/1/295 357/1/307 356/1/306
f 345/1/295 334/1/285 346/1/297 357/1/307
f 346/1/297 347/1/296 359/1/308 358/1/309
f 347/1/296 348/1/298 360/1/310 359/1/308
f 348/1/298 349/1/299 361/1/311 360/1/310
f 349/1/299 350/1/300 362/1/312 361/1/311
f 350/1/300 351/1/301 363/1/313 362/1/312
f 351/1/301 352/1/302 364/1/314 363/1/313
f 352/1/302 353/1/303 365/1/315 364/1/314
f 353/1/303 354/1/304 366/1/316 365/1/315
f 354/1/304 355/1/305 367/1/317 366/1/316
f 355/1/305 356/1/306 368/1/318 367/1/317
f 356/1/306 357/1/307 369/1/319 368/1/318
f 357/1/307 346/1/297 358/1/309 369/1/319
f 358/1/309 359/1/308 371/1/320 370/1/321
f 359/1/308 360/1/310 372/1/322 371/1/320
f 360/1/310 361/1/311 373/1/323 372/1/322
f 361/1/311 362/1/312 374/1/324 373/1/323
f 362/1/312 363/1/313 375/1/325 374/1/324
f 363/1/313 364/1/314 376/1/326 375/1/325
f 364/1/314 365/1/315 377/1/327 376/1/326
f 365/1/315 366/1/316 378/1/328 377/1/327
f 366/1/316 367/1/317 379/1/329 378/1/328
f 367/1/317 368/1/318 380/1/330 379/1/329
f 368/1/318 369/1/319 381/1/331 380/1/330
f 369/1/319 358/1/309 370/1/321 381/1/331
f 370/1/321 371/1/320 383/1/332 382/1/333
f 371/1/320 372/1/322 384/1/334 383/1/332
f 372/1/322 373/1/323 385/1/335 384/1/334
f 373/1/323 374/1/324 386/1/336 385/1/335
f 374/1/324 375/1/325 387/1/337 386/1/336
f 375/1/325 376/1/326 388/1/338 387/1/337
f 376/1/326 377/1/327 389/1/339 388/1/338
f 377/1/327 378/1/328 390/1/340 389/1/339
f 378/1/328 379/1/329 391/1/341 390/1/340
f 379/1/329 380/1/330 392/1/342 391/1/341
f 380/1/330 381/1/331 393/1/343 392/1/342
f 381/1/331 370/1/321 382/1/333 393/1/343
f 382/1/333 383/1/332 395/1/344 394/1/345
f 383/1/332 384/1/334 396/1/346 395/1/344
f 384/1/334 385/1/335 397/1/347 396/1/346
f 385/1/335 386/1/336 398/1/348 397/1/347
f 386/1/336 387/1/337 399/1/349 398/1/348
f 387/1/337 388/1/338 400/1/350 399/1/349
f 388/1/338 389/1/339 401/1/351 400/1/350
f 389/1/339 390/1/340 402/1/352 401/1/351
f 390/1/340 391/1/341 403/1/353 402/1/352
f 391/1/341 392/1/342 404/1/354 403/1/353
f 392/1/342 393/1/343 405/1/355 404/1/354
f 393/1/343 382/1/333 394/1/345 405/1/355
f 394/1/345 395/1/344 406/1/356
f 395/1/344 396/1/346 406/1/356
f 396/1/346 397/1/347 406/1/356
f 397/1/347 398/1/348 406/1/356
f 398/1/348 399/1/349 406/1/356
f 399/1/349 400/1/350 406/1/356
f 400/1/350 401/1/351 406/1/356
f 401/1/351 402/1/352 406/1/356
f 402/1/352 403/1/353 406/1/356
f 403/1/353 404/1/354 406/1/356
f 404/1/354 405/1/355 406/1/356
f 405/1/355 394/1/345 406/1/356
usemtl bun
f 407/1/357 409/1/358 408/1/359
f 407/1/357 410/1/360 409/1/358
f 407/1/357 411/1/361 410/1/360
f 407/1/357 412/1/362 411/1/361
f 407/1/357 413/1/363 412/1/362
f 407/1/357 414/1/364 413/1/363
f 407/1/357 415/1/365 414/1/364
f 407/1/357 408/1/359 415/1/365
f 408/1/359 409/1/358 417/1/366 416/1/367
f 409/1/358 410/1/360 418/1/368 417/1/366
f 410/1/360 411/1/361 419/1/369 418/1/368
f 411/1/361 412/1/362 420/1/370 419/1/369
f 412/1/362 413/1/363 421/1/371 420/1/372
f 413/1/363 414/1/364 422/1/373 421/1/371
f 414/1/364 415/1/365 423/1/374 422/1/373
f 415/1/365 408/1/359 416/1/375 423/1/374
f 416/1/367 417/1/366 425/1/376 424/1/377
f 417/1/366 418/1/368 426/1/378 425/1/379
f 418/1/368 419/1/369 427/1/380 426/1/378
f 419/1/369 420/1/370 428/1/381 427/1/382
f 420/1/372 421/1/371 429/1/383 428/1/384
f 421/1/371 422/1/373 430/1/385 429/1/386
f 422/1/373 423/1/374 431/1/387 430/1/385
f 423/1/374 416/1/375 424/1/388 431/1/389
f 424/1/377 425/1/376 433/1/390 432/1/391
f 425/1/379 426/1/378 434/1/392 433/1/393
f 426/1/378 427/1/380 435/1/394 434/1/392
f 427/1/382 428/1/381 436/1/395 435/1/396
f 428/1/384 429/1/383 437/1/397 436/1/398
f 429/1/386 430/1/385 438/1/399 437/1/400
f 430/1/385 431/1/387 439/1/401 438/1/399
f 431/1/389 424/1/388 432/1/402 439/1/403
f 432/1/391 433/1/390 441/1/404 440/1/405
f 433/1/393 434/1/392 442/1/406 441/1/404
f 434/1/392 435/1/394 443/1/407 442/1/406
f 435/1/396 436/1/395 444/1/408 443/1/407
f 436/1/398 437/1/397 445/1/409 444/1/410
f 437/1/400 438/1/399 446/1/411 445/1/409
f 438/1/399 439/1/401 447/1/412 446/1/411
f 439/1/403 432/1/402 440/1/413 447/1/412
f 440/1/405 441/1/404 449/1/414 448/1/415
f 441/1/404 442/1/406 450/1/416 449/1/414
f 442/1/406 443/1/407 451/1/417 450/1/416
f 443/1/407 444/1/408 452/1/418 451/1/417
f 444/1/410 445/1/409 453/1/419 452/1/418
f 445/1/409 446/1/411 454/1/420 453/1/419
f 446/1/411 447/1/412 455/1/421 454/1/420
f 447/1/412 440/1/413 448/1/415 455/1/421
f 448/1/415 449/1/414 456/1/422
f 449/1/414 450/1/416 456/1/422
f 450/1/416 451/1/417 456/1/422
f 451/1/417 452/1/418 456/1/422
f 452/1/418 453/1/419 456/1/422
f 453/1/419 454/1/420 456/1/422
f 454/1/420 455/1/421 456/1/422
f 455/1/421 448/1/415 456/1/422
f 457/1/357 459/1/423 458/1/424
f 457/1/357 460/1/425 459/1/423
f 457/1/357 461/1/426 460/1/425
f 457/1/357 462/1/427 461/1/426
f 457/1/357 463/1/428 462/1/427
f 457/1/357 464/1/429 463/1/428
f 457/1/357 465/1/430 464/1/429
f 457/1/357 458/1/424 465/1/430
f 458/1/424 459/1/423 467/1/431 466/1/432
f 459/1/423 460/1/425 468/1/433 467/1/431
f 460/1/425 461/1/426 469/1/434 468/1/433
f 461/1/426 462/1/427 470/1/435 469/1/434
f 462/1/427 463/1/428 471/1/436 470/1/437
f 463/1/428 464/1/429 472/1/438 471/1/436
f 464/1/429 465/1/430 473/1/439 472/1/438
f 465/1/430 458/1/424 466/1/440 473/1/439
f 466/1/432 467/1/431 475/1/441 474/1/442
f 467/1/431 468/1/433 476/1/443 475/1/444
f 468/1/433 469/1/434 477/1/445 476/1/443
f 469/1/434 470/1/435 478/1/446 477/1/447
f 470/1/437 471/1/436 479/1/448 478/1/449
f 471/1/436 472/1/438 480/1/450 479/1/451
f 472/1/438 473/1/439 481/1/452 480/1/450
f 473/1/439 466/1/440 474/1/453 481/1/454
f 474/1/442 475/1/441 483/1/455 482/1/456
f 475/1/444 476/1/443 484/1/457 483/1/458
f 476/1/443 477/1/445 485/1/459 484/1/457
f 477/1/447 478/1/446 486/1/460 485/1/461
f 478/1/449 479/1/448 487/1/462 486/1/463
f 479/1/451 480/1/450 488/1/464 487/1/465
f 480/1/450 481/1/452 489/1/466 488/1/464
f 481/1/454 474/1/453 482/1/467 489/1/468
f 482/1/456 483/1/455 491/1/469 490/1/470
f 483/1/458 484/1/457 492/1/471 491/1/469
f 484/1/457 485/1/459 493/1/472 492/1/471
f 485/1/461 486/1/460 494/1/473 493/1/472
f 486/1/463 487/1/462 495/1/474 494/1/475
f 487/1/465 488/1/464 496/1/476 495/1/474
f 488/1/464 489/1/466 497/1/477 496/1/476
f 489/1/468 482/1/467 490/1/478 497/1/477
f 490/1/470 491/1/469 499/1/479 498/1/480
f 491/1/469 492/1/471 500/1/481 499/1/479
f 492/1/471 493/1/472 501/1/482 500/1/481
f 493/1/472 494/1/473 502/1/483 501/1/482
f 494/1/475 495/1/474 503/1/484 502/1/483
f 495/1/474 496/1/476 504/1/485 503/1/484
f 496/1/476 497/1/477 505/1/486 504/1/485
f 497/1/477 490/1/478 498/1/480 505/1/486
f 498/1/480 499/1/479 506/1/422
f 499/1/479 500/1/481 506/1/422
f 500/1/481 501/1/482 506/1/422
f 501/1/482 502/1/483 506/1/422
f 502/1/483 503/1/484 506/1/422
f 503/1/484 504/1/485 506/1/422
f 504/1/485 505/1/486 506/1/422
f 505/1/486 498/1/480 506/1/422
f 507/1/357 509/1/487 508/1/488
f 507/1/357 510/1/489 509/1/487
f 507/1/357 511/1/490 510/1/489
f 507/1/357 512/1/491 511/1/490
f 507/1/357 513/1/492 512/1/491
f 507/1/357 514/1/493 513/1/492
f 507/1/357 515/1/494 514/1/493
f 507/1/357 508/1/488 515/1/494
f 508/1/488 509/1/487 517/1/495 516/1/496
f 509/1/487 510/1/489 518/1/497 517/1/495
f 510/1/489 511/1/490 519/1/498 518/1/499
f 511/1/490 512/1/491 520/1/500 519/1/498
f 512/1/491 513/1/492 521/1/501 520/1/500
f 513/1/492 514/1/493 522/1/502 521/1/501
f 514/1/493 515/1/494 523/1/503 522/1/504
f 515/1/494 508/1/488 516/1/496 523/1/503
f 516/1/496 517/1/495 525/1/505 524/1/506
f 517/1/495 518/1/497 526/1/507 525/1/505
f 518/1/499 519/1/498 527/1/508 526/1/509
f 519/1/498 520/1/500 528/1/510 527/1/508
f 520/1/500 521/1/501 529/1/511 528/1/510
f 521/1/501 522/1/502 530/1/512 529/1/511
f 522/1/504 523/1/503 531/1/513 530/1/514
f 523/1/503 516/1/496 524/1/506 531/1/513
f 524/1/506 525/1/505 533/1/515 532/1/516
f 525/1/505 526/1/507 534/1/517 533/1/515
f 526/1/509 527/1/508 535/1/518 534/1/519
f 527/1/508 528/1/510 536/1/520 535/1/518
f 528/1/510 529/1/511 537/1/521 536/1/520
f 529/1/511 530/1/512 538/1/522 537/1/521
f 530/1/514 531/1/513 539/1/523 538/1/524
f 531/1/513 524/1/506 532/1/516 539/1/523
f 532/1/516 533/1/515 541/1/525 540/1/526
f 533/1/515 534/1/517 542/1/527 541/1/525
f 534/1/519 535/1/518 543/1/528 542/1/529
f 535/1/518 536/1/520 544/1/530 543/1/528
f 536/1/520 537/1/521 545/1/531 544/1/530
f 537/1/521 538/1/522 546/1/532 545/1/531
f 538/1/524 539/1/523 547/1/533 546/1/534
f 539/1/523 532/1/516 540/1/526 547/1/533
f 540/1/526 541/1/525 549/1/535 548/1/536
f 541/1/525 542/1/527 550/1/537 549/1/535
f 542/1/529 543/1/528 551/1/538 550/1/537
f 543/1/528 544/1/530 552/1/539 551/1/538
f 544/1/530 545/1/531 553/1/540 552/1/539
f 545/1/531 546/1/532 554/1/541 553/1/540
f 546/1/534 547/1/533 555/1/542 554/1/541
f 547/1/533 540/1/526 548/1/536 555/1/542
f 548/1/536 549/1/535 556/1/422
f 549/1/535 550/1/537 556/1/422
f 550/1/537 551/1/538 556/1/422
f 551/1/538 552/1/539 556/1/422
f 552/1/539 553/1/540 556/1/422
f 553/1/540 554/1/541 556/1/422
f 554/1/541 555/1/542 556/1/422
f 555/1/542 548/1/536 556/1/422
