# Blender 5.0.1
# www.blender.org
mtllib Bench.mtl
o Bench
v -2.857782 1.502776 1.002732 0.1843 0.2902 0.2667
v -2.780000 1.503926 1.034930 0.1843 0.2902 0.2667
v -2.702218 1.502776 1.002732 0.1843 0.2902 0.2667
v -2.670000 1.500000 0.925000 0.1843 0.2902 0.2667
v -2.702218 1.497224 0.847268 0.1843 0.2902 0.2667
v -2.780000 1.496074 0.815070 0.1843 0.2902 0.2667
v -2.857782 1.497224 0.847268 0.1843 0.2902 0.2667
v -2.890000 1.500000 0.925000 0.1843 0.2902 0.2667
v -2.857782 0.102776 1.052732 0.1843 0.2902 0.2667
v -2.780000 0.103926 1.084930 0.1843 0.2902 0.2667
v -2.702218 0.102776 1.052732 0.1843 0.2902 0.2667
v -2.670000 0.100000 0.975000 0.1843 0.2902 0.2667
v -2.702218 0.097224 0.897268 0.1843 0.2902 0.2667
v -2.780000 0.096074 0.865070 0.1843 0.2902 0.2667
v -2.857782 0.097224 0.897268 0.1843 0.2902 0.2667
v -2.890000 0.100000 0.975000 0.1843 0.2902 0.2667
v -2.702218 3.287711 -1.181805 0.1843 0.2902 0.2667
v -2.780000 3.282621 -1.213619 0.1843 0.2902 0.2667
v -2.857782 3.287711 -1.181805 0.1843 0.2902 0.2667
v -2.890000 3.300000 -1.105000 0.1843 0.2902 0.2667
v -2.857782 3.312289 -1.028195 0.1843 0.2902 0.2667
v -2.780000 3.317379 -0.996382 0.1843 0.2902 0.2667
v -2.702218 3.312289 -1.028195 0.1843 0.2902 0.2667
v -2.670000 3.300000 -1.105000 0.1843 0.2902 0.2667
v -2.702218 0.105542 -1.052584 0.1843 0.2902 0.2667
v -2.780000 0.107837 -1.084720 0.1843 0.2902 0.2667
v -2.857782 0.105542 -1.052584 0.1843 0.2902 0.2667
v -2.890000 0.100000 -0.975000 0.1843 0.2902 0.2667
v -2.857782 0.094458 -0.897416 0.1843 0.2902 0.2667
v -2.780000 0.092163 -0.865279 0.1843 0.2902 0.2667
v -2.702218 0.094458 -0.897416 0.1843 0.2902 0.2667
v -2.670000 0.100000 -0.975000 0.1843 0.2902 0.2667
v -2.702218 1.499379 -0.952779 0.1843 0.2902 0.2667
v -2.780000 1.499122 -0.984996 0.1843 0.2902 0.2667
v -2.857782 1.499379 -0.952779 0.1843 0.2902 0.2667
v -2.890000 1.500000 -0.875000 0.1843 0.2902 0.2667
v -2.857782 1.500621 -0.797221 0.1843 0.2902 0.2667
v -2.780000 1.500878 -0.765004 0.1843 0.2902 0.2667
v -2.702218 1.500621 -0.797221 0.1843 0.2902 0.2667
v -2.670000 1.500000 -0.875000 0.1843 0.2902 0.2667
v -2.702218 2.290459 -1.022194 0.1843 0.2902 0.2667
v -2.780000 2.286508 -1.054169 0.1843 0.2902 0.2667
v -2.857782 2.290459 -1.022194 0.1843 0.2902 0.2667
v -2.890000 2.300000 -0.945000 0.1843 0.2902 0.2667
v -2.857782 2.309541 -0.867806 0.1843 0.2902 0.2667
v -2.780000 2.313492 -0.835831 0.1843 0.2902 0.2667
v -2.702218 2.309541 -0.867806 0.1843 0.2902 0.2667
v -2.670000 2.300000 -0.945000 0.1843 0.2902 0.2667
v -2.825000 1.577942 -0.875000 0.1843 0.2902 0.2667
v -2.735000 1.577942 -0.875000 0.1843 0.2902 0.2667
v -2.690000 1.500000 -0.875000 0.1843 0.2902 0.2667
v -2.735000 1.422058 -0.875000 0.1843 0.2902 0.2667
v -2.825000 1.422058 -0.875000 0.1843 0.2902 0.2667
v -2.870000 1.500000 -0.875000 0.1843 0.2902 0.2667
v -2.825000 1.577942 0.925000 0.1843 0.2902 0.2667
v -2.735000 1.577942 0.925000 0.1843 0.2902 0.2667
v -2.690000 1.500000 0.925000 0.1843 0.2902 0.2667
v -2.735000 1.422058 0.925000 0.1843 0.2902 0.2667
v -2.825000 1.422058 0.925000 0.1843 0.2902 0.2667
v -2.870000 1.500000 0.925000 0.1843 0.2902 0.2667
v -2.735000 2.342115 -0.907979 0.1843 0.2902 0.2667
v -2.825000 2.342115 -0.907979 0.1843 0.2902 0.2667
v -2.870000 2.420000 -0.905000 0.1843 0.2902 0.2667
v -2.825000 2.497885 -0.902021 0.1843 0.2902 0.2667
v -2.735000 2.497885 -0.902021 0.1843 0.2902 0.2667
v -2.690000 2.420000 -0.905000 0.1843 0.2902 0.2667
v -2.735000 1.515286 0.848571 0.1843 0.2902 0.2667
v -2.825000 1.515286 0.848571 0.1843 0.2902 0.2667
v -2.825000 1.484714 1.001429 0.1843 0.2902 0.2667
v -2.735000 1.484714 1.001429 0.1843 0.2902 0.2667
v -2.735000 2.135319 0.978453 0.1843 0.2902 0.2667
v -2.825000 2.135319 0.978453 0.1843 0.2902 0.2667
v -2.870000 2.150000 1.055000 0.1843 0.2902 0.2667
v -2.825000 2.164681 1.131547 0.1843 0.2902 0.2667
v -2.735000 2.164681 1.131547 0.1843 0.2902 0.2667
v -2.690000 2.150000 1.055000 0.1843 0.2902 0.2667
v -2.735000 2.282218 0.886521 0.1843 0.2902 0.2667
v -2.825000 2.282218 0.886521 0.1843 0.2902 0.2667
v -2.870000 2.350000 0.925000 0.1843 0.2902 0.2667
v -2.825000 2.417782 0.963479 0.1843 0.2902 0.2667
v -2.735000 2.417782 0.963479 0.1843 0.2902 0.2667
v -2.690000 2.350000 0.925000 0.1843 0.2902 0.2667
v -2.780000 2.350000 1.075000 0.1843 0.2902 0.2667
v -2.780000 2.050000 1.075000 0.1843 0.2902 0.2667
v -2.735916 2.329904 1.014324 0.1843 0.2902 0.2667
v -2.703645 2.275000 0.969906 0.1843 0.2902 0.2667
v -2.691832 2.200000 0.953647 0.1843 0.2902 0.2667
v -2.703645 2.125000 0.969906 0.1843 0.2902 0.2667
v -2.735916 2.070096 1.014324 0.1843 0.2902 0.2667
v -2.708671 2.329904 1.051824 0.1843 0.2902 0.2667
v -2.656454 2.275000 1.034858 0.1843 0.2902 0.2667
v -2.637341 2.200000 1.028648 0.1843 0.2902 0.2667
v -2.656454 2.125000 1.034858 0.1843 0.2902 0.2667
v -2.708671 2.070096 1.051824 0.1843 0.2902 0.2667
v -2.708671 2.329904 1.098176 0.1843 0.2902 0.2667
v -2.656454 2.275000 1.115142 0.1843 0.2902 0.2667
v -2.637341 2.200000 1.121353 0.1843 0.2902 0.2667
v -2.656454 2.125000 1.115142 0.1843 0.2902 0.2667
v -2.708671 2.070096 1.098176 0.1843 0.2902 0.2667
v -2.735916 2.329904 1.135676 0.1843 0.2902 0.2667
v -2.703645 2.275000 1.180094 0.1843 0.2902 0.2667
v -2.691832 2.200000 1.196353 0.1843 0.2902 0.2667
v -2.703645 2.125000 1.180094 0.1843 0.2902 0.2667
v -2.735916 2.070096 1.135676 0.1843 0.2902 0.2667
v -2.780000 2.329904 1.150000 0.1843 0.2902 0.2667
v -2.780000 2.275000 1.204904 0.1843 0.2902 0.2667
v -2.780000 2.200000 1.225000 0.1843 0.2902 0.2667
v -2.780000 2.125000 1.204904 0.1843 0.2902 0.2667
v -2.780000 2.070096 1.150000 0.1843 0.2902 0.2667
v -2.824084 2.329904 1.135676 0.1843 0.2902 0.2667
v -2.856355 2.275000 1.180094 0.1843 0.2902 0.2667
v -2.868168 2.200000 1.196353 0.1843 0.2902 0.2667
v -2.856355 2.125000 1.180094 0.1843 0.2902 0.2667
v -2.824084 2.070096 1.135676 0.1843 0.2902 0.2667
v -2.851329 2.329904 1.098176 0.1843 0.2902 0.2667
v -2.903546 2.275000 1.115143 0.1843 0.2902 0.2667
v -2.922658 2.200000 1.121353 0.1843 0.2902 0.2667
v -2.903546 2.125000 1.115143 0.1843 0.2902 0.2667
v -2.851329 2.070096 1.098176 0.1843 0.2902 0.2667
v -2.851329 2.329904 1.051824 0.1843 0.2902 0.2667
v -2.903546 2.275000 1.034858 0.1843 0.2902 0.2667
v -2.922658 2.200000 1.028648 0.1843 0.2902 0.2667
v -2.903546 2.125000 1.034858 0.1843 0.2902 0.2667
v -2.851329 2.070096 1.051824 0.1843 0.2902 0.2667
v -2.824084 2.329904 1.014324 0.1843 0.2902 0.2667
v -2.856355 2.275000 0.969906 0.1843 0.2902 0.2667
v -2.868168 2.200000 0.953647 0.1843 0.2902 0.2667
v -2.856355 2.125000 0.969906 0.1843 0.2902 0.2667
v -2.824084 2.070096 1.014324 0.1843 0.2902 0.2667
v -2.780000 2.329904 1.000000 0.1843 0.2902 0.2667
v -2.780000 2.275000 0.945096 0.1843 0.2902 0.2667
v -2.780000 2.200000 0.925000 0.1843 0.2902 0.2667
v -2.780000 2.125000 0.945096 0.1843 0.2902 0.2667
v -2.780000 2.070096 1.000000 0.1843 0.2902 0.2667
v -2.950000 0.000000 1.210000 0.1843 0.2902 0.2667
v -2.950000 0.040000 1.250000 0.1843 0.2902 0.2667
v -2.990000 0.040000 1.210000 0.1843 0.2902 0.2667
v -2.950000 0.080000 1.250000 0.1843 0.2902 0.2667
v -2.950000 0.120000 1.210000 0.1843 0.2902 0.2667
v -2.990000 0.080000 1.210000 0.1843 0.2902 0.2667
v -2.950000 0.000000 0.740000 0.1843 0.2902 0.2667
v -2.990000 0.040000 0.740000 0.1843 0.2902 0.2667
v -2.950000 0.040000 0.700000 0.1843 0.2902 0.2667
v -2.950000 0.120000 0.740000 0.1843 0.2902 0.2667
v -2.950000 0.080000 0.700000 0.1843 0.2902 0.2667
v -2.990000 0.080000 0.740000 0.1843 0.2902 0.2667
v -2.610000 0.000000 1.210000 0.1843 0.2902 0.2667
v -2.570000 0.040000 1.210000 0.1843 0.2902 0.2667
v -2.610000 0.040000 1.250000 0.1843 0.2902 0.2667
v -2.610000 0.120000 1.210000 0.1843 0.2902 0.2667
v -2.610000 0.080000 1.250000 0.1843 0.2902 0.2667
v -2.570000 0.080000 1.210000 0.1843 0.2902 0.2667
v -2.610000 0.000000 0.740000 0.1843 0.2902 0.2667
v -2.610000 0.040000 0.700000 0.1843 0.2902 0.2667
v -2.570000 0.040000 0.740000 0.1843 0.2902 0.2667
v -2.610000 0.120000 0.740000 0.1843 0.2902 0.2667
v -2.570000 0.080000 0.740000 0.1843 0.2902 0.2667
v -2.610000 0.080000 0.700000 0.1843 0.2902 0.2667
v -2.950000 0.000000 -0.740000 0.1843 0.2902 0.2667
v -2.950000 0.040000 -0.700000 0.1843 0.2902 0.2667
v -2.990000 0.040000 -0.740000 0.1843 0.2902 0.2667
v -2.950000 0.080000 -0.700000 0.1843 0.2902 0.2667
v -2.950000 0.120000 -0.740000 0.1843 0.2902 0.2667
v -2.990000 0.080000 -0.740000 0.1843 0.2902 0.2667
v -2.950000 0.000000 -1.210000 0.1843 0.2902 0.2667
v -2.990000 0.040000 -1.210000 0.1843 0.2902 0.2667
v -2.950000 0.040000 -1.250000 0.1843 0.2902 0.2667
v -2.950000 0.120000 -1.210000 0.1843 0.2902 0.2667
v -2.950000 0.080000 -1.250000 0.1843 0.2902 0.2667
v -2.990000 0.080000 -1.210000 0.1843 0.2902 0.2667
v -2.610000 0.000000 -0.740000 0.1843 0.2902 0.2667
v -2.570000 0.040000 -0.740000 0.1843 0.2902 0.2667
v -2.610000 0.040000 -0.700000 0.1843 0.2902 0.2667
v -2.610000 0.120000 -0.740000 0.1843 0.2902 0.2667
v -2.610000 0.080000 -0.700000 0.1843 0.2902 0.2667
v -2.570000 0.080000 -0.740000 0.1843 0.2902 0.2667
v -2.610000 0.000000 -1.210000 0.1843 0.2902 0.2667
v -2.610000 0.040000 -1.250000 0.1843 0.2902 0.2667
v -2.570000 0.040000 -1.210000 0.1843 0.2902 0.2667
v -2.610000 0.120000 -1.210000 0.1843 0.2902 0.2667
v -2.570000 0.080000 -1.210000 0.1843 0.2902 0.2667
v -2.610000 0.080000 -1.250000 0.1843 0.2902 0.2667
v 2.702218 1.502776 1.002732 0.1843 0.2902 0.2667
v 2.780000 1.503926 1.034930 0.1843 0.2902 0.2667
v 2.857782 1.502776 1.002732 0.1843 0.2902 0.2667
v 2.890000 1.500000 0.925000 0.1843 0.2902 0.2667
v 2.857782 1.497224 0.847268 0.1843 0.2902 0.2667
v 2.780000 1.496074 0.815070 0.1843 0.2902 0.2667
v 2.702218 1.497224 0.847268 0.1843 0.2902 0.2667
v 2.670000 1.500000 0.925000 0.1843 0.2902 0.2667
v 2.702218 0.102776 1.052732 0.1843 0.2902 0.2667
v 2.780000 0.103926 1.084930 0.1843 0.2902 0.2667
v 2.857782 0.102776 1.052732 0.1843 0.2902 0.2667
v 2.890000 0.100000 0.975000 0.1843 0.2902 0.2667
v 2.857782 0.097224 0.897268 0.1843 0.2902 0.2667
v 2.780000 0.096074 0.865070 0.1843 0.2902 0.2667
v 2.702218 0.097224 0.897268 0.1843 0.2902 0.2667
v 2.670000 0.100000 0.975000 0.1843 0.2902 0.2667
v 2.857782 3.287711 -1.181805 0.1843 0.2902 0.2667
v 2.780000 3.282621 -1.213619 0.1843 0.2902 0.2667
v 2.702218 3.287711 -1.181805 0.1843 0.2902 0.2667
v 2.670000 3.300000 -1.105000 0.1843 0.2902 0.2667
v 2.702218 3.312289 -1.028195 0.1843 0.2902 0.2667
v 2.780000 3.317379 -0.996382 0.1843 0.2902 0.2667
v 2.857782 3.312289 -1.028195 0.1843 0.2902 0.2667
v 2.890000 3.300000 -1.105000 0.1843 0.2902 0.2667
v 2.857782 0.105542 -1.052584 0.1843 0.2902 0.2667
v 2.780000 0.107837 -1.084720 0.1843 0.2902 0.2667
v 2.702218 0.105542 -1.052584 0.1843 0.2902 0.2667
v 2.670000 0.100000 -0.975000 0.1843 0.2902 0.2667
v 2.702218 0.094458 -0.897416 0.1843 0.2902 0.2667
v 2.780000 0.092163 -0.865279 0.1843 0.2902 0.2667
v 2.857782 0.094458 -0.897416 0.1843 0.2902 0.2667
v 2.890000 0.100000 -0.975000 0.1843 0.2902 0.2667
v 2.857782 1.499379 -0.952779 0.1843 0.2902 0.2667
v 2.780000 1.499122 -0.984996 0.1843 0.2902 0.2667
v 2.702218 1.499379 -0.952779 0.1843 0.2902 0.2667
v 2.670000 1.500000 -0.875000 0.1843 0.2902 0.2667
v 2.702218 1.500621 -0.797221 0.1843 0.2902 0.2667
v 2.780000 1.500878 -0.765004 0.1843 0.2902 0.2667
v 2.857782 1.500621 -0.797221 0.1843 0.2902 0.2667
v 2.890000 1.500000 -0.875000 0.1843 0.2902 0.2667
v 2.857782 2.290459 -1.022194 0.1843 0.2902 0.2667
v 2.780000 2.286508 -1.054169 0.1843 0.2902 0.2667
v 2.702218 2.290459 -1.022194 0.1843 0.2902 0.2667
v 2.670000 2.300000 -0.945000 0.1843 0.2902 0.2667
v 2.702218 2.309541 -0.867806 0.1843 0.2902 0.2667
v 2.780000 2.313492 -0.835831 0.1843 0.2902 0.2667
v 2.857782 2.309541 -0.867806 0.1843 0.2902 0.2667
v 2.890000 2.300000 -0.945000 0.1843 0.2902 0.2667
v 2.735000 1.577942 -0.875000 0.1843 0.2902 0.2667
v 2.825000 1.577942 -0.875000 0.1843 0.2902 0.2667
v 2.870000 1.500000 -0.875000 0.1843 0.2902 0.2667
v 2.825000 1.422058 -0.875000 0.1843 0.2902 0.2667
v 2.735000 1.422058 -0.875000 0.1843 0.2902 0.2667
v 2.690000 1.500000 -0.875000 0.1843 0.2902 0.2667
v 2.735000 1.577942 0.925000 0.1843 0.2902 0.2667
v 2.825000 1.577942 0.925000 0.1843 0.2902 0.2667
v 2.870000 1.500000 0.925000 0.1843 0.2902 0.2667
v 2.825000 1.422058 0.925000 0.1843 0.2902 0.2667
v 2.735000 1.422058 0.925000 0.1843 0.2902 0.2667
v 2.690000 1.500000 0.925000 0.1843 0.2902 0.2667
v 2.825000 2.342115 -0.907979 0.1843 0.2902 0.2667
v 2.735000 2.342115 -0.907979 0.1843 0.2902 0.2667
v 2.690000 2.420000 -0.905000 0.1843 0.2902 0.2667
v 2.735000 2.497885 -0.902021 0.1843 0.2902 0.2667
v 2.825000 2.497885 -0.902021 0.1843 0.2902 0.2667
v 2.870000 2.420000 -0.905000 0.1843 0.2902 0.2667
v 2.825000 1.515286 0.848571 0.1843 0.2902 0.2667
v 2.735000 1.515286 0.848571 0.1843 0.2902 0.2667
v 2.735000 1.484714 1.001429 0.1843 0.2902 0.2667
v 2.825000 1.484714 1.001429 0.1843 0.2902 0.2667
v 2.825000 2.135319 0.978453 0.1843 0.2902 0.2667
v 2.735000 2.135319 0.978453 0.1843 0.2902 0.2667
v 2.690000 2.150000 1.055000 0.1843 0.2902 0.2667
v 2.735000 2.164681 1.131547 0.1843 0.2902 0.2667
v 2.825000 2.164681 1.131547 0.1843 0.2902 0.2667
v 2.870000 2.150000 1.055000 0.1843 0.2902 0.2667
v 2.825000 2.282218 0.886521 0.1843 0.2902 0.2667
v 2.735000 2.282218 0.886521 0.1843 0.2902 0.2667
v 2.690000 2.350000 0.925000 0.1843 0.2902 0.2667
v 2.735000 2.417782 0.963479 0.1843 0.2902 0.2667
v 2.825000 2.417782 0.963479 0.1843 0.2902 0.2667
v 2.870000 2.350000 0.925000 0.1843 0.2902 0.2667
v 2.780000 2.350000 1.075000 0.1843 0.2902 0.2667
v 2.780000 2.050000 1.075000 0.1843 0.2902 0.2667
v 2.824084 2.329904 1.014324 0.1843 0.2902 0.2667
v 2.856355 2.275000 0.969906 0.1843 0.2902 0.2667
v 2.868168 2.200000 0.953647 0.1843 0.2902 0.2667
v 2.856355 2.125000 0.969906 0.1843 0.2902 0.2667
v 2.824084 2.070096 1.014324 0.1843 0.2902 0.2667
v 2.851329 2.329904 1.051824 0.1843 0.2902 0.2667
v 2.903546 2.275000 1.034858 0.1843 0.2902 0.2667
v 2.922658 2.200000 1.028648 0.1843 0.2902 0.2667
v 2.903546 2.125000 1.034858 0.1843 0.2902 0.2667
v 2.851329 2.070096 1.051824 0.1843 0.2902 0.2667
v 2.851329 2.329904 1.098176 0.1843 0.2902 0.2667
v 2.903546 2.275000 1.115142 0.1843 0.2902 0.2667
v 2.922658 2.200000 1.121353 0.1843 0.2902 0.2667
v 2.903546 2.125000 1.115142 0.1843 0.2902 0.2667
v 2.851329 2.070096 1.098176 0.1843 0.2902 0.2667
v 2.824084 2.329904 1.135676 0.1843 0.2902 0.2667
v 2.856355 2.275000 1.180094 0.1843 0.2902 0.2667
v 2.868168 2.200000 1.196353 0.1843 0.2902 0.2667
v 2.856355 2.125000 1.180094 0.1843 0.2902 0.2667
v 2.824084 2.070096 1.135676 0.1843 0.2902 0.2667
v 2.780000 2.329904 1.150000 0.1843 0.2902 0.2667
v 2.780000 2.275000 1.204904 0.1843 0.2902 0.2667
v 2.780000 2.200000 1.225000 0.1843 0.2902 0.2667
v 2.780000 2.125000 1.204904 0.1843 0.2902 0.2667
v 2.780000 2.070096 1.150000 0.1843 0.2902 0.2667
v 2.735916 2.329904 1.135676 0.1843 0.2902 0.2667
v 2.703645 2.275000 1.180094 0.1843 0.2902 0.2667
v 2.691832 2.200000 1.196353 0.1843 0.2902 0.2667
v 2.703645 2.125000 1.180094 0.1843 0.2902 0.2667
v 2.735916 2.070096 1.135676 0.1843 0.2902 0.2667
v 2.708671 2.329904 1.098176 0.1843 0.2902 0.2667
v 2.656454 2.275000 1.115143 0.1843 0.2902 0.2667
v 2.637341 2.200000 1.121353 0.1843 0.2902 0.2667
v 2.656454 2.125000 1.115143 0.1843 0.2902 0.2667
v 2.708671 2.070096 1.098176 0.1843 0.2902 0.2667
v 2.708671 2.329904 1.051824 0.1843 0.2902 0.2667
v 2.656454 2.275000 1.034858 0.1843 0.2902 0.2667
v 2.637341 2.200000 1.028648 0.1843 0.2902 0.2667
v 2.656454 2.125000 1.034858 0.1843 0.2902 0.2667
v 2.708671 2.070096 1.051824 0.1843 0.2902 0.2667
v 2.735916 2.329904 1.014324 0.1843 0.2902 0.2667
v 2.703645 2.275000 0.969906 0.1843 0.2902 0.2667
v 2.691832 2.200000 0.953647 0.1843 0.2902 0.2667
v 2.703645 2.125000 0.969906 0.1843 0.2902 0.2667
v 2.735916 2.070096 1.014324 0.1843 0.2902 0.2667
v 2.780000 2.329904 1.000000 0.1843 0.2902 0.2667
v 2.780000 2.275000 0.945096 0.1843 0.2902 0.2667
v 2.780000 2.200000 0.925000 0.1843 0.2902 0.2667
v 2.780000 2.125000 0.945096 0.1843 0.2902 0.2667
v 2.780000 2.070096 1.000000 0.1843 0.2902 0.2667
v 2.610000 0.000000 1.210000 0.1843 0.2902 0.2667
v 2.610000 0.040000 1.250000 0.1843 0.2902 0.2667
v 2.570000 0.040000 1.210000 0.1843 0.2902 0.2667
v 2.610000 0.080000 1.250000 0.1843 0.2902 0.2667
v 2.610000 0.120000 1.210000 0.1843 0.2902 0.2667
v 2.570000 0.080000 1.210000 0.1843 0.2902 0.2667
v 2.610000 0.000000 0.740000 0.1843 0.2902 0.2667
v 2.570000 0.040000 0.740000 0.1843 0.2902 0.2667
v 2.610000 0.040000 0.700000 0.1843 0.2902 0.2667
v 2.610000 0.120000 0.740000 0.1843 0.2902 0.2667
v 2.610000 0.080000 0.700000 0.1843 0.2902 0.2667
v 2.570000 0.080000 0.740000 0.1843 0.2902 0.2667
v 2.950000 0.000000 1.210000 0.1843 0.2902 0.2667
v 2.990000 0.040000 1.210000 0.1843 0.2902 0.2667
v 2.950000 0.040000 1.250000 0.1843 0.2902 0.2667
v 2.950000 0.120000 1.210000 0.1843 0.2902 0.2667
v 2.950000 0.080000 1.250000 0.1843 0.2902 0.2667
v 2.990000 0.080000 1.210000 0.1843 0.2902 0.2667
v 2.950000 0.000000 0.740000 0.1843 0.2902 0.2667
v 2.950000 0.040000 0.700000 0.1843 0.2902 0.2667
v 2.990000 0.040000 0.740000 0.1843 0.2902 0.2667
v 2.950000 0.120000 0.740000 0.1843 0.2902 0.2667
v 2.990000 0.080000 0.740000 0.1843 0.2902 0.2667
v 2.950000 0.080000 0.700000 0.1843 0.2902 0.2667
v 2.610000 0.000000 -0.740000 0.1843 0.2902 0.2667
v 2.610000 0.040000 -0.700000 0.1843 0.2902 0.2667
v 2.570000 0.040000 -0.740000 0.1843 0.2902 0.2667
v 2.610000 0.080000 -0.700000 0.1843 0.2902 0.2667
v 2.610000 0.120000 -0.740000 0.1843 0.2902 0.2667
v 2.570000 0.080000 -0.740000 0.1843 0.2902 0.2667
v 2.610000 0.000000 -1.210000 0.1843 0.2902 0.2667
v 2.570000 0.040000 -1.210000 0.1843 0.2902 0.2667
v 2.610000 0.040000 -1.250000 0.1843 0.2902 0.2667
v 2.610000 0.120000 -1.210000 0.1843 0.2902 0.2667
v 2.610000 0.080000 -1.250000 0.1843 0.2902 0.2667
v 2.570000 0.080000 -1.210000 0.1843 0.2902 0.2667
v 2.950000 0.000000 -0.740000 0.1843 0.2902 0.2667
v 2.990000 0.040000 -0.740000 0.1843 0.2902 0.2667
v 2.950000 0.040000 -0.700000 0.1843 0.2902 0.2667
v 2.950000 0.120000 -0.740000 0.1843 0.2902 0.2667
v 2.950000 0.080000 -0.700000 0.1843 0.2902 0.2667
v 2.990000 0.080000 -0.740000 0.1843 0.2902 0.2667
v 2.950000 0.000000 -1.210000 0.1843 0.2902 0.2667
v 2.950000 0.040000 -1.250000 0.1843 0.2902 0.2667
v 2.990000 0.040000 -1.210000 0.1843 0.2902 0.2667
v 2.950000 0.120000 -1.210000 0.1843 0.2902 0.2667
v 2.990000 0.080000 -1.210000 0.1843 0.2902 0.2667
v 2.950000 0.080000 -1.250000 0.1843 0.2902 0.2667
v -2.925000 1.555000 1.045000 0.7882 0.5412 0.2941
v -2.925000 1.605000 1.095000 0.7882 0.5412 0.2941
v -2.975000 1.605000 1.045000 0.7882 0.5412 0.2941
v -2.925000 1.569645 1.080355 0.7882 0.5412 0.2941
v -2.953867 1.576133 1.073868 0.7882 0.5412 0.2941
v -2.960355 1.605000 1.080355 0.7882 0.5412 0.2941
v -2.960355 1.569645 1.045000 0.7882 0.5412 0.2941
v -2.925000 1.635000 1.095000 0.7882 0.5412 0.2941
v -2.925000 1.685000 1.045000 0.7882 0.5412 0.2941
v -2.975000 1.635000 1.045000 0.7882 0.5412 0.2941
v -2.925000 1.670355 1.080355 0.7882 0.5412 0.2941
v -2.953867 1.663867 1.073868 0.7882 0.5412 0.2941
v -2.960355 1.670355 1.045000 0.7882 0.5412 0.2941
v -2.960355 1.635000 1.080355 0.7882 0.5412 0.2941
v -2.925000 1.555000 0.745000 0.7882 0.5412 0.2941
v -2.975000 1.605000 0.745000 0.7882 0.5412 0.2941
v -2.925000 1.605000 0.695000 0.7882 0.5412 0.2941
v -2.960355 1.569645 0.745000 0.7882 0.5412 0.2941
v -2.953867 1.576133 0.716133 0.7882 0.5412 0.2941
v -2.960355 1.605000 0.709645 0.7882 0.5412 0.2941
v -2.925000 1.569645 0.709645 0.7882 0.5412 0.2941
v -2.925000 1.685000 0.745000 0.7882 0.5412 0.2941
v -2.925000 1.635000 0.695000 0.7882 0.5412 0.2941
v -2.975000 1.635000 0.745000 0.7882 0.5412 0.2941
v -2.925000 1.670355 0.709645 0.7882 0.5412 0.2941
v -2.953867 1.663867 0.716133 0.7882 0.5412 0.2941
v -2.960355 1.635000 0.709645 0.7882 0.5412 0.2941
v -2.960355 1.670355 0.745000 0.7882 0.5412 0.2941
v 2.925000 1.555000 1.045000 0.7882 0.5412 0.2941
v 2.975000 1.605000 1.045000 0.7882 0.5412 0.2941
v 2.925000 1.605000 1.095000 0.7882 0.5412 0.2941
v 2.960355 1.569645 1.045000 0.7882 0.5412 0.2941
v 2.953867 1.576133 1.073868 0.7882 0.5412 0.2941
v 2.960355 1.605000 1.080355 0.7882 0.5412 0.2941
v 2.925000 1.569645 1.080355 0.7882 0.5412 0.2941
v 2.925000 1.685000 1.045000 0.7882 0.5412 0.2941
v 2.925000 1.635000 1.095000 0.7882 0.5412 0.2941
v 2.975000 1.635000 1.045000 0.7882 0.5412 0.2941
v 2.925000 1.670355 1.080355 0.7882 0.5412 0.2941
v 2.953867 1.663867 1.073868 0.7882 0.5412 0.2941
v 2.960355 1.635000 1.080355 0.7882 0.5412 0.2941
v 2.960355 1.670355 1.045000 0.7882 0.5412 0.2941
v 2.925000 1.555000 0.745000 0.7882 0.5412 0.2941
v 2.925000 1.605000 0.695000 0.7882 0.5412 0.2941
v 2.975000 1.605000 0.745000 0.7882 0.5412 0.2941
v 2.925000 1.569645 0.709645 0.7882 0.5412 0.2941
v 2.953867 1.576133 0.716133 0.7882 0.5412 0.2941
v 2.960355 1.605000 0.709645 0.7882 0.5412 0.2941
v 2.960355 1.569645 0.745000 0.7882 0.5412 0.2941
v 2.925000 1.685000 0.745000 0.7882 0.5412 0.2941
v 2.975000 1.635000 0.745000 0.7882 0.5412 0.2941
v 2.925000 1.635000 0.695000 0.7882 0.5412 0.2941
v 2.960355 1.670355 0.745000 0.7882 0.5412 0.2941
v 2.953867 1.663867 0.716133 0.7882 0.5412 0.2941
v 2.960355 1.635000 0.709645 0.7882 0.5412 0.2941
v 2.925000 1.670355 0.709645 0.7882 0.5412 0.2941
v -2.925000 1.555000 0.605000 1.0000 0.7804 0.6197
v -2.925000 1.605000 0.655000 1.0000 0.7804 0.6197
v -2.975000 1.605000 0.605000 1.0000 0.7804 0.6197
v -2.925000 1.569645 0.640355 1.0000 0.7804 0.6197
v -2.953867 1.576133 0.633868 1.0000 0.7804 0.6197
v -2.960355 1.605000 0.640355 1.0000 0.7804 0.6197
v -2.960355 1.569645 0.605000 1.0000 0.7804 0.6197
v -2.925000 1.635000 0.655000 1.0000 0.7804 0.6197
v -2.925000 1.685000 0.605000 1.0000 0.7804 0.6197
v -2.975000 1.635000 0.605000 1.0000 0.7804 0.6197
v -2.925000 1.670355 0.640355 1.0000 0.7804 0.6197
v -2.953867 1.663867 0.633868 1.0000 0.7804 0.6197
v -2.960355 1.670355 0.605000 1.0000 0.7804 0.6197
v -2.960355 1.635000 0.640355 1.0000 0.7804 0.6197
v -2.925000 1.555000 0.305000 1.0000 0.7804 0.6197
v -2.975000 1.605000 0.305000 1.0000 0.7804 0.6197
v -2.925000 1.605000 0.255000 1.0000 0.7804 0.6197
v -2.960355 1.569645 0.305000 1.0000 0.7804 0.6197
v -2.953867 1.576133 0.276132 1.0000 0.7804 0.6197
v -2.960355 1.605000 0.269645 1.0000 0.7804 0.6197
v -2.925000 1.569645 0.269645 1.0000 0.7804 0.6197
v -2.925000 1.685000 0.305000 1.0000 0.7804 0.6197
v -2.925000 1.635000 0.255000 1.0000 0.7804 0.6197
v -2.975000 1.635000 0.305000 1.0000 0.7804 0.6197
v -2.925000 1.670355 0.269645 1.0000 0.7804 0.6197
v -2.953867 1.663867 0.276132 1.0000 0.7804 0.6197
v -2.960355 1.635000 0.269645 1.0000 0.7804 0.6197
v -2.960355 1.670355 0.305000 1.0000 0.7804 0.6197
v 2.925000 1.555000 0.605000 1.0000 0.7804 0.6197
v 2.975000 1.605000 0.605000 1.0000 0.7804 0.6197
v 2.925000 1.605000 0.655000 1.0000 0.7804 0.6197
v 2.960355 1.569645 0.605000 1.0000 0.7804 0.6197
v 2.953867 1.576133 0.633868 1.0000 0.7804 0.6197
v 2.960355 1.605000 0.640355 1.0000 0.7804 0.6197
v 2.925000 1.569645 0.640355 1.0000 0.7804 0.6197
v 2.925000 1.685000 0.605000 1.0000 0.7804 0.6197
v 2.925000 1.635000 0.655000 1.0000 0.7804 0.6197
v 2.975000 1.635000 0.605000 1.0000 0.7804 0.6197
v 2.925000 1.670355 0.640355 1.0000 0.7804 0.6197
v 2.953867 1.663867 0.633868 1.0000 0.7804 0.6197
v 2.960355 1.635000 0.640355 1.0000 0.7804 0.6197
v 2.960355 1.670355 0.605000 1.0000 0.7804 0.6197
v 2.925000 1.555000 0.305000 1.0000 0.7804 0.6197
v 2.925000 1.605000 0.255000 1.0000 0.7804 0.6197
v 2.975000 1.605000 0.305000 1.0000 0.7804 0.6197
v 2.925000 1.569645 0.269645 1.0000 0.7804 0.6197
v 2.953867 1.576133 0.276132 1.0000 0.7804 0.6197
v 2.960355 1.605000 0.269645 1.0000 0.7804 0.6197
v 2.960355 1.569645 0.305000 1.0000 0.7804 0.6197
v 2.925000 1.685000 0.305000 1.0000 0.7804 0.6197
v 2.975000 1.635000 0.305000 1.0000 0.7804 0.6197
v 2.925000 1.635000 0.255000 1.0000 0.7804 0.6197
v 2.960355 1.670355 0.305000 1.0000 0.7804 0.6197
v 2.953867 1.663867 0.276132 1.0000 0.7804 0.6197
v 2.960355 1.635000 0.269645 1.0000 0.7804 0.6197
v 2.925000 1.670355 0.269645 1.0000 0.7804 0.6197
v -2.925000 1.555000 0.165000 0.7882 0.5412 0.2941
v -2.925000 1.605000 0.215000 0.7882 0.5412 0.2941
v -2.975000 1.605000 0.165000 0.7882 0.5412 0.2941
v -2.925000 1.569645 0.200355 0.7882 0.5412 0.2941
v -2.953867 1.576133 0.193868 0.7882 0.5412 0.2941
v -2.960355 1.605000 0.200355 0.7882 0.5412 0.2941
v -2.960355 1.569645 0.165000 0.7882 0.5412 0.2941
v -2.925000 1.635000 0.215000 0.7882 0.5412 0.2941
v -2.925000 1.685000 0.165000 0.7882 0.5412 0.2941
v -2.975000 1.635000 0.165000 0.7882 0.5412 0.2941
v -2.925000 1.670355 0.200355 0.7882 0.5412 0.2941
v -2.953867 1.663867 0.193868 0.7882 0.5412 0.2941
v -2.960355 1.670355 0.165000 0.7882 0.5412 0.2941
v -2.960355 1.635000 0.200355 0.7882 0.5412 0.2941
v -2.925000 1.555000 -0.135000 0.7882 0.5412 0.2941
v -2.975000 1.605000 -0.135000 0.7882 0.5412 0.2941
v -2.925000 1.605000 -0.185000 0.7882 0.5412 0.2941
v -2.960355 1.569645 -0.135000 0.7882 0.5412 0.2941
v -2.953867 1.576133 -0.163868 0.7882 0.5412 0.2941
v -2.960355 1.605000 -0.170355 0.7882 0.5412 0.2941
v -2.925000 1.569645 -0.170355 0.7882 0.5412 0.2941
v -2.925000 1.685000 -0.135000 0.7882 0.5412 0.2941
v -2.925000 1.635000 -0.185000 0.7882 0.5412 0.2941
v -2.975000 1.635000 -0.135000 0.7882 0.5412 0.2941
v -2.925000 1.670355 -0.170355 0.7882 0.5412 0.2941
v -2.953867 1.663867 -0.163868 0.7882 0.5412 0.2941
v -2.960355 1.635000 -0.170355 0.7882 0.5412 0.2941
v -2.960355 1.670355 -0.135000 0.7882 0.5412 0.2941
v 2.925000 1.555000 0.165000 0.7882 0.5412 0.2941
v 2.975000 1.605000 0.165000 0.7882 0.5412 0.2941
v 2.925000 1.605000 0.215000 0.7882 0.5412 0.2941
v 2.960355 1.569645 0.165000 0.7882 0.5412 0.2941
v 2.953867 1.576133 0.193868 0.7882 0.5412 0.2941
v 2.960355 1.605000 0.200355 0.7882 0.5412 0.2941
v 2.925000 1.569645 0.200355 0.7882 0.5412 0.2941
v 2.925000 1.685000 0.165000 0.7882 0.5412 0.2941
v 2.925000 1.635000 0.215000 0.7882 0.5412 0.2941
v 2.975000 1.635000 0.165000 0.7882 0.5412 0.2941
v 2.925000 1.670355 0.200355 0.7882 0.5412 0.2941
v 2.953867 1.663867 0.193868 0.7882 0.5412 0.2941
v 2.960355 1.635000 0.200355 0.7882 0.5412 0.2941
v 2.960355 1.670355 0.165000 0.7882 0.5412 0.2941
v 2.925000 1.555000 -0.135000 0.7882 0.5412 0.2941
v 2.925000 1.605000 -0.185000 0.7882 0.5412 0.2941
v 2.975000 1.605000 -0.135000 0.7882 0.5412 0.2941
v 2.925000 1.569645 -0.170355 0.7882 0.5412 0.2941
v 2.953867 1.576133 -0.163868 0.7882 0.5412 0.2941
v 2.960355 1.605000 -0.170355 0.7882 0.5412 0.2941
v 2.960355 1.569645 -0.135000 0.7882 0.5412 0.2941
v 2.925000 1.685000 -0.135000 0.7882 0.5412 0.2941
v 2.975000 1.635000 -0.135000 0.7882 0.5412 0.2941
v 2.925000 1.635000 -0.185000 0.7882 0.5412 0.2941
v 2.960355 1.670355 -0.135000 0.7882 0.5412 0.2941
v 2.953867 1.663867 -0.163868 0.7882 0.5412 0.2941
v 2.960355 1.635000 -0.170355 0.7882 0.5412 0.2941
v 2.925000 1.670355 -0.170355 0.7882 0.5412 0.2941
v -2.925000 1.555000 -0.275000 1.0000 0.7804 0.6197
v -2.925000 1.605000 -0.225000 1.0000 0.7804 0.6197
v -2.975000 1.605000 -0.275000 1.0000 0.7804 0.6197
v -2.925000 1.569645 -0.239645 1.0000 0.7804 0.6197
v -2.953867 1.576133 -0.246132 1.0000 0.7804 0.6197
v -2.960355 1.605000 -0.239645 1.0000 0.7804 0.6197
v -2.960355 1.569645 -0.275000 1.0000 0.7804 0.6197
v -2.925000 1.635000 -0.225000 1.0000 0.7804 0.6197
v -2.925000 1.685000 -0.275000 1.0000 0.7804 0.6197
v -2.975000 1.635000 -0.275000 1.0000 0.7804 0.6197
v -2.925000 1.670355 -0.239645 1.0000 0.7804 0.6197
v -2.953867 1.663867 -0.246132 1.0000 0.7804 0.6197
v -2.960355 1.670355 -0.275000 1.0000 0.7804 0.6197
v -2.960355 1.635000 -0.239645 1.0000 0.7804 0.6197
v -2.925000 1.555000 -0.575000 1.0000 0.7804 0.6197
v -2.975000 1.605000 -0.575000 1.0000 0.7804 0.6197
v -2.925000 1.605000 -0.625000 1.0000 0.7804 0.6197
v -2.960355 1.569645 -0.575000 1.0000 0.7804 0.6197
v -2.953867 1.576133 -0.603868 1.0000 0.7804 0.6197
v -2.960355 1.605000 -0.610355 1.0000 0.7804 0.6197
v -2.925000 1.569645 -0.610355 1.0000 0.7804 0.6197
v -2.925000 1.685000 -0.575000 1.0000 0.7804 0.6197
v -2.925000 1.635000 -0.625000 1.0000 0.7804 0.6197
v -2.975000 1.635000 -0.575000 1.0000 0.7804 0.6197
v -2.925000 1.670355 -0.610355 1.0000 0.7804 0.6197
v -2.953867 1.663867 -0.603868 1.0000 0.7804 0.6197
v -2.960355 1.635000 -0.610355 1.0000 0.7804 0.6197
v -2.960355 1.670355 -0.575000 1.0000 0.7804 0.6197
v 2.925000 1.555000 -0.275000 1.0000 0.7804 0.6197
v 2.975000 1.605000 -0.275000 1.0000 0.7804 0.6197
v 2.925000 1.605000 -0.225000 1.0000 0.7804 0.6197
v 2.960355 1.569645 -0.275000 1.0000 0.7804 0.6197
v 2.953867 1.576133 -0.246132 1.0000 0.7804 0.6197
v 2.960355 1.605000 -0.239645 1.0000 0.7804 0.6197
v 2.925000 1.569645 -0.239645 1.0000 0.7804 0.6197
v 2.925000 1.685000 -0.275000 1.0000 0.7804 0.6197
v 2.925000 1.635000 -0.225000 1.0000 0.7804 0.6197
v 2.975000 1.635000 -0.275000 1.0000 0.7804 0.6197
v 2.925000 1.670355 -0.239645 1.0000 0.7804 0.6197
v 2.953867 1.663867 -0.246132 1.0000 0.7804 0.6197
v 2.960355 1.635000 -0.239645 1.0000 0.7804 0.6197
v 2.960355 1.670355 -0.275000 1.0000 0.7804 0.6197
v 2.925000 1.555000 -0.575000 1.0000 0.7804 0.6197
v 2.925000 1.605000 -0.625000 1.0000 0.7804 0.6197
v 2.975000 1.605000 -0.575000 1.0000 0.7804 0.6197
v 2.925000 1.569645 -0.610355 1.0000 0.7804 0.6197
v 2.953867 1.576133 -0.603868 1.0000 0.7804 0.6197
v 2.960355 1.605000 -0.610355 1.0000 0.7804 0.6197
v 2.960355 1.569645 -0.575000 1.0000 0.7804 0.6197
v 2.925000 1.685000 -0.575000 1.0000 0.7804 0.6197
v 2.975000 1.635000 -0.575000 1.0000 0.7804 0.6197
v 2.925000 1.635000 -0.625000 1.0000 0.7804 0.6197
v 2.960355 1.670355 -0.575000 1.0000 0.7804 0.6197
v 2.953867 1.663867 -0.603868 1.0000 0.7804 0.6197
v 2.960355 1.635000 -0.610355 1.0000 0.7804 0.6197
v 2.925000 1.670355 -0.610355 1.0000 0.7804 0.6197
v -2.935000 1.874535 -0.907366 0.7882 0.5412 0.2941
v -2.935000 1.919713 -0.873322 0.7882 0.5412 0.2941
v -2.975000 1.914146 -0.912933 0.7882 0.5412 0.2941
v -2.935000 1.890073 -0.880987 0.7882 0.5412 0.2941
v -2.958094 1.894491 -0.886849 0.7882 0.5412 0.2941
v -2.963284 1.918082 -0.884924 0.7882 0.5412 0.2941
v -2.963284 1.886137 -0.908996 0.7882 0.5412 0.2941
v -2.935000 2.196988 -0.912290 0.7882 0.5412 0.2941
v -2.935000 2.231032 -0.957468 0.7882 0.5412 0.2941
v -2.975000 2.191421 -0.951901 0.7882 0.5412 0.2941
v -2.935000 2.223366 -0.927828 0.7882 0.5412 0.2941
v -2.958094 2.217504 -0.932246 0.7882 0.5412 0.2941
v -2.963284 2.219430 -0.955837 0.7882 0.5412 0.2941
v -2.963284 2.195357 -0.923892 0.7882 0.5412 0.2941
v -2.935000 1.868968 -0.946976 0.7882 0.5412 0.2941
v -2.975000 1.908579 -0.952543 0.7882 0.5412 0.2941
v -2.935000 1.903012 -0.992154 0.7882 0.5412 0.2941
v -2.963284 1.880570 -0.948607 0.7882 0.5412 0.2941
v -2.958094 1.882496 -0.972199 0.7882 0.5412 0.2941
v -2.963284 1.904643 -0.980552 0.7882 0.5412 0.2941
v -2.935000 1.876634 -0.976616 0.7882 0.5412 0.2941
v -2.935000 2.225465 -0.997079 0.7882 0.5412 0.2941
v -2.935000 2.180287 -1.031123 0.7882 0.5412 0.2941
v -2.975000 2.185854 -0.991512 0.7882 0.5412 0.2941
v -2.935000 2.209927 -1.023457 0.7882 0.5412 0.2941
v -2.958094 2.205509 -1.017595 0.7882 0.5412 0.2941
v -2.963284 2.181918 -1.019521 0.7882 0.5412 0.2941
v -2.963284 2.213863 -0.995448 0.7882 0.5412 0.2941
v 2.935000 1.874535 -0.907366 0.7882 0.5412 0.2941
v 2.975000 1.914146 -0.912933 0.7882 0.5412 0.2941
v 2.935000 1.919713 -0.873322 0.7882 0.5412 0.2941
v 2.963284 1.886137 -0.908996 0.7882 0.5412 0.2941
v 2.958094 1.894491 -0.886849 0.7882 0.5412 0.2941
v 2.963284 1.918082 -0.884924 0.7882 0.5412 0.2941
v 2.935000 1.890073 -0.880987 0.7882 0.5412 0.2941
v 2.935000 2.231032 -0.957468 0.7882 0.5412 0.2941
v 2.935000 2.196988 -0.912290 0.7882 0.5412 0.2941
v 2.975000 2.191421 -0.951901 0.7882 0.5412 0.2941
v 2.935000 2.223366 -0.927828 0.7882 0.5412 0.2941
v 2.958094 2.217504 -0.932246 0.7882 0.5412 0.2941
v 2.963284 2.195357 -0.923892 0.7882 0.5412 0.2941
v 2.963284 2.219430 -0.955837 0.7882 0.5412 0.2941
v 2.935000 1.868968 -0.946976 0.7882 0.5412 0.2941
v 2.935000 1.903012 -0.992154 0.7882 0.5412 0.2941
v 2.975000 1.908579 -0.952543 0.7882 0.5412 0.2941
v 2.935000 1.876634 -0.976616 0.7882 0.5412 0.2941
v 2.958094 1.882496 -0.972199 0.7882 0.5412 0.2941
v 2.963284 1.904643 -0.980552 0.7882 0.5412 0.2941
v 2.963284 1.880570 -0.948607 0.7882 0.5412 0.2941
v 2.935000 2.225465 -0.997079 0.7882 0.5412 0.2941
v 2.975000 2.185854 -0.991512 0.7882 0.5412 0.2941
v 2.935000 2.180287 -1.031123 0.7882 0.5412 0.2941
v 2.963284 2.213863 -0.995448 0.7882 0.5412 0.2941
v 2.958094 2.205509 -1.017595 0.7882 0.5412 0.2941
v 2.963284 2.181918 -1.019521 0.7882 0.5412 0.2941
v 2.935000 2.209927 -1.023457 0.7882 0.5412 0.2941
v -2.935000 2.324535 -0.962366 1.0000 0.7804 0.6197
v -2.935000 2.369713 -0.928322 1.0000 0.7804 0.6197
v -2.975000 2.364146 -0.967933 1.0000 0.7804 0.6197
v -2.935000 2.340073 -0.935987 1.0000 0.7804 0.6197
v -2.958094 2.344491 -0.941849 1.0000 0.7804 0.6197
v -2.963284 2.368082 -0.939924 1.0000 0.7804 0.6197
v -2.963284 2.336137 -0.963996 1.0000 0.7804 0.6197
v -2.935000 2.646988 -0.967290 1.0000 0.7804 0.6197
v -2.935000 2.681032 -1.012468 1.0000 0.7804 0.6197
v -2.975000 2.641421 -1.006901 1.0000 0.7804 0.6197
v -2.935000 2.673367 -0.982828 1.0000 0.7804 0.6197
v -2.958094 2.667504 -0.987246 1.0000 0.7804 0.6197
v -2.963284 2.669430 -1.010837 1.0000 0.7804 0.6197
v -2.963284 2.645357 -0.978892 1.0000 0.7804 0.6197
v -2.935000 2.318968 -1.001976 1.0000 0.7804 0.6197
v -2.975000 2.358579 -1.007543 1.0000 0.7804 0.6197
v -2.935000 2.353012 -1.047154 1.0000 0.7804 0.6197
v -2.963284 2.330570 -1.003607 1.0000 0.7804 0.6197
v -2.958094 2.332496 -1.027198 1.0000 0.7804 0.6197
v -2.963284 2.354643 -1.035552 1.0000 0.7804 0.6197
v -2.935000 2.326633 -1.031616 1.0000 0.7804 0.6197
v -2.935000 2.675465 -1.052079 1.0000 0.7804 0.6197
v -2.935000 2.630287 -1.086123 1.0000 0.7804 0.6197
v -2.975000 2.635854 -1.046512 1.0000 0.7804 0.6197
v -2.935000 2.659927 -1.078457 1.0000 0.7804 0.6197
v -2.958094 2.655509 -1.072595 1.0000 0.7804 0.6197
v -2.963284 2.631918 -1.074521 1.0000 0.7804 0.6197
v -2.963284 2.663863 -1.050448 1.0000 0.7804 0.6197
v 2.935000 2.324535 -0.962366 1.0000 0.7804 0.6197
v 2.975000 2.364146 -0.967933 1.0000 0.7804 0.6197
v 2.935000 2.369713 -0.928322 1.0000 0.7804 0.6197
v 2.963284 2.336137 -0.963996 1.0000 0.7804 0.6197
v 2.958094 2.344491 -0.941849 1.0000 0.7804 0.6197
v 2.963284 2.368082 -0.939924 1.0000 0.7804 0.6197
v 2.935000 2.340073 -0.935987 1.0000 0.7804 0.6197
v 2.935000 2.681032 -1.012468 1.0000 0.7804 0.6197
v 2.935000 2.646988 -0.967290 1.0000 0.7804 0.6197
v 2.975000 2.641421 -1.006901 1.0000 0.7804 0.6197
v 2.935000 2.673367 -0.982828 1.0000 0.7804 0.6197
v 2.958094 2.667504 -0.987246 1.0000 0.7804 0.6197
v 2.963284 2.645357 -0.978892 1.0000 0.7804 0.6197
v 2.963284 2.669430 -1.010837 1.0000 0.7804 0.6197
v 2.935000 2.318968 -1.001976 1.0000 0.7804 0.6197
v 2.935000 2.353012 -1.047154 1.0000 0.7804 0.6197
v 2.975000 2.358579 -1.007543 1.0000 0.7804 0.6197
v 2.935000 2.326633 -1.031616 1.0000 0.7804 0.6197
v 2.958094 2.332496 -1.027198 1.0000 0.7804 0.6197
v 2.963284 2.354643 -1.035552 1.0000 0.7804 0.6197
v 2.963284 2.330570 -1.003607 1.0000 0.7804 0.6197
v 2.935000 2.675465 -1.052079 1.0000 0.7804 0.6197
v 2.975000 2.635854 -1.046512 1.0000 0.7804 0.6197
v 2.935000 2.630287 -1.086123 1.0000 0.7804 0.6197
v 2.963284 2.663863 -1.050448 1.0000 0.7804 0.6197
v 2.958094 2.655509 -1.072595 1.0000 0.7804 0.6197
v 2.963284 2.631918 -1.074521 1.0000 0.7804 0.6197
v 2.935000 2.659927 -1.078457 1.0000 0.7804 0.6197
v -2.935000 2.774535 -1.017366 0.7882 0.5412 0.2941
v -2.935000 2.819713 -0.983322 0.7882 0.5412 0.2941
v -2.975000 2.814146 -1.022933 0.7882 0.5412 0.2941
v -2.935000 2.790073 -0.990987 0.7882 0.5412 0.2941
v -2.958094 2.794491 -0.996849 0.7882 0.5412 0.2941
v -2.963284 2.818082 -0.994924 0.7882 0.5412 0.2941
v -2.963284 2.786137 -1.018996 0.7882 0.5412 0.2941
v -2.935000 3.096988 -1.022290 0.7882 0.5412 0.2941
v -2.935000 3.131032 -1.067468 0.7882 0.5412 0.2941
v -2.975000 3.091421 -1.061901 0.7882 0.5412 0.2941
v -2.935000 3.123366 -1.037829 0.7882 0.5412 0.2941
v -2.958094 3.117504 -1.042246 0.7882 0.5412 0.2941
v -2.963284 3.119430 -1.065838 0.7882 0.5412 0.2941
v -2.963284 3.095357 -1.033892 0.7882 0.5412 0.2941
v -2.935000 2.768968 -1.056976 0.7882 0.5412 0.2941
v -2.975000 2.808579 -1.062543 0.7882 0.5412 0.2941
v -2.935000 2.803012 -1.102154 0.7882 0.5412 0.2941
v -2.963284 2.780570 -1.058607 0.7882 0.5412 0.2941
v -2.958094 2.782496 -1.082199 0.7882 0.5412 0.2941
v -2.963284 2.804643 -1.090552 0.7882 0.5412 0.2941
v -2.935000 2.776634 -1.086616 0.7882 0.5412 0.2941
v -2.935000 3.125465 -1.107079 0.7882 0.5412 0.2941
v -2.935000 3.080287 -1.141123 0.7882 0.5412 0.2941
v -2.975000 3.085854 -1.101512 0.7882 0.5412 0.2941
v -2.935000 3.109927 -1.133457 0.7882 0.5412 0.2941
v -2.958094 3.105509 -1.127595 0.7882 0.5412 0.2941
v -2.963284 3.081918 -1.129521 0.7882 0.5412 0.2941
v -2.963284 3.113863 -1.105448 0.7882 0.5412 0.2941
v 2.935000 2.774535 -1.017366 0.7882 0.5412 0.2941
v 2.975000 2.814146 -1.022933 0.7882 0.5412 0.2941
v 2.935000 2.819713 -0.983322 0.7882 0.5412 0.2941
v 2.963284 2.786137 -1.018996 0.7882 0.5412 0.2941
v 2.958094 2.794491 -0.996849 0.7882 0.5412 0.2941
v 2.963284 2.818082 -0.994924 0.7882 0.5412 0.2941
v 2.935000 2.790073 -0.990987 0.7882 0.5412 0.2941
v 2.935000 3.131032 -1.067468 0.7882 0.5412 0.2941
v 2.935000 3.096988 -1.022290 0.7882 0.5412 0.2941
v 2.975000 3.091421 -1.061901 0.7882 0.5412 0.2941
v 2.935000 3.123366 -1.037829 0.7882 0.5412 0.2941
v 2.958094 3.117504 -1.042246 0.7882 0.5412 0.2941
v 2.963284 3.095357 -1.033892 0.7882 0.5412 0.2941
v 2.963284 3.119430 -1.065838 0.7882 0.5412 0.2941
v 2.935000 2.768968 -1.056976 0.7882 0.5412 0.2941
v 2.935000 2.803012 -1.102154 0.7882 0.5412 0.2941
v 2.975000 2.808579 -1.062543 0.7882 0.5412 0.2941
v 2.935000 2.776634 -1.086616 0.7882 0.5412 0.2941
v 2.958094 2.782496 -1.082199 0.7882 0.5412 0.2941
v 2.963284 2.804643 -1.090552 0.7882 0.5412 0.2941
v 2.963284 2.780570 -1.058607 0.7882 0.5412 0.2941
v 2.935000 3.125465 -1.107079 0.7882 0.5412 0.2941
v 2.975000 3.085854 -1.101512 0.7882 0.5412 0.2941
v 2.935000 3.080287 -1.141123 0.7882 0.5412 0.2941
v 2.963284 3.113863 -1.105448 0.7882 0.5412 0.2941
v 2.958094 3.105509 -1.127595 0.7882 0.5412 0.2941
v 2.963284 3.081918 -1.129521 0.7882 0.5412 0.2941
v 2.935000 3.109927 -1.133457 0.7882 0.5412 0.2941
v -2.965000 3.244049 -1.107102 0.8470 0.2275 0.1804
v -2.965000 3.311815 -1.056036 0.8470 0.2275 0.1804
v -3.025000 3.303465 -1.115453 0.8470 0.2275 0.1804
v -2.965000 3.267356 -1.067534 0.8470 0.2275 0.1804
v -2.999641 3.273982 -1.076328 0.8470 0.2275 0.1804
v -3.007426 3.309369 -1.073439 0.8470 0.2275 0.1804
v -3.007426 3.261451 -1.109548 0.8470 0.2275 0.1804
v -2.965000 3.450453 -1.075521 0.8470 0.2275 0.1804
v -2.965000 3.501518 -1.143287 0.8470 0.2275 0.1804
v -3.025000 3.442102 -1.134937 0.8470 0.2275 0.1804
v -2.965000 3.490020 -1.098828 0.8470 0.2275 0.1804
v -2.999641 3.481227 -1.105454 0.8470 0.2275 0.1804
v -3.007426 3.484116 -1.140841 0.8470 0.2275 0.1804
v -3.007426 3.448007 -1.092923 0.8470 0.2275 0.1804
v -2.965000 3.238482 -1.146713 0.8470 0.2275 0.1804
v -3.025000 3.297898 -1.155063 0.8470 0.2275 0.1804
v -2.965000 3.289547 -1.214479 0.8470 0.2275 0.1804
v -3.007426 3.255884 -1.149159 0.8470 0.2275 0.1804
v -2.999641 3.258773 -1.184546 0.8470 0.2275 0.1804
v -3.007426 3.291993 -1.197077 0.8470 0.2275 0.1804
v -2.965000 3.249979 -1.191172 0.8470 0.2275 0.1804
v -2.965000 3.495951 -1.182898 0.8470 0.2275 0.1804
v -2.965000 3.428185 -1.233963 0.8470 0.2275 0.1804
v -3.025000 3.436535 -1.174547 0.8470 0.2275 0.1804
v -2.965000 3.472644 -1.222466 0.8470 0.2275 0.1804
v -2.999641 3.466018 -1.213672 0.8470 0.2275 0.1804
v -3.007426 3.430631 -1.216561 0.8470 0.2275 0.1804
v -3.007426 3.478549 -1.180452 0.8470 0.2275 0.1804
v 2.965000 3.244049 -1.107102 0.8470 0.2275 0.1804
v 3.025000 3.303465 -1.115453 0.8470 0.2275 0.1804
v 2.965000 3.311815 -1.056036 0.8470 0.2275 0.1804
v 3.007426 3.261451 -1.109548 0.8470 0.2275 0.1804
v 2.999641 3.273982 -1.076328 0.8470 0.2275 0.1804
v 3.007426 3.309369 -1.073439 0.8470 0.2275 0.1804
v 2.965000 3.267356 -1.067534 0.8470 0.2275 0.1804
v 2.965000 3.501518 -1.143287 0.8470 0.2275 0.1804
v 2.965000 3.450453 -1.075521 0.8470 0.2275 0.1804
v 3.025000 3.442102 -1.134937 0.8470 0.2275 0.1804
v 2.965000 3.490020 -1.098828 0.8470 0.2275 0.1804
v 2.999641 3.481227 -1.105454 0.8470 0.2275 0.1804
v 3.007426 3.448007 -1.092923 0.8470 0.2275 0.1804
v 3.007426 3.484116 -1.140841 0.8470 0.2275 0.1804
v 2.965000 3.238482 -1.146713 0.8470 0.2275 0.1804
v 2.965000 3.289547 -1.214479 0.8470 0.2275 0.1804
v 3.025000 3.297898 -1.155063 0.8470 0.2275 0.1804
v 2.965000 3.249979 -1.191172 0.8470 0.2275 0.1804
v 2.999641 3.258773 -1.184546 0.8470 0.2275 0.1804
v 3.007426 3.291993 -1.197077 0.8470 0.2275 0.1804
v 3.007426 3.255884 -1.149159 0.8470 0.2275 0.1804
v 2.965000 3.495951 -1.182898 0.8470 0.2275 0.1804
v 3.025000 3.436535 -1.174547 0.8470 0.2275 0.1804
v 2.965000 3.428185 -1.233963 0.8470 0.2275 0.1804
v 3.007426 3.478549 -1.180452 0.8470 0.2275 0.1804
v 2.999641 3.466018 -1.213672 0.8470 0.2275 0.1804
v 3.007426 3.430631 -1.216561 0.8470 0.2275 0.1804
v 2.965000 3.472644 -1.222466 0.8470 0.2275 0.1804
v -0.480000 2.381864 -0.863348 0.9098 0.6980 0.2275
v -0.480000 2.404453 -0.846326 0.9098 0.6980 0.2275
v -0.500000 2.401669 -0.866131 0.9098 0.6980 0.2275
v -0.480000 2.602506 -0.874161 0.9098 0.6980 0.2275
v -0.480000 2.619528 -0.896749 0.9098 0.6980 0.2275
v -0.500000 2.599723 -0.893966 0.9098 0.6980 0.2275
v -0.480000 2.380472 -0.873251 0.9098 0.6980 0.2275
v -0.500000 2.400277 -0.876034 0.9098 0.6980 0.2275
v -0.480000 2.397494 -0.895839 0.9098 0.6980 0.2275
v -0.480000 2.618136 -0.906652 0.9098 0.6980 0.2275
v -0.480000 2.595547 -0.923674 0.9098 0.6980 0.2275
v -0.500000 2.598331 -0.903869 0.9098 0.6980 0.2275
v 0.480000 2.381864 -0.863348 0.9098 0.6980 0.2275
v 0.500000 2.401669 -0.866131 0.9098 0.6980 0.2275
v 0.480000 2.404453 -0.846326 0.9098 0.6980 0.2275
v 0.480000 2.619528 -0.896749 0.9098 0.6980 0.2275
v 0.480000 2.602506 -0.874161 0.9098 0.6980 0.2275
v 0.500000 2.599723 -0.893966 0.9098 0.6980 0.2275
v 0.480000 2.380472 -0.873251 0.9098 0.6980 0.2275
v 0.480000 2.397494 -0.895839 0.9098 0.6980 0.2275
v 0.500000 2.400277 -0.876034 0.9098 0.6980 0.2275
v 0.480000 2.618136 -0.906652 0.9098 0.6980 0.2275
v 0.500000 2.598331 -0.903869 0.9098 0.6980 0.2275
v 0.480000 2.595547 -0.923674 0.9098 0.6980 0.2275
vn -0.0000 0.9994 -0.0357
vn -0.0000 -0.9994 0.0357
vn -0.9239 0.0137 0.3824
vn -0.3827 0.0330 0.9233
vn 0.3827 0.0330 0.9233
vn 0.9239 0.0137 0.3824
vn 0.9239 -0.0137 -0.3824
vn 0.3827 -0.0330 -0.9233
vn -0.3827 -0.0330 -0.9233
vn -0.9239 -0.0137 -0.3824
vn -0.0000 0.9874 -0.1580
vn -0.0000 -0.9975 -0.0712
vn 0.9237 0.0273 -0.3822
vn 0.9241 -0.0031 -0.3822
vn 0.3822 0.0660 -0.9217
vn 0.3832 -0.0074 -0.9237
vn -0.3822 0.0660 -0.9217
vn -0.3832 -0.0074 -0.9237
vn -0.9237 0.0273 -0.3822
vn -0.9241 -0.0031 -0.3822
vn -0.9237 -0.0273 0.3822
vn -0.9241 0.0031 0.3822
vn -0.9241 0.0030 0.3822
vn -0.3822 -0.0656 0.9218
vn -0.3831 0.0073 0.9237
vn 0.3822 -0.0656 0.9218
vn 0.3831 0.0073 0.9237
vn 0.9237 -0.0273 0.3822
vn 0.9241 0.0030 0.3822
vn 0.9241 0.0031 0.3822
vn 0.9238 -0.0470 -0.3799
vn 0.3825 -0.1135 -0.9169
vn -0.3825 -0.1135 -0.9169
vn -0.9238 -0.0470 -0.3799
vn -0.9238 0.0469 0.3799
vn -0.3825 0.1132 0.9170
vn 0.3825 0.1132 0.9170
vn 0.9238 0.0469 0.3799
vn 0.9238 -0.0605 -0.3780
vn 0.3826 -0.1460 -0.9123
vn -0.3826 -0.1460 -0.9123
vn -0.9238 -0.0605 -0.3780
vn -0.9238 0.0605 0.3780
vn -0.3826 0.1459 0.9123
vn 0.3826 0.1459 0.9123
vn 0.9238 0.0605 0.3780
vn -0.0000 -0.0000 -1.0000
vn -0.0000 -0.0000 1.0000
vn -0.8660 0.5000 -0.0000
vn -0.0000 1.0000 -0.0000
vn 0.8660 0.5000 -0.0000
vn 0.8660 -0.5000 -0.0000
vn -0.0000 -1.0000 -0.0000
vn -0.8660 -0.5000 -0.0000
vn -0.0000 0.0382 -0.9993
vn -0.0000 -0.9806 -0.1961
vn 0.8575 0.1031 -0.5041
vn 0.8677 -0.0939 -0.4881
vn 0.8677 -0.0950 -0.4879
vn -0.0000 0.2050 -0.9788
vn -0.8575 0.1031 -0.5041
vn -0.8677 -0.0950 -0.4879
vn -0.8677 -0.0939 -0.4881
vn -0.8579 -0.0986 0.5043
vn -0.8682 0.0990 0.4863
vn -0.8681 0.1002 0.4862
vn -0.0000 -0.1880 0.9822
vn 0.8579 -0.0986 0.5043
vn 0.8681 0.1002 0.4862
vn 0.8682 0.0990 0.4863
vn 0.8751 -0.4181 -0.2436
vn 0.8751 -0.4184 -0.2430
vn -0.0000 -0.5305 -0.8477
vn -0.8751 -0.4184 -0.2430
vn -0.8751 -0.4181 -0.2436
vn -0.8744 0.4204 0.2424
vn -0.8744 0.4206 0.2420
vn -0.0000 0.5532 0.8331
vn 0.8744 0.4206 0.2420
vn 0.8744 0.4204 0.2424
vn 0.8529 -0.5217 -0.0187
vn -0.0000 -0.9994 -0.0334
vn -0.8529 -0.5217 -0.0187
vn -0.8532 0.5211 0.0212
vn -0.0000 0.9991 0.0429
vn 0.8532 0.5211 0.0212
vn -0.0000 -0.8438 -0.5367
vn -0.0000 -0.4791 -0.8778
vn 0.5159 -0.4791 -0.7101
vn 0.3155 -0.8438 -0.4342
vn -0.0000 0.4791 -0.8778
vn 0.5159 0.4791 -0.7101
vn 0.5878 -0.0000 -0.8090
vn -0.0000 0.8438 -0.5367
vn 0.3155 0.8438 -0.4342
vn 0.8348 -0.4791 -0.2712
vn 0.5104 -0.8438 -0.1659
vn 0.8348 0.4791 -0.2712
vn 0.9511 -0.0000 -0.3090
vn 0.5104 0.8438 -0.1659
vn 0.8348 0.4791 0.2712
vn 0.9511 -0.0000 0.3090
vn 0.5104 0.8438 0.1659
vn 0.5104 -0.8438 0.1659
vn 0.8348 -0.4791 0.2712
vn 0.3155 0.8438 0.4342
vn 0.3155 -0.8438 0.4342
vn 0.5878 -0.0000 0.8090
vn 0.5159 -0.4791 0.7101
vn 0.5159 0.4791 0.7101
vn -0.0000 -0.8438 0.5367
vn -0.0000 -0.4791 0.8778
vn -0.0000 0.8438 0.5367
vn -0.0000 0.4791 0.8778
vn -0.3155 -0.8438 0.4342
vn -0.5878 -0.0000 0.8090
vn -0.5159 -0.4791 0.7101
vn -0.3155 0.8438 0.4342
vn -0.5159 0.4791 0.7101
vn -0.5104 -0.8438 0.1659
vn -0.9511 -0.0000 0.3090
vn -0.8348 -0.4791 0.2712
vn -0.5104 0.8438 0.1659
vn -0.8348 0.4791 0.2712
vn -0.9511 -0.0000 -0.3090
vn -0.8348 -0.4791 -0.2712
vn -0.5104 0.8438 -0.1659
vn -0.8348 0.4791 -0.2712
vn -0.5104 -0.8438 -0.1659
vn -0.3155 0.8438 -0.4342
vn -0.5159 0.4791 -0.7101
vn -0.5159 -0.4791 -0.7101
vn -0.3155 -0.8438 -0.4342
vn -0.5878 -0.0000 -0.8090
vn -0.4606 -0.7588 0.4606
vn -0.4606 -0.4606 0.7588
vn -0.7588 -0.4606 0.4606
vn -0.4606 0.4606 0.7588
vn -0.4606 0.7588 0.4606
vn -0.7588 0.4606 0.4606
vn -0.4606 -0.7588 -0.4606
vn -0.7588 -0.4606 -0.4606
vn -0.4606 -0.4606 -0.7588
vn -0.4606 0.7588 -0.4606
vn -0.4606 0.4606 -0.7588
vn -0.7588 0.4606 -0.4606
vn 0.4606 -0.7588 0.4606
vn 0.7588 -0.4606 0.4606
vn 0.4606 -0.4606 0.7588
vn 0.4606 0.7588 0.4606
vn 0.4606 0.4606 0.7588
vn 0.7588 0.4606 0.4606
vn 0.4606 -0.7588 -0.4606
vn 0.4606 -0.4606 -0.7588
vn 0.7588 -0.4606 -0.4606
vn 0.4606 0.7588 -0.4606
vn 0.7588 0.4606 -0.4606
vn 0.4606 0.4606 -0.7588
vn -1.0000 -0.0000 -0.0000
vn 1.0000 -0.0000 -0.0000
vn -0.1794 -0.9673 0.1794
vn -0.1585 -0.9194 0.3600
vn -0.3251 -0.8881 0.3251
vn -0.3600 -0.9194 0.1585
vn -0.1794 -0.1794 0.9673
vn -0.3600 -0.1585 0.9194
vn -0.3251 -0.3251 0.8881
vn -0.1585 -0.3600 0.9194
vn -0.9673 -0.1794 0.1794
vn -0.9194 -0.3600 0.1585
vn -0.8881 -0.3251 0.3251
vn -0.9194 -0.1585 0.3600
vn -0.1794 0.1794 0.9673
vn -0.1585 0.3600 0.9194
vn -0.3251 0.3251 0.8881
vn -0.3600 0.1585 0.9194
vn -0.1794 0.9673 0.1794
vn -0.3600 0.9194 0.1585
vn -0.3251 0.8881 0.3251
vn -0.1585 0.9194 0.3600
vn -0.9673 0.1794 0.1794
vn -0.9194 0.1585 0.3600
vn -0.8881 0.3251 0.3251
vn -0.9194 0.3600 0.1585
vn -0.1794 -0.9673 -0.1794
vn -0.3600 -0.9194 -0.1585
vn -0.3251 -0.8881 -0.3251
vn -0.1585 -0.9194 -0.3600
vn -0.9673 -0.1794 -0.1794
vn -0.9194 -0.1585 -0.3600
vn -0.8881 -0.3251 -0.3251
vn -0.9194 -0.3600 -0.1585
vn -0.1794 -0.1794 -0.9673
vn -0.1585 -0.3600 -0.9194
vn -0.3251 -0.3251 -0.8881
vn -0.3600 -0.1585 -0.9194
vn -0.1794 0.9673 -0.1794
vn -0.1585 0.9194 -0.3600
vn -0.3251 0.8881 -0.3251
vn -0.3600 0.9194 -0.1585
vn -0.1794 0.1794 -0.9673
vn -0.3600 0.1585 -0.9194
vn -0.3251 0.3251 -0.8881
vn -0.1585 0.3600 -0.9194
vn -0.9673 0.1794 -0.1794
vn -0.9194 0.3600 -0.1585
vn -0.8881 0.3251 -0.3251
vn -0.9194 0.1585 -0.3600
vn 0.1794 -0.9673 0.1794
vn 0.3600 -0.9194 0.1585
vn 0.3251 -0.8881 0.3251
vn 0.1585 -0.9194 0.3600
vn 0.9673 -0.1794 0.1794
vn 0.9194 -0.1585 0.3600
vn 0.8881 -0.3251 0.3251
vn 0.9194 -0.3600 0.1585
vn 0.1794 -0.1794 0.9673
vn 0.1585 -0.3600 0.9194
vn 0.3251 -0.3251 0.8881
vn 0.3600 -0.1585 0.9194
vn 0.1794 0.9673 0.1794
vn 0.1585 0.9194 0.3600
vn 0.3251 0.8881 0.3251
vn 0.3600 0.9194 0.1585
vn 0.1794 0.1794 0.9673
vn 0.3600 0.1585 0.9194
vn 0.3251 0.3251 0.8881
vn 0.1585 0.3600 0.9194
vn 0.9673 0.1794 0.1794
vn 0.9194 0.3600 0.1585
vn 0.8881 0.3251 0.3251
vn 0.9194 0.1585 0.3600
vn 0.1794 -0.9673 -0.1794
vn 0.1585 -0.9194 -0.3600
vn 0.3251 -0.8881 -0.3251
vn 0.3600 -0.9194 -0.1585
vn 0.1794 -0.1794 -0.9673
vn 0.3600 -0.1585 -0.9194
vn 0.3251 -0.3251 -0.8881
vn 0.1585 -0.3600 -0.9194
vn 0.9673 -0.1794 -0.1794
vn 0.9194 -0.3600 -0.1585
vn 0.8881 -0.3251 -0.3251
vn 0.9194 -0.1585 -0.3600
vn 0.1794 0.9673 -0.1794
vn 0.3600 0.9194 -0.1585
vn 0.3251 0.8881 -0.3251
vn 0.1585 0.9194 -0.3600
vn 0.9673 0.1794 -0.1794
vn 0.9194 0.1585 -0.3600
vn 0.8881 0.3251 -0.3251
vn 0.9194 0.3600 -0.1585
vn 0.1794 0.1794 -0.9673
vn 0.1585 0.3600 -0.9194
vn 0.3251 0.3251 -0.8881
vn 0.3600 0.1585 -0.9194
vn -0.1794 -0.9329 0.3122
vn -0.1585 -0.8604 0.4844
vn -0.3251 -0.8342 0.4455
vn -0.3600 -0.8884 0.2849
vn -0.1794 -0.0430 0.9828
vn -0.3600 -0.0290 0.9325
vn -0.3251 -0.1983 0.9247
vn -0.1585 -0.2285 0.9606
vn -0.9673 -0.1527 0.2026
vn -0.9194 -0.3344 0.2070
vn -0.8881 -0.2767 0.3671
vn -0.9194 -0.1068 0.3785
vn -0.1794 0.3122 0.9329
vn -0.1585 0.4844 0.8604
vn -0.3251 0.4455 0.8342
vn -0.3600 0.2849 0.8884
vn -0.1794 0.9828 0.0430
vn -0.3600 0.9325 0.0290
vn -0.3251 0.9247 0.1983
vn -0.1585 0.9606 0.2285
vn -0.9673 0.2026 0.1527
vn -0.9194 0.2070 0.3344
vn -0.8881 0.3671 0.2767
vn -0.9194 0.3785 0.1068
vn -0.1794 -0.9828 -0.0430
vn -0.3600 -0.9325 -0.0290
vn -0.3251 -0.9247 -0.1983
vn -0.1585 -0.9606 -0.2285
vn -0.9673 -0.2026 -0.1527
vn -0.9194 -0.2070 -0.3344
vn -0.8881 -0.3671 -0.2767
vn -0.9194 -0.3785 -0.1068
vn -0.1794 -0.3122 -0.9329
vn -0.1585 -0.4844 -0.8604
vn -0.3251 -0.4455 -0.8342
vn -0.3600 -0.2849 -0.8884
vn -0.1794 0.9329 -0.3122
vn -0.1585 0.8604 -0.4844
vn -0.3251 0.8342 -0.4455
vn -0.3600 0.8884 -0.2849
vn -0.1794 0.0430 -0.9828
vn -0.3600 0.0290 -0.9325
vn -0.3251 0.1983 -0.9247
vn -0.1585 0.2285 -0.9606
vn -0.9673 0.1527 -0.2026
vn -0.9194 0.3344 -0.2070
vn -0.8881 0.2767 -0.3671
vn -0.9194 0.1068 -0.3785
vn 0.1794 -0.9329 0.3122
vn 0.3600 -0.8884 0.2849
vn 0.3251 -0.8342 0.4455
vn 0.1585 -0.8604 0.4844
vn 0.9673 -0.1527 0.2026
vn 0.9194 -0.1068 0.3785
vn 0.8881 -0.2767 0.3671
vn 0.9194 -0.3344 0.2070
vn 0.1794 -0.0430 0.9828
vn 0.1585 -0.2285 0.9606
vn 0.3251 -0.1983 0.9247
vn 0.3600 -0.0290 0.9325
vn 0.1794 0.9828 0.0430
vn 0.1585 0.9606 0.2285
vn 0.3251 0.9247 0.1983
vn 0.3600 0.9325 0.0290
vn 0.1794 0.3122 0.9329
vn 0.3600 0.2849 0.8884
vn 0.3251 0.4455 0.8342
vn 0.1585 0.4844 0.8604
vn 0.9673 0.2026 0.1527
vn 0.9194 0.3785 0.1068
vn 0.8881 0.3671 0.2766
vn 0.9194 0.2070 0.3344
vn 0.1794 -0.9828 -0.0430
vn 0.1585 -0.9606 -0.2285
vn 0.3251 -0.9247 -0.1983
vn 0.3600 -0.9325 -0.0290
vn 0.1794 -0.3122 -0.9329
vn 0.3600 -0.2849 -0.8884
vn 0.3251 -0.4455 -0.8342
vn 0.1585 -0.4844 -0.8604
vn 0.9673 -0.2026 -0.1527
vn 0.9194 -0.3785 -0.1068
vn 0.8881 -0.3671 -0.2767
vn 0.9194 -0.2070 -0.3344
vn 0.1794 0.9329 -0.3122
vn 0.3600 0.8884 -0.2849
vn 0.3251 0.8342 -0.4455
vn 0.1585 0.8604 -0.4844
vn 0.9673 0.1527 -0.2026
vn 0.9194 0.1068 -0.3785
vn 0.8881 0.2767 -0.3671
vn 0.9194 0.3344 -0.2070
vn 0.1794 0.0430 -0.9828
vn 0.1585 0.2285 -0.9606
vn 0.3251 0.1983 -0.9247
vn 0.3600 0.0290 -0.9325
vn -0.9194 0.3785 0.1069
vn -0.9194 -0.3785 -0.1069
vn 0.8881 0.3671 0.2767
vn -0.4606 -0.6873 0.5617
vn -0.4606 -0.3505 0.8155
vn -0.7588 -0.3920 0.5202
vn -0.4606 0.5617 0.6873
vn -0.4606 0.8155 0.3505
vn -0.7588 0.5202 0.3920
vn -0.4606 -0.8155 -0.3505
vn -0.7588 -0.5202 -0.3920
vn -0.4606 -0.5617 -0.6873
vn -0.4606 0.6873 -0.5617
vn -0.4606 0.3505 -0.8155
vn -0.7588 0.3920 -0.5202
vn 0.4606 -0.6873 0.5617
vn 0.7588 -0.3920 0.5202
vn 0.4606 -0.3505 0.8155
vn 0.4606 0.8155 0.3505
vn 0.4606 0.5617 0.6873
vn 0.7588 0.5202 0.3920
vn 0.4606 -0.8155 -0.3505
vn 0.4606 -0.5617 -0.6873
vn 0.7588 -0.5202 -0.3920
vn 0.4606 0.6873 -0.5617
vn 0.7588 0.3920 -0.5202
vn 0.4606 0.3505 -0.8155
vn -0.0000 -0.9903 0.1392
vn -0.0000 0.1392 0.9903
vn -0.0000 0.9903 -0.1392
vn -0.0000 -0.1392 -0.9903
vt 0.857143 0.000000
vt 0.571429 0.000000
vt 0.714286 0.000000
vt 1.000000 0.000000
vt 0.428571 0.000000
vt 0.000000 0.000000
vt 0.285714 0.000000
vt 0.142857 0.000000
vt 0.000000 1.000000
vt 1.000000 1.000000
vt 1.000000 0.875000
vt 0.000000 0.875000
vt 0.000000 0.125000
vt 1.000000 0.125000
vt 0.000000 0.250000
vt 1.000000 0.250000
vt 0.000000 0.375000
vt 1.000000 0.375000
vt 0.000000 0.500000
vt 1.000000 0.500000
vt 0.000000 0.625000
vt 1.000000 0.625000
vt 0.000000 0.750000
vt 1.000000 0.750000
vt 0.333333 1.000000
vt 0.333333 0.875000
vt 0.333333 0.125000
vt 0.333333 0.000000
vt 0.333333 0.250000
vt 0.333333 0.375000
vt 0.333333 0.500000
vt 0.333333 0.625000
vt 0.333333 0.750000
vt 0.666667 1.000000
vt 0.666667 0.875000
vt 0.666667 0.125000
vt 0.666667 0.000000
vt 0.666667 0.250000
vt 0.666667 0.375000
vt 0.666667 0.500000
vt 0.666667 0.625000
vt 0.666667 0.750000
vt 0.600000 0.000000
vt 0.800000 0.000000
vt 0.400000 0.000000
vt 0.200000 0.000000
vt 1.000000 0.833333
vt 0.000000 0.833333
vt 0.000000 0.166667
vt 1.000000 0.166667
vt 0.000000 0.333333
vt 1.000000 0.333333
vt 0.000000 0.666667
vt 1.000000 0.666667
vt 0.333333 0.833333
vt 0.333333 0.166667
vt 0.333333 0.333333
vt 0.333333 0.666667
vt 0.666667 0.833333
vt 0.666667 0.166667
vt 0.666667 0.333333
vt 0.666667 0.666667
s 1
usemtl iron
f 7/1/1 5/2/1 6/3/1
f 8/4/1 5/2/1 7/1/1
f 8/4/1 4/5/1 5/2/1
f 1/6/1 4/5/1 8/4/1
f 1/6/1 3/7/1 4/5/1
f 2/8/1 3/7/1 1/6/1
f 13/2/2 15/1/2 14/3/2
f 13/2/2 16/4/2 15/1/2
f 12/5/2 16/4/2 13/2/2
f 11/7/2 16/4/2 12/5/2
f 11/7/2 9/6/2 16/4/2
f 10/8/2 9/6/2 11/7/2
f 9/9/3 1/10/3 8/11/3 16/12/3
f 10/13/4 2/14/4 1/4/4 9/6/4
f 11/15/5 3/16/5 2/14/5 10/13/5
f 12/17/6 4/18/6 3/16/6 11/15/6
f 13/19/7 5/20/7 4/18/7 12/17/7
f 14/21/8 6/22/8 5/20/8 13/19/8
f 15/23/9 7/24/9 6/22/9 14/21/9
f 16/12/10 8/11/10 7/24/10 15/23/10
f 19/7/11 17/6/11 18/8/11
f 20/5/11 17/6/11 19/7/11
f 20/5/11 24/4/11 17/6/11
f 21/2/11 24/4/11 20/5/11
f 21/2/11 23/1/11 24/4/11
f 22/3/11 23/1/11 21/2/11
f 25/6/12 27/7/12 26/8/12
f 32/4/12 27/7/12 25/6/12
f 32/4/12 28/5/12 27/7/12
f 32/4/12 29/2/12 28/5/12
f 31/1/12 29/2/12 32/4/12
f 30/3/12 29/2/12 31/1/12
f 25/9/13 33/25/14 40/26/14 32/12/13
f 26/13/15 34/27/16 33/28/16 25/6/15
f 27/15/17 35/29/18 34/27/18 26/13/17
f 28/17/19 36/30/20 35/29/20 27/15/19
f 29/19/21 37/31/22 36/30/23 28/17/21
f 30/21/24 38/32/25 37/31/25 29/19/24
f 31/23/26 39/33/27 38/32/27 30/21/26
f 32/12/28 40/26/29 39/33/30 31/23/28
f 33/25/14 41/34/31 48/35/31 40/26/14
f 34/27/16 42/36/32 41/37/32 33/28/16
f 35/29/18 43/38/33 42/36/33 34/27/18
f 36/30/20 44/39/34 43/38/34 35/29/20
f 37/31/22 45/40/35 44/39/35 36/30/23
f 38/32/25 46/41/36 45/40/36 37/31/25
f 39/33/27 47/42/37 46/41/37 38/32/27
f 40/26/29 48/35/38 47/42/38 39/33/30
f 41/34/31 17/10/39 24/11/39 48/35/31
f 42/36/32 18/14/40 17/4/40 41/37/32
f 43/38/33 19/16/41 18/14/41 42/36/33
f 44/39/34 20/18/42 19/16/42 43/38/34
f 45/40/35 21/20/43 20/18/43 44/39/35
f 46/41/36 22/22/44 21/20/44 45/40/36
f 47/42/37 23/24/45 22/22/45 46/41/37
f 48/35/38 24/11/46 23/24/46 47/42/38
f 54/4/47 52/43/47 53/44/47
f 54/4/47 51/45/47 52/43/47
f 49/6/47 51/45/47 54/4/47
f 49/6/47 50/46/47 51/45/47
f 58/43/48 60/4/48 59/44/48
f 57/45/48 60/4/48 58/43/48
f 56/46/48 60/4/48 57/45/48
f 56/46/48 55/6/48 60/4/48
f 55/9/49 49/10/49 54/47/49 60/48/49
f 56/49/50 50/50/50 49/4/50 55/6/50
f 57/51/51 51/52/51 50/50/51 56/49/51
f 58/19/52 52/20/52 51/52/52 57/51/52
f 59/53/53 53/54/53 52/20/53 58/19/53
f 60/48/54 54/47/54 53/54/54 59/53/54
f 63/45/55 61/6/55 62/46/55
f 63/45/55 66/4/55 61/6/55
f 64/43/55 66/4/55 63/45/55
f 64/43/55 65/44/55 66/4/55
f 57/4/56 68/46/56 67/6/56
f 57/4/56 60/45/56 68/46/56
f 70/44/56 60/45/56 57/4/56
f 70/44/56 69/43/56 60/45/56
f 67/9/57 71/25/58 76/55/59 57/48/57
f 68/49/60 72/56/60 71/28/60 67/6/60
f 60/51/61 73/57/62 72/56/63 68/49/61
f 69/19/64 74/31/65 73/57/66 60/51/64
f 70/53/67 75/58/67 74/31/67 69/19/67
f 57/48/68 76/55/69 75/58/70 70/53/68
f 71/25/58 77/34/71 82/59/72 76/55/59
f 72/56/73 78/60/73 77/37/73 71/28/73
f 73/57/62 79/61/74 78/60/75 72/56/63
f 74/31/65 80/40/76 79/61/77 73/57/66
f 75/58/78 81/62/78 80/40/78 74/31/78
f 76/55/69 82/59/79 81/62/80 75/58/70
f 77/34/71 61/10/81 66/47/81 82/59/72
f 78/60/82 62/50/82 61/4/82 77/37/82
f 79/61/74 63/52/83 62/50/83 78/60/75
f 80/40/76 64/20/84 63/52/84 79/61/77
f 81/62/85 65/54/85 64/20/85 80/40/85
f 82/59/79 66/47/86 65/54/86 81/62/80
f 134/6/87 133/6/88 88/6/89 89/6/90
f 132/6/47 131/6/91 86/6/92 87/6/93
f 130/6/94 83/6/50 85/6/95
f 84/6/53 134/6/87 89/6/90
f 133/6/88 132/6/47 87/6/93 88/6/89
f 131/6/91 130/6/94 85/6/95 86/6/92
f 89/6/90 88/6/89 93/6/96 94/6/97
f 87/6/93 86/6/92 91/6/98 92/6/99
f 85/6/95 83/6/50 90/6/100
f 84/6/53 89/6/90 94/6/97
f 88/6/89 87/6/93 92/6/99 93/6/96
f 86/6/92 85/6/95 90/6/100 91/6/98
f 92/6/99 91/6/98 96/6/101 97/6/102
f 90/6/100 83/6/50 95/6/103
f 84/6/53 94/6/97 99/6/104
f 93/6/96 92/6/99 97/6/102 98/6/105
f 91/6/98 90/6/100 95/6/103 96/6/101
f 94/6/97 93/6/96 98/6/105 99/6/104
f 95/6/103 83/6/50 100/6/106
f 84/6/53 99/6/104 104/6/107
f 98/6/105 97/6/102 102/6/108 103/6/109
f 96/6/101 95/6/103 100/6/106 101/6/110
f 99/6/104 98/6/105 103/6/109 104/6/107
f 97/6/102 96/6/101 101/6/110 102/6/108
f 84/6/53 104/6/107 109/6/111
f 103/6/109 102/6/108 107/6/48 108/6/112
f 101/6/110 100/6/106 105/6/113 106/6/114
f 104/6/107 103/6/109 108/6/112 109/6/111
f 102/6/108 101/6/110 106/6/114 107/6/48
f 100/6/106 83/6/50 105/6/113
f 84/6/53 109/6/111 114/6/115
f 108/6/112 107/6/48 112/6/116 113/6/117
f 106/6/114 105/6/113 110/6/118 111/6/119
f 109/6/111 108/6/112 113/6/117 114/6/115
f 107/6/48 106/6/114 111/6/119 112/6/116
f 105/6/113 83/6/50 110/6/118
f 84/6/53 114/6/115 119/6/120
f 113/6/117 112/6/116 117/6/121 118/6/122
f 111/6/119 110/6/118 115/6/123 116/6/124
f 114/6/115 113/6/117 118/6/122 119/6/120
f 112/6/116 111/6/119 116/6/124 117/6/121
f 110/6/118 83/6/50 115/6/123
f 118/6/122 117/6/121 122/6/125 123/6/126
f 116/6/124 115/6/123 120/6/127 121/6/128
f 119/6/120 118/6/122 123/6/126 124/6/129
f 117/6/121 116/6/124 121/6/128 122/6/125
f 115/6/123 83/6/50 120/6/127
f 84/6/53 119/6/120 124/6/129
f 121/6/128 120/6/127 125/6/130 126/6/131
f 124/6/129 123/6/126 128/6/132 129/6/133
f 122/6/125 121/6/128 126/6/131 127/6/134
f 120/6/127 83/6/50 125/6/130
f 84/6/53 124/6/129 129/6/133
f 123/6/126 122/6/125 127/6/134 128/6/132
f 129/6/133 128/6/132 133/6/88 134/6/87
f 127/6/134 126/6/131 131/6/91 132/6/47
f 125/6/130 83/6/50 130/6/94
f 84/6/53 129/6/133 134/6/87
f 128/6/132 127/6/134 132/6/47 133/6/88
f 126/6/131 125/6/130 130/6/94 131/6/91
f 135/6/135 136/6/136 137/6/137
f 138/6/138 139/6/139 140/6/140
f 141/6/141 142/6/142 143/6/143
f 144/6/144 145/6/145 146/6/146
f 147/6/147 148/6/148 149/6/149
f 150/6/150 151/6/151 152/6/152
f 153/6/153 154/6/154 155/6/155
f 156/6/156 157/6/157 158/6/158
f 141/6/141 135/6/135 137/6/137 142/6/142
f 136/6/136 138/6/138 140/6/140 137/6/137
f 139/6/139 144/6/144 146/6/146 140/6/140
f 145/6/145 143/6/143 142/6/142 146/6/146
f 153/6/153 141/6/141 143/6/143 154/6/154
f 144/6/144 156/6/156 158/6/158 145/6/145
f 157/6/157 155/6/155 154/6/154 158/6/158
f 147/6/147 153/6/153 155/6/155 148/6/148
f 156/6/156 150/6/150 152/6/152 157/6/157
f 151/6/151 149/6/149 148/6/148 152/6/152
f 135/6/135 147/6/147 149/6/149 136/6/136
f 150/6/150 139/6/139 138/6/138 151/6/151
f 141/6/53 153/6/53 147/6/53 135/6/53
f 137/6/159 140/6/159 146/6/159 142/6/159
f 149/6/48 151/6/48 138/6/48 136/6/48
f 156/6/50 144/6/50 139/6/50 150/6/50
f 143/6/47 145/6/47 158/6/47 154/6/47
f 155/6/160 157/6/160 152/6/160 148/6/160
f 159/6/135 160/6/136 161/6/137
f 162/6/138 163/6/139 164/6/140
f 165/6/141 166/6/142 167/6/143
f 168/6/144 169/6/145 170/6/146
f 171/6/147 172/6/148 173/6/149
f 174/6/150 175/6/151 176/6/152
f 177/6/153 178/6/154 179/6/155
f 180/6/156 181/6/157 182/6/158
f 165/6/141 159/6/135 161/6/137 166/6/142
f 160/6/136 162/6/138 164/6/140 161/6/137
f 163/6/139 168/6/144 170/6/146 164/6/140
f 169/6/145 167/6/143 166/6/142 170/6/146
f 177/6/153 165/6/141 167/6/143 178/6/154
f 168/6/144 180/6/156 182/6/158 169/6/145
f 181/6/157 179/6/155 178/6/154 182/6/158
f 171/6/147 177/6/153 179/6/155 172/6/148
f 180/6/156 174/6/150 176/6/152 181/6/157
f 175/6/151 173/6/149 172/6/148 176/6/152
f 159/6/135 171/6/147 173/6/149 160/6/136
f 174/6/150 163/6/139 162/6/138 175/6/151
f 165/6/53 177/6/53 171/6/53 159/6/53
f 161/6/159 164/6/159 170/6/159 166/6/159
f 173/6/48 175/6/48 162/6/48 160/6/48
f 180/6/50 168/6/50 163/6/50 174/6/50
f 167/6/47 169/6/47 182/6/47 178/6/47
f 179/6/160 181/6/160 176/6/160 172/6/160
f 189/1/1 187/2/1 188/3/1
f 190/4/1 187/2/1 189/1/1
f 190/4/1 186/5/1 187/2/1
f 183/6/1 186/5/1 190/4/1
f 183/6/1 185/7/1 186/5/1
f 184/8/1 185/7/1 183/6/1
f 195/2/2 197/1/2 196/3/2
f 195/2/2 198/4/2 197/1/2
f 194/5/2 198/4/2 195/2/2
f 193/7/2 198/4/2 194/5/2
f 193/7/2 191/6/2 198/4/2
f 192/8/2 191/6/2 193/7/2
f 191/9/3 183/10/3 190/11/3 198/12/3
f 192/13/4 184/14/4 183/4/4 191/6/4
f 193/15/5 185/16/5 184/14/5 192/13/5
f 194/17/6 186/18/6 185/16/6 193/15/6
f 195/19/7 187/20/7 186/18/7 194/17/7
f 196/21/8 188/22/8 187/20/8 195/19/8
f 197/23/9 189/24/9 188/22/9 196/21/9
f 198/12/10 190/11/10 189/24/10 197/23/10
f 201/7/11 199/6/11 200/8/11
f 202/5/11 199/6/11 201/7/11
f 202/5/11 206/4/11 199/6/11
f 203/2/11 206/4/11 202/5/11
f 203/2/11 205/1/11 206/4/11
f 204/3/11 205/1/11 203/2/11
f 207/6/12 209/7/12 208/8/12
f 214/4/12 209/7/12 207/6/12
f 214/4/12 210/5/12 209/7/12
f 214/4/12 211/2/12 210/5/12
f 213/1/12 211/2/12 214/4/12
f 212/3/12 211/2/12 213/1/12
f 207/9/13 215/25/14 222/26/14 214/12/13
f 208/13/15 216/27/16 215/28/16 207/6/15
f 209/15/17 217/29/18 216/27/18 208/13/17
f 210/17/19 218/30/20 217/29/20 209/15/19
f 211/19/21 219/31/22 218/30/23 210/17/21
f 212/21/24 220/32/25 219/31/25 211/19/24
f 213/23/26 221/33/27 220/32/27 212/21/26
f 214/12/28 222/26/29 221/33/30 213/23/28
f 215/25/14 223/34/31 230/35/31 222/26/14
f 216/27/16 224/36/32 223/37/32 215/28/16
f 217/29/18 225/38/33 224/36/33 216/27/18
f 218/30/20 226/39/34 225/38/34 217/29/20
f 219/31/22 227/40/35 226/39/35 218/30/23
f 220/32/25 228/41/36 227/40/36 219/31/25
f 221/33/27 229/42/37 228/41/37 220/32/27
f 222/26/29 230/35/38 229/42/38 221/33/30
f 223/34/31 199/10/39 206/11/39 230/35/31
f 224/36/32 200/14/40 199/4/40 223/37/32
f 225/38/33 201/16/41 200/14/41 224/36/33
f 226/39/34 202/18/42 201/16/42 225/38/34
f 227/40/35 203/20/43 202/18/43 226/39/35
f 228/41/36 204/22/44 203/20/44 227/40/36
f 229/42/37 205/24/45 204/22/45 228/41/37
f 230/35/38 206/11/46 205/24/46 229/42/38
f 236/4/47 234/43/47 235/44/47
f 236/4/47 233/45/47 234/43/47
f 231/6/47 233/45/47 236/4/47
f 231/6/47 232/46/47 233/45/47
f 240/43/48 242/4/48 241/44/48
f 239/45/48 242/4/48 240/43/48
f 238/46/48 242/4/48 239/45/48
f 238/46/48 237/6/48 242/4/48
f 237/9/49 231/10/49 236/47/49 242/48/49
f 238/49/50 232/50/50 231/4/50 237/6/50
f 239/51/51 233/52/51 232/50/51 238/49/51
f 240/19/52 234/20/52 233/52/52 239/51/52
f 241/53/53 235/54/53 234/20/53 240/19/53
f 242/48/54 236/47/54 235/54/54 241/53/54
f 245/45/55 243/6/55 244/46/55
f 245/45/55 248/4/55 243/6/55
f 246/43/55 248/4/55 245/45/55
f 246/43/55 247/44/55 248/4/55
f 239/4/56 250/46/56 249/6/56
f 239/4/56 242/45/56 250/46/56
f 252/44/56 242/45/56 239/4/56
f 252/44/56 251/43/56 242/45/56
f 249/9/57 253/25/58 258/55/59 239/48/57
f 250/49/60 254/56/60 253/28/60 249/6/60
f 242/51/61 255/57/62 254/56/63 250/49/61
f 251/19/64 256/31/65 255/57/66 242/51/64
f 252/53/67 257/58/67 256/31/67 251/19/67
f 239/48/68 258/55/69 257/58/70 252/53/68
f 253/25/58 259/34/71 264/59/72 258/55/59
f 254/56/73 260/60/73 259/37/73 253/28/73
f 255/57/62 261/61/74 260/60/75 254/56/63
f 256/31/65 262/40/76 261/61/77 255/57/66
f 257/58/78 263/62/78 262/40/78 256/31/78
f 258/55/69 264/59/79 263/62/80 257/58/70
f 259/34/71 243/10/81 248/47/81 264/59/72
f 260/60/82 244/50/82 243/4/82 259/37/82
f 261/61/74 245/52/83 244/50/83 260/60/75
f 262/40/76 246/20/84 245/52/84 261/61/77
f 263/62/85 247/54/85 246/20/85 262/40/85
f 264/59/79 248/47/86 247/54/86 263/62/80
f 316/6/87 315/6/88 270/6/89 271/6/90
f 314/6/47 313/6/91 268/6/92 269/6/93
f 312/6/94 265/6/50 267/6/95
f 266/6/53 316/6/87 271/6/90
f 315/6/88 314/6/47 269/6/93 270/6/89
f 313/6/91 312/6/94 267/6/95 268/6/92
f 271/6/90 270/6/89 275/6/96 276/6/97
f 269/6/93 268/6/92 273/6/98 274/6/99
f 267/6/95 265/6/50 272/6/100
f 266/6/53 271/6/90 276/6/97
f 270/6/89 269/6/93 274/6/99 275/6/96
f 268/6/92 267/6/95 272/6/100 273/6/98
f 274/6/99 273/6/98 278/6/101 279/6/102
f 272/6/100 265/6/50 277/6/103
f 266/6/53 276/6/97 281/6/104
f 275/6/96 274/6/99 279/6/102 280/6/105
f 273/6/98 272/6/100 277/6/103 278/6/101
f 276/6/97 275/6/96 280/6/105 281/6/104
f 277/6/103 265/6/50 282/6/106
f 266/6/53 281/6/104 286/6/107
f 280/6/105 279/6/102 284/6/108 285/6/109
f 278/6/101 277/6/103 282/6/106 283/6/110
f 281/6/104 280/6/105 285/6/109 286/6/107
f 279/6/102 278/6/101 283/6/110 284/6/108
f 266/6/53 286/6/107 291/6/111
f 285/6/109 284/6/108 289/6/48 290/6/112
f 283/6/110 282/6/106 287/6/113 288/6/114
f 286/6/107 285/6/109 290/6/112 291/6/111
f 284/6/108 283/6/110 288/6/114 289/6/48
f 282/6/106 265/6/50 287/6/113
f 266/6/53 291/6/111 296/6/115
f 290/6/112 289/6/48 294/6/116 295/6/117
f 288/6/114 287/6/113 292/6/118 293/6/119
f 291/6/111 290/6/112 295/6/117 296/6/115
f 289/6/48 288/6/114 293/6/119 294/6/116
f 287/6/113 265/6/50 292/6/118
f 266/6/53 296/6/115 301/6/120
f 295/6/117 294/6/116 299/6/121 300/6/122
f 293/6/119 292/6/118 297/6/123 298/6/124
f 296/6/115 295/6/117 300/6/122 301/6/120
f 294/6/116 293/6/119 298/6/124 299/6/121
f 292/6/118 265/6/50 297/6/123
f 300/6/122 299/6/121 304/6/125 305/6/126
f 298/6/124 297/6/123 302/6/127 303/6/128
f 301/6/120 300/6/122 305/6/126 306/6/129
f 299/6/121 298/6/124 303/6/128 304/6/125
f 297/6/123 265/6/50 302/6/127
f 266/6/53 301/6/120 306/6/129
f 303/6/128 302/6/127 307/6/130 308/6/131
f 306/6/129 305/6/126 310/6/132 311/6/133
f 304/6/125 303/6/128 308/6/131 309/6/134
f 302/6/127 265/6/50 307/6/130
f 266/6/53 306/6/129 311/6/133
f 305/6/126 304/6/125 309/6/134 310/6/132
f 311/6/133 310/6/132 315/6/88 316/6/87
f 309/6/134 308/6/131 313/6/91 314/6/47
f 307/6/130 265/6/50 312/6/94
f 266/6/53 311/6/133 316/6/87
f 310/6/132 309/6/134 314/6/47 315/6/88
f 308/6/131 307/6/130 312/6/94 313/6/91
f 317/6/135 318/6/136 319/6/137
f 320/6/138 321/6/139 322/6/140
f 323/6/141 324/6/142 325/6/143
f 326/6/144 327/6/145 328/6/146
f 329/6/147 330/6/148 331/6/149
f 332/6/150 333/6/151 334/6/152
f 335/6/153 336/6/154 337/6/155
f 338/6/156 339/6/157 340/6/158
f 323/6/141 317/6/135 319/6/137 324/6/142
f 318/6/136 320/6/138 322/6/140 319/6/137
f 321/6/139 326/6/144 328/6/146 322/6/140
f 327/6/145 325/6/143 324/6/142 328/6/146
f 335/6/153 323/6/141 325/6/143 336/6/154
f 326/6/144 338/6/156 340/6/158 327/6/145
f 339/6/157 337/6/155 336/6/154 340/6/158
f 329/6/147 335/6/153 337/6/155 330/6/148
f 338/6/156 332/6/150 334/6/152 339/6/157
f 333/6/151 331/6/149 330/6/148 334/6/152
f 317/6/135 329/6/147 331/6/149 318/6/136
f 332/6/150 321/6/139 320/6/138 333/6/151
f 323/6/53 335/6/53 329/6/53 317/6/53
f 319/6/159 322/6/159 328/6/159 324/6/159
f 331/6/48 333/6/48 320/6/48 318/6/48
f 338/6/50 326/6/50 321/6/50 332/6/50
f 325/6/47 327/6/47 340/6/47 336/6/47
f 337/6/160 339/6/160 334/6/160 330/6/160
f 341/6/135 342/6/136 343/6/137
f 344/6/138 345/6/139 346/6/140
f 347/6/141 348/6/142 349/6/143
f 350/6/144 351/6/145 352/6/146
f 353/6/147 354/6/148 355/6/149
f 356/6/150 357/6/151 358/6/152
f 359/6/153 360/6/154 361/6/155
f 362/6/156 363/6/157 364/6/158
f 347/6/141 341/6/135 343/6/137 348/6/142
f 342/6/136 344/6/138 346/6/140 343/6/137
f 345/6/139 350/6/144 352/6/146 346/6/140
f 351/6/145 349/6/143 348/6/142 352/6/146
f 359/6/153 347/6/141 349/6/143 360/6/154
f 350/6/144 362/6/156 364/6/158 351/6/145
f 363/6/157 361/6/155 360/6/154 364/6/158
f 353/6/147 359/6/153 361/6/155 354/6/148
f 362/6/156 356/6/150 358/6/152 363/6/157
f 357/6/151 355/6/149 354/6/148 358/6/152
f 341/6/135 353/6/147 355/6/149 342/6/136
f 356/6/150 345/6/139 344/6/138 357/6/151
f 347/6/53 359/6/53 353/6/53 341/6/53
f 343/6/159 346/6/159 352/6/159 348/6/159
f 355/6/48 357/6/48 344/6/48 342/6/48
f 362/6/50 350/6/50 345/6/50 356/6/50
f 349/6/47 351/6/47 364/6/47 360/6/47
f 361/6/160 363/6/160 358/6/160 354/6/160
usemtl wood
f 365/6/161 368/6/162 369/6/163 371/6/164
f 366/6/165 370/6/166 369/6/167 368/6/168
f 367/6/169 371/6/170 369/6/171 370/6/172
f 372/6/173 375/6/174 376/6/175 378/6/176
f 373/6/177 377/6/178 376/6/179 375/6/180
f 374/6/181 378/6/182 376/6/183 377/6/184
f 379/6/185 382/6/186 383/6/187 385/6/188
f 380/6/189 384/6/190 383/6/191 382/6/192
f 381/6/193 385/6/194 383/6/195 384/6/196
f 386/6/197 389/6/198 390/6/199 392/6/200
f 387/6/201 391/6/202 390/6/203 389/6/204
f 388/6/205 392/6/206 390/6/207 391/6/208
f 393/6/209 396/6/210 397/6/211 399/6/212
f 394/6/213 398/6/214 397/6/215 396/6/216
f 395/6/217 399/6/218 397/6/219 398/6/220
f 400/6/221 403/6/222 404/6/223 406/6/224
f 401/6/225 405/6/226 404/6/227 403/6/228
f 402/6/229 406/6/230 404/6/231 405/6/232
f 407/6/233 410/6/234 411/6/235 413/6/236
f 408/6/237 412/6/238 411/6/239 410/6/240
f 409/6/241 413/6/242 411/6/243 412/6/244
f 414/6/245 417/6/246 418/6/247 420/6/248
f 415/6/249 419/6/250 418/6/251 417/6/252
f 416/6/253 420/6/254 418/6/255 419/6/256
f 379/6/185 365/6/161 371/6/164 382/6/186
f 382/6/192 371/6/170 367/6/169 380/6/189
f 366/6/165 372/6/173 378/6/176 370/6/166
f 370/6/172 378/6/182 374/6/181 367/6/169
f 373/6/177 386/6/197 392/6/200 377/6/178
f 377/6/184 392/6/206 388/6/205 374/6/181
f 387/6/201 381/6/193 384/6/196 391/6/202
f 391/6/208 384/6/190 380/6/189 388/6/205
f 407/6/233 379/6/185 385/6/188 410/6/234
f 410/6/240 385/6/194 381/6/193 408/6/237
f 386/6/197 414/6/245 420/6/248 389/6/198
f 389/6/204 420/6/254 416/6/253 387/6/201
f 415/6/249 409/6/241 412/6/244 419/6/250
f 419/6/256 412/6/238 408/6/237 416/6/253
f 393/6/209 407/6/233 413/6/236 396/6/210
f 396/6/216 413/6/242 409/6/241 394/6/213
f 414/6/245 400/6/221 406/6/224 417/6/246
f 417/6/252 406/6/230 402/6/229 415/6/249
f 401/6/225 395/6/217 398/6/220 405/6/226
f 405/6/232 398/6/214 394/6/213 402/6/229
f 365/6/161 393/6/209 399/6/212 368/6/162
f 368/6/168 399/6/218 395/6/217 366/6/165
f 400/6/221 373/6/177 375/6/180 403/6/222
f 403/6/228 375/6/174 372/6/173 401/6/225
f 379/6/185 407/6/233 393/6/209 365/6/161
f 367/6/169 374/6/181 388/6/205 380/6/189
f 395/6/217 401/6/225 372/6/173 366/6/165
f 414/6/245 386/6/197 373/6/177 400/6/221
f 381/6/193 387/6/201 416/6/253 408/6/237
f 409/6/241 415/6/249 402/6/229 394/6/213
f 477/6/161 480/6/162 481/6/163 483/6/164
f 478/6/165 482/6/166 481/6/167 480/6/168
f 479/6/169 483/6/170 481/6/171 482/6/172
f 484/6/173 487/6/174 488/6/175 490/6/176
f 485/6/177 489/6/178 488/6/179 487/6/180
f 486/6/181 490/6/182 488/6/183 489/6/184
f 491/6/185 494/6/186 495/6/187 497/6/188
f 492/6/189 496/6/190 495/6/191 494/6/192
f 493/6/193 497/6/194 495/6/195 496/6/196
f 498/6/197 501/6/198 502/6/199 504/6/200
f 499/6/201 503/6/202 502/6/203 501/6/204
f 500/6/205 504/6/206 502/6/207 503/6/208
f 505/6/209 508/6/210 509/6/211 511/6/212
f 506/6/213 510/6/214 509/6/215 508/6/216
f 507/6/217 511/6/218 509/6/219 510/6/220
f 512/6/221 515/6/222 516/6/223 518/6/224
f 513/6/225 517/6/226 516/6/227 515/6/228
f 514/6/229 518/6/230 516/6/231 517/6/232
f 519/6/233 522/6/234 523/6/235 525/6/236
f 520/6/237 524/6/238 523/6/239 522/6/240
f 521/6/241 525/6/242 523/6/243 524/6/244
f 526/6/245 529/6/246 530/6/247 532/6/248
f 527/6/249 531/6/250 530/6/251 529/6/252
f 528/6/253 532/6/254 530/6/255 531/6/256
f 491/6/185 477/6/161 483/6/164 494/6/186
f 494/6/192 483/6/170 479/6/169 492/6/189
f 478/6/165 484/6/173 490/6/176 482/6/166
f 482/6/172 490/6/182 486/6/181 479/6/169
f 485/6/177 498/6/197 504/6/200 489/6/178
f 489/6/184 504/6/206 500/6/205 486/6/181
f 499/6/201 493/6/193 496/6/196 503/6/202
f 503/6/208 496/6/190 492/6/189 500/6/205
f 519/6/233 491/6/185 497/6/188 522/6/234
f 522/6/240 497/6/194 493/6/193 520/6/237
f 498/6/197 526/6/245 532/6/248 501/6/198
f 501/6/204 532/6/254 528/6/253 499/6/201
f 527/6/249 521/6/241 524/6/244 531/6/250
f 531/6/256 524/6/238 520/6/237 528/6/253
f 505/6/209 519/6/233 525/6/236 508/6/210
f 508/6/216 525/6/242 521/6/241 506/6/213
f 526/6/245 512/6/221 518/6/224 529/6/246
f 529/6/252 518/6/230 514/6/229 527/6/249
f 513/6/225 507/6/217 510/6/220 517/6/226
f 517/6/232 510/6/214 506/6/213 514/6/229
f 477/6/161 505/6/209 511/6/212 480/6/162
f 480/6/168 511/6/218 507/6/217 478/6/165
f 512/6/221 485/6/177 487/6/180 515/6/222
f 515/6/228 487/6/174 484/6/173 513/6/225
f 491/6/185 519/6/233 505/6/209 477/6/161
f 479/6/169 486/6/181 500/6/205 492/6/189
f 507/6/217 513/6/225 484/6/173 478/6/165
f 526/6/245 498/6/197 485/6/177 512/6/221
f 493/6/193 499/6/201 528/6/253 520/6/237
f 521/6/241 527/6/249 514/6/229 506/6/213
f 589/6/257 592/6/258 593/6/259 595/6/260
f 590/6/261 594/6/262 593/6/263 592/6/264
f 591/6/265 595/6/266 593/6/267 594/6/268
f 596/6/269 599/6/270 600/6/271 602/6/272
f 597/6/273 601/6/274 600/6/275 599/6/276
f 598/6/277 602/6/278 600/6/279 601/6/280
f 603/6/281 606/6/282 607/6/283 609/6/284
f 604/6/285 608/6/286 607/6/287 606/6/288
f 605/6/289 609/6/290 607/6/291 608/6/292
f 610/6/293 613/6/294 614/6/295 616/6/296
f 611/6/297 615/6/298 614/6/299 613/6/300
f 612/6/301 616/6/302 614/6/303 615/6/304
f 617/6/305 620/6/306 621/6/307 623/6/308
f 618/6/309 622/6/310 621/6/311 620/6/312
f 619/6/313 623/6/314 621/6/315 622/6/316
f 624/6/317 627/6/318 628/6/319 630/6/320
f 625/6/321 629/6/322 628/6/323 627/6/324
f 626/6/325 630/6/326 628/6/327 629/6/328
f 631/6/329 634/6/330 635/6/331 637/6/332
f 632/6/333 636/6/334 635/6/335 634/6/336
f 633/6/337 637/6/338 635/6/339 636/6/340
f 638/6/341 641/6/342 642/6/343 644/6/344
f 639/6/345 643/6/346 642/6/347 641/6/348
f 640/6/349 644/6/350 642/6/351 643/6/352
f 603/6/281 589/6/257 595/6/260 606/6/282
f 606/6/288 595/6/266 591/6/265 604/6/285
f 590/6/261 596/6/269 602/6/272 594/6/262
f 594/6/268 602/6/278 598/6/277 591/6/265
f 597/6/273 610/6/293 616/6/296 601/6/274
f 601/6/280 616/6/302 612/6/301 598/6/277
f 611/6/297 605/6/289 608/6/292 615/6/298
f 615/6/304 608/6/286 604/6/285 612/6/301
f 631/6/329 603/6/281 609/6/284 634/6/330
f 634/6/336 609/6/290 605/6/289 632/6/333
f 610/6/293 638/6/341 644/6/344 613/6/294
f 613/6/300 644/6/350 640/6/349 611/6/297
f 639/6/345 633/6/337 636/6/340 643/6/346
f 643/6/352 636/6/334 632/6/333 640/6/349
f 617/6/305 631/6/329 637/6/332 620/6/306
f 620/6/312 637/6/338 633/6/337 618/6/309
f 638/6/341 624/6/317 630/6/320 641/6/342
f 641/6/348 630/6/326 626/6/325 639/6/345
f 625/6/321 619/6/313 622/6/316 629/6/322
f 629/6/328 622/6/310 618/6/309 626/6/325
f 589/6/257 617/6/305 623/6/308 592/6/258
f 592/6/264 623/6/314 619/6/313 590/6/261
f 624/6/317 597/6/273 599/6/276 627/6/318
f 627/6/324 599/6/270 596/6/269 625/6/321
f 603/6/281 631/6/329 617/6/305 589/6/257
f 591/6/265 598/6/277 612/6/301 604/6/285
f 619/6/313 625/6/321 596/6/269 590/6/261
f 638/6/341 610/6/293 597/6/273 624/6/317
f 605/6/289 611/6/297 640/6/349 632/6/333
f 633/6/337 639/6/345 626/6/325 618/6/309
f 701/6/257 704/6/258 705/6/259 707/6/260
f 702/6/261 706/6/262 705/6/263 704/6/264
f 703/6/265 707/6/266 705/6/267 706/6/268
f 708/6/269 711/6/270 712/6/271 714/6/272
f 709/6/273 713/6/274 712/6/275 711/6/276
f 710/6/277 714/6/278 712/6/279 713/6/280
f 715/6/281 718/6/282 719/6/283 721/6/284
f 716/6/285 720/6/286 719/6/287 718/6/288
f 717/6/289 721/6/290 719/6/291 720/6/292
f 722/6/293 725/6/294 726/6/295 728/6/296
f 723/6/297 727/6/298 726/6/299 725/6/300
f 724/6/301 728/6/302 726/6/303 727/6/304
f 729/6/305 732/6/306 733/6/307 735/6/308
f 730/6/309 734/6/310 733/6/311 732/6/312
f 731/6/313 735/6/314 733/6/315 734/6/316
f 736/6/317 739/6/318 740/6/319 742/6/320
f 737/6/321 741/6/322 740/6/323 739/6/324
f 738/6/325 742/6/326 740/6/355 741/6/328
f 743/6/329 746/6/330 747/6/331 749/6/332
f 744/6/333 748/6/334 747/6/335 746/6/336
f 745/6/337 749/6/338 747/6/339 748/6/340
f 750/6/341 753/6/342 754/6/343 756/6/344
f 751/6/345 755/6/346 754/6/347 753/6/348
f 752/6/349 756/6/350 754/6/351 755/6/352
f 715/6/281 701/6/257 707/6/260 718/6/282
f 718/6/288 707/6/266 703/6/265 716/6/285
f 702/6/261 708/6/269 714/6/272 706/6/262
f 706/6/268 714/6/278 710/6/277 703/6/265
f 709/6/273 722/6/293 728/6/296 713/6/274
f 713/6/280 728/6/302 724/6/301 710/6/277
f 723/6/297 717/6/289 720/6/292 727/6/298
f 727/6/304 720/6/286 716/6/285 724/6/301
f 743/6/329 715/6/281 721/6/284 746/6/330
f 746/6/336 721/6/290 717/6/289 744/6/333
f 722/6/293 750/6/341 756/6/344 725/6/294
f 725/6/300 756/6/350 752/6/349 723/6/297
f 751/6/345 745/6/337 748/6/340 755/6/346
f 755/6/352 748/6/334 744/6/333 752/6/349
f 729/6/305 743/6/329 749/6/332 732/6/306
f 732/6/312 749/6/338 745/6/337 730/6/309
f 750/6/341 736/6/317 742/6/320 753/6/342
f 753/6/348 742/6/326 738/6/325 751/6/345
f 737/6/321 731/6/313 734/6/316 741/6/322
f 741/6/328 734/6/310 730/6/309 738/6/325
f 701/6/257 729/6/305 735/6/308 704/6/258
f 704/6/264 735/6/314 731/6/313 702/6/261
f 736/6/317 709/6/273 711/6/276 739/6/318
f 739/6/324 711/6/270 708/6/269 737/6/321
f 715/6/281 743/6/329 729/6/305 701/6/257
f 703/6/265 710/6/277 724/6/301 716/6/285
f 731/6/313 737/6/321 708/6/269 702/6/261
f 750/6/341 722/6/293 709/6/273 736/6/317
f 717/6/289 723/6/297 752/6/349 744/6/333
f 745/6/337 751/6/345 738/6/325 730/6/309
usemtl peach
f 421/6/161 424/6/162 425/6/163 427/6/164
f 422/6/165 426/6/166 425/6/167 424/6/168
f 423/6/169 427/6/170 425/6/171 426/6/172
f 428/6/173 431/6/174 432/6/175 434/6/176
f 429/6/177 433/6/178 432/6/179 431/6/180
f 430/6/181 434/6/182 432/6/183 433/6/184
f 435/6/185 438/6/186 439/6/187 441/6/188
f 436/6/189 440/6/190 439/6/191 438/6/192
f 437/6/193 441/6/194 439/6/195 440/6/196
f 442/6/197 445/6/198 446/6/199 448/6/200
f 443/6/201 447/6/202 446/6/203 445/6/204
f 444/6/205 448/6/206 446/6/207 447/6/208
f 449/6/209 452/6/210 453/6/211 455/6/212
f 450/6/213 454/6/214 453/6/215 452/6/216
f 451/6/217 455/6/218 453/6/219 454/6/220
f 456/6/221 459/6/222 460/6/223 462/6/224
f 457/6/225 461/6/226 460/6/227 459/6/228
f 458/6/229 462/6/230 460/6/231 461/6/232
f 463/6/233 466/6/234 467/6/235 469/6/236
f 464/6/237 468/6/238 467/6/239 466/6/240
f 465/6/241 469/6/242 467/6/243 468/6/244
f 470/6/245 473/6/246 474/6/247 476/6/248
f 471/6/249 475/6/250 474/6/251 473/6/252
f 472/6/253 476/6/254 474/6/255 475/6/256
f 435/6/185 421/6/161 427/6/164 438/6/186
f 438/6/192 427/6/170 423/6/169 436/6/189
f 422/6/165 428/6/173 434/6/176 426/6/166
f 426/6/172 434/6/182 430/6/181 423/6/169
f 429/6/177 442/6/197 448/6/200 433/6/178
f 433/6/184 448/6/206 444/6/205 430/6/181
f 443/6/201 437/6/193 440/6/196 447/6/202
f 447/6/208 440/6/190 436/6/189 444/6/205
f 463/6/233 435/6/185 441/6/188 466/6/234
f 466/6/240 441/6/194 437/6/193 464/6/237
f 442/6/197 470/6/245 476/6/248 445/6/198
f 445/6/204 476/6/254 472/6/253 443/6/201
f 471/6/249 465/6/241 468/6/244 475/6/250
f 475/6/256 468/6/238 464/6/237 472/6/253
f 449/6/209 463/6/233 469/6/236 452/6/210
f 452/6/216 469/6/242 465/6/241 450/6/213
f 470/6/245 456/6/221 462/6/224 473/6/246
f 473/6/252 462/6/230 458/6/229 471/6/249
f 457/6/225 451/6/217 454/6/220 461/6/226
f 461/6/232 454/6/214 450/6/213 458/6/229
f 421/6/161 449/6/209 455/6/212 424/6/162
f 424/6/168 455/6/218 451/6/217 422/6/165
f 456/6/221 429/6/177 431/6/180 459/6/222
f 459/6/228 431/6/174 428/6/173 457/6/225
f 435/6/185 463/6/233 449/6/209 421/6/161
f 423/6/169 430/6/181 444/6/205 436/6/189
f 451/6/217 457/6/225 428/6/173 422/6/165
f 470/6/245 442/6/197 429/6/177 456/6/221
f 437/6/193 443/6/201 472/6/253 464/6/237
f 465/6/241 471/6/249 458/6/229 450/6/213
f 533/6/161 536/6/162 537/6/163 539/6/164
f 534/6/165 538/6/166 537/6/167 536/6/168
f 535/6/169 539/6/170 537/6/171 538/6/172
f 540/6/173 543/6/174 544/6/175 546/6/176
f 541/6/177 545/6/178 544/6/179 543/6/180
f 542/6/181 546/6/182 544/6/183 545/6/184
f 547/6/185 550/6/186 551/6/187 553/6/188
f 548/6/189 552/6/190 551/6/191 550/6/192
f 549/6/193 553/6/194 551/6/195 552/6/196
f 554/6/197 557/6/198 558/6/199 560/6/200
f 555/6/201 559/6/202 558/6/203 557/6/204
f 556/6/205 560/6/206 558/6/207 559/6/208
f 561/6/209 564/6/210 565/6/211 567/6/212
f 562/6/213 566/6/214 565/6/215 564/6/216
f 563/6/217 567/6/218 565/6/219 566/6/220
f 568/6/221 571/6/222 572/6/223 574/6/224
f 569/6/225 573/6/226 572/6/227 571/6/228
f 570/6/229 574/6/230 572/6/231 573/6/232
f 575/6/233 578/6/234 579/6/235 581/6/236
f 576/6/237 580/6/238 579/6/239 578/6/240
f 577/6/241 581/6/242 579/6/243 580/6/244
f 582/6/245 585/6/246 586/6/247 588/6/248
f 583/6/249 587/6/250 586/6/251 585/6/252
f 584/6/253 588/6/254 586/6/255 587/6/256
f 547/6/185 533/6/161 539/6/164 550/6/186
f 550/6/192 539/6/170 535/6/169 548/6/189
f 534/6/165 540/6/173 546/6/176 538/6/166
f 538/6/172 546/6/182 542/6/181 535/6/169
f 541/6/177 554/6/197 560/6/200 545/6/178
f 545/6/184 560/6/206 556/6/205 542/6/181
f 555/6/201 549/6/193 552/6/196 559/6/202
f 559/6/208 552/6/190 548/6/189 556/6/205
f 575/6/233 547/6/185 553/6/188 578/6/234
f 578/6/240 553/6/194 549/6/193 576/6/237
f 554/6/197 582/6/245 588/6/248 557/6/198
f 557/6/204 588/6/254 584/6/253 555/6/201
f 583/6/249 577/6/241 580/6/244 587/6/250
f 587/6/256 580/6/238 576/6/237 584/6/253
f 561/6/209 575/6/233 581/6/236 564/6/210
f 564/6/216 581/6/242 577/6/241 562/6/213
f 582/6/245 568/6/221 574/6/224 585/6/246
f 585/6/252 574/6/230 570/6/229 583/6/249
f 569/6/225 563/6/217 566/6/220 573/6/226
f 573/6/232 566/6/214 562/6/213 570/6/229
f 533/6/161 561/6/209 567/6/212 536/6/162
f 536/6/168 567/6/218 563/6/217 534/6/165
f 568/6/221 541/6/177 543/6/180 571/6/222
f 571/6/228 543/6/174 540/6/173 569/6/225
f 547/6/185 575/6/233 561/6/209 533/6/161
f 535/6/169 542/6/181 556/6/205 548/6/189
f 563/6/217 569/6/225 540/6/173 534/6/165
f 582/6/245 554/6/197 541/6/177 568/6/221
f 549/6/193 555/6/201 584/6/253 576/6/237
f 577/6/241 583/6/249 570/6/229 562/6/213
f 645/6/257 648/6/258 649/6/259 651/6/260
f 646/6/261 650/6/262 649/6/263 648/6/264
f 647/6/265 651/6/266 649/6/267 650/6/268
f 652/6/269 655/6/270 656/6/271 658/6/272
f 653/6/273 657/6/274 656/6/275 655/6/276
f 654/6/277 658/6/278 656/6/279 657/6/353
f 659/6/281 662/6/282 663/6/283 665/6/284
f 660/6/285 664/6/286 663/6/287 662/6/354
f 661/6/289 665/6/290 663/6/291 664/6/292
f 666/6/293 669/6/294 670/6/295 672/6/296
f 667/6/297 671/6/298 670/6/299 669/6/300
f 668/6/301 672/6/302 670/6/303 671/6/304
f 673/6/305 676/6/306 677/6/307 679/6/308
f 674/6/309 678/6/310 677/6/311 676/6/312
f 675/6/313 679/6/314 677/6/315 678/6/316
f 680/6/317 683/6/318 684/6/319 686/6/320
f 681/6/321 685/6/322 684/6/323 683/6/324
f 682/6/325 686/6/326 684/6/355 685/6/328
f 687/6/329 690/6/330 691/6/331 693/6/332
f 688/6/333 692/6/334 691/6/335 690/6/336
f 689/6/337 693/6/338 691/6/339 692/6/340
f 694/6/341 697/6/342 698/6/343 700/6/344
f 695/6/345 699/6/346 698/6/347 697/6/348
f 696/6/349 700/6/350 698/6/351 699/6/352
f 659/6/281 645/6/257 651/6/260 662/6/282
f 662/6/354 651/6/266 647/6/265 660/6/285
f 646/6/261 652/6/269 658/6/272 650/6/262
f 650/6/268 658/6/278 654/6/277 647/6/265
f 653/6/273 666/6/293 672/6/296 657/6/274
f 657/6/353 672/6/302 668/6/301 654/6/277
f 667/6/297 661/6/289 664/6/292 671/6/298
f 671/6/304 664/6/286 660/6/285 668/6/301
f 687/6/329 659/6/281 665/6/284 690/6/330
f 690/6/336 665/6/290 661/6/289 688/6/333
f 666/6/293 694/6/341 700/6/344 669/6/294
f 669/6/300 700/6/350 696/6/349 667/6/297
f 695/6/345 689/6/337 692/6/340 699/6/346
f 699/6/352 692/6/334 688/6/333 696/6/349
f 673/6/305 687/6/329 693/6/332 676/6/306
f 676/6/312 693/6/338 689/6/337 674/6/309
f 694/6/341 680/6/317 686/6/320 697/6/342
f 697/6/348 686/6/326 682/6/325 695/6/345
f 681/6/321 675/6/313 678/6/316 685/6/322
f 685/6/328 678/6/310 674/6/309 682/6/325
f 645/6/257 673/6/305 679/6/308 648/6/258
f 648/6/264 679/6/314 675/6/313 646/6/261
f 680/6/317 653/6/273 655/6/276 683/6/318
f 683/6/324 655/6/270 652/6/269 681/6/321
f 659/6/281 687/6/329 673/6/305 645/6/257
f 647/6/265 654/6/277 668/6/301 660/6/285
f 675/6/313 681/6/321 652/6/269 646/6/261
f 694/6/341 666/6/293 653/6/273 680/6/317
f 661/6/289 667/6/297 696/6/349 688/6/333
f 689/6/337 695/6/345 682/6/325 674/6/309
usemtl ketchup
f 757/6/257 760/6/258 761/6/259 763/6/260
f 758/6/261 762/6/262 761/6/263 760/6/264
f 759/6/265 763/6/266 761/6/267 762/6/268
f 764/6/269 767/6/270 768/6/271 770/6/272
f 765/6/273 769/6/274 768/6/275 767/6/276
f 766/6/277 770/6/278 768/6/279 769/6/353
f 771/6/281 774/6/282 775/6/283 777/6/284
f 772/6/285 776/6/286 775/6/287 774/6/288
f 773/6/289 777/6/290 775/6/291 776/6/292
f 778/6/293 781/6/294 782/6/295 784/6/296
f 779/6/297 783/6/298 782/6/299 781/6/300
f 780/6/301 784/6/302 782/6/303 783/6/304
f 785/6/305 788/6/306 789/6/307 791/6/308
f 786/6/309 790/6/310 789/6/311 788/6/312
f 787/6/313 791/6/314 789/6/315 790/6/316
f 792/6/317 795/6/318 796/6/319 798/6/320
f 793/6/321 797/6/322 796/6/323 795/6/324
f 794/6/325 798/6/326 796/6/355 797/6/328
f 799/6/329 802/6/330 803/6/331 805/6/332
f 800/6/333 804/6/334 803/6/335 802/6/336
f 801/6/337 805/6/338 803/6/339 804/6/340
f 806/6/341 809/6/342 810/6/343 812/6/344
f 807/6/345 811/6/346 810/6/347 809/6/348
f 808/6/349 812/6/350 810/6/351 811/6/352
f 771/6/281 757/6/257 763/6/260 774/6/282
f 774/6/288 763/6/266 759/6/265 772/6/285
f 758/6/261 764/6/269 770/6/272 762/6/262
f 762/6/268 770/6/278 766/6/277 759/6/265
f 765/6/273 778/6/293 784/6/296 769/6/274
f 769/6/353 784/6/302 780/6/301 766/6/277
f 779/6/297 773/6/289 776/6/292 783/6/298
f 783/6/304 776/6/286 772/6/285 780/6/301
f 799/6/329 771/6/281 777/6/284 802/6/330
f 802/6/336 777/6/290 773/6/289 800/6/333
f 778/6/293 806/6/341 812/6/344 781/6/294
f 781/6/300 812/6/350 808/6/349 779/6/297
f 807/6/345 801/6/337 804/6/340 811/6/346
f 811/6/352 804/6/334 800/6/333 808/6/349
f 785/6/305 799/6/329 805/6/332 788/6/306
f 788/6/312 805/6/338 801/6/337 786/6/309
f 806/6/341 792/6/317 798/6/320 809/6/342
f 809/6/348 798/6/326 794/6/325 807/6/345
f 793/6/321 787/6/313 790/6/316 797/6/322
f 797/6/328 790/6/310 786/6/309 794/6/325
f 757/6/257 785/6/305 791/6/308 760/6/258
f 760/6/264 791/6/314 787/6/313 758/6/261
f 792/6/317 765/6/273 767/6/276 795/6/318
f 795/6/324 767/6/270 764/6/269 793/6/321
f 771/6/281 799/6/329 785/6/305 757/6/257
f 759/6/265 766/6/277 780/6/301 772/6/285
f 787/6/313 793/6/321 764/6/269 758/6/261
f 806/6/341 778/6/293 765/6/273 792/6/317
f 773/6/289 779/6/297 808/6/349 800/6/333
f 801/6/337 807/6/345 794/6/325 786/6/309
usemtl gold
f 813/6/356 814/6/357 815/6/358
f 816/6/359 817/6/360 818/6/361
f 819/6/362 820/6/363 821/6/364
f 822/6/365 823/6/366 824/6/367
f 825/6/368 826/6/369 827/6/370
f 828/6/371 829/6/372 830/6/373
f 831/6/374 832/6/375 833/6/376
f 834/6/377 835/6/378 836/6/379
f 819/6/362 813/6/356 815/6/358 820/6/363
f 814/6/357 816/6/359 818/6/361 815/6/358
f 817/6/360 822/6/365 824/6/367 818/6/361
f 823/6/366 821/6/364 820/6/363 824/6/367
f 831/6/374 819/6/362 821/6/364 832/6/375
f 822/6/365 834/6/377 836/6/379 823/6/366
f 835/6/378 833/6/376 832/6/375 836/6/379
f 825/6/368 831/6/374 833/6/376 826/6/369
f 834/6/377 828/6/371 830/6/373 835/6/378
f 829/6/372 827/6/370 826/6/369 830/6/373
f 813/6/356 825/6/368 827/6/370 814/6/357
f 828/6/371 817/6/360 816/6/359 829/6/372
f 819/6/380 831/6/380 825/6/380 813/6/380
f 815/6/159 818/6/159 824/6/159 820/6/159
f 827/6/381 829/6/381 816/6/381 814/6/381
f 834/6/382 822/6/382 817/6/382 828/6/382
f 821/6/383 823/6/383 836/6/383 832/6/383
f 833/6/160 835/6/160 830/6/160 826/6/160
