# Blender 5.0.1
# www.blender.org
mtllib Bird.mtl
o Bird
v 0.000000 0.798000 -0.059408 0.3098 0.6393 0.8784
v 0.000000 0.633526 -0.501131 0.3098 0.6393 0.8784
v 0.000000 0.522298 -0.578685 0.3098 0.6393 0.8784
v 0.000000 0.399000 -0.605408 0.3098 0.6393 0.8784
v 0.000000 0.164474 -0.501131 0.3098 0.6393 0.8784
v 0.000000 0.019528 -0.228131 0.3098 0.6393 0.8784
v 0.000000 0.000000 -0.059408 0.3098 0.6393 0.8784
v 0.049667 0.778471 -0.215288 0.3098 0.6393 0.8784
v 0.094473 0.721798 -0.355909 0.3098 0.6393 0.8784
v 0.130031 0.633526 -0.467507 0.3098 0.6393 0.8784
v 0.152861 0.522298 -0.539157 0.3098 0.6393 0.8784
v 0.160727 0.399000 -0.563846 0.3098 0.6393 0.8784
v 0.152861 0.275702 -0.539157 0.3098 0.6393 0.8784
v 0.130031 0.164474 -0.467507 0.3098 0.6393 0.8784
v 0.094473 0.076202 -0.355909 0.3098 0.6393 0.8784
v 0.049667 0.019528 -0.215288 0.3098 0.6393 0.8784
v 0.091773 0.778471 -0.178713 0.3098 0.6393 0.8784
v 0.174563 0.721798 -0.286340 0.3098 0.6393 0.8784
v 0.240266 0.633526 -0.371753 0.3098 0.6393 0.8784
v 0.282449 0.522298 -0.426592 0.3098 0.6393 0.8784
v 0.296985 0.399000 -0.445488 0.3098 0.6393 0.8784
v 0.282449 0.275702 -0.426592 0.3098 0.6393 0.8784
v 0.240266 0.164474 -0.371753 0.3098 0.6393 0.8784
v 0.174563 0.076202 -0.286340 0.3098 0.6393 0.8784
v 0.091773 0.019528 -0.178713 0.3098 0.6393 0.8784
v 0.119908 0.778471 -0.123975 0.3098 0.6393 0.8784
v 0.228078 0.721798 -0.182223 0.3098 0.6393 0.8784
v 0.313922 0.633526 -0.228448 0.3098 0.6393 0.8784
v 0.369038 0.522298 -0.258126 0.3098 0.6393 0.8784
v 0.388029 0.399000 -0.268353 0.3098 0.6393 0.8784
v 0.369038 0.275702 -0.258126 0.3098 0.6393 0.8784
v 0.313922 0.164474 -0.228448 0.3098 0.6393 0.8784
v 0.228078 0.076202 -0.182223 0.3098 0.6393 0.8784
v 0.119908 0.019528 -0.123975 0.3098 0.6393 0.8784
v 0.129787 0.778471 -0.059408 0.3098 0.6393 0.8784
v 0.246870 0.721798 -0.059408 0.3098 0.6393 0.8784
v 0.339787 0.633526 -0.059408 0.3098 0.6393 0.8784
v 0.399444 0.522298 -0.059408 0.3098 0.6393 0.8784
v 0.420000 0.399000 -0.059408 0.3098 0.6393 0.8784
v 0.399444 0.275702 -0.059408 0.3098 0.6393 0.8784
v 0.339787 0.164474 -0.059408 0.3098 0.6393 0.8784
v 0.246870 0.076202 -0.059408 0.3098 0.6393 0.8784
v 0.129787 0.019528 -0.059408 0.3098 0.6393 0.8784
v 0.119908 0.778471 0.005160 0.3098 0.6393 0.8784
v 0.228078 0.721798 0.063407 0.3098 0.6393 0.8784
v 0.313922 0.633526 0.109633 0.3098 0.6393 0.8784
v 0.369038 0.522298 0.139311 0.3098 0.6393 0.8784
v 0.388029 0.399000 0.149537 0.3098 0.6393 0.8784
v 0.369038 0.275702 0.139311 0.3098 0.6393 0.8784
v 0.313922 0.164474 0.109633 0.3098 0.6393 0.8784
v 0.228078 0.076202 0.063407 0.3098 0.6393 0.8784
v 0.119908 0.019528 0.005160 0.3098 0.6393 0.8784
v 0.091773 0.778471 0.059898 0.3098 0.6393 0.8784
v 0.174563 0.721798 0.167525 0.3098 0.6393 0.8784
v 0.240266 0.633526 0.252938 0.3098 0.6393 0.8784
v 0.282449 0.522298 0.307776 0.3098 0.6393 0.8784
v 0.296985 0.399000 0.326673 0.3098 0.6393 0.8784
v 0.282449 0.275702 0.307776 0.3098 0.6393 0.8784
v 0.240266 0.164474 0.252938 0.3098 0.6393 0.8784
v 0.174563 0.076202 0.167525 0.3098 0.6393 0.8784
v 0.091773 0.019528 0.059898 0.3098 0.6393 0.8784
v 0.049667 0.778471 0.096472 0.3098 0.6393 0.8784
v 0.094473 0.721798 0.237094 0.3098 0.6393 0.8784
v 0.130031 0.633526 0.348691 0.3098 0.6393 0.8784
v 0.152860 0.522298 0.420341 0.3098 0.6393 0.8784
v 0.160727 0.399000 0.445030 0.3098 0.6393 0.8784
v 0.152860 0.275702 0.420341 0.3098 0.6393 0.8784
v 0.130031 0.164474 0.348691 0.3098 0.6393 0.8784
v 0.094473 0.076202 0.237094 0.3098 0.6393 0.8784
v 0.049667 0.019528 0.096472 0.3098 0.6393 0.8784
v -0.000000 0.778471 0.109315 0.3098 0.6393 0.8784
v -0.000000 0.721798 0.261523 0.3098 0.6393 0.8784
v -0.000000 0.633526 0.382315 0.3098 0.6393 0.8784
v -0.000000 0.522298 0.459869 0.3098 0.6393 0.8784
v -0.000000 0.399000 0.486592 0.3098 0.6393 0.8784
v -0.000000 0.275702 0.459869 0.3098 0.6393 0.8784
v -0.000000 0.164474 0.382315 0.3098 0.6393 0.8784
v -0.000000 0.076202 0.261523 0.3098 0.6393 0.8784
v -0.000000 0.019528 0.109315 0.3098 0.6393 0.8784
v -0.049667 0.778471 0.096472 0.3098 0.6393 0.8784
v -0.094473 0.721798 0.237093 0.3098 0.6393 0.8784
v -0.130031 0.633526 0.348691 0.3098 0.6393 0.8784
v -0.152861 0.522298 0.420341 0.3098 0.6393 0.8784
v -0.160727 0.399000 0.445030 0.3098 0.6393 0.8784
v -0.152861 0.275702 0.420341 0.3098 0.6393 0.8784
v -0.130031 0.164474 0.348691 0.3098 0.6393 0.8784
v -0.094473 0.076202 0.237093 0.3098 0.6393 0.8784
v -0.049667 0.019528 0.096472 0.3098 0.6393 0.8784
v -0.091773 0.778471 0.059898 0.3098 0.6393 0.8784
v -0.174563 0.721798 0.167524 0.3098 0.6393 0.8784
v -0.240266 0.633526 0.252938 0.3098 0.6393 0.8784
v -0.282449 0.522298 0.307776 0.3098 0.6393 0.8784
v -0.296985 0.399000 0.326672 0.3098 0.6393 0.8784
v -0.282449 0.275702 0.307776 0.3098 0.6393 0.8784
v -0.240266 0.164474 0.252938 0.3098 0.6393 0.8784
v -0.174563 0.076202 0.167524 0.3098 0.6393 0.8784
v -0.091773 0.019528 0.059898 0.3098 0.6393 0.8784
v -0.119908 0.778471 0.005160 0.3098 0.6393 0.8784
v -0.228078 0.721798 0.063407 0.3098 0.6393 0.8784
v -0.313922 0.633526 0.109632 0.3098 0.6393 0.8784
v -0.369038 0.522298 0.139311 0.3098 0.6393 0.8784
v -0.388029 0.399000 0.149537 0.3098 0.6393 0.8784
v -0.369038 0.275702 0.139311 0.3098 0.6393 0.8784
v -0.313922 0.164474 0.109632 0.3098 0.6393 0.8784
v -0.228078 0.076202 0.063407 0.3098 0.6393 0.8784
v -0.119908 0.019528 0.005160 0.3098 0.6393 0.8784
v -0.129787 0.778471 -0.059408 0.3098 0.6393 0.8784
v -0.246870 0.721798 -0.059408 0.3098 0.6393 0.8784
v -0.339787 0.633526 -0.059408 0.3098 0.6393 0.8784
v -0.399444 0.522298 -0.059408 0.3098 0.6393 0.8784
v -0.420000 0.399000 -0.059408 0.3098 0.6393 0.8784
v -0.399444 0.275702 -0.059408 0.3098 0.6393 0.8784
v -0.339787 0.164474 -0.059408 0.3098 0.6393 0.8784
v -0.246870 0.076202 -0.059408 0.3098 0.6393 0.8784
v -0.129787 0.019528 -0.059408 0.3098 0.6393 0.8784
v -0.119908 0.778471 -0.123975 0.3098 0.6393 0.8784
v -0.228078 0.721798 -0.182223 0.3098 0.6393 0.8784
v -0.313922 0.633526 -0.228448 0.3098 0.6393 0.8784
v -0.369038 0.522298 -0.258126 0.3098 0.6393 0.8784
v -0.388029 0.399000 -0.268353 0.3098 0.6393 0.8784
v -0.369038 0.275702 -0.258126 0.3098 0.6393 0.8784
v -0.313922 0.164474 -0.228448 0.3098 0.6393 0.8784
v -0.228078 0.076202 -0.182223 0.3098 0.6393 0.8784
v -0.119908 0.019528 -0.123975 0.3098 0.6393 0.8784
v -0.091773 0.778471 -0.178713 0.3098 0.6393 0.8784
v -0.174563 0.721798 -0.286340 0.3098 0.6393 0.8784
v -0.240266 0.633526 -0.371753 0.3098 0.6393 0.8784
v -0.282449 0.522298 -0.426592 0.3098 0.6393 0.8784
v -0.296985 0.399000 -0.445488 0.3098 0.6393 0.8784
v -0.282449 0.275702 -0.426592 0.3098 0.6393 0.8784
v -0.240266 0.164474 -0.371753 0.3098 0.6393 0.8784
v -0.174563 0.076202 -0.286340 0.3098 0.6393 0.8784
v -0.091773 0.019528 -0.178713 0.3098 0.6393 0.8784
v -0.049667 0.778471 -0.215288 0.3098 0.6393 0.8784
v -0.094473 0.721798 -0.355909 0.3098 0.6393 0.8784
v -0.130031 0.633526 -0.467507 0.3098 0.6393 0.8784
v -0.152860 0.522298 -0.539157 0.3098 0.6393 0.8784
v -0.160727 0.399000 -0.563846 0.3098 0.6393 0.8784
v -0.152860 0.275702 -0.539157 0.3098 0.6393 0.8784
v -0.130031 0.164474 -0.467507 0.3098 0.6393 0.8784
v -0.094473 0.076202 -0.355909 0.3098 0.6393 0.8784
v -0.049667 0.019528 -0.215288 0.3098 0.6393 0.8784
v 0.000000 0.778471 -0.228131 0.3098 0.6393 0.8784
v 0.000000 0.721798 -0.380338 0.3098 0.6393 0.8784
v 0.000000 0.275702 -0.578684 0.3098 0.6393 0.8784
v 0.000000 0.076202 -0.380338 0.3098 0.6393 0.8784
v 0.000000 0.555000 0.140592 1.0000 0.9647 0.8980
v 0.000000 0.535513 -0.006358 1.0000 0.9647 0.8980
v 0.000000 0.396967 -0.214177 1.0000 0.9647 0.8980
v 0.000000 0.299000 -0.243408 1.0000 0.9647 0.8980
v 0.000000 0.062487 -0.006358 1.0000 0.9647 0.8980
v 0.000000 0.043000 0.140592 1.0000 0.9647 0.8980
v 0.050476 0.535513 0.008194 1.0000 0.9647 0.8980
v 0.093268 0.480019 -0.104047 1.0000 0.9647 0.8980
v 0.121860 0.396967 -0.179044 1.0000 0.9647 0.8980
v 0.131901 0.299000 -0.205380 1.0000 0.9647 0.8980
v 0.121860 0.201033 -0.179044 1.0000 0.9647 0.8980
v 0.093268 0.117981 -0.104047 1.0000 0.9647 0.8980
v 0.050476 0.062487 0.008194 1.0000 0.9647 0.8980
v 0.090955 0.535513 0.048970 1.0000 0.9647 0.8980
v 0.168063 0.480019 -0.028703 1.0000 0.9647 0.8980
v 0.219585 0.396967 -0.080603 1.0000 0.9647 0.8980
v 0.237677 0.299000 -0.098828 1.0000 0.9647 0.8980
v 0.219585 0.201033 -0.080603 1.0000 0.9647 0.8980
v 0.168063 0.117981 -0.028703 1.0000 0.9647 0.8980
v 0.090955 0.062487 0.048970 1.0000 0.9647 0.8980
v 0.113419 0.535513 0.107893 1.0000 0.9647 0.8980
v 0.209571 0.480019 0.080171 1.0000 0.9647 0.8980
v 0.273818 0.396967 0.061649 1.0000 0.9647 0.8980
v 0.296378 0.299000 0.055144 1.0000 0.9647 0.8980
v 0.273818 0.201033 0.061649 1.0000 0.9647 0.8980
v 0.209571 0.117981 0.080171 1.0000 0.9647 0.8980
v 0.113419 0.062487 0.107893 1.0000 0.9647 0.8980
v 0.113419 0.535513 0.173292 1.0000 0.9647 0.8980
v 0.209571 0.480019 0.201013 1.0000 0.9647 0.8980
v 0.273818 0.396967 0.219536 1.0000 0.9647 0.8980
v 0.296378 0.299000 0.226040 1.0000 0.9647 0.8980
v 0.273818 0.201033 0.219536 1.0000 0.9647 0.8980
v 0.209571 0.117981 0.201013 1.0000 0.9647 0.8980
v 0.113419 0.062487 0.173292 1.0000 0.9647 0.8980
v 0.090955 0.535513 0.232214 1.0000 0.9647 0.8980
v 0.168063 0.480019 0.309888 1.0000 0.9647 0.8980
v 0.219585 0.396967 0.361788 1.0000 0.9647 0.8980
v 0.237677 0.299000 0.380012 1.0000 0.9647 0.8980
v 0.219585 0.201033 0.361788 1.0000 0.9647 0.8980
v 0.168063 0.117981 0.309888 1.0000 0.9647 0.8980
v 0.090955 0.062487 0.232214 1.0000 0.9647 0.8980
v 0.050476 0.535513 0.272990 1.0000 0.9647 0.8980
v 0.093268 0.480019 0.385231 1.0000 0.9647 0.8980
v 0.121860 0.396967 0.460229 1.0000 0.9647 0.8980
v 0.131901 0.299000 0.486564 1.0000 0.9647 0.8980
v 0.121860 0.201033 0.460229 1.0000 0.9647 0.8980
v 0.093268 0.117981 0.385231 1.0000 0.9647 0.8980
v 0.050476 0.062487 0.272990 1.0000 0.9647 0.8980
v -0.000000 0.535513 0.287543 1.0000 0.9647 0.8980
v -0.000000 0.480019 0.412121 1.0000 0.9647 0.8980
v -0.000000 0.396967 0.495362 1.0000 0.9647 0.8980
v -0.000000 0.299000 0.524592 1.0000 0.9647 0.8980
v -0.000000 0.201033 0.495362 1.0000 0.9647 0.8980
v -0.000000 0.117981 0.412121 1.0000 0.9647 0.8980
v -0.000000 0.062487 0.287543 1.0000 0.9647 0.8980
v -0.050476 0.535513 0.272990 1.0000 0.9647 0.8980
v -0.093268 0.480019 0.385231 1.0000 0.9647 0.8980
v -0.121860 0.396967 0.460229 1.0000 0.9647 0.8980
v -0.131901 0.299000 0.486564 1.0000 0.9647 0.8980
v -0.121860 0.201033 0.460229 1.0000 0.9647 0.8980
v -0.093268 0.117981 0.385231 1.0000 0.9647 0.8980
v -0.050476 0.062487 0.272990 1.0000 0.9647 0.8980
v -0.090955 0.535513 0.232214 1.0000 0.9647 0.8980
v -0.168063 0.480019 0.309888 1.0000 0.9647 0.8980
v -0.219585 0.396967 0.361787 1.0000 0.9647 0.8980
v -0.237677 0.299000 0.380012 1.0000 0.9647 0.8980
v -0.219585 0.201033 0.361787 1.0000 0.9647 0.8980
v -0.168063 0.117981 0.309888 1.0000 0.9647 0.8980
v -0.090955 0.062487 0.232214 1.0000 0.9647 0.8980
v -0.113419 0.535513 0.173292 1.0000 0.9647 0.8980
v -0.209571 0.480019 0.201013 1.0000 0.9647 0.8980
v -0.273818 0.396967 0.219536 1.0000 0.9647 0.8980
v -0.296378 0.299000 0.226040 1.0000 0.9647 0.8980
v -0.273818 0.201033 0.219536 1.0000 0.9647 0.8980
v -0.209571 0.117981 0.201013 1.0000 0.9647 0.8980
v -0.113419 0.062487 0.173292 1.0000 0.9647 0.8980
v -0.113419 0.535513 0.107893 1.0000 0.9647 0.8980
v -0.209571 0.480019 0.080171 1.0000 0.9647 0.8980
v -0.273818 0.396967 0.061648 1.0000 0.9647 0.8980
v -0.296378 0.299000 0.055144 1.0000 0.9647 0.8980
v -0.273818 0.201033 0.061648 1.0000 0.9647 0.8980
v -0.209571 0.117981 0.080171 1.0000 0.9647 0.8980
v -0.113419 0.062487 0.107893 1.0000 0.9647 0.8980
v -0.090955 0.535513 0.048970 1.0000 0.9647 0.8980
v -0.168063 0.480019 -0.028703 1.0000 0.9647 0.8980
v -0.219585 0.396967 -0.080603 1.0000 0.9647 0.8980
v -0.237677 0.299000 -0.098828 1.0000 0.9647 0.8980
v -0.219585 0.201033 -0.080603 1.0000 0.9647 0.8980
v -0.168063 0.117981 -0.028703 1.0000 0.9647 0.8980
v -0.090955 0.062487 0.048970 1.0000 0.9647 0.8980
v -0.050476 0.535513 0.008194 1.0000 0.9647 0.8980
v -0.093268 0.480019 -0.104047 1.0000 0.9647 0.8980
v -0.121860 0.396967 -0.179044 1.0000 0.9647 0.8980
v -0.131901 0.299000 -0.205380 1.0000 0.9647 0.8980
v -0.121860 0.201033 -0.179044 1.0000 0.9647 0.8980
v -0.093268 0.117981 -0.104047 1.0000 0.9647 0.8980
v -0.050476 0.062487 0.008194 1.0000 0.9647 0.8980
v 0.000000 0.480019 -0.130937 1.0000 0.9647 0.8980
v 0.000000 0.201033 -0.214177 1.0000 0.9647 0.8980
v 0.000000 0.117981 -0.130937 1.0000 0.9647 0.8980
v 0.000000 0.819000 0.440592 0.3098 0.6393 0.8784
v 0.000000 0.695336 0.197887 0.3098 0.6393 0.8784
v 0.000000 0.519000 0.140592 0.3098 0.6393 0.8784
v 0.000000 0.426295 0.155275 0.3098 0.6393 0.8784
v 0.000000 0.342664 0.197887 0.3098 0.6393 0.8784
v 0.000000 0.233683 0.347887 0.3098 0.6393 0.8784
v 0.000000 0.219000 0.440592 0.3098 0.6393 0.8784
v 0.035477 0.804317 0.354944 0.3098 0.6393 0.8784
v 0.067481 0.761705 0.277679 0.3098 0.6393 0.8784
v 0.092879 0.695336 0.216362 0.3098 0.6393 0.8784
v 0.109186 0.611705 0.176994 0.3098 0.6393 0.8784
v 0.114805 0.519000 0.163428 0.3098 0.6393 0.8784
v 0.109186 0.426295 0.176994 0.3098 0.6393 0.8784
v 0.092879 0.342664 0.216362 0.3098 0.6393 0.8784
v 0.067481 0.276295 0.277679 0.3098 0.6393 0.8784
v 0.035477 0.233683 0.354944 0.3098 0.6393 0.8784
v 0.065552 0.804317 0.375040 0.3098 0.6393 0.8784
v 0.124688 0.761705 0.315904 0.3098 0.6393 0.8784
v 0.171618 0.695336 0.268974 0.3098 0.6393 0.8784
v 0.201750 0.611705 0.238843 0.3098 0.6393 0.8784
v 0.212132 0.519000 0.228460 0.3098 0.6393 0.8784
v 0.201750 0.426295 0.238843 0.3098 0.6393 0.8784
v 0.171618 0.342664 0.268974 0.3098 0.6393 0.8784
v 0.124688 0.276295 0.315904 0.3098 0.6393 0.8784
v 0.065552 0.233683 0.375040 0.3098 0.6393 0.8784
v 0.085648 0.804317 0.405116 0.3098 0.6393 0.8784
v 0.162913 0.761705 0.373112 0.3098 0.6393 0.8784
v 0.224230 0.695336 0.347713 0.3098 0.6393 0.8784
v 0.263598 0.611705 0.331406 0.3098 0.6393 0.8784
v 0.277164 0.519000 0.325787 0.3098 0.6393 0.8784
v 0.263598 0.426295 0.331406 0.3098 0.6393 0.8784
v 0.224230 0.342664 0.347713 0.3098 0.6393 0.8784
v 0.162913 0.276295 0.373112 0.3098 0.6393 0.8784
v 0.085648 0.233683 0.405116 0.3098 0.6393 0.8784
v 0.092705 0.804317 0.440592 0.3098 0.6393 0.8784
v 0.176336 0.761705 0.440592 0.3098 0.6393 0.8784
v 0.242705 0.695336 0.440592 0.3098 0.6393 0.8784
v 0.285317 0.611705 0.440592 0.3098 0.6393 0.8784
v 0.300000 0.519000 0.440592 0.3098 0.6393 0.8784
v 0.285317 0.426295 0.440592 0.3098 0.6393 0.8784
v 0.242705 0.342664 0.440592 0.3098 0.6393 0.8784
v 0.176336 0.276295 0.440592 0.3098 0.6393 0.8784
v 0.092705 0.233683 0.440592 0.3098 0.6393 0.8784
v 0.085648 0.804317 0.476069 0.3098 0.6393 0.8784
v 0.162913 0.761705 0.508073 0.3098 0.6393 0.8784
v 0.224230 0.695336 0.533471 0.3098 0.6393 0.8784
v 0.263598 0.611705 0.549778 0.3098 0.6393 0.8784
v 0.277164 0.519000 0.555397 0.3098 0.6393 0.8784
v 0.263598 0.426295 0.549778 0.3098 0.6393 0.8784
v 0.224230 0.342664 0.533471 0.3098 0.6393 0.8784
v 0.162913 0.276295 0.508073 0.3098 0.6393 0.8784
v 0.085648 0.233683 0.476069 0.3098 0.6393 0.8784
v 0.065552 0.804317 0.506145 0.3098 0.6393 0.8784
v 0.124688 0.761705 0.565280 0.3098 0.6393 0.8784
v 0.171618 0.695336 0.612211 0.3098 0.6393 0.8784
v 0.201749 0.611705 0.642342 0.3098 0.6393 0.8784
v 0.212132 0.519000 0.652724 0.3098 0.6393 0.8784
v 0.201749 0.426295 0.642342 0.3098 0.6393 0.8784
v 0.171618 0.342664 0.612211 0.3098 0.6393 0.8784
v 0.124688 0.276295 0.565280 0.3098 0.6393 0.8784
v 0.065552 0.233683 0.506145 0.3098 0.6393 0.8784
v 0.035477 0.804317 0.526241 0.3098 0.6393 0.8784
v 0.067481 0.761705 0.603505 0.3098 0.6393 0.8784
v 0.092879 0.695336 0.664823 0.3098 0.6393 0.8784
v 0.109186 0.611705 0.704191 0.3098 0.6393 0.8784
v 0.114805 0.519000 0.717756 0.3098 0.6393 0.8784
v 0.109186 0.426295 0.704191 0.3098 0.6393 0.8784
v 0.092879 0.342664 0.664823 0.3098 0.6393 0.8784
v 0.067481 0.276295 0.603505 0.3098 0.6393 0.8784
v 0.035477 0.233683 0.526241 0.3098 0.6393 0.8784
v -0.000000 0.804317 0.533297 0.3098 0.6393 0.8784
v -0.000000 0.761705 0.616928 0.3098 0.6393 0.8784
v -0.000000 0.695336 0.683297 0.3098 0.6393 0.8784
v -0.000000 0.611705 0.725909 0.3098 0.6393 0.8784
v -0.000000 0.519000 0.740592 0.3098 0.6393 0.8784
v -0.000000 0.426295 0.725909 0.3098 0.6393 0.8784
v -0.000000 0.342664 0.683297 0.3098 0.6393 0.8784
v -0.000000 0.276295 0.616928 0.3098 0.6393 0.8784
v -0.000000 0.233683 0.533297 0.3098 0.6393 0.8784
v -0.035477 0.804317 0.526241 0.3098 0.6393 0.8784
v -0.067481 0.761705 0.603505 0.3098 0.6393 0.8784
v -0.092879 0.695336 0.664822 0.3098 0.6393 0.8784
v -0.109186 0.611705 0.704191 0.3098 0.6393 0.8784
v -0.114805 0.519000 0.717756 0.3098 0.6393 0.8784
v -0.109186 0.426295 0.704191 0.3098 0.6393 0.8784
v -0.092879 0.342664 0.664822 0.3098 0.6393 0.8784
v -0.067481 0.276295 0.603505 0.3098 0.6393 0.8784
v -0.035477 0.233683 0.526241 0.3098 0.6393 0.8784
v -0.065552 0.804317 0.506145 0.3098 0.6393 0.8784
v -0.124688 0.761705 0.565280 0.3098 0.6393 0.8784
v -0.171618 0.695336 0.612211 0.3098 0.6393 0.8784
v -0.201750 0.611705 0.642342 0.3098 0.6393 0.8784
v -0.212132 0.519000 0.652724 0.3098 0.6393 0.8784
v -0.201750 0.426295 0.642342 0.3098 0.6393 0.8784
v -0.171618 0.342664 0.612211 0.3098 0.6393 0.8784
v -0.124688 0.276295 0.565280 0.3098 0.6393 0.8784
v -0.065552 0.233683 0.506145 0.3098 0.6393 0.8784
v -0.085648 0.804317 0.476069 0.3098 0.6393 0.8784
v -0.162913 0.761705 0.508073 0.3098 0.6393 0.8784
v -0.224230 0.695336 0.533471 0.3098 0.6393 0.8784
v -0.263598 0.611705 0.549778 0.3098 0.6393 0.8784
v -0.277164 0.519000 0.555397 0.3098 0.6393 0.8784
v -0.263598 0.426295 0.549778 0.3098 0.6393 0.8784
v -0.224230 0.342664 0.533471 0.3098 0.6393 0.8784
v -0.162913 0.276295 0.508073 0.3098 0.6393 0.8784
v -0.085648 0.233683 0.476069 0.3098 0.6393 0.8784
v -0.092705 0.804317 0.440592 0.3098 0.6393 0.8784
v -0.176336 0.761705 0.440592 0.3098 0.6393 0.8784
v -0.242705 0.695336 0.440592 0.3098 0.6393 0.8784
v -0.285317 0.611705 0.440592 0.3098 0.6393 0.8784
v -0.300000 0.519000 0.440592 0.3098 0.6393 0.8784
v -0.285317 0.426295 0.440592 0.3098 0.6393 0.8784
v -0.242705 0.342664 0.440592 0.3098 0.6393 0.8784
v -0.176336 0.276295 0.440592 0.3098 0.6393 0.8784
v -0.092705 0.233683 0.440592 0.3098 0.6393 0.8784
v -0.085648 0.804317 0.405116 0.3098 0.6393 0.8784
v -0.162913 0.761705 0.373111 0.3098 0.6393 0.8784
v -0.224230 0.695336 0.347713 0.3098 0.6393 0.8784
v -0.263598 0.611705 0.331406 0.3098 0.6393 0.8784
v -0.277164 0.519000 0.325787 0.3098 0.6393 0.8784
v -0.263598 0.426295 0.331406 0.3098 0.6393 0.8784
v -0.224230 0.342664 0.347713 0.3098 0.6393 0.8784
v -0.162913 0.276295 0.373111 0.3098 0.6393 0.8784
v -0.085648 0.233683 0.405116 0.3098 0.6393 0.8784
v -0.065552 0.804317 0.375040 0.3098 0.6393 0.8784
v -0.124688 0.761705 0.315904 0.3098 0.6393 0.8784
v -0.171618 0.695336 0.268974 0.3098 0.6393 0.8784
v -0.201749 0.611705 0.238843 0.3098 0.6393 0.8784
v -0.212132 0.519000 0.228460 0.3098 0.6393 0.8784
v -0.201749 0.426295 0.238843 0.3098 0.6393 0.8784
v -0.171618 0.342664 0.268974 0.3098 0.6393 0.8784
v -0.124688 0.276295 0.315904 0.3098 0.6393 0.8784
v -0.065552 0.233683 0.375040 0.3098 0.6393 0.8784
v -0.035477 0.804317 0.354944 0.3098 0.6393 0.8784
v -0.067481 0.761705 0.277679 0.3098 0.6393 0.8784
v -0.092879 0.695336 0.216362 0.3098 0.6393 0.8784
v -0.109186 0.611705 0.176994 0.3098 0.6393 0.8784
v -0.114805 0.519000 0.163428 0.3098 0.6393 0.8784
v -0.109186 0.426295 0.176994 0.3098 0.6393 0.8784
v -0.092879 0.342664 0.216362 0.3098 0.6393 0.8784
v -0.067481 0.276295 0.277679 0.3098 0.6393 0.8784
v -0.035477 0.233683 0.354944 0.3098 0.6393 0.8784
v 0.000000 0.804317 0.347887 0.3098 0.6393 0.8784
v 0.000000 0.761705 0.264257 0.3098 0.6393 0.8784
v 0.000000 0.611705 0.155275 0.3098 0.6393 0.8784
v 0.000000 0.276295 0.264257 0.3098 0.6393 0.8784
v 0.000000 0.599000 0.695592 1.0000 0.6039 0.2353
v 0.058779 0.579902 0.695592 1.0000 0.6039 0.2353
v 0.095106 0.529902 0.695592 1.0000 0.6039 0.2353
v 0.095106 0.468098 0.695592 1.0000 0.6039 0.2353
v 0.058779 0.418098 0.695592 1.0000 0.6039 0.2353
v 0.000000 0.399000 0.695592 1.0000 0.6039 0.2353
v -0.058779 0.418098 0.695592 1.0000 0.6039 0.2353
v -0.095106 0.468098 0.695592 1.0000 0.6039 0.2353
v -0.095106 0.529902 0.695592 1.0000 0.6039 0.2353
v -0.058779 0.579902 0.695592 1.0000 0.6039 0.2353
v 0.000000 0.499000 0.945592 1.0000 0.6039 0.2353
v -0.150000 0.680250 0.690592 0.1020 0.1020 0.1216
v -0.150000 0.664733 0.667669 0.1020 0.1020 0.1216
v -0.150000 0.624108 0.653501 0.1020 0.1020 0.1216
v -0.150000 0.573892 0.653501 0.1020 0.1020 0.1216
v -0.150000 0.533267 0.667669 0.1020 0.1020 0.1216
v -0.150000 0.517750 0.690592 0.1020 0.1020 0.1216
v -0.122984 0.664733 0.674383 0.1020 0.1020 0.1216
v -0.106288 0.624108 0.664365 0.1020 0.1020 0.1216
v -0.106288 0.573892 0.664365 0.1020 0.1020 0.1216
v -0.122984 0.533267 0.674383 0.1020 0.1020 0.1216
v -0.111794 0.664733 0.690592 0.1020 0.1020 0.1216
v -0.088181 0.624108 0.690592 0.1020 0.1020 0.1216
v -0.088181 0.573892 0.690592 0.1020 0.1020 0.1216
v -0.111794 0.533267 0.690592 0.1020 0.1020 0.1216
v -0.122984 0.664733 0.706802 0.1020 0.1020 0.1216
v -0.106288 0.624108 0.716820 0.1020 0.1020 0.1216
v -0.106288 0.573892 0.716820 0.1020 0.1020 0.1216
v -0.122984 0.533267 0.706802 0.1020 0.1020 0.1216
v -0.150000 0.664733 0.713516 0.1020 0.1020 0.1216
v -0.150000 0.624108 0.727683 0.1020 0.1020 0.1216
v -0.150000 0.573892 0.727683 0.1020 0.1020 0.1216
v -0.150000 0.533267 0.713516 0.1020 0.1020 0.1216
v -0.177016 0.664733 0.706802 0.1020 0.1020 0.1216
v -0.193712 0.624108 0.716820 0.1020 0.1020 0.1216
v -0.193712 0.573892 0.716820 0.1020 0.1020 0.1216
v -0.177016 0.533267 0.706802 0.1020 0.1020 0.1216
v -0.188206 0.664733 0.690592 0.1020 0.1020 0.1216
v -0.211819 0.624108 0.690592 0.1020 0.1020 0.1216
v -0.211819 0.573892 0.690592 0.1020 0.1020 0.1216
v -0.188206 0.533267 0.690592 0.1020 0.1020 0.1216
v -0.177016 0.664733 0.674383 0.1020 0.1020 0.1216
v -0.193712 0.624108 0.664365 0.1020 0.1020 0.1216
v -0.193712 0.573892 0.664365 0.1020 0.1020 0.1216
v -0.177016 0.533267 0.674383 0.1020 0.1020 0.1216
v -0.210000 0.508000 0.620592 1.0000 0.6197 0.7804
v -0.210000 0.493648 0.595844 1.0000 0.6197 0.7804
v -0.210000 0.459000 0.585592 1.0000 0.6197 0.7804
v -0.210000 0.424352 0.595844 1.0000 0.6197 0.7804
v -0.210000 0.410000 0.620592 1.0000 0.6197 0.7804
v -0.167134 0.493648 0.608218 1.0000 0.6197 0.7804
v -0.149378 0.459000 0.603092 1.0000 0.6197 0.7804
v -0.167134 0.424352 0.608218 1.0000 0.6197 0.7804
v -0.167134 0.493648 0.632967 1.0000 0.6197 0.7804
v -0.149378 0.459000 0.638092 1.0000 0.6197 0.7804
v -0.167134 0.424352 0.632967 1.0000 0.6197 0.7804
v -0.210000 0.493648 0.645341 1.0000 0.6197 0.7804
v -0.210000 0.459000 0.655592 1.0000 0.6197 0.7804
v -0.210000 0.424352 0.645341 1.0000 0.6197 0.7804
v -0.252866 0.493648 0.632967 1.0000 0.6197 0.7804
v -0.270622 0.459000 0.638092 1.0000 0.6197 0.7804
v -0.252866 0.424352 0.632967 1.0000 0.6197 0.7804
v -0.252866 0.493648 0.608218 1.0000 0.6197 0.7804
v -0.270622 0.459000 0.603092 1.0000 0.6197 0.7804
v -0.252866 0.424352 0.608218 1.0000 0.6197 0.7804
v -0.506201 0.504889 -0.097468 0.1843 0.4823 0.7529
v -0.483258 0.449000 -0.360839 0.1843 0.4823 0.7529
v -0.533799 0.393111 -0.101347 0.1843 0.4823 0.7529
v -0.386440 0.470950 -0.200734 0.1843 0.4823 0.7529
v -0.302466 0.431129 -0.276849 0.1843 0.4823 0.7529
v -0.276780 0.396097 -0.305419 0.1843 0.4823 0.7529
v -0.316265 0.375240 -0.278788 0.1843 0.4823 0.7529
v -0.410340 0.374147 -0.204093 0.1843 0.4823 0.7529
v -0.307287 0.449737 -0.152622 0.1843 0.4823 0.7529
v -0.165369 0.394388 -0.193517 0.1843 0.4823 0.7529
v -0.118474 0.353672 -0.209196 0.1843 0.4823 0.7529
v -0.179168 0.338499 -0.195457 0.1843 0.4823 0.7529
v -0.331188 0.352935 -0.155981 0.1843 0.4823 0.7529
v -0.267898 0.437966 -0.093638 0.1843 0.4823 0.7529
v -0.097145 0.373999 -0.091354 0.1843 0.4823 0.7529
v -0.039696 0.330128 -0.091228 0.1843 0.4823 0.7529
v -0.110944 0.318110 -0.093294 0.1843 0.4823 0.7529
v -0.291798 0.341163 -0.096998 0.1843 0.4823 0.7529
v -0.276073 0.437966 -0.035465 0.1843 0.4823 0.7529
v -0.111306 0.373999 0.009406 0.1843 0.4823 0.7529
v -0.056048 0.330128 0.025119 0.1843 0.4823 0.7529
v -0.125105 0.318110 0.007466 0.1843 0.4823 0.7529
v -0.299974 0.341163 -0.038824 0.1843 0.4823 0.7529
v -0.330195 0.449737 0.010377 0.1843 0.4823 0.7529
v -0.205047 0.394388 0.088806 0.1843 0.4823 0.7529
v -0.164291 0.353672 0.116803 0.1843 0.4823 0.7529
v -0.218846 0.338499 0.086866 0.1843 0.4823 0.7529
v -0.354096 0.352935 0.007018 0.1843 0.4823 0.7529
v -0.419543 0.470950 0.034807 0.1843 0.4823 0.7529
v -0.359802 0.431129 0.131120 0.1843 0.4823 0.7529
v -0.342986 0.396097 0.165663 0.1843 0.4823 0.7529
v -0.373601 0.375240 0.129181 0.1843 0.4823 0.7529
v -0.443443 0.374147 0.031448 0.1843 0.4823 0.7529
v -0.526420 0.497401 0.032987 0.1843 0.4823 0.7529
v -0.544920 0.476945 0.127968 0.1843 0.4823 0.7529
v -0.556742 0.449000 0.162023 0.1843 0.4823 0.7529
v -0.558719 0.421055 0.126028 0.1843 0.4823 0.7529
v -0.550321 0.400599 0.029628 0.1843 0.4823 0.7529
v -0.629660 0.523853 0.005277 0.1843 0.4823 0.7529
v -0.723735 0.522760 0.079973 0.1843 0.4823 0.7529
v -0.763220 0.501903 0.106603 0.1843 0.4823 0.7529
v -0.737534 0.466871 0.078033 0.1843 0.4823 0.7529
v -0.653560 0.427050 0.001918 0.1843 0.4823 0.7529
v -0.708812 0.545065 -0.042834 0.1843 0.4823 0.7529
v -0.860832 0.559501 -0.003359 0.1843 0.4823 0.7529
v -0.921525 0.544328 0.010380 0.1843 0.4823 0.7529
v -0.874631 0.503612 -0.005298 0.1843 0.4823 0.7529
v -0.732713 0.448263 -0.046193 0.1843 0.4823 0.7529
v -0.748201 0.556837 -0.101818 0.1843 0.4823 0.7529
v -0.929056 0.579890 -0.105522 0.1843 0.4823 0.7529
v -1.000304 0.567872 -0.107587 0.1843 0.4823 0.7529
v -0.942855 0.524001 -0.107461 0.1843 0.4823 0.7529
v -0.772102 0.460034 -0.105177 0.1843 0.4823 0.7529
v -0.740026 0.556837 -0.159992 0.1843 0.4823 0.7529
v -0.914895 0.579890 -0.206282 0.1843 0.4823 0.7529
v -0.983952 0.567872 -0.223935 0.1843 0.4823 0.7529
v -0.928694 0.524001 -0.208221 0.1843 0.4823 0.7529
v -0.763926 0.460034 -0.163351 0.1843 0.4823 0.7529
v -0.685904 0.545065 -0.205834 0.1843 0.4823 0.7529
v -0.821154 0.559501 -0.285682 0.1843 0.4823 0.7529
v -0.875709 0.544328 -0.315618 0.1843 0.4823 0.7529
v -0.834953 0.503612 -0.287621 0.1843 0.4823 0.7529
v -0.709805 0.448262 -0.209193 0.1843 0.4823 0.7529
v -0.596556 0.523853 -0.230264 0.1843 0.4823 0.7529
v -0.666399 0.522760 -0.327996 0.1843 0.4823 0.7529
v -0.697013 0.501903 -0.364479 0.1843 0.4823 0.7529
v -0.680198 0.466871 -0.329936 0.1843 0.4823 0.7529
v -0.620457 0.427050 -0.233623 0.1843 0.4823 0.7529
v -0.489679 0.497401 -0.228444 0.1843 0.4823 0.7529
v -0.481281 0.476944 -0.324844 0.1843 0.4823 0.7529
v -0.495080 0.421055 -0.326783 0.1843 0.4823 0.7529
v -0.513579 0.400599 -0.231803 0.1843 0.4823 0.7529
v 0.150000 0.680250 0.690592 0.1020 0.1020 0.1216
v 0.150000 0.664733 0.667669 0.1020 0.1020 0.1216
v 0.150000 0.624108 0.653501 0.1020 0.1020 0.1216
v 0.150000 0.573892 0.653501 0.1020 0.1020 0.1216
v 0.150000 0.533267 0.667669 0.1020 0.1020 0.1216
v 0.150000 0.517750 0.690592 0.1020 0.1020 0.1216
v 0.177016 0.664733 0.674383 0.1020 0.1020 0.1216
v 0.193712 0.624108 0.664365 0.1020 0.1020 0.1216
v 0.193712 0.573892 0.664365 0.1020 0.1020 0.1216
v 0.177016 0.533267 0.674383 0.1020 0.1020 0.1216
v 0.188206 0.664733 0.690592 0.1020 0.1020 0.1216
v 0.211819 0.624108 0.690592 0.1020 0.1020 0.1216
v 0.211819 0.573892 0.690592 0.1020 0.1020 0.1216
v 0.188206 0.533267 0.690592 0.1020 0.1020 0.1216
v 0.177016 0.664733 0.706802 0.1020 0.1020 0.1216
v 0.193712 0.624108 0.716820 0.1020 0.1020 0.1216
v 0.193712 0.573892 0.716820 0.1020 0.1020 0.1216
v 0.177016 0.533267 0.706802 0.1020 0.1020 0.1216
v 0.150000 0.664733 0.713516 0.1020 0.1020 0.1216
v 0.150000 0.624108 0.727683 0.1020 0.1020 0.1216
v 0.150000 0.573892 0.727683 0.1020 0.1020 0.1216
v 0.150000 0.533267 0.713516 0.1020 0.1020 0.1216
v 0.122984 0.664733 0.706802 0.1020 0.1020 0.1216
v 0.106288 0.624108 0.716820 0.1020 0.1020 0.1216
v 0.106288 0.573892 0.716820 0.1020 0.1020 0.1216
v 0.122984 0.533267 0.706802 0.1020 0.1020 0.1216
v 0.111794 0.664733 0.690592 0.1020 0.1020 0.1216
v 0.088181 0.624108 0.690592 0.1020 0.1020 0.1216
v 0.088181 0.573892 0.690592 0.1020 0.1020 0.1216
v 0.111794 0.533267 0.690592 0.1020 0.1020 0.1216
v 0.122984 0.664733 0.674383 0.1020 0.1020 0.1216
v 0.106288 0.624108 0.664365 0.1020 0.1020 0.1216
v 0.106288 0.573892 0.664365 0.1020 0.1020 0.1216
v 0.122984 0.533267 0.674383 0.1020 0.1020 0.1216
v 0.210000 0.508000 0.620592 1.0000 0.6197 0.7804
v 0.210000 0.493648 0.595844 1.0000 0.6197 0.7804
v 0.210000 0.459000 0.585592 1.0000 0.6197 0.7804
v 0.210000 0.424352 0.595844 1.0000 0.6197 0.7804
v 0.210000 0.410000 0.620592 1.0000 0.6197 0.7804
v 0.252866 0.493648 0.608218 1.0000 0.6197 0.7804
v 0.270622 0.459000 0.603092 1.0000 0.6197 0.7804
v 0.252866 0.424352 0.608218 1.0000 0.6197 0.7804
v 0.252866 0.493648 0.632967 1.0000 0.6197 0.7804
v 0.270622 0.459000 0.638092 1.0000 0.6197 0.7804
v 0.252866 0.424352 0.632967 1.0000 0.6197 0.7804
v 0.210000 0.493648 0.645341 1.0000 0.6197 0.7804
v 0.210000 0.459000 0.655592 1.0000 0.6197 0.7804
v 0.210000 0.424352 0.645341 1.0000 0.6197 0.7804
v 0.167134 0.493648 0.632967 1.0000 0.6197 0.7804
v 0.149378 0.459000 0.638092 1.0000 0.6197 0.7804
v 0.167134 0.424352 0.632967 1.0000 0.6197 0.7804
v 0.167134 0.493648 0.608218 1.0000 0.6197 0.7804
v 0.149378 0.459000 0.603092 1.0000 0.6197 0.7804
v 0.167134 0.424352 0.608218 1.0000 0.6197 0.7804
v 0.506201 0.504889 -0.097468 0.1843 0.4823 0.7529
v 0.483258 0.449000 -0.360839 0.1843 0.4823 0.7529
v 0.533799 0.393111 -0.101347 0.1843 0.4823 0.7529
v 0.596556 0.523853 -0.230264 0.1843 0.4823 0.7529
v 0.666399 0.522760 -0.327996 0.1843 0.4823 0.7529
v 0.697014 0.501903 -0.364479 0.1843 0.4823 0.7529
v 0.680198 0.466871 -0.329936 0.1843 0.4823 0.7529
v 0.620457 0.427050 -0.233623 0.1843 0.4823 0.7529
v 0.685904 0.545065 -0.205834 0.1843 0.4823 0.7529
v 0.821154 0.559501 -0.285682 0.1843 0.4823 0.7529
v 0.875709 0.544328 -0.315618 0.1843 0.4823 0.7529
v 0.834953 0.503612 -0.287621 0.1843 0.4823 0.7529
v 0.709805 0.448263 -0.209193 0.1843 0.4823 0.7529
v 0.740026 0.556837 -0.159992 0.1843 0.4823 0.7529
v 0.914895 0.579890 -0.206282 0.1843 0.4823 0.7529
v 0.983952 0.567872 -0.223935 0.1843 0.4823 0.7529
v 0.928694 0.524001 -0.208221 0.1843 0.4823 0.7529
v 0.763926 0.460034 -0.163351 0.1843 0.4823 0.7529
v 0.748201 0.556837 -0.101818 0.1843 0.4823 0.7529
v 0.929056 0.579890 -0.105522 0.1843 0.4823 0.7529
v 1.000304 0.567872 -0.107587 0.1843 0.4823 0.7529
v 0.942855 0.524001 -0.107461 0.1843 0.4823 0.7529
v 0.772102 0.460034 -0.105177 0.1843 0.4823 0.7529
v 0.708812 0.545065 -0.042834 0.1843 0.4823 0.7529
v 0.860831 0.559501 -0.003359 0.1843 0.4823 0.7529
v 0.921525 0.544328 0.010380 0.1843 0.4823 0.7529
v 0.874631 0.503612 -0.005298 0.1843 0.4823 0.7529
v 0.732713 0.448262 -0.046193 0.1843 0.4823 0.7529
v 0.629659 0.523853 0.005277 0.1843 0.4823 0.7529
v 0.723735 0.522760 0.079973 0.1843 0.4823 0.7529
v 0.763220 0.501903 0.106603 0.1843 0.4823 0.7529
v 0.737534 0.466871 0.078033 0.1843 0.4823 0.7529
v 0.653560 0.427050 0.001918 0.1843 0.4823 0.7529
v 0.526420 0.497401 0.032987 0.1843 0.4823 0.7529
v 0.544920 0.476944 0.127968 0.1843 0.4823 0.7529
v 0.556742 0.449000 0.162023 0.1843 0.4823 0.7529
v 0.558719 0.421055 0.126028 0.1843 0.4823 0.7529
v 0.550321 0.400599 0.029628 0.1843 0.4823 0.7529
v 0.419543 0.470950 0.034807 0.1843 0.4823 0.7529
v 0.359802 0.431129 0.131120 0.1843 0.4823 0.7529
v 0.342986 0.396097 0.165663 0.1843 0.4823 0.7529
v 0.373601 0.375240 0.129181 0.1843 0.4823 0.7529
v 0.443443 0.374147 0.031448 0.1843 0.4823 0.7529
v 0.330195 0.449737 0.010377 0.1843 0.4823 0.7529
v 0.205047 0.394388 0.088806 0.1843 0.4823 0.7529
v 0.164291 0.353672 0.116803 0.1843 0.4823 0.7529
v 0.218846 0.338499 0.086866 0.1843 0.4823 0.7529
v 0.354096 0.352935 0.007018 0.1843 0.4823 0.7529
v 0.276073 0.437966 -0.035465 0.1843 0.4823 0.7529
v 0.111306 0.373999 0.009405 0.1843 0.4823 0.7529
v 0.056048 0.330128 0.025119 0.1843 0.4823 0.7529
v 0.125105 0.318110 0.007466 0.1843 0.4823 0.7529
v 0.299974 0.341163 -0.038824 0.1843 0.4823 0.7529
v 0.267898 0.437966 -0.093639 0.1843 0.4823 0.7529
v 0.097145 0.373999 -0.091355 0.1843 0.4823 0.7529
v 0.039696 0.330128 -0.091228 0.1843 0.4823 0.7529
v 0.110944 0.318110 -0.093294 0.1843 0.4823 0.7529
v 0.291798 0.341163 -0.096998 0.1843 0.4823 0.7529
v 0.307287 0.449738 -0.152622 0.1843 0.4823 0.7529
v 0.165369 0.394388 -0.193518 0.1843 0.4823 0.7529
v 0.118475 0.353672 -0.209196 0.1843 0.4823 0.7529
v 0.179168 0.338499 -0.195457 0.1843 0.4823 0.7529
v 0.331188 0.352935 -0.155981 0.1843 0.4823 0.7529
v 0.386440 0.470950 -0.200734 0.1843 0.4823 0.7529
v 0.302466 0.431129 -0.276849 0.1843 0.4823 0.7529
v 0.276780 0.396097 -0.305419 0.1843 0.4823 0.7529
v 0.316265 0.375240 -0.278788 0.1843 0.4823 0.7529
v 0.410340 0.374147 -0.204093 0.1843 0.4823 0.7529
v 0.489679 0.497401 -0.228444 0.1843 0.4823 0.7529
v 0.481281 0.476945 -0.324844 0.1843 0.4823 0.7529
v 0.495080 0.421056 -0.326783 0.1843 0.4823 0.7529
v 0.513579 0.400599 -0.231803 0.1843 0.4823 0.7529
v 0.000000 0.565574 -0.577777 0.1843 0.4823 0.7529
v 0.000000 0.432426 -0.621039 0.1843 0.4823 0.7529
v 0.077000 0.605361 -0.730577 0.1843 0.4823 0.7529
v 0.133368 0.616649 -0.848230 0.1843 0.4823 0.7529
v 0.154000 0.596412 -0.899212 0.1843 0.4823 0.7529
v 0.133368 0.550075 -0.869862 0.1843 0.4823 0.7529
v 0.077000 0.490051 -0.768043 0.1843 0.4823 0.7529
v 0.133368 0.584775 -0.667221 0.1843 0.4823 0.7529
v 0.231000 0.580993 -0.738494 0.1843 0.4823 0.7529
v 0.266736 0.555241 -0.772500 0.1843 0.4823 0.7529
v 0.231000 0.514419 -0.760126 0.1843 0.4823 0.7529
v 0.133368 0.469466 -0.704687 0.1843 0.4823 0.7529
v 0.154000 0.556655 -0.580675 0.1843 0.4823 0.7529
v 0.266736 0.532287 -0.588592 0.1843 0.4823 0.7529
v 0.308000 0.499000 -0.599408 0.1843 0.4823 0.7529
v 0.266736 0.465713 -0.610223 0.1843 0.4823 0.7529
v 0.154000 0.441345 -0.618141 0.1843 0.4823 0.7529
v 0.133368 0.528534 -0.494128 0.1843 0.4823 0.7529
v 0.231000 0.483581 -0.438690 0.1843 0.4823 0.7529
v 0.266736 0.442759 -0.426315 0.1843 0.4823 0.7529
v 0.231000 0.417007 -0.460321 0.1843 0.4823 0.7529
v 0.133368 0.413225 -0.531595 0.1843 0.4823 0.7529
v 0.077000 0.507949 -0.430772 0.1843 0.4823 0.7529
v 0.133368 0.447925 -0.328954 0.1843 0.4823 0.7529
v 0.154000 0.401588 -0.299603 0.1843 0.4823 0.7529
v 0.133368 0.381351 -0.350585 0.1843 0.4823 0.7529
v 0.077000 0.392639 -0.468239 0.1843 0.4823 0.7529
v 0.000000 0.500414 -0.407582 0.1843 0.4823 0.7529
v 0.000000 0.434875 -0.288788 0.1843 0.4823 0.7529
v 0.000000 0.386518 -0.253223 0.1843 0.4823 0.7529
v 0.000000 0.368301 -0.310419 0.1843 0.4823 0.7529
v 0.000000 0.385104 -0.445049 0.1843 0.4823 0.7529
v -0.077000 0.507949 -0.430772 0.1843 0.4823 0.7529
v -0.133368 0.447925 -0.328954 0.1843 0.4823 0.7529
v -0.154000 0.401588 -0.299603 0.1843 0.4823 0.7529
v -0.133368 0.381351 -0.350585 0.1843 0.4823 0.7529
v -0.077000 0.392639 -0.468239 0.1843 0.4823 0.7529
v -0.133368 0.528534 -0.494128 0.1843 0.4823 0.7529
v -0.231000 0.483581 -0.438690 0.1843 0.4823 0.7529
v -0.266736 0.442759 -0.426315 0.1843 0.4823 0.7529
v -0.231000 0.417007 -0.460321 0.1843 0.4823 0.7529
v -0.133368 0.413225 -0.531595 0.1843 0.4823 0.7529
v -0.154000 0.556655 -0.580675 0.1843 0.4823 0.7529
v -0.266736 0.532287 -0.588592 0.1843 0.4823 0.7529
v -0.308000 0.499000 -0.599408 0.1843 0.4823 0.7529
v -0.266736 0.465713 -0.610223 0.1843 0.4823 0.7529
v -0.154000 0.441345 -0.618141 0.1843 0.4823 0.7529
v -0.133368 0.584775 -0.667221 0.1843 0.4823 0.7529
v -0.231000 0.580993 -0.738494 0.1843 0.4823 0.7529
v -0.266736 0.555241 -0.772500 0.1843 0.4823 0.7529
v -0.231000 0.514419 -0.760126 0.1843 0.4823 0.7529
v -0.133368 0.469466 -0.704687 0.1843 0.4823 0.7529
v -0.077000 0.605361 -0.730577 0.1843 0.4823 0.7529
v -0.133368 0.616649 -0.848230 0.1843 0.4823 0.7529
v -0.154000 0.596412 -0.899212 0.1843 0.4823 0.7529
v -0.133368 0.550075 -0.869862 0.1843 0.4823 0.7529
v -0.077000 0.490051 -0.768043 0.1843 0.4823 0.7529
v 0.000000 0.612896 -0.753767 0.1843 0.4823 0.7529
v -0.000000 0.629699 -0.888397 0.1843 0.4823 0.7529
v 0.000000 0.611482 -0.945592 0.1843 0.4823 0.7529
v -0.000000 0.563125 -0.910028 0.1843 0.4823 0.7529
v 0.000000 0.497586 -0.791233 0.1843 0.4823 0.7529
v 0.000000 0.911000 0.440592 0.3098 0.6393 0.8784
v 0.000000 0.889912 0.381195 0.3098 0.6393 0.8784
v 0.000000 0.839000 0.356592 0.3098 0.6393 0.8784
v 0.000000 0.788088 0.381195 0.3098 0.6393 0.8784
v 0.000000 0.767000 0.440592 0.3098 0.6393 0.8784
v 0.022045 0.889912 0.410894 0.3098 0.6393 0.8784
v 0.031177 0.839000 0.398592 0.3098 0.6393 0.8784
v 0.022045 0.788088 0.410894 0.3098 0.6393 0.8784
v 0.022045 0.889912 0.470291 0.3098 0.6393 0.8784
v 0.031177 0.839000 0.482592 0.3098 0.6393 0.8784
v 0.022045 0.788088 0.470291 0.3098 0.6393 0.8784
v -0.000000 0.889912 0.499989 0.3098 0.6393 0.8784
v -0.000000 0.839000 0.524592 0.3098 0.6393 0.8784
v -0.000000 0.788088 0.499989 0.3098 0.6393 0.8784
v -0.022045 0.889912 0.470291 0.3098 0.6393 0.8784
v -0.031177 0.839000 0.482592 0.3098 0.6393 0.8784
v -0.022045 0.788088 0.470291 0.3098 0.6393 0.8784
v -0.022045 0.889912 0.410894 0.3098 0.6393 0.8784
v -0.031177 0.839000 0.398592 0.3098 0.6393 0.8784
v -0.022045 0.788088 0.410894 0.3098 0.6393 0.8784
vn -0.0000 -0.6863 -0.7273
vn -0.0000 -0.3886 -0.9214
vn 0.4292 -0.3762 -0.8211
vn 0.3472 -0.6716 -0.6546
vn -0.0000 0.3886 -0.9214
vn -0.0000 0.6863 -0.7273
vn 0.3472 0.6716 -0.6546
vn 0.4292 0.3762 -0.8211
vn -0.0000 0.9678 -0.2518
vn -0.0000 1.0000 -0.0000
vn 0.1264 0.9651 -0.2292
vn -0.0000 -0.8714 -0.4906
vn 0.2404 -0.8623 -0.4456
vn -0.0000 -0.0000 -1.0000
vn 0.4610 -0.0000 -0.8874
vn -0.0000 0.8714 -0.4906
vn 0.2404 0.8623 -0.4456
vn -0.0000 -0.9678 -0.2518
vn 0.1264 -0.9651 -0.2292
vn -0.0000 -1.0000 -0.0000
vn 0.7353 -0.3495 -0.5806
vn 0.6063 -0.6391 -0.4732
vn 0.6063 0.6391 -0.4732
vn 0.7353 0.3495 -0.5806
vn 0.2264 0.9591 -0.1701
vn 0.4279 -0.8419 -0.3288
vn 0.7834 -0.0000 -0.6215
vn 0.4279 0.8419 -0.3288
vn 0.2264 -0.9591 -0.1701
vn 0.5414 0.8229 -0.1724
vn 0.7538 0.6103 -0.2436
vn 0.2881 -0.9534 -0.0896
vn 0.8985 -0.3266 -0.2931
vn 0.7538 -0.6103 -0.2436
vn 0.8985 0.3266 -0.2931
vn 0.2881 0.9534 -0.0896
vn 0.5414 -0.8229 -0.1724
vn 0.9504 -0.0000 -0.3111
vn 1.0000 -0.0000 -0.0000
vn 0.9480 -0.3182 -0.0000
vn 0.5789 0.8154 -0.0000
vn 0.8006 0.5992 -0.0000
vn 0.3087 -0.9512 -0.0000
vn 0.8006 -0.5992 -0.0000
vn 0.9480 0.3182 -0.0000
vn 0.3087 0.9512 -0.0000
vn 0.5789 -0.8154 -0.0000
vn 0.2881 0.9534 0.0896
vn 0.5414 0.8229 0.1724
vn 0.5414 -0.8229 0.1724
vn 0.2881 -0.9534 0.0896
vn 0.9504 -0.0000 0.3111
vn 0.8985 -0.3266 0.2931
vn 0.7538 0.6103 0.2436
vn 0.7538 -0.6103 0.2436
vn 0.8985 0.3266 0.2931
vn 0.6063 -0.6391 0.4732
vn 0.4279 -0.8419 0.3288
vn 0.7353 0.3495 0.5806
vn 0.7834 -0.0000 0.6215
vn 0.2264 0.9591 0.1701
vn 0.4279 0.8419 0.3288
vn 0.2264 -0.9591 0.1701
vn 0.7353 -0.3495 0.5806
vn 0.6063 0.6391 0.4732
vn 0.3472 0.6716 0.6546
vn 0.4292 0.3762 0.8211
vn 0.1264 0.9651 0.2292
vn 0.3472 -0.6716 0.6546
vn 0.2404 -0.8623 0.4456
vn 0.4610 -0.0000 0.8874
vn 0.2404 0.8623 0.4456
vn 0.1264 -0.9651 0.2292
vn 0.4292 -0.3762 0.8211
vn -0.0000 -0.3886 0.9214
vn -0.0000 -0.6863 0.7273
vn -0.0000 0.6863 0.7273
vn -0.0000 0.3886 0.9214
vn -0.0000 0.9678 0.2518
vn -0.0000 -0.8714 0.4906
vn -0.0000 -0.0000 1.0000
vn -0.0000 0.8714 0.4906
vn -0.0000 -0.9678 0.2518
vn -0.2404 0.8623 0.4456
vn -0.3472 0.6716 0.6546
vn -0.1264 -0.9651 0.2292
vn -0.4292 -0.3762 0.8211
vn -0.3472 -0.6716 0.6546
vn -0.4292 0.3762 0.8211
vn -0.1264 0.9651 0.2292
vn -0.2404 -0.8623 0.4456
vn -0.4610 -0.0000 0.8874
vn -0.4279 -0.8419 0.3288
vn -0.2264 -0.9591 0.1701
vn -0.7834 -0.0000 0.6215
vn -0.7353 -0.3495 0.5806
vn -0.4279 0.8419 0.3288
vn -0.6063 0.6391 0.4732
vn -0.6063 -0.6391 0.4732
vn -0.7353 0.3495 0.5806
vn -0.2264 0.9591 0.1701
vn -0.8985 0.3266 0.2931
vn -0.9504 -0.0000 0.3111
vn -0.2881 0.9534 0.0896
vn -0.5414 0.8229 0.1724
vn -0.5414 -0.8229 0.1724
vn -0.2881 -0.9534 0.0896
vn -0.8985 -0.3266 0.2931
vn -0.7538 0.6103 0.2436
vn -0.7538 -0.6103 0.2436
vn -0.3087 0.9512 -0.0000
vn -0.8006 -0.5992 -0.0000
vn -0.5789 -0.8154 -0.0000
vn -0.9480 0.3182 -0.0000
vn -1.0000 -0.0000 -0.0000
vn -0.5789 0.8154 -0.0000
vn -0.3087 -0.9512 -0.0000
vn -0.9480 -0.3182 -0.0000
vn -0.8006 0.5992 -0.0000
vn -0.7538 0.6103 -0.2436
vn -0.8985 0.3266 -0.2931
vn -0.2881 0.9534 -0.0896
vn -0.7538 -0.6103 -0.2436
vn -0.5414 -0.8229 -0.1724
vn -0.9504 -0.0000 -0.3111
vn -0.5414 0.8229 -0.1724
vn -0.2881 -0.9534 -0.0896
vn -0.8985 -0.3266 -0.2931
vn -0.2264 -0.9591 -0.1701
vn -0.7353 -0.3495 -0.5806
vn -0.6063 -0.6391 -0.4732
vn -0.6063 0.6391 -0.4732
vn -0.7353 0.3495 -0.5806
vn -0.2264 0.9591 -0.1701
vn -0.4279 -0.8419 -0.3288
vn -0.7834 -0.0000 -0.6215
vn -0.4279 0.8419 -0.3288
vn -0.4610 -0.0000 -0.8874
vn -0.4292 -0.3762 -0.8211
vn -0.2404 0.8623 -0.4456
vn -0.3472 0.6716 -0.6546
vn -0.1264 -0.9651 -0.2292
vn -0.3472 -0.6716 -0.6546
vn -0.4292 0.3762 -0.8211
vn -0.1264 0.9651 -0.2292
vn -0.2404 -0.8623 -0.4456
vn -0.0000 0.4944 -0.8692
vn -0.0000 0.8094 -0.5872
vn 0.3125 0.7972 -0.5165
vn 0.4459 0.4802 -0.7553
vn -0.0000 0.9554 -0.2953
vn 0.1623 0.9516 -0.2611
vn -0.0000 -0.9554 -0.2953
vn 0.1623 -0.9516 -0.2611
vn -0.0000 -0.8094 -0.5872
vn -0.0000 -0.4944 -0.8692
vn 0.4459 -0.4802 -0.7553
vn 0.3125 -0.7972 -0.5165
vn 0.5036 -0.0000 -0.8639
vn 0.7489 -0.4508 -0.4857
vn 0.5369 -0.7717 -0.3410
vn 0.7489 0.4508 -0.4857
vn 0.8366 -0.0000 -0.5479
vn 0.2818 0.9436 -0.1741
vn 0.5369 0.7717 -0.3410
vn 0.2818 -0.9436 -0.1741
vn 0.6477 -0.7528 -0.1178
vn 0.3424 -0.9376 -0.0605
vn 0.9830 -0.0000 -0.1836
vn 0.8879 -0.4297 -0.1645
vn 0.6477 0.7528 -0.1178
vn 0.8879 0.4297 -0.1645
vn 0.3424 0.9376 -0.0605
vn 0.9830 -0.0000 0.1836
vn 0.8879 -0.4297 0.1645
vn 0.6477 0.7528 0.1178
vn 0.8879 0.4297 0.1645
vn 0.3424 0.9376 0.0605
vn 0.3424 -0.9376 0.0605
vn 0.6477 -0.7528 0.1178
vn 0.2818 -0.9436 0.1741
vn 0.7489 -0.4508 0.4857
vn 0.5369 -0.7717 0.3410
vn 0.7489 0.4508 0.4857
vn 0.8366 -0.0000 0.5479
vn 0.2818 0.9436 0.1741
vn 0.5369 0.7717 0.3410
vn 0.4459 0.4802 0.7553
vn 0.5036 -0.0000 0.8639
vn 0.1623 0.9516 0.2611
vn 0.3125 0.7972 0.5165
vn 0.3125 -0.7972 0.5165
vn 0.1623 -0.9516 0.2611
vn 0.4459 -0.4802 0.7553
vn -0.0000 -0.8094 0.5872
vn -0.0000 -0.9554 0.2953
vn -0.0000 -0.4944 0.8692
vn -0.0000 0.8094 0.5872
vn -0.0000 0.4944 0.8692
vn -0.0000 0.9554 0.2953
vn -0.3125 0.7972 0.5165
vn -0.4459 0.4802 0.7553
vn -0.1623 0.9516 0.2611
vn -0.1623 -0.9516 0.2611
vn -0.4459 -0.4802 0.7553
vn -0.3125 -0.7972 0.5165
vn -0.5036 -0.0000 0.8639
vn -0.2818 -0.9436 0.1741
vn -0.7489 -0.4508 0.4857
vn -0.5369 -0.7717 0.3410
vn -0.7489 0.4508 0.4857
vn -0.8366 -0.0000 0.5479
vn -0.2818 0.9436 0.1741
vn -0.5369 0.7717 0.3410
vn -0.3424 0.9376 0.0605
vn -0.6477 0.7528 0.1178
vn -0.6477 -0.7528 0.1178
vn -0.3424 -0.9376 0.0605
vn -0.9830 -0.0000 0.1836
vn -0.8879 -0.4297 0.1645
vn -0.8879 0.4297 0.1645
vn -0.6477 -0.7528 -0.1178
vn -0.3424 -0.9376 -0.0605
vn -0.9830 -0.0000 -0.1836
vn -0.8879 -0.4297 -0.1645
vn -0.6477 0.7528 -0.1178
vn -0.8879 0.4297 -0.1645
vn -0.3424 0.9376 -0.0605
vn -0.2818 0.9436 -0.1741
vn -0.2818 -0.9436 -0.1741
vn -0.7489 -0.4508 -0.4857
vn -0.5369 -0.7717 -0.3410
vn -0.7489 0.4508 -0.4857
vn -0.8366 -0.0000 -0.5479
vn -0.5369 0.7717 -0.3410
vn -0.4459 -0.4802 -0.7553
vn -0.3125 -0.7972 -0.5165
vn -0.4459 0.4802 -0.7553
vn -0.5036 -0.0000 -0.8639
vn -0.1623 0.9516 -0.2611
vn -0.3125 0.7972 -0.5165
vn -0.1623 -0.9516 -0.2611
vn -0.0000 -0.5787 -0.8155
vn -0.0000 -0.3035 -0.9528
vn 0.3646 -0.3035 -0.8803
vn 0.3121 -0.5787 -0.7535
vn -0.0000 0.3035 -0.9528
vn -0.0000 0.5787 -0.8155
vn 0.3121 0.5787 -0.7535
vn 0.3646 0.3035 -0.8803
vn -0.0000 0.9452 -0.3265
vn 0.1249 0.9452 -0.3016
vn -0.0000 -0.7998 -0.6003
vn 0.2297 -0.7998 -0.5546
vn 0.3827 -0.0000 -0.9239
vn -0.0000 0.7998 -0.6003
vn 0.2297 0.7998 -0.5546
vn -0.0000 -0.9452 -0.3265
vn 0.1249 -0.9452 -0.3016
vn 0.6738 -0.3035 -0.6738
vn 0.5767 -0.5787 -0.5767
vn 0.5767 0.5787 -0.5767
vn 0.6738 0.3035 -0.6738
vn 0.2309 0.9452 -0.2309
vn 0.4245 -0.7998 -0.4245
vn 0.7071 -0.0000 -0.7071
vn 0.4245 0.7998 -0.4245
vn 0.2309 -0.9452 -0.2309
vn 0.5546 0.7998 -0.2297
vn 0.7535 0.5787 -0.3121
vn 0.3016 -0.9452 -0.1249
vn 0.8803 -0.3035 -0.3646
vn 0.7535 -0.5787 -0.3121
vn 0.8803 0.3035 -0.3646
vn 0.3016 0.9452 -0.1249
vn 0.5546 -0.7998 -0.2297
vn 0.9239 -0.0000 -0.3827
vn 0.9528 -0.3035 -0.0000
vn 0.6003 0.7998 -0.0000
vn 0.8155 0.5787 -0.0000
vn 0.3265 -0.9452 -0.0000
vn 0.8155 -0.5787 -0.0000
vn 0.9528 0.3035 -0.0000
vn 0.3265 0.9452 -0.0000
vn 0.6003 -0.7998 -0.0000
vn 0.3016 0.9452 0.1249
vn 0.5546 0.7998 0.2297
vn 0.5546 -0.7998 0.2297
vn 0.3016 -0.9452 0.1249
vn 0.9239 -0.0000 0.3827
vn 0.8803 -0.3035 0.3646
vn 0.7535 0.5787 0.3121
vn 0.7535 -0.5787 0.3121
vn 0.8803 0.3035 0.3646
vn 0.5767 -0.5787 0.5767
vn 0.4245 -0.7998 0.4245
vn 0.6738 0.3035 0.6738
vn 0.7071 -0.0000 0.7071
vn 0.2309 0.9452 0.2309
vn 0.4245 0.7998 0.4245
vn 0.2309 -0.9452 0.2309
vn 0.6738 -0.3035 0.6738
vn 0.5767 0.5787 0.5767
vn 0.3121 0.5787 0.7535
vn 0.3646 0.3035 0.8803
vn 0.1249 0.9452 0.3016
vn 0.3121 -0.5787 0.7535
vn 0.2297 -0.7998 0.5546
vn 0.3827 -0.0000 0.9239
vn 0.2297 0.7998 0.5546
vn 0.1249 -0.9452 0.3016
vn 0.3646 -0.3035 0.8803
vn -0.0000 -0.3035 0.9528
vn -0.0000 -0.5787 0.8155
vn -0.0000 0.5787 0.8155
vn -0.0000 0.3035 0.9528
vn -0.0000 0.9452 0.3265
vn -0.0000 -0.7998 0.6003
vn -0.0000 0.7998 0.6003
vn -0.0000 -0.9452 0.3265
vn -0.2297 0.7998 0.5546
vn -0.3121 0.5787 0.7535
vn -0.1249 -0.9452 0.3016
vn -0.3646 -0.3035 0.8803
vn -0.3121 -0.5787 0.7535
vn -0.3646 0.3035 0.8803
vn -0.1249 0.9452 0.3016
vn -0.2297 -0.7998 0.5546
vn -0.3827 -0.0000 0.9239
vn -0.4245 -0.7998 0.4245
vn -0.2309 -0.9452 0.2309
vn -0.7071 -0.0000 0.7071
vn -0.6738 -0.3035 0.6738
vn -0.4245 0.7998 0.4245
vn -0.5767 0.5787 0.5767
vn -0.5767 -0.5787 0.5767
vn -0.6738 0.3035 0.6738
vn -0.2309 0.9452 0.2309
vn -0.8803 0.3035 0.3646
vn -0.9239 -0.0000 0.3827
vn -0.3016 0.9452 0.1249
vn -0.5546 0.7998 0.2297
vn -0.5546 -0.7998 0.2297
vn -0.3016 -0.9452 0.1249
vn -0.8803 -0.3035 0.3646
vn -0.7535 0.5787 0.3121
vn -0.7535 -0.5787 0.3121
vn -0.3265 0.9452 -0.0000
vn -0.8155 -0.5787 -0.0000
vn -0.6003 -0.7998 -0.0000
vn -0.9528 0.3035 -0.0000
vn -0.6003 0.7998 -0.0000
vn -0.3265 -0.9452 -0.0000
vn -0.9528 -0.3035 -0.0000
vn -0.8155 0.5787 -0.0000
vn -0.7535 0.5787 -0.3121
vn -0.8803 0.3035 -0.3646
vn -0.3016 0.9452 -0.1249
vn -0.7535 -0.5787 -0.3121
vn -0.5546 -0.7998 -0.2297
vn -0.9239 -0.0000 -0.3827
vn -0.5546 0.7998 -0.2297
vn -0.3016 -0.9452 -0.1249
vn -0.8803 -0.3035 -0.3646
vn -0.2309 -0.9452 -0.2309
vn -0.6738 -0.3035 -0.6738
vn -0.5767 -0.5787 -0.5767
vn -0.5767 0.5787 -0.5767
vn -0.6738 0.3035 -0.6738
vn -0.2309 0.9452 -0.2309
vn -0.4245 -0.7998 -0.4245
vn -0.7071 -0.0000 -0.7071
vn -0.4245 0.7998 -0.4245
vn -0.3827 -0.0000 -0.9239
vn -0.3646 -0.3035 -0.8803
vn -0.2297 0.7998 -0.5546
vn -0.3121 0.5787 -0.7535
vn -0.1249 -0.9452 -0.3016
vn -0.3121 -0.5787 -0.7535
vn -0.3646 0.3035 -0.8803
vn -0.1249 0.9452 -0.3016
vn -0.2297 -0.7998 -0.5546
vn -0.0000 0.9285 0.3714
vn 0.5457 0.7512 0.3714
vn 0.8830 0.2869 0.3714
vn 0.8830 -0.2869 0.3714
vn 0.5457 -0.7512 0.3714
vn -0.0000 -0.9285 0.3714
vn -0.5457 -0.7512 0.3714
vn -0.8830 -0.2869 0.3714
vn -0.8830 0.2869 0.3714
vn -0.5457 0.7512 0.3714
vn -0.0000 -0.1629 -0.9866
vn -0.0000 0.1629 -0.9866
vn 0.5706 0.1983 -0.7969
vn 0.5706 -0.1983 -0.7969
vn -0.0000 0.5873 -0.8094
vn 0.4263 0.6427 -0.6366
vn -0.0000 -0.5873 -0.8094
vn 0.4263 -0.6427 -0.6366
vn 0.7146 -0.6995 -0.0000
vn 0.8065 0.1987 -0.5568
vn 0.8065 -0.1987 -0.5568
vn 0.7146 0.6995 -0.0000
vn 0.4263 -0.6427 0.6366
vn 0.8065 -0.1987 0.5568
vn 0.8065 0.1987 0.5568
vn 0.5706 0.1983 0.7969
vn 0.5706 -0.1983 0.7969
vn 0.4263 0.6427 0.6366
vn -0.0000 -0.5873 0.8094
vn -0.0000 0.1629 0.9866
vn -0.0000 -0.1629 0.9866
vn -0.0000 0.5873 0.8094
vn -0.4263 -0.6427 0.6366
vn -0.5706 0.1983 0.7969
vn -0.5706 -0.1983 0.7969
vn -0.4263 0.6427 0.6366
vn -0.7146 -0.6995 -0.0000
vn -0.8065 0.1987 0.5568
vn -0.8065 -0.1987 0.5568
vn -0.7146 0.6995 -0.0000
vn -0.4263 -0.6427 -0.6366
vn -0.8065 -0.1987 -0.5568
vn -0.8065 0.1987 -0.5568
vn -0.5706 0.1983 -0.7969
vn -0.5706 -0.1983 -0.7969
vn -0.4263 0.6427 -0.6366
vn -0.0000 -0.2837 -0.9589
vn 0.2774 -0.0000 -0.9608
vn 0.2668 -0.2734 -0.9242
vn -0.0000 0.8651 -0.5017
vn 0.2691 0.9484 -0.1679
vn -0.0000 -0.8651 -0.5017
vn 0.2691 -0.9484 -0.1679
vn -0.0000 0.2837 -0.9589
vn 0.2668 0.2734 -0.9242
vn 0.2691 -0.9484 0.1679
vn 0.8899 0.4561 -0.0000
vn 0.8899 -0.4561 -0.0000
vn 0.2691 0.9484 0.1679
vn -0.0000 0.8651 0.5017
vn -0.0000 -0.8651 0.5017
vn 0.2773 -0.0000 0.9608
vn 0.2668 0.2734 0.9242
vn -0.0000 0.2837 0.9589
vn 0.2668 -0.2734 0.9242
vn -0.0000 -0.2837 0.9589
vn -0.2773 -0.0000 0.9608
vn -0.2668 -0.2734 0.9242
vn -0.2691 0.9484 0.1679
vn -0.2691 -0.9484 0.1679
vn -0.2668 0.2734 0.9242
vn -0.8899 -0.4561 -0.0000
vn -0.2691 0.9484 -0.1679
vn -0.2691 -0.9484 -0.1679
vn -0.8899 0.4561 -0.0000
vn -0.2668 -0.2734 -0.9242
vn -0.2774 -0.0000 -0.9608
vn -0.2668 0.2734 -0.9242
vn 0.2736 0.7524 -0.5992
vn 0.2765 0.8674 -0.4137
vn 0.3703 0.8524 -0.3692
vn 0.4350 0.7388 -0.5148
vn 0.2569 0.9605 -0.1073
vn 0.2396 0.9703 0.0337
vn 0.2845 0.9542 -0.0926
vn -0.2396 -0.9703 -0.0337
vn -0.2174 -0.9605 -0.1739
vn -0.1902 -0.9687 -0.1593
vn -0.1518 -0.8674 -0.4739
vn -0.0979 -0.7524 -0.6514
vn 0.0499 -0.8209 -0.5689
vn -0.0625 -0.9006 -0.4300
vn -0.1684 -0.9782 -0.1216
vn 0.1442 -0.9159 -0.3746
vn 0.0114 -0.9479 -0.3185
vn 0.3077 0.9499 -0.0547
vn 0.4559 0.8524 -0.2560
vn 0.5595 0.7662 -0.3162
vn -0.1571 -0.9858 -0.0600
vn 0.1684 -0.9796 -0.1095
vn 0.0550 -0.9912 -0.1205
vn 0.3202 0.9473 0.0071
vn 0.5114 0.8575 -0.0564
vn 0.6063 0.7938 -0.0479
vn 0.1317 -0.9796 0.1517
vn 0.0196 -0.9912 0.1310
vn 0.3098 0.9473 0.0814
vn 0.4761 0.8575 0.1951
vn -0.1675 -0.9858 0.0143
vn 0.5696 0.7938 0.2132
vn 0.2807 0.9499 0.1374
vn 0.3676 0.8524 0.3717
vn -0.0769 -0.9479 0.3093
vn -0.1954 -0.9782 0.0705
vn 0.4507 0.7662 0.4582
vn 0.0354 -0.9159 0.3998
vn -0.1786 -0.9006 0.3962
vn -0.2268 -0.9687 0.1007
vn 0.2542 0.8524 0.4570
vn 0.2762 0.7388 0.6148
vn 0.2480 0.9542 0.1674
vn -0.1089 -0.8209 0.5606
vn -0.2765 -0.8674 0.4137
vn -0.2569 -0.9605 0.1073
vn 0.1518 0.8674 0.4739
vn 0.0979 0.7524 0.6514
vn 0.2174 0.9605 0.1739
vn -0.2736 -0.7524 0.5992
vn -0.3703 -0.8524 0.3692
vn -0.2845 -0.9542 0.0926
vn 0.0625 0.9006 0.4300
vn -0.0499 0.8209 0.5689
vn 0.1902 0.9687 0.1593
vn -0.4350 -0.7388 0.5148
vn -0.4559 -0.8524 0.2560
vn -0.3077 -0.9499 0.0547
vn -0.0114 0.9479 0.3185
vn -0.1442 0.9159 0.3746
vn 0.1684 0.9782 0.1216
vn -0.5595 -0.7662 0.3162
vn -0.0550 0.9912 0.1205
vn -0.1684 0.9796 0.1095
vn 0.1571 0.9858 0.0600
vn -0.3202 -0.9473 -0.0071
vn -0.6063 -0.7938 0.0479
vn -0.5114 -0.8575 0.0564
vn 0.1675 0.9858 -0.0143
vn -0.3098 -0.9473 -0.0814
vn -0.5696 -0.7938 -0.2132
vn -0.4760 -0.8575 -0.1951
vn -0.0196 0.9912 -0.1310
vn -0.1317 0.9796 -0.1517
vn -0.2807 -0.9499 -0.1374
vn -0.4507 -0.7662 -0.4582
vn -0.3676 -0.8524 -0.3717
vn 0.1954 0.9782 -0.0705
vn 0.0769 0.9479 -0.3093
vn -0.0354 0.9159 -0.3998
vn -0.2480 -0.9542 -0.1674
vn -0.2762 -0.7388 -0.6148
vn -0.2542 -0.8524 -0.4570
vn 0.2268 0.9687 -0.1007
vn 0.1786 0.9006 -0.3962
vn 0.1089 0.8209 -0.5606
vn -0.2736 0.7524 -0.5992
vn -0.2765 0.8674 -0.4137
vn -0.1786 0.9006 -0.3962
vn -0.1089 0.8209 -0.5606
vn -0.2569 0.9605 -0.1073
vn -0.2396 0.9703 0.0337
vn -0.2268 0.9687 -0.1007
vn 0.2396 -0.9703 -0.0337
vn 0.2174 -0.9605 -0.1739
vn 0.2480 -0.9542 -0.1674
vn 0.1518 -0.8674 -0.4739
vn 0.0979 -0.7524 -0.6514
vn 0.2762 -0.7388 -0.6148
vn 0.2542 -0.8524 -0.4570
vn 0.2807 -0.9499 -0.1374
vn 0.4507 -0.7662 -0.4582
vn 0.3676 -0.8524 -0.3717
vn -0.1954 0.9782 -0.0705
vn -0.0769 0.9479 -0.3093
vn 0.0354 0.9159 -0.3998
vn 0.3098 -0.9473 -0.0814
vn 0.5696 -0.7938 -0.2132
vn 0.4760 -0.8575 -0.1951
vn -0.1675 0.9858 -0.0143
vn 0.0196 0.9912 -0.1310
vn 0.1317 0.9796 -0.1517
vn 0.6063 -0.7938 0.0479
vn 0.5114 -0.8575 0.0564
vn -0.1571 0.9858 0.0600
vn 0.0550 0.9912 0.1205
vn 0.3202 -0.9473 -0.0071
vn 0.1684 0.9796 0.1095
vn -0.1684 0.9782 0.1216
vn 0.0114 0.9479 0.3185
vn 0.4559 -0.8524 0.2560
vn 0.3077 -0.9499 0.0547
vn 0.1442 0.9159 0.3746
vn 0.5595 -0.7662 0.3162
vn 0.3703 -0.8524 0.3692
vn 0.2845 -0.9542 0.0926
vn -0.0625 0.9006 0.4300
vn 0.0499 0.8209 0.5689
vn -0.1902 0.9687 0.1593
vn 0.4350 -0.7388 0.5148
vn 0.2765 -0.8674 0.4137
vn 0.2569 -0.9605 0.1073
vn -0.1518 0.8674 0.4739
vn -0.0979 0.7524 0.6514
vn -0.2174 0.9605 0.1739
vn 0.2736 -0.7524 0.5992
vn 0.1786 -0.9006 0.3962
vn 0.2268 -0.9687 0.1007
vn -0.2542 0.8524 0.4570
vn -0.2762 0.7388 0.6148
vn -0.2480 0.9542 0.1674
vn 0.1089 -0.8209 0.5606
vn 0.0769 -0.9479 0.3093
vn 0.1954 -0.9782 0.0705
vn -0.3676 0.8524 0.3717
vn -0.4507 0.7662 0.4582
vn -0.2807 0.9499 0.1374
vn -0.0354 -0.9159 0.3998
vn -0.4761 0.8575 0.1951
vn -0.5696 0.7938 0.2132
vn -0.3098 0.9473 0.0814
vn 0.1675 -0.9858 0.0143
vn -0.1317 -0.9796 0.1517
vn -0.0196 -0.9912 0.1310
vn -0.3202 0.9473 0.0071
vn 0.1571 -0.9858 -0.0600
vn -0.1684 -0.9796 -0.1095
vn -0.0550 -0.9912 -0.1205
vn -0.5114 0.8575 -0.0564
vn -0.6063 0.7938 -0.0479
vn 0.1684 -0.9782 -0.1216
vn -0.1442 -0.9159 -0.3746
vn -0.0114 -0.9479 -0.3185
vn -0.3077 0.9499 -0.0547
vn -0.4559 0.8524 -0.2560
vn -0.5595 0.7662 -0.3162
vn 0.1902 -0.9687 -0.1593
vn -0.0499 -0.8209 -0.5689
vn 0.0625 -0.9006 -0.4300
vn -0.2845 0.9542 -0.0926
vn -0.3703 0.8524 -0.3692
vn -0.4350 0.7388 -0.5148
vn -0.0000 0.9528 -0.3035
vn -0.0000 0.9916 -0.1292
vn 0.2505 0.9657 -0.0685
vn 0.3247 0.9168 -0.2325
vn -0.0000 0.9838 0.1791
vn -0.0000 0.9511 0.3090
vn 0.0797 0.9770 0.1977
vn -0.0000 -0.9511 -0.3090
vn -0.0000 -0.9012 -0.4334
vn 0.0797 -0.9066 -0.4144
vn -0.0000 -0.7263 -0.6874
vn -0.0000 -0.5925 -0.8056
vn 0.3247 -0.6050 -0.7270
vn 0.2505 -0.7410 -0.6231
vn 0.1342 -0.9208 -0.3663
vn 0.5615 -0.6477 -0.5150
vn 0.4171 -0.7804 -0.4658
vn 0.1342 0.9602 0.2449
vn 0.4171 0.9052 0.0819
vn 0.5615 0.8267 -0.0360
vn 0.1529 -0.9399 -0.3054
vn 0.6468 -0.7253 -0.2357
vn 0.4732 -0.8378 -0.2722
vn 0.1529 0.9399 0.3054
vn 0.4732 0.8378 0.2722
vn 0.6468 0.7253 0.2357
vn 0.5615 -0.8267 0.0360
vn 0.4171 -0.9052 -0.0819
vn 0.1342 0.9208 0.3663
vn 0.4171 0.7804 0.4658
vn 0.1342 -0.9602 -0.2449
vn 0.5615 0.6477 0.5150
vn 0.0797 0.9066 0.4144
vn 0.2505 0.7410 0.6231
vn 0.2505 -0.9657 0.0685
vn 0.0797 -0.9770 -0.1977
vn 0.3247 0.6050 0.7270
vn 0.3247 -0.9168 0.2325
vn -0.0000 -0.9916 0.1292
vn -0.0000 -0.9838 -0.1791
vn -0.0000 0.7263 0.6874
vn -0.0000 0.5925 0.8056
vn -0.0000 0.9012 0.4334
vn -0.0000 -0.9528 0.3035
vn -0.2505 -0.9657 0.0685
vn -0.0797 -0.9770 -0.1977
vn -0.2505 0.7410 0.6231
vn -0.3247 0.6050 0.7270
vn -0.0797 0.9066 0.4144
vn -0.3247 -0.9168 0.2325
vn -0.4171 -0.9052 -0.0819
vn -0.1342 -0.9602 -0.2449
vn -0.4171 0.7804 0.4658
vn -0.5615 0.6477 0.5150
vn -0.1342 0.9208 0.3663
vn -0.5615 -0.8267 0.0360
vn -0.4732 -0.8378 -0.2722
vn -0.1529 -0.9399 -0.3054
vn -0.4732 0.8378 0.2722
vn -0.6468 0.7253 0.2357
vn -0.1529 0.9399 0.3054
vn -0.6468 -0.7253 -0.2357
vn -0.4171 0.9052 0.0819
vn -0.5615 0.8267 -0.0360
vn -0.1342 0.9602 0.2449
vn -0.1342 -0.9208 -0.3663
vn -0.5615 -0.6477 -0.5150
vn -0.4171 -0.7804 -0.4658
vn -0.0797 0.9770 0.1977
vn -0.0797 -0.9066 -0.4144
vn -0.3247 -0.6050 -0.7270
vn -0.2505 -0.7410 -0.6231
vn -0.2505 0.9657 -0.0685
vn -0.3247 0.9168 -0.2325
vn 0.7716 -0.2768 -0.5728
vn 0.8030 -0.0000 -0.5960
vn 0.9392 -0.0000 -0.3432
vn 0.7970 -0.5424 -0.2657
vn 0.4109 0.8591 -0.3050
vn 0.5875 0.8092 -0.0000
vn 0.7970 0.5424 -0.2657
vn 0.5875 -0.8092 -0.0000
vn 0.4109 -0.8591 -0.3050
vn 0.7716 0.2768 -0.5728
vn 0.7970 -0.5424 0.2657
vn 0.7970 0.5424 0.2657
vn 0.9392 -0.0000 0.3432
vn 0.4109 0.8591 0.3050
vn 0.4109 -0.8591 0.3050
vn 0.7716 0.2768 0.5728
vn 0.8030 -0.0000 0.5960
vn 0.7716 -0.2768 0.5728
vn -0.7716 -0.2768 0.5728
vn -0.8030 -0.0000 0.5960
vn -0.9392 -0.0000 0.3432
vn -0.7970 -0.5424 0.2657
vn -0.4109 0.8591 0.3050
vn -0.5875 0.8092 -0.0000
vn -0.7970 0.5424 0.2657
vn -0.5875 -0.8092 -0.0000
vn -0.4109 -0.8591 0.3050
vn -0.7716 0.2768 0.5728
vn -0.9392 -0.0000 -0.3432
vn -0.7970 -0.5424 -0.2657
vn -0.7970 0.5424 -0.2657
vn -0.8030 -0.0000 -0.5960
vn -0.7716 -0.2768 -0.5728
vn -0.4109 0.8591 -0.3050
vn -0.4109 -0.8591 -0.3050
vn -0.7716 0.2768 -0.5728
s 1
usemtl bird
f 5//1 145//2 13//3 14//4
f 3//5 2//6 10//7 11//8
f 143//9 1//10 8//11
f 146//12 5//1 14//4 15//13
f 4//14 3//5 11//8 12//15
f 144//16 143//9 8//11 9//17
f 6//18 146//12 15//13 16//19
f 145//2 4//14 12//15 13//3
f 2//6 144//16 9//17 10//7
f 7//20 6//18 16//19
f 14//4 13//3 22//21 23//22
f 11//8 10//7 19//23 20//24
f 8//11 1//10 17//25
f 15//13 14//4 23//22 24//26
f 12//15 11//8 20//24 21//27
f 9//17 8//11 17//25 18//28
f 16//19 15//13 24//26 25//29
f 13//3 12//15 21//27 22//21
f 10//7 9//17 18//28 19//23
f 7//20 16//19 25//29
f 19//23 18//28 27//30 28//31
f 7//20 25//29 34//32
f 23//22 22//21 31//33 32//34
f 20//24 19//23 28//31 29//35
f 17//25 1//10 26//36
f 24//26 23//22 32//34 33//37
f 21//27 20//24 29//35 30//38
f 18//28 17//25 26//36 27//30
f 25//29 24//26 33//37 34//32
f 22//21 21//27 30//38 31//33
f 31//33 30//38 39//39 40//40
f 28//31 27//30 36//41 37//42
f 7//20 34//32 43//43
f 32//34 31//33 40//40 41//44
f 29//35 28//31 37//42 38//45
f 26//36 1//10 35//46
f 33//37 32//34 41//44 42//47
f 30//38 29//35 38//45 39//39
f 27//30 26//36 35//46 36//41
f 34//32 33//37 42//47 43//43
f 36//41 35//46 44//48 45//49
f 43//43 42//47 51//50 52//51
f 40//40 39//39 48//52 49//53
f 37//42 36//41 45//49 46//54
f 7//20 43//43 52//51
f 41//44 40//40 49//53 50//55
f 38//45 37//42 46//54 47//56
f 35//46 1//10 44//48
f 42//47 41//44 50//55 51//50
f 39//39 38//45 47//56 48//52
f 51//50 50//55 59//57 60//58
f 48//52 47//56 56//59 57//60
f 45//49 44//48 53//61 54//62
f 52//51 51//50 60//58 61//63
f 49//53 48//52 57//60 58//64
f 46//54 45//49 54//62 55//65
f 7//20 52//51 61//63
f 50//55 49//53 58//64 59//57
f 47//56 46//54 55//65 56//59
f 44//48 1//10 53//61
f 56//59 55//65 64//66 65//67
f 53//61 1//10 62//68
f 60//58 59//57 68//69 69//70
f 57//60 56//59 65//67 66//71
f 54//62 53//61 62//68 63//72
f 61//63 60//58 69//70 70//73
f 58//64 57//60 66//71 67//74
f 55//65 54//62 63//72 64//66
f 7//20 61//63 70//73
f 59//57 58//64 67//74 68//69
f 68//69 67//74 76//75 77//76
f 65//67 64//66 73//77 74//78
f 62//68 1//10 71//79
f 69//70 68//69 77//76 78//80
f 66//71 65//67 74//78 75//81
f 63//72 62//68 71//79 72//82
f 70//73 69//70 78//80 79//83
f 67//74 66//71 75//81 76//75
f 64//66 63//72 72//82 73//77
f 7//20 70//73 79//83
f 73//77 72//82 81//84 82//85
f 7//20 79//83 88//86
f 77//76 76//75 85//87 86//88
f 74//78 73//77 82//85 83//89
f 71//79 1//10 80//90
f 78//80 77//76 86//88 87//91
f 75//81 74//78 83//89 84//92
f 72//82 71//79 80//90 81//84
f 79//83 78//80 87//91 88//86
f 76//75 75//81 84//92 85//87
f 88//86 87//91 96//93 97//94
f 85//87 84//92 93//95 94//96
f 82//85 81//84 90//97 91//98
f 7//20 88//86 97//94
f 86//88 85//87 94//96 95//99
f 83//89 82//85 91//98 92//100
f 80//90 1//10 89//101
f 87//91 86//88 95//99 96//93
f 84//92 83//89 92//100 93//95
f 81//84 80//90 89//101 90//97
f 93//95 92//100 101//102 102//103
f 90//97 89//101 98//104 99//105
f 97//94 96//93 105//106 106//107
f 94//96 93//95 102//103 103//108
f 91//98 90//97 99//105 100//109
f 7//20 97//94 106//107
f 95//99 94//96 103//108 104//110
f 92//100 91//98 100//109 101//102
f 89//101 1//10 98//104
f 96//93 95//99 104//110 105//106
f 98//104 1//10 107//111
f 105//106 104//110 113//112 114//113
f 102//103 101//102 110//114 111//115
f 99//105 98//104 107//111 108//116
f 106//107 105//106 114//113 115//117
f 103//108 102//103 111//115 112//118
f 100//109 99//105 108//116 109//119
f 7//20 106//107 115//117
f 104//110 103//108 112//118 113//112
f 101//102 100//109 109//119 110//114
f 110//114 109//119 118//120 119//121
f 107//111 1//10 116//122
f 114//113 113//112 122//123 123//124
f 111//115 110//114 119//121 120//125
f 108//116 107//111 116//122 117//126
f 115//117 114//113 123//124 124//127
f 112//118 111//115 120//125 121//128
f 109//119 108//116 117//126 118//120
f 7//20 115//117 124//127
f 113//112 112//118 121//128 122//123
f 7//20 124//127 133//129
f 122//123 121//128 130//130 131//131
f 119//121 118//120 127//132 128//133
f 116//122 1//10 125//134
f 123//124 122//123 131//131 132//135
f 120//125 119//121 128//133 129//136
f 117//126 116//122 125//134 126//137
f 124//127 123//124 132//135 133//129
f 121//128 120//125 129//136 130//130
f 118//120 117//126 126//137 127//132
f 130//130 129//136 138//138 139//139
f 127//132 126//137 135//140 136//141
f 7//20 133//129 142//142
f 131//131 130//130 139//139 140//143
f 128//133 127//132 136//141 137//144
f 125//134 1//10 134//145
f 132//135 131//131 140//143 141//146
f 129//136 128//133 137//144 138//138
f 126//137 125//134 134//145 135//140
f 133//129 132//135 141//146 142//142
f 135//140 134//145 143//9 144//16
f 142//142 141//146 146//12 6//18
f 139//139 138//138 4//14 145//2
f 136//141 135//140 144//16 2//6
f 7//20 142//142 6//18
f 140//143 139//139 145//2 5//1
f 137//144 136//141 2//6 3//5
f 134//145 1//10 143//9
f 141//146 140//143 5//1 146//12
f 138//138 137//144 3//5 4//14
f 251//243 250//244 259//245 260//246
f 391//247 248//248 256//249 257//250
f 389//251 247//10 254//252
f 392//253 251//243 260//246 261//254
f 249//14 391//247 257//250 258//255
f 390//256 389//251 254//252 255//257
f 252//258 392//253 261//254 262//259
f 250//244 249//14 258//255 259//245
f 248//248 390//256 255//257 256//249
f 253//20 252//258 262//259
f 260//246 259//245 268//260 269//261
f 257//250 256//249 265//262 266//263
f 254//252 247//10 263//264
f 261//254 260//246 269//261 270//265
f 258//255 257//250 266//263 267//266
f 255//257 254//252 263//264 264//267
f 262//259 261//254 270//265 271//268
f 259//245 258//255 267//266 268//260
f 256//249 255//257 264//267 265//262
f 253//20 262//259 271//268
f 265//262 264//267 273//269 274//270
f 253//20 271//268 280//271
f 269//261 268//260 277//272 278//273
f 266//263 265//262 274//270 275//274
f 263//264 247//10 272//275
f 270//265 269//261 278//273 279//276
f 267//266 266//263 275//274 276//277
f 264//267 263//264 272//275 273//269
f 271//268 270//265 279//276 280//271
f 268//260 267//266 276//277 277//272
f 277//272 276//277 285//39 286//278
f 274//270 273//269 282//279 283//280
f 253//20 280//271 289//281
f 278//273 277//272 286//278 287//282
f 275//274 274//270 283//280 284//283
f 272//275 247//10 281//284
f 279//276 278//273 287//282 288//285
f 276//277 275//274 284//283 285//39
f 273//269 272//275 281//284 282//279
f 280//271 279//276 288//285 289//281
f 282//279 281//284 290//286 291//287
f 289//281 288//285 297//288 298//289
f 286//278 285//39 294//290 295//291
f 283//280 282//279 291//287 292//292
f 253//20 289//281 298//289
f 287//282 286//278 295//291 296//293
f 284//283 283//280 292//292 293//294
f 281//284 247//10 290//286
f 288//285 287//282 296//293 297//288
f 285//39 284//283 293//294 294//290
f 297//288 296//293 305//295 306//296
f 294//290 293//294 302//297 303//298
f 291//287 290//286 299//299 300//300
f 298//289 297//288 306//296 307//301
f 295//291 294//290 303//298 304//302
f 292//292 291//287 300//300 301//303
f 253//20 298//289 307//301
f 296//293 295//291 304//302 305//295
f 293//294 292//292 301//303 302//297
f 290//286 247//10 299//299
f 302//297 301//303 310//304 311//305
f 299//299 247//10 308//306
f 306//296 305//295 314//307 315//308
f 303//298 302//297 311//305 312//309
f 300//300 299//299 308//306 309//310
f 307//301 306//296 315//308 316//311
f 304//302 303//298 312//309 313//312
f 301//303 300//300 309//310 310//304
f 253//20 307//301 316//311
f 305//295 304//302 313//312 314//307
f 314//307 313//312 322//313 323//314
f 311//305 310//304 319//315 320//316
f 308//306 247//10 317//317
f 315//308 314//307 323//314 324//318
f 312//309 311//305 320//316 321//81
f 309//310 308//306 317//317 318//319
f 316//311 315//308 324//318 325//320
f 313//312 312//309 321//81 322//313
f 310//304 309//310 318//319 319//315
f 253//20 316//311 325//320
f 319//315 318//319 327//321 328//322
f 253//20 325//320 334//323
f 323//314 322//313 331//324 332//325
f 320//316 319//315 328//322 329//326
f 317//317 247//10 326//327
f 324//318 323//314 332//325 333//328
f 321//81 320//316 329//326 330//329
f 318//319 317//317 326//327 327//321
f 325//320 324//318 333//328 334//323
f 322//313 321//81 330//329 331//324
f 334//323 333//328 342//330 343//331
f 331//324 330//329 339//332 340//333
f 328//322 327//321 336//334 337//335
f 253//20 334//323 343//331
f 332//325 331//324 340//333 341//336
f 329//326 328//322 337//335 338//337
f 326//327 247//10 335//338
f 333//328 332//325 341//336 342//330
f 330//329 329//326 338//337 339//332
f 327//321 326//327 335//338 336//334
f 339//332 338//337 347//339 348//340
f 336//334 335//338 344//341 345//342
f 343//331 342//330 351//343 352//344
f 340//333 339//332 348//340 349//345
f 337//335 336//334 345//342 346//346
f 253//20 343//331 352//344
f 341//336 340//333 349//345 350//347
f 338//337 337//335 346//346 347//339
f 335//338 247//10 344//341
f 342//330 341//336 350//347 351//343
f 344//341 247//10 353//348
f 351//343 350//347 359//349 360//350
f 348//340 347//339 356//351 357//115
f 345//342 344//341 353//348 354//352
f 352//344 351//343 360//350 361//353
f 349//345 348//340 357//115 358//354
f 346//346 345//342 354//352 355//355
f 253//20 352//344 361//353
f 350//347 349//345 358//354 359//349
f 347//339 346//346 355//355 356//351
f 356//351 355//355 364//356 365//357
f 353//348 247//10 362//358
f 360//350 359//349 368//359 369//360
f 357//115 356//351 365//357 366//361
f 354//352 353//348 362//358 363//362
f 361//353 360//350 369//360 370//363
f 358//354 357//115 366//361 367//364
f 355//355 354//352 363//362 364//356
f 253//20 361//353 370//363
f 359//349 358//354 367//364 368//359
f 253//20 370//363 379//365
f 368//359 367//364 376//366 377//367
f 365//357 364//356 373//368 374//369
f 362//358 247//10 371//370
f 369//360 368//359 377//367 378//371
f 366//361 365//357 374//369 375//372
f 363//362 362//358 371//370 372//373
f 370//363 369//360 378//371 379//365
f 367//364 366//361 375//372 376//366
f 364//356 363//362 372//373 373//368
f 376//366 375//372 384//374 385//375
f 373//368 372//373 381//376 382//377
f 253//20 379//365 388//378
f 377//367 376//366 385//375 386//379
f 374//369 373//368 382//377 383//380
f 371//370 247//10 380//381
f 378//371 377//367 386//379 387//382
f 375//372 374//369 383//380 384//374
f 372//373 371//370 380//381 381//376
f 379//365 378//371 387//382 388//378
f 381//376 380//381 389//251 390//256
f 388//378 387//382 392//253 252//258
f 385//375 384//374 249//14 250//244
f 382//377 381//376 390//256 248//248
f 253//20 388//378 252//258
f 386//379 385//375 250//244 251//243
f 383//380 382//377 248//248 391//247
f 380//381 247//10 389//251
f 387//382 386//379 251//243 392//253
f 384//374 383//380 391//247 249//14
f 721//707 720//708 724//709 725//710
f 719//711 718//712 723//713
f 722//714 721//715 725//710
f 720//708 719//716 723//713 724//709
f 722//714 725//710 728//717
f 724//709 723//713 726//718 727//719
f 725//710 724//709 727//719 728//717
f 723//713 718//712 726//718
f 726//718 718//712 729//720
f 722//714 728//717 731//721
f 727//719 726//718 729//722 730//723
f 728//717 727//719 730//723 731//724
f 731//725 730//726 733//727 734//728
f 729//729 718//730 732//731
f 722//732 731//733 734//728
f 730//726 729//734 732//731 733//727
f 734//728 733//727 736//735 737//736
f 732//731 718//730 735//737
f 722//732 734//728 737//736
f 733//727 732//731 735//737 736//735
f 737//736 736//735 720//738 721//739
f 735//737 718//730 719//740
f 722//732 737//736 721//741
f 736//735 735//737 719//742 720//738
usemtl cream
f 149//147 244//148 154//149 155//150
f 148//151 147//10 153//152
f 152//20 151//153 159//154
f 246//155 245//156 157//157 158//158
f 150//14 149//147 155//150 156//159
f 244//148 148//151 153//152 154//149
f 151//153 246//155 158//158 159//154
f 245//156 150//14 156//159 157//157
f 158//158 157//157 164//160 165//161
f 156//159 155//150 162//162 163//163
f 154//149 153//152 160//164 161//165
f 159//154 158//158 165//161 166//166
f 157//157 156//159 163//163 164//160
f 155//150 154//149 161//165 162//162
f 153//152 147//10 160//164
f 152//20 159//154 166//166
f 166//166 165//161 172//167 173//168
f 164//160 163//163 170//169 171//170
f 162//162 161//165 168//171 169//172
f 160//164 147//10 167//173
f 152//20 166//166 173//168
f 165//161 164//160 171//170 172//167
f 163//163 162//162 169//172 170//169
f 161//165 160//164 167//173 168//171
f 171//170 170//169 177//174 178//175
f 169//172 168//171 175//176 176//177
f 167//173 147//10 174//178
f 152//20 173//168 180//179
f 172//167 171//170 178//175 179//180
f 170//169 169//172 176//177 177//174
f 168//171 167//173 174//178 175//176
f 173//168 172//167 179//180 180//179
f 152//20 180//179 187//181
f 179//180 178//175 185//182 186//183
f 177//174 176//177 183//184 184//185
f 175//176 174//178 181//186 182//187
f 180//179 179//180 186//183 187//181
f 178//175 177//174 184//185 185//182
f 176//177 175//176 182//187 183//184
f 174//178 147//10 181//186
f 184//185 183//184 190//188 191//189
f 182//187 181//186 188//190 189//191
f 187//181 186//183 193//192 194//193
f 185//182 184//185 191//189 192//194
f 183//184 182//187 189//191 190//188
f 181//186 147//10 188//190
f 152//20 187//181 194//193
f 186//183 185//182 192//194 193//192
f 194//193 193//192 200//195 201//196
f 192//194 191//189 198//81 199//197
f 190//188 189//191 196//198 197//199
f 188//190 147//10 195//200
f 152//20 194//193 201//196
f 193//192 192//194 199//197 200//195
f 191//189 190//188 197//199 198//81
f 189//191 188//190 195//200 196//198
f 197//199 196//198 203//201 204//202
f 195//200 147//10 202//203
f 152//20 201//196 208//204
f 200//195 199//197 206//205 207//206
f 198//81 197//199 204//202 205//207
f 196//198 195//200 202//203 203//201
f 201//196 200//195 207//206 208//204
f 199//197 198//81 205//207 206//205
f 152//20 208//204 215//208
f 207//206 206//205 213//209 214//210
f 205//207 204//202 211//211 212//212
f 203//201 202//203 209//213 210//214
f 208//204 207//206 214//210 215//208
f 206//205 205//207 212//212 213//209
f 204//202 203//201 210//214 211//211
f 202//203 147//10 209//213
f 210//214 209//213 216//215 217//216
f 215//208 214//210 221//217 222//218
f 213//209 212//212 219//219 220//220
f 211//211 210//214 217//216 218//221
f 209//213 147//10 216//215
f 152//20 215//208 222//218
f 214//210 213//209 220//220 221//217
f 212//212 211//211 218//221 219//219
f 222//218 221//217 228//222 229//223
f 220//220 219//219 226//224 227//225
f 218//221 217//216 224//226 225//227
f 216//215 147//10 223//228
f 152//20 222//218 229//223
f 221//217 220//220 227//225 228//222
f 219//219 218//221 225//227 226//224
f 217//216 216//215 223//228 224//226
f 223//228 147//10 230//229
f 152//20 229//223 236//230
f 228//222 227//225 234//231 235//232
f 226//224 225//227 232//233 233//234
f 224//226 223//228 230//229 231//235
f 229//223 228//222 235//232 236//230
f 227//225 226//224 233//234 234//231
f 225//227 224//226 231//235 232//233
f 235//232 234//231 241//236 242//237
f 233//234 232//233 239//238 240//239
f 231//235 230//229 237//240 238//241
f 236//230 235//232 242//237 243//242
f 234//231 233//234 240//239 241//236
f 232//233 231//235 238//241 239//238
f 230//229 147//10 237//240
f 152//20 236//230 243//242
f 243//242 242//237 246//155 151//153
f 241//236 240//239 150//14 245//156
f 239//238 238//241 244//148 149//147
f 237//240 147//10 148//151
f 152//20 243//242 151//153
f 242//237 241//236 245//156 246//155
f 240//239 239//238 149//147 150//14
f 238//241 237//240 148//151 244//148
usemtl orange
f 393//383 403//81 394//384
f 394//384 403//81 395//385
f 395//385 403//81 396//386
f 396//386 403//81 397//387
f 397//387 403//81 398//388
f 398//388 403//81 399//389
f 399//389 403//81 400//390
f 400//390 403//81 401//391
f 393//14 394//14 395//14 396//14 397//14 398//14 399//14 400//14 401//14 402//14
f 401//391 403//81 402//392
f 402//392 403//81 393//383
usemtl black
f 407//393 406//394 411//395 412//396
f 405//397 404//10 410//398
f 408//399 407//393 412//396 413//400
f 406//394 405//397 410//398 411//395
f 409//20 408//399 413//400
f 409//20 413//400 417//401
f 412//396 411//395 415//402 416//403
f 410//398 404//10 414//404
f 413//400 412//396 416//403 417//401
f 411//395 410//398 414//404 415//402
f 409//20 417//401 421//405
f 416//406 415//407 419//408 420//409
f 414//404 404//10 418//410
f 417//401 416//406 420//409 421//405
f 415//407 414//404 418//410 419//408
f 409//20 421//405 425//411
f 420//409 419//408 423//412 424//413
f 418//410 404//10 422//414
f 421//405 420//409 424//413 425//411
f 419//408 418//410 422//414 423//412
f 409//20 425//411 429//415
f 424//413 423//412 427//416 428//417
f 422//414 404//10 426//418
f 425//411 424//413 428//417 429//415
f 423//412 422//414 426//418 427//416
f 409//20 429//415 433//419
f 428//417 427//416 431//420 432//421
f 426//418 404//10 430//422
f 429//415 428//417 432//421 433//419
f 427//416 426//418 430//422 431//420
f 409//20 433//419 437//423
f 432//424 431//425 435//426 436//427
f 430//422 404//10 434//428
f 433//419 432//424 436//427 437//423
f 431//425 430//422 434//428 435//426
f 409//20 437//423 408//399
f 436//427 435//426 406//394 407//393
f 434//428 404//10 405//397
f 437//423 436//427 407//393 408//399
f 435//426 434//428 405//397 406//394
f 533//393 532//394 537//395 538//396
f 531//397 530//10 536//398
f 534//399 533//393 538//396 539//400
f 532//394 531//397 536//398 537//395
f 535//20 534//399 539//400
f 535//20 539//400 543//401
f 538//396 537//395 541//402 542//403
f 536//398 530//10 540//404
f 539//400 538//396 542//403 543//401
f 537//395 536//398 540//404 541//402
f 535//20 543//401 547//405
f 542//406 541//407 545//408 546//409
f 540//404 530//10 544//410
f 543//401 542//406 546//409 547//405
f 541//407 540//404 544//410 545//408
f 535//20 547//405 551//411
f 546//409 545//408 549//412 550//413
f 544//410 530//10 548//414
f 547//405 546//409 550//413 551//411
f 545//408 544//410 548//414 549//412
f 535//20 551//411 555//415
f 550//413 549//412 553//416 554//417
f 548//414 530//10 552//418
f 551//411 550//413 554//417 555//415
f 549//412 548//414 552//418 553//416
f 535//20 555//415 559//419
f 554//417 553//416 557//420 558//421
f 552//418 530//10 556//422
f 555//415 554//417 558//421 559//419
f 553//416 552//418 556//422 557//420
f 535//20 559//419 563//423
f 558//424 557//425 561//426 562//427
f 556//422 530//10 560//428
f 559//419 558//424 562//427 563//423
f 557//425 556//422 560//428 561//426
f 535//20 563//423 534//399
f 562//427 561//426 532//394 533//393
f 560//428 530//10 531//397
f 563//423 562//427 533//393 534//399
f 561//426 560//428 531//397 532//394
usemtl pink
f 441//429 440//14 444//430 445//431
f 439//432 438//10 443//433
f 442//20 441//434 445//435
f 440//14 439//436 443//437 444//430
f 442//20 445//435 448//438
f 444//439 443//439 446//439 447//439
f 445//440 444//440 447//440 448//440
f 443//433 438//10 446//441
f 446//441 438//10 449//442
f 442//20 448//438 451//443
f 447//444 446//445 449//446 450//81
f 448//447 447//444 450//81 451//448
f 451//448 450//81 453//449 454//450
f 449//442 438//10 452//451
f 442//20 451//443 454//452
f 450//81 449//446 452//453 453//449
f 454//454 453//454 456//454 457//454
f 452//451 438//10 455//455
f 442//20 454//452 457//456
f 453//457 452//457 455//457 456//457
f 457//458 456//459 440//14 441//429
f 455//455 438//10 439//432
f 442//20 457//456 441//434
f 456//459 455//460 439//436 440//14
f 567//429 566//14 570//430 571//431
f 565//432 564//10 569//433
f 568//20 567//434 571//435
f 566//14 565//436 569//437 570//430
f 568//20 571//435 574//438
f 570//439 569//439 572//439 573//439
f 571//440 570//440 573//440 574//440
f 569//433 564//10 572//441
f 572//441 564//10 575//442
f 568//20 574//438 577//443
f 573//444 572//445 575//446 576//81
f 574//447 573//444 576//81 577//448
f 577//448 576//81 579//449 580//450
f 575//442 564//10 578//451
f 568//20 577//443 580//452
f 576//81 575//446 578//453 579//449
f 580//454 579//454 582//454 583//454
f 578//451 564//10 581//455
f 568//20 580//452 583//456
f 579//457 578//457 581//457 582//457
f 583//458 582//459 566//14 567//429
f 581//455 564//10 565//432
f 568//20 583//456 567//434
f 582//459 581//460 565//436 566//14
usemtl bird_dark
f 459//461 527//462 462//463 463//464
f 526//465 458//466 461//467
f 460//468 529//469 465//470
f 528//471 459//472 463//473 464//474
f 527//462 526//465 461//467 462//463
f 529//469 528//471 464//474 465//470
f 460//468 465//470 470//475
f 464//474 463//473 468//476 469//477
f 462//463 461//467 466//478 467//479
f 465//470 464//474 469//477 470//475
f 463//464 462//463 467//479 468//480
f 461//467 458//466 466//478
f 460//468 470//475 475//481
f 469//477 468//476 473//482 474//483
f 467//479 466//478 471//484 472//485
f 470//475 469//477 474//483 475//481
f 468//480 467//479 472//485 473//486
f 466//478 458//466 471//484
f 474//483 473//482 478//487 479//488
f 472//485 471//484 476//489 477//490
f 475//481 474//483 479//488 480//491
f 473//486 472//485 477//490 478//492
f 471//484 458//466 476//489
f 460//468 475//481 480//491
f 477//490 476//489 481//493 482//494
f 480//491 479//488 484//495 485//496
f 478//492 477//490 482//494 483//497
f 476//489 458//466 481//493
f 460//468 480//491 485//496
f 479//488 478//487 483//498 484//495
f 485//496 484//495 489//499 490//500
f 483//497 482//494 487//501 488//502
f 481//493 458//466 486//503
f 460//468 485//496 490//500
f 484//495 483//498 488//504 489//499
f 482//494 481//493 486//503 487//501
f 490//500 489//499 494//505 495//506
f 488//502 487//501 492//507 493//508
f 486//503 458//466 491//509
f 460//468 490//500 495//506
f 489//499 488//504 493//510 494//505
f 487//501 486//503 491//509 492//507
f 495//506 494//505 499//511 500//512
f 493//508 492//507 497//513 498//514
f 491//509 458//466 496//515
f 460//468 495//506 500//512
f 494//505 493//510 498//516 499//511
f 492//507 491//509 496//515 497//513
f 500//512 499//511 504//517 505//518
f 498//514 497//513 502//519 503//520
f 496//515 458//466 501//521
f 460//468 500//512 505//518
f 499//511 498//516 503//522 504//517
f 497//513 496//515 501//521 502//519
f 503//520 502//519 507//523 508//524
f 501//521 458//466 506//525
f 460//468 505//518 510//526
f 504//517 503//522 508//527 509//528
f 502//519 501//521 506//525 507//523
f 505//518 504//517 509//528 510//526
f 506//525 458//466 511//529
f 460//468 510//526 515//530
f 509//528 508//527 513//531 514//532
f 507//523 506//525 511//529 512//533
f 510//526 509//528 514//532 515//530
f 508//524 507//523 512//533 513//534
f 460//468 515//530 520//535
f 514//532 513//531 518//536 519//537
f 512//533 511//529 516//538 517//539
f 515//530 514//532 519//537 520//535
f 513//534 512//533 517//539 518//540
f 511//529 458//466 516//538
f 460//468 520//535 525//541
f 519//537 518//536 523//542 524//543
f 517//539 516//538 521//544 522//545
f 520//535 519//537 524//543 525//541
f 518//540 517//539 522//545 523//546
f 516//538 458//466 521//544
f 460//468 525//541 529//469
f 524//543 523//542 459//472 528//471
f 522//545 521//544 526//465 527//462
f 525//541 524//543 528//471 529//469
f 523//546 522//545 527//462 459//461
f 521//544 458//466 526//465
f 585//547 653//548 588//549 589//550
f 652//551 584//552 587//553
f 586//554 655//555 591//556
f 654//557 585//558 589//559 590//560
f 653//548 652//551 587//553 588//549
f 655//555 654//557 590//560 591//556
f 586//554 591//556 596//561
f 590//560 589//559 594//562 595//563
f 588//549 587//553 592//564 593//565
f 591//556 590//560 595//563 596//561
f 589//550 588//549 593//565 594//566
f 587//553 584//552 592//564
f 586//554 596//561 601//567
f 595//563 594//562 599//568 600//569
f 593//565 592//564 597//570 598//571
f 596//561 595//563 600//569 601//567
f 594//566 593//565 598//571 599//572
f 592//564 584//552 597//570
f 600//569 599//568 604//573 605//574
f 598//571 597//570 602//575 603//576
f 601//567 600//569 605//574 606//577
f 599//572 598//571 603//576 604//578
f 597//570 584//552 602//575
f 586//554 601//567 606//577
f 603//576 602//575 607//579 608//580
f 606//577 605//574 610//581 611//582
f 604//578 603//576 608//580 609//583
f 602//575 584//552 607//579
f 586//554 606//577 611//582
f 605//574 604//573 609//584 610//581
f 611//582 610//581 615//585 616//586
f 609//583 608//580 613//587 614//588
f 607//579 584//552 612//589
f 586//554 611//582 616//586
f 610//581 609//584 614//590 615//585
f 608//580 607//579 612//589 613//587
f 616//586 615//585 620//591 621//592
f 614//588 613//587 618//593 619//594
f 612//589 584//552 617//595
f 586//554 616//586 621//592
f 615//585 614//590 619//596 620//591
f 613//587 612//589 617//595 618//593
f 621//592 620//591 625//597 626//598
f 619//594 618//593 623//599 624//600
f 617//595 584//552 622//601
f 586//554 621//592 626//598
f 620//591 619//596 624//602 625//597
f 618//593 617//595 622//601 623//599
f 626//598 625//597 630//603 631//604
f 624//600 623//599 628//605 629//606
f 622//601 584//552 627//607
f 586//554 626//598 631//604
f 625//597 624//602 629//608 630//603
f 623//599 622//601 627//607 628//605
f 629//606 628//605 633//609 634//610
f 627//607 584//552 632//611
f 586//554 631//604 636//612
f 630//603 629//608 634//613 635//614
f 628//605 627//607 632//611 633//609
f 631//604 630//603 635//614 636//612
f 632//611 584//552 637//615
f 586//554 636//612 641//616
f 635//614 634//613 639//617 640//618
f 633//609 632//611 637//615 638//619
f 636//612 635//614 640//618 641//616
f 634//610 633//609 638//619 639//620
f 586//554 641//616 646//621
f 640//618 639//617 644//622 645//623
f 638//619 637//615 642//624 643//625
f 641//616 640//618 645//623 646//621
f 639//620 638//619 643//625 644//626
f 637//615 584//552 642//624
f 586//554 646//621 651//627
f 645//623 644//622 649//628 650//629
f 643//625 642//624 647//630 648//631
f 646//621 645//623 650//629 651//627
f 644//626 643//625 648//631 649//632
f 642//624 584//552 647//630
f 586//554 651//627 655//555
f 650//629 649//628 585//558 654//557
f 648//631 647//630 652//551 653//548
f 651//627 650//629 654//557 655//555
f 649//632 648//631 653//548 585//547
f 647//630 584//552 652//551
f 715//633 714//634 659//635 660//636
f 713//637 656//638 658//639
f 657//640 717//641 662//642
f 716//643 715//644 660//645 661//646
f 714//634 713//637 658//639 659//635
f 717//641 716//643 661//646 662//642
f 657//640 662//642 667//647
f 661//646 660//645 665//648 666//649
f 659//635 658//639 663//650 664//651
f 662//642 661//646 666//649 667//647
f 660//636 659//635 664//651 665//652
f 658//639 656//638 663//650
f 657//640 667//647 672//653
f 666//649 665//648 670//654 671//655
f 664//651 663//650 668//656 669//657
f 667//647 666//649 671//655 672//653
f 665//652 664//651 669//657 670//658
f 663//650 656//638 668//656
f 671//655 670//654 675//659 676//660
f 669//657 668//656 673//661 674//662
f 672//653 671//655 676//660 677//663
f 670//658 669//657 674//662 675//664
f 668//656 656//638 673//661
f 657//640 672//653 677//663
f 674//662 673//661 678//665 679//666
f 677//663 676//660 681//667 682//668
f 675//664 674//662 679//666 680//669
f 673//661 656//638 678//665
f 657//640 677//663 682//668
f 676//660 675//659 680//670 681//667
f 682//668 681//667 686//671 687//672
f 680//669 679//666 684//673 685//674
f 678//665 656//638 683//675
f 657//640 682//668 687//672
f 681//667 680//670 685//676 686//671
f 679//666 678//665 683//675 684//673
f 687//672 686//671 691//677 692//678
f 685//674 684//673 689//679 690//680
f 683//675 656//638 688//681
f 657//640 687//672 692//678
f 686//671 685//676 690//682 691//677
f 684//673 683//675 688//681 689//679
f 692//678 691//677 696//683 697//684
f 690//680 689//679 694//685 695//686
f 688//681 656//638 693//687
f 657//640 692//678 697//684
f 691//677 690//682 695//688 696//683
f 689//679 688//681 693//687 694//685
f 697//684 696//683 701//689 702//690
f 695//686 694//685 699//691 700//692
f 693//687 656//638 698//693
f 657//640 697//684 702//690
f 696//683 695//688 700//694 701//689
f 694//685 693//687 698//693 699//691
f 700//692 699//691 704//695 705//696
f 698//693 656//638 703//697
f 657//640 702//690 707//698
f 701//689 700//694 705//699 706//700
f 699//691 698//693 703//697 704//695
f 702//690 701//689 706//700 707//698
f 703//697 656//638 708//701
f 657//640 707//698 712//702
f 706//700 705//699 710//703 711//704
f 704//695 703//697 708//701 709//705
f 707//698 706//700 711//704 712//702
f 705//696 704//695 709//705 710//706
f 657//640 712//702 717//641
f 711//704 710//703 715//644 716//643
f 709//705 708//701 713//637 714//634
f 712//702 711//704 716//643 717//641
f 710//706 709//705 714//634 715//633
f 708//701 656//638 713//637
