# Blender 5.0.1
# www.blender.org
mtllib BookStack.mtl
o BookStack
v -1.215706 0.380000 0.845000 0.8470 0.2275 0.1804
v -1.215706 0.410000 0.875000 0.8470 0.2275 0.1804
v -1.245706 0.410000 0.845000 0.8470 0.2275 0.1804
v -1.215706 0.420000 0.875000 0.8470 0.2275 0.1804
v -1.215706 0.450000 0.845000 0.8470 0.2275 0.1804
v -1.245706 0.420000 0.845000 0.8470 0.2275 0.1804
v -1.215706 0.380000 -0.845000 0.8470 0.2275 0.1804
v -1.245706 0.410000 -0.845000 0.8470 0.2275 0.1804
v -1.215706 0.410000 -0.875000 0.8470 0.2275 0.1804
v -1.215706 0.450000 -0.845000 0.8470 0.2275 0.1804
v -1.215706 0.420000 -0.875000 0.8470 0.2275 0.1804
v -1.245706 0.420000 -0.845000 0.8470 0.2275 0.1804
v 1.224294 0.380000 0.845000 0.8470 0.2275 0.1804
v 1.254294 0.410000 0.845000 0.8470 0.2275 0.1804
v 1.224294 0.410000 0.875000 0.8470 0.2275 0.1804
v 1.224294 0.450000 0.845000 0.8470 0.2275 0.1804
v 1.224294 0.420000 0.875000 0.8470 0.2275 0.1804
v 1.254294 0.420000 0.845000 0.8470 0.2275 0.1804
v 1.224294 0.380000 -0.845000 0.8470 0.2275 0.1804
v 1.224294 0.410000 -0.875000 0.8470 0.2275 0.1804
v 1.254294 0.410000 -0.845000 0.8470 0.2275 0.1804
v 1.224294 0.450000 -0.845000 0.8470 0.2275 0.1804
v 1.254294 0.420000 -0.845000 0.8470 0.2275 0.1804
v 1.224294 0.420000 -0.875000 0.8470 0.2275 0.1804
v -1.215706 0.000000 0.845000 0.8470 0.2275 0.1804
v -1.215706 0.030000 0.875000 0.8470 0.2275 0.1804
v -1.245706 0.030000 0.845000 0.8470 0.2275 0.1804
v -1.215706 0.040000 0.875000 0.8470 0.2275 0.1804
v -1.215706 0.070000 0.845000 0.8470 0.2275 0.1804
v -1.245706 0.040000 0.845000 0.8470 0.2275 0.1804
v -1.215706 0.000000 -0.845000 0.8470 0.2275 0.1804
v -1.245706 0.030000 -0.845000 0.8470 0.2275 0.1804
v -1.215706 0.030000 -0.875000 0.8470 0.2275 0.1804
v -1.215706 0.070000 -0.845000 0.8470 0.2275 0.1804
v -1.215706 0.040000 -0.875000 0.8470 0.2275 0.1804
v -1.245706 0.040000 -0.845000 0.8470 0.2275 0.1804
v 1.224294 0.000000 0.845000 0.8470 0.2275 0.1804
v 1.254294 0.030000 0.845000 0.8470 0.2275 0.1804
v 1.224294 0.030000 0.875000 0.8470 0.2275 0.1804
v 1.224294 0.070000 0.845000 0.8470 0.2275 0.1804
v 1.224294 0.040000 0.875000 0.8470 0.2275 0.1804
v 1.254294 0.040000 0.845000 0.8470 0.2275 0.1804
v 1.224294 0.000000 -0.845000 0.8470 0.2275 0.1804
v 1.224294 0.030000 -0.875000 0.8470 0.2275 0.1804
v 1.254294 0.030000 -0.845000 0.8470 0.2275 0.1804
v 1.224294 0.070000 -0.845000 0.8470 0.2275 0.1804
v 1.254294 0.040000 -0.845000 0.8470 0.2275 0.1804
v 1.224294 0.040000 -0.875000 0.8470 0.2275 0.1804
v -1.205706 0.000000 0.835000 0.8470 0.2275 0.1804
v -1.205706 0.040000 0.875000 0.8470 0.2275 0.1804
v -1.245706 0.040000 0.835000 0.8470 0.2275 0.1804
v -1.205706 0.011716 0.863284 0.8470 0.2275 0.1804
v -1.228800 0.016906 0.858094 0.8470 0.2275 0.1804
v -1.233991 0.040000 0.863284 0.8470 0.2275 0.1804
v -1.233991 0.011716 0.835000 0.8470 0.2275 0.1804
v -1.205706 0.410000 0.875000 0.8470 0.2275 0.1804
v -1.205706 0.450000 0.835000 0.8470 0.2275 0.1804
v -1.245706 0.410000 0.835000 0.8470 0.2275 0.1804
v -1.205706 0.438284 0.863284 0.8470 0.2275 0.1804
v -1.228800 0.433094 0.858094 0.8470 0.2275 0.1804
v -1.233991 0.438284 0.835000 0.8470 0.2275 0.1804
v -1.233991 0.410000 0.863284 0.8470 0.2275 0.1804
v -1.205706 0.000000 0.815000 0.8470 0.2275 0.1804
v -1.245706 0.040000 0.815000 0.8470 0.2275 0.1804
v -1.205706 0.040000 0.775000 0.8470 0.2275 0.1804
v -1.233991 0.011716 0.815000 0.8470 0.2275 0.1804
v -1.228800 0.016906 0.791906 0.8470 0.2275 0.1804
v -1.233991 0.040000 0.786716 0.8470 0.2275 0.1804
v -1.205706 0.011716 0.786716 0.8470 0.2275 0.1804
v -1.205706 0.450000 0.815000 0.8470 0.2275 0.1804
v -1.205706 0.410000 0.775000 0.8470 0.2275 0.1804
v -1.245706 0.410000 0.815000 0.8470 0.2275 0.1804
v -1.205706 0.438284 0.786716 0.8470 0.2275 0.1804
v -1.228800 0.433094 0.791906 0.8470 0.2275 0.1804
v -1.233991 0.410000 0.786716 0.8470 0.2275 0.1804
v -1.233991 0.438284 0.815000 0.8470 0.2275 0.1804
v 1.214294 0.000000 0.835000 0.8470 0.2275 0.1804
v 1.254294 0.040000 0.835000 0.8470 0.2275 0.1804
v 1.214294 0.040000 0.875000 0.8470 0.2275 0.1804
v 1.242578 0.011716 0.835000 0.8470 0.2275 0.1804
v 1.237388 0.016906 0.858094 0.8470 0.2275 0.1804
v 1.242578 0.040000 0.863284 0.8470 0.2275 0.1804
v 1.214294 0.011716 0.863284 0.8470 0.2275 0.1804
v 1.214294 0.450000 0.835000 0.8470 0.2275 0.1804
v 1.214294 0.410000 0.875000 0.8470 0.2275 0.1804
v 1.254294 0.410000 0.835000 0.8470 0.2275 0.1804
v 1.214294 0.438284 0.863284 0.8470 0.2275 0.1804
v 1.237388 0.433094 0.858094 0.8470 0.2275 0.1804
v 1.242578 0.410000 0.863284 0.8470 0.2275 0.1804
v 1.242578 0.438284 0.835000 0.8470 0.2275 0.1804
v 1.214294 0.000000 0.815000 0.8470 0.2275 0.1804
v 1.214294 0.040000 0.775000 0.8470 0.2275 0.1804
v 1.254294 0.040000 0.815000 0.8470 0.2275 0.1804
v 1.214294 0.011716 0.786716 0.8470 0.2275 0.1804
v 1.237388 0.016906 0.791906 0.8470 0.2275 0.1804
v 1.242578 0.040000 0.786716 0.8470 0.2275 0.1804
v 1.242578 0.011716 0.815000 0.8470 0.2275 0.1804
v 1.214294 0.450000 0.815000 0.8470 0.2275 0.1804
v 1.254294 0.410000 0.815000 0.8470 0.2275 0.1804
v 1.214294 0.410000 0.775000 0.8470 0.2275 0.1804
v 1.242578 0.438284 0.815000 0.8470 0.2275 0.1804
v 1.237388 0.433094 0.791906 0.8470 0.2275 0.1804
v 1.242578 0.410000 0.786716 0.8470 0.2275 0.1804
v 1.214294 0.438284 0.786716 0.8470 0.2275 0.1804
v -1.175706 0.050000 0.775000 1.0000 0.9647 0.8980
v -1.175706 0.400000 0.775000 1.0000 0.9647 0.8980
v -1.175706 0.050000 -0.835000 1.0000 0.9647 0.8980
v -1.175706 0.400000 -0.835000 1.0000 0.9647 0.8980
v 1.184294 0.050000 0.775000 1.0000 0.9647 0.8980
v 1.184294 0.400000 0.775000 1.0000 0.9647 0.8980
v 1.184294 0.050000 -0.835000 1.0000 0.9647 0.8980
v 1.184294 0.400000 -0.835000 1.0000 0.9647 0.8980
v -0.785706 0.033750 0.900000 0.9098 0.6980 0.2275
v -0.785706 0.416250 0.900000 0.9098 0.6980 0.2275
v -0.785706 0.033750 0.860000 0.9098 0.6980 0.2275
v -0.785706 0.416250 0.860000 0.9098 0.6980 0.2275
v -0.705706 0.033750 0.900000 0.9098 0.6980 0.2275
v -0.705706 0.416250 0.900000 0.9098 0.6980 0.2275
v -0.705706 0.033750 0.860000 0.9098 0.6980 0.2275
v -0.705706 0.416250 0.860000 0.9098 0.6980 0.2275
v 0.714294 0.033750 0.900000 0.9098 0.6980 0.2275
v 0.714294 0.416250 0.900000 0.9098 0.6980 0.2275
v 0.714294 0.033750 0.860000 0.9098 0.6980 0.2275
v 0.714294 0.416250 0.860000 0.9098 0.6980 0.2275
v 0.794294 0.033750 0.900000 0.9098 0.6980 0.2275
v 0.794294 0.416250 0.900000 0.9098 0.6980 0.2275
v 0.794294 0.033750 0.860000 0.9098 0.6980 0.2275
v 0.794294 0.416250 0.860000 0.9098 0.6980 0.2275
v -0.930472 0.760000 0.925568 0.2471 0.7137 0.7882
v -0.926816 0.790000 0.955344 0.2471 0.7137 0.7882
v -0.960248 0.790000 0.929224 0.2471 0.7137 0.7882
v -0.926816 0.800000 0.955344 0.2471 0.7137 0.7882
v -0.930472 0.830000 0.925568 0.2471 0.7137 0.7882
v -0.960248 0.800000 0.929224 0.2471 0.7137 0.7882
v -1.124244 0.760000 -0.652580 0.2471 0.7137 0.7882
v -1.154021 0.790000 -0.648924 0.2471 0.7137 0.7882
v -1.127900 0.790000 -0.682357 0.2471 0.7137 0.7882
v -1.124244 0.830000 -0.652580 0.2471 0.7137 0.7882
v -1.127900 0.800000 -0.682357 0.2471 0.7137 0.7882
v -1.154021 0.800000 -0.648924 0.2471 0.7137 0.7882
v 1.292831 0.760000 0.652580 0.2471 0.7137 0.7882
v 1.322608 0.790000 0.648924 0.2471 0.7137 0.7882
v 1.296488 0.790000 0.682357 0.2471 0.7137 0.7882
v 1.292831 0.830000 0.652580 0.2471 0.7137 0.7882
v 1.296488 0.800000 0.682357 0.2471 0.7137 0.7882
v 1.322608 0.800000 0.648924 0.2471 0.7137 0.7882
v 1.099059 0.760000 -0.925568 0.2471 0.7137 0.7882
v 1.095403 0.790000 -0.955344 0.2471 0.7137 0.7882
v 1.128835 0.790000 -0.929224 0.2471 0.7137 0.7882
v 1.099059 0.830000 -0.925568 0.2471 0.7137 0.7882
v 1.128835 0.800000 -0.929224 0.2471 0.7137 0.7882
v 1.095403 0.800000 -0.955344 0.2471 0.7137 0.7882
v -0.930472 0.450000 0.925568 0.2471 0.7137 0.7882
v -0.926816 0.480000 0.955344 0.2471 0.7137 0.7882
v -0.960248 0.480000 0.929224 0.2471 0.7137 0.7882
v -0.926816 0.490000 0.955344 0.2471 0.7137 0.7882
v -0.930472 0.520000 0.925568 0.2471 0.7137 0.7882
v -0.960248 0.490000 0.929224 0.2471 0.7137 0.7882
v -1.124244 0.450000 -0.652580 0.2471 0.7137 0.7882
v -1.154021 0.480000 -0.648924 0.2471 0.7137 0.7882
v -1.127900 0.480000 -0.682357 0.2471 0.7137 0.7882
v -1.124244 0.520000 -0.652580 0.2471 0.7137 0.7882
v -1.127900 0.490000 -0.682357 0.2471 0.7137 0.7882
v -1.154021 0.490000 -0.648924 0.2471 0.7137 0.7882
v 1.292831 0.450000 0.652580 0.2471 0.7137 0.7882
v 1.322608 0.480000 0.648924 0.2471 0.7137 0.7882
v 1.296488 0.480000 0.682357 0.2471 0.7137 0.7882
v 1.292831 0.520000 0.652580 0.2471 0.7137 0.7882
v 1.296488 0.490000 0.682357 0.2471 0.7137 0.7882
v 1.322608 0.490000 0.648924 0.2471 0.7137 0.7882
v 1.099059 0.450000 -0.925568 0.2471 0.7137 0.7882
v 1.095403 0.480000 -0.955344 0.2471 0.7137 0.7882
v 1.128835 0.480000 -0.929224 0.2471 0.7137 0.7882
v 1.099059 0.520000 -0.925568 0.2471 0.7137 0.7882
v 1.128835 0.490000 -0.929224 0.2471 0.7137 0.7882
v 1.095403 0.490000 -0.955344 0.2471 0.7137 0.7882
v -0.921765 0.450000 0.914424 0.2471 0.7137 0.7882
v -0.916890 0.490000 0.954126 0.2471 0.7137 0.7882
v -0.961467 0.490000 0.919299 0.2471 0.7137 0.7882
v -0.918318 0.461716 0.942497 0.2471 0.7137 0.7882
v -0.941873 0.466906 0.940160 0.2471 0.7137 0.7882
v -0.946392 0.490000 0.945944 0.2471 0.7137 0.7882
v -0.949839 0.461716 0.917871 0.2471 0.7137 0.7882
v -0.916890 0.790000 0.954126 0.2471 0.7137 0.7882
v -0.921765 0.830000 0.914424 0.2471 0.7137 0.7882
v -0.961467 0.790000 0.919299 0.2471 0.7137 0.7882
v -0.918318 0.818284 0.942497 0.2471 0.7137 0.7882
v -0.941873 0.813094 0.940160 0.2471 0.7137 0.7882
v -0.949839 0.818284 0.917871 0.2471 0.7137 0.7882
v -0.946392 0.790000 0.945944 0.2471 0.7137 0.7882
v -0.924202 0.450000 0.894573 0.2471 0.7137 0.7882
v -0.963904 0.490000 0.899447 0.2471 0.7137 0.7882
v -0.929077 0.490000 0.854871 0.2471 0.7137 0.7882
v -0.952276 0.461716 0.898020 0.2471 0.7137 0.7882
v -0.949939 0.466906 0.874465 0.2471 0.7137 0.7882
v -0.955723 0.490000 0.869946 0.2471 0.7137 0.7882
v -0.927649 0.461716 0.866499 0.2471 0.7137 0.7882
v -0.924202 0.830000 0.894573 0.2471 0.7137 0.7882
v -0.929077 0.790000 0.854871 0.2471 0.7137 0.7882
v -0.963904 0.790000 0.899447 0.2471 0.7137 0.7882
v -0.927649 0.818284 0.866499 0.2471 0.7137 0.7882
v -0.949939 0.813094 0.874465 0.2471 0.7137 0.7882
v -0.955723 0.790000 0.869946 0.2471 0.7137 0.7882
v -0.952276 0.818284 0.898020 0.2471 0.7137 0.7882
v 1.281687 0.450000 0.643874 0.2471 0.7137 0.7882
v 1.321389 0.490000 0.638999 0.2471 0.7137 0.7882
v 1.286562 0.490000 0.683576 0.2471 0.7137 0.7882
v 1.309761 0.461716 0.640427 0.2471 0.7137 0.7882
v 1.307424 0.466906 0.663981 0.2471 0.7137 0.7882
v 1.313208 0.490000 0.668500 0.2471 0.7137 0.7882
v 1.285134 0.461716 0.671947 0.2471 0.7137 0.7882
v 1.281687 0.830000 0.643874 0.2471 0.7137 0.7882
v 1.286562 0.790000 0.683576 0.2471 0.7137 0.7882
v 1.321389 0.790000 0.638999 0.2471 0.7137 0.7882
v 1.285134 0.818284 0.671947 0.2471 0.7137 0.7882
v 1.307424 0.813094 0.663981 0.2471 0.7137 0.7882
v 1.313208 0.790000 0.668500 0.2471 0.7137 0.7882
v 1.309761 0.818284 0.640427 0.2471 0.7137 0.7882
v 1.279250 0.450000 0.624023 0.2471 0.7137 0.7882
v 1.274375 0.490000 0.584321 0.2471 0.7137 0.7882
v 1.318952 0.490000 0.619148 0.2471 0.7137 0.7882
v 1.275803 0.461716 0.595949 0.2471 0.7137 0.7882
v 1.299357 0.466906 0.598286 0.2471 0.7137 0.7882
v 1.303876 0.490000 0.592502 0.2471 0.7137 0.7882
v 1.307323 0.461716 0.620576 0.2471 0.7137 0.7882
v 1.279250 0.830000 0.624023 0.2471 0.7137 0.7882
v 1.318952 0.790000 0.619148 0.2471 0.7137 0.7882
v 1.274375 0.790000 0.584321 0.2471 0.7137 0.7882
v 1.307323 0.818284 0.620576 0.2471 0.7137 0.7882
v 1.299357 0.813094 0.598286 0.2471 0.7137 0.7882
v 1.303876 0.790000 0.592502 0.2471 0.7137 0.7882
v 1.275803 0.818284 0.595949 0.2471 0.7137 0.7882
v -0.899301 0.500000 0.851215 1.0000 0.9647 0.8980
v -0.899301 0.780000 0.851215 1.0000 0.9647 0.8980
v -1.083324 0.500000 -0.647530 1.0000 0.9647 0.8980
v -1.083324 0.780000 -0.647530 1.0000 0.9647 0.8980
v 1.244599 0.500000 0.587977 1.0000 0.9647 0.8980
v 1.244599 0.780000 0.587977 1.0000 0.9647 0.8980
v 1.060576 0.500000 -0.910768 1.0000 0.9647 0.8980
v 1.060576 0.780000 -0.910768 1.0000 0.9647 0.8980
v -0.536676 0.478500 0.932629 0.9098 0.6980 0.2275
v -0.536676 0.801500 0.932629 0.9098 0.6980 0.2275
v -0.541551 0.478500 0.892927 0.9098 0.6980 0.2275
v -0.541551 0.801500 0.892927 0.9098 0.6980 0.2275
v -0.457272 0.478500 0.922879 0.9098 0.6980 0.2275
v -0.457272 0.801500 0.922879 0.9098 0.6980 0.2275
v -0.462147 0.478500 0.883177 0.9098 0.6980 0.2275
v -0.462147 0.801500 0.883177 0.9098 0.6980 0.2275
v 0.833037 0.478500 0.764449 0.9098 0.6980 0.2275
v 0.833037 0.801500 0.764449 0.9098 0.6980 0.2275
v 0.828163 0.478500 0.724747 0.9098 0.6980 0.2275
v 0.828163 0.801500 0.724747 0.9098 0.6980 0.2275
v 0.912441 0.478500 0.754700 0.9098 0.6980 0.2275
v 0.912441 0.801500 0.754700 0.9098 0.6980 0.2275
v 0.907566 0.478500 0.714998 0.9098 0.6980 0.2275
v 0.907566 0.801500 0.714998 0.9098 0.6980 0.2275
v -1.292722 1.240000 0.714907 0.4275 0.7451 0.2706
v -1.295336 1.270000 0.744793 0.4275 0.7451 0.2706
v -1.322608 1.270000 0.712293 0.4275 0.7451 0.2706
v -1.295336 1.280000 0.744793 0.4275 0.7451 0.2706
v -1.292722 1.310000 0.714907 0.4275 0.7451 0.2706
v -1.322608 1.280000 0.712293 0.4275 0.7451 0.2706
v -1.149786 1.240000 -0.918852 0.4275 0.7451 0.2706
v -1.179672 1.270000 -0.921467 0.4275 0.7451 0.2706
v -1.147172 1.270000 -0.948738 0.4275 0.7451 0.2706
v -1.149786 1.310000 -0.918852 0.4275 0.7451 0.2706
v -1.147172 1.280000 -0.948738 0.4275 0.7451 0.2706
v -1.179672 1.280000 -0.921467 0.4275 0.7451 0.2706
v 1.038374 1.240000 0.918852 0.4275 0.7451 0.2706
v 1.068260 1.270000 0.921467 0.4275 0.7451 0.2706
v 1.035759 1.270000 0.948738 0.4275 0.7451 0.2706
v 1.038374 1.310000 0.918852 0.4275 0.7451 0.2706
v 1.035759 1.280000 0.948738 0.4275 0.7451 0.2706
v 1.068260 1.280000 0.921467 0.4275 0.7451 0.2706
v 1.181309 1.240000 -0.714907 0.4275 0.7451 0.2706
v 1.183924 1.270000 -0.744793 0.4275 0.7451 0.2706
v 1.211195 1.270000 -0.712293 0.4275 0.7451 0.2706
v 1.181309 1.310000 -0.714907 0.4275 0.7451 0.2706
v 1.211195 1.280000 -0.712293 0.4275 0.7451 0.2706
v 1.183924 1.280000 -0.744793 0.4275 0.7451 0.2706
v -1.292722 0.830000 0.714907 0.4275 0.7451 0.2706
v -1.295336 0.860000 0.744793 0.4275 0.7451 0.2706
v -1.322608 0.860000 0.712293 0.4275 0.7451 0.2706
v -1.295336 0.870000 0.744793 0.4275 0.7451 0.2706
v -1.292722 0.900000 0.714907 0.4275 0.7451 0.2706
v -1.322608 0.870000 0.712293 0.4275 0.7451 0.2706
v -1.149786 0.830000 -0.918852 0.4275 0.7451 0.2706
v -1.179672 0.860000 -0.921467 0.4275 0.7451 0.2706
v -1.147172 0.860000 -0.948738 0.4275 0.7451 0.2706
v -1.149786 0.900000 -0.918852 0.4275 0.7451 0.2706
v -1.147172 0.870000 -0.948738 0.4275 0.7451 0.2706
v -1.179672 0.870000 -0.921467 0.4275 0.7451 0.2706
v 1.038374 0.830000 0.918852 0.4275 0.7451 0.2706
v 1.068260 0.860000 0.921467 0.4275 0.7451 0.2706
v 1.035759 0.860000 0.948738 0.4275 0.7451 0.2706
v 1.038374 0.900000 0.918852 0.4275 0.7451 0.2706
v 1.035759 0.870000 0.948738 0.4275 0.7451 0.2706
v 1.068260 0.870000 0.921467 0.4275 0.7451 0.2706
v 1.181309 0.830000 -0.714907 0.4275 0.7451 0.2706
v 1.183924 0.860000 -0.744793 0.4275 0.7451 0.2706
v 1.211195 0.860000 -0.712293 0.4275 0.7451 0.2706
v 1.181309 0.900000 -0.714907 0.4275 0.7451 0.2706
v 1.211195 0.870000 -0.712293 0.4275 0.7451 0.2706
v 1.183924 0.870000 -0.744793 0.4275 0.7451 0.2706
v -1.281888 0.830000 0.705817 0.4275 0.7451 0.2706
v -1.285375 0.870000 0.745665 0.4275 0.7451 0.2706
v -1.321736 0.870000 0.702331 0.4275 0.7451 0.2706
v -1.284354 0.841716 0.733994 0.4275 0.7451 0.2706
v -1.306907 0.846906 0.726810 0.4275 0.7451 0.2706
v -1.312530 0.870000 0.731529 0.4275 0.7451 0.2706
v -1.310065 0.841716 0.703352 0.4275 0.7451 0.2706
v -1.285375 1.270000 0.745665 0.4275 0.7451 0.2706
v -1.281888 1.310000 0.705817 0.4275 0.7451 0.2706
v -1.321736 1.270000 0.702331 0.4275 0.7451 0.2706
v -1.284354 1.298284 0.733994 0.4275 0.7451 0.2706
v -1.306907 1.293094 0.726810 0.4275 0.7451 0.2706
v -1.310065 1.298284 0.703352 0.4275 0.7451 0.2706
v -1.312530 1.270000 0.731529 0.4275 0.7451 0.2706
v -1.280145 0.830000 0.685893 0.4275 0.7451 0.2706
v -1.319993 0.870000 0.682407 0.4275 0.7451 0.2706
v -1.276659 0.870000 0.646045 0.4275 0.7451 0.2706
v -1.308322 0.841716 0.683428 0.4275 0.7451 0.2706
v -1.301139 0.846906 0.660874 0.4275 0.7451 0.2706
v -1.305857 0.870000 0.655251 0.4275 0.7451 0.2706
v -1.277680 0.841716 0.657716 0.4275 0.7451 0.2706
v -1.280145 1.310000 0.685893 0.4275 0.7451 0.2706
v -1.276659 1.270000 0.646045 0.4275 0.7451 0.2706
v -1.319993 1.270000 0.682407 0.4275 0.7451 0.2706
v -1.277680 1.298284 0.657717 0.4275 0.7451 0.2706
v -1.301139 1.293094 0.660874 0.4275 0.7451 0.2706
v -1.305857 1.270000 0.655251 0.4275 0.7451 0.2706
v -1.308322 1.298284 0.683428 0.4275 0.7451 0.2706
v 1.029284 0.830000 0.908018 0.4275 0.7451 0.2706
v 1.069131 0.870000 0.911505 0.4275 0.7451 0.2706
v 1.025797 0.870000 0.947866 0.4275 0.7451 0.2706
v 1.057460 0.841716 0.910484 0.4275 0.7451 0.2706
v 1.050277 0.846906 0.933037 0.4275 0.7451 0.2706
v 1.054995 0.870000 0.938660 0.4275 0.7451 0.2706
v 1.026818 0.841716 0.936195 0.4275 0.7451 0.2706
v 1.029284 1.310000 0.908018 0.4275 0.7451 0.2706
v 1.025797 1.270000 0.947866 0.4275 0.7451 0.2706
v 1.069131 1.270000 0.911505 0.4275 0.7451 0.2706
v 1.026818 1.298284 0.936195 0.4275 0.7451 0.2706
v 1.050277 1.293094 0.933037 0.4275 0.7451 0.2706
v 1.054995 1.270000 0.938660 0.4275 0.7451 0.2706
v 1.057460 1.298284 0.910484 0.4275 0.7451 0.2706
v 1.031027 0.830000 0.888094 0.4275 0.7451 0.2706
v 1.034513 0.870000 0.848247 0.4275 0.7451 0.2706
v 1.070874 0.870000 0.891581 0.4275 0.7451 0.2706
v 1.033492 0.841716 0.859918 0.4275 0.7451 0.2706
v 1.056046 0.846906 0.867101 0.4275 0.7451 0.2706
v 1.061668 0.870000 0.862383 0.4275 0.7451 0.2706
v 1.059203 0.841716 0.890560 0.4275 0.7451 0.2706
v 1.031027 1.310000 0.888094 0.4275 0.7451 0.2706
v 1.070874 1.270000 0.891581 0.4275 0.7451 0.2706
v 1.034513 1.270000 0.848247 0.4275 0.7451 0.2706
v 1.059203 1.298284 0.890560 0.4275 0.7451 0.2706
v 1.056045 1.293094 0.867101 0.4275 0.7451 0.2706
v 1.061668 1.270000 0.862383 0.4275 0.7451 0.2706
v 1.033492 1.298284 0.859918 0.4275 0.7451 0.2706
v -1.246773 0.880000 0.648660 1.0000 0.9647 0.8980
v -1.246773 1.260000 0.648660 1.0000 0.9647 0.8980
v -1.110810 0.880000 -0.905404 1.0000 0.9647 0.8980
v -1.110810 1.260000 -0.905404 1.0000 0.9647 0.8980
v 1.004627 0.880000 0.845632 1.0000 0.9647 0.8980
v 1.004627 1.260000 0.845632 1.0000 0.9647 0.8980
v 1.140590 0.880000 -0.708432 1.0000 0.9647 0.8980
v 1.140590 1.260000 -0.708432 1.0000 0.9647 0.8980
v -0.889076 0.866000 0.805432 0.9098 0.6980 0.2275
v -0.889076 1.274000 0.805432 0.9098 0.6980 0.2275
v -0.885589 0.866000 0.765584 0.9098 0.6980 0.2275
v -0.885589 1.274000 0.765584 0.9098 0.6980 0.2275
v -0.809380 0.866000 0.812404 0.9098 0.6980 0.2275
v -0.809380 1.274000 0.812404 0.9098 0.6980 0.2275
v -0.805894 0.866000 0.772557 0.9098 0.6980 0.2275
v -0.805894 1.274000 0.772557 0.9098 0.6980 0.2275
v 0.545445 0.866000 0.930936 0.9098 0.6980 0.2275
v 0.545445 1.274000 0.930936 0.9098 0.6980 0.2275
v 0.548931 0.866000 0.891089 0.9098 0.6980 0.2275
v 0.548931 1.274000 0.891089 0.9098 0.6980 0.2275
v 0.625140 0.866000 0.937909 0.9098 0.6980 0.2275
v 0.625140 1.274000 0.937909 0.9098 0.6980 0.2275
v 0.628627 0.866000 0.898061 0.9098 0.6980 0.2275
v 0.628627 1.274000 0.898061 0.9098 0.6980 0.2275
v -0.775943 1.580000 0.877500 0.6079 0.3608 1.0000
v -0.770734 1.610000 0.907045 0.6079 0.3608 1.0000
v -0.805487 1.610000 0.882710 0.6079 0.3608 1.0000
v -0.770734 1.620000 0.907045 0.6079 0.3608 1.0000
v -0.775943 1.650000 0.877500 0.6079 0.3608 1.0000
v -0.805487 1.620000 0.882710 0.6079 0.3608 1.0000
v -1.025997 1.580000 -0.540623 0.6079 0.3608 1.0000
v -1.055541 1.610000 -0.535413 0.6079 0.3608 1.0000
v -1.031206 1.610000 -0.570167 0.6079 0.3608 1.0000
v -1.025997 1.650000 -0.540623 0.6079 0.3608 1.0000
v -1.031206 1.620000 -0.570167 0.6079 0.3608 1.0000
v -1.055541 1.620000 -0.535413 0.6079 0.3608 1.0000
v 1.134584 1.580000 0.540623 0.6079 0.3608 1.0000
v 1.164128 1.610000 0.535413 0.6079 0.3608 1.0000
v 1.139793 1.610000 0.570167 0.6079 0.3608 1.0000
v 1.134584 1.650000 0.540623 0.6079 0.3608 1.0000
v 1.139793 1.620000 0.570167 0.6079 0.3608 1.0000
v 1.164128 1.620000 0.535413 0.6079 0.3608 1.0000
v 0.884530 1.580000 -0.877500 0.6079 0.3608 1.0000
v 0.879321 1.610000 -0.907045 0.6079 0.3608 1.0000
v 0.914075 1.610000 -0.882710 0.6079 0.3608 1.0000
v 0.884530 1.650000 -0.877500 0.6079 0.3608 1.0000
v 0.914075 1.620000 -0.882710 0.6079 0.3608 1.0000
v 0.879321 1.620000 -0.907045 0.6079 0.3608 1.0000
v -0.775943 1.310000 0.877500 0.6079 0.3608 1.0000
v -0.770734 1.340000 0.907045 0.6079 0.3608 1.0000
v -0.805487 1.340000 0.882710 0.6079 0.3608 1.0000
v -0.770734 1.350000 0.907045 0.6079 0.3608 1.0000
v -0.775943 1.380000 0.877500 0.6079 0.3608 1.0000
v -0.805487 1.350000 0.882710 0.6079 0.3608 1.0000
v -1.025997 1.310000 -0.540623 0.6079 0.3608 1.0000
v -1.055541 1.340000 -0.535413 0.6079 0.3608 1.0000
v -1.031206 1.340000 -0.570167 0.6079 0.3608 1.0000
v -1.025997 1.380000 -0.540623 0.6079 0.3608 1.0000
v -1.031206 1.350000 -0.570167 0.6079 0.3608 1.0000
v -1.055541 1.350000 -0.535413 0.6079 0.3608 1.0000
v 1.134584 1.310000 0.540623 0.6079 0.3608 1.0000
v 1.164128 1.340000 0.535413 0.6079 0.3608 1.0000
v 1.139793 1.340000 0.570167 0.6079 0.3608 1.0000
v 1.134584 1.380000 0.540623 0.6079 0.3608 1.0000
v 1.139793 1.350000 0.570167 0.6079 0.3608 1.0000
v 1.164128 1.350000 0.535413 0.6079 0.3608 1.0000
v 0.884530 1.310000 -0.877500 0.6079 0.3608 1.0000
v 0.879321 1.340000 -0.907045 0.6079 0.3608 1.0000
v 0.914075 1.340000 -0.882710 0.6079 0.3608 1.0000
v 0.884530 1.380000 -0.877500 0.6079 0.3608 1.0000
v 0.914075 1.350000 -0.882710 0.6079 0.3608 1.0000
v 0.879321 1.350000 -0.907045 0.6079 0.3608 1.0000
v -0.767832 1.310000 0.865916 0.6079 0.3608 1.0000
v -0.760886 1.350000 0.905308 0.6079 0.3608 1.0000
v -0.807224 1.350000 0.872862 0.6079 0.3608 1.0000
v -0.762920 1.321716 0.893770 0.6079 0.3608 1.0000
v -0.786564 1.326906 0.892669 0.6079 0.3608 1.0000
v -0.790775 1.350000 0.898682 0.6079 0.3608 1.0000
v -0.795686 1.321716 0.870827 0.6079 0.3608 1.0000
v -0.760886 1.610000 0.905308 0.6079 0.3608 1.0000
v -0.767832 1.650000 0.865916 0.6079 0.3608 1.0000
v -0.807224 1.610000 0.872862 0.6079 0.3608 1.0000
v -0.762920 1.638284 0.893770 0.6079 0.3608 1.0000
v -0.786565 1.633094 0.892669 0.6079 0.3608 1.0000
v -0.795686 1.638284 0.870827 0.6079 0.3608 1.0000
v -0.790775 1.610000 0.898682 0.6079 0.3608 1.0000
v -0.771305 1.310000 0.846220 0.6079 0.3608 1.0000
v -0.810697 1.350000 0.853165 0.6079 0.3608 1.0000
v -0.778251 1.350000 0.806827 0.6079 0.3608 1.0000
v -0.799159 1.321716 0.851131 0.6079 0.3608 1.0000
v -0.798058 1.326906 0.827487 0.6079 0.3608 1.0000
v -0.804071 1.350000 0.823276 0.6079 0.3608 1.0000
v -0.776216 1.321716 0.818365 0.6079 0.3608 1.0000
v -0.771305 1.650000 0.846220 0.6079 0.3608 1.0000
v -0.778251 1.610000 0.806827 0.6079 0.3608 1.0000
v -0.810697 1.610000 0.853165 0.6079 0.3608 1.0000
v -0.776216 1.638284 0.818365 0.6079 0.3608 1.0000
v -0.798058 1.633094 0.827487 0.6079 0.3608 1.0000
v -0.804071 1.610000 0.823276 0.6079 0.3608 1.0000
v -0.799159 1.638284 0.851131 0.6079 0.3608 1.0000
v 1.122999 1.310000 0.532511 0.6079 0.3608 1.0000
v 1.162391 1.350000 0.525565 0.6079 0.3608 1.0000
v 1.129945 1.350000 0.571904 0.6079 0.3608 1.0000
v 1.150854 1.321716 0.527600 0.6079 0.3608 1.0000
v 1.149753 1.326906 0.551244 0.6079 0.3608 1.0000
v 1.155765 1.350000 0.555454 0.6079 0.3608 1.0000
v 1.127911 1.321716 0.560366 0.6079 0.3608 1.0000
v 1.122999 1.650000 0.532511 0.6079 0.3608 1.0000
v 1.129945 1.610000 0.571904 0.6079 0.3608 1.0000
v 1.162391 1.610000 0.525565 0.6079 0.3608 1.0000
v 1.127911 1.638284 0.560366 0.6079 0.3608 1.0000
v 1.149753 1.633094 0.551244 0.6079 0.3608 1.0000
v 1.155765 1.610000 0.555454 0.6079 0.3608 1.0000
v 1.150854 1.638284 0.527600 0.6079 0.3608 1.0000
v 1.119526 1.310000 0.512815 0.6079 0.3608 1.0000
v 1.112580 1.350000 0.473423 0.6079 0.3608 1.0000
v 1.158919 1.350000 0.505869 0.6079 0.3608 1.0000
v 1.114615 1.321716 0.484960 0.6079 0.3608 1.0000
v 1.138259 1.326906 0.486062 0.6079 0.3608 1.0000
v 1.142469 1.350000 0.480049 0.6079 0.3608 1.0000
v 1.147381 1.321716 0.507904 0.6079 0.3608 1.0000
v 1.119526 1.650000 0.512815 0.6079 0.3608 1.0000
v 1.158919 1.610000 0.505869 0.6079 0.3608 1.0000
v 1.112580 1.610000 0.473423 0.6079 0.3608 1.0000
v 1.147381 1.638284 0.507904 0.6079 0.3608 1.0000
v 1.138259 1.633094 0.486062 0.6079 0.3608 1.0000
v 1.142469 1.610000 0.480049 0.6079 0.3608 1.0000
v 1.114614 1.638284 0.484960 0.6079 0.3608 1.0000
v -0.748706 1.360000 0.801618 1.0000 0.9647 0.8980
v -0.748706 1.600000 0.801618 1.0000 0.9647 0.8980
v -0.984868 1.360000 -0.537721 1.0000 0.9647 0.8980
v -0.984868 1.600000 -0.537721 1.0000 0.9647 0.8980
v 1.083036 1.360000 0.478632 1.0000 0.9647 0.8980
v 1.083036 1.600000 0.478632 1.0000 0.9647 0.8980
v 0.846875 1.360000 -0.860706 1.0000 0.9647 0.8980
v 0.846875 1.600000 -0.860706 1.0000 0.9647 0.8980
v -0.441406 1.335500 0.874361 0.9098 0.6980 0.2275
v -0.441406 1.624500 0.874361 0.9098 0.6980 0.2275
v -0.448352 1.335500 0.834969 0.9098 0.6980 0.2275
v -0.448352 1.624500 0.834969 0.9098 0.6980 0.2275
v -0.362621 1.335500 0.860469 0.9098 0.6980 0.2275
v -0.362621 1.624500 0.860469 0.9098 0.6980 0.2275
v -0.369567 1.335500 0.821077 0.9098 0.6980 0.2275
v -0.369567 1.624500 0.821077 0.9098 0.6980 0.2275
v 0.740363 1.335500 0.665983 0.9098 0.6980 0.2275
v 0.740363 1.624500 0.665983 0.9098 0.6980 0.2275
v 0.733417 1.335500 0.626591 0.9098 0.6980 0.2275
v 0.733417 1.624500 0.626591 0.9098 0.6980 0.2275
v 0.819148 1.335500 0.652091 0.9098 0.6980 0.2275
v 0.819148 1.624500 0.652091 0.9098 0.6980 0.2275
v 0.812202 1.335500 0.612699 0.9098 0.6980 0.2275
v 0.812202 1.624500 0.612699 0.9098 0.6980 0.2275
v 0.658780 1.101032 0.896189 0.9490 0.7608 0.1882
v 0.610350 1.105812 0.907663 0.9490 0.7608 0.1882
v 0.575863 1.104780 0.871474 0.9490 0.7608 0.1882
v 0.589807 1.098968 0.823811 0.9490 0.7608 0.1882
v 0.638238 1.094188 0.812337 0.9490 0.7608 0.1882
v 0.672724 1.095220 0.848526 0.9490 0.7608 0.1882
v 0.635505 1.664913 0.667519 0.9490 0.7608 0.1882
v 0.587537 1.664913 0.681627 0.9490 0.7608 0.1882
v 0.556325 1.630000 0.664108 0.9490 0.7608 0.1882
v 0.573082 1.595087 0.632481 0.9490 0.7608 0.1882
v 0.621050 1.595087 0.618373 0.9490 0.7608 0.1882
v 0.652262 1.630000 0.635892 0.9490 0.7608 0.1882
v 0.688679 1.520012 0.850285 0.9490 0.7608 0.1882
v 0.640263 1.522114 0.862592 0.9490 0.7608 0.1882
v 0.605878 1.502102 0.832307 0.9490 0.7608 0.1882
v 0.619908 1.479988 0.789715 0.9490 0.7608 0.1882
v 0.668324 1.477886 0.777408 0.9490 0.7608 0.1882
v 0.702710 1.497898 0.807693 0.9490 0.7608 0.1882
v -0.395706 2.218000 -0.100000 0.8470 0.2275 0.1804
v -0.395706 2.196077 -0.222459 0.8470 0.2275 0.1804
v -0.395706 2.040213 -0.395641 0.8470 0.2275 0.1804
v -0.395706 1.930000 -0.420000 0.8470 0.2275 0.1804
v -0.395706 1.663923 -0.222459 0.8470 0.2275 0.1804
v -0.395706 1.642000 -0.100000 0.8470 0.2275 0.1804
v -0.342574 2.196077 -0.210331 0.8470 0.2275 0.1804
v -0.297530 2.133647 -0.303866 0.8470 0.2275 0.1804
v -0.267432 2.040213 -0.366364 0.8470 0.2275 0.1804
v -0.256864 1.930000 -0.388310 0.8470 0.2275 0.1804
v -0.267432 1.819787 -0.366364 0.8470 0.2275 0.1804
v -0.297530 1.726353 -0.303866 0.8470 0.2275 0.1804
v -0.342574 1.663923 -0.210331 0.8470 0.2275 0.1804
v -0.299964 2.196077 -0.176352 0.8470 0.2275 0.1804
v -0.218798 2.133647 -0.241080 0.8470 0.2275 0.1804
v -0.164565 2.040213 -0.284329 0.8470 0.2275 0.1804
v -0.145520 1.930000 -0.299517 0.8470 0.2275 0.1804
v -0.164565 1.819787 -0.284329 0.8470 0.2275 0.1804
v -0.218798 1.726353 -0.241080 0.8470 0.2275 0.1804
v -0.299964 1.663923 -0.176352 0.8470 0.2275 0.1804
v -0.276318 2.196077 -0.127250 0.8470 0.2275 0.1804
v -0.175105 2.133647 -0.150351 0.8470 0.2275 0.1804
v -0.107477 2.040213 -0.165786 0.8470 0.2275 0.1804
v -0.083729 1.930000 -0.171207 0.8470 0.2275 0.1804
v -0.107477 1.819787 -0.165786 0.8470 0.2275 0.1804
v -0.175105 1.726353 -0.150351 0.8470 0.2275 0.1804
v -0.276318 1.663923 -0.127250 0.8470 0.2275 0.1804
v -0.276318 2.196077 -0.072750 0.8470 0.2275 0.1804
v -0.175105 2.133647 -0.049649 0.8470 0.2275 0.1804
v -0.107477 2.040213 -0.034214 0.8470 0.2275 0.1804
v -0.083730 1.930000 -0.028793 0.8470 0.2275 0.1804
v -0.107477 1.819787 -0.034214 0.8470 0.2275 0.1804
v -0.175105 1.726353 -0.049649 0.8470 0.2275 0.1804
v -0.276318 1.663923 -0.072750 0.8470 0.2275 0.1804
v -0.299964 2.196077 -0.023648 0.8470 0.2275 0.1804
v -0.218798 2.133647 0.041080 0.8470 0.2275 0.1804
v -0.164565 2.040213 0.084329 0.8470 0.2275 0.1804
v -0.145520 1.930000 0.099517 0.8470 0.2275 0.1804
v -0.164565 1.819787 0.084329 0.8470 0.2275 0.1804
v -0.218798 1.726353 0.041080 0.8470 0.2275 0.1804
v -0.299964 1.663923 -0.023648 0.8470 0.2275 0.1804
v -0.342574 2.196077 0.010331 0.8470 0.2275 0.1804
v -0.297530 2.133647 0.103866 0.8470 0.2275 0.1804
v -0.267432 2.040213 0.166364 0.8470 0.2275 0.1804
v -0.256864 1.930000 0.188310 0.8470 0.2275 0.1804
v -0.267432 1.819787 0.166364 0.8470 0.2275 0.1804
v -0.297530 1.726353 0.103866 0.8470 0.2275 0.1804
v -0.342574 1.663923 0.010331 0.8470 0.2275 0.1804
v -0.395706 2.196077 0.022459 0.8470 0.2275 0.1804
v -0.395706 2.133647 0.126274 0.8470 0.2275 0.1804
v -0.395706 2.040213 0.195641 0.8470 0.2275 0.1804
v -0.395706 1.930000 0.220000 0.8470 0.2275 0.1804
v -0.395706 1.819787 0.195641 0.8470 0.2275 0.1804
v -0.395706 1.726353 0.126274 0.8470 0.2275 0.1804
v -0.395706 1.663923 0.022459 0.8470 0.2275 0.1804
v -0.448839 2.196077 0.010331 0.8470 0.2275 0.1804
v -0.493883 2.133647 0.103866 0.8470 0.2275 0.1804
v -0.523980 2.040213 0.166364 0.8470 0.2275 0.1804
v -0.534549 1.930000 0.188310 0.8470 0.2275 0.1804
v -0.523980 1.819787 0.166364 0.8470 0.2275 0.1804
v -0.493883 1.726353 0.103866 0.8470 0.2275 0.1804
v -0.448839 1.663923 0.010331 0.8470 0.2275 0.1804
v -0.491448 2.196077 -0.023648 0.8470 0.2275 0.1804
v -0.572615 2.133647 0.041080 0.8470 0.2275 0.1804
v -0.626848 2.040213 0.084329 0.8470 0.2275 0.1804
v -0.645892 1.930000 0.099517 0.8470 0.2275 0.1804
v -0.626848 1.819787 0.084329 0.8470 0.2275 0.1804
v -0.572615 1.726353 0.041080 0.8470 0.2275 0.1804
v -0.491448 1.663923 -0.023648 0.8470 0.2275 0.1804
v -0.515095 2.196077 -0.072750 0.8470 0.2275 0.1804
v -0.616307 2.133647 -0.049649 0.8470 0.2275 0.1804
v -0.683935 2.040213 -0.034214 0.8470 0.2275 0.1804
v -0.707683 1.930000 -0.028793 0.8470 0.2275 0.1804
v -0.683935 1.819787 -0.034214 0.8470 0.2275 0.1804
v -0.616307 1.726353 -0.049649 0.8470 0.2275 0.1804
v -0.515095 1.663923 -0.072750 0.8470 0.2275 0.1804
v -0.515095 2.196077 -0.127250 0.8470 0.2275 0.1804
v -0.616307 2.133647 -0.150351 0.8470 0.2275 0.1804
v -0.683935 2.040213 -0.165786 0.8470 0.2275 0.1804
v -0.707683 1.930000 -0.171207 0.8470 0.2275 0.1804
v -0.683935 1.819787 -0.165786 0.8470 0.2275 0.1804
v -0.616307 1.726353 -0.150351 0.8470 0.2275 0.1804
v -0.515095 1.663923 -0.127250 0.8470 0.2275 0.1804
v -0.491448 2.196077 -0.176352 0.8470 0.2275 0.1804
v -0.572615 2.133647 -0.241080 0.8470 0.2275 0.1804
v -0.626848 2.040213 -0.284329 0.8470 0.2275 0.1804
v -0.645892 1.930000 -0.299517 0.8470 0.2275 0.1804
v -0.626848 1.819787 -0.284329 0.8470 0.2275 0.1804
v -0.572615 1.726353 -0.241080 0.8470 0.2275 0.1804
v -0.491448 1.663923 -0.176352 0.8470 0.2275 0.1804
v -0.448839 2.196077 -0.210331 0.8470 0.2275 0.1804
v -0.493883 2.133647 -0.303866 0.8470 0.2275 0.1804
v -0.523980 2.040213 -0.366364 0.8470 0.2275 0.1804
v -0.534549 1.930000 -0.388310 0.8470 0.2275 0.1804
v -0.523980 1.819787 -0.366364 0.8470 0.2275 0.1804
v -0.493883 1.726353 -0.303866 0.8470 0.2275 0.1804
v -0.448839 1.663923 -0.210331 0.8470 0.2275 0.1804
v -0.395706 2.133647 -0.326274 0.8470 0.2275 0.1804
v -0.395706 1.819787 -0.395641 0.8470 0.2275 0.1804
v -0.395706 1.726353 -0.326274 0.8470 0.2275 0.1804
v -0.395706 2.160000 -0.130000 0.6118 0.3961 0.2039
v -0.395706 2.340000 -0.130000 0.6118 0.3961 0.2039
v -0.369726 2.160000 -0.115000 0.6118 0.3961 0.2039
v -0.369726 2.340000 -0.115000 0.6118 0.3961 0.2039
v -0.369726 2.160000 -0.085000 0.6118 0.3961 0.2039
v -0.369726 2.340000 -0.085000 0.6118 0.3961 0.2039
v -0.395706 2.160000 -0.070000 0.6118 0.3961 0.2039
v -0.395706 2.340000 -0.070000 0.6118 0.3961 0.2039
v -0.421687 2.160000 -0.085000 0.6118 0.3961 0.2039
v -0.421687 2.340000 -0.085000 0.6118 0.3961 0.2039
v -0.421687 2.160000 -0.115000 0.6118 0.3961 0.2039
v -0.421687 2.340000 -0.115000 0.6118 0.3961 0.2039
v -0.295706 2.330000 -0.100000 0.4275 0.7451 0.2706
v -0.295706 2.312426 -0.135355 0.4275 0.7451 0.2706
v -0.295706 2.270000 -0.150000 0.4275 0.7451 0.2706
v -0.295706 2.227574 -0.135355 0.4275 0.7451 0.2706
v -0.295706 2.210000 -0.100000 0.4275 0.7451 0.2706
v -0.197727 2.312426 -0.117678 0.4275 0.7451 0.2706
v -0.157142 2.270000 -0.125000 0.4275 0.7451 0.2706
v -0.197727 2.227574 -0.117678 0.4275 0.7451 0.2706
v -0.197727 2.312426 -0.082322 0.4275 0.7451 0.2706
v -0.157142 2.270000 -0.075000 0.4275 0.7451 0.2706
v -0.197727 2.227574 -0.082322 0.4275 0.7451 0.2706
v -0.295706 2.312426 -0.064645 0.4275 0.7451 0.2706
v -0.295706 2.270000 -0.050000 0.4275 0.7451 0.2706
v -0.295706 2.227574 -0.064645 0.4275 0.7451 0.2706
v -0.393686 2.312426 -0.082322 0.4275 0.7451 0.2706
v -0.434271 2.270000 -0.075000 0.4275 0.7451 0.2706
v -0.393686 2.227574 -0.082322 0.4275 0.7451 0.2706
v -0.393686 2.312426 -0.117678 0.4275 0.7451 0.2706
v -0.434270 2.270000 -0.125000 0.4275 0.7451 0.2706
v -0.393686 2.227574 -0.117678 0.4275 0.7451 0.2706
vn -0.4606 -0.7588 0.4606
vn -0.4606 -0.4606 0.7588
vn -0.7588 -0.4606 0.4606
vn -0.4606 0.4606 0.7588
vn -0.4606 0.7588 0.4606
vn -0.7588 0.4606 0.4606
vn -0.4606 -0.7588 -0.4606
vn -0.7588 -0.4606 -0.4606
vn -0.4606 -0.4606 -0.7588
vn -0.4606 0.7588 -0.4606
vn -0.4606 0.4606 -0.7588
vn -0.7588 0.4606 -0.4606
vn 0.4606 -0.7588 0.4606
vn 0.7588 -0.4606 0.4606
vn 0.4606 -0.4606 0.7588
vn 0.4606 0.7588 0.4606
vn 0.4606 0.4606 0.7588
vn 0.7588 0.4606 0.4606
vn 0.4606 -0.7588 -0.4606
vn 0.4606 -0.4606 -0.7588
vn 0.7588 -0.4606 -0.4606
vn 0.4606 0.7588 -0.4606
vn 0.7588 0.4606 -0.4606
vn 0.4606 0.4606 -0.7588
vn -0.0000 -1.0000 -0.0000
vn -1.0000 -0.0000 -0.0000
vn -0.0000 -0.0000 1.0000
vn -0.0000 1.0000 -0.0000
vn -0.0000 -0.0000 -1.0000
vn 1.0000 -0.0000 -0.0000
vn -0.1794 -0.9673 0.1794
vn -0.1585 -0.9194 0.3600
vn -0.3251 -0.8881 0.3251
vn -0.3600 -0.9194 0.1585
vn -0.1794 -0.1794 0.9673
vn -0.3600 -0.1585 0.9194
vn -0.3251 -0.3251 0.8881
vn -0.1585 -0.3600 0.9194
vn -0.9673 -0.1794 0.1794
vn -0.9194 -0.3600 0.1585
vn -0.8881 -0.3251 0.3251
vn -0.9194 -0.1585 0.3600
vn -0.1794 0.1794 0.9673
vn -0.1585 0.3600 0.9194
vn -0.3251 0.3251 0.8881
vn -0.3600 0.1585 0.9194
vn -0.1794 0.9673 0.1794
vn -0.3600 0.9194 0.1585
vn -0.3251 0.8881 0.3251
vn -0.1585 0.9194 0.3600
vn -0.9673 0.1794 0.1794
vn -0.9194 0.1585 0.3600
vn -0.8881 0.3251 0.3251
vn -0.9194 0.3600 0.1585
vn -0.1794 -0.9673 -0.1794
vn -0.3600 -0.9194 -0.1585
vn -0.3251 -0.8881 -0.3251
vn -0.1585 -0.9194 -0.3600
vn -0.9673 -0.1794 -0.1794
vn -0.9194 -0.1585 -0.3600
vn -0.8881 -0.3251 -0.3251
vn -0.9194 -0.3600 -0.1585
vn -0.1794 -0.1794 -0.9673
vn -0.1585 -0.3600 -0.9194
vn -0.3251 -0.3251 -0.8881
vn -0.3600 -0.1585 -0.9194
vn -0.1794 0.9673 -0.1794
vn -0.1585 0.9194 -0.3600
vn -0.3251 0.8881 -0.3251
vn -0.3600 0.9194 -0.1585
vn -0.1794 0.1794 -0.9673
vn -0.3600 0.1585 -0.9194
vn -0.3251 0.3251 -0.8881
vn -0.1585 0.3600 -0.9194
vn -0.9673 0.1794 -0.1794
vn -0.9194 0.3600 -0.1585
vn -0.8881 0.3251 -0.3251
vn -0.9194 0.1585 -0.3600
vn 0.1794 -0.9673 0.1794
vn 0.3600 -0.9194 0.1585
vn 0.3251 -0.8881 0.3251
vn 0.1585 -0.9194 0.3600
vn 0.9673 -0.1794 0.1794
vn 0.9194 -0.1585 0.3600
vn 0.8881 -0.3251 0.3251
vn 0.9194 -0.3600 0.1585
vn 0.1794 -0.1794 0.9673
vn 0.1585 -0.3600 0.9194
vn 0.3251 -0.3251 0.8881
vn 0.3600 -0.1585 0.9194
vn 0.1794 0.9673 0.1794
vn 0.1585 0.9194 0.3600
vn 0.3251 0.8881 0.3251
vn 0.3600 0.9194 0.1585
vn 0.1794 0.1794 0.9673
vn 0.3600 0.1585 0.9194
vn 0.3251 0.3251 0.8881
vn 0.1585 0.3600 0.9194
vn 0.9673 0.1794 0.1794
vn 0.9194 0.3600 0.1585
vn 0.8881 0.3251 0.3251
vn 0.9194 0.1585 0.3600
vn 0.1794 -0.9673 -0.1794
vn 0.1585 -0.9194 -0.3600
vn 0.3251 -0.8881 -0.3251
vn 0.3600 -0.9194 -0.1585
vn 0.1794 -0.1794 -0.9673
vn 0.3600 -0.1585 -0.9194
vn 0.3251 -0.3251 -0.8881
vn 0.1585 -0.3600 -0.9194
vn 0.9673 -0.1794 -0.1794
vn 0.9194 -0.3600 -0.1585
vn 0.8881 -0.3251 -0.3251
vn 0.9194 -0.1585 -0.3600
vn 0.1794 0.9673 -0.1794
vn 0.3600 0.9194 -0.1585
vn 0.3251 0.8881 -0.3251
vn 0.1585 0.9194 -0.3600
vn 0.9673 0.1794 -0.1794
vn 0.9194 0.1585 -0.3600
vn 0.8881 0.3251 -0.3251
vn 0.9194 0.3600 -0.1585
vn 0.1794 0.1794 -0.9673
vn 0.1585 0.3600 -0.9194
vn 0.3251 0.3251 -0.8881
vn 0.3600 0.1585 -0.9194
vn -0.4010 -0.7588 0.5133
vn -0.3647 -0.4606 0.8093
vn -0.6970 -0.4606 0.5496
vn -0.3647 0.4606 0.8093
vn -0.4010 0.7588 0.5133
vn -0.6970 0.4606 0.5496
vn -0.5133 -0.7588 -0.4010
vn -0.8093 -0.4606 -0.3647
vn -0.5496 -0.4606 -0.6970
vn -0.5133 0.7588 -0.4010
vn -0.5496 0.4606 -0.6970
vn -0.8093 0.4606 -0.3647
vn 0.5133 -0.7588 0.4010
vn 0.8093 -0.4606 0.3647
vn 0.5496 -0.4606 0.6970
vn 0.5133 0.7588 0.4010
vn 0.5496 0.4606 0.6970
vn 0.8093 0.4606 0.3647
vn 0.4010 -0.7588 -0.5133
vn 0.3647 -0.4606 -0.8093
vn 0.6970 -0.4606 -0.5496
vn 0.4010 0.7588 -0.5133
vn 0.6970 0.4606 -0.5496
vn 0.3647 0.4606 -0.8093
vn -0.9925 -0.0000 0.1219
vn 0.1219 -0.0000 0.9925
vn -0.1219 -0.0000 -0.9925
vn 0.9925 -0.0000 -0.1219
vn -0.1562 -0.9673 0.1999
vn -0.1134 -0.9194 0.3766
vn -0.2830 -0.8881 0.3622
vn -0.3380 -0.9194 0.2012
vn -0.0601 -0.1794 0.9819
vn -0.2452 -0.1585 0.9564
vn -0.2144 -0.3251 0.9211
vn -0.0453 -0.3600 0.9319
vn -0.9382 -0.1794 0.2959
vn -0.8932 -0.3600 0.2693
vn -0.8418 -0.3251 0.4309
vn -0.8687 -0.1585 0.4693
vn -0.0601 0.1794 0.9819
vn -0.0453 0.3600 0.9319
vn -0.2144 0.3251 0.9211
vn -0.2452 0.1585 0.9564
vn -0.1562 0.9673 0.1999
vn -0.3380 0.9194 0.2012
vn -0.2830 0.8881 0.3622
vn -0.1134 0.9194 0.3766
vn -0.9382 0.1794 0.2959
vn -0.8687 0.1585 0.4693
vn -0.8418 0.3251 0.4309
vn -0.8932 0.3600 0.2694
vn -0.1999 -0.9673 -0.1562
vn -0.3766 -0.9194 -0.1134
vn -0.3622 -0.8881 -0.2830
vn -0.2012 -0.9194 -0.3380
vn -0.9819 -0.1794 -0.0601
vn -0.9564 -0.1585 -0.2452
vn -0.9211 -0.3251 -0.2144
vn -0.9319 -0.3600 -0.0453
vn -0.2959 -0.1794 -0.9382
vn -0.2694 -0.3600 -0.8932
vn -0.4309 -0.3251 -0.8418
vn -0.4693 -0.1585 -0.8687
vn -0.1999 0.9673 -0.1562
vn -0.2012 0.9194 -0.3380
vn -0.3623 0.8881 -0.2830
vn -0.3766 0.9194 -0.1134
vn -0.2959 0.1794 -0.9382
vn -0.4693 0.1585 -0.8687
vn -0.4309 0.3251 -0.8418
vn -0.2694 0.3600 -0.8932
vn -0.9819 0.1794 -0.0601
vn -0.9319 0.3600 -0.0453
vn -0.9211 0.3251 -0.2144
vn -0.9564 0.1585 -0.2452
vn 0.1999 -0.9673 0.1562
vn 0.3766 -0.9194 0.1134
vn 0.3622 -0.8881 0.2830
vn 0.2012 -0.9194 0.3380
vn 0.9819 -0.1794 0.0601
vn 0.9564 -0.1585 0.2452
vn 0.9211 -0.3251 0.2144
vn 0.9319 -0.3600 0.0453
vn 0.2959 -0.1794 0.9382
vn 0.2694 -0.3600 0.8932
vn 0.4309 -0.3251 0.8418
vn 0.4693 -0.1585 0.8687
vn 0.1999 0.9673 0.1562
vn 0.2012 0.9194 0.3380
vn 0.3622 0.8881 0.2830
vn 0.3766 0.9194 0.1134
vn 0.2959 0.1794 0.9382
vn 0.4693 0.1585 0.8687
vn 0.4309 0.3251 0.8418
vn 0.2694 0.3600 0.8932
vn 0.9819 0.1794 0.0601
vn 0.9319 0.3600 0.0453
vn 0.9211 0.3251 0.2144
vn 0.9564 0.1585 0.2452
vn 0.1562 -0.9673 -0.1999
vn 0.1134 -0.9194 -0.3766
vn 0.2830 -0.8881 -0.3622
vn 0.3380 -0.9194 -0.2012
vn 0.0601 -0.1794 -0.9819
vn 0.2452 -0.1585 -0.9564
vn 0.2144 -0.3251 -0.9211
vn 0.0453 -0.3600 -0.9319
vn 0.9382 -0.1794 -0.2959
vn 0.8932 -0.3600 -0.2694
vn 0.8418 -0.3251 -0.4309
vn 0.8687 -0.1585 -0.4693
vn 0.1562 0.9673 -0.1999
vn 0.3380 0.9194 -0.2012
vn 0.2830 0.8881 -0.3623
vn 0.1134 0.9194 -0.3766
vn 0.9382 0.1794 -0.2959
vn 0.8687 0.1585 -0.4693
vn 0.8418 0.3251 -0.4309
vn 0.8932 0.3600 -0.2694
vn 0.0601 0.1794 -0.9819
vn 0.0453 0.3600 -0.9319
vn 0.2144 0.3251 -0.9211
vn 0.2452 0.1585 -0.9564
vn -0.4990 -0.7588 0.4187
vn -0.5249 -0.4606 0.7158
vn -0.7960 -0.4606 0.3927
vn -0.5249 0.4606 0.7158
vn -0.4990 0.7588 0.4187
vn -0.7960 0.4606 0.3927
vn -0.4187 -0.7588 -0.4990
vn -0.7158 -0.4606 -0.5249
vn -0.3927 -0.4606 -0.7960
vn -0.4187 0.7588 -0.4990
vn -0.3927 0.4606 -0.7960
vn -0.7158 0.4606 -0.5249
vn 0.4187 -0.7588 0.4989
vn 0.7158 -0.4606 0.5249
vn 0.3927 -0.4606 0.7960
vn 0.4187 0.7588 0.4989
vn 0.3927 0.4606 0.7960
vn 0.7158 0.4606 0.5249
vn 0.4989 -0.7588 -0.4187
vn 0.5249 -0.4606 -0.7158
vn 0.7960 -0.4606 -0.3927
vn 0.4989 0.7588 -0.4187
vn 0.7960 0.4606 -0.3927
vn 0.5249 0.4606 -0.7158
vn -0.9962 -0.0000 -0.0872
vn -0.0872 -0.0000 0.9962
vn 0.0872 -0.0000 -0.9962
vn 0.9962 -0.0000 0.0872
vn -0.1943 -0.9673 0.1631
vn -0.1893 -0.9194 0.3448
vn -0.3522 -0.8881 0.2955
vn -0.3724 -0.9194 0.1265
vn -0.2630 -0.1794 0.9480
vn -0.4387 -0.1585 0.8845
vn -0.4012 -0.3251 0.8564
vn -0.2380 -0.3600 0.9021
vn -0.9792 -0.1794 0.0944
vn -0.9297 -0.3600 0.0777
vn -0.9130 -0.3251 0.2464
vn -0.9473 -0.1585 0.2785
vn -0.2630 0.1794 0.9480
vn -0.2380 0.3600 0.9021
vn -0.4012 0.3251 0.8564
vn -0.4387 0.1585 0.8845
vn -0.1943 0.9673 0.1630
vn -0.3724 0.9194 0.1265
vn -0.3521 0.8881 0.2955
vn -0.1893 0.9194 0.3448
vn -0.9792 0.1794 0.0944
vn -0.9473 0.1585 0.2785
vn -0.9130 0.3251 0.2464
vn -0.9297 0.3600 0.0777
vn -0.1631 -0.9673 -0.1943
vn -0.3448 -0.9194 -0.1893
vn -0.2955 -0.8881 -0.3522
vn -0.1265 -0.9194 -0.3724
vn -0.9480 -0.1794 -0.2630
vn -0.8845 -0.1585 -0.4387
vn -0.8564 -0.3251 -0.4012
vn -0.9021 -0.3600 -0.2380
vn -0.0944 -0.1794 -0.9792
vn -0.0778 -0.3600 -0.9297
vn -0.2464 -0.3251 -0.9130
vn -0.2785 -0.1585 -0.9473
vn -0.1630 0.9673 -0.1943
vn -0.1265 0.9194 -0.3724
vn -0.2955 0.8881 -0.3522
vn -0.3448 0.9194 -0.1893
vn -0.0944 0.1794 -0.9792
vn -0.2785 0.1585 -0.9473
vn -0.2464 0.3251 -0.9130
vn -0.0778 0.3600 -0.9297
vn -0.9480 0.1794 -0.2630
vn -0.9021 0.3600 -0.2380
vn -0.8564 0.3251 -0.4012
vn -0.8845 0.1585 -0.4387
vn 0.1631 -0.9673 0.1943
vn 0.3448 -0.9194 0.1893
vn 0.2955 -0.8881 0.3522
vn 0.1265 -0.9194 0.3724
vn 0.9480 -0.1794 0.2630
vn 0.8845 -0.1585 0.4387
vn 0.8564 -0.3251 0.4012
vn 0.9021 -0.3600 0.2380
vn 0.0944 -0.1794 0.9792
vn 0.0778 -0.3600 0.9297
vn 0.2464 -0.3251 0.9130
vn 0.2785 -0.1585 0.9473
vn 0.1630 0.9673 0.1943
vn 0.1265 0.9194 0.3724
vn 0.2955 0.8881 0.3521
vn 0.3448 0.9194 0.1893
vn 0.0944 0.1794 0.9792
vn 0.2785 0.1585 0.9473
vn 0.2464 0.3251 0.9130
vn 0.0778 0.3600 0.9297
vn 0.9480 0.1794 0.2630
vn 0.9021 0.3600 0.2380
vn 0.8564 0.3251 0.4012
vn 0.8845 0.1585 0.4387
vn 0.1943 -0.9673 -0.1631
vn 0.1893 -0.9194 -0.3448
vn 0.3522 -0.8881 -0.2955
vn 0.3724 -0.9194 -0.1265
vn 0.2630 -0.1794 -0.9480
vn 0.4387 -0.1585 -0.8845
vn 0.4012 -0.3251 -0.8564
vn 0.2380 -0.3600 -0.9021
vn 0.9792 -0.1794 -0.0944
vn 0.9297 -0.3600 -0.0777
vn 0.9130 -0.3251 -0.2464
vn 0.9473 -0.1585 -0.2785
vn 0.1943 0.9673 -0.1631
vn 0.3724 0.9194 -0.1265
vn 0.3521 0.8881 -0.2955
vn 0.1893 0.9194 -0.3448
vn 0.9792 0.1794 -0.0944
vn 0.9473 0.1585 -0.2785
vn 0.9130 0.3251 -0.2464
vn 0.9297 0.3600 -0.0778
vn 0.2630 0.1794 -0.9480
vn 0.2380 0.3600 -0.9021
vn 0.4012 0.3251 -0.8564
vn 0.4387 0.1585 -0.8845
vn -0.3736 -0.7588 0.5335
vn -0.3218 -0.4606 0.8272
vn -0.6673 -0.4606 0.5853
vn -0.3218 0.4606 0.8272
vn -0.3736 0.7588 0.5335
vn -0.6673 0.4606 0.5853
vn -0.5335 -0.7588 -0.3736
vn -0.8272 -0.4606 -0.3218
vn -0.5853 -0.4606 -0.6673
vn -0.5335 0.7588 -0.3736
vn -0.5853 0.4606 -0.6673
vn -0.8272 0.4606 -0.3218
vn 0.5335 -0.7588 0.3736
vn 0.8272 -0.4606 0.3218
vn 0.5853 -0.4606 0.6673
vn 0.5335 0.7588 0.3736
vn 0.5853 0.4606 0.6673
vn 0.8272 0.4606 0.3218
vn 0.3736 -0.7588 -0.5335
vn 0.3218 -0.4606 -0.8272
vn 0.6673 -0.4606 -0.5853
vn 0.3736 0.7588 -0.5335
vn 0.6673 0.4606 -0.5853
vn 0.3218 0.4606 -0.8272
vn -0.9848 -0.0000 0.1736
vn 0.1736 -0.0000 0.9848
vn -0.1736 -0.0000 -0.9848
vn 0.9848 -0.0000 -0.1736
vn -0.1455 -0.9673 0.2078
vn -0.0936 -0.9194 0.3820
vn -0.2637 -0.8881 0.3766
vn -0.3270 -0.9194 0.2186
vn -0.0087 -0.1794 0.9837
vn -0.1948 -0.1585 0.9679
vn -0.1659 -0.3251 0.9310
vn 0.0036 -0.3600 0.9330
vn -0.9215 -0.1794 0.3446
vn -0.8779 -0.3600 0.3157
vn -0.8181 -0.3251 0.4743
vn -0.8429 -0.1585 0.5142
vn -0.0087 0.1794 0.9837
vn 0.0036 0.3600 0.9330
vn -0.1659 0.3251 0.9310
vn -0.1948 0.1585 0.9679
vn -0.1455 0.9673 0.2078
vn -0.3270 0.9194 0.2186
vn -0.2637 0.8881 0.3766
vn -0.0936 0.9194 0.3820
vn -0.9215 0.1794 0.3446
vn -0.8429 0.1585 0.5142
vn -0.8181 0.3251 0.4743
vn -0.8779 0.3600 0.3157
vn -0.2078 -0.9673 -0.1455
vn -0.3820 -0.9194 -0.0936
vn -0.3766 -0.8881 -0.2637
vn -0.2186 -0.9194 -0.3270
vn -0.9837 -0.1794 -0.0087
vn -0.9679 -0.1585 -0.1948
vn -0.9310 -0.3251 -0.1659
vn -0.9330 -0.3600 0.0036
vn -0.3446 -0.1794 -0.9215
vn -0.3157 -0.3600 -0.8779
vn -0.4743 -0.3251 -0.8181
vn -0.5142 -0.1585 -0.8429
vn -0.2078 0.9673 -0.1455
vn -0.2186 0.9194 -0.3270
vn -0.3766 0.8881 -0.2637
vn -0.3820 0.9194 -0.0936
vn -0.3446 0.1794 -0.9215
vn -0.5142 0.1585 -0.8429
vn -0.4743 0.3251 -0.8181
vn -0.3157 0.3600 -0.8779
vn -0.9837 0.1794 -0.0087
vn -0.9330 0.3600 0.0036
vn -0.9310 0.3251 -0.1659
vn -0.9679 0.1585 -0.1948
vn 0.2078 -0.9673 0.1455
vn 0.3820 -0.9194 0.0936
vn 0.3766 -0.8881 0.2637
vn 0.2186 -0.9194 0.3270
vn 0.9837 -0.1794 0.0087
vn 0.9679 -0.1585 0.1948
vn 0.9310 -0.3251 0.1659
vn 0.9330 -0.3600 -0.0036
vn 0.3446 -0.1794 0.9215
vn 0.3157 -0.3600 0.8779
vn 0.4743 -0.3251 0.8181
vn 0.5141 -0.1585 0.8429
vn 0.2078 0.9673 0.1455
vn 0.2186 0.9194 0.3270
vn 0.3766 0.8881 0.2637
vn 0.3820 0.9194 0.0936
vn 0.3446 0.1794 0.9215
vn 0.5141 0.1585 0.8429
vn 0.4743 0.3251 0.8181
vn 0.3157 0.3600 0.8779
vn 0.9837 0.1794 0.0087
vn 0.9330 0.3600 -0.0036
vn 0.9310 0.3251 0.1659
vn 0.9679 0.1585 0.1948
vn 0.1455 -0.9673 -0.2078
vn 0.0936 -0.9194 -0.3820
vn 0.2637 -0.8881 -0.3766
vn 0.3270 -0.9194 -0.2186
vn 0.0087 -0.1794 -0.9837
vn 0.1948 -0.1585 -0.9679
vn 0.1659 -0.3251 -0.9310
vn -0.0036 -0.3600 -0.9330
vn 0.9215 -0.1794 -0.3446
vn 0.8779 -0.3600 -0.3157
vn 0.8181 -0.3251 -0.4743
vn 0.8429 -0.1585 -0.5141
vn 0.1455 0.9673 -0.2078
vn 0.3270 0.9194 -0.2186
vn 0.2637 0.8881 -0.3766
vn 0.0936 0.9194 -0.3820
vn 0.9215 0.1794 -0.3446
vn 0.8429 0.1585 -0.5141
vn 0.8181 0.3251 -0.4743
vn 0.8779 0.3600 -0.3157
vn 0.0087 0.1794 -0.9837
vn -0.0036 0.3600 -0.9330
vn 0.1659 0.3251 -0.9310
vn 0.1948 0.1585 -0.9679
vn -0.0744 -0.9923 0.0992
vn -0.2275 0.5915 -0.7735
vn 0.9082 0.4144 0.0583
vn 0.9624 0.1959 0.1884
vn 0.9624 0.1953 0.1887
vn 0.1760 0.7964 0.5787
vn -0.7364 0.4130 0.5359
vn -0.7325 0.2724 0.6239
vn -0.7325 0.2727 0.6237
vn -0.9042 -0.4243 -0.0490
vn -0.9626 -0.1977 -0.1852
vn -0.9627 -0.1971 -0.1855
vn -0.1687 -0.8177 -0.5504
vn 0.7369 -0.4171 -0.5320
vn 0.7332 -0.2731 -0.6227
vn 0.7333 -0.2734 -0.6226
vn 0.9512 -0.0370 0.3063
vn 0.2434 0.0878 0.9659
vn -0.7085 0.1241 0.6947
vn -0.9503 0.0444 -0.3083
vn -0.2425 -0.0683 -0.9677
vn 0.7083 -0.1211 -0.6955
vn -0.0000 0.4043 -0.9146
vn -0.0000 0.7271 -0.6865
vn 0.2979 0.7271 -0.6185
vn 0.3968 0.4043 -0.8240
vn -0.0000 0.9275 -0.3738
vn 0.1622 0.9275 -0.3368
vn -0.0000 -0.9275 -0.3738
vn 0.1622 -0.9275 -0.3368
vn -0.0000 -0.7271 -0.6865
vn -0.0000 -0.4043 -0.9146
vn 0.3968 -0.4043 -0.8240
vn 0.2979 -0.7271 -0.6185
vn 0.4339 -0.0000 -0.9010
vn 0.7151 -0.4043 -0.5703
vn 0.5367 -0.7271 -0.4280
vn 0.7151 0.4043 -0.5703
vn 0.7818 -0.0000 -0.6235
vn 0.2923 0.9275 -0.2331
vn 0.5367 0.7271 -0.4280
vn 0.2923 -0.9275 -0.2331
vn 0.6693 -0.7271 -0.1528
vn 0.3645 -0.9275 -0.0832
vn 0.9749 -0.0000 -0.2225
vn 0.8917 -0.4043 -0.2035
vn 0.6693 0.7271 -0.1528
vn 0.8917 0.4043 -0.2035
vn 0.3645 0.9275 -0.0832
vn 0.9749 -0.0000 0.2225
vn 0.8917 -0.4043 0.2035
vn 0.6693 0.7271 0.1528
vn 0.8917 0.4043 0.2035
vn 0.3645 0.9275 0.0832
vn 0.3645 -0.9275 0.0832
vn 0.6693 -0.7271 0.1528
vn 0.2923 -0.9275 0.2331
vn 0.7151 -0.4043 0.5703
vn 0.5367 -0.7271 0.4280
vn 0.7151 0.4043 0.5703
vn 0.7818 -0.0000 0.6235
vn 0.2923 0.9275 0.2331
vn 0.5367 0.7271 0.4280
vn 0.3968 0.4043 0.8240
vn 0.4339 -0.0000 0.9010
vn 0.1622 0.9275 0.3368
vn 0.2979 0.7271 0.6185
vn 0.2979 -0.7271 0.6185
vn 0.1622 -0.9275 0.3368
vn 0.3968 -0.4043 0.8240
vn -0.0000 -0.7271 0.6865
vn -0.0000 -0.9275 0.3738
vn -0.0000 -0.4043 0.9146
vn -0.0000 0.7271 0.6865
vn -0.0000 0.4043 0.9146
vn -0.0000 0.9275 0.3738
vn -0.2979 0.7271 0.6185
vn -0.3968 0.4043 0.8240
vn -0.1622 0.9275 0.3368
vn -0.1622 -0.9275 0.3368
vn -0.3968 -0.4043 0.8240
vn -0.2979 -0.7271 0.6185
vn -0.4339 -0.0000 0.9010
vn -0.2923 -0.9275 0.2331
vn -0.7151 -0.4043 0.5703
vn -0.5367 -0.7271 0.4280
vn -0.7151 0.4043 0.5703
vn -0.7818 -0.0000 0.6235
vn -0.2923 0.9275 0.2331
vn -0.5367 0.7271 0.4280
vn -0.3645 0.9275 0.0832
vn -0.6693 0.7271 0.1528
vn -0.6693 -0.7271 0.1528
vn -0.3645 -0.9275 0.0832
vn -0.9749 -0.0000 0.2225
vn -0.8917 -0.4043 0.2035
vn -0.8917 0.4043 0.2035
vn -0.6693 -0.7271 -0.1528
vn -0.3645 -0.9275 -0.0832
vn -0.9749 -0.0000 -0.2225
vn -0.8917 -0.4043 -0.2035
vn -0.6693 0.7271 -0.1528
vn -0.8917 0.4043 -0.2035
vn -0.3645 0.9275 -0.0832
vn -0.2923 0.9275 -0.2331
vn -0.2923 -0.9275 -0.2331
vn -0.7151 -0.4043 -0.5703
vn -0.5367 -0.7271 -0.4280
vn -0.7151 0.4043 -0.5703
vn -0.7818 -0.0000 -0.6235
vn -0.5367 0.7271 -0.4280
vn -0.3968 -0.4043 -0.8240
vn -0.2979 -0.7271 -0.6185
vn -0.3968 0.4043 -0.8240
vn -0.4339 -0.0000 -0.9010
vn -0.1622 0.9275 -0.3368
vn -0.2979 0.7271 -0.6185
vn -0.1622 -0.9275 -0.3368
vn 0.5000 -0.0000 -0.8660
vn 0.5000 -0.0000 0.8660
vn -0.5000 -0.0000 0.8660
vn -0.5000 -0.0000 -0.8660
vn -0.0000 -0.3263 -0.9453
vn 0.1776 -0.0000 -0.9841
vn 0.1681 -0.3216 -0.9318
vn -0.0000 0.8955 -0.4451
vn 0.4597 0.8865 -0.0537
vn -0.0000 -0.8955 -0.4451
vn 0.4597 -0.8865 -0.0537
vn -0.0000 0.3263 -0.9453
vn 0.1681 0.3216 -0.9318
vn 0.4597 -0.8865 0.0537
vn 0.7226 0.6912 -0.0000
vn 0.4597 0.8865 0.0537
vn 0.7226 -0.6912 -0.0000
vn -0.0000 0.8955 0.4451
vn -0.0000 -0.8955 0.4451
vn 0.1776 -0.0000 0.9841
vn 0.1681 0.3216 0.9318
vn -0.0000 0.3263 0.9453
vn 0.1681 -0.3216 0.9318
vn -0.0000 -0.3263 0.9453
vn -0.1776 -0.0000 0.9841
vn -0.1681 -0.3216 0.9318
vn -0.4597 0.8865 0.0537
vn -0.4597 -0.8865 0.0537
vn -0.1681 0.3216 0.9318
vn -0.7226 -0.6912 -0.0000
vn -0.4597 -0.8865 -0.0537
vn -0.4597 0.8865 -0.0537
vn -0.7226 0.6912 -0.0000
vn -0.1681 -0.3216 -0.9318
vn -0.1776 -0.0000 -0.9841
vn -0.1681 0.3216 -0.9318
vt 0.000000 0.000000
vt 1.000000 0.000000
vt 0.600000 0.000000
vt 0.800000 0.000000
vt 0.400000 0.000000
vt 0.200000 0.000000
vt 0.000000 1.000000
vt 0.500000 1.000000
vt 0.500000 0.833333
vt 0.000000 0.833333
vt 0.000000 0.166667
vt 0.500000 0.166667
vt 0.500000 0.000000
vt 0.000000 0.333333
vt 0.500000 0.333333
vt 0.000000 0.500000
vt 0.500000 0.500000
vt 0.000000 0.666667
vt 0.500000 0.666667
vt 1.000000 1.000000
vt 1.000000 0.833333
vt 1.000000 0.166667
vt 1.000000 0.333333
vt 1.000000 0.500000
vt 1.000000 0.666667
s 1
usemtl ketchup
f 1/1/1 2/1/2 3/1/3
f 4/1/4 5/1/5 6/1/6
f 7/1/7 8/1/8 9/1/9
f 10/1/10 11/1/11 12/1/12
f 13/1/13 14/1/14 15/1/15
f 16/1/16 17/1/17 18/1/18
f 19/1/19 20/1/20 21/1/21
f 22/1/22 23/1/23 24/1/24
f 7/1/7 1/1/1 3/1/3 8/1/8
f 2/1/2 4/1/4 6/1/6 3/1/3
f 5/1/5 10/1/10 12/1/12 6/1/6
f 11/1/11 9/1/9 8/1/8 12/1/12
f 19/1/19 7/1/7 9/1/9 20/1/20
f 10/1/10 22/1/22 24/1/24 11/1/11
f 23/1/23 21/1/21 20/1/20 24/1/24
f 13/1/13 19/1/19 21/1/21 14/1/14
f 22/1/22 16/1/16 18/1/18 23/1/23
f 17/1/17 15/1/15 14/1/14 18/1/18
f 1/1/1 13/1/13 15/1/15 2/1/2
f 16/1/16 5/1/5 4/1/4 17/1/17
f 7/1/25 19/1/25 13/1/25 1/1/25
f 3/1/26 6/1/26 12/1/26 8/1/26
f 15/1/27 17/1/27 4/1/27 2/1/27
f 22/1/28 10/1/28 5/1/28 16/1/28
f 9/1/29 11/1/29 24/1/29 20/1/29
f 21/1/30 23/1/30 18/1/30 14/1/30
f 25/1/1 26/1/2 27/1/3
f 28/1/4 29/1/5 30/1/6
f 31/1/7 32/1/8 33/1/9
f 34/1/10 35/1/11 36/1/12
f 37/1/13 38/1/14 39/1/15
f 40/1/16 41/1/17 42/1/18
f 43/1/19 44/1/20 45/1/21
f 46/1/22 47/1/23 48/1/24
f 31/1/7 25/1/1 27/1/3 32/1/8
f 26/1/2 28/1/4 30/1/6 27/1/3
f 29/1/5 34/1/10 36/1/12 30/1/6
f 35/1/11 33/1/9 32/1/8 36/1/12
f 43/1/19 31/1/7 33/1/9 44/1/20
f 34/1/10 46/1/22 48/1/24 35/1/11
f 47/1/23 45/1/21 44/1/20 48/1/24
f 37/1/13 43/1/19 45/1/21 38/1/14
f 46/1/22 40/1/16 42/1/18 47/1/23
f 41/1/17 39/1/15 38/1/14 42/1/18
f 25/1/1 37/1/13 39/1/15 26/1/2
f 40/1/16 29/1/5 28/1/4 41/1/17
f 31/1/25 43/1/25 37/1/25 25/1/25
f 27/1/26 30/1/26 36/1/26 32/1/26
f 39/1/27 41/1/27 28/1/27 26/1/27
f 46/1/28 34/1/28 29/1/28 40/1/28
f 33/1/29 35/1/29 48/1/29 44/1/29
f 45/1/30 47/1/30 42/1/30 38/1/30
f 49/1/31 52/1/32 53/1/33 55/1/34
f 50/1/35 54/1/36 53/1/37 52/1/38
f 51/1/39 55/1/40 53/1/41 54/1/42
f 56/1/43 59/1/44 60/1/45 62/1/46
f 57/1/47 61/1/48 60/1/49 59/1/50
f 58/1/51 62/1/52 60/1/53 61/1/54
f 63/1/55 66/1/56 67/1/57 69/1/58
f 64/1/59 68/1/60 67/1/61 66/1/62
f 65/1/63 69/1/64 67/1/65 68/1/66
f 70/1/67 73/1/68 74/1/69 76/1/70
f 71/1/71 75/1/72 74/1/73 73/1/74
f 72/1/75 76/1/76 74/1/77 75/1/78
f 77/1/79 80/1/80 81/1/81 83/1/82
f 78/1/83 82/1/84 81/1/85 80/1/86
f 79/1/87 83/1/88 81/1/89 82/1/90
f 84/1/91 87/1/92 88/1/93 90/1/94
f 85/1/95 89/1/96 88/1/97 87/1/98
f 86/1/99 90/1/100 88/1/101 89/1/102
f 91/1/103 94/1/104 95/1/105 97/1/106
f 92/1/107 96/1/108 95/1/109 94/1/110
f 93/1/111 97/1/112 95/1/113 96/1/114
f 98/1/115 101/1/116 102/1/117 104/1/118
f 99/1/119 103/1/120 102/1/121 101/1/122
f 100/1/123 104/1/124 102/1/125 103/1/126
f 63/1/55 49/1/31 55/1/34 66/1/56
f 66/1/62 55/1/40 51/1/39 64/1/59
f 50/1/35 56/1/43 62/1/46 54/1/36
f 54/1/42 62/1/52 58/1/51 51/1/39
f 57/1/47 70/1/67 76/1/70 61/1/48
f 61/1/54 76/1/76 72/1/75 58/1/51
f 71/1/71 65/1/63 68/1/66 75/1/72
f 75/1/78 68/1/60 64/1/59 72/1/75
f 91/1/103 63/1/55 69/1/58 94/1/104
f 94/1/110 69/1/64 65/1/63 92/1/107
f 70/1/67 98/1/115 104/1/118 73/1/68
f 73/1/74 104/1/124 100/1/123 71/1/71
f 99/1/119 93/1/111 96/1/114 103/1/120
f 103/1/126 96/1/108 92/1/107 100/1/123
f 77/1/79 91/1/103 97/1/106 80/1/80
f 80/1/86 97/1/112 93/1/111 78/1/83
f 98/1/115 84/1/91 90/1/94 101/1/116
f 101/1/122 90/1/100 86/1/99 99/1/119
f 85/1/95 79/1/87 82/1/90 89/1/96
f 89/1/102 82/1/84 78/1/83 86/1/99
f 49/1/31 77/1/79 83/1/82 52/1/32
f 52/1/38 83/1/88 79/1/87 50/1/35
f 84/1/91 57/1/47 59/1/50 87/1/92
f 87/1/98 59/1/44 56/1/43 85/1/95
f 63/1/55 91/1/103 77/1/79 49/1/31
f 51/1/39 58/1/51 72/1/75 64/1/59
f 79/1/87 85/1/95 56/1/43 50/1/35
f 98/1/115 70/1/67 57/1/47 84/1/91
f 65/1/63 71/1/71 100/1/123 92/1/107
f 93/1/111 99/1/119 86/1/99 78/1/83
f 533/1/521 628/1/522 538/1/523 539/1/524
f 532/1/525 531/1/28 537/1/526
f 536/1/25 535/1/527 543/1/528
f 630/1/529 629/1/530 541/1/531 542/1/532
f 534/1/29 533/1/521 539/1/524 540/1/533
f 628/1/522 532/1/525 537/1/526 538/1/523
f 535/1/527 630/1/529 542/1/532 543/1/528
f 629/1/530 534/1/29 540/1/533 541/1/531
f 542/1/532 541/1/531 548/1/534 549/1/535
f 540/1/533 539/1/524 546/1/536 547/1/537
f 538/1/523 537/1/526 544/1/538 545/1/539
f 543/1/528 542/1/532 549/1/535 550/1/540
f 541/1/531 540/1/533 547/1/537 548/1/534
f 539/1/524 538/1/523 545/1/539 546/1/536
f 537/1/526 531/1/28 544/1/538
f 536/1/25 543/1/528 550/1/540
f 550/1/540 549/1/535 556/1/541 557/1/542
f 548/1/534 547/1/537 554/1/543 555/1/544
f 546/1/536 545/1/539 552/1/545 553/1/546
f 544/1/538 531/1/28 551/1/547
f 536/1/25 550/1/540 557/1/542
f 549/1/535 548/1/534 555/1/544 556/1/541
f 547/1/537 546/1/536 553/1/546 554/1/543
f 545/1/539 544/1/538 551/1/547 552/1/545
f 555/1/544 554/1/543 561/1/548 562/1/549
f 553/1/546 552/1/545 559/1/550 560/1/551
f 551/1/547 531/1/28 558/1/552
f 536/1/25 557/1/542 564/1/553
f 556/1/541 555/1/544 562/1/549 563/1/554
f 554/1/543 553/1/546 560/1/551 561/1/548
f 552/1/545 551/1/547 558/1/552 559/1/550
f 557/1/542 556/1/541 563/1/554 564/1/553
f 536/1/25 564/1/553 571/1/555
f 563/1/554 562/1/549 569/1/556 570/1/557
f 561/1/548 560/1/551 567/1/558 568/1/559
f 559/1/550 558/1/552 565/1/560 566/1/561
f 564/1/553 563/1/554 570/1/557 571/1/555
f 562/1/549 561/1/548 568/1/559 569/1/556
f 560/1/551 559/1/550 566/1/561 567/1/558
f 558/1/552 531/1/28 565/1/560
f 568/1/559 567/1/558 574/1/562 575/1/563
f 566/1/561 565/1/560 572/1/564 573/1/565
f 571/1/555 570/1/557 577/1/566 578/1/567
f 569/1/556 568/1/559 575/1/563 576/1/568
f 567/1/558 566/1/561 573/1/565 574/1/562
f 565/1/560 531/1/28 572/1/564
f 536/1/25 571/1/555 578/1/567
f 570/1/557 569/1/556 576/1/568 577/1/566
f 578/1/567 577/1/566 584/1/569 585/1/570
f 576/1/568 575/1/563 582/1/27 583/1/571
f 574/1/562 573/1/565 580/1/572 581/1/573
f 572/1/564 531/1/28 579/1/574
f 536/1/25 578/1/567 585/1/570
f 577/1/566 576/1/568 583/1/571 584/1/569
f 575/1/563 574/1/562 581/1/573 582/1/27
f 573/1/565 572/1/564 579/1/574 580/1/572
f 581/1/573 580/1/572 587/1/575 588/1/576
f 579/1/574 531/1/28 586/1/577
f 536/1/25 585/1/570 592/1/578
f 584/1/569 583/1/571 590/1/579 591/1/580
f 582/1/27 581/1/573 588/1/576 589/1/581
f 580/1/572 579/1/574 586/1/577 587/1/575
f 585/1/570 584/1/569 591/1/580 592/1/578
f 583/1/571 582/1/27 589/1/581 590/1/579
f 536/1/25 592/1/578 599/1/582
f 591/1/580 590/1/579 597/1/583 598/1/584
f 589/1/581 588/1/576 595/1/585 596/1/586
f 587/1/575 586/1/577 593/1/587 594/1/588
f 592/1/578 591/1/580 598/1/584 599/1/582
f 590/1/579 589/1/581 596/1/586 597/1/583
f 588/1/576 587/1/575 594/1/588 595/1/585
f 586/1/577 531/1/28 593/1/587
f 594/1/588 593/1/587 600/1/589 601/1/590
f 599/1/582 598/1/584 605/1/591 606/1/592
f 597/1/583 596/1/586 603/1/593 604/1/594
f 595/1/585 594/1/588 601/1/590 602/1/595
f 593/1/587 531/1/28 600/1/589
f 536/1/25 599/1/582 606/1/592
f 598/1/584 597/1/583 604/1/594 605/1/591
f 596/1/586 595/1/585 602/1/595 603/1/593
f 606/1/592 605/1/591 612/1/596 613/1/597
f 604/1/594 603/1/593 610/1/598 611/1/599
f 602/1/595 601/1/590 608/1/600 609/1/601
f 600/1/589 531/1/28 607/1/602
f 536/1/25 606/1/592 613/1/597
f 605/1/591 604/1/594 611/1/599 612/1/596
f 603/1/593 602/1/595 609/1/601 610/1/598
f 601/1/590 600/1/589 607/1/602 608/1/600
f 607/1/602 531/1/28 614/1/603
f 536/1/25 613/1/597 620/1/604
f 612/1/596 611/1/599 618/1/605 619/1/606
f 610/1/598 609/1/601 616/1/607 617/1/608
f 608/1/600 607/1/602 614/1/603 615/1/609
f 613/1/597 612/1/596 619/1/606 620/1/604
f 611/1/599 610/1/598 617/1/608 618/1/605
f 609/1/601 608/1/600 615/1/609 616/1/607
f 619/1/606 618/1/605 625/1/610 626/1/611
f 617/1/608 616/1/607 623/1/612 624/1/613
f 615/1/609 614/1/603 621/1/614 622/1/615
f 620/1/604 619/1/606 626/1/611 627/1/616
f 618/1/605 617/1/608 624/1/613 625/1/610
f 616/1/607 615/1/609 622/1/615 623/1/612
f 614/1/603 531/1/28 621/1/614
f 536/1/25 620/1/604 627/1/616
f 627/1/616 626/1/611 630/1/529 535/1/527
f 625/1/610 624/1/613 534/1/29 629/1/530
f 623/1/612 622/1/615 628/1/522 533/1/521
f 621/1/614 531/1/28 532/1/525
f 536/1/25 627/1/616 535/1/527
f 626/1/611 625/1/610 629/1/530 630/1/529
f 624/1/613 623/1/612 533/1/521 534/1/29
f 622/1/615 621/1/614 532/1/525 628/1/522
usemtl cream
f 105/1/26 106/1/26 108/1/26 107/1/26
f 107/1/29 108/1/29 112/1/29 111/1/29
f 111/1/30 112/1/30 110/1/30 109/1/30
f 109/1/27 110/1/27 106/1/27 105/1/27
f 107/1/25 111/1/25 109/1/25 105/1/25
f 112/1/28 108/1/28 106/1/28 110/1/28
f 233/1/151 234/1/151 236/1/151 235/1/151
f 235/1/153 236/1/153 240/1/153 239/1/153
f 239/1/154 240/1/154 238/1/154 237/1/154
f 237/1/152 238/1/152 234/1/152 233/1/152
f 235/1/25 239/1/25 237/1/25 233/1/25
f 240/1/28 236/1/28 234/1/28 238/1/28
f 361/1/275 362/1/275 364/1/275 363/1/275
f 363/1/277 364/1/277 368/1/277 367/1/277
f 367/1/278 368/1/278 366/1/278 365/1/278
f 365/1/276 366/1/276 362/1/276 361/1/276
f 363/1/25 367/1/25 365/1/25 361/1/25
f 368/1/28 364/1/28 362/1/28 366/1/28
f 489/1/399 490/1/399 492/1/399 491/1/399
f 491/1/401 492/1/401 496/1/401 495/1/401
f 495/1/402 496/1/402 494/1/402 493/1/402
f 493/1/400 494/1/400 490/1/400 489/1/400
f 491/1/25 495/1/25 493/1/25 489/1/25
f 496/1/28 492/1/28 490/1/28 494/1/28
usemtl gold
f 113/1/26 114/1/26 116/1/26 115/1/26
f 115/1/29 116/1/29 120/1/29 119/1/29
f 119/1/30 120/1/30 118/1/30 117/1/30
f 117/1/27 118/1/27 114/1/27 113/1/27
f 115/1/25 119/1/25 117/1/25 113/1/25
f 120/1/28 116/1/28 114/1/28 118/1/28
f 121/1/26 122/1/26 124/1/26 123/1/26
f 123/1/29 124/1/29 128/1/29 127/1/29
f 127/1/30 128/1/30 126/1/30 125/1/30
f 125/1/27 126/1/27 122/1/27 121/1/27
f 123/1/25 127/1/25 125/1/25 121/1/25
f 128/1/28 124/1/28 122/1/28 126/1/28
f 241/1/151 242/1/151 244/1/151 243/1/151
f 243/1/153 244/1/153 248/1/153 247/1/153
f 247/1/154 248/1/154 246/1/154 245/1/154
f 245/1/152 246/1/152 242/1/152 241/1/152
f 243/1/25 247/1/25 245/1/25 241/1/25
f 248/1/28 244/1/28 242/1/28 246/1/28
f 249/1/151 250/1/151 252/1/151 251/1/151
f 251/1/153 252/1/153 256/1/153 255/1/153
f 255/1/154 256/1/154 254/1/154 253/1/154
f 253/1/152 254/1/152 250/1/152 249/1/152
f 251/1/25 255/1/25 253/1/25 249/1/25
f 256/1/28 252/1/28 250/1/28 254/1/28
f 369/1/275 370/1/275 372/1/275 371/1/275
f 371/1/277 372/1/277 376/1/277 375/1/277
f 375/1/278 376/1/278 374/1/278 373/1/278
f 373/1/276 374/1/276 370/1/276 369/1/276
f 371/1/25 375/1/25 373/1/25 369/1/25
f 376/1/28 372/1/28 370/1/28 374/1/28
f 377/1/275 378/1/275 380/1/275 379/1/275
f 379/1/277 380/1/277 384/1/277 383/1/277
f 383/1/278 384/1/278 382/1/278 381/1/278
f 381/1/276 382/1/276 378/1/276 377/1/276
f 379/1/25 383/1/25 381/1/25 377/1/25
f 384/1/28 380/1/28 378/1/28 382/1/28
f 497/1/399 498/1/399 500/1/399 499/1/399
f 499/1/401 500/1/401 504/1/401 503/1/401
f 503/1/402 504/1/402 502/1/402 501/1/402
f 501/1/400 502/1/400 498/1/400 497/1/400
f 499/1/25 503/1/25 501/1/25 497/1/25
f 504/1/28 500/1/28 498/1/28 502/1/28
f 505/1/399 506/1/399 508/1/399 507/1/399
f 507/1/401 508/1/401 512/1/401 511/1/401
f 511/1/402 512/1/402 510/1/402 509/1/402
f 509/1/400 510/1/400 506/1/400 505/1/400
f 507/1/25 511/1/25 509/1/25 505/1/25
f 512/1/28 508/1/28 506/1/28 510/1/28
usemtl teal
f 129/1/127 130/1/128 131/1/129
f 132/1/130 133/1/131 134/1/132
f 135/1/133 136/1/134 137/1/135
f 138/1/136 139/1/137 140/1/138
f 141/1/139 142/1/140 143/1/141
f 144/1/142 145/1/143 146/1/144
f 147/1/145 148/1/146 149/1/147
f 150/1/148 151/1/149 152/1/150
f 135/1/133 129/1/127 131/1/129 136/1/134
f 130/1/128 132/1/130 134/1/132 131/1/129
f 133/1/131 138/1/136 140/1/138 134/1/132
f 139/1/137 137/1/135 136/1/134 140/1/138
f 147/1/145 135/1/133 137/1/135 148/1/146
f 138/1/136 150/1/148 152/1/150 139/1/137
f 151/1/149 149/1/147 148/1/146 152/1/150
f 141/1/139 147/1/145 149/1/147 142/1/140
f 150/1/148 144/1/142 146/1/144 151/1/149
f 145/1/143 143/1/141 142/1/140 146/1/144
f 129/1/127 141/1/139 143/1/141 130/1/128
f 144/1/142 133/1/131 132/1/130 145/1/143
f 135/1/25 147/1/25 141/1/25 129/1/25
f 131/1/151 134/1/151 140/1/151 136/1/151
f 143/1/152 145/1/152 132/1/152 130/1/152
f 150/1/28 138/1/28 133/1/28 144/1/28
f 137/1/153 139/1/153 152/1/153 148/1/153
f 149/1/154 151/1/154 146/1/154 142/1/154
f 153/1/127 154/1/128 155/1/129
f 156/1/130 157/1/131 158/1/132
f 159/1/133 160/1/134 161/1/135
f 162/1/136 163/1/137 164/1/138
f 165/1/139 166/1/140 167/1/141
f 168/1/142 169/1/143 170/1/144
f 171/1/145 172/1/146 173/1/147
f 174/1/148 175/1/149 176/1/150
f 159/1/133 153/1/127 155/1/129 160/1/134
f 154/1/128 156/1/130 158/1/132 155/1/129
f 157/1/131 162/1/136 164/1/138 158/1/132
f 163/1/137 161/1/135 160/1/134 164/1/138
f 171/1/145 159/1/133 161/1/135 172/1/146
f 162/1/136 174/1/148 176/1/150 163/1/137
f 175/1/149 173/1/147 172/1/146 176/1/150
f 165/1/139 171/1/145 173/1/147 166/1/140
f 174/1/148 168/1/142 170/1/144 175/1/149
f 169/1/143 167/1/141 166/1/140 170/1/144
f 153/1/127 165/1/139 167/1/141 154/1/128
f 168/1/142 157/1/131 156/1/130 169/1/143
f 159/1/25 171/1/25 165/1/25 153/1/25
f 155/1/151 158/1/151 164/1/151 160/1/151
f 167/1/152 169/1/152 156/1/152 154/1/152
f 174/1/28 162/1/28 157/1/28 168/1/28
f 161/1/153 163/1/153 176/1/153 172/1/153
f 173/1/154 175/1/154 170/1/154 166/1/154
f 177/1/155 180/1/156 181/1/157 183/1/158
f 178/1/159 182/1/160 181/1/161 180/1/162
f 179/1/163 183/1/164 181/1/165 182/1/166
f 184/1/167 187/1/168 188/1/169 190/1/170
f 185/1/171 189/1/172 188/1/173 187/1/174
f 186/1/175 190/1/176 188/1/177 189/1/178
f 191/1/179 194/1/180 195/1/181 197/1/182
f 192/1/183 196/1/184 195/1/185 194/1/186
f 193/1/187 197/1/188 195/1/189 196/1/190
f 198/1/191 201/1/192 202/1/193 204/1/194
f 199/1/195 203/1/196 202/1/197 201/1/198
f 200/1/199 204/1/200 202/1/201 203/1/202
f 205/1/203 208/1/204 209/1/205 211/1/206
f 206/1/207 210/1/208 209/1/209 208/1/210
f 207/1/211 211/1/212 209/1/213 210/1/214
f 212/1/215 215/1/216 216/1/217 218/1/218
f 213/1/219 217/1/220 216/1/221 215/1/222
f 214/1/223 218/1/224 216/1/225 217/1/226
f 219/1/227 222/1/228 223/1/229 225/1/230
f 220/1/231 224/1/232 223/1/233 222/1/234
f 221/1/235 225/1/236 223/1/237 224/1/238
f 226/1/239 229/1/240 230/1/241 232/1/242
f 227/1/243 231/1/244 230/1/245 229/1/246
f 228/1/247 232/1/248 230/1/249 231/1/250
f 191/1/179 177/1/155 183/1/158 194/1/180
f 194/1/186 183/1/164 179/1/163 192/1/183
f 178/1/159 184/1/167 190/1/170 182/1/160
f 182/1/166 190/1/176 186/1/175 179/1/163
f 185/1/171 198/1/191 204/1/194 189/1/172
f 189/1/178 204/1/200 200/1/199 186/1/175
f 199/1/195 193/1/187 196/1/190 203/1/196
f 203/1/202 196/1/184 192/1/183 200/1/199
f 219/1/227 191/1/179 197/1/182 222/1/228
f 222/1/234 197/1/188 193/1/187 220/1/231
f 198/1/191 226/1/239 232/1/242 201/1/192
f 201/1/198 232/1/248 228/1/247 199/1/195
f 227/1/243 221/1/235 224/1/238 231/1/244
f 231/1/250 224/1/232 220/1/231 228/1/247
f 205/1/203 219/1/227 225/1/230 208/1/204
f 208/1/210 225/1/236 221/1/235 206/1/207
f 226/1/239 212/1/215 218/1/218 229/1/240
f 229/1/246 218/1/224 214/1/223 227/1/243
f 213/1/219 207/1/211 210/1/214 217/1/220
f 217/1/226 210/1/208 206/1/207 214/1/223
f 177/1/155 205/1/203 211/1/206 180/1/156
f 180/1/162 211/1/212 207/1/211 178/1/159
f 212/1/215 185/1/171 187/1/174 215/1/216
f 215/1/222 187/1/168 184/1/167 213/1/219
f 191/1/179 219/1/227 205/1/203 177/1/155
f 179/1/163 186/1/175 200/1/199 192/1/183
f 207/1/211 213/1/219 184/1/167 178/1/159
f 226/1/239 198/1/191 185/1/171 212/1/215
f 193/1/187 199/1/195 228/1/247 220/1/231
f 221/1/235 227/1/243 214/1/223 206/1/207
usemtl relish
f 257/1/251 258/1/252 259/1/253
f 260/1/254 261/1/255 262/1/256
f 263/1/257 264/1/258 265/1/259
f 266/1/260 267/1/261 268/1/262
f 269/1/263 270/1/264 271/1/265
f 272/1/266 273/1/267 274/1/268
f 275/1/269 276/1/270 277/1/271
f 278/1/272 279/1/273 280/1/274
f 263/1/257 257/1/251 259/1/253 264/1/258
f 258/1/252 260/1/254 262/1/256 259/1/253
f 261/1/255 266/1/260 268/1/262 262/1/256
f 267/1/261 265/1/259 264/1/258 268/1/262
f 275/1/269 263/1/257 265/1/259 276/1/270
f 266/1/260 278/1/272 280/1/274 267/1/261
f 279/1/273 277/1/271 276/1/270 280/1/274
f 269/1/263 275/1/269 277/1/271 270/1/264
f 278/1/272 272/1/266 274/1/268 279/1/273
f 273/1/267 271/1/265 270/1/264 274/1/268
f 257/1/251 269/1/263 271/1/265 258/1/252
f 272/1/266 261/1/255 260/1/254 273/1/267
f 263/1/25 275/1/25 269/1/25 257/1/25
f 259/1/275 262/1/275 268/1/275 264/1/275
f 271/1/276 273/1/276 260/1/276 258/1/276
f 278/1/28 266/1/28 261/1/28 272/1/28
f 265/1/277 267/1/277 280/1/277 276/1/277
f 277/1/278 279/1/278 274/1/278 270/1/278
f 281/1/251 282/1/252 283/1/253
f 284/1/254 285/1/255 286/1/256
f 287/1/257 288/1/258 289/1/259
f 290/1/260 291/1/261 292/1/262
f 293/1/263 294/1/264 295/1/265
f 296/1/266 297/1/267 298/1/268
f 299/1/269 300/1/270 301/1/271
f 302/1/272 303/1/273 304/1/274
f 287/1/257 281/1/251 283/1/253 288/1/258
f 282/1/252 284/1/254 286/1/256 283/1/253
f 285/1/255 290/1/260 292/1/262 286/1/256
f 291/1/261 289/1/259 288/1/258 292/1/262
f 299/1/269 287/1/257 289/1/259 300/1/270
f 290/1/260 302/1/272 304/1/274 291/1/261
f 303/1/273 301/1/271 300/1/270 304/1/274
f 293/1/263 299/1/269 301/1/271 294/1/264
f 302/1/272 296/1/266 298/1/268 303/1/273
f 297/1/267 295/1/265 294/1/264 298/1/268
f 281/1/251 293/1/263 295/1/265 282/1/252
f 296/1/266 285/1/255 284/1/254 297/1/267
f 287/1/25 299/1/25 293/1/25 281/1/25
f 283/1/275 286/1/275 292/1/275 288/1/275
f 295/1/276 297/1/276 284/1/276 282/1/276
f 302/1/28 290/1/28 285/1/28 296/1/28
f 289/1/277 291/1/277 304/1/277 300/1/277
f 301/1/278 303/1/278 298/1/278 294/1/278
f 305/1/279 308/1/280 309/1/281 311/1/282
f 306/1/283 310/1/284 309/1/285 308/1/286
f 307/1/287 311/1/288 309/1/289 310/1/290
f 312/1/291 315/1/292 316/1/293 318/1/294
f 313/1/295 317/1/296 316/1/297 315/1/298
f 314/1/299 318/1/300 316/1/301 317/1/302
f 319/1/303 322/1/304 323/1/305 325/1/306
f 320/1/307 324/1/308 323/1/309 322/1/310
f 321/1/311 325/1/312 323/1/313 324/1/314
f 326/1/315 329/1/316 330/1/317 332/1/318
f 327/1/319 331/1/320 330/1/321 329/1/322
f 328/1/323 332/1/324 330/1/325 331/1/326
f 333/1/327 336/1/328 337/1/329 339/1/330
f 334/1/331 338/1/332 337/1/333 336/1/334
f 335/1/335 339/1/336 337/1/337 338/1/338
f 340/1/339 343/1/340 344/1/341 346/1/342
f 341/1/343 345/1/344 344/1/345 343/1/346
f 342/1/347 346/1/348 344/1/349 345/1/350
f 347/1/351 350/1/352 351/1/353 353/1/354
f 348/1/355 352/1/356 351/1/357 350/1/358
f 349/1/359 353/1/360 351/1/361 352/1/362
f 354/1/363 357/1/364 358/1/365 360/1/366
f 355/1/367 359/1/368 358/1/369 357/1/370
f 356/1/371 360/1/372 358/1/373 359/1/374
f 319/1/303 305/1/279 311/1/282 322/1/304
f 322/1/310 311/1/288 307/1/287 320/1/307
f 306/1/283 312/1/291 318/1/294 310/1/284
f 310/1/290 318/1/300 314/1/299 307/1/287
f 313/1/295 326/1/315 332/1/318 317/1/296
f 317/1/302 332/1/324 328/1/323 314/1/299
f 327/1/319 321/1/311 324/1/314 331/1/320
f 331/1/326 324/1/308 320/1/307 328/1/323
f 347/1/351 319/1/303 325/1/306 350/1/352
f 350/1/358 325/1/312 321/1/311 348/1/355
f 326/1/315 354/1/363 360/1/366 329/1/316
f 329/1/322 360/1/372 356/1/371 327/1/319
f 355/1/367 349/1/359 352/1/362 359/1/368
f 359/1/374 352/1/356 348/1/355 356/1/371
f 333/1/327 347/1/351 353/1/354 336/1/328
f 336/1/334 353/1/360 349/1/359 334/1/331
f 354/1/363 340/1/339 346/1/342 357/1/364
f 357/1/370 346/1/348 342/1/347 355/1/367
f 341/1/343 335/1/335 338/1/338 345/1/344
f 345/1/350 338/1/332 334/1/331 342/1/347
f 305/1/279 333/1/327 339/1/330 308/1/280
f 308/1/286 339/1/336 335/1/335 306/1/283
f 340/1/339 313/1/295 315/1/298 343/1/340
f 343/1/346 315/1/292 312/1/291 341/1/343
f 319/1/303 347/1/351 333/1/327 305/1/279
f 307/1/287 314/1/299 328/1/323 320/1/307
f 335/1/335 341/1/343 312/1/291 306/1/283
f 354/1/363 326/1/315 313/1/295 340/1/339
f 321/1/311 327/1/319 356/1/371 348/1/355
f 349/1/359 355/1/367 342/1/347 334/1/331
f 646/1/621 645/1/29 649/1/622 650/1/623
f 644/1/624 643/1/28 648/1/625
f 647/1/25 646/1/626 650/1/627
f 645/1/29 644/1/628 648/1/629 649/1/622
f 647/1/25 650/1/627 653/1/630
f 649/1/631 648/1/625 651/1/632 652/1/631
f 650/1/627 649/1/633 652/1/633 653/1/630
f 648/1/625 643/1/28 651/1/632
f 651/1/632 643/1/28 654/1/634
f 647/1/25 653/1/630 656/1/635
f 652/1/636 651/1/637 654/1/638 655/1/27
f 653/1/639 652/1/636 655/1/27 656/1/640
f 656/1/640 655/1/27 658/1/641 659/1/642
f 654/1/634 643/1/28 657/1/643
f 647/1/25 656/1/635 659/1/644
f 655/1/27 654/1/638 657/1/645 658/1/641
f 659/1/644 658/1/646 661/1/646 662/1/647
f 657/1/643 643/1/28 660/1/648
f 647/1/25 659/1/644 662/1/647
f 658/1/649 657/1/643 660/1/648 661/1/649
f 662/1/650 661/1/651 645/1/29 646/1/621
f 660/1/648 643/1/28 644/1/624
f 647/1/25 662/1/647 646/1/626
f 661/1/651 660/1/652 644/1/628 645/1/29
usemtl violet
f 385/1/375 386/1/376 387/1/377
f 388/1/378 389/1/379 390/1/380
f 391/1/381 392/1/382 393/1/383
f 394/1/384 395/1/385 396/1/386
f 397/1/387 398/1/388 399/1/389
f 400/1/390 401/1/391 402/1/392
f 403/1/393 404/1/394 405/1/395
f 406/1/396 407/1/397 408/1/398
f 391/1/381 385/1/375 387/1/377 392/1/382
f 386/1/376 388/1/378 390/1/380 387/1/377
f 389/1/379 394/1/384 396/1/386 390/1/380
f 395/1/385 393/1/383 392/1/382 396/1/386
f 403/1/393 391/1/381 393/1/383 404/1/394
f 394/1/384 406/1/396 408/1/398 395/1/385
f 407/1/397 405/1/395 404/1/394 408/1/398
f 397/1/387 403/1/393 405/1/395 398/1/388
f 406/1/396 400/1/390 402/1/392 407/1/397
f 401/1/391 399/1/389 398/1/388 402/1/392
f 385/1/375 397/1/387 399/1/389 386/1/376
f 400/1/390 389/1/379 388/1/378 401/1/391
f 391/1/25 403/1/25 397/1/25 385/1/25
f 387/1/399 390/1/399 396/1/399 392/1/399
f 399/1/400 401/1/400 388/1/400 386/1/400
f 406/1/28 394/1/28 389/1/28 400/1/28
f 393/1/401 395/1/401 408/1/401 404/1/401
f 405/1/402 407/1/402 402/1/402 398/1/402
f 409/1/375 410/1/376 411/1/377
f 412/1/378 413/1/379 414/1/380
f 415/1/381 416/1/382 417/1/383
f 418/1/384 419/1/385 420/1/386
f 421/1/387 422/1/388 423/1/389
f 424/1/390 425/1/391 426/1/392
f 427/1/393 428/1/394 429/1/395
f 430/1/396 431/1/397 432/1/398
f 415/1/381 409/1/375 411/1/377 416/1/382
f 410/1/376 412/1/378 414/1/380 411/1/377
f 413/1/379 418/1/384 420/1/386 414/1/380
f 419/1/385 417/1/383 416/1/382 420/1/386
f 427/1/393 415/1/381 417/1/383 428/1/394
f 418/1/384 430/1/396 432/1/398 419/1/385
f 431/1/397 429/1/395 428/1/394 432/1/398
f 421/1/387 427/1/393 429/1/395 422/1/388
f 430/1/396 424/1/390 426/1/392 431/1/397
f 425/1/391 423/1/389 422/1/388 426/1/392
f 409/1/375 421/1/387 423/1/389 410/1/376
f 424/1/390 413/1/379 412/1/378 425/1/391
f 415/1/25 427/1/25 421/1/25 409/1/25
f 411/1/399 414/1/399 420/1/399 416/1/399
f 423/1/400 425/1/400 412/1/400 410/1/400
f 430/1/28 418/1/28 413/1/28 424/1/28
f 417/1/401 419/1/401 432/1/401 428/1/401
f 429/1/402 431/1/402 426/1/402 422/1/402
f 433/1/403 436/1/404 437/1/405 439/1/406
f 434/1/407 438/1/408 437/1/409 436/1/410
f 435/1/411 439/1/412 437/1/413 438/1/414
f 440/1/415 443/1/416 444/1/417 446/1/418
f 441/1/419 445/1/420 444/1/421 443/1/422
f 442/1/423 446/1/424 444/1/425 445/1/426
f 447/1/427 450/1/428 451/1/429 453/1/430
f 448/1/431 452/1/432 451/1/433 450/1/434
f 449/1/435 453/1/436 451/1/437 452/1/438
f 454/1/439 457/1/440 458/1/441 460/1/442
f 455/1/443 459/1/444 458/1/445 457/1/446
f 456/1/447 460/1/448 458/1/449 459/1/450
f 461/1/451 464/1/452 465/1/453 467/1/454
f 462/1/455 466/1/456 465/1/457 464/1/458
f 463/1/459 467/1/460 465/1/461 466/1/462
f 468/1/463 471/1/464 472/1/465 474/1/466
f 469/1/467 473/1/468 472/1/469 471/1/470
f 470/1/471 474/1/472 472/1/473 473/1/474
f 475/1/475 478/1/476 479/1/477 481/1/478
f 476/1/479 480/1/480 479/1/481 478/1/482
f 477/1/483 481/1/484 479/1/485 480/1/486
f 482/1/487 485/1/488 486/1/489 488/1/490
f 483/1/491 487/1/492 486/1/493 485/1/494
f 484/1/495 488/1/496 486/1/497 487/1/498
f 447/1/427 433/1/403 439/1/406 450/1/428
f 450/1/434 439/1/412 435/1/411 448/1/431
f 434/1/407 440/1/415 446/1/418 438/1/408
f 438/1/414 446/1/424 442/1/423 435/1/411
f 441/1/419 454/1/439 460/1/442 445/1/420
f 445/1/426 460/1/448 456/1/447 442/1/423
f 455/1/443 449/1/435 452/1/438 459/1/444
f 459/1/450 452/1/432 448/1/431 456/1/447
f 475/1/475 447/1/427 453/1/430 478/1/476
f 478/1/482 453/1/436 449/1/435 476/1/479
f 454/1/439 482/1/487 488/1/490 457/1/440
f 457/1/446 488/1/496 484/1/495 455/1/443
f 483/1/491 477/1/483 480/1/486 487/1/492
f 487/1/498 480/1/480 476/1/479 484/1/495
f 461/1/451 475/1/475 481/1/478 464/1/452
f 464/1/458 481/1/484 477/1/483 462/1/455
f 482/1/487 468/1/463 474/1/466 485/1/488
f 485/1/494 474/1/472 470/1/471 483/1/491
f 469/1/467 463/1/459 466/1/462 473/1/468
f 473/1/474 466/1/456 462/1/455 470/1/471
f 433/1/403 461/1/451 467/1/454 436/1/404
f 436/1/410 467/1/460 463/1/459 434/1/407
f 468/1/463 441/1/419 443/1/422 471/1/464
f 471/1/470 443/1/416 440/1/415 469/1/467
f 447/1/427 475/1/475 461/1/451 433/1/403
f 435/1/411 442/1/423 456/1/447 448/1/431
f 463/1/459 469/1/467 440/1/415 434/1/407
f 482/1/487 454/1/439 441/1/419 468/1/463
f 449/1/435 455/1/443 484/1/495 476/1/479
f 477/1/483 483/1/491 470/1/471 462/1/455
usemtl mustard
f 518/2/499 516/3/499 517/4/499
f 513/1/499 516/3/499 518/2/499
f 513/1/499 515/5/499 516/3/499
f 514/6/499 515/5/499 513/1/499
f 522/3/500 524/2/500 523/4/500
f 521/5/500 524/2/500 522/3/500
f 521/5/500 519/1/500 524/2/500
f 520/6/500 519/1/500 521/5/500
f 519/7/501 525/8/502 530/9/503 524/10/501
f 520/11/504 526/12/504 525/13/504 519/1/504
f 521/14/505 527/15/506 526/12/507 520/11/505
f 522/16/508 528/17/509 527/15/510 521/14/508
f 523/18/511 529/19/511 528/17/511 522/16/511
f 524/10/512 530/9/513 529/19/514 523/18/512
f 525/8/502 513/20/515 518/21/515 530/9/503
f 526/12/516 514/22/516 513/2/516 525/13/516
f 527/15/506 515/23/517 514/22/517 526/12/507
f 528/17/509 516/24/518 515/23/518 527/15/510
f 529/19/519 517/25/519 516/24/519 528/17/519
f 530/9/513 518/21/520 517/25/520 529/19/514
usemtl wood_dark
f 631/1/617 632/1/617 634/1/617 633/1/617
f 633/1/30 634/1/30 636/1/30 635/1/30
f 635/1/618 636/1/618 638/1/618 637/1/618
f 637/1/619 638/1/619 640/1/619 639/1/619
f 634/1/28 632/1/28 642/1/28 640/1/28 638/1/28 636/1/28
f 639/1/26 640/1/26 642/1/26 641/1/26
f 641/1/620 642/1/620 632/1/620 631/1/620
f 631/1/25 633/1/25 635/1/25 637/1/25 639/1/25 641/1/25
