# Blender 5.0.1
# www.blender.org
mtllib Bun.mtl
o Bun
v -0.880000 0.312000 0.160000 0.9098 0.7216 0.4196
v -0.868254 0.216292 0.136137 0.9098 0.7216 0.4196
v -0.868254 0.229070 0.115923 0.9098 0.7216 0.4196
v -0.868254 0.254474 0.102419 0.9098 0.7216 0.4196
v -0.868254 0.288635 0.097681 0.9098 0.7216 0.4196
v -0.868254 0.326354 0.102431 0.9098 0.7216 0.4196
v -0.868254 0.361887 0.115945 0.9098 0.7216 0.4196
v -0.868254 0.389825 0.136166 0.9098 0.7216 0.4196
v -0.868254 0.405916 0.160016 0.9098 0.7216 0.4196
v -0.868254 0.407708 0.183863 0.9098 0.7216 0.4196
v -0.868254 0.394930 0.204077 0.9098 0.7216 0.4196
v -0.868254 0.369527 0.217581 0.9098 0.7216 0.4196
v -0.868254 0.335365 0.222319 0.9098 0.7216 0.4196
v -0.868254 0.297647 0.217569 0.9098 0.7216 0.4196
v -0.868254 0.262113 0.204055 0.9098 0.7216 0.4196
v -0.868254 0.234175 0.183834 0.9098 0.7216 0.4196
v -0.868254 0.218084 0.159984 0.9098 0.7216 0.4196
v -0.834164 0.129952 0.114610 0.9098 0.7216 0.4196
v -0.834164 0.154258 0.076161 0.9098 0.7216 0.4196
v -0.834164 0.202578 0.050475 0.9098 0.7216 0.4196
v -0.834164 0.267557 0.041463 0.9098 0.7216 0.4196
v -0.834164 0.339302 0.050498 0.9098 0.7216 0.4196
v -0.834164 0.406891 0.076203 0.9098 0.7216 0.4196
v -0.834164 0.460033 0.114665 0.9098 0.7216 0.4196
v -0.834164 0.490638 0.160030 0.9098 0.7216 0.4196
v -0.834164 0.494048 0.205390 0.9098 0.7216 0.4196
v -0.834164 0.469742 0.243839 0.9098 0.7216 0.4196
v -0.834164 0.421422 0.269525 0.9098 0.7216 0.4196
v -0.834164 0.356443 0.278537 0.9098 0.7216 0.4196
v -0.834164 0.284698 0.269503 0.9098 0.7216 0.4196
v -0.834164 0.217110 0.243797 0.9098 0.7216 0.4196
v -0.834164 0.163967 0.205335 0.9098 0.7216 0.4196
v -0.834164 0.133362 0.159970 0.9098 0.7216 0.4196
v -0.781068 0.061433 0.097527 0.9098 0.7216 0.4196
v -0.781068 0.094886 0.044605 0.9098 0.7216 0.4196
v -0.781068 0.161394 0.009251 0.9098 0.7216 0.4196
v -0.781068 0.250830 -0.003152 0.9098 0.7216 0.4196
v -0.781068 0.349578 0.009283 0.9098 0.7216 0.4196
v -0.781068 0.442606 0.044663 0.9098 0.7216 0.4196
v -0.781068 0.515750 0.097602 0.9098 0.7216 0.4196
v -0.781068 0.557875 0.160041 0.9098 0.7216 0.4196
v -0.781068 0.562568 0.222474 0.9098 0.7216 0.4196
v -0.781068 0.529114 0.275395 0.9098 0.7216 0.4196
v -0.781068 0.462606 0.310749 0.9098 0.7216 0.4196
v -0.781068 0.373170 0.323152 0.9098 0.7216 0.4196
v -0.781068 0.274422 0.310717 0.9098 0.7216 0.4196
v -0.781068 0.181394 0.275337 0.9098 0.7216 0.4196
v -0.781068 0.108250 0.222398 0.9098 0.7216 0.4196
v -0.781068 0.066125 0.159959 0.9098 0.7216 0.4196
v -0.714164 0.017440 0.086558 0.9098 0.7216 0.4196
v -0.714164 0.056768 0.024345 0.9098 0.7216 0.4196
v -0.714164 0.134952 -0.017216 0.9098 0.7216 0.4196
v -0.714164 0.240090 -0.031797 0.9098 0.7216 0.4196
v -0.714164 0.356176 -0.017179 0.9098 0.7216 0.4196
v -0.714164 0.465536 0.024413 0.9098 0.7216 0.4196
v -0.714164 0.551522 0.086647 0.9098 0.7216 0.4196
v -0.714164 0.601043 0.160048 0.9098 0.7216 0.4196
v -0.714164 0.606560 0.233442 0.9098 0.7216 0.4196
v -0.714164 0.567232 0.295655 0.9098 0.7216 0.4196
v -0.714164 0.489048 0.337216 0.9098 0.7216 0.4196
v -0.714164 0.383910 0.351797 0.9098 0.7216 0.4196
v -0.714164 0.267824 0.337179 0.9098 0.7216 0.4196
v -0.714164 0.158464 0.295587 0.9098 0.7216 0.4196
v -0.714164 0.072478 0.233353 0.9098 0.7216 0.4196
v -0.714164 0.022957 0.159952 0.9098 0.7216 0.4196
v -0.640000 0.002282 0.082779 0.9098 0.7216 0.4196
v -0.640000 0.043633 0.017364 0.9098 0.7216 0.4196
v -0.640000 0.125840 -0.026336 0.9098 0.7216 0.4196
v -0.640000 0.236389 -0.041667 0.9098 0.7216 0.4196
v -0.640000 0.358449 -0.026297 0.9098 0.7216 0.4196
v -0.640000 0.473437 0.017436 0.9098 0.7216 0.4196
v -0.640000 0.563848 0.082872 0.9098 0.7216 0.4196
v -0.640000 0.615918 0.160051 0.9098 0.7216 0.4196
v -0.640000 0.621718 0.237221 0.9098 0.7216 0.4196
v -0.640000 0.580367 0.302636 0.9098 0.7216 0.4196
v -0.640000 0.498160 0.346336 0.9098 0.7216 0.4196
v -0.640000 0.387611 0.361667 0.9098 0.7216 0.4196
v -0.640000 0.265551 0.346297 0.9098 0.7216 0.4196
v -0.640000 0.150563 0.302564 0.9098 0.7216 0.4196
v -0.640000 0.060152 0.237128 0.9098 0.7216 0.4196
v -0.640000 0.008082 0.159949 0.9098 0.7216 0.4196
v 0.640000 0.002282 0.082779 0.9098 0.7216 0.4196
v 0.640000 0.043633 0.017364 0.9098 0.7216 0.4196
v 0.640000 0.125840 -0.026336 0.9098 0.7216 0.4196
v 0.640000 0.236389 -0.041667 0.9098 0.7216 0.4196
v 0.640000 0.358449 -0.026297 0.9098 0.7216 0.4196
v 0.640000 0.473437 0.017436 0.9098 0.7216 0.4196
v 0.640000 0.563848 0.082872 0.9098 0.7216 0.4196
v 0.640000 0.615918 0.160051 0.9098 0.7216 0.4196
v 0.640000 0.621718 0.237221 0.9098 0.7216 0.4196
v 0.640000 0.580367 0.302636 0.9098 0.7216 0.4196
v 0.640000 0.498160 0.346336 0.9098 0.7216 0.4196
v 0.640000 0.387611 0.361667 0.9098 0.7216 0.4196
v 0.640000 0.265551 0.346297 0.9098 0.7216 0.4196
v 0.640000 0.150563 0.302564 0.9098 0.7216 0.4196
v 0.640000 0.060152 0.237128 0.9098 0.7216 0.4196
v 0.640000 0.008082 0.159949 0.9098 0.7216 0.4196
v 0.714164 0.017440 0.086558 0.9098 0.7216 0.4196
v 0.714164 0.056768 0.024345 0.9098 0.7216 0.4196
v 0.714164 0.134952 -0.017216 0.9098 0.7216 0.4196
v 0.714164 0.240090 -0.031797 0.9098 0.7216 0.4196
v 0.714164 0.356176 -0.017179 0.9098 0.7216 0.4196
v 0.714164 0.465536 0.024413 0.9098 0.7216 0.4196
v 0.714164 0.551522 0.086647 0.9098 0.7216 0.4196
v 0.714164 0.601043 0.160048 0.9098 0.7216 0.4196
v 0.714164 0.606560 0.233442 0.9098 0.7216 0.4196
v 0.714164 0.567232 0.295655 0.9098 0.7216 0.4196
v 0.714164 0.489048 0.337216 0.9098 0.7216 0.4196
v 0.714164 0.383910 0.351797 0.9098 0.7216 0.4196
v 0.714164 0.267824 0.337179 0.9098 0.7216 0.4196
v 0.714164 0.158464 0.295587 0.9098 0.7216 0.4196
v 0.714164 0.072478 0.233353 0.9098 0.7216 0.4196
v 0.714164 0.022957 0.159952 0.9098 0.7216 0.4196
v 0.781068 0.061433 0.097527 0.9098 0.7216 0.4196
v 0.781068 0.094886 0.044605 0.9098 0.7216 0.4196
v 0.781068 0.161394 0.009251 0.9098 0.7216 0.4196
v 0.781068 0.250830 -0.003152 0.9098 0.7216 0.4196
v 0.781068 0.349578 0.009283 0.9098 0.7216 0.4196
v 0.781068 0.442606 0.044663 0.9098 0.7216 0.4196
v 0.781068 0.515750 0.097602 0.9098 0.7216 0.4196
v 0.781068 0.557875 0.160041 0.9098 0.7216 0.4196
v 0.781068 0.562567 0.222473 0.9098 0.7216 0.4196
v 0.781068 0.529114 0.275395 0.9098 0.7216 0.4196
v 0.781068 0.462606 0.310749 0.9098 0.7216 0.4196
v 0.781068 0.373170 0.323152 0.9098 0.7216 0.4196
v 0.781068 0.274422 0.310717 0.9098 0.7216 0.4196
v 0.781068 0.181394 0.275337 0.9098 0.7216 0.4196
v 0.781068 0.108250 0.222398 0.9098 0.7216 0.4196
v 0.781068 0.066125 0.159959 0.9098 0.7216 0.4196
v 0.834164 0.129952 0.114610 0.9098 0.7216 0.4196
v 0.834164 0.154258 0.076161 0.9098 0.7216 0.4196
v 0.834164 0.202578 0.050475 0.9098 0.7216 0.4196
v 0.834164 0.267557 0.041463 0.9098 0.7216 0.4196
v 0.834164 0.339302 0.050498 0.9098 0.7216 0.4196
v 0.834164 0.406891 0.076203 0.9098 0.7216 0.4196
v 0.834164 0.460033 0.114665 0.9098 0.7216 0.4196
v 0.834164 0.490638 0.160030 0.9098 0.7216 0.4196
v 0.834164 0.494048 0.205390 0.9098 0.7216 0.4196
v 0.834164 0.469742 0.243839 0.9098 0.7216 0.4196
v 0.834164 0.421422 0.269525 0.9098 0.7216 0.4196
v 0.834164 0.356443 0.278537 0.9098 0.7216 0.4196
v 0.834164 0.284698 0.269503 0.9098 0.7216 0.4196
v 0.834164 0.217110 0.243797 0.9098 0.7216 0.4196
v 0.834164 0.163967 0.205335 0.9098 0.7216 0.4196
v 0.834164 0.133362 0.159970 0.9098 0.7216 0.4196
v 0.868254 0.216292 0.136137 0.9098 0.7216 0.4196
v 0.868254 0.229070 0.115923 0.9098 0.7216 0.4196
v 0.868254 0.254474 0.102419 0.9098 0.7216 0.4196
v 0.868254 0.288635 0.097681 0.9098 0.7216 0.4196
v 0.868254 0.326354 0.102431 0.9098 0.7216 0.4196
v 0.868254 0.361887 0.115945 0.9098 0.7216 0.4196
v 0.868254 0.389825 0.136166 0.9098 0.7216 0.4196
v 0.868254 0.405916 0.160016 0.9098 0.7216 0.4196
v 0.868254 0.407708 0.183863 0.9098 0.7216 0.4196
v 0.868254 0.394930 0.204077 0.9098 0.7216 0.4196
v 0.868254 0.369526 0.217581 0.9098 0.7216 0.4196
v 0.868254 0.335365 0.222319 0.9098 0.7216 0.4196
v 0.868254 0.297646 0.217569 0.9098 0.7216 0.4196
v 0.868254 0.262113 0.204055 0.9098 0.7216 0.4196
v 0.868254 0.234175 0.183834 0.9098 0.7216 0.4196
v 0.868254 0.218084 0.159984 0.9098 0.7216 0.4196
v 0.880000 0.312000 0.160000 0.9098 0.7216 0.4196
v -0.880000 0.312000 -0.160000 0.9098 0.7216 0.4196
v -0.868254 0.216292 -0.136137 0.9098 0.7216 0.4196
v -0.868254 0.218084 -0.159984 0.9098 0.7216 0.4196
v -0.868254 0.234175 -0.183834 0.9098 0.7216 0.4196
v -0.868254 0.262113 -0.204055 0.9098 0.7216 0.4196
v -0.868254 0.297647 -0.217569 0.9098 0.7216 0.4196
v -0.868254 0.335365 -0.222319 0.9098 0.7216 0.4196
v -0.868254 0.369527 -0.217581 0.9098 0.7216 0.4196
v -0.868254 0.394930 -0.204077 0.9098 0.7216 0.4196
v -0.868254 0.407708 -0.183863 0.9098 0.7216 0.4196
v -0.868254 0.405916 -0.160016 0.9098 0.7216 0.4196
v -0.868254 0.389826 -0.136166 0.9098 0.7216 0.4196
v -0.868254 0.361887 -0.115945 0.9098 0.7216 0.4196
v -0.868254 0.326354 -0.102431 0.9098 0.7216 0.4196
v -0.868254 0.288635 -0.097681 0.9098 0.7216 0.4196
v -0.868254 0.254474 -0.102419 0.9098 0.7216 0.4196
v -0.868254 0.229070 -0.115923 0.9098 0.7216 0.4196
v -0.834164 0.129952 -0.114610 0.9098 0.7216 0.4196
v -0.834164 0.133362 -0.159970 0.9098 0.7216 0.4196
v -0.834164 0.163967 -0.205335 0.9098 0.7216 0.4196
v -0.834164 0.217110 -0.243797 0.9098 0.7216 0.4196
v -0.834164 0.284698 -0.269502 0.9098 0.7216 0.4196
v -0.834164 0.356443 -0.278537 0.9098 0.7216 0.4196
v -0.834164 0.421422 -0.269525 0.9098 0.7216 0.4196
v -0.834164 0.469742 -0.243839 0.9098 0.7216 0.4196
v -0.834164 0.494048 -0.205390 0.9098 0.7216 0.4196
v -0.834164 0.490638 -0.160030 0.9098 0.7216 0.4196
v -0.834164 0.460033 -0.114665 0.9098 0.7216 0.4196
v -0.834164 0.406891 -0.076203 0.9098 0.7216 0.4196
v -0.834164 0.339302 -0.050498 0.9098 0.7216 0.4196
v -0.834164 0.267557 -0.041463 0.9098 0.7216 0.4196
v -0.834164 0.202578 -0.050475 0.9098 0.7216 0.4196
v -0.834164 0.154258 -0.076161 0.9098 0.7216 0.4196
v -0.781068 0.061433 -0.097527 0.9098 0.7216 0.4196
v -0.781068 0.066125 -0.159959 0.9098 0.7216 0.4196
v -0.781068 0.108250 -0.222398 0.9098 0.7216 0.4196
v -0.781068 0.181394 -0.275337 0.9098 0.7216 0.4196
v -0.781068 0.274422 -0.310717 0.9098 0.7216 0.4196
v -0.781068 0.373171 -0.323152 0.9098 0.7216 0.4196
v -0.781068 0.462606 -0.310749 0.9098 0.7216 0.4196
v -0.781068 0.529114 -0.275395 0.9098 0.7216 0.4196
v -0.781068 0.562568 -0.222473 0.9098 0.7216 0.4196
v -0.781068 0.557875 -0.160041 0.9098 0.7216 0.4196
v -0.781068 0.515750 -0.097602 0.9098 0.7216 0.4196
v -0.781068 0.442606 -0.044663 0.9098 0.7216 0.4196
v -0.781068 0.349578 -0.009283 0.9098 0.7216 0.4196
v -0.781068 0.250830 0.003152 0.9098 0.7216 0.4196
v -0.781068 0.161394 -0.009251 0.9098 0.7216 0.4196
v -0.781068 0.094886 -0.044605 0.9098 0.7216 0.4196
v -0.714164 0.017440 -0.086558 0.9098 0.7216 0.4196
v -0.714164 0.022957 -0.159952 0.9098 0.7216 0.4196
v -0.714164 0.072478 -0.233353 0.9098 0.7216 0.4196
v -0.714164 0.158464 -0.295587 0.9098 0.7216 0.4196
v -0.714164 0.267824 -0.337179 0.9098 0.7216 0.4196
v -0.714164 0.383910 -0.351797 0.9098 0.7216 0.4196
v -0.714164 0.489048 -0.337216 0.9098 0.7216 0.4196
v -0.714164 0.567232 -0.295655 0.9098 0.7216 0.4196
v -0.714164 0.606560 -0.233442 0.9098 0.7216 0.4196
v -0.714164 0.601043 -0.160048 0.9098 0.7216 0.4196
v -0.714164 0.551522 -0.086647 0.9098 0.7216 0.4196
v -0.714164 0.465536 -0.024413 0.9098 0.7216 0.4196
v -0.714164 0.356176 0.017179 0.9098 0.7216 0.4196
v -0.714164 0.240090 0.031797 0.9098 0.7216 0.4196
v -0.714164 0.134952 0.017216 0.9098 0.7216 0.4196
v -0.714164 0.056768 -0.024345 0.9098 0.7216 0.4196
v -0.640000 0.002282 -0.082779 0.9098 0.7216 0.4196
v -0.640000 0.008082 -0.159949 0.9098 0.7216 0.4196
v -0.640000 0.060152 -0.237128 0.9098 0.7216 0.4196
v -0.640000 0.150563 -0.302564 0.9098 0.7216 0.4196
v -0.640000 0.265551 -0.346297 0.9098 0.7216 0.4196
v -0.640000 0.387611 -0.361667 0.9098 0.7216 0.4196
v -0.640000 0.498160 -0.346335 0.9098 0.7216 0.4196
v -0.640000 0.580367 -0.302636 0.9098 0.7216 0.4196
v -0.640000 0.621719 -0.237221 0.9098 0.7216 0.4196
v -0.640000 0.615918 -0.160051 0.9098 0.7216 0.4196
v -0.640000 0.563848 -0.082872 0.9098 0.7216 0.4196
v -0.640000 0.473437 -0.017436 0.9098 0.7216 0.4196
v -0.640000 0.358449 0.026297 0.9098 0.7216 0.4196
v -0.640000 0.236389 0.041667 0.9098 0.7216 0.4196
v -0.640000 0.125840 0.026336 0.9098 0.7216 0.4196
v -0.640000 0.043633 -0.017364 0.9098 0.7216 0.4196
v 0.640000 0.002282 -0.082779 0.9098 0.7216 0.4196
v 0.640000 0.008082 -0.159949 0.9098 0.7216 0.4196
v 0.640000 0.060152 -0.237128 0.9098 0.7216 0.4196
v 0.640000 0.150563 -0.302564 0.9098 0.7216 0.4196
v 0.640000 0.265551 -0.346297 0.9098 0.7216 0.4196
v 0.640000 0.387611 -0.361667 0.9098 0.7216 0.4196
v 0.640000 0.498160 -0.346335 0.9098 0.7216 0.4196
v 0.640000 0.580367 -0.302636 0.9098 0.7216 0.4196
v 0.640000 0.621718 -0.237221 0.9098 0.7216 0.4196
v 0.640000 0.615918 -0.160051 0.9098 0.7216 0.4196
v 0.640000 0.563848 -0.082872 0.9098 0.7216 0.4196
v 0.640000 0.473437 -0.017436 0.9098 0.7216 0.4196
v 0.640000 0.358449 0.026297 0.9098 0.7216 0.4196
v 0.640000 0.236389 0.041667 0.9098 0.7216 0.4196
v 0.640000 0.125840 0.026336 0.9098 0.7216 0.4196
v 0.640000 0.043633 -0.017364 0.9098 0.7216 0.4196
v 0.714164 0.017440 -0.086558 0.9098 0.7216 0.4196
v 0.714164 0.022957 -0.159952 0.9098 0.7216 0.4196
v 0.714164 0.072478 -0.233353 0.9098 0.7216 0.4196
v 0.714164 0.158464 -0.295587 0.9098 0.7216 0.4196
v 0.714164 0.267824 -0.337179 0.9098 0.7216 0.4196
v 0.714164 0.383910 -0.351797 0.9098 0.7216 0.4196
v 0.714164 0.489048 -0.337216 0.9098 0.7216 0.4196
v 0.714164 0.567232 -0.295655 0.9098 0.7216 0.4196
v 0.714164 0.606560 -0.233442 0.9098 0.7216 0.4196
v 0.714164 0.601043 -0.160048 0.9098 0.7216 0.4196
v 0.714164 0.551522 -0.086647 0.9098 0.7216 0.4196
v 0.714164 0.465536 -0.024413 0.9098 0.7216 0.4196
v 0.714164 0.356176 0.017179 0.9098 0.7216 0.4196
v 0.714164 0.240090 0.031797 0.9098 0.7216 0.4196
v 0.714164 0.134952 0.017216 0.9098 0.7216 0.4196
v 0.714164 0.056768 -0.024345 0.9098 0.7216 0.4196
v 0.781068 0.061433 -0.097527 0.9098 0.7216 0.4196
v 0.781068 0.066125 -0.159959 0.9098 0.7216 0.4196
v 0.781068 0.108250 -0.222398 0.9098 0.7216 0.4196
v 0.781068 0.181394 -0.275337 0.9098 0.7216 0.4196
v 0.781068 0.274422 -0.310717 0.9098 0.7216 0.4196
v 0.781068 0.373170 -0.323152 0.9098 0.7216 0.4196
v 0.781068 0.462606 -0.310749 0.9098 0.7216 0.4196
v 0.781068 0.529114 -0.275395 0.9098 0.7216 0.4196
v 0.781068 0.562567 -0.222473 0.9098 0.7216 0.4196
v 0.781068 0.557875 -0.160041 0.9098 0.7216 0.4196
v 0.781068 0.515750 -0.097602 0.9098 0.7216 0.4196
v 0.781068 0.442606 -0.044663 0.9098 0.7216 0.4196
v 0.781068 0.349578 -0.009283 0.9098 0.7216 0.4196
v 0.781068 0.250830 0.003152 0.9098 0.7216 0.4196
v 0.781068 0.161394 -0.009251 0.9098 0.7216 0.4196
v 0.781068 0.094886 -0.044605 0.9098 0.7216 0.4196
v 0.834164 0.129952 -0.114610 0.9098 0.7216 0.4196
v 0.834164 0.133362 -0.159970 0.9098 0.7216 0.4196
v 0.834164 0.163967 -0.205335 0.9098 0.7216 0.4196
v 0.834164 0.217110 -0.243797 0.9098 0.7216 0.4196
v 0.834164 0.284698 -0.269502 0.9098 0.7216 0.4196
v 0.834164 0.356443 -0.278537 0.9098 0.7216 0.4196
v 0.834164 0.421422 -0.269525 0.9098 0.7216 0.4196
v 0.834164 0.469742 -0.243839 0.9098 0.7216 0.4196
v 0.834164 0.494048 -0.205390 0.9098 0.7216 0.4196
v 0.834164 0.490638 -0.160030 0.9098 0.7216 0.4196
v 0.834164 0.460033 -0.114665 0.9098 0.7216 0.4196
v 0.834164 0.406891 -0.076203 0.9098 0.7216 0.4196
v 0.834164 0.339302 -0.050497 0.9098 0.7216 0.4196
v 0.834164 0.267557 -0.041463 0.9098 0.7216 0.4196
v 0.834164 0.202578 -0.050475 0.9098 0.7216 0.4196
v 0.834164 0.154258 -0.076161 0.9098 0.7216 0.4196
v 0.868254 0.216292 -0.136137 0.9098 0.7216 0.4196
v 0.868254 0.218084 -0.159984 0.9098 0.7216 0.4196
v 0.868254 0.234175 -0.183834 0.9098 0.7216 0.4196
v 0.868254 0.262113 -0.204055 0.9098 0.7216 0.4196
v 0.868254 0.297646 -0.217569 0.9098 0.7216 0.4196
v 0.868254 0.335365 -0.222319 0.9098 0.7216 0.4196
v 0.868254 0.369527 -0.217581 0.9098 0.7216 0.4196
v 0.868254 0.394930 -0.204077 0.9098 0.7216 0.4196
v 0.868254 0.407708 -0.183863 0.9098 0.7216 0.4196
v 0.868254 0.405916 -0.160016 0.9098 0.7216 0.4196
v 0.868254 0.389825 -0.136166 0.9098 0.7216 0.4196
v 0.868254 0.361887 -0.115945 0.9098 0.7216 0.4196
v 0.868254 0.326354 -0.102431 0.9098 0.7216 0.4196
v 0.868254 0.288635 -0.097681 0.9098 0.7216 0.4196
v 0.868254 0.254474 -0.102419 0.9098 0.7216 0.4196
v 0.868254 0.229070 -0.115923 0.9098 0.7216 0.4196
v 0.880000 0.312000 -0.160000 0.9098 0.7216 0.4196
v -0.860000 0.132000 0.000000 0.9098 0.7216 0.4196
v -0.849232 0.091210 0.000000 0.9098 0.7216 0.4196
v -0.849232 0.094315 -0.032520 0.9098 0.7216 0.4196
v -0.849232 0.103157 -0.060090 0.9098 0.7216 0.4196
v -0.849232 0.116390 -0.078511 0.9098 0.7216 0.4196
v -0.849232 0.132000 -0.084980 0.9098 0.7216 0.4196
v -0.849232 0.147610 -0.078511 0.9098 0.7216 0.4196
v -0.849232 0.160843 -0.060090 0.9098 0.7216 0.4196
v -0.849232 0.169685 -0.032520 0.9098 0.7216 0.4196
v -0.849232 0.172790 -0.000000 0.9098 0.7216 0.4196
v -0.849232 0.169685 0.032520 0.9098 0.7216 0.4196
v -0.849232 0.160843 0.060090 0.9098 0.7216 0.4196
v -0.849232 0.147610 0.078511 0.9098 0.7216 0.4196
v -0.849232 0.132000 0.084980 0.9098 0.7216 0.4196
v -0.849232 0.116390 0.078511 0.9098 0.7216 0.4196
v -0.849232 0.103157 0.060090 0.9098 0.7216 0.4196
v -0.849232 0.094315 0.032520 0.9098 0.7216 0.4196
v -0.817984 0.054412 -0.000000 0.9098 0.7216 0.4196
v -0.817984 0.060318 -0.061857 0.9098 0.7216 0.4196
v -0.817984 0.077137 -0.114297 0.9098 0.7216 0.4196
v -0.817984 0.102309 -0.149337 0.9098 0.7216 0.4196
v -0.817984 0.132000 -0.161641 0.9098 0.7216 0.4196
v -0.817984 0.161692 -0.149337 0.9098 0.7216 0.4196
v -0.817984 0.186863 -0.114297 0.9098 0.7216 0.4196
v -0.817984 0.203682 -0.061857 0.9098 0.7216 0.4196
v -0.817984 0.209588 0.000000 0.9098 0.7216 0.4196
v -0.817984 0.203682 0.061857 0.9098 0.7216 0.4196
v -0.817984 0.186863 0.114297 0.9098 0.7216 0.4196
v -0.817984 0.161692 0.149337 0.9098 0.7216 0.4196
v -0.817984 0.132000 0.161641 0.9098 0.7216 0.4196
v -0.817984 0.102309 0.149337 0.9098 0.7216 0.4196
v -0.817984 0.077137 0.114297 0.9098 0.7216 0.4196
v -0.817984 0.060318 0.061857 0.9098 0.7216 0.4196
v -0.769313 0.025210 0.000000 0.9098 0.7216 0.4196
v -0.769313 0.033339 -0.085139 0.9098 0.7216 0.4196
v -0.769313 0.056488 -0.157317 0.9098 0.7216 0.4196
v -0.769313 0.091133 -0.205544 0.9098 0.7216 0.4196
v -0.769313 0.132000 -0.222480 0.9098 0.7216 0.4196
v -0.769313 0.172867 -0.205544 0.9098 0.7216 0.4196
v -0.769313 0.207512 -0.157317 0.9098 0.7216 0.4196
v -0.769313 0.230661 -0.085139 0.9098 0.7216 0.4196
v -0.769313 0.238790 -0.000000 0.9098 0.7216 0.4196
v -0.769313 0.230661 0.085139 0.9098 0.7216 0.4196
v -0.769313 0.207512 0.157317 0.9098 0.7216 0.4196
v -0.769313 0.172867 0.205544 0.9098 0.7216 0.4196
v -0.769313 0.132000 0.222480 0.9098 0.7216 0.4196
v -0.769313 0.091133 0.205544 0.9098 0.7216 0.4196
v -0.769313 0.056488 0.157317 0.9098 0.7216 0.4196
v -0.769313 0.033339 0.085139 0.9098 0.7216 0.4196
v -0.707984 0.006461 -0.000000 0.9098 0.7216 0.4196
v -0.707984 0.016017 -0.100087 0.9098 0.7216 0.4196
v -0.707984 0.043230 -0.184937 0.9098 0.7216 0.4196
v -0.707984 0.083958 -0.241632 0.9098 0.7216 0.4196
v -0.707984 0.132000 -0.261541 0.9098 0.7216 0.4196
v -0.707984 0.180042 -0.241632 0.9098 0.7216 0.4196
v -0.707984 0.220770 -0.184937 0.9098 0.7216 0.4196
v -0.707984 0.247983 -0.100087 0.9098 0.7216 0.4196
v -0.707984 0.257540 0.000000 0.9098 0.7216 0.4196
v -0.707984 0.247983 0.100087 0.9098 0.7216 0.4196
v -0.707984 0.220770 0.184937 0.9098 0.7216 0.4196
v -0.707984 0.180042 0.241632 0.9098 0.7216 0.4196
v -0.707984 0.132000 0.261541 0.9098 0.7216 0.4196
v -0.707984 0.083958 0.241632 0.9098 0.7216 0.4196
v -0.707984 0.043230 0.184937 0.9098 0.7216 0.4196
v -0.707984 0.016017 0.100087 0.9098 0.7216 0.4196
v -0.640000 0.000000 -0.000000 0.9098 0.7216 0.4196
v -0.640000 0.010048 -0.105238 0.9098 0.7216 0.4196
v -0.640000 0.038662 -0.194454 0.9098 0.7216 0.4196
v -0.640000 0.081486 -0.254067 0.9098 0.7216 0.4196
v -0.640000 0.132000 -0.275000 0.9098 0.7216 0.4196
v -0.640000 0.182514 -0.254067 0.9098 0.7216 0.4196
v -0.640000 0.225338 -0.194454 0.9098 0.7216 0.4196
v -0.640000 0.253952 -0.105238 0.9098 0.7216 0.4196
v -0.640000 0.264000 0.000000 0.9098 0.7216 0.4196
v -0.640000 0.253952 0.105238 0.9098 0.7216 0.4196
v -0.640000 0.225338 0.194454 0.9098 0.7216 0.4196
v -0.640000 0.182514 0.254067 0.9098 0.7216 0.4196
v -0.640000 0.132000 0.275000 0.9098 0.7216 0.4196
v -0.640000 0.081486 0.254067 0.9098 0.7216 0.4196
v -0.640000 0.038662 0.194454 0.9098 0.7216 0.4196
v -0.640000 0.010048 0.105238 0.9098 0.7216 0.4196
v 0.640000 0.000000 0.000000 0.9098 0.7216 0.4196
v 0.640000 0.010048 -0.105238 0.9098 0.7216 0.4196
v 0.640000 0.038662 -0.194454 0.9098 0.7216 0.4196
v 0.640000 0.081486 -0.254067 0.9098 0.7216 0.4196
v 0.640000 0.132000 -0.275000 0.9098 0.7216 0.4196
v 0.640000 0.182514 -0.254067 0.9098 0.7216 0.4196
v 0.640000 0.225338 -0.194454 0.9098 0.7216 0.4196
v 0.640000 0.253952 -0.105238 0.9098 0.7216 0.4196
v 0.640000 0.264000 0.000000 0.9098 0.7216 0.4196
v 0.640000 0.253952 0.105238 0.9098 0.7216 0.4196
v 0.640000 0.225338 0.194454 0.9098 0.7216 0.4196
v 0.640000 0.182514 0.254067 0.9098 0.7216 0.4196
v 0.640000 0.132000 0.275000 0.9098 0.7216 0.4196
v 0.640000 0.081486 0.254067 0.9098 0.7216 0.4196
v 0.640000 0.038662 0.194454 0.9098 0.7216 0.4196
v 0.640000 0.010048 0.105238 0.9098 0.7216 0.4196
v 0.707984 0.006461 0.000000 0.9098 0.7216 0.4196
v 0.707984 0.016017 -0.100087 0.9098 0.7216 0.4196
v 0.707984 0.043230 -0.184937 0.9098 0.7216 0.4196
v 0.707984 0.083958 -0.241632 0.9098 0.7216 0.4196
v 0.707984 0.132000 -0.261541 0.9098 0.7216 0.4196
v 0.707984 0.180042 -0.241632 0.9098 0.7216 0.4196
v 0.707984 0.220770 -0.184937 0.9098 0.7216 0.4196
v 0.707984 0.247983 -0.100087 0.9098 0.7216 0.4196
v 0.707984 0.257539 0.000000 0.9098 0.7216 0.4196
v 0.707984 0.247983 0.100087 0.9098 0.7216 0.4196
v 0.707984 0.220770 0.184937 0.9098 0.7216 0.4196
v 0.707984 0.180042 0.241632 0.9098 0.7216 0.4196
v 0.707984 0.132000 0.261541 0.9098 0.7216 0.4196
v 0.707984 0.083958 0.241632 0.9098 0.7216 0.4196
v 0.707984 0.043230 0.184937 0.9098 0.7216 0.4196
v 0.707984 0.016017 0.100087 0.9098 0.7216 0.4196
v 0.769313 0.025210 0.000000 0.9098 0.7216 0.4196
v 0.769313 0.033339 -0.085139 0.9098 0.7216 0.4196
v 0.769313 0.056488 -0.157317 0.9098 0.7216 0.4196
v 0.769313 0.091133 -0.205544 0.9098 0.7216 0.4196
v 0.769313 0.132000 -0.222480 0.9098 0.7216 0.4196
v 0.769313 0.172867 -0.205544 0.9098 0.7216 0.4196
v 0.769313 0.207512 -0.157317 0.9098 0.7216 0.4196
v 0.769313 0.230661 -0.085139 0.9098 0.7216 0.4196
v 0.769313 0.238790 -0.000000 0.9098 0.7216 0.4196
v 0.769313 0.230661 0.085139 0.9098 0.7216 0.4196
v 0.769313 0.207512 0.157317 0.9098 0.7216 0.4196
v 0.769313 0.172867 0.205544 0.9098 0.7216 0.4196
v 0.769313 0.132000 0.222480 0.9098 0.7216 0.4196
v 0.769313 0.091133 0.205544 0.9098 0.7216 0.4196
v 0.769313 0.056488 0.157317 0.9098 0.7216 0.4196
v 0.769313 0.033339 0.085139 0.9098 0.7216 0.4196
v 0.817984 0.054412 0.000000 0.9098 0.7216 0.4196
v 0.817984 0.060318 -0.061857 0.9098 0.7216 0.4196
v 0.817984 0.077137 -0.114297 0.9098 0.7216 0.4196
v 0.817984 0.102308 -0.149337 0.9098 0.7216 0.4196
v 0.817984 0.132000 -0.161641 0.9098 0.7216 0.4196
v 0.817984 0.161692 -0.149337 0.9098 0.7216 0.4196
v 0.817984 0.186863 -0.114297 0.9098 0.7216 0.4196
v 0.817984 0.203682 -0.061857 0.9098 0.7216 0.4196
v 0.817984 0.209588 0.000000 0.9098 0.7216 0.4196
v 0.817984 0.203682 0.061857 0.9098 0.7216 0.4196
v 0.817984 0.186863 0.114297 0.9098 0.7216 0.4196
v 0.817984 0.161692 0.149337 0.9098 0.7216 0.4196
v 0.817984 0.132000 0.161641 0.9098 0.7216 0.4196
v 0.817984 0.102308 0.149337 0.9098 0.7216 0.4196
v 0.817984 0.077137 0.114297 0.9098 0.7216 0.4196
v 0.817984 0.060318 0.061857 0.9098 0.7216 0.4196
v 0.849232 0.091210 0.000000 0.9098 0.7216 0.4196
v 0.849232 0.094315 -0.032520 0.9098 0.7216 0.4196
v 0.849232 0.103157 -0.060090 0.9098 0.7216 0.4196
v 0.849232 0.116390 -0.078511 0.9098 0.7216 0.4196
v 0.849232 0.132000 -0.084980 0.9098 0.7216 0.4196
v 0.849232 0.147610 -0.078511 0.9098 0.7216 0.4196
v 0.849232 0.160843 -0.060090 0.9098 0.7216 0.4196
v 0.849232 0.169685 -0.032520 0.9098 0.7216 0.4196
v 0.849232 0.172790 0.000000 0.9098 0.7216 0.4196
v 0.849232 0.169685 0.032520 0.9098 0.7216 0.4196
v 0.849232 0.160843 0.060090 0.9098 0.7216 0.4196
v 0.849232 0.147610 0.078511 0.9098 0.7216 0.4196
v 0.849232 0.132000 0.084980 0.9098 0.7216 0.4196
v 0.849232 0.116390 0.078511 0.9098 0.7216 0.4196
v 0.849232 0.103157 0.060090 0.9098 0.7216 0.4196
v 0.849232 0.094315 0.032520 0.9098 0.7216 0.4196
v 0.860000 0.132000 0.000000 0.9098 0.7216 0.4196
v -0.830000 0.252000 0.000000 1.0000 0.9647 0.8980
v -0.822658 0.224189 0.000000 1.0000 0.9647 0.8980
v -0.822658 0.226306 -0.019512 1.0000 0.9647 0.8980
v -0.822658 0.232334 -0.036054 1.0000 0.9647 0.8980
v -0.822658 0.241357 -0.047107 1.0000 0.9647 0.8980
v -0.822658 0.252000 -0.050988 1.0000 0.9647 0.8980
v -0.822658 0.262643 -0.047107 1.0000 0.9647 0.8980
v -0.822658 0.271666 -0.036054 1.0000 0.9647 0.8980
v -0.822658 0.277695 -0.019512 1.0000 0.9647 0.8980
v -0.822658 0.279812 0.000000 1.0000 0.9647 0.8980
v -0.822658 0.277695 0.019512 1.0000 0.9647 0.8980
v -0.822658 0.271666 0.036054 1.0000 0.9647 0.8980
v -0.822658 0.262643 0.047107 1.0000 0.9647 0.8980
v -0.822658 0.252000 0.050988 1.0000 0.9647 0.8980
v -0.822658 0.241357 0.047107 1.0000 0.9647 0.8980
v -0.822658 0.232334 0.036054 1.0000 0.9647 0.8980
v -0.822658 0.226306 0.019512 1.0000 0.9647 0.8980
v -0.801353 0.199099 0.000000 1.0000 0.9647 0.8980
v -0.801353 0.203126 -0.037114 1.0000 0.9647 0.8980
v -0.801353 0.214594 -0.068578 1.0000 0.9647 0.8980
v -0.801353 0.231756 -0.089602 1.0000 0.9647 0.8980
v -0.801353 0.252000 -0.096985 1.0000 0.9647 0.8980
v -0.801353 0.272244 -0.089602 1.0000 0.9647 0.8980
v -0.801353 0.289407 -0.068578 1.0000 0.9647 0.8980
v -0.801353 0.300874 -0.037114 1.0000 0.9647 0.8980
v -0.801353 0.304901 -0.000000 1.0000 0.9647 0.8980
v -0.801353 0.300874 0.037114 1.0000 0.9647 0.8980
v -0.801353 0.289407 0.068578 1.0000 0.9647 0.8980
v -0.801353 0.272244 0.089602 1.0000 0.9647 0.8980
v -0.801353 0.252000 0.096985 1.0000 0.9647 0.8980
v -0.801353 0.231756 0.089602 1.0000 0.9647 0.8980
v -0.801353 0.214594 0.068578 1.0000 0.9647 0.8980
v -0.801353 0.203126 0.037114 1.0000 0.9647 0.8980
v -0.768168 0.179189 -0.000000 1.0000 0.9647 0.8980
v -0.768168 0.184731 -0.051084 1.0000 0.9647 0.8980
v -0.768168 0.200515 -0.094390 1.0000 0.9647 0.8980
v -0.768168 0.224136 -0.123327 1.0000 0.9647 0.8980
v -0.768168 0.252000 -0.133488 1.0000 0.9647 0.8980
v -0.768168 0.279864 -0.123327 1.0000 0.9647 0.8980
v -0.768168 0.303486 -0.094390 1.0000 0.9647 0.8980
v -0.768168 0.319269 -0.051084 1.0000 0.9647 0.8980
v -0.768168 0.324812 0.000000 1.0000 0.9647 0.8980
v -0.768168 0.319269 0.051084 1.0000 0.9647 0.8980
v -0.768168 0.303486 0.094390 1.0000 0.9647 0.8980
v -0.768168 0.279864 0.123327 1.0000 0.9647 0.8980
v -0.768168 0.252000 0.133488 1.0000 0.9647 0.8980
v -0.768168 0.224136 0.123327 1.0000 0.9647 0.8980
v -0.768168 0.200515 0.094390 1.0000 0.9647 0.8980
v -0.768168 0.184731 0.051084 1.0000 0.9647 0.8980
v -0.726353 0.166405 -0.000000 1.0000 0.9647 0.8980
v -0.726353 0.172921 -0.060052 1.0000 0.9647 0.8980
v -0.726353 0.191475 -0.110962 1.0000 0.9647 0.8980
v -0.726353 0.219244 -0.144979 1.0000 0.9647 0.8980
v -0.726353 0.252000 -0.156924 1.0000 0.9647 0.8980
v -0.726353 0.284756 -0.144979 1.0000 0.9647 0.8980
v -0.726353 0.312525 -0.110962 1.0000 0.9647 0.8980
v -0.726353 0.331080 -0.060052 1.0000 0.9647 0.8980
v -0.726353 0.337595 0.000000 1.0000 0.9647 0.8980
v -0.726353 0.331080 0.060052 1.0000 0.9647 0.8980
v -0.726353 0.312525 0.110962 1.0000 0.9647 0.8980
v -0.726353 0.284756 0.144979 1.0000 0.9647 0.8980
v -0.726353 0.252000 0.156924 1.0000 0.9647 0.8980
v -0.726353 0.219244 0.144979 1.0000 0.9647 0.8980
v -0.726353 0.191475 0.110962 1.0000 0.9647 0.8980
v -0.726353 0.172921 0.060052 1.0000 0.9647 0.8980
v -0.680000 0.162000 0.000000 1.0000 0.9647 0.8980
v -0.680000 0.168851 -0.063143 1.0000 0.9647 0.8980
v -0.680000 0.188360 -0.116673 1.0000 0.9647 0.8980
v -0.680000 0.217559 -0.152440 1.0000 0.9647 0.8980
v -0.680000 0.252000 -0.165000 1.0000 0.9647 0.8980
v -0.680000 0.286442 -0.152440 1.0000 0.9647 0.8980
v -0.680000 0.315640 -0.116673 1.0000 0.9647 0.8980
v -0.680000 0.335149 -0.063143 1.0000 0.9647 0.8980
v -0.680000 0.342000 0.000000 1.0000 0.9647 0.8980
v -0.680000 0.335149 0.063143 1.0000 0.9647 0.8980
v -0.680000 0.315640 0.116673 1.0000 0.9647 0.8980
v -0.680000 0.286442 0.152440 1.0000 0.9647 0.8980
v -0.680000 0.252000 0.165000 1.0000 0.9647 0.8980
v -0.680000 0.217559 0.152440 1.0000 0.9647 0.8980
v -0.680000 0.188360 0.116673 1.0000 0.9647 0.8980
v -0.680000 0.168851 0.063143 1.0000 0.9647 0.8980
v 0.680000 0.162000 0.000000 1.0000 0.9647 0.8980
v 0.680000 0.168851 -0.063143 1.0000 0.9647 0.8980
v 0.680000 0.188360 -0.116673 1.0000 0.9647 0.8980
v 0.680000 0.217559 -0.152440 1.0000 0.9647 0.8980
v 0.680000 0.252000 -0.165000 1.0000 0.9647 0.8980
v 0.680000 0.286442 -0.152440 1.0000 0.9647 0.8980
v 0.680000 0.315640 -0.116673 1.0000 0.9647 0.8980
v 0.680000 0.335149 -0.063143 1.0000 0.9647 0.8980
v 0.680000 0.342000 0.000000 1.0000 0.9647 0.8980
v 0.680000 0.335149 0.063143 1.0000 0.9647 0.8980
v 0.680000 0.315640 0.116673 1.0000 0.9647 0.8980
v 0.680000 0.286442 0.152440 1.0000 0.9647 0.8980
v 0.680000 0.252000 0.165000 1.0000 0.9647 0.8980
v 0.680000 0.217559 0.152440 1.0000 0.9647 0.8980
v 0.680000 0.188360 0.116673 1.0000 0.9647 0.8980
v 0.680000 0.168851 0.063143 1.0000 0.9647 0.8980
v 0.726353 0.166405 0.000000 1.0000 0.9647 0.8980
v 0.726353 0.172920 -0.060052 1.0000 0.9647 0.8980
v 0.726353 0.191475 -0.110962 1.0000 0.9647 0.8980
v 0.726353 0.219244 -0.144979 1.0000 0.9647 0.8980
v 0.726353 0.252000 -0.156924 1.0000 0.9647 0.8980
v 0.726353 0.284756 -0.144979 1.0000 0.9647 0.8980
v 0.726353 0.312525 -0.110962 1.0000 0.9647 0.8980
v 0.726353 0.331080 -0.060052 1.0000 0.9647 0.8980
v 0.726353 0.337595 0.000000 1.0000 0.9647 0.8980
v 0.726353 0.331080 0.060052 1.0000 0.9647 0.8980
v 0.726353 0.312525 0.110962 1.0000 0.9647 0.8980
v 0.726353 0.284756 0.144979 1.0000 0.9647 0.8980
v 0.726353 0.252000 0.156924 1.0000 0.9647 0.8980
v 0.726353 0.219244 0.144979 1.0000 0.9647 0.8980
v 0.726353 0.191475 0.110962 1.0000 0.9647 0.8980
v 0.726353 0.172920 0.060052 1.0000 0.9647 0.8980
v 0.768168 0.179188 0.000000 1.0000 0.9647 0.8980
v 0.768168 0.184731 -0.051084 1.0000 0.9647 0.8980
v 0.768168 0.200514 -0.094390 1.0000 0.9647 0.8980
v 0.768168 0.224136 -0.123327 1.0000 0.9647 0.8980
v 0.768168 0.252000 -0.133488 1.0000 0.9647 0.8980
v 0.768168 0.279864 -0.123327 1.0000 0.9647 0.8980
v 0.768168 0.303486 -0.094390 1.0000 0.9647 0.8980
v 0.768168 0.319269 -0.051084 1.0000 0.9647 0.8980
v 0.768168 0.324812 0.000000 1.0000 0.9647 0.8980
v 0.768168 0.319269 0.051084 1.0000 0.9647 0.8980
v 0.768168 0.303486 0.094390 1.0000 0.9647 0.8980
v 0.768168 0.279864 0.123327 1.0000 0.9647 0.8980
v 0.768168 0.252000 0.133488 1.0000 0.9647 0.8980
v 0.768168 0.224136 0.123327 1.0000 0.9647 0.8980
v 0.768168 0.200514 0.094390 1.0000 0.9647 0.8980
v 0.768168 0.184731 0.051084 1.0000 0.9647 0.8980
v 0.801353 0.199099 0.000000 1.0000 0.9647 0.8980
v 0.801353 0.203126 -0.037114 1.0000 0.9647 0.8980
v 0.801353 0.214594 -0.068578 1.0000 0.9647 0.8980
v 0.801353 0.231756 -0.089602 1.0000 0.9647 0.8980
v 0.801353 0.252000 -0.096985 1.0000 0.9647 0.8980
v 0.801353 0.272244 -0.089602 1.0000 0.9647 0.8980
v 0.801353 0.289406 -0.068578 1.0000 0.9647 0.8980
v 0.801353 0.300874 -0.037114 1.0000 0.9647 0.8980
v 0.801353 0.304901 0.000000 1.0000 0.9647 0.8980
v 0.801353 0.300874 0.037114 1.0000 0.9647 0.8980
v 0.801353 0.289406 0.068578 1.0000 0.9647 0.8980
v 0.801353 0.272244 0.089602 1.0000 0.9647 0.8980
v 0.801353 0.252000 0.096985 1.0000 0.9647 0.8980
v 0.801353 0.231756 0.089602 1.0000 0.9647 0.8980
v 0.801353 0.214594 0.068578 1.0000 0.9647 0.8980
v 0.801353 0.203126 0.037114 1.0000 0.9647 0.8980
v 0.822658 0.224188 0.000000 1.0000 0.9647 0.8980
v 0.822658 0.226306 -0.019512 1.0000 0.9647 0.8980
v 0.822658 0.232334 -0.036054 1.0000 0.9647 0.8980
v 0.822658 0.241357 -0.047107 1.0000 0.9647 0.8980
v 0.822658 0.252000 -0.050988 1.0000 0.9647 0.8980
v 0.822658 0.262643 -0.047107 1.0000 0.9647 0.8980
v 0.822658 0.271666 -0.036054 1.0000 0.9647 0.8980
v 0.822658 0.277695 -0.019512 1.0000 0.9647 0.8980
v 0.822658 0.279812 0.000000 1.0000 0.9647 0.8980
v 0.822658 0.277695 0.019512 1.0000 0.9647 0.8980
v 0.822658 0.271666 0.036054 1.0000 0.9647 0.8980
v 0.822658 0.262643 0.047107 1.0000 0.9647 0.8980
v 0.822658 0.252000 0.050988 1.0000 0.9647 0.8980
v 0.822658 0.241357 0.047107 1.0000 0.9647 0.8980
v 0.822658 0.232334 0.036054 1.0000 0.9647 0.8980
v 0.822658 0.226306 0.019512 1.0000 0.9647 0.8980
v 0.830000 0.252000 0.000000 1.0000 0.9647 0.8980
vn -1.0000 -0.0000 -0.0000
vn -0.9575 -0.1867 -0.2199
vn -0.9648 -0.2553 -0.0637
vn -0.9420 -0.0926 -0.3226
vn -0.9285 0.0036 -0.3714
vn -0.9233 0.0929 -0.3726
vn -0.9285 0.1712 -0.3296
vn -0.9420 0.2332 -0.2414
vn -0.9575 0.2681 -0.1065
vn -0.9648 0.2553 0.0637
vn -0.9575 0.1867 0.2199
vn -0.9420 0.0926 0.3226
vn -0.9285 -0.0036 0.3714
vn -0.9233 -0.0929 0.3726
vn -0.9285 -0.1712 0.3296
vn -0.9420 -0.2332 0.2414
vn -0.9575 -0.2681 0.1065
vn -0.8405 -0.3593 -0.4055
vn -0.8631 -0.4900 -0.1222
vn -0.7933 -0.1796 -0.5817
vn -0.7532 -0.0011 -0.6578
vn -0.7380 0.1632 -0.6548
vn -0.7532 0.3098 -0.5803
vn -0.7933 0.4317 -0.4293
vn -0.8405 0.5076 -0.1894
vn -0.8631 0.4900 0.1222
vn -0.8405 0.3593 0.4055
vn -0.7933 0.1796 0.5817
vn -0.7532 0.0011 0.6578
vn -0.7380 -0.1632 0.6548
vn -0.7532 -0.3098 0.5803
vn -0.7933 -0.4317 0.4293
vn -0.8405 -0.5076 0.1894
vn -0.6395 -0.5187 -0.5674
vn -0.6734 -0.7173 -0.1789
vn -0.5724 -0.2513 -0.7805
vn -0.5201 -0.0059 -0.8541
vn -0.5016 0.2093 -0.8394
vn -0.5201 0.4062 -0.7513
vn -0.5724 0.5883 -0.5712
vn -0.6395 0.7244 -0.2574
vn -0.6734 0.7173 0.1789
vn -0.6395 0.5187 0.5674
vn -0.5724 0.2513 0.7805
vn -0.5201 0.0059 0.8541
vn -0.5016 -0.2093 0.8394
vn -0.5201 -0.4062 0.7513
vn -0.5724 -0.5883 0.5712
vn -0.6395 -0.7244 0.2574
vn -0.3510 -0.6403 -0.6832
vn -0.3776 -0.8984 -0.2240
vn -0.3000 -0.2992 -0.9058
vn -0.2635 -0.0091 -0.9646
vn -0.2514 0.2342 -0.9391
vn -0.2635 0.4609 -0.8474
vn -0.3000 0.6894 -0.6593
vn -0.3510 0.8861 -0.3027
vn -0.3776 0.8984 0.2240
vn -0.3510 0.6403 0.6832
vn -0.3000 0.2992 0.9058
vn -0.2635 0.0091 0.9646
vn -0.2514 -0.2342 0.9391
vn -0.2635 -0.4609 0.8474
vn -0.3000 -0.6894 0.6593
vn -0.3510 -0.8861 0.3027
vn -0.0924 -0.6807 -0.7267
vn -0.1016 -0.9653 -0.2407
vn -0.0764 -0.3111 -0.9473
vn -0.0660 -0.0082 -0.9978
vn -0.0627 0.2414 -0.9684
vn -0.0660 0.4757 -0.8771
vn -0.0764 0.7194 -0.6903
vn -0.0924 0.9422 -0.3220
vn -0.1016 0.9653 0.2407
vn -0.0924 0.6807 0.7267
vn -0.0764 0.3111 0.9473
vn -0.0660 0.0082 0.9978
vn -0.0627 -0.2414 0.9684
vn -0.0660 -0.4757 0.8771
vn -0.0764 -0.7194 0.6903
vn -0.0924 -0.9422 0.3220
vn 0.0924 -0.6807 -0.7267
vn 0.1016 -0.9653 -0.2407
vn 0.0764 -0.3111 -0.9473
vn 0.0660 -0.0082 -0.9978
vn 0.0627 0.2414 -0.9684
vn 0.0660 0.4757 -0.8771
vn 0.0764 0.7194 -0.6903
vn 0.0924 0.9422 -0.3220
vn 0.1016 0.9653 0.2407
vn 0.0924 0.6807 0.7267
vn 0.0764 0.3111 0.9473
vn 0.0660 0.0082 0.9978
vn 0.0627 -0.2414 0.9684
vn 0.0660 -0.4757 0.8771
vn 0.0764 -0.7194 0.6903
vn 0.0924 -0.9422 0.3220
vn 0.3510 -0.6403 -0.6832
vn 0.3776 -0.8984 -0.2240
vn 0.3000 -0.2992 -0.9058
vn 0.2635 -0.0091 -0.9646
vn 0.2514 0.2342 -0.9391
vn 0.2635 0.4609 -0.8474
vn 0.3000 0.6894 -0.6593
vn 0.3510 0.8861 -0.3027
vn 0.3776 0.8984 0.2240
vn 0.3510 0.6403 0.6832
vn 0.3000 0.2992 0.9058
vn 0.2635 0.0091 0.9646
vn 0.2514 -0.2342 0.9391
vn 0.2635 -0.4609 0.8474
vn 0.3000 -0.6894 0.6593
vn 0.3510 -0.8861 0.3027
vn 0.6395 -0.5187 -0.5674
vn 0.6734 -0.7173 -0.1789
vn 0.5724 -0.2513 -0.7805
vn 0.5201 -0.0059 -0.8541
vn 0.5016 0.2093 -0.8394
vn 0.5201 0.4062 -0.7513
vn 0.5724 0.5883 -0.5712
vn 0.6395 0.7244 -0.2574
vn 0.6734 0.7173 0.1789
vn 0.6395 0.5187 0.5674
vn 0.5724 0.2513 0.7805
vn 0.5201 0.0059 0.8541
vn 0.5016 -0.2093 0.8394
vn 0.5201 -0.4062 0.7513
vn 0.5724 -0.5883 0.5712
vn 0.6395 -0.7244 0.2574
vn 0.8405 -0.3593 -0.4055
vn 0.8631 -0.4900 -0.1222
vn 0.7933 -0.1796 -0.5817
vn 0.7532 -0.0011 -0.6578
vn 0.7380 0.1632 -0.6548
vn 0.7532 0.3098 -0.5803
vn 0.7933 0.4317 -0.4293
vn 0.8405 0.5076 -0.1894
vn 0.8631 0.4900 0.1222
vn 0.8405 0.3593 0.4055
vn 0.7933 0.1796 0.5817
vn 0.7532 0.0011 0.6578
vn 0.7380 -0.1632 0.6548
vn 0.7532 -0.3098 0.5803
vn 0.7933 -0.4317 0.4293
vn 0.8405 -0.5076 0.1894
vn 0.9575 -0.1867 -0.2199
vn 0.9648 -0.2553 -0.0637
vn 0.9420 -0.0926 -0.3226
vn 0.9285 0.0036 -0.3714
vn 0.9233 0.0929 -0.3726
vn 0.9285 0.1712 -0.3296
vn 0.9420 0.2332 -0.2414
vn 0.9575 0.2681 -0.1065
vn 0.9648 0.2553 0.0637
vn 0.9575 0.1867 0.2199
vn 0.9420 0.0926 0.3226
vn 0.9285 -0.0036 0.3714
vn 0.9233 -0.0929 0.3726
vn 0.9285 -0.1712 0.3296
vn 0.9420 -0.2332 0.2414
vn 0.9575 -0.2681 0.1065
vn 1.0000 -0.0000 -0.0000
vn -0.9575 -0.2681 -0.1065
vn -0.9648 -0.2553 0.0637
vn -0.9420 -0.2332 -0.2414
vn -0.9285 -0.1712 -0.3296
vn -0.9233 -0.0929 -0.3726
vn -0.9285 -0.0036 -0.3714
vn -0.9420 0.0926 -0.3226
vn -0.9575 0.1867 -0.2199
vn -0.9648 0.2553 -0.0637
vn -0.9575 0.2681 0.1065
vn -0.9420 0.2332 0.2414
vn -0.9285 0.1712 0.3296
vn -0.9233 0.0929 0.3726
vn -0.9285 0.0036 0.3714
vn -0.9420 -0.0926 0.3226
vn -0.9575 -0.1867 0.2199
vn -0.8405 -0.5076 -0.1894
vn -0.8631 -0.4900 0.1222
vn -0.7933 -0.4317 -0.4293
vn -0.7532 -0.3098 -0.5803
vn -0.7380 -0.1632 -0.6548
vn -0.7532 0.0011 -0.6578
vn -0.7933 0.1796 -0.5817
vn -0.8405 0.3593 -0.4055
vn -0.8631 0.4900 -0.1222
vn -0.8405 0.5076 0.1894
vn -0.7933 0.4317 0.4293
vn -0.7532 0.3098 0.5803
vn -0.7380 0.1632 0.6548
vn -0.7532 -0.0011 0.6578
vn -0.7933 -0.1796 0.5817
vn -0.8405 -0.3593 0.4055
vn -0.6395 -0.7244 -0.2574
vn -0.6734 -0.7173 0.1789
vn -0.5724 -0.5883 -0.5712
vn -0.5201 -0.4062 -0.7513
vn -0.5016 -0.2093 -0.8394
vn -0.5201 0.0059 -0.8541
vn -0.5724 0.2513 -0.7805
vn -0.6395 0.5187 -0.5674
vn -0.6734 0.7173 -0.1789
vn -0.6395 0.7244 0.2574
vn -0.5724 0.5883 0.5712
vn -0.5201 0.4062 0.7513
vn -0.5016 0.2093 0.8394
vn -0.5201 -0.0059 0.8541
vn -0.5724 -0.2513 0.7805
vn -0.6395 -0.5187 0.5674
vn -0.3510 -0.8861 -0.3027
vn -0.3776 -0.8984 0.2240
vn -0.3000 -0.6894 -0.6593
vn -0.2635 -0.4609 -0.8474
vn -0.2514 -0.2342 -0.9391
vn -0.2635 0.0091 -0.9646
vn -0.3000 0.2992 -0.9058
vn -0.3510 0.6403 -0.6832
vn -0.3776 0.8984 -0.2240
vn -0.3510 0.8861 0.3027
vn -0.3000 0.6894 0.6593
vn -0.2635 0.4609 0.8474
vn -0.2514 0.2342 0.9391
vn -0.2635 -0.0091 0.9646
vn -0.3000 -0.2992 0.9058
vn -0.3510 -0.6403 0.6832
vn -0.0924 -0.9422 -0.3220
vn -0.1016 -0.9653 0.2407
vn -0.0764 -0.7194 -0.6903
vn -0.0660 -0.4757 -0.8771
vn -0.0627 -0.2414 -0.9684
vn -0.0660 0.0082 -0.9978
vn -0.0764 0.3111 -0.9473
vn -0.0924 0.6807 -0.7267
vn -0.1016 0.9653 -0.2407
vn -0.0924 0.9422 0.3220
vn -0.0764 0.7194 0.6903
vn -0.0660 0.4757 0.8771
vn -0.0627 0.2414 0.9684
vn -0.0660 -0.0082 0.9978
vn -0.0764 -0.3111 0.9473
vn -0.0924 -0.6807 0.7267
vn 0.0924 -0.9422 -0.3220
vn 0.1016 -0.9653 0.2407
vn 0.0764 -0.7194 -0.6903
vn 0.0660 -0.4757 -0.8771
vn 0.0627 -0.2414 -0.9684
vn 0.0660 0.0082 -0.9978
vn 0.0764 0.3111 -0.9473
vn 0.0924 0.6807 -0.7267
vn 0.1016 0.9653 -0.2407
vn 0.0924 0.9422 0.3220
vn 0.0764 0.7194 0.6903
vn 0.0660 0.4757 0.8771
vn 0.0627 0.2414 0.9684
vn 0.0660 -0.0082 0.9978
vn 0.0764 -0.3111 0.9473
vn 0.0924 -0.6807 0.7267
vn 0.3510 -0.8861 -0.3027
vn 0.3776 -0.8984 0.2240
vn 0.3000 -0.6894 -0.6593
vn 0.2635 -0.4609 -0.8474
vn 0.2514 -0.2342 -0.9391
vn 0.2635 0.0091 -0.9646
vn 0.3000 0.2992 -0.9058
vn 0.3510 0.6403 -0.6832
vn 0.3776 0.8984 -0.2240
vn 0.3510 0.8861 0.3027
vn 0.3000 0.6894 0.6593
vn 0.2635 0.4609 0.8474
vn 0.2514 0.2342 0.9391
vn 0.2635 -0.0091 0.9646
vn 0.3000 -0.2992 0.9058
vn 0.3510 -0.6403 0.6832
vn 0.6395 -0.7244 -0.2574
vn 0.6734 -0.7173 0.1789
vn 0.5724 -0.5883 -0.5712
vn 0.5201 -0.4062 -0.7513
vn 0.5016 -0.2093 -0.8394
vn 0.5201 0.0059 -0.8541
vn 0.5724 0.2513 -0.7805
vn 0.6395 0.5187 -0.5674
vn 0.6734 0.7173 -0.1789
vn 0.6395 0.7244 0.2574
vn 0.5724 0.5883 0.5712
vn 0.5201 0.4062 0.7513
vn 0.5016 0.2093 0.8394
vn 0.5201 -0.0059 0.8541
vn 0.5724 -0.2513 0.7805
vn 0.6395 -0.5187 0.5674
vn 0.8405 -0.5076 -0.1894
vn 0.8631 -0.4900 0.1222
vn 0.7933 -0.4317 -0.4293
vn 0.7532 -0.3098 -0.5803
vn 0.7380 -0.1632 -0.6548
vn 0.7532 0.0011 -0.6578
vn 0.7933 0.1796 -0.5817
vn 0.8405 0.3593 -0.4055
vn 0.8631 0.4900 -0.1222
vn 0.8405 0.5076 0.1894
vn 0.7933 0.4317 0.4293
vn 0.7532 0.3098 0.5803
vn 0.7380 0.1632 0.6548
vn 0.7532 -0.0011 0.6578
vn 0.7933 -0.1796 0.5817
vn 0.8405 -0.3593 0.4055
vn 0.9575 -0.2681 -0.1065
vn 0.9648 -0.2553 0.0637
vn 0.9420 -0.2332 -0.2414
vn 0.9285 -0.1712 -0.3296
vn 0.9233 -0.0929 -0.3726
vn 0.9285 -0.0036 -0.3714
vn 0.9420 0.0926 -0.3226
vn 0.9575 0.1867 -0.2199
vn 0.9648 0.2553 -0.0637
vn 0.9575 0.2681 0.1065
vn 0.9420 0.2332 0.2414
vn 0.9285 0.1712 0.3296
vn 0.9233 0.0929 0.3726
vn 0.9285 0.0036 0.3714
vn 0.9420 -0.0926 0.3226
vn 0.9575 -0.1867 0.2199
vn -0.8900 -0.4479 -0.0851
vn -0.8810 -0.4731 -0.0000
vn -0.9142 -0.3686 -0.1686
vn -0.9438 -0.2223 -0.2447
vn -0.9589 -0.0000 -0.2836
vn -0.9438 0.2223 -0.2447
vn -0.9142 0.3686 -0.1686
vn -0.8900 0.4479 -0.0851
vn -0.8810 0.4731 -0.0000
vn -0.8900 0.4479 0.0851
vn -0.9142 0.3686 0.1686
vn -0.9438 0.2223 0.2447
vn -0.9589 -0.0000 0.2836
vn -0.9438 -0.2223 0.2447
vn -0.9142 -0.3686 0.1686
vn -0.8900 -0.4479 0.0851
vn -0.6643 -0.7325 -0.1489
vn -0.6422 -0.7666 -0.0000
vn -0.7256 -0.6182 -0.3024
vn -0.8049 -0.3837 -0.4528
vn -0.8468 -0.0000 -0.5318
vn -0.8049 0.3837 -0.4528
vn -0.7256 0.6182 -0.3024
vn -0.6643 0.7325 -0.1489
vn -0.6422 0.7666 -0.0000
vn -0.6643 0.7325 0.1489
vn -0.7256 0.6182 0.3024
vn -0.8049 0.3837 0.4528
vn -0.8468 -0.0000 0.5318
vn -0.8049 -0.3837 0.4528
vn -0.7256 -0.6182 0.3024
vn -0.6643 -0.7325 0.1489
vn -0.4255 -0.8861 -0.1840
vn -0.4037 -0.9149 -0.0000
vn -0.4923 -0.7770 -0.3924
vn -0.5921 -0.5061 -0.6271
vn -0.6486 -0.0000 -0.7611
vn -0.5921 0.5061 -0.6271
vn -0.4923 0.7770 -0.3924
vn -0.4255 0.8861 -0.1840
vn -0.4037 0.9149 -0.0000
vn -0.4255 0.8861 0.1840
vn -0.4923 0.7770 0.3924
vn -0.5921 0.5061 0.6271
vn -0.6486 -0.0000 0.7611
vn -0.5921 -0.5061 0.6271
vn -0.4923 -0.7770 0.3924
vn -0.4255 -0.8861 0.1840
vn -0.2057 -0.9579 -0.2004
vn -0.1933 -0.9811 -0.0000
vn -0.2468 -0.8623 -0.4422
vn -0.3160 -0.5835 -0.7481
vn -0.3574 -0.0000 -0.9340
vn -0.3160 0.5835 -0.7481
vn -0.2468 0.8623 -0.4422
vn -0.2057 0.9579 -0.2004
vn -0.1933 0.9811 -0.0000
vn -0.2057 0.9579 0.2004
vn -0.2468 0.8623 0.4422
vn -0.3160 0.5835 0.7481
vn -0.3574 -0.0000 0.9340
vn -0.3160 -0.5835 0.7481
vn -0.2468 -0.8623 0.4422
vn -0.2057 -0.9579 0.2004
vn -0.0504 -0.9779 -0.2030
vn -0.0472 -0.9989 -0.0000
vn -0.0612 -0.8894 -0.4531
vn -0.0815 -0.6138 -0.7852
vn -0.0881 -0.3813 -0.9202
vn -0.0815 0.6138 -0.7852
vn -0.0881 0.3813 -0.9202
vn -0.0612 0.8894 -0.4531
vn -0.0504 0.9779 -0.2030
vn -0.0472 0.9989 -0.0000
vn -0.0504 0.9779 0.2030
vn -0.0612 0.8894 0.4531
vn -0.0815 0.6138 0.7852
vn -0.0881 0.3813 0.9202
vn -0.0815 -0.6138 0.7852
vn -0.0881 -0.3813 0.9202
vn -0.0612 -0.8894 0.4531
vn -0.0504 -0.9779 0.2030
vn 0.0504 -0.9779 -0.2030
vn 0.0472 -0.9989 -0.0000
vn 0.0612 -0.8894 -0.4531
vn 0.0815 -0.6138 -0.7852
vn 0.0881 -0.3813 -0.9202
vn 0.0815 0.6138 -0.7852
vn 0.0881 0.3813 -0.9202
vn 0.0612 0.8894 -0.4531
vn 0.0504 0.9779 -0.2030
vn 0.0472 0.9989 -0.0000
vn 0.0504 0.9779 0.2030
vn 0.0612 0.8894 0.4531
vn 0.0815 0.6138 0.7852
vn 0.0881 0.3813 0.9202
vn 0.0815 -0.6138 0.7852
vn 0.0881 -0.3813 0.9202
vn 0.0612 -0.8894 0.4531
vn 0.0504 -0.9779 0.2030
vn 0.2057 -0.9579 -0.2004
vn 0.1933 -0.9811 -0.0000
vn 0.2468 -0.8623 -0.4422
vn 0.3160 -0.5835 -0.7481
vn 0.3574 -0.0000 -0.9340
vn 0.3160 0.5835 -0.7481
vn 0.2468 0.8623 -0.4422
vn 0.2057 0.9579 -0.2004
vn 0.1933 0.9811 -0.0000
vn 0.2057 0.9579 0.2004
vn 0.2468 0.8623 0.4422
vn 0.3160 0.5835 0.7481
vn 0.3574 -0.0000 0.9340
vn 0.3160 -0.5835 0.7481
vn 0.2468 -0.8623 0.4422
vn 0.2057 -0.9579 0.2004
vn 0.4255 -0.8861 -0.1840
vn 0.4037 -0.9149 -0.0000
vn 0.4923 -0.7770 -0.3924
vn 0.5921 -0.5061 -0.6271
vn 0.6486 -0.0000 -0.7611
vn 0.5921 0.5061 -0.6271
vn 0.4923 0.7770 -0.3924
vn 0.4255 0.8861 -0.1840
vn 0.4037 0.9149 -0.0000
vn 0.4255 0.8861 0.1840
vn 0.4923 0.7770 0.3924
vn 0.5921 0.5061 0.6271
vn 0.6486 -0.0000 0.7611
vn 0.5921 -0.5061 0.6271
vn 0.4923 -0.7770 0.3924
vn 0.4255 -0.8861 0.1840
vn 0.6643 -0.7325 -0.1489
vn 0.6422 -0.7666 -0.0000
vn 0.7256 -0.6182 -0.3024
vn 0.8049 -0.3837 -0.4528
vn 0.8468 -0.0000 -0.5318
vn 0.8049 0.3837 -0.4528
vn 0.7256 0.6182 -0.3024
vn 0.6643 0.7325 -0.1489
vn 0.6422 0.7666 -0.0000
vn 0.6643 0.7325 0.1489
vn 0.7256 0.6182 0.3024
vn 0.8049 0.3837 0.4528
vn 0.8468 -0.0000 0.5318
vn 0.8049 -0.3837 0.4528
vn 0.7256 -0.6182 0.3024
vn 0.6643 -0.7325 0.1489
vn 0.8900 -0.4479 -0.0851
vn 0.8810 -0.4731 -0.0000
vn 0.9142 -0.3686 -0.1686
vn 0.9438 -0.2223 -0.2447
vn 0.9589 -0.0000 -0.2836
vn 0.9438 0.2223 -0.2447
vn 0.9142 0.3686 -0.1686
vn 0.8900 0.4479 -0.0851
vn 0.8810 0.4731 -0.0000
vn 0.8900 0.4479 0.0851
vn 0.9142 0.3686 0.1686
vn 0.9438 0.2223 0.2447
vn 0.9589 -0.0000 0.2836
vn 0.9438 -0.2223 0.2447
vn 0.9142 -0.3686 0.1686
vn 0.8900 -0.4479 0.0851
vn -0.8885 -0.4483 -0.0977
vn -0.8803 -0.4745 -0.0000
vn -0.9105 -0.3661 -0.1923
vn -0.9367 -0.2171 -0.2747
vn -0.9496 -0.0000 -0.3134
vn -0.9367 0.2171 -0.2747
vn -0.9105 0.3661 -0.1923
vn -0.8885 0.4483 -0.0977
vn -0.8803 0.4745 -0.0000
vn -0.8885 0.4483 0.0977
vn -0.9105 0.3661 0.1923
vn -0.9367 0.2171 0.2747
vn -0.9496 -0.0000 0.3134
vn -0.9367 -0.2171 0.2747
vn -0.9105 -0.3661 0.1923
vn -0.8885 -0.4483 0.0977
vn -0.6613 -0.7309 -0.1686
vn -0.6415 -0.7671 -0.0000
vn -0.7156 -0.6105 -0.3394
vn -0.7836 -0.3713 -0.4982
vn -0.8180 -0.0000 -0.5753
vn -0.7836 0.3713 -0.4982
vn -0.7156 0.6105 -0.3394
vn -0.6613 0.7309 -0.1686
vn -0.6415 0.7671 -0.0000
vn -0.6613 0.7309 0.1686
vn -0.7156 0.6105 0.3394
vn -0.7836 0.3713 0.4982
vn -0.8180 -0.0000 0.5753
vn -0.7836 -0.3713 0.4982
vn -0.7156 -0.6105 0.3394
vn -0.6613 -0.7309 0.1686
vn -0.4227 -0.8823 -0.2071
vn -0.4034 -0.9150 -0.0000
vn -0.4805 -0.7619 -0.4344
vn -0.5620 -0.4823 -0.6720
vn -0.6059 -0.0000 -0.7956
vn -0.5620 0.4823 -0.6720
vn -0.4805 0.7619 -0.4344
vn -0.4227 0.8823 -0.2071
vn -0.4034 0.9150 -0.0000
vn -0.4227 0.8823 0.2071
vn -0.4805 0.7619 0.4344
vn -0.5620 0.4823 0.6720
vn -0.6059 -0.0000 0.7956
vn -0.5620 -0.4823 0.6720
vn -0.4805 -0.7619 0.4344
vn -0.4227 -0.8823 0.2071
vn -0.2042 -0.9527 -0.2250
vn -0.1932 -0.9812 -0.0000
vn -0.2391 -0.8411 -0.4852
vn -0.2933 -0.5488 -0.7828
vn -0.3240 -0.0000 -0.9461
vn -0.2933 0.5488 -0.7828
vn -0.2391 0.8411 -0.4852
vn -0.2042 0.9527 -0.2250
vn -0.1932 0.9812 -0.0000
vn -0.2042 0.9527 0.2250
vn -0.2391 0.8411 0.4852
vn -0.2933 0.5488 0.7828
vn -0.3240 -0.0000 0.9461
vn -0.2933 -0.5488 0.7828
vn -0.2391 -0.8411 0.4852
vn -0.2042 -0.9527 0.2250
vn -0.0500 -0.9723 -0.2282
vn -0.0592 -0.8659 -0.4967
vn -0.0748 -0.5736 -0.8157
vn -0.0846 -0.0000 -0.9964
vn -0.0748 0.5736 -0.8157
vn -0.0592 0.8659 -0.4967
vn -0.0500 0.9723 -0.2282
vn -0.0500 0.9723 0.2282
vn -0.0592 0.8659 0.4967
vn -0.0748 0.5736 0.8157
vn -0.0846 -0.0000 0.9964
vn -0.0748 -0.5736 0.8157
vn -0.0592 -0.8659 0.4967
vn -0.0500 -0.9723 0.2282
vn 0.0500 -0.9723 -0.2282
vn 0.0592 -0.8659 -0.4967
vn 0.0748 -0.5736 -0.8157
vn 0.0846 -0.0000 -0.9964
vn 0.0748 0.5736 -0.8157
vn 0.0592 0.8659 -0.4967
vn 0.0500 0.9723 -0.2282
vn 0.0500 0.9723 0.2282
vn 0.0592 0.8659 0.4967
vn 0.0748 0.5736 0.8157
vn 0.0846 -0.0000 0.9964
vn 0.0748 -0.5736 0.8157
vn 0.0592 -0.8659 0.4967
vn 0.0500 -0.9723 0.2282
vn 0.2042 -0.9527 -0.2250
vn 0.1932 -0.9812 -0.0000
vn 0.2391 -0.8411 -0.4852
vn 0.2933 -0.5488 -0.7828
vn 0.3240 -0.0000 -0.9461
vn 0.2933 0.5488 -0.7828
vn 0.2391 0.8411 -0.4852
vn 0.2042 0.9527 -0.2250
vn 0.1932 0.9812 -0.0000
vn 0.2042 0.9527 0.2250
vn 0.2391 0.8411 0.4852
vn 0.2933 0.5488 0.7828
vn 0.3240 -0.0000 0.9461
vn 0.2933 -0.5488 0.7828
vn 0.2391 -0.8411 0.4852
vn 0.2042 -0.9527 0.2250
vn 0.4227 -0.8823 -0.2071
vn 0.4034 -0.9150 -0.0000
vn 0.4805 -0.7619 -0.4344
vn 0.5620 -0.4823 -0.6720
vn 0.6059 -0.0000 -0.7956
vn 0.5620 0.4823 -0.6720
vn 0.4805 0.7619 -0.4344
vn 0.4227 0.8823 -0.2071
vn 0.4034 0.9150 -0.0000
vn 0.4227 0.8823 0.2071
vn 0.4805 0.7619 0.4344
vn 0.5620 0.4823 0.6720
vn 0.6059 -0.0000 0.7956
vn 0.5620 -0.4823 0.6720
vn 0.4805 -0.7619 0.4344
vn 0.4227 -0.8823 0.2071
vn 0.6613 -0.7309 -0.1686
vn 0.6415 -0.7671 -0.0000
vn 0.7156 -0.6105 -0.3394
vn 0.7836 -0.3713 -0.4982
vn 0.8180 -0.0000 -0.5753
vn 0.7836 0.3713 -0.4982
vn 0.7156 0.6105 -0.3394
vn 0.6613 0.7309 -0.1686
vn 0.6415 0.7671 -0.0000
vn 0.6613 0.7309 0.1686
vn 0.7156 0.6105 0.3394
vn 0.7836 0.3713 0.4982
vn 0.8180 -0.0000 0.5753
vn 0.7836 -0.3713 0.4982
vn 0.7156 -0.6105 0.3394
vn 0.6613 -0.7309 0.1686
vn 0.8885 -0.4483 -0.0977
vn 0.8803 -0.4745 -0.0000
vn 0.9105 -0.3661 -0.1923
vn 0.9367 -0.2171 -0.2747
vn 0.9496 -0.0000 -0.3134
vn 0.9367 0.2171 -0.2747
vn 0.9105 0.3661 -0.1923
vn 0.8885 0.4483 -0.0977
vn 0.8803 0.4745 -0.0000
vn 0.8885 0.4483 0.0977
vn 0.9105 0.3661 0.1923
vn 0.9367 0.2171 0.2747
vn 0.9496 -0.0000 0.3134
vn 0.9367 -0.2171 0.2747
vn 0.9105 -0.3661 0.1923
vn 0.8885 -0.4483 0.0977
s 1
usemtl bun
f 1//1 3//2 2//3
f 1//1 4//4 3//2
f 1//1 5//5 4//4
f 1//1 6//6 5//5
f 1//1 7//7 6//6
f 1//1 8//8 7//7
f 1//1 9//9 8//8
f 1//1 10//10 9//9
f 1//1 11//11 10//10
f 1//1 12//12 11//11
f 1//1 13//13 12//12
f 1//1 14//14 13//13
f 1//1 15//15 14//14
f 1//1 16//16 15//15
f 1//1 17//17 16//16
f 1//1 2//3 17//17
f 2//3 3//2 19//18 18//19
f 3//2 4//4 20//20 19//18
f 4//4 5//5 21//21 20//20
f 5//5 6//6 22//22 21//21
f 6//6 7//7 23//23 22//22
f 7//7 8//8 24//24 23//23
f 8//8 9//9 25//25 24//24
f 9//9 10//10 26//26 25//25
f 10//10 11//11 27//27 26//26
f 11//11 12//12 28//28 27//27
f 12//12 13//13 29//29 28//28
f 13//13 14//14 30//30 29//29
f 14//14 15//15 31//31 30//30
f 15//15 16//16 32//32 31//31
f 16//16 17//17 33//33 32//32
f 17//17 2//3 18//19 33//33
f 18//19 19//18 35//34 34//35
f 19//18 20//20 36//36 35//34
f 20//20 21//21 37//37 36//36
f 21//21 22//22 38//38 37//37
f 22//22 23//23 39//39 38//38
f 23//23 24//24 40//40 39//39
f 24//24 25//25 41//41 40//40
f 25//25 26//26 42//42 41//41
f 26//26 27//27 43//43 42//42
f 27//27 28//28 44//44 43//43
f 28//28 29//29 45//45 44//44
f 29//29 30//30 46//46 45//45
f 30//30 31//31 47//47 46//46
f 31//31 32//32 48//48 47//47
f 32//32 33//33 49//49 48//48
f 33//33 18//19 34//35 49//49
f 34//35 35//34 51//50 50//51
f 35//34 36//36 52//52 51//50
f 36//36 37//37 53//53 52//52
f 37//37 38//38 54//54 53//53
f 38//38 39//39 55//55 54//54
f 39//39 40//40 56//56 55//55
f 40//40 41//41 57//57 56//56
f 41//41 42//42 58//58 57//57
f 42//42 43//43 59//59 58//58
f 43//43 44//44 60//60 59//59
f 44//44 45//45 61//61 60//60
f 45//45 46//46 62//62 61//61
f 46//46 47//47 63//63 62//62
f 47//47 48//48 64//64 63//63
f 48//48 49//49 65//65 64//64
f 49//49 34//35 50//51 65//65
f 50//51 51//50 67//66 66//67
f 51//50 52//52 68//68 67//66
f 52//52 53//53 69//69 68//68
f 53//53 54//54 70//70 69//69
f 54//54 55//55 71//71 70//70
f 55//55 56//56 72//72 71//71
f 56//56 57//57 73//73 72//72
f 57//57 58//58 74//74 73//73
f 58//58 59//59 75//75 74//74
f 59//59 60//60 76//76 75//75
f 60//60 61//61 77//77 76//76
f 61//61 62//62 78//78 77//77
f 62//62 63//63 79//79 78//78
f 63//63 64//64 80//80 79//79
f 64//64 65//65 81//81 80//80
f 65//65 50//51 66//67 81//81
f 66//67 67//66 83//82 82//83
f 67//66 68//68 84//84 83//82
f 68//68 69//69 85//85 84//84
f 69//69 70//70 86//86 85//85
f 70//70 71//71 87//87 86//86
f 71//71 72//72 88//88 87//87
f 72//72 73//73 89//89 88//88
f 73//73 74//74 90//90 89//89
f 74//74 75//75 91//91 90//90
f 75//75 76//76 92//92 91//91
f 76//76 77//77 93//93 92//92
f 77//77 78//78 94//94 93//93
f 78//78 79//79 95//95 94//94
f 79//79 80//80 96//96 95//95
f 80//80 81//81 97//97 96//96
f 81//81 66//67 82//83 97//97
f 82//83 83//82 99//98 98//99
f 83//82 84//84 100//100 99//98
f 84//84 85//85 101//101 100//100
f 85//85 86//86 102//102 101//101
f 86//86 87//87 103//103 102//102
f 87//87 88//88 104//104 103//103
f 88//88 89//89 105//105 104//104
f 89//89 90//90 106//106 105//105
f 90//90 91//91 107//107 106//106
f 91//91 92//92 108//108 107//107
f 92//92 93//93 109//109 108//108
f 93//93 94//94 110//110 109//109
f 94//94 95//95 111//111 110//110
f 95//95 96//96 112//112 111//111
f 96//96 97//97 113//113 112//112
f 97//97 82//83 98//99 113//113
f 98//99 99//98 115//114 114//115
f 99//98 100//100 116//116 115//114
f 100//100 101//101 117//117 116//116
f 101//101 102//102 118//118 117//117
f 102//102 103//103 119//119 118//118
f 103//103 104//104 120//120 119//119
f 104//104 105//105 121//121 120//120
f 105//105 106//106 122//122 121//121
f 106//106 107//107 123//123 122//122
f 107//107 108//108 124//124 123//123
f 108//108 109//109 125//125 124//124
f 109//109 110//110 126//126 125//125
f 110//110 111//111 127//127 126//126
f 111//111 112//112 128//128 127//127
f 112//112 113//113 129//129 128//128
f 113//113 98//99 114//115 129//129
f 114//115 115//114 131//130 130//131
f 115//114 116//116 132//132 131//130
f 116//116 117//117 133//133 132//132
f 117//117 118//118 134//134 133//133
f 118//118 119//119 135//135 134//134
f 119//119 120//120 136//136 135//135
f 120//120 121//121 137//137 136//136
f 121//121 122//122 138//138 137//137
f 122//122 123//123 139//139 138//138
f 123//123 124//124 140//140 139//139
f 124//124 125//125 141//141 140//140
f 125//125 126//126 142//142 141//141
f 126//126 127//127 143//143 142//142
f 127//127 128//128 144//144 143//143
f 128//128 129//129 145//145 144//144
f 129//129 114//115 130//131 145//145
f 130//131 131//130 147//146 146//147
f 131//130 132//132 148//148 147//146
f 132//132 133//133 149//149 148//148
f 133//133 134//134 150//150 149//149
f 134//134 135//135 151//151 150//150
f 135//135 136//136 152//152 151//151
f 136//136 137//137 153//153 152//152
f 137//137 138//138 154//154 153//153
f 138//138 139//139 155//155 154//154
f 139//139 140//140 156//156 155//155
f 140//140 141//141 157//157 156//156
f 141//141 142//142 158//158 157//157
f 142//142 143//143 159//159 158//158
f 143//143 144//144 160//160 159//159
f 144//144 145//145 161//161 160//160
f 145//145 130//131 146//147 161//161
f 146//147 147//146 162//162
f 147//146 148//148 162//162
f 148//148 149//149 162//162
f 149//149 150//150 162//162
f 150//150 151//151 162//162
f 151//151 152//152 162//162
f 152//152 153//153 162//162
f 153//153 154//154 162//162
f 154//154 155//155 162//162
f 155//155 156//156 162//162
f 156//156 157//157 162//162
f 157//157 158//158 162//162
f 158//158 159//159 162//162
f 159//159 160//160 162//162
f 160//160 161//161 162//162
f 161//161 146//147 162//162
f 163//1 165//163 164//164
f 163//1 166//165 165//163
f 163//1 167//166 166//165
f 163//1 168//167 167//166
f 163//1 169//168 168//167
f 163//1 170//169 169//168
f 163//1 171//170 170//169
f 163//1 172//171 171//170
f 163//1 173//172 172//171
f 163//1 174//173 173//172
f 163//1 175//174 174//173
f 163//1 176//175 175//174
f 163//1 177//176 176//175
f 163//1 178//177 177//176
f 163//1 179//178 178//177
f 163//1 164//164 179//178
f 164//164 165//163 181//179 180//180
f 165//163 166//165 182//181 181//179
f 166//165 167//166 183//182 182//181
f 167//166 168//167 184//183 183//182
f 168//167 169//168 185//184 184//183
f 169//168 170//169 186//185 185//184
f 170//169 171//170 187//186 186//185
f 171//170 172//171 188//187 187//186
f 172//171 173//172 189//188 188//187
f 173//172 174//173 190//189 189//188
f 174//173 175//174 191//190 190//189
f 175//174 176//175 192//191 191//190
f 176//175 177//176 193//192 192//191
f 177//176 178//177 194//193 193//192
f 178//177 179//178 195//194 194//193
f 179//178 164//164 180//180 195//194
f 180//180 181//179 197//195 196//196
f 181//179 182//181 198//197 197//195
f 182//181 183//182 199//198 198//197
f 183//182 184//183 200//199 199//198
f 184//183 185//184 201//200 200//199
f 185//184 186//185 202//201 201//200
f 186//185 187//186 203//202 202//201
f 187//186 188//187 204//203 203//202
f 188//187 189//188 205//204 204//203
f 189//188 190//189 206//205 205//204
f 190//189 191//190 207//206 206//205
f 191//190 192//191 208//207 207//206
f 192//191 193//192 209//208 208//207
f 193//192 194//193 210//209 209//208
f 194//193 195//194 211//210 210//209
f 195//194 180//180 196//196 211//210
f 196//196 197//195 213//211 212//212
f 197//195 198//197 214//213 213//211
f 198//197 199//198 215//214 214//213
f 199//198 200//199 216//215 215//214
f 200//199 201//200 217//216 216//215
f 201//200 202//201 218//217 217//216
f 202//201 203//202 219//218 218//217
f 203//202 204//203 220//219 219//218
f 204//203 205//204 221//220 220//219
f 205//204 206//205 222//221 221//220
f 206//205 207//206 223//222 222//221
f 207//206 208//207 224//223 223//222
f 208//207 209//208 225//224 224//223
f 209//208 210//209 226//225 225//224
f 210//209 211//210 227//226 226//225
f 211//210 196//196 212//212 227//226
f 212//212 213//211 229//227 228//228
f 213//211 214//213 230//229 229//227
f 214//213 215//214 231//230 230//229
f 215//214 216//215 232//231 231//230
f 216//215 217//216 233//232 232//231
f 217//216 218//217 234//233 233//232
f 218//217 219//218 235//234 234//233
f 219//218 220//219 236//235 235//234
f 220//219 221//220 237//236 236//235
f 221//220 222//221 238//237 237//236
f 222//221 223//222 239//238 238//237
f 223//222 224//223 240//239 239//238
f 224//223 225//224 241//240 240//239
f 225//224 226//225 242//241 241//240
f 226//225 227//226 243//242 242//241
f 227//226 212//212 228//228 243//242
f 228//228 229//227 245//243 244//244
f 229//227 230//229 246//245 245//243
f 230//229 231//230 247//246 246//245
f 231//230 232//231 248//247 247//246
f 232//231 233//232 249//248 248//247
f 233//232 234//233 250//249 249//248
f 234//233 235//234 251//250 250//249
f 235//234 236//235 252//251 251//250
f 236//235 237//236 253//252 252//251
f 237//236 238//237 254//253 253//252
f 238//237 239//238 255//254 254//253
f 239//238 240//239 256//255 255//254
f 240//239 241//240 257//256 256//255
f 241//240 242//241 258//257 257//256
f 242//241 243//242 259//258 258//257
f 243//242 228//228 244//244 259//258
f 244//244 245//243 261//259 260//260
f 245//243 246//245 262//261 261//259
f 246//245 247//246 263//262 262//261
f 247//246 248//247 264//263 263//262
f 248//247 249//248 265//264 264//263
f 249//248 250//249 266//265 265//264
f 250//249 251//250 267//266 266//265
f 251//250 252//251 268//267 267//266
f 252//251 253//252 269//268 268//267
f 253//252 254//253 270//269 269//268
f 254//253 255//254 271//270 270//269
f 255//254 256//255 272//271 271//270
f 256//255 257//256 273//272 272//271
f 257//256 258//257 274//273 273//272
f 258//257 259//258 275//274 274//273
f 259//258 244//244 260//260 275//274
f 260//260 261//259 277//275 276//276
f 261//259 262//261 278//277 277//275
f 262//261 263//262 279//278 278//277
f 263//262 264//263 280//279 279//278
f 264//263 265//264 281//280 280//279
f 265//264 266//265 282//281 281//280
f 266//265 267//266 283//282 282//281
f 267//266 268//267 284//283 283//282
f 268//267 269//268 285//284 284//283
f 269//268 270//269 286//285 285//284
f 270//269 271//270 287//286 286//285
f 271//270 272//271 288//287 287//286
f 272//271 273//272 289//288 288//287
f 273//272 274//273 290//289 289//288
f 274//273 275//274 291//290 290//289
f 275//274 260//260 276//276 291//290
f 276//276 277//275 293//291 292//292
f 277//275 278//277 294//293 293//291
f 278//277 279//278 295//294 294//293
f 279//278 280//279 296//295 295//294
f 280//279 281//280 297//296 296//295
f 281//280 282//281 298//297 297//296
f 282//281 283//282 299//298 298//297
f 283//282 284//283 300//299 299//298
f 284//283 285//284 301//300 300//299
f 285//284 286//285 302//301 301//300
f 286//285 287//286 303//302 302//301
f 287//286 288//287 304//303 303//302
f 288//287 289//288 305//304 304//303
f 289//288 290//289 306//305 305//304
f 290//289 291//290 307//306 306//305
f 291//290 276//276 292//292 307//306
f 292//292 293//291 309//307 308//308
f 293//291 294//293 310//309 309//307
f 294//293 295//294 311//310 310//309
f 295//294 296//295 312//311 311//310
f 296//295 297//296 313//312 312//311
f 297//296 298//297 314//313 313//312
f 298//297 299//298 315//314 314//313
f 299//298 300//299 316//315 315//314
f 300//299 301//300 317//316 316//315
f 301//300 302//301 318//317 317//316
f 302//301 303//302 319//318 318//317
f 303//302 304//303 320//319 319//318
f 304//303 305//304 321//320 320//319
f 305//304 306//305 322//321 321//320
f 306//305 307//306 323//322 322//321
f 307//306 292//292 308//308 323//322
f 308//308 309//307 324//162
f 309//307 310//309 324//162
f 310//309 311//310 324//162
f 311//310 312//311 324//162
f 312//311 313//312 324//162
f 313//312 314//313 324//162
f 314//313 315//314 324//162
f 315//314 316//315 324//162
f 316//315 317//316 324//162
f 317//316 318//317 324//162
f 318//317 319//318 324//162
f 319//318 320//319 324//162
f 320//319 321//320 324//162
f 321//320 322//321 324//162
f 322//321 323//322 324//162
f 323//322 308//308 324//162
f 325//1 327//323 326//324
f 325//1 328//325 327//323
f 325//1 329//326 328//325
f 325//1 330//327 329//326
f 325//1 331//328 330//327
f 325//1 332//329 331//328
f 325//1 333//330 332//329
f 325//1 334//331 333//330
f 325//1 335//332 334//331
f 325//1 336//333 335//332
f 325//1 337//334 336//333
f 325//1 338//335 337//334
f 325//1 339//336 338//335
f 325//1 340//337 339//336
f 325//1 341//338 340//337
f 325//1 326//324 341//338
f 326//324 327//323 343//339 342//340
f 327//323 328//325 344//341 343//339
f 328//325 329//326 345//342 344//341
f 329//326 330//327 346//343 345//342
f 330//327 331//328 347//344 346//343
f 331//328 332//329 348//345 347//344
f 332//329 333//330 349//346 348//345
f 333//330 334//331 350//347 349//346
f 334//331 335//332 351//348 350//347
f 335//332 336//333 352//349 351//348
f 336//333 337//334 353//350 352//349
f 337//334 338//335 354//351 353//350
f 338//335 339//336 355//352 354//351
f 339//336 340//337 356//353 355//352
f 340//337 341//338 357//354 356//353
f 341//338 326//324 342//340 357//354
f 342//340 343//339 359//355 358//356
f 343//339 344//341 360//357 359//355
f 344//341 345//342 361//358 360//357
f 345//342 346//343 362//359 361//358
f 346//343 347//344 363//360 362//359
f 347//344 348//345 364//361 363//360
f 348//345 349//346 365//362 364//361
f 349//346 350//347 366//363 365//362
f 350//347 351//348 367//364 366//363
f 351//348 352//349 368//365 367//364
f 352//349 353//350 369//366 368//365
f 353//350 354//351 370//367 369//366
f 354//351 355//352 371//368 370//367
f 355//352 356//353 372//369 371//368
f 356//353 357//354 373//370 372//369
f 357//354 342//340 358//356 373//370
f 358//356 359//355 375//371 374//372
f 359//355 360//357 376//373 375//371
f 360//357 361//358 377//374 376//373
f 361//358 362//359 378//375 377//374
f 362//359 363//360 379//376 378//375
f 363//360 364//361 380//377 379//376
f 364//361 365//362 381//378 380//377
f 365//362 366//363 382//379 381//378
f 366//363 367//364 383//380 382//379
f 367//364 368//365 384//381 383//380
f 368//365 369//366 385//382 384//381
f 369//366 370//367 386//383 385//382
f 370//367 371//368 387//384 386//383
f 371//368 372//369 388//385 387//384
f 372//369 373//370 389//386 388//385
f 373//370 358//356 374//372 389//386
f 374//372 375//371 391//387 390//388
f 375//371 376//373 392//389 391//387
f 376//373 377//374 393//390 392//389
f 377//374 378//375 394//391 393//390
f 378//375 379//376 395//392 394//393
f 379//376 380//377 396//394 395//392
f 380//377 381//378 397//395 396//394
f 381//378 382//379 398//396 397//395
f 382//379 383//380 399//397 398//396
f 383//380 384//381 400//398 399//397
f 384//381 385//382 401//399 400//398
f 385//382 386//383 402//400 401//399
f 386//383 387//384 403//401 402//402
f 387//384 388//385 404//403 403//401
f 388//385 389//386 405//404 404//403
f 389//386 374//372 390//388 405//404
f 390//388 391//387 407//405 406//406
f 391//387 392//389 408//407 407//405
f 392//389 393//390 409//408 408//407
f 393//390 394//391 410//409 409//408
f 394//393 395//392 411//410 410//411
f 395//392 396//394 412//412 411//410
f 396//394 397//395 413//413 412//412
f 397//395 398//396 414//414 413//413
f 398//396 399//397 415//415 414//414
f 399//397 400//398 416//416 415//415
f 400//398 401//399 417//417 416//416
f 401//399 402//400 418//418 417//417
f 402//402 403//401 419//419 418//420
f 403//401 404//403 420//421 419//419
f 404//403 405//404 421//422 420//421
f 405//404 390//388 406//406 421//422
f 406//406 407//405 423//423 422//424
f 407//405 408//407 424//425 423//423
f 408//407 409//408 425//426 424//425
f 409//408 410//409 426//427 425//426
f 410//411 411//410 427//428 426//427
f 411//410 412//412 428//429 427//428
f 412//412 413//413 429//430 428//429
f 413//413 414//414 430//431 429//430
f 414//414 415//415 431//432 430//431
f 415//415 416//416 432//433 431//432
f 416//416 417//417 433//434 432//433
f 417//417 418//418 434//435 433//434
f 418//420 419//419 435//436 434//435
f 419//419 420//421 436//437 435//436
f 420//421 421//422 437//438 436//437
f 421//422 406//406 422//424 437//438
f 422//424 423//423 439//439 438//440
f 423//423 424//425 440//441 439//439
f 424//425 425//426 441//442 440//441
f 425//426 426//427 442//443 441//442
f 426//427 427//428 443//444 442//443
f 427//428 428//429 444//445 443//444
f 428//429 429//430 445//446 444//445
f 429//430 430//431 446//447 445//446
f 430//431 431//432 447//448 446//447
f 431//432 432//433 448//449 447//448
f 432//433 433//434 449//450 448//449
f 433//434 434//435 450//451 449//450
f 434//435 435//436 451//452 450//451
f 435//436 436//437 452//453 451//452
f 436//437 437//438 453//454 452//453
f 437//438 422//424 438//440 453//454
f 438//440 439//439 455//455 454//456
f 439//439 440//441 456//457 455//455
f 440//441 441//442 457//458 456//457
f 441//442 442//443 458//459 457//458
f 442//443 443//444 459//460 458//459
f 443//444 444//445 460//461 459//460
f 444//445 445//446 461//462 460//461
f 445//446 446//447 462//463 461//462
f 446//447 447//448 463//464 462//463
f 447//448 448//449 464//465 463//464
f 448//449 449//450 465//466 464//465
f 449//450 450//451 466//467 465//466
f 450//451 451//452 467//468 466//467
f 451//452 452//453 468//469 467//468
f 452//453 453//454 469//470 468//469
f 453//454 438//440 454//456 469//470
f 454//456 455//455 471//471 470//472
f 455//455 456//457 472//473 471//471
f 456//457 457//458 473//474 472//473
f 457//458 458//459 474//475 473//474
f 458//459 459//460 475//476 474//475
f 459//460 460//461 476//477 475//476
f 460//461 461//462 477//478 476//477
f 461//462 462//463 478//479 477//478
f 462//463 463//464 479//480 478//479
f 463//464 464//465 480//481 479//480
f 464//465 465//466 481//482 480//481
f 465//466 466//467 482//483 481//482
f 466//467 467//468 483//484 482//483
f 467//468 468//469 484//485 483//484
f 468//469 469//470 485//486 484//485
f 469//470 454//456 470//472 485//486
f 470//472 471//471 486//162
f 471//471 472//473 486//162
f 472//473 473//474 486//162
f 473//474 474//475 486//162
f 474//475 475//476 486//162
f 475//476 476//477 486//162
f 476//477 477//478 486//162
f 477//478 478//479 486//162
f 478//479 479//480 486//162
f 479//480 480//481 486//162
f 480//481 481//482 486//162
f 481//482 482//483 486//162
f 482//483 483//484 486//162
f 483//484 484//485 486//162
f 484//485 485//486 486//162
f 485//486 470//472 486//162
usemtl cream
f 487//1 489//487 488//488
f 487//1 490//489 489//487
f 487//1 491//490 490//489
f 487//1 492//491 491//490
f 487//1 493//492 492//491
f 487//1 494//493 493//492
f 487//1 495//494 494//493
f 487//1 496//495 495//494
f 487//1 497//496 496//495
f 487//1 498//497 497//496
f 487//1 499//498 498//497
f 487//1 500//499 499//498
f 487//1 501//500 500//499
f 487//1 502//501 501//500
f 487//1 503//502 502//501
f 487//1 488//488 503//502
f 488//488 489//487 505//503 504//504
f 489//487 490//489 506//505 505//503
f 490//489 491//490 507//506 506//505
f 491//490 492//491 508//507 507//506
f 492//491 493//492 509//508 508//507
f 493//492 494//493 510//509 509//508
f 494//493 495//494 511//510 510//509
f 495//494 496//495 512//511 511//510
f 496//495 497//496 513//512 512//511
f 497//496 498//497 514//513 513//512
f 498//497 499//498 515//514 514//513
f 499//498 500//499 516//515 515//514
f 500//499 501//500 517//516 516//515
f 501//500 502//501 518//517 517//516
f 502//501 503//502 519//518 518//517
f 503//502 488//488 504//504 519//518
f 504//504 505//503 521//519 520//520
f 505//503 506//505 522//521 521//519
f 506//505 507//506 523//522 522//521
f 507//506 508//507 524//523 523//522
f 508//507 509//508 525//524 524//523
f 509//508 510//509 526//525 525//524
f 510//509 511//510 527//526 526//525
f 511//510 512//511 528//527 527//526
f 512//511 513//512 529//528 528//527
f 513//512 514//513 530//529 529//528
f 514//513 515//514 531//530 530//529
f 515//514 516//515 532//531 531//530
f 516//515 517//516 533//532 532//531
f 517//516 518//517 534//533 533//532
f 518//517 519//518 535//534 534//533
f 519//518 504//504 520//520 535//534
f 520//520 521//519 537//535 536//536
f 521//519 522//521 538//537 537//535
f 522//521 523//522 539//538 538//537
f 523//522 524//523 540//539 539//538
f 524//523 525//524 541//540 540//539
f 525//524 526//525 542//541 541//540
f 526//525 527//526 543//542 542//541
f 527//526 528//527 544//543 543//542
f 528//527 529//528 545//544 544//543
f 529//528 530//529 546//545 545//544
f 530//529 531//530 547//546 546//545
f 531//530 532//531 548//547 547//546
f 532//531 533//532 549//548 548//547
f 533//532 534//533 550//549 549//548
f 534//533 535//534 551//550 550//549
f 535//534 520//520 536//536 551//550
f 536//536 537//535 553//551 552//388
f 537//535 538//537 554//552 553//551
f 538//537 539//538 555//553 554//552
f 539//538 540//539 556//554 555//553
f 540//539 541//540 557//555 556//554
f 541//540 542//541 558//556 557//555
f 542//541 543//542 559//557 558//556
f 543//542 544//543 560//396 559//557
f 544//543 545//544 561//558 560//396
f 545//544 546//545 562//559 561//558
f 546//545 547//546 563//560 562//559
f 547//546 548//547 564//561 563//560
f 548//547 549//548 565//562 564//561
f 549//548 550//549 566//563 565//562
f 550//549 551//550 567//564 566//563
f 551//550 536//536 552//388 567//564
f 552//388 553//551 569//565 568//406
f 553//551 554//552 570//566 569//565
f 554//552 555//553 571//567 570//566
f 555//553 556//554 572//568 571//567
f 556//554 557//555 573//569 572//568
f 557//555 558//556 574//570 573//569
f 558//556 559//557 575//571 574//570
f 559//557 560//396 576//414 575//571
f 560//396 561//558 577//572 576//414
f 561//558 562//559 578//573 577//572
f 562//559 563//560 579//574 578//573
f 563//560 564//561 580//575 579//574
f 564//561 565//562 581//576 580//575
f 565//562 566//563 582//577 581//576
f 566//563 567//564 583//578 582//577
f 567//564 552//388 568//406 583//578
f 568//406 569//565 585//579 584//580
f 569//565 570//566 586//581 585//579
f 570//566 571//567 587//582 586//581
f 571//567 572//568 588//583 587//582
f 572//568 573//569 589//584 588//583
f 573//569 574//570 590//585 589//584
f 574//570 575//571 591//586 590//585
f 575//571 576//414 592//587 591//586
f 576//414 577//572 593//588 592//587
f 577//572 578//573 594//589 593//588
f 578//573 579//574 595//590 594//589
f 579//574 580//575 596//591 595//590
f 580//575 581//576 597//592 596//591
f 581//576 582//577 598//593 597//592
f 582//577 583//578 599//594 598//593
f 583//578 568//406 584//580 599//594
f 584//580 585//579 601//595 600//596
f 585//579 586//581 602//597 601//595
f 586//581 587//582 603//598 602//597
f 587//582 588//583 604//599 603//598
f 588//583 589//584 605//600 604//599
f 589//584 590//585 606//601 605//600
f 590//585 591//586 607//602 606//601
f 591//586 592//587 608//603 607//602
f 592//587 593//588 609//604 608//603
f 593//588 594//589 610//605 609//604
f 594//589 595//590 611//606 610//605
f 595//590 596//591 612//607 611//606
f 596//591 597//592 613//608 612//607
f 597//592 598//593 614//609 613//608
f 598//593 599//594 615//610 614//609
f 599//594 584//580 600//596 615//610
f 600//596 601//595 617//611 616//612
f 601//595 602//597 618//613 617//611
f 602//597 603//598 619//614 618//613
f 603//598 604//599 620//615 619//614
f 604//599 605//600 621//616 620//615
f 605//600 606//601 622//617 621//616
f 606//601 607//602 623//618 622//617
f 607//602 608//603 624//619 623//618
f 608//603 609//604 625//620 624//619
f 609//604 610//605 626//621 625//620
f 610//605 611//606 627//622 626//621
f 611//606 612//607 628//623 627//622
f 612//607 613//608 629//624 628//623
f 613//608 614//609 630//625 629//624
f 614//609 615//610 631//626 630//625
f 615//610 600//596 616//612 631//626
f 616//612 617//611 633//627 632//628
f 617//611 618//613 634//629 633//627
f 618//613 619//614 635//630 634//629
f 619//614 620//615 636//631 635//630
f 620//615 621//616 637//632 636//631
f 621//616 622//617 638//633 637//632
f 622//617 623//618 639//634 638//633
f 623//618 624//619 640//635 639//634
f 624//619 625//620 641//636 640//635
f 625//620 626//621 642//637 641//636
f 626//621 627//622 643//638 642//637
f 627//622 628//623 644//639 643//638
f 628//623 629//624 645//640 644//639
f 629//624 630//625 646//641 645//640
f 630//625 631//626 647//642 646//641
f 631//626 616//612 632//628 647//642
f 632//628 633//627 648//162
f 633//627 634//629 648//162
f 634//629 635//630 648//162
f 635//630 636//631 648//162
f 636//631 637//632 648//162
f 637//632 638//633 648//162
f 638//633 639//634 648//162
f 639//634 640//635 648//162
f 640//635 641//636 648//162
f 641//636 642//637 648//162
f 642//637 643//638 648//162
f 643//638 644//639 648//162
f 644//639 645//640 648//162
f 645//640 646//641 648//162
f 646//641 647//642 648//162
f 647//642 632//628 648//162
