# Blender 5.0.1
# www.blender.org
mtllib CashStack.mtl
o CashStack
v -1.247784 0.020000 0.475650 0.3725 0.7020 0.3529
v -1.248522 0.040000 0.495636 0.3725 0.7020 0.3529
v -1.267770 0.040000 0.474912 0.3725 0.7020 0.3529
v -1.248522 0.120000 0.495636 0.3725 0.7020 0.3529
v -1.247784 0.140000 0.475650 0.3725 0.7020 0.3529
v -1.267770 0.120000 0.474912 0.3725 0.7020 0.3529
v -1.206838 0.020000 -0.633595 0.3725 0.7020 0.3529
v -1.226825 0.040000 -0.634333 0.3725 0.7020 0.3529
v -1.206100 0.040000 -0.653581 0.3725 0.7020 0.3529
v -1.206838 0.140000 -0.633595 0.3725 0.7020 0.3529
v -1.206100 0.120000 -0.653581 0.3725 0.7020 0.3529
v -1.226825 0.120000 -0.634333 0.3725 0.7020 0.3529
v 1.110610 0.020000 0.562705 0.3725 0.7020 0.3529
v 1.130597 0.040000 0.563443 0.3725 0.7020 0.3529
v 1.109872 0.040000 0.582692 0.3725 0.7020 0.3529
v 1.110610 0.140000 0.562705 0.3725 0.7020 0.3529
v 1.109872 0.120000 0.582692 0.3725 0.7020 0.3529
v 1.130597 0.120000 0.563443 0.3725 0.7020 0.3529
v 1.151556 0.020000 -0.546539 0.3725 0.7020 0.3529
v 1.152293 0.040000 -0.566526 0.3725 0.7020 0.3529
v 1.171542 0.040000 -0.545802 0.3725 0.7020 0.3529
v 1.151556 0.140000 -0.546539 0.3725 0.7020 0.3529
v 1.171542 0.120000 -0.545802 0.3725 0.7020 0.3529
v 1.152293 0.120000 -0.566526 0.3725 0.7020 0.3529
v -1.211414 0.145000 0.440330 0.2471 0.5412 0.2392
v -1.213202 0.165000 0.460249 0.2471 0.5412 0.2392
v -1.231334 0.165000 0.438541 0.2471 0.5412 0.2392
v -1.213202 0.245000 0.460249 0.2471 0.5412 0.2392
v -1.211414 0.265000 0.440330 0.2471 0.5412 0.2392
v -1.231334 0.245000 0.438541 0.2471 0.5412 0.2392
v -1.112148 0.145000 -0.665223 0.2471 0.5412 0.2392
v -1.132067 0.165000 -0.667011 0.2471 0.5412 0.2392
v -1.110359 0.165000 -0.685143 0.2471 0.5412 0.2392
v -1.112148 0.265000 -0.665223 0.2471 0.5412 0.2392
v -1.110359 0.245000 -0.685143 0.2471 0.5412 0.2392
v -1.132067 0.245000 -0.667011 0.2471 0.5412 0.2392
v 1.139130 0.145000 0.651382 0.2471 0.5412 0.2392
v 1.159050 0.165000 0.653171 0.2471 0.5412 0.2392
v 1.137341 0.165000 0.671302 0.2471 0.5412 0.2392
v 1.139130 0.265000 0.651382 0.2471 0.5412 0.2392
v 1.137341 0.245000 0.671302 0.2471 0.5412 0.2392
v 1.159050 0.245000 0.653171 0.2471 0.5412 0.2392
v 1.238396 0.145000 -0.454170 0.2471 0.5412 0.2392
v 1.240185 0.165000 -0.474090 0.2471 0.5412 0.2392
v 1.258316 0.165000 -0.452382 0.2471 0.5412 0.2392
v 1.238396 0.265000 -0.454170 0.2471 0.5412 0.2392
v 1.258316 0.245000 -0.452382 0.2471 0.5412 0.2392
v 1.240185 0.245000 -0.474090 0.2471 0.5412 0.2392
v -1.217312 0.270000 0.469443 0.3725 0.7020 0.3529
v -1.219161 0.290000 0.489357 0.3725 0.7020 0.3529
v -1.237226 0.290000 0.467594 0.3725 0.7020 0.3529
v -1.219161 0.370000 0.489357 0.3725 0.7020 0.3529
v -1.217312 0.390000 0.469443 0.3725 0.7020 0.3529
v -1.237226 0.370000 0.467594 0.3725 0.7020 0.3529
v -1.114703 0.270000 -0.635804 0.3725 0.7020 0.3529
v -1.134618 0.290000 -0.637653 0.3725 0.7020 0.3529
v -1.112854 0.290000 -0.655719 0.3725 0.7020 0.3529
v -1.114703 0.390000 -0.635804 0.3725 0.7020 0.3529
v -1.112854 0.370000 -0.655719 0.3725 0.7020 0.3529
v -1.134618 0.370000 -0.637653 0.3725 0.7020 0.3529
v 1.132583 0.270000 0.687602 0.3725 0.7020 0.3529
v 1.152497 0.290000 0.689451 0.3725 0.7020 0.3529
v 1.130734 0.290000 0.707517 0.3725 0.7020 0.3529
v 1.132583 0.390000 0.687602 0.3725 0.7020 0.3529
v 1.130734 0.370000 0.707517 0.3725 0.7020 0.3529
v 1.152497 0.370000 0.689451 0.3725 0.7020 0.3529
v 1.235192 0.270000 -0.417645 0.3725 0.7020 0.3529
v 1.237041 0.290000 -0.437559 0.3725 0.7020 0.3529
v 1.255106 0.290000 -0.415796 0.3725 0.7020 0.3529
v 1.235192 0.390000 -0.417645 0.3725 0.7020 0.3529
v 1.255106 0.370000 -0.415796 0.3725 0.7020 0.3529
v 1.237041 0.370000 -0.437559 0.3725 0.7020 0.3529
v -1.248672 0.395000 0.559126 0.2471 0.5412 0.2392
v -1.248950 0.415000 0.579124 0.2471 0.5412 0.2392
v -1.268670 0.415000 0.558848 0.2471 0.5412 0.2392
v -1.248950 0.495000 0.579124 0.2471 0.5412 0.2392
v -1.248672 0.515000 0.559126 0.2471 0.5412 0.2392
v -1.268670 0.495000 0.558848 0.2471 0.5412 0.2392
v -1.233247 0.395000 -0.550767 0.2471 0.5412 0.2392
v -1.253244 0.415000 -0.551045 0.2471 0.5412 0.2392
v -1.232969 0.415000 -0.570765 0.2471 0.5412 0.2392
v -1.233246 0.515000 -0.550767 0.2471 0.5412 0.2392
v -1.232969 0.495000 -0.570765 0.2471 0.5412 0.2392
v -1.253244 0.495000 -0.551045 0.2471 0.5412 0.2392
v 1.111100 0.395000 0.591922 0.2471 0.5412 0.2392
v 1.131099 0.415000 0.592200 0.2471 0.5412 0.2392
v 1.110822 0.415000 0.611920 0.2471 0.5412 0.2392
v 1.111100 0.515000 0.591922 0.2471 0.5412 0.2392
v 1.110822 0.495000 0.611920 0.2471 0.5412 0.2392
v 1.131099 0.495000 0.592200 0.2471 0.5412 0.2392
v 1.126526 0.395000 -0.517971 0.2471 0.5412 0.2392
v 1.126804 0.415000 -0.537969 0.2471 0.5412 0.2392
v 1.146524 0.415000 -0.517693 0.2471 0.5412 0.2392
v 1.126526 0.515000 -0.517971 0.2471 0.5412 0.2392
v 1.146524 0.495000 -0.517693 0.2471 0.5412 0.2392
v 1.126804 0.495000 -0.537969 0.2471 0.5412 0.2392
v -1.128580 0.520000 0.553546 0.3725 0.7020 0.3529
v -1.128896 0.540000 0.573543 0.3725 0.7020 0.3529
v -1.148577 0.540000 0.553230 0.3725 0.7020 0.3529
v -1.128896 0.620000 0.573543 0.3725 0.7020 0.3529
v -1.128580 0.640000 0.553546 0.3725 0.7020 0.3529
v -1.148577 0.620000 0.553230 0.3725 0.7020 0.3529
v -1.111033 0.520000 -0.556316 0.3725 0.7020 0.3529
v -1.131030 0.540000 -0.556632 0.3725 0.7020 0.3529
v -1.110717 0.540000 -0.576313 0.3725 0.7020 0.3529
v -1.111033 0.640000 -0.556316 0.3725 0.7020 0.3529
v -1.110717 0.620000 -0.576313 0.3725 0.7020 0.3529
v -1.131030 0.620000 -0.556632 0.3725 0.7020 0.3529
v 1.231126 0.520000 0.590853 0.3725 0.7020 0.3529
v 1.251123 0.540000 0.591169 0.3725 0.7020 0.3529
v 1.230809 0.540000 0.610850 0.3725 0.7020 0.3529
v 1.231126 0.640000 0.590853 0.3725 0.7020 0.3529
v 1.230809 0.620000 0.610850 0.3725 0.7020 0.3529
v 1.251123 0.620000 0.591169 0.3725 0.7020 0.3529
v 1.248672 0.520000 -0.519009 0.3725 0.7020 0.3529
v 1.248989 0.540000 -0.539006 0.3725 0.7020 0.3529
v 1.268670 0.540000 -0.518693 0.3725 0.7020 0.3529
v 1.248672 0.640000 -0.519009 0.3725 0.7020 0.3529
v 1.268670 0.620000 -0.518693 0.3725 0.7020 0.3529
v 1.248989 0.620000 -0.539006 0.3725 0.7020 0.3529
v -1.182031 0.645000 0.420586 0.2471 0.5412 0.2392
v -1.183190 0.665000 0.440552 0.2471 0.5412 0.2392
v -1.201998 0.665000 0.419427 0.2471 0.5412 0.2392
v -1.183190 0.745000 0.440552 0.2471 0.5412 0.2392
v -1.182031 0.765000 0.420586 0.2471 0.5412 0.2392
v -1.201998 0.745000 0.419427 0.2471 0.5412 0.2392
v -1.117727 0.645000 -0.687550 0.2471 0.5412 0.2392
v -1.137693 0.665000 -0.688709 0.2471 0.5412 0.2392
v -1.116568 0.665000 -0.707517 0.2471 0.5412 0.2392
v -1.117727 0.765000 -0.687550 0.2471 0.5412 0.2392
v -1.116568 0.745000 -0.707517 0.2471 0.5412 0.2392
v -1.137693 0.745000 -0.688709 0.2471 0.5412 0.2392
v 1.174005 0.645000 0.557306 0.2471 0.5412 0.2392
v 1.193972 0.665000 0.558464 0.2471 0.5412 0.2392
v 1.172847 0.665000 0.577272 0.2471 0.5412 0.2392
v 1.174005 0.765000 0.557306 0.2471 0.5412 0.2392
v 1.172847 0.745000 0.577272 0.2471 0.5412 0.2392
v 1.193972 0.745000 0.558464 0.2471 0.5412 0.2392
v 1.238310 0.645000 -0.550830 0.2471 0.5412 0.2392
v 1.239469 0.665000 -0.570796 0.2471 0.5412 0.2392
v 1.258276 0.665000 -0.549671 0.2471 0.5412 0.2392
v 1.238310 0.765000 -0.550830 0.2471 0.5412 0.2392
v 1.258276 0.745000 -0.549671 0.2471 0.5412 0.2392
v 1.239469 0.745000 -0.570796 0.2471 0.5412 0.2392
v -1.179665 0.770000 0.506005 0.3725 0.7020 0.3529
v -1.179342 0.790000 0.526002 0.3725 0.7020 0.3529
v -1.199663 0.790000 0.506328 0.3725 0.7020 0.3529
v -1.179342 0.870000 0.526002 0.3725 0.7020 0.3529
v -1.179665 0.890000 0.506005 0.3725 0.7020 0.3529
v -1.199663 0.870000 0.506328 0.3725 0.7020 0.3529
v -1.197589 0.770000 -0.603850 0.3725 0.7020 0.3529
v -1.217587 0.790000 -0.603527 0.3725 0.7020 0.3529
v -1.197912 0.790000 -0.623848 0.3725 0.7020 0.3529
v -1.197589 0.890000 -0.603850 0.3725 0.7020 0.3529
v -1.197912 0.870000 -0.623848 0.3725 0.7020 0.3529
v -1.217587 0.870000 -0.603527 0.3725 0.7020 0.3529
v 1.180027 0.770000 0.467896 0.3725 0.7020 0.3529
v 1.200025 0.790000 0.467574 0.3725 0.7020 0.3529
v 1.180350 0.790000 0.487894 0.3725 0.7020 0.3529
v 1.180027 0.890000 0.467896 0.3725 0.7020 0.3529
v 1.180350 0.870000 0.487894 0.3725 0.7020 0.3529
v 1.200025 0.870000 0.467574 0.3725 0.7020 0.3529
v 1.162103 0.770000 -0.641959 0.3725 0.7020 0.3529
v 1.161780 0.790000 -0.661956 0.3725 0.7020 0.3529
v 1.182101 0.790000 -0.642282 0.3725 0.7020 0.3529
v 1.162103 0.890000 -0.641959 0.3725 0.7020 0.3529
v 1.182101 0.870000 -0.642282 0.3725 0.7020 0.3529
v 1.161780 0.870000 -0.661956 0.3725 0.7020 0.3529
v -1.067359 0.885000 0.400178 0.7686 0.9098 0.6589
v -1.067214 0.894000 0.409177 0.7686 0.9098 0.6589
v -1.076358 0.894000 0.400323 0.7686 0.9098 0.6589
v -1.067214 0.896000 0.409177 0.7686 0.9098 0.6589
v -1.067359 0.905000 0.400178 0.7686 0.9098 0.6589
v -1.076358 0.896000 0.400323 0.7686 0.9098 0.6589
v -1.081925 0.885000 -0.501705 0.7686 0.9098 0.6589
v -1.090924 0.894000 -0.501559 0.7686 0.9098 0.6589
v -1.082070 0.894000 -0.510703 0.7686 0.9098 0.6589
v -1.081925 0.905000 -0.501705 0.7686 0.9098 0.6589
v -1.082070 0.896000 -0.510703 0.7686 0.9098 0.6589
v -1.090924 0.896000 -0.501559 0.7686 0.9098 0.6589
v 1.064363 0.885000 0.365751 0.7686 0.9098 0.6589
v 1.073361 0.894000 0.365606 0.7686 0.9098 0.6589
v 1.064508 0.894000 0.374750 0.7686 0.9098 0.6589
v 1.064363 0.905000 0.365751 0.7686 0.9098 0.6589
v 1.064508 0.896000 0.374750 0.7686 0.9098 0.6589
v 1.073361 0.896000 0.365606 0.7686 0.9098 0.6589
v 1.049797 0.885000 -0.536132 0.7686 0.9098 0.6589
v 1.049652 0.894000 -0.545130 0.7686 0.9098 0.6589
v 1.058796 0.894000 -0.536277 0.7686 0.9098 0.6589
v 1.049797 0.905000 -0.536132 0.7686 0.9098 0.6589
v 1.058796 0.896000 -0.536277 0.7686 0.9098 0.6589
v 1.049652 0.896000 -0.545130 0.7686 0.9098 0.6589
v -0.013625 0.895000 -0.367938 0.2471 0.5412 0.2392
v -0.013625 0.925000 -0.367938 0.2471 0.5412 0.2392
v 0.102478 0.895000 -0.355128 0.2471 0.5412 0.2392
v 0.102478 0.925000 -0.355128 0.2471 0.5412 0.2392
v 0.207691 0.895000 -0.314210 0.2471 0.5412 0.2392
v 0.207691 0.925000 -0.314210 0.2471 0.5412 0.2392
v 0.291713 0.895000 -0.249188 0.2471 0.5412 0.2392
v 0.291713 0.925000 -0.249188 0.2471 0.5412 0.2392
v 0.346322 0.895000 -0.166429 0.2471 0.5412 0.2392
v 0.346322 0.925000 -0.166429 0.2471 0.5412 0.2392
v 0.366170 0.895000 -0.074032 0.2471 0.5412 0.2392
v 0.366170 0.925000 -0.074032 0.2471 0.5412 0.2392
v 0.349316 0.895000 0.018957 0.2471 0.5412 0.2392
v 0.349316 0.925000 0.018957 0.2471 0.5412 0.2392
v 0.297408 0.895000 0.103437 0.2471 0.5412 0.2392
v 0.297408 0.925000 0.103437 0.2471 0.5412 0.2392
v 0.215529 0.895000 0.171137 0.2471 0.5412 0.2392
v 0.215529 0.925000 0.171137 0.2471 0.5412 0.2392
v 0.111692 0.895000 0.215432 0.2471 0.5412 0.2392
v 0.111692 0.925000 0.215432 0.2471 0.5412 0.2392
v -0.003937 0.895000 0.231984 0.2471 0.5412 0.2392
v -0.003937 0.925000 0.231984 0.2471 0.5412 0.2392
v -0.120040 0.895000 0.219174 0.2471 0.5412 0.2392
v -0.120040 0.925000 0.219174 0.2471 0.5412 0.2392
v -0.225253 0.895000 0.178256 0.2471 0.5412 0.2392
v -0.225253 0.925000 0.178256 0.2471 0.5412 0.2392
v -0.309275 0.895000 0.113235 0.2471 0.5412 0.2392
v -0.309275 0.925000 0.113235 0.2471 0.5412 0.2392
v -0.363884 0.895000 0.030475 0.2471 0.5412 0.2392
v -0.363884 0.925000 0.030475 0.2471 0.5412 0.2392
v -0.383732 0.895000 -0.061922 0.2471 0.5412 0.2392
v -0.383732 0.925000 -0.061922 0.2471 0.5412 0.2392
v -0.366878 0.895000 -0.154911 0.2471 0.5412 0.2392
v -0.366878 0.925000 -0.154911 0.2471 0.5412 0.2392
v -0.314970 0.895000 -0.239391 0.2471 0.5412 0.2392
v -0.314970 0.925000 -0.239391 0.2471 0.5412 0.2392
v -0.233091 0.895000 -0.307091 0.2471 0.5412 0.2392
v -0.233091 0.925000 -0.307091 0.2471 0.5412 0.2392
v -0.129255 0.895000 -0.351385 0.2471 0.5412 0.2392
v -0.129255 0.925000 -0.351385 0.2471 0.5412 0.2392
v -0.012011 0.897500 -0.267951 0.7686 0.9098 0.6589
v -0.012011 0.932500 -0.267951 0.7686 0.9098 0.6589
v 0.083894 0.897500 -0.254274 0.7686 0.9098 0.6589
v 0.083894 0.932500 -0.254274 0.7686 0.9098 0.6589
v 0.165689 0.897500 -0.212234 0.7686 0.9098 0.6589
v 0.165689 0.932500 -0.212234 0.7686 0.9098 0.6589
v 0.220923 0.897500 -0.148233 0.7686 0.9098 0.6589
v 0.220923 0.932500 -0.148233 0.7686 0.9098 0.6589
v 0.241186 0.897500 -0.072014 0.7686 0.9098 0.6589
v 0.241186 0.932500 -0.072014 0.7686 0.9098 0.6589
v 0.223395 0.897500 0.004820 0.7686 0.9098 0.6589
v 0.223395 0.932500 0.004820 0.7686 0.9098 0.6589
v 0.170256 0.897500 0.070571 0.7686 0.9098 0.6589
v 0.170256 0.932500 0.070571 0.7686 0.9098 0.6589
v 0.089861 0.897500 0.115230 0.7686 0.9098 0.6589
v 0.089861 0.932500 0.115230 0.7686 0.9098 0.6589
v -0.005551 0.897500 0.131997 0.7686 0.9098 0.6589
v -0.005551 0.932500 0.131997 0.7686 0.9098 0.6589
v -0.101456 0.897500 0.118320 0.7686 0.9098 0.6589
v -0.101456 0.932500 0.118320 0.7686 0.9098 0.6589
v -0.183251 0.897500 0.076281 0.7686 0.9098 0.6589
v -0.183251 0.932500 0.076281 0.7686 0.9098 0.6589
v -0.238485 0.897500 0.012279 0.7686 0.9098 0.6589
v -0.238485 0.932500 0.012279 0.7686 0.9098 0.6589
v -0.258748 0.897500 -0.063940 0.7686 0.9098 0.6589
v -0.258748 0.932500 -0.063940 0.7686 0.9098 0.6589
v -0.240957 0.897500 -0.140774 0.7686 0.9098 0.6589
v -0.240957 0.932500 -0.140774 0.7686 0.9098 0.6589
v -0.187818 0.897500 -0.206525 0.7686 0.9098 0.6589
v -0.187818 0.932500 -0.206525 0.7686 0.9098 0.6589
v -0.107423 0.897500 -0.251184 0.7686 0.9098 0.6589
v -0.107423 0.932500 -0.251184 0.7686 0.9098 0.6589
v -0.860608 0.895000 -0.174236 0.2471 0.5412 0.2392
v -0.860608 0.925000 -0.174236 0.2471 0.5412 0.2392
v -0.800356 0.895000 -0.159130 0.2471 0.5412 0.2392
v -0.800356 0.925000 -0.159130 0.2471 0.5412 0.2392
v -0.755730 0.895000 -0.115922 0.2471 0.5412 0.2392
v -0.755730 0.925000 -0.115922 0.2471 0.5412 0.2392
v -0.738686 0.895000 -0.056189 0.2471 0.5412 0.2392
v -0.738686 0.925000 -0.056189 0.2471 0.5412 0.2392
v -0.753792 0.895000 0.004063 0.2471 0.5412 0.2392
v -0.753792 0.925000 0.004063 0.2471 0.5412 0.2392
v -0.797000 0.895000 0.048689 0.2471 0.5412 0.2392
v -0.797000 0.925000 0.048689 0.2471 0.5412 0.2392
v -0.856732 0.895000 0.065733 0.2471 0.5412 0.2392
v -0.856732 0.925000 0.065733 0.2471 0.5412 0.2392
v -0.916984 0.895000 0.050627 0.2471 0.5412 0.2392
v -0.916984 0.925000 0.050627 0.2471 0.5412 0.2392
v -0.961611 0.895000 0.007419 0.2471 0.5412 0.2392
v -0.961611 0.925000 0.007419 0.2471 0.5412 0.2392
v -0.978655 0.895000 -0.052314 0.2471 0.5412 0.2392
v -0.978655 0.925000 -0.052314 0.2471 0.5412 0.2392
v -0.963549 0.895000 -0.112565 0.2471 0.5412 0.2392
v -0.963549 0.925000 -0.112565 0.2471 0.5412 0.2392
v -0.920341 0.895000 -0.157192 0.2471 0.5412 0.2392
v -0.920341 0.925000 -0.157192 0.2471 0.5412 0.2392
v 0.839170 0.895000 -0.201687 0.2471 0.5412 0.2392
v 0.839170 0.925000 -0.201687 0.2471 0.5412 0.2392
v 0.899422 0.895000 -0.186581 0.2471 0.5412 0.2392
v 0.899422 0.925000 -0.186581 0.2471 0.5412 0.2392
v 0.944049 0.895000 -0.143373 0.2471 0.5412 0.2392
v 0.944049 0.925000 -0.143373 0.2471 0.5412 0.2392
v 0.961093 0.895000 -0.083640 0.2471 0.5412 0.2392
v 0.961093 0.925000 -0.083640 0.2471 0.5412 0.2392
v 0.945987 0.895000 -0.023388 0.2471 0.5412 0.2392
v 0.945987 0.925000 -0.023388 0.2471 0.5412 0.2392
v 0.902779 0.895000 0.021238 0.2471 0.5412 0.2392
v 0.902779 0.925000 0.021238 0.2471 0.5412 0.2392
v 0.843046 0.895000 0.038282 0.2471 0.5412 0.2392
v 0.843046 0.925000 0.038282 0.2471 0.5412 0.2392
v 0.782794 0.895000 0.023176 0.2471 0.5412 0.2392
v 0.782794 0.925000 0.023176 0.2471 0.5412 0.2392
v 0.738168 0.895000 -0.020032 0.2471 0.5412 0.2392
v 0.738168 0.925000 -0.020032 0.2471 0.5412 0.2392
v 0.721124 0.895000 -0.079765 0.2471 0.5412 0.2392
v 0.721124 0.925000 -0.079765 0.2471 0.5412 0.2392
v 0.736230 0.895000 -0.140016 0.2471 0.5412 0.2392
v 0.736230 0.925000 -0.140016 0.2471 0.5412 0.2392
v 0.779438 0.895000 -0.184643 0.2471 0.5412 0.2392
v 0.779438 0.925000 -0.184643 0.2471 0.5412 0.2392
v -0.212250 0.000000 0.569649 0.9490 0.7608 0.1882
v -0.212250 0.030000 0.599649 0.9490 0.7608 0.1882
v -0.242250 0.030000 0.569649 0.9490 0.7608 0.1882
v -0.212250 0.890000 0.599649 0.9490 0.7608 0.1882
v -0.212250 0.920000 0.569649 0.9490 0.7608 0.1882
v -0.242250 0.890000 0.569649 0.9490 0.7608 0.1882
v -0.212250 0.000000 -0.610351 0.9490 0.7608 0.1882
v -0.242250 0.030000 -0.610351 0.9490 0.7608 0.1882
v -0.212250 0.030000 -0.640351 0.9490 0.7608 0.1882
v -0.212250 0.920000 -0.610351 0.9490 0.7608 0.1882
v -0.212250 0.890000 -0.640351 0.9490 0.7608 0.1882
v -0.242250 0.890000 -0.610351 0.9490 0.7608 0.1882
v 0.227750 0.000000 0.569649 0.9490 0.7608 0.1882
v 0.257750 0.030000 0.569649 0.9490 0.7608 0.1882
v 0.227750 0.030000 0.599649 0.9490 0.7608 0.1882
v 0.227750 0.920000 0.569649 0.9490 0.7608 0.1882
v 0.227750 0.890000 0.599649 0.9490 0.7608 0.1882
v 0.257750 0.890000 0.569649 0.9490 0.7608 0.1882
v 0.227750 0.000000 -0.610351 0.9490 0.7608 0.1882
v 0.227750 0.030000 -0.640351 0.9490 0.7608 0.1882
v 0.257750 0.030000 -0.610351 0.9490 0.7608 0.1882
v 0.227750 0.920000 -0.610351 0.9490 0.7608 0.1882
v 0.257750 0.890000 -0.610351 0.9490 0.7608 0.1882
v 0.227750 0.890000 -0.640351 0.9490 0.7608 0.1882
v -0.242250 0.335000 0.629649 0.8470 0.2275 0.1804
v -0.242250 0.345000 0.639649 0.8470 0.2275 0.1804
v -0.252250 0.345000 0.629649 0.8470 0.2275 0.1804
v -0.242250 0.575000 0.639649 0.8470 0.2275 0.1804
v -0.242250 0.585000 0.629649 0.8470 0.2275 0.1804
v -0.252250 0.575000 0.629649 0.8470 0.2275 0.1804
v -0.242250 0.335000 0.589649 0.8470 0.2275 0.1804
v -0.252250 0.345000 0.589649 0.8470 0.2275 0.1804
v -0.242250 0.345000 0.579649 0.8470 0.2275 0.1804
v -0.242250 0.585000 0.589649 0.8470 0.2275 0.1804
v -0.242250 0.575000 0.579649 0.8470 0.2275 0.1804
v -0.252250 0.575000 0.589649 0.8470 0.2275 0.1804
v 0.257750 0.335000 0.629649 0.8470 0.2275 0.1804
v 0.267750 0.345000 0.629649 0.8470 0.2275 0.1804
v 0.257750 0.345000 0.639649 0.8470 0.2275 0.1804
v 0.257750 0.585000 0.629649 0.8470 0.2275 0.1804
v 0.257750 0.575000 0.639649 0.8470 0.2275 0.1804
v 0.267750 0.575000 0.629649 0.8470 0.2275 0.1804
v 0.257750 0.335000 0.589649 0.8470 0.2275 0.1804
v 0.257750 0.345000 0.579649 0.8470 0.2275 0.1804
v 0.267750 0.345000 0.589649 0.8470 0.2275 0.1804
v 0.257750 0.585000 0.589649 0.8470 0.2275 0.1804
v 0.267750 0.575000 0.589649 0.8470 0.2275 0.1804
v 0.257750 0.575000 0.579649 0.8470 0.2275 0.1804
vn -0.4772 -0.7588 0.4433
vn -0.4882 -0.4606 0.7413
vn -0.7753 -0.4606 0.4323
vn -0.4882 0.4606 0.7413
vn -0.4772 0.7588 0.4433
vn -0.7753 0.4606 0.4323
vn -0.4433 -0.7588 -0.4772
vn -0.7413 -0.4606 -0.4882
vn -0.4323 -0.4606 -0.7753
vn -0.4433 0.7588 -0.4772
vn -0.4323 0.4606 -0.7753
vn -0.7413 0.4606 -0.4882
vn 0.4433 -0.7588 0.4772
vn 0.7413 -0.4606 0.4882
vn 0.4323 -0.4606 0.7753
vn 0.4433 0.7588 0.4772
vn 0.4323 0.4606 0.7753
vn 0.7413 0.4606 0.4882
vn 0.4772 -0.7588 -0.4433
vn 0.4882 -0.4606 -0.7413
vn 0.7753 -0.4606 -0.4323
vn 0.4772 0.7588 -0.4433
vn 0.7753 0.4606 -0.4323
vn 0.4882 0.4606 -0.7413
vn -0.0000 -1.0000 -0.0000
vn -0.9993 -0.0000 -0.0369
vn -0.0369 -0.0000 0.9993
vn -0.0000 1.0000 -0.0000
vn 0.0369 -0.0000 -0.9993
vn 0.9993 -0.0000 0.0369
vn -0.4999 -0.7588 0.4175
vn -0.5266 -0.4606 0.7146
vn -0.7969 -0.4606 0.3909
vn -0.5266 0.4606 0.7146
vn -0.4999 0.7588 0.4175
vn -0.7969 0.4606 0.3909
vn -0.4175 -0.7588 -0.4999
vn -0.7146 -0.4606 -0.5266
vn -0.3909 -0.4606 -0.7969
vn -0.4175 0.7588 -0.4999
vn -0.3909 0.4606 -0.7969
vn -0.7146 0.4606 -0.5266
vn 0.4175 -0.7588 0.4999
vn 0.7146 -0.4606 0.5266
vn 0.3909 -0.4606 0.7969
vn 0.4175 0.7588 0.4999
vn 0.3909 0.4606 0.7969
vn 0.7146 0.4606 0.5266
vn 0.4999 -0.7588 -0.4175
vn 0.5266 -0.4606 -0.7146
vn 0.7969 -0.4606 -0.3909
vn 0.4999 0.7588 -0.4175
vn 0.7969 0.4606 -0.3909
vn 0.5266 0.4606 -0.7146
vn -0.9960 -0.0000 -0.0894
vn -0.0894 -0.0000 0.9960
vn 0.0894 -0.0000 -0.9960
vn 0.9960 -0.0000 0.0894
vn -0.5012 -0.7588 0.4160
vn -0.5287 -0.4606 0.7130
vn -0.7981 -0.4606 0.3884
vn -0.5287 0.4606 0.7130
vn -0.5012 0.7588 0.4160
vn -0.7981 0.4606 0.3884
vn -0.4160 -0.7588 -0.5012
vn -0.7130 -0.4606 -0.5287
vn -0.3884 -0.4606 -0.7981
vn -0.4160 0.7588 -0.5012
vn -0.3884 0.4606 -0.7981
vn -0.7130 0.4606 -0.5287
vn 0.4160 -0.7588 0.5012
vn 0.7130 -0.4606 0.5287
vn 0.3884 -0.4606 0.7981
vn 0.4160 0.7588 0.5012
vn 0.3884 0.4606 0.7981
vn 0.7130 0.4606 0.5287
vn 0.5012 -0.7588 -0.4160
vn 0.5287 -0.4606 -0.7130
vn 0.7981 -0.4606 -0.3884
vn 0.5012 0.7588 -0.4160
vn 0.7981 0.4606 -0.3884
vn 0.5287 0.4606 -0.7130
vn -0.9957 -0.0000 -0.0924
vn -0.0924 -0.0000 0.9957
vn 0.0924 -0.0000 -0.9957
vn 0.9957 -0.0000 0.0924
vn -0.4669 -0.7588 0.4541
vn -0.4711 -0.4606 0.7523
vn -0.7651 -0.4606 0.4500
vn -0.4711 0.4606 0.7523
vn -0.4669 0.7588 0.4541
vn -0.7651 0.4606 0.4500
vn -0.4541 -0.7588 -0.4669
vn -0.7523 -0.4606 -0.4711
vn -0.4500 -0.4606 -0.7651
vn -0.4541 0.7588 -0.4669
vn -0.4500 0.4606 -0.7651
vn -0.7523 0.4606 -0.4711
vn 0.4541 -0.7588 0.4669
vn 0.7523 -0.4606 0.4711
vn 0.4500 -0.4606 0.7651
vn 0.4541 0.7588 0.4669
vn 0.4500 0.4606 0.7651
vn 0.7523 0.4606 0.4711
vn 0.4669 -0.7588 -0.4541
vn 0.4711 -0.4606 -0.7523
vn 0.7651 -0.4606 -0.4500
vn 0.4669 0.7588 -0.4541
vn 0.7651 0.4606 -0.4500
vn 0.4711 0.4606 -0.7523
vn -0.9999 -0.0000 -0.0139
vn -0.0139 -0.0000 0.9999
vn 0.0139 -0.0000 -0.9999
vn 0.9999 -0.0000 0.0139
vn -0.4678 -0.7588 0.4532
vn -0.4725 -0.4606 0.7514
vn -0.7660 -0.4606 0.4485
vn -0.4725 0.4606 0.7514
vn -0.4678 0.7588 0.4532
vn -0.7660 0.4606 0.4485
vn -0.4532 -0.7588 -0.4678
vn -0.7514 -0.4606 -0.4725
vn -0.4485 -0.4606 -0.7660
vn -0.4532 0.7588 -0.4678
vn -0.4485 0.4606 -0.7660
vn -0.7514 0.4606 -0.4725
vn 0.4532 -0.7588 0.4678
vn 0.7514 -0.4606 0.4725
vn 0.4485 -0.4606 0.7660
vn 0.4532 0.7588 0.4678
vn 0.4485 0.4606 0.7660
vn 0.7514 0.4606 0.4725
vn 0.4678 -0.7588 -0.4532
vn 0.4725 -0.4606 -0.7514
vn 0.7660 -0.4606 -0.4485
vn 0.4678 0.7588 -0.4532
vn 0.7660 0.4606 -0.4485
vn 0.4725 0.4606 -0.7514
vn -0.9999 -0.0000 -0.0158
vn -0.0158 -0.0000 0.9999
vn 0.0158 -0.0000 -0.9999
vn 0.9999 -0.0000 0.0158
vn -0.4865 -0.7588 0.4331
vn -0.5037 -0.4606 0.7308
vn -0.7842 -0.4606 0.4158
vn -0.5037 0.4606 0.7308
vn -0.4865 0.7588 0.4331
vn -0.7842 0.4606 0.4158
vn -0.4331 -0.7588 -0.4865
vn -0.7308 -0.4606 -0.5037
vn -0.4158 -0.4606 -0.7842
vn -0.4331 0.7588 -0.4865
vn -0.4158 0.4606 -0.7842
vn -0.7308 0.4606 -0.5037
vn 0.4331 -0.7588 0.4865
vn 0.7308 -0.4606 0.5037
vn 0.4158 -0.4606 0.7842
vn 0.4331 0.7588 0.4865
vn 0.4158 0.4606 0.7842
vn 0.7308 0.4606 0.5037
vn 0.4865 -0.7588 -0.4331
vn 0.5037 -0.4606 -0.7308
vn 0.7842 -0.4606 -0.4158
vn 0.4865 0.7588 -0.4331
vn 0.7842 0.4606 -0.4158
vn 0.5037 0.4606 -0.7308
vn -0.9983 -0.0000 -0.0579
vn -0.0579 -0.0000 0.9983
vn 0.0579 -0.0000 -0.9983
vn 0.9983 -0.0000 0.0579
vn -0.4531 -0.7588 0.4679
vn -0.4482 -0.4606 0.7661
vn -0.7513 -0.4606 0.4728
vn -0.4482 0.4606 0.7661
vn -0.4531 0.7588 0.4679
vn -0.7513 0.4606 0.4728
vn -0.4679 -0.7588 -0.4531
vn -0.7661 -0.4606 -0.4483
vn -0.4728 -0.4606 -0.7513
vn -0.4679 0.7588 -0.4531
vn -0.4728 0.4606 -0.7513
vn -0.7661 0.4606 -0.4483
vn 0.4679 -0.7588 0.4531
vn 0.7661 -0.4606 0.4482
vn 0.4728 -0.4606 0.7513
vn 0.4679 0.7588 0.4531
vn 0.4728 0.4606 0.7513
vn 0.7661 0.4606 0.4482
vn 0.4531 -0.7588 -0.4679
vn 0.4483 -0.4606 -0.7661
vn 0.7513 -0.4606 -0.4728
vn 0.4531 0.7588 -0.4679
vn 0.7513 0.4606 -0.4728
vn 0.4483 0.4606 -0.7661
vn -0.9999 -0.0000 0.0161
vn 0.0161 -0.0000 0.9999
vn -0.0161 -0.0000 -0.9999
vn 0.9999 -0.0000 -0.0161
vn -0.4727 -0.4606 -0.7513
vn -0.4727 0.4606 -0.7513
vn 0.7661 0.4606 0.4483
vn 0.7513 -0.4606 -0.4727
vn 0.7513 0.4606 -0.4727
vn 0.2381 -0.0000 -0.9712
vn 0.4923 -0.0000 -0.8704
vn 0.7332 -0.0000 -0.6800
vn 0.9221 -0.0000 -0.3871
vn 0.9341 -0.0000 0.3571
vn 0.7548 -0.0000 0.6559
vn 0.5202 -0.0000 0.8541
vn 0.2693 -0.0000 0.9630
vn -0.2381 -0.0000 0.9712
vn -0.4923 -0.0000 0.8704
vn -0.7332 -0.0000 0.6800
vn -0.9221 -0.0000 0.3871
vn -0.9341 -0.0000 -0.3571
vn -0.7548 -0.0000 -0.6559
vn -0.5202 -0.0000 -0.8541
vn -0.2693 -0.0000 -0.9630
vn 0.3033 -0.0000 -0.9529
vn 0.6185 -0.0000 -0.7858
vn 0.8842 -0.0000 -0.4670
vn 0.8989 -0.0000 0.4382
vn 0.6435 -0.0000 0.7654
vn 0.3340 -0.0000 0.9426
vn -0.3033 -0.0000 0.9529
vn -0.6185 -0.0000 0.7858
vn -0.8842 -0.0000 0.4670
vn -0.8989 -0.0000 -0.4382
vn -0.6435 -0.0000 -0.7654
vn -0.3340 -0.0000 -0.9426
vn 0.4860 -0.0000 -0.8740
vn 0.8578 -0.0000 -0.5139
vn 0.8740 -0.0000 0.4860
vn 0.5139 -0.0000 0.8578
vn -0.4860 -0.0000 0.8740
vn -0.8578 -0.0000 0.5139
vn -0.8740 -0.0000 -0.4860
vn -0.5139 -0.0000 -0.8578
vn -0.4606 -0.7588 0.4606
vn -0.4606 -0.4606 0.7588
vn -0.7588 -0.4606 0.4606
vn -0.4606 0.4606 0.7588
vn -0.4606 0.7588 0.4606
vn -0.7588 0.4606 0.4606
vn -0.4606 -0.7588 -0.4606
vn -0.7588 -0.4606 -0.4606
vn -0.4606 -0.4606 -0.7588
vn -0.4606 0.7588 -0.4606
vn -0.4606 0.4606 -0.7588
vn -0.7588 0.4606 -0.4606
vn 0.4606 -0.7588 0.4606
vn 0.7588 -0.4606 0.4606
vn 0.4606 -0.4606 0.7588
vn 0.4606 0.7588 0.4606
vn 0.4606 0.4606 0.7588
vn 0.7588 0.4606 0.4606
vn 0.4606 -0.7588 -0.4606
vn 0.4606 -0.4606 -0.7588
vn 0.7588 -0.4606 -0.4606
vn 0.4606 0.7588 -0.4606
vn 0.7588 0.4606 -0.4606
vn 0.4606 0.4606 -0.7588
vn -1.0000 -0.0000 -0.0000
vn -0.0000 -0.0000 1.0000
vn -0.0000 -0.0000 -1.0000
vn 1.0000 -0.0000 -0.0000
s 1
usemtl money
f 1//1 2//2 3//3
f 4//4 5//5 6//6
f 7//7 8//8 9//9
f 10//10 11//11 12//12
f 13//13 14//14 15//15
f 16//16 17//17 18//18
f 19//19 20//20 21//21
f 22//22 23//23 24//24
f 7//7 1//1 3//3 8//8
f 2//2 4//4 6//6 3//3
f 5//5 10//10 12//12 6//6
f 11//11 9//9 8//8 12//12
f 19//19 7//7 9//9 20//20
f 10//10 22//22 24//24 11//11
f 23//23 21//21 20//20 24//24
f 13//13 19//19 21//21 14//14
f 22//22 16//16 18//18 23//23
f 17//17 15//15 14//14 18//18
f 1//1 13//13 15//15 2//2
f 16//16 5//5 4//4 17//17
f 7//25 19//25 13//25 1//25
f 3//26 6//26 12//26 8//26
f 15//27 17//27 4//27 2//27
f 22//28 10//28 5//28 16//28
f 9//29 11//29 24//29 20//29
f 21//30 23//30 18//30 14//30
f 49//59 50//60 51//61
f 52//62 53//63 54//64
f 55//65 56//66 57//67
f 58//68 59//69 60//70
f 61//71 62//72 63//73
f 64//74 65//75 66//76
f 67//77 68//78 69//79
f 70//80 71//81 72//82
f 55//65 49//59 51//61 56//66
f 50//60 52//62 54//64 51//61
f 53//63 58//68 60//70 54//64
f 59//69 57//67 56//66 60//70
f 67//77 55//65 57//67 68//78
f 58//68 70//80 72//82 59//69
f 71//81 69//79 68//78 72//82
f 61//71 67//77 69//79 62//72
f 70//80 64//74 66//76 71//81
f 65//75 63//73 62//72 66//76
f 49//59 61//71 63//73 50//60
f 64//74 53//63 52//62 65//75
f 55//25 67//25 61//25 49//25
f 51//83 54//83 60//83 56//83
f 63//84 65//84 52//84 50//84
f 70//28 58//28 53//28 64//28
f 57//85 59//85 72//85 68//85
f 69//86 71//86 66//86 62//86
f 97//115 98//116 99//117
f 100//118 101//119 102//120
f 103//121 104//122 105//123
f 106//124 107//125 108//126
f 109//127 110//128 111//129
f 112//130 113//131 114//132
f 115//133 116//134 117//135
f 118//136 119//137 120//138
f 103//121 97//115 99//117 104//122
f 98//116 100//118 102//120 99//117
f 101//119 106//124 108//126 102//120
f 107//125 105//123 104//122 108//126
f 115//133 103//121 105//123 116//134
f 106//124 118//136 120//138 107//125
f 119//137 117//135 116//134 120//138
f 109//127 115//133 117//135 110//128
f 118//136 112//130 114//132 119//137
f 113//131 111//129 110//128 114//132
f 97//115 109//127 111//129 98//116
f 112//130 101//119 100//118 113//131
f 103//25 115//25 109//25 97//25
f 99//139 102//139 108//139 104//139
f 111//140 113//140 100//140 98//140
f 118//28 106//28 101//28 112//28
f 105//141 107//141 120//141 116//141
f 117//142 119//142 114//142 110//142
f 145//171 146//172 147//173
f 148//174 149//175 150//176
f 151//177 152//178 153//179
f 154//180 155//181 156//182
f 157//183 158//184 159//185
f 160//186 161//187 162//188
f 163//189 164//190 165//191
f 166//192 167//193 168//194
f 151//177 145//171 147//173 152//178
f 146//172 148//174 150//176 147//173
f 149//175 154//180 156//182 150//176
f 155//181 153//179 152//178 156//182
f 163//189 151//177 153//179 164//190
f 154//180 166//192 168//194 155//181
f 167//193 165//191 164//190 168//194
f 157//183 163//189 165//191 158//184
f 166//192 160//186 162//188 167//193
f 161//187 159//185 158//184 162//188
f 145//171 157//183 159//185 146//172
f 160//186 149//175 148//174 161//187
f 151//25 163//25 157//25 145//25
f 147//195 150//195 156//195 152//195
f 159//196 161//196 148//196 146//196
f 166//28 154//28 149//28 160//28
f 153//197 155//197 168//197 164//197
f 165//198 167//198 162//198 158//198
usemtl money_dark
f 25//31 26//32 27//33
f 28//34 29//35 30//36
f 31//37 32//38 33//39
f 34//40 35//41 36//42
f 37//43 38//44 39//45
f 40//46 41//47 42//48
f 43//49 44//50 45//51
f 46//52 47//53 48//54
f 31//37 25//31 27//33 32//38
f 26//32 28//34 30//36 27//33
f 29//35 34//40 36//42 30//36
f 35//41 33//39 32//38 36//42
f 43//49 31//37 33//39 44//50
f 34//40 46//52 48//54 35//41
f 47//53 45//51 44//50 48//54
f 37//43 43//49 45//51 38//44
f 46//52 40//46 42//48 47//53
f 41//47 39//45 38//44 42//48
f 25//31 37//43 39//45 26//32
f 40//46 29//35 28//34 41//47
f 31//25 43//25 37//25 25//25
f 27//55 30//55 36//55 32//55
f 39//56 41//56 28//56 26//56
f 46//28 34//28 29//28 40//28
f 33//57 35//57 48//57 44//57
f 45//58 47//58 42//58 38//58
f 73//87 74//88 75//89
f 76//90 77//91 78//92
f 79//93 80//94 81//95
f 82//96 83//97 84//98
f 85//99 86//100 87//101
f 88//102 89//103 90//104
f 91//105 92//106 93//107
f 94//108 95//109 96//110
f 79//93 73//87 75//89 80//94
f 74//88 76//90 78//92 75//89
f 77//91 82//96 84//98 78//92
f 83//97 81//95 80//94 84//98
f 91//105 79//93 81//95 92//106
f 82//96 94//108 96//110 83//97
f 95//109 93//107 92//106 96//110
f 85//99 91//105 93//107 86//100
f 94//108 88//102 90//104 95//109
f 89//103 87//101 86//100 90//104
f 73//87 85//99 87//101 74//88
f 88//102 77//91 76//90 89//103
f 79//25 91//25 85//25 73//25
f 75//111 78//111 84//111 80//111
f 87//112 89//112 76//112 74//112
f 94//28 82//28 77//28 88//28
f 81//113 83//113 96//113 92//113
f 93//114 95//114 90//114 86//114
f 121//143 122//144 123//145
f 124//146 125//147 126//148
f 127//149 128//150 129//151
f 130//152 131//153 132//154
f 133//155 134//156 135//157
f 136//158 137//159 138//160
f 139//161 140//162 141//163
f 142//164 143//165 144//166
f 127//149 121//143 123//145 128//150
f 122//144 124//146 126//148 123//145
f 125//147 130//152 132//154 126//148
f 131//153 129//151 128//150 132//154
f 139//161 127//149 129//151 140//162
f 130//152 142//164 144//166 131//153
f 143//165 141//163 140//162 144//166
f 133//155 139//161 141//163 134//156
f 142//164 136//158 138//160 143//165
f 137//159 135//157 134//156 138//160
f 121//143 133//155 135//157 122//144
f 136//158 125//147 124//146 137//159
f 127//25 139//25 133//25 121//25
f 123//167 126//167 132//167 128//167
f 135//168 137//168 124//168 122//168
f 142//28 130//28 125//28 136//28
f 129//169 131//169 144//169 140//169
f 141//170 143//170 138//170 134//170
f 193//197 194//197 196//204 195//204
f 195//204 196//204 198//205 197//205
f 197//205 198//205 200//206 199//206
f 199//206 200//206 202//207 201//207
f 201//207 202//207 204//198 203//198
f 203//198 204//198 206//208 205//208
f 205//208 206//208 208//209 207//209
f 207//209 208//209 210//210 209//210
f 209//210 210//210 212//211 211//211
f 211//211 212//211 214//196 213//196
f 213//196 214//196 216//212 215//212
f 215//212 216//212 218//213 217//213
f 217//213 218//213 220//214 219//214
f 219//214 220//214 222//215 221//215
f 221//215 222//215 224//195 223//195
f 223//195 224//195 226//216 225//216
f 225//216 226//216 228//217 227//217
f 227//217 228//217 230//218 229//218
f 196//28 194//28 232//28 230//28 228//28 226//28 224//28 222//28 220//28 218//28 216//28 214//28 212//28 210//28 208//28 206//28 204//28 202//28 200//28 198//28
f 229//218 230//218 232//219 231//219
f 231//219 232//219 194//197 193//197
f 193//25 195//25 197//25 199//25 201//25 203//25 205//25 207//25 209//25 211//25 213//25 215//25 217//25 219//25 221//25 223//25 225//25 227//25 229//25 231//25
f 265//197 266//197 268//232 267//232
f 267//232 268//232 270//233 269//233
f 269//233 270//233 272//198 271//198
f 271//198 272//198 274//234 273//234
f 273//234 274//234 276//235 275//235
f 275//235 276//235 278//196 277//196
f 277//196 278//196 280//236 279//236
f 279//236 280//236 282//237 281//237
f 281//237 282//237 284//195 283//195
f 283//195 284//195 286//238 285//238
f 268//28 266//28 288//28 286//28 284//28 282//28 280//28 278//28 276//28 274//28 272//28 270//28
f 285//238 286//238 288//239 287//239
f 287//239 288//239 266//197 265//197
f 265//25 267//25 269//25 271//25 273//25 275//25 277//25 279//25 281//25 283//25 285//25 287//25
f 289//197 290//197 292//232 291//232
f 291//232 292//232 294//233 293//233
f 293//233 294//233 296//198 295//198
f 295//198 296//198 298//234 297//234
f 297//234 298//234 300//235 299//235
f 299//235 300//235 302//196 301//196
f 301//196 302//196 304//236 303//236
f 303//236 304//236 306//237 305//237
f 305//237 306//237 308//195 307//195
f 307//195 308//195 310//238 309//238
f 292//28 290//28 312//28 310//28 308//28 306//28 304//28 302//28 300//28 298//28 296//28 294//28
f 309//238 310//238 312//239 311//239
f 311//239 312//239 290//197 289//197
f 289//25 291//25 293//25 295//25 297//25 299//25 301//25 303//25 305//25 307//25 309//25 311//25
usemtl money_light
f 169//171 170//172 171//173
f 172//174 173//175 174//176
f 175//177 176//178 177//199
f 178//180 179//200 180//182
f 181//183 182//184 183//185
f 184//186 185//187 186//201
f 187//189 188//190 189//202
f 190//192 191//203 192//194
f 175//177 169//171 171//173 176//178
f 170//172 172//174 174//176 171//173
f 173//175 178//180 180//182 174//176
f 179//200 177//199 176//178 180//182
f 187//189 175//177 177//199 188//190
f 178//180 190//192 192//194 179//200
f 191//203 189//202 188//190 192//194
f 181//183 187//189 189//202 182//184
f 190//192 184//186 186//201 191//203
f 185//187 183//185 182//184 186//201
f 169//171 181//183 183//185 170//172
f 184//186 173//175 172//174 185//187
f 175//25 187//25 181//25 169//25
f 171//195 174//195 180//195 176//195
f 183//196 185//196 172//196 170//196
f 190//28 178//28 173//28 184//28
f 177//197 179//197 192//197 188//197
f 189//198 191//198 186//198 182//198
f 233//197 234//197 236//220 235//220
f 235//220 236//220 238//221 237//221
f 237//221 238//221 240//222 239//222
f 239//222 240//222 242//198 241//198
f 241//198 242//198 244//223 243//223
f 243//223 244//223 246//224 245//224
f 245//224 246//224 248//225 247//225
f 247//225 248//225 250//196 249//196
f 249//196 250//196 252//226 251//226
f 251//226 252//226 254//227 253//227
f 253//227 254//227 256//228 255//228
f 255//228 256//228 258//195 257//195
f 257//195 258//195 260//229 259//229
f 259//229 260//229 262//230 261//230
f 236//28 234//28 264//28 262//28 260//28 258//28 256//28 254//28 252//28 250//28 248//28 246//28 244//28 242//28 240//28 238//28
f 261//230 262//230 264//231 263//231
f 263//231 264//231 234//197 233//197
f 233//25 235//25 237//25 239//25 241//25 243//25 245//25 247//25 249//25 251//25 253//25 255//25 257//25 259//25 261//25 263//25
usemtl mustard
f 313//240 314//241 315//242
f 316//243 317//244 318//245
f 319//246 320//247 321//248
f 322//249 323//250 324//251
f 325//252 326//253 327//254
f 328//255 329//256 330//257
f 331//258 332//259 333//260
f 334//261 335//262 336//263
f 319//246 313//240 315//242 320//247
f 314//241 316//243 318//245 315//242
f 317//244 322//249 324//251 318//245
f 323//250 321//248 320//247 324//251
f 331//258 319//246 321//248 332//259
f 322//249 334//261 336//263 323//250
f 335//262 333//260 332//259 336//263
f 325//252 331//258 333//260 326//253
f 334//261 328//255 330//257 335//262
f 329//256 327//254 326//253 330//257
f 313//240 325//252 327//254 314//241
f 328//255 317//244 316//243 329//256
f 319//25 331//25 325//25 313//25
f 315//264 318//264 324//264 320//264
f 327//265 329//265 316//265 314//265
f 334//28 322//28 317//28 328//28
f 321//266 323//266 336//266 332//266
f 333//267 335//267 330//267 326//267
usemtl ketchup
f 337//240 338//241 339//242
f 340//243 341//244 342//245
f 343//246 344//247 345//248
f 346//249 347//250 348//251
f 349//252 350//253 351//254
f 352//255 353//256 354//257
f 355//258 356//259 357//260
f 358//261 359//262 360//263
f 343//246 337//240 339//242 344//247
f 338//241 340//243 342//245 339//242
f 341//244 346//249 348//251 342//245
f 347//250 345//248 344//247 348//251
f 355//258 343//246 345//248 356//259
f 346//249 358//261 360//263 347//250
f 359//262 357//260 356//259 360//263
f 349//252 355//258 357//260 350//253
f 358//261 352//255 354//257 359//262
f 353//256 351//254 350//253 354//257
f 337//240 349//252 351//254 338//241
f 352//255 341//244 340//243 353//256
f 343//25 355//25 349//25 337//25
f 339//264 342//264 348//264 344//264
f 351//265 353//265 340//265 338//265
f 358//28 346//28 341//28 352//28
f 345//266 347//266 360//266 356//266
f 357//267 359//267 354//267 350//267
