# Blender 5.0.1
# www.blender.org
mtllib Clipboard.mtl
o Clipboard
v -0.937000 0.002431 0.233433 0.7882 0.5412 0.2941
v -0.937000 0.075414 0.284536 0.7882 0.5412 0.2941
v -1.000000 0.064474 0.222494 0.7882 0.5412 0.2941
v -0.937000 0.028339 0.274100 0.7882 0.5412 0.2941
v -0.973373 0.034970 0.264630 0.7882 0.5412 0.2941
v -0.981548 0.072210 0.266365 0.7882 0.5412 0.2941
v -0.981548 0.020603 0.230229 0.7882 0.5412 0.2941
v -0.937000 2.511828 -0.145069 0.7882 0.5412 0.2941
v -0.937000 2.562931 -0.218052 0.7882 0.5412 0.2941
v -1.000000 2.500888 -0.207112 0.7882 0.5412 0.2941
v -0.937000 2.552495 -0.170977 0.7882 0.5412 0.2941
v -0.973373 2.543025 -0.177608 0.7882 0.5412 0.2941
v -0.981548 2.544759 -0.214848 0.7882 0.5412 0.2941
v -0.981548 2.508624 -0.163241 0.7882 0.5412 0.2941
v -0.937000 0.000000 0.219646 0.7882 0.5412 0.2941
v -1.000000 0.062043 0.208706 0.7882 0.5412 0.2941
v -0.937000 0.051103 0.146663 0.7882 0.5412 0.2941
v -0.981548 0.018172 0.216442 0.7882 0.5412 0.2941
v -0.973373 0.019906 0.179202 0.7882 0.5412 0.2941
v -0.981548 0.054307 0.164835 0.7882 0.5412 0.2941
v -0.937000 0.010436 0.172571 0.7882 0.5412 0.2941
v -0.937000 2.560500 -0.231839 0.7882 0.5412 0.2941
v -0.937000 2.487517 -0.282942 0.7882 0.5412 0.2941
v -1.000000 2.498457 -0.220899 0.7882 0.5412 0.2941
v -0.937000 2.534592 -0.272506 0.7882 0.5412 0.2941
v -0.973373 2.527961 -0.263036 0.7882 0.5412 0.2941
v -0.981548 2.490721 -0.264770 0.7882 0.5412 0.2941
v -0.981548 2.542328 -0.228635 0.7882 0.5412 0.2941
v 0.937000 0.002431 0.233433 0.7882 0.5412 0.2941
v 1.000000 0.064474 0.222494 0.7882 0.5412 0.2941
v 0.937000 0.075414 0.284536 0.7882 0.5412 0.2941
v 0.981548 0.020603 0.230229 0.7882 0.5412 0.2941
v 0.973373 0.034970 0.264630 0.7882 0.5412 0.2941
v 0.981548 0.072210 0.266365 0.7882 0.5412 0.2941
v 0.937000 0.028339 0.274100 0.7882 0.5412 0.2941
v 0.937000 2.562931 -0.218052 0.7882 0.5412 0.2941
v 0.937000 2.511828 -0.145069 0.7882 0.5412 0.2941
v 1.000000 2.500888 -0.207112 0.7882 0.5412 0.2941
v 0.937000 2.552495 -0.170977 0.7882 0.5412 0.2941
v 0.973373 2.543025 -0.177608 0.7882 0.5412 0.2941
v 0.981548 2.508624 -0.163241 0.7882 0.5412 0.2941
v 0.981548 2.544759 -0.214848 0.7882 0.5412 0.2941
v 0.937000 0.000000 0.219646 0.7882 0.5412 0.2941
v 0.937000 0.051103 0.146663 0.7882 0.5412 0.2941
v 1.000000 0.062043 0.208706 0.7882 0.5412 0.2941
v 0.937000 0.010436 0.172571 0.7882 0.5412 0.2941
v 0.973373 0.019906 0.179202 0.7882 0.5412 0.2941
v 0.981548 0.054307 0.164835 0.7882 0.5412 0.2941
v 0.981548 0.018172 0.216442 0.7882 0.5412 0.2941
v 0.937000 2.560500 -0.231839 0.7882 0.5412 0.2941
v 1.000000 2.498457 -0.220899 0.7882 0.5412 0.2941
v 0.937000 2.487517 -0.282942 0.7882 0.5412 0.2941
v 0.981548 2.542328 -0.228635 0.7882 0.5412 0.2941
v 0.973373 2.527961 -0.263036 0.7882 0.5412 0.2941
v 0.981548 2.490721 -0.264770 0.7882 0.5412 0.2941
v 0.937000 2.534592 -0.272506 0.7882 0.5412 0.2941
v -0.840000 0.115325 0.297808 1.0000 1.0000 1.0000
v -0.840000 0.126909 0.305919 1.0000 1.0000 1.0000
v -0.850000 0.125173 0.296071 1.0000 1.0000 1.0000
v -0.840000 2.175309 -0.055269 1.0000 1.0000 1.0000
v -0.840000 2.183421 -0.066854 1.0000 1.0000 1.0000
v -0.850000 2.173573 -0.065117 1.0000 1.0000 1.0000
v -0.840000 0.113588 0.287960 1.0000 1.0000 1.0000
v -0.850000 0.123436 0.286223 1.0000 1.0000 1.0000
v -0.840000 0.121700 0.276375 1.0000 1.0000 1.0000
v -0.840000 2.181684 -0.076702 1.0000 1.0000 1.0000
v -0.840000 2.170099 -0.084813 1.0000 1.0000 1.0000
v -0.850000 2.171836 -0.074965 1.0000 1.0000 1.0000
v 0.840000 0.115325 0.297808 1.0000 1.0000 1.0000
v 0.850000 0.125173 0.296071 1.0000 1.0000 1.0000
v 0.840000 0.126909 0.305919 1.0000 1.0000 1.0000
v 0.840000 2.183421 -0.066854 1.0000 1.0000 1.0000
v 0.840000 2.175309 -0.055269 1.0000 1.0000 1.0000
v 0.850000 2.173573 -0.065117 1.0000 1.0000 1.0000
v 0.840000 0.113588 0.287960 1.0000 1.0000 1.0000
v 0.840000 0.121700 0.276375 1.0000 1.0000 1.0000
v 0.850000 0.123436 0.286223 1.0000 1.0000 1.0000
v 0.840000 2.181684 -0.076702 1.0000 1.0000 1.0000
v 0.850000 2.171836 -0.074965 1.0000 1.0000 1.0000
v 0.840000 2.170099 -0.084813 1.0000 1.0000 1.0000
v -0.440000 2.326503 -0.061620 0.7216 0.7608 0.8000
v -0.440000 2.396011 -0.012950 0.7216 0.7608 0.8000
v -0.500000 2.385592 -0.072039 0.7216 0.7608 0.8000
v -0.440000 2.351177 -0.022890 0.7216 0.7608 0.8000
v -0.474641 2.357493 -0.031909 0.7216 0.7608 0.8000
v -0.482426 2.392959 -0.030257 0.7216 0.7608 0.8000
v -0.482426 2.343810 -0.064672 0.7216 0.7608 0.8000
v -0.440000 2.592972 -0.047680 0.7216 0.7608 0.8000
v -0.440000 2.641642 -0.117187 0.7216 0.7608 0.8000
v -0.500000 2.582553 -0.106769 0.7216 0.7608 0.8000
v -0.440000 2.631702 -0.072354 0.7216 0.7608 0.8000
v -0.474641 2.622684 -0.078669 0.7216 0.7608 0.8000
v -0.482426 2.624335 -0.114136 0.7216 0.7608 0.8000
v -0.482426 2.589921 -0.064987 0.7216 0.7608 0.8000
v -0.440000 2.316084 -0.120709 0.7216 0.7608 0.8000
v -0.500000 2.375173 -0.131127 0.7216 0.7608 0.8000
v -0.440000 2.364754 -0.190216 0.7216 0.7608 0.8000
v -0.482426 2.333391 -0.123760 0.7216 0.7608 0.8000
v -0.474641 2.335043 -0.159227 0.7216 0.7608 0.8000
v -0.482426 2.367806 -0.172909 0.7216 0.7608 0.8000
v -0.440000 2.326024 -0.165542 0.7216 0.7608 0.8000
v -0.440000 2.631223 -0.176276 0.7216 0.7608 0.8000
v -0.440000 2.561716 -0.224946 0.7216 0.7608 0.8000
v -0.500000 2.572134 -0.165857 0.7216 0.7608 0.8000
v -0.440000 2.606549 -0.215006 0.7216 0.7608 0.8000
v -0.474641 2.600234 -0.205987 0.7216 0.7608 0.8000
v -0.482426 2.564767 -0.207639 0.7216 0.7608 0.8000
v -0.482426 2.613916 -0.173224 0.7216 0.7608 0.8000
v 0.440000 2.326503 -0.061620 0.7216 0.7608 0.8000
v 0.500000 2.385592 -0.072039 0.7216 0.7608 0.8000
v 0.440000 2.396011 -0.012950 0.7216 0.7608 0.8000
v 0.482426 2.343810 -0.064672 0.7216 0.7608 0.8000
v 0.474641 2.357493 -0.031909 0.7216 0.7608 0.8000
v 0.482426 2.392959 -0.030257 0.7216 0.7608 0.8000
v 0.440000 2.351177 -0.022890 0.7216 0.7608 0.8000
v 0.440000 2.641642 -0.117187 0.7216 0.7608 0.8000
v 0.440000 2.592972 -0.047680 0.7216 0.7608 0.8000
v 0.500000 2.582553 -0.106769 0.7216 0.7608 0.8000
v 0.440000 2.631702 -0.072354 0.7216 0.7608 0.8000
v 0.474641 2.622684 -0.078669 0.7216 0.7608 0.8000
v 0.482426 2.589921 -0.064987 0.7216 0.7608 0.8000
v 0.482426 2.624335 -0.114136 0.7216 0.7608 0.8000
v 0.440000 2.316084 -0.120709 0.7216 0.7608 0.8000
v 0.440000 2.364754 -0.190216 0.7216 0.7608 0.8000
v 0.500000 2.375173 -0.131127 0.7216 0.7608 0.8000
v 0.440000 2.326024 -0.165542 0.7216 0.7608 0.8000
v 0.474641 2.335043 -0.159227 0.7216 0.7608 0.8000
v 0.482426 2.367806 -0.172909 0.7216 0.7608 0.8000
v 0.482426 2.333391 -0.123760 0.7216 0.7608 0.8000
v 0.440000 2.631223 -0.176276 0.7216 0.7608 0.8000
v 0.500000 2.572134 -0.165857 0.7216 0.7608 0.8000
v 0.440000 2.561716 -0.224946 0.7216 0.7608 0.8000
v 0.482426 2.613916 -0.173224 0.7216 0.7608 0.8000
v 0.474641 2.600234 -0.205987 0.7216 0.7608 0.8000
v 0.482426 2.564767 -0.207639 0.7216 0.7608 0.8000
v 0.440000 2.606549 -0.215006 0.7216 0.7608 0.8000
v 0.250000 2.663669 -0.222614 0.7216 0.7608 0.8000
v 0.225242 2.770492 -0.241450 0.7216 0.7608 0.8000
v 0.155872 2.856158 -0.256555 0.7216 0.7608 0.8000
v 0.055630 2.903698 -0.264938 0.7216 0.7608 0.8000
v -0.055630 2.903698 -0.264938 0.7216 0.7608 0.8000
v -0.155872 2.856158 -0.256555 0.7216 0.7608 0.8000
v -0.225242 2.770492 -0.241450 0.7216 0.7608 0.8000
v -0.250000 2.663669 -0.222614 0.7216 0.7608 0.8000
v -0.225242 2.556846 -0.203778 0.7216 0.7608 0.8000
v -0.155872 2.471181 -0.188673 0.7216 0.7608 0.8000
v -0.055630 2.423640 -0.180291 0.7216 0.7608 0.8000
v 0.055630 2.423640 -0.180291 0.7216 0.7608 0.8000
v 0.155872 2.471181 -0.188673 0.7216 0.7608 0.8000
v 0.225242 2.556846 -0.203778 0.7216 0.7608 0.8000
v 0.215451 2.671927 -0.175784 0.7216 0.7608 0.8000
v 0.194115 2.763987 -0.192017 0.7216 0.7608 0.8000
v 0.134331 2.837814 -0.205034 0.7216 0.7608 0.8000
v 0.047942 2.878785 -0.212258 0.7216 0.7608 0.8000
v -0.047942 2.878785 -0.212258 0.7216 0.7608 0.8000
v -0.134331 2.837814 -0.205034 0.7216 0.7608 0.8000
v -0.194115 2.763987 -0.192017 0.7216 0.7608 0.8000
v -0.215451 2.671927 -0.175784 0.7216 0.7608 0.8000
v -0.194115 2.579866 -0.159551 0.7216 0.7608 0.8000
v -0.134331 2.506040 -0.146533 0.7216 0.7608 0.8000
v -0.047942 2.465069 -0.139309 0.7216 0.7608 0.8000
v 0.047942 2.465069 -0.139309 0.7216 0.7608 0.8000
v 0.134331 2.506040 -0.146533 0.7216 0.7608 0.8000
v 0.194115 2.579866 -0.159551 0.7216 0.7608 0.8000
v 0.159549 2.668773 -0.193671 0.7216 0.7608 0.8000
v 0.143749 2.736947 -0.205692 0.7216 0.7608 0.8000
v 0.099477 2.791618 -0.215332 0.7216 0.7608 0.8000
v 0.035503 2.821959 -0.220682 0.7216 0.7608 0.8000
v -0.035503 2.821959 -0.220682 0.7216 0.7608 0.8000
v -0.099477 2.791618 -0.215332 0.7216 0.7608 0.8000
v -0.143749 2.736947 -0.205692 0.7216 0.7608 0.8000
v -0.159549 2.668773 -0.193671 0.7216 0.7608 0.8000
v -0.143749 2.600599 -0.181651 0.7216 0.7608 0.8000
v -0.099477 2.545927 -0.172010 0.7216 0.7608 0.8000
v -0.035503 2.515587 -0.166661 0.7216 0.7608 0.8000
v 0.035503 2.515587 -0.166661 0.7216 0.7608 0.8000
v 0.099477 2.545927 -0.172010 0.7216 0.7608 0.8000
v 0.143749 2.600599 -0.181651 0.7216 0.7608 0.8000
v 0.159549 2.658566 -0.251557 0.7216 0.7608 0.8000
v 0.143749 2.726740 -0.263578 0.7216 0.7608 0.8000
v 0.099477 2.781411 -0.273218 0.7216 0.7608 0.8000
v 0.035503 2.811752 -0.278568 0.7216 0.7608 0.8000
v -0.035503 2.811752 -0.278568 0.7216 0.7608 0.8000
v -0.099477 2.781411 -0.273218 0.7216 0.7608 0.8000
v -0.143749 2.726740 -0.263578 0.7216 0.7608 0.8000
v -0.159549 2.658566 -0.251557 0.7216 0.7608 0.8000
v -0.143749 2.590392 -0.239536 0.7216 0.7608 0.8000
v -0.099477 2.535720 -0.229896 0.7216 0.7608 0.8000
v -0.035503 2.505380 -0.224546 0.7216 0.7608 0.8000
v 0.035503 2.505380 -0.224546 0.7216 0.7608 0.8000
v 0.099477 2.535720 -0.229896 0.7216 0.7608 0.8000
v 0.143749 2.590392 -0.239536 0.7216 0.7608 0.8000
v 0.215451 2.655412 -0.269445 0.7216 0.7608 0.8000
v 0.194115 2.747472 -0.285677 0.7216 0.7608 0.8000
v 0.134331 2.821299 -0.298695 0.7216 0.7608 0.8000
v 0.047942 2.862270 -0.305919 0.7216 0.7608 0.8000
v -0.047942 2.862270 -0.305919 0.7216 0.7608 0.8000
v -0.134331 2.821299 -0.298695 0.7216 0.7608 0.8000
v -0.194115 2.747472 -0.285677 0.7216 0.7608 0.8000
v -0.215451 2.655412 -0.269445 0.7216 0.7608 0.8000
v -0.194115 2.563351 -0.253212 0.7216 0.7608 0.8000
v -0.134331 2.489525 -0.240194 0.7216 0.7608 0.8000
v -0.047942 2.448554 -0.232970 0.7216 0.7608 0.8000
v 0.047942 2.448554 -0.232970 0.7216 0.7608 0.8000
v 0.134331 2.489525 -0.240194 0.7216 0.7608 0.8000
v 0.194115 2.563351 -0.253212 0.7216 0.7608 0.8000
v -0.616500 1.712710 0.027823 0.2471 0.7137 0.7882
v -0.616500 1.728349 0.038774 0.2471 0.7137 0.7882
v -0.630000 1.726005 0.025479 0.2471 0.7137 0.7882
v -0.616500 1.957810 -0.001687 0.2471 0.7137 0.7882
v -0.616500 1.968760 -0.017326 0.2471 0.7137 0.7882
v -0.630000 1.955465 -0.014981 0.2471 0.7137 0.7882
v -0.616500 1.712189 0.024868 0.2471 0.7137 0.7882
v -0.630000 1.725484 0.022524 0.2471 0.7137 0.7882
v -0.616500 1.723140 0.009229 0.2471 0.7137 0.7882
v -0.616500 1.968239 -0.020280 0.2471 0.7137 0.7882
v -0.616500 1.952600 -0.031231 0.2471 0.7137 0.7882
v -0.630000 1.954944 -0.017936 0.2471 0.7137 0.7882
v -0.383500 1.712710 0.027823 0.2471 0.7137 0.7882
v -0.370000 1.726005 0.025479 0.2471 0.7137 0.7882
v -0.383500 1.728349 0.038774 0.2471 0.7137 0.7882
v -0.383500 1.968760 -0.017326 0.2471 0.7137 0.7882
v -0.383500 1.957810 -0.001687 0.2471 0.7137 0.7882
v -0.370000 1.955465 -0.014981 0.2471 0.7137 0.7882
v -0.383500 1.712189 0.024868 0.2471 0.7137 0.7882
v -0.383500 1.723140 0.009229 0.2471 0.7137 0.7882
v -0.370000 1.725484 0.022524 0.2471 0.7137 0.7882
v -0.383500 1.968239 -0.020280 0.2471 0.7137 0.7882
v -0.370000 1.954944 -0.017936 0.2471 0.7137 0.7882
v -0.383500 1.952600 -0.031231 0.2471 0.7137 0.7882
v -0.165000 1.792103 0.017378 0.1804 0.2078 0.3137
v -0.165000 1.803687 0.025489 0.1804 0.2078 0.3137
v -0.175000 1.801951 0.015641 0.1804 0.2078 0.3137
v -0.165000 1.882472 0.011598 0.1804 0.2078 0.3137
v -0.165000 1.890583 0.000013 0.1804 0.2078 0.3137
v -0.175000 1.880735 0.001750 0.1804 0.2078 0.3137
v -0.165000 1.790366 0.007530 0.1804 0.2078 0.3137
v -0.175000 1.800214 0.005793 0.1804 0.2078 0.3137
v -0.165000 1.798478 -0.004055 0.1804 0.2078 0.3137
v -0.165000 1.888847 -0.009835 0.1804 0.2078 0.3137
v -0.165000 1.877262 -0.017947 0.1804 0.2078 0.3137
v -0.175000 1.878999 -0.008099 0.1804 0.2078 0.3137
v 0.565000 1.792103 0.017378 0.1804 0.2078 0.3137
v 0.575000 1.801951 0.015641 0.1804 0.2078 0.3137
v 0.565000 1.803687 0.025489 0.1804 0.2078 0.3137
v 0.565000 1.890583 0.000013 0.1804 0.2078 0.3137
v 0.565000 1.882472 0.011598 0.1804 0.2078 0.3137
v 0.575000 1.880735 0.001750 0.1804 0.2078 0.3137
v 0.565000 1.790366 0.007530 0.1804 0.2078 0.3137
v 0.565000 1.798478 -0.004055 0.1804 0.2078 0.3137
v 0.575000 1.800214 0.005793 0.1804 0.2078 0.3137
v 0.565000 1.888847 -0.009835 0.1804 0.2078 0.3137
v 0.575000 1.878999 -0.008099 0.1804 0.2078 0.3137
v 0.565000 1.877262 -0.017947 0.1804 0.2078 0.3137
v -0.356029 2.061959 -0.030205 0.8470 0.2275 0.1804
v -0.356029 2.070641 0.019035 0.8470 0.2275 0.1804
v -0.320000 2.051328 0.047826 0.8470 0.2275 0.1804
v -0.283971 2.023332 0.027377 0.8470 0.2275 0.1804
v -0.283971 2.014650 -0.021863 0.8470 0.2275 0.1804
v -0.320000 2.033963 -0.050654 0.8470 0.2275 0.1804
v -0.586735 1.888339 0.000409 0.8470 0.2275 0.1804
v -0.586735 1.897021 0.049649 0.8470 0.2275 0.1804
v -0.620000 1.874063 0.079083 0.8470 0.2275 0.1804
v -0.653265 1.842422 0.059276 0.8470 0.2275 0.1804
v -0.653265 1.833739 0.010036 0.8470 0.2275 0.1804
v -0.620000 1.856698 -0.019398 0.8470 0.2275 0.1804
v -0.522310 1.785445 0.018552 0.8470 0.2275 0.1804
v -0.522310 1.794127 0.067792 0.8470 0.2275 0.1804
v -0.520000 1.755886 0.099921 0.8470 0.2275 0.1804
v -0.517690 1.708962 0.082809 0.8470 0.2275 0.1804
v -0.517690 1.700279 0.033569 0.8470 0.2275 0.1804
v -0.520000 1.738521 0.001440 0.8470 0.2275 0.1804
v -0.616500 1.269547 0.105965 0.2471 0.7137 0.7882
v -0.616500 1.285186 0.116915 0.2471 0.7137 0.7882
v -0.630000 1.282842 0.103620 0.2471 0.7137 0.7882
v -0.616500 1.514646 0.076455 0.2471 0.7137 0.7882
v -0.616500 1.525597 0.060816 0.2471 0.7137 0.7882
v -0.630000 1.512302 0.063160 0.2471 0.7137 0.7882
v -0.616500 1.269026 0.103010 0.2471 0.7137 0.7882
v -0.630000 1.282321 0.100666 0.2471 0.7137 0.7882
v -0.616500 1.279976 0.087371 0.2471 0.7137 0.7882
v -0.616500 1.525076 0.057862 0.2471 0.7137 0.7882
v -0.616500 1.509437 0.046911 0.2471 0.7137 0.7882
v -0.630000 1.511781 0.060206 0.2471 0.7137 0.7882
v -0.383500 1.269547 0.105965 0.2471 0.7137 0.7882
v -0.370000 1.282842 0.103620 0.2471 0.7137 0.7882
v -0.383500 1.285186 0.116915 0.2471 0.7137 0.7882
v -0.383500 1.525597 0.060816 0.2471 0.7137 0.7882
v -0.383500 1.514646 0.076455 0.2471 0.7137 0.7882
v -0.370000 1.512302 0.063160 0.2471 0.7137 0.7882
v -0.383500 1.269026 0.103010 0.2471 0.7137 0.7882
v -0.383500 1.279976 0.087371 0.2471 0.7137 0.7882
v -0.370000 1.282321 0.100666 0.2471 0.7137 0.7882
v -0.383500 1.525076 0.057862 0.2471 0.7137 0.7882
v -0.370000 1.511781 0.060206 0.2471 0.7137 0.7882
v -0.383500 1.509437 0.046911 0.2471 0.7137 0.7882
v -0.105000 1.348939 0.095520 0.1804 0.2078 0.3137
v -0.105000 1.360524 0.103631 0.1804 0.2078 0.3137
v -0.115000 1.358787 0.093783 0.1804 0.2078 0.3137
v -0.105000 1.439308 0.089739 0.1804 0.2078 0.3137
v -0.105000 1.447420 0.078155 0.1804 0.2078 0.3137
v -0.115000 1.437572 0.079891 0.1804 0.2078 0.3137
v -0.105000 1.347203 0.085671 0.1804 0.2078 0.3137
v -0.115000 1.357051 0.083935 0.1804 0.2078 0.3137
v -0.105000 1.355314 0.074087 0.1804 0.2078 0.3137
v -0.105000 1.445683 0.068307 0.1804 0.2078 0.3137
v -0.105000 1.434099 0.060195 0.1804 0.2078 0.3137
v -0.115000 1.435835 0.070043 0.1804 0.2078 0.3137
v 0.505000 1.348939 0.095520 0.1804 0.2078 0.3137
v 0.515000 1.358787 0.093783 0.1804 0.2078 0.3137
v 0.505000 1.360524 0.103631 0.1804 0.2078 0.3137
v 0.505000 1.447420 0.078155 0.1804 0.2078 0.3137
v 0.505000 1.439308 0.089739 0.1804 0.2078 0.3137
v 0.515000 1.437572 0.079891 0.1804 0.2078 0.3137
v 0.505000 1.347203 0.085671 0.1804 0.2078 0.3137
v 0.505000 1.355314 0.074087 0.1804 0.2078 0.3137
v 0.515000 1.357051 0.083935 0.1804 0.2078 0.3137
v 0.505000 1.445683 0.068307 0.1804 0.2078 0.3137
v 0.515000 1.435835 0.070043 0.1804 0.2078 0.3137
v 0.505000 1.434099 0.060195 0.1804 0.2078 0.3137
v -0.356029 1.618795 0.047937 0.8470 0.2275 0.1804
v -0.356029 1.627478 0.097177 0.8470 0.2275 0.1804
v -0.320000 1.608165 0.125968 0.8470 0.2275 0.1804
v -0.283971 1.580169 0.105519 0.8470 0.2275 0.1804
v -0.283971 1.571487 0.056278 0.8470 0.2275 0.1804
v -0.320000 1.590800 0.027487 0.8470 0.2275 0.1804
v -0.586735 1.445175 0.078550 0.8470 0.2275 0.1804
v -0.586735 1.453858 0.127791 0.8470 0.2275 0.1804
v -0.620000 1.430899 0.157225 0.8470 0.2275 0.1804
v -0.653265 1.399258 0.137418 0.8470 0.2275 0.1804
v -0.653265 1.390576 0.088178 0.8470 0.2275 0.1804
v -0.620000 1.413534 0.058744 0.8470 0.2275 0.1804
v -0.522310 1.342281 0.096693 0.8470 0.2275 0.1804
v -0.522310 1.350964 0.145934 0.8470 0.2275 0.1804
v -0.520000 1.312722 0.178063 0.8470 0.2275 0.1804
v -0.517690 1.265798 0.160951 0.8470 0.2275 0.1804
v -0.517690 1.257116 0.111710 0.8470 0.2275 0.1804
v -0.520000 1.295357 0.079582 0.8470 0.2275 0.1804
v -0.616500 0.826383 0.184106 0.2471 0.7137 0.7882
v -0.616500 0.842022 0.195057 0.2471 0.7137 0.7882
v -0.630000 0.839678 0.181762 0.2471 0.7137 0.7882
v -0.616500 1.071483 0.154597 0.2471 0.7137 0.7882
v -0.616500 1.082433 0.138958 0.2471 0.7137 0.7882
v -0.630000 1.069138 0.141302 0.2471 0.7137 0.7882
v -0.616500 0.825862 0.181152 0.2471 0.7137 0.7882
v -0.630000 0.839157 0.178808 0.2471 0.7137 0.7882
v -0.616500 0.836813 0.165513 0.2471 0.7137 0.7882
v -0.616500 1.081912 0.136003 0.2471 0.7137 0.7882
v -0.616500 1.066273 0.125053 0.2471 0.7137 0.7882
v -0.630000 1.068617 0.138348 0.2471 0.7137 0.7882
v -0.383500 0.826383 0.184106 0.2471 0.7137 0.7882
v -0.370000 0.839678 0.181762 0.2471 0.7137 0.7882
v -0.383500 0.842022 0.195057 0.2471 0.7137 0.7882
v -0.383500 1.082433 0.138958 0.2471 0.7137 0.7882
v -0.383500 1.071483 0.154597 0.2471 0.7137 0.7882
v -0.370000 1.069138 0.141302 0.2471 0.7137 0.7882
v -0.383500 0.825862 0.181152 0.2471 0.7137 0.7882
v -0.383500 0.836813 0.165513 0.2471 0.7137 0.7882
v -0.370000 0.839157 0.178808 0.2471 0.7137 0.7882
v -0.383500 1.081912 0.136003 0.2471 0.7137 0.7882
v -0.370000 1.068617 0.138348 0.2471 0.7137 0.7882
v -0.383500 1.066273 0.125053 0.2471 0.7137 0.7882
v -0.165000 0.905775 0.173661 0.1804 0.2078 0.3137
v -0.165000 0.917360 0.181773 0.1804 0.2078 0.3137
v -0.175000 0.915624 0.171925 0.1804 0.2078 0.3137
v -0.165000 0.996145 0.167881 0.1804 0.2078 0.3137
v -0.165000 1.004256 0.156296 0.1804 0.2078 0.3137
v -0.175000 0.994408 0.158033 0.1804 0.2078 0.3137
v -0.165000 0.904039 0.163813 0.1804 0.2078 0.3137
v -0.175000 0.913887 0.162077 0.1804 0.2078 0.3137
v -0.165000 0.912151 0.152229 0.1804 0.2078 0.3137
v -0.165000 1.002520 0.146448 0.1804 0.2078 0.3137
v -0.165000 0.990935 0.138337 0.1804 0.2078 0.3137
v -0.175000 0.992672 0.148185 0.1804 0.2078 0.3137
v 0.565000 0.905775 0.173661 0.1804 0.2078 0.3137
v 0.575000 0.915624 0.171925 0.1804 0.2078 0.3137
v 0.565000 0.917360 0.181773 0.1804 0.2078 0.3137
v 0.565000 1.004256 0.156296 0.1804 0.2078 0.3137
v 0.565000 0.996145 0.167881 0.1804 0.2078 0.3137
v 0.575000 0.994408 0.158033 0.1804 0.2078 0.3137
v 0.565000 0.904039 0.163813 0.1804 0.2078 0.3137
v 0.565000 0.912151 0.152229 0.1804 0.2078 0.3137
v 0.575000 0.913887 0.162077 0.1804 0.2078 0.3137
v 0.565000 1.002520 0.146448 0.1804 0.2078 0.3137
v 0.575000 0.992672 0.148185 0.1804 0.2078 0.3137
v 0.565000 0.990935 0.138337 0.1804 0.2078 0.3137
v -0.356029 1.175632 0.126078 0.8470 0.2275 0.1804
v -0.356029 1.184314 0.175319 0.8470 0.2275 0.1804
v -0.320000 1.165001 0.204110 0.8470 0.2275 0.1804
v -0.283971 1.137005 0.183660 0.8470 0.2275 0.1804
v -0.283971 1.128323 0.134420 0.8470 0.2275 0.1804
v -0.320000 1.147636 0.105629 0.8470 0.2275 0.1804
v -0.586735 1.002012 0.156692 0.8470 0.2275 0.1804
v -0.586735 1.010694 0.205933 0.8470 0.2275 0.1804
v -0.620000 0.987736 0.235366 0.8470 0.2275 0.1804
v -0.653265 0.956095 0.215560 0.8470 0.2275 0.1804
v -0.653265 0.947412 0.166319 0.8470 0.2275 0.1804
v -0.620000 0.970371 0.136886 0.8470 0.2275 0.1804
v -0.522310 0.899118 0.174835 0.8470 0.2275 0.1804
v -0.522310 0.907800 0.224075 0.8470 0.2275 0.1804
v -0.520000 0.869559 0.256204 0.8470 0.2275 0.1804
v -0.517690 0.822635 0.239092 0.8470 0.2275 0.1804
v -0.517690 0.813952 0.189852 0.8470 0.2275 0.1804
v -0.520000 0.852194 0.157723 0.8470 0.2275 0.1804
v -0.616500 0.383220 0.262248 0.2471 0.7137 0.7882
v -0.616500 0.398859 0.273199 0.2471 0.7137 0.7882
v -0.630000 0.396515 0.259904 0.2471 0.7137 0.7882
v -0.616500 0.628319 0.232739 0.2471 0.7137 0.7882
v -0.616500 0.639270 0.217099 0.2471 0.7137 0.7882
v -0.630000 0.625975 0.219444 0.2471 0.7137 0.7882
v -0.616500 0.382699 0.259293 0.2471 0.7137 0.7882
v -0.630000 0.395994 0.256949 0.2471 0.7137 0.7882
v -0.616500 0.393649 0.243654 0.2471 0.7137 0.7882
v -0.616500 0.638749 0.214145 0.2471 0.7137 0.7882
v -0.616500 0.623110 0.203194 0.2471 0.7137 0.7882
v -0.630000 0.625454 0.216489 0.2471 0.7137 0.7882
v -0.383500 0.383220 0.262248 0.2471 0.7137 0.7882
v -0.370000 0.396515 0.259904 0.2471 0.7137 0.7882
v -0.383500 0.398859 0.273199 0.2471 0.7137 0.7882
v -0.383500 0.639270 0.217099 0.2471 0.7137 0.7882
v -0.383500 0.628319 0.232739 0.2471 0.7137 0.7882
v -0.370000 0.625975 0.219444 0.2471 0.7137 0.7882
v -0.383500 0.382699 0.259293 0.2471 0.7137 0.7882
v -0.383500 0.393649 0.243654 0.2471 0.7137 0.7882
v -0.370000 0.395994 0.256949 0.2471 0.7137 0.7882
v -0.383500 0.638749 0.214145 0.2471 0.7137 0.7882
v -0.370000 0.625454 0.216489 0.2471 0.7137 0.7882
v -0.383500 0.623110 0.203194 0.2471 0.7137 0.7882
v -0.105000 0.462612 0.251803 0.1804 0.2078 0.3137
v -0.105000 0.474197 0.259914 0.1804 0.2078 0.3137
v -0.115000 0.472460 0.250066 0.1804 0.2078 0.3137
v -0.105000 0.552981 0.246023 0.1804 0.2078 0.3137
v -0.105000 0.561093 0.234438 0.1804 0.2078 0.3137
v -0.115000 0.551245 0.236175 0.1804 0.2078 0.3137
v -0.105000 0.460876 0.241955 0.1804 0.2078 0.3137
v -0.115000 0.470724 0.240218 0.1804 0.2078 0.3137
v -0.105000 0.468987 0.230370 0.1804 0.2078 0.3137
v -0.105000 0.559356 0.224590 0.1804 0.2078 0.3137
v -0.105000 0.547772 0.216478 0.1804 0.2078 0.3137
v -0.115000 0.549508 0.226326 0.1804 0.2078 0.3137
v 0.505000 0.462612 0.251803 0.1804 0.2078 0.3137
v 0.515000 0.472460 0.250066 0.1804 0.2078 0.3137
v 0.505000 0.474197 0.259914 0.1804 0.2078 0.3137
v 0.505000 0.561093 0.234438 0.1804 0.2078 0.3137
v 0.505000 0.552981 0.246023 0.1804 0.2078 0.3137
v 0.515000 0.551245 0.236175 0.1804 0.2078 0.3137
v 0.505000 0.460876 0.241955 0.1804 0.2078 0.3137
v 0.505000 0.468987 0.230370 0.1804 0.2078 0.3137
v 0.515000 0.470724 0.240218 0.1804 0.2078 0.3137
v 0.505000 0.559356 0.224590 0.1804 0.2078 0.3137
v 0.515000 0.549508 0.226326 0.1804 0.2078 0.3137
v 0.505000 0.547772 0.216478 0.1804 0.2078 0.3137
vn -0.1794 -0.9215 0.3446
vn -0.1585 -0.8429 0.5141
vn -0.3251 -0.8181 0.4743
vn -0.3600 -0.8779 0.3157
vn -0.1794 -0.0087 0.9837
vn -0.3600 0.0036 0.9330
vn -0.3251 -0.1659 0.9310
vn -0.1585 -0.1948 0.9679
vn -0.9673 -0.1455 0.2078
vn -0.9194 -0.3270 0.2186
vn -0.8881 -0.2637 0.3766
vn -0.9194 -0.0936 0.3820
vn -0.1794 0.3446 0.9215
vn -0.1585 0.5141 0.8429
vn -0.3251 0.4743 0.8181
vn -0.3600 0.3157 0.8779
vn -0.1794 0.9837 0.0087
vn -0.3600 0.9330 -0.0036
vn -0.3251 0.9310 0.1659
vn -0.1585 0.9679 0.1948
vn -0.9673 0.2078 0.1455
vn -0.9194 0.2186 0.3270
vn -0.8881 0.3766 0.2637
vn -0.9194 0.3820 0.0936
vn -0.1794 -0.9837 -0.0087
vn -0.3600 -0.9330 0.0036
vn -0.3251 -0.9310 -0.1659
vn -0.1585 -0.9679 -0.1948
vn -0.9673 -0.2078 -0.1455
vn -0.9194 -0.2186 -0.3270
vn -0.8881 -0.3766 -0.2637
vn -0.9194 -0.3820 -0.0936
vn -0.1794 -0.3446 -0.9215
vn -0.1585 -0.5141 -0.8429
vn -0.3251 -0.4743 -0.8181
vn -0.3600 -0.3157 -0.8779
vn -0.1794 0.9215 -0.3446
vn -0.1585 0.8429 -0.5141
vn -0.3251 0.8181 -0.4743
vn -0.3600 0.8779 -0.3157
vn -0.1794 0.0087 -0.9837
vn -0.3600 -0.0036 -0.9330
vn -0.3251 0.1659 -0.9310
vn -0.1585 0.1948 -0.9679
vn -0.9673 0.1455 -0.2078
vn -0.9194 0.3270 -0.2186
vn -0.8881 0.2637 -0.3766
vn -0.9194 0.0936 -0.3820
vn 0.1794 -0.9215 0.3446
vn 0.3600 -0.8779 0.3157
vn 0.3251 -0.8181 0.4743
vn 0.1585 -0.8429 0.5141
vn 0.9673 -0.1455 0.2078
vn 0.9194 -0.0936 0.3820
vn 0.8881 -0.2637 0.3766
vn 0.9194 -0.3270 0.2186
vn 0.1794 -0.0087 0.9837
vn 0.1585 -0.1948 0.9679
vn 0.3251 -0.1659 0.9310
vn 0.3600 0.0036 0.9330
vn 0.1794 0.9837 0.0087
vn 0.1585 0.9679 0.1948
vn 0.3251 0.9310 0.1659
vn 0.3600 0.9330 -0.0036
vn 0.1794 0.3446 0.9215
vn 0.3600 0.3157 0.8779
vn 0.3251 0.4743 0.8181
vn 0.1585 0.5141 0.8429
vn 0.9673 0.2078 0.1455
vn 0.9194 0.3820 0.0936
vn 0.8881 0.3766 0.2637
vn 0.9194 0.2186 0.3270
vn 0.1794 -0.9837 -0.0087
vn 0.1585 -0.9679 -0.1948
vn 0.3251 -0.9310 -0.1659
vn 0.3600 -0.9330 0.0036
vn 0.1794 -0.3446 -0.9215
vn 0.3600 -0.3157 -0.8779
vn 0.3251 -0.4743 -0.8181
vn 0.1585 -0.5141 -0.8429
vn 0.9673 -0.2078 -0.1455
vn 0.9194 -0.3820 -0.0936
vn 0.8881 -0.3766 -0.2637
vn 0.9194 -0.2186 -0.3270
vn 0.1794 0.9215 -0.3446
vn 0.3600 0.8779 -0.3157
vn 0.3251 0.8181 -0.4743
vn 0.1585 0.8429 -0.5141
vn 0.9673 0.1455 -0.2078
vn 0.9194 0.0936 -0.3820
vn 0.8881 0.2637 -0.3766
vn 0.9194 0.3270 -0.2186
vn 0.1794 0.0087 -0.9837
vn 0.1585 0.1948 -0.9679
vn 0.3251 0.1659 -0.9310
vn 0.3600 -0.0036 -0.9330
vn -0.4606 -0.6673 0.5853
vn -0.4606 -0.3218 0.8272
vn -0.7588 -0.3736 0.5335
vn -0.4606 0.5853 0.6673
vn -0.4606 0.8272 0.3218
vn -0.7588 0.5335 0.3736
vn -0.4606 -0.8272 -0.3218
vn -0.7588 -0.5335 -0.3736
vn -0.4606 -0.5853 -0.6673
vn -0.4606 0.6673 -0.5853
vn -0.4606 0.3218 -0.8272
vn -0.7588 0.3736 -0.5335
vn 0.4606 -0.6673 0.5853
vn 0.7588 -0.3736 0.5335
vn 0.4606 -0.3218 0.8272
vn 0.4606 0.8272 0.3218
vn 0.4606 0.5853 0.6673
vn 0.7588 0.5335 0.3736
vn 0.4606 -0.8272 -0.3218
vn 0.4606 -0.5853 -0.6673
vn 0.7588 -0.5335 -0.3736
vn 0.4606 0.6673 -0.5853
vn 0.7588 0.3736 -0.5335
vn 0.4606 0.3218 -0.8272
vn -0.0000 -0.9848 0.1736
vn -1.0000 -0.0000 -0.0000
vn -0.0000 0.1736 0.9848
vn -0.0000 0.9848 -0.1737
vn -0.0000 -0.1736 -0.9848
vn 1.0000 -0.0000 -0.0000
vn -0.1585 -0.8429 0.5142
vn -0.1585 0.5142 0.8429
vn -0.1585 -0.5142 -0.8429
vn -0.1585 0.8429 -0.5142
vn 0.1585 -0.8429 0.5142
vn 0.1585 0.5142 0.8429
vn 0.1585 -0.5142 -0.8429
vn 0.1585 0.8429 -0.5142
vn 0.8090 0.1021 0.5789
vn 0.7289 0.4478 0.5179
vn 0.5044 0.7250 0.4690
vn 0.1800 0.8788 0.4419
vn -0.1800 0.8788 0.4419
vn -0.5044 0.7250 0.4690
vn -0.7289 0.4478 0.5179
vn -0.8090 0.1021 0.5789
vn -0.7289 -0.2436 0.6398
vn -0.5044 -0.5208 0.6887
vn -0.1800 -0.6747 0.7158
vn 0.1800 -0.6747 0.7158
vn 0.5044 -0.5208 0.6887
vn 0.7289 -0.2436 0.6398
vn -0.3090 0.1651 0.9366
vn -0.2784 0.0331 0.9599
vn -0.1927 -0.0728 0.9786
vn -0.0688 -0.1315 0.9889
vn 0.0688 -0.1315 0.9889
vn 0.1927 -0.0728 0.9786
vn 0.2784 0.0331 0.9599
vn 0.3090 0.1651 0.9366
vn 0.2784 0.2972 0.9133
vn 0.1927 0.4031 0.8947
vn 0.0688 0.4618 0.8843
vn -0.0688 0.4618 0.8843
vn -0.1927 0.4031 0.8947
vn -0.2784 0.2972 0.9133
vn -0.9010 -0.4273 0.0753
vn -0.6235 -0.7700 0.1358
vn -0.2225 -0.9601 0.1693
vn 0.2225 -0.9601 0.1693
vn 0.6235 -0.7700 0.1358
vn 0.9010 -0.4273 0.0753
vn 0.9010 0.4273 -0.0753
vn 0.6235 0.7700 -0.1358
vn 0.2225 0.9601 -0.1693
vn -0.2225 0.9601 -0.1693
vn -0.6235 0.7700 -0.1358
vn -0.9010 0.4273 -0.0753
vn -0.3090 -0.1651 -0.9366
vn -0.2784 -0.2972 -0.9133
vn -0.1927 -0.4031 -0.8947
vn -0.0688 -0.4618 -0.8843
vn 0.0688 -0.4618 -0.8843
vn 0.1927 -0.4031 -0.8947
vn 0.2784 -0.2972 -0.9133
vn 0.3090 -0.1651 -0.9366
vn 0.2784 -0.0331 -0.9599
vn 0.1927 0.0728 -0.9786
vn 0.0688 0.1315 -0.9889
vn -0.0688 0.1315 -0.9889
vn -0.1927 0.0728 -0.9786
vn -0.2784 -0.0331 -0.9599
vn 0.8090 -0.1021 -0.5789
vn 0.7289 0.2436 -0.6398
vn 0.5044 0.5208 -0.6887
vn 0.1800 0.6747 -0.7158
vn -0.1800 0.6747 -0.7158
vn -0.5044 0.5208 -0.6887
vn -0.7289 0.2436 -0.6398
vn -0.8090 -0.1021 -0.5789
vn -0.7289 -0.4478 -0.5179
vn -0.5044 -0.7250 -0.4690
vn -0.1800 -0.8788 -0.4419
vn 0.1800 -0.8788 -0.4419
vn 0.5044 -0.7250 -0.4690
vn 0.7289 -0.4478 -0.5179
vn -0.0000 0.9848 -0.1736
vn 0.5547 0.8194 -0.1445
vn -0.6402 0.7566 -0.1334
vn -0.6402 0.7565 -0.1334
vn 0.4829 0.2093 -0.8503
vn 0.8512 0.5169 -0.0911
vn 0.4829 0.4875 0.7274
vn -0.4239 -0.2430 0.8725
vn -0.7070 -0.6965 0.1228
vn -0.4239 -0.5267 -0.7368
vn -0.4996 0.1702 -0.8494
vn -0.8604 0.5018 -0.0885
vn -0.4996 0.4504 0.7399
vn 0.4761 -0.1871 0.8592
vn 0.8069 -0.5818 0.1026
vn 0.4761 -0.4697 -0.7434
vn -0.0000 -0.9848 0.1737
vt 0.000000 0.000000
vt 1.000000 0.000000
vt 0.600000 0.000000
vt 0.800000 0.000000
vt 0.400000 0.000000
vt 0.200000 0.000000
vt 0.000000 1.000000
vt 0.500000 1.000000
vt 0.500000 0.833333
vt 0.000000 0.833333
vt 0.000000 0.166667
vt 0.500000 0.166667
vt 0.500000 0.000000
vt 0.000000 0.333333
vt 0.500000 0.333333
vt 0.000000 0.500000
vt 0.500000 0.500000
vt 0.000000 0.666667
vt 0.500000 0.666667
vt 1.000000 1.000000
vt 1.000000 0.833333
vt 1.000000 0.166667
vt 1.000000 0.333333
vt 1.000000 0.500000
vt 1.000000 0.666667
s 1
usemtl wood
f 1/1/1 4/1/2 5/1/3 7/1/4
f 2/1/5 6/1/6 5/1/7 4/1/8
f 3/1/9 7/1/10 5/1/11 6/1/12
f 8/1/13 11/1/14 12/1/15 14/1/16
f 9/1/17 13/1/18 12/1/19 11/1/20
f 10/1/21 14/1/22 12/1/23 13/1/24
f 15/1/25 18/1/26 19/1/27 21/1/28
f 16/1/29 20/1/30 19/1/31 18/1/32
f 17/1/33 21/1/34 19/1/35 20/1/36
f 22/1/37 25/1/38 26/1/39 28/1/40
f 23/1/41 27/1/42 26/1/43 25/1/44
f 24/1/45 28/1/46 26/1/47 27/1/48
f 29/1/49 32/1/50 33/1/51 35/1/52
f 30/1/53 34/1/54 33/1/55 32/1/56
f 31/1/57 35/1/58 33/1/59 34/1/60
f 36/1/61 39/1/62 40/1/63 42/1/64
f 37/1/65 41/1/66 40/1/67 39/1/68
f 38/1/69 42/1/70 40/1/71 41/1/72
f 43/1/73 46/1/74 47/1/75 49/1/76
f 44/1/77 48/1/78 47/1/79 46/1/80
f 45/1/81 49/1/82 47/1/83 48/1/84
f 50/1/85 53/1/86 54/1/87 56/1/88
f 51/1/89 55/1/90 54/1/91 53/1/92
f 52/1/93 56/1/94 54/1/95 55/1/96
f 15/1/25 1/1/1 7/1/4 18/1/26
f 18/1/32 7/1/10 3/1/9 16/1/29
f 2/1/5 8/1/13 14/1/16 6/1/6
f 6/1/12 14/1/22 10/1/21 3/1/9
f 9/1/17 22/1/37 28/1/40 13/1/18
f 13/1/24 28/1/46 24/1/45 10/1/21
f 23/1/41 17/1/33 20/1/36 27/1/42
f 27/1/48 20/1/30 16/1/29 24/1/45
f 43/1/73 15/1/25 21/1/28 46/1/74
f 46/1/80 21/1/34 17/1/33 44/1/77
f 22/1/37 50/1/85 56/1/88 25/1/38
f 25/1/44 56/1/94 52/1/93 23/1/41
f 51/1/89 45/1/81 48/1/84 55/1/90
f 55/1/96 48/1/78 44/1/77 52/1/93
f 29/1/49 43/1/73 49/1/76 32/1/50
f 32/1/56 49/1/82 45/1/81 30/1/53
f 50/1/85 36/1/61 42/1/64 53/1/86
f 53/1/92 42/1/70 38/1/69 51/1/89
f 37/1/65 31/1/57 34/1/60 41/1/66
f 41/1/72 34/1/54 30/1/53 38/1/69
f 1/1/1 29/1/49 35/1/52 4/1/2
f 4/1/8 35/1/58 31/1/57 2/1/5
f 36/1/61 9/1/17 11/1/20 39/1/62
f 39/1/68 11/1/14 8/1/13 37/1/65
f 15/1/25 43/1/73 29/1/49 1/1/1
f 3/1/9 10/1/21 24/1/45 16/1/29
f 31/1/57 37/1/65 8/1/13 2/1/5
f 50/1/85 22/1/37 9/1/17 36/1/61
f 17/1/33 23/1/41 52/1/93 44/1/77
f 45/1/81 51/1/89 38/1/69 30/1/53
usemtl white
f 57/1/97 58/1/98 59/1/99
f 60/1/100 61/1/101 62/1/102
f 63/1/103 64/1/104 65/1/105
f 66/1/106 67/1/107 68/1/108
f 69/1/109 70/1/110 71/1/111
f 72/1/112 73/1/113 74/1/114
f 75/1/115 76/1/116 77/1/117
f 78/1/118 79/1/119 80/1/120
f 63/1/103 57/1/97 59/1/99 64/1/104
f 58/1/98 60/1/100 62/1/102 59/1/99
f 61/1/101 66/1/106 68/1/108 62/1/102
f 67/1/107 65/1/105 64/1/104 68/1/108
f 75/1/115 63/1/103 65/1/105 76/1/116
f 66/1/106 78/1/118 80/1/120 67/1/107
f 79/1/119 77/1/117 76/1/116 80/1/120
f 69/1/109 75/1/115 77/1/117 70/1/110
f 78/1/118 72/1/112 74/1/114 79/1/119
f 73/1/113 71/1/111 70/1/110 74/1/114
f 57/1/97 69/1/109 71/1/111 58/1/98
f 72/1/112 61/1/101 60/1/100 73/1/113
f 63/1/121 75/1/121 69/1/121 57/1/121
f 59/1/122 62/1/122 68/1/122 64/1/122
f 71/1/123 73/1/123 60/1/123 58/1/123
f 78/1/124 66/1/124 61/1/124 72/1/124
f 65/1/125 67/1/125 80/1/125 76/1/125
f 77/1/126 79/1/126 74/1/126 70/1/126
usemtl chrome
f 81/1/1 84/1/127 85/1/3 87/1/4
f 82/1/5 86/1/6 85/1/7 84/1/8
f 83/1/9 87/1/10 85/1/11 86/1/12
f 88/1/13 91/1/128 92/1/15 94/1/16
f 89/1/17 93/1/18 92/1/19 91/1/20
f 90/1/21 94/1/22 92/1/23 93/1/24
f 95/1/25 98/1/26 99/1/27 101/1/28
f 96/1/29 100/1/30 99/1/31 98/1/32
f 97/1/33 101/1/129 99/1/35 100/1/36
f 102/1/37 105/1/130 106/1/39 108/1/40
f 103/1/41 107/1/42 106/1/43 105/1/44
f 104/1/45 108/1/46 106/1/47 107/1/48
f 109/1/49 112/1/50 113/1/51 115/1/131
f 110/1/53 114/1/54 113/1/55 112/1/56
f 111/1/57 115/1/58 113/1/59 114/1/60
f 116/1/61 119/1/62 120/1/63 122/1/64
f 117/1/65 121/1/66 120/1/67 119/1/132
f 118/1/69 122/1/70 120/1/71 121/1/72
f 123/1/73 126/1/74 127/1/75 129/1/76
f 124/1/77 128/1/78 127/1/79 126/1/133
f 125/1/81 129/1/82 127/1/83 128/1/84
f 130/1/85 133/1/86 134/1/87 136/1/134
f 131/1/89 135/1/90 134/1/91 133/1/92
f 132/1/93 136/1/94 134/1/95 135/1/96
f 95/1/25 81/1/1 87/1/4 98/1/26
f 98/1/32 87/1/10 83/1/9 96/1/29
f 82/1/5 88/1/13 94/1/16 86/1/6
f 86/1/12 94/1/22 90/1/21 83/1/9
f 89/1/17 102/1/37 108/1/40 93/1/18
f 93/1/24 108/1/46 104/1/45 90/1/21
f 103/1/41 97/1/33 100/1/36 107/1/42
f 107/1/48 100/1/30 96/1/29 104/1/45
f 123/1/73 95/1/25 101/1/28 126/1/74
f 126/1/133 101/1/129 97/1/33 124/1/77
f 102/1/37 130/1/85 136/1/134 105/1/130
f 105/1/44 136/1/94 132/1/93 103/1/41
f 131/1/89 125/1/81 128/1/84 135/1/90
f 135/1/96 128/1/78 124/1/77 132/1/93
f 109/1/49 123/1/73 129/1/76 112/1/50
f 112/1/56 129/1/82 125/1/81 110/1/53
f 130/1/85 116/1/61 122/1/64 133/1/86
f 133/1/92 122/1/70 118/1/69 131/1/89
f 117/1/65 111/1/57 114/1/60 121/1/66
f 121/1/72 114/1/54 110/1/53 118/1/69
f 81/1/1 109/1/49 115/1/131 84/1/127
f 84/1/8 115/1/58 111/1/57 82/1/5
f 116/1/61 89/1/17 91/1/20 119/1/62
f 119/1/132 91/1/128 88/1/13 117/1/65
f 95/1/25 123/1/73 109/1/49 81/1/1
f 83/1/9 90/1/21 104/1/45 96/1/29
f 111/1/57 117/1/65 88/1/13 82/1/5
f 130/1/85 102/1/37 89/1/17 116/1/61
f 97/1/33 103/1/41 132/1/93 124/1/77
f 125/1/81 131/1/89 118/1/69 110/1/53
f 137/1/135 138/1/136 152/1/136 151/1/135
f 138/1/136 139/1/137 153/1/137 152/1/136
f 139/1/137 140/1/138 154/1/138 153/1/137
f 140/1/138 141/1/139 155/1/139 154/1/138
f 141/1/139 142/1/140 156/1/140 155/1/139
f 142/1/140 143/1/141 157/1/141 156/1/140
f 143/1/141 144/1/142 158/1/142 157/1/141
f 144/1/142 145/1/143 159/1/143 158/1/142
f 145/1/143 146/1/144 160/1/144 159/1/143
f 146/1/144 147/1/145 161/1/145 160/1/144
f 147/1/145 148/1/146 162/1/146 161/1/145
f 148/1/146 149/1/147 163/1/147 162/1/146
f 149/1/147 150/1/148 164/1/148 163/1/147
f 150/1/148 137/1/135 151/1/135 164/1/148
f 151/1/149 152/1/150 166/1/150 165/1/149
f 152/1/150 153/1/151 167/1/151 166/1/150
f 153/1/151 154/1/152 168/1/152 167/1/151
f 154/1/152 155/1/153 169/1/153 168/1/152
f 155/1/153 156/1/154 170/1/154 169/1/153
f 156/1/154 157/1/155 171/1/155 170/1/154
f 157/1/155 158/1/156 172/1/156 171/1/155
f 158/1/156 159/1/157 173/1/157 172/1/156
f 159/1/157 160/1/158 174/1/158 173/1/157
f 160/1/158 161/1/159 175/1/159 174/1/158
f 161/1/159 162/1/160 176/1/160 175/1/159
f 162/1/160 163/1/161 177/1/161 176/1/160
f 163/1/161 164/1/162 178/1/162 177/1/161
f 164/1/162 151/1/149 165/1/149 178/1/162
f 165/1/122 166/1/163 180/1/163 179/1/122
f 166/1/163 167/1/164 181/1/164 180/1/163
f 167/1/164 168/1/165 182/1/165 181/1/164
f 168/1/165 169/1/166 183/1/166 182/1/165
f 169/1/166 170/1/167 184/1/167 183/1/166
f 170/1/167 171/1/168 185/1/168 184/1/167
f 171/1/168 172/1/126 186/1/126 185/1/168
f 172/1/126 173/1/169 187/1/169 186/1/126
f 173/1/169 174/1/170 188/1/170 187/1/169
f 174/1/170 175/1/171 189/1/171 188/1/170
f 175/1/171 176/1/172 190/1/172 189/1/171
f 176/1/172 177/1/173 191/1/173 190/1/172
f 177/1/173 178/1/174 192/1/174 191/1/173
f 178/1/174 165/1/122 179/1/122 192/1/174
f 179/1/175 180/1/176 194/1/176 193/1/175
f 180/1/176 181/1/177 195/1/177 194/1/176
f 181/1/177 182/1/178 196/1/178 195/1/177
f 182/1/178 183/1/179 197/1/179 196/1/178
f 183/1/179 184/1/180 198/1/180 197/1/179
f 184/1/180 185/1/181 199/1/181 198/1/180
f 185/1/181 186/1/182 200/1/182 199/1/181
f 186/1/182 187/1/183 201/1/183 200/1/182
f 187/1/183 188/1/184 202/1/184 201/1/183
f 188/1/184 189/1/185 203/1/185 202/1/184
f 189/1/185 190/1/186 204/1/186 203/1/185
f 190/1/186 191/1/187 205/1/187 204/1/186
f 191/1/187 192/1/188 206/1/188 205/1/187
f 192/1/188 179/1/175 193/1/175 206/1/188
f 193/1/189 194/1/190 138/1/190 137/1/189
f 194/1/190 195/1/191 139/1/191 138/1/190
f 195/1/191 196/1/192 140/1/192 139/1/191
f 196/1/192 197/1/193 141/1/193 140/1/192
f 197/1/193 198/1/194 142/1/194 141/1/193
f 198/1/194 199/1/195 143/1/195 142/1/194
f 199/1/195 200/1/196 144/1/196 143/1/195
f 200/1/196 201/1/197 145/1/197 144/1/196
f 201/1/197 202/1/198 146/1/198 145/1/197
f 202/1/198 203/1/199 147/1/199 146/1/198
f 203/1/199 204/1/200 148/1/200 147/1/199
f 204/1/200 205/1/201 149/1/201 148/1/200
f 205/1/201 206/1/202 150/1/202 149/1/201
f 206/1/202 193/1/189 137/1/189 150/1/202
usemtl teal
f 207/1/97 208/1/98 209/1/99
f 210/1/100 211/1/101 212/1/102
f 213/1/103 214/1/104 215/1/105
f 216/1/106 217/1/107 218/1/108
f 219/1/109 220/1/110 221/1/111
f 222/1/112 223/1/113 224/1/114
f 225/1/115 226/1/116 227/1/117
f 228/1/118 229/1/119 230/1/120
f 213/1/103 207/1/97 209/1/99 214/1/104
f 208/1/98 210/1/100 212/1/102 209/1/99
f 211/1/101 216/1/106 218/1/108 212/1/102
f 217/1/107 215/1/105 214/1/104 218/1/108
f 225/1/115 213/1/103 215/1/105 226/1/116
f 216/1/106 228/1/118 230/1/120 217/1/107
f 229/1/119 227/1/117 226/1/116 230/1/120
f 219/1/109 225/1/115 227/1/117 220/1/110
f 228/1/118 222/1/112 224/1/114 229/1/119
f 223/1/113 221/1/111 220/1/110 224/1/114
f 207/1/97 219/1/109 221/1/111 208/1/98
f 222/1/112 211/1/101 210/1/100 223/1/113
f 213/1/121 225/1/121 219/1/121 207/1/121
f 209/1/122 212/1/122 218/1/122 214/1/122
f 221/1/123 223/1/123 210/1/123 208/1/123
f 228/1/203 216/1/203 211/1/203 222/1/203
f 215/1/125 217/1/125 230/1/125 226/1/125
f 227/1/126 229/1/126 224/1/126 220/1/126
f 273/1/97 274/1/98 275/1/99
f 276/1/100 277/1/101 278/1/102
f 279/1/103 280/1/104 281/1/105
f 282/1/106 283/1/107 284/1/108
f 285/1/109 286/1/110 287/1/111
f 288/1/112 289/1/113 290/1/114
f 291/1/115 292/1/116 293/1/117
f 294/1/118 295/1/119 296/1/120
f 279/1/103 273/1/97 275/1/99 280/1/104
f 274/1/98 276/1/100 278/1/102 275/1/99
f 277/1/101 282/1/106 284/1/108 278/1/102
f 283/1/107 281/1/105 280/1/104 284/1/108
f 291/1/115 279/1/103 281/1/105 292/1/116
f 282/1/106 294/1/118 296/1/120 283/1/107
f 295/1/119 293/1/117 292/1/116 296/1/120
f 285/1/109 291/1/115 293/1/117 286/1/110
f 294/1/118 288/1/112 290/1/114 295/1/119
f 289/1/113 287/1/111 286/1/110 290/1/114
f 273/1/97 285/1/109 287/1/111 274/1/98
f 288/1/112 277/1/101 276/1/100 289/1/113
f 279/1/121 291/1/121 285/1/121 273/1/121
f 275/1/122 278/1/122 284/1/122 280/1/122
f 287/1/123 289/1/123 276/1/123 274/1/123
f 294/1/203 282/1/203 277/1/203 288/1/203
f 281/1/125 283/1/125 296/1/125 292/1/125
f 293/1/126 295/1/126 290/1/126 286/1/126
f 339/1/97 340/1/98 341/1/99
f 342/1/100 343/1/101 344/1/102
f 345/1/103 346/1/104 347/1/105
f 348/1/106 349/1/107 350/1/108
f 351/1/109 352/1/110 353/1/111
f 354/1/112 355/1/113 356/1/114
f 357/1/115 358/1/116 359/1/117
f 360/1/118 361/1/119 362/1/120
f 345/1/103 339/1/97 341/1/99 346/1/104
f 340/1/98 342/1/100 344/1/102 341/1/99
f 343/1/101 348/1/106 350/1/108 344/1/102
f 349/1/107 347/1/105 346/1/104 350/1/108
f 357/1/115 345/1/103 347/1/105 358/1/116
f 348/1/106 360/1/118 362/1/120 349/1/107
f 361/1/119 359/1/117 358/1/116 362/1/120
f 351/1/109 357/1/115 359/1/117 352/1/110
f 360/1/118 354/1/112 356/1/114 361/1/119
f 355/1/113 353/1/111 352/1/110 356/1/114
f 339/1/97 351/1/109 353/1/111 340/1/98
f 354/1/112 343/1/101 342/1/100 355/1/113
f 345/1/121 357/1/121 351/1/121 339/1/121
f 341/1/122 344/1/122 350/1/122 346/1/122
f 353/1/123 355/1/123 342/1/123 340/1/123
f 360/1/203 348/1/203 343/1/203 354/1/203
f 347/1/125 349/1/125 362/1/125 358/1/125
f 359/1/126 361/1/126 356/1/126 352/1/126
f 405/1/97 406/1/98 407/1/99
f 408/1/100 409/1/101 410/1/102
f 411/1/103 412/1/104 413/1/105
f 414/1/106 415/1/107 416/1/108
f 417/1/109 418/1/110 419/1/111
f 420/1/112 421/1/113 422/1/114
f 423/1/115 424/1/116 425/1/117
f 426/1/118 427/1/119 428/1/120
f 411/1/103 405/1/97 407/1/99 412/1/104
f 406/1/98 408/1/100 410/1/102 407/1/99
f 409/1/101 414/1/106 416/1/108 410/1/102
f 415/1/107 413/1/105 412/1/104 416/1/108
f 423/1/115 411/1/103 413/1/105 424/1/116
f 414/1/106 426/1/118 428/1/120 415/1/107
f 427/1/119 425/1/117 424/1/116 428/1/120
f 417/1/109 423/1/115 425/1/117 418/1/110
f 426/1/118 420/1/112 422/1/114 427/1/119
f 421/1/113 419/1/111 418/1/110 422/1/114
f 405/1/97 417/1/109 419/1/111 406/1/98
f 420/1/112 409/1/101 408/1/100 421/1/113
f 411/1/121 423/1/121 417/1/121 405/1/121
f 407/1/122 410/1/122 416/1/122 412/1/122
f 419/1/123 421/1/123 408/1/123 406/1/123
f 426/1/203 414/1/203 409/1/203 420/1/203
f 413/1/125 415/1/125 428/1/125 424/1/125
f 425/1/126 427/1/126 422/1/126 418/1/126
usemtl navy
f 231/1/97 232/1/98 233/1/99
f 234/1/100 235/1/101 236/1/102
f 237/1/103 238/1/104 239/1/105
f 240/1/106 241/1/107 242/1/108
f 243/1/109 244/1/110 245/1/111
f 246/1/112 247/1/113 248/1/114
f 249/1/115 250/1/116 251/1/117
f 252/1/118 253/1/119 254/1/120
f 237/1/103 231/1/97 233/1/99 238/1/104
f 232/1/98 234/1/100 236/1/102 233/1/99
f 235/1/101 240/1/106 242/1/108 236/1/102
f 241/1/107 239/1/105 238/1/104 242/1/108
f 249/1/115 237/1/103 239/1/105 250/1/116
f 240/1/106 252/1/118 254/1/120 241/1/107
f 253/1/119 251/1/117 250/1/116 254/1/120
f 243/1/109 249/1/115 251/1/117 244/1/110
f 252/1/118 246/1/112 248/1/114 253/1/119
f 247/1/113 245/1/111 244/1/110 248/1/114
f 231/1/97 243/1/109 245/1/111 232/1/98
f 246/1/112 235/1/101 234/1/100 247/1/113
f 237/1/121 249/1/121 243/1/121 231/1/121
f 233/1/122 236/1/122 242/1/122 238/1/122
f 245/1/123 247/1/123 234/1/123 232/1/123
f 252/1/203 240/1/203 235/1/203 246/1/203
f 239/1/125 241/1/125 254/1/125 250/1/125
f 251/1/126 253/1/126 248/1/126 244/1/126
f 297/1/97 298/1/98 299/1/99
f 300/1/100 301/1/101 302/1/102
f 303/1/103 304/1/104 305/1/105
f 306/1/106 307/1/107 308/1/108
f 309/1/109 310/1/110 311/1/111
f 312/1/112 313/1/113 314/1/114
f 315/1/115 316/1/116 317/1/117
f 318/1/118 319/1/119 320/1/120
f 303/1/103 297/1/97 299/1/99 304/1/104
f 298/1/98 300/1/100 302/1/102 299/1/99
f 301/1/101 306/1/106 308/1/108 302/1/102
f 307/1/107 305/1/105 304/1/104 308/1/108
f 315/1/115 303/1/103 305/1/105 316/1/116
f 306/1/106 318/1/118 320/1/120 307/1/107
f 319/1/119 317/1/117 316/1/116 320/1/120
f 309/1/109 315/1/115 317/1/117 310/1/110
f 318/1/118 312/1/112 314/1/114 319/1/119
f 313/1/113 311/1/111 310/1/110 314/1/114
f 297/1/97 309/1/109 311/1/111 298/1/98
f 312/1/112 301/1/101 300/1/100 313/1/113
f 303/1/121 315/1/121 309/1/121 297/1/121
f 299/1/122 302/1/122 308/1/122 304/1/122
f 311/1/123 313/1/123 300/1/123 298/1/123
f 318/1/203 306/1/203 301/1/203 312/1/203
f 305/1/125 307/1/125 320/1/125 316/1/125
f 317/1/126 319/1/126 314/1/126 310/1/126
f 363/1/97 364/1/98 365/1/99
f 366/1/100 367/1/101 368/1/102
f 369/1/103 370/1/104 371/1/105
f 372/1/106 373/1/107 374/1/108
f 375/1/109 376/1/110 377/1/111
f 378/1/112 379/1/113 380/1/114
f 381/1/115 382/1/116 383/1/117
f 384/1/118 385/1/119 386/1/120
f 369/1/103 363/1/97 365/1/99 370/1/104
f 364/1/98 366/1/100 368/1/102 365/1/99
f 367/1/101 372/1/106 374/1/108 368/1/102
f 373/1/107 371/1/105 370/1/104 374/1/108
f 381/1/115 369/1/103 371/1/105 382/1/116
f 372/1/106 384/1/118 386/1/120 373/1/107
f 385/1/119 383/1/117 382/1/116 386/1/120
f 375/1/109 381/1/115 383/1/117 376/1/110
f 384/1/118 378/1/112 380/1/114 385/1/119
f 379/1/113 377/1/111 376/1/110 380/1/114
f 363/1/97 375/1/109 377/1/111 364/1/98
f 378/1/112 367/1/101 366/1/100 379/1/113
f 369/1/219 381/1/219 375/1/219 363/1/219
f 365/1/122 368/1/122 374/1/122 370/1/122
f 377/1/123 379/1/123 366/1/123 364/1/123
f 384/1/124 372/1/124 367/1/124 378/1/124
f 371/1/125 373/1/125 386/1/125 382/1/125
f 383/1/126 385/1/126 380/1/126 376/1/126
f 429/1/97 430/1/98 431/1/99
f 432/1/100 433/1/101 434/1/102
f 435/1/103 436/1/104 437/1/105
f 438/1/106 439/1/107 440/1/108
f 441/1/109 442/1/110 443/1/111
f 444/1/112 445/1/113 446/1/114
f 447/1/115 448/1/116 449/1/117
f 450/1/118 451/1/119 452/1/120
f 435/1/103 429/1/97 431/1/99 436/1/104
f 430/1/98 432/1/100 434/1/102 431/1/99
f 433/1/101 438/1/106 440/1/108 434/1/102
f 439/1/107 437/1/105 436/1/104 440/1/108
f 447/1/115 435/1/103 437/1/105 448/1/116
f 438/1/106 450/1/118 452/1/120 439/1/107
f 451/1/119 449/1/117 448/1/116 452/1/120
f 441/1/109 447/1/115 449/1/117 442/1/110
f 450/1/118 444/1/112 446/1/114 451/1/119
f 445/1/113 443/1/111 442/1/110 446/1/114
f 429/1/97 441/1/109 443/1/111 430/1/98
f 444/1/112 433/1/101 432/1/100 445/1/113
f 435/1/121 447/1/121 441/1/121 429/1/121
f 431/1/122 434/1/122 440/1/122 436/1/122
f 443/1/123 445/1/123 432/1/123 430/1/123
f 450/1/124 438/1/124 433/1/124 444/1/124
f 437/1/125 439/1/125 452/1/125 448/1/125
f 449/1/126 451/1/126 446/1/126 442/1/126
usemtl ketchup
f 260/2/204 258/3/204 259/4/204
f 260/2/204 257/5/204 258/3/204
f 255/1/204 257/5/204 260/2/204
f 255/1/204 256/6/204 257/5/204
f 263/5/205 265/4/206 264/3/206
f 263/5/205 266/2/206 265/4/206
f 262/6/206 266/2/206 263/5/205
f 262/6/206 261/1/206 266/2/206
f 261/7/207 267/8/207 272/9/207 266/10/207
f 262/11/208 268/12/208 267/13/208 261/1/208
f 263/14/209 269/15/209 268/12/209 262/11/209
f 264/16/210 270/17/210 269/15/210 263/14/210
f 265/18/211 271/19/211 270/17/211 264/16/211
f 266/10/212 272/9/212 271/19/212 265/18/212
f 267/8/213 255/20/213 260/21/213 272/9/213
f 268/12/214 256/22/214 255/2/214 267/13/214
f 269/15/215 257/23/215 256/22/215 268/12/215
f 270/17/216 258/24/216 257/23/216 269/15/216
f 271/19/217 259/25/217 258/24/217 270/17/217
f 272/9/218 260/21/218 259/25/218 271/19/218
f 326/2/204 324/3/204 325/4/204
f 326/2/204 323/5/204 324/3/204
f 321/1/204 323/5/204 326/2/204
f 321/1/204 322/6/204 323/5/204
f 329/5/206 331/4/205 330/3/206
f 329/5/206 332/2/205 331/4/205
f 328/6/206 332/2/205 329/5/206
f 328/6/206 327/1/205 332/2/205
f 327/7/207 333/8/207 338/9/207 332/10/207
f 328/11/208 334/12/208 333/13/208 327/1/208
f 329/14/209 335/15/209 334/12/209 328/11/209
f 330/16/210 336/17/210 335/15/210 329/14/210
f 331/18/211 337/19/211 336/17/211 330/16/211
f 332/10/212 338/9/212 337/19/212 331/18/212
f 333/8/213 321/20/213 326/21/213 338/9/213
f 334/12/214 322/22/214 321/2/214 333/13/214
f 335/15/215 323/23/215 322/22/215 334/12/215
f 336/17/216 324/24/216 323/23/216 335/15/216
f 337/19/217 325/25/217 324/24/217 336/17/217
f 338/9/218 326/21/218 325/25/218 337/19/218
f 392/2/204 390/3/204 391/4/204
f 392/2/204 389/5/204 390/3/204
f 387/1/204 389/5/204 392/2/204
f 387/1/204 388/6/204 389/5/204
f 395/5/205 397/4/205 396/3/205
f 395/5/205 398/2/205 397/4/205
f 394/6/205 398/2/205 395/5/205
f 394/6/205 393/1/205 398/2/205
f 393/7/207 399/8/207 404/9/207 398/10/207
f 394/11/208 400/12/208 399/13/208 393/1/208
f 395/14/209 401/15/209 400/12/209 394/11/209
f 396/16/210 402/17/210 401/15/210 395/14/210
f 397/18/211 403/19/211 402/17/211 396/16/211
f 398/10/212 404/9/212 403/19/212 397/18/212
f 399/8/213 387/20/213 392/21/213 404/9/213
f 400/12/214 388/22/214 387/2/214 399/13/214
f 401/15/215 389/23/215 388/22/215 400/12/215
f 402/17/216 390/24/216 389/23/216 401/15/216
f 403/19/217 391/25/217 390/24/217 402/17/217
f 404/9/218 392/21/218 391/25/218 403/19/218
