# Blender 5.0.1
# www.blender.org
mtllib LampPost.mtl
o LampPost
v 0.000000 0.000000 0.000000 0.1843 0.2902 0.2667
v 0.683671 0.000000 -0.283186 0.1843 0.2902 0.2667
v 0.283186 0.000000 -0.683671 0.1843 0.2902 0.2667
v -0.283186 0.000000 -0.683671 0.1843 0.2902 0.2667
v -0.683671 0.000000 -0.283186 0.1843 0.2902 0.2667
v -0.683671 0.000000 0.283186 0.1843 0.2902 0.2667
v -0.283186 0.000000 0.683671 0.1843 0.2902 0.2667
v 0.283186 0.000000 0.683671 0.1843 0.2902 0.2667
v 0.683671 0.000000 0.283186 0.1843 0.2902 0.2667
v 0.683671 0.220000 -0.283186 0.1843 0.2902 0.2667
v 0.283186 0.220000 -0.683671 0.1843 0.2902 0.2667
v -0.283186 0.220000 -0.683671 0.1843 0.2902 0.2667
v -0.683671 0.220000 -0.283186 0.1843 0.2902 0.2667
v -0.683671 0.220000 0.283186 0.1843 0.2902 0.2667
v -0.283186 0.220000 0.683671 0.1843 0.2902 0.2667
v 0.283186 0.220000 0.683671 0.1843 0.2902 0.2667
v 0.683671 0.220000 0.283186 0.1843 0.2902 0.2667
v 0.554328 0.300000 -0.229610 0.1843 0.2902 0.2667
v 0.229610 0.300000 -0.554328 0.1843 0.2902 0.2667
v -0.229610 0.300000 -0.554328 0.1843 0.2902 0.2667
v -0.554328 0.300000 -0.229610 0.1843 0.2902 0.2667
v -0.554328 0.300000 0.229610 0.1843 0.2902 0.2667
v -0.229610 0.300000 0.554328 0.1843 0.2902 0.2667
v 0.229610 0.300000 0.554328 0.1843 0.2902 0.2667
v 0.554328 0.300000 0.229610 0.1843 0.2902 0.2667
v 0.480417 0.800000 -0.198995 0.1843 0.2902 0.2667
v 0.198995 0.800000 -0.480417 0.1843 0.2902 0.2667
v -0.198995 0.800000 -0.480417 0.1843 0.2902 0.2667
v -0.480417 0.800000 -0.198995 0.1843 0.2902 0.2667
v -0.480417 0.800000 0.198995 0.1843 0.2902 0.2667
v -0.198995 0.800000 0.480417 0.1843 0.2902 0.2667
v 0.198995 0.800000 0.480417 0.1843 0.2902 0.2667
v 0.480417 0.800000 0.198995 0.1843 0.2902 0.2667
v 0.314119 1.150000 -0.130112 0.1843 0.2902 0.2667
v 0.130112 1.150000 -0.314119 0.1843 0.2902 0.2667
v -0.130112 1.150000 -0.314119 0.1843 0.2902 0.2667
v -0.314119 1.150000 -0.130112 0.1843 0.2902 0.2667
v -0.314119 1.150000 0.130112 0.1843 0.2902 0.2667
v -0.130112 1.150000 0.314119 0.1843 0.2902 0.2667
v 0.130112 1.150000 0.314119 0.1843 0.2902 0.2667
v 0.314119 1.150000 0.130112 0.1843 0.2902 0.2667
v 0.221731 1.500000 -0.091844 0.1843 0.2902 0.2667
v 0.091844 1.500000 -0.221731 0.1843 0.2902 0.2667
v -0.091844 1.500000 -0.221731 0.1843 0.2902 0.2667
v -0.221731 1.500000 -0.091844 0.1843 0.2902 0.2667
v -0.221731 1.500000 0.091844 0.1843 0.2902 0.2667
v -0.091844 1.500000 0.221731 0.1843 0.2902 0.2667
v 0.091844 1.500000 0.221731 0.1843 0.2902 0.2667
v 0.221731 1.500000 0.091844 0.1843 0.2902 0.2667
v 0.000000 1.500000 0.000000 0.1843 0.2902 0.2667
v 0.000000 1.500000 -0.130000 0.1843 0.2902 0.2667
v 0.000000 8.200000 -0.130000 0.1843 0.2902 0.2667
v 0.065000 1.500000 -0.112583 0.1843 0.2902 0.2667
v 0.065000 8.200000 -0.112583 0.1843 0.2902 0.2667
v 0.112583 1.500000 -0.065000 0.1843 0.2902 0.2667
v 0.112583 8.200000 -0.065000 0.1843 0.2902 0.2667
v 0.130000 1.500000 0.000000 0.1843 0.2902 0.2667
v 0.130000 8.200000 0.000000 0.1843 0.2902 0.2667
v 0.112583 1.500000 0.065000 0.1843 0.2902 0.2667
v 0.112583 8.200000 0.065000 0.1843 0.2902 0.2667
v 0.065000 1.500000 0.112583 0.1843 0.2902 0.2667
v 0.065000 8.200000 0.112583 0.1843 0.2902 0.2667
v -0.000000 1.500000 0.130000 0.1843 0.2902 0.2667
v -0.000000 8.200000 0.130000 0.1843 0.2902 0.2667
v -0.065000 1.500000 0.112583 0.1843 0.2902 0.2667
v -0.065000 8.200000 0.112583 0.1843 0.2902 0.2667
v -0.112583 1.500000 0.065000 0.1843 0.2902 0.2667
v -0.112583 8.200000 0.065000 0.1843 0.2902 0.2667
v -0.130000 1.500000 -0.000000 0.1843 0.2902 0.2667
v -0.130000 8.200000 -0.000000 0.1843 0.2902 0.2667
v -0.112583 1.500000 -0.065000 0.1843 0.2902 0.2667
v -0.112583 8.200000 -0.065000 0.1843 0.2902 0.2667
v -0.065000 1.500000 -0.112583 0.1843 0.2902 0.2667
v -0.065000 8.200000 -0.112583 0.1843 0.2902 0.2667
v 0.200000 1.550000 0.000000 0.9098 0.6980 0.2275
v 0.180194 1.550000 -0.086777 0.9098 0.6980 0.2275
v 0.124698 1.550000 -0.156366 0.9098 0.6980 0.2275
v 0.044504 1.550000 -0.194986 0.9098 0.6980 0.2275
v -0.044504 1.550000 -0.194986 0.9098 0.6980 0.2275
v -0.124698 1.550000 -0.156366 0.9098 0.6980 0.2275
v -0.180194 1.550000 -0.086777 0.9098 0.6980 0.2275
v -0.200000 1.550000 0.000000 0.9098 0.6980 0.2275
v -0.180194 1.550000 0.086777 0.9098 0.6980 0.2275
v -0.124698 1.550000 0.156366 0.9098 0.6980 0.2275
v -0.044504 1.550000 0.194986 0.9098 0.6980 0.2275
v 0.044504 1.550000 0.194986 0.9098 0.6980 0.2275
v 0.124698 1.550000 0.156366 0.9098 0.6980 0.2275
v 0.180194 1.550000 0.086777 0.9098 0.6980 0.2275
v 0.165451 1.597553 0.000000 0.9098 0.6980 0.2275
v 0.149066 1.597553 -0.071786 0.9098 0.6980 0.2275
v 0.103157 1.597553 -0.129355 0.9098 0.6980 0.2275
v 0.036816 1.597553 -0.161303 0.9098 0.6980 0.2275
v -0.036816 1.597553 -0.161303 0.9098 0.6980 0.2275
v -0.103157 1.597553 -0.129355 0.9098 0.6980 0.2275
v -0.149066 1.597553 -0.071786 0.9098 0.6980 0.2275
v -0.165451 1.597553 0.000000 0.9098 0.6980 0.2275
v -0.149066 1.597553 0.071786 0.9098 0.6980 0.2275
v -0.103157 1.597553 0.129355 0.9098 0.6980 0.2275
v -0.036816 1.597553 0.161303 0.9098 0.6980 0.2275
v 0.036816 1.597553 0.161303 0.9098 0.6980 0.2275
v 0.103157 1.597553 0.129355 0.9098 0.6980 0.2275
v 0.149066 1.597553 0.071786 0.9098 0.6980 0.2275
v 0.109549 1.579389 0.000000 0.9098 0.6980 0.2275
v 0.098700 1.579389 -0.047532 0.9098 0.6980 0.2275
v 0.068303 1.579389 -0.085649 0.9098 0.6980 0.2275
v 0.024377 1.579389 -0.106803 0.9098 0.6980 0.2275
v -0.024377 1.579389 -0.106803 0.9098 0.6980 0.2275
v -0.068303 1.579389 -0.085649 0.9098 0.6980 0.2275
v -0.098700 1.579389 -0.047532 0.9098 0.6980 0.2275
v -0.109549 1.579389 0.000000 0.9098 0.6980 0.2275
v -0.098700 1.579389 0.047532 0.9098 0.6980 0.2275
v -0.068303 1.579389 0.085649 0.9098 0.6980 0.2275
v -0.024377 1.579389 0.106803 0.9098 0.6980 0.2275
v 0.024377 1.579389 0.106803 0.9098 0.6980 0.2275
v 0.068303 1.579389 0.085649 0.9098 0.6980 0.2275
v 0.098700 1.579389 0.047532 0.9098 0.6980 0.2275
v 0.109549 1.520611 0.000000 0.9098 0.6980 0.2275
v 0.098700 1.520611 -0.047532 0.9098 0.6980 0.2275
v 0.068303 1.520611 -0.085649 0.9098 0.6980 0.2275
v 0.024377 1.520611 -0.106803 0.9098 0.6980 0.2275
v -0.024377 1.520611 -0.106803 0.9098 0.6980 0.2275
v -0.068303 1.520611 -0.085649 0.9098 0.6980 0.2275
v -0.098700 1.520611 -0.047532 0.9098 0.6980 0.2275
v -0.109549 1.520611 0.000000 0.9098 0.6980 0.2275
v -0.098700 1.520611 0.047532 0.9098 0.6980 0.2275
v -0.068303 1.520611 0.085649 0.9098 0.6980 0.2275
v -0.024377 1.520611 0.106803 0.9098 0.6980 0.2275
v 0.024377 1.520611 0.106803 0.9098 0.6980 0.2275
v 0.068303 1.520611 0.085649 0.9098 0.6980 0.2275
v 0.098700 1.520611 0.047532 0.9098 0.6980 0.2275
v 0.165451 1.502447 0.000000 0.9098 0.6980 0.2275
v 0.149066 1.502447 -0.071786 0.9098 0.6980 0.2275
v 0.103157 1.502447 -0.129355 0.9098 0.6980 0.2275
v 0.036816 1.502447 -0.161303 0.9098 0.6980 0.2275
v -0.036816 1.502447 -0.161303 0.9098 0.6980 0.2275
v -0.103157 1.502447 -0.129355 0.9098 0.6980 0.2275
v -0.149066 1.502447 -0.071786 0.9098 0.6980 0.2275
v -0.165451 1.502447 0.000000 0.9098 0.6980 0.2275
v -0.149066 1.502447 0.071786 0.9098 0.6980 0.2275
v -0.103157 1.502447 0.129355 0.9098 0.6980 0.2275
v -0.036816 1.502447 0.161303 0.9098 0.6980 0.2275
v 0.036816 1.502447 0.161303 0.9098 0.6980 0.2275
v 0.103157 1.502447 0.129355 0.9098 0.6980 0.2275
v 0.149066 1.502447 0.071786 0.9098 0.6980 0.2275
v 0.200000 4.600000 0.000000 0.9098 0.6980 0.2275
v 0.180194 4.600000 -0.086777 0.9098 0.6980 0.2275
v 0.124698 4.600000 -0.156366 0.9098 0.6980 0.2275
v 0.044504 4.600000 -0.194986 0.9098 0.6980 0.2275
v -0.044504 4.600000 -0.194986 0.9098 0.6980 0.2275
v -0.124698 4.600000 -0.156366 0.9098 0.6980 0.2275
v -0.180194 4.600000 -0.086777 0.9098 0.6980 0.2275
v -0.200000 4.600000 0.000000 0.9098 0.6980 0.2275
v -0.180194 4.600000 0.086777 0.9098 0.6980 0.2275
v -0.124698 4.600000 0.156366 0.9098 0.6980 0.2275
v -0.044504 4.600000 0.194986 0.9098 0.6980 0.2275
v 0.044504 4.600000 0.194986 0.9098 0.6980 0.2275
v 0.124698 4.600000 0.156366 0.9098 0.6980 0.2275
v 0.180194 4.600000 0.086777 0.9098 0.6980 0.2275
v 0.165451 4.647552 0.000000 0.9098 0.6980 0.2275
v 0.149066 4.647552 -0.071786 0.9098 0.6980 0.2275
v 0.103157 4.647552 -0.129355 0.9098 0.6980 0.2275
v 0.036816 4.647552 -0.161303 0.9098 0.6980 0.2275
v -0.036816 4.647552 -0.161303 0.9098 0.6980 0.2275
v -0.103157 4.647552 -0.129355 0.9098 0.6980 0.2275
v -0.149066 4.647552 -0.071786 0.9098 0.6980 0.2275
v -0.165451 4.647552 0.000000 0.9098 0.6980 0.2275
v -0.149066 4.647552 0.071786 0.9098 0.6980 0.2275
v -0.103157 4.647552 0.129355 0.9098 0.6980 0.2275
v -0.036816 4.647552 0.161303 0.9098 0.6980 0.2275
v 0.036816 4.647552 0.161303 0.9098 0.6980 0.2275
v 0.103157 4.647552 0.129355 0.9098 0.6980 0.2275
v 0.149066 4.647552 0.071786 0.9098 0.6980 0.2275
v 0.109549 4.629389 0.000000 0.9098 0.6980 0.2275
v 0.098700 4.629389 -0.047532 0.9098 0.6980 0.2275
v 0.068303 4.629389 -0.085649 0.9098 0.6980 0.2275
v 0.024377 4.629389 -0.106803 0.9098 0.6980 0.2275
v -0.024377 4.629389 -0.106803 0.9098 0.6980 0.2275
v -0.068303 4.629389 -0.085649 0.9098 0.6980 0.2275
v -0.098700 4.629389 -0.047532 0.9098 0.6980 0.2275
v -0.109549 4.629389 0.000000 0.9098 0.6980 0.2275
v -0.098700 4.629389 0.047532 0.9098 0.6980 0.2275
v -0.068303 4.629389 0.085649 0.9098 0.6980 0.2275
v -0.024377 4.629389 0.106803 0.9098 0.6980 0.2275
v 0.024377 4.629389 0.106803 0.9098 0.6980 0.2275
v 0.068303 4.629389 0.085649 0.9098 0.6980 0.2275
v 0.098700 4.629389 0.047532 0.9098 0.6980 0.2275
v 0.109549 4.570611 0.000000 0.9098 0.6980 0.2275
v 0.098700 4.570611 -0.047532 0.9098 0.6980 0.2275
v 0.068303 4.570611 -0.085649 0.9098 0.6980 0.2275
v 0.024377 4.570611 -0.106803 0.9098 0.6980 0.2275
v -0.024377 4.570611 -0.106803 0.9098 0.6980 0.2275
v -0.068303 4.570611 -0.085649 0.9098 0.6980 0.2275
v -0.098700 4.570611 -0.047532 0.9098 0.6980 0.2275
v -0.109549 4.570611 0.000000 0.9098 0.6980 0.2275
v -0.098700 4.570611 0.047532 0.9098 0.6980 0.2275
v -0.068303 4.570611 0.085649 0.9098 0.6980 0.2275
v -0.024377 4.570611 0.106803 0.9098 0.6980 0.2275
v 0.024377 4.570611 0.106803 0.9098 0.6980 0.2275
v 0.068303 4.570611 0.085649 0.9098 0.6980 0.2275
v 0.098700 4.570611 0.047532 0.9098 0.6980 0.2275
v 0.165451 4.552447 0.000000 0.9098 0.6980 0.2275
v 0.149066 4.552447 -0.071786 0.9098 0.6980 0.2275
v 0.103157 4.552447 -0.129355 0.9098 0.6980 0.2275
v 0.036816 4.552447 -0.161303 0.9098 0.6980 0.2275
v -0.036816 4.552447 -0.161303 0.9098 0.6980 0.2275
v -0.103157 4.552447 -0.129355 0.9098 0.6980 0.2275
v -0.149066 4.552447 -0.071786 0.9098 0.6980 0.2275
v -0.165451 4.552447 0.000000 0.9098 0.6980 0.2275
v -0.149066 4.552447 0.071786 0.9098 0.6980 0.2275
v -0.103157 4.552447 0.129355 0.9098 0.6980 0.2275
v -0.036816 4.552447 0.161303 0.9098 0.6980 0.2275
v 0.036816 4.552447 0.161303 0.9098 0.6980 0.2275
v 0.103157 4.552447 0.129355 0.9098 0.6980 0.2275
v 0.149066 4.552447 0.071786 0.9098 0.6980 0.2275
v 0.200000 8.150000 0.000000 0.9098 0.6980 0.2275
v 0.180194 8.150000 -0.086777 0.9098 0.6980 0.2275
v 0.124698 8.150000 -0.156366 0.9098 0.6980 0.2275
v 0.044504 8.150000 -0.194986 0.9098 0.6980 0.2275
v -0.044504 8.150000 -0.194986 0.9098 0.6980 0.2275
v -0.124698 8.150000 -0.156366 0.9098 0.6980 0.2275
v -0.180194 8.150000 -0.086777 0.9098 0.6980 0.2275
v -0.200000 8.150000 0.000000 0.9098 0.6980 0.2275
v -0.180194 8.150000 0.086777 0.9098 0.6980 0.2275
v -0.124698 8.150000 0.156366 0.9098 0.6980 0.2275
v -0.044504 8.150000 0.194986 0.9098 0.6980 0.2275
v 0.044504 8.150000 0.194986 0.9098 0.6980 0.2275
v 0.124698 8.150000 0.156366 0.9098 0.6980 0.2275
v 0.180194 8.150000 0.086777 0.9098 0.6980 0.2275
v 0.165451 8.197553 0.000000 0.9098 0.6980 0.2275
v 0.149066 8.197553 -0.071786 0.9098 0.6980 0.2275
v 0.103157 8.197553 -0.129355 0.9098 0.6980 0.2275
v 0.036816 8.197553 -0.161303 0.9098 0.6980 0.2275
v -0.036816 8.197553 -0.161303 0.9098 0.6980 0.2275
v -0.103157 8.197553 -0.129355 0.9098 0.6980 0.2275
v -0.149066 8.197553 -0.071786 0.9098 0.6980 0.2275
v -0.165451 8.197553 0.000000 0.9098 0.6980 0.2275
v -0.149066 8.197553 0.071786 0.9098 0.6980 0.2275
v -0.103157 8.197553 0.129355 0.9098 0.6980 0.2275
v -0.036816 8.197553 0.161303 0.9098 0.6980 0.2275
v 0.036816 8.197553 0.161303 0.9098 0.6980 0.2275
v 0.103157 8.197553 0.129355 0.9098 0.6980 0.2275
v 0.149066 8.197553 0.071786 0.9098 0.6980 0.2275
v 0.109549 8.179389 0.000000 0.9098 0.6980 0.2275
v 0.098700 8.179389 -0.047532 0.9098 0.6980 0.2275
v 0.068303 8.179389 -0.085649 0.9098 0.6980 0.2275
v 0.024377 8.179389 -0.106803 0.9098 0.6980 0.2275
v -0.024377 8.179389 -0.106803 0.9098 0.6980 0.2275
v -0.068303 8.179389 -0.085649 0.9098 0.6980 0.2275
v -0.098700 8.179389 -0.047532 0.9098 0.6980 0.2275
v -0.109549 8.179389 0.000000 0.9098 0.6980 0.2275
v -0.098700 8.179389 0.047532 0.9098 0.6980 0.2275
v -0.068303 8.179389 0.085649 0.9098 0.6980 0.2275
v -0.024377 8.179389 0.106803 0.9098 0.6980 0.2275
v 0.024377 8.179389 0.106803 0.9098 0.6980 0.2275
v 0.068303 8.179389 0.085649 0.9098 0.6980 0.2275
v 0.098700 8.179389 0.047532 0.9098 0.6980 0.2275
v 0.109549 8.120610 0.000000 0.9098 0.6980 0.2275
v 0.098700 8.120610 -0.047532 0.9098 0.6980 0.2275
v 0.068303 8.120610 -0.085649 0.9098 0.6980 0.2275
v 0.024377 8.120610 -0.106803 0.9098 0.6980 0.2275
v -0.024377 8.120610 -0.106803 0.9098 0.6980 0.2275
v -0.068303 8.120610 -0.085649 0.9098 0.6980 0.2275
v -0.098700 8.120610 -0.047532 0.9098 0.6980 0.2275
v -0.109549 8.120610 0.000000 0.9098 0.6980 0.2275
v -0.098700 8.120610 0.047532 0.9098 0.6980 0.2275
v -0.068303 8.120610 0.085649 0.9098 0.6980 0.2275
v -0.024377 8.120610 0.106803 0.9098 0.6980 0.2275
v 0.024377 8.120610 0.106803 0.9098 0.6980 0.2275
v 0.068303 8.120610 0.085649 0.9098 0.6980 0.2275
v 0.098700 8.120610 0.047532 0.9098 0.6980 0.2275
v 0.165451 8.102447 0.000000 0.9098 0.6980 0.2275
v 0.149066 8.102447 -0.071786 0.9098 0.6980 0.2275
v 0.103157 8.102447 -0.129355 0.9098 0.6980 0.2275
v 0.036816 8.102447 -0.161303 0.9098 0.6980 0.2275
v -0.036816 8.102447 -0.161303 0.9098 0.6980 0.2275
v -0.103157 8.102447 -0.129355 0.9098 0.6980 0.2275
v -0.149066 8.102447 -0.071786 0.9098 0.6980 0.2275
v -0.165451 8.102447 0.000000 0.9098 0.6980 0.2275
v -0.149066 8.102447 0.071786 0.9098 0.6980 0.2275
v -0.103157 8.102447 0.129355 0.9098 0.6980 0.2275
v -0.036816 8.102447 0.161303 0.9098 0.6980 0.2275
v 0.036816 8.102447 0.161303 0.9098 0.6980 0.2275
v 0.103157 8.102447 0.129355 0.9098 0.6980 0.2275
v 0.149066 8.102447 0.071786 0.9098 0.6980 0.2275
v 0.130000 8.100000 0.000000 0.1843 0.2902 0.2667
v 0.112583 8.100000 -0.065000 0.1843 0.2902 0.2667
v 0.065000 8.100000 -0.112583 0.1843 0.2902 0.2667
v 0.000000 8.100000 -0.130000 0.1843 0.2902 0.2667
v -0.065000 8.100000 -0.112583 0.1843 0.2902 0.2667
v -0.112583 8.100000 -0.065000 0.1843 0.2902 0.2667
v -0.130000 8.100000 -0.000000 0.1843 0.2902 0.2667
v -0.112583 8.100000 0.065000 0.1843 0.2902 0.2667
v -0.065000 8.100000 0.112583 0.1843 0.2902 0.2667
v -0.000000 8.100000 0.130000 0.1843 0.2902 0.2667
v 0.065000 8.100000 0.112583 0.1843 0.2902 0.2667
v 0.112583 8.100000 0.065000 0.1843 0.2902 0.2667
v 0.220000 8.250000 0.000000 0.1843 0.2902 0.2667
v 0.190526 8.250000 -0.110000 0.1843 0.2902 0.2667
v 0.110000 8.250000 -0.190526 0.1843 0.2902 0.2667
v 0.000000 8.250000 -0.220000 0.1843 0.2902 0.2667
v -0.110000 8.250000 -0.190526 0.1843 0.2902 0.2667
v -0.190526 8.250000 -0.110000 0.1843 0.2902 0.2667
v -0.220000 8.250000 0.000000 0.1843 0.2902 0.2667
v -0.190526 8.250000 0.110000 0.1843 0.2902 0.2667
v -0.110000 8.250000 0.190526 0.1843 0.2902 0.2667
v 0.000000 8.250000 0.220000 0.1843 0.2902 0.2667
v 0.110000 8.250000 0.190526 0.1843 0.2902 0.2667
v 0.190526 8.250000 0.110000 0.1843 0.2902 0.2667
v 0.420000 8.450001 0.000000 0.1843 0.2902 0.2667
v 0.363731 8.450001 -0.210000 0.1843 0.2902 0.2667
v 0.210000 8.450001 -0.363731 0.1843 0.2902 0.2667
v 0.000000 8.450001 -0.420000 0.1843 0.2902 0.2667
v -0.210000 8.450001 -0.363731 0.1843 0.2902 0.2667
v -0.363731 8.450001 -0.210000 0.1843 0.2902 0.2667
v -0.420000 8.450001 0.000000 0.1843 0.2902 0.2667
v -0.363731 8.450001 0.210000 0.1843 0.2902 0.2667
v -0.210000 8.450001 0.363731 0.1843 0.2902 0.2667
v 0.000000 8.450001 0.420000 0.1843 0.2902 0.2667
v 0.210000 8.450001 0.363731 0.1843 0.2902 0.2667
v 0.363731 8.450001 0.210000 0.1843 0.2902 0.2667
v 0.450000 8.550000 0.000000 0.1843 0.2902 0.2667
v 0.389711 8.550000 -0.225000 0.1843 0.2902 0.2667
v 0.225000 8.550000 -0.389711 0.1843 0.2902 0.2667
v 0.000000 8.550000 -0.450000 0.1843 0.2902 0.2667
v -0.225000 8.550000 -0.389711 0.1843 0.2902 0.2667
v -0.389711 8.550000 -0.225000 0.1843 0.2902 0.2667
v -0.450000 8.550000 0.000000 0.1843 0.2902 0.2667
v -0.389711 8.550000 0.225000 0.1843 0.2902 0.2667
v -0.225000 8.550000 0.389711 0.1843 0.2902 0.2667
v 0.000000 8.550000 0.450000 0.1843 0.2902 0.2667
v 0.225000 8.550000 0.389711 0.1843 0.2902 0.2667
v 0.389711 8.550000 0.225000 0.1843 0.2902 0.2667
v 0.000000 8.550000 0.000000 0.1843 0.2902 0.2667
v 0.165881 8.378650 -0.190629 0.1843 0.2902 0.2667
v 0.190629 8.378650 -0.165881 0.1843 0.2902 0.2667
v 0.218218 8.400000 -0.168720 0.1843 0.2902 0.2667
v 0.221058 8.421350 -0.196309 0.1843 0.2902 0.2667
v 0.196309 8.421350 -0.221058 0.1843 0.2902 0.2667
v 0.168720 8.400000 -0.218218 0.1843 0.2902 0.2667
v 0.079328 7.422498 -0.104077 0.1843 0.2902 0.2667
v 0.104077 7.422498 -0.079328 0.1843 0.2902 0.2667
v 0.130815 7.400000 -0.081317 0.1843 0.2902 0.2667
v 0.132804 7.377502 -0.108055 0.1843 0.2902 0.2667
v 0.108055 7.377502 -0.132804 0.1843 0.2902 0.2667
v 0.081317 7.400000 -0.130815 0.1843 0.2902 0.2667
v 0.176709 7.546817 -0.201458 0.1843 0.2902 0.2667
v 0.201458 7.546817 -0.176709 0.1843 0.2902 0.2667
v 0.228711 7.525000 -0.179214 0.1843 0.2902 0.2667
v 0.231216 7.503183 -0.206468 0.1843 0.2902 0.2667
v 0.206468 7.503183 -0.231216 0.1843 0.2902 0.2667
v 0.179214 7.525000 -0.228711 0.1843 0.2902 0.2667
v 0.260924 7.669415 -0.285673 0.1843 0.2902 0.2667
v 0.285673 7.669415 -0.260924 0.1843 0.2902 0.2667
v 0.314506 7.650000 -0.265009 0.1843 0.2902 0.2667
v 0.318591 7.630585 -0.293842 0.1843 0.2902 0.2667
v 0.293842 7.630585 -0.318591 0.1843 0.2902 0.2667
v 0.265009 7.650000 -0.314506 0.1843 0.2902 0.2667
v 0.321525 7.789172 -0.346274 0.1843 0.2902 0.2667
v 0.346274 7.789172 -0.321525 0.1843 0.2902 0.2667
v 0.377594 7.775000 -0.328096 0.1843 0.2902 0.2667
v 0.384165 7.760828 -0.359417 0.1843 0.2902 0.2667
v 0.359417 7.760828 -0.384165 0.1843 0.2902 0.2667
v 0.328096 7.775000 -0.377594 0.1843 0.2902 0.2667
v 0.351912 7.904995 -0.376661 0.1843 0.2902 0.2667
v 0.376661 7.904995 -0.351912 0.1843 0.2902 0.2667
v 0.410175 7.900000 -0.360678 0.1843 0.2902 0.2667
v 0.418941 7.895005 -0.394192 0.1843 0.2902 0.2667
v 0.394192 7.895005 -0.418941 0.1843 0.2902 0.2667
v 0.360678 7.900000 -0.410175 0.1843 0.2902 0.2667
v 0.350118 8.018811 -0.374867 0.1843 0.2902 0.2667
v 0.374867 8.018811 -0.350118 0.1843 0.2902 0.2667
v 0.408223 8.025000 -0.358725 0.1843 0.2902 0.2667
v 0.416830 8.031188 -0.392081 0.1843 0.2902 0.2667
v 0.392081 8.031188 -0.416830 0.1843 0.2902 0.2667
v 0.358725 8.025000 -0.408223 0.1843 0.2902 0.2667
v 0.316207 8.135057 -0.340955 0.1843 0.2902 0.2667
v 0.340955 8.135057 -0.316207 0.1843 0.2902 0.2667
v 0.371978 8.150000 -0.322480 0.1843 0.2902 0.2667
v 0.378251 8.164942 -0.353503 0.1843 0.2902 0.2667
v 0.353503 8.164942 -0.378251 0.1843 0.2902 0.2667
v 0.322480 8.150000 -0.371978 0.1843 0.2902 0.2667
v 0.252567 8.255204 -0.277316 0.1843 0.2902 0.2667
v 0.277316 8.255204 -0.252567 0.1843 0.2902 0.2667
v 0.305921 8.275000 -0.256423 0.1843 0.2902 0.2667
v 0.309777 8.294795 -0.285029 0.1843 0.2902 0.2667
v 0.285029 8.294795 -0.309777 0.1843 0.2902 0.2667
v 0.256423 8.275000 -0.305921 0.1843 0.2902 0.2667
v -0.190629 8.378650 -0.165881 0.1843 0.2902 0.2667
v -0.165881 8.378650 -0.190629 0.1843 0.2902 0.2667
v -0.168720 8.400000 -0.218218 0.1843 0.2902 0.2667
v -0.196309 8.421350 -0.221058 0.1843 0.2902 0.2667
v -0.221058 8.421350 -0.196309 0.1843 0.2902 0.2667
v -0.218218 8.400000 -0.168720 0.1843 0.2902 0.2667
v -0.104077 7.422498 -0.079328 0.1843 0.2902 0.2667
v -0.079328 7.422498 -0.104077 0.1843 0.2902 0.2667
v -0.081317 7.400000 -0.130815 0.1843 0.2902 0.2667
v -0.108055 7.377502 -0.132804 0.1843 0.2902 0.2667
v -0.132804 7.377502 -0.108055 0.1843 0.2902 0.2667
v -0.130815 7.400000 -0.081317 0.1843 0.2902 0.2667
v -0.201458 7.546817 -0.176709 0.1843 0.2902 0.2667
v -0.176709 7.546817 -0.201458 0.1843 0.2902 0.2667
v -0.179214 7.525000 -0.228711 0.1843 0.2902 0.2667
v -0.206468 7.503183 -0.231216 0.1843 0.2902 0.2667
v -0.231216 7.503183 -0.206468 0.1843 0.2902 0.2667
v -0.228711 7.525000 -0.179214 0.1843 0.2902 0.2667
v -0.285673 7.669415 -0.260924 0.1843 0.2902 0.2667
v -0.260924 7.669415 -0.285673 0.1843 0.2902 0.2667
v -0.265009 7.650000 -0.314506 0.1843 0.2902 0.2667
v -0.293842 7.630585 -0.318591 0.1843 0.2902 0.2667
v -0.318591 7.630585 -0.293842 0.1843 0.2902 0.2667
v -0.314506 7.650000 -0.265009 0.1843 0.2902 0.2667
v -0.346274 7.789172 -0.321525 0.1843 0.2902 0.2667
v -0.321525 7.789172 -0.346274 0.1843 0.2902 0.2667
v -0.328096 7.775000 -0.377594 0.1843 0.2902 0.2667
v -0.359417 7.760828 -0.384165 0.1843 0.2902 0.2667
v -0.384165 7.760828 -0.359417 0.1843 0.2902 0.2667
v -0.377594 7.775000 -0.328096 0.1843 0.2902 0.2667
v -0.376661 7.904995 -0.351912 0.1843 0.2902 0.2667
v -0.351912 7.904995 -0.376661 0.1843 0.2902 0.2667
v -0.360678 7.900000 -0.410175 0.1843 0.2902 0.2667
v -0.394192 7.895005 -0.418941 0.1843 0.2902 0.2667
v -0.418941 7.895005 -0.394192 0.1843 0.2902 0.2667
v -0.410175 7.900000 -0.360678 0.1843 0.2902 0.2667
v -0.374867 8.018811 -0.350118 0.1843 0.2902 0.2667
v -0.350118 8.018811 -0.374867 0.1843 0.2902 0.2667
v -0.358725 8.025000 -0.408223 0.1843 0.2902 0.2667
v -0.392081 8.031188 -0.416830 0.1843 0.2902 0.2667
v -0.416830 8.031188 -0.392081 0.1843 0.2902 0.2667
v -0.408223 8.025000 -0.358725 0.1843 0.2902 0.2667
v -0.340955 8.135057 -0.316207 0.1843 0.2902 0.2667
v -0.316207 8.135057 -0.340955 0.1843 0.2902 0.2667
v -0.322480 8.150000 -0.371978 0.1843 0.2902 0.2667
v -0.353503 8.164942 -0.378251 0.1843 0.2902 0.2667
v -0.378251 8.164942 -0.353503 0.1843 0.2902 0.2667
v -0.371978 8.150000 -0.322480 0.1843 0.2902 0.2667
v -0.277316 8.255204 -0.252567 0.1843 0.2902 0.2667
v -0.252567 8.255204 -0.277316 0.1843 0.2902 0.2667
v -0.256423 8.275000 -0.305921 0.1843 0.2902 0.2667
v -0.285029 8.294795 -0.309777 0.1843 0.2902 0.2667
v -0.309777 8.294795 -0.285029 0.1843 0.2902 0.2667
v -0.305921 8.275000 -0.256423 0.1843 0.2902 0.2667
v -0.165881 8.378650 0.190629 0.1843 0.2902 0.2667
v -0.190629 8.378650 0.165881 0.1843 0.2902 0.2667
v -0.218218 8.400000 0.168720 0.1843 0.2902 0.2667
v -0.221058 8.421350 0.196309 0.1843 0.2902 0.2667
v -0.196309 8.421350 0.221058 0.1843 0.2902 0.2667
v -0.168720 8.400000 0.218218 0.1843 0.2902 0.2667
v -0.079328 7.422498 0.104077 0.1843 0.2902 0.2667
v -0.104077 7.422498 0.079328 0.1843 0.2902 0.2667
v -0.130815 7.400000 0.081317 0.1843 0.2902 0.2667
v -0.132804 7.377502 0.108055 0.1843 0.2902 0.2667
v -0.108055 7.377502 0.132804 0.1843 0.2902 0.2667
v -0.081317 7.400000 0.130815 0.1843 0.2902 0.2667
v -0.176709 7.546817 0.201458 0.1843 0.2902 0.2667
v -0.201458 7.546817 0.176709 0.1843 0.2902 0.2667
v -0.228711 7.525000 0.179214 0.1843 0.2902 0.2667
v -0.231216 7.503183 0.206468 0.1843 0.2902 0.2667
v -0.206468 7.503183 0.231216 0.1843 0.2902 0.2667
v -0.179214 7.525000 0.228711 0.1843 0.2902 0.2667
v -0.260924 7.669415 0.285673 0.1843 0.2902 0.2667
v -0.285673 7.669415 0.260924 0.1843 0.2902 0.2667
v -0.314506 7.650000 0.265009 0.1843 0.2902 0.2667
v -0.318591 7.630585 0.293842 0.1843 0.2902 0.2667
v -0.293842 7.630585 0.318591 0.1843 0.2902 0.2667
v -0.265009 7.650000 0.314506 0.1843 0.2902 0.2667
v -0.321525 7.789172 0.346274 0.1843 0.2902 0.2667
v -0.346274 7.789172 0.321525 0.1843 0.2902 0.2667
v -0.377594 7.775000 0.328096 0.1843 0.2902 0.2667
v -0.384165 7.760828 0.359417 0.1843 0.2902 0.2667
v -0.359417 7.760828 0.384165 0.1843 0.2902 0.2667
v -0.328096 7.775000 0.377594 0.1843 0.2902 0.2667
v -0.351912 7.904995 0.376661 0.1843 0.2902 0.2667
v -0.376661 7.904995 0.351912 0.1843 0.2902 0.2667
v -0.410175 7.900000 0.360678 0.1843 0.2902 0.2667
v -0.418941 7.895005 0.394192 0.1843 0.2902 0.2667
v -0.394192 7.895005 0.418941 0.1843 0.2902 0.2667
v -0.360678 7.900000 0.410175 0.1843 0.2902 0.2667
v -0.350118 8.018811 0.374867 0.1843 0.2902 0.2667
v -0.374867 8.018811 0.350118 0.1843 0.2902 0.2667
v -0.408223 8.025000 0.358725 0.1843 0.2902 0.2667
v -0.416830 8.031188 0.392081 0.1843 0.2902 0.2667
v -0.392081 8.031188 0.416830 0.1843 0.2902 0.2667
v -0.358725 8.025000 0.408223 0.1843 0.2902 0.2667
v -0.316207 8.135057 0.340955 0.1843 0.2902 0.2667
v -0.340955 8.135057 0.316207 0.1843 0.2902 0.2667
v -0.371978 8.150000 0.322480 0.1843 0.2902 0.2667
v -0.378251 8.164942 0.353503 0.1843 0.2902 0.2667
v -0.353503 8.164942 0.378251 0.1843 0.2902 0.2667
v -0.322480 8.150000 0.371978 0.1843 0.2902 0.2667
v -0.252567 8.255204 0.277316 0.1843 0.2902 0.2667
v -0.277316 8.255204 0.252567 0.1843 0.2902 0.2667
v -0.305921 8.275000 0.256423 0.1843 0.2902 0.2667
v -0.309777 8.294795 0.285029 0.1843 0.2902 0.2667
v -0.285029 8.294795 0.309777 0.1843 0.2902 0.2667
v -0.256423 8.275000 0.305921 0.1843 0.2902 0.2667
v 0.190629 8.378650 0.165881 0.1843 0.2902 0.2667
v 0.165881 8.378650 0.190629 0.1843 0.2902 0.2667
v 0.168720 8.400000 0.218218 0.1843 0.2902 0.2667
v 0.196309 8.421350 0.221058 0.1843 0.2902 0.2667
v 0.221058 8.421350 0.196309 0.1843 0.2902 0.2667
v 0.218218 8.400000 0.168720 0.1843 0.2902 0.2667
v 0.104077 7.422498 0.079328 0.1843 0.2902 0.2667
v 0.079328 7.422498 0.104077 0.1843 0.2902 0.2667
v 0.081317 7.400000 0.130815 0.1843 0.2902 0.2667
v 0.108055 7.377502 0.132804 0.1843 0.2902 0.2667
v 0.132804 7.377502 0.108055 0.1843 0.2902 0.2667
v 0.130815 7.400000 0.081317 0.1843 0.2902 0.2667
v 0.201458 7.546817 0.176709 0.1843 0.2902 0.2667
v 0.176709 7.546817 0.201458 0.1843 0.2902 0.2667
v 0.179214 7.525000 0.228711 0.1843 0.2902 0.2667
v 0.206468 7.503183 0.231216 0.1843 0.2902 0.2667
v 0.231216 7.503183 0.206468 0.1843 0.2902 0.2667
v 0.228711 7.525000 0.179214 0.1843 0.2902 0.2667
v 0.285673 7.669415 0.260924 0.1843 0.2902 0.2667
v 0.260924 7.669415 0.285673 0.1843 0.2902 0.2667
v 0.265009 7.650000 0.314506 0.1843 0.2902 0.2667
v 0.293842 7.630585 0.318591 0.1843 0.2902 0.2667
v 0.318591 7.630585 0.293842 0.1843 0.2902 0.2667
v 0.314506 7.650000 0.265009 0.1843 0.2902 0.2667
v 0.346274 7.789172 0.321525 0.1843 0.2902 0.2667
v 0.321525 7.789172 0.346274 0.1843 0.2902 0.2667
v 0.328096 7.775000 0.377594 0.1843 0.2902 0.2667
v 0.359417 7.760828 0.384165 0.1843 0.2902 0.2667
v 0.384165 7.760828 0.359417 0.1843 0.2902 0.2667
v 0.377594 7.775000 0.328096 0.1843 0.2902 0.2667
v 0.376661 7.904995 0.351912 0.1843 0.2902 0.2667
v 0.351912 7.904995 0.376661 0.1843 0.2902 0.2667
v 0.360678 7.900000 0.410175 0.1843 0.2902 0.2667
v 0.394192 7.895005 0.418941 0.1843 0.2902 0.2667
v 0.418941 7.895005 0.394192 0.1843 0.2902 0.2667
v 0.410175 7.900000 0.360678 0.1843 0.2902 0.2667
v 0.374867 8.018811 0.350118 0.1843 0.2902 0.2667
v 0.350118 8.018811 0.374867 0.1843 0.2902 0.2667
v 0.358725 8.025000 0.408223 0.1843 0.2902 0.2667
v 0.392081 8.031188 0.416830 0.1843 0.2902 0.2667
v 0.416830 8.031188 0.392081 0.1843 0.2902 0.2667
v 0.408223 8.025000 0.358725 0.1843 0.2902 0.2667
v 0.340955 8.135057 0.316207 0.1843 0.2902 0.2667
v 0.316207 8.135057 0.340955 0.1843 0.2902 0.2667
v 0.322480 8.150000 0.371978 0.1843 0.2902 0.2667
v 0.353503 8.164942 0.378251 0.1843 0.2902 0.2667
v 0.378251 8.164942 0.353503 0.1843 0.2902 0.2667
v 0.371978 8.150000 0.322480 0.1843 0.2902 0.2667
v 0.277316 8.255204 0.252567 0.1843 0.2902 0.2667
v 0.252567 8.255204 0.277316 0.1843 0.2902 0.2667
v 0.256423 8.275000 0.305921 0.1843 0.2902 0.2667
v 0.285029 8.294795 0.309777 0.1843 0.2902 0.2667
v 0.309777 8.294795 0.285029 0.1843 0.2902 0.2667
v 0.305921 8.275000 0.256423 0.1843 0.2902 0.2667
v 0.226274 8.550000 -0.226274 1.0000 0.9137 0.6589
v -0.226274 8.550000 -0.226274 1.0000 0.9137 0.6589
v -0.226274 8.550000 0.226274 1.0000 0.9137 0.6589
v 0.226274 8.550000 0.226274 1.0000 0.9137 0.6589
v 0.388909 9.450000 -0.388909 1.0000 0.9137 0.6589
v -0.388909 9.450000 -0.388909 1.0000 0.9137 0.6589
v -0.388909 9.450000 0.388909 1.0000 0.9137 0.6589
v 0.388909 9.450000 0.388909 1.0000 0.9137 0.6589
v 0.000000 9.450000 0.000000 1.0000 0.9137 0.6589
v 0.000000 8.490000 0.000000 0.1843 0.2902 0.2667
v 0.254558 8.490000 -0.254558 0.1843 0.2902 0.2667
v -0.254558 8.490000 -0.254558 0.1843 0.2902 0.2667
v -0.254558 8.490000 0.254558 0.1843 0.2902 0.2667
v 0.254558 8.490000 0.254558 0.1843 0.2902 0.2667
v 0.254558 8.570000 -0.254558 0.1843 0.2902 0.2667
v -0.254558 8.570000 -0.254558 0.1843 0.2902 0.2667
v -0.254558 8.570000 0.254558 0.1843 0.2902 0.2667
v 0.254558 8.570000 0.254558 0.1843 0.2902 0.2667
v 0.000000 8.570000 0.000000 0.1843 0.2902 0.2667
v 0.514403 9.461926 -0.542688 0.1843 0.2902 0.2667
v 0.542688 9.461926 -0.514403 0.1843 0.2902 0.2667
v 0.579828 9.450000 -0.523259 0.1843 0.2902 0.2667
v 0.588683 9.438074 -0.560399 0.1843 0.2902 0.2667
v 0.560399 9.438074 -0.588683 0.1843 0.2902 0.2667
v 0.523259 9.450000 -0.579828 0.1843 0.2902 0.2667
v 0.281058 8.561926 -0.309343 0.1843 0.2902 0.2667
v 0.309343 8.561926 -0.281058 0.1843 0.2902 0.2667
v 0.346482 8.550000 -0.289914 0.1843 0.2902 0.2667
v 0.355338 8.538074 -0.327054 0.1843 0.2902 0.2667
v 0.327054 8.538074 -0.355338 0.1843 0.2902 0.2667
v 0.289914 8.550000 -0.346482 0.1843 0.2902 0.2667
v -0.542688 9.461926 -0.514403 0.1843 0.2902 0.2667
v -0.514403 9.461926 -0.542688 0.1843 0.2902 0.2667
v -0.523259 9.450000 -0.579828 0.1843 0.2902 0.2667
v -0.560399 9.438074 -0.588683 0.1843 0.2902 0.2667
v -0.588683 9.438074 -0.560399 0.1843 0.2902 0.2667
v -0.579828 9.450000 -0.523259 0.1843 0.2902 0.2667
v -0.309343 8.561926 -0.281058 0.1843 0.2902 0.2667
v -0.281058 8.561926 -0.309343 0.1843 0.2902 0.2667
v -0.289914 8.550000 -0.346482 0.1843 0.2902 0.2667
v -0.327054 8.538074 -0.355338 0.1843 0.2902 0.2667
v -0.355338 8.538074 -0.327054 0.1843 0.2902 0.2667
v -0.346482 8.550000 -0.289914 0.1843 0.2902 0.2667
v -0.514403 9.461926 0.542688 0.1843 0.2902 0.2667
v -0.542688 9.461926 0.514403 0.1843 0.2902 0.2667
v -0.579828 9.450000 0.523259 0.1843 0.2902 0.2667
v -0.588683 9.438074 0.560399 0.1843 0.2902 0.2667
v -0.560399 9.438074 0.588683 0.1843 0.2902 0.2667
v -0.523259 9.450000 0.579828 0.1843 0.2902 0.2667
v -0.281058 8.561926 0.309343 0.1843 0.2902 0.2667
v -0.309343 8.561926 0.281058 0.1843 0.2902 0.2667
v -0.346482 8.550000 0.289914 0.1843 0.2902 0.2667
v -0.355338 8.538074 0.327054 0.1843 0.2902 0.2667
v -0.327054 8.538074 0.355338 0.1843 0.2902 0.2667
v -0.289914 8.550000 0.346482 0.1843 0.2902 0.2667
v 0.542688 9.461926 0.514403 0.1843 0.2902 0.2667
v 0.514403 9.461926 0.542688 0.1843 0.2902 0.2667
v 0.523259 9.450000 0.579828 0.1843 0.2902 0.2667
v 0.560399 9.438074 0.588683 0.1843 0.2902 0.2667
v 0.588683 9.438074 0.560399 0.1843 0.2902 0.2667
v 0.579828 9.450000 0.523259 0.1843 0.2902 0.2667
v 0.309343 8.561926 0.281058 0.1843 0.2902 0.2667
v 0.281058 8.561926 0.309343 0.1843 0.2902 0.2667
v 0.289914 8.550000 0.346482 0.1843 0.2902 0.2667
v 0.327054 8.538074 0.355338 0.1843 0.2902 0.2667
v 0.355338 8.538074 0.327054 0.1843 0.2902 0.2667
v 0.346482 8.550000 0.289914 0.1843 0.2902 0.2667
v 0.000000 9.430000 0.000000 0.1843 0.2902 0.2667
v 0.530330 9.430000 -0.530330 0.1843 0.2902 0.2667
v -0.530330 9.430000 -0.530330 0.1843 0.2902 0.2667
v -0.530330 9.430000 0.530330 0.1843 0.2902 0.2667
v 0.530330 9.430000 0.530330 0.1843 0.2902 0.2667
v 0.530330 9.510000 -0.530330 0.1843 0.2902 0.2667
v -0.530330 9.510000 -0.530330 0.1843 0.2902 0.2667
v -0.530330 9.510000 0.530330 0.1843 0.2902 0.2667
v 0.530330 9.510000 0.530330 0.1843 0.2902 0.2667
v 0.141421 9.850000 -0.141421 0.1843 0.2902 0.2667
v -0.141421 9.850000 -0.141421 0.1843 0.2902 0.2667
v -0.141421 9.850000 0.141421 0.1843 0.2902 0.2667
v 0.141421 9.850000 0.141421 0.1843 0.2902 0.2667
v 0.070711 9.890000 -0.070711 0.1843 0.2902 0.2667
v -0.070711 9.890000 -0.070711 0.1843 0.2902 0.2667
v -0.070711 9.890000 0.070711 0.1843 0.2902 0.2667
v 0.070711 9.890000 0.070711 0.1843 0.2902 0.2667
v 0.000000 9.890000 0.000000 0.1843 0.2902 0.2667
v 0.000000 10.040000 0.000000 0.9098 0.6980 0.2275
v 0.000000 9.820001 0.000000 0.9098 0.6980 0.2275
v 0.032328 10.025263 -0.044496 0.9098 0.6980 0.2275
v 0.055994 9.985001 -0.077069 0.9098 0.6980 0.2275
v 0.064656 9.930000 -0.088992 0.9098 0.6980 0.2275
v 0.055994 9.875000 -0.077069 0.9098 0.6980 0.2275
v 0.032328 9.834738 -0.044496 0.9098 0.6980 0.2275
v 0.052308 10.025263 -0.016996 0.9098 0.6980 0.2275
v 0.090600 9.985001 -0.029438 0.9098 0.6980 0.2275
v 0.104616 9.930000 -0.033992 0.9098 0.6980 0.2275
v 0.090600 9.875000 -0.029438 0.9098 0.6980 0.2275
v 0.052308 9.834738 -0.016996 0.9098 0.6980 0.2275
v 0.052308 10.025263 0.016996 0.9098 0.6980 0.2275
v 0.090600 9.985001 0.029438 0.9098 0.6980 0.2275
v 0.104616 9.930000 0.033992 0.9098 0.6980 0.2275
v 0.090600 9.875000 0.029438 0.9098 0.6980 0.2275
v 0.052308 9.834738 0.016996 0.9098 0.6980 0.2275
v 0.032328 10.025263 0.044496 0.9098 0.6980 0.2275
v 0.055994 9.985001 0.077069 0.9098 0.6980 0.2275
v 0.064656 9.930000 0.088992 0.9098 0.6980 0.2275
v 0.055994 9.875000 0.077069 0.9098 0.6980 0.2275
v 0.032328 9.834738 0.044496 0.9098 0.6980 0.2275
v 0.000000 10.025263 0.055000 0.9098 0.6980 0.2275
v 0.000000 9.985001 0.095263 0.9098 0.6980 0.2275
v 0.000000 9.930000 0.110000 0.9098 0.6980 0.2275
v 0.000000 9.875000 0.095263 0.9098 0.6980 0.2275
v 0.000000 9.834738 0.055000 0.9098 0.6980 0.2275
v -0.032328 10.025263 0.044496 0.9098 0.6980 0.2275
v -0.055994 9.985001 0.077069 0.9098 0.6980 0.2275
v -0.064656 9.930000 0.088992 0.9098 0.6980 0.2275
v -0.055994 9.875000 0.077069 0.9098 0.6980 0.2275
v -0.032328 9.834738 0.044496 0.9098 0.6980 0.2275
v -0.052308 10.025263 0.016996 0.9098 0.6980 0.2275
v -0.090600 9.985001 0.029438 0.9098 0.6980 0.2275
v -0.104616 9.930000 0.033992 0.9098 0.6980 0.2275
v -0.090600 9.875000 0.029438 0.9098 0.6980 0.2275
v -0.052308 9.834738 0.016996 0.9098 0.6980 0.2275
v -0.052308 10.025263 -0.016996 0.9098 0.6980 0.2275
v -0.090600 9.985001 -0.029438 0.9098 0.6980 0.2275
v -0.104616 9.930000 -0.033992 0.9098 0.6980 0.2275
v -0.090600 9.875000 -0.029438 0.9098 0.6980 0.2275
v -0.052308 9.834738 -0.016996 0.9098 0.6980 0.2275
v -0.032328 10.025263 -0.044496 0.9098 0.6980 0.2275
v -0.055994 9.985001 -0.077069 0.9098 0.6980 0.2275
v -0.064656 9.930000 -0.088992 0.9098 0.6980 0.2275
v -0.055994 9.875000 -0.077069 0.9098 0.6980 0.2275
v -0.032328 9.834738 -0.044496 0.9098 0.6980 0.2275
v -0.000000 10.025263 -0.055000 0.9098 0.6980 0.2275
v -0.000000 9.985001 -0.095263 0.9098 0.6980 0.2275
v -0.000000 9.930000 -0.110000 0.9098 0.6980 0.2275
v -0.000000 9.875000 -0.095263 0.9098 0.6980 0.2275
v -0.000000 9.834738 -0.055000 0.9098 0.6980 0.2275
v 0.000000 9.755000 -0.030000 0.9098 0.6980 0.2275
v 0.000000 9.905000 -0.030000 0.9098 0.6980 0.2275
v 0.025981 9.755000 -0.015000 0.9098 0.6980 0.2275
v 0.025981 9.905000 -0.015000 0.9098 0.6980 0.2275
v 0.025981 9.755000 0.015000 0.9098 0.6980 0.2275
v 0.025981 9.905000 0.015000 0.9098 0.6980 0.2275
v 0.000000 9.755000 0.030000 0.9098 0.6980 0.2275
v 0.000000 9.905000 0.030000 0.9098 0.6980 0.2275
v -0.025981 9.755000 0.015000 0.9098 0.6980 0.2275
v -0.025981 9.905000 0.015000 0.9098 0.6980 0.2275
v -0.025981 9.755000 -0.015000 0.9098 0.6980 0.2275
v -0.025981 9.905000 -0.015000 0.9098 0.6980 0.2275
vn -0.0000 -1.0000 -0.0000
vn 0.7071 -0.0000 -0.7071
vn -0.0000 -0.0000 -1.0000
vn -0.7071 -0.0000 -0.7071
vn -1.0000 -0.0000 -0.0000
vn -0.7071 -0.0000 0.7071
vn -0.0000 -0.0000 1.0000
vn 0.7071 -0.0000 0.7071
vn 1.0000 -0.0000 -0.0000
vn 0.4584 0.8682 -0.1899
vn 0.1899 0.8682 -0.4584
vn -0.1899 0.8682 -0.4584
vn -0.4584 0.8682 -0.1899
vn -0.4584 0.8682 0.1899
vn -0.1899 0.8682 0.4584
vn 0.1899 0.8682 0.4584
vn 0.4584 0.8682 0.1899
vn 0.6995 0.1462 -0.6995
vn 0.6789 0.2797 -0.6789
vn -0.0000 0.1462 -0.9893
vn -0.0000 0.2797 -0.9601
vn -0.6995 0.1462 -0.6995
vn -0.6789 0.2797 -0.6789
vn -0.9893 0.1462 -0.0000
vn -0.9601 0.2797 -0.0000
vn -0.6995 0.1462 0.6995
vn -0.6789 0.2797 0.6789
vn -0.0000 0.1462 0.9893
vn -0.0000 0.2797 0.9601
vn 0.6995 0.1462 0.6995
vn 0.6789 0.2797 0.6789
vn 0.9893 0.1462 -0.0000
vn 0.9601 0.2797 -0.0000
vn 0.6620 0.3513 -0.6620
vn -0.0000 0.3513 -0.9363
vn -0.6620 0.3513 -0.6620
vn -0.9363 0.3513 -0.0000
vn -0.6620 0.3513 0.6620
vn -0.0000 0.3513 0.9363
vn 0.6620 0.3513 0.6620
vn 0.9363 0.3513 -0.0000
vn 0.6837 0.2552 -0.6837
vn -0.0000 0.2552 -0.9669
vn -0.6837 0.2552 -0.6837
vn -0.9669 0.2552 -0.0000
vn -0.6837 0.2552 0.6837
vn -0.0000 0.2552 0.9669
vn 0.6837 0.2552 0.6837
vn 0.9669 0.2552 -0.0000
vn -0.0000 1.0000 -0.0000
vn 0.5000 -0.0000 -0.8660
vn 0.8660 -0.0000 -0.5000
vn 0.8660 -0.0000 0.5000
vn 0.5000 -0.0000 0.8660
vn -0.5000 -0.0000 0.8660
vn -0.8660 -0.0000 0.5000
vn -0.8660 -0.0000 -0.5000
vn -0.5000 -0.0000 -0.8660
vn 0.8090 0.5878 -0.0000
vn 0.7289 0.5878 -0.3510
vn 0.5044 0.5878 -0.6325
vn 0.1800 0.5878 -0.7887
vn -0.1800 0.5878 -0.7887
vn -0.5044 0.5878 -0.6325
vn -0.7289 0.5878 -0.3510
vn -0.8090 0.5878 -0.0000
vn -0.7289 0.5878 0.3510
vn -0.5044 0.5878 0.6325
vn -0.1800 0.5878 0.7887
vn 0.1800 0.5878 0.7887
vn 0.5044 0.5878 0.6325
vn 0.7289 0.5878 0.3510
vn -0.3090 0.9511 -0.0000
vn -0.2784 0.9511 0.1341
vn -0.1927 0.9511 0.2416
vn -0.0688 0.9511 0.3013
vn 0.0688 0.9511 0.3013
vn 0.1927 0.9511 0.2416
vn 0.2784 0.9511 0.1341
vn 0.3090 0.9511 -0.0000
vn 0.2784 0.9511 -0.1341
vn 0.1927 0.9511 -0.2416
vn 0.0688 0.9511 -0.3013
vn -0.0688 0.9511 -0.3013
vn -0.1927 0.9511 -0.2416
vn -0.2784 0.9511 -0.1341
vn -0.9010 -0.0000 0.4339
vn -0.6235 -0.0000 0.7818
vn -0.2225 -0.0000 0.9749
vn 0.2225 -0.0000 0.9749
vn 0.6235 -0.0000 0.7818
vn 0.9010 -0.0000 0.4339
vn 0.9010 -0.0000 -0.4339
vn 0.6235 -0.0000 -0.7818
vn 0.2225 -0.0000 -0.9749
vn -0.2225 -0.0000 -0.9749
vn -0.6235 -0.0000 -0.7818
vn -0.9010 -0.0000 -0.4339
vn -0.3090 -0.9511 -0.0000
vn -0.2784 -0.9511 0.1341
vn -0.1927 -0.9511 0.2416
vn -0.0688 -0.9511 0.3013
vn 0.0688 -0.9511 0.3013
vn 0.1927 -0.9511 0.2416
vn 0.2784 -0.9511 0.1341
vn 0.3090 -0.9511 -0.0000
vn 0.2784 -0.9511 -0.1341
vn 0.1927 -0.9511 -0.2416
vn 0.0688 -0.9511 -0.3013
vn -0.0688 -0.9511 -0.3013
vn -0.1927 -0.9511 -0.2416
vn -0.2784 -0.9511 -0.1341
vn 0.8090 -0.5878 -0.0000
vn 0.7289 -0.5878 -0.3510
vn 0.5044 -0.5878 -0.6325
vn 0.1800 -0.5878 -0.7887
vn -0.1800 -0.5878 -0.7887
vn -0.5044 -0.5878 -0.6325
vn -0.7289 -0.5878 -0.3510
vn -0.8090 -0.5878 -0.0000
vn -0.7289 -0.5878 0.3510
vn -0.5044 -0.5878 0.6325
vn -0.1800 -0.5878 0.7887
vn 0.1800 -0.5878 0.7887
vn 0.5044 -0.5878 0.6325
vn 0.7289 -0.5878 0.3510
vn 0.8575 -0.5145 -0.0000
vn 0.7426 -0.5145 -0.4287
vn 0.6758 -0.6254 -0.3902
vn 0.7803 -0.6254 -0.0000
vn 0.4287 -0.5145 -0.7426
vn 0.3902 -0.6254 -0.6758
vn -0.0000 -0.5145 -0.8575
vn -0.0000 -0.6254 -0.7803
vn -0.4287 -0.5145 -0.7426
vn -0.3902 -0.6254 -0.6758
vn -0.7426 -0.5145 -0.4287
vn -0.6758 -0.6254 -0.3902
vn -0.8575 -0.5145 -0.0000
vn -0.7803 -0.6254 -0.0000
vn -0.7426 -0.5145 0.4287
vn -0.6758 -0.6254 0.3902
vn -0.4287 -0.5145 0.7426
vn -0.3902 -0.6254 0.6758
vn -0.0000 -0.5145 0.8575
vn -0.0000 -0.6254 0.7803
vn 0.4287 -0.5145 0.7426
vn 0.3902 -0.6254 0.6758
vn 0.7426 -0.5145 0.4287
vn 0.6758 -0.6254 0.3902
vn 0.7521 -0.4958 -0.4342
vn 0.8685 -0.4958 -0.0000
vn 0.4342 -0.4958 -0.7521
vn -0.0000 -0.4958 -0.8685
vn -0.4342 -0.4958 -0.7521
vn -0.7521 -0.4958 -0.4342
vn -0.8685 -0.4958 -0.0000
vn -0.7521 -0.4958 0.4342
vn -0.4342 -0.4958 0.7521
vn -0.0000 -0.4958 0.8685
vn 0.4342 -0.4958 0.7521
vn 0.7521 -0.4958 0.4342
vn 0.8295 -0.2873 -0.4789
vn 0.9578 -0.2873 -0.0000
vn 0.4789 -0.2873 -0.8295
vn -0.0000 -0.2873 -0.9578
vn -0.4789 -0.2873 -0.8295
vn -0.8295 -0.2873 -0.4789
vn -0.9578 -0.2873 -0.0000
vn -0.8295 -0.2873 0.4789
vn -0.4789 -0.2873 0.8295
vn -0.0000 -0.2873 0.9578
vn 0.4789 -0.2873 0.8295
vn 0.8295 -0.2873 0.4789
vn -0.4981 0.7098 0.4981
vn -0.4980 0.7099 0.4981
vn -0.4981 0.7098 0.4980
vn -0.5248 -0.6701 0.5248
vn -0.5249 -0.6701 0.5248
vn -0.5248 -0.6702 0.5248
vn -0.8493 0.3712 -0.3754
vn -0.8578 0.3600 -0.3668
vn -0.4738 0.7423 0.4738
vn -0.4908 0.7199 0.4908
vn 0.3754 0.3712 0.8493
vn 0.3668 0.3600 0.8578
vn 0.8493 -0.3712 0.3753
vn 0.8579 -0.3600 0.3667
vn 0.8579 -0.3599 0.3667
vn 0.4739 -0.7422 -0.4739
vn 0.4910 -0.7196 -0.4910
vn -0.3753 -0.3712 -0.8493
vn -0.3667 -0.3599 -0.8579
vn -0.8838 0.3206 -0.3406
vn -0.8839 0.3206 -0.3406
vn -0.5426 0.6412 0.5426
vn 0.3406 0.3206 0.8839
vn 0.8840 -0.3203 0.3404
vn 0.5434 -0.6400 -0.5434
vn -0.3404 -0.3203 -0.8840
vn -0.9249 0.2342 -0.2997
vn -0.9249 0.2341 -0.2996
vn -0.6245 0.4690 0.6245
vn 0.2996 0.2341 0.9249
vn 0.2997 0.2342 0.9249
vn 0.9251 -0.2334 0.2994
vn 0.6255 -0.4662 -0.6255
vn -0.2994 -0.2334 -0.9251
vn -0.9608 0.0824 -0.2647
vn -0.9608 0.0823 -0.2647
vn -0.6973 0.1657 0.6973
vn 0.2647 0.0823 0.9608
vn 0.2647 0.0824 0.9608
vn 0.9609 -0.0819 0.2646
vn 0.6975 -0.1640 -0.6975
vn -0.2646 -0.0819 -0.9609
vn -0.9582 -0.1021 -0.2672
vn -0.9582 -0.1020 -0.2672
vn -0.6920 -0.2053 0.6920
vn 0.2672 -0.1020 0.9582
vn 0.2672 -0.1021 0.9582
vn 0.9583 0.1016 0.2670
vn 0.9583 0.1015 0.2670
vn 0.6924 0.2032 -0.6924
vn -0.2670 0.1015 -0.9583
vn -0.2670 0.1016 -0.9583
vn -0.9200 -0.2469 -0.3045
vn -0.9200 -0.2468 -0.3045
vn -0.6147 -0.4944 0.6147
vn 0.3045 -0.2468 0.9200
vn 0.3045 -0.2469 0.9200
vn 0.9202 0.2462 0.3043
vn 0.6157 0.4917 -0.6157
vn -0.3043 0.2461 -0.9202
vn -0.3043 0.2462 -0.9202
vn -0.8801 -0.3269 -0.3444
vn -0.8801 -0.3268 -0.3444
vn -0.5351 -0.6537 0.5351
vn 0.3444 -0.3268 0.8801
vn 0.3444 -0.3269 0.8801
vn 0.8803 0.3266 0.3443
vn 0.8803 0.3265 0.3443
vn 0.5358 0.6525 -0.5358
vn -0.3443 0.3265 -0.8803
vn -0.3443 0.3266 -0.8803
vn -0.8633 -0.3526 -0.3610
vn -0.5017 -0.7047 0.5017
vn 0.3610 -0.3526 0.8633
vn 0.8634 0.3524 0.3609
vn 0.5021 0.7041 -0.5022
vn -0.3609 0.3524 -0.8634
vn 0.4981 0.7098 0.4981
vn 0.4980 0.7099 0.4981
vn 0.5248 -0.6701 0.5248
vn 0.5248 -0.6702 0.5248
vn 0.5249 -0.6701 0.5248
vn -0.3754 0.3712 0.8493
vn -0.3668 0.3600 0.8578
vn 0.4738 0.7423 0.4738
vn 0.4908 0.7199 0.4908
vn 0.8493 0.3712 -0.3754
vn 0.8578 0.3600 -0.3668
vn 0.3753 -0.3712 -0.8493
vn 0.3667 -0.3599 -0.8579
vn -0.4739 -0.7422 -0.4739
vn -0.4910 -0.7196 -0.4910
vn -0.8493 -0.3712 0.3753
vn -0.8579 -0.3599 0.3667
vn -0.3406 0.3206 0.8838
vn -0.3406 0.3206 0.8839
vn 0.5426 0.6412 0.5426
vn 0.8839 0.3206 -0.3406
vn 0.8838 0.3206 -0.3406
vn 0.3404 -0.3203 -0.8840
vn -0.5434 -0.6400 -0.5434
vn -0.8840 -0.3203 0.3404
vn -0.2997 0.2342 0.9249
vn -0.2996 0.2341 0.9249
vn 0.6245 0.4691 0.6245
vn 0.9249 0.2341 -0.2996
vn 0.9249 0.2342 -0.2997
vn 0.2994 -0.2334 -0.9251
vn -0.6255 -0.4662 -0.6255
vn -0.9251 -0.2334 0.2994
vn -0.2647 0.0824 0.9608
vn -0.2647 0.0823 0.9608
vn 0.6973 0.1657 0.6973
vn 0.9608 0.0823 -0.2647
vn 0.9608 0.0824 -0.2647
vn 0.2646 -0.0819 -0.9609
vn -0.6975 -0.1640 -0.6975
vn -0.9609 -0.0819 0.2646
vn -0.2672 -0.1021 0.9582
vn -0.2672 -0.1020 0.9582
vn 0.6920 -0.2053 0.6920
vn 0.9582 -0.1020 -0.2672
vn 0.9582 -0.1021 -0.2672
vn 0.2670 0.1016 -0.9583
vn 0.2670 0.1015 -0.9583
vn -0.6924 0.2032 -0.6924
vn -0.9583 0.1015 0.2670
vn -0.9583 0.1016 0.2670
vn -0.3045 -0.2469 0.9200
vn -0.3045 -0.2468 0.9200
vn 0.6147 -0.4944 0.6147
vn 0.9200 -0.2468 -0.3045
vn 0.9200 -0.2469 -0.3045
vn 0.3043 0.2462 -0.9202
vn 0.3043 0.2461 -0.9202
vn -0.6157 0.4917 -0.6157
vn -0.9202 0.2462 0.3043
vn -0.3444 -0.3269 0.8801
vn -0.3444 -0.3268 0.8801
vn 0.5351 -0.6537 0.5351
vn 0.8801 -0.3268 -0.3444
vn 0.8801 -0.3269 -0.3444
vn 0.3443 0.3266 -0.8803
vn 0.3443 0.3265 -0.8803
vn -0.5358 0.6525 -0.5358
vn -0.8803 0.3265 0.3443
vn -0.8803 0.3266 0.3443
vn -0.3610 -0.3526 0.8633
vn 0.5017 -0.7047 0.5017
vn 0.8633 -0.3526 -0.3610
vn 0.3609 0.3524 -0.8634
vn -0.5022 0.7041 -0.5021
vn -0.8634 0.3524 0.3609
vn 0.4981 0.7098 -0.4981
vn 0.4980 0.7099 -0.4981
vn 0.4981 0.7098 -0.4980
vn 0.5248 -0.6701 -0.5248
vn 0.5249 -0.6701 -0.5248
vn 0.8493 0.3712 0.3754
vn 0.8578 0.3600 0.3668
vn 0.4738 0.7423 -0.4738
vn 0.4908 0.7199 -0.4908
vn -0.3754 0.3712 -0.8493
vn -0.3668 0.3600 -0.8578
vn -0.8493 -0.3712 -0.3753
vn -0.8579 -0.3600 -0.3667
vn -0.8579 -0.3599 -0.3667
vn -0.4739 -0.7422 0.4739
vn -0.4910 -0.7196 0.4910
vn 0.3753 -0.3712 0.8493
vn 0.3667 -0.3599 0.8579
vn 0.8838 0.3206 0.3406
vn 0.8839 0.3206 0.3406
vn 0.5426 0.6412 -0.5426
vn -0.3406 0.3206 -0.8839
vn -0.8840 -0.3203 -0.3404
vn -0.5434 -0.6400 0.5434
vn 0.3404 -0.3203 0.8840
vn 0.9249 0.2342 0.2997
vn 0.9249 0.2341 0.2996
vn 0.6245 0.4690 -0.6245
vn -0.2996 0.2341 -0.9249
vn -0.2997 0.2342 -0.9249
vn -0.9251 -0.2334 -0.2994
vn -0.6255 -0.4662 0.6255
vn 0.2994 -0.2334 0.9251
vn 0.9608 0.0824 0.2647
vn 0.9608 0.0823 0.2647
vn 0.6973 0.1657 -0.6973
vn -0.2647 0.0823 -0.9608
vn -0.2647 0.0824 -0.9608
vn -0.9609 -0.0819 -0.2646
vn -0.6975 -0.1640 0.6975
vn 0.2646 -0.0819 0.9609
vn 0.9582 -0.1021 0.2672
vn 0.9582 -0.1020 0.2672
vn 0.6920 -0.2053 -0.6920
vn -0.2672 -0.1020 -0.9582
vn -0.2672 -0.1021 -0.9582
vn -0.9583 0.1016 -0.2670
vn -0.9583 0.1015 -0.2670
vn -0.6924 0.2032 0.6924
vn 0.2670 0.1015 0.9583
vn 0.2670 0.1016 0.9583
vn 0.9200 -0.2469 0.3045
vn 0.9200 -0.2468 0.3045
vn 0.6147 -0.4944 -0.6147
vn -0.3045 -0.2468 -0.9200
vn -0.3045 -0.2469 -0.9200
vn -0.9202 0.2462 -0.3043
vn -0.6157 0.4917 0.6157
vn 0.3043 0.2461 0.9202
vn 0.3043 0.2462 0.9202
vn 0.8801 -0.3269 0.3444
vn 0.8801 -0.3268 0.3444
vn 0.5351 -0.6537 -0.5351
vn -0.3444 -0.3268 -0.8801
vn -0.3444 -0.3269 -0.8801
vn -0.8803 0.3266 -0.3443
vn -0.8803 0.3265 -0.3443
vn -0.5358 0.6525 0.5358
vn 0.3443 0.3265 0.8803
vn 0.3443 0.3266 0.8803
vn 0.8633 -0.3526 0.3610
vn 0.5017 -0.7047 -0.5017
vn -0.3610 -0.3526 -0.8633
vn -0.8634 0.3524 -0.3609
vn -0.5021 0.7041 0.5022
vn 0.3609 0.3524 0.8634
vn -0.4981 0.7098 -0.4981
vn -0.4980 0.7099 -0.4981
vn -0.5248 -0.6701 -0.5248
vn -0.5248 -0.6702 -0.5248
vn -0.5249 -0.6701 -0.5248
vn 0.3754 0.3712 -0.8493
vn 0.3668 0.3600 -0.8578
vn -0.4738 0.7423 -0.4738
vn -0.4908 0.7199 -0.4908
vn -0.8493 0.3712 0.3754
vn -0.8578 0.3600 0.3668
vn -0.3753 -0.3712 0.8493
vn -0.3667 -0.3600 0.8579
vn -0.3667 -0.3599 0.8579
vn 0.4739 -0.7422 0.4739
vn 0.4910 -0.7196 0.4910
vn 0.8493 -0.3712 -0.3753
vn 0.8579 -0.3599 -0.3667
vn 0.8579 -0.3600 -0.3667
vn 0.3406 0.3206 -0.8838
vn 0.3406 0.3206 -0.8839
vn -0.5426 0.6412 -0.5426
vn -0.8839 0.3206 0.3406
vn -0.8838 0.3206 0.3406
vn -0.3404 -0.3203 0.8840
vn 0.5434 -0.6400 0.5434
vn 0.8840 -0.3203 -0.3404
vn 0.2997 0.2342 -0.9249
vn 0.2996 0.2341 -0.9249
vn -0.6245 0.4691 -0.6245
vn -0.9249 0.2341 0.2996
vn -0.9249 0.2342 0.2997
vn -0.2994 -0.2334 0.9251
vn 0.6255 -0.4662 0.6255
vn 0.9251 -0.2334 -0.2994
vn 0.2647 0.0824 -0.9608
vn 0.2647 0.0823 -0.9608
vn -0.6973 0.1657 -0.6973
vn -0.9608 0.0823 0.2647
vn -0.9608 0.0824 0.2647
vn -0.2646 -0.0819 0.9609
vn 0.6975 -0.1640 0.6975
vn 0.9609 -0.0819 -0.2646
vn 0.2672 -0.1021 -0.9582
vn 0.2672 -0.1020 -0.9582
vn -0.6920 -0.2053 -0.6920
vn -0.9582 -0.1020 0.2672
vn -0.9582 -0.1021 0.2672
vn -0.2670 0.1016 0.9583
vn -0.2670 0.1015 0.9583
vn 0.6924 0.2032 0.6924
vn 0.9583 0.1015 -0.2670
vn 0.9583 0.1016 -0.2670
vn 0.3045 -0.2469 -0.9200
vn 0.3045 -0.2468 -0.9200
vn -0.6147 -0.4944 -0.6147
vn -0.9200 -0.2468 0.3045
vn -0.9200 -0.2469 0.3045
vn -0.3043 0.2462 0.9202
vn -0.3043 0.2461 0.9202
vn 0.6157 0.4917 0.6157
vn 0.9202 0.2462 -0.3043
vn 0.3444 -0.3269 -0.8801
vn 0.3444 -0.3268 -0.8801
vn -0.5351 -0.6537 -0.5351
vn -0.8801 -0.3268 0.3444
vn -0.8801 -0.3269 0.3444
vn -0.3443 0.3266 0.8803
vn -0.3443 0.3265 0.8803
vn 0.5358 0.6525 0.5358
vn 0.8803 0.3265 -0.3443
vn 0.8803 0.3266 -0.3443
vn 0.3610 -0.3526 -0.8633
vn -0.5017 -0.7047 -0.5017
vn -0.8633 -0.3526 0.3610
vn -0.3609 0.3524 0.8634
vn 0.5022 0.7041 0.5021
vn 0.8634 0.3524 -0.3609
vn -0.0000 -0.1778 -0.9841
vn -0.9841 -0.1778 -0.0000
vn -0.0000 -0.1778 0.9841
vn 0.9841 -0.1778 -0.0000
vn 0.2434 0.9389 -0.2434
vn 0.2435 0.9389 -0.2434
vn -0.2434 -0.9389 0.2434
vn -0.2435 -0.9389 0.2434
vn -0.9443 0.1721 -0.2804
vn -0.6639 0.3443 0.6639
vn 0.2804 0.1721 0.9443
vn 0.9443 -0.1721 0.2804
vn 0.6639 -0.3443 -0.6639
vn -0.2804 -0.1721 -0.9443
vn -0.2435 0.9389 -0.2434
vn -0.2434 0.9389 -0.2434
vn 0.2434 -0.9389 0.2434
vn -0.2804 0.1721 0.9443
vn 0.6639 0.3443 0.6639
vn 0.9443 0.1721 -0.2804
vn 0.2804 -0.1721 -0.9443
vn -0.6639 -0.3443 -0.6639
vn -0.9443 -0.1721 0.2804
vn -0.2434 0.9389 0.2434
vn -0.2435 0.9389 0.2434
vn 0.2434 -0.9389 -0.2434
vn 0.2435 -0.9389 -0.2434
vn 0.9443 0.1721 0.2804
vn 0.6639 0.3443 -0.6639
vn -0.2804 0.1721 -0.9443
vn -0.9443 -0.1721 -0.2804
vn -0.6639 -0.3443 0.6639
vn 0.2804 -0.1721 0.9443
vn 0.2435 0.9389 0.2434
vn 0.2434 0.9389 0.2434
vn -0.2434 -0.9389 -0.2434
vn 0.2804 0.1721 -0.9443
vn -0.6639 0.3443 -0.6639
vn -0.9443 0.1721 0.2804
vn -0.2804 -0.1721 0.9443
vn 0.6639 -0.3443 0.6639
vn 0.9443 -0.1721 -0.2804
vn -0.0000 0.7529 -0.6582
vn -0.0000 0.7888 -0.6146
vn -0.6582 0.7529 -0.0000
vn -0.6146 0.7888 -0.0000
vn -0.0000 0.7529 0.6582
vn -0.0000 0.7888 0.6146
vn 0.6582 0.7529 -0.0000
vn 0.6146 0.7888 -0.0000
vn -0.1950 0.9612 -0.1950
vn 0.1950 0.9612 -0.1950
vn -0.1950 0.9612 0.1950
vn 0.1950 0.9612 0.1950
vn -0.0000 0.8438 -0.5367
vn 0.3155 0.8438 -0.4342
vn -0.0000 -0.8438 -0.5367
vn 0.3155 -0.8438 -0.4342
vn -0.0000 -0.4791 -0.8778
vn 0.5878 -0.0000 -0.8090
vn 0.5159 -0.4791 -0.7101
vn -0.0000 0.4791 -0.8778
vn 0.5159 0.4791 -0.7101
vn 0.5104 -0.8438 -0.1659
vn 0.9511 -0.0000 -0.3090
vn 0.8348 -0.4791 -0.2712
vn 0.5104 0.8438 -0.1659
vn 0.8348 0.4791 -0.2712
vn 0.9511 -0.0000 0.3090
vn 0.8348 -0.4791 0.2712
vn 0.5104 0.8438 0.1659
vn 0.8348 0.4791 0.2712
vn 0.5104 -0.8438 0.1659
vn 0.3155 0.8438 0.4342
vn 0.5159 0.4791 0.7101
vn 0.5159 -0.4791 0.7101
vn 0.3155 -0.8438 0.4342
vn 0.5878 -0.0000 0.8090
vn -0.0000 -0.4791 0.8778
vn -0.0000 -0.8438 0.5367
vn -0.0000 0.4791 0.8778
vn -0.0000 0.8438 0.5367
vn -0.5159 -0.4791 0.7101
vn -0.3155 -0.8438 0.4342
vn -0.5159 0.4791 0.7101
vn -0.5878 -0.0000 0.8090
vn -0.3155 0.8438 0.4342
vn -0.8348 -0.4791 0.2712
vn -0.5104 -0.8438 0.1659
vn -0.8348 0.4791 0.2712
vn -0.9511 -0.0000 0.3090
vn -0.5104 0.8438 0.1659
vn -0.8348 -0.4791 -0.2712
vn -0.5104 -0.8438 -0.1659
vn -0.8348 0.4791 -0.2712
vn -0.9511 -0.0000 -0.3090
vn -0.5104 0.8438 -0.1659
vn -0.5159 0.4791 -0.7101
vn -0.5878 -0.0000 -0.8090
vn -0.3155 0.8438 -0.4342
vn -0.3155 -0.8438 -0.4342
vn -0.5159 -0.4791 -0.7101
vt 0.000000 0.000000
vt 0.400000 0.000000
vt 0.200000 0.000000
vt 1.000000 0.000000
vt 0.600000 0.000000
vt 0.800000 0.000000
vt 0.000000 1.000000
vt 0.125000 1.000000
vt 0.125000 0.833333
vt 0.000000 0.833333
vt 0.000000 0.166667
vt 0.125000 0.166667
vt 0.125000 0.000000
vt 0.000000 0.333333
vt 0.125000 0.333333
vt 0.000000 0.500000
vt 0.125000 0.500000
vt 0.000000 0.666667
vt 0.125000 0.666667
vt 0.250000 1.000000
vt 0.250000 0.833333
vt 0.250000 0.166667
vt 0.250000 0.000000
vt 0.250000 0.333333
vt 0.250000 0.500000
vt 0.250000 0.666667
vt 0.375000 1.000000
vt 0.375000 0.833333
vt 0.375000 0.166667
vt 0.375000 0.000000
vt 0.375000 0.333333
vt 0.375000 0.500000
vt 0.375000 0.666667
vt 0.500000 1.000000
vt 0.500000 0.833333
vt 0.500000 0.166667
vt 0.500000 0.000000
vt 0.500000 0.333333
vt 0.500000 0.500000
vt 0.500000 0.666667
vt 0.625000 1.000000
vt 0.625000 0.833333
vt 0.625000 0.166667
vt 0.625000 0.000000
vt 0.625000 0.333333
vt 0.625000 0.500000
vt 0.625000 0.666667
vt 0.750000 1.000000
vt 0.750000 0.833333
vt 0.750000 0.166667
vt 0.750000 0.000000
vt 0.750000 0.333333
vt 0.750000 0.500000
vt 0.750000 0.666667
vt 0.875000 1.000000
vt 0.875000 0.833333
vt 0.875000 0.166667
vt 0.875000 0.000000
vt 0.875000 0.333333
vt 0.875000 0.500000
vt 0.875000 0.666667
vt 1.000000 1.000000
vt 1.000000 0.833333
vt 1.000000 0.166667
vt 1.000000 0.333333
vt 1.000000 0.500000
vt 1.000000 0.666667
s 1
usemtl iron
f 1/1/1 3/1/1 2/1/1
f 1/1/1 4/1/1 3/1/1
f 1/1/1 5/1/1 4/1/1
f 1/1/1 6/1/1 5/1/1
f 1/1/1 7/1/1 6/1/1
f 1/1/1 8/1/1 7/1/1
f 1/1/1 9/1/1 8/1/1
f 1/1/1 2/1/1 9/1/1
f 2/1/2 3/1/2 11/1/2 10/1/2
f 3/1/3 4/1/3 12/1/3 11/1/3
f 4/1/4 5/1/4 13/1/4 12/1/4
f 5/1/5 6/1/5 14/1/5 13/1/5
f 6/1/6 7/1/6 15/1/6 14/1/6
f 7/1/7 8/1/7 16/1/7 15/1/7
f 8/1/8 9/1/8 17/1/8 16/1/8
f 9/1/9 2/1/9 10/1/9 17/1/9
f 10/1/10 11/1/11 19/1/11 18/1/10
f 11/1/11 12/1/12 20/1/12 19/1/11
f 12/1/12 13/1/13 21/1/13 20/1/12
f 13/1/13 14/1/14 22/1/14 21/1/13
f 14/1/14 15/1/15 23/1/15 22/1/14
f 15/1/15 16/1/16 24/1/16 23/1/15
f 16/1/16 17/1/17 25/1/17 24/1/16
f 17/1/17 10/1/10 18/1/10 25/1/17
f 18/1/18 19/1/18 27/1/19 26/1/19
f 19/1/20 20/1/20 28/1/21 27/1/21
f 20/1/22 21/1/22 29/1/23 28/1/23
f 21/1/24 22/1/24 30/1/25 29/1/25
f 22/1/26 23/1/26 31/1/27 30/1/27
f 23/1/28 24/1/28 32/1/29 31/1/29
f 24/1/30 25/1/30 33/1/31 32/1/31
f 25/1/32 18/1/32 26/1/33 33/1/33
f 26/1/19 27/1/19 35/1/34 34/1/34
f 27/1/21 28/1/21 36/1/35 35/1/35
f 28/1/23 29/1/23 37/1/36 36/1/36
f 29/1/25 30/1/25 38/1/37 37/1/37
f 30/1/27 31/1/27 39/1/38 38/1/38
f 31/1/29 32/1/29 40/1/39 39/1/39
f 32/1/31 33/1/31 41/1/40 40/1/40
f 33/1/33 26/1/33 34/1/41 41/1/41
f 34/1/34 35/1/34 43/1/42 42/1/42
f 35/1/35 36/1/35 44/1/43 43/1/43
f 36/1/36 37/1/36 45/1/44 44/1/44
f 37/1/37 38/1/37 46/1/45 45/1/45
f 38/1/38 39/1/38 47/1/46 46/1/46
f 39/1/39 40/1/39 48/1/47 47/1/47
f 40/1/40 41/1/40 49/1/48 48/1/48
f 41/1/41 34/1/41 42/1/49 49/1/49
f 42/1/50 43/1/50 50/1/50
f 43/1/50 44/1/50 50/1/50
f 44/1/50 45/1/50 50/1/50
f 45/1/50 46/1/50 50/1/50
f 46/1/50 47/1/50 50/1/50
f 47/1/50 48/1/50 50/1/50
f 48/1/50 49/1/50 50/1/50
f 49/1/50 42/1/50 50/1/50
f 51/1/3 52/1/3 54/1/51 53/1/51
f 53/1/51 54/1/51 56/1/52 55/1/52
f 55/1/52 56/1/52 58/1/9 57/1/9
f 57/1/9 58/1/9 60/1/53 59/1/53
f 59/1/53 60/1/53 62/1/54 61/1/54
f 61/1/54 62/1/54 64/1/7 63/1/7
f 63/1/7 64/1/7 66/1/55 65/1/55
f 65/1/55 66/1/55 68/1/56 67/1/56
f 67/1/56 68/1/56 70/1/5 69/1/5
f 69/1/5 70/1/5 72/1/57 71/1/57
f 54/1/50 52/1/50 74/1/50 72/1/50 70/1/50 68/1/50 66/1/50 64/1/50 62/1/50 60/1/50 58/1/50 56/1/50
f 71/1/57 72/1/57 74/1/58 73/1/58
f 73/1/58 74/1/58 52/1/3 51/1/3
f 51/1/1 53/1/1 55/1/1 57/1/1 59/1/1 61/1/1 63/1/1 65/1/1 67/1/1 69/1/1 71/1/1 73/1/1
f 285/1/127 286/1/128 298/1/129 297/1/130
f 286/1/128 287/1/131 299/1/132 298/1/129
f 287/1/131 288/1/133 300/1/134 299/1/132
f 288/1/133 289/1/135 301/1/136 300/1/134
f 289/1/135 290/1/137 302/1/138 301/1/136
f 290/1/137 291/1/139 303/1/140 302/1/138
f 291/1/139 292/1/141 304/1/142 303/1/140
f 292/1/141 293/1/143 305/1/144 304/1/142
f 293/1/143 294/1/145 306/1/146 305/1/144
f 294/1/145 295/1/147 307/1/148 306/1/146
f 295/1/147 296/1/149 308/1/150 307/1/148
f 296/1/149 285/1/127 297/1/130 308/1/150
f 297/1/130 298/1/129 310/1/151 309/1/152
f 298/1/129 299/1/132 311/1/153 310/1/151
f 299/1/132 300/1/134 312/1/154 311/1/153
f 300/1/134 301/1/136 313/1/155 312/1/154
f 301/1/136 302/1/138 314/1/156 313/1/155
f 302/1/138 303/1/140 315/1/157 314/1/156
f 303/1/140 304/1/142 316/1/158 315/1/157
f 304/1/142 305/1/144 317/1/159 316/1/158
f 305/1/144 306/1/146 318/1/160 317/1/159
f 306/1/146 307/1/148 319/1/161 318/1/160
f 307/1/148 308/1/150 320/1/162 319/1/161
f 308/1/150 297/1/130 309/1/152 320/1/162
f 309/1/152 310/1/151 322/1/163 321/1/164
f 310/1/151 311/1/153 323/1/165 322/1/163
f 311/1/153 312/1/154 324/1/166 323/1/165
f 312/1/154 313/1/155 325/1/167 324/1/166
f 313/1/155 314/1/156 326/1/168 325/1/167
f 314/1/156 315/1/157 327/1/169 326/1/168
f 315/1/157 316/1/158 328/1/170 327/1/169
f 316/1/158 317/1/159 329/1/171 328/1/170
f 317/1/159 318/1/160 330/1/172 329/1/171
f 318/1/160 319/1/161 331/1/173 330/1/172
f 319/1/161 320/1/162 332/1/174 331/1/173
f 320/1/162 309/1/152 321/1/164 332/1/174
f 321/1/50 322/1/50 333/1/50
f 322/1/50 323/1/50 333/1/50
f 323/1/50 324/1/50 333/1/50
f 324/1/50 325/1/50 333/1/50
f 325/1/50 326/1/50 333/1/50
f 326/1/50 327/1/50 333/1/50
f 327/1/50 328/1/50 333/1/50
f 328/1/50 329/1/50 333/1/50
f 329/1/50 330/1/50 333/1/50
f 330/1/50 331/1/50 333/1/50
f 331/1/50 332/1/50 333/1/50
f 332/1/50 321/1/50 333/1/50
f 285/1/1 296/1/1 295/1/1 294/1/1 293/1/1 292/1/1 291/1/1 290/1/1 289/1/1 288/1/1 287/1/1 286/1/1
f 336/2/175 334/1/175 335/3/176
f 336/2/175 339/4/175 334/1/175
f 337/5/177 339/4/175 336/2/175
f 337/5/177 338/6/176 339/4/175
f 342/2/178 344/6/178 343/5/179
f 342/2/178 345/4/178 344/6/178
f 341/3/178 345/4/178 342/2/178
f 341/3/178 340/1/180 345/4/178
f 340/7/181 346/8/182 351/9/182 345/10/181
f 341/11/183 347/12/184 346/13/184 340/1/183
f 342/14/185 348/15/186 347/12/186 341/11/185
f 343/16/187 349/17/188 348/15/189 342/14/187
f 344/18/190 350/19/191 349/17/191 343/16/190
f 345/10/192 351/9/193 350/19/193 344/18/192
f 346/8/182 352/20/194 357/21/195 351/9/182
f 347/12/184 353/22/196 352/23/196 346/13/184
f 348/15/186 354/24/197 353/22/197 347/12/186
f 349/17/188 355/25/198 354/24/198 348/15/189
f 350/19/191 356/26/199 355/25/199 349/17/191
f 351/9/193 357/21/200 356/26/200 350/19/193
f 352/20/194 358/27/201 363/28/202 357/21/195
f 353/22/196 359/29/203 358/30/203 352/23/196
f 354/24/197 360/31/204 359/29/205 353/22/197
f 355/25/198 361/32/206 360/31/206 354/24/198
f 356/26/199 362/33/207 361/32/207 355/25/199
f 357/21/200 363/28/208 362/33/208 356/26/200
f 358/27/201 364/34/209 369/35/210 363/28/202
f 359/29/203 365/36/211 364/37/211 358/30/203
f 360/31/204 366/38/212 365/36/213 359/29/205
f 361/32/206 367/39/214 366/38/214 360/31/206
f 362/33/207 368/40/215 367/39/215 361/32/207
f 363/28/208 369/35/216 368/40/216 362/33/208
f 364/34/209 370/41/217 375/42/218 369/35/210
f 365/36/211 371/43/219 370/44/219 364/37/211
f 366/38/212 372/45/220 371/43/221 365/36/213
f 367/39/214 373/46/222 372/45/223 366/38/214
f 368/40/215 374/47/224 373/46/224 367/39/215
f 369/35/216 375/42/225 374/47/226 368/40/216
f 370/41/217 376/48/227 381/49/228 375/42/218
f 371/43/219 377/50/229 376/51/229 370/44/219
f 372/45/220 378/52/230 377/50/231 371/43/221
f 373/46/222 379/53/232 378/52/232 372/45/223
f 374/47/224 380/54/233 379/53/233 373/46/224
f 375/42/225 381/49/234 380/54/235 374/47/226
f 376/48/227 382/55/236 387/56/237 381/49/228
f 377/50/229 383/57/238 382/58/238 376/51/229
f 378/52/230 384/59/239 383/57/240 377/50/231
f 379/53/232 385/60/241 384/59/242 378/52/232
f 380/54/233 386/61/243 385/60/243 379/53/233
f 381/49/234 387/56/244 386/61/245 380/54/235
f 382/55/236 334/62/246 339/63/246 387/56/237
f 383/57/238 335/64/247 334/4/247 382/58/238
f 384/59/239 336/65/248 335/64/248 383/57/240
f 385/60/241 337/66/249 336/65/249 384/59/242
f 386/61/243 338/67/250 337/66/250 385/60/243
f 387/56/244 339/63/251 338/67/251 386/61/245
f 390/2/252 388/1/252 389/3/252
f 390/2/252 393/4/252 388/1/252
f 391/5/252 393/4/252 390/2/252
f 391/5/252 392/6/253 393/4/252
f 396/2/254 398/6/254 397/5/255
f 396/2/254 399/4/254 398/6/254
f 395/3/256 399/4/254 396/2/254
f 395/3/256 394/1/254 399/4/254
f 394/7/257 400/8/258 405/9/258 399/10/257
f 395/11/259 401/12/260 400/13/260 394/1/259
f 396/14/261 402/15/262 401/12/262 395/11/261
f 397/16/263 403/17/264 402/15/264 396/14/263
f 398/18/265 404/19/266 403/17/266 397/16/265
f 399/10/267 405/9/268 404/19/268 398/18/267
f 400/8/258 406/20/269 411/21/270 405/9/258
f 401/12/260 407/22/271 406/23/271 400/13/260
f 402/15/262 408/24/272 407/22/273 401/12/262
f 403/17/264 409/25/274 408/24/274 402/15/264
f 404/19/266 410/26/275 409/25/275 403/17/266
f 405/9/268 411/21/276 410/26/276 404/19/268
f 406/20/269 412/27/277 417/28/278 411/21/270
f 407/22/271 413/29/279 412/30/279 406/23/271
f 408/24/272 414/31/280 413/29/281 407/22/273
f 409/25/274 415/32/282 414/31/282 408/24/274
f 410/26/275 416/33/283 415/32/283 409/25/275
f 411/21/276 417/28/284 416/33/284 410/26/276
f 412/27/277 418/34/285 423/35/286 417/28/278
f 413/29/279 419/36/287 418/37/287 412/30/279
f 414/31/280 420/38/288 419/36/289 413/29/281
f 415/32/282 421/39/290 420/38/290 414/31/282
f 416/33/283 422/40/291 421/39/291 415/32/283
f 417/28/284 423/35/292 422/40/292 416/33/284
f 418/34/285 424/41/293 429/42/294 423/35/286
f 419/36/287 425/43/295 424/44/295 418/37/287
f 420/38/288 426/45/296 425/43/297 419/36/289
f 421/39/290 427/46/298 426/45/299 420/38/290
f 422/40/291 428/47/300 427/46/300 421/39/291
f 423/35/292 429/42/301 428/47/302 422/40/292
f 424/41/293 430/48/303 435/49/304 429/42/294
f 425/43/295 431/50/305 430/51/305 424/44/295
f 426/45/296 432/52/306 431/50/307 425/43/297
f 427/46/298 433/53/308 432/52/309 426/45/299
f 428/47/300 434/54/310 433/53/310 427/46/300
f 429/42/301 435/49/311 434/54/311 428/47/302
f 430/48/303 436/55/312 441/56/313 435/49/304
f 431/50/305 437/57/314 436/58/314 430/51/305
f 432/52/306 438/59/315 437/57/316 431/50/307
f 433/53/308 439/60/317 438/59/318 432/52/309
f 434/54/310 440/61/319 439/60/319 433/53/310
f 435/49/311 441/56/320 440/61/321 434/54/311
f 436/55/312 388/62/322 393/63/322 441/56/313
f 437/57/314 389/64/323 388/4/323 436/58/314
f 438/59/315 390/65/324 389/64/324 437/57/316
f 439/60/317 391/66/325 390/65/325 438/59/318
f 440/61/319 392/67/326 391/66/326 439/60/319
f 441/56/320 393/63/327 392/67/327 440/61/321
f 444/2/328 442/1/328 443/3/329
f 444/2/328 447/4/328 442/1/328
f 445/5/330 447/4/328 444/2/328
f 445/5/330 446/6/329 447/4/328
f 450/2/331 452/6/331 451/5/332
f 450/2/331 453/4/331 452/6/331
f 449/3/331 453/4/331 450/2/331
f 449/3/331 448/1/331 453/4/331
f 448/7/333 454/8/334 459/9/334 453/10/333
f 449/11/335 455/12/336 454/13/336 448/1/335
f 450/14/337 456/15/338 455/12/338 449/11/337
f 451/16/339 457/17/340 456/15/341 450/14/339
f 452/18/342 458/19/343 457/17/343 451/16/342
f 453/10/344 459/9/345 458/19/345 452/18/344
f 454/8/334 460/20/346 465/21/347 459/9/334
f 455/12/336 461/22/348 460/23/348 454/13/336
f 456/15/338 462/24/349 461/22/349 455/12/338
f 457/17/340 463/25/350 462/24/350 456/15/341
f 458/19/343 464/26/351 463/25/351 457/17/343
f 459/9/345 465/21/352 464/26/352 458/19/345
f 460/20/346 466/27/353 471/28/354 465/21/347
f 461/22/348 467/29/355 466/30/355 460/23/348
f 462/24/349 468/31/356 467/29/357 461/22/349
f 463/25/350 469/32/358 468/31/358 462/24/350
f 464/26/351 470/33/359 469/32/359 463/25/351
f 465/21/352 471/28/360 470/33/360 464/26/352
f 466/27/353 472/34/361 477/35/362 471/28/354
f 467/29/355 473/36/363 472/37/363 466/30/355
f 468/31/356 474/38/364 473/36/365 467/29/357
f 469/32/358 475/39/366 474/38/366 468/31/358
f 470/33/359 476/40/367 475/39/367 469/32/359
f 471/28/360 477/35/368 476/40/368 470/33/360
f 472/34/361 478/41/369 483/42/370 477/35/362
f 473/36/363 479/43/371 478/44/371 472/37/363
f 474/38/364 480/45/372 479/43/373 473/36/365
f 475/39/366 481/46/374 480/45/375 474/38/366
f 476/40/367 482/47/376 481/46/376 475/39/367
f 477/35/368 483/42/377 482/47/378 476/40/368
f 478/41/369 484/48/379 489/49/380 483/42/370
f 479/43/371 485/50/381 484/51/381 478/44/371
f 480/45/372 486/52/382 485/50/383 479/43/373
f 481/46/374 487/53/384 486/52/384 480/45/375
f 482/47/376 488/54/385 487/53/385 481/46/376
f 483/42/377 489/49/386 488/54/387 482/47/378
f 484/48/379 490/55/388 495/56/389 489/49/380
f 485/50/381 491/57/390 490/58/390 484/51/381
f 486/52/382 492/59/391 491/57/392 485/50/383
f 487/53/384 493/60/393 492/59/394 486/52/384
f 488/54/385 494/61/395 493/60/395 487/53/385
f 489/49/386 495/56/396 494/61/397 488/54/387
f 490/55/388 442/62/398 447/63/398 495/56/389
f 491/57/390 443/64/399 442/4/399 490/58/390
f 492/59/391 444/65/400 443/64/400 491/57/392
f 493/60/393 445/66/401 444/65/401 492/59/394
f 494/61/395 446/67/402 445/66/402 493/60/395
f 495/56/396 447/63/403 446/67/403 494/61/397
f 498/2/404 496/1/404 497/3/405
f 498/2/404 501/4/404 496/1/404
f 499/5/404 501/4/404 498/2/404
f 499/5/404 500/6/405 501/4/404
f 504/2/406 506/6/406 505/5/407
f 504/2/406 507/4/406 506/6/406
f 503/3/408 507/4/406 504/2/406
f 503/3/408 502/1/406 507/4/406
f 502/7/409 508/8/410 513/9/410 507/10/409
f 503/11/411 509/12/412 508/13/412 502/1/411
f 504/14/413 510/15/414 509/12/414 503/11/413
f 505/16/415 511/17/416 510/15/417 504/14/415
f 506/18/418 512/19/419 511/17/419 505/16/418
f 507/10/420 513/9/421 512/19/422 506/18/420
f 508/8/410 514/20/423 519/21/424 513/9/410
f 509/12/412 515/22/425 514/23/425 508/13/412
f 510/15/414 516/24/426 515/22/427 509/12/414
f 511/17/416 517/25/428 516/24/428 510/15/417
f 512/19/419 518/26/429 517/25/429 511/17/419
f 513/9/421 519/21/430 518/26/430 512/19/422
f 514/20/423 520/27/431 525/28/432 519/21/424
f 515/22/425 521/29/433 520/30/433 514/23/425
f 516/24/426 522/31/434 521/29/435 515/22/427
f 517/25/428 523/32/436 522/31/436 516/24/428
f 518/26/429 524/33/437 523/32/437 517/25/429
f 519/21/430 525/28/438 524/33/438 518/26/430
f 520/27/431 526/34/439 531/35/440 525/28/432
f 521/29/433 527/36/441 526/37/441 520/30/433
f 522/31/434 528/38/442 527/36/443 521/29/435
f 523/32/436 529/39/444 528/38/444 522/31/436
f 524/33/437 530/40/445 529/39/445 523/32/437
f 525/28/438 531/35/446 530/40/446 524/33/438
f 526/34/439 532/41/447 537/42/448 531/35/440
f 527/36/441 533/43/449 532/44/449 526/37/441
f 528/38/442 534/45/450 533/43/451 527/36/443
f 529/39/444 535/46/452 534/45/453 528/38/444
f 530/40/445 536/47/454 535/46/454 529/39/445
f 531/35/446 537/42/455 536/47/456 530/40/446
f 532/41/447 538/48/457 543/49/458 537/42/448
f 533/43/449 539/50/459 538/51/459 532/44/449
f 534/45/450 540/52/460 539/50/461 533/43/451
f 535/46/452 541/53/462 540/52/463 534/45/453
f 536/47/454 542/54/464 541/53/464 535/46/454
f 537/42/455 543/49/465 542/54/465 536/47/456
f 538/48/457 544/55/466 549/56/467 543/49/458
f 539/50/459 545/57/468 544/58/468 538/51/459
f 540/52/460 546/59/469 545/57/470 539/50/461
f 541/53/462 547/60/471 546/59/472 540/52/463
f 542/54/464 548/61/473 547/60/473 541/53/464
f 543/49/465 549/56/474 548/61/475 542/54/465
f 544/55/466 496/62/476 501/63/476 549/56/467
f 545/57/468 497/64/477 496/4/477 544/58/468
f 546/59/469 498/65/478 497/64/478 545/57/470
f 547/60/471 499/66/479 498/65/479 546/59/472
f 548/61/473 500/67/480 499/66/480 547/60/473
f 549/56/474 501/63/481 500/67/481 548/61/475
f 559/1/1 561/1/1 560/1/1
f 559/1/1 562/1/1 561/1/1
f 559/1/1 563/1/1 562/1/1
f 559/1/1 560/1/1 563/1/1
f 560/1/3 561/1/3 565/1/3 564/1/3
f 561/1/5 562/1/5 566/1/5 565/1/5
f 562/1/7 563/1/7 567/1/7 566/1/7
f 563/1/9 560/1/9 564/1/9 567/1/9
f 564/1/50 565/1/50 568/1/50
f 565/1/50 566/1/50 568/1/50
f 566/1/50 567/1/50 568/1/50
f 567/1/50 564/1/50 568/1/50
f 574/4/486 572/5/487 573/6/486
f 574/4/486 571/2/486 572/5/487
f 569/1/486 571/2/486 574/4/486
f 569/1/486 570/3/486 571/2/486
f 577/2/488 579/6/489 578/5/488
f 577/2/488 580/4/488 579/6/489
f 576/3/488 580/4/488 577/2/488
f 576/3/488 575/1/488 580/4/488
f 575/7/490 569/62/490 574/63/490 580/10/490
f 576/11/491 570/64/491 569/4/491 575/1/491
f 577/14/492 571/65/492 570/64/492 576/11/492
f 578/16/493 572/66/493 571/65/493 577/14/493
f 579/18/494 573/67/494 572/66/494 578/16/494
f 580/10/495 574/63/495 573/67/495 579/18/495
f 586/4/496 584/5/497 585/6/496
f 586/4/496 583/2/497 584/5/497
f 581/1/497 583/2/497 586/4/496
f 581/1/497 582/3/497 583/2/497
f 589/2/498 591/6/498 590/5/498
f 589/2/498 592/4/498 591/6/498
f 588/3/498 592/4/498 589/2/498
f 588/3/498 587/1/498 592/4/498
f 587/7/499 581/62/499 586/63/499 592/10/499
f 588/11/500 582/64/500 581/4/500 587/1/500
f 589/14/501 583/65/501 582/64/501 588/11/501
f 590/16/502 584/66/502 583/65/502 589/14/502
f 591/18/503 585/67/503 584/66/503 590/16/503
f 592/10/504 586/63/504 585/67/504 591/18/504
f 598/4/505 596/5/506 597/6/505
f 598/4/505 595/2/505 596/5/506
f 593/1/505 595/2/505 598/4/505
f 593/1/505 594/3/505 595/2/505
f 601/2/507 603/6/508 602/5/507
f 601/2/507 604/4/507 603/6/508
f 600/3/507 604/4/507 601/2/507
f 600/3/507 599/1/507 604/4/507
f 599/7/509 593/62/509 598/63/509 604/10/509
f 600/11/510 594/64/510 593/4/510 599/1/510
f 601/14/511 595/65/511 594/64/511 600/11/511
f 602/16/512 596/66/512 595/65/512 601/14/512
f 603/18/513 597/67/513 596/66/513 602/16/513
f 604/10/514 598/63/514 597/67/514 603/18/514
f 610/4/515 608/5/516 609/6/515
f 610/4/515 607/2/516 608/5/516
f 605/1/516 607/2/516 610/4/515
f 605/1/516 606/3/516 607/2/516
f 613/2/517 615/6/517 614/5/517
f 613/2/517 616/4/517 615/6/517
f 612/3/517 616/4/517 613/2/517
f 612/3/517 611/1/517 616/4/517
f 611/7/518 605/62/518 610/63/518 616/10/518
f 612/11/519 606/64/519 605/4/519 611/1/519
f 613/14/520 607/65/520 606/64/520 612/11/520
f 614/16/521 608/66/521 607/65/521 613/14/521
f 615/18/522 609/67/522 608/66/522 614/16/522
f 616/10/523 610/63/523 609/67/523 615/18/523
f 617/1/1 619/1/1 618/1/1
f 617/1/1 620/1/1 619/1/1
f 617/1/1 621/1/1 620/1/1
f 617/1/1 618/1/1 621/1/1
f 618/1/3 619/1/3 623/1/3 622/1/3
f 619/1/5 620/1/5 624/1/5 623/1/5
f 620/1/7 621/1/7 625/1/7 624/1/7
f 621/1/9 618/1/9 622/1/9 625/1/9
f 622/1/524 623/1/524 627/1/525 626/1/525
f 623/1/526 624/1/526 628/1/527 627/1/527
f 624/1/528 625/1/528 629/1/529 628/1/529
f 625/1/530 622/1/530 626/1/531 629/1/531
f 626/1/525 627/1/525 631/1/532 630/1/533
f 627/1/527 628/1/527 632/1/534 631/1/532
f 628/1/529 629/1/529 633/1/535 632/1/534
f 629/1/531 626/1/531 630/1/533 633/1/535
f 630/1/533 631/1/532 634/1/50
f 631/1/532 632/1/534 634/1/50
f 632/1/534 633/1/535 634/1/50
f 633/1/535 630/1/533 634/1/50
usemtl gold
f 75/1/59 76/1/60 90/1/60 89/1/59
f 76/1/60 77/1/61 91/1/61 90/1/60
f 77/1/61 78/1/62 92/1/62 91/1/61
f 78/1/62 79/1/63 93/1/63 92/1/62
f 79/1/63 80/1/64 94/1/64 93/1/63
f 80/1/64 81/1/65 95/1/65 94/1/64
f 81/1/65 82/1/66 96/1/66 95/1/65
f 82/1/66 83/1/67 97/1/67 96/1/66
f 83/1/67 84/1/68 98/1/68 97/1/67
f 84/1/68 85/1/69 99/1/69 98/1/68
f 85/1/69 86/1/70 100/1/70 99/1/69
f 86/1/70 87/1/71 101/1/71 100/1/70
f 87/1/71 88/1/72 102/1/72 101/1/71
f 88/1/72 75/1/59 89/1/59 102/1/72
f 89/1/73 90/1/74 104/1/74 103/1/73
f 90/1/74 91/1/75 105/1/75 104/1/74
f 91/1/75 92/1/76 106/1/76 105/1/75
f 92/1/76 93/1/77 107/1/77 106/1/76
f 93/1/77 94/1/78 108/1/78 107/1/77
f 94/1/78 95/1/79 109/1/79 108/1/78
f 95/1/79 96/1/80 110/1/80 109/1/79
f 96/1/80 97/1/81 111/1/81 110/1/80
f 97/1/81 98/1/82 112/1/82 111/1/81
f 98/1/82 99/1/83 113/1/83 112/1/82
f 99/1/83 100/1/84 114/1/84 113/1/83
f 100/1/84 101/1/85 115/1/85 114/1/84
f 101/1/85 102/1/86 116/1/86 115/1/85
f 102/1/86 89/1/73 103/1/73 116/1/86
f 103/1/5 104/1/87 118/1/87 117/1/5
f 104/1/87 105/1/88 119/1/88 118/1/87
f 105/1/88 106/1/89 120/1/89 119/1/88
f 106/1/89 107/1/90 121/1/90 120/1/89
f 107/1/90 108/1/91 122/1/91 121/1/90
f 108/1/91 109/1/92 123/1/92 122/1/91
f 109/1/92 110/1/9 124/1/9 123/1/92
f 110/1/9 111/1/93 125/1/93 124/1/9
f 111/1/93 112/1/94 126/1/94 125/1/93
f 112/1/94 113/1/95 127/1/95 126/1/94
f 113/1/95 114/1/96 128/1/96 127/1/95
f 114/1/96 115/1/97 129/1/97 128/1/96
f 115/1/97 116/1/98 130/1/98 129/1/97
f 116/1/98 103/1/5 117/1/5 130/1/98
f 117/1/99 118/1/100 132/1/100 131/1/99
f 118/1/100 119/1/101 133/1/101 132/1/100
f 119/1/101 120/1/102 134/1/102 133/1/101
f 120/1/102 121/1/103 135/1/103 134/1/102
f 121/1/103 122/1/104 136/1/104 135/1/103
f 122/1/104 123/1/105 137/1/105 136/1/104
f 123/1/105 124/1/106 138/1/106 137/1/105
f 124/1/106 125/1/107 139/1/107 138/1/106
f 125/1/107 126/1/108 140/1/108 139/1/107
f 126/1/108 127/1/109 141/1/109 140/1/108
f 127/1/109 128/1/110 142/1/110 141/1/109
f 128/1/110 129/1/111 143/1/111 142/1/110
f 129/1/111 130/1/112 144/1/112 143/1/111
f 130/1/112 117/1/99 131/1/99 144/1/112
f 131/1/113 132/1/114 76/1/114 75/1/113
f 132/1/114 133/1/115 77/1/115 76/1/114
f 133/1/115 134/1/116 78/1/116 77/1/115
f 134/1/116 135/1/117 79/1/117 78/1/116
f 135/1/117 136/1/118 80/1/118 79/1/117
f 136/1/118 137/1/119 81/1/119 80/1/118
f 137/1/119 138/1/120 82/1/120 81/1/119
f 138/1/120 139/1/121 83/1/121 82/1/120
f 139/1/121 140/1/122 84/1/122 83/1/121
f 140/1/122 141/1/123 85/1/123 84/1/122
f 141/1/123 142/1/124 86/1/124 85/1/123
f 142/1/124 143/1/125 87/1/125 86/1/124
f 143/1/125 144/1/126 88/1/126 87/1/125
f 144/1/126 131/1/113 75/1/113 88/1/126
f 145/1/59 146/1/60 160/1/60 159/1/59
f 146/1/60 147/1/61 161/1/61 160/1/60
f 147/1/61 148/1/62 162/1/62 161/1/61
f 148/1/62 149/1/63 163/1/63 162/1/62
f 149/1/63 150/1/64 164/1/64 163/1/63
f 150/1/64 151/1/65 165/1/65 164/1/64
f 151/1/65 152/1/66 166/1/66 165/1/65
f 152/1/66 153/1/67 167/1/67 166/1/66
f 153/1/67 154/1/68 168/1/68 167/1/67
f 154/1/68 155/1/69 169/1/69 168/1/68
f 155/1/69 156/1/70 170/1/70 169/1/69
f 156/1/70 157/1/71 171/1/71 170/1/70
f 157/1/71 158/1/72 172/1/72 171/1/71
f 158/1/72 145/1/59 159/1/59 172/1/72
f 159/1/73 160/1/74 174/1/74 173/1/73
f 160/1/74 161/1/75 175/1/75 174/1/74
f 161/1/75 162/1/76 176/1/76 175/1/75
f 162/1/76 163/1/77 177/1/77 176/1/76
f 163/1/77 164/1/78 178/1/78 177/1/77
f 164/1/78 165/1/79 179/1/79 178/1/78
f 165/1/79 166/1/80 180/1/80 179/1/79
f 166/1/80 167/1/81 181/1/81 180/1/80
f 167/1/81 168/1/82 182/1/82 181/1/81
f 168/1/82 169/1/83 183/1/83 182/1/82
f 169/1/83 170/1/84 184/1/84 183/1/83
f 170/1/84 171/1/85 185/1/85 184/1/84
f 171/1/85 172/1/86 186/1/86 185/1/85
f 172/1/86 159/1/73 173/1/73 186/1/86
f 173/1/5 174/1/87 188/1/87 187/1/5
f 174/1/87 175/1/88 189/1/88 188/1/87
f 175/1/88 176/1/89 190/1/89 189/1/88
f 176/1/89 177/1/90 191/1/90 190/1/89
f 177/1/90 178/1/91 192/1/91 191/1/90
f 178/1/91 179/1/92 193/1/92 192/1/91
f 179/1/92 180/1/9 194/1/9 193/1/92
f 180/1/9 181/1/93 195/1/93 194/1/9
f 181/1/93 182/1/94 196/1/94 195/1/93
f 182/1/94 183/1/95 197/1/95 196/1/94
f 183/1/95 184/1/96 198/1/96 197/1/95
f 184/1/96 185/1/97 199/1/97 198/1/96
f 185/1/97 186/1/98 200/1/98 199/1/97
f 186/1/98 173/1/5 187/1/5 200/1/98
f 187/1/99 188/1/100 202/1/100 201/1/99
f 188/1/100 189/1/101 203/1/101 202/1/100
f 189/1/101 190/1/102 204/1/102 203/1/101
f 190/1/102 191/1/103 205/1/103 204/1/102
f 191/1/103 192/1/104 206/1/104 205/1/103
f 192/1/104 193/1/105 207/1/105 206/1/104
f 193/1/105 194/1/106 208/1/106 207/1/105
f 194/1/106 195/1/107 209/1/107 208/1/106
f 195/1/107 196/1/108 210/1/108 209/1/107
f 196/1/108 197/1/109 211/1/109 210/1/108
f 197/1/109 198/1/110 212/1/110 211/1/109
f 198/1/110 199/1/111 213/1/111 212/1/110
f 199/1/111 200/1/112 214/1/112 213/1/111
f 200/1/112 187/1/99 201/1/99 214/1/112
f 201/1/113 202/1/114 146/1/114 145/1/113
f 202/1/114 203/1/115 147/1/115 146/1/114
f 203/1/115 204/1/116 148/1/116 147/1/115
f 204/1/116 205/1/117 149/1/117 148/1/116
f 205/1/117 206/1/118 150/1/118 149/1/117
f 206/1/118 207/1/119 151/1/119 150/1/118
f 207/1/119 208/1/120 152/1/120 151/1/119
f 208/1/120 209/1/121 153/1/121 152/1/120
f 209/1/121 210/1/122 154/1/122 153/1/121
f 210/1/122 211/1/123 155/1/123 154/1/122
f 211/1/123 212/1/124 156/1/124 155/1/123
f 212/1/124 213/1/125 157/1/125 156/1/124
f 213/1/125 214/1/126 158/1/126 157/1/125
f 214/1/126 201/1/113 145/1/113 158/1/126
f 215/1/59 216/1/60 230/1/60 229/1/59
f 216/1/60 217/1/61 231/1/61 230/1/60
f 217/1/61 218/1/62 232/1/62 231/1/61
f 218/1/62 219/1/63 233/1/63 232/1/62
f 219/1/63 220/1/64 234/1/64 233/1/63
f 220/1/64 221/1/65 235/1/65 234/1/64
f 221/1/65 222/1/66 236/1/66 235/1/65
f 222/1/66 223/1/67 237/1/67 236/1/66
f 223/1/67 224/1/68 238/1/68 237/1/67
f 224/1/68 225/1/69 239/1/69 238/1/68
f 225/1/69 226/1/70 240/1/70 239/1/69
f 226/1/70 227/1/71 241/1/71 240/1/70
f 227/1/71 228/1/72 242/1/72 241/1/71
f 228/1/72 215/1/59 229/1/59 242/1/72
f 229/1/73 230/1/74 244/1/74 243/1/73
f 230/1/74 231/1/75 245/1/75 244/1/74
f 231/1/75 232/1/76 246/1/76 245/1/75
f 232/1/76 233/1/77 247/1/77 246/1/76
f 233/1/77 234/1/78 248/1/78 247/1/77
f 234/1/78 235/1/79 249/1/79 248/1/78
f 235/1/79 236/1/80 250/1/80 249/1/79
f 236/1/80 237/1/81 251/1/81 250/1/80
f 237/1/81 238/1/82 252/1/82 251/1/81
f 238/1/82 239/1/83 253/1/83 252/1/82
f 239/1/83 240/1/84 254/1/84 253/1/83
f 240/1/84 241/1/85 255/1/85 254/1/84
f 241/1/85 242/1/86 256/1/86 255/1/85
f 242/1/86 229/1/73 243/1/73 256/1/86
f 243/1/5 244/1/87 258/1/87 257/1/5
f 244/1/87 245/1/88 259/1/88 258/1/87
f 245/1/88 246/1/89 260/1/89 259/1/88
f 246/1/89 247/1/90 261/1/90 260/1/89
f 247/1/90 248/1/91 262/1/91 261/1/90
f 248/1/91 249/1/92 263/1/92 262/1/91
f 249/1/92 250/1/9 264/1/9 263/1/92
f 250/1/9 251/1/93 265/1/93 264/1/9
f 251/1/93 252/1/94 266/1/94 265/1/93
f 252/1/94 253/1/95 267/1/95 266/1/94
f 253/1/95 254/1/96 268/1/96 267/1/95
f 254/1/96 255/1/97 269/1/97 268/1/96
f 255/1/97 256/1/98 270/1/98 269/1/97
f 256/1/98 243/1/5 257/1/5 270/1/98
f 257/1/99 258/1/100 272/1/100 271/1/99
f 258/1/100 259/1/101 273/1/101 272/1/100
f 259/1/101 260/1/102 274/1/102 273/1/101
f 260/1/102 261/1/103 275/1/103 274/1/102
f 261/1/103 262/1/104 276/1/104 275/1/103
f 262/1/104 263/1/105 277/1/105 276/1/104
f 263/1/105 264/1/106 278/1/106 277/1/105
f 264/1/106 265/1/107 279/1/107 278/1/106
f 265/1/107 266/1/108 280/1/108 279/1/107
f 266/1/108 267/1/109 281/1/109 280/1/108
f 267/1/109 268/1/110 282/1/110 281/1/109
f 268/1/110 269/1/111 283/1/111 282/1/110
f 269/1/111 270/1/112 284/1/112 283/1/111
f 270/1/112 257/1/99 271/1/99 284/1/112
f 271/1/113 272/1/114 216/1/114 215/1/113
f 272/1/114 273/1/115 217/1/115 216/1/114
f 273/1/115 274/1/116 218/1/116 217/1/115
f 274/1/116 275/1/117 219/1/117 218/1/116
f 275/1/117 276/1/118 220/1/118 219/1/117
f 276/1/118 277/1/119 221/1/119 220/1/118
f 277/1/119 278/1/120 222/1/120 221/1/119
f 278/1/120 279/1/121 223/1/121 222/1/120
f 279/1/121 280/1/122 224/1/122 223/1/121
f 280/1/122 281/1/123 225/1/123 224/1/122
f 281/1/123 282/1/124 226/1/124 225/1/123
f 282/1/124 283/1/125 227/1/125 226/1/124
f 283/1/125 284/1/126 228/1/126 227/1/125
f 284/1/126 271/1/113 215/1/113 228/1/126
f 682/1/536 635/1/50 637/1/537
f 636/1/1 686/1/538 641/1/539
f 685/1/540 684/1/3 639/1/541 640/1/542
f 683/1/543 682/1/536 637/1/537 638/1/544
f 686/1/538 685/1/540 640/1/542 641/1/539
f 684/1/3 683/1/543 638/1/544 639/1/541
f 636/1/1 641/1/539 646/1/545
f 640/1/542 639/1/541 644/1/546 645/1/547
f 638/1/544 637/1/537 642/1/548 643/1/549
f 641/1/539 640/1/542 645/1/547 646/1/545
f 639/1/541 638/1/544 643/1/549 644/1/546
f 637/1/537 635/1/50 642/1/548
f 645/1/547 644/1/546 649/1/550 650/1/551
f 643/1/549 642/1/548 647/1/552 648/1/553
f 646/1/545 645/1/547 650/1/551 651/1/554
f 644/1/546 643/1/549 648/1/553 649/1/550
f 642/1/548 635/1/50 647/1/552
f 636/1/1 646/1/545 651/1/554
f 648/1/553 647/1/552 652/1/555 653/1/556
f 651/1/554 650/1/551 655/1/557 656/1/558
f 649/1/550 648/1/553 653/1/556 654/1/559
f 647/1/552 635/1/50 652/1/555
f 636/1/1 651/1/554 656/1/558
f 650/1/551 649/1/550 654/1/559 655/1/557
f 656/1/558 655/1/557 660/1/560 661/1/561
f 654/1/559 653/1/556 658/1/562 659/1/7
f 652/1/555 635/1/50 657/1/563
f 636/1/1 656/1/558 661/1/561
f 655/1/557 654/1/559 659/1/7 660/1/560
f 653/1/556 652/1/555 657/1/563 658/1/562
f 661/1/561 660/1/560 665/1/564 666/1/565
f 659/1/7 658/1/562 663/1/566 664/1/567
f 657/1/563 635/1/50 662/1/568
f 636/1/1 661/1/561 666/1/565
f 660/1/560 659/1/7 664/1/567 665/1/564
f 658/1/562 657/1/563 662/1/568 663/1/566
f 666/1/565 665/1/564 670/1/569 671/1/570
f 664/1/567 663/1/566 668/1/571 669/1/572
f 662/1/568 635/1/50 667/1/573
f 636/1/1 666/1/565 671/1/570
f 665/1/564 664/1/567 669/1/572 670/1/569
f 663/1/566 662/1/568 667/1/573 668/1/571
f 671/1/570 670/1/569 675/1/574 676/1/575
f 669/1/572 668/1/571 673/1/576 674/1/577
f 667/1/573 635/1/50 672/1/578
f 636/1/1 671/1/570 676/1/575
f 670/1/569 669/1/572 674/1/577 675/1/574
f 668/1/571 667/1/573 672/1/578 673/1/576
f 674/1/577 673/1/576 678/1/579 679/1/580
f 672/1/578 635/1/50 677/1/581
f 636/1/1 676/1/575 681/1/582
f 675/1/574 674/1/577 679/1/580 680/1/583
f 673/1/576 672/1/578 677/1/581 678/1/579
f 676/1/575 675/1/574 680/1/583 681/1/582
f 677/1/581 635/1/50 682/1/536
f 636/1/1 681/1/582 686/1/538
f 680/1/583 679/1/580 684/1/3 685/1/540
f 678/1/579 677/1/581 682/1/536 683/1/543
f 681/1/582 680/1/583 685/1/540 686/1/538
f 679/1/580 678/1/579 683/1/543 684/1/3
f 687/1/51 688/1/51 690/1/51 689/1/51
f 689/1/9 690/1/9 692/1/9 691/1/9
f 691/1/54 692/1/54 694/1/54 693/1/54
f 693/1/55 694/1/55 696/1/55 695/1/55
f 690/1/50 688/1/50 698/1/50 696/1/50 694/1/50 692/1/50
f 695/1/5 696/1/5 698/1/5 697/1/5
f 697/1/58 698/1/58 688/1/58 687/1/58
f 687/1/1 689/1/1 691/1/1 693/1/1 695/1/1 697/1/1
usemtl lamp_e2
f 550/1/482 551/1/482 555/1/482 554/1/482
f 551/1/483 552/1/483 556/1/483 555/1/483
f 552/1/484 553/1/484 557/1/484 556/1/484
f 553/1/485 550/1/485 554/1/485 557/1/485
f 554/1/50 555/1/50 558/1/50
f 555/1/50 556/1/50 558/1/50
f 556/1/50 557/1/50 558/1/50
f 557/1/50 554/1/50 558/1/50
f 550/1/1 553/1/1 552/1/1 551/1/1
