# Blender 5.0.1
# www.blender.org
mtllib Lock.mtl
o Lock
v -0.580000 0.000000 0.085000 0.9098 0.6980 0.2275
v -0.580000 0.220000 0.305000 0.9098 0.6980 0.2275
v -0.800000 0.220000 0.085000 0.9098 0.6980 0.2275
v -0.580000 0.029391 0.194856 0.9098 0.6980 0.2275
v -0.689856 0.029391 0.085000 0.9098 0.6980 0.2275
v -0.685207 0.057941 0.190207 0.9098 0.6980 0.2275
v -0.689856 0.220000 0.275609 0.9098 0.6980 0.2275
v -0.580000 0.110144 0.275609 0.9098 0.6980 0.2275
v -0.685207 0.114793 0.247059 0.9098 0.6980 0.2275
v -0.770609 0.110144 0.085000 0.9098 0.6980 0.2275
v -0.770609 0.220000 0.194856 0.9098 0.6980 0.2275
v -0.742059 0.114793 0.190207 0.9098 0.6980 0.2275
v -0.580000 1.130000 0.305000 0.9098 0.6980 0.2275
v -0.580000 1.350000 0.085000 0.9098 0.6980 0.2275
v -0.800000 1.130000 0.085000 0.9098 0.6980 0.2275
v -0.580000 1.239856 0.275609 0.9098 0.6980 0.2275
v -0.689856 1.130000 0.275609 0.9098 0.6980 0.2275
v -0.685207 1.235207 0.247059 0.9098 0.6980 0.2275
v -0.689856 1.320609 0.085000 0.9098 0.6980 0.2275
v -0.580000 1.320609 0.194856 0.9098 0.6980 0.2275
v -0.685207 1.292059 0.190207 0.9098 0.6980 0.2275
v -0.770609 1.130000 0.194856 0.9098 0.6980 0.2275
v -0.770609 1.239856 0.085000 0.9098 0.6980 0.2275
v -0.742059 1.235207 0.190207 0.9098 0.6980 0.2275
v -0.580000 0.000000 -0.175000 0.9098 0.6980 0.2275
v -0.800000 0.220000 -0.175000 0.9098 0.6980 0.2275
v -0.580000 0.220000 -0.395000 0.9098 0.6980 0.2275
v -0.689856 0.029391 -0.175000 0.9098 0.6980 0.2275
v -0.580000 0.029391 -0.284856 0.9098 0.6980 0.2275
v -0.685207 0.057941 -0.280207 0.9098 0.6980 0.2275
v -0.770609 0.220000 -0.284856 0.9098 0.6980 0.2275
v -0.770609 0.110144 -0.175000 0.9098 0.6980 0.2275
v -0.742059 0.114793 -0.280207 0.9098 0.6980 0.2275
v -0.580000 0.110144 -0.365609 0.9098 0.6980 0.2275
v -0.689856 0.220000 -0.365609 0.9098 0.6980 0.2275
v -0.685207 0.114793 -0.337059 0.9098 0.6980 0.2275
v -0.580000 1.350000 -0.175000 0.9098 0.6980 0.2275
v -0.580000 1.130000 -0.395000 0.9098 0.6980 0.2275
v -0.800000 1.130000 -0.175000 0.9098 0.6980 0.2275
v -0.580000 1.320609 -0.284856 0.9098 0.6980 0.2275
v -0.689856 1.320609 -0.175000 0.9098 0.6980 0.2275
v -0.685207 1.292059 -0.280207 0.9098 0.6980 0.2275
v -0.689856 1.130000 -0.365609 0.9098 0.6980 0.2275
v -0.580000 1.239856 -0.365609 0.9098 0.6980 0.2275
v -0.685207 1.235207 -0.337059 0.9098 0.6980 0.2275
v -0.770609 1.239856 -0.175000 0.9098 0.6980 0.2275
v -0.770609 1.130000 -0.284856 0.9098 0.6980 0.2275
v -0.742059 1.235207 -0.280207 0.9098 0.6980 0.2275
v 0.580000 0.000000 0.085000 0.9098 0.6980 0.2275
v 0.800000 0.220000 0.085000 0.9098 0.6980 0.2275
v 0.580000 0.220000 0.305000 0.9098 0.6980 0.2275
v 0.689856 0.029391 0.085000 0.9098 0.6980 0.2275
v 0.580000 0.029391 0.194856 0.9098 0.6980 0.2275
v 0.685207 0.057941 0.190207 0.9098 0.6980 0.2275
v 0.770609 0.220000 0.194856 0.9098 0.6980 0.2275
v 0.770609 0.110144 0.085000 0.9098 0.6980 0.2275
v 0.742059 0.114793 0.190207 0.9098 0.6980 0.2275
v 0.580000 0.110144 0.275609 0.9098 0.6980 0.2275
v 0.689856 0.220000 0.275609 0.9098 0.6980 0.2275
v 0.685207 0.114793 0.247059 0.9098 0.6980 0.2275
v 0.580000 1.350000 0.085000 0.9098 0.6980 0.2275
v 0.580000 1.130000 0.305000 0.9098 0.6980 0.2275
v 0.800000 1.130000 0.085000 0.9098 0.6980 0.2275
v 0.580000 1.320609 0.194856 0.9098 0.6980 0.2275
v 0.689856 1.320609 0.085000 0.9098 0.6980 0.2275
v 0.685207 1.292059 0.190207 0.9098 0.6980 0.2275
v 0.689856 1.130000 0.275609 0.9098 0.6980 0.2275
v 0.580000 1.239856 0.275609 0.9098 0.6980 0.2275
v 0.685207 1.235207 0.247059 0.9098 0.6980 0.2275
v 0.770609 1.239856 0.085000 0.9098 0.6980 0.2275
v 0.770609 1.130000 0.194856 0.9098 0.6980 0.2275
v 0.742059 1.235207 0.190207 0.9098 0.6980 0.2275
v 0.580000 0.000000 -0.175000 0.9098 0.6980 0.2275
v 0.580000 0.220000 -0.395000 0.9098 0.6980 0.2275
v 0.800000 0.220000 -0.175000 0.9098 0.6980 0.2275
v 0.580000 0.029391 -0.284856 0.9098 0.6980 0.2275
v 0.689856 0.029391 -0.175000 0.9098 0.6980 0.2275
v 0.685207 0.057941 -0.280207 0.9098 0.6980 0.2275
v 0.689856 0.220000 -0.365609 0.9098 0.6980 0.2275
v 0.580000 0.110144 -0.365609 0.9098 0.6980 0.2275
v 0.685207 0.114793 -0.337059 0.9098 0.6980 0.2275
v 0.770609 0.110144 -0.175000 0.9098 0.6980 0.2275
v 0.770609 0.220000 -0.284856 0.9098 0.6980 0.2275
v 0.742059 0.114793 -0.280207 0.9098 0.6980 0.2275
v 0.580000 1.350000 -0.175000 0.9098 0.6980 0.2275
v 0.800000 1.130000 -0.175000 0.9098 0.6980 0.2275
v 0.580000 1.130000 -0.395000 0.9098 0.6980 0.2275
v 0.689856 1.320609 -0.175000 0.9098 0.6980 0.2275
v 0.580000 1.320609 -0.284856 0.9098 0.6980 0.2275
v 0.685207 1.292059 -0.280207 0.9098 0.6980 0.2275
v 0.770609 1.130000 -0.284856 0.9098 0.6980 0.2275
v 0.770609 1.239856 -0.175000 0.9098 0.6980 0.2275
v 0.742059 1.235207 -0.280207 0.9098 0.6980 0.2275
v 0.580000 1.239856 -0.365609 0.9098 0.6980 0.2275
v 0.689856 1.130000 -0.365609 0.9098 0.6980 0.2275
v 0.685207 1.235207 -0.337059 0.9098 0.6980 0.2275
v -0.627500 0.150000 0.307500 0.7882 0.5412 0.1176
v -0.627500 0.172500 0.330000 0.7882 0.5412 0.1176
v -0.650000 0.172500 0.307500 0.7882 0.5412 0.1176
v -0.627500 1.177500 0.330000 0.7882 0.5412 0.1176
v -0.627500 1.200000 0.307500 0.7882 0.5412 0.1176
v -0.650000 1.177500 0.307500 0.7882 0.5412 0.1176
v -0.627500 0.150000 0.302500 0.7882 0.5412 0.1176
v -0.650000 0.172500 0.302500 0.7882 0.5412 0.1176
v -0.627500 0.172500 0.280000 0.7882 0.5412 0.1176
v -0.627500 1.200000 0.302500 0.7882 0.5412 0.1176
v -0.627500 1.177500 0.280000 0.7882 0.5412 0.1176
v -0.650000 1.177500 0.302500 0.7882 0.5412 0.1176
v 0.627500 0.150000 0.307500 0.7882 0.5412 0.1176
v 0.650000 0.172500 0.307500 0.7882 0.5412 0.1176
v 0.627500 0.172500 0.330000 0.7882 0.5412 0.1176
v 0.627500 1.200000 0.307500 0.7882 0.5412 0.1176
v 0.627500 1.177500 0.330000 0.7882 0.5412 0.1176
v 0.650000 1.177500 0.307500 0.7882 0.5412 0.1176
v 0.627500 0.150000 0.302500 0.7882 0.5412 0.1176
v 0.627500 0.172500 0.280000 0.7882 0.5412 0.1176
v 0.650000 0.172500 0.302500 0.7882 0.5412 0.1176
v 0.627500 1.200000 0.302500 0.7882 0.5412 0.1176
v 0.650000 1.177500 0.302500 0.7882 0.5412 0.1176
v 0.627500 1.177500 0.280000 0.7882 0.5412 0.1176
v 0.000000 0.970000 0.305000 0.1020 0.1020 0.1216
v 0.000000 0.970000 0.365000 0.1020 0.1020 0.1216
v 0.073760 0.953165 0.305000 0.1020 0.1020 0.1216
v 0.073760 0.953165 0.365000 0.1020 0.1020 0.1216
v 0.132911 0.905993 0.305000 0.1020 0.1020 0.1216
v 0.132911 0.905993 0.365000 0.1020 0.1020 0.1216
v 0.165738 0.837829 0.305000 0.1020 0.1020 0.1216
v 0.165738 0.837829 0.365000 0.1020 0.1020 0.1216
v 0.165738 0.762171 0.305000 0.1020 0.1020 0.1216
v 0.165738 0.762171 0.365000 0.1020 0.1020 0.1216
v 0.132911 0.694007 0.305000 0.1020 0.1020 0.1216
v 0.132911 0.694007 0.365000 0.1020 0.1020 0.1216
v 0.073760 0.646835 0.305000 0.1020 0.1020 0.1216
v 0.073760 0.646835 0.365000 0.1020 0.1020 0.1216
v 0.000000 0.630000 0.305000 0.1020 0.1020 0.1216
v 0.000000 0.630000 0.365000 0.1020 0.1020 0.1216
v -0.073760 0.646835 0.305000 0.1020 0.1020 0.1216
v -0.073760 0.646835 0.365000 0.1020 0.1020 0.1216
v -0.132911 0.694007 0.305000 0.1020 0.1020 0.1216
v -0.132911 0.694007 0.365000 0.1020 0.1020 0.1216
v -0.165738 0.762171 0.305000 0.1020 0.1020 0.1216
v -0.165738 0.762171 0.365000 0.1020 0.1020 0.1216
v -0.165738 0.837829 0.305000 0.1020 0.1020 0.1216
v -0.165738 0.837829 0.365000 0.1020 0.1020 0.1216
v -0.132911 0.905993 0.305000 0.1020 0.1020 0.1216
v -0.132911 0.905993 0.365000 0.1020 0.1020 0.1216
v -0.073760 0.953165 0.305000 0.1020 0.1020 0.1216
v -0.073760 0.953165 0.365000 0.1020 0.1020 0.1216
v -0.070000 0.800000 0.365000 0.1020 0.1020 0.1216
v 0.070000 0.800000 0.365000 0.1020 0.1020 0.1216
v 0.120000 0.450000 0.365000 0.1020 0.1020 0.1216
v -0.120000 0.450000 0.365000 0.1020 0.1020 0.1216
v -0.070000 0.800000 0.305000 0.1020 0.1020 0.1216
v 0.070000 0.800000 0.305000 0.1020 0.1020 0.1216
v 0.120000 0.450000 0.305000 0.1020 0.1020 0.1216
v -0.120000 0.450000 0.305000 0.1020 0.1020 0.1216
v -0.520000 0.330000 0.335000 1.0000 0.8784 0.5412
v -0.520000 0.312426 0.292574 1.0000 0.8784 0.5412
v -0.520000 0.270000 0.275000 1.0000 0.8784 0.5412
v -0.520000 0.227574 0.292574 1.0000 0.8784 0.5412
v -0.520000 0.210000 0.335000 1.0000 0.8784 0.5412
v -0.483258 0.312426 0.313787 1.0000 0.8784 0.5412
v -0.468038 0.270000 0.305000 1.0000 0.8784 0.5412
v -0.483258 0.227574 0.313787 1.0000 0.8784 0.5412
v -0.483258 0.312426 0.356213 1.0000 0.8784 0.5412
v -0.468038 0.270000 0.365000 1.0000 0.8784 0.5412
v -0.483258 0.227574 0.356213 1.0000 0.8784 0.5412
v -0.520000 0.312426 0.377426 1.0000 0.8784 0.5412
v -0.520000 0.270000 0.395000 1.0000 0.8784 0.5412
v -0.520000 0.227574 0.377426 1.0000 0.8784 0.5412
v -0.556742 0.312426 0.356213 1.0000 0.8784 0.5412
v -0.571962 0.270000 0.365000 1.0000 0.8784 0.5412
v -0.556742 0.227574 0.356213 1.0000 0.8784 0.5412
v -0.556742 0.312426 0.313787 1.0000 0.8784 0.5412
v -0.571962 0.270000 0.305000 1.0000 0.8784 0.5412
v -0.556742 0.227574 0.313787 1.0000 0.8784 0.5412
v -0.520000 1.140000 0.335000 1.0000 0.8784 0.5412
v -0.520000 1.122427 0.292574 1.0000 0.8784 0.5412
v -0.520000 1.080000 0.275000 1.0000 0.8784 0.5412
v -0.520000 1.037574 0.292574 1.0000 0.8784 0.5412
v -0.520000 1.020000 0.335000 1.0000 0.8784 0.5412
v -0.483258 1.122427 0.313787 1.0000 0.8784 0.5412
v -0.468038 1.080000 0.305000 1.0000 0.8784 0.5412
v -0.483258 1.037574 0.313787 1.0000 0.8784 0.5412
v -0.483258 1.122427 0.356213 1.0000 0.8784 0.5412
v -0.468038 1.080000 0.365000 1.0000 0.8784 0.5412
v -0.483258 1.037574 0.356213 1.0000 0.8784 0.5412
v -0.520000 1.122427 0.377426 1.0000 0.8784 0.5412
v -0.520000 1.080000 0.395000 1.0000 0.8784 0.5412
v -0.520000 1.037574 0.377426 1.0000 0.8784 0.5412
v -0.556742 1.122427 0.356213 1.0000 0.8784 0.5412
v -0.571962 1.080000 0.365000 1.0000 0.8784 0.5412
v -0.556742 1.037574 0.356213 1.0000 0.8784 0.5412
v -0.556742 1.122427 0.313787 1.0000 0.8784 0.5412
v -0.571962 1.080000 0.305000 1.0000 0.8784 0.5412
v -0.556742 1.037574 0.313787 1.0000 0.8784 0.5412
v 0.520000 0.330000 0.335000 1.0000 0.8784 0.5412
v 0.520000 0.312426 0.292574 1.0000 0.8784 0.5412
v 0.520000 0.270000 0.275000 1.0000 0.8784 0.5412
v 0.520000 0.227574 0.292574 1.0000 0.8784 0.5412
v 0.520000 0.210000 0.335000 1.0000 0.8784 0.5412
v 0.556742 0.312426 0.313787 1.0000 0.8784 0.5412
v 0.571962 0.270000 0.305000 1.0000 0.8784 0.5412
v 0.556742 0.227574 0.313787 1.0000 0.8784 0.5412
v 0.556742 0.312426 0.356213 1.0000 0.8784 0.5412
v 0.571962 0.270000 0.365000 1.0000 0.8784 0.5412
v 0.556742 0.227574 0.356213 1.0000 0.8784 0.5412
v 0.520000 0.312426 0.377426 1.0000 0.8784 0.5412
v 0.520000 0.270000 0.395000 1.0000 0.8784 0.5412
v 0.520000 0.227574 0.377426 1.0000 0.8784 0.5412
v 0.483258 0.312426 0.356213 1.0000 0.8784 0.5412
v 0.468038 0.270000 0.365000 1.0000 0.8784 0.5412
v 0.483258 0.227574 0.356213 1.0000 0.8784 0.5412
v 0.483258 0.312426 0.313787 1.0000 0.8784 0.5412
v 0.468038 0.270000 0.305000 1.0000 0.8784 0.5412
v 0.483258 0.227574 0.313787 1.0000 0.8784 0.5412
v 0.520000 1.140000 0.335000 1.0000 0.8784 0.5412
v 0.520000 1.122427 0.292574 1.0000 0.8784 0.5412
v 0.520000 1.080000 0.275000 1.0000 0.8784 0.5412
v 0.520000 1.037574 0.292574 1.0000 0.8784 0.5412
v 0.520000 1.020000 0.335000 1.0000 0.8784 0.5412
v 0.556742 1.122427 0.313787 1.0000 0.8784 0.5412
v 0.571962 1.080000 0.305000 1.0000 0.8784 0.5412
v 0.556742 1.037574 0.313787 1.0000 0.8784 0.5412
v 0.556742 1.122427 0.356213 1.0000 0.8784 0.5412
v 0.571962 1.080000 0.365000 1.0000 0.8784 0.5412
v 0.556742 1.037574 0.356213 1.0000 0.8784 0.5412
v 0.520000 1.122427 0.377426 1.0000 0.8784 0.5412
v 0.520000 1.080000 0.395000 1.0000 0.8784 0.5412
v 0.520000 1.037574 0.377426 1.0000 0.8784 0.5412
v 0.483258 1.122427 0.356213 1.0000 0.8784 0.5412
v 0.468038 1.080000 0.365000 1.0000 0.8784 0.5412
v 0.483258 1.037574 0.356213 1.0000 0.8784 0.5412
v 0.483258 1.122427 0.313787 1.0000 0.8784 0.5412
v 0.468038 1.080000 0.305000 1.0000 0.8784 0.5412
v 0.483258 1.037574 0.313787 1.0000 0.8784 0.5412
v 0.578995 1.250000 0.053995 0.7216 0.7608 0.8000
v 0.480000 1.250000 0.095000 0.7216 0.7608 0.8000
v 0.381005 1.250000 0.053995 0.7216 0.7608 0.8000
v 0.340000 1.250000 -0.045000 0.7216 0.7608 0.8000
v 0.381005 1.250000 -0.143995 0.7216 0.7608 0.8000
v 0.480000 1.250000 -0.185000 0.7216 0.7608 0.8000
v 0.578995 1.250000 -0.143995 0.7216 0.7608 0.8000
v 0.620000 1.250000 -0.045000 0.7216 0.7608 0.8000
v -0.578995 1.250000 0.053995 0.7216 0.7608 0.8000
v -0.480000 1.250000 0.095000 0.7216 0.7608 0.8000
v -0.381005 1.250000 0.053995 0.7216 0.7608 0.8000
v -0.340000 1.250000 -0.045000 0.7216 0.7608 0.8000
v -0.381005 1.250000 -0.143995 0.7216 0.7608 0.8000
v -0.480000 1.250000 -0.185000 0.7216 0.7608 0.8000
v -0.578995 1.250000 -0.143995 0.7216 0.7608 0.8000
v -0.620000 1.250000 -0.045000 0.7216 0.7608 0.8000
v -0.578783 1.856475 0.053995 0.7216 0.7608 0.8000
v -0.480000 1.850000 0.095000 0.7216 0.7608 0.8000
v -0.381217 1.843525 0.053995 0.7216 0.7608 0.8000
v -0.340300 1.840843 -0.045000 0.7216 0.7608 0.8000
v -0.381217 1.843525 -0.143995 0.7216 0.7608 0.8000
v -0.480000 1.850000 -0.185000 0.7216 0.7608 0.8000
v -0.578783 1.856475 -0.143995 0.7216 0.7608 0.8000
v -0.619700 1.859156 -0.045000 0.7216 0.7608 0.8000
v -0.559266 1.999855 0.053995 0.7216 0.7608 0.8000
v -0.463644 1.974233 0.095000 0.7216 0.7608 0.8000
v -0.368023 1.948611 0.053995 0.7216 0.7608 0.8000
v -0.328415 1.937998 -0.045000 0.7216 0.7608 0.8000
v -0.368023 1.948611 -0.143995 0.7216 0.7608 0.8000
v -0.463644 1.974233 -0.185000 0.7216 0.7608 0.8000
v -0.559266 1.999855 -0.143995 0.7216 0.7608 0.8000
v -0.598874 2.010468 -0.045000 0.7216 0.7608 0.8000
v -0.501424 2.139498 0.053995 0.7216 0.7608 0.8000
v -0.415692 2.090000 0.095000 0.7216 0.7608 0.8000
v -0.329960 2.040503 0.053995 0.7216 0.7608 0.8000
v -0.294449 2.020000 -0.045000 0.7216 0.7608 0.8000
v -0.329960 2.040503 -0.143995 0.7216 0.7608 0.8000
v -0.415692 2.090000 -0.185000 0.7216 0.7608 0.8000
v -0.501424 2.139497 -0.143995 0.7216 0.7608 0.8000
v -0.536936 2.160000 -0.045000 0.7216 0.7608 0.8000
v -0.409411 2.259411 0.053995 0.7216 0.7608 0.8000
v -0.339411 2.189411 0.095000 0.7216 0.7608 0.8000
v -0.269411 2.119411 0.053995 0.7216 0.7608 0.8000
v -0.240416 2.090416 -0.045000 0.7216 0.7608 0.8000
v -0.269411 2.119411 -0.143995 0.7216 0.7608 0.8000
v -0.339411 2.189411 -0.185000 0.7216 0.7608 0.8000
v -0.409411 2.259411 -0.143995 0.7216 0.7608 0.8000
v -0.438406 2.288406 -0.045000 0.7216 0.7608 0.8000
v -0.289497 2.351424 0.053995 0.7216 0.7608 0.8000
v -0.240000 2.265692 0.095000 0.7216 0.7608 0.8000
v -0.190503 2.179960 0.053995 0.7216 0.7608 0.8000
v -0.170000 2.144449 -0.045000 0.7216 0.7608 0.8000
v -0.190502 2.179960 -0.143995 0.7216 0.7608 0.8000
v -0.240000 2.265692 -0.185000 0.7216 0.7608 0.8000
v -0.289497 2.351424 -0.143995 0.7216 0.7608 0.8000
v -0.310000 2.386936 -0.045000 0.7216 0.7608 0.8000
v -0.149855 2.409266 0.053995 0.7216 0.7608 0.8000
v -0.124233 2.313644 0.095000 0.7216 0.7608 0.8000
v -0.098611 2.218023 0.053995 0.7216 0.7608 0.8000
v -0.087999 2.178415 -0.045000 0.7216 0.7608 0.8000
v -0.098611 2.218023 -0.143995 0.7216 0.7608 0.8000
v -0.124233 2.313644 -0.185000 0.7216 0.7608 0.8000
v -0.149855 2.409266 -0.143995 0.7216 0.7608 0.8000
v -0.160468 2.448874 -0.045000 0.7216 0.7608 0.8000
v -0.000000 2.428995 0.053995 0.7216 0.7608 0.8000
v -0.000000 2.330000 0.095000 0.7216 0.7608 0.8000
v 0.000000 2.231005 0.053995 0.7216 0.7608 0.8000
v 0.000000 2.190000 -0.045000 0.7216 0.7608 0.8000
v 0.000000 2.231005 -0.143995 0.7216 0.7608 0.8000
v 0.000000 2.330000 -0.185000 0.7216 0.7608 0.8000
v -0.000000 2.428995 -0.143995 0.7216 0.7608 0.8000
v -0.000000 2.470000 -0.045000 0.7216 0.7608 0.8000
v 0.149855 2.409266 0.053995 0.7216 0.7608 0.8000
v 0.124233 2.313644 0.095000 0.7216 0.7608 0.8000
v 0.098611 2.218023 0.053995 0.7216 0.7608 0.8000
v 0.087999 2.178415 -0.045000 0.7216 0.7608 0.8000
v 0.098611 2.218023 -0.143995 0.7216 0.7608 0.8000
v 0.124233 2.313644 -0.185000 0.7216 0.7608 0.8000
v 0.149855 2.409266 -0.143995 0.7216 0.7608 0.8000
v 0.160468 2.448874 -0.045000 0.7216 0.7608 0.8000
v 0.289497 2.351424 0.053995 0.7216 0.7608 0.8000
v 0.240000 2.265692 0.095000 0.7216 0.7608 0.8000
v 0.190503 2.179960 0.053995 0.7216 0.7608 0.8000
v 0.170000 2.144449 -0.045000 0.7216 0.7608 0.8000
v 0.190502 2.179960 -0.143995 0.7216 0.7608 0.8000
v 0.240000 2.265692 -0.185000 0.7216 0.7608 0.8000
v 0.289497 2.351424 -0.143995 0.7216 0.7608 0.8000
v 0.310000 2.386936 -0.045000 0.7216 0.7608 0.8000
v 0.409411 2.259411 0.053995 0.7216 0.7608 0.8000
v 0.339411 2.189411 0.095000 0.7216 0.7608 0.8000
v 0.269411 2.119411 0.053995 0.7216 0.7608 0.8000
v 0.240416 2.090416 -0.045000 0.7216 0.7608 0.8000
v 0.269411 2.119411 -0.143995 0.7216 0.7608 0.8000
v 0.339411 2.189411 -0.185000 0.7216 0.7608 0.8000
v 0.409411 2.259411 -0.143995 0.7216 0.7608 0.8000
v 0.438406 2.288406 -0.045000 0.7216 0.7608 0.8000
v 0.501424 2.139498 0.053995 0.7216 0.7608 0.8000
v 0.415692 2.090000 0.095000 0.7216 0.7608 0.8000
v 0.329960 2.040503 0.053995 0.7216 0.7608 0.8000
v 0.294449 2.020000 -0.045000 0.7216 0.7608 0.8000
v 0.329960 2.040502 -0.143995 0.7216 0.7608 0.8000
v 0.415692 2.090000 -0.185000 0.7216 0.7608 0.8000
v 0.501424 2.139498 -0.143995 0.7216 0.7608 0.8000
v 0.536936 2.160000 -0.045000 0.7216 0.7608 0.8000
v 0.559266 1.999855 0.053995 0.7216 0.7608 0.8000
v 0.463644 1.974233 0.095000 0.7216 0.7608 0.8000
v 0.368023 1.948611 0.053995 0.7216 0.7608 0.8000
v 0.328415 1.937998 -0.045000 0.7216 0.7608 0.8000
v 0.368023 1.948611 -0.143995 0.7216 0.7608 0.8000
v 0.463644 1.974233 -0.185000 0.7216 0.7608 0.8000
v 0.559266 1.999855 -0.143995 0.7216 0.7608 0.8000
v 0.598874 2.010468 -0.045000 0.7216 0.7608 0.8000
v 0.578783 1.856475 0.053995 0.7216 0.7608 0.8000
v 0.480000 1.850000 0.095000 0.7216 0.7608 0.8000
v 0.381217 1.843525 0.053995 0.7216 0.7608 0.8000
v 0.340300 1.840843 -0.045000 0.7216 0.7608 0.8000
v 0.381217 1.843525 -0.143995 0.7216 0.7608 0.8000
v 0.480000 1.850000 -0.185000 0.7216 0.7608 0.8000
v 0.578783 1.856475 -0.143995 0.7216 0.7608 0.8000
v 0.619700 1.859156 -0.045000 0.7216 0.7608 0.8000
vn -0.1296 -0.9831 0.1296
vn -0.1216 -0.8623 0.4915
vn -0.4473 -0.7744 0.4473
vn -0.4915 -0.8623 0.1216
vn -0.1216 -0.4915 0.8623
vn -0.4473 -0.4473 0.7744
vn -0.1296 -0.1296 0.9831
vn -0.4915 -0.1216 0.8623
vn -0.8623 -0.1216 0.4915
vn -0.7744 -0.4473 0.4473
vn -0.9831 -0.1296 0.1296
vn -0.8623 -0.4915 0.1216
vn -0.1296 0.1296 0.9831
vn -0.1216 0.4915 0.8623
vn -0.4473 0.4473 0.7744
vn -0.4915 0.1216 0.8623
vn -0.1216 0.8623 0.4915
vn -0.4473 0.7744 0.4473
vn -0.1296 0.9831 0.1296
vn -0.4915 0.8623 0.1216
vn -0.8623 0.4915 0.1216
vn -0.7744 0.4473 0.4473
vn -0.9831 0.1296 0.1296
vn -0.8623 0.1216 0.4915
vn -0.1296 -0.9831 -0.1296
vn -0.4915 -0.8623 -0.1216
vn -0.4473 -0.7744 -0.4473
vn -0.1216 -0.8623 -0.4915
vn -0.8623 -0.4915 -0.1216
vn -0.7744 -0.4473 -0.4473
vn -0.9831 -0.1296 -0.1296
vn -0.8623 -0.1216 -0.4915
vn -0.4915 -0.1216 -0.8623
vn -0.4473 -0.4473 -0.7744
vn -0.1296 -0.1296 -0.9831
vn -0.1216 -0.4915 -0.8623
vn -0.1296 0.9831 -0.1296
vn -0.1216 0.8623 -0.4915
vn -0.4473 0.7744 -0.4473
vn -0.4915 0.8623 -0.1216
vn -0.1216 0.4915 -0.8623
vn -0.4473 0.4473 -0.7744
vn -0.1296 0.1296 -0.9831
vn -0.4915 0.1216 -0.8623
vn -0.8623 0.1216 -0.4915
vn -0.7744 0.4473 -0.4473
vn -0.9831 0.1296 -0.1296
vn -0.8623 0.4915 -0.1216
vn 0.1296 -0.9831 0.1296
vn 0.4915 -0.8623 0.1216
vn 0.4473 -0.7744 0.4473
vn 0.1216 -0.8623 0.4915
vn 0.8623 -0.4915 0.1216
vn 0.7744 -0.4473 0.4473
vn 0.9831 -0.1296 0.1296
vn 0.8623 -0.1216 0.4915
vn 0.4915 -0.1216 0.8623
vn 0.4473 -0.4473 0.7744
vn 0.1296 -0.1296 0.9831
vn 0.1216 -0.4915 0.8623
vn 0.1296 0.9831 0.1296
vn 0.1216 0.8623 0.4915
vn 0.4473 0.7744 0.4473
vn 0.4915 0.8623 0.1216
vn 0.1216 0.4915 0.8623
vn 0.4473 0.4473 0.7744
vn 0.1296 0.1296 0.9831
vn 0.4915 0.1216 0.8623
vn 0.8623 0.1216 0.4915
vn 0.7744 0.4473 0.4473
vn 0.9831 0.1296 0.1296
vn 0.8623 0.4915 0.1216
vn 0.1296 -0.9831 -0.1296
vn 0.1216 -0.8623 -0.4915
vn 0.4473 -0.7744 -0.4473
vn 0.4915 -0.8623 -0.1216
vn 0.1216 -0.4915 -0.8623
vn 0.4473 -0.4473 -0.7744
vn 0.1296 -0.1296 -0.9831
vn 0.4915 -0.1216 -0.8623
vn 0.8623 -0.1216 -0.4915
vn 0.7744 -0.4473 -0.4473
vn 0.9831 -0.1296 -0.1296
vn 0.8623 -0.4915 -0.1216
vn 0.1296 0.9831 -0.1296
vn 0.4915 0.8623 -0.1216
vn 0.4473 0.7744 -0.4473
vn 0.1216 0.8623 -0.4915
vn 0.8623 0.4915 -0.1216
vn 0.7744 0.4473 -0.4473
vn 0.9831 0.1296 -0.1296
vn 0.8623 0.1216 -0.4915
vn 0.4915 0.1216 -0.8623
vn 0.4473 0.4473 -0.7744
vn 0.1296 0.1296 -0.9831
vn 0.1216 0.4915 -0.8623
vn -0.4606 -0.7588 0.4606
vn -0.4606 -0.4606 0.7588
vn -0.7588 -0.4606 0.4606
vn -0.4606 0.4606 0.7588
vn -0.4606 0.7588 0.4606
vn -0.7588 0.4606 0.4606
vn -0.4606 -0.7588 -0.4606
vn -0.7588 -0.4606 -0.4606
vn -0.4606 -0.4606 -0.7588
vn -0.4606 0.7588 -0.4606
vn -0.4606 0.4606 -0.7588
vn -0.7588 0.4606 -0.4606
vn 0.4606 -0.7588 0.4606
vn 0.7588 -0.4606 0.4606
vn 0.4606 -0.4606 0.7588
vn 0.4606 0.7588 0.4606
vn 0.4606 0.4606 0.7588
vn 0.7588 0.4606 0.4606
vn 0.4606 -0.7588 -0.4606
vn 0.4606 -0.4606 -0.7588
vn 0.7588 -0.4606 -0.4606
vn 0.4606 0.7588 -0.4606
vn 0.7588 0.4606 -0.4606
vn 0.4606 0.4606 -0.7588
vn -0.0000 -1.0000 -0.0000
vn -1.0000 -0.0000 -0.0000
vn -0.0000 -0.0000 1.0000
vn -0.0000 1.0000 -0.0000
vn -0.0000 -0.0000 -1.0000
vn 1.0000 -0.0000 -0.0000
vn 0.4339 0.9010 -0.0000
vn 0.7818 0.6235 -0.0000
vn 0.9749 0.2225 -0.0000
vn 0.9749 -0.2225 -0.0000
vn 0.7818 -0.6235 -0.0000
vn 0.4339 -0.9010 -0.0000
vn -0.4339 -0.9010 -0.0000
vn -0.7818 -0.6235 -0.0000
vn -0.9749 -0.2225 -0.0000
vn -0.9749 0.2225 -0.0000
vn -0.7818 0.6235 -0.0000
vn -0.4339 0.9010 -0.0000
vn 0.9899 0.1414 -0.0000
vn -0.9899 0.1414 -0.0000
vn 0.4706 -0.3377 -0.8152
vn 0.5000 -0.0000 -0.8660
vn -0.0000 0.9239 -0.3827
vn 0.3314 0.9239 -0.1913
vn -0.0000 -0.9239 -0.3827
vn 0.3314 -0.9239 -0.1913
vn 0.4706 0.3377 -0.8152
vn 0.3314 -0.9239 0.1913
vn 0.9413 0.3377 -0.0000
vn 0.9413 -0.3377 -0.0000
vn 0.3314 0.9239 0.1913
vn -0.0000 0.9239 0.3827
vn -0.0000 -0.9239 0.3827
vn 0.5000 -0.0000 0.8660
vn 0.4706 0.3377 0.8152
vn 0.4706 -0.3377 0.8152
vn -0.4706 -0.3377 0.8152
vn -0.5000 -0.0000 0.8660
vn -0.3314 0.9239 0.1913
vn -0.3314 -0.9239 0.1913
vn -0.4706 0.3377 0.8152
vn -0.9413 -0.3377 -0.0000
vn -0.3314 0.9239 -0.1913
vn -0.3314 -0.9239 -0.1913
vn -0.9413 0.3377 -0.0000
vn -0.4706 -0.3377 -0.8152
vn -0.5000 -0.0000 -0.8660
vn -0.4706 0.3377 -0.8152
vn -0.9240 0.0004 0.3823
vn -0.9218 0.0631 0.3824
vn -0.9218 0.0630 0.3824
vn -0.3830 0.0001 0.9237
vn -0.3821 0.0256 0.9237
vn -0.3821 0.0255 0.9237
vn 0.3830 0.0001 0.9237
vn 0.3823 -0.0245 0.9237
vn 0.9240 0.0004 0.3823
vn 0.9223 -0.0567 0.3822
vn 0.9223 -0.0568 0.3822
vn 0.9240 0.0004 -0.3823
vn 0.9223 -0.0568 -0.3822
vn 0.9223 -0.0567 -0.3822
vn 0.3830 0.0001 -0.9237
vn 0.3823 -0.0245 -0.9237
vn -0.3830 0.0001 -0.9237
vn -0.3821 0.0255 -0.9237
vn -0.3821 0.0256 -0.9237
vn -0.9240 0.0004 -0.3823
vn -0.9218 0.0630 -0.3824
vn -0.9218 0.0631 -0.3824
vn -0.8916 0.2415 0.3831
vn -0.8916 0.2413 0.3831
vn -0.3690 0.0994 0.9241
vn -0.3691 0.0994 0.9241
vn 0.3692 -0.0984 0.9241
vn 0.3692 -0.0985 0.9241
vn 0.8931 -0.2356 0.3833
vn 0.8930 -0.2358 0.3833
vn 0.8930 -0.2358 -0.3833
vn 0.8931 -0.2356 -0.3833
vn 0.3692 -0.0985 -0.9241
vn 0.3692 -0.0984 -0.9241
vn -0.3691 0.0994 -0.9241
vn -0.3690 0.0994 -0.9241
vn -0.8916 0.2413 -0.3831
vn -0.8916 0.2415 -0.3831
vn -0.8001 0.4619 0.3827
vn -0.3314 0.1913 0.9239
vn 0.3314 -0.1913 0.9239
vn 0.8001 -0.4619 0.3827
vn 0.8001 -0.4619 -0.3827
vn 0.3314 -0.1913 -0.9239
vn -0.3314 0.1913 -0.9239
vn -0.8001 0.4619 -0.3827
vn -0.6533 0.6533 0.3827
vn -0.2706 0.2706 0.9239
vn 0.2706 -0.2706 0.9239
vn 0.6533 -0.6533 0.3827
vn 0.6533 -0.6533 -0.3827
vn 0.2706 -0.2706 -0.9239
vn -0.2706 0.2706 -0.9239
vn -0.6533 0.6533 -0.3827
vn -0.4619 0.8001 0.3827
vn -0.1913 0.3314 0.9239
vn 0.1913 -0.3314 0.9239
vn 0.4619 -0.8001 0.3827
vn 0.4619 -0.8001 -0.3827
vn 0.1913 -0.3314 -0.9239
vn -0.1913 0.3314 -0.9239
vn -0.4619 0.8001 -0.3827
vn -0.2391 0.8924 0.3827
vn -0.0990 0.3696 0.9239
vn 0.0990 -0.3696 0.9239
vn 0.2391 -0.8924 0.3827
vn 0.2391 -0.8924 -0.3827
vn 0.0990 -0.3696 -0.9239
vn -0.0990 0.3696 -0.9239
vn -0.2391 0.8924 -0.3827
vn -0.0000 0.3827 0.9239
vn -0.0000 -0.3827 0.9239
vn -0.0000 -0.3827 -0.9239
vn -0.0000 0.3827 -0.9239
vn 0.2391 0.8924 0.3827
vn 0.0990 0.3696 0.9239
vn -0.0990 -0.3696 0.9239
vn -0.2391 -0.8924 0.3827
vn -0.2391 -0.8924 -0.3827
vn -0.0990 -0.3696 -0.9239
vn 0.0990 0.3696 -0.9239
vn 0.2391 0.8924 -0.3827
vn 0.4619 0.8001 0.3827
vn 0.1913 0.3314 0.9239
vn -0.1913 -0.3314 0.9239
vn -0.4619 -0.8001 0.3827
vn -0.4619 -0.8001 -0.3827
vn -0.1913 -0.3314 -0.9239
vn 0.1913 0.3314 -0.9239
vn 0.4619 0.8001 -0.3827
vn 0.6533 0.6533 0.3827
vn 0.2706 0.2706 0.9239
vn -0.2706 -0.2706 0.9239
vn -0.6533 -0.6533 0.3827
vn -0.6533 -0.6533 -0.3827
vn -0.2706 -0.2706 -0.9239
vn 0.2706 0.2706 -0.9239
vn 0.6533 0.6533 -0.3827
vn 0.8001 0.4619 0.3827
vn 0.3314 0.1913 0.9239
vn -0.3314 -0.1913 0.9239
vn -0.8001 -0.4619 0.3827
vn -0.8001 -0.4619 -0.3827
vn -0.3314 -0.1913 -0.9239
vn 0.3314 0.1913 -0.9239
vn 0.8001 0.4619 -0.3827
vn 0.8916 0.2415 0.3831
vn 0.8916 0.2413 0.3831
vn 0.3690 0.0994 0.9241
vn 0.3691 0.0994 0.9241
vn -0.3692 -0.0984 0.9241
vn -0.3692 -0.0985 0.9241
vn -0.8931 -0.2356 0.3833
vn -0.8930 -0.2358 0.3833
vn -0.8930 -0.2358 -0.3833
vn -0.8931 -0.2356 -0.3833
vn -0.3692 -0.0985 -0.9241
vn -0.3692 -0.0984 -0.9241
vn 0.3691 0.0994 -0.9241
vn 0.3690 0.0994 -0.9241
vn 0.8916 0.2413 -0.3831
vn 0.8916 0.2415 -0.3831
vn 0.9218 0.0631 0.3824
vn 0.9218 0.0630 0.3824
vn 0.3821 0.0256 0.9237
vn 0.3821 0.0255 0.9237
vn -0.3823 -0.0245 0.9237
vn -0.9223 -0.0567 0.3822
vn -0.9223 -0.0568 0.3822
vn -0.9223 -0.0568 -0.3822
vn -0.9223 -0.0567 -0.3822
vn -0.3823 -0.0245 -0.9237
vn 0.3821 0.0255 -0.9237
vn 0.3821 0.0256 -0.9237
vn 0.9218 0.0630 -0.3824
vn 0.9218 0.0631 -0.3824
vt 0.000000 0.000000
vt 0.857143 0.000000
vt 0.571429 0.000000
vt 0.714286 0.000000
vt 1.000000 0.000000
vt 0.428571 0.000000
vt 0.285714 0.000000
vt 0.142857 0.000000
vt 0.000000 1.000000
vt 0.071429 1.000000
vt 0.071429 0.875000
vt 0.000000 0.875000
vt 0.000000 0.125000
vt 0.071429 0.125000
vt 0.071429 0.000000
vt 0.000000 0.250000
vt 0.071429 0.250000
vt 0.000000 0.375000
vt 0.071429 0.375000
vt 0.000000 0.500000
vt 0.071429 0.500000
vt 0.000000 0.625000
vt 0.071429 0.625000
vt 0.000000 0.750000
vt 0.071429 0.750000
vt 0.142857 1.000000
vt 0.142857 0.875000
vt 0.142857 0.125000
vt 0.142857 0.250000
vt 0.142857 0.375000
vt 0.142857 0.500000
vt 0.142857 0.625000
vt 0.142857 0.750000
vt 0.214286 1.000000
vt 0.214286 0.875000
vt 0.214286 0.125000
vt 0.214286 0.000000
vt 0.214286 0.250000
vt 0.214286 0.375000
vt 0.214286 0.500000
vt 0.214286 0.625000
vt 0.214286 0.750000
vt 0.285714 1.000000
vt 0.285714 0.875000
vt 0.285714 0.125000
vt 0.285714 0.250000
vt 0.285714 0.375000
vt 0.285714 0.500000
vt 0.285714 0.625000
vt 0.285714 0.750000
vt 0.357143 1.000000
vt 0.357143 0.875000
vt 0.357143 0.125000
vt 0.357143 0.000000
vt 0.357143 0.250000
vt 0.357143 0.375000
vt 0.357143 0.500000
vt 0.357143 0.625000
vt 0.357143 0.750000
vt 0.428571 1.000000
vt 0.428571 0.875000
vt 0.428571 0.125000
vt 0.428571 0.250000
vt 0.428571 0.375000
vt 0.428571 0.500000
vt 0.428571 0.625000
vt 0.428571 0.750000
vt 0.500000 1.000000
vt 0.500000 0.875000
vt 0.500000 0.125000
vt 0.500000 0.000000
vt 0.500000 0.250000
vt 0.500000 0.375000
vt 0.500000 0.500000
vt 0.500000 0.625000
vt 0.500000 0.750000
vt 0.571429 1.000000
vt 0.571429 0.875000
vt 0.571429 0.125000
vt 0.571429 0.250000
vt 0.571429 0.375000
vt 0.571429 0.500000
vt 0.571429 0.625000
vt 0.571429 0.750000
vt 0.642857 1.000000
vt 0.642857 0.875000
vt 0.642857 0.125000
vt 0.642857 0.000000
vt 0.642857 0.250000
vt 0.642857 0.375000
vt 0.642857 0.500000
vt 0.642857 0.625000
vt 0.642857 0.750000
vt 0.714286 1.000000
vt 0.714286 0.875000
vt 0.714286 0.125000
vt 0.714286 0.250000
vt 0.714286 0.375000
vt 0.714286 0.500000
vt 0.714286 0.625000
vt 0.714286 0.750000
vt 0.785714 1.000000
vt 0.785714 0.875000
vt 0.785714 0.125000
vt 0.785714 0.000000
vt 0.785714 0.250000
vt 0.785714 0.375000
vt 0.785714 0.500000
vt 0.785714 0.625000
vt 0.785714 0.750000
vt 0.857143 1.000000
vt 0.857143 0.875000
vt 0.857143 0.125000
vt 0.857143 0.250000
vt 0.857143 0.375000
vt 0.857143 0.500000
vt 0.857143 0.625000
vt 0.857143 0.750000
vt 0.928571 1.000000
vt 0.928571 0.875000
vt 0.928571 0.125000
vt 0.928571 0.000000
vt 0.928571 0.250000
vt 0.928571 0.375000
vt 0.928571 0.500000
vt 0.928571 0.625000
vt 0.928571 0.750000
vt 1.000000 1.000000
vt 1.000000 0.875000
vt 1.000000 0.125000
vt 1.000000 0.250000
vt 1.000000 0.375000
vt 1.000000 0.500000
vt 1.000000 0.625000
vt 1.000000 0.750000
s 1
usemtl gold
f 1/1/1 4/1/2 6/1/3 5/1/4
f 4/1/2 8/1/5 9/1/6 6/1/3
f 2/1/7 7/1/8 9/1/6 8/1/5
f 7/1/8 11/1/9 12/1/10 9/1/6
f 3/1/11 10/1/12 12/1/10 11/1/9
f 10/1/12 5/1/4 6/1/3 12/1/10
f 6/1/3 9/1/6 12/1/10
f 13/1/13 16/1/14 18/1/15 17/1/16
f 16/1/14 20/1/17 21/1/18 18/1/15
f 14/1/19 19/1/20 21/1/18 20/1/17
f 19/1/20 23/1/21 24/1/22 21/1/18
f 15/1/23 22/1/24 24/1/22 23/1/21
f 22/1/24 17/1/16 18/1/15 24/1/22
f 18/1/15 21/1/18 24/1/22
f 25/1/25 28/1/26 30/1/27 29/1/28
f 28/1/26 32/1/29 33/1/30 30/1/27
f 26/1/31 31/1/32 33/1/30 32/1/29
f 31/1/32 35/1/33 36/1/34 33/1/30
f 27/1/35 34/1/36 36/1/34 35/1/33
f 34/1/36 29/1/28 30/1/27 36/1/34
f 30/1/27 33/1/30 36/1/34
f 37/1/37 40/1/38 42/1/39 41/1/40
f 40/1/38 44/1/41 45/1/42 42/1/39
f 38/1/43 43/1/44 45/1/42 44/1/41
f 43/1/44 47/1/45 48/1/46 45/1/42
f 39/1/47 46/1/48 48/1/46 47/1/45
f 46/1/48 41/1/40 42/1/39 48/1/46
f 42/1/39 45/1/42 48/1/46
f 49/1/49 52/1/50 54/1/51 53/1/52
f 52/1/50 56/1/53 57/1/54 54/1/51
f 50/1/55 55/1/56 57/1/54 56/1/53
f 55/1/56 59/1/57 60/1/58 57/1/54
f 51/1/59 58/1/60 60/1/58 59/1/57
f 58/1/60 53/1/52 54/1/51 60/1/58
f 54/1/51 57/1/54 60/1/58
f 61/1/61 64/1/62 66/1/63 65/1/64
f 64/1/62 68/1/65 69/1/66 66/1/63
f 62/1/67 67/1/68 69/1/66 68/1/65
f 67/1/68 71/1/69 72/1/70 69/1/66
f 63/1/71 70/1/72 72/1/70 71/1/69
f 70/1/72 65/1/64 66/1/63 72/1/70
f 66/1/63 69/1/66 72/1/70
f 73/1/73 76/1/74 78/1/75 77/1/76
f 76/1/74 80/1/77 81/1/78 78/1/75
f 74/1/79 79/1/80 81/1/78 80/1/77
f 79/1/80 83/1/81 84/1/82 81/1/78
f 75/1/83 82/1/84 84/1/82 83/1/81
f 82/1/84 77/1/76 78/1/75 84/1/82
f 78/1/75 81/1/78 84/1/82
f 85/1/85 88/1/86 90/1/87 89/1/88
f 88/1/86 92/1/89 93/1/90 90/1/87
f 86/1/91 91/1/92 93/1/90 92/1/89
f 91/1/92 95/1/93 96/1/94 93/1/90
f 87/1/95 94/1/96 96/1/94 95/1/93
f 94/1/96 89/1/88 90/1/87 96/1/94
f 90/1/87 93/1/90 96/1/94
f 25/1/25 1/1/1 5/1/4 28/1/26
f 28/1/26 5/1/4 10/1/12 32/1/29
f 32/1/29 10/1/12 3/1/11 26/1/31
f 2/1/7 13/1/13 17/1/16 7/1/8
f 7/1/8 17/1/16 22/1/24 11/1/9
f 11/1/9 22/1/24 15/1/23 3/1/11
f 14/1/19 37/1/37 41/1/40 19/1/20
f 19/1/20 41/1/40 46/1/48 23/1/21
f 23/1/21 46/1/48 39/1/47 15/1/23
f 38/1/43 27/1/35 35/1/33 43/1/44
f 43/1/44 35/1/33 31/1/32 47/1/45
f 47/1/45 31/1/32 26/1/31 39/1/47
f 73/1/73 25/1/25 29/1/28 76/1/74
f 76/1/74 29/1/28 34/1/36 80/1/77
f 80/1/77 34/1/36 27/1/35 74/1/79
f 37/1/37 85/1/85 89/1/88 40/1/38
f 40/1/38 89/1/88 94/1/96 44/1/41
f 44/1/41 94/1/96 87/1/95 38/1/43
f 86/1/91 75/1/83 83/1/81 91/1/92
f 91/1/92 83/1/81 79/1/80 95/1/93
f 95/1/93 79/1/80 74/1/79 87/1/95
f 49/1/49 73/1/73 77/1/76 52/1/50
f 52/1/50 77/1/76 82/1/84 56/1/53
f 56/1/53 82/1/84 75/1/83 50/1/55
f 85/1/85 61/1/61 65/1/64 88/1/86
f 88/1/86 65/1/64 70/1/72 92/1/89
f 92/1/89 70/1/72 63/1/71 86/1/91
f 62/1/67 51/1/59 59/1/57 67/1/68
f 67/1/68 59/1/57 55/1/56 71/1/69
f 71/1/69 55/1/56 50/1/55 63/1/71
f 1/1/1 49/1/49 53/1/52 4/1/2
f 4/1/2 53/1/52 58/1/60 8/1/5
f 8/1/5 58/1/60 51/1/59 2/1/7
f 61/1/61 14/1/19 20/1/17 64/1/62
f 64/1/62 20/1/17 16/1/14 68/1/65
f 68/1/65 16/1/14 13/1/13 62/1/67
f 25/1/25 73/1/73 49/1/49 1/1/1
f 3/1/11 15/1/23 39/1/47 26/1/31
f 51/1/59 62/1/67 13/1/13 2/1/7
f 85/1/85 37/1/37 14/1/19 61/1/61
f 27/1/35 38/1/43 87/1/95 74/1/79
f 75/1/83 86/1/91 63/1/71 50/1/55
usemtl gold_dark
f 97/1/97 98/1/98 99/1/99
f 100/1/100 101/1/101 102/1/102
f 103/1/103 104/1/104 105/1/105
f 106/1/106 107/1/107 108/1/108
f 109/1/109 110/1/110 111/1/111
f 112/1/112 113/1/113 114/1/114
f 115/1/115 116/1/116 117/1/117
f 118/1/118 119/1/119 120/1/120
f 103/1/103 97/1/97 99/1/99 104/1/104
f 98/1/98 100/1/100 102/1/102 99/1/99
f 101/1/101 106/1/106 108/1/108 102/1/102
f 107/1/107 105/1/105 104/1/104 108/1/108
f 115/1/115 103/1/103 105/1/105 116/1/116
f 106/1/106 118/1/118 120/1/120 107/1/107
f 119/1/119 117/1/117 116/1/116 120/1/120
f 109/1/109 115/1/115 117/1/117 110/1/110
f 118/1/118 112/1/112 114/1/114 119/1/119
f 113/1/113 111/1/111 110/1/110 114/1/114
f 97/1/97 109/1/109 111/1/111 98/1/98
f 112/1/112 101/1/101 100/1/100 113/1/113
f 103/1/121 115/1/121 109/1/121 97/1/121
f 99/1/122 102/1/122 108/1/122 104/1/122
f 111/1/123 113/1/123 100/1/123 98/1/123
f 118/1/124 106/1/124 101/1/124 112/1/124
f 105/1/125 107/1/125 120/1/125 116/1/125
f 117/1/126 119/1/126 114/1/126 110/1/126
usemtl black
f 121/1/124 122/1/124 124/1/127 123/1/127
f 123/1/127 124/1/127 126/1/128 125/1/128
f 125/1/128 126/1/128 128/1/129 127/1/129
f 127/1/129 128/1/129 130/1/130 129/1/130
f 129/1/130 130/1/130 132/1/131 131/1/131
f 131/1/131 132/1/131 134/1/132 133/1/132
f 133/1/132 134/1/132 136/1/121 135/1/121
f 135/1/121 136/1/121 138/1/133 137/1/133
f 137/1/133 138/1/133 140/1/134 139/1/134
f 139/1/134 140/1/134 142/1/135 141/1/135
f 141/1/135 142/1/135 144/1/136 143/1/136
f 143/1/136 144/1/136 146/1/137 145/1/137
f 124/1/123 122/1/123 148/1/123 146/1/123 144/1/123 142/1/123 140/1/123 138/1/123 136/1/123 134/1/123 132/1/123 130/1/123 128/1/123 126/1/123
f 145/1/137 146/1/137 148/1/138 147/1/138
f 147/1/138 148/1/138 122/1/124 121/1/124
f 121/1/125 123/1/125 125/1/125 127/1/125 129/1/125 131/1/125 133/1/125 135/1/125 137/1/125 139/1/125 141/1/125 143/1/125 145/1/125 147/1/125
f 149/1/123 152/1/123 151/1/123 150/1/123
f 156/1/125 153/1/125 154/1/125 155/1/125
f 149/1/124 150/1/124 154/1/124 153/1/124
f 150/1/139 151/1/139 155/1/139 154/1/139
f 151/1/121 152/1/121 156/1/121 155/1/121
f 152/1/140 149/1/140 153/1/140 156/1/140
usemtl gold_light
f 160/1/141 159/1/142 163/1/142 164/1/141
f 158/1/143 157/1/124 162/1/144
f 161/1/121 160/1/145 164/1/146
f 159/1/142 158/1/147 162/1/147 163/1/142
f 161/1/121 164/1/146 167/1/148
f 163/1/126 162/1/149 165/1/149 166/1/126
f 164/1/150 163/1/126 166/1/126 167/1/150
f 162/1/144 157/1/124 165/1/151
f 165/1/151 157/1/124 168/1/152
f 161/1/121 167/1/148 170/1/153
f 166/1/154 165/1/155 168/1/155 169/1/154
f 167/1/156 166/1/154 169/1/154 170/1/156
f 170/1/157 169/1/158 172/1/158 173/1/157
f 168/1/152 157/1/124 171/1/159
f 161/1/121 170/1/153 173/1/160
f 169/1/158 168/1/161 171/1/161 172/1/158
f 173/1/162 172/1/122 175/1/122 176/1/162
f 171/1/159 157/1/124 174/1/163
f 161/1/121 173/1/160 176/1/164
f 172/1/122 171/1/165 174/1/165 175/1/122
f 176/1/166 175/1/167 159/1/167 160/1/166
f 174/1/163 157/1/124 158/1/143
f 161/1/121 176/1/164 160/1/145
f 175/1/167 174/1/168 158/1/168 159/1/167
f 180/1/141 179/1/142 183/1/142 184/1/141
f 178/1/143 177/1/124 182/1/144
f 181/1/121 180/1/145 184/1/146
f 179/1/142 178/1/147 182/1/147 183/1/142
f 181/1/121 184/1/146 187/1/148
f 183/1/126 182/1/149 185/1/149 186/1/126
f 184/1/150 183/1/126 186/1/126 187/1/150
f 182/1/144 177/1/124 185/1/151
f 185/1/151 177/1/124 188/1/152
f 181/1/121 187/1/148 190/1/153
f 186/1/154 185/1/155 188/1/155 189/1/154
f 187/1/156 186/1/154 189/1/154 190/1/156
f 190/1/157 189/1/158 192/1/158 193/1/157
f 188/1/152 177/1/124 191/1/159
f 181/1/121 190/1/153 193/1/160
f 189/1/158 188/1/161 191/1/161 192/1/158
f 193/1/162 192/1/122 195/1/122 196/1/162
f 191/1/159 177/1/124 194/1/163
f 181/1/121 193/1/160 196/1/164
f 192/1/122 191/1/165 194/1/165 195/1/122
f 196/1/166 195/1/167 179/1/167 180/1/166
f 194/1/163 177/1/124 178/1/143
f 181/1/121 196/1/164 180/1/145
f 195/1/167 194/1/168 178/1/168 179/1/167
f 200/1/141 199/1/142 203/1/142 204/1/141
f 198/1/143 197/1/124 202/1/144
f 201/1/121 200/1/145 204/1/146
f 199/1/142 198/1/147 202/1/147 203/1/142
f 201/1/121 204/1/146 207/1/148
f 203/1/126 202/1/149 205/1/149 206/1/126
f 204/1/150 203/1/126 206/1/126 207/1/150
f 202/1/144 197/1/124 205/1/151
f 205/1/151 197/1/124 208/1/152
f 201/1/121 207/1/148 210/1/153
f 206/1/154 205/1/155 208/1/155 209/1/154
f 207/1/156 206/1/154 209/1/154 210/1/156
f 210/1/157 209/1/158 212/1/158 213/1/157
f 208/1/152 197/1/124 211/1/159
f 201/1/121 210/1/153 213/1/160
f 209/1/158 208/1/161 211/1/161 212/1/158
f 213/1/162 212/1/122 215/1/122 216/1/162
f 211/1/159 197/1/124 214/1/163
f 201/1/121 213/1/160 216/1/164
f 212/1/122 211/1/165 214/1/165 215/1/122
f 216/1/166 215/1/167 199/1/167 200/1/166
f 214/1/163 197/1/124 198/1/143
f 201/1/121 216/1/164 200/1/145
f 215/1/167 214/1/168 198/1/168 199/1/167
f 220/1/141 219/1/142 223/1/142 224/1/141
f 218/1/143 217/1/124 222/1/144
f 221/1/121 220/1/145 224/1/146
f 219/1/142 218/1/147 222/1/147 223/1/142
f 221/1/121 224/1/146 227/1/148
f 223/1/126 222/1/149 225/1/149 226/1/126
f 224/1/150 223/1/126 226/1/126 227/1/150
f 222/1/144 217/1/124 225/1/151
f 225/1/151 217/1/124 228/1/152
f 221/1/121 227/1/148 230/1/153
f 226/1/154 225/1/155 228/1/155 229/1/154
f 227/1/156 226/1/154 229/1/154 230/1/156
f 230/1/157 229/1/158 232/1/158 233/1/157
f 228/1/152 217/1/124 231/1/159
f 221/1/121 230/1/153 233/1/160
f 229/1/158 228/1/161 231/1/161 232/1/158
f 233/1/162 232/1/122 235/1/122 236/1/162
f 231/1/159 217/1/124 234/1/163
f 221/1/121 233/1/160 236/1/164
f 232/1/122 231/1/165 234/1/165 235/1/122
f 236/1/166 235/1/167 219/1/167 220/1/166
f 234/1/163 217/1/124 218/1/143
f 221/1/121 236/1/164 220/1/145
f 235/1/167 234/1/168 218/1/168 219/1/167
usemtl chrome
f 243/2/121 241/3/121 242/4/121
f 244/5/121 241/3/121 243/2/121
f 244/5/121 240/6/121 241/3/121
f 237/1/121 240/6/121 244/5/121
f 237/1/121 239/7/121 240/6/121
f 238/8/121 239/7/121 237/1/121
f 247/7/121 249/3/121 248/6/121
f 247/7/121 250/4/121 249/3/121
f 246/8/121 250/4/121 247/7/121
f 245/1/121 250/4/121 246/8/121
f 245/1/121 251/2/121 250/4/121
f 252/5/121 251/2/121 245/1/121
f 245/9/169 253/10/170 260/11/171 252/12/169
f 246/13/172 254/14/173 253/15/174 245/1/172
f 247/16/175 255/17/176 254/14/176 246/13/175
f 248/18/177 256/19/178 255/17/179 247/16/177
f 249/20/180 257/21/181 256/19/182 248/18/180
f 250/22/183 258/23/184 257/21/184 249/20/183
f 251/24/185 259/25/186 258/23/187 250/22/185
f 252/12/188 260/11/189 259/25/190 251/24/188
f 253/10/170 261/26/191 268/27/192 260/11/171
f 254/14/173 262/28/193 261/8/194 253/15/174
f 255/17/176 263/29/195 262/28/196 254/14/176
f 256/19/178 264/30/197 263/29/198 255/17/179
f 257/21/181 265/31/199 264/30/200 256/19/182
f 258/23/184 266/32/201 265/31/202 257/21/184
f 259/25/186 267/33/203 266/32/204 258/23/187
f 260/11/189 268/27/205 267/33/206 259/25/190
f 261/26/191 269/34/207 276/35/207 268/27/192
f 262/28/193 270/36/208 269/37/208 261/8/194
f 263/29/195 271/38/209 270/36/209 262/28/196
f 264/30/197 272/39/210 271/38/210 263/29/198
f 265/31/199 273/40/211 272/39/211 264/30/200
f 266/32/201 274/41/212 273/40/212 265/31/202
f 267/33/203 275/42/213 274/41/213 266/32/204
f 268/27/205 276/35/214 275/42/214 267/33/206
f 269/34/207 277/43/215 284/44/215 276/35/207
f 270/36/208 278/45/216 277/7/216 269/37/208
f 271/38/209 279/46/217 278/45/217 270/36/209
f 272/39/210 280/47/218 279/46/218 271/38/210
f 273/40/211 281/48/219 280/47/219 272/39/211
f 274/41/212 282/49/220 281/48/220 273/40/212
f 275/42/213 283/50/221 282/49/221 274/41/213
f 276/35/214 284/44/222 283/50/222 275/42/214
f 277/43/215 285/51/223 292/52/223 284/44/215
f 278/45/216 286/53/224 285/54/224 277/7/216
f 279/46/217 287/55/225 286/53/225 278/45/217
f 280/47/218 288/56/226 287/55/226 279/46/218
f 281/48/219 289/57/227 288/56/227 280/47/219
f 282/49/220 290/58/228 289/57/228 281/48/220
f 283/50/221 291/59/229 290/58/229 282/49/221
f 284/44/222 292/52/230 291/59/230 283/50/222
f 285/51/223 293/60/231 300/61/231 292/52/223
f 286/53/224 294/62/232 293/6/232 285/54/224
f 287/55/225 295/63/233 294/62/233 286/53/225
f 288/56/226 296/64/234 295/63/234 287/55/226
f 289/57/227 297/65/235 296/64/235 288/56/227
f 290/58/228 298/66/236 297/65/236 289/57/228
f 291/59/229 299/67/237 298/66/237 290/58/229
f 292/52/230 300/61/238 299/67/238 291/59/230
f 293/60/231 301/68/152 308/69/152 300/61/231
f 294/62/232 302/70/239 301/71/239 293/6/232
f 295/63/233 303/72/240 302/70/240 294/62/233
f 296/64/234 304/73/153 303/72/153 295/63/234
f 297/65/235 305/74/145 304/73/145 296/64/235
f 298/66/236 306/75/241 305/74/241 297/65/236
f 299/67/237 307/76/242 306/75/242 298/66/237
f 300/61/238 308/69/143 307/76/143 299/67/238
f 301/68/152 309/77/243 316/78/243 308/69/152
f 302/70/239 310/79/244 309/3/244 301/71/239
f 303/72/240 311/80/245 310/79/245 302/70/240
f 304/73/153 312/81/246 311/80/246 303/72/153
f 305/74/145 313/82/247 312/81/247 304/73/145
f 306/75/241 314/83/248 313/82/248 305/74/241
f 307/76/242 315/84/249 314/83/249 306/75/242
f 308/69/143 316/78/250 315/84/250 307/76/143
f 309/77/243 317/85/251 324/86/251 316/78/243
f 310/79/244 318/87/252 317/88/252 309/3/244
f 311/80/245 319/89/253 318/87/253 310/79/245
f 312/81/246 320/90/254 319/89/254 311/80/246
f 313/82/247 321/91/255 320/90/255 312/81/247
f 314/83/248 322/92/256 321/91/256 313/82/248
f 315/84/249 323/93/257 322/92/257 314/83/249
f 316/78/250 324/86/258 323/93/258 315/84/250
f 317/85/251 325/94/259 332/95/259 324/86/251
f 318/87/252 326/96/260 325/4/260 317/88/252
f 319/89/253 327/97/261 326/96/261 318/87/253
f 320/90/254 328/98/262 327/97/262 319/89/254
f 321/91/255 329/99/263 328/98/263 320/90/255
f 322/92/256 330/100/264 329/99/264 321/91/256
f 323/93/257 331/101/265 330/100/265 322/92/257
f 324/86/258 332/95/266 331/101/266 323/93/258
f 325/94/259 333/102/267 340/103/267 332/95/259
f 326/96/260 334/104/268 333/105/268 325/4/260
f 327/97/261 335/106/269 334/104/269 326/96/261
f 328/98/262 336/107/270 335/106/270 327/97/262
f 329/99/263 337/108/271 336/107/271 328/98/263
f 330/100/264 338/109/272 337/108/272 329/99/264
f 331/101/265 339/110/273 338/109/273 330/100/265
f 332/95/266 340/103/274 339/110/274 331/101/266
f 333/102/267 341/111/275 348/112/276 340/103/267
f 334/104/268 342/113/277 341/2/278 333/105/268
f 335/106/269 343/114/279 342/113/280 334/104/269
f 336/107/270 344/115/281 343/114/282 335/106/270
f 337/108/271 345/116/283 344/115/284 336/107/271
f 338/109/272 346/117/285 345/116/286 337/108/272
f 339/110/273 347/118/287 346/117/288 338/109/273
f 340/103/274 348/112/289 347/118/290 339/110/274
f 341/111/275 349/119/291 356/120/292 348/112/276
f 342/113/277 350/121/293 349/122/294 341/2/278
f 343/114/279 351/123/295 350/121/295 342/113/280
f 344/115/281 352/124/296 351/123/297 343/114/282
f 345/116/283 353/125/298 352/124/299 344/115/284
f 346/117/285 354/126/300 353/125/300 345/116/286
f 347/118/287 355/127/301 354/126/302 346/117/288
f 348/112/289 356/120/303 355/127/304 347/118/290
f 349/119/291 237/128/177 244/129/177 356/120/292
f 350/121/293 238/130/175 237/5/175 349/122/294
f 351/123/295 239/131/172 238/130/172 350/121/295
f 352/124/296 240/132/169 239/131/169 351/123/297
f 353/125/298 241/133/188 240/132/188 352/124/299
f 354/126/300 242/134/185 241/133/185 353/125/300
f 355/127/301 243/135/183 242/134/183 354/126/302
f 356/120/303 244/129/180 243/135/180 355/127/304
