# Blender 5.0.1
# www.blender.org
mtllib RemoteControl.mtl
o RemoteControl
v -0.474144 0.008732 0.300094 0.1804 0.2078 0.3137
v -0.494405 0.232898 0.444251 0.1804 0.2078 0.3137
v -0.655836 0.193602 0.234877 0.1804 0.2078 0.3137
v -0.486261 0.053052 0.386310 0.1804 0.2078 0.3137
v -0.566871 0.033430 0.281760 0.1804 0.2078 0.3137
v -0.574510 0.076212 0.364813 0.1804 0.2078 0.3137
v -0.584425 0.227648 0.406659 0.1804 0.2078 0.3137
v -0.493698 0.135334 0.439225 0.1804 0.2078 0.3137
v -0.579746 0.134141 0.402066 0.1804 0.2078 0.3137
v -0.633563 0.101289 0.257822 0.1804 0.2078 0.3137
v -0.643680 0.213224 0.329806 0.1804 0.2078 0.3137
v -0.621463 0.123987 0.347960 0.1804 0.2078 0.3137
v -0.430109 2.406341 -0.013232 0.1804 0.2078 0.3137
v -0.398912 2.551916 -0.235216 0.1804 0.2078 0.3137
v -0.591541 2.367046 -0.222607 0.1804 0.2078 0.3137
v -0.423941 2.493405 -0.057121 0.1804 0.2078 0.3137
v -0.520130 2.401092 -0.050825 0.1804 0.2078 0.3137
v -0.510220 2.484399 -0.092635 0.1804 0.2078 0.3137
v -0.493100 2.527218 -0.243152 0.1804 0.2078 0.3137
v -0.412490 2.546840 -0.138602 0.1804 0.2078 0.3137
v -0.502158 2.522019 -0.150000 0.1804 0.2078 0.3137
v -0.579385 2.386668 -0.127678 0.1804 0.2078 0.3137
v -0.563806 2.459360 -0.238524 0.1804 0.2078 0.3137
v -0.551938 2.474245 -0.146741 0.1804 0.2078 0.3137
v -0.468427 0.000000 0.259411 0.1804 0.2078 0.3137
v -0.650119 0.184870 0.194195 0.1804 0.2078 0.3137
v -0.437229 0.145575 0.037427 0.1804 0.2078 0.3137
v -0.561154 0.024698 0.241078 0.1804 0.2078 0.3137
v -0.454849 0.005076 0.162797 0.1804 0.2078 0.3137
v -0.544185 0.029897 0.149037 0.1804 0.2078 0.3137
v -0.612267 0.165248 0.106293 0.1804 0.2078 0.3137
v -0.627846 0.092556 0.217140 0.1804 0.2078 0.3137
v -0.591138 0.077671 0.132184 0.1804 0.2078 0.3137
v -0.443397 0.058511 0.081316 0.1804 0.2078 0.3137
v -0.534124 0.150824 0.048750 0.1804 0.2078 0.3137
v -0.536123 0.067517 0.091672 0.1804 0.2078 0.3137
v -0.393194 2.543184 -0.275898 0.1804 0.2078 0.3137
v -0.372934 2.319019 -0.420056 0.1804 0.2078 0.3137
v -0.585824 2.358314 -0.263289 0.1804 0.2078 0.3137
v -0.381077 2.498864 -0.362115 0.1804 0.2078 0.3137
v -0.487382 2.518486 -0.283834 0.1804 0.2078 0.3137
v -0.471833 2.475704 -0.365775 0.1804 0.2078 0.3137
v -0.469829 2.324268 -0.408733 0.1804 0.2078 0.3137
v -0.373640 2.416582 -0.415030 0.1804 0.2078 0.3137
v -0.466597 2.417775 -0.403029 0.1804 0.2078 0.3137
v -0.558089 2.450628 -0.279206 0.1804 0.2078 0.3137
v -0.547972 2.338692 -0.351191 0.1804 0.2078 0.3137
v -0.521612 2.427929 -0.362517 0.1804 0.2078 0.3137
v 0.141802 0.008732 0.386659 0.1804 0.2078 0.3137
v 0.334432 0.193602 0.374050 0.1804 0.2078 0.3137
v 0.121542 0.232898 0.530817 0.1804 0.2078 0.3137
v 0.235990 0.033430 0.394595 0.1804 0.2078 0.3137
v 0.129685 0.053052 0.472876 0.1804 0.2078 0.3137
v 0.220441 0.076213 0.476536 0.1804 0.2078 0.3137
v 0.296580 0.213224 0.461951 0.1804 0.2078 0.3137
v 0.306697 0.101289 0.389967 0.1804 0.2078 0.3137
v 0.270221 0.123987 0.473278 0.1804 0.2078 0.3137
v 0.122249 0.135334 0.525790 0.1804 0.2078 0.3137
v 0.218437 0.227648 0.519494 0.1804 0.2078 0.3137
v 0.215206 0.134142 0.513790 0.1804 0.2078 0.3137
v 0.217035 2.551916 -0.148650 0.1804 0.2078 0.3137
v 0.185837 2.406341 0.073333 0.1804 0.2078 0.3137
v 0.398727 2.367046 -0.083434 0.1804 0.2078 0.3137
v 0.203457 2.546840 -0.052037 0.1804 0.2078 0.3137
v 0.309762 2.527218 -0.130317 0.1804 0.2078 0.3137
v 0.292793 2.522019 -0.038277 0.1804 0.2078 0.3137
v 0.282732 2.401092 0.062010 0.1804 0.2078 0.3137
v 0.192005 2.493405 0.029445 0.1804 0.2078 0.3137
v 0.284731 2.484399 0.019089 0.1804 0.2078 0.3137
v 0.376454 2.459360 -0.106379 0.1804 0.2078 0.3137
v 0.360875 2.386668 0.004467 0.1804 0.2078 0.3137
v 0.339746 2.474245 -0.021423 0.1804 0.2078 0.3137
v 0.147520 0.000000 0.345977 0.1804 0.2078 0.3137
v 0.178718 0.145575 0.123993 0.1804 0.2078 0.3137
v 0.340149 0.184870 0.333368 0.1804 0.2078 0.3137
v 0.161098 0.005076 0.249363 0.1804 0.2078 0.3137
v 0.241708 0.024698 0.353913 0.1804 0.2078 0.3137
v 0.250766 0.029897 0.260761 0.1804 0.2078 0.3137
v 0.268738 0.150824 0.161585 0.1804 0.2078 0.3137
v 0.172549 0.058511 0.167882 0.1804 0.2078 0.3137
v 0.258829 0.067517 0.203395 0.1804 0.2078 0.3137
v 0.312415 0.092556 0.349284 0.1804 0.2078 0.3137
v 0.327993 0.165248 0.238438 0.1804 0.2078 0.3137
v 0.300546 0.077672 0.257502 0.1804 0.2078 0.3137
v 0.222753 2.543184 -0.189333 0.1804 0.2078 0.3137
v 0.404444 2.358314 -0.124116 0.1804 0.2078 0.3137
v 0.243013 2.319019 -0.333491 0.1804 0.2078 0.3137
v 0.315480 2.518486 -0.171000 0.1804 0.2078 0.3137
v 0.234870 2.498864 -0.275549 0.1804 0.2078 0.3137
v 0.323119 2.475704 -0.254052 0.1804 0.2078 0.3137
v 0.392288 2.338692 -0.219045 0.1804 0.2078 0.3137
v 0.382171 2.450628 -0.147061 0.1804 0.2078 0.3137
v 0.370071 2.427929 -0.237199 0.1804 0.2078 0.3137
v 0.242306 2.416582 -0.328464 0.1804 0.2078 0.3137
v 0.333033 2.324268 -0.295898 0.1804 0.2078 0.3137
v 0.328354 2.417775 -0.291306 0.1804 0.2078 0.3137
v -0.119238 2.360000 0.009433 0.8470 0.2275 0.1804
v -0.130129 2.376633 0.086923 0.8470 0.2275 0.1804
v -0.046683 2.343533 0.023165 0.8470 0.2275 0.1804
v -0.057574 2.360166 0.100655 0.8470 0.2275 0.1804
v 0.010527 2.297392 0.041109 0.8470 0.2275 0.1804
v -0.000363 2.314025 0.118599 0.8470 0.2275 0.1804
v 0.041062 2.230717 0.059712 0.8470 0.2275 0.1804
v 0.030171 2.247350 0.137202 0.8470 0.2275 0.1804
v 0.038873 2.156713 0.075289 0.8470 0.2275 0.1804
v 0.027982 2.173346 0.152779 0.8470 0.2275 0.1804
v 0.004393 2.090038 0.084754 0.8470 0.2275 0.1804
v -0.006497 2.106671 0.162245 0.8470 0.2275 0.1804
v -0.055547 2.043897 0.086234 0.8470 0.2275 0.1804
v -0.066438 2.060530 0.163724 0.8470 0.2275 0.1804
v -0.129077 2.027430 0.079435 0.8470 0.2275 0.1804
v -0.139967 2.044063 0.156925 0.8470 0.2275 0.1804
v -0.201632 2.043897 0.065703 0.8470 0.2275 0.1804
v -0.212522 2.060530 0.143194 0.8470 0.2275 0.1804
v -0.258842 2.090038 0.047759 0.8470 0.2275 0.1804
v -0.269733 2.106671 0.125249 0.8470 0.2275 0.1804
v -0.289377 2.156713 0.029156 0.8470 0.2275 0.1804
v -0.300267 2.173346 0.106646 0.8470 0.2275 0.1804
v -0.287188 2.230717 0.013579 0.8470 0.2275 0.1804
v -0.298078 2.247350 0.091070 0.8470 0.2275 0.1804
v -0.252708 2.297392 0.004114 0.8470 0.2275 0.1804
v -0.263599 2.314025 0.081604 0.8470 0.2275 0.1804
v -0.192768 2.343533 0.002634 0.8470 0.2275 0.1804
v -0.203659 2.360166 0.080124 0.8470 0.2275 0.1804
v -0.367624 1.635330 0.174465 1.0000 0.9647 0.8980
v -0.370518 1.667353 0.195059 1.0000 0.9647 0.8980
v -0.393580 1.661740 0.165148 1.0000 0.9647 0.8980
v -0.367451 1.771037 0.173234 1.0000 0.9647 0.8980
v -0.362994 1.791833 0.141522 1.0000 0.9647 0.8980
v -0.390512 1.765423 0.143324 1.0000 0.9647 0.8980
v -0.366807 1.634082 0.168653 1.0000 0.9647 0.8980
v -0.392763 1.660492 0.159336 1.0000 0.9647 0.8980
v -0.362350 1.654878 0.136941 1.0000 0.9647 0.8980
v -0.362177 1.790586 0.135711 1.0000 0.9647 0.8980
v -0.359283 1.758562 0.115117 1.0000 0.9647 0.8980
v -0.389696 1.764176 0.137512 1.0000 0.9647 0.8980
v 0.074036 1.635330 0.236536 1.0000 0.9647 0.8980
v 0.101554 1.661740 0.234735 1.0000 0.9647 0.8980
v 0.071142 1.667353 0.257130 1.0000 0.9647 0.8980
v 0.078666 1.791833 0.203594 1.0000 0.9647 0.8980
v 0.074209 1.771037 0.235306 1.0000 0.9647 0.8980
v 0.104622 1.765423 0.212910 1.0000 0.9647 0.8980
v 0.074853 1.634082 0.230724 1.0000 0.9647 0.8980
v 0.079309 1.654878 0.199012 1.0000 0.9647 0.8980
v 0.102371 1.660492 0.228923 1.0000 0.9647 0.8980
v 0.079482 1.790586 0.197782 1.0000 0.9647 0.8980
v 0.105438 1.764176 0.207099 1.0000 0.9647 0.8980
v 0.082377 1.758562 0.177188 1.0000 0.9647 0.8980
v -0.204197 1.469045 0.233125 1.0000 0.9647 0.8980
v -0.207091 1.501068 0.253719 1.0000 0.9647 0.8980
v -0.230153 1.495455 0.223808 1.0000 0.9647 0.8980
v -0.194186 1.937322 0.161893 1.0000 0.9647 0.8980
v -0.189729 1.958118 0.130181 1.0000 0.9647 0.8980
v -0.217248 1.931708 0.131982 1.0000 0.9647 0.8980
v -0.203380 1.467797 0.227313 1.0000 0.9647 0.8980
v -0.229336 1.494207 0.217997 1.0000 0.9647 0.8980
v -0.198924 1.488593 0.195601 1.0000 0.9647 0.8980
v -0.188913 1.956871 0.124369 1.0000 0.9647 0.8980
v -0.186018 1.924847 0.103775 1.0000 0.9647 0.8980
v -0.216431 1.930461 0.126170 1.0000 0.9647 0.8980
v -0.099229 1.469045 0.247877 1.0000 0.9647 0.8980
v -0.071710 1.495455 0.246076 1.0000 0.9647 0.8980
v -0.102123 1.501068 0.268471 1.0000 0.9647 0.8980
v -0.084761 1.958118 0.144933 1.0000 0.9647 0.8980
v -0.089218 1.937322 0.176645 1.0000 0.9647 0.8980
v -0.058805 1.931708 0.154250 1.0000 0.9647 0.8980
v -0.098412 1.467797 0.242066 1.0000 0.9647 0.8980
v -0.093955 1.488593 0.210354 1.0000 0.9647 0.8980
v -0.070893 1.494207 0.240264 1.0000 0.9647 0.8980
v -0.083944 1.956871 0.139121 1.0000 0.9647 0.8980
v -0.057988 1.930461 0.148438 1.0000 0.9647 0.8980
v -0.081050 1.924847 0.118528 1.0000 0.9647 0.8980
v -0.140394 1.789130 0.159966 0.2471 0.7137 0.7882
v -0.151285 1.805763 0.237456 0.2471 0.7137 0.7882
v -0.094271 1.774186 0.169656 0.2471 0.7137 0.7882
v -0.105162 1.790819 0.247146 0.2471 0.7137 0.7882
v -0.066650 1.735060 0.181936 0.2471 0.7137 0.7882
v -0.077540 1.751693 0.259426 0.2471 0.7137 0.7882
v -0.068081 1.686697 0.192116 0.2471 0.7137 0.7882
v -0.078971 1.703330 0.269606 0.2471 0.7137 0.7882
v -0.098017 1.647572 0.196307 0.2471 0.7137 0.7882
v -0.108907 1.664204 0.273797 0.2471 0.7137 0.7882
v -0.145024 1.632627 0.192908 0.2471 0.7137 0.7882
v -0.155915 1.649260 0.270398 0.2471 0.7137 0.7882
v -0.191147 1.647572 0.183218 0.2471 0.7137 0.7882
v -0.202038 1.664204 0.260708 0.2471 0.7137 0.7882
v -0.218769 1.686697 0.170938 0.2471 0.7137 0.7882
v -0.229659 1.703330 0.248428 0.2471 0.7137 0.7882
v -0.217338 1.735060 0.160758 0.2471 0.7137 0.7882
v -0.228229 1.751693 0.238248 0.2471 0.7137 0.7882
v -0.187402 1.774186 0.156567 0.2471 0.7137 0.7882
v -0.198292 1.790819 0.234058 0.2471 0.7137 0.7882
v -0.484663 1.294433 0.238414 0.8470 0.2275 0.1804
v -0.486807 1.318155 0.253669 0.8470 0.2275 0.1804
v -0.503889 1.313996 0.231513 0.8470 0.2275 0.1804
v -0.485071 1.376843 0.241316 0.8470 0.2275 0.1804
v -0.481769 1.392248 0.217826 0.8470 0.2275 0.1804
v -0.502153 1.372685 0.219160 0.8470 0.2275 0.1804
v -0.481940 1.290275 0.219042 0.8470 0.2275 0.1804
v -0.501167 1.309838 0.212141 0.8470 0.2275 0.1804
v -0.478639 1.305680 0.195551 0.8470 0.2275 0.1804
v -0.479047 1.388090 0.198453 0.8470 0.2275 0.1804
v -0.476903 1.364369 0.183198 0.8470 0.2275 0.1804
v -0.499431 1.368527 0.199787 0.8470 0.2275 0.1804
v -0.365831 1.294433 0.255115 0.8470 0.2275 0.1804
v -0.345447 1.313996 0.253781 0.8470 0.2275 0.1804
v -0.367975 1.318155 0.270370 0.8470 0.2275 0.1804
v -0.362937 1.392248 0.234526 0.8470 0.2275 0.1804
v -0.366238 1.376843 0.258017 0.8470 0.2275 0.1804
v -0.343710 1.372685 0.241428 0.8470 0.2275 0.1804
v -0.363108 1.290275 0.235743 0.8470 0.2275 0.1804
v -0.359807 1.305680 0.212252 0.8470 0.2275 0.1804
v -0.342724 1.309838 0.234408 0.8470 0.2275 0.1804
v -0.360214 1.388090 0.215154 0.8470 0.2275 0.1804
v -0.340988 1.368527 0.222055 0.8470 0.2275 0.1804
v -0.358070 1.364369 0.199899 0.8470 0.2275 0.1804
v -0.306415 1.294433 0.263466 0.4275 0.7451 0.2706
v -0.308558 1.318155 0.278720 0.4275 0.7451 0.2706
v -0.325641 1.313996 0.256564 0.4275 0.7451 0.2706
v -0.306822 1.376843 0.266367 0.4275 0.7451 0.2706
v -0.303521 1.392248 0.242877 0.4275 0.7451 0.2706
v -0.323905 1.372685 0.244211 0.4275 0.7451 0.2706
v -0.303692 1.290275 0.244093 0.4275 0.7451 0.2706
v -0.322919 1.309838 0.237192 0.4275 0.7451 0.2706
v -0.300391 1.305680 0.220603 0.4275 0.7451 0.2706
v -0.300798 1.388090 0.223504 0.4275 0.7451 0.2706
v -0.298654 1.364369 0.208249 0.4275 0.7451 0.2706
v -0.321182 1.368527 0.224838 0.4275 0.7451 0.2706
v -0.187582 1.294433 0.280166 0.4275 0.7451 0.2706
v -0.167198 1.313996 0.278832 0.4275 0.7451 0.2706
v -0.189726 1.318155 0.295421 0.4275 0.7451 0.2706
v -0.184689 1.392248 0.259577 0.4275 0.7451 0.2706
v -0.187990 1.376843 0.283068 0.4275 0.7451 0.2706
v -0.165462 1.372685 0.266479 0.4275 0.7451 0.2706
v -0.184860 1.290275 0.260794 0.4275 0.7451 0.2706
v -0.181558 1.305680 0.237303 0.4275 0.7451 0.2706
v -0.164476 1.309838 0.259459 0.4275 0.7451 0.2706
v -0.181966 1.388090 0.240205 0.4275 0.7451 0.2706
v -0.162740 1.368527 0.247106 0.4275 0.7451 0.2706
v -0.179822 1.364369 0.224950 0.4275 0.7451 0.2706
v -0.128166 1.294433 0.288517 0.9490 0.7608 0.1882
v -0.130310 1.318155 0.303772 0.9490 0.7608 0.1882
v -0.147393 1.313996 0.281615 0.9490 0.7608 0.1882
v -0.128574 1.376843 0.291418 0.9490 0.7608 0.1882
v -0.125273 1.392248 0.267928 0.9490 0.7608 0.1882
v -0.145657 1.372685 0.269262 0.9490 0.7608 0.1882
v -0.125444 1.290275 0.269144 0.9490 0.7608 0.1882
v -0.144670 1.309838 0.262243 0.9490 0.7608 0.1882
v -0.122142 1.305680 0.245654 0.9490 0.7608 0.1882
v -0.122550 1.388090 0.248555 0.9490 0.7608 0.1882
v -0.120406 1.364369 0.233301 0.9490 0.7608 0.1882
v -0.142934 1.368527 0.249890 0.9490 0.7608 0.1882
v -0.009334 1.294433 0.305217 0.9490 0.7608 0.1882
v 0.011050 1.313996 0.303883 0.9490 0.7608 0.1882
v -0.011478 1.318155 0.320472 0.9490 0.7608 0.1882
v -0.006441 1.392248 0.284629 0.9490 0.7608 0.1882
v -0.009742 1.376843 0.308119 0.9490 0.7608 0.1882
v 0.012786 1.372685 0.291530 0.9490 0.7608 0.1882
v -0.006611 1.290275 0.285845 0.9490 0.7608 0.1882
v -0.003310 1.305680 0.262355 0.9490 0.7608 0.1882
v 0.013773 1.309838 0.284511 0.9490 0.7608 0.1882
v -0.003718 1.388090 0.265256 0.9490 0.7608 0.1882
v 0.015509 1.368527 0.272157 0.9490 0.7608 0.1882
v -0.001574 1.364369 0.250001 0.9490 0.7608 0.1882
v 0.050082 1.294433 0.313568 0.2471 0.7137 0.7882
v 0.047938 1.318155 0.328823 0.2471 0.7137 0.7882
v 0.030855 1.313996 0.306667 0.2471 0.7137 0.7882
v 0.049674 1.376843 0.316469 0.2471 0.7137 0.7882
v 0.052976 1.392248 0.292979 0.2471 0.7137 0.7882
v 0.032591 1.372685 0.294313 0.2471 0.7137 0.7882
v 0.052805 1.290275 0.294195 0.2471 0.7137 0.7882
v 0.033578 1.309838 0.287294 0.2471 0.7137 0.7882
v 0.056106 1.305680 0.270705 0.2471 0.7137 0.7882
v 0.055698 1.388090 0.273606 0.2471 0.7137 0.7882
v 0.057842 1.364369 0.258352 0.2471 0.7137 0.7882
v 0.035314 1.368527 0.274941 0.2471 0.7137 0.7882
v 0.168914 1.294433 0.330269 0.2471 0.7137 0.7882
v 0.189298 1.313996 0.328934 0.2471 0.7137 0.7882
v 0.166770 1.318155 0.345523 0.2471 0.7137 0.7882
v 0.171808 1.392248 0.309680 0.2471 0.7137 0.7882
v 0.168506 1.376843 0.333170 0.2471 0.7137 0.7882
v 0.191034 1.372685 0.316581 0.2471 0.7137 0.7882
v 0.171637 1.290275 0.310896 0.2471 0.7137 0.7882
v 0.174938 1.305680 0.287406 0.2471 0.7137 0.7882
v 0.192021 1.309838 0.309562 0.2471 0.7137 0.7882
v 0.174530 1.388090 0.290307 0.2471 0.7137 0.7882
v 0.193757 1.368527 0.297208 0.2471 0.7137 0.7882
v 0.176674 1.364369 0.275052 0.2471 0.7137 0.7882
v -0.403511 1.143246 0.235814 1.0000 0.9647 0.8980
v -0.413040 1.157800 0.303618 1.0000 0.9647 0.8980
v -0.360271 1.129235 0.244898 1.0000 0.9647 0.8980
v -0.369800 1.143789 0.312702 1.0000 0.9647 0.8980
v -0.334376 1.092555 0.256411 1.0000 0.9647 0.8980
v -0.343905 1.107108 0.324215 1.0000 0.9647 0.8980
v -0.335717 1.047215 0.265954 1.0000 0.9647 0.8980
v -0.345246 1.061769 0.333758 1.0000 0.9647 0.8980
v -0.363782 1.010534 0.269883 1.0000 0.9647 0.8980
v -0.373311 1.025088 0.337687 1.0000 0.9647 0.8980
v -0.407851 0.996524 0.266697 1.0000 0.9647 0.8980
v -0.417381 1.011078 0.334501 1.0000 0.9647 0.8980
v -0.451092 1.010534 0.257613 1.0000 0.9647 0.8980
v -0.460621 1.025088 0.325417 1.0000 0.9647 0.8980
v -0.476987 1.047215 0.246100 1.0000 0.9647 0.8980
v -0.486516 1.061769 0.313904 1.0000 0.9647 0.8980
v -0.475646 1.092555 0.236557 1.0000 0.9647 0.8980
v -0.485175 1.107108 0.304361 1.0000 0.9647 0.8980
v -0.447580 1.129235 0.232628 1.0000 0.9647 0.8980
v -0.457110 1.143789 0.300432 1.0000 0.9647 0.8980
v -0.155944 1.143246 0.270607 1.0000 0.9647 0.8980
v -0.165473 1.157800 0.338411 1.0000 0.9647 0.8980
v -0.112704 1.129235 0.279691 1.0000 0.9647 0.8980
v -0.122233 1.143789 0.347495 1.0000 0.9647 0.8980
v -0.086809 1.092555 0.291204 1.0000 0.9647 0.8980
v -0.096338 1.107108 0.359008 1.0000 0.9647 0.8980
v -0.088150 1.047215 0.300748 1.0000 0.9647 0.8980
v -0.097679 1.061769 0.368552 1.0000 0.9647 0.8980
v -0.116215 1.010534 0.304677 1.0000 0.9647 0.8980
v -0.125744 1.025088 0.372481 1.0000 0.9647 0.8980
v -0.160284 0.996524 0.301490 1.0000 0.9647 0.8980
v -0.169814 1.011078 0.369294 1.0000 0.9647 0.8980
v -0.203525 1.010534 0.292406 1.0000 0.9647 0.8980
v -0.213054 1.025088 0.360210 1.0000 0.9647 0.8980
v -0.229420 1.047215 0.280893 1.0000 0.9647 0.8980
v -0.238949 1.061769 0.348697 1.0000 0.9647 0.8980
v -0.228079 1.092555 0.271350 1.0000 0.9647 0.8980
v -0.237608 1.107108 0.339154 1.0000 0.9647 0.8980
v -0.200013 1.129235 0.267421 1.0000 0.9647 0.8980
v -0.209543 1.143789 0.335225 1.0000 0.9647 0.8980
v 0.091623 1.143246 0.305400 1.0000 0.9647 0.8980
v 0.082094 1.157800 0.373204 1.0000 0.9647 0.8980
v 0.134863 1.129235 0.314485 1.0000 0.9647 0.8980
v 0.125334 1.143789 0.382289 1.0000 0.9647 0.8980
v 0.160758 1.092555 0.325997 1.0000 0.9647 0.8980
v 0.151229 1.107108 0.393801 1.0000 0.9647 0.8980
v 0.159417 1.047215 0.335541 1.0000 0.9647 0.8980
v 0.149888 1.061769 0.403345 1.0000 0.9647 0.8980
v 0.131352 1.010534 0.339470 1.0000 0.9647 0.8980
v 0.121823 1.025088 0.407274 1.0000 0.9647 0.8980
v 0.087283 0.996524 0.336284 1.0000 0.9647 0.8980
v 0.077753 1.011078 0.404088 1.0000 0.9647 0.8980
v 0.044042 1.010534 0.327199 1.0000 0.9647 0.8980
v 0.034513 1.025088 0.395003 1.0000 0.9647 0.8980
v 0.018147 1.047215 0.315687 1.0000 0.9647 0.8980
v 0.008618 1.061769 0.383491 1.0000 0.9647 0.8980
v 0.019488 1.092555 0.306143 1.0000 0.9647 0.8980
v 0.009959 1.107108 0.373947 1.0000 0.9647 0.8980
v 0.047554 1.129235 0.302214 1.0000 0.9647 0.8980
v 0.038024 1.143789 0.370018 1.0000 0.9647 0.8980
v -0.410745 0.898709 0.287286 1.0000 0.9647 0.8980
v -0.420274 0.913263 0.355090 1.0000 0.9647 0.8980
v -0.367505 0.884698 0.296370 1.0000 0.9647 0.8980
v -0.377034 0.899252 0.364174 1.0000 0.9647 0.8980
v -0.341610 0.848018 0.307883 1.0000 0.9647 0.8980
v -0.351139 0.862572 0.375687 1.0000 0.9647 0.8980
v -0.342951 0.802678 0.317426 1.0000 0.9647 0.8980
v -0.352480 0.817232 0.385230 1.0000 0.9647 0.8980
v -0.371016 0.765998 0.321355 1.0000 0.9647 0.8980
v -0.380545 0.780551 0.389159 1.0000 0.9647 0.8980
v -0.415085 0.751987 0.318169 1.0000 0.9647 0.8980
v -0.424615 0.766541 0.385973 1.0000 0.9647 0.8980
v -0.458326 0.765998 0.309085 1.0000 0.9647 0.8980
v -0.467855 0.780551 0.376889 1.0000 0.9647 0.8980
v -0.484221 0.802678 0.297572 1.0000 0.9647 0.8980
v -0.493750 0.817232 0.365376 1.0000 0.9647 0.8980
v -0.482880 0.848018 0.288029 1.0000 0.9647 0.8980
v -0.492409 0.862572 0.355833 1.0000 0.9647 0.8980
v -0.454814 0.884698 0.284100 1.0000 0.9647 0.8980
v -0.464344 0.899252 0.351904 1.0000 0.9647 0.8980
v -0.163178 0.898709 0.322079 1.0000 0.9647 0.8980
v -0.172707 0.913263 0.389883 1.0000 0.9647 0.8980
v -0.119938 0.884698 0.331164 1.0000 0.9647 0.8980
v -0.129467 0.899252 0.398968 1.0000 0.9647 0.8980
v -0.094042 0.848018 0.342676 1.0000 0.9647 0.8980
v -0.103572 0.862572 0.410480 1.0000 0.9647 0.8980
v -0.095384 0.802678 0.352220 1.0000 0.9647 0.8980
v -0.104913 0.817232 0.420024 1.0000 0.9647 0.8980
v -0.123449 0.765998 0.356149 1.0000 0.9647 0.8980
v -0.132978 0.780551 0.423953 1.0000 0.9647 0.8980
v -0.167518 0.751987 0.352962 1.0000 0.9647 0.8980
v -0.177048 0.766541 0.420766 1.0000 0.9647 0.8980
v -0.210759 0.765998 0.343878 1.0000 0.9647 0.8980
v -0.220288 0.780551 0.411682 1.0000 0.9647 0.8980
v -0.236654 0.802678 0.332365 1.0000 0.9647 0.8980
v -0.246183 0.817232 0.400169 1.0000 0.9647 0.8980
v -0.235313 0.848018 0.322822 1.0000 0.9647 0.8980
v -0.244842 0.862572 0.390626 1.0000 0.9647 0.8980
v -0.207247 0.884698 0.318893 1.0000 0.9647 0.8980
v -0.216777 0.899252 0.386697 1.0000 0.9647 0.8980
v 0.084389 0.898709 0.356872 1.0000 0.9647 0.8980
v 0.074860 0.913263 0.424676 1.0000 0.9647 0.8980
v 0.127629 0.884698 0.365957 1.0000 0.9647 0.8980
v 0.118100 0.899252 0.433761 1.0000 0.9647 0.8980
v 0.153525 0.848018 0.377469 1.0000 0.9647 0.8980
v 0.143995 0.862572 0.445273 1.0000 0.9647 0.8980
v 0.152183 0.802678 0.387013 1.0000 0.9647 0.8980
v 0.142654 0.817232 0.454817 1.0000 0.9647 0.8980
v 0.124118 0.765998 0.390942 1.0000 0.9647 0.8980
v 0.114589 0.780551 0.458746 1.0000 0.9647 0.8980
v 0.080049 0.751987 0.387756 1.0000 0.9647 0.8980
v 0.070519 0.766541 0.455560 1.0000 0.9647 0.8980
v 0.036808 0.765998 0.378671 1.0000 0.9647 0.8980
v 0.027279 0.780551 0.446475 1.0000 0.9647 0.8980
v 0.010913 0.802678 0.367159 1.0000 0.9647 0.8980
v 0.001384 0.817232 0.434963 1.0000 0.9647 0.8980
v 0.012254 0.848018 0.357615 1.0000 0.9647 0.8980
v 0.002725 0.862572 0.425419 1.0000 0.9647 0.8980
v 0.040320 0.884698 0.353686 1.0000 0.9647 0.8980
v 0.030790 0.899252 0.421490 1.0000 0.9647 0.8980
v -0.417979 0.654172 0.338758 1.0000 0.9647 0.8980
v -0.427508 0.668726 0.406562 1.0000 0.9647 0.8980
v -0.374739 0.640161 0.347842 1.0000 0.9647 0.8980
v -0.384268 0.654715 0.415646 1.0000 0.9647 0.8980
v -0.348843 0.603481 0.359355 1.0000 0.9647 0.8980
v -0.358373 0.618035 0.427159 1.0000 0.9647 0.8980
v -0.350185 0.558141 0.368898 1.0000 0.9647 0.8980
v -0.359714 0.572695 0.436702 1.0000 0.9647 0.8980
v -0.378250 0.521461 0.372827 1.0000 0.9647 0.8980
v -0.387779 0.536014 0.440631 1.0000 0.9647 0.8980
v -0.422319 0.507450 0.369641 1.0000 0.9647 0.8980
v -0.431849 0.522004 0.437445 1.0000 0.9647 0.8980
v -0.465560 0.521461 0.360557 1.0000 0.9647 0.8980
v -0.475089 0.536014 0.428361 1.0000 0.9647 0.8980
v -0.491455 0.558141 0.349044 1.0000 0.9647 0.8980
v -0.500984 0.572695 0.416848 1.0000 0.9647 0.8980
v -0.490114 0.603481 0.339501 1.0000 0.9647 0.8980
v -0.499643 0.618035 0.407305 1.0000 0.9647 0.8980
v -0.462048 0.640161 0.335572 1.0000 0.9647 0.8980
v -0.471578 0.654715 0.403376 1.0000 0.9647 0.8980
v -0.170412 0.654172 0.373551 1.0000 0.9647 0.8980
v -0.179941 0.668726 0.441355 1.0000 0.9647 0.8980
v -0.127172 0.640161 0.382636 1.0000 0.9647 0.8980
v -0.136701 0.654715 0.450440 1.0000 0.9647 0.8980
v -0.101276 0.603481 0.394148 1.0000 0.9647 0.8980
v -0.110806 0.618035 0.461952 1.0000 0.9647 0.8980
v -0.102618 0.558141 0.403692 1.0000 0.9647 0.8980
v -0.112147 0.572695 0.471496 1.0000 0.9647 0.8980
v -0.130683 0.521461 0.407621 1.0000 0.9647 0.8980
v -0.140212 0.536014 0.475425 1.0000 0.9647 0.8980
v -0.174752 0.507450 0.404434 1.0000 0.9647 0.8980
v -0.184282 0.522004 0.472238 1.0000 0.9647 0.8980
v -0.217993 0.521461 0.395350 1.0000 0.9647 0.8980
v -0.227522 0.536014 0.463154 1.0000 0.9647 0.8980
v -0.243888 0.558141 0.383837 1.0000 0.9647 0.8980
v -0.253417 0.572695 0.451641 1.0000 0.9647 0.8980
v -0.242547 0.603481 0.374294 1.0000 0.9647 0.8980
v -0.252076 0.618035 0.442098 1.0000 0.9647 0.8980
v -0.214481 0.640161 0.370365 1.0000 0.9647 0.8980
v -0.224010 0.654715 0.438169 1.0000 0.9647 0.8980
v 0.077155 0.654172 0.408345 1.0000 0.9647 0.8980
v 0.067626 0.668726 0.476148 1.0000 0.9647 0.8980
v 0.120395 0.640161 0.417429 1.0000 0.9647 0.8980
v 0.110866 0.654715 0.485233 1.0000 0.9647 0.8980
v 0.146291 0.603481 0.428942 1.0000 0.9647 0.8980
v 0.136761 0.618035 0.496745 1.0000 0.9647 0.8980
v 0.144949 0.558141 0.438485 1.0000 0.9647 0.8980
v 0.135420 0.572695 0.506289 1.0000 0.9647 0.8980
v 0.116884 0.521461 0.442414 1.0000 0.9647 0.8980
v 0.107355 0.536014 0.510218 1.0000 0.9647 0.8980
v 0.072815 0.507450 0.439228 1.0000 0.9647 0.8980
v 0.063286 0.522004 0.507032 1.0000 0.9647 0.8980
v 0.029574 0.521461 0.430143 1.0000 0.9647 0.8980
v 0.020045 0.536014 0.497947 1.0000 0.9647 0.8980
v 0.003679 0.558141 0.418631 1.0000 0.9647 0.8980
v -0.005850 0.572695 0.486435 1.0000 0.9647 0.8980
v 0.005020 0.603481 0.409087 1.0000 0.9647 0.8980
v -0.004509 0.618035 0.476891 1.0000 0.9647 0.8980
v 0.033086 0.640161 0.405158 1.0000 0.9647 0.8980
v 0.023557 0.654715 0.472962 1.0000 0.9647 0.8980
v 0.221746 2.497415 -0.261209 0.7216 0.7608 0.8000
v 0.226954 2.673481 -0.298269 0.7216 0.7608 0.8000
v 0.277353 2.501385 -0.234529 0.7216 0.7608 0.8000
v 0.282561 2.677452 -0.271589 0.7216 0.7608 0.8000
v 0.306520 2.511781 -0.181042 0.7216 0.7608 0.8000
v 0.311728 2.687847 -0.218102 0.7216 0.7608 0.8000
v 0.298106 2.524631 -0.121177 0.7216 0.7608 0.8000
v 0.303315 2.700697 -0.158237 0.7216 0.7608 0.8000
v 0.255326 2.535026 -0.077802 0.7216 0.7608 0.8000
v 0.260534 2.711092 -0.114862 0.7216 0.7608 0.8000
v 0.194520 2.538997 -0.067483 0.7216 0.7608 0.8000
v 0.199728 2.715063 -0.104543 0.7216 0.7608 0.8000
v 0.138913 2.535026 -0.094163 0.7216 0.7608 0.8000
v 0.144121 2.711092 -0.131222 0.7216 0.7608 0.8000
v 0.109746 2.524631 -0.147650 0.7216 0.7608 0.8000
v 0.114954 2.700697 -0.184710 0.7216 0.7608 0.8000
v 0.118159 2.511781 -0.207514 0.7216 0.7608 0.8000
v 0.123368 2.687847 -0.244574 0.7216 0.7608 0.8000
v 0.160940 2.501385 -0.250890 0.7216 0.7608 0.8000
v 0.166148 2.677452 -0.287950 0.7216 0.7608 0.8000
v 0.516819 3.667679 -0.432191 0.7216 0.7608 0.8000
v 0.517817 3.674857 -0.397950 0.7216 0.7608 0.8000
v 0.547162 3.669202 -0.379732 0.7216 0.7608 0.8000
v 0.575509 3.656369 -0.395756 0.7216 0.7608 0.8000
v 0.574511 3.649191 -0.429997 0.7216 0.7608 0.8000
v 0.545166 3.654846 -0.448215 0.7216 0.7608 0.8000
v 0.182549 2.651020 -0.209329 0.7216 0.7608 0.8000
v 0.183547 2.658198 -0.175087 0.7216 0.7608 0.8000
v 0.212893 2.652543 -0.156870 0.7216 0.7608 0.8000
v 0.241240 2.639710 -0.172894 0.7216 0.7608 0.8000
v 0.240241 2.632532 -0.207135 0.7216 0.7608 0.8000
v 0.210896 2.638187 -0.225353 0.7216 0.7608 0.8000
v 0.550794 3.818528 -0.446916 0.8470 0.2275 0.1804
v 0.544428 3.603335 -0.401620 0.8470 0.2275 0.1804
v 0.588438 3.794861 -0.482482 0.8470 0.2275 0.1804
v 0.615143 3.748706 -0.502450 0.8470 0.2275 0.1804
v 0.623753 3.692429 -0.501470 0.8470 0.2275 0.1804
v 0.611960 3.641110 -0.479803 0.8470 0.2275 0.1804
v 0.582925 3.608499 -0.443255 0.8470 0.2275 0.1804
v 0.604480 3.800579 -0.453064 0.8470 0.2275 0.1804
v 0.642928 3.758609 -0.451497 0.8470 0.2275 0.1804
v 0.655836 3.703864 -0.442634 0.8470 0.2275 0.1804
v 0.639745 3.651013 -0.428849 0.8470 0.2275 0.1804
v 0.598967 3.614217 -0.413837 0.8470 0.2275 0.1804
v 0.599853 3.807646 -0.420139 0.8470 0.2275 0.1804
v 0.634913 3.770850 -0.394468 0.8470 0.2275 0.1804
v 0.646582 3.717999 -0.376783 0.8470 0.2275 0.1804
v 0.631730 3.663254 -0.371821 0.8470 0.2275 0.1804
v 0.594340 3.621284 -0.380912 0.8470 0.2275 0.1804
v 0.576324 3.813364 -0.396282 0.8470 0.2275 0.1804
v 0.594160 3.780753 -0.353148 0.8470 0.2275 0.1804
v 0.599523 3.729434 -0.329069 0.8470 0.2275 0.1804
v 0.590977 3.673157 -0.330500 0.8470 0.2275 0.1804
v 0.570811 3.627002 -0.357055 0.8470 0.2275 0.1804
v 0.542880 3.815548 -0.390607 0.8470 0.2275 0.1804
v 0.536234 3.784536 -0.343318 0.8470 0.2275 0.1804
v 0.532636 3.733802 -0.317719 0.8470 0.2275 0.1804
v 0.533051 3.676939 -0.320670 0.8470 0.2275 0.1804
v 0.537367 3.629185 -0.351380 0.8470 0.2275 0.1804
v 0.512296 3.813364 -0.405281 0.8470 0.2275 0.1804
v 0.483262 3.780753 -0.368733 0.8470 0.2275 0.1804
v 0.471469 3.729434 -0.347066 0.8470 0.2275 0.1804
v 0.480079 3.673157 -0.346085 0.8470 0.2275 0.1804
v 0.506783 3.627002 -0.366054 0.8470 0.2275 0.1804
v 0.496255 3.807646 -0.434699 0.8470 0.2275 0.1804
v 0.455476 3.770850 -0.419687 0.8470 0.2275 0.1804
v 0.439385 3.717999 -0.405902 0.8470 0.2275 0.1804
v 0.452293 3.663254 -0.397039 0.8470 0.2275 0.1804
v 0.490742 3.621284 -0.395472 0.8470 0.2275 0.1804
v 0.500882 3.800579 -0.467624 0.8470 0.2275 0.1804
v 0.463491 3.758609 -0.476715 0.8470 0.2275 0.1804
v 0.448640 3.703864 -0.471753 0.8470 0.2275 0.1804
v 0.460308 3.651013 -0.454068 0.8470 0.2275 0.1804
v 0.495369 3.614217 -0.428397 0.8470 0.2275 0.1804
v 0.524411 3.794861 -0.491481 0.8470 0.2275 0.1804
v 0.504245 3.748706 -0.518036 0.8470 0.2275 0.1804
v 0.495698 3.692429 -0.519466 0.8470 0.2275 0.1804
v 0.501062 3.641110 -0.495388 0.8470 0.2275 0.1804
v 0.518898 3.608499 -0.452254 0.8470 0.2275 0.1804
v 0.557855 3.792677 -0.497156 0.8470 0.2275 0.1804
v 0.562171 3.744923 -0.527866 0.8470 0.2275 0.1804
v 0.562585 3.688061 -0.530817 0.8470 0.2275 0.1804
v 0.558988 3.637327 -0.505218 0.8470 0.2275 0.1804
v 0.552342 3.606315 -0.457929 0.8470 0.2275 0.1804
vn -0.1744 -0.9346 0.3099
vn -0.2123 -0.7413 0.6367
vn -0.5263 -0.6645 0.5305
vn -0.5283 -0.8182 0.2269
vn -0.2520 -0.3015 0.9196
vn -0.5614 -0.2766 0.7800
vn -0.2659 0.0776 0.9609
vn -0.6077 0.0604 0.7919
vn -0.9244 -0.0167 0.3811
vn -0.8407 -0.3446 0.4176
vn -0.9949 -0.0998 0.0154
vn -0.8847 -0.4555 0.0990
vn -0.2584 0.3312 0.9075
vn -0.2236 0.6601 0.7171
vn -0.5355 0.5986 0.5958
vn -0.6006 0.2982 0.7418
vn -0.1624 0.9457 0.2817
vn -0.4815 0.8505 0.2116
vn -0.1175 0.9885 -0.0949
vn -0.4784 0.8688 -0.1282
vn -0.8563 0.5061 -0.1035
vn -0.8149 0.5306 0.2334
vn -0.9874 0.1537 -0.0380
vn -0.9173 0.2211 0.3311
vn -0.1391 -0.9885 0.0588
vn -0.4952 -0.8688 -0.0086
vn -0.4045 -0.8505 -0.3361
vn -0.0784 -0.9457 -0.3155
vn -0.8516 -0.5061 -0.1366
vn -0.7189 -0.5306 -0.4490
vn -0.9596 -0.1537 -0.2357
vn -0.7905 -0.2211 -0.5711
vn -0.3729 -0.2982 -0.8787
vn -0.3505 -0.5986 -0.7203
vn 0.0017 -0.3312 -0.9436
vn -0.0172 -0.6601 -0.7510
vn -0.0822 0.9346 -0.3460
vn -0.0285 0.7413 -0.6706
vn -0.3597 0.6645 -0.6550
vn -0.4453 0.8182 -0.3637
vn 0.0112 0.3015 -0.9534
vn -0.3246 0.2766 -0.9045
vn 0.0092 -0.0776 -0.9969
vn -0.3659 -0.0604 -0.9287
vn -0.7835 0.0167 -0.6212
vn -0.6931 0.3446 -0.6332
vn -0.9521 0.0998 -0.2890
vn -0.8232 0.4555 -0.3390
vn 0.0822 -0.9346 0.3460
vn 0.4453 -0.8182 0.3637
vn 0.3597 -0.6645 0.6550
vn 0.0285 -0.7413 0.6706
vn 0.8232 -0.4555 0.3390
vn 0.6931 -0.3446 0.6332
vn 0.9521 -0.0998 0.2890
vn 0.7835 -0.0167 0.6212
vn 0.3659 0.0604 0.9287
vn 0.3246 -0.2766 0.9045
vn -0.0092 0.0776 0.9969
vn -0.0112 -0.3015 0.9534
vn 0.1391 0.9885 -0.0588
vn 0.0784 0.9457 0.3155
vn 0.4045 0.8505 0.3361
vn 0.4952 0.8688 0.0086
vn 0.0172 0.6601 0.7510
vn 0.3505 0.5986 0.7203
vn -0.0017 0.3312 0.9436
vn 0.3729 0.2982 0.8787
vn 0.7905 0.2211 0.5711
vn 0.7189 0.5306 0.4490
vn 0.9596 0.1537 0.2357
vn 0.8516 0.5061 0.1366
vn 0.1175 -0.9885 0.0949
vn 0.1624 -0.9457 -0.2817
vn 0.4815 -0.8505 -0.2116
vn 0.4784 -0.8688 0.1282
vn 0.2236 -0.6601 -0.7171
vn 0.5355 -0.5986 -0.5958
vn 0.2584 -0.3312 -0.9075
vn 0.6006 -0.2982 -0.7418
vn 0.9173 -0.2211 -0.3311
vn 0.8149 -0.5306 -0.2334
vn 0.9874 -0.1537 0.0380
vn 0.8563 -0.5061 0.1035
vn 0.1744 0.9346 -0.3099
vn 0.5283 0.8182 -0.2269
vn 0.5263 0.6645 -0.5305
vn 0.2123 0.7413 -0.6367
vn 0.8847 0.4555 -0.0990
vn 0.8407 0.3446 -0.4176
vn 0.9949 0.0998 -0.0154
vn 0.9244 0.0167 -0.3811
vn 0.6077 -0.0604 -0.7919
vn 0.5614 0.2766 -0.7800
vn 0.2659 -0.0776 -0.9609
vn 0.2520 0.3015 -0.9196
vn 0.0289 0.9781 -0.2059
vn 0.4557 0.8813 -0.1251
vn 0.7923 0.6099 -0.0196
vn 0.9719 0.2177 0.0899
vn 0.9590 -0.2177 0.1815
vn 0.7562 -0.6099 0.2372
vn 0.4036 -0.8813 0.2459
vn -0.0289 -0.9781 0.2059
vn -0.4557 -0.8813 0.1251
vn -0.7923 -0.6099 0.0196
vn -0.9719 -0.2177 -0.0899
vn -0.9590 0.2177 -0.1815
vn -0.7562 0.6099 -0.2372
vn -0.1361 0.2079 0.9686
vn -0.4036 0.8813 -0.2459
vn 0.1361 -0.2079 -0.9686
vn -0.5407 -0.6465 0.5382
vn -0.5727 -0.2927 0.7657
vn -0.8274 -0.3547 0.4353
vn -0.5460 0.6083 0.5761
vn -0.4968 0.8380 0.2258
vn -0.8008 0.5463 0.2457
vn -0.4153 -0.8380 -0.3540
vn -0.7020 -0.5463 -0.4569
vn -0.3661 -0.6083 -0.7043
vn -0.3714 0.6465 -0.6664
vn -0.3395 0.2927 -0.8939
vn -0.6754 0.3547 -0.6465
vn 0.3714 -0.6465 0.6664
vn 0.6754 -0.3547 0.6465
vn 0.3395 -0.2927 0.8939
vn 0.4153 0.8380 0.3540
vn 0.3661 0.6083 0.7043
vn 0.7020 0.5463 0.4569
vn 0.4968 -0.8380 -0.2258
vn 0.5461 -0.6083 -0.5761
vn 0.8008 -0.5463 -0.2457
vn 0.5407 0.6465 -0.5382
vn 0.8274 0.3547 -0.4353
vn 0.5727 0.2927 -0.7657
vn -0.9903 -0.0000 -0.1392
vn 0.9903 -0.0000 0.1392
vn 0.6055 0.7913 -0.0848
vn 0.9507 0.3023 0.0687
vn 0.9329 -0.3023 0.1960
vn 0.5587 -0.7913 0.2484
vn -0.6055 -0.7913 0.0848
vn -0.9507 -0.3023 -0.0687
vn -0.9329 0.3023 -0.1960
vn -0.5587 0.7913 -0.2484
vn 0.5460 -0.6083 -0.5761
vn -0.5461 0.6083 0.5761
vn 0.6922 -0.1682 -0.7018
vn 0.9839 -0.0642 -0.1670
vn 0.8997 0.0642 0.4317
vn 0.4719 0.1682 0.8654
vn -0.6922 0.1682 0.7018
vn -0.9839 0.0642 0.1670
vn -0.8997 -0.0642 -0.4317
vn -0.4719 -0.1682 -0.8654
vn 0.3058 0.9300 -0.2039
vn -0.3058 -0.9300 0.2039
vn -0.5005 -0.0251 -0.8654
vn -0.9517 0.3050 -0.0362
vn -0.4511 0.3301 0.8292
vn 0.5005 0.0251 0.8654
vn 0.9517 -0.3050 0.0362
vn 0.4511 -0.3301 -0.8292
vn 0.1334 0.2861 -0.9489
vn 0.6215 0.3210 -0.7147
vn 0.0975 0.7137 -0.6936
vn 0.3959 0.7351 -0.5504
vn 0.0486 -0.9369 -0.3462
vn 0.3471 -0.9156 -0.2030
vn 0.1056 -0.6511 -0.7516
vn 0.5937 -0.6163 -0.5174
vn 0.5036 -0.8598 0.0841
vn 0.8497 -0.5250 -0.0479
vn 0.5525 0.7908 -0.2633
vn 0.8775 0.4122 -0.2452
vn 0.4585 -0.7908 0.4054
vn 0.7759 -0.4122 0.4776
vn 0.5073 0.8598 0.0580
vn 0.8036 0.5250 0.2803
vn 0.4004 -0.3210 0.8583
vn 0.2777 0.9156 0.2908
vn 0.4281 0.6163 0.6610
vn 0.2289 -0.7351 0.6382
vn -0.0486 0.9369 0.3462
vn -0.1056 0.6511 0.7516
vn -0.1334 -0.2861 0.9489
vn -0.0975 -0.7137 0.6936
vn -0.6215 -0.3210 0.7147
vn -0.3959 -0.7351 0.5504
vn -0.5937 0.6163 0.5174
vn -0.3471 0.9156 0.2030
vn -0.8775 -0.4122 0.2452
vn -0.5525 -0.7908 0.2633
vn -0.8497 0.5250 0.0479
vn -0.5036 0.8598 -0.0841
vn -0.8036 -0.5250 -0.2803
vn -0.5073 -0.8598 -0.0580
vn -0.7759 0.4122 -0.4776
vn -0.4585 0.7908 -0.4054
vn -0.4281 -0.6163 -0.6610
vn -0.2777 -0.9156 -0.2908
vn -0.4004 0.3210 -0.8583
vn -0.2289 0.7351 -0.6382
vt 0.000000 0.000000
vt 1.000000 0.000000
vt 0.600000 0.000000
vt 0.800000 0.000000
vt 0.400000 0.000000
vt 0.200000 0.000000
vt 0.000000 1.000000
vt 1.000000 1.000000
vt 1.000000 0.833333
vt 0.000000 0.833333
vt 0.000000 0.166667
vt 1.000000 0.166667
vt 0.000000 0.333333
vt 1.000000 0.333333
vt 0.000000 0.500000
vt 1.000000 0.500000
vt 0.000000 0.666667
vt 1.000000 0.666667
s 1
usemtl navy
f 1/1/1 4/1/2 6/1/3 5/1/4
f 4/1/2 8/1/5 9/1/6 6/1/3
f 2/1/7 7/1/8 9/1/6 8/1/5
f 7/1/8 11/1/9 12/1/10 9/1/6
f 3/1/11 10/1/12 12/1/10 11/1/9
f 10/1/12 5/1/4 6/1/3 12/1/10
f 6/1/3 9/1/6 12/1/10
f 13/1/13 16/1/14 18/1/15 17/1/16
f 16/1/14 20/1/17 21/1/18 18/1/15
f 14/1/19 19/1/20 21/1/18 20/1/17
f 19/1/20 23/1/21 24/1/22 21/1/18
f 15/1/23 22/1/24 24/1/22 23/1/21
f 22/1/24 17/1/16 18/1/15 24/1/22
f 18/1/15 21/1/18 24/1/22
f 25/1/25 28/1/26 30/1/27 29/1/28
f 28/1/26 32/1/29 33/1/30 30/1/27
f 26/1/31 31/1/32 33/1/30 32/1/29
f 31/1/32 35/1/33 36/1/34 33/1/30
f 27/1/35 34/1/36 36/1/34 35/1/33
f 34/1/36 29/1/28 30/1/27 36/1/34
f 30/1/27 33/1/30 36/1/34
f 37/1/37 40/1/38 42/1/39 41/1/40
f 40/1/38 44/1/41 45/1/42 42/1/39
f 38/1/43 43/1/44 45/1/42 44/1/41
f 43/1/44 47/1/45 48/1/46 45/1/42
f 39/1/47 46/1/48 48/1/46 47/1/45
f 46/1/48 41/1/40 42/1/39 48/1/46
f 42/1/39 45/1/42 48/1/46
f 49/1/49 52/1/50 54/1/51 53/1/52
f 52/1/50 56/1/53 57/1/54 54/1/51
f 50/1/55 55/1/56 57/1/54 56/1/53
f 55/1/56 59/1/57 60/1/58 57/1/54
f 51/1/59 58/1/60 60/1/58 59/1/57
f 58/1/60 53/1/52 54/1/51 60/1/58
f 54/1/51 57/1/54 60/1/58
f 61/1/61 64/1/62 66/1/63 65/1/64
f 64/1/62 68/1/65 69/1/66 66/1/63
f 62/1/67 67/1/68 69/1/66 68/1/65
f 67/1/68 71/1/69 72/1/70 69/1/66
f 63/1/71 70/1/72 72/1/70 71/1/69
f 70/1/72 65/1/64 66/1/63 72/1/70
f 66/1/63 69/1/66 72/1/70
f 73/1/73 76/1/74 78/1/75 77/1/76
f 76/1/74 80/1/77 81/1/78 78/1/75
f 74/1/79 79/1/80 81/1/78 80/1/77
f 79/1/80 83/1/81 84/1/82 81/1/78
f 75/1/83 82/1/84 84/1/82 83/1/81
f 82/1/84 77/1/76 78/1/75 84/1/82
f 78/1/75 81/1/78 84/1/82
f 85/1/85 88/1/86 90/1/87 89/1/88
f 88/1/86 92/1/89 93/1/90 90/1/87
f 86/1/91 91/1/92 93/1/90 92/1/89
f 91/1/92 95/1/93 96/1/94 93/1/90
f 87/1/95 94/1/96 96/1/94 95/1/93
f 94/1/96 89/1/88 90/1/87 96/1/94
f 90/1/87 93/1/90 96/1/94
f 25/1/25 1/1/1 5/1/4 28/1/26
f 28/1/26 5/1/4 10/1/12 32/1/29
f 32/1/29 10/1/12 3/1/11 26/1/31
f 2/1/7 13/1/13 17/1/16 7/1/8
f 7/1/8 17/1/16 22/1/24 11/1/9
f 11/1/9 22/1/24 15/1/23 3/1/11
f 14/1/19 37/1/37 41/1/40 19/1/20
f 19/1/20 41/1/40 46/1/48 23/1/21
f 23/1/21 46/1/48 39/1/47 15/1/23
f 38/1/43 27/1/35 35/1/33 43/1/44
f 43/1/44 35/1/33 31/1/32 47/1/45
f 47/1/45 31/1/32 26/1/31 39/1/47
f 73/1/73 25/1/25 29/1/28 76/1/74
f 76/1/74 29/1/28 34/1/36 80/1/77
f 80/1/77 34/1/36 27/1/35 74/1/79
f 37/1/37 85/1/85 89/1/88 40/1/38
f 40/1/38 89/1/88 94/1/96 44/1/41
f 44/1/41 94/1/96 87/1/95 38/1/43
f 86/1/91 75/1/83 83/1/81 91/1/92
f 91/1/92 83/1/81 79/1/80 95/1/93
f 95/1/93 79/1/80 74/1/79 87/1/95
f 49/1/49 73/1/73 77/1/76 52/1/50
f 52/1/50 77/1/76 82/1/84 56/1/53
f 56/1/53 82/1/84 75/1/83 50/1/55
f 85/1/85 61/1/61 65/1/64 88/1/86
f 88/1/86 65/1/64 70/1/72 92/1/89
f 92/1/89 70/1/72 63/1/71 86/1/91
f 62/1/67 51/1/59 59/1/57 67/1/68
f 67/1/68 59/1/57 55/1/56 71/1/69
f 71/1/69 55/1/56 50/1/55 63/1/71
f 1/1/1 49/1/49 53/1/52 4/1/2
f 4/1/2 53/1/52 58/1/60 8/1/5
f 8/1/5 58/1/60 51/1/59 2/1/7
f 61/1/61 14/1/19 20/1/17 64/1/62
f 64/1/62 20/1/17 16/1/14 68/1/65
f 68/1/65 16/1/14 13/1/13 62/1/67
f 25/1/25 73/1/73 49/1/49 1/1/1
f 3/1/11 15/1/23 39/1/47 26/1/31
f 51/1/59 62/1/67 13/1/13 2/1/7
f 85/1/85 37/1/37 14/1/19 61/1/61
f 27/1/35 38/1/43 87/1/95 74/1/79
f 75/1/83 86/1/91 63/1/71 50/1/55
usemtl ketchup_e0.3
f 97/1/97 98/1/97 100/1/98 99/1/98
f 99/1/98 100/1/98 102/1/99 101/1/99
f 101/1/99 102/1/99 104/1/100 103/1/100
f 103/1/100 104/1/100 106/1/101 105/1/101
f 105/1/101 106/1/101 108/1/102 107/1/102
f 107/1/102 108/1/102 110/1/103 109/1/103
f 109/1/103 110/1/103 112/1/104 111/1/104
f 111/1/104 112/1/104 114/1/105 113/1/105
f 113/1/105 114/1/105 116/1/106 115/1/106
f 115/1/106 116/1/106 118/1/107 117/1/107
f 117/1/107 118/1/107 120/1/108 119/1/108
f 119/1/108 120/1/108 122/1/109 121/1/109
f 100/1/110 98/1/110 124/1/110 122/1/110 120/1/110 118/1/110 116/1/110 114/1/110 112/1/110 110/1/110 108/1/110 106/1/110 104/1/110 102/1/110
f 121/1/109 122/1/109 124/1/111 123/1/111
f 123/1/111 124/1/111 98/1/97 97/1/97
f 97/1/112 99/1/112 101/1/112 103/1/112 105/1/112 107/1/112 109/1/112 111/1/112 113/1/112 115/1/112 117/1/112 119/1/112 121/1/112 123/1/112
usemtl cream
f 125/1/113 126/1/114 127/1/115
f 128/1/116 129/1/117 130/1/118
f 131/1/119 132/1/120 133/1/121
f 134/1/122 135/1/123 136/1/124
f 137/1/125 138/1/126 139/1/127
f 140/1/128 141/1/129 142/1/130
f 143/1/131 144/1/132 145/1/133
f 146/1/134 147/1/135 148/1/136
f 131/1/119 125/1/113 127/1/115 132/1/120
f 126/1/114 128/1/116 130/1/118 127/1/115
f 129/1/117 134/1/122 136/1/124 130/1/118
f 135/1/123 133/1/121 132/1/120 136/1/124
f 143/1/131 131/1/119 133/1/121 144/1/132
f 134/1/122 146/1/134 148/1/136 135/1/123
f 147/1/135 145/1/133 144/1/132 148/1/136
f 137/1/125 143/1/131 145/1/133 138/1/126
f 146/1/134 140/1/128 142/1/130 147/1/135
f 141/1/129 139/1/127 138/1/126 142/1/130
f 125/1/113 137/1/125 139/1/127 126/1/114
f 140/1/128 129/1/117 128/1/116 141/1/129
f 131/1/104 143/1/104 137/1/104 125/1/104
f 127/1/137 130/1/137 136/1/137 132/1/137
f 139/1/110 141/1/110 128/1/110 126/1/110
f 146/1/97 134/1/97 129/1/97 140/1/97
f 133/1/112 135/1/112 148/1/112 144/1/112
f 145/1/138 147/1/138 142/1/138 138/1/138
f 149/1/113 150/1/114 151/1/115
f 152/1/116 153/1/117 154/1/118
f 155/1/119 156/1/120 157/1/121
f 158/1/122 159/1/123 160/1/124
f 161/1/125 162/1/126 163/1/127
f 164/1/128 165/1/129 166/1/130
f 167/1/131 168/1/132 169/1/133
f 170/1/134 171/1/135 172/1/136
f 155/1/119 149/1/113 151/1/115 156/1/120
f 150/1/114 152/1/116 154/1/118 151/1/115
f 153/1/117 158/1/122 160/1/124 154/1/118
f 159/1/123 157/1/121 156/1/120 160/1/124
f 167/1/131 155/1/119 157/1/121 168/1/132
f 158/1/122 170/1/134 172/1/136 159/1/123
f 171/1/135 169/1/133 168/1/132 172/1/136
f 161/1/125 167/1/131 169/1/133 162/1/126
f 170/1/134 164/1/128 166/1/130 171/1/135
f 165/1/129 163/1/127 162/1/126 166/1/130
f 149/1/113 161/1/125 163/1/127 150/1/114
f 164/1/128 153/1/117 152/1/116 165/1/129
f 155/1/104 167/1/104 161/1/104 149/1/104
f 151/1/137 154/1/137 160/1/137 156/1/137
f 163/1/110 165/1/110 152/1/110 150/1/110
f 170/1/97 158/1/97 153/1/97 164/1/97
f 157/1/112 159/1/112 172/1/112 168/1/112
f 169/1/138 171/1/138 166/1/138 162/1/138
f 289/1/97 290/1/97 292/1/139 291/1/139
f 291/1/139 292/1/139 294/1/140 293/1/140
f 293/1/140 294/1/140 296/1/141 295/1/141
f 295/1/141 296/1/141 298/1/142 297/1/142
f 297/1/142 298/1/142 300/1/104 299/1/104
f 299/1/104 300/1/104 302/1/143 301/1/143
f 301/1/143 302/1/143 304/1/144 303/1/144
f 303/1/144 304/1/144 306/1/145 305/1/145
f 292/1/110 290/1/110 308/1/110 306/1/110 304/1/110 302/1/110 300/1/110 298/1/110 296/1/110 294/1/110
f 305/1/145 306/1/145 308/1/146 307/1/146
f 307/1/146 308/1/146 290/1/97 289/1/97
f 289/1/112 291/1/112 293/1/112 295/1/112 297/1/112 299/1/112 301/1/112 303/1/112 305/1/112 307/1/112
f 309/1/97 310/1/97 312/1/139 311/1/139
f 311/1/139 312/1/139 314/1/140 313/1/140
f 313/1/140 314/1/140 316/1/141 315/1/141
f 315/1/141 316/1/141 318/1/142 317/1/142
f 317/1/142 318/1/142 320/1/104 319/1/104
f 319/1/104 320/1/104 322/1/143 321/1/143
f 321/1/143 322/1/143 324/1/144 323/1/144
f 323/1/144 324/1/144 326/1/145 325/1/145
f 312/1/110 310/1/110 328/1/110 326/1/110 324/1/110 322/1/110 320/1/110 318/1/110 316/1/110 314/1/110
f 325/1/145 326/1/145 328/1/146 327/1/146
f 327/1/146 328/1/146 310/1/97 309/1/97
f 309/1/112 311/1/112 313/1/112 315/1/112 317/1/112 319/1/112 321/1/112 323/1/112 325/1/112 327/1/112
f 329/1/97 330/1/97 332/1/139 331/1/139
f 331/1/139 332/1/139 334/1/140 333/1/140
f 333/1/140 334/1/140 336/1/141 335/1/141
f 335/1/141 336/1/141 338/1/142 337/1/142
f 337/1/142 338/1/142 340/1/104 339/1/104
f 339/1/104 340/1/104 342/1/143 341/1/143
f 341/1/143 342/1/143 344/1/144 343/1/144
f 343/1/144 344/1/144 346/1/145 345/1/145
f 332/1/110 330/1/110 348/1/110 346/1/110 344/1/110 342/1/110 340/1/110 338/1/110 336/1/110 334/1/110
f 345/1/145 346/1/145 348/1/146 347/1/146
f 347/1/146 348/1/146 330/1/97 329/1/97
f 329/1/112 331/1/112 333/1/112 335/1/112 337/1/112 339/1/112 341/1/112 343/1/112 345/1/112 347/1/112
f 349/1/97 350/1/97 352/1/139 351/1/139
f 351/1/139 352/1/139 354/1/140 353/1/140
f 353/1/140 354/1/140 356/1/141 355/1/141
f 355/1/141 356/1/141 358/1/142 357/1/142
f 357/1/142 358/1/142 360/1/104 359/1/104
f 359/1/104 360/1/104 362/1/143 361/1/143
f 361/1/143 362/1/143 364/1/144 363/1/144
f 363/1/144 364/1/144 366/1/145 365/1/145
f 352/1/110 350/1/110 368/1/110 366/1/110 364/1/110 362/1/110 360/1/110 358/1/110 356/1/110 354/1/110
f 365/1/145 366/1/145 368/1/146 367/1/146
f 367/1/146 368/1/146 350/1/97 349/1/97
f 349/1/112 351/1/112 353/1/112 355/1/112 357/1/112 359/1/112 361/1/112 363/1/112 365/1/112 367/1/112
f 369/1/97 370/1/97 372/1/139 371/1/139
f 371/1/139 372/1/139 374/1/140 373/1/140
f 373/1/140 374/1/140 376/1/141 375/1/141
f 375/1/141 376/1/141 378/1/142 377/1/142
f 377/1/142 378/1/142 380/1/104 379/1/104
f 379/1/104 380/1/104 382/1/143 381/1/143
f 381/1/143 382/1/143 384/1/144 383/1/144
f 383/1/144 384/1/144 386/1/145 385/1/145
f 372/1/110 370/1/110 388/1/110 386/1/110 384/1/110 382/1/110 380/1/110 378/1/110 376/1/110 374/1/110
f 385/1/145 386/1/145 388/1/146 387/1/146
f 387/1/146 388/1/146 370/1/97 369/1/97
f 369/1/112 371/1/112 373/1/112 375/1/112 377/1/112 379/1/112 381/1/112 383/1/112 385/1/112 387/1/112
f 389/1/97 390/1/97 392/1/139 391/1/139
f 391/1/139 392/1/139 394/1/140 393/1/140
f 393/1/140 394/1/140 396/1/141 395/1/141
f 395/1/141 396/1/141 398/1/142 397/1/142
f 397/1/142 398/1/142 400/1/104 399/1/104
f 399/1/104 400/1/104 402/1/143 401/1/143
f 401/1/143 402/1/143 404/1/144 403/1/144
f 403/1/144 404/1/144 406/1/145 405/1/145
f 392/1/110 390/1/110 408/1/110 406/1/110 404/1/110 402/1/110 400/1/110 398/1/110 396/1/110 394/1/110
f 405/1/145 406/1/145 408/1/146 407/1/146
f 407/1/146 408/1/146 390/1/97 389/1/97
f 389/1/112 391/1/112 393/1/112 395/1/112 397/1/112 399/1/112 401/1/112 403/1/112 405/1/112 407/1/112
f 409/1/97 410/1/97 412/1/139 411/1/139
f 411/1/139 412/1/139 414/1/140 413/1/140
f 413/1/140 414/1/140 416/1/141 415/1/141
f 415/1/141 416/1/141 418/1/142 417/1/142
f 417/1/142 418/1/142 420/1/104 419/1/104
f 419/1/104 420/1/104 422/1/143 421/1/143
f 421/1/143 422/1/143 424/1/144 423/1/144
f 423/1/144 424/1/144 426/1/145 425/1/145
f 412/1/110 410/1/110 428/1/110 426/1/110 424/1/110 422/1/110 420/1/110 418/1/110 416/1/110 414/1/110
f 425/1/145 426/1/145 428/1/146 427/1/146
f 427/1/146 428/1/146 410/1/97 409/1/97
f 409/1/112 411/1/112 413/1/112 415/1/112 417/1/112 419/1/112 421/1/112 423/1/112 425/1/112 427/1/112
f 429/1/97 430/1/97 432/1/139 431/1/139
f 431/1/139 432/1/139 434/1/140 433/1/140
f 433/1/140 434/1/140 436/1/141 435/1/141
f 435/1/141 436/1/141 438/1/142 437/1/142
f 437/1/142 438/1/142 440/1/104 439/1/104
f 439/1/104 440/1/104 442/1/143 441/1/143
f 441/1/143 442/1/143 444/1/144 443/1/144
f 443/1/144 444/1/144 446/1/145 445/1/145
f 432/1/110 430/1/110 448/1/110 446/1/110 444/1/110 442/1/110 440/1/110 438/1/110 436/1/110 434/1/110
f 445/1/145 446/1/145 448/1/146 447/1/146
f 447/1/146 448/1/146 430/1/97 429/1/97
f 429/1/112 431/1/112 433/1/112 435/1/112 437/1/112 439/1/112 441/1/112 443/1/112 445/1/112 447/1/112
f 449/1/97 450/1/97 452/1/139 451/1/139
f 451/1/139 452/1/139 454/1/140 453/1/140
f 453/1/140 454/1/140 456/1/141 455/1/141
f 455/1/141 456/1/141 458/1/142 457/1/142
f 457/1/142 458/1/142 460/1/104 459/1/104
f 459/1/104 460/1/104 462/1/143 461/1/143
f 461/1/143 462/1/143 464/1/144 463/1/144
f 463/1/144 464/1/144 466/1/145 465/1/145
f 452/1/110 450/1/110 468/1/110 466/1/110 464/1/110 462/1/110 460/1/110 458/1/110 456/1/110 454/1/110
f 465/1/145 466/1/145 468/1/146 467/1/146
f 467/1/146 468/1/146 450/1/97 449/1/97
f 449/1/112 451/1/112 453/1/112 455/1/112 457/1/112 459/1/112 461/1/112 463/1/112 465/1/112 467/1/112
usemtl teal
f 173/1/97 174/1/97 176/1/139 175/1/139
f 175/1/139 176/1/139 178/1/140 177/1/140
f 177/1/140 178/1/140 180/1/141 179/1/141
f 179/1/141 180/1/141 182/1/142 181/1/142
f 181/1/142 182/1/142 184/1/104 183/1/104
f 183/1/104 184/1/104 186/1/143 185/1/143
f 185/1/143 186/1/143 188/1/144 187/1/144
f 187/1/144 188/1/144 190/1/145 189/1/145
f 176/1/110 174/1/110 192/1/110 190/1/110 188/1/110 186/1/110 184/1/110 182/1/110 180/1/110 178/1/110
f 189/1/145 190/1/145 192/1/146 191/1/146
f 191/1/146 192/1/146 174/1/97 173/1/97
f 173/1/112 175/1/112 177/1/112 179/1/112 181/1/112 183/1/112 185/1/112 187/1/112 189/1/112 191/1/112
f 265/1/113 266/1/114 267/1/115
f 268/1/116 269/1/117 270/1/118
f 271/1/119 272/1/120 273/1/121
f 274/1/122 275/1/123 276/1/124
f 277/1/125 278/1/126 279/1/127
f 280/1/128 281/1/129 282/1/130
f 283/1/131 284/1/147 285/1/133
f 286/1/134 287/1/135 288/1/136
f 271/1/119 265/1/113 267/1/115 272/1/120
f 266/1/114 268/1/116 270/1/118 267/1/115
f 269/1/117 274/1/122 276/1/124 270/1/118
f 275/1/123 273/1/121 272/1/120 276/1/124
f 283/1/131 271/1/119 273/1/121 284/1/147
f 274/1/122 286/1/134 288/1/136 275/1/123
f 287/1/135 285/1/133 284/1/147 288/1/136
f 277/1/125 283/1/131 285/1/133 278/1/126
f 286/1/134 280/1/128 282/1/130 287/1/135
f 281/1/129 279/1/127 278/1/126 282/1/130
f 265/1/113 277/1/125 279/1/127 266/1/114
f 280/1/128 269/1/117 268/1/116 281/1/129
f 271/1/104 283/1/104 277/1/104 265/1/104
f 267/1/137 270/1/137 276/1/137 272/1/137
f 279/1/110 281/1/110 268/1/110 266/1/110
f 286/1/97 274/1/97 269/1/97 280/1/97
f 273/1/112 275/1/112 288/1/112 284/1/112
f 285/1/138 287/1/138 282/1/138 278/1/138
usemtl ketchup
f 193/1/113 194/1/114 195/1/115
f 196/1/116 197/1/117 198/1/118
f 199/1/119 200/1/120 201/1/121
f 202/1/122 203/1/123 204/1/124
f 205/1/125 206/1/126 207/1/127
f 208/1/128 209/1/129 210/1/130
f 211/1/131 212/1/147 213/1/133
f 214/1/134 215/1/135 216/1/136
f 199/1/119 193/1/113 195/1/115 200/1/120
f 194/1/114 196/1/116 198/1/118 195/1/115
f 197/1/117 202/1/122 204/1/124 198/1/118
f 203/1/123 201/1/121 200/1/120 204/1/124
f 211/1/131 199/1/119 201/1/121 212/1/147
f 202/1/122 214/1/134 216/1/136 203/1/123
f 215/1/135 213/1/133 212/1/147 216/1/136
f 205/1/125 211/1/131 213/1/133 206/1/126
f 214/1/134 208/1/128 210/1/130 215/1/135
f 209/1/129 207/1/127 206/1/126 210/1/130
f 193/1/113 205/1/125 207/1/127 194/1/114
f 208/1/128 197/1/117 196/1/116 209/1/129
f 199/1/104 211/1/104 205/1/104 193/1/104
f 195/1/137 198/1/137 204/1/137 200/1/137
f 207/1/110 209/1/110 196/1/110 194/1/110
f 214/1/97 202/1/97 197/1/97 208/1/97
f 201/1/112 203/1/112 216/1/112 212/1/112
f 213/1/138 215/1/138 210/1/138 206/1/138
f 550/1/112 549/1/165 504/1/166 505/1/149
f 548/1/167 501/1/97 503/1/168
f 502/1/104 552/1/169 507/1/170
f 551/1/171 550/1/112 505/1/149 506/1/172
f 549/1/165 548/1/167 503/1/168 504/1/166
f 552/1/169 551/1/171 506/1/172 507/1/170
f 502/1/104 507/1/170 512/1/173
f 506/1/172 505/1/149 510/1/150 511/1/174
f 504/1/166 503/1/168 508/1/175 509/1/176
f 507/1/170 506/1/172 511/1/174 512/1/173
f 505/1/149 504/1/166 509/1/176 510/1/150
f 503/1/168 501/1/97 508/1/175
f 502/1/104 512/1/173 517/1/177
f 511/1/174 510/1/150 515/1/151 516/1/178
f 509/1/176 508/1/175 513/1/179 514/1/180
f 512/1/173 511/1/174 516/1/178 517/1/177
f 510/1/150 509/1/176 514/1/180 515/1/151
f 508/1/175 501/1/97 513/1/179
f 516/1/178 515/1/151 520/1/152 521/1/181
f 514/1/180 513/1/179 518/1/182 519/1/183
f 517/1/177 516/1/178 521/1/181 522/1/184
f 515/1/151 514/1/180 519/1/183 520/1/152
f 513/1/179 501/1/97 518/1/182
f 502/1/104 517/1/177 522/1/184
f 519/1/183 518/1/182 523/1/185 524/1/186
f 522/1/184 521/1/181 526/1/187 527/1/188
f 520/1/152 519/1/183 524/1/186 525/1/110
f 518/1/182 501/1/97 523/1/185
f 502/1/104 522/1/184 527/1/188
f 521/1/181 520/1/152 525/1/110 526/1/187
f 527/1/188 526/1/187 531/1/189 532/1/190
f 525/1/110 524/1/186 529/1/191 530/1/153
f 523/1/185 501/1/97 528/1/192
f 502/1/104 527/1/188 532/1/190
f 526/1/187 525/1/110 530/1/153 531/1/189
f 524/1/186 523/1/185 528/1/192 529/1/191
f 532/1/190 531/1/189 536/1/193 537/1/194
f 530/1/153 529/1/191 534/1/195 535/1/154
f 528/1/192 501/1/97 533/1/196
f 502/1/104 532/1/190 537/1/194
f 531/1/189 530/1/153 535/1/154 536/1/193
f 529/1/191 528/1/192 533/1/196 534/1/195
f 537/1/194 536/1/193 541/1/197 542/1/198
f 535/1/154 534/1/195 539/1/199 540/1/155
f 533/1/196 501/1/97 538/1/200
f 502/1/104 537/1/194 542/1/198
f 536/1/193 535/1/154 540/1/155 541/1/197
f 534/1/195 533/1/196 538/1/200 539/1/199
f 542/1/198 541/1/197 546/1/201 547/1/202
f 540/1/155 539/1/199 544/1/203 545/1/156
f 538/1/200 501/1/97 543/1/204
f 502/1/104 542/1/198 547/1/202
f 541/1/197 540/1/155 545/1/156 546/1/201
f 539/1/199 538/1/200 543/1/204 544/1/203
f 545/1/156 544/1/203 549/1/165 550/1/112
f 543/1/204 501/1/97 548/1/167
f 502/1/104 547/1/202 552/1/169
f 546/1/201 545/1/156 550/1/112 551/1/171
f 544/1/203 543/1/204 548/1/167 549/1/165
f 547/1/202 546/1/201 551/1/171 552/1/169
usemtl relish
f 217/1/113 218/1/114 219/1/115
f 220/1/148 221/1/117 222/1/118
f 223/1/119 224/1/120 225/1/121
f 226/1/122 227/1/123 228/1/124
f 229/1/125 230/1/126 231/1/127
f 232/1/128 233/1/129 234/1/130
f 235/1/131 236/1/147 237/1/133
f 238/1/134 239/1/135 240/1/136
f 223/1/119 217/1/113 219/1/115 224/1/120
f 218/1/114 220/1/148 222/1/118 219/1/115
f 221/1/117 226/1/122 228/1/124 222/1/118
f 227/1/123 225/1/121 224/1/120 228/1/124
f 235/1/131 223/1/119 225/1/121 236/1/147
f 226/1/122 238/1/134 240/1/136 227/1/123
f 239/1/135 237/1/133 236/1/147 240/1/136
f 229/1/125 235/1/131 237/1/133 230/1/126
f 238/1/134 232/1/128 234/1/130 239/1/135
f 233/1/129 231/1/127 230/1/126 234/1/130
f 217/1/113 229/1/125 231/1/127 218/1/114
f 232/1/128 221/1/117 220/1/148 233/1/129
f 223/1/104 235/1/104 229/1/104 217/1/104
f 219/1/137 222/1/137 228/1/137 224/1/137
f 231/1/110 233/1/110 220/1/110 218/1/110
f 238/1/97 226/1/97 221/1/97 232/1/97
f 225/1/112 227/1/112 240/1/112 236/1/112
f 237/1/138 239/1/138 234/1/138 230/1/138
usemtl mustard
f 241/1/113 242/1/114 243/1/115
f 244/1/116 245/1/117 246/1/118
f 247/1/119 248/1/120 249/1/121
f 250/1/122 251/1/123 252/1/124
f 253/1/125 254/1/126 255/1/127
f 256/1/128 257/1/129 258/1/130
f 259/1/131 260/1/147 261/1/133
f 262/1/134 263/1/135 264/1/136
f 247/1/119 241/1/113 243/1/115 248/1/120
f 242/1/114 244/1/116 246/1/118 243/1/115
f 245/1/117 250/1/122 252/1/124 246/1/118
f 251/1/123 249/1/121 248/1/120 252/1/124
f 259/1/131 247/1/119 249/1/121 260/1/147
f 250/1/122 262/1/134 264/1/136 251/1/123
f 263/1/135 261/1/133 260/1/147 264/1/136
f 253/1/125 259/1/131 261/1/133 254/1/126
f 262/1/134 256/1/128 258/1/130 263/1/135
f 257/1/129 255/1/127 254/1/126 258/1/130
f 241/1/113 253/1/125 255/1/127 242/1/114
f 256/1/128 245/1/117 244/1/116 257/1/129
f 247/1/104 259/1/104 253/1/104 241/1/104
f 243/1/137 246/1/137 252/1/137 248/1/137
f 255/1/110 257/1/110 244/1/110 242/1/110
f 262/1/97 250/1/97 245/1/97 256/1/97
f 249/1/112 251/1/112 264/1/112 260/1/112
f 261/1/138 263/1/138 258/1/138 254/1/138
usemtl chrome
f 469/1/112 470/1/112 472/1/149 471/1/149
f 471/1/149 472/1/149 474/1/150 473/1/150
f 473/1/150 474/1/150 476/1/151 475/1/151
f 475/1/151 476/1/151 478/1/152 477/1/152
f 477/1/152 478/1/152 480/1/110 479/1/110
f 479/1/110 480/1/110 482/1/153 481/1/153
f 481/1/153 482/1/153 484/1/154 483/1/154
f 483/1/154 484/1/154 486/1/155 485/1/155
f 472/1/97 470/1/97 488/1/97 486/1/97 484/1/97 482/1/97 480/1/97 478/1/97 476/1/97 474/1/97
f 485/1/155 486/1/155 488/1/156 487/1/156
f 487/1/156 488/1/156 470/1/112 469/1/112
f 469/1/104 471/1/104 473/1/104 475/1/104 477/1/104 479/1/104 481/1/104 483/1/104 485/1/104 487/1/104
f 494/2/157 492/3/157 493/4/157
f 494/2/157 491/5/157 492/3/157
f 494/2/157 490/6/157 491/5/157
f 489/1/157 490/6/157 494/2/157
f 497/5/158 499/4/158 498/3/158
f 497/5/158 500/2/158 499/4/158
f 496/6/158 500/2/158 497/5/158
f 496/6/158 495/1/158 500/2/158
f 495/7/159 489/8/159 494/9/159 500/10/159
f 496/11/160 490/12/160 489/2/160 495/1/160
f 497/13/161 491/14/161 490/12/161 496/11/161
f 498/15/162 492/16/162 491/14/162 497/13/162
f 499/17/163 493/18/163 492/16/163 498/15/163
f 500/10/164 494/9/164 493/18/164 499/17/164
