# Blender 5.0.1
# www.blender.org
mtllib Sneaker.mtl
o Sneaker
v -1.432723 0.036858 0.450000 1.0000 1.0000 1.0000
v -1.348937 0.000000 0.450000 1.0000 1.0000 1.0000
v -1.376942 0.050000 0.500000 1.0000 1.0000 1.0000
v -1.395385 0.008074 0.450000 1.0000 1.0000 1.0000
v -1.390862 0.018355 0.478868 1.0000 1.0000 1.0000
v -1.355942 0.017367 0.485355 1.0000 1.0000 1.0000
v -1.415188 0.043429 0.485355 1.0000 1.0000 1.0000
v 1.351063 0.000000 0.450000 1.0000 1.0000 1.0000
v 1.338314 0.050000 0.500000 1.0000 1.0000 1.0000
v 1.347329 0.014645 0.485355 1.0000 1.0000 1.0000
v 1.527169 0.096057 0.450000 1.0000 1.0000 1.0000
v 1.558937 0.168507 0.450000 1.0000 1.0000 1.0000
v 1.513179 0.145381 0.500000 1.0000 1.0000 1.0000
v 1.555041 0.127026 0.450000 1.0000 1.0000 1.0000
v 1.546992 0.130555 0.478868 1.0000 1.0000 1.0000
v 1.545149 0.161903 0.485355 1.0000 1.0000 1.0000
v 1.522685 0.110673 0.485355 1.0000 1.0000 1.0000
v 1.533190 0.271493 0.450000 1.0000 1.0000 1.0000
v 1.471063 0.320000 0.450000 1.0000 1.0000 1.0000
v 1.482025 0.270000 0.500000 1.0000 1.0000 1.0000
v 1.510212 0.306102 0.450000 1.0000 1.0000 1.0000
v 1.504810 0.299183 0.478868 1.0000 1.0000 1.0000
v 1.474032 0.305046 0.485355 1.0000 1.0000 1.0000
v 1.517963 0.270746 0.485355 1.0000 1.0000 1.0000
v -1.398937 0.320000 0.450000 1.0000 1.0000 1.0000
v -1.463304 0.272109 0.450000 1.0000 1.0000 1.0000
v -1.411735 0.270000 0.500000 1.0000 1.0000 1.0000
v -1.438825 0.306410 0.450000 1.0000 1.0000 1.0000
v -1.433545 0.299313 0.478868 1.0000 1.0000 1.0000
v -1.447875 0.271054 0.485355 1.0000 1.0000 1.0000
v -1.402360 0.304919 0.485355 1.0000 1.0000 1.0000
v -1.475150 0.083142 0.450000 1.0000 1.0000 1.0000
v -1.452882 0.132844 0.500000 1.0000 1.0000 1.0000
v -1.494569 0.167891 0.450000 1.0000 1.0000 1.0000
v -1.466992 0.098074 0.485355 1.0000 1.0000 1.0000
v -1.486915 0.125046 0.478868 1.0000 1.0000 1.0000
v -1.480723 0.158001 0.485355 1.0000 1.0000 1.0000
v -1.496469 0.122857 0.450000 1.0000 1.0000 1.0000
v -1.432723 0.036858 -0.450000 1.0000 1.0000 1.0000
v -1.376942 0.050000 -0.500000 1.0000 1.0000 1.0000
v -1.348937 0.000000 -0.450000 1.0000 1.0000 1.0000
v -1.415188 0.043429 -0.485355 1.0000 1.0000 1.0000
v -1.390862 0.018355 -0.478868 1.0000 1.0000 1.0000
v -1.355942 0.017367 -0.485355 1.0000 1.0000 1.0000
v -1.395385 0.008074 -0.450000 1.0000 1.0000 1.0000
v 1.351063 0.000000 -0.450000 1.0000 1.0000 1.0000
v 1.338314 0.050000 -0.500000 1.0000 1.0000 1.0000
v 1.347329 0.014645 -0.485355 1.0000 1.0000 1.0000
v 1.558937 0.168507 -0.450000 1.0000 1.0000 1.0000
v 1.527169 0.096057 -0.450000 1.0000 1.0000 1.0000
v 1.513179 0.145381 -0.500000 1.0000 1.0000 1.0000
v 1.555041 0.127026 -0.450000 1.0000 1.0000 1.0000
v 1.546992 0.130555 -0.478868 1.0000 1.0000 1.0000
v 1.522685 0.110673 -0.485355 1.0000 1.0000 1.0000
v 1.545149 0.161903 -0.485355 1.0000 1.0000 1.0000
v 1.471063 0.320000 -0.450000 1.0000 1.0000 1.0000
v 1.533190 0.271493 -0.450000 1.0000 1.0000 1.0000
v 1.482025 0.270000 -0.500000 1.0000 1.0000 1.0000
v 1.510212 0.306102 -0.450000 1.0000 1.0000 1.0000
v 1.504810 0.299183 -0.478868 1.0000 1.0000 1.0000
v 1.517963 0.270746 -0.485355 1.0000 1.0000 1.0000
v 1.474032 0.305046 -0.485355 1.0000 1.0000 1.0000
v -1.463304 0.272109 -0.450000 1.0000 1.0000 1.0000
v -1.398937 0.320000 -0.450000 1.0000 1.0000 1.0000
v -1.411735 0.270000 -0.500000 1.0000 1.0000 1.0000
v -1.438825 0.306410 -0.450000 1.0000 1.0000 1.0000
v -1.433545 0.299313 -0.478868 1.0000 1.0000 1.0000
v -1.402360 0.304919 -0.485355 1.0000 1.0000 1.0000
v -1.447875 0.271054 -0.485355 1.0000 1.0000 1.0000
v -1.475150 0.083142 -0.450000 1.0000 1.0000 1.0000
v -1.494569 0.167891 -0.450000 1.0000 1.0000 1.0000
v -1.452882 0.132844 -0.500000 1.0000 1.0000 1.0000
v -1.496469 0.122857 -0.450000 1.0000 1.0000 1.0000
v -1.486915 0.125046 -0.478868 1.0000 1.0000 1.0000
v -1.480723 0.158001 -0.485355 1.0000 1.0000 1.0000
v -1.466992 0.098074 -0.485355 1.0000 1.0000 1.0000
v -1.408937 0.085000 0.495000 0.2471 0.7137 0.7882
v -1.408937 0.105000 0.515000 0.2471 0.7137 0.7882
v -1.428937 0.105000 0.495000 0.2471 0.7137 0.7882
v -1.408937 0.155000 0.515000 0.2471 0.7137 0.7882
v -1.408937 0.175000 0.495000 0.2471 0.7137 0.7882
v -1.428937 0.155000 0.495000 0.2471 0.7137 0.7882
v -1.408937 0.085000 -0.495000 0.2471 0.7137 0.7882
v -1.428937 0.105000 -0.495000 0.2471 0.7137 0.7882
v -1.408937 0.105000 -0.515000 0.2471 0.7137 0.7882
v -1.408937 0.175000 -0.495000 0.2471 0.7137 0.7882
v -1.408937 0.155000 -0.515000 0.2471 0.7137 0.7882
v -1.428937 0.155000 -0.495000 0.2471 0.7137 0.7882
v 1.511063 0.085000 0.495000 0.2471 0.7137 0.7882
v 1.531063 0.105000 0.495000 0.2471 0.7137 0.7882
v 1.511063 0.105000 0.515000 0.2471 0.7137 0.7882
v 1.511063 0.175000 0.495000 0.2471 0.7137 0.7882
v 1.511063 0.155000 0.515000 0.2471 0.7137 0.7882
v 1.531063 0.155000 0.495000 0.2471 0.7137 0.7882
v 1.511063 0.085000 -0.495000 0.2471 0.7137 0.7882
v 1.511063 0.105000 -0.515000 0.2471 0.7137 0.7882
v 1.531063 0.105000 -0.495000 0.2471 0.7137 0.7882
v 1.511063 0.175000 -0.495000 0.2471 0.7137 0.7882
v 1.531063 0.155000 -0.495000 0.2471 0.7137 0.7882
v 1.511063 0.155000 -0.515000 0.2471 0.7137 0.7882
v -1.405359 0.389910 0.369861 0.8470 0.2275 0.1804
v -1.308798 0.300000 0.369861 0.8470 0.2275 0.1804
v -1.315007 0.390139 0.460000 0.8470 0.2275 0.1804
v -1.374461 0.326286 0.369861 0.8470 0.2275 0.1804
v -1.363509 0.338049 0.421903 0.8470 0.2275 0.1804
v -1.310572 0.326448 0.433599 0.8470 0.2275 0.1804
v -1.378851 0.390024 0.433599 0.8470 0.2275 0.1804
v 1.310925 0.300000 0.369861 0.8470 0.2275 0.1804
v 1.352823 0.390139 0.460000 0.8470 0.2275 0.1804
v 1.390985 0.318832 0.369861 0.8470 0.2275 0.1804
v 1.382387 0.334898 0.421903 0.8470 0.2275 0.1804
v 1.420611 0.382569 0.433599 0.8470 0.2275 0.1804
v 1.321518 0.329536 0.433599 0.8470 0.2275 0.1804
v 1.451064 0.375000 0.369861 0.8470 0.2275 0.1804
v 1.437326 0.513738 0.369861 0.8470 0.2275 0.1804
v 1.385073 0.438515 0.460000 0.8470 0.2275 0.1804
v 1.468217 0.446748 0.369861 0.8470 0.2275 0.1804
v 1.452516 0.445193 0.421903 0.8470 0.2275 0.1804
v 1.421555 0.491659 0.433599 0.8470 0.2275 0.1804
v 1.431269 0.393557 0.433599 0.8470 0.2275 0.1804
v 1.314801 0.636262 0.369861 0.8470 0.2275 0.1804
v 1.162926 0.718887 0.369861 0.8470 0.2275 0.1804
v 1.206148 0.617440 0.460000 0.8470 0.2275 0.1804
v 1.243917 0.686863 0.369861 0.8470 0.2275 0.1804
v 1.238038 0.676058 0.421904 0.8470 0.2275 0.1804
v 1.188449 0.686417 0.433599 0.8470 0.2275 0.1804
v 1.273675 0.640051 0.433599 0.8470 0.2275 0.1804
v 0.551063 0.850000 0.369861 0.8470 0.2275 0.1804
v 0.527296 0.762908 0.460000 0.8470 0.2275 0.1804
v 0.544102 0.824491 0.433599 0.8470 0.2275 0.1804
v -0.048937 1.050000 0.369861 0.8470 0.2275 0.1804
v -0.084873 0.966964 0.460000 0.8470 0.2275 0.1804
v -0.059462 1.025679 0.433599 0.8470 0.2275 0.1804
v -0.548937 1.320000 0.369861 0.8470 0.2275 0.1804
v -0.571719 1.229861 0.460000 0.8470 0.2275 0.1804
v -0.555609 1.293599 0.433599 0.8470 0.2275 0.1804
v -1.158798 1.320000 0.369861 0.8470 0.2275 0.1804
v -1.296710 1.243563 0.369861 0.8470 0.2275 0.1804
v -1.198977 1.229861 0.460000 0.8470 0.2275 0.1804
v -1.238101 1.300450 0.369861 0.8470 0.2275 0.1804
v -1.229426 1.284798 0.421903 0.8470 0.2275 0.1804
v -1.266512 1.236712 0.433599 0.8470 0.2275 0.1804
v -1.168993 1.290761 0.433599 0.8470 0.2275 0.1804
v -1.442514 0.910090 0.369861 0.8470 0.2275 0.1804
v -1.356935 0.977130 0.460000 0.8470 0.2275 0.1804
v -1.401163 1.076437 0.369861 0.8470 0.2275 0.1804
v -1.418345 0.942280 0.433599 0.8470 0.2275 0.1804
v -1.421241 0.993115 0.421904 0.8470 0.2275 0.1804
v -1.394880 1.036678 0.433599 0.8470 0.2275 0.1804
v -1.433063 0.996054 0.369861 0.8470 0.2275 0.1804
v -1.405359 0.389910 -0.369861 0.8470 0.2275 0.1804
v -1.315007 0.390139 -0.460000 0.8470 0.2275 0.1804
v -1.308798 0.300000 -0.369861 0.8470 0.2275 0.1804
v -1.378851 0.390024 -0.433599 0.8470 0.2275 0.1804
v -1.363509 0.338049 -0.421903 0.8470 0.2275 0.1804
v -1.310572 0.326449 -0.433599 0.8470 0.2275 0.1804
v -1.374461 0.326287 -0.369861 0.8470 0.2275 0.1804
v 1.310925 0.300000 -0.369861 0.8470 0.2275 0.1804
v 1.352823 0.390139 -0.460000 0.8470 0.2275 0.1804
v 1.390985 0.318832 -0.369861 0.8470 0.2275 0.1804
v 1.382387 0.334898 -0.421903 0.8470 0.2275 0.1804
v 1.321518 0.329536 -0.433599 0.8470 0.2275 0.1804
v 1.420611 0.382569 -0.433599 0.8470 0.2275 0.1804
v 1.437326 0.513738 -0.369861 0.8470 0.2275 0.1804
v 1.451064 0.375000 -0.369861 0.8470 0.2275 0.1804
v 1.385073 0.438515 -0.460000 0.8470 0.2275 0.1804
v 1.468217 0.446748 -0.369861 0.8470 0.2275 0.1804
v 1.452516 0.445193 -0.421903 0.8470 0.2275 0.1804
v 1.431269 0.393557 -0.433599 0.8470 0.2275 0.1804
v 1.421555 0.491659 -0.433599 0.8470 0.2275 0.1804
v 1.162926 0.718887 -0.369861 0.8470 0.2275 0.1804
v 1.314801 0.636262 -0.369861 0.8470 0.2275 0.1804
v 1.206148 0.617440 -0.460000 0.8470 0.2275 0.1804
v 1.243917 0.686863 -0.369861 0.8470 0.2275 0.1804
v 1.238038 0.676058 -0.421904 0.8470 0.2275 0.1804
v 1.273675 0.640051 -0.433599 0.8470 0.2275 0.1804
v 1.188449 0.686417 -0.433599 0.8470 0.2275 0.1804
v 0.551063 0.850000 -0.369861 0.8470 0.2275 0.1804
v 0.527296 0.762908 -0.460000 0.8470 0.2275 0.1804
v 0.544102 0.824491 -0.433599 0.8470 0.2275 0.1804
v -0.048937 1.050000 -0.369861 0.8470 0.2275 0.1804
v -0.084873 0.966964 -0.460000 0.8470 0.2275 0.1804
v -0.059462 1.025679 -0.433599 0.8470 0.2275 0.1804
v -0.548937 1.320000 -0.369861 0.8470 0.2275 0.1804
v -0.571719 1.229861 -0.460000 0.8470 0.2275 0.1804
v -0.555609 1.293599 -0.433599 0.8470 0.2275 0.1804
v -1.296710 1.243563 -0.369861 0.8470 0.2275 0.1804
v -1.158798 1.320000 -0.369861 0.8470 0.2275 0.1804
v -1.198977 1.229861 -0.460000 0.8470 0.2275 0.1804
v -1.238101 1.300450 -0.369861 0.8470 0.2275 0.1804
v -1.229426 1.284798 -0.421903 0.8470 0.2275 0.1804
v -1.168993 1.290761 -0.433599 0.8470 0.2275 0.1804
v -1.266512 1.236712 -0.433599 0.8470 0.2275 0.1804
v -1.442514 0.910090 -0.369861 0.8470 0.2275 0.1804
v -1.401163 1.076437 -0.369861 0.8470 0.2275 0.1804
v -1.356935 0.977130 -0.460000 0.8470 0.2275 0.1804
v -1.433063 0.996054 -0.369861 0.8470 0.2275 0.1804
v -1.421241 0.993115 -0.421904 0.8470 0.2275 0.1804
v -1.394880 1.036678 -0.433599 0.8470 0.2275 0.1804
v -1.418345 0.942280 -0.433599 0.8470 0.2275 0.1804
v 0.801063 0.380000 0.400000 1.0000 1.0000 1.0000
v 0.881063 0.300000 0.400000 1.0000 1.0000 1.0000
v 0.881063 0.380000 0.480000 1.0000 1.0000 1.0000
v 0.824495 0.323431 0.400000 1.0000 1.0000 1.0000
v 0.834875 0.333812 0.446188 1.0000 1.0000 1.0000
v 0.881063 0.323431 0.456569 1.0000 1.0000 1.0000
v 0.824495 0.380000 0.456569 1.0000 1.0000 1.0000
v 1.351063 0.300000 0.400000 1.0000 1.0000 1.0000
v 1.472223 0.368599 0.400000 1.0000 1.0000 1.0000
v 1.385768 0.380000 0.480000 1.0000 1.0000 1.0000
v 1.421024 0.317731 0.400000 1.0000 1.0000 1.0000
v 1.413283 0.331403 0.446188 1.0000 1.0000 1.0000
v 1.445564 0.374300 0.456569 1.0000 1.0000 1.0000
v 1.359891 0.325793 0.456569 1.0000 1.0000 1.0000
v 1.479904 0.381401 0.400000 1.0000 1.0000 1.0000
v 1.461985 0.503942 0.400000 1.0000 1.0000 1.0000
v 1.418795 0.435045 0.480000 1.0000 1.0000 1.0000
v 1.492125 0.445768 0.400000 1.0000 1.0000 1.0000
v 1.478269 0.443742 0.446188 1.0000 1.0000 1.0000
v 1.448915 0.483701 0.456569 1.0000 1.0000 1.0000
v 1.461585 0.397051 0.456569 1.0000 1.0000 1.0000
v 1.350142 0.606058 0.400000 1.0000 1.0000 1.0000
v 1.211063 0.660000 0.400000 1.0000 1.0000 1.0000
v 1.260036 0.580000 0.480000 1.0000 1.0000 1.0000
v 1.284936 0.644201 0.400000 1.0000 1.0000 1.0000
v 1.281071 0.634237 0.446189 1.0000 1.0000 1.0000
v 1.235549 0.636568 0.456569 1.0000 1.0000 1.0000
v 1.316261 0.605265 0.456569 1.0000 1.0000 1.0000
v 0.801063 0.580000 0.400000 1.0000 1.0000 1.0000
v 0.881063 0.580000 0.480000 1.0000 1.0000 1.0000
v 0.881063 0.660000 0.400000 1.0000 1.0000 1.0000
v 0.824495 0.580000 0.456569 1.0000 1.0000 1.0000
v 0.834875 0.626188 0.446188 1.0000 1.0000 1.0000
v 0.881063 0.636569 0.456569 1.0000 1.0000 1.0000
v 0.824495 0.636569 0.400000 1.0000 1.0000 1.0000
v 0.801063 0.380000 -0.400000 1.0000 1.0000 1.0000
v 0.881063 0.380000 -0.480000 1.0000 1.0000 1.0000
v 0.881063 0.300000 -0.400000 1.0000 1.0000 1.0000
v 0.824495 0.380000 -0.456569 1.0000 1.0000 1.0000
v 0.834875 0.333812 -0.446188 1.0000 1.0000 1.0000
v 0.881063 0.323431 -0.456569 1.0000 1.0000 1.0000
v 0.824495 0.323431 -0.400000 1.0000 1.0000 1.0000
v 1.472223 0.368599 -0.400000 1.0000 1.0000 1.0000
v 1.351063 0.300000 -0.400000 1.0000 1.0000 1.0000
v 1.385768 0.380000 -0.480000 1.0000 1.0000 1.0000
v 1.421024 0.317731 -0.400000 1.0000 1.0000 1.0000
v 1.413283 0.331403 -0.446188 1.0000 1.0000 1.0000
v 1.359891 0.325793 -0.456569 1.0000 1.0000 1.0000
v 1.445564 0.374300 -0.456569 1.0000 1.0000 1.0000
v 1.461985 0.503942 -0.400000 1.0000 1.0000 1.0000
v 1.479904 0.381401 -0.400000 1.0000 1.0000 1.0000
v 1.418795 0.435045 -0.480000 1.0000 1.0000 1.0000
v 1.492125 0.445768 -0.400000 1.0000 1.0000 1.0000
v 1.478269 0.443742 -0.446188 1.0000 1.0000 1.0000
v 1.461585 0.397051 -0.456569 1.0000 1.0000 1.0000
v 1.448915 0.483701 -0.456569 1.0000 1.0000 1.0000
v 1.211063 0.660000 -0.400000 1.0000 1.0000 1.0000
v 1.350142 0.606058 -0.400000 1.0000 1.0000 1.0000
v 1.260036 0.580000 -0.480000 1.0000 1.0000 1.0000
v 1.284936 0.644201 -0.400000 1.0000 1.0000 1.0000
v 1.281071 0.634237 -0.446189 1.0000 1.0000 1.0000
v 1.316261 0.605265 -0.456569 1.0000 1.0000 1.0000
v 1.235549 0.636568 -0.456569 1.0000 1.0000 1.0000
v 0.801063 0.580000 -0.400000 1.0000 1.0000 1.0000
v 0.881063 0.660000 -0.400000 1.0000 1.0000 1.0000
v 0.881063 0.580000 -0.480000 1.0000 1.0000 1.0000
v 0.824495 0.636569 -0.400000 1.0000 1.0000 1.0000
v 0.834875 0.626188 -0.446188 1.0000 1.0000 1.0000
v 0.881063 0.636569 -0.456569 1.0000 1.0000 1.0000
v 0.824495 0.580000 -0.456569 1.0000 1.0000 1.0000
v -1.498937 0.845000 0.190000 0.9490 0.7608 0.1882
v -1.498937 0.905000 0.250000 0.9490 0.7608 0.1882
v -1.558937 0.905000 0.190000 0.9490 0.7608 0.1882
v -1.498937 1.335000 0.250000 0.9490 0.7608 0.1882
v -1.498937 1.395000 0.190000 0.9490 0.7608 0.1882
v -1.558937 1.335000 0.190000 0.9490 0.7608 0.1882
v -1.498937 0.845000 -0.190000 0.9490 0.7608 0.1882
v -1.558937 0.905000 -0.190000 0.9490 0.7608 0.1882
v -1.498937 0.905000 -0.250000 0.9490 0.7608 0.1882
v -1.498937 1.395000 -0.190000 0.9490 0.7608 0.1882
v -1.498937 1.335000 -0.250000 0.9490 0.7608 0.1882
v -1.558937 1.335000 -0.190000 0.9490 0.7608 0.1882
v -1.398937 0.845000 0.190000 0.9490 0.7608 0.1882
v -1.338937 0.905000 0.190000 0.9490 0.7608 0.1882
v -1.398937 0.905000 0.250000 0.9490 0.7608 0.1882
v -1.398937 1.395000 0.190000 0.9490 0.7608 0.1882
v -1.398937 1.335000 0.250000 0.9490 0.7608 0.1882
v -1.338937 1.335000 0.190000 0.9490 0.7608 0.1882
v -1.398937 0.845000 -0.190000 0.9490 0.7608 0.1882
v -1.398937 0.905000 -0.250000 0.9490 0.7608 0.1882
v -1.338937 0.905000 -0.190000 0.9490 0.7608 0.1882
v -1.398937 1.395000 -0.190000 0.9490 0.7608 0.1882
v -1.338937 1.335000 -0.190000 0.9490 0.7608 0.1882
v -1.398937 1.335000 -0.250000 0.9490 0.7608 0.1882
v -1.253937 1.315000 0.290000 0.2039 0.2196 0.2471
v -1.253937 1.335000 0.310000 0.2039 0.2196 0.2471
v -1.273937 1.335000 0.290000 0.2039 0.2196 0.2471
v -1.253937 1.345000 0.310000 0.2039 0.2196 0.2471
v -1.253937 1.365000 0.290000 0.2039 0.2196 0.2471
v -1.273937 1.345000 0.290000 0.2039 0.2196 0.2471
v -1.253937 1.315000 -0.290000 0.2039 0.2196 0.2471
v -1.273937 1.335000 -0.290000 0.2039 0.2196 0.2471
v -1.253937 1.335000 -0.310000 0.2039 0.2196 0.2471
v -1.253937 1.365000 -0.290000 0.2039 0.2196 0.2471
v -1.253937 1.345000 -0.310000 0.2039 0.2196 0.2471
v -1.273937 1.345000 -0.290000 0.2039 0.2196 0.2471
v -0.543937 1.315000 0.290000 0.2039 0.2196 0.2471
v -0.523937 1.335000 0.290000 0.2039 0.2196 0.2471
v -0.543937 1.335000 0.310000 0.2039 0.2196 0.2471
v -0.543937 1.365000 0.290000 0.2039 0.2196 0.2471
v -0.543937 1.345000 0.310000 0.2039 0.2196 0.2471
v -0.523937 1.345000 0.290000 0.2039 0.2196 0.2471
v -0.543937 1.315000 -0.290000 0.2039 0.2196 0.2471
v -0.543937 1.335000 -0.310000 0.2039 0.2196 0.2471
v -0.523937 1.335000 -0.290000 0.2039 0.2196 0.2471
v -0.543937 1.365000 -0.290000 0.2039 0.2196 0.2471
v -0.523937 1.345000 -0.290000 0.2039 0.2196 0.2471
v -0.543937 1.345000 -0.310000 0.2039 0.2196 0.2471
v -0.525284 1.164866 0.260000 1.0000 1.0000 1.0000
v -0.548758 1.209013 0.310000 1.0000 1.0000 1.0000
v -0.592905 1.185539 0.260000 1.0000 1.0000 1.0000
v -0.558147 1.226672 0.310000 1.0000 1.0000 1.0000
v -0.581621 1.270819 0.260000 1.0000 1.0000 1.0000
v -0.602294 1.203198 0.260000 1.0000 1.0000 1.0000
v -0.525284 1.164866 -0.260000 1.0000 1.0000 1.0000
v -0.592905 1.185539 -0.260000 1.0000 1.0000 1.0000
v -0.548758 1.209013 -0.310000 1.0000 1.0000 1.0000
v -0.581621 1.270819 -0.260000 1.0000 1.0000 1.0000
v -0.558147 1.226672 -0.310000 1.0000 1.0000 1.0000
v -0.602294 1.203198 -0.260000 1.0000 1.0000 1.0000
v -0.216252 1.329181 0.260000 1.0000 1.0000 1.0000
v -0.195579 1.396802 0.260000 1.0000 1.0000 1.0000
v -0.239726 1.373328 0.310000 1.0000 1.0000 1.0000
v -0.272589 1.435134 0.260000 1.0000 1.0000 1.0000
v -0.249115 1.390987 0.310000 1.0000 1.0000 1.0000
v -0.204968 1.414461 0.260000 1.0000 1.0000 1.0000
v -0.216252 1.329181 -0.260000 1.0000 1.0000 1.0000
v -0.239726 1.373328 -0.310000 1.0000 1.0000 1.0000
v -0.195579 1.396802 -0.260000 1.0000 1.0000 1.0000
v -0.272589 1.435134 -0.260000 1.0000 1.0000 1.0000
v -0.204968 1.414461 -0.260000 1.0000 1.0000 1.0000
v -0.249115 1.390987 -0.310000 1.0000 1.0000 1.0000
v 0.467729 0.839827 0.370000 1.0000 1.0000 1.0000
v 0.459277 0.857953 0.390000 1.0000 1.0000 1.0000
v 0.441150 0.849501 0.370000 1.0000 1.0000 1.0000
v 0.446598 0.885142 0.390000 1.0000 1.0000 1.0000
v 0.438146 0.903268 0.370000 1.0000 1.0000 1.0000
v 0.428472 0.876690 0.370000 1.0000 1.0000 1.0000
v 0.467729 0.839827 -0.370000 1.0000 1.0000 1.0000
v 0.441150 0.849501 -0.370000 1.0000 1.0000 1.0000
v 0.459277 0.857953 -0.390000 1.0000 1.0000 1.0000
v 0.438146 0.903268 -0.370000 1.0000 1.0000 1.0000
v 0.446598 0.885142 -0.390000 1.0000 1.0000 1.0000
v 0.428472 0.876690 -0.370000 1.0000 1.0000 1.0000
v 0.503981 0.856732 0.370000 1.0000 1.0000 1.0000
v 0.513655 0.883310 0.370000 1.0000 1.0000 1.0000
v 0.495529 0.874858 0.390000 1.0000 1.0000 1.0000
v 0.474398 0.920173 0.370000 1.0000 1.0000 1.0000
v 0.482850 0.902047 0.390000 1.0000 1.0000 1.0000
v 0.500976 0.910499 0.370000 1.0000 1.0000 1.0000
v 0.503981 0.856732 -0.370000 1.0000 1.0000 1.0000
v 0.495529 0.874858 -0.390000 1.0000 1.0000 1.0000
v 0.513655 0.883310 -0.370000 1.0000 1.0000 1.0000
v 0.474398 0.920173 -0.370000 1.0000 1.0000 1.0000
v 0.500976 0.910499 -0.370000 1.0000 1.0000 1.0000
v 0.482850 0.902047 -0.390000 1.0000 1.0000 1.0000
v 0.241062 0.946494 0.370000 1.0000 1.0000 1.0000
v 0.232610 0.964620 0.390000 1.0000 1.0000 1.0000
v 0.214484 0.956167 0.370000 1.0000 1.0000 1.0000
v 0.219931 0.991809 0.390000 1.0000 1.0000 1.0000
v 0.211479 1.009935 0.370000 1.0000 1.0000 1.0000
v 0.201805 0.983357 0.370000 1.0000 1.0000 1.0000
v 0.241062 0.946494 -0.370000 1.0000 1.0000 1.0000
v 0.214484 0.956167 -0.370000 1.0000 1.0000 1.0000
v 0.232610 0.964620 -0.390000 1.0000 1.0000 1.0000
v 0.211479 1.009935 -0.370000 1.0000 1.0000 1.0000
v 0.219931 0.991809 -0.390000 1.0000 1.0000 1.0000
v 0.201805 0.983357 -0.370000 1.0000 1.0000 1.0000
v 0.277315 0.963398 0.370000 1.0000 1.0000 1.0000
v 0.286988 0.989977 0.370000 1.0000 1.0000 1.0000
v 0.268862 0.981524 0.390000 1.0000 1.0000 1.0000
v 0.247731 1.026840 0.370000 1.0000 1.0000 1.0000
v 0.256184 1.008714 0.390000 1.0000 1.0000 1.0000
v 0.274310 1.017166 0.370000 1.0000 1.0000 1.0000
v 0.277315 0.963398 -0.370000 1.0000 1.0000 1.0000
v 0.268862 0.981524 -0.390000 1.0000 1.0000 1.0000
v 0.286988 0.989977 -0.370000 1.0000 1.0000 1.0000
v 0.247731 1.026840 -0.370000 1.0000 1.0000 1.0000
v 0.274310 1.017166 -0.370000 1.0000 1.0000 1.0000
v 0.256184 1.008714 -0.390000 1.0000 1.0000 1.0000
v 0.014396 1.053160 0.370000 1.0000 1.0000 1.0000
v 0.005943 1.071286 0.390000 1.0000 1.0000 1.0000
v -0.012183 1.062834 0.370000 1.0000 1.0000 1.0000
v -0.006735 1.098476 0.390000 1.0000 1.0000 1.0000
v -0.015188 1.116602 0.370000 1.0000 1.0000 1.0000
v -0.024861 1.090023 0.370000 1.0000 1.0000 1.0000
v 0.014396 1.053160 -0.370000 1.0000 1.0000 1.0000
v -0.012183 1.062834 -0.370000 1.0000 1.0000 1.0000
v 0.005943 1.071286 -0.390000 1.0000 1.0000 1.0000
v -0.015188 1.116602 -0.370000 1.0000 1.0000 1.0000
v -0.006735 1.098476 -0.390000 1.0000 1.0000 1.0000
v -0.024861 1.090023 -0.370000 1.0000 1.0000 1.0000
v 0.050648 1.070065 0.370000 1.0000 1.0000 1.0000
v 0.060322 1.096643 0.370000 1.0000 1.0000 1.0000
v 0.042196 1.088191 0.390000 1.0000 1.0000 1.0000
v 0.021065 1.133507 0.370000 1.0000 1.0000 1.0000
v 0.029517 1.115380 0.390000 1.0000 1.0000 1.0000
v 0.047643 1.123833 0.370000 1.0000 1.0000 1.0000
v 0.050648 1.070065 -0.370000 1.0000 1.0000 1.0000
v 0.042196 1.088191 -0.390000 1.0000 1.0000 1.0000
v 0.060322 1.096643 -0.370000 1.0000 1.0000 1.0000
v 0.021065 1.133507 -0.370000 1.0000 1.0000 1.0000
v 0.047643 1.123833 -0.370000 1.0000 1.0000 1.0000
v 0.029517 1.115380 -0.390000 1.0000 1.0000 1.0000
v -0.212271 1.159827 0.370000 1.0000 1.0000 1.0000
v -0.220723 1.177953 0.390000 1.0000 1.0000 1.0000
v -0.238850 1.169501 0.370000 1.0000 1.0000 1.0000
v -0.233402 1.205142 0.390000 1.0000 1.0000 1.0000
v -0.241854 1.223269 0.370000 1.0000 1.0000 1.0000
v -0.251528 1.196690 0.370000 1.0000 1.0000 1.0000
v -0.212271 1.159827 -0.370000 1.0000 1.0000 1.0000
v -0.238850 1.169501 -0.370000 1.0000 1.0000 1.0000
v -0.220723 1.177953 -0.390000 1.0000 1.0000 1.0000
v -0.241854 1.223269 -0.370000 1.0000 1.0000 1.0000
v -0.233402 1.205142 -0.390000 1.0000 1.0000 1.0000
v -0.251528 1.196690 -0.370000 1.0000 1.0000 1.0000
v -0.176019 1.176732 0.370000 1.0000 1.0000 1.0000
v -0.166345 1.203310 0.370000 1.0000 1.0000 1.0000
v -0.184471 1.194858 0.390000 1.0000 1.0000 1.0000
v -0.205602 1.240173 0.370000 1.0000 1.0000 1.0000
v -0.197150 1.222047 0.390000 1.0000 1.0000 1.0000
v -0.179024 1.230499 0.370000 1.0000 1.0000 1.0000
v -0.176019 1.176732 -0.370000 1.0000 1.0000 1.0000
v -0.184471 1.194858 -0.390000 1.0000 1.0000 1.0000
v -0.166345 1.203310 -0.370000 1.0000 1.0000 1.0000
v -0.205602 1.240173 -0.370000 1.0000 1.0000 1.0000
v -0.179024 1.230499 -0.370000 1.0000 1.0000 1.0000
v -0.197150 1.222047 -0.390000 1.0000 1.0000 1.0000
v -0.948937 0.480000 0.475000 0.9490 0.7608 0.1882
v -0.098937 0.950000 0.475000 0.9490 0.7608 0.1882
v -0.198937 0.720000 0.475000 0.9490 0.7608 0.1882
v 0.601063 0.820000 0.475000 0.9490 0.7608 0.1882
v -0.248937 0.400000 0.475000 0.9490 0.7608 0.1882
v -0.168937 0.600000 0.475000 0.9490 0.7608 0.1882
v -0.948937 0.480000 -0.475000 0.9490 0.7608 0.1882
v -0.098937 0.950000 -0.475000 0.9490 0.7608 0.1882
v -0.198937 0.720000 -0.475000 0.9490 0.7608 0.1882
v 0.601063 0.820000 -0.475000 0.9490 0.7608 0.1882
v -0.248937 0.400000 -0.475000 0.9490 0.7608 0.1882
v -0.168937 0.600000 -0.475000 0.9490 0.7608 0.1882
vn -0.6677 -0.7148 0.2080
vn -0.3947 -0.8972 0.1983
vn -0.3218 -0.7315 0.6012
vn -0.4661 -0.5347 0.7049
vn -0.0734 -0.9763 0.2034
vn -0.0767 -0.7067 0.7033
vn -0.1140 -0.2589 0.9591
vn 0.5990 -0.7804 0.1795
vn 0.9031 -0.3960 0.1659
vn 0.8619 -0.3780 0.3379
vn 0.5696 -0.7408 0.3560
vn 0.9796 0.0882 0.1805
vn 0.9301 0.0831 0.3578
vn 0.2502 -0.1094 0.9620
vn 0.3005 -0.2832 0.9108
vn 0.4549 -0.1995 0.8679
vn 0.4126 -0.0288 0.9104
vn 0.9054 0.3842 0.1804
vn 0.6069 0.7773 0.1658
vn 0.5792 0.7419 0.3378
vn 0.8595 0.3651 0.3577
vn 0.1532 0.9715 0.1808
vn 0.1458 0.9222 0.3583
vn 0.1679 0.2152 0.9620
vn 0.3494 0.2205 0.9107
vn 0.3051 0.3907 0.8685
vn 0.1292 0.3927 0.9106
vn -0.1470 0.9724 0.1814
vn -0.5886 0.7911 0.1665
vn -0.5616 0.7548 0.3389
vn -0.1411 0.9226 0.3589
vn -0.8889 0.4191 0.1850
vn -0.8417 0.3976 0.3653
vn -0.1656 0.2209 0.9611
vn -0.1236 0.3970 0.9095
vn -0.2989 0.4017 0.8656
vn -0.3481 0.2328 0.9081
vn -0.7905 -0.5793 0.1989
vn -0.7446 -0.5425 0.3888
vn -0.9084 -0.2081 0.3627
vn -0.9590 -0.2197 0.1791
vn -0.2772 -0.0654 0.9586
vn -0.4265 0.0283 0.9040
vn -0.5047 -0.1156 0.8555
vn -0.3758 -0.2176 0.9008
vn -0.9658 0.1744 0.1916
vn -0.9125 0.1595 0.3767
vn -0.6677 -0.7148 -0.2080
vn -0.4661 -0.5347 -0.7049
vn -0.3218 -0.7315 -0.6012
vn -0.3947 -0.8972 -0.1983
vn -0.1140 -0.2589 -0.9591
vn -0.0767 -0.7067 -0.7033
vn -0.0734 -0.9763 -0.2034
vn 0.9796 0.0882 -0.1805
vn 0.9031 -0.3960 -0.1659
vn 0.8619 -0.3780 -0.3379
vn 0.9301 0.0831 -0.3578
vn 0.5990 -0.7804 -0.1795
vn 0.5696 -0.7408 -0.3560
vn 0.2502 -0.1094 -0.9620
vn 0.4126 -0.0288 -0.9104
vn 0.4549 -0.1995 -0.8679
vn 0.3005 -0.2832 -0.9108
vn 0.1532 0.9715 -0.1808
vn 0.6069 0.7773 -0.1658
vn 0.5792 0.7419 -0.3378
vn 0.1458 0.9222 -0.3583
vn 0.9054 0.3842 -0.1804
vn 0.8595 0.3651 -0.3577
vn 0.1679 0.2152 -0.9620
vn 0.1292 0.3927 -0.9106
vn 0.3051 0.3907 -0.8685
vn 0.3494 0.2205 -0.9107
vn -0.8889 0.4191 -0.1850
vn -0.5886 0.7911 -0.1665
vn -0.5616 0.7548 -0.3389
vn -0.8417 0.3976 -0.3653
vn -0.1470 0.9724 -0.1814
vn -0.1411 0.9226 -0.3589
vn -0.1656 0.2209 -0.9611
vn -0.3481 0.2328 -0.9081
vn -0.2989 0.4017 -0.8656
vn -0.1236 0.3970 -0.9095
vn -0.7905 -0.5793 -0.1989
vn -0.9590 -0.2197 -0.1791
vn -0.9084 -0.2081 -0.3627
vn -0.7446 -0.5425 -0.3888
vn -0.9658 0.1744 -0.1916
vn -0.9125 0.1595 -0.3767
vn -0.2772 -0.0654 -0.9586
vn -0.3758 -0.2176 -0.9008
vn -0.5047 -0.1156 -0.8555
vn -0.4265 0.0283 -0.9040
vn 0.2427 -0.9485 0.2035
vn 0.2269 -0.8834 0.4101
vn 0.0925 -0.3682 0.9251
vn 0.0543 -0.2160 0.9749
vn 0.2427 -0.9485 -0.2035
vn 0.2269 -0.8834 -0.4101
vn 0.0925 -0.3682 -0.9251
vn 0.0543 -0.2160 -0.9749
vn -0.4606 -0.7588 0.4606
vn -0.4606 -0.4606 0.7588
vn -0.7588 -0.4606 0.4606
vn -0.4606 0.4606 0.7588
vn -0.4606 0.7588 0.4606
vn -0.7588 0.4606 0.4606
vn -0.4606 -0.7588 -0.4606
vn -0.7588 -0.4606 -0.4606
vn -0.4606 -0.4606 -0.7588
vn -0.4606 0.7588 -0.4606
vn -0.4606 0.4606 -0.7588
vn -0.7588 0.4606 -0.4606
vn 0.4606 -0.7588 0.4606
vn 0.7588 -0.4606 0.4606
vn 0.4606 -0.4606 0.7588
vn 0.4606 0.7588 0.4606
vn 0.4606 0.4606 0.7588
vn 0.7588 0.4606 0.4606
vn 0.4606 -0.7588 -0.4606
vn 0.4606 -0.4606 -0.7588
vn 0.7588 -0.4606 -0.4606
vn 0.4606 0.7588 -0.4606
vn 0.7588 0.4606 -0.4606
vn 0.4606 0.4606 -0.7588
vn -0.0000 -1.0000 -0.0000
vn -1.0000 -0.0000 -0.0000
vn -0.0000 -0.0000 1.0000
vn -0.0000 1.0000 -0.0000
vn -0.0000 -0.0000 -1.0000
vn 1.0000 -0.0000 -0.0000
vn -0.9538 -0.2416 0.1784
vn -0.8964 -0.4148 0.1564
vn -0.8681 -0.3796 0.3198
vn -0.9073 -0.2223 0.3568
vn -0.1731 -0.9676 0.1838
vn -0.1569 -0.9170 0.3668
vn -0.3168 -0.8930 0.3198
vn -0.3499 -0.9237 0.1564
vn -0.1772 -0.1925 0.9652
vn -0.3589 -0.1762 0.9166
vn -0.3216 -0.3454 0.8816
vn -0.1501 -0.3750 0.9148
vn 0.1008 -0.9760 0.1932
vn 0.4639 -0.8667 0.1832
vn 0.3828 -0.7153 0.5847
vn 0.1009 -0.7120 0.6949
vn 0.8478 -0.5013 0.1732
vn 0.5014 -0.5066 0.7015
vn 0.1322 -0.2517 0.9587
vn 0.9814 0.0972 0.1656
vn 0.9136 -0.2542 0.3174
vn 0.8070 -0.4640 0.3654
vn 0.7992 0.5738 0.1787
vn 0.7587 0.5460 0.3552
vn 0.8460 0.4285 0.3174
vn 0.2684 0.0223 0.9630
vn 0.4012 -0.1055 0.9099
vn 0.4876 0.0483 0.8717
vn 0.3687 0.1777 0.9124
vn 0.6494 0.7396 0.1766
vn 0.4729 0.8693 0.1435
vn 0.4577 0.8414 0.2872
vn 0.6140 0.7196 0.3243
vn 0.2684 0.9471 0.1758
vn 0.2710 0.9067 0.3233
vn 0.1201 0.2205 0.9680
vn 0.2592 0.3352 0.9058
vn 0.2369 0.4355 0.8684
vn 0.1406 0.3991 0.9060
vn -0.1063 0.9757 0.1914
vn -0.4768 0.8602 0.1808
vn -0.4511 0.8140 0.3660
vn -0.1049 0.9204 0.3766
vn -0.7704 0.6081 0.1916
vn -0.7235 0.5782 0.3770
vn -0.1368 0.2473 0.9592
vn -0.0928 0.4168 0.9042
vn -0.2514 0.4536 0.8550
vn -0.3038 0.2999 0.9043
vn -0.9846 0.0009 0.1749
vn -0.9467 0.0165 0.3217
vn -0.9306 0.2313 0.2838
vn -0.9607 0.2388 0.1417
vn -0.2476 0.0624 0.9668
vn -0.3906 0.1752 0.9037
vn -0.4837 0.1202 0.8669
vn -0.4227 0.0295 0.9058
vn -0.8686 0.4613 0.1810
vn -0.8410 0.4295 0.3291
vn -0.9538 -0.2416 -0.1784
vn -0.9073 -0.2223 -0.3568
vn -0.8681 -0.3796 -0.3198
vn -0.8964 -0.4148 -0.1564
vn -0.1772 -0.1925 -0.9652
vn -0.1501 -0.3750 -0.9148
vn -0.3216 -0.3454 -0.8816
vn -0.3589 -0.1762 -0.9166
vn -0.1731 -0.9676 -0.1838
vn -0.3499 -0.9237 -0.1564
vn -0.3168 -0.8930 -0.3198
vn -0.1569 -0.9170 -0.3668
vn 0.8478 -0.5013 -0.1732
vn 0.4639 -0.8667 -0.1832
vn 0.3828 -0.7153 -0.5847
vn 0.5014 -0.5066 -0.7015
vn 0.1008 -0.9760 -0.1932
vn 0.1009 -0.7120 -0.6949
vn 0.1322 -0.2517 -0.9587
vn 0.7992 0.5738 -0.1787
vn 0.9814 0.0972 -0.1656
vn 0.8460 0.4285 -0.3174
vn 0.7587 0.5460 -0.3552
vn 0.8070 -0.4640 -0.3654
vn 0.9136 -0.2542 -0.3174
vn 0.2684 0.0223 -0.9630
vn 0.3687 0.1777 -0.9124
vn 0.4876 0.0483 -0.8717
vn 0.4012 -0.1055 -0.9099
vn 0.2684 0.9471 -0.1758
vn 0.4729 0.8693 -0.1435
vn 0.4578 0.8414 -0.2872
vn 0.2710 0.9067 -0.3233
vn 0.6494 0.7396 -0.1766
vn 0.6140 0.7196 -0.3243
vn 0.1201 0.2205 -0.9680
vn 0.1406 0.3991 -0.9060
vn 0.2369 0.4355 -0.8684
vn 0.2592 0.3352 -0.9058
vn -0.7704 0.6081 -0.1916
vn -0.4768 0.8602 -0.1808
vn -0.4511 0.8140 -0.3660
vn -0.7235 0.5782 -0.3770
vn -0.1063 0.9757 -0.1914
vn -0.1049 0.9204 -0.3766
vn -0.1368 0.2473 -0.9592
vn -0.3038 0.2999 -0.9043
vn -0.2514 0.4536 -0.8550
vn -0.0928 0.4168 -0.9042
vn -0.9846 0.0009 -0.1749
vn -0.9607 0.2388 -0.1417
vn -0.9306 0.2313 -0.2838
vn -0.9467 0.0165 -0.3217
vn -0.8686 0.4613 -0.1810
vn -0.8410 0.4295 -0.3291
vn -0.2476 0.0624 -0.9668
vn -0.4227 0.0295 -0.9058
vn -0.4837 0.1202 -0.8669
vn -0.3906 0.1752 -0.9037
vn 0.2581 0.9459 0.1967
vn 0.2432 0.8911 0.3832
vn 0.1006 0.3687 0.9241
vn 0.0514 0.1882 0.9808
vn 0.3893 0.8996 0.1978
vn 0.3667 0.8474 0.3839
vn 0.1515 0.3501 0.9244
vn 0.0774 0.1788 0.9808
vn 0.2401 0.9501 0.1992
vn 0.2241 0.8879 0.4017
vn 0.0910 0.3652 0.9265
vn 0.0532 0.2140 0.9754
vn 0.2401 0.9501 -0.1992
vn 0.2241 0.8879 -0.4017
vn 0.0910 0.3652 -0.9265
vn 0.0532 0.2140 -0.9754
vn 0.3893 0.8996 -0.1978
vn 0.3667 0.8474 -0.3839
vn 0.1515 0.3501 -0.9244
vn 0.0774 0.1788 -0.9808
vn 0.2581 0.9459 -0.1967
vn 0.2432 0.8911 -0.3832
vn 0.1006 0.3687 -0.9241
vn 0.0514 0.1882 -0.9808
vn -0.9673 -0.1794 0.1794
vn -0.9194 -0.3600 0.1585
vn -0.8881 -0.3251 0.3251
vn -0.9194 -0.1585 0.3600
vn -0.1790 -0.9665 0.1838
vn -0.1572 -0.9162 0.3686
vn -0.3251 -0.8881 0.3251
vn -0.3600 -0.9194 0.1585
vn -0.1792 -0.1813 0.9670
vn -0.3600 -0.1585 0.9194
vn -0.3251 -0.3251 0.8881
vn -0.1583 -0.3637 0.9180
vn 0.1094 -0.9756 0.1904
vn 0.4847 -0.8561 0.1793
vn 0.4591 -0.8108 0.3632
vn 0.1080 -0.9208 0.3748
vn 0.7732 -0.6050 0.1903
vn 0.7216 -0.5826 0.3740
vn 0.1386 -0.2471 0.9590
vn 0.0949 -0.4156 0.9046
vn 0.2552 -0.4507 0.8554
vn 0.3064 -0.2981 0.9040
vn 0.9093 -0.3737 0.1832
vn 0.9758 0.1427 0.1656
vn 0.9245 -0.2109 0.3174
vn 0.8564 -0.3661 0.3641
vn 0.7722 0.6097 0.1787
vn 0.7331 0.5801 0.3552
vn 0.8254 0.4668 0.3174
vn 0.2675 0.0363 0.9629
vn 0.4040 -0.0874 0.9106
vn 0.4851 0.0709 0.8716
vn 0.3602 0.1946 0.9124
vn 0.5991 0.7815 0.1740
vn 0.3581 0.9233 0.1389
vn 0.3472 0.8953 0.2790
vn 0.5612 0.7631 0.3205
vn 0.0848 0.9812 0.1732
vn 0.1005 0.9423 0.3195
vn 0.0940 0.2420 0.9657
vn 0.2301 0.3570 0.9053
vn 0.1817 0.4685 0.8646
vn 0.0709 0.4182 0.9056
vn -0.9673 0.1794 0.1794
vn -0.9194 0.1585 0.3600
vn -0.8881 0.3251 0.3251
vn -0.9194 0.3600 0.1585
vn -0.1794 0.1794 0.9673
vn -0.1585 0.3600 0.9194
vn -0.3251 0.3251 0.8881
vn -0.3600 0.1585 0.9194
vn -0.1794 0.9673 0.1794
vn -0.3600 0.9194 0.1585
vn -0.3251 0.8881 0.3251
vn -0.1585 0.9194 0.3600
vn -0.9673 -0.1794 -0.1794
vn -0.9194 -0.1585 -0.3600
vn -0.8881 -0.3251 -0.3251
vn -0.9194 -0.3600 -0.1585
vn -0.1792 -0.1813 -0.9670
vn -0.1583 -0.3637 -0.9180
vn -0.3251 -0.3251 -0.8881
vn -0.3600 -0.1585 -0.9194
vn -0.1790 -0.9665 -0.1838
vn -0.3600 -0.9194 -0.1585
vn -0.3251 -0.8881 -0.3251
vn -0.1572 -0.9162 -0.3686
vn 0.7732 -0.6050 -0.1903
vn 0.4847 -0.8561 -0.1793
vn 0.4591 -0.8108 -0.3632
vn 0.7216 -0.5826 -0.3740
vn 0.1094 -0.9756 -0.1904
vn 0.1080 -0.9208 -0.3748
vn 0.1386 -0.2471 -0.9590
vn 0.3064 -0.2981 -0.9040
vn 0.2552 -0.4507 -0.8554
vn 0.0949 -0.4156 -0.9046
vn 0.7722 0.6097 -0.1787
vn 0.9758 0.1427 -0.1656
vn 0.8254 0.4668 -0.3174
vn 0.7331 0.5801 -0.3552
vn 0.9093 -0.3737 -0.1832
vn 0.8564 -0.3661 -0.3641
vn 0.9245 -0.2109 -0.3174
vn 0.2675 0.0363 -0.9629
vn 0.3602 0.1946 -0.9124
vn 0.4851 0.0709 -0.8716
vn 0.4040 -0.0874 -0.9106
vn 0.0848 0.9812 -0.1732
vn 0.3581 0.9233 -0.1389
vn 0.3472 0.8953 -0.2790
vn 0.1005 0.9423 -0.3195
vn 0.5991 0.7815 -0.1740
vn 0.5612 0.7631 -0.3205
vn 0.0940 0.2420 -0.9657
vn 0.0709 0.4182 -0.9056
vn 0.1817 0.4685 -0.8646
vn 0.2301 0.3570 -0.9053
vn -0.9673 0.1794 -0.1794
vn -0.9194 0.3600 -0.1585
vn -0.8881 0.3251 -0.3251
vn -0.9194 0.1585 -0.3600
vn -0.1794 0.9673 -0.1794
vn -0.1585 0.9194 -0.3600
vn -0.3251 0.8881 -0.3251
vn -0.3600 0.9194 -0.1585
vn -0.1794 0.1794 -0.9673
vn -0.3600 0.1585 -0.9194
vn -0.3251 0.3251 -0.8881
vn -0.1585 0.3600 -0.9194
vn -0.0504 -0.8862 0.4606
vn -0.1904 -0.6229 0.7588
vn -0.4538 -0.7629 0.4606
vn -0.6229 0.1904 0.7588
vn -0.7629 0.4538 0.4606
vn -0.8862 0.0504 0.4606
vn -0.0504 -0.8862 -0.4606
vn -0.4538 -0.7629 -0.4606
vn -0.1904 -0.6229 -0.7588
vn -0.7629 0.4538 -0.4606
vn -0.6229 0.1904 -0.7588
vn -0.8862 0.0504 -0.4606
vn 0.7629 -0.4538 0.4606
vn 0.8862 -0.0504 0.4606
vn 0.6229 -0.1904 0.7588
vn 0.0504 0.8862 0.4606
vn 0.1904 0.6229 0.7588
vn 0.4538 0.7629 0.4606
vn 0.7629 -0.4538 -0.4606
vn 0.6229 -0.1904 -0.7588
vn 0.8862 -0.0504 -0.4606
vn 0.0504 0.8862 -0.4606
vn 0.4538 0.7629 -0.4606
vn 0.1904 0.6229 -0.7588
vn 0.4695 -0.8829 -0.0000
vn -0.8829 -0.4695 -0.0000
vn -0.4695 0.8829 -0.0000
vn 0.8829 0.4695 -0.0000
vn -0.0967 -0.8823 0.4606
vn -0.2228 -0.6121 0.7588
vn -0.4931 -0.7381 0.4606
vn -0.6121 0.2228 0.7588
vn -0.7381 0.4931 0.4606
vn -0.8823 0.0967 0.4606
vn -0.0967 -0.8823 -0.4606
vn -0.4931 -0.7381 -0.4606
vn -0.2228 -0.6121 -0.7588
vn -0.7381 0.4931 -0.4606
vn -0.6121 0.2228 -0.7588
vn -0.8823 0.0967 -0.4606
vn 0.7381 -0.4931 0.4606
vn 0.8823 -0.0967 0.4606
vn 0.6121 -0.2228 0.7588
vn 0.0967 0.8823 0.4606
vn 0.2228 0.6121 0.7588
vn 0.4931 0.7381 0.4606
vn 0.7381 -0.4931 -0.4606
vn 0.6121 -0.2228 -0.7588
vn 0.8823 -0.0967 -0.4606
vn 0.0967 0.8823 -0.4606
vn 0.4931 0.7381 -0.4606
vn 0.2228 0.6121 -0.7588
vn 0.4226 -0.9063 -0.0000
vn -0.9063 -0.4226 -0.0000
vn -0.4226 0.9063 -0.0000
vn 0.9063 0.4226 -0.0000
vn -0.4839 0.8751 -0.0000
vn 0.9171 -0.3987 -0.0000
vn -0.1240 0.9923 -0.0000
vn 0.4430 -0.8965 -0.0000
vn -0.9285 0.3714 -0.0000
vn 0.1521 -0.9884 -0.0000
s 1
usemtl white
f 1//1 4//2 5//3 7//4
f 2//5 6//6 5//3 4//2
f 3//7 7//4 5//3 6//6
f 11//8 14//9 15//10 17//11
f 12//12 16//13 15//10 14//9
f 13//14 17//15 15//16 16//17
f 18//18 21//19 22//20 24//21
f 19//22 23//23 22//20 21//19
f 20//24 24//25 22//26 23//27
f 25//28 28//29 29//30 31//31
f 26//32 30//33 29//30 28//29
f 27//34 31//35 29//36 30//37
f 32//38 35//39 36//40 38//41
f 33//42 37//43 36//44 35//45
f 34//46 38//41 36//40 37//47
f 39//48 42//49 43//50 45//51
f 40//52 44//53 43//50 42//49
f 41//54 45//51 43//50 44//53
f 49//55 52//56 53//57 55//58
f 50//59 54//60 53//57 52//56
f 51//61 55//62 53//63 54//64
f 56//65 59//66 60//67 62//68
f 57//69 61//70 60//67 59//66
f 58//71 62//72 60//73 61//74
f 63//75 66//76 67//77 69//78
f 64//79 68//80 67//77 66//76
f 65//81 69//82 67//83 68//84
f 70//85 73//86 74//87 76//88
f 71//89 75//90 74//87 73//86
f 72//91 76//92 74//93 75//94
f 32//38 1//1 7//4 35//39
f 35//45 7//4 3//7 33//42
f 2//5 8//95 10//96 6//6
f 6//6 10//97 9//98 3//7
f 8//95 11//8 17//11 10//96
f 10//97 17//15 13//14 9//98
f 12//12 18//18 24//21 16//13
f 16//17 24//25 20//24 13//14
f 19//22 25//28 31//31 23//23
f 23//27 31//35 27//34 20//24
f 26//32 34//46 37//47 30//33
f 30//37 37//43 33//42 27//34
f 39//48 70//85 76//88 42//49
f 42//49 76//92 72//91 40//52
f 71//89 63//75 69//78 75//90
f 75//94 69//82 65//81 72//91
f 64//79 56//65 62//68 68//80
f 68//84 62//72 58//71 65//81
f 57//69 49//55 55//58 61//70
f 61//74 55//62 51//61 58//71
f 50//59 46//99 48//100 54//60
f 54//64 48//101 47//102 51//61
f 46//99 41//54 44//53 48//100
f 48//101 44//53 40//52 47//102
f 1//1 39//48 45//51 4//2
f 4//2 45//51 41//54 2//5
f 49//55 12//12 14//9 52//56
f 52//56 14//9 11//8 50//59
f 56//65 19//22 21//19 59//66
f 59//66 21//19 18//18 57//69
f 63//75 26//32 28//29 66//76
f 66//76 28//29 25//28 64//79
f 70//85 32//38 38//41 73//86
f 73//86 38//41 34//46 71//89
f 32//38 70//85 39//48 1//1
f 3//7 9//98 13//14 20//24 27//34 33//42
f 2//5 41//54 46//99 8//95
f 8//95 46//99 50//59 11//8
f 12//12 49//55 57//69 18//18
f 19//22 56//65 64//79 25//28
f 26//32 63//75 71//89 34//46
f 72//91 65//81 58//71 51//61 47//102 40//52
f 201//275 204//276 205//277 207//278
f 202//279 206//280 205//281 204//282
f 203//283 207//284 205//285 206//286
f 208//287 211//288 212//289 214//290
f 209//291 213//292 212//289 211//288
f 210//293 214//294 212//295 213//296
f 215//297 218//298 219//299 221//300
f 216//301 220//302 219//303 218//298
f 217//304 221//305 219//306 220//307
f 222//308 225//309 226//310 228//311
f 223//312 227//313 226//310 225//309
f 224//314 228//315 226//316 227//317
f 229//318 232//319 233//320 235//321
f 230//322 234//323 233//324 232//325
f 231//326 235//327 233//328 234//329
f 236//330 239//331 240//332 242//333
f 237//334 241//335 240//336 239//337
f 238//338 242//339 240//340 241//341
f 243//342 246//343 247//344 249//345
f 244//346 248//347 247//344 246//343
f 245//348 249//349 247//350 248//351
f 250//352 253//353 254//354 256//355
f 251//356 255//357 254//358 253//353
f 252//359 256//360 254//361 255//362
f 257//363 260//364 261//365 263//366
f 258//367 262//368 261//365 260//364
f 259//369 263//370 261//371 262//372
f 264//373 267//374 268//375 270//376
f 265//377 269//378 268//379 267//380
f 266//381 270//382 268//383 269//384
f 229//318 201//275 207//278 232//319
f 232//325 207//284 203//283 230//322
f 202//279 208//287 214//290 206//280
f 206//286 214//294 210//293 203//283
f 209//291 215//297 221//300 213//292
f 213//296 221//305 217//304 210//293
f 216//301 222//308 228//311 220//302
f 220//307 228//315 224//314 217//304
f 223//312 231//326 234//329 227//313
f 227//317 234//323 230//322 224//314
f 236//330 264//373 270//376 239//331
f 239//337 270//382 266//381 237//334
f 265//377 257//363 263//366 269//378
f 269//384 263//370 259//369 266//381
f 258//367 250//352 256//355 262//368
f 262//372 256//360 252//359 259//369
f 251//356 243//342 249//345 255//357
f 255//362 249//349 245//348 252//359
f 244//346 238//338 241//341 248//347
f 248//351 241//335 237//334 245//348
f 201//275 236//330 242//333 204//276
f 204//282 242//339 238//338 202//279
f 243//342 209//291 211//288 246//343
f 246//343 211//288 208//287 244//346
f 250//352 216//301 218//298 253//353
f 253//353 218//298 215//297 251//356
f 257//363 223//312 225//309 260//364
f 260//364 225//309 222//308 258//367
f 264//373 229//318 235//321 267//374
f 267//380 235//327 231//326 265//377
f 229//318 264//373 236//330 201//275
f 203//283 210//293 217//304 224//314 230//322
f 202//279 238//338 244//346 208//287
f 209//291 243//342 251//356 215//297
f 216//301 250//352 258//367 222//308
f 223//312 257//363 265//377 231//326
f 266//381 259//369 252//359 245//348 237//334
f 319//385 320//386 321//387
f 322//388 323//389 324//390
f 325//391 326//392 327//393
f 328//394 329//395 330//396
f 331//397 332//398 333//399
f 334//400 335//401 336//402
f 337//403 338//404 339//405
f 340//406 341//407 342//408
f 325//391 319//385 321//387 326//392
f 320//386 322//388 324//390 321//387
f 323//389 328//394 330//396 324//390
f 329//395 327//393 326//392 330//396
f 337//403 325//391 327//393 338//404
f 328//394 340//406 342//408 329//395
f 341//407 339//405 338//404 342//408
f 331//397 337//403 339//405 332//398
f 340//406 334//400 336//402 341//407
f 335//401 333//399 332//398 336//402
f 319//385 331//397 333//399 320//386
f 334//400 323//389 322//388 335//401
f 325//409 337//409 331//409 319//409
f 321//410 324//410 330//410 326//410
f 333//129 335//129 322//129 320//129
f 340//411 328//411 323//411 334//411
f 327//131 329//131 342//131 338//131
f 339//412 341//412 336//412 332//412
f 343//413 344//414 345//415
f 346//416 347//417 348//418
f 349//419 350//420 351//421
f 352//422 353//423 354//424
f 355//425 356//426 357//427
f 358//428 359//429 360//430
f 361//431 362//432 363//433
f 364//434 365//435 366//436
f 349//419 343//413 345//415 350//420
f 344//414 346//416 348//418 345//415
f 347//417 352//422 354//424 348//418
f 353//423 351//421 350//420 354//424
f 361//431 349//419 351//421 362//432
f 352//422 364//434 366//436 353//423
f 365//435 363//433 362//432 366//436
f 355//425 361//431 363//433 356//426
f 364//434 358//428 360//430 365//435
f 359//429 357//427 356//426 360//430
f 343//413 355//425 357//427 344//414
f 358//428 347//417 346//416 359//429
f 349//437 361//437 355//437 343//437
f 345//438 348//438 354//438 350//438
f 357//129 359//129 346//129 344//129
f 364//439 352//439 347//439 358//439
f 351//131 353//131 366//131 362//131
f 363//440 365//440 360//440 356//440
f 367//413 368//414 369//415
f 370//416 371//417 372//418
f 373//419 374//420 375//421
f 376//422 377//423 378//424
f 379//425 380//426 381//427
f 382//428 383//429 384//430
f 385//431 386//432 387//433
f 388//434 389//435 390//436
f 373//419 367//413 369//415 374//420
f 368//414 370//416 372//418 369//415
f 371//417 376//422 378//424 372//418
f 377//423 375//421 374//420 378//424
f 385//431 373//419 375//421 386//432
f 376//422 388//434 390//436 377//423
f 389//435 387//433 386//432 390//436
f 379//425 385//431 387//433 380//426
f 388//434 382//428 384//430 389//435
f 383//429 381//427 380//426 384//430
f 367//413 379//425 381//427 368//414
f 382//428 371//417 370//416 383//429
f 373//437 385//437 379//437 367//437
f 369//438 372//438 378//438 374//438
f 381//129 383//129 370//129 368//129
f 388//439 376//439 371//439 382//439
f 375//131 377//131 390//131 386//131
f 387//440 389//440 384//440 380//440
f 391//413 392//414 393//415
f 394//416 395//417 396//418
f 397//419 398//420 399//421
f 400//422 401//423 402//424
f 403//425 404//426 405//427
f 406//428 407//429 408//430
f 409//431 410//432 411//433
f 412//434 413//435 414//436
f 397//419 391//413 393//415 398//420
f 392//414 394//416 396//418 393//415
f 395//417 400//422 402//424 396//418
f 401//423 399//421 398//420 402//424
f 409//431 397//419 399//421 410//432
f 400//422 412//434 414//436 401//423
f 413//435 411//433 410//432 414//436
f 403//425 409//431 411//433 404//426
f 412//434 406//428 408//430 413//435
f 407//429 405//427 404//426 408//430
f 391//413 403//425 405//427 392//414
f 406//428 395//417 394//416 407//429
f 397//437 409//437 403//437 391//437
f 393//438 396//438 402//438 398//438
f 405//129 407//129 394//129 392//129
f 412//439 400//439 395//439 406//439
f 399//131 401//131 414//131 410//131
f 411//440 413//440 408//440 404//440
f 415//413 416//414 417//415
f 418//416 419//417 420//418
f 421//419 422//420 423//421
f 424//422 425//423 426//424
f 427//425 428//426 429//427
f 430//428 431//429 432//430
f 433//431 434//432 435//433
f 436//434 437//435 438//436
f 421//419 415//413 417//415 422//420
f 416//414 418//416 420//418 417//415
f 419//417 424//422 426//424 420//418
f 425//423 423//421 422//420 426//424
f 433//431 421//419 423//421 434//432
f 424//422 436//434 438//436 425//423
f 437//435 435//433 434//432 438//436
f 427//425 433//431 435//433 428//426
f 436//434 430//428 432//430 437//435
f 431//429 429//427 428//426 432//430
f 415//413 427//425 429//427 416//414
f 430//428 419//417 418//416 431//429
f 421//437 433//437 427//437 415//437
f 417//438 420//438 426//438 422//438
f 429//129 431//129 418//129 416//129
f 436//439 424//439 419//439 430//439
f 423//131 425//131 438//131 434//131
f 435//440 437//440 432//440 428//440
usemtl teal
f 77//103 78//104 79//105
f 80//106 81//107 82//108
f 83//109 84//110 85//111
f 86//112 87//113 88//114
f 89//115 90//116 91//117
f 92//118 93//119 94//120
f 95//121 96//122 97//123
f 98//124 99//125 100//126
f 83//109 77//103 79//105 84//110
f 78//104 80//106 82//108 79//105
f 81//107 86//112 88//114 82//108
f 87//113 85//111 84//110 88//114
f 95//121 83//109 85//111 96//122
f 86//112 98//124 100//126 87//113
f 99//125 97//123 96//122 100//126
f 89//115 95//121 97//123 90//116
f 98//124 92//118 94//120 99//125
f 93//119 91//117 90//116 94//120
f 77//103 89//115 91//117 78//104
f 92//118 81//107 80//106 93//119
f 83//127 95//127 89//127 77//127
f 79//128 82//128 88//128 84//128
f 91//129 93//129 80//129 78//129
f 98//130 86//130 81//130 92//130
f 85//131 87//131 100//131 96//131
f 97//132 99//132 94//132 90//132
usemtl ketchup
f 101//133 104//134 105//135 107//136
f 102//137 106//138 105//139 104//140
f 103//141 107//142 105//143 106//144
f 108//145 110//146 111//147 113//148
f 114//149 112//150 111//147 110//146
f 109//151 113//148 111//147 112//150
f 114//149 117//152 118//153 120//154
f 115//155 119//156 118//157 117//152
f 116//158 120//159 118//160 119//161
f 121//162 124//163 125//164 127//165
f 122//166 126//167 125//164 124//163
f 123//168 127//169 125//170 126//171
f 137//172 140//173 141//174 143//175
f 138//176 142//177 141//174 140//173
f 139//178 143//179 141//180 142//181
f 144//182 147//183 148//184 150//185
f 145//186 149//187 148//188 147//189
f 146//190 150//185 148//184 149//191
f 151//192 154//193 155//194 157//195
f 152//196 156//197 155//198 154//199
f 153//200 157//201 155//202 156//203
f 165//204 160//205 161//206 163//207
f 158//208 162//209 161//206 160//205
f 159//210 163//207 161//206 162//209
f 164//211 167//212 168//213 170//214
f 165//204 169//215 168//216 167//212
f 166//217 170//218 168//219 169//220
f 171//221 174//222 175//223 177//224
f 172//225 176//226 175//223 174//222
f 173//227 177//228 175//229 176//230
f 187//231 190//232 191//233 193//234
f 188//235 192//236 191//233 190//232
f 189//237 193//238 191//239 192//240
f 194//241 197//242 198//243 200//244
f 195//245 199//246 198//243 197//242
f 196//247 200//248 198//249 199//250
f 144//182 101//133 107//136 147//183
f 147//189 107//142 103//141 145//186
f 102//137 108//145 113//148 106//138
f 106//144 113//148 109//151 103//141
f 114//149 120//154 112//150
f 112//150 120//159 116//158 109//151
f 115//155 121//162 127//165 119//156
f 119//161 127//169 123//168 116//158
f 122//166 128//251 130//252 126//167
f 126//171 130//253 129//254 123//168
f 128//251 131//255 133//256 130//252
f 130//253 133//257 132//258 129//254
f 131//255 134//259 136//260 133//256
f 133//257 136//261 135//262 132//258
f 134//259 137//172 143//175 136//260
f 136//261 143//179 139//178 135//262
f 138//176 146//190 149//191 142//177
f 142//181 149//187 145//186 139//178
f 151//192 194//241 200//244 154//193
f 154//199 200//248 196//247 152//196
f 195//245 187//231 193//234 199//246
f 199//250 193//238 189//237 196//247
f 188//235 184//263 186//264 192//236
f 192//240 186//265 185//266 189//237
f 184//263 181//267 183//268 186//264
f 186//265 183//269 182//270 185//266
f 181//267 178//271 180//272 183//268
f 183//269 180//273 179//274 182//270
f 178//271 171//221 177//224 180//272
f 180//273 177//228 173//227 179//274
f 172//225 164//211 170//214 176//226
f 176//230 170//218 166//217 173//227
f 165//204 163//207 169//215
f 169//220 163//207 159//210 166//217
f 158//208 153//200 156//203 162//209
f 162//209 156//197 152//196 159//210
f 101//133 151//192 157//195 104//134
f 104//140 157//201 153//200 102//137
f 165//204 114//149 110//146 160//205
f 160//205 110//146 108//145 158//208
f 164//211 115//155 117//152 167//212
f 167//212 117//152 114//149 165//204
f 171//221 122//166 124//163 174//222
f 174//222 124//163 121//162 172//225
f 187//231 138//176 140//173 190//232
f 190//232 140//173 137//172 188//235
f 194//241 144//182 150//185 197//242
f 197//242 150//185 146//190 195//245
f 144//182 194//241 151//192 101//133
f 103//141 109//151 116//158 123//168 129//254 132//258 135//262 139//178 145//186
f 102//137 153//200 158//208 108//145
f 115//155 164//211 172//225 121//162
f 122//166 171//221 178//271 128//251
f 128//251 178//271 181//267 131//255
f 131//255 181//267 184//263 134//259
f 134//259 184//263 188//235 137//172
f 138//176 187//231 195//245 146//190
f 196//247 189//237 185//266 182//270 179//274 173//227 166//217 159//210 152//196
usemtl mustard
f 271//103 272//104 273//105
f 274//106 275//107 276//108
f 277//109 278//110 279//111
f 280//112 281//113 282//114
f 283//115 284//116 285//117
f 286//118 287//119 288//120
f 289//121 290//122 291//123
f 292//124 293//125 294//126
f 277//109 271//103 273//105 278//110
f 272//104 274//106 276//108 273//105
f 275//107 280//112 282//114 276//108
f 281//113 279//111 278//110 282//114
f 289//121 277//109 279//111 290//122
f 280//112 292//124 294//126 281//113
f 293//125 291//123 290//122 294//126
f 283//115 289//121 291//123 284//116
f 292//124 286//118 288//120 293//125
f 287//119 285//117 284//116 288//120
f 271//103 283//115 285//117 272//104
f 286//118 275//107 274//106 287//119
f 277//127 289//127 283//127 271//127
f 273//128 276//128 282//128 278//128
f 285//129 287//129 274//129 272//129
f 292//130 280//130 275//130 286//130
f 279//131 281//131 294//131 290//131
f 291//132 293//132 288//132 284//132
f 439//129 444//129 443//129 442//129 441//129 440//129
f 450//131 445//131 446//131 447//131 448//131 449//131
f 439//441 440//441 446//441 445//441
f 440//442 441//442 447//442 446//442
f 441//443 442//443 448//443 447//443
f 442//444 443//444 449//444 448//444
f 443//445 444//445 450//445 449//445
f 444//446 439//446 445//446 450//446
usemtl tire
f 295//103 296//104 297//105
f 298//106 299//107 300//108
f 301//109 302//110 303//111
f 304//112 305//113 306//114
f 307//115 308//116 309//117
f 310//118 311//119 312//120
f 313//121 314//122 315//123
f 316//124 317//125 318//126
f 301//109 295//103 297//105 302//110
f 296//104 298//106 300//108 297//105
f 299//107 304//112 306//114 300//108
f 305//113 303//111 302//110 306//114
f 313//121 301//109 303//111 314//122
f 304//112 316//124 318//126 305//113
f 317//125 315//123 314//122 318//126
f 307//115 313//121 315//123 308//116
f 316//124 310//118 312//120 317//125
f 311//119 309//117 308//116 312//120
f 295//103 307//115 309//117 296//104
f 310//118 299//107 298//106 311//119
f 301//127 313//127 307//127 295//127
f 297//128 300//128 306//128 302//128
f 309//129 311//129 298//129 296//129
f 316//130 304//130 299//130 310//130
f 303//131 305//131 318//131 314//131
f 315//132 317//132 312//132 308//132
