# Blender 5.0.1
# www.blender.org
mtllib Stopwatch.mtl
o Stopwatch
v -0.057388 1.949771 -0.254664 0.7216 0.7608 0.8000
v -0.044914 2.010000 -0.195975 0.7216 0.7608 0.8000
v -0.053735 1.992359 -0.237475 0.7216 0.7608 0.8000
v 0.036172 1.949771 0.185502 0.7216 0.7608 0.8000
v 0.023697 2.010000 0.126813 0.7216 0.7608 0.8000
v 0.032518 1.992359 0.168313 0.7216 0.7608 0.8000
v 0.102235 1.935494 -0.288593 0.7216 0.7608 0.8000
v 0.124940 1.994808 -0.232079 0.7216 0.7608 0.8000
v 0.113123 1.977435 -0.272941 0.7216 0.7608 0.8000
v 0.195795 1.935494 0.151573 0.7216 0.7608 0.8000
v 0.193551 1.994808 0.090710 0.7216 0.7608 0.8000
v 0.199375 1.977435 0.132846 0.7216 0.7608 0.8000
v 0.257008 1.893096 -0.321491 0.7216 0.7608 0.8000
v 0.289632 1.949693 -0.267085 0.7216 0.7608 0.8000
v 0.274910 1.933116 -0.307330 0.7216 0.7608 0.8000
v 0.350568 1.893096 0.118675 0.7216 0.7608 0.8000
v 0.358243 1.949693 0.055703 0.7216 0.7608 0.8000
v 0.361163 1.933116 0.098457 0.7216 0.7608 0.8000
v 0.402229 1.823865 -0.352359 0.7216 0.7608 0.8000
v 0.444160 1.876025 -0.299931 0.7216 0.7608 0.8000
v 0.426711 1.860748 -0.339597 0.7216 0.7608 0.8000
v 0.495789 1.823865 0.087807 0.7216 0.7608 0.8000
v 0.512771 1.876025 0.022857 0.7216 0.7608 0.8000
v 0.512964 1.860748 0.066191 0.7216 0.7608 0.8000
v 0.533484 1.729906 -0.380258 0.7216 0.7608 0.8000
v 0.583827 1.776044 -0.329619 0.7216 0.7608 0.8000
v 0.563915 1.762531 -0.368760 0.7216 0.7608 0.8000
v 0.627044 1.729906 0.059908 0.7216 0.7608 0.8000
v 0.652438 1.776044 -0.006830 0.7216 0.7608 0.8000
v 0.650168 1.762531 0.037027 0.7216 0.7608 0.8000
v 0.646786 1.614073 -0.404341 0.7216 0.7608 0.8000
v 0.704391 1.652788 -0.355245 0.7216 0.7608 0.8000
v 0.682352 1.641448 -0.393935 0.7216 0.7608 0.8000
v 0.740347 1.614073 0.035825 0.7216 0.7608 0.8000
v 0.773002 1.652788 -0.032456 0.7216 0.7608 0.8000
v 0.768604 1.641448 0.011853 0.7216 0.7608 0.8000
v 0.738692 1.479886 -0.423876 0.7216 0.7608 0.8000
v 0.802187 1.510000 -0.376032 0.7216 0.7608 0.8000
v 0.778422 1.501180 -0.414355 0.7216 0.7608 0.8000
v 0.832252 1.479886 0.016290 0.7216 0.7608 0.8000
v 0.870798 1.510000 -0.053244 0.7216 0.7608 0.8000
v 0.864675 1.501180 -0.008568 0.7216 0.7608 0.8000
v 0.806410 1.331420 -0.438270 0.7216 0.7608 0.8000
v 0.874244 1.352020 -0.391349 0.7216 0.7608 0.8000
v 0.849209 1.345987 -0.429401 0.7216 0.7608 0.8000
v 0.899970 1.331421 0.001896 0.7216 0.7608 0.8000
v 0.942855 1.352020 -0.068560 0.7216 0.7608 0.8000
v 0.935462 1.345987 -0.023614 0.7216 0.7608 0.8000
v 0.847881 1.173190 -0.447085 0.7216 0.7608 0.8000
v 0.918374 1.183648 -0.400729 0.7216 0.7608 0.8000
v 0.892560 1.180585 -0.438616 0.7216 0.7608 0.8000
v 0.941441 1.173190 -0.006919 0.7216 0.7608 0.8000
v 0.986984 1.183648 -0.077940 0.7216 0.7608 0.8000
v 0.978812 1.180585 -0.032829 0.7216 0.7608 0.8000
v 0.861846 1.010000 -0.450054 0.7216 0.7608 0.8000
v 0.933234 1.010000 -0.403887 0.7216 0.7608 0.8000
v 0.907158 1.010000 -0.441719 0.7216 0.7608 0.8000
v 0.955406 1.010000 -0.009887 0.7216 0.7608 0.8000
v 1.001845 1.010000 -0.081099 0.7216 0.7608 0.8000
v 0.993410 1.010000 -0.035932 0.7216 0.7608 0.8000
v 0.847881 0.846810 -0.447085 0.7216 0.7608 0.8000
v 0.918374 0.836352 -0.400729 0.7216 0.7608 0.8000
v 0.892560 0.839415 -0.438616 0.7216 0.7608 0.8000
v 0.941441 0.846810 -0.006919 0.7216 0.7608 0.8000
v 0.986984 0.836352 -0.077940 0.7216 0.7608 0.8000
v 0.978812 0.839415 -0.032829 0.7216 0.7608 0.8000
v 0.806409 0.688579 -0.438270 0.7216 0.7608 0.8000
v 0.874244 0.667980 -0.391349 0.7216 0.7608 0.8000
v 0.849209 0.674013 -0.429401 0.7216 0.7608 0.8000
v 0.899970 0.688579 0.001896 0.7216 0.7608 0.8000
v 0.942855 0.667980 -0.068560 0.7216 0.7608 0.8000
v 0.935462 0.674013 -0.023614 0.7216 0.7608 0.8000
v 0.738692 0.540114 -0.423876 0.7216 0.7608 0.8000
v 0.802187 0.510000 -0.376032 0.7216 0.7608 0.8000
v 0.778423 0.518820 -0.414355 0.7216 0.7608 0.8000
v 0.832252 0.540114 0.016290 0.7216 0.7608 0.8000
v 0.870798 0.510000 -0.053244 0.7216 0.7608 0.8000
v 0.864675 0.518820 -0.008568 0.7216 0.7608 0.8000
v 0.646786 0.405927 -0.404341 0.7216 0.7608 0.8000
v 0.704391 0.367212 -0.355245 0.7216 0.7608 0.8000
v 0.682352 0.378552 -0.393935 0.7216 0.7608 0.8000
v 0.740346 0.405927 0.035825 0.7216 0.7608 0.8000
v 0.773002 0.367212 -0.032456 0.7216 0.7608 0.8000
v 0.768604 0.378552 0.011852 0.7216 0.7608 0.8000
v 0.533484 0.290094 -0.380258 0.7216 0.7608 0.8000
v 0.583827 0.243956 -0.329619 0.7216 0.7608 0.8000
v 0.563915 0.257469 -0.368760 0.7216 0.7608 0.8000
v 0.627044 0.290094 0.059908 0.7216 0.7608 0.8000
v 0.652438 0.243956 -0.006830 0.7216 0.7608 0.8000
v 0.650168 0.257469 0.037027 0.7216 0.7608 0.8000
v 0.402229 0.196135 -0.352359 0.7216 0.7608 0.8000
v 0.444160 0.143975 -0.299931 0.7216 0.7608 0.8000
v 0.426711 0.159252 -0.339597 0.7216 0.7608 0.8000
v 0.495789 0.196135 0.087807 0.7216 0.7608 0.8000
v 0.512771 0.143975 0.022857 0.7216 0.7608 0.8000
v 0.512964 0.159252 0.066190 0.7216 0.7608 0.8000
v 0.257008 0.126904 -0.321492 0.7216 0.7608 0.8000
v 0.289632 0.070307 -0.267086 0.7216 0.7608 0.8000
v 0.274910 0.086884 -0.307330 0.7216 0.7608 0.8000
v 0.350569 0.126904 0.118675 0.7216 0.7608 0.8000
v 0.358243 0.070307 0.055703 0.7216 0.7608 0.8000
v 0.361163 0.086884 0.098457 0.7216 0.7608 0.8000
v 0.102235 0.084506 -0.288593 0.7216 0.7608 0.8000
v 0.124940 0.025192 -0.232079 0.7216 0.7608 0.8000
v 0.113123 0.042565 -0.272941 0.7216 0.7608 0.8000
v 0.195795 0.084506 0.151573 0.7216 0.7608 0.8000
v 0.193551 0.025192 0.090710 0.7216 0.7608 0.8000
v 0.199375 0.042565 0.132846 0.7216 0.7608 0.8000
v -0.057388 0.070229 -0.254664 0.7216 0.7608 0.8000
v -0.044914 0.010000 -0.195976 0.7216 0.7608 0.8000
v -0.053735 0.027641 -0.237475 0.7216 0.7608 0.8000
v 0.036172 0.070229 0.185502 0.7216 0.7608 0.8000
v 0.023697 0.010000 0.126813 0.7216 0.7608 0.8000
v 0.032518 0.027641 0.168312 0.7216 0.7608 0.8000
v -0.217012 0.084506 -0.220735 0.7216 0.7608 0.8000
v -0.214767 0.025192 -0.159872 0.7216 0.7608 0.8000
v -0.220592 0.042565 -0.202008 0.7216 0.7608 0.8000
v -0.123452 0.084506 0.219431 0.7216 0.7608 0.8000
v -0.146156 0.025192 0.162917 0.7216 0.7608 0.8000
v -0.134339 0.042565 0.203779 0.7216 0.7608 0.8000
v -0.371785 0.126904 -0.187837 0.7216 0.7608 0.8000
v -0.379460 0.070307 -0.124866 0.7216 0.7608 0.8000
v -0.382379 0.086884 -0.167619 0.7216 0.7608 0.8000
v -0.278225 0.126904 0.252329 0.7216 0.7608 0.8000
v -0.310849 0.070307 0.197923 0.7216 0.7608 0.8000
v -0.296127 0.086884 0.238168 0.7216 0.7608 0.8000
v -0.517006 0.196135 -0.156970 0.7216 0.7608 0.8000
v -0.533988 0.143975 -0.092020 0.7216 0.7608 0.8000
v -0.534181 0.159252 -0.135353 0.7216 0.7608 0.8000
v -0.423446 0.196135 0.283197 0.7216 0.7608 0.8000
v -0.465377 0.143975 0.230769 0.7216 0.7608 0.8000
v -0.447928 0.159252 0.270434 0.7216 0.7608 0.8000
v -0.648261 0.290094 -0.129071 0.7216 0.7608 0.8000
v -0.673655 0.243956 -0.062332 0.7216 0.7608 0.8000
v -0.671385 0.257469 -0.106189 0.7216 0.7608 0.8000
v -0.554701 0.290094 0.311096 0.7216 0.7608 0.8000
v -0.605044 0.243956 0.260456 0.7216 0.7608 0.8000
v -0.585132 0.257469 0.299598 0.7216 0.7608 0.8000
v -0.761563 0.405927 -0.104987 0.7216 0.7608 0.8000
v -0.794218 0.367212 -0.036706 0.7216 0.7608 0.8000
v -0.789821 0.378552 -0.081015 0.7216 0.7608 0.8000
v -0.668003 0.405927 0.335179 0.7216 0.7608 0.8000
v -0.725607 0.367212 0.286083 0.7216 0.7608 0.8000
v -0.703568 0.378552 0.324772 0.7216 0.7608 0.8000
v -0.853469 0.540114 -0.085452 0.7216 0.7608 0.8000
v -0.892014 0.510000 -0.015919 0.7216 0.7608 0.8000
v -0.885892 0.518820 -0.060594 0.7216 0.7608 0.8000
v -0.759909 0.540114 0.354714 0.7216 0.7608 0.8000
v -0.823404 0.510000 0.306870 0.7216 0.7608 0.8000
v -0.799639 0.518820 0.345193 0.7216 0.7608 0.8000
v -0.921186 0.688579 -0.071058 0.7216 0.7608 0.8000
v -0.964072 0.667980 -0.000602 0.7216 0.7608 0.8000
v -0.956678 0.674013 -0.045548 0.7216 0.7608 0.8000
v -0.827626 0.688579 0.369108 0.7216 0.7608 0.8000
v -0.895461 0.667980 0.322186 0.7216 0.7608 0.8000
v -0.870425 0.674013 0.360239 0.7216 0.7608 0.8000
v -0.962658 0.846810 -0.062243 0.7216 0.7608 0.8000
v -1.008201 0.836352 0.008778 0.7216 0.7608 0.8000
v -1.000029 0.839415 -0.036334 0.7216 0.7608 0.8000
v -0.869098 0.846810 0.377923 0.7216 0.7608 0.8000
v -0.939590 0.836352 0.331566 0.7216 0.7608 0.8000
v -0.913776 0.839415 0.369454 0.7216 0.7608 0.8000
v -0.976623 1.010000 -0.059275 0.7216 0.7608 0.8000
v -1.023061 1.010000 0.011936 0.7216 0.7608 0.8000
v -1.014627 1.010000 -0.033231 0.7216 0.7608 0.8000
v -0.883063 1.010000 0.380891 0.7216 0.7608 0.8000
v -0.954451 1.010000 0.334725 0.7216 0.7608 0.8000
v -0.928374 1.010000 0.372556 0.7216 0.7608 0.8000
v -0.962658 1.173190 -0.062243 0.7216 0.7608 0.8000
v -1.008201 1.183648 0.008778 0.7216 0.7608 0.8000
v -1.000029 1.180585 -0.036334 0.7216 0.7608 0.8000
v -0.869098 1.173190 0.377923 0.7216 0.7608 0.8000
v -0.939590 1.183648 0.331566 0.7216 0.7608 0.8000
v -0.913776 1.180585 0.369454 0.7216 0.7608 0.8000
v -0.921186 1.331420 -0.071058 0.7216 0.7608 0.8000
v -0.964072 1.352020 -0.000602 0.7216 0.7608 0.8000
v -0.956678 1.345987 -0.045548 0.7216 0.7608 0.8000
v -0.827626 1.331420 0.369108 0.7216 0.7608 0.8000
v -0.895461 1.352020 0.322186 0.7216 0.7608 0.8000
v -0.870425 1.345987 0.360239 0.7216 0.7608 0.8000
v -0.853469 1.479886 -0.085452 0.7216 0.7608 0.8000
v -0.892014 1.510000 -0.015919 0.7216 0.7608 0.8000
v -0.885892 1.501180 -0.060594 0.7216 0.7608 0.8000
v -0.759908 1.479886 0.354714 0.7216 0.7608 0.8000
v -0.823404 1.510000 0.306870 0.7216 0.7608 0.8000
v -0.799639 1.501180 0.345193 0.7216 0.7608 0.8000
v -0.761563 1.614073 -0.104987 0.7216 0.7608 0.8000
v -0.794218 1.652788 -0.036706 0.7216 0.7608 0.8000
v -0.789821 1.641448 -0.081015 0.7216 0.7608 0.8000
v -0.668003 1.614073 0.335179 0.7216 0.7608 0.8000
v -0.725607 1.652788 0.286083 0.7216 0.7608 0.8000
v -0.703568 1.641448 0.324773 0.7216 0.7608 0.8000
v -0.648261 1.729906 -0.129070 0.7216 0.7608 0.8000
v -0.673655 1.776044 -0.062332 0.7216 0.7608 0.8000
v -0.671384 1.762531 -0.106189 0.7216 0.7608 0.8000
v -0.554701 1.729906 0.311096 0.7216 0.7608 0.8000
v -0.605044 1.776044 0.260456 0.7216 0.7608 0.8000
v -0.585132 1.762531 0.299598 0.7216 0.7608 0.8000
v -0.517006 1.823865 -0.156970 0.7216 0.7608 0.8000
v -0.533988 1.876025 -0.092020 0.7216 0.7608 0.8000
v -0.534181 1.860748 -0.135353 0.7216 0.7608 0.8000
v -0.423445 1.823865 0.283197 0.7216 0.7608 0.8000
v -0.465377 1.876025 0.230769 0.7216 0.7608 0.8000
v -0.447928 1.860748 0.270435 0.7216 0.7608 0.8000
v -0.371785 1.893096 -0.187837 0.7216 0.7608 0.8000
v -0.379460 1.949693 -0.124865 0.7216 0.7608 0.8000
v -0.382379 1.933116 -0.167619 0.7216 0.7608 0.8000
v -0.278225 1.893096 0.252329 0.7216 0.7608 0.8000
v -0.310849 1.949693 0.197923 0.7216 0.7608 0.8000
v -0.296126 1.933116 0.238168 0.7216 0.7608 0.8000
v -0.217012 1.935494 -0.220735 0.7216 0.7608 0.8000
v -0.214767 1.994808 -0.159872 0.7216 0.7608 0.8000
v -0.220592 1.977435 -0.202008 0.7216 0.7608 0.8000
v -0.123452 1.935494 0.219431 0.7216 0.7608 0.8000
v -0.146156 1.994808 0.162917 0.7216 0.7608 0.8000
v -0.134339 1.977435 0.203779 0.7216 0.7608 0.8000
v 1.023061 1.010000 -0.029379 0.8470 0.2275 0.1804
v 1.008052 1.185385 -0.026189 0.8470 0.2275 0.1804
v 0.963482 1.355440 -0.016715 0.8470 0.2275 0.1804
v 0.890704 1.515000 -0.001246 0.8470 0.2275 0.1804
v 0.791930 1.659215 0.019749 0.8470 0.2275 0.1804
v 0.670161 1.783705 0.045632 0.8470 0.2275 0.1804
v 0.529097 1.884686 0.075616 0.8470 0.2275 0.1804
v 0.373024 1.959090 0.108790 0.8470 0.2275 0.1804
v 0.206684 2.004656 0.144147 0.8470 0.2275 0.1804
v 0.035132 2.020000 0.180611 0.8470 0.2275 0.1804
v -0.136420 2.004656 0.217076 0.8470 0.2275 0.1804
v -0.302759 1.959090 0.252432 0.8470 0.2275 0.1804
v -0.458832 1.884686 0.285607 0.8470 0.2275 0.1804
v -0.599896 1.783705 0.315591 0.8470 0.2275 0.1804
v -0.721665 1.659215 0.341474 0.8470 0.2275 0.1804
v -0.820439 1.515000 0.362469 0.8470 0.2275 0.1804
v -0.893217 1.355440 0.377938 0.8470 0.2275 0.1804
v -0.937788 1.185385 0.387412 0.8470 0.2275 0.1804
v -0.952797 1.010000 0.390602 0.8470 0.2275 0.1804
v -0.937788 0.834615 0.387412 0.8470 0.2275 0.1804
v -0.893217 0.664560 0.377938 0.8470 0.2275 0.1804
v -0.820439 0.505000 0.362469 0.8470 0.2275 0.1804
v -0.721665 0.360785 0.341474 0.8470 0.2275 0.1804
v -0.599896 0.236295 0.315591 0.8470 0.2275 0.1804
v -0.458832 0.135314 0.285607 0.8470 0.2275 0.1804
v -0.302759 0.060910 0.252432 0.8470 0.2275 0.1804
v -0.136420 0.015344 0.217076 0.8470 0.2275 0.1804
v 0.035132 0.000000 0.180611 0.8470 0.2275 0.1804
v 0.206684 0.015344 0.144147 0.8470 0.2275 0.1804
v 0.373024 0.060910 0.108790 0.8470 0.2275 0.1804
v 0.529097 0.135314 0.075616 0.8470 0.2275 0.1804
v 0.670161 0.236295 0.045632 0.8470 0.2275 0.1804
v 0.791930 0.360785 0.019749 0.8470 0.2275 0.1804
v 0.890704 0.505000 -0.001246 0.8470 0.2275 0.1804
v 0.963482 0.664560 -0.016716 0.8470 0.2275 0.1804
v 1.008052 0.834615 -0.026189 0.8470 0.2275 0.1804
v 0.998340 1.010000 0.046705 0.8470 0.2275 0.1804
v 0.983926 1.178439 0.049769 0.8470 0.2275 0.1804
v 0.941120 1.341760 0.058868 0.8470 0.2275 0.1804
v 0.871224 1.495000 0.073724 0.8470 0.2275 0.1804
v 0.776362 1.633504 0.093888 0.8470 0.2275 0.1804
v 0.659416 1.753063 0.118746 0.8470 0.2275 0.1804
v 0.523938 1.850045 0.147542 0.8470 0.2275 0.1804
v 0.374047 1.921502 0.179403 0.8470 0.2275 0.1804
v 0.214295 1.965263 0.213359 0.8470 0.2275 0.1804
v 0.049537 1.980000 0.248379 0.8470 0.2275 0.1804
v -0.115221 1.965263 0.283400 0.8470 0.2275 0.1804
v -0.274973 1.921502 0.317356 0.8470 0.2275 0.1804
v -0.424865 1.850045 0.349217 0.8470 0.2275 0.1804
v -0.560342 1.753063 0.378013 0.8470 0.2275 0.1804
v -0.677289 1.633504 0.402871 0.8470 0.2275 0.1804
v -0.772151 1.495000 0.423035 0.8470 0.2275 0.1804
v -0.842046 1.341760 0.437891 0.8470 0.2275 0.1804
v -0.884852 1.178439 0.446990 0.8470 0.2275 0.1804
v -0.899266 1.010000 0.450054 0.8470 0.2275 0.1804
v -0.884852 0.841561 0.446990 0.8470 0.2275 0.1804
v -0.842046 0.678240 0.437891 0.8470 0.2275 0.1804
v -0.772151 0.525000 0.423034 0.8470 0.2275 0.1804
v -0.677289 0.386496 0.402871 0.8470 0.2275 0.1804
v -0.560342 0.266937 0.378013 0.8470 0.2275 0.1804
v -0.424865 0.169955 0.349217 0.8470 0.2275 0.1804
v -0.274973 0.098498 0.317356 0.8470 0.2275 0.1804
v -0.115221 0.054736 0.283400 0.8470 0.2275 0.1804
v 0.049537 0.040000 0.248379 0.8470 0.2275 0.1804
v 0.214295 0.054736 0.213359 0.8470 0.2275 0.1804
v 0.374047 0.098498 0.179403 0.8470 0.2275 0.1804
v 0.523938 0.169955 0.147542 0.8470 0.2275 0.1804
v 0.659416 0.266937 0.118746 0.8470 0.2275 0.1804
v 0.776362 0.386496 0.093888 0.8470 0.2275 0.1804
v 0.871224 0.525000 0.073724 0.8470 0.2275 0.1804
v 0.941120 0.678240 0.058867 0.8470 0.2275 0.1804
v 0.983926 0.841561 0.049769 0.8470 0.2275 0.1804
v 0.920088 1.010000 0.063338 0.8470 0.2275 0.1804
v 0.906863 1.164547 0.066149 0.8470 0.2275 0.1804
v 0.867588 1.314398 0.074497 0.8470 0.2275 0.1804
v 0.803456 1.455000 0.088129 0.8470 0.2275 0.1804
v 0.716418 1.582081 0.106629 0.8470 0.2275 0.1804
v 0.609116 1.691780 0.129437 0.8470 0.2275 0.1804
v 0.484812 1.780763 0.155859 0.8470 0.2275 0.1804
v 0.347283 1.846326 0.185092 0.8470 0.2275 0.1804
v 0.200706 1.886479 0.216247 0.8470 0.2275 0.1804
v 0.049537 1.900000 0.248379 0.8470 0.2275 0.1804
v -0.101633 1.886479 0.280512 0.8470 0.2275 0.1804
v -0.248209 1.846326 0.311667 0.8470 0.2275 0.1804
v -0.385739 1.780763 0.340900 0.8470 0.2275 0.1804
v -0.510043 1.691780 0.367322 0.8470 0.2275 0.1804
v -0.617344 1.582081 0.390129 0.8470 0.2275 0.1804
v -0.704383 1.455000 0.408630 0.8470 0.2275 0.1804
v -0.768514 1.314398 0.422261 0.8470 0.2275 0.1804
v -0.807789 1.164547 0.430610 0.8470 0.2275 0.1804
v -0.821015 1.010000 0.433421 0.8470 0.2275 0.1804
v -0.807789 0.855453 0.430610 0.8470 0.2275 0.1804
v -0.768514 0.705602 0.422261 0.8470 0.2275 0.1804
v -0.704383 0.565000 0.408630 0.8470 0.2275 0.1804
v -0.617344 0.437919 0.390129 0.8470 0.2275 0.1804
v -0.510043 0.328220 0.367322 0.8470 0.2275 0.1804
v -0.385739 0.239237 0.340900 0.8470 0.2275 0.1804
v -0.248209 0.173674 0.311667 0.8470 0.2275 0.1804
v -0.101633 0.133521 0.280511 0.8470 0.2275 0.1804
v 0.049537 0.120000 0.248379 0.8470 0.2275 0.1804
v 0.200706 0.133521 0.216247 0.8470 0.2275 0.1804
v 0.347283 0.173674 0.185091 0.8470 0.2275 0.1804
v 0.484812 0.239237 0.155859 0.8470 0.2275 0.1804
v 0.609116 0.328220 0.129437 0.8470 0.2275 0.1804
v 0.716418 0.437919 0.106629 0.8470 0.2275 0.1804
v 0.803456 0.565000 0.088129 0.8470 0.2275 0.1804
v 0.867588 0.705602 0.074497 0.8470 0.2275 0.1804
v 0.906863 0.855453 0.066149 0.8470 0.2275 0.1804
v 0.866558 1.010000 0.003886 0.8470 0.2275 0.1804
v 0.853927 1.157601 0.006571 0.8470 0.2275 0.1804
v 0.816417 1.300717 0.014544 0.8470 0.2275 0.1804
v 0.755168 1.435000 0.027563 0.8470 0.2275 0.1804
v 0.672041 1.556370 0.045232 0.8470 0.2275 0.1804
v 0.569562 1.661138 0.067015 0.8470 0.2275 0.1804
v 0.450845 1.746122 0.092249 0.8470 0.2275 0.1804
v 0.319497 1.808739 0.120168 0.8470 0.2275 0.1804
v 0.179508 1.847087 0.149923 0.8470 0.2275 0.1804
v 0.035132 1.860000 0.180611 0.8470 0.2275 0.1804
v -0.109243 1.847087 0.211299 0.8470 0.2275 0.1804
v -0.249232 1.808739 0.241055 0.8470 0.2275 0.1804
v -0.380580 1.746122 0.268974 0.8470 0.2275 0.1804
v -0.499298 1.661138 0.294208 0.8470 0.2275 0.1804
v -0.601777 1.556370 0.315991 0.8470 0.2275 0.1804
v -0.684903 1.435000 0.333660 0.8470 0.2275 0.1804
v -0.746152 1.300717 0.346678 0.8470 0.2275 0.1804
v -0.783662 1.157601 0.354651 0.8470 0.2275 0.1804
v -0.796293 1.010000 0.357336 0.8470 0.2275 0.1804
v -0.783662 0.862399 0.354651 0.8470 0.2275 0.1804
v -0.746152 0.719283 0.346678 0.8470 0.2275 0.1804
v -0.684903 0.585000 0.333660 0.8470 0.2275 0.1804
v -0.601777 0.463630 0.315990 0.8470 0.2275 0.1804
v -0.499298 0.358862 0.294208 0.8470 0.2275 0.1804
v -0.380580 0.273878 0.268974 0.8470 0.2275 0.1804
v -0.249232 0.211261 0.241055 0.8470 0.2275 0.1804
v -0.109243 0.172913 0.211299 0.8470 0.2275 0.1804
v 0.035132 0.160000 0.180611 0.8470 0.2275 0.1804
v 0.179508 0.172913 0.149923 0.8470 0.2275 0.1804
v 0.319497 0.211261 0.120168 0.8470 0.2275 0.1804
v 0.450845 0.273878 0.092249 0.8470 0.2275 0.1804
v 0.569562 0.358862 0.067015 0.8470 0.2275 0.1804
v 0.672041 0.463630 0.045232 0.8470 0.2275 0.1804
v 0.755168 0.585000 0.027563 0.8470 0.2275 0.1804
v 0.816417 0.719283 0.014544 0.8470 0.2275 0.1804
v 0.853927 0.862399 0.006571 0.8470 0.2275 0.1804
v 0.891279 1.010000 -0.072198 0.8470 0.2275 0.1804
v 0.878053 1.164547 -0.069387 0.8470 0.2275 0.1804
v 0.838778 1.314398 -0.061039 0.8470 0.2275 0.1804
v 0.774647 1.455000 -0.047407 0.8470 0.2275 0.1804
v 0.687609 1.582081 -0.028907 0.8470 0.2275 0.1804
v 0.580307 1.691780 -0.006099 0.8470 0.2275 0.1804
v 0.456003 1.780763 0.020323 0.8470 0.2275 0.1804
v 0.318474 1.846326 0.049555 0.8470 0.2275 0.1804
v 0.171897 1.886479 0.080711 0.8470 0.2275 0.1804
v 0.020728 1.900000 0.112843 0.8470 0.2275 0.1804
v -0.130442 1.886479 0.144975 0.8470 0.2275 0.1804
v -0.277018 1.846326 0.176131 0.8470 0.2275 0.1804
v -0.414548 1.780763 0.205364 0.8470 0.2275 0.1804
v -0.538852 1.691780 0.231786 0.8470 0.2275 0.1804
v -0.646153 1.582081 0.254593 0.8470 0.2275 0.1804
v -0.733192 1.455000 0.273094 0.8470 0.2275 0.1804
v -0.797323 1.314398 0.286725 0.8470 0.2275 0.1804
v -0.836598 1.164547 0.295073 0.8470 0.2275 0.1804
v -0.849824 1.010000 0.297885 0.8470 0.2275 0.1804
v -0.836598 0.855453 0.295073 0.8470 0.2275 0.1804
v -0.797323 0.705602 0.286725 0.8470 0.2275 0.1804
v -0.733192 0.565000 0.273094 0.8470 0.2275 0.1804
v -0.646153 0.437919 0.254593 0.8470 0.2275 0.1804
v -0.538852 0.328220 0.231786 0.8470 0.2275 0.1804
v -0.414548 0.239237 0.205364 0.8470 0.2275 0.1804
v -0.277018 0.173674 0.176131 0.8470 0.2275 0.1804
v -0.130442 0.133521 0.144975 0.8470 0.2275 0.1804
v 0.020728 0.120000 0.112843 0.8470 0.2275 0.1804
v 0.171897 0.133521 0.080711 0.8470 0.2275 0.1804
v 0.318474 0.173674 0.049555 0.8470 0.2275 0.1804
v 0.456003 0.239237 0.020323 0.8470 0.2275 0.1804
v 0.580307 0.328220 -0.006099 0.8470 0.2275 0.1804
v 0.687609 0.437919 -0.028907 0.8470 0.2275 0.1804
v 0.774647 0.565000 -0.047407 0.8470 0.2275 0.1804
v 0.838778 0.705602 -0.061039 0.8470 0.2275 0.1804
v 0.878053 0.855453 -0.069387 0.8470 0.2275 0.1804
v 0.969531 1.010000 -0.088831 0.8470 0.2275 0.1804
v 0.955116 1.178439 -0.085767 0.8470 0.2275 0.1804
v 0.912311 1.341760 -0.076669 0.8470 0.2275 0.1804
v 0.842415 1.495000 -0.061812 0.8470 0.2275 0.1804
v 0.747553 1.633504 -0.041648 0.8470 0.2275 0.1804
v 0.630607 1.753063 -0.016790 0.8470 0.2275 0.1804
v 0.495129 1.850045 0.012006 0.8470 0.2275 0.1804
v 0.345238 1.921502 0.043867 0.8470 0.2275 0.1804
v 0.185486 1.965263 0.077823 0.8470 0.2275 0.1804
v 0.020728 1.980000 0.112843 0.8470 0.2275 0.1804
v -0.144030 1.965263 0.147864 0.8470 0.2275 0.1804
v -0.303782 1.921502 0.181820 0.8470 0.2275 0.1804
v -0.453674 1.850045 0.213680 0.8470 0.2275 0.1804
v -0.589151 1.753063 0.242477 0.8470 0.2275 0.1804
v -0.706098 1.633504 0.267335 0.8470 0.2275 0.1804
v -0.800960 1.495000 0.287498 0.8470 0.2275 0.1804
v -0.870856 1.341760 0.302355 0.8470 0.2275 0.1804
v -0.913661 1.178439 0.311454 0.8470 0.2275 0.1804
v -0.928076 1.010000 0.314518 0.8470 0.2275 0.1804
v -0.913661 0.841561 0.311454 0.8470 0.2275 0.1804
v -0.870856 0.678240 0.302355 0.8470 0.2275 0.1804
v -0.800960 0.525000 0.287498 0.8470 0.2275 0.1804
v -0.706098 0.386496 0.267335 0.8470 0.2275 0.1804
v -0.589151 0.266937 0.242477 0.8470 0.2275 0.1804
v -0.453674 0.169955 0.213680 0.8470 0.2275 0.1804
v -0.303782 0.098498 0.181820 0.8470 0.2275 0.1804
v -0.144030 0.054736 0.147864 0.8470 0.2275 0.1804
v 0.020728 0.040000 0.112843 0.8470 0.2275 0.1804
v 0.185486 0.054736 0.077823 0.8470 0.2275 0.1804
v 0.345237 0.098498 0.043867 0.8470 0.2275 0.1804
v 0.495129 0.169955 0.012006 0.8470 0.2275 0.1804
v 0.630607 0.266937 -0.016791 0.8470 0.2275 0.1804
v 0.747553 0.386496 -0.041648 0.8470 0.2275 0.1804
v 0.842415 0.525000 -0.061812 0.8470 0.2275 0.1804
v 0.912311 0.678240 -0.076669 0.8470 0.2275 0.1804
v 0.955116 0.841561 -0.085767 0.8470 0.2275 0.1804
v 0.029934 1.890000 0.156158 1.0000 1.0000 1.0000
v 0.040330 1.890000 0.205065 1.0000 1.0000 1.0000
v 0.179406 1.876631 0.124387 1.0000 1.0000 1.0000
v 0.189801 1.876631 0.173294 1.0000 1.0000 1.0000
v 0.324335 1.836930 0.093581 1.0000 1.0000 1.0000
v 0.334731 1.836930 0.142488 1.0000 1.0000 1.0000
v 0.460319 1.772102 0.064677 1.0000 1.0000 1.0000
v 0.470715 1.772102 0.113584 1.0000 1.0000 1.0000
v 0.583227 1.684119 0.038552 1.0000 1.0000 1.0000
v 0.593622 1.684119 0.087459 1.0000 1.0000 1.0000
v 0.689322 1.575653 0.016000 1.0000 1.0000 1.0000
v 0.699718 1.575653 0.064908 1.0000 1.0000 1.0000
v 0.775383 1.450000 -0.002292 1.0000 1.0000 1.0000
v 0.785779 1.450000 0.046615 1.0000 1.0000 1.0000
v 0.838794 1.310978 -0.015771 1.0000 1.0000 1.0000
v 0.849189 1.310978 0.033137 1.0000 1.0000 1.0000
v 0.877627 1.162810 -0.024025 1.0000 1.0000 1.0000
v 0.888023 1.162810 0.024882 1.0000 1.0000 1.0000
v 0.890704 1.010000 -0.026805 1.0000 1.0000 1.0000
v 0.901100 1.010000 0.022103 1.0000 1.0000 1.0000
v 0.877627 0.857190 -0.024025 1.0000 1.0000 1.0000
v 0.888023 0.857190 0.024882 1.0000 1.0000 1.0000
v 0.838794 0.709022 -0.015771 1.0000 1.0000 1.0000
v 0.849189 0.709022 0.033137 1.0000 1.0000 1.0000
v 0.775383 0.570000 -0.002292 1.0000 1.0000 1.0000
v 0.785779 0.570000 0.046615 1.0000 1.0000 1.0000
v 0.689322 0.444347 0.016000 1.0000 1.0000 1.0000
v 0.699718 0.444347 0.064908 1.0000 1.0000 1.0000
v 0.583227 0.335881 0.038552 1.0000 1.0000 1.0000
v 0.593622 0.335881 0.087459 1.0000 1.0000 1.0000
v 0.460319 0.247898 0.064676 1.0000 1.0000 1.0000
v 0.470715 0.247898 0.113584 1.0000 1.0000 1.0000
v 0.324335 0.183070 0.093581 1.0000 1.0000 1.0000
v 0.334731 0.183070 0.142488 1.0000 1.0000 1.0000
v 0.179406 0.143369 0.124387 1.0000 1.0000 1.0000
v 0.189801 0.143369 0.173294 1.0000 1.0000 1.0000
v 0.029934 0.130000 0.156158 1.0000 1.0000 1.0000
v 0.040330 0.130000 0.205065 1.0000 1.0000 1.0000
v -0.119537 0.143369 0.187929 1.0000 1.0000 1.0000
v -0.109141 0.143369 0.236836 1.0000 1.0000 1.0000
v -0.264466 0.183070 0.218734 1.0000 1.0000 1.0000
v -0.254071 0.183070 0.267642 1.0000 1.0000 1.0000
v -0.400450 0.247898 0.247639 1.0000 1.0000 1.0000
v -0.390055 0.247898 0.296546 1.0000 1.0000 1.0000
v -0.523358 0.335881 0.273764 1.0000 1.0000 1.0000
v -0.512962 0.335881 0.322671 1.0000 1.0000 1.0000
v -0.629454 0.444347 0.296315 1.0000 1.0000 1.0000
v -0.619058 0.444347 0.345222 1.0000 1.0000 1.0000
v -0.715514 0.570000 0.314608 1.0000 1.0000 1.0000
v -0.705119 0.570000 0.363515 1.0000 1.0000 1.0000
v -0.778925 0.709022 0.328086 1.0000 1.0000 1.0000
v -0.768529 0.709022 0.376993 1.0000 1.0000 1.0000
v -0.817758 0.857190 0.336340 1.0000 1.0000 1.0000
v -0.807363 0.857190 0.385248 1.0000 1.0000 1.0000
v -0.830835 1.010000 0.339120 1.0000 1.0000 1.0000
v -0.820440 1.010000 0.388027 1.0000 1.0000 1.0000
v -0.817758 1.162810 0.336340 1.0000 1.0000 1.0000
v -0.807363 1.162810 0.385248 1.0000 1.0000 1.0000
v -0.778925 1.310978 0.328086 1.0000 1.0000 1.0000
v -0.768529 1.310978 0.376993 1.0000 1.0000 1.0000
v -0.715514 1.450000 0.314608 1.0000 1.0000 1.0000
v -0.705119 1.450000 0.363515 1.0000 1.0000 1.0000
v -0.629454 1.575653 0.296315 1.0000 1.0000 1.0000
v -0.619058 1.575653 0.345222 1.0000 1.0000 1.0000
v -0.523358 1.684119 0.273764 1.0000 1.0000 1.0000
v -0.512962 1.684119 0.322671 1.0000 1.0000 1.0000
v -0.400450 1.772102 0.247639 1.0000 1.0000 1.0000
v -0.390055 1.772102 0.296546 1.0000 1.0000 1.0000
v -0.264466 1.836930 0.218734 1.0000 1.0000 1.0000
v -0.254071 1.836930 0.267642 1.0000 1.0000 1.0000
v -0.119537 1.876631 0.187929 1.0000 1.0000 1.0000
v -0.109141 1.876631 0.236836 1.0000 1.0000 1.0000
v 0.044488 1.010000 0.224628 0.6197 0.9411 0.7843
v 0.044488 1.790000 0.224628 0.6197 0.9411 0.7843
v 0.241956 1.763422 0.182655 0.6197 0.9411 0.7843
v 0.425966 1.685500 0.143542 0.6197 0.9411 0.7843
v 0.583979 1.561543 0.109956 0.6197 0.9411 0.7843
v 0.705227 1.400000 0.084184 0.6197 0.9411 0.7843
v 0.781446 1.211879 0.067983 0.6197 0.9411 0.7843
v 0.807443 1.010000 0.062457 0.6197 0.9411 0.7843
v 0.781446 0.808121 0.067983 0.6197 0.9411 0.7843
v 0.705227 0.620000 0.084184 0.6197 0.9411 0.7843
v 0.040330 1.010000 0.205065 0.6197 0.9411 0.7843
v 0.040330 1.790000 0.205065 0.6197 0.9411 0.7843
v 0.237797 1.763422 0.163092 0.6197 0.9411 0.7843
v 0.421808 1.685500 0.123979 0.6197 0.9411 0.7843
v 0.579821 1.561543 0.090393 0.6197 0.9411 0.7843
v 0.701069 1.400000 0.064621 0.6197 0.9411 0.7843
v 0.777288 1.211879 0.048420 0.6197 0.9411 0.7843
v 0.803285 1.010000 0.042894 0.6197 0.9411 0.7843
v 0.777288 0.808121 0.048420 0.6197 0.9411 0.7843
v 0.701069 0.620000 0.064621 0.6197 0.9411 0.7843
v 0.024193 1.650000 0.249389 0.1804 0.2078 0.3137
v 0.024193 1.810000 0.249389 0.1804 0.2078 0.3137
v 0.017955 1.650000 0.220044 0.1804 0.2078 0.3137
v 0.017955 1.810000 0.220044 0.1804 0.2078 0.3137
v 0.073100 1.650000 0.238993 0.1804 0.2078 0.3137
v 0.073100 1.810000 0.238993 0.1804 0.2078 0.3137
v 0.066863 1.650000 0.209649 0.1804 0.2078 0.3137
v 0.066863 1.810000 0.209649 0.1804 0.2078 0.3137
v 0.357594 1.607067 0.178522 0.1804 0.2078 0.3137
v 0.401610 1.685009 0.169166 0.1804 0.2078 0.3137
v 0.351356 1.607067 0.149178 0.1804 0.2078 0.3137
v 0.395373 1.685009 0.139822 0.1804 0.2078 0.3137
v 0.399949 1.582067 0.169519 0.1804 0.2078 0.3137
v 0.443966 1.660010 0.160163 0.1804 0.2078 0.3137
v 0.393712 1.582067 0.140175 0.1804 0.2078 0.3137
v 0.437728 1.660010 0.130819 0.1804 0.2078 0.3137
v 0.608213 1.369151 0.125251 0.1804 0.2078 0.3137
v 0.684452 1.414151 0.109046 0.1804 0.2078 0.3137
v 0.601975 1.369151 0.095907 0.1804 0.2078 0.3137
v 0.678214 1.414151 0.079702 0.1804 0.2078 0.3137
v 0.632666 1.325849 0.120054 0.1804 0.2078 0.3137
v 0.708905 1.370849 0.103849 0.1804 0.2078 0.3137
v 0.626429 1.325849 0.090709 0.1804 0.2078 0.3137
v 0.702668 1.370849 0.074504 0.1804 0.2078 0.3137
v 0.674661 1.035000 0.111127 0.1804 0.2078 0.3137
v 0.831165 1.035000 0.077862 0.1804 0.2078 0.3137
v 0.668424 1.035000 0.081783 0.1804 0.2078 0.3137
v 0.824927 1.035000 0.048517 0.1804 0.2078 0.3137
v 0.674661 0.985000 0.111127 0.1804 0.2078 0.3137
v 0.831165 0.985000 0.077862 0.1804 0.2078 0.3137
v 0.668424 0.985000 0.081783 0.1804 0.2078 0.3137
v 0.824927 0.985000 0.048517 0.1804 0.2078 0.3137
v 0.632666 0.694151 0.120054 0.1804 0.2078 0.3137
v 0.708905 0.649151 0.103849 0.1804 0.2078 0.3137
v 0.626429 0.694151 0.090709 0.1804 0.2078 0.3137
v 0.702668 0.649151 0.074504 0.1804 0.2078 0.3137
v 0.608213 0.650849 0.125251 0.1804 0.2078 0.3137
v 0.684452 0.605849 0.109046 0.1804 0.2078 0.3137
v 0.601975 0.650849 0.095907 0.1804 0.2078 0.3137
v 0.678214 0.605849 0.079702 0.1804 0.2078 0.3137
v 0.399949 0.437933 0.169519 0.1804 0.2078 0.3137
v 0.443966 0.359991 0.160163 0.1804 0.2078 0.3137
v 0.393712 0.437933 0.140175 0.1804 0.2078 0.3137
v 0.437728 0.359991 0.130819 0.1804 0.2078 0.3137
v 0.357594 0.412933 0.178522 0.1804 0.2078 0.3137
v 0.401610 0.334991 0.169166 0.1804 0.2078 0.3137
v 0.351356 0.412933 0.149178 0.1804 0.2078 0.3137
v 0.395373 0.334991 0.139822 0.1804 0.2078 0.3137
v 0.073100 0.370000 0.238993 0.1804 0.2078 0.3137
v 0.073100 0.210000 0.238993 0.1804 0.2078 0.3137
v 0.066863 0.370000 0.209649 0.1804 0.2078 0.3137
v 0.066863 0.210000 0.209649 0.1804 0.2078 0.3137
v 0.024193 0.370000 0.249389 0.1804 0.2078 0.3137
v 0.024193 0.210000 0.249389 0.1804 0.2078 0.3137
v 0.017955 0.370000 0.220044 0.1804 0.2078 0.3137
v 0.017955 0.210000 0.220044 0.1804 0.2078 0.3137
v -0.260301 0.412933 0.309860 0.1804 0.2078 0.3137
v -0.304317 0.334991 0.319216 0.1804 0.2078 0.3137
v -0.266538 0.412933 0.280515 0.1804 0.2078 0.3137
v -0.310555 0.334991 0.289871 0.1804 0.2078 0.3137
v -0.302656 0.437933 0.318863 0.1804 0.2078 0.3137
v -0.346673 0.359991 0.328219 0.1804 0.2078 0.3137
v -0.308893 0.437933 0.289518 0.1804 0.2078 0.3137
v -0.352910 0.359991 0.298874 0.1804 0.2078 0.3137
v -0.510920 0.650849 0.363130 0.1804 0.2078 0.3137
v -0.587159 0.605849 0.379335 0.1804 0.2078 0.3137
v -0.517157 0.650849 0.333786 0.1804 0.2078 0.3137
v -0.593396 0.605849 0.349991 0.1804 0.2078 0.3137
v -0.535373 0.694151 0.368328 0.1804 0.2078 0.3137
v -0.611612 0.649151 0.384533 0.1804 0.2078 0.3137
v -0.541611 0.694151 0.338984 0.1804 0.2078 0.3137
v -0.617850 0.649151 0.355189 0.1804 0.2078 0.3137
v -0.577368 0.985000 0.377254 0.1804 0.2078 0.3137
v -0.733872 0.985000 0.410520 0.1804 0.2078 0.3137
v -0.583605 0.985000 0.347910 0.1804 0.2078 0.3137
v -0.740109 0.985000 0.381176 0.1804 0.2078 0.3137
v -0.577368 1.035000 0.377254 0.1804 0.2078 0.3137
v -0.733872 1.035000 0.410520 0.1804 0.2078 0.3137
v -0.583605 1.035000 0.347910 0.1804 0.2078 0.3137
v -0.740109 1.035000 0.381176 0.1804 0.2078 0.3137
v -0.535373 1.325849 0.368328 0.1804 0.2078 0.3137
v -0.611612 1.370849 0.384533 0.1804 0.2078 0.3137
v -0.541611 1.325849 0.338984 0.1804 0.2078 0.3137
v -0.617850 1.370849 0.355189 0.1804 0.2078 0.3137
v -0.510920 1.369151 0.363130 0.1804 0.2078 0.3137
v -0.587159 1.414151 0.379335 0.1804 0.2078 0.3137
v -0.517157 1.369151 0.333786 0.1804 0.2078 0.3137
v -0.593396 1.414151 0.349991 0.1804 0.2078 0.3137
v -0.302656 1.582067 0.318863 0.1804 0.2078 0.3137
v -0.346673 1.660010 0.328219 0.1804 0.2078 0.3137
v -0.308893 1.582067 0.289518 0.1804 0.2078 0.3137
v -0.352910 1.660010 0.298874 0.1804 0.2078 0.3137
v -0.260301 1.607067 0.309860 0.1804 0.2078 0.3137
v -0.304317 1.685009 0.319216 0.1804 0.2078 0.3137
v -0.266538 1.607067 0.280515 0.1804 0.2078 0.3137
v -0.310555 1.685009 0.289871 0.1804 0.2078 0.3137
v 0.050130 1.376651 0.254099 0.8470 0.2275 0.1804
v 0.060680 1.371651 0.262080 0.8470 0.2275 0.1804
v 0.063492 1.380311 0.251259 0.8470 0.2275 0.1804
v 0.636709 1.031651 0.139641 0.8470 0.2275 0.1804
v 0.643101 1.026651 0.128059 0.8470 0.2275 0.1804
v 0.639520 1.040311 0.128820 0.8470 0.2275 0.1804
v 0.048051 1.376651 0.244318 0.8470 0.2275 0.1804
v 0.061413 1.380311 0.241477 0.8470 0.2275 0.1804
v 0.054443 1.371651 0.232735 0.8470 0.2275 0.1804
v 0.641021 1.026651 0.118278 0.8470 0.2275 0.1804
v 0.630471 1.031651 0.110297 0.8470 0.2275 0.1804
v 0.637441 1.040311 0.119039 0.8470 0.2275 0.1804
v 0.025676 1.333349 0.259297 0.8470 0.2275 0.1804
v 0.029257 1.319689 0.258536 0.8470 0.2275 0.1804
v 0.036226 1.328349 0.267278 0.8470 0.2275 0.1804
v 0.618647 0.983349 0.133257 0.8470 0.2275 0.1804
v 0.612255 0.988349 0.144839 0.8470 0.2275 0.1804
v 0.605285 0.979689 0.136097 0.8470 0.2275 0.1804
v 0.023597 1.333349 0.249515 0.8470 0.2275 0.1804
v 0.029989 1.328349 0.237933 0.8470 0.2275 0.1804
v 0.027178 1.319689 0.248754 0.8470 0.2275 0.1804
v 0.616568 0.983349 0.123476 0.8470 0.2275 0.1804
v 0.603206 0.979689 0.126316 0.8470 0.2275 0.1804
v 0.606018 0.988349 0.115495 0.8470 0.2275 0.1804
v 0.030203 0.983135 0.258335 0.1804 0.2078 0.3137
v 0.027392 0.991795 0.269156 0.1804 0.2078 0.3137
v 0.016842 0.986795 0.261175 0.1804 0.2078 0.3137
v -0.168238 1.338205 0.310738 0.1804 0.2078 0.3137
v -0.175208 1.346865 0.301996 0.1804 0.2078 0.3137
v -0.178788 1.333205 0.302757 0.1804 0.2078 0.3137
v 0.028124 0.983135 0.248553 0.1804 0.2078 0.3137
v 0.014762 0.986795 0.251393 0.1804 0.2078 0.3137
v 0.021154 0.991795 0.239811 0.1804 0.2078 0.3137
v -0.177287 1.346865 0.292215 0.1804 0.2078 0.3137
v -0.174475 1.338205 0.281393 0.1804 0.2078 0.3137
v -0.180867 1.333205 0.292976 0.1804 0.2078 0.3137
v 0.081029 1.013135 0.247531 0.1804 0.2078 0.3137
v 0.084610 1.026795 0.246770 0.1804 0.2078 0.3137
v 0.078218 1.021795 0.258352 0.1804 0.2078 0.3137
v -0.124382 1.376865 0.291193 0.1804 0.2078 0.3137
v -0.117412 1.368205 0.299935 0.1804 0.2078 0.3137
v -0.111020 1.373205 0.288352 0.1804 0.2078 0.3137
v 0.078950 1.013135 0.237750 0.1804 0.2078 0.3137
v 0.071980 1.021795 0.229008 0.1804 0.2078 0.3137
v 0.082531 1.026795 0.236989 0.1804 0.2078 0.3137
v -0.126461 1.376865 0.281411 0.1804 0.2078 0.3137
v -0.113099 1.373205 0.278571 0.1804 0.2078 0.3137
v -0.123649 1.368205 0.270590 0.1804 0.2078 0.3137
v 0.047607 1.090000 0.239300 0.1804 0.2078 0.3137
v 0.060082 1.090000 0.297989 0.1804 0.2078 0.3137
v 0.093602 1.074721 0.229524 0.1804 0.2078 0.3137
v 0.106077 1.074721 0.288212 0.1804 0.2078 0.3137
v 0.122029 1.034721 0.223481 0.1804 0.2078 0.3137
v 0.134504 1.034721 0.282170 0.1804 0.2078 0.3137
v 0.122029 0.985279 0.223481 0.1804 0.2078 0.3137
v 0.134504 0.985279 0.282170 0.1804 0.2078 0.3137
v 0.093602 0.945279 0.229524 0.1804 0.2078 0.3137
v 0.106077 0.945279 0.288212 0.1804 0.2078 0.3137
v 0.047607 0.930000 0.239300 0.1804 0.2078 0.3137
v 0.060082 0.930000 0.297989 0.1804 0.2078 0.3137
v 0.001612 0.945279 0.249077 0.1804 0.2078 0.3137
v 0.014086 0.945279 0.307766 0.1804 0.2078 0.3137
v -0.026815 0.985279 0.255119 0.1804 0.2078 0.3137
v -0.014340 0.985279 0.313808 0.1804 0.2078 0.3137
v -0.026815 1.034721 0.255119 0.1804 0.2078 0.3137
v -0.014340 1.034721 0.313808 0.1804 0.2078 0.3137
v 0.001612 1.074721 0.249077 0.1804 0.2078 0.3137
v 0.014086 1.074721 0.307766 0.1804 0.2078 0.3137
v -0.041795 1.980000 -0.181303 0.7216 0.7608 0.8000
v -0.041795 2.280000 -0.181303 0.7216 0.7608 0.8000
v 0.035744 1.980000 -0.177240 0.7216 0.7608 0.8000
v 0.035744 2.280000 -0.177240 0.7216 0.7608 0.8000
v 0.100863 1.980000 -0.134951 0.7216 0.7608 0.8000
v 0.100863 2.280000 -0.134951 0.7216 0.7608 0.8000
v 0.136114 1.980000 -0.065768 0.7216 0.7608 0.8000
v 0.136114 2.280000 -0.065768 0.7216 0.7608 0.8000
v 0.132050 1.980000 0.011771 0.7216 0.7608 0.8000
v 0.132050 2.280000 0.011771 0.7216 0.7608 0.8000
v 0.089761 1.980000 0.076891 0.7216 0.7608 0.8000
v 0.089761 2.280000 0.076891 0.7216 0.7608 0.8000
v 0.020578 1.980000 0.112141 0.7216 0.7608 0.8000
v 0.020578 2.280000 0.112141 0.7216 0.7608 0.8000
v -0.056961 1.980000 0.108077 0.7216 0.7608 0.8000
v -0.056961 2.280000 0.108077 0.7216 0.7608 0.8000
v -0.122080 1.980000 0.065788 0.7216 0.7608 0.8000
v -0.122080 2.280000 0.065788 0.7216 0.7608 0.8000
v -0.157330 1.980000 -0.003394 0.7216 0.7608 0.8000
v -0.157330 2.280000 -0.003394 0.7216 0.7608 0.8000
v -0.153267 1.980000 -0.080934 0.7216 0.7608 0.8000
v -0.153267 2.280000 -0.080934 0.7216 0.7608 0.8000
v -0.110978 1.980000 -0.146053 0.7216 0.7608 0.8000
v -0.110978 2.280000 -0.146053 0.7216 0.7608 0.8000
v -0.058268 2.250000 -0.258800 0.8470 0.2275 0.1804
v -0.064665 2.280000 -0.288900 0.8470 0.2275 0.1804
v -0.062791 2.258786 -0.280084 0.8470 0.2275 0.1804
v -0.058268 2.410000 -0.258800 0.8470 0.2275 0.1804
v -0.064665 2.380000 -0.288900 0.8470 0.2275 0.1804
v -0.062791 2.401213 -0.280084 0.8470 0.2275 0.1804
v 0.043737 2.250000 -0.257274 0.8470 0.2275 0.1804
v 0.051033 2.280000 -0.287169 0.8470 0.2275 0.1804
v 0.048896 2.258786 -0.278413 0.8470 0.2275 0.1804
v 0.043737 2.410000 -0.257274 0.8470 0.2275 0.1804
v 0.051033 2.380000 -0.287169 0.8470 0.2275 0.1804
v 0.048896 2.401213 -0.278413 0.8470 0.2275 0.1804
v 0.134978 2.250000 -0.211641 0.8470 0.2275 0.1804
v 0.154522 2.280000 -0.235410 0.8470 0.2275 0.1804
v 0.148798 2.258786 -0.228448 0.8470 0.2275 0.1804
v 0.134978 2.410000 -0.211641 0.8470 0.2275 0.1804
v 0.154522 2.380000 -0.235410 0.8470 0.2275 0.1804
v 0.148798 2.401213 -0.228448 0.8470 0.2275 0.1804
v 0.197384 2.250000 -0.130939 0.8470 0.2275 0.1804
v 0.225305 2.280000 -0.143874 0.8470 0.2275 0.1804
v 0.217127 2.258786 -0.140085 0.8470 0.2275 0.1804
v 0.197384 2.410000 -0.130939 0.8470 0.2275 0.1804
v 0.225305 2.380000 -0.143874 0.8470 0.2275 0.1804
v 0.217127 2.401213 -0.140085 0.8470 0.2275 0.1804
v 0.218595 2.250000 -0.031152 0.8470 0.2275 0.1804
v 0.249363 2.280000 -0.030692 0.8470 0.2275 0.1804
v 0.240351 2.258786 -0.030827 0.8470 0.2275 0.1804
v 0.218595 2.410000 -0.031152 0.8470 0.2275 0.1804
v 0.249363 2.380000 -0.030692 0.8470 0.2275 0.1804
v 0.240351 2.401213 -0.030827 0.8470 0.2275 0.1804
v 0.194408 2.250000 0.067956 0.8470 0.2275 0.1804
v 0.221930 2.280000 0.081720 0.8470 0.2275 0.1804
v 0.213869 2.258786 0.077689 0.8470 0.2275 0.1804
v 0.194408 2.410000 0.067956 0.8470 0.2275 0.1804
v 0.221930 2.380000 0.081720 0.8470 0.2275 0.1804
v 0.213869 2.401213 0.077689 0.8470 0.2275 0.1804
v 0.129616 2.250000 0.146755 0.8470 0.2275 0.1804
v 0.148440 2.280000 0.171097 0.8470 0.2275 0.1804
v 0.142927 2.258786 0.163968 0.8470 0.2275 0.1804
v 0.129616 2.410000 0.146755 0.8470 0.2275 0.1804
v 0.148440 2.380000 0.171097 0.8470 0.2275 0.1804
v 0.142927 2.401213 0.163968 0.8470 0.2275 0.1804
v 0.037051 2.250000 0.189638 0.8470 0.2275 0.1804
v 0.043449 2.280000 0.219737 0.8470 0.2275 0.1804
v 0.041575 2.258786 0.210921 0.8470 0.2275 0.1804
v 0.037051 2.410000 0.189638 0.8470 0.2275 0.1804
v 0.043449 2.380000 0.219737 0.8470 0.2275 0.1804
v 0.041575 2.401213 0.210921 0.8470 0.2275 0.1804
v -0.064954 2.250000 0.188112 0.8470 0.2275 0.1804
v -0.072249 2.280000 0.218006 0.8470 0.2275 0.1804
v -0.070112 2.258786 0.209250 0.8470 0.2275 0.1804
v -0.064954 2.410000 0.188112 0.8470 0.2275 0.1804
v -0.072249 2.380000 0.218006 0.8470 0.2275 0.1804
v -0.070112 2.401213 0.209250 0.8470 0.2275 0.1804
v -0.156195 2.250000 0.142479 0.8470 0.2275 0.1804
v -0.175738 2.280000 0.166247 0.8470 0.2275 0.1804
v -0.170014 2.258786 0.159286 0.8470 0.2275 0.1804
v -0.156195 2.410000 0.142479 0.8470 0.2275 0.1804
v -0.175738 2.380000 0.166247 0.8470 0.2275 0.1804
v -0.170014 2.401213 0.159286 0.8470 0.2275 0.1804
v -0.218601 2.250000 0.061777 0.8470 0.2275 0.1804
v -0.246522 2.280000 0.074712 0.8470 0.2275 0.1804
v -0.238344 2.258786 0.070923 0.8470 0.2275 0.1804
v -0.218601 2.410000 0.061777 0.8470 0.2275 0.1804
v -0.246522 2.380000 0.074712 0.8470 0.2275 0.1804
v -0.238344 2.401213 0.070923 0.8470 0.2275 0.1804
v -0.239811 2.250000 -0.038010 0.8470 0.2275 0.1804
v -0.270579 2.280000 -0.038471 0.8470 0.2275 0.1804
v -0.261567 2.258786 -0.038336 0.8470 0.2275 0.1804
v -0.239811 2.410000 -0.038010 0.8470 0.2275 0.1804
v -0.270579 2.380000 -0.038471 0.8470 0.2275 0.1804
v -0.261567 2.401213 -0.038336 0.8470 0.2275 0.1804
v -0.215625 2.250000 -0.137118 0.8470 0.2275 0.1804
v -0.243146 2.280000 -0.150883 0.8470 0.2275 0.1804
v -0.235086 2.258786 -0.146851 0.8470 0.2275 0.1804
v -0.215625 2.410000 -0.137118 0.8470 0.2275 0.1804
v -0.243146 2.380000 -0.150883 0.8470 0.2275 0.1804
v -0.235086 2.401213 -0.146851 0.8470 0.2275 0.1804
v -0.150833 2.250000 -0.215917 0.8470 0.2275 0.1804
v -0.169657 2.280000 -0.240260 0.8470 0.2275 0.1804
v -0.164143 2.258786 -0.233130 0.8470 0.2275 0.1804
v -0.150833 2.410000 -0.215917 0.8470 0.2275 0.1804
v -0.169657 2.380000 -0.240260 0.8470 0.2275 0.1804
v -0.164143 2.401213 -0.233130 0.8470 0.2275 0.1804
v 0.233929 2.570000 -0.086559 0.7216 0.7608 0.8000
v 0.201167 2.695000 -0.079595 0.7216 0.7608 0.8000
v 0.111660 2.786506 -0.060570 0.7216 0.7608 0.8000
v -0.010608 2.820000 -0.034581 0.7216 0.7608 0.8000
v -0.132877 2.786506 -0.008592 0.7216 0.7608 0.8000
v -0.222383 2.695000 0.010433 0.7216 0.7608 0.8000
v -0.255145 2.570000 0.017397 0.7216 0.7608 0.8000
v -0.222383 2.445000 0.010433 0.7216 0.7608 0.8000
v -0.132877 2.353494 -0.008592 0.7216 0.7608 0.8000
v -0.010608 2.320000 -0.034581 0.7216 0.7608 0.8000
v 0.111660 2.353494 -0.060570 0.7216 0.7608 0.8000
v 0.201167 2.445000 -0.079595 0.7216 0.7608 0.8000
v 0.210021 2.570000 -0.032862 0.7216 0.7608 0.8000
v 0.181787 2.677725 -0.026861 0.7216 0.7608 0.8000
v 0.104650 2.756586 -0.010465 0.7216 0.7608 0.8000
v -0.000722 2.785451 0.011933 0.7216 0.7608 0.8000
v -0.106093 2.756586 0.034330 0.7216 0.7608 0.8000
v -0.183230 2.677725 0.050726 0.7216 0.7608 0.8000
v -0.211464 2.570000 0.056727 0.7216 0.7608 0.8000
v -0.183230 2.462275 0.050726 0.7216 0.7608 0.8000
v -0.106093 2.383414 0.034330 0.7216 0.7608 0.8000
v -0.000722 2.354549 0.011933 0.7216 0.7608 0.8000
v 0.104650 2.383414 -0.010465 0.7216 0.7608 0.8000
v 0.181787 2.462275 -0.026861 0.7216 0.7608 0.8000
v 0.151565 2.570000 -0.039006 0.7216 0.7608 0.8000
v 0.130656 2.649775 -0.034562 0.7216 0.7608 0.8000
v 0.073533 2.708174 -0.022420 0.7216 0.7608 0.8000
v -0.004498 2.729549 -0.005834 0.7216 0.7608 0.8000
v -0.082529 2.708174 0.010752 0.7216 0.7608 0.8000
v -0.139652 2.649775 0.022894 0.7216 0.7608 0.8000
v -0.160561 2.570000 0.027338 0.7216 0.7608 0.8000
v -0.139652 2.490225 0.022894 0.7216 0.7608 0.8000
v -0.082529 2.431826 0.010752 0.7216 0.7608 0.8000
v -0.004498 2.410451 -0.005834 0.7216 0.7608 0.8000
v 0.073533 2.431826 -0.022420 0.7216 0.7608 0.8000
v 0.130656 2.490225 -0.034562 0.7216 0.7608 0.8000
v 0.139344 2.570000 -0.096500 0.7216 0.7608 0.8000
v 0.118436 2.649775 -0.092056 0.7216 0.7608 0.8000
v 0.061313 2.708174 -0.079914 0.7216 0.7608 0.8000
v -0.016719 2.729549 -0.063328 0.7216 0.7608 0.8000
v -0.094750 2.708174 -0.046742 0.7216 0.7608 0.8000
v -0.151873 2.649775 -0.034600 0.7216 0.7608 0.8000
v -0.172781 2.570000 -0.030156 0.7216 0.7608 0.8000
v -0.151873 2.490225 -0.034600 0.7216 0.7608 0.8000
v -0.094750 2.431826 -0.046742 0.7216 0.7608 0.8000
v -0.016719 2.410451 -0.063328 0.7216 0.7608 0.8000
v 0.061313 2.431826 -0.079914 0.7216 0.7608 0.8000
v 0.118436 2.490225 -0.092056 0.7216 0.7608 0.8000
v 0.190248 2.570000 -0.125890 0.7216 0.7608 0.8000
v 0.162013 2.677725 -0.119888 0.7216 0.7608 0.8000
v 0.084876 2.756586 -0.103492 0.7216 0.7608 0.8000
v -0.020495 2.785451 -0.081095 0.7216 0.7608 0.8000
v -0.125866 2.756586 -0.058697 0.7216 0.7608 0.8000
v -0.203004 2.677725 -0.042301 0.7216 0.7608 0.8000
v -0.231238 2.570000 -0.036300 0.7216 0.7608 0.8000
v -0.203004 2.462275 -0.042301 0.7216 0.7608 0.8000
v -0.125866 2.383414 -0.058697 0.7216 0.7608 0.8000
v -0.020495 2.354549 -0.081095 0.7216 0.7608 0.8000
v 0.084876 2.383414 -0.103492 0.7216 0.7608 0.8000
v 0.162013 2.462275 -0.119888 0.7216 0.7608 0.8000
v -0.698710 1.692218 0.009445 0.8470 0.2275 0.1804
v -0.850874 1.847782 0.041789 0.8470 0.2275 0.1804
v -0.654085 1.733781 0.019485 0.8470 0.2275 0.1804
v -0.806249 1.889344 0.051828 0.8470 0.2275 0.1804
v -0.618563 1.759468 0.063052 0.8470 0.2275 0.1804
v -0.770727 1.915032 0.095395 0.8470 0.2275 0.1804
v -0.605713 1.759468 0.123504 0.8470 0.2275 0.1804
v -0.757877 1.915032 0.155848 0.8470 0.2275 0.1804
v -0.620444 1.733781 0.177752 0.8470 0.2275 0.1804
v -0.772608 1.889344 0.210096 0.8470 0.2275 0.1804
v -0.657127 1.692218 0.205075 0.8470 0.2275 0.1804
v -0.809291 1.847782 0.237418 0.8470 0.2275 0.1804
v -0.701752 1.650656 0.195035 0.8470 0.2275 0.1804
v -0.853917 1.806219 0.227379 0.8470 0.2275 0.1804
v -0.737274 1.624968 0.151468 0.8470 0.2275 0.1804
v -0.889438 1.780532 0.183812 0.8470 0.2275 0.1804
v -0.750124 1.624968 0.091016 0.8470 0.2275 0.1804
v -0.902288 1.780532 0.123359 0.8470 0.2275 0.1804
v -0.735393 1.650656 0.036768 0.8470 0.2275 0.1804
v -0.887557 1.806219 0.069111 0.8470 0.2275 0.1804
v 0.635911 1.692218 -0.274237 0.8470 0.2275 0.1804
v 0.788075 1.847782 -0.306581 0.8470 0.2275 0.1804
v 0.680536 1.650656 -0.264197 0.8470 0.2275 0.1804
v 0.832700 1.806219 -0.296541 0.8470 0.2275 0.1804
v 0.716057 1.624968 -0.220631 0.8470 0.2275 0.1804
v 0.868221 1.780532 -0.252974 0.8470 0.2275 0.1804
v 0.728907 1.624968 -0.160178 0.8470 0.2275 0.1804
v 0.881071 1.780532 -0.192521 0.8470 0.2275 0.1804
v 0.714177 1.650656 -0.105930 0.8470 0.2275 0.1804
v 0.866341 1.806219 -0.138273 0.8470 0.2275 0.1804
v 0.677493 1.692218 -0.078608 0.8470 0.2275 0.1804
v 0.829657 1.847782 -0.110951 0.8470 0.2275 0.1804
v 0.632868 1.733781 -0.088647 0.8470 0.2275 0.1804
v 0.785032 1.889344 -0.120991 0.8470 0.2275 0.1804
v 0.597346 1.759468 -0.132214 0.8470 0.2275 0.1804
v 0.749510 1.915032 -0.164557 0.8470 0.2275 0.1804
v 0.584497 1.759468 -0.192667 0.8470 0.2275 0.1804
v 0.736661 1.915032 -0.225010 0.8470 0.2275 0.1804
v 0.599227 1.733781 -0.246915 0.8470 0.2275 0.1804
v 0.751391 1.889344 -0.279258 0.8470 0.2275 0.1804
vn -0.0403 0.9811 -0.1895
vn 0.1264 0.9662 -0.2249
vn 0.0770 0.9093 -0.4089
vn -0.0798 0.9234 -0.3755
vn -0.1922 0.3814 -0.9042
vn -0.1274 0.3756 -0.9180
vn -0.1687 0.2017 -0.9648
vn -0.2035 0.2048 -0.9574
vn 0.2069 0.9662 0.1540
vn 0.0403 0.9811 0.1895
vn 0.0798 0.9234 0.3755
vn 0.2367 0.9093 0.3422
vn 0.2570 0.3756 0.8904
vn 0.1922 0.3814 0.9042
vn 0.2035 0.2048 0.9574
vn 0.2383 0.2017 0.9500
vn 0.2879 0.9219 -0.2592
vn 0.2291 0.8677 -0.4412
vn -0.0646 0.3584 -0.9313
vn -0.1350 0.1924 -0.9720
vn 0.3685 0.9219 0.1197
vn 0.3887 0.8677 0.3099
vn 0.3198 0.3584 0.8771
vn 0.2720 0.1924 0.9429
vn 0.4395 0.8496 -0.2915
vn 0.3718 0.7997 -0.4715
vn -0.0056 0.3303 -0.9438
vn -0.1034 0.1773 -0.9787
vn 0.5201 0.8496 0.0875
vn 0.5314 0.7997 0.2796
vn 0.3787 0.3303 0.8645
vn 0.3037 0.1773 0.9361
vn 0.5766 0.7515 -0.3206
vn 0.5007 0.7073 -0.4989
vn 0.0476 0.2922 -0.9552
vn -0.0748 0.1569 -0.9848
vn 0.6571 0.7515 0.0584
vn 0.6604 0.7073 0.2521
vn 0.4320 0.2922 0.8532
vn 0.3323 0.1569 0.9301
vn 0.6948 0.6306 -0.3457
vn 0.6121 0.5935 -0.5226
vn 0.0936 0.2452 -0.9649
vn -0.0501 0.1316 -0.9900
vn 0.7754 0.6306 0.0332
vn 0.7717 0.5935 0.2285
vn 0.4780 0.2452 0.8434
vn 0.3569 0.1316 0.9248
vn 0.7908 0.4905 -0.3661
vn 0.7024 0.4617 -0.5418
vn 0.1309 0.1907 -0.9729
vn -0.0300 0.1024 -0.9943
vn 0.8713 0.4905 0.0128
vn 0.8620 0.4617 0.2093
vn 0.5153 0.1907 0.8355
vn 0.3770 0.1024 0.9205
vn 0.8615 0.3355 -0.3811
vn 0.7689 0.3158 -0.5559
vn 0.1584 0.1305 -0.9787
vn -0.0153 0.0700 -0.9974
vn 0.9420 0.3355 -0.0022
vn 0.9285 0.3158 0.1951
vn 0.5428 0.1305 0.8297
vn 0.3917 0.0700 0.9174
vn 0.9048 0.1704 -0.3903
vn 0.8096 0.1603 -0.5646
vn 0.1752 0.0662 -0.9823
vn -0.0062 0.0356 -0.9993
vn 0.9853 0.1704 -0.0114
vn 0.9693 0.1603 0.1865
vn 0.5596 0.0662 0.8261
vn 0.4008 0.0356 0.9155
vn 0.9193 -0.0000 -0.3934
vn 0.8234 -0.0000 -0.5675
vn 0.1809 -0.0000 -0.9835
vn -0.0032 -0.0000 -1.0000
vn 0.9999 -0.0000 -0.0145
vn 0.9830 -0.0000 0.1836
vn 0.5653 -0.0000 0.8249
vn 0.4038 -0.0000 0.9148
vn 0.9048 -0.1704 -0.3903
vn 0.8096 -0.1603 -0.5646
vn 0.1752 -0.0662 -0.9823
vn -0.0062 -0.0356 -0.9993
vn 0.9853 -0.1704 -0.0114
vn 0.9693 -0.1603 0.1865
vn 0.5596 -0.0662 0.8261
vn 0.4008 -0.0356 0.9155
vn 0.8615 -0.3355 -0.3811
vn 0.7689 -0.3158 -0.5559
vn 0.1584 -0.1305 -0.9787
vn -0.0153 -0.0700 -0.9974
vn 0.9420 -0.3355 -0.0022
vn 0.9285 -0.3158 0.1951
vn 0.5428 -0.1305 0.8297
vn 0.3917 -0.0700 0.9174
vn 0.7908 -0.4905 -0.3661
vn 0.7024 -0.4617 -0.5418
vn 0.1309 -0.1907 -0.9729
vn -0.0300 -0.1024 -0.9943
vn 0.8713 -0.4905 0.0128
vn 0.8620 -0.4617 0.2093
vn 0.5153 -0.1907 0.8355
vn 0.3770 -0.1024 0.9205
vn 0.6948 -0.6306 -0.3457
vn 0.6121 -0.5935 -0.5226
vn 0.0936 -0.2452 -0.9649
vn -0.0501 -0.1316 -0.9900
vn 0.7754 -0.6306 0.0332
vn 0.7717 -0.5935 0.2285
vn 0.4780 -0.2452 0.8434
vn 0.3569 -0.1316 0.9248
vn 0.5766 -0.7515 -0.3206
vn 0.5007 -0.7073 -0.4989
vn 0.0476 -0.2922 -0.9552
vn -0.0748 -0.1569 -0.9848
vn 0.6571 -0.7515 0.0584
vn 0.6604 -0.7073 0.2521
vn 0.4320 -0.2922 0.8532
vn 0.3323 -0.1569 0.9301
vn 0.4395 -0.8496 -0.2915
vn 0.3718 -0.7997 -0.4715
vn -0.0056 -0.3303 -0.9438
vn -0.1034 -0.1773 -0.9787
vn 0.5201 -0.8496 0.0875
vn 0.5314 -0.7997 0.2796
vn 0.3787 -0.3303 0.8645
vn 0.3037 -0.1773 0.9361
vn 0.2879 -0.9219 -0.2592
vn 0.2291 -0.8677 -0.4412
vn -0.0646 -0.3584 -0.9313
vn -0.1350 -0.1924 -0.9720
vn 0.3685 -0.9219 0.1197
vn 0.3887 -0.8677 0.3099
vn 0.3198 -0.3584 0.8771
vn 0.2720 -0.1924 0.9429
vn 0.1264 -0.9662 -0.2249
vn 0.0770 -0.9093 -0.4089
vn -0.1274 -0.3756 -0.9180
vn -0.1687 -0.2017 -0.9648
vn 0.2069 -0.9662 0.1540
vn 0.2367 -0.9093 0.3422
vn 0.2570 -0.3756 0.8904
vn 0.2383 -0.2017 0.9500
vn -0.0403 -0.9811 -0.1895
vn -0.0798 -0.9234 -0.3755
vn -0.1922 -0.3814 -0.9042
vn -0.2035 -0.2048 -0.9574
vn 0.0403 -0.9811 0.1895
vn 0.0798 -0.9234 0.3755
vn 0.1922 -0.3814 0.9042
vn 0.2035 -0.2048 0.9574
vn -0.2069 -0.9662 -0.1540
vn -0.2367 -0.9093 -0.3422
vn -0.2570 -0.3756 -0.8904
vn -0.2383 -0.2017 -0.9500
vn -0.1264 -0.9662 0.2249
vn -0.0770 -0.9093 0.4089
vn 0.1274 -0.3756 0.9180
vn 0.1687 -0.2017 0.9648
vn -0.3685 -0.9219 -0.1197
vn -0.3887 -0.8677 -0.3099
vn -0.3198 -0.3584 -0.8771
vn -0.2720 -0.1924 -0.9429
vn -0.2879 -0.9219 0.2592
vn -0.2291 -0.8677 0.4412
vn 0.0646 -0.3584 0.9313
vn 0.1350 -0.1924 0.9720
vn -0.5201 -0.8496 -0.0875
vn -0.5314 -0.7997 -0.2796
vn -0.3787 -0.3303 -0.8645
vn -0.3037 -0.1773 -0.9361
vn -0.4395 -0.8496 0.2915
vn -0.3718 -0.7997 0.4715
vn 0.0056 -0.3303 0.9438
vn 0.1034 -0.1773 0.9787
vn -0.6571 -0.7515 -0.0584
vn -0.6604 -0.7073 -0.2521
vn -0.4320 -0.2922 -0.8532
vn -0.3323 -0.1569 -0.9301
vn -0.5766 -0.7515 0.3206
vn -0.5007 -0.7073 0.4989
vn -0.0476 -0.2922 0.9552
vn 0.0748 -0.1569 0.9848
vn -0.7754 -0.6306 -0.0332
vn -0.7717 -0.5935 -0.2285
vn -0.4780 -0.2452 -0.8434
vn -0.3569 -0.1316 -0.9248
vn -0.6948 -0.6306 0.3457
vn -0.6121 -0.5935 0.5226
vn -0.0936 -0.2452 0.9649
vn 0.0501 -0.1316 0.9900
vn -0.8713 -0.4905 -0.0128
vn -0.8620 -0.4617 -0.2093
vn -0.5153 -0.1907 -0.8355
vn -0.3770 -0.1024 -0.9205
vn -0.7908 -0.4905 0.3661
vn -0.7024 -0.4617 0.5418
vn -0.1309 -0.1907 0.9729
vn 0.0300 -0.1024 0.9943
vn -0.9420 -0.3355 0.0022
vn -0.9285 -0.3158 -0.1951
vn -0.5428 -0.1305 -0.8297
vn -0.3917 -0.0700 -0.9174
vn -0.8615 -0.3355 0.3811
vn -0.7689 -0.3158 0.5559
vn -0.1584 -0.1305 0.9787
vn 0.0153 -0.0700 0.9974
vn -0.9853 -0.1704 0.0114
vn -0.9693 -0.1603 -0.1865
vn -0.5596 -0.0662 -0.8261
vn -0.4008 -0.0356 -0.9155
vn -0.9048 -0.1704 0.3903
vn -0.8096 -0.1603 0.5646
vn -0.1752 -0.0662 0.9823
vn 0.0062 -0.0356 0.9993
vn -0.9999 -0.0000 0.0145
vn -0.9830 -0.0000 -0.1836
vn -0.5653 -0.0000 -0.8249
vn -0.4038 -0.0000 -0.9148
vn -0.9193 -0.0000 0.3934
vn -0.8234 -0.0000 0.5675
vn -0.1809 -0.0000 0.9835
vn 0.0032 -0.0000 1.0000
vn -0.9853 0.1704 0.0114
vn -0.9693 0.1603 -0.1865
vn -0.5596 0.0662 -0.8261
vn -0.4008 0.0356 -0.9155
vn -0.9048 0.1704 0.3903
vn -0.8096 0.1603 0.5646
vn -0.1752 0.0662 0.9823
vn 0.0062 0.0356 0.9993
vn -0.9420 0.3355 0.0022
vn -0.9285 0.3158 -0.1951
vn -0.5428 0.1305 -0.8297
vn -0.3917 0.0700 -0.9174
vn -0.8615 0.3355 0.3811
vn -0.7689 0.3158 0.5559
vn -0.1584 0.1305 0.9787
vn 0.0153 0.0700 0.9974
vn -0.8713 0.4905 -0.0128
vn -0.8620 0.4617 -0.2093
vn -0.5153 0.1907 -0.8355
vn -0.3770 0.1024 -0.9205
vn -0.7908 0.4905 0.3661
vn -0.7024 0.4617 0.5418
vn -0.1309 0.1907 0.9729
vn 0.0300 0.1024 0.9943
vn -0.7754 0.6306 -0.0332
vn -0.7717 0.5935 -0.2285
vn -0.4780 0.2452 -0.8434
vn -0.3569 0.1316 -0.9248
vn -0.6948 0.6306 0.3457
vn -0.6121 0.5935 0.5226
vn -0.0936 0.2452 0.9649
vn 0.0501 0.1316 0.9900
vn -0.6571 0.7515 -0.0584
vn -0.6604 0.7073 -0.2521
vn -0.4320 0.2922 -0.8532
vn -0.3323 0.1569 -0.9301
vn -0.5766 0.7515 0.3206
vn -0.5007 0.7073 0.4989
vn -0.0476 0.2922 0.9552
vn 0.0748 0.1569 0.9848
vn -0.5201 0.8496 -0.0875
vn -0.5314 0.7997 -0.2796
vn -0.3787 0.3303 -0.8645
vn -0.3037 0.1773 -0.9361
vn -0.4395 0.8496 0.2915
vn -0.3718 0.7997 0.4715
vn 0.0056 0.3303 0.9438
vn 0.1034 0.1773 0.9787
vn -0.3685 0.9219 -0.1197
vn -0.3887 0.8677 -0.3099
vn -0.3198 0.3584 -0.8771
vn -0.2720 0.1924 -0.9429
vn -0.2879 0.9219 0.2592
vn -0.2291 0.8677 0.4412
vn 0.0646 0.3584 0.9313
vn 0.1350 0.1924 0.9720
vn -0.2069 0.9662 -0.1540
vn -0.2367 0.9093 -0.3422
vn -0.2570 0.3756 -0.8904
vn -0.2383 0.2017 -0.9500
vn -0.1264 0.9662 0.2249
vn -0.0770 0.9093 0.4089
vn 0.1274 0.3756 0.9180
vn 0.1687 0.2017 0.9648
vn 0.9511 -0.0000 0.3090
vn 0.9382 0.1504 0.3118
vn 0.9000 0.2962 0.3199
vn 0.8376 0.4330 0.3331
vn 0.7529 0.5567 0.3511
vn 0.6485 0.6634 0.3733
vn 0.5275 0.7500 0.3990
vn 0.3937 0.8138 0.4275
vn 0.2511 0.8529 0.4578
vn 0.1040 0.8660 0.4891
vn -0.0431 0.8529 0.5203
vn -0.1858 0.8138 0.5507
vn -0.3196 0.7500 0.5791
vn -0.4405 0.6634 0.6048
vn -0.4406 0.6634 0.6048
vn -0.5450 0.5567 0.6270
vn -0.6297 0.4330 0.6450
vn -0.6921 0.2962 0.6583
vn -0.7303 0.1504 0.6664
vn -0.7431 -0.0000 0.6691
vn -0.7303 -0.1504 0.6664
vn -0.6921 -0.2962 0.6583
vn -0.6297 -0.4330 0.6450
vn -0.5450 -0.5567 0.6270
vn -0.4405 -0.6634 0.6048
vn -0.3196 -0.7500 0.5791
vn -0.1858 -0.8138 0.5507
vn -0.0431 -0.8529 0.5203
vn 0.1040 -0.8660 0.4891
vn 0.2511 -0.8529 0.4578
vn 0.3937 -0.8138 0.4275
vn 0.5275 -0.7500 0.3990
vn 0.6485 -0.6634 0.3733
vn 0.7529 -0.5567 0.3511
vn 0.8376 -0.4330 0.3331
vn 0.9000 -0.2962 0.3199
vn 0.9382 -0.1504 0.3118
vn 0.2079 -0.0000 0.9781
vn -0.9511 -0.0000 -0.3090
vn -0.9382 -0.1504 -0.3118
vn -0.9000 -0.2962 -0.3199
vn -0.8376 -0.4330 -0.3331
vn -0.7529 -0.5567 -0.3511
vn -0.6485 -0.6634 -0.3733
vn -0.5275 -0.7500 -0.3990
vn -0.3937 -0.8138 -0.4275
vn -0.2511 -0.8529 -0.4578
vn -0.1040 -0.8660 -0.4891
vn 0.0431 -0.8529 -0.5203
vn 0.1858 -0.8138 -0.5507
vn 0.3196 -0.7500 -0.5791
vn 0.4405 -0.6634 -0.6048
vn 0.5450 -0.5567 -0.6270
vn 0.6297 -0.4330 -0.6450
vn 0.6921 -0.2962 -0.6583
vn 0.7303 -0.1504 -0.6664
vn 0.7431 -0.0000 -0.6691
vn 0.7303 0.1504 -0.6664
vn 0.6921 0.2962 -0.6583
vn 0.6297 0.4330 -0.6450
vn 0.5450 0.5567 -0.6270
vn 0.4405 0.6634 -0.6048
vn 0.3196 0.7500 -0.5791
vn 0.1858 0.8138 -0.5507
vn 0.0431 0.8529 -0.5203
vn -0.1040 0.8660 -0.4891
vn -0.2511 0.8529 -0.4578
vn -0.3937 0.8138 -0.4275
vn -0.5275 0.7500 -0.3990
vn -0.6485 0.6634 -0.3733
vn -0.7529 0.5567 -0.3511
vn -0.8376 0.4330 -0.3331
vn -0.9000 0.2962 -0.3199
vn -0.9382 0.1504 -0.3118
vn -0.2079 -0.0000 -0.9781
vn 0.4406 -0.6634 -0.6048
vn -0.0000 1.0000 -0.0000
vn 0.1699 0.9848 -0.0361
vn 0.3345 0.9397 -0.0711
vn 0.4891 0.8660 -0.1040
vn 0.6287 0.7660 -0.1336
vn 0.7493 0.6428 -0.1593
vn 0.8471 0.5000 -0.1801
vn 0.9192 0.3420 -0.1954
vn 0.9633 0.1736 -0.2048
vn 0.9781 -0.0000 -0.2079
vn 0.9633 -0.1736 -0.2048
vn 0.9192 -0.3420 -0.1954
vn 0.8471 -0.5000 -0.1801
vn 0.7493 -0.6428 -0.1593
vn 0.6287 -0.7660 -0.1336
vn 0.4891 -0.8660 -0.1040
vn 0.3345 -0.9397 -0.0711
vn 0.1699 -0.9848 -0.0361
vn -0.0000 -1.0000 -0.0000
vn -0.1699 -0.9848 0.0361
vn -0.3345 -0.9397 0.0711
vn -0.4891 -0.8660 0.1040
vn -0.6287 -0.7660 0.1336
vn -0.7493 -0.6428 0.1593
vn -0.8471 -0.5000 0.1801
vn -0.9192 -0.3420 0.1954
vn -0.9633 -0.1736 0.2048
vn -0.9781 -0.0000 0.2079
vn -0.9633 0.1736 0.2048
vn -0.9192 0.3420 0.1954
vn -0.8471 0.5000 0.1801
vn -0.7493 0.6428 0.1593
vn -0.6287 0.7660 0.1336
vn -0.4891 0.8660 0.1040
vn -0.3345 0.9397 0.0711
vn -0.1699 0.9848 0.0361
vn 0.1277 0.9914 -0.0271
vn 0.2532 0.9659 -0.0538
vn 0.6917 0.7071 -0.1470
vn 0.9448 0.2588 -0.2008
vn 0.9448 -0.2588 -0.2008
vn 0.9037 -0.3827 -0.1921
vn -0.3218 0.7783 0.5392
vn -0.0071 0.6291 0.7773
vn 0.0767 0.8874 0.4545
vn 0.7732 0.1686 0.6114
vn 0.9638 0.0195 0.2660
vn 0.8570 0.4269 0.2887
vn -0.5133 0.7783 -0.3617
vn -0.1148 0.8874 -0.4464
vn -0.3227 0.6291 -0.7072
vn 0.7723 0.0195 -0.6350
vn 0.4576 0.1686 -0.8730
vn 0.6655 0.4269 -0.6123
vn -0.7723 -0.0195 0.6350
vn -0.6655 -0.4269 0.6123
vn -0.4576 -0.1686 0.8730
vn 0.5133 -0.7783 0.3617
vn 0.3227 -0.6291 0.7072
vn 0.1148 -0.8874 0.4464
vn -0.9638 -0.0195 -0.2660
vn -0.7732 -0.1686 -0.6114
vn -0.8570 -0.4269 -0.2887
vn 0.3218 -0.7783 -0.5392
vn -0.0767 -0.8874 -0.4545
vn 0.0071 -0.6291 -0.7773
vn 0.0767 -0.8874 0.4545
vn -0.0071 -0.6291 0.7773
vn -0.3218 -0.7783 0.5392
vn -0.4576 0.1686 0.8730
vn -0.6655 0.4269 0.6123
vn -0.7723 0.0195 0.6350
vn -0.1148 -0.8874 -0.4465
vn -0.5133 -0.7783 -0.3618
vn -0.3227 -0.6291 -0.7072
vn -0.8570 0.4269 -0.2887
vn -0.7732 0.1686 -0.6114
vn -0.9638 0.0195 -0.2660
vn 0.8570 -0.4269 0.2887
vn 0.9638 -0.0195 0.2660
vn 0.7732 -0.1686 0.6114
vn 0.1148 0.8874 0.4465
vn 0.3227 0.6291 0.7072
vn 0.5133 0.7783 0.3617
vn 0.6655 -0.4269 -0.6123
vn 0.4576 -0.1686 -0.8730
vn 0.7723 -0.0195 -0.6350
vn -0.0767 0.8874 -0.4545
vn 0.3218 0.7783 -0.5392
vn 0.0071 0.6291 -0.7773
vn 0.5749 0.8090 -0.1222
vn 0.9303 0.3090 -0.1977
vn 0.9303 -0.3090 -0.1977
vn 0.5749 -0.8090 -0.1222
vn -0.5749 -0.8090 0.1222
vn -0.9303 -0.3090 0.1977
vn -0.9303 0.3090 0.1977
vn -0.5749 0.8090 0.1222
vn 0.3090 -0.0000 -0.9511
vn 0.6691 -0.0000 0.7431
vn -0.3090 -0.0000 0.9511
vn -0.6691 -0.0000 -0.7431
vn -0.2040 -0.1942 -0.9595
vn 0.2326 -0.1942 -0.9530
vn 0.2182 -0.3910 -0.8941
vn -0.1914 -0.3910 -0.9003
vn -0.0778 -0.9273 -0.3663
vn 0.0888 -0.9273 -0.3638
vn 0.0514 -0.9762 -0.2105
vn -0.0450 -0.9762 -0.2119
vn 0.2326 0.1942 -0.9530
vn -0.2040 0.1942 -0.9595
vn -0.1914 0.3910 -0.9003
vn 0.2182 0.3910 -0.8941
vn 0.0888 0.9273 -0.3638
vn -0.0778 0.9273 -0.3663
vn -0.0450 0.9762 -0.2119
vn 0.0514 0.9762 -0.2105
vn 0.6230 -0.1942 -0.7577
vn 0.5845 -0.3910 -0.7109
vn 0.2378 -0.9273 -0.2892
vn 0.1376 -0.9762 -0.1674
vn 0.6230 0.1942 -0.7577
vn 0.5845 0.3910 -0.7109
vn 0.2378 0.9273 -0.2892
vn 0.1376 0.9762 -0.1674
vn 0.8901 -0.1942 -0.4124
vn 0.8351 -0.3910 -0.3869
vn 0.3397 -0.9273 -0.1574
vn 0.1966 -0.9762 -0.0911
vn 0.8901 0.1942 -0.4124
vn 0.8351 0.3910 -0.3869
vn 0.3397 0.9273 -0.1574
vn 0.1966 0.9762 -0.0911
vn 0.9808 -0.1942 0.0147
vn 0.9203 -0.3910 0.0138
vn 0.3744 -0.9273 0.0056
vn 0.2167 -0.9762 0.0032
vn 0.9808 0.1942 0.0147
vn 0.9203 0.3910 0.0138
vn 0.3744 0.9273 0.0056
vn 0.2167 0.9762 0.0032
vn 0.8773 -0.1942 0.4388
vn 0.8232 -0.3910 0.4117
vn 0.3349 -0.9273 0.1675
vn 0.1938 -0.9762 0.0969
vn 0.8773 0.1942 0.4388
vn 0.8232 0.3910 0.4117
vn 0.3349 0.9273 0.1675
vn 0.1938 0.9762 0.0969
vn 0.6001 -0.1942 0.7760
vn 0.5630 -0.3910 0.7281
vn 0.2291 -0.9273 0.2962
vn 0.1325 -0.9762 0.1714
vn 0.6001 0.1942 0.7760
vn 0.5630 0.3910 0.7281
vn 0.2290 0.9273 0.2962
vn 0.1325 0.9762 0.1714
vn 0.2040 -0.1942 0.9595
vn 0.1914 -0.3910 0.9003
vn 0.0778 -0.9273 0.3663
vn 0.0451 -0.9762 0.2119
vn 0.2040 0.1942 0.9595
vn 0.1914 0.3910 0.9003
vn 0.0778 0.9273 0.3663
vn 0.0451 0.9762 0.2119
vn -0.2326 -0.1942 0.9530
vn -0.2182 -0.3910 0.8941
vn -0.0888 -0.9273 0.3638
vn -0.0514 -0.9762 0.2105
vn -0.2326 0.1942 0.9530
vn -0.2182 0.3910 0.8941
vn -0.0888 0.9273 0.3638
vn -0.0514 0.9762 0.2105
vn -0.6230 -0.1942 0.7577
vn -0.5845 -0.3910 0.7109
vn -0.2378 -0.9273 0.2892
vn -0.1376 -0.9762 0.1674
vn -0.6230 0.1942 0.7577
vn -0.5845 0.3910 0.7109
vn -0.2378 0.9273 0.2892
vn -0.1376 0.9762 0.1674
vn -0.8901 -0.1942 0.4124
vn -0.8351 -0.3910 0.3869
vn -0.3397 -0.9273 0.1574
vn -0.1966 -0.9762 0.0911
vn -0.8901 0.1942 0.4124
vn -0.8351 0.3910 0.3869
vn -0.3397 0.9273 0.1574
vn -0.1966 0.9762 0.0911
vn -0.9808 -0.1942 -0.0147
vn -0.9203 -0.3910 -0.0138
vn -0.3744 -0.9273 -0.0056
vn -0.2167 -0.9762 -0.0032
vn -0.9808 0.1942 -0.0147
vn -0.9203 0.3910 -0.0138
vn -0.3744 0.9273 -0.0056
vn -0.2167 0.9762 -0.0032
vn -0.8773 -0.1942 -0.4388
vn -0.8232 -0.3910 -0.4117
vn -0.3349 -0.9273 -0.1675
vn -0.1938 -0.9762 -0.0969
vn -0.8773 0.1942 -0.4388
vn -0.8232 0.3910 -0.4117
vn -0.3349 0.9273 -0.1675
vn -0.1938 0.9762 -0.0969
vn -0.6001 -0.1942 -0.7760
vn -0.5630 -0.3910 -0.7281
vn -0.2291 -0.9273 -0.2962
vn -0.1325 -0.9762 -0.1714
vn -0.6001 0.1942 -0.7760
vn -0.5630 0.3910 -0.7281
vn -0.2290 0.9273 -0.2962
vn -0.1325 0.9762 -0.1714
vn 0.9135 -0.0000 0.4067
vn 0.8075 0.4045 0.4293
vn 0.5179 0.7006 0.4908
vn 0.1222 0.8090 0.5749
vn -0.2735 0.7006 0.6590
vn -0.5631 0.4045 0.7206
vn -0.6691 -0.0000 0.7431
vn -0.5631 -0.4045 0.7206
vn -0.2735 -0.7006 0.6590
vn 0.1222 -0.8090 0.5749
vn 0.5179 -0.7006 0.4908
vn 0.8075 -0.4045 0.4293
vn -0.1045 -0.0000 0.9945
vn -0.0640 -0.1545 0.9859
vn 0.0466 -0.2676 0.9624
vn 0.1977 -0.3090 0.9303
vn 0.3489 -0.2676 0.8981
vn 0.4595 -0.1545 0.8746
vn 0.5000 -0.0000 0.8660
vn 0.4595 0.1545 0.8746
vn 0.3489 0.2676 0.8981
vn 0.1977 0.3090 0.9303
vn 0.0466 0.2676 0.9624
vn -0.0640 0.1545 0.9859
vn -0.5000 -0.0000 -0.8660
vn -0.4595 -0.1545 -0.8746
vn -0.3489 -0.2676 -0.8981
vn -0.1977 -0.3090 -0.9303
vn -0.0466 -0.2676 -0.9624
vn 0.0640 -0.1545 -0.9859
vn 0.1045 -0.0000 -0.9945
vn 0.0640 0.1545 -0.9859
vn -0.0466 0.2676 -0.9624
vn -0.1977 0.3090 -0.9303
vn -0.3489 0.2676 -0.8981
vn -0.4595 0.1545 -0.8746
vn 0.6691 -0.0000 -0.7431
vn 0.5631 0.4045 -0.7206
vn 0.2735 0.7006 -0.6590
vn -0.1222 0.8090 -0.5749
vn -0.5179 0.7006 -0.4908
vn -0.8075 0.4045 -0.4293
vn -0.9135 -0.0000 -0.4067
vn -0.8075 -0.4045 -0.4293
vn -0.5179 -0.7006 -0.4908
vn -0.1222 -0.8090 -0.5749
vn 0.2735 -0.7006 -0.6590
vn 0.5631 -0.4045 -0.7206
vn 0.2383 0.4156 -0.8778
vn 0.5936 0.6725 -0.4421
vn 0.7221 0.6725 0.1624
vn 0.5747 0.4156 0.7049
vn -0.2383 -0.4156 0.8778
vn -0.5936 -0.6725 0.4421
vn -0.7221 -0.6725 -0.1624
vn -0.6917 0.7071 0.1470
vn -0.5747 -0.4156 -0.7049
vn 0.6917 -0.7071 -0.1470
vn 0.2383 -0.4156 -0.8778
vn 0.5936 -0.6725 -0.4421
vn 0.7221 -0.6725 0.1624
vn 0.5747 -0.4156 0.7049
vn -0.2383 0.4156 0.8778
vn -0.5936 0.6725 0.4421
vn -0.7221 0.6725 -0.1624
vn -0.5747 0.4156 -0.7049
vn -0.6917 -0.7071 0.1470
s 1
usemtl chrome
f 2//1 8//2 9//3 3//4
f 3//5 9//6 7//7 1//8
f 11//9 5//10 6//11 12//12
f 12//13 6//14 4//15 10//16
f 8//2 14//17 15//18 9//3
f 9//6 15//19 13//20 7//7
f 17//21 11//9 12//12 18//22
f 18//23 12//13 10//16 16//24
f 14//17 20//25 21//26 15//18
f 15//19 21//27 19//28 13//20
f 23//29 17//21 18//22 24//30
f 24//31 18//23 16//24 22//32
f 20//25 26//33 27//34 21//26
f 21//27 27//35 25//36 19//28
f 29//37 23//29 24//30 30//38
f 30//39 24//31 22//32 28//40
f 26//33 32//41 33//42 27//34
f 27//35 33//43 31//44 25//36
f 35//45 29//37 30//38 36//46
f 36//47 30//39 28//40 34//48
f 32//41 38//49 39//50 33//42
f 33//43 39//51 37//52 31//44
f 41//53 35//45 36//46 42//54
f 42//55 36//47 34//48 40//56
f 38//49 44//57 45//58 39//50
f 39//51 45//59 43//60 37//52
f 47//61 41//53 42//54 48//62
f 48//63 42//55 40//56 46//64
f 44//57 50//65 51//66 45//58
f 45//59 51//67 49//68 43//60
f 53//69 47//61 48//62 54//70
f 54//71 48//63 46//64 52//72
f 50//65 56//73 57//74 51//66
f 51//67 57//75 55//76 49//68
f 59//77 53//69 54//70 60//78
f 60//79 54//71 52//72 58//80
f 56//73 62//81 63//82 57//74
f 57//75 63//83 61//84 55//76
f 65//85 59//77 60//78 66//86
f 66//87 60//79 58//80 64//88
f 62//81 68//89 69//90 63//82
f 63//83 69//91 67//92 61//84
f 71//93 65//85 66//86 72//94
f 72//95 66//87 64//88 70//96
f 68//89 74//97 75//98 69//90
f 69//91 75//99 73//100 67//92
f 77//101 71//93 72//94 78//102
f 78//103 72//95 70//96 76//104
f 74//97 80//105 81//106 75//98
f 75//99 81//107 79//108 73//100
f 83//109 77//101 78//102 84//110
f 84//111 78//103 76//104 82//112
f 80//105 86//113 87//114 81//106
f 81//107 87//115 85//116 79//108
f 89//117 83//109 84//110 90//118
f 90//119 84//111 82//112 88//120
f 86//113 92//121 93//122 87//114
f 87//115 93//123 91//124 85//116
f 95//125 89//117 90//118 96//126
f 96//127 90//119 88//120 94//128
f 92//121 98//129 99//130 93//122
f 93//123 99//131 97//132 91//124
f 101//133 95//125 96//126 102//134
f 102//135 96//127 94//128 100//136
f 98//129 104//137 105//138 99//130
f 99//131 105//139 103//140 97//132
f 107//141 101//133 102//134 108//142
f 108//143 102//135 100//136 106//144
f 104//137 110//145 111//146 105//138
f 105//139 111//147 109//148 103//140
f 113//149 107//141 108//142 114//150
f 114//151 108//143 106//144 112//152
f 110//145 116//153 117//154 111//146
f 111//147 117//155 115//156 109//148
f 119//157 113//149 114//150 120//158
f 120//159 114//151 112//152 118//160
f 116//153 122//161 123//162 117//154
f 117//155 123//163 121//164 115//156
f 125//165 119//157 120//158 126//166
f 126//167 120//159 118//160 124//168
f 122//161 128//169 129//170 123//162
f 123//163 129//171 127//172 121//164
f 131//173 125//165 126//166 132//174
f 132//175 126//167 124//168 130//176
f 128//169 134//177 135//178 129//170
f 129//171 135//179 133//180 127//172
f 137//181 131//173 132//174 138//182
f 138//183 132//175 130//176 136//184
f 134//177 140//185 141//186 135//178
f 135//179 141//187 139//188 133//180
f 143//189 137//181 138//182 144//190
f 144//191 138//183 136//184 142//192
f 140//185 146//193 147//194 141//186
f 141//187 147//195 145//196 139//188
f 149//197 143//189 144//190 150//198
f 150//199 144//191 142//192 148//200
f 146//193 152//201 153//202 147//194
f 147//195 153//203 151//204 145//196
f 155//205 149//197 150//198 156//206
f 156//207 150//199 148//200 154//208
f 152//201 158//209 159//210 153//202
f 153//203 159//211 157//212 151//204
f 161//213 155//205 156//206 162//214
f 162//215 156//207 154//208 160//216
f 158//209 164//217 165//218 159//210
f 159//211 165//219 163//220 157//212
f 167//221 161//213 162//214 168//222
f 168//223 162//215 160//216 166//224
f 164//217 170//225 171//226 165//218
f 165//219 171//227 169//228 163//220
f 173//229 167//221 168//222 174//230
f 174//231 168//223 166//224 172//232
f 170//225 176//233 177//234 171//226
f 171//227 177//235 175//236 169//228
f 179//237 173//229 174//230 180//238
f 180//239 174//231 172//232 178//240
f 176//233 182//241 183//242 177//234
f 177//235 183//243 181//244 175//236
f 185//245 179//237 180//238 186//246
f 186//247 180//239 178//240 184//248
f 182//241 188//249 189//250 183//242
f 183//243 189//251 187//252 181//244
f 191//253 185//245 186//246 192//254
f 192//255 186//247 184//248 190//256
f 188//249 194//257 195//258 189//250
f 189//251 195//259 193//260 187//252
f 197//261 191//253 192//254 198//262
f 198//263 192//255 190//256 196//264
f 194//257 200//265 201//266 195//258
f 195//259 201//267 199//268 193//260
f 203//269 197//261 198//262 204//270
f 204//271 198//263 196//264 202//272
f 200//265 206//273 207//274 201//266
f 201//267 207//275 205//276 199//268
f 209//277 203//269 204//270 210//278
f 210//279 204//271 202//272 208//280
f 206//273 212//281 213//282 207//274
f 207//275 213//283 211//284 205//276
f 215//285 209//277 210//278 216//286
f 216//287 210//279 208//280 214//288
f 212//281 2//1 3//4 213//282
f 213//283 3//5 1//8 211//284
f 5//10 215//285 216//286 6//11
f 6//14 216//287 214//288 4//15
f 1//8 7//7 13//20 19//28 25//36 31//44 37//52 43//60 49//68 55//76 61//84 67//92 73//100 79//108 85//116 91//124 97//132 103//140 109//148 115//156 121//164 127//172 133//180 139//188 145//196 151//204 157//212 163//220 169//228 175//236 181//244 187//252 193//260 199//268 205//276 211//284
f 2//1 5//10 11//9 8//2
f 212//281 215//285 5//10 2//1
f 10//16 4//15 214//288 208//280 202//272 196//264 190//256 184//248 178//240 172//232 166//224 160//216 154//208 148//200 142//192 136//184 130//176 124//168 118//160 112//152 106//144 100//136 94//128 88//120 82//112 76//104 70//96 64//88 58//80 52//72 46//64 40//56 34//48 28//40 22//32 16//24
f 8//2 11//9 17//21 14//17
f 14//17 17//21 23//29 20//25
f 20//25 23//29 29//37 26//33
f 26//33 29//37 35//45 32//41
f 32//41 35//45 41//53 38//49
f 38//49 41//53 47//61 44//57
f 44//57 47//61 53//69 50//65
f 50//65 53//69 59//77 56//73
f 56//73 59//77 65//85 62//81
f 62//81 65//85 71//93 68//89
f 68//89 71//93 77//101 74//97
f 74//97 77//101 83//109 80//105
f 80//105 83//109 89//117 86//113
f 86//113 89//117 95//125 92//121
f 92//121 95//125 101//133 98//129
f 98//129 101//133 107//141 104//137
f 104//137 107//141 113//149 110//145
f 110//145 113//149 119//157 116//153
f 116//153 119//157 125//165 122//161
f 122//161 125//165 131//173 128//169
f 128//169 131//173 137//181 134//177
f 134//177 137//181 143//189 140//185
f 140//185 143//189 149//197 146//193
f 146//193 149//197 155//205 152//201
f 152//201 155//205 161//213 158//209
f 158//209 161//213 167//221 164//217
f 164//217 167//221 173//229 170//225
f 170//225 173//229 179//237 176//233
f 176//233 179//237 185//245 182//241
f 182//241 185//245 191//253 188//249
f 188//249 191//253 197//261 194//257
f 194//257 197//261 203//269 200//265
f 200//265 203//269 209//277 206//273
f 206//273 209//277 215//285 212//281
f 689//363 690//363 692//463 691//463
f 691//463 692//463 694//345 693//345
f 693//345 694//345 696//374 695//374
f 695//374 696//374 698//289 697//289
f 697//289 698//289 700//464 699//464
f 699//464 700//464 702//326 701//326
f 701//326 702//326 704//465 703//465
f 703//465 704//465 706//308 705//308
f 705//308 706//308 708//392 707//392
f 707//392 708//392 710//327 709//327
f 692//365 690//365 712//365 710//365 708//365 706//365 704//365 702//365 700//365 698//365 696//365 694//365
f 709//327 710//327 712//466 711//466
f 711//466 712//466 690//363 689//363
f 689//383 691//383 693//383 695//383 697//383 699//383 701//383 703//383 705//383 707//383 709//383 711//383
f 797//579 798//580 810//580 809//579
f 798//580 799//581 811//581 810//580
f 799//581 800//582 812//582 811//581
f 800//582 801//583 813//583 812//582
f 801//583 802//584 814//584 813//583
f 802//584 803//585 815//585 814//584
f 803//585 804//586 816//586 815//585
f 804//586 805//587 817//587 816//586
f 805//587 806//588 818//588 817//587
f 806//588 807//589 819//589 818//588
f 807//589 808//590 820//590 819//589
f 808//590 797//579 809//579 820//590
f 809//591 810//592 822//592 821//591
f 810//592 811//593 823//593 822//592
f 811//593 812//594 824//594 823//593
f 812//594 813//595 825//595 824//594
f 813//595 814//596 826//596 825//595
f 814//596 815//597 827//597 826//596
f 815//597 816//598 828//598 827//597
f 816//598 817//599 829//599 828//598
f 817//599 818//600 830//600 829//599
f 818//600 819//601 831//601 830//600
f 819//601 820//602 832//602 831//601
f 820//602 809//591 821//591 832//602
f 821//392 822//389 834//389 833//392
f 822//389 823//386 835//386 834//389
f 823//386 824//383 836//383 835//386
f 824//383 825//380 837//380 836//383
f 825//380 826//377 838//377 837//380
f 826//377 827//374 839//374 838//377
f 827//374 828//371 840//371 839//374
f 828//371 829//368 841//368 840//371
f 829//368 830//365 842//365 841//368
f 830//365 831//398 843//398 842//365
f 831//398 832//395 844//395 843//398
f 832//395 821//392 833//392 844//395
f 833//603 834//604 846//604 845//603
f 834//604 835//605 847//605 846//604
f 835//605 836//606 848//606 847//605
f 836//606 837//607 849//607 848//606
f 837//607 838//608 850//608 849//607
f 838//608 839//609 851//609 850//608
f 839//609 840//610 852//610 851//609
f 840//610 841//611 853//611 852//610
f 841//611 842//612 854//612 853//611
f 842//612 843//613 855//613 854//612
f 843//613 844//614 856//614 855//613
f 844//614 833//603 845//603 856//614
f 845//615 846//616 798//616 797//615
f 846//616 847//617 799//617 798//616
f 847//617 848//618 800//618 799//617
f 848//618 849//619 801//619 800//618
f 849//619 850//620 802//620 801//619
f 850//620 851//621 803//621 802//620
f 851//621 852//622 804//622 803//621
f 852//622 853//623 805//623 804//622
f 853//623 854//624 806//624 805//623
f 854//624 855//625 807//625 806//624
f 855//625 856//626 808//626 807//625
f 856//626 845//615 797//615 808//626
usemtl ketchup
f 217//289 218//290 254//290 253//289
f 218//290 219//291 255//291 254//290
f 219//291 220//292 256//292 255//291
f 220//292 221//293 257//293 256//292
f 221//293 222//294 258//294 257//293
f 222//294 223//295 259//295 258//294
f 223//295 224//296 260//296 259//295
f 224//296 225//297 261//297 260//296
f 225//297 226//298 262//298 261//297
f 226//298 227//299 263//299 262//298
f 227//299 228//300 264//300 263//299
f 228//300 229//301 265//301 264//300
f 229//301 230//302 266//303 265//301
f 230//302 231//304 267//304 266//303
f 231//304 232//305 268//305 267//304
f 232//305 233//306 269//306 268//305
f 233//306 234//307 270//307 269//306
f 234//307 235//308 271//308 270//307
f 235//308 236//309 272//309 271//308
f 236//309 237//310 273//310 272//309
f 237//310 238//311 274//311 273//310
f 238//311 239//312 275//312 274//311
f 239//312 240//313 276//313 275//312
f 240//313 241//314 277//314 276//313
f 241//314 242//315 278//315 277//314
f 242//315 243//316 279//316 278//315
f 243//316 244//317 280//317 279//316
f 244//317 245//318 281//318 280//317
f 245//318 246//319 282//319 281//318
f 246//319 247//320 283//320 282//319
f 247//320 248//321 284//321 283//320
f 248//321 249//322 285//322 284//321
f 249//322 250//323 286//323 285//322
f 250//323 251//324 287//324 286//323
f 251//324 252//325 288//325 287//324
f 252//325 217//289 253//289 288//325
f 253//326 254//326 290//326 289//326
f 254//326 255//326 291//326 290//326
f 255//326 256//326 292//326 291//326
f 256//326 257//326 293//326 292//326
f 257//326 258//326 294//326 293//326
f 258//326 259//326 295//326 294//326
f 259//326 260//326 296//326 295//326
f 260//326 261//326 297//326 296//326
f 261//326 262//326 298//326 297//326
f 262//326 263//326 299//326 298//326
f 263//326 264//326 300//326 299//326
f 264//326 265//326 301//326 300//326
f 265//326 266//326 302//326 301//326
f 266//326 267//326 303//326 302//326
f 267//326 268//326 304//326 303//326
f 268//326 269//326 305//326 304//326
f 269//326 270//326 306//326 305//326
f 270//326 271//326 307//326 306//326
f 271//326 272//326 308//326 307//326
f 272//326 273//326 309//326 308//326
f 273//326 274//326 310//326 309//326
f 274//326 275//326 311//326 310//326
f 275//326 276//326 312//326 311//326
f 276//326 277//326 313//326 312//326
f 277//326 278//326 314//326 313//326
f 278//326 279//326 315//326 314//326
f 279//326 280//326 316//326 315//326
f 280//326 281//326 317//326 316//326
f 281//326 282//326 318//326 317//326
f 282//326 283//326 319//326 318//326
f 283//326 284//326 320//326 319//326
f 284//326 285//326 321//326 320//326
f 285//326 286//326 322//326 321//326
f 286//326 287//326 323//326 322//326
f 287//326 288//326 324//326 323//326
f 288//326 253//326 289//326 324//326
f 289//308 290//309 326//309 325//308
f 290//309 291//310 327//310 326//309
f 291//310 292//311 328//311 327//310
f 292//311 293//312 329//312 328//311
f 293//312 294//313 330//313 329//312
f 294//313 295//314 331//314 330//313
f 295//314 296//315 332//315 331//314
f 296//315 297//316 333//316 332//315
f 297//316 298//317 334//317 333//316
f 298//317 299//318 335//318 334//317
f 299//318 300//319 336//319 335//318
f 300//319 301//320 337//320 336//319
f 301//320 302//321 338//321 337//320
f 302//321 303//322 339//322 338//321
f 303//322 304//323 340//323 339//322
f 304//323 305//324 341//324 340//323
f 305//324 306//325 342//325 341//324
f 306//325 307//289 343//289 342//325
f 307//289 308//290 344//290 343//289
f 308//290 309//291 345//291 344//290
f 309//291 310//292 346//292 345//291
f 310//292 311//293 347//293 346//292
f 311//293 312//294 348//294 347//293
f 312//294 313//295 349//295 348//294
f 313//295 314//296 350//296 349//295
f 314//296 315//297 351//297 350//296
f 315//297 316//298 352//298 351//297
f 316//298 317//299 353//299 352//298
f 317//299 318//300 354//300 353//299
f 318//300 319//301 355//301 354//300
f 319//301 320//302 356//302 355//301
f 320//302 321//304 357//304 356//302
f 321//304 322//305 358//305 357//304
f 322//305 323//306 359//306 358//305
f 323//306 324//307 360//307 359//306
f 324//307 289//308 325//308 360//307
f 325//327 326//328 362//328 361//327
f 326//328 327//329 363//329 362//328
f 327//329 328//330 364//330 363//329
f 328//330 329//331 365//331 364//330
f 329//331 330//332 366//332 365//331
f 330//332 331//333 367//333 366//332
f 331//333 332//334 368//334 367//333
f 332//334 333//335 369//335 368//334
f 333//335 334//336 370//336 369//335
f 334//336 335//337 371//337 370//336
f 335//337 336//338 372//338 371//337
f 336//338 337//339 373//339 372//338
f 337//339 338//340 374//340 373//339
f 338//340 339//341 375//341 374//340
f 339//341 340//342 376//342 375//341
f 340//342 341//343 377//343 376//342
f 341//343 342//344 378//344 377//343
f 342//344 343//345 379//345 378//344
f 343//345 344//346 380//346 379//345
f 344//346 345//347 381//347 380//346
f 345//347 346//348 382//348 381//347
f 346//348 347//349 383//349 382//348
f 347//349 348//350 384//350 383//349
f 348//350 349//351 385//351 384//350
f 349//351 350//352 386//352 385//351
f 350//352 351//353 387//353 386//352
f 351//353 352//354 388//354 387//353
f 352//354 353//355 389//355 388//354
f 353//355 354//356 390//356 389//355
f 354//356 355//357 391//357 390//356
f 355//357 356//358 392//358 391//357
f 356//358 357//359 393//359 392//358
f 357//359 358//360 394//360 393//359
f 358//360 359//361 395//361 394//360
f 359//361 360//362 396//362 395//361
f 360//362 325//327 361//327 396//362
f 361//363 362//363 398//363 397//363
f 362//363 363//363 399//363 398//363
f 363//363 364//363 400//363 399//363
f 364//363 365//363 401//363 400//363
f 365//363 366//363 402//363 401//363
f 366//363 367//363 403//363 402//363
f 367//363 368//363 404//363 403//363
f 368//363 369//363 405//363 404//363
f 369//363 370//363 406//363 405//363
f 370//363 371//363 407//363 406//363
f 371//363 372//363 408//363 407//363
f 372//363 373//363 409//363 408//363
f 373//363 374//363 410//363 409//363
f 374//363 375//363 411//363 410//363
f 375//363 376//363 412//363 411//363
f 376//363 377//363 413//363 412//363
f 377//363 378//363 414//363 413//363
f 378//363 379//363 415//363 414//363
f 379//363 380//363 416//363 415//363
f 380//363 381//363 417//363 416//363
f 381//363 382//363 418//363 417//363
f 382//363 383//363 419//363 418//363
f 383//363 384//363 420//363 419//363
f 384//363 385//363 421//363 420//363
f 385//363 386//363 422//363 421//363
f 386//363 387//363 423//363 422//363
f 387//363 388//363 424//363 423//363
f 388//363 389//363 425//363 424//363
f 389//363 390//363 426//363 425//363
f 390//363 391//363 427//363 426//363
f 391//363 392//363 428//363 427//363
f 392//363 393//363 429//363 428//363
f 393//363 394//363 430//363 429//363
f 394//363 395//363 431//363 430//363
f 395//363 396//363 432//363 431//363
f 396//363 361//363 397//363 432//363
f 397//345 398//346 218//346 217//345
f 398//346 399//347 219//347 218//346
f 399//347 400//348 220//348 219//347
f 400//348 401//349 221//349 220//348
f 401//349 402//350 222//350 221//349
f 402//350 403//351 223//351 222//350
f 403//351 404//352 224//352 223//351
f 404//352 405//353 225//353 224//352
f 405//353 406//354 226//354 225//353
f 406//354 407//355 227//355 226//354
f 407//355 408//356 228//356 227//355
f 408//356 409//357 229//357 228//356
f 409//357 410//358 230//358 229//357
f 410//358 411//359 231//359 230//358
f 411//359 412//360 232//360 231//359
f 412//360 413//361 233//361 232//360
f 413//361 414//362 234//362 233//361
f 414//362 415//327 235//327 234//362
f 415//327 416//328 236//328 235//327
f 416//328 417//329 237//329 236//328
f 417//329 418//330 238//330 237//329
f 418//330 419//331 239//331 238//330
f 419//331 420//332 240//332 239//331
f 420//332 421//333 241//333 240//332
f 421//333 422//334 242//334 241//333
f 422//334 423//335 243//335 242//334
f 423//335 424//336 244//336 243//335
f 424//336 425//337 245//337 244//336
f 425//337 426//338 246//338 245//337
f 426//338 427//339 247//339 246//338
f 427//339 428//364 248//364 247//339
f 428//364 429//341 249//341 248//364
f 429//341 430//342 250//342 249//341
f 430//342 431//343 251//343 250//342
f 431//343 432//344 252//344 251//343
f 432//344 397//345 217//345 252//344
f 621//407 622//408 623//409
f 624//410 625//411 626//412
f 627//413 628//414 629//415
f 630//416 631//417 632//418
f 633//419 634//420 635//421
f 636//422 637//423 638//424
f 639//425 640//426 641//427
f 642//428 643//429 644//430
f 627//413 621//407 623//409 628//414
f 622//408 624//410 626//412 623//409
f 625//411 630//416 632//418 626//412
f 631//417 629//415 628//414 632//418
f 639//425 627//413 629//415 640//426
f 630//416 642//428 644//430 631//417
f 643//429 641//427 640//426 644//430
f 633//419 639//425 641//427 634//420
f 642//428 636//422 638//424 643//429
f 637//423 635//421 634//420 638//424
f 621//407 633//419 635//421 622//408
f 636//422 625//411 624//410 637//423
f 627//395 639//395 633//395 621//395
f 623//368 626//368 632//368 628//368
f 635//326 637//326 624//326 622//326
f 642//377 630//377 625//377 636//377
f 629//363 631//363 644//363 640//363
f 641//386 643//386 638//386 634//386
f 714//467 720//468 721//469 715//470
f 715//471 721//472 719//473 713//474
f 723//475 717//476 718//477 724//478
f 724//479 718//480 716//481 722//482
f 720//468 726//483 727//484 721//469
f 721//472 727//485 725//486 719//473
f 729//487 723//475 724//478 730//488
f 730//489 724//479 722//482 728//490
f 726//483 732//491 733//492 727//484
f 727//485 733//493 731//494 725//486
f 735//495 729//487 730//488 736//496
f 736//497 730//489 728//490 734//498
f 732//491 738//499 739//500 733//492
f 733//493 739//501 737//502 731//494
f 741//503 735//495 736//496 742//504
f 742//505 736//497 734//498 740//506
f 738//499 744//507 745//508 739//500
f 739//501 745//509 743//510 737//502
f 747//511 741//503 742//504 748//512
f 748//513 742//505 740//506 746//514
f 744//507 750//515 751//516 745//508
f 745//509 751//517 749//518 743//510
f 753//519 747//511 748//512 754//520
f 754//521 748//513 746//514 752//522
f 750//515 756//523 757//524 751//516
f 751//517 757//525 755//526 749//518
f 759//527 753//519 754//520 760//528
f 760//529 754//521 752//522 758//530
f 756//523 762//531 763//532 757//524
f 757//525 763//533 761//534 755//526
f 765//535 759//527 760//528 766//536
f 766//537 760//529 758//530 764//538
f 762//531 768//539 769//540 763//532
f 763//533 769//541 767//542 761//534
f 771//543 765//535 766//536 772//544
f 772//545 766//537 764//538 770//546
f 768//539 774//547 775//548 769//540
f 769//541 775//549 773//550 767//542
f 777//551 771//543 772//544 778//552
f 778//553 772//545 770//546 776//554
f 774//547 780//555 781//556 775//548
f 775//549 781//557 779//558 773//550
f 783//559 777//551 778//552 784//560
f 784//561 778//553 776//554 782//562
f 780//555 786//563 787//564 781//556
f 781//557 787//565 785//566 779//558
f 789//567 783//559 784//560 790//568
f 790//569 784//561 782//562 788//570
f 786//563 792//571 793//572 787//564
f 787//565 793//573 791//574 785//566
f 795//575 789//567 790//568 796//576
f 796//577 790//569 788//570 794//578
f 792//571 714//467 715//470 793//572
f 793//573 715//471 713//474 791//574
f 717//476 795//575 796//576 718//477
f 718//480 796//577 794//578 716//481
f 713//474 719//473 725//486 731//494 737//502 743//510 749//518 755//526 761//534 767//542 773//550 779//558 785//566 791//574
f 714//467 717//476 723//475 720//468
f 792//571 795//575 717//476 714//467
f 722//482 716//481 794//578 788//570 782//562 776//554 770//546 764//538 758//530 752//522 746//514 740//506 734//498 728//490
f 720//468 723//475 729//487 726//483
f 726//483 729//487 735//495 732//491
f 732//491 735//495 741//503 738//499
f 738//499 741//503 747//511 744//507
f 744//507 747//511 753//519 750//515
f 750//515 753//519 759//527 756//523
f 756//523 759//527 765//535 762//531
f 762//531 765//535 771//543 768//539
f 768//539 771//543 777//551 774//547
f 774//547 777//551 783//559 780//555
f 780//555 783//559 789//567 786//563
f 786//563 789//567 795//575 792//571
f 857//363 858//363 860//627 859//627
f 859//627 860//627 862//628 861//628
f 861//628 862//628 864//629 863//629
f 863//629 864//629 866//630 865//630
f 865//630 866//630 868//326 867//326
f 867//326 868//326 870//631 869//631
f 869//631 870//631 872//632 871//632
f 871//632 872//632 874//633 873//633
f 860//634 858//634 876//634 874//634 872//634 870//634 868//634 866//634 864//634 862//634
f 873//633 874//633 876//635 875//635
f 875//635 876//635 858//363 857//363
f 857//636 859//636 861//636 863//636 865//636 867//636 869//636 871//636 873//636 875//636
f 877//363 878//363 880//637 879//637
f 879//637 880//637 882//638 881//638
f 881//638 882//638 884//639 883//639
f 883//639 884//639 886//640 885//640
f 885//640 886//640 888//326 887//326
f 887//326 888//326 890//641 889//641
f 889//641 890//641 892//642 891//642
f 891//642 892//642 894//643 893//643
f 880//403 878//403 896//403 894//403 892//403 890//403 888//403 886//403 884//403 882//403
f 893//643 894//643 896//644 895//644
f 895//644 896//644 878//363 877//363
f 877//645 879//645 881//645 883//645 885//645 887//645 889//645 891//645 893//645 895//645
usemtl white
f 433//365 434//365 436//366 435//366
f 435//366 436//366 438//367 437//367
f 437//367 438//367 440//368 439//368
f 439//368 440//368 442//369 441//369
f 441//369 442//369 444//370 443//370
f 443//370 444//370 446//371 445//371
f 445//371 446//371 448//372 447//372
f 447//372 448//372 450//373 449//373
f 449//373 450//373 452//374 451//374
f 451//374 452//374 454//375 453//375
f 453//375 454//375 456//376 455//376
f 455//376 456//376 458//377 457//377
f 457//377 458//377 460//378 459//378
f 459//378 460//378 462//379 461//379
f 461//379 462//379 464//380 463//380
f 463//380 464//380 466//381 465//381
f 465//381 466//381 468//382 467//382
f 467//382 468//382 470//383 469//383
f 469//383 470//383 472//384 471//384
f 471//384 472//384 474//385 473//385
f 473//385 474//385 476//386 475//386
f 475//386 476//386 478//387 477//387
f 477//387 478//387 480//388 479//388
f 479//388 480//388 482//389 481//389
f 481//389 482//389 484//390 483//390
f 483//390 484//390 486//391 485//391
f 485//391 486//391 488//392 487//392
f 487//392 488//392 490//393 489//393
f 489//393 490//393 492//394 491//394
f 491//394 492//394 494//395 493//395
f 493//395 494//395 496//396 495//396
f 495//396 496//396 498//397 497//397
f 497//397 498//397 500//398 499//398
f 499//398 500//398 502//399 501//399
f 436//326 434//326 504//326 502//326 500//326 498//326 496//326 494//326 492//326 490//326 488//326 486//326 484//326 482//326 480//326 478//326 476//326 474//326 472//326 470//326 468//326 466//326 464//326 462//326 460//326 458//326 456//326 454//326 452//326 450//326 448//326 446//326 444//326 442//326 440//326 438//326
f 501//399 502//399 504//400 503//400
f 503//400 504//400 434//365 433//365
f 433//363 435//363 437//363 439//363 441//363 443//363 445//363 447//363 449//363 451//363 453//363 455//363 457//363 459//363 461//363 463//363 465//363 467//363 469//363 471//363 473//363 475//363 477//363 479//363 481//363 483//363 485//363 487//363 489//363 491//363 493//363 495//363 497//363 499//363 501//363 503//363
usemtl mint
f 505//326 514//326 513//326 512//326 511//326 510//326 509//326 508//326 507//326 506//326
f 524//363 515//363 516//363 517//363 518//363 519//363 520//363 521//363 522//363 523//363
f 505//392 506//392 516//392 515//392
f 506//401 507//402 517//402 516//401
f 507//402 508//368 518//368 517//402
f 508//368 509//403 519//403 518//368
f 509//403 510//371 520//371 519//403
f 510//371 511//404 521//404 520//371
f 511//404 512//374 522//374 521//404
f 512//374 513//405 523//405 522//374
f 513//405 514//406 524//406 523//405
f 514//386 505//386 515//386 524//386
usemtl navy
f 525//392 526//392 528//392 527//392
f 527//363 528//363 532//363 531//363
f 531//374 532//374 530//374 529//374
f 529//326 530//326 526//326 525//326
f 527//383 531//383 529//383 525//383
f 532//365 528//365 526//365 530//365
f 533//395 534//395 536//395 535//395
f 535//363 536//363 540//363 539//363
f 539//377 540//377 538//377 537//377
f 537//326 538//326 534//326 533//326
f 535//386 539//386 537//386 533//386
f 540//368 536//368 534//368 538//368
f 541//398 542//398 544//398 543//398
f 543//363 544//363 548//363 547//363
f 547//380 548//380 546//380 545//380
f 545//326 546//326 542//326 541//326
f 543//389 547//389 545//389 541//389
f 548//371 544//371 542//371 546//371
f 549//365 550//365 552//365 551//365
f 551//363 552//363 556//363 555//363
f 555//383 556//383 554//383 553//383
f 553//326 554//326 550//326 549//326
f 551//392 555//392 553//392 549//392
f 556//374 552//374 550//374 554//374
f 557//368 558//368 560//368 559//368
f 559//363 560//363 564//363 563//363
f 563//386 564//386 562//386 561//386
f 561//326 562//326 558//326 557//326
f 559//395 563//395 561//395 557//395
f 564//377 560//377 558//377 562//377
f 565//371 566//371 568//371 567//371
f 567//363 568//363 572//363 571//363
f 571//389 572//389 570//389 569//389
f 569//326 570//326 566//326 565//326
f 567//398 571//398 569//398 565//398
f 572//380 568//380 566//380 570//380
f 573//374 574//374 576//374 575//374
f 575//363 576//363 580//363 579//363
f 579//392 580//392 578//392 577//392
f 577//326 578//326 574//326 573//326
f 575//365 579//365 577//365 573//365
f 580//383 576//383 574//383 578//383
f 581//377 582//377 584//377 583//377
f 583//363 584//363 588//363 587//363
f 587//395 588//395 586//395 585//395
f 585//326 586//326 582//326 581//326
f 583//368 587//368 585//368 581//368
f 588//386 584//386 582//386 586//386
f 589//380 590//380 592//380 591//380
f 591//363 592//363 596//363 595//363
f 595//398 596//398 594//398 593//398
f 593//326 594//326 590//326 589//326
f 591//371 595//371 593//371 589//371
f 596//389 592//389 590//389 594//389
f 597//383 598//383 600//383 599//383
f 599//363 600//363 604//363 603//363
f 603//365 604//365 602//365 601//365
f 601//326 602//326 598//326 597//326
f 599//374 603//374 601//374 597//374
f 604//392 600//392 598//392 602//392
f 605//386 606//386 608//386 607//386
f 607//363 608//363 612//363 611//363
f 611//368 612//368 610//368 609//368
f 609//326 610//326 606//326 605//326
f 607//377 611//377 609//377 605//377
f 612//395 608//395 606//395 610//395
f 613//389 614//389 616//389 615//389
f 615//363 616//363 620//363 619//363
f 619//371 620//371 618//371 617//371
f 617//326 618//326 614//326 613//326
f 615//380 619//380 617//380 613//380
f 620//398 616//398 614//398 618//398
f 645//431 646//432 647//433
f 648//434 649//435 650//436
f 651//437 652//438 653//439
f 654//440 655//441 656//442
f 657//443 658//444 659//445
f 660//446 661//447 662//448
f 663//449 664//450 665//451
f 666//452 667//453 668//454
f 651//437 645//431 647//433 652//438
f 646//432 648//434 650//436 647//433
f 649//435 654//440 656//442 650//436
f 655//441 653//439 652//438 656//442
f 663//449 651//437 653//439 664//450
f 654//440 666//452 668//454 655//441
f 667//453 665//451 664//450 668//454
f 657//443 663//449 665//451 658//444
f 666//452 660//446 662//448 667//453
f 661//447 659//445 658//444 662//448
f 645//431 657//443 659//445 646//432
f 660//446 649//435 648//434 661//447
f 651//380 663//380 657//380 645//380
f 647//389 650//389 656//389 652//389
f 659//326 661//326 648//326 646//326
f 666//398 654//398 649//398 660//398
f 653//363 655//363 668//363 664//363
f 665//371 667//371 662//371 658//371
f 669//365 670//365 672//455 671//455
f 671//455 672//455 674//456 673//456
f 673//456 674//456 676//457 675//457
f 675//457 676//457 678//458 677//458
f 677//458 678//458 680//383 679//383
f 679//383 680//383 682//459 681//459
f 681//459 682//459 684//460 683//460
f 683//460 684//460 686//461 685//461
f 672//326 670//326 688//326 686//326 684//326 682//326 680//326 678//326 676//326 674//326
f 685//461 686//461 688//462 687//462
f 687//462 688//462 670//365 669//365
f 669//363 671//363 673//363 675//363 677//363 679//363 681//363 683//363 685//363 687//363
